<svg xmlns="http://www.w3.org/2000/svg" xmlns:xlink="http://www.w3.org/1999/xlink" width="53.67" height="19.91" viewBox="0 0 53.67 19.91"><defs><style>.cls-1{fill:none;}.cls-2{clip-path:url(#clip-path);}.cls-3{fill:#231f20;}</style><clipPath id="clip-path" transform="translate(0 0)"><rect class="cls-1" width="53.67" height="19.91"/></clipPath></defs><g id="Layer_2" data-name="Layer 2"><g id="svg2"><g id="g10"><g id="g66"><g id="g68"><g id="g106"><g id="g120"><g class="cls-2"><g id="g118"><g id="g116"><path id="path114" class="cls-3" d="M43,6.74a1.76,1.76,0,0,0-.22-1.29c-.21-.23-.44-.24-.76.25-.1.15-.1.3.11.44s.87.6.87.6m-3,3.47c-.34.17-.64,0,.15-.59a9.44,9.44,0,0,0,2.52-2.1,8.78,8.78,0,0,1-1.07-.81c-.34-.34.09-1.27.42-1.63.84-1,1.25-.32,1.35-.15a2.76,2.76,0,0,1,0,2.07s.33.24.43.34.07.42-.1.93c-.07.17-.26-.31-.71-.52-.36.75-.75,1.39-3,2.46M30.74,6.72a1.77,1.77,0,0,0-.23-1.29c-.21-.23-.44-.24-.75.25-.1.15-.1.3.11.44s.87.6.87.6m-3,3.47c-.34.17-.64,0,.15-.59a9.44,9.44,0,0,0,2.52-2.1,8.78,8.78,0,0,1-1.07-.81c-.34-.34.09-1.27.42-1.63.84-1,1.25-.33,1.35-.16A2.78,2.78,0,0,1,31.1,7a4.46,4.46,0,0,1,.42.34c.13.14.08.42-.1.93-.06.17-.25-.31-.7-.52-.36.75-.75,1.38-3,2.46M11.39,8.33l.26-.48s.07-.1.1,0A2.35,2.35,0,0,1,11.8,9.3c-.14.38-.24.6-.72.73a.86.86,0,0,1-1-.34,1.19,1.19,0,0,1-1.22.85c-.54-.08-.86-.67-.33-1.71.15-.31.26-.15.21,0-.25.69,0,.94.36.91.56,0,.87-.36,1-1.09,0-.11-.05-.09.2-.3s.17-.07.16.15a.79.79,0,0,0,.19.67c.24.19.56.14.87-.15a1.66,1.66,0,0,0-.14-.54c0-.06,0-.1,0-.15M35.85,6.62c-.48.2-.69.18-1.29.4-.12,0-.27,0-.28-.07s.1-.23.2-.3,1.75-.89,1.76-1a3.16,3.16,0,0,0-1-.31,1.71,1.71,0,0,0-1.11.26,1.16,1.16,0,0,0-.36.37c-.09.12-.17,0-.13-.14l.14-.32a1.66,1.66,0,0,1,1.68-1,7.27,7.27,0,0,1,1.29.36c.12,0,.56.07.58.19a1.88,1.88,0,0,1-.36.8c-.06,0-.12,0-.16.06a4.16,4.16,0,0,1-1,.66m-6,7.87a8.08,8.08,0,0,1-1-.64.74.74,0,0,1-.1-.91c.48-.75,1.7-2,2.42-1.92.43,0,.89.57.86.8s-.46,1-.68,1-.17-.6-.83-.7c-.23,0-.85.36-.87.56s.66.93,1.53,1a5.12,5.12,0,0,0,1.74-.15c.11,0,.17,0,.08.16a4.7,4.7,0,0,1-.55.84,6.83,6.83,0,0,0-1.74.43,11.31,11.31,0,0,0-2,.93c-.08.05-.14,0-.11-.1s.19-.53.28-.72a4.06,4.06,0,0,1,.93-.55m23.68-3.18c-.12-1.13-.6-4.63-.64-5.53,0-.49-.08-.91-.29-.53a2.68,2.68,0,0,0-.28,1.64c.1,1.24.21,2.17.33,3.05a40.58,40.58,0,0,1,.46,5.46c0,.44.16.55.3.24a10.94,10.94,0,0,0,.12-4.33m-5.73,5.86a3.89,3.89,0,0,1-.42-.49h-.1l-.85.85,0,.16a3.55,3.55,0,0,0,.4.47,2.91,2.91,0,0,0,.51.43h.17l.85-.85v-.11a3.18,3.18,0,0,1-.53-.44M51.76,13a12.9,12.9,0,0,1-4.83-.95c.16-.14.5-.57.37-1.67s-.55-4.24-.55-4.24c0-.33-.17-.65,0-.81s.58-.46.36-.77a6,6,0,0,1-.73-1.23c-.1-.28-.18-.52-.32-.29s-.23.58-.45.87-.24.23-.11.47a3.67,3.67,0,0,1,.4,1.29c0,.21.08.66.14,1.09a46.2,46.2,0,0,1,.7,4.61s-3.17.12-3.59.52l-.63,1c-.06.11-.05.23.1.2a7.72,7.72,0,0,1,4.85.45c-.33.11-3.95,1.66-7,1.31-.46,0-3.67-.43-3.94-2.06,0-.21-.09-.28-.2-.07a1.71,1.71,0,0,0,.41,2.47,5.21,5.21,0,0,1-2.44,2.7,5.64,5.64,0,0,1-3.94-.19c-.22-.07-.55.1-.21.33s3.59,2.31,5.71.12a9.21,9.21,0,0,0,1.49-2.64c2.17,1.18,5.77.53,5.77.53a16,16,0,0,0,2.46-.72c.44-.19,3.51-1.57,5.59-1.09a3.24,3.24,0,0,0,.53.11s.38-.8.46-1,.18-.3-.4-.34M36,8.68h-.09L35,9.53l0,.15a3.64,3.64,0,0,0,.4.48,5.05,5.05,0,0,0,.51.43l.17,0,.85-.85v-.1a3.75,3.75,0,0,1-.53-.44,4.84,4.84,0,0,1-.42-.5M3.52,2.58a1.61,1.61,0,0,0-.21-1.2c-.19-.21-.41-.22-.7.23-.09.14-.09.28.11.41s.8.56.8.56M.7,5.79c-.32.15-.59,0,.13-.55A8.69,8.69,0,0,0,3.17,3.3a8,8,0,0,1-1-.75c-.31-.31.08-1.18.38-1.51C3.35.16,3.72.74,3.82.9a2.54,2.54,0,0,1,0,1.91s.3.23.39.32.06.39-.1.86c-.05.16-.23-.28-.65-.48-.33.7-.69,1.28-2.8,2.28M12.32,14a3.93,3.93,0,0,0-.84-1c-.46-.38-.86.18-.93.42-.26.79,1.09.66,1.38.64Zm.5-1a4.89,4.89,0,0,1-.67,4.93,4.28,4.28,0,0,1-1.65,1.53,9.53,9.53,0,0,1-5,.25c-.54-.13-.3-.48.15-.41a6.23,6.23,0,0,0,7-3.82l0-.24a5.47,5.47,0,0,1-2,.09c-1.24-.39-1-2.26,0-3.48s2,.74,2.19,1.15m7.47,1.81a5.6,5.6,0,0,1-1,1.27l1.44-.27a10.64,10.64,0,0,0-.42-1M21.56,6.3l0,.18a15.16,15.16,0,0,1-.39,6.57,11.18,11.18,0,0,1-.52,1.18A9.94,9.94,0,0,1,21.24,16c.18.88-.28,1.09-.46,1.14s-3.26.5-3.4.53-.23,0-.21-.18.08-.75.11-.9a.24.24,0,0,1,.24-.22l.76-.13a5,5,0,0,0,1.74-2,15.38,15.38,0,0,0-4-4.67l-.09.18a.41.41,0,0,1-.43.13c-.2-.05-1.52-.71-1.62-.77s-.14-.1-.18-.37a16.7,16.7,0,0,1-.29-2c0-.49.39-.25.63-.08a19.23,19.23,0,0,1,6.3,7,15.79,15.79,0,0,0,.44-7.48,4.91,4.91,0,0,0-.37-.68.8.8,0,0,1,0-.73,4.24,4.24,0,0,0,.46-.8c.08-.2.21,0,.27.22a5.27,5.27,0,0,0,.66,1,.65.65,0,0,1,.19.49,5.76,5.76,0,0,1-.37.69m-8.7-.56a5.38,5.38,0,0,1,1.23-.5,8.44,8.44,0,0,1,1-.17l.17-.23c.09-.13.36-.51.12-.47a4.73,4.73,0,0,1-1.62.15c-.41-.14-.55-.35-.58-.46s.16-.27.21-.3.44-.18.6-.08a.78.78,0,0,1,.24.29c.07.11.13.1.2,0s.48-.5.33-.73A.65.65,0,0,0,14,2.92a2.94,2.94,0,0,0-1.48,1.49.37.37,0,0,0,.12.39,2.62,2.62,0,0,0,.43.36,2.08,2.08,0,0,0-.29.27c-.07.12-.12.42,0,.39l.17-.08M7.08,13.07c-.15-1.68-1-6.64-1-6.64a.57.57,0,0,1,0-.41,4.61,4.61,0,0,0,.37-.69.65.65,0,0,0-.18-.49,4.61,4.61,0,0,1-.66-1c-.07-.2-.2-.42-.27-.22A4.1,4.1,0,0,1,5,4.44a.78.78,0,0,0,0,.72,2.49,2.49,0,0,1,.37.69c.28,1.22,1.19,7.39,1.25,7.83s.16,1.37-.46,1.84-2.8,1.8-4.31,1A2,2,0,0,1,.66,14c.13-.46.24-.77.33-1s0-.42-.23,0S-.65,15.64.48,17.08c.31.41,2.05,2.09,5.18,0,.39-.25,1.68-1.22,1.42-4M8,7.68c.14-.07,2.63-1.13,2.85-1.26s.37-.16.48-.37.13-.24.19-.38.13-.33-.29-.11-2.7,1.18-3,1.31-.38.18-.44.38a2.6,2.6,0,0,1-.1.35c0,.13-.12.27.3.08m3.53-5.15c.14-.06,3.6-1.47,3.83-1.59s.37-.15.49-.35A3.71,3.71,0,0,0,16,.21c.07-.15.15-.32-.28-.12-.28.13-3.68,1.53-4,1.64s-.38.17-.45.37-.1.3-.12.34-.13.27.3.09M24.64,5.88c0-.49-.08-.92-.29-.54A2.72,2.72,0,0,0,24.07,7c.1,1.23.21,2.16.33,3a43.49,43.49,0,0,1,.47,5.45c0,.44.16.56.29.24a11.11,11.11,0,0,0,.12-4.32c-.11-1.13-.6-4.63-.64-5.53" transform="translate(0 0)"/></g></g></g></g></g></g></g></g></g></g></svg>