<svg xmlns="http://www.w3.org/2000/svg" xmlns:xlink="http://www.w3.org/1999/xlink" width="64.53" height="17.93" viewBox="0 0 64.53 17.93"><defs><style>.cls-1{fill:none;}.cls-2{clip-path:url(#clip-path);}.cls-3{fill:#231f20;}</style><clipPath id="clip-path" transform="translate(0 0)"><rect class="cls-1" width="64.53" height="17.93"/></clipPath></defs><g id="Layer_2" data-name="Layer 2"><g id="svg2"><g id="g10"><g id="g50"><g id="g52"><g id="g90"><g id="g104"><g class="cls-2"><g id="g102"><g id="g100"><path id="path98" class="cls-3" d="M13.1,2.59l-.77.92v.16a3.66,3.66,0,0,0,.44.44,4.8,4.8,0,0,0,.54.38l.17,0,.77-.92V3.43A2.81,2.81,0,0,1,13.65,3c-.17-.14-.31-.3-.46-.45Zm.33,3.07,0,0L13,5.43A5.21,5.21,0,0,1,12.54,5h-.1l-.8,1v.16a3.26,3.26,0,0,0,.46.45,2.79,2.79,0,0,0,.57.4l.17,0,.75-.9.3.28a3.6,3.6,0,0,0,.57.39l.17,0,.8-.95,0-.11a4,4,0,0,1-.6-.41,5.21,5.21,0,0,1-.47-.47h-.1Zm-3.88,6L8.8,12l-.71.22v.05a11.3,11.3,0,0,1-1.7,4c-2.21,2.29-5.89.3-6.24.06s0-.42.22-.35a5.64,5.64,0,0,0,4.05.19c1.74-.72,2.72-3,3-3.71l-.32.11c-.33.1-.49-.62-.59-.89s0-.36.62-.52A20.22,20.22,0,0,0,10.36,9.9c.67-.35.38.55.37.82l0,.19c2.87.71,3.64-1,3.81-1.56s.37-.35.32-.08a6,6,0,0,1-.29,1.1c.45.21,1.8.53,1.79.39a7.81,7.81,0,0,1,0-1.7c.11-.3.24-.75.33-.92s.13-.26.25.16a5,5,0,0,1-.31,3.23c-.4.56-.56.77-1.1.67a3.16,3.16,0,0,1-1.53-.72c-1.06,1.31-2.77,1.28-4.39.16M17.71,15a2.63,2.63,0,0,1-.19.38c-.1.2-.23.25-.46.37s-4.87,2-5,2.09c-.42.2-.35.06-.3-.07s0-.15.1-.35.15-.26.44-.39,4.86-2,5.13-2.14c.42-.22.35,0,.28.11m3.73-8.9s0-.15.12-.34.16-.25.45-.37,6.26-2.57,6.53-2.69c.44-.19.36,0,.29.13s-.1.17-.21.37-.26.24-.49.35-6.26,2.58-6.4,2.64c-.43.17-.35,0-.29-.09m11.24,5c.18,1.85-.84,2.4-1.25,2.5a2.09,2.09,0,0,1-1.85-.32,5.51,5.51,0,0,1-.71-.78l-.43.21a12.51,12.51,0,0,1-5.88,1.92A3.42,3.42,0,0,1,19,11.39c-.11-.86-.43-4.17-.51-5A22.43,22.43,0,0,0,17.73,2s.2-.76.3-1,.23-.25.36,0c.57,1.22.91,6.09,1,7.13a7.84,7.84,0,0,0,1,4.07c1.36,1.84,4.91.76,6,.36a8.83,8.83,0,0,0,1.55-.8,2.07,2.07,0,0,0-2-.17c-.35.23-.26-.37-.1-.62,1.38-2.55,4.2-1.21,4.53-.75.17.25.31.95-.67,1.75l.14.08c1.47.7,2.24-.05,2.36-.22s-1.4-7.59-1.52-8.16-.18-.89-.2-1.11a3.91,3.91,0,0,0-.55-1.25c-.15-.23,0-.31.08-.48s.27-.47.43-.74.23,0,.34.28a6.36,6.36,0,0,0,.83,1.16c.25.3-.16.68-.34.86s-.13.24-.07.57l.18.9a68.57,68.57,0,0,1,1.3,7.26m3-2.76a13.26,13.26,0,0,1,.11,4.77c-.11.36-.29.24-.3-.25a51.38,51.38,0,0,0-.78-6c-.16-1-.33-2-.49-3.35a3.32,3.32,0,0,1,.18-1.83c.19-.43.28,0,.32.57.1,1,.77,4.83,1,6.08M6,4.3C5.8,4.16,5.8,4,5.9,3.85c.33-.52.58-.5.79-.26a1.86,1.86,0,0,1,.24,1.34S6.24,4.44,6,4.3M6.9,6c.48.23.68.73.74.55.18-.53.24-.83.1-1A5.12,5.12,0,0,0,7.3,5.2,2.89,2.89,0,0,0,7.26,3c-.11-.18-.53-.84-1.41.16-.35.38-.79,1.35-.44,1.7a8.71,8.71,0,0,0,1.12.84A9.81,9.81,0,0,1,3.9,7.94c-.82.59-.51.79-.16.62C6.12,7.43,6.53,6.77,6.9,6M53,4.06a.29.29,0,0,1-.11-.44c.32-.49.55-.48.76-.25a1.83,1.83,0,0,1,.23,1.29s-.66-.47-.88-.6m.85,1.61c.45.21.65.69.71.52.17-.51.23-.79.1-.93s-.43-.34-.43-.34a2.73,2.73,0,0,0,0-2.08c-.1-.17-.5-.79-1.35.16-.33.36-.75,1.29-.42,1.63a9.67,9.67,0,0,0,1.07.81,9.28,9.28,0,0,1-2.52,2.1c-.78.56-.49.76-.15.59,2.28-1.08,2.67-1.71,3-2.46M40.73,4a.27.27,0,0,1-.11-.43c.32-.49.55-.48.76-.25a1.76,1.76,0,0,1,.22,1.29S41,4.17,40.73,4m.85,1.62c.45.21.64.69.71.52.17-.51.23-.79.1-.93S42,4.9,42,4.9a2.78,2.78,0,0,0,0-2.08c-.1-.17-.5-.8-1.35.16-.33.36-.75,1.29-.42,1.63a8.78,8.78,0,0,0,1.07.81,9.64,9.64,0,0,1-2.52,2.1c-.79.56-.49.76-.15.59,2.28-1.08,2.67-1.71,3-2.46m6.09-1.77s.1,0,.16-.06a1.77,1.77,0,0,0,.36-.8c0-.12-.46-.16-.58-.19a7.27,7.27,0,0,0-1.29-.36,1.66,1.66,0,0,0-1.68,1c0,.09-.1.22-.13.31s0,.27.12.15A1.16,1.16,0,0,1,45,3.55a1.71,1.71,0,0,1,1.11-.26,3.07,3.07,0,0,1,1,.31c0,.07-1.52.82-1.76,1s-.22.18-.2.3.16.11.28.07c.6-.22.81-.2,1.29-.41a4,4,0,0,0,1-.65M39.79,13c-.09.19-.21.52-.28.72s0,.15.12.1a10.31,10.31,0,0,1,2-.93,6.64,6.64,0,0,1,1.74-.43,5.32,5.32,0,0,0,.55-.84c.08-.13,0-.18-.09-.16a5.36,5.36,0,0,1-1.74.15c-.87-.07-1.55-.74-1.53-1s.64-.6.87-.56c.67.1.65.69.83.7s.66-.76.68-1S42.48,9,42,8.93c-.72,0-1.94,1.18-2.41,1.93a.73.73,0,0,0,.09.91,9.46,9.46,0,0,0,1,.64,4.53,4.53,0,0,0-.93.55M64.41,9.23c-.12-1.13-.6-4.63-.65-5.53,0-.49-.08-.91-.29-.53a2.76,2.76,0,0,0-.28,1.64c.1,1.24.22,2.16.33,3.05A42,42,0,0,1,64,13.32c0,.44.16.55.29.23a11,11,0,0,0,.13-4.32m-5.74,5.86a3.89,3.89,0,0,1-.42-.49h-.09l-.85.85,0,.16a4.51,4.51,0,0,0,.4.47,4.24,4.24,0,0,0,.52.43h.16l.85-.86v-.1a3.18,3.18,0,0,1-.53-.44m4-4.13a13,13,0,0,1-4.84-1c.16-.14.5-.58.38-1.67s-.56-4.24-.56-4.24c0-.33-.17-.65,0-.81s.58-.46.35-.77a7.1,7.1,0,0,1-.73-1.23c-.09-.28-.18-.52-.32-.3a9.23,9.23,0,0,1-.45.88c-.12.16-.24.23-.1.47a3.6,3.6,0,0,1,.39,1.29c0,.21.08.66.14,1.09a45.84,45.84,0,0,1,.71,4.61s-3.18.12-3.6.52l-.63,1c0,.11,0,.23.1.2a7.64,7.64,0,0,1,4.85.45c-.33.11-4,1.66-7,1.31-.45,0-3.67-.43-3.93-2.06,0-.21-.1-.28-.2-.07a1.7,1.7,0,0,0,.41,2.47,5.32,5.32,0,0,1-2.45,2.7,5.63,5.63,0,0,1-3.94-.19c-.22-.08-.54.1-.21.33s3.59,2.31,5.71.12a9.21,9.21,0,0,0,1.49-2.64C50.38,14.64,54,14,54,14a16,16,0,0,0,2.46-.72c.45-.19,3.52-1.58,5.59-1.09a3.15,3.15,0,0,0,.54.11s.37-.8.45-1,.19-.31-.39-.34M47.23,7.1a3.84,3.84,0,0,0,.54.44v.1l-.84.85-.17,0a5.15,5.15,0,0,1-.52-.43,3.56,3.56,0,0,1-.39-.48l0-.15.85-.86h.09a4.84,4.84,0,0,0,.42.5" transform="translate(0 0)"/></g></g></g></g></g></g></g></g></g></g></svg>