<svg xmlns="http://www.w3.org/2000/svg" xmlns:xlink="http://www.w3.org/1999/xlink" width="85.86" height="20.3" viewBox="0 0 85.86 20.3"><defs><style>.cls-1{fill:none;}.cls-2{clip-path:url(#clip-path);}.cls-3{fill:#231f20;}</style><clipPath id="clip-path" transform="translate(0 0)"><rect class="cls-1" width="85.86" height="20.3"/></clipPath></defs><g id="Layer_2" data-name="Layer 2"><g id="svg2"><g id="g10"><g id="g50"><g id="g52"><g id="g74"><g id="g88"><g class="cls-2"><g id="g86"><g id="g84"><path id="path82" class="cls-3" d="M13.63,6.66l-.77.92v.16a3.66,3.66,0,0,0,.44.44,4.14,4.14,0,0,0,.55.38l.16,0,.77-.92V7.5a2.74,2.74,0,0,1-.57-.39c-.17-.14-.32-.3-.47-.45ZM14,9.73l0,0-.38-.28A3.48,3.48,0,0,1,13.08,9H13l-.8,1v.16a3.26,3.26,0,0,0,.46.45,3.09,3.09,0,0,0,.57.4l.17,0,.76-.9.29.28a3.6,3.6,0,0,0,.57.39l.17,0,.8-1,0-.11a3.9,3.9,0,0,1-.59-.41,3.48,3.48,0,0,1-.47-.47h-.1ZM36.08,9a5.1,5.1,0,0,1-.21,1.05l-.22,0a1.49,1.49,0,0,0-2.18-.42,5.51,5.51,0,0,0-2,2.09c-.18.35-.31.71.32,1a3.71,3.71,0,0,0,2.4.17c.35-.06,1.6-.33,1.22,1.5a6.19,6.19,0,0,1-5.63,3.35c-1.16,0-3.39-.61-3.59-2.74a6.09,6.09,0,0,1,.58-3.18c.22-.66.6-.69.55-.45s-.08.26-.08.26v0c-.1.26-1.06,2.82.06,3.8.85.76,2.78,2,6.37-.32a8.33,8.33,0,0,0,1.12-.86c.11-.1.31-.43-.73-.21-.23,0-1.93.44-2.8-.36-.18-.17-.68-.67-.24-2,.17-.52,1.3-3.63,3.68-3.74.44,0,1.42.51,1.37,1M24.79,11.83s-3.4,1.6-4.18,1.94c-2.7,1.29-3.66.43-4.11.08a4.49,4.49,0,0,1-.43,1.06c-.34.52-1.14.73-2.23-.27-.87,1.09-2.21.73-3.59-.28-.45.19-1.25.53-1.45.6l-.71.23v0a11.3,11.3,0,0,1-1.7,4c-2.21,2.29-5.89.3-6.24.07s0-.42.22-.35a5.65,5.65,0,0,0,4,.18c1.75-.72,2.72-3,3-3.7a2.54,2.54,0,0,0-.32.1c-.33.1-.49-.61-.58-.89s0-.36.61-.51a21.2,21.2,0,0,0,3.24-1.2c.62-.32.41.42.37.76,2.84.94,3.48-.7,3.65-1.26s.35-.33.31-.06a7.92,7.92,0,0,1-.3,1.23c.42.18,1.42.72,1.77,0a7.73,7.73,0,0,0,.36-1.31c.11-.4.36-.36.34,0l0,.25c.59.87,2.32.49,2.72.31a2.27,2.27,0,0,1-1.06-2,3.38,3.38,0,0,1,1.94-3,3,3,0,0,1,2.79.67c.29.29.15.59-.45.22s-1.92.13-2.57.4a1.59,1.59,0,0,0-1,1.34c0,.42.59,1.23,1.89,1.43s3.43-1,3.83-1.3,0,.79-.16,1.21M9.36,6.31s.05-.15.12-.35.15-.25.44-.37S15.82,3.13,16.09,3c.43-.21.35,0,.29.12s-.09.17-.2.37-.25.24-.48.36-5.9,2.48-6,2.54c-.43.19-.35.05-.3-.08m19.31.43a3.19,3.19,0,0,0,.12-.34c.07-.2.16-.26.45-.37s4-1.63,4.31-1.76c.43-.19.35,0,.28.13a3.75,3.75,0,0,1-.2.37c-.12.2-.25.24-.48.36s-4,1.64-4.17,1.7c-.43.18-.36,0-.31-.09M18.71,6s0-.15.08-.35.13-.27.41-.42,4.21-1.74,4.47-1.89.35-.07.3.09-.08.18-.17.39-.22.27-.44.41S19.14,5.94,19,6c-.41.23-.35.09-.31,0M2.91,12.2s0-.15.07-.36.11-.27.38-.43S8,9.47,8.24,9.3s.35-.07.3.09a3.17,3.17,0,0,1-.15.4c-.08.21-.21.27-.42.42s-4.63,1.95-4.75,2c-.39.24-.34.1-.31,0m39.64,4.26a3.71,3.71,0,0,1-.2.38c-.11.2-.25.24-.48.36S37.53,19,37.39,19.07c-.42.19-.35.06-.3-.08s0-.15.12-.35.15-.25.44-.37,4.34-1.8,4.62-1.93.35,0,.28.12m.88-14s0-.15.12-.34.15-.26.44-.37S47.31.22,47.59.09s.35,0,.28.13-.09.17-.21.37-.25.24-.48.35-3.32,1.55-3.45,1.6c-.43.19-.35,0-.3-.08m13.86,8.26a15.32,15.32,0,0,1,.13,5.09c-.11.37-.29.25-.31-.27a58.5,58.5,0,0,0-.78-6.38c-.17-1-.33-2.12-.5-3.56A3.76,3.76,0,0,1,56,3.65c.18-.46.27,0,.32.61.1,1.06.78,5.14,1,6.46M37.25,16c-.33-.07-.33-1-.32-1.21s.2-.14.41-.08a15.31,15.31,0,0,0,3.39-.58c.23,0,.2-.28.15-.44a4.37,4.37,0,0,0-2.48-2.59L38.45,10l.18-.14A3.93,3.93,0,0,1,41,12.05a4.89,4.89,0,0,1,.23,3,.53.53,0,0,1-.4.34,11.79,11.79,0,0,1-3.55.61m18.13-3.15a6.73,6.73,0,0,1-.38.93,7.88,7.88,0,0,0-4.87,1.41,7.36,7.36,0,0,1-4.72,1.26c-1.45-.19-2.07-1.51-2.36-3s-.74-6.88-1.23-8.81a3.44,3.44,0,0,1,.31-1.52c.1-.23.21.05.31.48s1.11,8.66,1.18,9.12c.8,5,7.25,1,7.4.85-4.13-1-4.61-.2-4.74-.09s-.18.06-.15-.14a3.44,3.44,0,0,1,.5-1.13c.72-.63,2.95-.29,3.06-.64,0-.59-.82-5-.92-5.48s-.16-.87-.19-1.08a3.72,3.72,0,0,0-.51-1.23c-.15-.23,0-.31.08-.47a7.54,7.54,0,0,0,.43-.72c.13-.22.23,0,.33.28A6,6,0,0,0,49.7,4c.24.3-.2.66-.38.83a.66.66,0,0,0,0,.33c.18.93.68,3.46.87,4.28a7.59,7.59,0,0,1,0,2.75,16.67,16.67,0,0,0,5.06.34c.3,0,.23.13.17.31m18.91-7a.27.27,0,0,1-.11-.43c.32-.49.55-.48.76-.25a1.75,1.75,0,0,1,.22,1.29s-.65-.48-.87-.61m.85,1.62c.45.21.65.69.71.51.17-.5.23-.78.1-.92s-.43-.35-.43-.35a2.75,2.75,0,0,0,0-2.07c-.1-.17-.5-.8-1.35.15-.33.37-.75,1.3-.42,1.64a9.13,9.13,0,0,0,1.07.8,9.44,9.44,0,0,1-2.52,2.11c-.78.56-.49.75-.15.59,2.28-1.08,2.67-1.71,3-2.46M62.06,5.85A.27.27,0,0,1,62,5.42c.32-.49.55-.48.76-.25a1.75,1.75,0,0,1,.22,1.29s-.66-.48-.87-.61m.85,1.62c.45.21.64.69.7.51.18-.5.24-.78.11-.92s-.43-.35-.43-.35a2.75,2.75,0,0,0,0-2.07c-.1-.17-.5-.8-1.35.15-.33.37-.76,1.3-.42,1.63a7.79,7.79,0,0,0,1.07.81A9.44,9.44,0,0,1,60,9.34c-.79.56-.49.75-.15.59,2.28-1.08,2.67-1.71,3-2.46M69,5.69a.23.23,0,0,0,.16-.06,1.8,1.8,0,0,0,.36-.79c0-.12-.46-.17-.58-.2a8.23,8.23,0,0,0-1.29-.36,1.69,1.69,0,0,0-1.68,1l-.14.31c0,.16,0,.27.13.15a1.09,1.09,0,0,1,.36-.38,1.85,1.85,0,0,1,1.11-.26,3.27,3.27,0,0,1,1,.32c0,.07-1.52.82-1.76,1s-.23.18-.2.3.16.11.28.07c.6-.22.81-.2,1.29-.41a3.84,3.84,0,0,0,1-.66m-7.88,9.08c-.09.2-.21.53-.28.72s0,.16.11.11a10.74,10.74,0,0,1,2-.93,6.26,6.26,0,0,1,1.74-.43,7.66,7.66,0,0,0,.55-.84c.08-.14,0-.18-.09-.16a5.36,5.36,0,0,1-1.74.15c-.87-.08-1.55-.74-1.53-1s.64-.6.87-.56c.67.1.65.69.83.7s.66-.77.68-1-.43-.77-.86-.8c-.72,0-1.94,1.17-2.41,1.92a.72.72,0,0,0,.09.91,8.08,8.08,0,0,0,1,.64,4.53,4.53,0,0,0-.93.55m24.62-3.72c-.12-1.13-.6-4.63-.65-5.53C85.07,5,85,4.6,84.8,5a2.79,2.79,0,0,0-.28,1.65c.1,1.23.22,2.16.33,3.05a41.65,41.65,0,0,1,.47,5.45c0,.45.16.56.29.24a11,11,0,0,0,.13-4.32M80,16.91a4.84,4.84,0,0,1-.42-.5h-.09l-.85.85,0,.16a4.33,4.33,0,0,0,.4.47,4.24,4.24,0,0,0,.52.43l.16,0,.85-.85v-.1a3.18,3.18,0,0,1-.53-.44m4-4.13a12.78,12.78,0,0,1-4.83-1c.16-.13.5-.57.38-1.67s-.56-4.24-.56-4.24c0-.33-.17-.64,0-.81s.58-.45.35-.76a6,6,0,0,1-.73-1.23c-.09-.29-.18-.52-.32-.3a9.23,9.23,0,0,1-.45.88c-.12.15-.24.23-.1.46a3.71,3.71,0,0,1,.39,1.3c0,.21.08.66.14,1.09a43.44,43.44,0,0,1,.7,4.61s-3.17.11-3.59.51l-.63,1c-.06.11,0,.23.1.21a7.64,7.64,0,0,1,4.85.45c-.33.11-4,1.66-7,1.31-.45,0-3.67-.43-3.94-2.06,0-.21-.09-.28-.19-.08A1.71,1.71,0,0,0,68.94,15a5.35,5.35,0,0,1-2.45,2.7,5.66,5.66,0,0,1-3.94-.2c-.22-.07-.54.11-.21.34s3.59,2.31,5.71.12a9.36,9.36,0,0,0,1.49-2.64c2.17,1.18,5.77.53,5.77.53a16.11,16.11,0,0,0,2.46-.73c.45-.18,3.51-1.57,5.59-1.08a3.44,3.44,0,0,0,.54.1s.37-.79.45-1,.19-.3-.4-.33M68.56,8.91a2.93,2.93,0,0,0,.54.45v.1l-.85.85h-.16a4.15,4.15,0,0,1-.52-.42,6,6,0,0,1-.4-.48l0-.16.85-.85h.09a3.89,3.89,0,0,0,.42.49" transform="translate(0 0)"/></g></g></g></g></g></g></g></g></g></g></svg>