<svg xmlns="http://www.w3.org/2000/svg" xmlns:xlink="http://www.w3.org/1999/xlink" width="81.49" height="20.27" viewBox="0 0 81.49 20.27"><defs><style>.cls-1{fill:none;}.cls-2{clip-path:url(#clip-path);}.cls-3{fill:#231f20;}</style><clipPath id="clip-path" transform="translate(0 0)"><rect class="cls-1" width="81.49" height="20.27"/></clipPath></defs><g id="Layer_2" data-name="Layer 2"><g id="svg2"><g id="g10"><g id="g70"><g id="g72"><g id="g126"><g id="g140"><g class="cls-2"><g id="g138"><g id="g136"><path id="path134" class="cls-3" d="M44,7l-.78.92V8a4.57,4.57,0,0,0,.44.44,4.91,4.91,0,0,0,.55.38l.17,0,.77-.92,0-.11a3,3,0,0,1-.57-.39A4.91,4.91,0,0,1,44.13,7ZM44.37,10l0,.05L44,9.79a4.17,4.17,0,0,1-.47-.47h-.1l-.8,1v.16a3.19,3.19,0,0,0,.45.45,3.09,3.09,0,0,0,.57.4l.18,0,.75-.9.29.28a4.82,4.82,0,0,0,.57.39l.18,0,.79-.95,0-.11a4.47,4.47,0,0,1-.59-.41,5.21,5.21,0,0,1-.47-.47h-.1ZM13.65,6.64l-.78.92v.16a4.57,4.57,0,0,0,.44.44,4.91,4.91,0,0,0,.55.38l.16,0,.78-.92,0-.1a3.09,3.09,0,0,1-.57-.4,4.91,4.91,0,0,1-.46-.45ZM14,9.71l0,0-.38-.28A4.17,4.17,0,0,1,13.09,9H13l-.8,1v.16a3.25,3.25,0,0,0,.45.46,3.6,3.6,0,0,0,.57.39l.17,0,.76-.9.29.28a3.6,3.6,0,0,0,.57.39l.18,0L16,9.74l0-.11a4.47,4.47,0,0,1-.59-.41,4.17,4.17,0,0,1-.47-.47h-.1Zm11,.87c-.4.27-2.53,1.51-3.83,1.31s-1.89-1-1.89-1.43a1.56,1.56,0,0,1,1-1.34c.65-.28,2-.77,2.57-.4s.74.07.45-.22a2.93,2.93,0,0,0-2.79-.67,3.36,3.36,0,0,0-1.94,3,2.3,2.3,0,0,0,1.05,2c-.4.17-2.12.56-2.71-.32l0-.24c0-.4-.23-.44-.34,0a6.63,6.63,0,0,1-.37,1.3c-.34.7-1.34.16-1.76,0a7.65,7.65,0,0,0,.3-1.23c0-.27-.12-.5-.31.07s-.81,2.2-3.65,1.25c0-.33.25-1.07-.37-.75a20.22,20.22,0,0,1-3.24,1.19c-.61.16-.71.25-.61.52s.25,1,.58.88l.32-.1c-.28.73-1.25,3-3,3.7a5.59,5.59,0,0,1-4-.18c-.23-.07-.57.11-.22.35s4,2.23,6.24-.06a11.3,11.3,0,0,0,1.7-4v0l.7-.23c.21-.07,1-.42,1.46-.61,1.38,1,2.71,1.37,3.59.29,1.09,1,1.89.78,2.23.27a5.45,5.45,0,0,0,.43-1.06c.45.35,1.41,1.2,4.11-.08.78-.35,4.18-2,4.18-2,.16-.41.56-1.48.16-1.21M9.66,6.35l6-2.53c.23-.12.36-.16.48-.36l.2-.38c.06-.15.14-.32-.29-.12-.27.13-5.88,2.48-6.17,2.6s-.38.17-.44.37-.1.3-.12.34-.13.27.3.08M19,6c.13-.07,4.13-1.69,4.35-1.83s.35-.19.44-.4.12-.25.17-.4.11-.33-.3-.09S19.47,5,19.2,5.15s-.37.21-.41.41-.07.31-.08.36-.1.28.3,0M3.22,12.21c.12-.08,4.53-1.89,4.75-2s.34-.2.42-.42a3.66,3.66,0,0,0,.15-.4c.05-.16.09-.34-.3-.08s-4.6,2-4.88,2.11S3,11.6,3,11.81l-.07.35c0,.14-.09.29.31.05m29.53,5.48c-4.06,1.41-5.7-.68-5.9-1-1.32-2.28.55-5.05.71-5.26s.31-.06.21.11A5.93,5.93,0,0,0,27,14c.09,2.76,2.94,2.81,3.29,2.82a7.72,7.72,0,0,0,5.05-2c.19-.14.26-.19.15-.28A9.4,9.4,0,0,0,32,13.7c-.11,0-.16-.07-.09-.26s.21-.6.26-.73a8.94,8.94,0,0,0,2.45-.94c.52-.52-1.2-2.43-1.44-2.75l.31-1.42c0-.15.07-.23.21-.09,2.45,2.76,1.34,4.92,1.19,5.26,0,0,.79.07,1,.48a1.85,1.85,0,0,1,.26,1.48c-.31,1.39-2.92,2.78-3.43,3M26.65,5.6s.05-.15.11-.35.15-.25.44-.37,4-1.72,4.25-1.86c.42-.2.35,0,.28.12a3.31,3.31,0,0,1-.19.38c-.11.2-.25.24-.48.37s-4,1.73-4.11,1.79c-.42.19-.35.05-.3-.08m11.56,12c-.07.14-.1.17-.22.37s-.26.22-.5.33S34,19.74,33.88,19.79c-.43.16-.35,0-.29-.1s0-.14.12-.33.17-.25.47-.35,3.47-1.45,3.75-1.57c.44-.17.36,0,.28.14M52.52,9.86A15.48,15.48,0,0,1,52.74,15c-.11.37-.29.25-.32-.27a58,58,0,0,0-.89-6.36c-.18-1-.37-2.11-.57-3.55a3.7,3.7,0,0,1,.15-1.95c.18-.47.27,0,.33.6.12,1,.87,5.12,1.08,6.44m-2.88,2.57a6.62,6.62,0,0,1-.58,2.69c-.2.46-.94.19-1.38.09a3.89,3.89,0,0,1-1-.48,2.86,2.86,0,0,1-1,.74c-.74.26-4.95,1.64-6.85,0-.42-.31-1-.92-1-3,0-1-.34-6.08-.51-6.8a4.22,4.22,0,0,1,0-2.36c.19-.38.24-.16.3.12.44,2.5.81,8.5.85,9a2.4,2.4,0,0,0,1.65,2.25,9.18,9.18,0,0,0,5.74-.57,4,4,0,0,0,1.32-1c.16-.24.33-.25.28.1a3.34,3.34,0,0,1-.28.81l1.66.09c.37,0,.31-.52.26-.85s-1.16-6.7-1.28-7.23a9.61,9.61,0,0,1-.11-1,2.85,2.85,0,0,0-.33-.71.83.83,0,0,1,0-.73,4.4,4.4,0,0,0,.51-.76c.09-.2.21,0,.26.23a4.57,4.57,0,0,0,.59,1,.68.68,0,0,1,.15.51,5.16,5.16,0,0,1-.42.66.63.63,0,0,0-.06.41s1.13,5.93,1.24,6.75m-8.75-10s0-.15.12-.34.15-.26.44-.37,3.69-1.53,4-1.66.35,0,.28.12a3.71,3.71,0,0,1-.2.38c-.11.2-.25.24-.48.35s-3.7,1.55-3.83,1.61c-.43.18-.35,0-.3-.09M32,6.11a4.33,4.33,0,0,1-.4-.47l0-.16.84-.85h.1a6.4,6.4,0,0,0,.41.5,3.71,3.71,0,0,0,.54.44v.11l-.85.84-.17,0A4.15,4.15,0,0,1,32,6.11M44.8,3.61a1.61,1.61,0,0,1,.13.54c-.3.29-.62.34-.86.14a.77.77,0,0,1-.19-.66c0-.22,0-.31-.16-.15s-.19.19-.2.3c-.09.72-.4,1.05-1,1.09-.35,0-.6-.23-.36-.92,0-.15-.05-.3-.21,0-.52,1-.2,1.63.33,1.71a1.18,1.18,0,0,0,1.22-.85.85.85,0,0,0,1,.34c.47-.12.57-.34.71-.73a2.38,2.38,0,0,0,0-1.44c0-.1-.08,0-.11,0l-.25.48a.16.16,0,0,0,0,.15M69.92,5.52a.28.28,0,0,1-.11-.44c.32-.49.55-.47.76-.24a1.73,1.73,0,0,1,.22,1.28s-.65-.47-.87-.6m.85,1.61c.45.22.65.7.71.52.17-.5.23-.79.1-.92s-.43-.35-.43-.35a2.75,2.75,0,0,0,0-2.07c-.1-.17-.5-.8-1.35.15-.33.37-.75,1.29-.42,1.63a7.79,7.79,0,0,0,1.07.81A9.28,9.28,0,0,1,67.89,9c-.78.56-.49.75-.15.59,2.28-1.08,2.67-1.72,3-2.47M57.69,5.5a.28.28,0,0,1-.11-.44c.32-.49.55-.47.76-.25a1.76,1.76,0,0,1,.22,1.29s-.66-.47-.87-.6m.85,1.61c.45.22.64.7.7.52.18-.5.23-.79.1-.93s-.42-.34-.42-.34a2.75,2.75,0,0,0,0-2.07c-.1-.17-.51-.8-1.35.15-.33.36-.76,1.29-.42,1.63a7.79,7.79,0,0,0,1.07.81A9.44,9.44,0,0,1,55.66,9c-.79.57-.49.76-.15.6,2.28-1.08,2.67-1.72,3-2.47m6.09-1.77a.32.32,0,0,0,.16-.06,1.83,1.83,0,0,0,.36-.8c0-.12-.46-.16-.58-.19a8.23,8.23,0,0,0-1.29-.36,1.69,1.69,0,0,0-1.68,1l-.14.32c0,.16,0,.26.13.14A1.16,1.16,0,0,1,62,5a1.78,1.78,0,0,1,1.11-.26,3.35,3.35,0,0,1,1,.31c0,.08-1.52.83-1.76,1s-.23.19-.2.31.16.11.28.06c.6-.21.81-.2,1.29-.4a4.16,4.16,0,0,0,1-.66m-7.88,9.08c-.09.19-.21.53-.28.72s0,.15.12.1a11,11,0,0,1,2-.92,6.32,6.32,0,0,1,1.74-.44,6.12,6.12,0,0,0,.55-.84c.08-.13,0-.17-.09-.15A5.68,5.68,0,0,1,59,13c-.87-.08-1.56-.75-1.53-1s.64-.59.87-.56c.66.11.65.7.83.7s.66-.76.68-1-.43-.78-.86-.8c-.72-.05-1.94,1.17-2.41,1.92a.72.72,0,0,0,.09.91,8.08,8.08,0,0,0,1,.64,4.28,4.28,0,0,0-.93.55M81.37,10.7c-.12-1.14-.6-4.63-.65-5.53,0-.5-.08-.92-.29-.54a2.79,2.79,0,0,0-.28,1.65c.1,1.23.22,2.16.33,3A42,42,0,0,1,81,14.78c0,.44.16.56.29.24a11,11,0,0,0,.13-4.32m-5.74,5.85a3.89,3.89,0,0,1-.42-.49h-.09l-.85.86,0,.15a3,3,0,0,0,.4.47,2.91,2.91,0,0,0,.51.43h.17l.85-.85V17a2.75,2.75,0,0,1-.53-.44m4-4.13a12.54,12.54,0,0,1-4.84-.95c.16-.13.5-.57.38-1.67s-.56-4.24-.56-4.24c0-.33-.17-.64,0-.81s.58-.46.35-.77a5.77,5.77,0,0,1-.73-1.23c-.09-.28-.18-.51-.32-.29a9.14,9.14,0,0,1-.45.87c-.12.16-.24.24-.11.47a3.73,3.73,0,0,1,.4,1.3c0,.2.08.65.14,1.08a43.27,43.27,0,0,1,.7,4.62s-3.17.11-3.59.51l-.63,1c-.06.11,0,.23.1.21A7.59,7.59,0,0,1,75.3,13c-.33.12-4,1.66-7,1.32-.46,0-3.67-.44-3.94-2.07,0-.2-.09-.28-.2-.07a1.71,1.71,0,0,0,.42,2.47,5.33,5.33,0,0,1-2.45,2.71,5.72,5.72,0,0,1-3.94-.2c-.22-.07-.55.11-.21.33s3.59,2.31,5.71.12a9.21,9.21,0,0,0,1.49-2.64c2.17,1.18,5.77.53,5.77.53a15,15,0,0,0,2.46-.72c.45-.18,3.51-1.57,5.59-1.09a3.15,3.15,0,0,0,.54.11s.37-.8.45-1,.19-.3-.39-.34M64.19,8.56a2.88,2.88,0,0,0,.54.44v.11l-.85.84-.16,0a3.49,3.49,0,0,1-.52-.43,3.35,3.35,0,0,1-.39-.47l0-.16.85-.85h.09a4.75,4.75,0,0,0,.42.49" transform="translate(0 0)"/></g></g></g></g></g></g></g></g></g></g></svg>