<svg xmlns="http://www.w3.org/2000/svg" xmlns:xlink="http://www.w3.org/1999/xlink" width="84.07" height="20.14" viewBox="0 0 84.07 20.14"><defs><style>.cls-1{fill:none;}.cls-2{clip-path:url(#clip-path);}.cls-3{fill:#231f20;}</style><clipPath id="clip-path" transform="translate(0 0)"><rect class="cls-1" width="84.07" height="20.14"/></clipPath></defs><g id="Layer_2" data-name="Layer 2"><g id="svg2"><g id="g10"><g id="g54"><g id="g56"><g id="g78"><g id="g92"><g class="cls-2"><g id="g90"><g id="g88"><path id="path86" class="cls-3" d="M46.42,7l-.77.93V8a3,3,0,0,0,.43.44,3.87,3.87,0,0,0,.55.38l.17,0,.77-.93,0-.1A3.6,3.6,0,0,1,47,7.42,4,4,0,0,1,46.51,7ZM46.75,10l0,.06-.39-.28a5.32,5.32,0,0,1-.47-.48h-.1l-.8.95v.17a3.92,3.92,0,0,0,.46.45,3.78,3.78,0,0,0,.56.4l.18,0,.75-.91.3.28a5.23,5.23,0,0,0,.56.4l.18,0,.8-1,0-.1a4.47,4.47,0,0,1-.59-.41,5.32,5.32,0,0,1-.47-.48h-.1Zm-15-2.72L31,8.23v.16a2.91,2.91,0,0,0,.43.43,3.19,3.19,0,0,0,.55.38l.17,0,.77-.92,0-.11a3,3,0,0,1-.57-.39,4.91,4.91,0,0,1-.46-.45Zm.33,3.07,0,0-.39-.28a5.21,5.21,0,0,1-.47-.47h-.1l-.8,1v.16a3.92,3.92,0,0,0,.46.45,2.73,2.73,0,0,0,.56.4l.18,0,.75-.9.3.27a3.4,3.4,0,0,0,.56.4l.18,0,.8-.95,0-.11a4.47,4.47,0,0,1-.59-.41A5.21,5.21,0,0,1,33,9.42h-.1ZM13.65,6.55l-.77.92v.16a3.57,3.57,0,0,0,.43.44,3.87,3.87,0,0,0,.55.38l.17,0,.77-.93,0-.1A3.6,3.6,0,0,1,14.2,7a5,5,0,0,1-.46-.46ZM14,9.62l0,.05-.39-.27a4.25,4.25,0,0,1-.47-.48H13l-.8,1v.17a4.78,4.78,0,0,0,.45.45,3.6,3.6,0,0,0,.57.39l.18,0,.75-.91.3.28a4,4,0,0,0,.56.39l.18,0,.8-1,0-.1a5.68,5.68,0,0,1-.59-.41,5.32,5.32,0,0,1-.47-.48h-.1Zm23.39,5.67c.44.09,1.18.37,1.38-.09a6.66,6.66,0,0,0,.57-2.69c-.11-.83-1.23-6.76-1.23-6.76a.58.58,0,0,1,0-.41,4.53,4.53,0,0,0,.42-.66.68.68,0,0,0-.15-.51,5.77,5.77,0,0,1-.59-1c0-.21-.16-.44-.25-.24a3.64,3.64,0,0,1-.52.77.79.79,0,0,0,0,.73,2.88,2.88,0,0,1,.32.7c0,.21,0,.57.12,1s1.21,6.9,1.27,7.24.11.86-.26.84L37,14.12a3.1,3.1,0,0,0,.32-.93c0-.2-.14-.54-.34-.16s-1.72,2.56-6,2.55C27,15.57,26.5,12.94,27.1,12c.15-.23.06-.37-.11-.17a3.41,3.41,0,0,0-.52,3c1.13,2.67,5.7,1.88,5.7,1.88.32-.05,2.88-.33,4.27-1.84a4.14,4.14,0,0,0,.93.42M51.26,5.35a.52.52,0,0,1,.06-.41,5.73,5.73,0,0,0,.41-.66.68.68,0,0,0-.15-.51,5.77,5.77,0,0,1-.59-1c-.05-.21-.16-.44-.25-.24a4.31,4.31,0,0,1-.52.77.78.78,0,0,0,0,.72,3.1,3.1,0,0,1,.32.71c0,.21,0,.57.12,1,0,.13.14.62.24,1.29,0,.33,1,5.67,1,6.1s0,1.12-.44,1.05A6.55,6.55,0,0,1,50,13.69a.92.92,0,0,0-.95,0,8.06,8.06,0,0,1-4.78,1.26c-.5-.12-1.91-.26-2.26-2.65-.1-.73-1-7.71-1.14-8.11s-.22-.31-.27,0a4.88,4.88,0,0,0-.17,1.7c.36,1.4.76,5.79.86,6.66s.28,3.55,2.55,3.81A7.42,7.42,0,0,0,48.75,15c.32-.19.56-.31.82-.14s1.59,1.1,2.33,0a5.26,5.26,0,0,0,.47-3.28c-.12-.72-1.11-6.26-1.11-6.26m-22.11,0c.13-.07,4-1.69,4.2-1.82s.35-.18.45-.39.12-.24.18-.39.12-.33-.3-.1c-.26.15-4.05,1.74-4.33,1.88s-.37.2-.42.4a3.58,3.58,0,0,1-.09.35c0,.14-.1.28.31.07m12.16,11c-.27.14-4.08,1.67-4.37,1.8s-.37.19-.42.4-.08.3-.1.34-.11.28.3.07c.14-.06,4-1.6,4.23-1.74s.37-.17.47-.38.12-.24.18-.38.12-.33-.29-.11m2-13.76c.13-.06,3.58-1.51,3.81-1.63s.37-.16.48-.36a3.71,3.71,0,0,0,.2-.38c.07-.15.14-.32-.28-.12s-3.67,1.56-4,1.68-.38.18-.44.38-.1.3-.12.34-.12.27.31.09M54,3.81c-.06-.57-.15-1.07-.33-.61a3.61,3.61,0,0,0-.15,2c.19,1.44.38,2.52.57,3.55A58.61,58.61,0,0,1,55,15.07c0,.52.2.64.32.26a15.73,15.73,0,0,0-.22-5.08c-.21-1.32-1-5.39-1.08-6.44M25,10.46c-.4.27-2.52,1.5-3.83,1.31s-1.88-1-1.88-1.44A1.58,1.58,0,0,1,20.2,9c.65-.27,2-.76,2.57-.4s.74.07.46-.21a3,3,0,0,0-2.8-.67,3.33,3.33,0,0,0-1.93,3,2.24,2.24,0,0,0,1.05,2c-.4.18-2.13.56-2.72-.31l0-.25c0-.4-.23-.43-.34,0a7.62,7.62,0,0,1-.36,1.3c-.35.7-1.35.16-1.76,0a9.35,9.35,0,0,0,.29-1.23c0-.27-.12-.5-.3.07s-.82,2.19-3.65,1.25c0-.34.24-1.08-.38-.76A20.2,20.2,0,0,1,7.12,14c-.61.15-.71.25-.61.51s.26,1,.58.89l.32-.1c-.27.73-1.24,3-3,3.7a5.68,5.68,0,0,1-4-.18c-.23-.07-.57.11-.22.35s4,2.22,6.24-.07a11.21,11.21,0,0,0,1.7-4v0l.71-.22,1.45-.61c1.38,1,2.72,1.37,3.59.28,1.1,1,1.89.79,2.23.27a4.49,4.49,0,0,0,.43-1.06c.45.35,1.42,1.21,4.11-.08.78-.34,4.18-1.94,4.18-1.94.16-.42.56-1.49.16-1.21M9.67,6.23c.13-.05,5.8-2.42,6-2.54s.37-.15.48-.36a3.75,3.75,0,0,0,.2-.37c.07-.15.14-.33-.29-.12-.27.13-5.88,2.47-6.17,2.59s-.38.18-.44.37-.1.31-.11.35-.13.27.3.08M19,5.85c.13-.07,4.12-1.69,4.34-1.83s.35-.2.44-.41A3.31,3.31,0,0,0,24,3.22c.05-.15.11-.34-.3-.09S19.48,4.88,19.2,5s-.37.22-.41.42-.07.31-.08.35-.1.28.31.06M3.22,12.08c.12-.08,4.54-1.88,4.75-2s.34-.21.42-.42a3.17,3.17,0,0,0,.15-.4c.05-.16.1-.34-.3-.08-.25.16-4.6,1.94-4.87,2.1s-.36.23-.39.43-.06.32-.07.36-.08.28.31,0m43.9-8.19a1.44,1.44,0,0,1,.13.55.65.65,0,0,1-.88.15.81.81,0,0,1-.19-.68c0-.23,0-.31-.16-.15s-.19.19-.2.3c-.09.74-.41,1.07-1,1.11-.35,0-.62-.23-.37-.93.05-.15,0-.31-.21,0-.53,1.06-.21,1.65.34,1.73a1.17,1.17,0,0,0,1.23-.85.88.88,0,0,0,1,.34c.49-.13.59-.35.73-.74a2.34,2.34,0,0,0-.05-1.47c0-.1-.08,0-.1,0l-.26.49a.16.16,0,0,0,0,.15M72.5,5.39A.27.27,0,0,1,72.39,5c.32-.49.55-.48.76-.25A1.76,1.76,0,0,1,73.37,6s-.65-.47-.87-.61M73.35,7c.45.21.65.69.71.52.17-.51.23-.79.1-.93s-.43-.34-.43-.34a2.78,2.78,0,0,0,0-2.08c-.1-.17-.5-.8-1.35.16C72,4.7,71.59,5.63,71.92,6A8.78,8.78,0,0,0,73,6.78a9.28,9.28,0,0,1-2.52,2.1c-.78.56-.49.76-.15.59C72.6,8.39,73,7.76,73.35,7M60.27,5.37a.27.27,0,0,1-.11-.43c.32-.49.55-.48.76-.25A1.76,1.76,0,0,1,61.14,6s-.65-.48-.87-.61M61.12,7c.45.21.64.69.71.52.17-.51.23-.79.1-.93s-.43-.35-.43-.35a2.75,2.75,0,0,0,0-2.07c-.1-.17-.51-.8-1.35.16-.33.36-.76,1.29-.42,1.63a8.78,8.78,0,0,0,1.07.81,9.64,9.64,0,0,1-2.52,2.1c-.79.56-.49.75-.15.59,2.28-1.08,2.67-1.71,3-2.46m6.09-1.77s.1,0,.16-.06a1.88,1.88,0,0,0,.36-.8c0-.12-.46-.17-.58-.19a7.27,7.27,0,0,0-1.29-.36,1.66,1.66,0,0,0-1.68,1c0,.09-.1.22-.13.31s0,.27.12.15a1,1,0,0,1,.36-.37,1.71,1.71,0,0,1,1.11-.26,3.07,3.07,0,0,1,1,.31c0,.07-1.52.82-1.76,1s-.23.18-.2.3.16.11.28.07c.6-.22.81-.2,1.29-.41a4,4,0,0,0,1-.65M59.33,14.3c-.09.19-.21.52-.28.72s0,.15.12.1a10.31,10.31,0,0,1,2-.93,6.64,6.64,0,0,1,1.74-.43,6.8,6.8,0,0,0,.55-.84c.08-.13,0-.18-.09-.16a5.39,5.39,0,0,1-1.74.15c-.87-.07-1.55-.74-1.53-1s.64-.6.87-.56c.67.1.65.69.83.7s.66-.77.68-1-.43-.77-.86-.8c-.72,0-1.94,1.18-2.41,1.92a.74.74,0,0,0,.09.92,8.21,8.21,0,0,0,1,.63,5.1,5.1,0,0,0-.93.56M84,10.57c-.12-1.13-.6-4.63-.65-5.53,0-.49-.08-.91-.29-.53a2.76,2.76,0,0,0-.28,1.64c.1,1.24.22,2.16.33,3a41.65,41.65,0,0,1,.47,5.45c0,.45.16.56.29.24A11,11,0,0,0,84,10.57m-5.74,5.86a4.75,4.75,0,0,1-.42-.49H77.7l-.85.85,0,.16a4.33,4.33,0,0,0,.4.47,5.05,5.05,0,0,0,.51.43h.17l.85-.86v-.1a3.18,3.18,0,0,1-.53-.44m4-4.13a12.79,12.79,0,0,1-4.84-1c.16-.13.5-.57.38-1.67s-.56-4.23-.56-4.23c0-.33-.17-.65,0-.81s.58-.46.35-.77a6,6,0,0,1-.73-1.23c-.09-.28-.18-.52-.32-.3a9.23,9.23,0,0,1-.45.88c-.12.16-.24.23-.11.46a3.53,3.53,0,0,1,.4,1.3c0,.21.08.66.14,1.09a43.44,43.44,0,0,1,.7,4.61s-3.17.11-3.59.52l-.63,1c-.06.11-.05.23.1.21a7.63,7.63,0,0,1,4.85.45c-.33.11-3.95,1.66-7,1.31-.46,0-3.67-.43-3.94-2.06,0-.21-.09-.28-.2-.07a1.71,1.71,0,0,0,.42,2.47,5.32,5.32,0,0,1-2.45,2.7A5.7,5.7,0,0,1,60.76,17c-.22-.08-.54.1-.21.33s3.59,2.31,5.71.12a9.36,9.36,0,0,0,1.49-2.64c2.17,1.18,5.77.53,5.77.53A16.11,16.11,0,0,0,76,14.6c.45-.18,3.51-1.57,5.59-1.08a3.15,3.15,0,0,0,.54.11s.37-.8.45-1,.19-.31-.39-.34M66.77,8.44a3.34,3.34,0,0,0,.54.44V9l-.85.85H66.3a4,4,0,0,1-.52-.42,2.93,2.93,0,0,1-.39-.48l0-.15.85-.86h.09a4.84,4.84,0,0,0,.42.5" transform="translate(0 0)"/></g></g></g></g></g></g></g></g></g></g></svg>