<svg xmlns="http://www.w3.org/2000/svg" xmlns:xlink="http://www.w3.org/1999/xlink" width="81.98" height="19.61" viewBox="0 0 81.98 19.61"><defs><style>.cls-1{fill:none;}.cls-2{clip-path:url(#clip-path);}.cls-3{fill:#231f20;}</style><clipPath id="clip-path" transform="translate(0 0)"><rect class="cls-1" width="81.98" height="19.61"/></clipPath></defs><g id="Layer_2" data-name="Layer 2"><g id="svg2"><g id="g10"><g id="g106"><g id="g108"><g id="g162"><g id="g176"><g class="cls-2"><g id="g174"><g id="g172"><path id="path170" class="cls-3" d="M13.65,5.44l-.78.93v.15A3.66,3.66,0,0,0,13.3,7a3.87,3.87,0,0,0,.55.38l.17,0,.77-.93,0-.1a3.6,3.6,0,0,1-.57-.39,4,4,0,0,1-.46-.46ZM14,8.51l0,.06-.39-.28a4.25,4.25,0,0,1-.47-.48H13l-.8.95v.17a3.82,3.82,0,0,0,.45.45,3.66,3.66,0,0,0,.57.4l.17,0,.76-.9.29.27a4.12,4.12,0,0,0,.57.39l.18,0,.79-1,0-.1A4.47,4.47,0,0,1,15.35,8a4.25,4.25,0,0,1-.47-.48h-.1ZM27.55,4.19c.13-.05,3.58-1.5,3.82-1.62s.37-.15.48-.35a3.71,3.71,0,0,0,.2-.38c.07-.15.14-.32-.28-.12s-3.67,1.56-4,1.67-.38.18-.45.37l-.11.35c-.06.13-.13.27.3.08m21,.25c0-.32-.08-.38.12-.55s.65-.49.43-.81a5.38,5.38,0,0,1-.7-1.19c-.09-.28-.17-.52-.32-.3s-.24.4-.47.69-.25.22-.12.46A2.56,2.56,0,0,1,48,4c0,.58,1.3,7.55,1.19,7.86a3.24,3.24,0,0,1-3.17,0c-.18-.11-.25-.14-.29.19a1.25,1.25,0,0,0,.79,1.5,6.45,6.45,0,0,1-3,3.34,5.86,5.86,0,0,1-4.17-.07c-.23-.07-.57.11-.22.35s4.11,2.07,6.32-.22a10.15,10.15,0,0,0,1.68-3.3,5.45,5.45,0,0,0,.68,0c.7,0,1.69-.25,1.78-1.08a17.91,17.91,0,0,0-.41-5.27c-.17-1-.53-2.87-.53-2.87m-9.24,9.84a2.2,2.2,0,0,0,.19-.38c.07-.15.14-.33-.28-.12s-3.62,1.67-3.91,1.8-.37.18-.43.39-.09.3-.11.34-.12.27.31.08c.13-.07,3.54-1.61,3.77-1.74s.36-.16.46-.37m-1.76,3.4c-.8.07-5.62.82-7.76.18s-2.95-2.36-2.44-5.08a5.91,5.91,0,0,1,2.66-3.91,4.36,4.36,0,0,0,3.72,1.38,11.06,11.06,0,0,0,4.39-1.06c.24-.13.47-.41.6-1.41a3.74,3.74,0,0,0-1.08-3.09c-.15-.16-.22-.17-.27.06S37.17,6,37.17,6c.4.52,1.21,1.65,1,1.77s-3.54,1.66-6.35.73a6.08,6.08,0,0,1-.62-.34,1.47,1.47,0,0,0,.64-.49c.25-.48.59-1.18.07-1.55a3,3,0,0,0-2.13-.48,2.25,2.25,0,0,0-2.11,2c-.07.28,0,.38.2.21A1,1,0,0,1,29.36,8a4.46,4.46,0,0,0-.6.66A9.42,9.42,0,0,0,26.65,15c.23,3.57,2.84,5.2,6.72,4.42.92-.18,4-1.05,4.35-1.23s.67-.58-.13-.51m-1.48-6.6H36l-.84.85,0,.16a4.33,4.33,0,0,0,.4.47,4.15,4.15,0,0,0,.51.43h.17l.85-.86V12a3.18,3.18,0,0,1-.53-.44,4.75,4.75,0,0,1-.42-.49M51.8,3.19c0-.53-.12-1-.33-.57a2.9,2.9,0,0,0-.24,1.79c.15,1.32.31,2.32.47,3.28a45.84,45.84,0,0,1,.71,5.86c0,.48.19.6.32.25a11.73,11.73,0,0,0,0-4.67c-.18-1.22-.83-5-.91-5.94m-8.73-.56c.13-.06,3.57-1.55,3.8-1.67s.36-.16.47-.37a2.9,2.9,0,0,0,.2-.38c.06-.15.14-.32-.29-.11-.27.13-3.64,1.6-3.93,1.73s-.38.17-.44.37-.09.31-.11.35-.12.27.3.08M41.22,7.17a45.51,45.51,0,0,1,.51,5.89c0,.48.17.61.31.26a11.83,11.83,0,0,0,.14-4.66c-.13-1.23-.65-5-.7-6,0-.52-.09-1-.31-.57a3,3,0,0,0-.31,1.78c.11,1.33.24,2.33.36,3.28M25,9.38c-.4.27-2.52,1.51-3.83,1.31s-1.88-1-1.88-1.43a1.57,1.57,0,0,1,1-1.34c.65-.28,2-.77,2.57-.4s.74.07.46-.22a3,3,0,0,0-2.8-.67,3.34,3.34,0,0,0-1.94,3,2.27,2.27,0,0,0,1.06,2c-.4.17-2.13.56-2.72-.32l0-.24c0-.4-.23-.44-.34,0a7.73,7.73,0,0,1-.36,1.31c-.35.69-1.35.15-1.76,0a9.35,9.35,0,0,0,.29-1.23c0-.27-.12-.49-.31.07s-.81,2.2-3.64,1.25c0-.33.24-1.07-.38-.75a20.22,20.22,0,0,1-3.24,1.19c-.61.15-.71.25-.61.52s.25,1,.58.89l.32-.11c-.28.73-1.25,3-3,3.71a5.67,5.67,0,0,1-4-.19c-.23-.07-.57.11-.22.35s4,2.23,6.24-.06a11.3,11.3,0,0,0,1.7-4v0l.71-.23c.2-.07,1-.42,1.45-.61,1.38,1,2.72,1.37,3.59.28,1.09,1,1.89.79,2.23.28a4.88,4.88,0,0,0,.43-1.06c.45.35,1.41,1.2,4.11-.08.78-.35,4.18-1.94,4.18-1.94.16-.42.56-1.49.16-1.22M9.66,5.15c.14-.05,5.81-2.41,6-2.53s.36-.16.48-.36l.2-.38c.07-.15.14-.32-.29-.12-.27.13-5.88,2.48-6.17,2.6s-.38.17-.44.37-.1.3-.12.34-.12.27.3.08M19,4.77c.12-.07,4.12-1.69,4.34-1.83s.35-.19.44-.4a2.75,2.75,0,0,0,.17-.4c.05-.15.11-.33-.3-.09S19.48,3.8,19.2,4s-.37.21-.41.41-.07.31-.08.36-.1.28.31,0M3.22,11C3.34,10.93,7.76,9.12,8,9s.34-.2.42-.42a2.33,2.33,0,0,0,.15-.4c0-.16.09-.34-.3-.08S3.64,10,3.36,10.18,3,10.4,3,10.61L2.91,11c0,.14-.08.29.31,0m43-5.12a1.38,1.38,0,0,1,.12.5c-.28.27-.59.32-.81.14a.77.77,0,0,1-.18-.63c0-.2,0-.28-.15-.13s-.17.17-.18.28c-.09.67-.38,1-.9,1-.33,0-.57-.2-.34-.85,0-.14,0-.29-.19,0-.49,1-.19,1.52.31,1.59A1.08,1.08,0,0,0,45.07,7a.81.81,0,0,0,.92.32c.45-.12.54-.32.67-.68a2.17,2.17,0,0,0,0-1.35c0-.1-.08,0-.1,0l-.23.45s-.06.08,0,.14M70.41,4.32a.27.27,0,0,1-.11-.43c.32-.5.55-.48.76-.25a1.8,1.8,0,0,1,.23,1.28s-.66-.47-.88-.6m.85,1.61c.45.22.65.7.71.52.17-.5.23-.79.1-.93s-.43-.34-.43-.34a2.75,2.75,0,0,0,0-2.07c-.1-.17-.5-.8-1.35.15-.33.36-.75,1.3-.42,1.63a8.48,8.48,0,0,0,1.07.81,9.26,9.26,0,0,1-2.52,2.1c-.78.57-.49.76-.15.6,2.28-1.08,2.67-1.72,3-2.47M58.18,4.3a.28.28,0,0,1-.11-.44c.32-.49.55-.47.76-.24a1.73,1.73,0,0,1,.22,1.28s-.65-.47-.87-.6M59,5.91c.45.21.64.7.7.52.18-.5.24-.79.11-.93s-.43-.34-.43-.34a2.75,2.75,0,0,0,0-2.07c-.1-.17-.5-.8-1.35.15-.33.37-.76,1.29-.42,1.63a7.79,7.79,0,0,0,1.07.81,9.44,9.44,0,0,1-2.52,2.1c-.79.57-.49.76-.15.6,2.28-1.08,2.67-1.72,3-2.47m6.09-1.77a.29.29,0,0,0,.16-.06,1.88,1.88,0,0,0,.36-.8c0-.12-.46-.16-.58-.19a8.23,8.23,0,0,0-1.29-.36,1.69,1.69,0,0,0-1.68,1L62,4c0,.16,0,.26.13.14a1.16,1.16,0,0,1,.36-.37,1.78,1.78,0,0,1,1.11-.26,3.35,3.35,0,0,1,1,.31c0,.08-1.52.83-1.76,1s-.23.19-.2.31.16.11.28.06c.6-.21.81-.2,1.29-.4a4.16,4.16,0,0,0,1-.66m-7.88,9.08c-.09.19-.21.53-.28.72s0,.15.11.1a11.48,11.48,0,0,1,2-.92,6.32,6.32,0,0,1,1.74-.44,6.12,6.12,0,0,0,.55-.84c.08-.13,0-.17-.09-.15a5.65,5.65,0,0,1-1.74.15c-.87-.08-1.55-.75-1.53-1s.64-.59.87-.56c.67.11.65.7.83.7s.66-.76.68-1-.43-.78-.86-.8c-.72,0-1.94,1.17-2.41,1.92a.72.72,0,0,0,.09.91,8.08,8.08,0,0,0,1,.64,4.53,4.53,0,0,0-.93.55M81.86,9.5c-.12-1.14-.6-4.63-.65-5.53,0-.49-.08-.92-.29-.54a2.79,2.79,0,0,0-.28,1.65c.1,1.23.22,2.16.33,3a42,42,0,0,1,.47,5.46c0,.44.16.56.29.24a11,11,0,0,0,.13-4.32m-5.74,5.86a4.84,4.84,0,0,1-.42-.5h-.09l-.85.86,0,.15a3,3,0,0,0,.4.47,3,3,0,0,0,.52.43h.16l.85-.85v-.11a3.12,3.12,0,0,1-.53-.43m3.95-4.14a12.53,12.53,0,0,1-4.83-1c.16-.13.5-.57.38-1.67s-.56-4.24-.56-4.24c0-.33-.17-.64,0-.81s.58-.46.35-.77a5.77,5.77,0,0,1-.73-1.23c-.09-.28-.18-.51-.32-.29a9.14,9.14,0,0,1-.45.87c-.12.16-.24.23-.1.47a3.71,3.71,0,0,1,.39,1.3c0,.21.08.66.14,1.08a43.27,43.27,0,0,1,.7,4.62s-3.17.11-3.59.51l-.63,1c0,.11,0,.23.1.2a7.72,7.72,0,0,1,4.85.45c-.33.11-4,1.66-7,1.32-.45,0-3.67-.44-3.94-2.07,0-.2-.09-.28-.19-.07a1.7,1.7,0,0,0,.41,2.47,5.33,5.33,0,0,1-2.45,2.71,5.66,5.66,0,0,1-3.94-.2c-.22-.07-.54.11-.21.33s3.59,2.32,5.71.12a9.21,9.21,0,0,0,1.49-2.64c2.17,1.18,5.77.54,5.77.54a16.11,16.11,0,0,0,2.46-.73c.45-.18,3.51-1.57,5.59-1.09a3.15,3.15,0,0,0,.54.11s.37-.8.45-1,.19-.3-.4-.34M64.68,7.36a2.88,2.88,0,0,0,.54.44v.11l-.85.85h-.16a3.49,3.49,0,0,1-.52-.43,5.85,5.85,0,0,1-.4-.47l0-.16.85-.85h.09a4,4,0,0,0,.42.5" transform="translate(0 0)"/></g></g></g></g></g></g></g></g></g></g></svg>