<svg xmlns="http://www.w3.org/2000/svg" xmlns:xlink="http://www.w3.org/1999/xlink" width="91.49" height="19.95" viewBox="0 0 91.49 19.95"><defs><style>.cls-1{fill:none;}.cls-2{clip-path:url(#clip-path);}.cls-3{fill:#231f20;}</style><clipPath id="clip-path" transform="translate(0 0)"><rect class="cls-1" width="91.49" height="19.95"/></clipPath></defs><g id="Layer_2" data-name="Layer 2"><g id="svg2"><g id="g10"><g id="g58"><g id="g60"><g id="g114"><g id="g128"><g class="cls-2"><g id="g126"><g id="g124"><path id="path122" class="cls-3" d="M13.65,6.36l-.78.92v.16a3.57,3.57,0,0,0,.43.44,4.91,4.91,0,0,0,.55.38l.17,0,.77-.92,0-.1a3.6,3.6,0,0,1-.57-.39,4,4,0,0,1-.46-.46ZM14,9.43l0,.06-.39-.29a3.48,3.48,0,0,1-.47-.47H13l-.8,1v.17a4.78,4.78,0,0,0,.45.45,3.6,3.6,0,0,0,.57.39l.18,0,.75-.9.3.28a4,4,0,0,0,.56.39l.18,0,.8-1,0-.11a3.69,3.69,0,0,1-.59-.41,4.17,4.17,0,0,1-.47-.47h-.1Zm11,.83c-.4.28-2.52,1.51-3.83,1.31s-1.88-1-1.88-1.43a1.57,1.57,0,0,1,1-1.34c.65-.27,2-.76,2.57-.4s.74.07.46-.22a3,3,0,0,0-2.8-.67,3.36,3.36,0,0,0-1.94,3,2.27,2.27,0,0,0,1.06,2c-.4.17-2.13.56-2.72-.31l0-.25c0-.4-.23-.43-.34,0a7.73,7.73,0,0,1-.36,1.31c-.35.69-1.35.16-1.76,0A9.35,9.35,0,0,0,14.69,12c0-.27-.12-.5-.31.06s-.81,2.2-3.64,1.26c0-.34.24-1.08-.38-.76a21.2,21.2,0,0,1-3.24,1.2c-.61.15-.71.24-.61.51s.25,1,.58.89l.32-.1c-.28.73-1.25,3-3,3.7a5.65,5.65,0,0,1-4-.18c-.23-.08-.57.11-.22.34s4,2.23,6.24-.06a11.3,11.3,0,0,0,1.7-4v0l.71-.23c.2-.07,1-.41,1.45-.61,1.38,1,2.72,1.38,3.59.29,1.09,1,1.89.79,2.23.27a4.49,4.49,0,0,0,.43-1.06c.45.35,1.41,1.21,4.11-.08.78-.34,4.18-1.94,4.18-1.94.16-.42.56-1.49.16-1.22M9.66,6c.14-.06,5.81-2.42,6-2.54s.36-.15.48-.36.13-.23.2-.37.14-.33-.29-.12c-.27.13-5.88,2.47-6.17,2.59s-.38.18-.44.37-.1.31-.12.35-.12.27.3.08M19,5.66c.12-.07,4.12-1.69,4.34-1.84s.35-.19.44-.4A3.31,3.31,0,0,0,24,3c.05-.16.11-.34-.3-.09S19.48,4.69,19.2,4.83s-.37.21-.41.42-.07.31-.08.35-.1.28.31.06M3.22,11.89c.12-.08,4.54-1.88,4.75-2s.34-.21.42-.42A3.17,3.17,0,0,0,8.54,9c0-.16.09-.34-.3-.08s-4.6,1.94-4.88,2.1-.35.23-.38.43-.06.32-.07.36-.08.28.31,0M42.35,11c.51-.26.9-.19,1.11.22s.67,1.29.3,1.19-1.58-.38-1.91-.85a1.67,1.67,0,0,1,.5-.56M41.11,12.8l.09.11a7.91,7.91,0,0,0,2.5,1c.35,0,.39,0,.52-.26a3.27,3.27,0,0,0,.31-.93,9,9,0,0,0-.2-2.43,1,1,0,0,0-1.47-.61,10.75,10.75,0,0,0-1.78,2.24,2.21,2.21,0,0,1-2.89.82,5.9,5.9,0,0,0,.28-.93c.09-.48-.3-.38-.39,0a15.37,15.37,0,0,1-.57,1.48c-.34.82-1.4,0-1.68-.26a5.06,5.06,0,0,0,.36-1c.07-.27-.14-.61-.38-.06S34.67,14,32.28,13.09c-.23-.65-.5-1.24-.5-1.24-.12-.27-.23-.45-.31-.31S31,12.81,31,12.81c.27.48,1.24,3,1.07,3.45s-1.41,2.41-4.58,1.89c-.33,0-3.52-.87-1.49-4.4.07-.13,0-.41-.28-.13s-2.4,4.52.87,5.71a5.36,5.36,0,0,0,5.18-1.21,4.63,4.63,0,0,0,.82-3.4,3.37,3.37,0,0,0,2.54-.86A2.29,2.29,0,0,0,36.66,15c.28,0,.4.06.57-.22s.28-.5.4-.74A2.37,2.37,0,0,0,40,14a4.35,4.35,0,0,0,1.08-1.24m4.49,2.59a3.63,3.63,0,0,1-.15.39c-.08.22-.21.28-.43.42s-4.28,1.73-4.4,1.81c-.4.23-.35.09-.31-.05s0-.15.07-.36.12-.26.39-.42,4.28-1.71,4.53-1.88c.4-.25.35-.07.3.09M47.91,2.62s0-.15.1-.35.14-.26.43-.38,4-1.65,4.3-1.79.34,0,.28.11a3,3,0,0,1-.18.38c-.11.21-.24.25-.47.38s-4,1.66-4.16,1.72c-.42.2-.35.07-.3-.07m13,10.62a5.73,5.73,0,0,1-.52.91,8,8,0,0,0-5.53,1.1,15.67,15.67,0,0,1-5,1.21c-3.09-.06-3-3.19-3.11-3.64S45.36,4.94,45.2,4.44l.29-1c0-.09.09-.3.2-.11.34.62,1.42,8.51,1.83,10,1,3.9,8.22.44,8.54.29-3.46-1.25-4.93-.56-5.13-.48s-.26,0-.2-.15a4.13,4.13,0,0,1,.69-1.16c.63-.4,3.21-.3,3.38-.57s-1.16-6.09-1.19-6.32A3.78,3.78,0,0,0,53,3.53c-.16-.25,0-.35.09-.53a7.91,7.91,0,0,0,.46-.8c.15-.26.26,0,.38.3a6.9,6.9,0,0,0,.89,1.26c.28.33-.21.74-.41.94s-.13.26-.07.62c0,0,.8,3.46.91,4a4,4,0,0,1-.2,2.71,19.85,19.85,0,0,0,5.55.83c.38,0,.33.18.26.34M31.59,7.62s.05-.15.11-.36.14-.25.43-.37S38,4.28,38.24,4.14s.35,0,.29.12-.09.18-.19.38-.25.25-.47.37-5.85,2.62-6,2.68c-.42.2-.35.06-.3-.07m20-.07h-.1l-.85.86,0,.15a3.64,3.64,0,0,0,.4.48,3.35,3.35,0,0,0,.51.42h.17l.85-.85V8.48A2.75,2.75,0,0,1,52,8a3.89,3.89,0,0,1-.42-.49m10.23-3.8c0-.58-.12-1.08-.31-.62a3.8,3.8,0,0,0-.22,2c.15,1.45.3,2.53.44,3.56a55.86,55.86,0,0,1,.68,6.4c0,.52.18.65.3.27a15.44,15.44,0,0,0,0-5.09c-.16-1.32-.77-5.42-.85-6.47M79.92,5.2a.27.27,0,0,1-.11-.43c.31-.49.54-.48.75-.25a1.77,1.77,0,0,1,.23,1.29s-.66-.48-.87-.61m.84,1.62c.46.21.65.69.71.52.17-.51.23-.79.1-.93a5,5,0,0,0-.42-.35,2.75,2.75,0,0,0,0-2.07c-.1-.17-.51-.8-1.35.16-.33.36-.76,1.29-.42,1.63a9,9,0,0,0,1.06.81,9.55,9.55,0,0,1-2.51,2.1c-.79.56-.49.75-.15.59,2.28-1.08,2.67-1.71,3-2.46M67.69,5.18a.27.27,0,0,1-.12-.43c.32-.49.55-.48.76-.25a1.82,1.82,0,0,1,.23,1.29s-.66-.48-.87-.61m.84,1.62c.46.21.65.69.71.51.17-.5.23-.78.1-.92A5,5,0,0,0,68.92,6a2.72,2.72,0,0,0,0-2.07c-.1-.17-.5-.8-1.35.15-.33.37-.75,1.3-.42,1.64a9.13,9.13,0,0,0,1.07.8,9.36,9.36,0,0,1-2.51,2.11c-.79.56-.5.75-.15.59,2.28-1.08,2.67-1.71,3-2.46M74.62,5s.11,0,.16-.07a1.6,1.6,0,0,0,.36-.79c0-.12-.45-.17-.58-.19a7.17,7.17,0,0,0-1.28-.36,1.68,1.68,0,0,0-1.69,1c0,.09-.09.22-.13.31s0,.27.12.15A1.09,1.09,0,0,1,72,4.7a1.7,1.7,0,0,1,1.11-.26,3.08,3.08,0,0,1,1,.31c0,.07-1.51.82-1.75,1s-.23.18-.21.3.17.11.29.07c.59-.22.81-.2,1.29-.41a3.85,3.85,0,0,0,1-.65M66.75,14.1c-.1.2-.21.53-.28.72s0,.16.11.11a10.62,10.62,0,0,1,2-.93,6.73,6.73,0,0,1,1.74-.43,5.09,5.09,0,0,0,.55-.84c.09-.14,0-.18-.08-.16a5.41,5.41,0,0,1-1.74.15c-.88-.07-1.56-.74-1.54-1s.64-.6.87-.56c.67.1.66.69.84.7s.65-.77.68-1-.43-.77-.87-.8c-.71,0-1.93,1.18-2.41,1.92a.77.77,0,0,0,.09.92c.23.18.59.38,1,.64a4.17,4.17,0,0,0-.92.54m24.61-3.72c-.12-1.13-.6-4.63-.64-5.53,0-.49-.08-.91-.29-.53A2.68,2.68,0,0,0,90.15,6c.1,1.24.21,2.16.32,3.05a41.65,41.65,0,0,1,.47,5.45c0,.45.16.56.3.24a11.09,11.09,0,0,0,.12-4.32m-5.74,5.86a4.11,4.11,0,0,1-.42-.5h-.09l-.85.85,0,.16a3.55,3.55,0,0,0,.4.47,4.15,4.15,0,0,0,.51.43h.17l.85-.86v-.1a3.71,3.71,0,0,1-.54-.44m4-4.13a12.75,12.75,0,0,1-4.83-1c.15-.13.49-.57.37-1.67s-.56-4.24-.56-4.24c0-.32-.17-.64,0-.81s.58-.45.36-.76a6,6,0,0,1-.73-1.23c-.1-.28-.18-.52-.32-.3s-.23.58-.45.88-.24.23-.11.46a4,4,0,0,1,.4,1.3c0,.21.07.66.13,1.09a45.84,45.84,0,0,1,.71,4.61s-3.18.11-3.59.52l-.64,1c0,.11,0,.23.11.21a7.6,7.6,0,0,1,4.84.45c-.32.11-3.94,1.66-7,1.31-.46,0-3.67-.43-3.94-2.06,0-.21-.09-.28-.2-.08a1.71,1.71,0,0,0,.41,2.48A5.25,5.25,0,0,1,72.12,17a5.69,5.69,0,0,1-4-.2c-.22-.07-.54.11-.21.34s3.6,2.31,5.71.12a9.33,9.33,0,0,0,1.5-2.64c2.16,1.18,5.77.53,5.77.53a17.62,17.62,0,0,0,2.46-.72c.44-.19,3.51-1.58,5.59-1.09a3.27,3.27,0,0,0,.53.1s.38-.79.46-1,.18-.3-.4-.33M74.18,8.24a3.79,3.79,0,0,0,.54.45v.1l-.85.85h-.17a3.35,3.35,0,0,1-.51-.42,3.64,3.64,0,0,1-.4-.48l0-.15.85-.86h.1a3.8,3.8,0,0,0,.41.49" transform="translate(0 0)"/></g></g></g></g></g></g></g></g></g></g></svg>