<svg xmlns="http://www.w3.org/2000/svg" xmlns:xlink="http://www.w3.org/1999/xlink" width="90.47" height="18.06" viewBox="0 0 90.47 18.06"><defs><style>.cls-1{fill:none;}.cls-2{clip-path:url(#clip-path);}.cls-3{fill:#231f20;}</style><clipPath id="clip-path" transform="translate(0 0)"><rect class="cls-1" width="90.47" height="18.06"/></clipPath></defs><g id="Layer_2" data-name="Layer 2"><g id="svg2"><g id="g10"><g id="g74"><g id="g76"><g id="g98"><g id="g112"><g class="cls-2"><g id="g110"><g id="g108"><path id="path106" class="cls-3" d="M13.65,4.47l-.77.93v.15A3,3,0,0,0,13.3,6a3.87,3.87,0,0,0,.55.38l.17,0,.77-.92,0-.1a3.6,3.6,0,0,1-.57-.39,4,4,0,0,1-.46-.46ZM14,7.54l0,.06-.39-.28a5.32,5.32,0,0,1-.47-.48H13l-.8,1V8a3.92,3.92,0,0,0,.46.45,3.17,3.17,0,0,0,.56.4l.18,0,.75-.89.29.27a6.58,6.58,0,0,0,.57.4l.18,0,.8-1,0-.1a4.47,4.47,0,0,1-.59-.41,5.32,5.32,0,0,1-.47-.48h-.1Zm11,.84c-.4.27-2.52,1.5-3.83,1.3s-1.88-1-1.88-1.43a1.58,1.58,0,0,1,1-1.34c.65-.27,2-.76,2.57-.4s.74.07.46-.21a2.94,2.94,0,0,0-2.8-.68,3.35,3.35,0,0,0-1.93,3,2.24,2.24,0,0,0,1.05,2c-.4.18-2.13.56-2.72-.31l0-.25c0-.4-.23-.43-.34,0a7.73,7.73,0,0,1-.36,1.31c-.35.69-1.35.16-1.76,0a9.35,9.35,0,0,0,.29-1.23c0-.27-.13-.5-.31.07s-.81,2.19-3.64,1.25c0-.34.24-1.08-.38-.76a19.29,19.29,0,0,1-3.24,1.2c-.61.15-.71.25-.61.51s.25,1,.58.89l.32-.1c-.27.73-1.25,3-3,3.7a5.68,5.68,0,0,1-4-.18c-.23-.07-.57.11-.22.35s4,2.22,6.24-.07a11.3,11.3,0,0,0,1.7-4v0l.71-.23c.2-.07,1-.41,1.45-.6,1.38,1,2.72,1.37,3.59.28,1.1,1,1.89.79,2.22.27a4.06,4.06,0,0,0,.44-1.06c.45.35,1.42,1.21,4.11-.08.78-.34,4.18-1.94,4.18-1.94.16-.42.56-1.49.16-1.21M9.66,4.15c.14-.05,5.81-2.42,6-2.54s.36-.15.48-.35.14-.24.2-.38.14-.32-.29-.12c-.27.13-5.88,2.47-6.17,2.59s-.38.18-.44.37-.1.31-.12.35-.12.27.3.08M19,3.77c.12-.07,4.12-1.69,4.34-1.83s.35-.2.44-.41A3.31,3.31,0,0,0,24,1.14c.05-.16.11-.34-.3-.09S19.48,2.8,19.2,2.94s-.36.22-.41.42-.07.31-.08.35-.1.28.31.06M3.22,10C3.34,9.92,7.76,8.12,8,8s.34-.21.43-.42.1-.26.14-.4.1-.34-.3-.08C8,7.23,3.64,9,3.36,9.17S3,9.4,3,9.6s-.06.32-.07.36-.08.28.31,0M57.8,3.47a.5.5,0,0,1,.06-.4,7.12,7.12,0,0,0,.41-.67.66.66,0,0,0-.15-.5,5.5,5.5,0,0,1-.59-1c-.05-.2-.16-.43-.25-.24a3.64,3.64,0,0,1-.52.77.8.8,0,0,0,0,.73,2.76,2.76,0,0,1,.32.71c0,.21,0,.57.12,1s1.22,6.9,1.27,7.23.13.69-.23.78a7.92,7.92,0,0,1-2.09-.19c.12-.4.2-.73.22-.84,0-.29-.25-.2-.31,0s-.43,1.2-.59,1.68-1.2,0-1.59-.19a3.6,3.6,0,0,0,.38-1.12c.1-.44-.19-.31-.24-.15-.69,1.86-3.07,2-3.85,1.9a3.39,3.39,0,0,0,.76-1.8c0-.28-.16-.35-.28-.07a3.1,3.1,0,0,1-2.94,1.87,2.21,2.21,0,0,1-2.37-2.2C45.24,10,44,1.13,43.83.82s-.17-.15-.21-.07l-.3,1.06c.11.62.84,5.69,1,6.5s.43,3.16.55,3.69a2.23,2.23,0,0,0,2.54,2.18,4.81,4.81,0,0,0,1.37-.3c2.37.34,3.71-.14,4.47-.8v0c.07.39,1.3.82,1.59.86s.38,0,.57-.28a8.75,8.75,0,0,0,.51-1.25,6.51,6.51,0,0,0,1.2.57c.42.16,1.48.44,1.68,0a5.62,5.62,0,0,0,.18-3.12c-.17-.82-1.14-6.4-1.14-6.4M37.21,6.7a9.07,9.07,0,0,0-.26.94,8.21,8.21,0,0,0,.17,1.68c0,.15-1.16,0-1.66-.17a4,4,0,0,0,.18-1.05c0-.27-.24-.57-.38,0s-.73,2.25-3.15,1.82c-.27-.54-.54-1-.54-1-.14-.26-.28-.42-.34-.27S31,10,31,10c.32.45,1.55,2.86,1.44,3.28s-1.13,2.54-4.31,2.37c-.33,0-3.56-.47-1.95-4.17.06-.13-.09-.4-.29-.09S24,16.07,27.33,16.87a5.33,5.33,0,0,0,5-1.76c.21-.25.82-1.47.38-3.67a3.33,3.33,0,0,0,2.18-1.13,3.49,3.49,0,0,0,1.5.52c.54.06.68-.16,1-.75a5,5,0,0,0,.05-3.24c-.15-.41-.18-.33-.25-.14M47.57,3.88c.13-.06,6.64-2.81,6.87-2.93s.37-.16.48-.36l.2-.38c.06-.15.14-.32-.29-.12-.27.13-6.72,2.87-7,3s-.38.18-.44.38a3.35,3.35,0,0,1-.11.34c-.05.14-.12.27.3.08m-4.4,10.64c-.27.13-3.65,1.6-3.94,1.72s-.37.18-.44.38-.09.3-.11.35-.12.27.3.08c.14-.06,3.57-1.55,3.8-1.67s.37-.16.48-.36.14-.24.2-.38.14-.33-.29-.12M60.92,2.62c0-.49-.11-.92-.31-.52a2.77,2.77,0,0,0-.22,1.65c.14,1.23.29,2.15.43,3a41.08,41.08,0,0,1,.66,5.44c0,.44.18.55.31.23a11.34,11.34,0,0,0,0-4.33C61.6,7,61,3.52,60.92,2.62M42.21,13.07a.53.53,0,0,0,.4-.34,4.78,4.78,0,0,0-.23-3,3.92,3.92,0,0,0-2.33-2.23l-.19.14,0,1.11a4.36,4.36,0,0,1,2.47,2.59c.06.17.08.39-.14.44a15.39,15.39,0,0,1-3.4.58c-.2-.06-.4-.18-.41.08s0,1.14.32,1.21a11.73,11.73,0,0,0,3.55-.61M29.87,5.54c.13-.07,5-2.06,5.21-2.2s.35-.2.44-.41a4.1,4.1,0,0,0,.16-.4c0-.15.11-.33-.29-.09S30.32,4.57,30,4.72s-.36.21-.4.42-.07.31-.08.35-.1.28.31,0m23.34.16a1.48,1.48,0,0,1,.14.55c-.31.3-.65.35-.89.15a.77.77,0,0,1-.2-.68c0-.23,0-.32-.16-.16s-.19.2-.21.31c-.09.75-.41,1.08-1,1.12-.37,0-.63-.22-.38-.94,0-.15-.05-.31-.21,0-.54,1.08-.21,1.68.34,1.76a1.19,1.19,0,0,0,1.25-.87.88.88,0,0,0,1,.34c.49-.12.6-.35.74-.74a2.43,2.43,0,0,0,0-1.5c0-.1-.08,0-.1,0l-.27.49a.19.19,0,0,0,0,.16M78.9,3.32a.29.29,0,0,1-.11-.44c.32-.49.55-.48.76-.25a1.83,1.83,0,0,1,.23,1.29s-.66-.47-.88-.6m.85,1.61c.45.21.65.69.71.52.17-.51.23-.79.1-.93s-.42-.34-.42-.34a2.77,2.77,0,0,0,0-2.07c-.1-.18-.5-.8-1.35.15-.33.36-.75,1.29-.42,1.63a9.67,9.67,0,0,0,1.07.81,9.28,9.28,0,0,1-2.52,2.1c-.78.56-.49.76-.15.59,2.28-1.08,2.68-1.71,3-2.46M66.67,3.3c-.21-.14-.21-.29-.11-.44.32-.49.55-.48.76-.25a1.76,1.76,0,0,1,.22,1.29s-.65-.48-.87-.6m.85,1.61c.45.21.65.69.71.52.17-.51.23-.79.1-.93s-.43-.34-.43-.34a2.78,2.78,0,0,0,0-2.08c-.1-.16-.5-.8-1.35.16-.33.36-.75,1.29-.42,1.63a8.78,8.78,0,0,0,1.07.81,9.28,9.28,0,0,1-2.52,2.1c-.78.56-.49.76-.15.59,2.28-1.08,2.67-1.71,3-2.46m6.09-1.77s.1,0,.16-.06a1.88,1.88,0,0,0,.36-.8c0-.12-.45-.16-.58-.19a7.27,7.27,0,0,0-1.29-.36,1.69,1.69,0,0,0-1.68,1,3.05,3.05,0,0,0-.13.32c0,.16,0,.26.12.14a1.16,1.16,0,0,1,.36-.37A1.71,1.71,0,0,1,72,2.55a3.07,3.07,0,0,1,1,.31c0,.07-1.52.82-1.75,1s-.23.19-.21.3.16.11.28.07c.6-.22.81-.2,1.29-.4a3.91,3.91,0,0,0,1-.66m-7.88,9.08c-.09.19-.21.52-.28.72s0,.15.12.1a11.31,11.31,0,0,1,2-.93,6.64,6.64,0,0,1,1.74-.43,5.32,5.32,0,0,0,.55-.84c.08-.13,0-.18-.09-.16a5.1,5.1,0,0,1-1.74.15c-.87-.07-1.55-.74-1.53-1s.64-.6.87-.56c.67.1.66.69.84.7s.65-.77.67-1-.42-.78-.86-.8c-.72,0-1.93,1.17-2.41,1.92a.74.74,0,0,0,.09.91,8.93,8.93,0,0,0,1,.64,4.53,4.53,0,0,0-.93.55M90.35,8.49c-.12-1.13-.6-4.63-.65-5.53,0-.49-.08-.91-.29-.53a2.76,2.76,0,0,0-.28,1.64c.1,1.24.22,2.17.33,3.05a42,42,0,0,1,.47,5.46c0,.44.16.56.3.24a11.36,11.36,0,0,0,.12-4.33m-5.74,5.86a3.89,3.89,0,0,1-.42-.49H84.1l-.85.85,0,.16a3.47,3.47,0,0,0,.39.47,3,3,0,0,0,.52.43h.16l.85-.85v-.11a2.88,2.88,0,0,1-.54-.44m4-4.13a12.83,12.83,0,0,1-4.84-1c.16-.13.5-.56.38-1.66s-.56-4.24-.56-4.24c0-.33-.17-.65,0-.81s.58-.46.35-.77A7.1,7.1,0,0,1,83.19.55C83.1.27,83,0,82.87.26a7.29,7.29,0,0,1-.45.87c-.12.16-.24.23-.1.47a3.73,3.73,0,0,1,.39,1.29c0,.21.08.66.14,1.09a45.84,45.84,0,0,1,.71,4.61s-3.18.11-3.59.52l-.64,1c0,.1,0,.22.1.2a7.72,7.72,0,0,1,4.85.45c-.33.11-4,1.66-7,1.31-.46,0-3.68-.43-3.94-2.06,0-.21-.09-.28-.2-.07a1.7,1.7,0,0,0,.41,2.47,5.28,5.28,0,0,1-2.45,2.7,5.7,5.7,0,0,1-3.94-.19c-.22-.07-.54.1-.21.33s3.59,2.31,5.71.12a9.21,9.21,0,0,0,1.49-2.64c2.17,1.18,5.78.53,5.78.53a16.26,16.26,0,0,0,2.45-.72c.45-.19,3.52-1.57,5.59-1.09a3.15,3.15,0,0,0,.54.11l.46-1c.08-.2.18-.3-.4-.34M73.17,6.36a3.84,3.84,0,0,0,.54.44v.1l-.85.85H72.7a4,4,0,0,1-.52-.42,3.56,3.56,0,0,1-.39-.48l0-.15.85-.86h.09a4.84,4.84,0,0,0,.42.5" transform="translate(0 0)"/></g></g></g></g></g></g></g></g></g></g></svg>