<svg xmlns="http://www.w3.org/2000/svg" xmlns:xlink="http://www.w3.org/1999/xlink" width="87" height="18.47" viewBox="0 0 87 18.47"><defs><style>.cls-1{fill:none;}.cls-2{clip-path:url(#clip-path);}.cls-3{fill:#231f20;}</style><clipPath id="clip-path" transform="translate(0 0)"><rect class="cls-1" width="87" height="18.47"/></clipPath></defs><g id="Layer_2" data-name="Layer 2"><g id="svg2"><g id="g10"><g id="g62"><g id="g64"><g id="g102"><g id="g116"><g class="cls-2"><g id="g114"><g id="g112"><path id="path110" class="cls-3" d="M13.65,4.83l-.78.92v.16a4.57,4.57,0,0,0,.44.44,4.91,4.91,0,0,0,.55.38l.16,0,.78-.92,0-.11a3,3,0,0,1-.57-.39,4.91,4.91,0,0,1-.46-.45ZM14,7.9l0,0-.38-.28a4.17,4.17,0,0,1-.47-.47H13l-.8,1,0,.16a4,4,0,0,0,.46.46,3.6,3.6,0,0,0,.57.39l.17,0,.76-.9.29.28a3.6,3.6,0,0,0,.57.39l.18,0,.79-1,0-.11a3.9,3.9,0,0,1-.59-.41,4.17,4.17,0,0,1-.47-.47h-.1Zm11,.88c-.4.27-2.53,1.51-3.83,1.31s-1.89-1-1.89-1.43a1.56,1.56,0,0,1,1-1.34c.65-.27,2-.77,2.57-.4s.74.07.45-.22A2.93,2.93,0,0,0,20.43,6a3.34,3.34,0,0,0-1.94,3,2.29,2.29,0,0,0,1.05,2c-.4.17-2.12.56-2.71-.32l0-.24c0-.4-.23-.44-.34,0a6.93,6.93,0,0,1-.37,1.31c-.34.69-1.34.15-1.76,0a7.65,7.65,0,0,0,.3-1.23c0-.27-.13-.5-.31.07s-.81,2.2-3.65,1.25c0-.33.25-1.07-.37-.75a20.22,20.22,0,0,1-3.24,1.19c-.61.16-.71.25-.61.52s.25,1,.58.88l.32-.1c-.28.73-1.25,3-3,3.71a5.67,5.67,0,0,1-4-.19c-.23-.07-.57.11-.22.35s4,2.23,6.24-.06a11.3,11.3,0,0,0,1.7-4v0l.7-.23c.21-.07,1-.41,1.46-.61,1.38,1,2.71,1.37,3.59.29,1.09,1,1.89.78,2.22.27A4.83,4.83,0,0,0,16.5,12c.45.35,1.41,1.2,4.11-.08.78-.35,4.18-1.94,4.18-1.94.16-.42.56-1.49.16-1.22M9.66,4.56c.13-.06,5.8-2.42,6-2.54s.36-.16.47-.36a4.19,4.19,0,0,0,.21-.38c.06-.15.14-.32-.29-.12-.27.13-5.88,2.48-6.17,2.6s-.38.17-.44.37-.1.3-.12.34-.13.27.3.09M19,4.17c.13-.07,4.13-1.69,4.35-1.83s.35-.19.44-.4.12-.25.17-.4.11-.33-.3-.09-4.2,1.75-4.47,1.9-.37.21-.41.41-.07.31-.08.36-.1.28.3,0M3.22,10.41c.12-.08,4.53-1.89,4.75-2s.34-.2.42-.42a3.66,3.66,0,0,0,.15-.4c0-.16.09-.34-.3-.08s-4.6,2-4.88,2.11S3,9.8,3,10l-.07.35c0,.15-.09.29.31.05m25-7.15c.13-.06,3.88-1.7,4.11-1.82s.37-.17.47-.37A3.68,3.68,0,0,0,33,.68c.06-.15.13-.32-.29-.11s-4,1.76-4.25,1.89-.38.18-.44.38l-.1.34c-.05.14-.12.27.3.08m11.44,9.19c-.27.13-3.65,1.57-3.94,1.69s-.39.17-.45.37-.1.3-.11.34-.13.28.3.09c.13-.06,3.58-1.52,3.81-1.63s.37-.16.48-.36a3.71,3.71,0,0,0,.2-.38c.07-.15.14-.32-.29-.12m14.72-9c0-.23,0-.34.06-.4a6.56,6.56,0,0,0,.42-.66.68.68,0,0,0-.16-.51,5.83,5.83,0,0,1-.59-1c0-.2-.16-.43-.25-.24a3.64,3.64,0,0,1-.52.77.8.8,0,0,0,0,.73,2.76,2.76,0,0,1,.32.71c0,.21,0,.57.12,1S55,10.71,55.05,11s.13.69-.23.78a7.52,7.52,0,0,1-2.09-.19c.12-.4.2-.73.22-.84,0-.29-.25-.21-.31,0s-.43,1.2-.59,1.68-1.2,0-1.59-.19a3.6,3.6,0,0,0,.38-1.12c.1-.44-.19-.31-.24-.14-.69,1.85-3.06,2-3.85,1.89a3.39,3.39,0,0,0,.76-1.8c0-.28-.16-.35-.28-.07a3.08,3.08,0,0,1-2.94,1.87,2.2,2.2,0,0,1-2.36-2.2c-.08-.67-1.36-9.59-1.49-9.9s-.17-.15-.21-.06l-.3,1.05c.11.62.83,5.69,1,6.5s.43,3.16.55,3.69A2.23,2.23,0,0,0,44,14.14a4.81,4.81,0,0,0,1.37-.3c2.38.34,3.71-.14,4.47-.8v0c.07.39,1.3.82,1.6.86s.37,0,.56-.28a8.75,8.75,0,0,0,.51-1.25,6.19,6.19,0,0,0,1.2.57c.42.16,1.48.44,1.68,0a5.53,5.53,0,0,0,.18-3.12c-.17-.82-1.14-6.4-1.14-6.4m2.9-1.25c-.05-.57-.13-1.06-.32-.6a3.54,3.54,0,0,0-.18,1.92c.16,1.42.33,2.48.5,3.5a56.78,56.78,0,0,1,.78,6.28c0,.51.2.64.31.27a15,15,0,0,0-.12-5c-.19-1.3-.87-5.32-1-6.36M37,10.17H37L36.1,11l0,.16a4.22,4.22,0,0,0,.39.47,5.15,5.15,0,0,0,.52.43l.17,0,.85-.84v-.11a3.71,3.71,0,0,1-.54-.44,5,5,0,0,1-.42-.5m.48,6.33c-.75.07-5.33.77-7.36.17s-2.81-2.24-2.33-4.82a5.74,5.74,0,0,1,2.6-3.72c.55.63,1.11,1.11,3.31,1.2a9.59,9.59,0,0,0,4.33-1.05c.22-.12.44-.23.56-1.18a3.48,3.48,0,0,0-1-2.93c-.14-.16-.21-.17-.26,0s-.22,1.22-.22,1.22c.38.5,1.14,1.57,1,1.69s-3.36,1.57-6,.68a6.3,6.3,0,0,1-.59-.31A1.47,1.47,0,0,0,32.08,7c.24-.45.56-1.12.06-1.48a2.84,2.84,0,0,0-2-.45,2.14,2.14,0,0,0-2,1.88c-.06.26,0,.36.19.2a.91.91,0,0,1,1.39.09,5.17,5.17,0,0,0-.56.62,8.92,8.92,0,0,0-2,6.06c.22,3.39,2.7,4.94,6.38,4.2.88-.17,3.76-1,4.13-1.17s.64-.55-.12-.48M44.13,3.71c.13-.06,6.17-2.61,6.4-2.74S50.89.8,51,.6a3.75,3.75,0,0,0,.18-.39c.06-.15.13-.33-.28-.11s-6.24,2.67-6.53,2.8-.37.19-.43.39-.09.31-.1.35-.12.27.3.07M49.7,5.4a1.53,1.53,0,0,1,.13.56c-.31.3-.64.35-.88.15a.79.79,0,0,1-.2-.69c0-.22,0-.31-.16-.15s-.19.19-.2.31c-.1.74-.41,1.07-1,1.11-.36,0-.63-.22-.38-.93.06-.15-.05-.31-.21,0-.53,1.07-.21,1.66.34,1.74a1.19,1.19,0,0,0,1.24-.86.89.89,0,0,0,1,.34.93.93,0,0,0,.73-.74,2.37,2.37,0,0,0,0-1.48c0-.1-.08,0-.1,0l-.26.49c0,.06-.06.09,0,.15M75.43,3.72a.28.28,0,0,1-.12-.43c.32-.5.55-.48.76-.25a1.76,1.76,0,0,1,.23,1.29s-.66-.48-.87-.61m.84,1.62c.46.21.65.69.71.51.17-.5.23-.78.1-.92a5,5,0,0,0-.42-.35,2.75,2.75,0,0,0,0-2.07c-.11-.17-.51-.8-1.35.15-.34.37-.76,1.3-.43,1.63a8.48,8.48,0,0,0,1.07.81A9.36,9.36,0,0,1,73.4,7.21c-.79.56-.5.75-.15.59,2.28-1.08,2.67-1.71,3-2.46M63.2,3.7a.28.28,0,0,1-.12-.43c.32-.5.55-.48.76-.25a1.8,1.8,0,0,1,.23,1.28s-.66-.47-.87-.6M64,5.31c.46.22.65.7.71.52.17-.5.23-.78.1-.92s-.42-.35-.42-.35a2.77,2.77,0,0,0-.05-2.07c-.1-.17-.5-.8-1.35.15-.33.37-.75,1.3-.42,1.63a8.48,8.48,0,0,0,1.07.81,9.36,9.36,0,0,1-2.51,2.11c-.79.56-.5.75-.16.59,2.28-1.08,2.68-1.72,3-2.47m6.09-1.77a.29.29,0,0,0,.16-.06,1.63,1.63,0,0,0,.36-.79c0-.13-.45-.17-.58-.2a8.42,8.42,0,0,0-1.28-.36,1.71,1.71,0,0,0-1.69,1L67,3.44c0,.16,0,.27.12.14a1.41,1.41,0,0,1,.36-.37A1.86,1.86,0,0,1,68.56,3a3.68,3.68,0,0,1,1,.31c0,.08-1.51.83-1.75,1s-.23.18-.21.3.17.11.29.07c.59-.22.81-.21,1.29-.41a3.48,3.48,0,0,0,.95-.66m-7.88,9.08c-.09.2-.2.53-.28.72s0,.15.12.11a10.62,10.62,0,0,1,2-.93,6,6,0,0,1,1.74-.43,5.55,5.55,0,0,0,.55-.84c.09-.14,0-.18-.08-.16a5.75,5.75,0,0,1-1.75.15c-.87-.08-1.55-.74-1.53-1s.64-.59.87-.56c.67.11.66.7.84.7s.65-.76.68-1-.43-.77-.87-.8c-.72,0-1.93,1.17-2.41,1.92a.74.74,0,0,0,.09.91,8.93,8.93,0,0,0,1,.64,4.53,4.53,0,0,0-.93.55M86.87,8.9c-.12-1.13-.6-4.63-.64-5.53,0-.49-.08-.92-.3-.54a2.8,2.8,0,0,0-.27,1.65c.09,1.23.21,2.16.32,3.05A41.65,41.65,0,0,1,86.45,13c0,.44.16.56.3.24a11.11,11.11,0,0,0,.12-4.32m-5.74,5.86c-.15-.16-.29-.33-.42-.5h-.09l-.85.86,0,.15a3,3,0,0,0,.4.47,3.5,3.5,0,0,0,.51.44l.17,0,.85-.85v-.1a3.25,3.25,0,0,1-.54-.44m4-4.14a12.5,12.5,0,0,1-4.83-.95c.15-.13.49-.57.37-1.67s-.56-4.24-.56-4.24c0-.33-.17-.64,0-.81s.58-.45.36-.76A5.84,5.84,0,0,1,79.72,1c-.1-.28-.18-.51-.32-.29s-.23.58-.45.87-.24.24-.11.47a4,4,0,0,1,.4,1.3c0,.21.07.66.13,1.09A45.38,45.38,0,0,1,80.08,9s-3.18.11-3.59.51l-.64,1c0,.11,0,.23.1.21a7.68,7.68,0,0,1,4.85.44c-.32.12-3.94,1.67-7,1.32-.46,0-3.68-.44-3.94-2.07,0-.2-.09-.28-.2-.07a1.7,1.7,0,0,0,.41,2.47,5.27,5.27,0,0,1-2.44,2.71,5.69,5.69,0,0,1-3.95-.2c-.22-.07-.54.11-.21.33s3.6,2.32,5.71.12a9,9,0,0,0,1.49-2.63c2.17,1.18,5.78.53,5.78.53a16.34,16.34,0,0,0,2.45-.73c.45-.18,3.52-1.57,5.6-1.09A3,3,0,0,0,85,12l.46-1c.08-.19.18-.3-.4-.34M69.69,6.76a3.71,3.71,0,0,0,.54.44v.11l-.85.85h-.17a3.42,3.42,0,0,1-.51-.43,3.55,3.55,0,0,1-.4-.47l0-.16.85-.85h.1a3.8,3.8,0,0,0,.41.49" transform="translate(0 0)"/></g></g></g></g></g></g></g></g></g></g></svg>