<svg xmlns="http://www.w3.org/2000/svg" xmlns:xlink="http://www.w3.org/1999/xlink" width="83.98" height="20.77" viewBox="0 0 83.98 20.77"><defs><style>.cls-1{fill:none;}.cls-2{clip-path:url(#clip-path);}.cls-3{fill:#231f20;}</style><clipPath id="clip-path" transform="translate(0 0)"><rect class="cls-1" width="83.98" height="20.77"/></clipPath></defs><g id="Layer_2" data-name="Layer 2"><g id="svg2"><g id="g10"><g id="g50"><g id="g52"><g id="g90"><g id="g104"><g class="cls-2"><g id="g102"><g id="g100"><path id="path98" class="cls-3" d="M46.69,7.9l-.77.93V9a3.58,3.58,0,0,0,.44.43,3.12,3.12,0,0,0,.54.38l.17,0,.77-.93v-.1a3.27,3.27,0,0,1-.58-.39,5,5,0,0,1-.46-.46ZM47,11,47,11l-.39-.28c-.17-.15-.32-.31-.47-.47H46l-.8,1v.17a3.92,3.92,0,0,0,.46.45,2.79,2.79,0,0,0,.57.4l.17,0,.75-.9.3.27A3.66,3.66,0,0,0,48,12l.17,0,.8-1,0-.1a4,4,0,0,1-.6-.41,4.27,4.27,0,0,1-.47-.48h-.1ZM13.65,7.14l-.77.93v.15a3.58,3.58,0,0,0,.43.44,3.87,3.87,0,0,0,.55.38L14,9l.77-.92,0-.1a3.6,3.6,0,0,1-.57-.39,5,5,0,0,1-.46-.46ZM14,10.21l0,.06L13.56,10a5.32,5.32,0,0,1-.47-.48H13l-.8,1v.17a3.92,3.92,0,0,0,.46.45,3.78,3.78,0,0,0,.56.4l.18,0,.75-.9.3.28a4,4,0,0,0,.56.39l.18,0,.8-1,0-.11a3.61,3.61,0,0,1-.59-.4,5.32,5.32,0,0,1-.47-.48h-.1Zm11,.87c-.4.28-2.52,1.51-3.83,1.31s-1.88-1-1.88-1.43a1.57,1.57,0,0,1,1-1.34c.65-.27,2-.76,2.57-.4s.74.07.46-.22a3,3,0,0,0-2.8-.67,3.35,3.35,0,0,0-1.93,3,2.26,2.26,0,0,0,1.05,2c-.4.17-2.13.56-2.72-.31l0-.25c0-.4-.23-.44-.34,0a7.73,7.73,0,0,1-.36,1.31c-.35.69-1.35.15-1.76,0a7.86,7.86,0,0,0,.29-1.24c0-.26-.12-.49-.3.07s-.82,2.2-3.65,1.25c0-.33.24-1.07-.38-.75a21.2,21.2,0,0,1-3.24,1.2c-.61.15-.71.24-.61.51s.26,1,.58.89l.32-.11c-.27.74-1.25,3-3,3.71a5.68,5.68,0,0,1-4-.18c-.23-.08-.57.11-.22.35s4,2.22,6.24-.07a11.3,11.3,0,0,0,1.7-4v0l.71-.23c.2-.07,1-.41,1.45-.61,1.38,1,2.72,1.37,3.59.29,1.1,1,1.89.79,2.23.27a4.49,4.49,0,0,0,.43-1.06c.45.35,1.42,1.21,4.11-.08.78-.34,4.18-1.94,4.18-1.94.16-.42.56-1.49.16-1.22M9.66,6.86c.14-.06,5.81-2.42,6-2.54s.37-.15.48-.36a3.75,3.75,0,0,0,.2-.37c.07-.15.14-.33-.29-.12-.27.13-5.88,2.47-6.17,2.59s-.38.18-.44.37-.1.31-.11.35-.13.27.29.08M19,6.47c.13-.06,4.12-1.68,4.34-1.83s.35-.19.44-.4A3.31,3.31,0,0,0,24,3.85c.05-.16.11-.34-.3-.1s-4.19,1.76-4.47,1.9-.37.21-.41.42-.07.31-.08.35-.1.28.31,0M3.22,12.71c.13-.08,4.54-1.88,4.75-2s.34-.21.43-.43a4,4,0,0,0,.14-.39c.05-.16.1-.35-.3-.09-.25.17-4.6,2-4.87,2.11s-.36.23-.39.43-.06.32-.07.36-.08.28.31,0m34-1.77c.53-.26.93-.19,1.15.23s.68,1.32.3,1.22S37,12,36.71,11.52a1.8,1.8,0,0,1,.5-.58M36,12.88a8.17,8.17,0,0,0,2.57,1c.36,0,.41,0,.54-.26a3.86,3.86,0,0,0,.32-1,9.23,9.23,0,0,0-.22-2.49,1,1,0,0,0-1.5-.62,11.71,11.71,0,0,0-1.83,2.29,2.26,2.26,0,0,1-2.84.91c-.28-.58-.56-1.06-.56-1.06-.15-.27-.29-.44-.35-.29s-.28,1.37-.28,1.37c.32.47,1.58,3,1.47,3.45s-1.15,2.67-4.4,2.5c-.34,0-3.65-.49-2-4.39.06-.14-.09-.42-.3-.1s-1.9,5,1.54,5.82a5.38,5.38,0,0,0,5.08-1.87c.21-.25.83-1.53.4-3.82A2.36,2.36,0,0,0,34.84,14a4.15,4.15,0,0,0,1.1-1.27Zm16.38-.53a5.32,5.32,0,0,1-.47,3.28c-.75,1.08-2.06.14-2.33,0s-.5,0-.83.14A7.41,7.41,0,0,1,43.91,17c-2.27-.26-2.46-3-2.54-3.8s-.5-5.27-.87-6.66a4.68,4.68,0,0,1,.18-1.71c0-.25.17-.34.27.06s1,7.38,1.14,8.1c.34,2.39,1.75,2.53,2.25,2.65a8.1,8.1,0,0,0,4.79-1.26.9.9,0,0,1,.94.06,7.75,7.75,0,0,0,1.41.46c.47.07.5-.62.45-1.05s-1-5.77-1-6.09c-.1-.68-.21-1.17-.23-1.3a10,10,0,0,1-.12-1,2.63,2.63,0,0,0-.33-.7.82.82,0,0,1,0-.73,4.22,4.22,0,0,0,.51-.77c.09-.19.21,0,.26.24a4.8,4.8,0,0,0,.59,1,.66.66,0,0,1,.15.5,4.53,4.53,0,0,1-.42.66.63.63,0,0,0-.06.41s1,5.54,1.12,6.26M41.13,16.62a3.68,3.68,0,0,1-.2.39c-.1.2-.24.24-.46.37s-4.18,1.77-4.31,1.83c-.42.2-.35.06-.3-.08l.1-.34c.06-.2.15-.26.43-.39s4.18-1.75,4.45-1.89.35,0,.29.11M42.64,2.77s0-.15.12-.35.15-.25.44-.36S47.74.22,48,.09s.35,0,.28.12a3.71,3.71,0,0,1-.2.38c-.11.2-.25.23-.49.35S43.07,2.8,42.94,2.86c-.43.18-.35,0-.3-.09M27.33,8a2.17,2.17,0,0,0,.06-.35c0-.21.12-.28.39-.44s3.83-1.65,4.09-1.82.34-.08.29.08a3.29,3.29,0,0,1-.14.4c-.08.21-.21.27-.42.42s-3.83,1.68-4,1.75c-.39.25-.34.1-.31,0m27-2.57c0-.52-.14-1-.32-.55a3,3,0,0,0-.19,1.78C54,8,54.12,9,54.28,10a49.63,49.63,0,0,1,.77,5.84c0,.48.19.59.31.25a13,13,0,0,0-.12-4.66c-.18-1.21-.85-4.94-.94-5.91m-24.82,4.8h-.09l-.86.86,0,.15a3.64,3.64,0,0,0,.4.48,3.35,3.35,0,0,0,.51.42h.17l.85-.85v-.1a4.51,4.51,0,0,1-.54-.44,6.4,6.4,0,0,1-.41-.5M47.36,4.42A1.57,1.57,0,0,1,47.5,5c-.31.3-.64.35-.88.15a.79.79,0,0,1-.2-.69c0-.22,0-.31-.16-.15s-.19.19-.21.31c-.09.74-.4,1.07-1,1.11-.35,0-.62-.22-.37-.93.06-.15-.05-.31-.21,0-.53,1.07-.21,1.66.34,1.74a1.19,1.19,0,0,0,1.24-.86.89.89,0,0,0,1,.34.9.9,0,0,0,.72-.74,2.36,2.36,0,0,0,0-1.48c0-.1-.08,0-.11,0l-.26.49c0,.06,0,.09,0,.15m25,1.6a.28.28,0,0,1-.12-.43c.32-.49.55-.48.76-.25a1.77,1.77,0,0,1,.23,1.29s-.66-.48-.87-.61m.84,1.62c.46.21.65.69.71.52.17-.51.23-.79.1-.93a4.46,4.46,0,0,0-.42-.34,2.78,2.78,0,0,0,0-2.08c-.1-.17-.51-.8-1.35.16-.34.36-.76,1.29-.42,1.63a9,9,0,0,0,1.06.81,9.36,9.36,0,0,1-2.51,2.1c-.79.56-.49.76-.15.59,2.28-1.08,2.67-1.71,3-2.46M60.18,6a.27.27,0,0,1-.12-.43c.32-.49.55-.48.76-.25a1.82,1.82,0,0,1,.23,1.29s-.66-.48-.87-.61M61,7.62c.46.21.65.69.71.51.17-.5.23-.78.1-.92a5,5,0,0,0-.42-.35,2.76,2.76,0,0,0,0-2.07c-.1-.17-.5-.8-1.35.16-.33.36-.75,1.29-.42,1.63a9.67,9.67,0,0,0,1.07.81,9.55,9.55,0,0,1-2.51,2.1c-.79.56-.5.76-.15.59C60.27,9,60.67,8.37,61,7.62m6.09-1.77s.11,0,.16-.06a1.77,1.77,0,0,0,.36-.8c0-.12-.45-.16-.58-.19a7.41,7.41,0,0,0-1.28-.36,1.68,1.68,0,0,0-1.69,1c0,.09-.09.22-.13.32s0,.26.12.14a1.41,1.41,0,0,1,.36-.37,1.74,1.74,0,0,1,1.12-.26,3.08,3.08,0,0,1,1,.31c0,.07-1.51.82-1.75,1s-.23.18-.21.3.17.11.29.07c.59-.22.81-.2,1.29-.41a3.57,3.57,0,0,0,1-.65m-7.87,9.08a6.3,6.3,0,0,0-.28.72.08.08,0,0,0,.11.1,10.62,10.62,0,0,1,2-.93,6.73,6.73,0,0,1,1.74-.43,5.09,5.09,0,0,0,.55-.84c.09-.14,0-.18-.08-.16a5.45,5.45,0,0,1-1.75.15c-.87-.07-1.55-.74-1.53-1s.64-.6.87-.56c.67.1.66.69.84.7s.65-.77.68-1-.43-.77-.87-.8c-.71,0-1.93,1.18-2.41,1.93a.74.74,0,0,0,.09.91,8.58,8.58,0,0,0,1,.63,4.28,4.28,0,0,0-.92.56M83.85,11.2c-.12-1.13-.6-4.63-.64-5.53,0-.49-.08-.91-.3-.53a2.76,2.76,0,0,0-.27,1.64c.1,1.24.21,2.16.32,3.05a41.84,41.84,0,0,1,.47,5.46c0,.44.16.55.3.23a11.09,11.09,0,0,0,.12-4.32m-5.74,5.86a6.4,6.4,0,0,1-.42-.49H77.6l-.85.85,0,.16a4.33,4.33,0,0,0,.4.47,4.15,4.15,0,0,0,.51.43h.17l.85-.86v-.1a3.71,3.71,0,0,1-.54-.44m4-4.13a12.75,12.75,0,0,1-4.83-1c.15-.13.49-.57.37-1.67s-.56-4.23-.56-4.23c0-.33-.17-.65,0-.82s.58-.45.36-.76a6,6,0,0,1-.73-1.23c-.1-.28-.18-.52-.32-.3s-.23.58-.45.88-.24.23-.11.46a4,4,0,0,1,.4,1.3c0,.21.07.66.13,1.09a45.84,45.84,0,0,1,.71,4.61s-3.18.11-3.59.51l-.64,1c0,.11,0,.23.11.21a7.6,7.6,0,0,1,4.84.45c-.32.11-3.94,1.66-7,1.31-.46,0-3.67-.43-3.94-2.06,0-.21-.09-.28-.2-.08a1.71,1.71,0,0,0,.41,2.48,5.29,5.29,0,0,1-2.44,2.7,5.69,5.69,0,0,1-4-.2c-.22-.07-.54.11-.21.34s3.6,2.31,5.71.12a9.18,9.18,0,0,0,1.5-2.64c2.16,1.18,5.77.53,5.77.53a16.81,16.81,0,0,0,2.46-.73c.44-.18,3.51-1.57,5.59-1.08a3.27,3.27,0,0,0,.53.1s.38-.79.46-1,.18-.31-.4-.34M66.67,9.07a4.51,4.51,0,0,0,.54.44v.1l-.85.85H66.2a3.35,3.35,0,0,1-.51-.42,3.64,3.64,0,0,1-.4-.48l0-.15.85-.86h.1a4.72,4.72,0,0,0,.41.5" transform="translate(0 0)"/></g></g></g></g></g></g></g></g></g></g></svg>