<svg xmlns="http://www.w3.org/2000/svg" xmlns:xlink="http://www.w3.org/1999/xlink" width="86.95" height="19.97" viewBox="0 0 86.95 19.97"><defs><style>.cls-1{fill:none;}.cls-2{clip-path:url(#clip-path);}.cls-3{fill:#231f20;}</style><clipPath id="clip-path" transform="translate(0 0)"><rect class="cls-1" width="86.95" height="19.97"/></clipPath></defs><g id="Layer_2" data-name="Layer 2"><g id="svg2"><g id="g10"><g id="g78"><g id="g80"><g id="g116"><g id="g130"><g class="cls-2"><g id="g128"><g id="g126"><path id="path124" class="cls-3" d="M13.65,4.9l-.77.92V6a5.93,5.93,0,0,0,.43.44,3.78,3.78,0,0,0,.55.37l.17,0,.77-.92,0-.11a3,3,0,0,1-.57-.39,4,4,0,0,1-.46-.46ZM14,8l0,0-.39-.28a5.21,5.21,0,0,1-.47-.47H13l-.8,1v.16a3.82,3.82,0,0,0,.45.45,3.09,3.09,0,0,0,.57.4l.18,0,.75-.9.3.27A4.12,4.12,0,0,0,15,9l.18,0L16,8l0-.1a4.47,4.47,0,0,1-.59-.41A5.21,5.21,0,0,1,14.88,7h-.1Zm11,.87c-.4.27-2.52,1.51-3.83,1.31s-1.88-1-1.88-1.44a1.59,1.59,0,0,1,1-1.34c.65-.27,2-.76,2.57-.39s.74.07.46-.22a3,3,0,0,0-2.8-.67,3.36,3.36,0,0,0-1.94,3,2.28,2.28,0,0,0,1.06,2c-.4.17-2.13.56-2.72-.32l0-.25c0-.4-.23-.43-.34,0a7.62,7.62,0,0,1-.36,1.3c-.35.7-1.35.16-1.76,0a9.35,9.35,0,0,0,.29-1.23c0-.27-.12-.5-.31.07s-.81,2.2-3.64,1.25c0-.34.24-1.08-.38-.76a19.29,19.29,0,0,1-3.24,1.2c-.61.15-.71.25-.61.52s.25,1,.58.88l.32-.1c-.28.73-1.25,3-3,3.7a5.59,5.59,0,0,1-4-.18c-.23-.07-.57.11-.22.35s4,2.22,6.24-.06a11.3,11.3,0,0,0,1.7-4v-.05l.71-.22c.2-.07,1-.42,1.45-.61,1.38,1,2.72,1.37,3.59.28,1.09,1,1.89.79,2.23.28a4.88,4.88,0,0,0,.43-1.06c.45.35,1.41,1.2,4.11-.09.78-.34,4.18-1.94,4.18-1.94.16-.41.56-1.48.16-1.21M9.66,4.61c.14-.05,5.81-2.42,6-2.54s.36-.15.48-.35l.2-.38c.07-.15.14-.32-.29-.12-.27.13-5.88,2.48-6.17,2.6s-.38.17-.44.37-.1.3-.12.34-.12.27.3.08M19,4.23c.12-.07,4.12-1.69,4.34-1.83s.35-.19.44-.4A2.75,2.75,0,0,0,24,1.6c.05-.15.11-.33-.3-.09s-4.19,1.75-4.47,1.9-.37.21-.41.41-.07.31-.08.35-.1.28.31.06M3.22,10.47c.12-.08,4.54-1.89,4.75-2s.34-.2.42-.42a2.33,2.33,0,0,0,.15-.4c.05-.16.09-.34-.3-.08s-4.6,2-4.88,2.11S3,9.86,3,10.07l-.07.35c0,.14-.08.29.31.05m37-5.08a8.74,8.74,0,0,0-.35.89,7.87,7.87,0,0,0,0,1.66c0,.14-1.11-.14-1.58-.35a4.94,4.94,0,0,0,.29-1c.05-.27-.18-.59-.37,0A2,2,0,0,1,35.5,8.16,4.61,4.61,0,0,0,36,6.84c.08-.36-.11-.33-.23-.08C34.48,9.39,32,8.33,31.29,7.86a1.14,1.14,0,0,0,.47-.4c.26-.5.61-1.24.07-1.63a3,3,0,0,0-2.23-.5,2.34,2.34,0,0,0-2.22,2.08c-.07.29,0,.4.21.22a1,1,0,0,1,1.54.09,4.33,4.33,0,0,0-.62.69,9.88,9.88,0,0,0-2.23,6.71c.25,3.75,3,5.47,7.06,4.65,1-.2,4.15-1.11,4.57-1.3s.71-.61-.13-.53-5.9.85-8.15.19-3.1-2.48-2.57-5.33a6.2,6.2,0,0,1,2.8-4.12l.36-.23a3.33,3.33,0,0,0,2.5,1.33,3.09,3.09,0,0,0,1.74-.48,3.41,3.41,0,0,0,3.12-.64A3.73,3.73,0,0,0,39,9.32c.52.12.68-.07,1.1-.61a5,5,0,0,0,.43-3.15c-.11-.42-.14-.34-.24-.17M53.53,4a.5.5,0,0,1,.06-.4A6.56,6.56,0,0,0,54,2.93a.66.66,0,0,0-.15-.5,5.08,5.08,0,0,1-.6-1c0-.21-.17-.43-.26-.24a3.77,3.77,0,0,1-.52.76.8.8,0,0,0,0,.73,3.23,3.23,0,0,1,.33.7,7.21,7.21,0,0,0,.11,1c.11.53,1.23,6.87,1.29,7.2s.09.83-.27.92a4.34,4.34,0,0,1-1.64-.23,2.71,2.71,0,0,0,.25-.74c0-.35-.11-.33-.28-.1a4,4,0,0,1-1.34,1,9.52,9.52,0,0,1-5.83.63,2.48,2.48,0,0,1-1.88-2.29c0-.46-.32-7.33-.89-8.63-.11-.3-.21-.66-.38-.16a1.66,1.66,0,0,0-.24.91c.43,2.5.84,7.15.86,8,0,2.08.79,2.63,1.22,2.94,1.93,1.59,6.2.22,7,0a3,3,0,0,0,1-.72,3.42,3.42,0,0,0,1,.48c.45.1,1.26.35,1.47-.1a6.64,6.64,0,0,0,.58-2.68C54.66,9.89,53.53,4,53.53,4M39.87,11.65l-4.73,2.13c-.29.13-.38.19-.44.38s-.09.31-.1.35-.12.27.3.08c.13-.07,4.37-1.95,4.6-2.07s.36-.17.47-.38.13-.24.19-.38.13-.32-.29-.11m4.84-8.36c.13-.06,5.2-2.2,5.43-2.32s.36-.17.47-.38a3,3,0,0,0,.18-.38c.07-.15.14-.32-.28-.11C50.24.23,45.23,2.36,45,2.49s-.38.18-.44.38-.08.31-.1.35-.12.27.3.07m12.46-.21c0-.54-.13-1-.32-.58a3.37,3.37,0,0,0-.18,1.84c.17,1.35.33,2.37.5,3.35a51.76,51.76,0,0,1,.77,6c0,.49.19.61.31.25a13.68,13.68,0,0,0-.12-4.78c-.18-1.25-.86-5.08-1-6.07M49.88,8.33l-.79,1,0,0-.39-.27a4.37,4.37,0,0,1-.49-.47h-.1l-.78,1v.16a4,4,0,0,0,.47.45,3,3,0,0,0,.57.38l.18,0,.73-.91.3.27a5.25,5.25,0,0,0,.58.38l.17,0,.78-1,0-.11a3.85,3.85,0,0,1-.6-.39A4.27,4.27,0,0,1,50,8.32Zm-22-4.56C28,3.7,31.76,2.09,32,2s.37-.16.48-.36.13-.24.19-.38.14-.33-.28-.12L28.11,3c-.29.12-.38.18-.44.38a2.59,2.59,0,0,1-.11.34c0,.14-.12.27.3.09M49.18,4.89a1.53,1.53,0,0,1,.13.55c-.31.3-.64.35-.88.15a.82.82,0,0,1-.2-.68c0-.22,0-.31-.16-.15s-.19.19-.2.31c-.09.74-.41,1.07-1,1.11-.36,0-.62-.22-.37-.93,0-.16-.06-.32-.22,0-.53,1.06-.21,1.66.34,1.74a1.21,1.21,0,0,0,1.25-.86.87.87,0,0,0,1,.34c.49-.13.59-.35.73-.74a2.37,2.37,0,0,0,0-1.48c0-.1-.08,0-.1,0l-.26.49a.16.16,0,0,0,0,.15m26.2-1.11a.28.28,0,0,1-.11-.44c.32-.49.55-.47.76-.24a1.73,1.73,0,0,1,.22,1.28s-.66-.47-.87-.6m.85,1.61c.45.22.64.7.7.52.18-.5.23-.79.1-.92a5,5,0,0,0-.42-.35,2.75,2.75,0,0,0,0-2.07c-.1-.17-.51-.8-1.35.15-.33.37-.76,1.29-.42,1.63a7.79,7.79,0,0,0,1.07.81,9.44,9.44,0,0,1-2.52,2.11c-.79.56-.49.75-.15.59,2.28-1.08,2.67-1.72,3-2.47M63.15,3.76A.28.28,0,0,1,63,3.32c.31-.49.54-.47.75-.25A1.77,1.77,0,0,1,64,4.36s-.66-.47-.87-.6M64,5.37c.46.22.65.7.71.52.17-.5.23-.79.1-.93s-.42-.34-.42-.34a2.75,2.75,0,0,0,0-2.07c-.1-.17-.51-.8-1.35.15-.33.36-.76,1.29-.42,1.63a7.93,7.93,0,0,0,1.06.81,9.2,9.2,0,0,1-2.51,2.1c-.79.57-.49.76-.15.6,2.28-1.08,2.67-1.72,3-2.47m6.1-1.77a.32.32,0,0,0,.16-.06,1.83,1.83,0,0,0,.36-.8c0-.12-.46-.16-.58-.19a8.23,8.23,0,0,0-1.29-.36,1.69,1.69,0,0,0-1.68,1l-.14.32c0,.16,0,.27.13.14a1.16,1.16,0,0,1,.36-.37A1.76,1.76,0,0,1,68.52,3a3.57,3.57,0,0,1,1,.31c0,.08-1.51.83-1.75,1s-.23.19-.21.31.17.11.29.06c.6-.21.81-.2,1.29-.4a4.16,4.16,0,0,0,1-.66m-7.88,9.08c-.09.19-.21.53-.28.72s0,.15.11.1a11.34,11.34,0,0,1,2-.92,6.5,6.5,0,0,1,1.74-.44,5,5,0,0,0,.55-.83c.09-.14,0-.18-.08-.16a5.68,5.68,0,0,1-1.74.15c-.88-.08-1.56-.75-1.53-1s.63-.59.87-.56c.66.11.65.7.83.7s.65-.76.68-1-.43-.78-.87-.8c-.71-.05-1.93,1.17-2.41,1.92a.74.74,0,0,0,.1.91,8.66,8.66,0,0,0,1,.64,4.22,4.22,0,0,0-.92.55M86.82,9c-.12-1.14-.59-4.63-.64-5.53,0-.49-.08-.92-.29-.54a2.72,2.72,0,0,0-.28,1.65c.1,1.23.21,2.16.33,3A40.58,40.58,0,0,1,86.4,13c0,.44.16.56.3.24A11.11,11.11,0,0,0,86.82,9m-5.73,5.85a3.21,3.21,0,0,1-.42-.49h-.1l-.84.86,0,.15a3,3,0,0,0,.4.47,2.91,2.91,0,0,0,.51.43h.17l.85-.85v-.11a2.75,2.75,0,0,1-.53-.44m4-4.13a12.5,12.5,0,0,1-4.83-.95c.16-.13.5-.57.37-1.67S80,3.82,80,3.82c0-.33-.17-.64,0-.81s.58-.46.36-.77A5.77,5.77,0,0,1,79.67,1c-.1-.28-.18-.51-.32-.29s-.23.58-.45.87-.24.24-.11.47a4,4,0,0,1,.4,1.3c0,.2.08.65.14,1.08A46,46,0,0,1,80,9.06s-3.18.11-3.59.51l-.63,1c-.06.11,0,.23.1.21a7.56,7.56,0,0,1,4.84.44c-.32.12-3.94,1.66-7,1.32-.46,0-3.67-.44-3.94-2.07,0-.2-.09-.28-.2-.07A1.7,1.7,0,0,0,70,12.86a5.27,5.27,0,0,1-2.44,2.71,5.72,5.72,0,0,1-3.94-.2c-.22-.07-.55.11-.21.33s3.59,2.31,5.7.12a9,9,0,0,0,1.5-2.64c2.17,1.18,5.77.53,5.77.53A15,15,0,0,0,78.86,13c.44-.18,3.51-1.57,5.59-1.09A3.24,3.24,0,0,0,85,12s.38-.8.46-1,.18-.3-.4-.34M69.65,6.82a3.18,3.18,0,0,0,.53.44v.11l-.85.84-.17,0a3.42,3.42,0,0,1-.51-.43,4.33,4.33,0,0,1-.4-.47l0-.16.84-.85h.1a4.75,4.75,0,0,0,.42.49" transform="translate(0 0)"/></g></g></g></g></g></g></g></g></g></g></svg>