<svg xmlns="http://www.w3.org/2000/svg" xmlns:xlink="http://www.w3.org/1999/xlink" width="54.25" height="19.77" viewBox="0 0 54.25 19.77"><defs><style>.cls-1{fill:none;}.cls-2{clip-path:url(#clip-path);}.cls-3{fill:#231f20;}</style><clipPath id="clip-path" transform="translate(0 0)"><rect class="cls-1" width="54.25" height="19.77"/></clipPath></defs><g id="Layer_2" data-name="Layer 2"><g id="svg2"><g id="g10"><g id="g46"><g id="g48"><g id="g58"><g id="g72"><g class="cls-2"><g id="g70"><g id="g68"><path id="path66" class="cls-3" d="M42.68,6.24a.29.29,0,0,1-.11-.44c.32-.49.55-.47.76-.24a1.8,1.8,0,0,1,.23,1.28s-.66-.47-.88-.6m.85,1.61c.45.22.65.7.71.52.17-.5.23-.79.1-.92s-.42-.35-.42-.35A2.77,2.77,0,0,0,43.87,5c-.1-.17-.5-.8-1.35.15-.33.37-.75,1.29-.42,1.63a8.48,8.48,0,0,0,1.07.81,9.1,9.1,0,0,1-2.52,2.1c-.78.57-.49.76-.15.6,2.28-1.08,2.67-1.72,3-2.47M30.45,6.22a.28.28,0,0,1-.11-.44c.32-.49.55-.47.76-.25a1.76,1.76,0,0,1,.22,1.29s-.65-.47-.87-.6m.85,1.61c.45.22.64.7.71.52.17-.5.23-.79.1-.93s-.43-.34-.43-.34a2.75,2.75,0,0,0,0-2.07c-.1-.17-.5-.8-1.35.15-.33.36-.75,1.29-.42,1.63a7.79,7.79,0,0,0,1.07.81,9.44,9.44,0,0,1-2.52,2.1c-.78.57-.49.76-.15.6,2.28-1.08,2.67-1.72,3-2.47m6.09-1.77A.29.29,0,0,0,37.55,6a1.72,1.72,0,0,0,.36-.8c0-.12-.46-.16-.58-.19a8.42,8.42,0,0,0-1.28-.36,1.71,1.71,0,0,0-1.69,1c0,.1-.1.22-.13.32s0,.26.12.14a1.16,1.16,0,0,1,.36-.37,1.78,1.78,0,0,1,1.11-.26,3.35,3.35,0,0,1,1,.31c0,.08-1.52.83-1.76,1s-.22.19-.2.31.16.11.28.06c.6-.21.81-.2,1.29-.4a4.16,4.16,0,0,0,1-.66m-7.88,9.08c-.09.19-.21.53-.28.72s0,.15.12.1a12.09,12.09,0,0,1,2-.93,6.73,6.73,0,0,1,1.74-.43,5.32,5.32,0,0,0,.55-.84c.08-.13,0-.17-.09-.15a5.65,5.65,0,0,1-1.74.15c-.87-.08-1.55-.75-1.53-1s.64-.59.87-.56c.67.11.66.7.83.7s.66-.76.68-1-.42-.78-.86-.8c-.72,0-1.94,1.17-2.41,1.92a.72.72,0,0,0,.09.91,8.93,8.93,0,0,0,1,.64,4.53,4.53,0,0,0-.93.55m24.62-3.72c-.12-1.14-.6-4.63-.65-5.53,0-.5-.08-.92-.29-.54A2.79,2.79,0,0,0,52.91,7c.1,1.23.22,2.16.33,3a42,42,0,0,1,.47,5.46c0,.44.16.56.29.24a11,11,0,0,0,.13-4.32m-5.74,5.85a3.89,3.89,0,0,1-.42-.49h-.09l-.85.86,0,.15a3.67,3.67,0,0,0,.4.47,3,3,0,0,0,.52.43h.16l.85-.85v-.11a2.54,2.54,0,0,1-.54-.44m4-4.13a12.58,12.58,0,0,1-4.84-1c.16-.13.5-.57.38-1.67s-.56-4.24-.56-4.24c0-.33-.17-.64,0-.81s.58-.46.35-.77A6.75,6.75,0,0,1,47,3.47c-.09-.28-.18-.51-.32-.29a7.29,7.29,0,0,1-.45.87c-.12.16-.24.23-.1.47a3.71,3.71,0,0,1,.39,1.3c0,.2.08.65.14,1.08a45.64,45.64,0,0,1,.71,4.62s-3.18.11-3.59.51l-.64,1c0,.11,0,.23.1.2a7.72,7.72,0,0,1,4.85.45c-.33.11-4,1.66-7,1.32-.45,0-3.67-.44-3.93-2.07,0-.2-.09-.28-.2-.07a1.7,1.7,0,0,0,.41,2.47A5.33,5.33,0,0,1,34.88,18a5.72,5.72,0,0,1-3.94-.2c-.22-.07-.54.11-.21.33s3.59,2.31,5.71.12a9.21,9.21,0,0,0,1.49-2.64c2.17,1.18,5.78.53,5.78.53a15.17,15.17,0,0,0,2.45-.72c.45-.18,3.52-1.57,5.59-1.09a3.15,3.15,0,0,0,.54.11l.46-1c.08-.19.18-.3-.4-.34M36.53,8.78h-.09l-.85.85,0,.16a4.22,4.22,0,0,0,.39.47,4.09,4.09,0,0,0,.52.43l.17,0,.84-.84V9.72A3.25,3.25,0,0,1,37,9.28a4,4,0,0,1-.42-.5M5.91,16.7c-3.7,1.38-5.26-.51-5.44-.78-1.26-2.07.4-4.65.55-4.85s.28-.06.19.09a5.57,5.57,0,0,0-.63,2.22c.15,2.54,2.76,2.53,3.09,2.53a7.07,7.07,0,0,0,4.6-2c.17-.13.23-.18.13-.26a8.51,8.51,0,0,0-3.27-.62C5,13,5,13,5.05,12.81s.17-.55.22-.68a8.11,8.11,0,0,0,2.23-.91C8,10.73,6.35,9,6.13,8.72c0,0,.22-1.18.25-1.31s.06-.21.19-.09c2.31,2.49,1.34,4.5,1.2,4.81,0,0,.73.06,1,.43A1.67,1.67,0,0,1,9,13.91c-.25,1.28-2.62,2.62-3.09,2.79m16.63-4.44A6.7,6.7,0,0,1,22,15c-.2.46-.94.18-1.38.09a4.73,4.73,0,0,1-1-.48,3,3,0,0,1-1,.74c-.73.25-4.95,1.63-6.85,0-.42-.31-1-.92-1-3,0-1-.35-5-.51-5.67a4.54,4.54,0,0,1,0-2.54c.31-1,.42-1.44.85-1.66s.7-.37.6.07,0,.59-.38.92-.87.67-.81.94c.4,1.92.92,7.41,1,7.87A2.42,2.42,0,0,0,13,14.5a9.08,9.08,0,0,0,5.73-.57A3.78,3.78,0,0,0,20,13c.16-.23.33-.25.27.1a3.19,3.19,0,0,1-.27.81l1.65.09c.37,0,.31-.51.26-.85s-1.16-6.7-1.27-7.23-.09-.8-.12-1a2.88,2.88,0,0,0-.32-.7.8.8,0,0,1,0-.73,3.64,3.64,0,0,0,.52-.77c.09-.19.2,0,.25.24a5.77,5.77,0,0,0,.59,1,.64.64,0,0,1,.15.51,5.73,5.73,0,0,1-.41.66.52.52,0,0,0-.06.41s1.12,5.93,1.23,6.76M10.8,17.2a3.68,3.68,0,0,1-.2.39c-.1.2-.23.24-.46.37s-4,1.65-4.16,1.71c-.42.2-.36.06-.31-.08a3.35,3.35,0,0,0,.11-.34c0-.21.14-.26.43-.39s4-1.63,4.3-1.77c.42-.22.35,0,.29.11M13.42,2.46s.05-.15.12-.35.16-.25.45-.36S17.68.22,18,.09c.43-.2.35,0,.29.12s-.1.18-.21.38-.25.24-.48.35-3.69,1.55-3.83,1.61c-.42.18-.35,0-.3-.09m12.11,8.35a11,11,0,0,1-.13,4.32c-.13.32-.3.2-.29-.24a42,42,0,0,0-.47-5.46c-.11-.88-.23-1.81-.33-3a2.71,2.71,0,0,1,.29-1.65c.2-.38.26,0,.28.54.05.9.53,4.39.65,5.53M5.16,5.35a3.44,3.44,0,0,1-.4-.47l0-.16.85-.85h.09a4.93,4.93,0,0,0,.42.49,3.16,3.16,0,0,0,.54.44v.11l-.85.85H5.67a4.15,4.15,0,0,1-.51-.43M16.68,6.76c.15.16.3.31.46.46a3.27,3.27,0,0,0,.58.39v.1L17,8.63l-.16,0a4.14,4.14,0,0,1-.55-.38,3.66,3.66,0,0,1-.44-.44V7.68l.77-.92Zm.24,3.07,0,.05L16.5,9.6A4.08,4.08,0,0,1,16,9.13h-.11l-.8,1v.16a4,4,0,0,0,.46.46,3.6,3.6,0,0,0,.57.39l.17,0,.76-.9.29.28a3.6,3.6,0,0,0,.57.39l.17,0,.8-1,0-.11a4.38,4.38,0,0,1-.58-.41,4.27,4.27,0,0,1-.48-.47h-.1Zm.31-6,.25-.48c0-.05.08-.1.11,0a2.33,2.33,0,0,1,0,1.45c-.14.39-.24.61-.71.73a.88.88,0,0,1-1-.33A1.16,1.16,0,0,1,14.71,6c-.53-.08-.85-.66-.33-1.71.16-.3.26-.15.21,0-.25.7,0,.94.36.92.56,0,.87-.36,1-1.09,0-.12-.05-.1.2-.3s.17-.07.16.15a.79.79,0,0,0,.19.66c.24.2.57.15.87-.14A1.61,1.61,0,0,0,17.2,4c0-.06,0-.1,0-.15" transform="translate(0 0)"/></g></g></g></g></g></g></g></g></g></g></svg>