<svg xmlns="http://www.w3.org/2000/svg" xmlns:xlink="http://www.w3.org/1999/xlink" width="66.85" height="19.25" viewBox="0 0 66.85 19.25"><defs><style>.cls-1{fill:none;}.cls-2{clip-path:url(#clip-path);}.cls-3{fill:#231f20;}</style><clipPath id="clip-path" transform="translate(0 0)"><rect class="cls-1" width="66.85" height="19.25"/></clipPath></defs><g id="Layer_2" data-name="Layer 2"><g id="svg2"><g id="g10"><g id="g54"><g id="g56"><g id="g94"><g id="g108"><g class="cls-2"><g id="g106"><g id="g104"><path id="path102" class="cls-3" d="M22.17,4.53l-.77.93v.16a3.58,3.58,0,0,0,.44.43,3.12,3.12,0,0,0,.54.38l.17,0,.77-.93,0-.1A3.6,3.6,0,0,1,22.72,5a5,5,0,0,1-.46-.46ZM22.5,7.6l0,.06-.39-.28c-.17-.15-.32-.31-.47-.47h-.1l-.8,1V8a3.92,3.92,0,0,0,.46.45,2.73,2.73,0,0,0,.56.4l.18,0,.75-.9.3.27a4.12,4.12,0,0,0,.56.4l.18,0,.8-1,0-.1a4.47,4.47,0,0,1-.59-.41,5.21,5.21,0,0,1-.47-.47h-.1ZM3.19,4.48h-.1l-.85.85,0,.16a2.93,2.93,0,0,0,.4.47,2.91,2.91,0,0,0,.51.43h.16l.86-.85V5.41A3.16,3.16,0,0,1,3.6,5a3.13,3.13,0,0,1-.41-.49M5.37,1.11C5.6,1,5.73.94,5.84.74A3.31,3.31,0,0,0,6,.36C6.1.21,6.17,0,5.75.24S.87,2.35.58,2.48s-.38.18-.43.38L0,3.2c0,.14-.12.28.3.08.13-.06,4.8-2,5-2.17m27,14.28c-.27.14-4,1.74-4.26,1.87s-.38.18-.44.38-.09.31-.11.35-.12.26.3.07c.14,0,3.9-1.68,4.13-1.8s.37-.17.47-.37a3.71,3.71,0,0,0,.2-.38c.06-.15.14-.33-.29-.12M33.93,3c0-.34-.08-.4.11-.57s.62-.52.39-.84A6,6,0,0,1,33.69.39c-.1-.29-.19-.53-.33-.3s-.24.41-.47.71-.25.24-.11.48a3.91,3.91,0,0,1,.46,1.28c0,.22.07.68.13,1.12s1.13,8.08,1,8.24-.95.85-2.37.06l-.13-.08c1-.74.94-1.44.77-1.71-.3-.47-3-2-4.56.46-.17.25-.3.84.06.63a2.07,2.07,0,0,1,1.95.3l.19.13a4,4,0,0,1-4.38.1,5.19,5.19,0,0,0,.09-.52c0-.4-.24-.44-.35,0a7.88,7.88,0,0,1-.36,1.3c-.35.69-1.35.15-1.76,0a7,7,0,0,0,.29-1.23c.05-.27-.12-.5-.3.07s-.82,2.19-3.65,1.25c0-.34.24-1.08-.38-.76a20.43,20.43,0,0,1-3.23,1.2c-.62.15-.72.24-.62.52s.26,1,.58.88l.32-.11c-.27.74-1.24,3-3,3.71a5.67,5.67,0,0,1-4-.18c-.23-.08-.57.11-.22.35s4,2.22,6.25-.07a11.4,11.4,0,0,0,1.7-4v0l.7-.23c.2-.07,1-.41,1.45-.61,1.38,1,2.72,1.37,3.6.29,1.09,1,1.88.79,2.22.27a4.57,4.57,0,0,0,.43-1c1.74,1.71,4.72.07,5.39-.41a4,4,0,0,1,.5.62,1.88,1.88,0,0,0,2,.63c.41-.07,1.47-.56,1.4-2.42a66.61,66.61,0,0,0-.83-7.32c-.06-.39-.13-.9-.13-.9M7.25,9.18a11.37,11.37,0,0,0-1-2.25c-.13-.24-.26-.4-.32-.26s-.26,1.27-.26,1.27A11,11,0,0,1,7,11.14c-.1.41-1.06,2.48-4.08,2.32-.32,0-3.38-.46-1.86-4.07C1.12,9.26,1,9,.78,9.3S-1,13.91,2.21,14.69A5,5,0,0,0,6.92,13c.21-.25.81-1.5.33-3.78m4.82,1.29a3.69,3.69,0,0,0-.84-1c-.45-.39-.86.18-.93.42-.26.79,1.09.65,1.39.63l.38,0m-1.82,5.47a9.45,9.45,0,0,1-5,.24c-.54-.12-.31-.48.15-.41a6.2,6.2,0,0,0,7-3.82l0-.23a5.41,5.41,0,0,1-2,.08c-1.24-.38-1-2.25,0-3.48s2,.75,2.18,1.15a4.91,4.91,0,0,1-.67,4.94,4.28,4.28,0,0,1-1.65,1.53M37.16,6.59A58.43,58.43,0,0,1,37.83,13c0,.52.18.65.31.28a15.58,15.58,0,0,0,0-5.09c-.16-1.33-.77-5.42-.85-6.48,0-.57-.11-1.07-.31-.61A3.76,3.76,0,0,0,36.71,3c.15,1.45.3,2.53.45,3.57m-20.1-2a1.82,1.82,0,0,0-.23-1.29c-.21-.23-.44-.24-.76.25-.1.15-.1.3.12.43s.87.61.87.61M14,8c-.34.16-.63,0,.15-.59a9.28,9.28,0,0,0,2.52-2.11,9.13,9.13,0,0,1-1.07-.8c-.33-.34.09-1.27.42-1.64.85-1,1.25-.32,1.35-.15a2.81,2.81,0,0,1,.05,2.07s.32.25.42.35.07.42-.1.92c-.06.18-.26-.3-.71-.51-.36.75-.75,1.38-3,2.46m9.49-5.67s.1,0,.16-.06a1.88,1.88,0,0,0,.36-.8c0-.12-.46-.16-.58-.19A7.27,7.27,0,0,0,22.14.93a1.67,1.67,0,0,0-1.68,1c0,.1-.1.22-.13.32s0,.26.12.14A1.16,1.16,0,0,1,20.81,2a1.71,1.71,0,0,1,1.11-.26,3.35,3.35,0,0,1,1,.31c0,.08-1.52.82-1.76,1s-.23.19-.2.3.16.11.28.07c.6-.21.81-.2,1.29-.4a4.16,4.16,0,0,0,1-.66M55.28,4.1a.27.27,0,0,1-.12-.43c.32-.49.55-.48.76-.25a1.83,1.83,0,0,1,.23,1.29l-.87-.61m.84,1.62c.46.21.65.69.71.52.17-.51.23-.79.1-.93S56.51,5,56.51,5a2.77,2.77,0,0,0,0-2.07c-.1-.18-.5-.8-1.35.15-.33.36-.75,1.29-.42,1.63a9.67,9.67,0,0,0,1.07.81,9.36,9.36,0,0,1-2.51,2.1c-.79.56-.5.76-.16.59,2.28-1.08,2.68-1.71,3-2.46M43,4.08a.27.27,0,0,1-.11-.43c.32-.49.55-.48.76-.25a1.83,1.83,0,0,1,.23,1.29s-.66-.48-.88-.61m.85,1.62c.45.21.65.69.71.52.17-.51.23-.79.1-.93s-.43-.35-.43-.35a2.75,2.75,0,0,0,0-2.07c-.1-.17-.5-.8-1.35.16-.33.36-.75,1.29-.42,1.63a9.67,9.67,0,0,0,1.07.81A9.47,9.47,0,0,1,41,7.57c-.78.56-.49.75-.15.59,2.28-1.08,2.67-1.71,3-2.46M50,3.93c.05,0,.1,0,.16-.06a1.77,1.77,0,0,0,.36-.8c0-.12-.45-.16-.58-.19a7.41,7.41,0,0,0-1.28-.36,1.68,1.68,0,0,0-1.69,1l-.13.31c0,.16,0,.27.12.15a1.06,1.06,0,0,1,.36-.37,1.71,1.71,0,0,1,1.11-.26,3.35,3.35,0,0,1,1,.31c0,.07-1.52.82-1.75,1s-.23.18-.21.3.16.11.29.07c.59-.22.8-.2,1.29-.41A3.78,3.78,0,0,0,50,3.93M42.1,13c-.09.19-.21.52-.28.72s0,.15.12.1a11.31,11.31,0,0,1,2-.93,6.73,6.73,0,0,1,1.74-.43,5.32,5.32,0,0,0,.55-.84c.08-.13,0-.18-.09-.16a5.36,5.36,0,0,1-1.74.15c-.87-.07-1.55-.74-1.53-1s.64-.6.87-.56c.67.1.66.69.84.7s.65-.77.67-1S44.79,9,44.35,9c-.72,0-1.93,1.18-2.41,1.93a.74.74,0,0,0,.09.91,8.93,8.93,0,0,0,1,.64,4.53,4.53,0,0,0-.93.55M66.72,9.28c-.12-1.13-.6-4.63-.65-5.53,0-.49-.08-.91-.29-.53a2.69,2.69,0,0,0-.27,1.64c.09,1.24.21,2.16.32,3.05a42,42,0,0,1,.47,5.46c0,.44.16.55.3.23a11.28,11.28,0,0,0,.12-4.32M61,15.14a3.89,3.89,0,0,1-.42-.49h-.09l-.85.85,0,.16a3.47,3.47,0,0,0,.39.47,4.24,4.24,0,0,0,.52.43h.16l.86-.86v-.1a2.88,2.88,0,0,1-.54-.44m4-4.13a12.75,12.75,0,0,1-4.83-1c.15-.13.49-.57.37-1.67s-.56-4.23-.56-4.23c0-.33-.17-.65,0-.81s.58-.46.35-.77a7.1,7.1,0,0,1-.73-1.23c-.09-.28-.17-.52-.32-.3a7.37,7.37,0,0,1-.45.88c-.11.16-.24.23-.1.46a4,4,0,0,1,.4,1.3c0,.21.07.66.13,1.09a45.84,45.84,0,0,1,.71,4.61s-3.18.11-3.59.52l-.64,1c-.05.11-.05.24.1.21a7.64,7.64,0,0,1,4.85.45c-.32.11-3.95,1.66-7,1.31-.46,0-3.68-.43-3.94-2.06,0-.21-.09-.28-.2-.07a1.7,1.7,0,0,0,.41,2.47,5.32,5.32,0,0,1-2.45,2.7,5.7,5.7,0,0,1-3.94-.19c-.22-.08-.54.1-.21.33s3.59,2.31,5.71.12a9.21,9.21,0,0,0,1.49-2.64c2.17,1.18,5.78.53,5.78.53a16.26,16.26,0,0,0,2.45-.72c.45-.19,3.52-1.58,5.6-1.09a3,3,0,0,0,.53.11l.46-1c.08-.2.18-.31-.4-.34M49.54,7.15a3.84,3.84,0,0,0,.54.44v.1l-.85.85h-.17a4,4,0,0,1-.52-.42,3.56,3.56,0,0,1-.39-.48l0-.15L49,6.64h.09c.13.17.27.34.42.5" transform="translate(0 0)"/></g></g></g></g></g></g></g></g></g></g></svg>