<svg xmlns="http://www.w3.org/2000/svg" xmlns:xlink="http://www.w3.org/1999/xlink" width="108.2" height="22.21" viewBox="0 0 108.2 22.21"><defs><style>.cls-1{fill:none;}.cls-2{clip-path:url(#clip-path);}.cls-3{fill:#231f20;}</style><clipPath id="clip-path" transform="translate(0 0)"><rect class="cls-1" width="108.2" height="22.21"/></clipPath></defs><g id="Layer_2" data-name="Layer 2"><g id="svg2"><g id="g10"><g id="g58"><g id="g60"><g id="g82"><g id="g96"><g class="cls-2"><g id="g94"><g id="g92"><path id="path90" class="cls-3" d="M22.17,7.49l-.77.93v.16a4.36,4.36,0,0,0,.43.43,4.53,4.53,0,0,0,.55.38l.17,0,.77-.93v-.1A3.27,3.27,0,0,1,22.72,8a5,5,0,0,1-.46-.46Zm.33,3.07,0,.06-.39-.28c-.17-.15-.32-.31-.47-.47h-.1l-.8,1V11a3.92,3.92,0,0,0,.46.45,3,3,0,0,0,.56.4l.18,0,.75-.9.3.27a4.49,4.49,0,0,0,.57.4l.17,0,.8-1,0-.1a4.47,4.47,0,0,1-.59-.41,5.32,5.32,0,0,1-.47-.48h-.1ZM3.19,7.44h-.1l-.85.85,0,.16a3.44,3.44,0,0,0,.4.47,3.42,3.42,0,0,0,.51.43H3.3l.85-.85V8.37a3.71,3.71,0,0,1-.54-.44,3.13,3.13,0,0,1-.41-.49M5.37,4.07c.23-.13.36-.17.47-.37A3.71,3.71,0,0,0,6,3.32c.06-.15.13-.32-.29-.12C5.48,3.34.87,5.31.58,5.44s-.38.18-.43.38-.09.3-.11.34-.12.27.3.08c.13-.06,4.8-2,5-2.17m27,14.28c-.27.13-4,1.74-4.26,1.87s-.38.18-.44.38l-.1.34c-.06.14-.13.27.29.08.14-.06,3.9-1.68,4.13-1.8s.37-.17.48-.37.13-.24.19-.38.14-.33-.29-.12M33.94,6c0-.34-.09-.4.1-.57s.62-.52.4-.84a5.6,5.6,0,0,1-.75-1.21c-.1-.29-.19-.53-.33-.3s-.24.41-.47.71-.25.24-.11.48a3.91,3.91,0,0,1,.46,1.28c0,.21.07.68.14,1.12s1.12,8.08,1,8.24-.95.85-2.37.06l-.13-.08c1-.74.94-1.45.77-1.71-.3-.47-3-2-4.56.46-.17.25-.3.84.06.62a2.11,2.11,0,0,1,1.95.31l.19.13a4,4,0,0,1-4.38.1,5.19,5.19,0,0,0,.09-.52c0-.4-.24-.44-.35,0a6.9,6.9,0,0,1-.36,1.31c-.35.69-1.34.15-1.76,0a6.64,6.64,0,0,0,.29-1.22c.05-.28-.12-.5-.3.07s-.82,2.19-3.65,1.24c0-.33.24-1.07-.38-.75A21.47,21.47,0,0,1,16.25,16c-.62.15-.72.24-.62.51s.26,1,.58.89l.32-.11c-.27.73-1.24,3-3,3.71a5.67,5.67,0,0,1-4-.18c-.23-.08-.57.11-.22.34s4,2.23,6.25-.06a11.49,11.49,0,0,0,1.7-4v0l.7-.23c.2-.07,1-.41,1.46-.61,1.38,1,2.71,1.37,3.59.29,1.09,1,1.88.79,2.22.27a4.57,4.57,0,0,0,.43-1.05c1.74,1.71,4.72.06,5.39-.41a3.24,3.24,0,0,1,.5.62,1.88,1.88,0,0,0,2,.63c.41-.07,1.47-.56,1.4-2.42a66.61,66.61,0,0,0-.83-7.32c-.06-.4-.12-.9-.12-.9M7.25,12.14a11.08,11.08,0,0,0-1-2.25c-.13-.24-.26-.4-.32-.26s-.26,1.27-.26,1.27A11.16,11.16,0,0,1,7,14.1c-.11.41-1.07,2.48-4.09,2.32-.32,0-3.38-.46-1.86-4.07.06-.13-.08-.39-.28-.09S-1,16.86,2.21,17.65a5,5,0,0,0,4.71-1.73c.21-.25.82-1.51.33-3.78m4.82,1.29a3.88,3.88,0,0,0-.83-1c-.46-.39-.86.17-.94.42-.26.79,1.09.65,1.39.63l.38-.05M10.25,18.9a9.45,9.45,0,0,1-5,.24c-.54-.12-.31-.48.15-.41a6.19,6.19,0,0,0,7-3.82l.05-.23a5.41,5.41,0,0,1-2,.08c-1.25-.38-1-2.25,0-3.48s2,.75,2.18,1.15a4.91,4.91,0,0,1-.67,4.94,4.28,4.28,0,0,1-1.65,1.53M37.16,9.55a58.43,58.43,0,0,1,.67,6.39c0,.52.18.65.31.27a15.21,15.21,0,0,0,0-5.08c-.16-1.33-.77-5.42-.85-6.48,0-.57-.11-1.07-.31-.61A3.76,3.76,0,0,0,36.71,6c.15,1.44.3,2.53.45,3.57M17.06,7.5a1.82,1.82,0,0,0-.23-1.29c-.21-.23-.44-.25-.76.25a.28.28,0,0,0,.12.43c.21.13.87.61.87.61M14,11c-.34.16-.63,0,.15-.59a9.28,9.28,0,0,0,2.52-2.11,8.48,8.48,0,0,1-1.07-.81c-.33-.33.09-1.26.42-1.63.85-1,1.25-.32,1.35-.15a2.77,2.77,0,0,1,.05,2.07s.32.25.42.35.07.42-.1.92c-.06.18-.26-.3-.71-.51-.35.75-.75,1.38-3,2.46M23.49,5.3c.05,0,.1,0,.16-.06a1.77,1.77,0,0,0,.36-.8c0-.12-.46-.16-.58-.19a7.27,7.27,0,0,0-1.29-.36,1.67,1.67,0,0,0-1.68,1,3.05,3.05,0,0,0-.13.32c0,.15,0,.26.12.14A1.16,1.16,0,0,1,20.81,5a1.71,1.71,0,0,1,1.11-.26,3.07,3.07,0,0,1,1,.31c0,.07-1.52.82-1.76,1s-.22.19-.2.3.16.11.28.07c.6-.22.81-.2,1.29-.4a4.16,4.16,0,0,0,1-.66M45.25,7.15a3.75,3.75,0,0,1-.2.37c-.11.2-.24.24-.48.37s-4,1.67-4.14,1.73c-.43.18-.36.05-.3-.09s0-.14.11-.34.15-.25.44-.37S44.69,7.16,45,7s.35,0,.28.12m-1.5,7.35c-.29,0-1.63.16-1.38-.63.07-.25.48-.81.93-.42a3.61,3.61,0,0,1,.84,1Zm-1.29-2.2c-1,1.23-1.26,3.1,0,3.48a5.41,5.41,0,0,0,2-.08l0,.23a6.22,6.22,0,0,1-7,3.83c-.46-.08-.7.28-.15.4a9.45,9.45,0,0,0,5-.24A4.28,4.28,0,0,0,44,18.39a4.91,4.91,0,0,0,.67-4.94c-.16-.4-1.15-2.39-2.18-1.15M56.54,8.93c-2.38.11-3.5,3.23-3.68,3.75-.43,1.31.07,1.82.24,2,.87.81,2.57.41,2.8.36,1.05-.21.84.12.74.22a9.34,9.34,0,0,1-1.12.85c-3.59,2.33-5.52,1.09-6.38.33-1.11-1-.16-3.54,0-3.8v0s0,0,.07-.25-.33-.22-.54.45A5.93,5.93,0,0,0,48.05,16c.2,2.13,2.43,2.78,3.59,2.75a6.19,6.19,0,0,0,5.62-3.35c.38-1.84-.87-1.57-1.22-1.5a3.67,3.67,0,0,1-2.39-.18c-.63-.29-.5-.66-.32-1a5.22,5.22,0,0,1,2-2.09,1.47,1.47,0,0,1,2.17.42l.22,0a5.05,5.05,0,0,0,.22-1.05c0-.49-.93-1-1.38-1M65,18.27c-.27.14-4.27,1.94-4.55,2.06s-.38.19-.44.39-.09.3-.1.35-.12.27.3.07c.13-.06,4.19-1.88,4.42-2s.37-.17.47-.37.13-.24.19-.38.13-.33-.29-.12m.52-15.61c.13-.06,3.55-1.58,3.79-1.7s.36-.16.47-.37A2.66,2.66,0,0,0,70,.21c.06-.15.14-.32-.28-.11L65.79,1.86c-.28.12-.37.18-.43.37l-.11.35c0,.14-.12.27.3.08M78.88,5.19c0-.57-.11-1.07-.31-.61a3.76,3.76,0,0,0-.22,1.94c.15,1.45.3,2.53.45,3.57a58.43,58.43,0,0,1,.67,6.39c0,.52.18.65.31.28a15.57,15.57,0,0,0,0-5.09c-.16-1.33-.77-5.42-.85-6.48m-15.61,11a4.89,4.89,0,0,0-.23-3A4,4,0,0,0,60.7,11l-.18.15-.05,1.1A4.39,4.39,0,0,1,63,14.87c0,.16.08.38-.15.43a14.21,14.21,0,0,1-3.4.58c-.2-.05-.4-.17-.41.08s0,1.14.32,1.22a12.05,12.05,0,0,0,3.55-.61.54.54,0,0,0,.41-.34m14.08-2.9A19.29,19.29,0,0,1,71.91,13a7.36,7.36,0,0,0,0-2.75c-.19-.82-.69-3.35-.87-4.28a.68.68,0,0,1,0-.33c.18-.17.62-.53.38-.83a6,6,0,0,1-.79-1.15c-.1-.27-.2-.5-.33-.28a7.54,7.54,0,0,1-.43.72c-.11.16-.22.24-.08.47a3.72,3.72,0,0,1,.51,1.23,9.25,9.25,0,0,0,.19,1.08c.1.45,1,4.89.92,5.48-.11.35-2.34,0-3.07.64a3.57,3.57,0,0,0-.49,1.14c0,.2,0,.24.15.14s.61-.89,4.73.08c-.14.13-5.84,4.1-6.64-.85C66.06,13,65,4.81,65,4.38s-.2-.72-.31-.48a3.5,3.5,0,0,0-.31,1.51c.5,1.93.94,7.31,1.24,8.81s.91,2.82,2.35,3c.86.12,1.86,0,4-1.26a9.12,9.12,0,0,1,5.25-1.41,8.94,8.94,0,0,0,.38-.92c.06-.19.12-.35-.17-.31M96.63,7.09a.27.27,0,0,1-.11-.43c.32-.5.55-.48.76-.25a1.73,1.73,0,0,1,.22,1.28s-.65-.47-.87-.6m.85,1.61c.45.22.65.7.71.52.17-.5.23-.78.1-.92S97.86,8,97.86,8a2.75,2.75,0,0,0,0-2.07c-.1-.17-.5-.8-1.35.15-.33.37-.75,1.3-.42,1.63a7.79,7.79,0,0,0,1.07.81,9.28,9.28,0,0,1-2.52,2.11c-.78.56-.49.75-.15.59,2.28-1.08,2.67-1.71,3-2.47M84.4,7.07a.28.28,0,0,1-.11-.44c.32-.49.55-.47.76-.24a1.73,1.73,0,0,1,.22,1.28s-.65-.47-.87-.6m.85,1.61c.45.22.64.7.71.52.17-.5.23-.79.1-.92s-.43-.35-.43-.35a2.75,2.75,0,0,0,0-2.07c-.1-.17-.5-.8-1.35.15-.33.37-.76,1.29-.42,1.63a7.79,7.79,0,0,0,1.07.81,9.44,9.44,0,0,1-2.52,2.11c-.78.56-.49.75-.15.59,2.28-1.08,2.67-1.72,3-2.47m6.09-1.77a.32.32,0,0,0,.16-.06,1.85,1.85,0,0,0,.36-.79c0-.13-.46-.17-.58-.2A8.23,8.23,0,0,0,90,5.5a1.69,1.69,0,0,0-1.68,1c0,.1-.1.23-.13.32s0,.27.12.14a1.16,1.16,0,0,1,.36-.37,1.85,1.85,0,0,1,1.11-.26,3.68,3.68,0,0,1,1,.31c0,.08-1.52.83-1.76,1s-.23.18-.2.3S89,8,89.09,8c.6-.21.81-.2,1.29-.4a3.84,3.84,0,0,0,1-.66M83.46,16c-.09.19-.21.53-.28.72s0,.15.12.1a11,11,0,0,1,2-.92A5.93,5.93,0,0,1,87,15.46a7.66,7.66,0,0,0,.55-.84c.08-.14,0-.18-.09-.16a5.68,5.68,0,0,1-1.74.15c-.87-.08-1.55-.75-1.53-1s.64-.59.87-.56c.67.11.65.7.83.7s.66-.76.68-1-.43-.77-.86-.8c-.72,0-1.94,1.17-2.41,1.92a.72.72,0,0,0,.09.91,8.93,8.93,0,0,0,1,.64,4.53,4.53,0,0,0-.93.55m24.62-3.72c-.12-1.14-.6-4.63-.65-5.53,0-.49-.08-.92-.29-.54a2.79,2.79,0,0,0-.28,1.65c.1,1.23.22,2.16.33,3.05a41.65,41.65,0,0,1,.47,5.45c0,.44.16.56.29.24a11,11,0,0,0,.13-4.32m-5.74,5.85a3.89,3.89,0,0,1-.42-.49h-.09l-.85.86,0,.15a3,3,0,0,0,.4.47,3.33,3.33,0,0,0,.51.43H102l.85-.85v-.1a3.24,3.24,0,0,1-.53-.45m4-4.13a12.54,12.54,0,0,1-4.84-1c.16-.13.5-.57.38-1.67s-.56-4.24-.56-4.24c0-.33-.17-.64,0-.81s.58-.46.35-.76a6.1,6.1,0,0,1-.73-1.24c-.09-.28-.18-.51-.32-.29a9.14,9.14,0,0,1-.45.87c-.12.16-.24.24-.11.47a3.53,3.53,0,0,1,.4,1.3c0,.21.08.66.14,1.09a43,43,0,0,1,.7,4.61s-3.17.11-3.58.51l-.64,1c-.06.11,0,.23.1.21a7.59,7.59,0,0,1,4.85.44c-.33.12-4,1.66-7,1.32-.46,0-3.67-.44-3.94-2.07,0-.2-.08-.28-.2-.07a1.71,1.71,0,0,0,.42,2.47,5.33,5.33,0,0,1-2.45,2.71,5.66,5.66,0,0,1-3.94-.2c-.22-.07-.54.11-.21.33s3.59,2.32,5.71.12a9.27,9.27,0,0,0,1.49-2.63c2.17,1.18,5.77.53,5.77.53a16.11,16.11,0,0,0,2.46-.73c.45-.18,3.51-1.57,5.59-1.09a3.15,3.15,0,0,0,.54.11l.46-1c.08-.19.18-.3-.4-.34M90.9,10.13a2.88,2.88,0,0,0,.54.44v.11l-.85.85h-.16a4.09,4.09,0,0,1-.52-.43,3.35,3.35,0,0,1-.39-.47l0-.16.85-.85h.09a4.75,4.75,0,0,0,.42.49" transform="translate(0 0)"/></g></g></g></g></g></g></g></g></g></g></svg>