<svg xmlns="http://www.w3.org/2000/svg" xmlns:xlink="http://www.w3.org/1999/xlink" width="102.36" height="20.55" viewBox="0 0 102.36 20.55"><defs><style>.cls-1{fill:none;}.cls-2{clip-path:url(#clip-path);}.cls-3{fill:#231f20;}</style><clipPath id="clip-path" transform="translate(0 0)"><rect class="cls-1" width="102.36" height="20.55"/></clipPath></defs><g id="Layer_2" data-name="Layer 2"><g id="svg2"><g id="g10"><g id="g50"><g id="g52"><g id="g90"><g id="g104"><g class="cls-2"><g id="g102"><g id="g100"><path id="path98" class="cls-3" d="M22.17,5.83l-.77.92v.16a3.66,3.66,0,0,0,.44.44,4.8,4.8,0,0,0,.54.38l.17,0,.77-.92,0-.11a2.63,2.63,0,0,1-.57-.39c-.17-.14-.31-.3-.46-.45ZM22.5,8.9l0,0-.39-.28a5.21,5.21,0,0,1-.47-.47h-.1l-.8,1v.16a4,4,0,0,0,.46.46,3.12,3.12,0,0,0,.56.39l.18,0,.75-.9.3.28a3.6,3.6,0,0,0,.57.39l.17,0,.8-1,0-.11a4.47,4.47,0,0,1-.59-.41,5.21,5.21,0,0,1-.47-.47h-.1ZM3.19,5.77h-.1l-.85.86,0,.15a3.56,3.56,0,0,0,.39.48,5.15,5.15,0,0,0,.52.43l.16,0,.86-.85v-.1a4.51,4.51,0,0,1-.54-.44,3.74,3.74,0,0,1-.41-.5M5.37,2.4c.23-.12.36-.16.47-.37A2.66,2.66,0,0,0,6,1.65c.07-.15.14-.32-.28-.11L.58,3.77C.29,3.9.2,4,.15,4.15L0,4.5c0,.13-.12.27.3.07.13-.06,4.8-2.05,5-2.17m27,14.28c-.27.14-4,1.75-4.26,1.87s-.38.18-.44.38-.09.31-.11.35-.12.26.3.08c.14-.06,3.9-1.69,4.13-1.81s.37-.16.47-.37a3.71,3.71,0,0,0,.2-.38c.06-.15.14-.33-.29-.12M33.93,4.3c0-.34-.08-.4.11-.57s.62-.52.39-.84a6,6,0,0,1-.74-1.21c-.1-.29-.19-.53-.33-.3s-.24.41-.47.71-.25.24-.11.48a4,4,0,0,1,.46,1.28c0,.22.07.68.13,1.12s1.13,8.08,1,8.24-.95.86-2.37.06l-.13-.08c1-.73.94-1.44.77-1.7-.3-.48-3-2-4.56.45-.17.25-.3.85.06.63a2.07,2.07,0,0,1,1.95.3l.19.13a4,4,0,0,1-4.38.1,5.19,5.19,0,0,0,.09-.52c0-.39-.24-.43-.35,0a7.62,7.62,0,0,1-.36,1.3c-.35.7-1.35.16-1.76,0a7,7,0,0,0,.29-1.23c.05-.27-.12-.5-.3.07s-.82,2.19-3.65,1.25c0-.33.24-1.08-.38-.76a19.49,19.49,0,0,1-3.23,1.2c-.62.15-.72.25-.62.52s.26,1,.58.88l.32-.1c-.27.73-1.24,3-3,3.7a5.67,5.67,0,0,1-4-.18c-.23-.07-.57.11-.22.35s4,2.23,6.25-.07a11.33,11.33,0,0,0,1.7-4v-.05l.7-.22c.2-.07,1-.42,1.45-.61,1.38,1,2.72,1.37,3.6.28,1.09,1,1.88.79,2.22.27a4.66,4.66,0,0,0,.43-1c1.74,1.7,4.72.06,5.39-.42a4,4,0,0,1,.5.62,1.87,1.87,0,0,0,2,.63c.41-.07,1.47-.56,1.4-2.41a66.57,66.57,0,0,0-.83-7.33c-.06-.39-.13-.9-.13-.9M7.25,10.47a11.19,11.19,0,0,0-1-2.24C6.09,8,6,7.82,5.9,8s-.26,1.26-.26,1.26A11.4,11.4,0,0,1,7,12.43c-.11.41-1.07,2.48-4.09,2.32-.32,0-3.38-.46-1.86-4.07.05-.13-.08-.39-.28-.09S-1,15.2,2.21,16a5,5,0,0,0,4.71-1.72c.21-.25.81-1.51.33-3.79m4.82,1.3a3.61,3.61,0,0,0-.84-1c-.45-.39-.86.18-.93.42-.26.79,1.09.66,1.39.64l.38-.05m-1.82,5.46a9.45,9.45,0,0,1-5,.24c-.54-.12-.31-.47.15-.4a6.22,6.22,0,0,0,7-3.82l0-.24a5.7,5.7,0,0,1-2,.09c-1.24-.39-1-2.26,0-3.48s2,.74,2.18,1.15a4.89,4.89,0,0,1-.67,4.93,4.28,4.28,0,0,1-1.65,1.53M37.16,7.88a58.43,58.43,0,0,1,.67,6.39c0,.52.18.65.31.28a15.57,15.57,0,0,0,0-5.09C37.93,8.13,37.32,4,37.24,3c0-.58-.11-1.08-.31-.62a3.76,3.76,0,0,0-.22,1.94c.15,1.45.3,2.53.45,3.57m-20.1-2a1.83,1.83,0,0,0-.23-1.29c-.21-.23-.44-.24-.76.25-.1.15-.1.3.12.44s.87.6.87.6M14,9.3c-.34.17-.63,0,.15-.59a9.28,9.28,0,0,0,2.52-2.1A9.67,9.67,0,0,1,15.6,5.8c-.33-.34.09-1.27.42-1.63.85-1,1.25-.33,1.35-.16a2.84,2.84,0,0,1,.05,2.08s.32.24.42.34.07.42-.1.93c-.06.17-.26-.31-.71-.52-.36.75-.75,1.38-3,2.46m9.49-5.67a.32.32,0,0,0,.16-.06,1.83,1.83,0,0,0,.36-.8c0-.12-.46-.16-.58-.19a8.23,8.23,0,0,0-1.29-.36,1.69,1.69,0,0,0-1.68,1c0,.1-.1.22-.13.32s0,.26.12.14a1.16,1.16,0,0,1,.36-.37A1.85,1.85,0,0,1,21.92,3a3.35,3.35,0,0,1,1,.31c0,.08-1.52.83-1.76,1s-.23.18-.2.3.16.11.28.06c.6-.21.81-.2,1.29-.4a3.84,3.84,0,0,0,1-.66M45.25,5.48a3.71,3.71,0,0,1-.2.38c-.11.2-.24.24-.48.36S40.56,7.9,40.43,8c-.43.18-.36,0-.3-.09a3.46,3.46,0,0,1,.11-.34c.06-.2.15-.26.44-.38s4-1.66,4.29-1.79.35,0,.28.12m-1.5,7.36c-.29,0-1.64.15-1.38-.64.07-.24.48-.81.93-.42a3.93,3.93,0,0,1,.84,1Zm-1.29-2.2c-1,1.22-1.26,3.09,0,3.48a5.7,5.7,0,0,0,2-.09l0,.24a6.22,6.22,0,0,1-7,3.82c-.46-.07-.7.28-.15.41a9.49,9.49,0,0,0,5-.25A4.28,4.28,0,0,0,44,16.72a4.89,4.89,0,0,0,.67-4.93c-.16-.4-1.15-2.4-2.18-1.15m15.85,7.12c-.28.14-3.34,1.73-3.63,1.85s-.37.19-.43.39l-.1.34c0,.14-.12.28.3.08l3.48-1.79c.23-.12.37-.17.47-.37a3.31,3.31,0,0,0,.19-.38c.06-.15.13-.33-.28-.12M72.14,3.57C72.09,3,72,2.5,71.82,3a3.76,3.76,0,0,0-.18,2c.17,1.44.33,2.52.5,3.56a57.86,57.86,0,0,1,.78,6.38c0,.52.19.64.31.27A15.32,15.32,0,0,0,73.1,10c-.18-1.32-.86-5.41-1-6.46M57.26,14.7A1.85,1.85,0,0,0,57,13.23c-.26-.41-1-.48-1-.48.16-.34,1.27-2.5-1.19-5.26-.13-.14-.16-.06-.2.08S54.26,9,54.26,9c.24.32,2,2.22,1.44,2.74a8.7,8.7,0,0,1-2.45.95c-.06.13-.19.54-.26.73s0,.23.09.26a9.09,9.09,0,0,1,3.53.74c.11.09,0,.15-.15.29a7.65,7.65,0,0,1-5,2c-.35,0-3.2-.06-3.3-2.82a5.87,5.87,0,0,1,.74-2.4c.1-.16,0-.31-.21-.1s-2,3-.71,5.26c.19.3,1.84,2.39,5.9,1,.51-.18,3.11-1.57,3.42-3M69.39,5.83a.58.58,0,0,1,0-.41,4.53,4.53,0,0,0,.42-.66.69.69,0,0,0-.15-.51,4.75,4.75,0,0,1-.59-1C69.07,3,69,2.8,68.86,3a3.35,3.35,0,0,1-.51.77.82.82,0,0,0,0,.73,2.63,2.63,0,0,1,.33.7,10,10,0,0,0,.12,1c.11.53,1.21,6.9,1.27,7.23s.11.87-.26.85l-1.66-.09a3.2,3.2,0,0,0,.28-.81c0-.35-.11-.33-.28-.09a3.72,3.72,0,0,1-1.32,1,9.09,9.09,0,0,1-5.73.57,2.4,2.4,0,0,1-1.66-2.24c0-.46-.41-6.47-.85-9-.06-.28-.1-.5-.3-.11a4.28,4.28,0,0,0,0,2.35c.17.72.49,5.79.51,6.8,0,2.08.61,2.69,1,3,1.9,1.61,6.11.23,6.85,0a3,3,0,0,0,1-.74,4.79,4.79,0,0,0,1,.48c.44.09,1.17.37,1.38-.09a6.7,6.7,0,0,0,.57-2.69c-.11-.83-1.23-6.76-1.23-6.76M62.17,2.7c.14-.06,3.54-1.61,3.77-1.73s.37-.17.47-.38A3.31,3.31,0,0,0,66.6.21c.06-.15.13-.32-.29-.11-.27.14-3.61,1.67-3.9,1.79s-.38.19-.44.39-.08.3-.1.34-.12.28.3.08m-8.33,4H54l.85-.85V5.72a3.71,3.71,0,0,1-.54-.44,4.83,4.83,0,0,1-.41-.49h-.1L53,5.63l0,.16a4.42,4.42,0,0,0,.4.48,4.06,4.06,0,0,0,.51.42m10.82.62-.77.93v.15a3.05,3.05,0,0,0,.44.44,3.19,3.19,0,0,0,.55.38l.16,0,.78-.91,0-.11a4.21,4.21,0,0,1-.58-.39c-.16-.14-.31-.3-.46-.46Zm.72,3.23,0,.05L65,10.31a3.48,3.48,0,0,1-.47-.47h-.1l-.8,1V11a2.68,2.68,0,0,0,.45.44,3.09,3.09,0,0,0,.57.4l.17,0,.76-.9.29.28a3.6,3.6,0,0,0,.57.39l.18,0,.79-1,0-.1a4.38,4.38,0,0,1-.59-.4c-.17-.15-.32-.32-.47-.48h-.1Zm0-6.45a1.48,1.48,0,0,1,.13.54c-.3.3-.62.34-.86.15a.79.79,0,0,1-.19-.67c0-.22,0-.3-.16-.14s-.18.18-.2.3c-.08.72-.39,1-.95,1.08-.35,0-.61-.22-.37-.91.06-.15-.05-.31-.2,0-.52,1-.21,1.62.33,1.7a1.15,1.15,0,0,0,1.21-.84.86.86,0,0,0,1,.33c.48-.12.58-.34.71-.72a2.33,2.33,0,0,0,0-1.45c0-.09-.08,0-.11,0L65.44,4a.14.14,0,0,0,0,.14M90.79,5.42A.27.27,0,0,1,90.67,5c.32-.49.55-.48.76-.25A1.83,1.83,0,0,1,91.66,6s-.66-.48-.87-.61M91.63,7c.46.21.65.69.71.52.17-.51.23-.79.1-.93A4.46,4.46,0,0,0,92,6.29a2.79,2.79,0,0,0,0-2.08c-.1-.17-.5-.8-1.35.16-.33.36-.75,1.29-.42,1.63a9.67,9.67,0,0,0,1.07.81,9.47,9.47,0,0,1-2.52,2.1c-.78.56-.49.76-.14.59,2.28-1.08,2.67-1.71,3-2.46M78.55,5.4A.28.28,0,0,1,78.44,5c.32-.49.55-.48.76-.25A1.82,1.82,0,0,1,79.43,6s-.66-.48-.88-.61M79.4,7c.45.21.65.69.71.51.17-.5.23-.78.1-.92s-.42-.35-.42-.35a2.76,2.76,0,0,0-.05-2.07c-.1-.17-.5-.8-1.35.16-.33.36-.75,1.29-.42,1.63A9.67,9.67,0,0,0,79,6.79a9.47,9.47,0,0,1-2.52,2.1c-.78.56-.49.75-.15.59C78.65,8.4,79,7.77,79.4,7m6.09-1.77c.05,0,.1,0,.16-.07A1.69,1.69,0,0,0,86,4.39c0-.12-.45-.16-.58-.2a8.38,8.38,0,0,0-1.28-.35,1.68,1.68,0,0,0-1.69,1l-.13.31c0,.16,0,.27.12.15a1.31,1.31,0,0,1,.36-.38,1.78,1.78,0,0,1,1.11-.25,3.07,3.07,0,0,1,1,.31c0,.07-1.52.82-1.75,1s-.23.18-.21.3.16.11.29.07c.59-.22.8-.2,1.28-.41a4,4,0,0,0,1-.65m-7.88,9.08c-.09.19-.21.52-.28.72s0,.15.12.1a10.62,10.62,0,0,1,2-.93,6.73,6.73,0,0,1,1.74-.43A5.09,5.09,0,0,0,81.7,13c.09-.14,0-.18-.09-.16a5.36,5.36,0,0,1-1.74.15c-.87-.07-1.55-.74-1.53-1s.64-.6.87-.56c.67.1.66.69.84.7s.65-.77.68-1a1.09,1.09,0,0,0-.87-.8c-.72,0-1.93,1.18-2.41,1.93a.74.74,0,0,0,.09.91,9.09,9.09,0,0,0,1,.63,4.6,4.6,0,0,0-.93.56m24.62-3.73c-.12-1.13-.6-4.63-.64-5.53,0-.49-.09-.91-.3-.53A2.69,2.69,0,0,0,101,6.18c.09,1.24.21,2.16.32,3.05a41.65,41.65,0,0,1,.47,5.45c0,.45.16.56.3.24a11.09,11.09,0,0,0,.12-4.32m-5.74,5.86a4,4,0,0,1-.42-.5H96l-.85.85,0,.16a4.22,4.22,0,0,0,.39.47,5.15,5.15,0,0,0,.52.43l.17,0L97,17v-.1a2.88,2.88,0,0,1-.54-.44m4-4.13a12.75,12.75,0,0,1-4.83-1c.15-.13.49-.57.37-1.67s-.56-4.24-.56-4.24c0-.32-.17-.64,0-.81s.58-.45.35-.76a7.1,7.1,0,0,1-.73-1.23c-.09-.28-.17-.52-.32-.3a7.37,7.37,0,0,1-.45.88c-.11.15-.24.23-.1.46A3.71,3.71,0,0,1,94.59,5c0,.21.08.66.14,1.09a45.84,45.84,0,0,1,.71,4.61s-3.18.11-3.59.51l-.64,1c0,.11,0,.23.1.21a7.64,7.64,0,0,1,4.85.45c-.32.11-4,1.66-7,1.31-.46,0-3.68-.43-3.94-2.06,0-.21-.09-.28-.2-.08a1.71,1.71,0,0,0,.41,2.48A5.33,5.33,0,0,1,83,17.21,5.69,5.69,0,0,1,79,17c-.22-.07-.54.11-.21.34s3.59,2.31,5.71.12A9.36,9.36,0,0,0,86,14.83c2.17,1.18,5.78.53,5.78.53a16.34,16.34,0,0,0,2.45-.73c.45-.18,3.52-1.57,5.6-1.08a3.27,3.27,0,0,0,.53.1l.46-1c.08-.2.18-.31-.4-.34M85.05,8.46a3.31,3.31,0,0,0,.54.45V9l-.85.85h-.17a3.35,3.35,0,0,1-.51-.42,4.42,4.42,0,0,1-.4-.48l0-.15L84.54,8h.09a4.93,4.93,0,0,0,.42.49" transform="translate(0 0)"/></g></g></g></g></g></g></g></g></g></g></svg>