<svg xmlns="http://www.w3.org/2000/svg" xmlns:xlink="http://www.w3.org/1999/xlink" width="105.91" height="20.93" viewBox="0 0 105.91 20.93"><defs><style>.cls-1{fill:none;}.cls-2{clip-path:url(#clip-path);}.cls-3{fill:#231f20;}</style><clipPath id="clip-path" transform="translate(0 0)"><rect class="cls-1" width="105.91" height="20.93"/></clipPath></defs><g id="Layer_2" data-name="Layer 2"><g id="svg2"><g id="g10"><g id="g46"><g id="g48"><g id="g86"><g id="g100"><g class="cls-2"><g id="g98"><g id="g96"><path id="path94" class="cls-3" d="M22.17,6.21l-.77.92v.16a3.66,3.66,0,0,0,.44.44,4.8,4.8,0,0,0,.54.38l.17,0,.77-.92v-.1a3.27,3.27,0,0,1-.58-.39,5,5,0,0,1-.46-.46Zm.33,3.07,0,.05-.39-.28a5.21,5.21,0,0,1-.47-.47h-.1l-.8,1V9.7a3.33,3.33,0,0,0,.46.46,3.19,3.19,0,0,0,.57.39l.17,0,.75-.9.3.28a3.6,3.6,0,0,0,.57.39l.17,0,.8-1,0-.11a3.69,3.69,0,0,1-.59-.41,4.17,4.17,0,0,1-.47-.47h-.1ZM3.19,6.15h-.1L2.24,7l0,.16a3.44,3.44,0,0,0,.4.47,4.15,4.15,0,0,0,.51.43L3.3,8l.85-.84V7.09a4.51,4.51,0,0,1-.54-.44,3.74,3.74,0,0,1-.41-.5M5.37,2.78c.23-.12.36-.16.47-.36A3.68,3.68,0,0,0,6,2c.06-.15.13-.32-.29-.11C5.48,2.05.87,4,.58,4.15s-.37.18-.43.38-.09.31-.11.35-.12.27.3.08c.13-.06,4.8-2,5-2.18m27,14.29c-.27.13-4,1.74-4.26,1.86s-.38.19-.44.38-.09.31-.1.35-.13.27.29.08c.14-.06,3.9-1.68,4.13-1.81s.37-.16.48-.36.13-.24.19-.39.14-.32-.29-.11m1.6-12.39c0-.34-.09-.39.1-.57s.63-.52.4-.84a5.31,5.31,0,0,1-.75-1.2c-.1-.29-.19-.53-.33-.31s-.24.41-.47.72-.25.23-.11.47a4,4,0,0,1,.46,1.29c0,.21.07.67.14,1.11s1.12,8.08,1,8.24-.95.86-2.37.07l-.13-.09c1-.73.94-1.44.78-1.7-.3-.48-3-2-4.57.46-.17.25-.3.84.06.62a2.1,2.1,0,0,1,1.95.3l.2.13a4,4,0,0,1-4.39.1A5.12,5.12,0,0,0,26,13c0-.4-.24-.44-.34,0a6.84,6.84,0,0,1-.37,1.3c-.35.7-1.34.16-1.76,0A7,7,0,0,0,23.81,13c.05-.27-.12-.5-.3.07s-.82,2.2-3.65,1.25c0-.33.24-1.07-.38-.76a19.49,19.49,0,0,1-3.23,1.2c-.62.16-.71.25-.62.52s.26,1,.58.89l.33-.11c-.28.73-1.25,3-3,3.7a5.62,5.62,0,0,1-4-.18c-.23-.07-.56.11-.22.35s4,2.23,6.25-.06a11.3,11.3,0,0,0,1.7-4v0l.7-.22c.2-.07,1-.42,1.46-.61,1.38,1,2.71,1.37,3.59.28,1.09,1,1.88.79,2.22.28a4.77,4.77,0,0,0,.43-1c1.74,1.71,4.72.06,5.39-.41a3.62,3.62,0,0,1,.5.61,1.86,1.86,0,0,0,2,.64c.41-.08,1.47-.56,1.4-2.42a66.57,66.57,0,0,0-.83-7.33c-.06-.39-.12-.9-.12-.9M7.25,10.85a11.34,11.34,0,0,0-1-2.24C6.09,8.36,6,8.2,5.9,8.35s-.26,1.26-.26,1.26A11.4,11.4,0,0,1,7,12.81c-.11.41-1.07,2.48-4.09,2.32-.31,0-3.38-.46-1.86-4.07.06-.13-.08-.39-.27-.09S-1,15.58,2.21,16.36a5,5,0,0,0,4.71-1.72c.21-.25.82-1.51.33-3.79m4.82,1.3a4.13,4.13,0,0,0-.83-1c-.46-.39-.86.18-.94.42-.25.79,1.09.66,1.39.64l.38,0m-1.82,5.46a9.49,9.49,0,0,1-5,.25c-.54-.13-.31-.48.15-.41a6.21,6.21,0,0,0,7-3.82l.05-.24a5.26,5.26,0,0,1-2,.09c-1.25-.39-1-2.26,0-3.48s2,.75,2.18,1.15a4.89,4.89,0,0,1-.67,4.93,4.21,4.21,0,0,1-1.65,1.53M37.16,8.26a58.43,58.43,0,0,1,.67,6.39c0,.53.18.66.31.28a15.21,15.21,0,0,0,0-5.08c-.16-1.33-.77-5.43-.85-6.48,0-.58-.11-1.07-.31-.62a3.78,3.78,0,0,0-.22,2c.15,1.44.3,2.52.45,3.56m-20.1-2a1.83,1.83,0,0,0-.23-1.29c-.21-.22-.44-.24-.76.25a.29.29,0,0,0,.12.44c.21.13.87.6.87.6M14,9.69c-.35.16-.64,0,.14-.6A9.28,9.28,0,0,0,16.67,7a9.67,9.67,0,0,1-1.07-.81c-.33-.34.09-1.27.42-1.63.85-.95,1.25-.32,1.35-.15a2.77,2.77,0,0,1,.05,2.07,4.46,4.46,0,0,1,.42.34c.13.14.07.42-.1.93-.06.18-.25-.31-.71-.52-.35.75-.74,1.39-3,2.47M23.49,4A.23.23,0,0,0,23.65,4,1.73,1.73,0,0,0,24,3.16C24,3,23.55,3,23.43,3a8.42,8.42,0,0,0-1.28-.36,1.71,1.71,0,0,0-1.69,1l-.13.32c0,.16,0,.27.12.14a1.16,1.16,0,0,1,.36-.37,1.85,1.85,0,0,1,1.11-.26,3.68,3.68,0,0,1,1,.31c0,.08-1.52.83-1.75,1s-.23.18-.21.3.16.11.29.07c.59-.22.8-.21,1.28-.41a3.84,3.84,0,0,0,1-.66M45.26,5.86a4.19,4.19,0,0,1-.21.38c-.11.2-.24.24-.48.36s-4,1.68-4.14,1.74c-.43.18-.36.05-.3-.09s0-.14.11-.34.15-.26.44-.38,4-1.66,4.29-1.79.35,0,.29.12m-1.51,7.36c-.28,0-1.63.15-1.38-.64.07-.24.48-.8.93-.42a3.93,3.93,0,0,1,.84,1ZM42.46,11c-1,1.22-1.26,3.09,0,3.48a5.31,5.31,0,0,0,2.05-.09l-.05.24a6.21,6.21,0,0,1-7,3.82c-.46-.07-.7.28-.15.41a9.45,9.45,0,0,0,5-.24A4.38,4.38,0,0,0,44,17.1a4.87,4.87,0,0,0,.67-4.93c-.16-.4-1.15-2.39-2.18-1.15m32,1A5.42,5.42,0,0,1,74,15.33c-.75,1.07-2.06.14-2.33,0s-.5-.05-.83.14a7.41,7.41,0,0,1-4.87,1.26c-2.27-.26-2.46-3-2.55-3.81s-.5-5.26-.86-6.66a4.91,4.91,0,0,1,.17-1.7c.06-.26.18-.34.28,0S64,12,64.1,12.69c.35,2.39,1.76,2.53,2.26,2.65a8.06,8.06,0,0,0,4.78-1.26.9.9,0,0,1,1,.06,7.75,7.75,0,0,0,1.41.46c.47.07.5-.62.45-1s-1-5.77-1-6.09c-.1-.68-.21-1.17-.24-1.3-.09-.44-.08-.8-.12-1a2.88,2.88,0,0,0-.32-.7.79.79,0,0,1,0-.73A4.22,4.22,0,0,0,72.79,3c.09-.2.2,0,.25.24a5.77,5.77,0,0,0,.59,1,.69.69,0,0,1,.16.51,4.53,4.53,0,0,1-.42.66c-.05.06-.08.17-.06.41l1.12,6.26M58.87,15.66a4.85,4.85,0,0,1-.92-.42c-1.39,1.51-4,1.78-4.28,1.84,0,0-4.56.79-5.69-1.89a3.36,3.36,0,0,1,.52-3c.16-.2.26-.06.11.17-.6.91-.09,3.53,3.84,3.55,4.28,0,5.78-2.16,6-2.55s.39,0,.34.15a3.35,3.35,0,0,1-.31.94l1.51.08c.37,0,.31-.52.25-.85S59.07,7,59,6.49a9.61,9.61,0,0,1-.11-1,3,3,0,0,0-.33-.7.82.82,0,0,1,0-.74,4,4,0,0,0,.51-.76c.09-.2.21,0,.26.24a4.75,4.75,0,0,0,.59,1,.73.73,0,0,1,.15.51,4.53,4.53,0,0,1-.42.66.63.63,0,0,0-.06.41s1.12,5.93,1.23,6.75a6.66,6.66,0,0,1-.57,2.69c-.2.47-.94.19-1.38.1M54.18,9a3.6,3.6,0,0,0,.57.39l0,.11-.77.92-.17,0a3.87,3.87,0,0,1-.55-.38,3.66,3.66,0,0,1-.44-.44V9.49l.78-.92h.09a4,4,0,0,0,.46.46m-.09,2.38.8-1H55a5.43,5.43,0,0,0,.48.48,3.74,3.74,0,0,0,.58.4l0,.11-.8,1-.17,0a3.6,3.6,0,0,1-.57-.39l-.29-.28-.76.9-.18,0a4,4,0,0,1-.56-.39,3.92,3.92,0,0,1-.46-.45v-.17l.8-1h.1a4.27,4.27,0,0,0,.48.47l.38.29Zm15.16-3.3a3.68,3.68,0,0,0,.58.39l0,.1-.77.93-.17,0a2.85,2.85,0,0,1-.55-.38,3.58,3.58,0,0,1-.44-.43V8.58l.77-.93h.1a4.89,4.89,0,0,0,.45.46m-.08,2.38.8-1h.1a5.32,5.32,0,0,0,.47.48,3.61,3.61,0,0,0,.59.4l0,.11-.8,1-.17,0a4.21,4.21,0,0,1-.58-.39l-.29-.27-.75.9-.18,0a3.17,3.17,0,0,1-.56-.4,3.92,3.92,0,0,1-.46-.45v-.17l.8-1h.1a5.32,5.32,0,0,0,.47.48l.39.28Zm-5.53,6.86-.18.39c-.1.21-.23.25-.46.38s-4.07,1.73-4.21,1.8c-.41.21-.34.07-.3-.07a3.58,3.58,0,0,0,.09-.35c.05-.2.14-.26.42-.4s4.08-1.71,4.35-1.85.34-.05.29.1M64.89,2.46s0-.15.12-.35.16-.25.45-.36,3.69-1.53,4-1.66c.43-.2.35,0,.28.12a3.71,3.71,0,0,1-.2.38c-.11.2-.25.24-.48.36s-3.69,1.54-3.83,1.6c-.42.18-.35.05-.3-.09m12.3,8.29a11.3,11.3,0,0,1,.1,4.33c-.12.32-.29.21-.31-.23a41.55,41.55,0,0,0-.75-5.42c-.16-.88-.32-1.8-.48-3a2.76,2.76,0,0,1,.19-1.66c.19-.39.27,0,.31.52.1.9.76,4.37.94,5.49m-8-6.51a1.44,1.44,0,0,1,.13.54c-.3.29-.62.34-.86.15a.79.79,0,0,1-.19-.67c0-.22,0-.3-.16-.14s-.18.18-.19.3c-.09.72-.4,1-1,1.08-.35,0-.61-.22-.36-.91,0-.15-.06-.31-.21,0-.52,1-.21,1.62.33,1.7a1.16,1.16,0,0,0,1.21-.84.86.86,0,0,0,1,.33c.48-.12.58-.34.71-.72a2.33,2.33,0,0,0,0-1.45c0-.09-.08,0-.1,0l-.26.49a.14.14,0,0,0,0,.14m25.2,1.57c-.21-.14-.21-.29-.11-.44.32-.49.55-.48.76-.25a1.76,1.76,0,0,1,.22,1.29s-.65-.47-.87-.6m.85,1.61c.45.21.64.69.71.52.17-.51.23-.79.1-.93s-.43-.34-.43-.34a2.78,2.78,0,0,0,0-2.08c-.1-.17-.5-.79-1.35.16-.33.36-.75,1.29-.42,1.63a8.78,8.78,0,0,0,1.07.81,9.44,9.44,0,0,1-2.52,2.1c-.78.56-.49.76-.15.59,2.28-1.07,2.67-1.71,3-2.46M53.1,3.72a.26.26,0,0,1-.1-.41c.3-.47.52-.46.71-.24a1.67,1.67,0,0,1,.22,1.22s-.62-.45-.83-.57m.8,1.53c.43.2.62.65.67.48.17-.47.22-.74.1-.87a4.35,4.35,0,0,0-.4-.33,2.62,2.62,0,0,0,0-2c-.1-.16-.48-.76-1.28.14-.31.35-.72,1.23-.4,1.55a8.28,8.28,0,0,0,1,.77,9,9,0,0,1-2.38,2c-.74.53-.47.71-.14.56,2.16-1,2.53-1.63,2.86-2.33m28.21.54c-.21-.14-.21-.29-.11-.44.31-.49.55-.48.76-.25A1.81,1.81,0,0,1,83,6.39s-.66-.47-.87-.6M83,7.4c.45.21.64.69.7.52.18-.51.23-.79.1-.93a4.46,4.46,0,0,0-.42-.34,2.78,2.78,0,0,0,0-2.08c-.1-.17-.51-.8-1.35.16-.33.36-.76,1.29-.42,1.63a8.78,8.78,0,0,0,1.07.81,9.44,9.44,0,0,1-2.52,2.1c-.79.56-.49.76-.15.59,2.28-1.08,2.67-1.71,3-2.46m6.09-1.77s.1,0,.16-.06a1.88,1.88,0,0,0,.36-.8c0-.12-.46-.16-.58-.19a7.27,7.27,0,0,0-1.29-.36,1.66,1.66,0,0,0-1.68,1l-.14.32c0,.16,0,.26.13.14a1.16,1.16,0,0,1,.36-.37A1.71,1.71,0,0,1,87.48,5a3.07,3.07,0,0,1,1,.31c0,.07-1.52.82-1.76,1s-.23.19-.2.3.16.11.28.07c.6-.22.81-.2,1.29-.4a4.16,4.16,0,0,0,1-.66m-7.88,9.08c-.09.19-.21.52-.28.72s0,.15.11.1a11.09,11.09,0,0,1,2-.93,6.67,6.67,0,0,1,1.73-.43,5.32,5.32,0,0,0,.56-.84c.08-.13,0-.18-.09-.16a5.12,5.12,0,0,1-1.74.15c-.87-.07-1.56-.74-1.53-1s.64-.6.87-.56c.66.1.65.69.83.7s.66-.76.68-1-.43-.78-.86-.8c-.72,0-1.94,1.17-2.41,1.92a.73.73,0,0,0,.09.91,8.08,8.08,0,0,0,1,.64,4.28,4.28,0,0,0-.93.55M105.79,11c-.12-1.13-.6-4.63-.65-5.53,0-.49-.08-.91-.29-.53a2.76,2.76,0,0,0-.28,1.64c.1,1.24.22,2.17.33,3.05a42,42,0,0,1,.47,5.46c0,.44.16.55.29.24a11.07,11.07,0,0,0,.13-4.33m-5.74,5.86a3.89,3.89,0,0,1-.42-.49h-.09l-.85.85,0,.16a3.55,3.55,0,0,0,.4.47,3.42,3.42,0,0,0,.51.43h.17l.85-.85v-.11a3.18,3.18,0,0,1-.53-.44m4-4.13a12.78,12.78,0,0,1-4.83-1c.16-.13.5-.56.38-1.66S99,5.85,99,5.85c0-.33-.17-.65,0-.81s.58-.46.35-.77A6,6,0,0,1,98.63,3c-.09-.28-.18-.52-.32-.29a9.14,9.14,0,0,1-.45.87c-.12.16-.24.23-.11.47a3.61,3.61,0,0,1,.4,1.29c0,.21.08.66.14,1.09a46.2,46.2,0,0,1,.7,4.61s-3.17.12-3.59.52l-.63,1c-.06.11,0,.22.1.2a7.72,7.72,0,0,1,4.85.45c-.33.11-4,1.66-7,1.31-.46,0-3.67-.43-3.94-2.06,0-.21-.09-.28-.2-.07A1.71,1.71,0,0,0,89,14.89a5.28,5.28,0,0,1-2.45,2.7,5.63,5.63,0,0,1-3.94-.19c-.22-.07-.55.1-.21.33S86,20,88.1,17.85a9.21,9.21,0,0,0,1.49-2.64c2.17,1.18,5.78.53,5.78.53A16.26,16.26,0,0,0,97.82,15c.45-.19,3.51-1.57,5.59-1.09A3.15,3.15,0,0,0,104,14s.37-.8.45-1,.19-.3-.4-.34M88.61,8.85a3.34,3.34,0,0,0,.54.44v.1l-.85.85h-.16a3.42,3.42,0,0,1-.52-.42,3.64,3.64,0,0,1-.4-.48l0-.15.85-.86h.09a4.84,4.84,0,0,0,.42.5" transform="translate(0 0)"/></g></g></g></g></g></g></g></g></g></g></svg>