<svg xmlns="http://www.w3.org/2000/svg" xmlns:xlink="http://www.w3.org/1999/xlink" width="103.05" height="19.65" viewBox="0 0 103.05 19.65"><defs><style>.cls-1{fill:none;}.cls-2{clip-path:url(#clip-path);}.cls-3{fill:#231f20;}</style><clipPath id="clip-path" transform="translate(0 0)"><rect class="cls-1" width="103.04" height="19.65"/></clipPath></defs><g id="Layer_2" data-name="Layer 2"><g id="svg2"><g id="g10"><g id="g62"><g id="g64"><g id="g102"><g id="g116"><g class="cls-2"><g id="g114"><g id="g112"><path id="path110" class="cls-3" d="M22.17,4.7l-.77.92v.16a4.44,4.44,0,0,0,.43.44,3.78,3.78,0,0,0,.55.37l.17,0,.77-.92,0-.11a3,3,0,0,1-.57-.39,4.91,4.91,0,0,1-.46-.45Zm.33,3.07,0,.05-.39-.28a5.21,5.21,0,0,1-.47-.47h-.1l-.8,1v.16a3.26,3.26,0,0,0,.46.45,2.73,2.73,0,0,0,.56.4l.18,0,.75-.9.3.27a3.4,3.4,0,0,0,.56.4l.18,0,.8-1,0-.1a4.47,4.47,0,0,1-.59-.41,5.21,5.21,0,0,1-.47-.47h-.1ZM3.18,4.64H3.09l-.85.86,0,.15a3,3,0,0,0,.39.47,3.39,3.39,0,0,0,.52.43h.16l.85-.85v-.1a3.34,3.34,0,0,1-.54-.44,4.84,4.84,0,0,1-.42-.5M5.37,1.27c.23-.12.36-.16.47-.37A3.31,3.31,0,0,0,6,.52C6.1.37,6.17.2,5.75.4S.86,2.51.58,2.64.2,2.82.14,3s-.09.3-.1.35-.12.27.3.07c.12-.06,4.8-2,5-2.17m27,14.28c-.27.14-4,1.74-4.26,1.87s-.38.18-.44.38-.09.31-.11.35-.12.26.3.07c.14,0,3.9-1.68,4.13-1.8s.37-.17.47-.37a3.71,3.71,0,0,0,.2-.38c.06-.15.14-.33-.29-.12M33.93,3.17c0-.34-.08-.4.11-.57s.62-.52.39-.84A6.51,6.51,0,0,1,33.68.55c-.09-.29-.18-.53-.32-.3a6.86,6.86,0,0,1-.48.71c-.12.16-.24.24-.1.48a4,4,0,0,1,.46,1.28c0,.22.07.68.13,1.12s1.13,8.08,1,8.24-.95.86-2.37.06l-.13-.08c1-.73.94-1.44.77-1.71-.3-.47-3-2-4.56.46-.17.25-.3.84.06.63a2.05,2.05,0,0,1,1.94.3l.2.13a4,4,0,0,1-4.38.1,5.19,5.19,0,0,0,.09-.52c0-.4-.24-.43-.35,0a7.62,7.62,0,0,1-.36,1.3c-.35.69-1.35.16-1.76,0a7,7,0,0,0,.29-1.23c.05-.27-.12-.5-.3.07s-.82,2.19-3.65,1.25c0-.34.24-1.08-.38-.76a20.2,20.2,0,0,1-3.24,1.2c-.61.15-.71.25-.61.52s.25,1,.58.88l.32-.1c-.27.73-1.24,3-3,3.7a5.67,5.67,0,0,1-4-.18c-.23-.07-.57.11-.22.35s4,2.22,6.25-.07a11.52,11.52,0,0,0,1.7-4v0l.7-.22,1.45-.61c1.38,1,2.72,1.37,3.6.28,1.09,1,1.88.79,2.22.27a4.57,4.57,0,0,0,.43-1c1.74,1.71,4.72.07,5.39-.41a4,4,0,0,1,.5.62,1.86,1.86,0,0,0,2,.63c.41-.07,1.47-.56,1.4-2.41a66.57,66.57,0,0,0-.83-7.33c-.06-.39-.13-.9-.13-.9M7.24,9.34a10.77,10.77,0,0,0-1-2.24c-.14-.25-.26-.41-.32-.26S5.64,8.1,5.64,8.1A11,11,0,0,1,7,11.3c-.1.41-1.06,2.48-4.08,2.32-.32,0-3.38-.46-1.86-4.07.05-.13-.08-.39-.28-.09S-1,14.07,2.21,14.85a5,5,0,0,0,4.71-1.73c.21-.24.81-1.5.32-3.78m4.83,1.3a3.61,3.61,0,0,0-.84-1c-.45-.39-.86.18-.93.42-.26.79,1.09.66,1.38.63l.39,0M10.25,16.1a9.45,9.45,0,0,1-5,.24c-.54-.12-.31-.48.15-.4a6.21,6.21,0,0,0,7-3.83l0-.23a5.7,5.7,0,0,1-2,.09c-1.24-.39-1-2.26,0-3.49s2,.75,2.19,1.16a4.89,4.89,0,0,1-.67,4.93,4.28,4.28,0,0,1-1.65,1.53M37.16,6.75a58.43,58.43,0,0,1,.67,6.39c0,.52.18.65.31.28a15.57,15.57,0,0,0,0-5.09c-.16-1.33-.77-5.42-.85-6.48,0-.57-.12-1.07-.31-.61a3.76,3.76,0,0,0-.22,1.94c.15,1.45.3,2.53.45,3.57m-20.1-2a1.82,1.82,0,0,0-.23-1.29c-.21-.23-.44-.24-.76.25a.27.27,0,0,0,.11.43c.22.13.88.61.88.61M14,8.17c-.34.16-.63,0,.15-.59a9.47,9.47,0,0,0,2.52-2.1,9.67,9.67,0,0,1-1.07-.81c-.33-.34.09-1.27.42-1.63.85-1,1.25-.33,1.35-.16A2.81,2.81,0,0,1,17.42,5s.32.25.42.35.07.42-.1.92c-.06.18-.26-.3-.71-.51-.36.75-.75,1.38-3,2.46M23.49,2.5a.32.32,0,0,0,.16-.06,1.88,1.88,0,0,0,.36-.8c0-.12-.46-.16-.58-.19a8.23,8.23,0,0,0-1.29-.36,1.69,1.69,0,0,0-1.68,1l-.14.32c0,.16,0,.26.13.14a1.16,1.16,0,0,1,.36-.37,1.78,1.78,0,0,1,1.11-.26,3.35,3.35,0,0,1,1,.31c0,.08-1.52.83-1.76,1s-.23.19-.2.31.16.11.28.06c.6-.21.81-.2,1.29-.4a4.16,4.16,0,0,0,1-.66M45.25,4.35a3.71,3.71,0,0,1-.2.38c-.11.2-.24.24-.48.36s-4,1.68-4.15,1.73c-.42.19-.35,0-.3-.08s.05-.15.12-.34.15-.26.44-.38,4-1.66,4.29-1.79.35,0,.28.12m-1.5,7.36c-.29,0-1.64.15-1.38-.64.07-.24.48-.81.93-.42a3.93,3.93,0,0,1,.84,1Zm-1.29-2.2c-1,1.22-1.26,3.09,0,3.48a5.7,5.7,0,0,0,2-.09l0,.24a6.22,6.22,0,0,1-7,3.82c-.46-.08-.7.28-.15.4a9.34,9.34,0,0,0,5-.24A4.28,4.28,0,0,0,44,15.59a4.89,4.89,0,0,0,.67-4.93c-.16-.4-1.15-2.4-2.18-1.15m27.42-5c0-.33-.07-.39.12-.55s.65-.49.44-.81a5.12,5.12,0,0,1-.71-1.2c-.09-.28-.17-.51-.32-.3s-.24.4-.47.7c-.12.14-.25.22-.12.46A2.67,2.67,0,0,1,69.25,4c0,.58,1.29,7.55,1.18,7.86a3.23,3.23,0,0,1-3.17,0c-.18-.11-.25-.14-.29.18a1.26,1.26,0,0,0,.79,1.51,6.44,6.44,0,0,1-3,3.33,5.74,5.74,0,0,1-4.17-.07c-.23-.07-.57.11-.22.35s4.11,2.07,6.32-.21a10.06,10.06,0,0,0,1.68-3.3,4.13,4.13,0,0,0,.68,0c.71,0,1.69-.24,1.78-1.08a17.77,17.77,0,0,0-.4-5.27c-.18-1-.54-2.86-.54-2.86m-9.24,9.84a2.63,2.63,0,0,0,.19-.38c.07-.16.14-.33-.28-.12-.27.14-3.62,1.67-3.91,1.79s-.37.19-.43.39-.09.3-.11.35-.12.27.31.07c.13-.06,3.54-1.6,3.77-1.73s.36-.17.46-.37m-1.76,3.4c-.8.07-5.62.81-7.76.18s-2.95-2.36-2.44-5.08a5.88,5.88,0,0,1,2.66-3.91,4.41,4.41,0,0,0,3.72,1.38,11.06,11.06,0,0,0,4.39-1.06c.24-.13.47-.41.6-1.41A3.71,3.71,0,0,0,59,4.73c-.14-.16-.22-.17-.27.06s-.24,1.28-.24,1.28c.4.53,1.21,1.66,1,1.78s-3.54,1.66-6.35.72a5.24,5.24,0,0,1-.62-.33,1.47,1.47,0,0,0,.64-.49c.25-.48.59-1.18.07-1.56a3,3,0,0,0-2.13-.47A2.24,2.24,0,0,0,49,7.7c-.06.27,0,.38.2.21A1,1,0,0,1,50.65,8a4,4,0,0,0-.59.66A9.33,9.33,0,0,0,47.94,15c.23,3.57,2.84,5.2,6.72,4.43.92-.19,4-1.06,4.35-1.24s.67-.58-.13-.5m-1.1-6.23h-.1l-.84.86,0,.15a3,3,0,0,0,.4.47,3.42,3.42,0,0,0,.51.43h.17l.85-.85v-.11A2.75,2.75,0,0,1,58.2,12a3.89,3.89,0,0,1-.42-.49M73.27,3.6c0-.53-.09-1-.31-.58a3,3,0,0,0-.31,1.78c.11,1.33.23,2.33.36,3.29a43.91,43.91,0,0,1,.5,5.89c0,.47.18.6.32.26A12,12,0,0,0,74,9.57c-.12-1.23-.64-5-.69-6m-8.89-.9c.13-.06,3.54-1.61,3.77-1.73s.37-.17.47-.38a3.31,3.31,0,0,0,.19-.38c.06-.15.13-.33-.29-.11-.27.14-3.61,1.67-3.9,1.79s-.38.19-.43.39-.1.3-.11.34-.12.28.3.08M63,13.1c0,.48.17.6.31.26a11.84,11.84,0,0,0,.14-4.66c-.13-1.23-.65-5-.7-6,0-.53-.09-1-.31-.58a3,3,0,0,0-.3,1.78c.1,1.34.23,2.33.35,3.29A45.51,45.51,0,0,1,63,13.1m4.56-7.3a1.28,1.28,0,0,1,.13.52c-.29.27-.6.32-.83.13a.77.77,0,0,1-.18-.63c0-.21,0-.29-.15-.14s-.17.18-.19.29c-.08.69-.38,1-.91,1-.33,0-.58-.21-.35-.87.05-.14,0-.29-.19,0-.5,1-.2,1.55.31,1.63A1.12,1.12,0,0,0,66.38,7a.82.82,0,0,0,.94.32A.84.84,0,0,0,68,6.58,2.12,2.12,0,0,0,68,5.2c0-.1-.07,0-.1,0l-.24.46a.14.14,0,0,0,0,.14M91.47,4.29a.27.27,0,0,1-.11-.43c.32-.49.55-.48.76-.25a1.82,1.82,0,0,1,.23,1.29s-.66-.48-.88-.61m.85,1.62c.45.21.65.69.71.51.17-.5.23-.78.1-.92s-.43-.35-.43-.35a2.75,2.75,0,0,0,0-2.07c-.1-.17-.5-.8-1.35.15-.33.37-.75,1.3-.42,1.64a9.13,9.13,0,0,0,1.07.8,9.28,9.28,0,0,1-2.52,2.11c-.78.56-.49.75-.15.59,2.28-1.08,2.67-1.71,3-2.46M50,1.61a.25.25,0,0,1-.11-.4c.3-.45.51-.44.7-.23a1.58,1.58,0,0,1,.21,1.19s-.61-.44-.8-.56m.78,1.49c.42.2.6.65.65.48.16-.46.22-.72.1-.85s-.39-.32-.39-.32A2.53,2.53,0,0,0,51,.49C51,.34,50.58-.25,49.8.64c-.31.33-.7,1.19-.39,1.5a8,8,0,0,0,1,.75,8.79,8.79,0,0,1-2.33,1.95c-.73.52-.45.7-.14.54,2.11-1,2.47-1.58,2.8-2.28M79.24,4.27a.27.27,0,0,1-.11-.43c.32-.49.55-.48.76-.25a1.75,1.75,0,0,1,.22,1.29s-.65-.48-.87-.61m.85,1.62c.45.21.65.69.71.51.17-.5.23-.78.1-.92s-.43-.35-.43-.35a2.75,2.75,0,0,0,0-2.07c-.1-.17-.5-.8-1.35.15-.33.37-.76,1.3-.42,1.63a7.79,7.79,0,0,0,1.07.81,9.44,9.44,0,0,1-2.52,2.11c-.79.56-.49.75-.15.59,2.28-1.08,2.67-1.71,3-2.46m6.09-1.78a.23.23,0,0,0,.16-.06,1.69,1.69,0,0,0,.36-.79c0-.12-.46-.17-.58-.2a7.24,7.24,0,0,0-1.29-.35,1.66,1.66,0,0,0-1.68,1c0,.09-.1.22-.13.31s0,.27.12.15a1.09,1.09,0,0,1,.36-.38,1.85,1.85,0,0,1,1.11-.26,3.27,3.27,0,0,1,1,.32c0,.07-1.52.82-1.75,1s-.23.18-.21.3.16.11.28.07c.6-.22.81-.2,1.29-.41a3.84,3.84,0,0,0,1-.66M78.3,13.19c-.09.2-.21.53-.28.72s0,.16.12.11a10.62,10.62,0,0,1,2-.93,6.26,6.26,0,0,1,1.74-.43,6.8,6.8,0,0,0,.55-.84c.08-.14,0-.18-.09-.16a5.36,5.36,0,0,1-1.74.15c-.87-.08-1.55-.74-1.53-1s.64-.6.87-.56c.67.1.66.69.84.69s.65-.76.67-1-.43-.77-.86-.8c-.72,0-1.93,1.17-2.41,1.92a.72.72,0,0,0,.09.91,8.93,8.93,0,0,0,1,.64,5,5,0,0,0-.93.55m24.62-3.72c-.12-1.13-.6-4.63-.65-5.53,0-.49-.08-.92-.29-.54a2.79,2.79,0,0,0-.28,1.65c.1,1.23.22,2.16.33,3.05a41.65,41.65,0,0,1,.47,5.45c0,.45.16.56.3.24a11.3,11.3,0,0,0,.12-4.32m-5.74,5.86a4.84,4.84,0,0,1-.42-.5h-.09l-.85.85,0,.16a3.35,3.35,0,0,0,.39.47,4.24,4.24,0,0,0,.52.43l.16,0,.85-.85v-.1a2.88,2.88,0,0,1-.54-.44m4-4.13a12.83,12.83,0,0,1-4.84-1c.16-.13.5-.57.38-1.67s-.56-4.24-.56-4.24c0-.33-.17-.64,0-.81s.58-.45.35-.76a6.52,6.52,0,0,1-.73-1.23c-.09-.29-.18-.52-.32-.3a9.23,9.23,0,0,1-.45.88c-.12.15-.24.23-.11.46a3.53,3.53,0,0,1,.4,1.3c0,.21.08.66.14,1.09a45.84,45.84,0,0,1,.71,4.61s-3.18.11-3.59.51l-.64,1c-.05.11-.05.23.1.21a7.64,7.64,0,0,1,4.85.45c-.33.11-3.95,1.66-7,1.31-.46,0-3.67-.43-3.93-2.06,0-.21-.09-.28-.2-.08a1.71,1.71,0,0,0,.41,2.48,5.35,5.35,0,0,1-2.45,2.7,5.66,5.66,0,0,1-3.94-.2c-.22-.07-.54.11-.21.34s3.59,2.31,5.71.12a9.36,9.36,0,0,0,1.49-2.64c2.17,1.18,5.78.53,5.78.53A16.34,16.34,0,0,0,95,13.5c.45-.18,3.52-1.57,5.59-1.08a3.44,3.44,0,0,0,.54.1l.46-1c.08-.19.18-.3-.4-.33M85.74,7.33a3.31,3.31,0,0,0,.54.45v.1l-.84.85h-.17a5,5,0,0,1-.52-.42,4.31,4.31,0,0,1-.39-.48l0-.16.85-.85h.09a3.89,3.89,0,0,0,.42.49" transform="translate(0 0)"/></g></g></g></g></g></g></g></g></g></g></svg>