<svg xmlns="http://www.w3.org/2000/svg" xmlns:xlink="http://www.w3.org/1999/xlink" width="114.16" height="21.6" viewBox="0 0 114.16 21.6"><defs><style>.cls-1{fill:none;}.cls-2{clip-path:url(#clip-path);}.cls-3{fill:#231f20;}</style><clipPath id="clip-path" transform="translate(0 0)"><rect class="cls-1" width="114.16" height="21.6"/></clipPath></defs><g id="Layer_2" data-name="Layer 2"><g id="svg2"><g id="g10"><g id="g82"><g id="g84"><g id="g122"><g id="g136"><g class="cls-2"><g id="g134"><g id="g132"><path id="path130" class="cls-3" d="M22.17,6.88l-.77.92V8a3.66,3.66,0,0,0,.44.44,4.8,4.8,0,0,0,.54.38l.17,0,.77-.92v-.1a3.32,3.32,0,0,1-.58-.4c-.17-.14-.31-.3-.46-.45ZM22.5,10l0,.05-.39-.28a5.21,5.21,0,0,1-.47-.47h-.1l-.8,1v.16a4,4,0,0,0,.46.46,3.12,3.12,0,0,0,.56.39l.18,0,.75-.9.3.28a3.6,3.6,0,0,0,.57.39l.17,0,.8-.95,0-.11a4.47,4.47,0,0,1-.59-.41A5.21,5.21,0,0,1,23.4,9h-.1ZM3.19,6.82h-.1l-.85.86,0,.16a4.22,4.22,0,0,0,.39.47,5.15,5.15,0,0,0,.52.43l.17,0,.85-.85v-.1a4.51,4.51,0,0,1-.54-.44,3.74,3.74,0,0,1-.41-.5M5.37,3.45c.23-.12.36-.16.47-.36A3.68,3.68,0,0,0,6,2.7c.06-.15.13-.32-.29-.11C5.48,2.72.87,4.7.58,4.82S.2,5,.15,5.2s-.09.31-.11.35-.12.27.3.08c.13-.06,4.8-2.06,5-2.18m27,14.28c-.27.14-4,1.75-4.26,1.87s-.38.18-.44.38-.09.31-.1.35-.13.26.29.08c.14-.06,3.9-1.69,4.13-1.81s.37-.16.48-.37.13-.24.19-.38.14-.32-.29-.12m1.6-12.38c0-.34-.09-.4.1-.57s.62-.52.4-.84a5.6,5.6,0,0,1-.75-1.21c-.1-.29-.19-.52-.33-.3s-.24.41-.47.72c-.13.15-.25.23-.11.47a4,4,0,0,1,.46,1.29c0,.21.07.67.14,1.11s1.12,8.08,1,8.24-.95.86-2.37.07l-.13-.09c1-.73.94-1.44.77-1.7-.3-.48-3-2-4.56.45-.17.25-.3.84.06.63a2.07,2.07,0,0,1,1.95.3l.19.13a4,4,0,0,1-4.38.1,5.19,5.19,0,0,0,.09-.52c0-.39-.24-.43-.35,0a6.8,6.8,0,0,1-.36,1.3c-.35.7-1.34.16-1.76,0a7,7,0,0,0,.29-1.23c.05-.27-.12-.5-.3.07s-.82,2.2-3.65,1.25c0-.33.24-1.07-.38-.76a19.49,19.49,0,0,1-3.23,1.2c-.62.15-.72.25-.62.52s.26,1,.58.88l.32-.1c-.27.73-1.24,3-3,3.7a5.67,5.67,0,0,1-4-.18c-.23-.07-.57.11-.22.35s4,2.23,6.25-.07a11.33,11.33,0,0,0,1.7-4v-.05l.7-.22c.2-.07,1-.42,1.46-.61,1.38,1,2.71,1.37,3.59.28,1.09,1,1.88.79,2.22.28a4.77,4.77,0,0,0,.43-1.05c1.74,1.7,4.72.06,5.39-.42a4,4,0,0,1,.5.62,1.85,1.85,0,0,0,2,.63c.41-.07,1.47-.56,1.4-2.41a66.57,66.57,0,0,0-.83-7.33c-.06-.39-.12-.9-.12-.9M7.25,11.52a11.19,11.19,0,0,0-1-2.24C6.09,9,6,8.87,5.9,9s-.26,1.26-.26,1.26A11.4,11.4,0,0,1,7,13.48C6.9,13.89,5.94,16,2.92,15.8c-.32,0-3.38-.46-1.86-4.07.05-.13-.08-.39-.28-.09S-1,16.25,2.21,17a5,5,0,0,0,4.71-1.72c.21-.25.82-1.51.33-3.79m4.82,1.3a3.78,3.78,0,0,0-.83-1c-.46-.39-.86.18-.94.42-.26.79,1.09.66,1.39.64l.38,0m-1.82,5.46a9.49,9.49,0,0,1-5,.25c-.54-.13-.31-.48.15-.41a6.22,6.22,0,0,0,7-3.82l.05-.24a5.7,5.7,0,0,1-2,.09c-1.25-.39-1-2.26,0-3.48s2,.74,2.18,1.15a4.89,4.89,0,0,1-.67,4.93,4.21,4.21,0,0,1-1.65,1.53M37.16,8.93a58.43,58.43,0,0,1,.67,6.39c0,.53.18.65.31.28a15.28,15.28,0,0,0,0-5.09c-.16-1.32-.77-5.42-.85-6.47,0-.58-.11-1.07-.31-.62a3.76,3.76,0,0,0-.22,1.94c.15,1.45.3,2.53.45,3.57m-20.1-2a1.83,1.83,0,0,0-.23-1.29c-.21-.23-.44-.24-.76.25a.28.28,0,0,0,.12.44c.21.13.87.6.87.6M14,10.35c-.34.17-.63,0,.15-.59a9.28,9.28,0,0,0,2.52-2.1,9.67,9.67,0,0,1-1.07-.81c-.33-.34.09-1.27.42-1.63.85-1,1.25-.33,1.35-.16a2.79,2.79,0,0,1,.05,2.08s.32.24.42.34.07.42-.1.93c-.06.17-.26-.31-.71-.52-.35.75-.75,1.38-3,2.46m9.49-5.67a.29.29,0,0,0,.16-.06A1.73,1.73,0,0,0,24,3.83c0-.13-.46-.17-.58-.2a8.23,8.23,0,0,0-1.29-.36,1.7,1.7,0,0,0-1.68,1c0,.1-.1.23-.13.32s0,.27.12.14a1.16,1.16,0,0,1,.36-.37,1.78,1.78,0,0,1,1.11-.26,3.68,3.68,0,0,1,1,.31c0,.08-1.52.83-1.76,1s-.22.18-.2.3.16.11.28.06c.6-.21.81-.2,1.29-.4a3.84,3.84,0,0,0,1-.66M45.25,6.53a3.71,3.71,0,0,1-.2.38c-.11.2-.24.24-.48.36S40.56,9,40.43,9c-.43.18-.36,0-.3-.09a3.46,3.46,0,0,1,.11-.34c.06-.2.15-.26.44-.38s4-1.66,4.29-1.79.35,0,.28.12m-1.5,7.36c-.29,0-1.64.15-1.38-.64.07-.24.48-.81.93-.42a3.93,3.93,0,0,1,.84,1Zm-1.29-2.2c-1,1.22-1.26,3.09,0,3.48a5.47,5.47,0,0,0,2-.09l0,.24a6.22,6.22,0,0,1-7,3.82c-.46-.07-.7.28-.15.41a9.49,9.49,0,0,0,5-.25A4.28,4.28,0,0,0,44,17.77a4.89,4.89,0,0,0,.67-4.93c-.16-.4-1.15-2.4-2.18-1.15m25.1,5.6c-.06.15-.09.18-.19.39s-.23.25-.46.37-4,1.7-4.14,1.77c-.42.2-.35.07-.3-.07s0-.15.09-.36.14-.25.43-.39,4-1.67,4.28-1.82.34,0,.29.11m15.7-3.69a5.73,5.73,0,0,1-.52.91,8.07,8.07,0,0,0-5.53,1.1,15.11,15.11,0,0,1-5,1.21c-3.09-.06-3-3.19-3.11-3.63S67.74,5.31,67.58,4.8l.29-1c0-.09.09-.29.2-.1.35.61,1.42,8.5,1.83,10,1,3.91,8.22.44,8.55.29-3.47-1.25-4.94-.55-5.14-.48s-.25,0-.2-.15a4.28,4.28,0,0,1,.69-1.16c.63-.4,3.21-.31,3.38-.57S76,5.48,76,5.25a3.94,3.94,0,0,0-.58-1.36c-.17-.25,0-.34.08-.53s.3-.51.47-.8.25,0,.37.31a8.31,8.31,0,0,0,.89,1.26c.28.33-.21.73-.41.93s-.13.26-.07.63c0,0,.81,3.45.91,4a4,4,0,0,1-.2,2.71,19.85,19.85,0,0,0,5.55.83c.38,0,.34.18.26.34m-19-.64c.5-.25.87-.18,1.08.21s.64,1.25.29,1.16-1.53-.37-1.85-.83a1.65,1.65,0,0,1,.48-.54m-1.11,1.83a7.76,7.76,0,0,0,2.42.93c.33,0,.38,0,.5-.25a3.21,3.21,0,0,0,.31-.9,8.94,8.94,0,0,0-.21-2.35,1,1,0,0,0-1.41-.59,10.59,10.59,0,0,0-1.73,2.16,2.11,2.11,0,0,1-2.79.8,6,6,0,0,0,.27-.9c.09-.46-.29-.37-.38,0s-.39,1.07-.54,1.43c-.34.8-1.36,0-1.64-.25a5.15,5.15,0,0,0,.36-1c.06-.26-.14-.58-.37-.05S56.86,15.85,54.55,15c-.22-.63-.49-1.2-.49-1.2-.11-.26-.22-.44-.3-.3s-.41,1.22-.41,1.22a11.14,11.14,0,0,1,1,3.34c-.16.4-1.37,2.34-4.43,1.83-.32,0-3.41-.84-1.45-4.26.07-.12,0-.39-.27-.12s-2.32,4.38.85,5.53a5.24,5.24,0,0,0,5-1.17,4.58,4.58,0,0,0,.79-3.29,3.22,3.22,0,0,0,2.45-.84,2.22,2.22,0,0,0,1.45,1.07c.27.05.39.05.55-.21s.27-.49.39-.72a2.29,2.29,0,0,0,2.32,0,4,4,0,0,0,1-1.21Zm22-3.43a13,13,0,0,1,0,4.66c-.13.34-.29.22-.31-.25a47.44,47.44,0,0,0-.66-5.86C84.14,9,84,8,83.84,6.65a3.24,3.24,0,0,1,.22-1.79c.2-.42.28,0,.31.57.08,1,.68,4.71.84,5.93M70.06,2.76s0-.15.09-.36.14-.26.42-.39,4-1.75,4.25-1.9.34,0,.29.1a3,3,0,0,1-.18.39c-.1.21-.23.25-.45.39s-4,1.76-4.12,1.83c-.41.21-.35.07-.3-.06M75,9.43v.1l-.85.85-.17,0a4.15,4.15,0,0,1-.51-.43,3.64,3.64,0,0,1-.4-.48l0-.15.84-.85H74a4.84,4.84,0,0,0,.42.5,3.75,3.75,0,0,0,.53.44m27.64-3a.27.27,0,0,1-.12-.43c.32-.49.55-.48.76-.25a1.83,1.83,0,0,1,.23,1.29l-.87-.61m.84,1.62c.46.21.65.69.71.52.17-.51.23-.79.1-.93s-.42-.35-.42-.35a2.76,2.76,0,0,0,0-2.07c-.1-.17-.5-.8-1.35.16-.33.36-.75,1.29-.42,1.63a9.67,9.67,0,0,0,1.07.81,9.55,9.55,0,0,1-2.51,2.1c-.79.56-.5.76-.15.59,2.28-1.08,2.67-1.71,3-2.46M56.9,7.1a.26.26,0,0,1-.1-.42c.3-.46.52-.45.72-.23a1.71,1.71,0,0,1,.21,1.22s-.63-.45-.83-.57m.8,1.53c.44.2.62.66.68.49.16-.48.22-.74.09-.88s-.4-.33-.4-.33a2.57,2.57,0,0,0,0-2c-.09-.17-.48-.76-1.28.14-.32.35-.72,1.23-.4,1.55a8.28,8.28,0,0,0,1,.77,8.94,8.94,0,0,1-2.39,2c-.74.53-.47.72-.14.56C57,10,57.37,9.34,57.7,8.63M90.36,6.45c-.22-.13-.22-.28-.12-.43.32-.49.55-.48.76-.25a1.83,1.83,0,0,1,.23,1.29s-.66-.48-.87-.61m.84,1.62c.45.21.65.69.71.52.17-.51.23-.79.1-.93s-.42-.35-.42-.35a2.81,2.81,0,0,0,0-2.07c-.1-.17-.5-.8-1.35.15-.33.37-.75,1.3-.42,1.64a9.13,9.13,0,0,0,1.07.8,9.28,9.28,0,0,1-2.52,2.11c-.78.56-.49.75-.15.59,2.28-1.08,2.67-1.71,3-2.46M97.29,6.3s.1,0,.16-.07a1.69,1.69,0,0,0,.36-.79c0-.12-.45-.16-.58-.19A7.41,7.41,0,0,0,96,4.89a1.68,1.68,0,0,0-1.69,1l-.13.31c0,.16,0,.27.12.15A1.06,1.06,0,0,1,94.61,6a1.73,1.73,0,0,1,1.11-.26,3.07,3.07,0,0,1,1,.31c0,.07-1.52.82-1.75,1s-.23.18-.21.3.16.11.29.07c.59-.22.81-.2,1.29-.41a4.1,4.1,0,0,0,1-.65m-7.88,9.08c-.09.19-.21.52-.28.72s0,.15.12.1a10.62,10.62,0,0,1,2-.93A6.73,6.73,0,0,1,93,14.84,4.7,4.7,0,0,0,93.5,14c.09-.13,0-.18-.08-.16a5.45,5.45,0,0,1-1.75.15c-.87-.07-1.55-.74-1.53-1s.64-.6.87-.56c.67.1.66.69.84.7s.65-.77.68-1a1.1,1.1,0,0,0-.87-.8c-.72,0-1.93,1.18-2.41,1.92a.75.75,0,0,0,.09.92,10.65,10.65,0,0,0,1,.64,4.53,4.53,0,0,0-.93.55M114,11.65c-.12-1.13-.6-4.63-.65-5.53,0-.49-.08-.91-.29-.53a2.69,2.69,0,0,0-.27,1.64c.09,1.24.21,2.16.32,3a41.65,41.65,0,0,1,.47,5.45c0,.45.16.56.3.24a11.3,11.3,0,0,0,.12-4.32m-5.74,5.86a5,5,0,0,1-.42-.5h-.09l-.85.85,0,.16a4.22,4.22,0,0,0,.39.47,5.15,5.15,0,0,0,.52.43H108l.86-.86V18a3.25,3.25,0,0,1-.54-.44m4-4.13a12.75,12.75,0,0,1-4.83-1c.15-.13.49-.57.37-1.67s-.56-4.24-.56-4.24c0-.32-.17-.64,0-.8s.58-.46.35-.77a7.1,7.1,0,0,1-.73-1.23c-.09-.28-.17-.52-.32-.3a7.37,7.37,0,0,1-.45.88c-.11.15-.24.23-.1.46a4,4,0,0,1,.4,1.3c0,.21.07.66.13,1.09a45.84,45.84,0,0,1,.71,4.61s-3.18.11-3.59.52l-.64,1c-.05.11-.05.23.1.21a7.64,7.64,0,0,1,4.85.45c-.32.11-3.94,1.66-7,1.31-.46,0-3.68-.43-3.94-2.06,0-.21-.09-.28-.2-.07a1.7,1.7,0,0,0,.41,2.47,5.29,5.29,0,0,1-2.44,2.7,5.69,5.69,0,0,1-4-.2c-.22-.07-.54.11-.21.34s3.59,2.31,5.71.12a9.36,9.36,0,0,0,1.49-2.64c2.17,1.18,5.78.53,5.78.53a16.34,16.34,0,0,0,2.45-.73c.45-.18,3.52-1.57,5.6-1.08a3,3,0,0,0,.53.11l.46-1c.08-.2.18-.31-.4-.34M96.85,9.51a3.79,3.79,0,0,0,.54.45v.1l-.85.85h-.17a4,4,0,0,1-.52-.42,4.54,4.54,0,0,1-.39-.48l0-.15L96.34,9h.09a4.93,4.93,0,0,0,.42.49" transform="translate(0 0)"/></g></g></g></g></g></g></g></g></g></g></svg>