<svg xmlns="http://www.w3.org/2000/svg" xmlns:xlink="http://www.w3.org/1999/xlink" width="113.27" height="19.25" viewBox="0 0 113.27 19.25"><defs><style>.cls-1{fill:none;}.cls-2{clip-path:url(#clip-path);}.cls-3{fill:#231f20;}</style><clipPath id="clip-path" transform="translate(0 0)"><rect class="cls-1" width="113.27" height="19.25"/></clipPath></defs><g id="Layer_2" data-name="Layer 2"><g id="svg2"><g id="g10"><g id="g106"><g id="g108"><g id="g146"><g id="g160"><g class="cls-2"><g id="g158"><g id="g156"><path id="path154" class="cls-3" d="M22.17,4.54l-.77.92v.16a4.57,4.57,0,0,0,.44.44,3.7,3.7,0,0,0,.54.37l.17,0,.77-.92V5.38A2.81,2.81,0,0,1,22.72,5c-.17-.14-.31-.3-.46-.45Zm.33,3.07,0,0-.39-.28a5.21,5.21,0,0,1-.47-.47h-.1l-.8,1V8a3.26,3.26,0,0,0,.46.45,3,3,0,0,0,.56.4l.18,0,.75-.9.3.27a3.09,3.09,0,0,0,.57.4l.17,0,.8-1,0-.1a4.47,4.47,0,0,1-.59-.41,5.21,5.21,0,0,1-.47-.47h-.1ZM3.19,4.48h-.1l-.85.86,0,.15a2.55,2.55,0,0,0,.4.47,2.91,2.91,0,0,0,.51.43H3.3l.85-.85v-.1A4.51,4.51,0,0,1,3.6,5a3.74,3.74,0,0,1-.41-.5M5.37,1.11C5.6,1,5.73,1,5.84.74A3.71,3.71,0,0,0,6,.36C6.1.21,6.17,0,5.75.24,5.48.38.87,2.35.58,2.48s-.38.18-.43.38-.09.3-.11.35-.12.27.3.07c.13-.06,4.8-2,5-2.17m27,14.28c-.27.14-4,1.74-4.26,1.87s-.38.18-.44.38-.09.31-.1.35-.13.26.29.07c.14,0,3.9-1.68,4.13-1.8s.37-.17.48-.37.13-.24.19-.38.14-.33-.29-.12M33.94,3c0-.34-.09-.4.1-.57s.62-.52.4-.84A5.6,5.6,0,0,1,33.69.39c-.1-.29-.19-.53-.33-.3s-.24.41-.47.71-.25.24-.11.48a4,4,0,0,1,.46,1.28c0,.22.07.68.14,1.12s1.12,8.08,1,8.24-.95.86-2.37.06l-.13-.08c1-.73.94-1.44.77-1.71-.29-.47-3-2-4.56.46-.17.25-.3.84.06.63a2.07,2.07,0,0,1,1.95.3l.19.13a4,4,0,0,1-4.38.1,5.19,5.19,0,0,0,.09-.52c0-.4-.24-.43-.35,0a6.8,6.8,0,0,1-.36,1.3c-.35.69-1.34.16-1.76,0a7,7,0,0,0,.29-1.23c.05-.27-.12-.5-.3.07s-.82,2.19-3.65,1.25c0-.34.24-1.08-.38-.76a20.43,20.43,0,0,1-3.23,1.2c-.62.15-.72.25-.62.52s.26,1,.58.88l.32-.1c-.27.73-1.24,3-3,3.7a5.67,5.67,0,0,1-4-.18c-.23-.07-.57.11-.22.35s4,2.22,6.25-.07a11.33,11.33,0,0,0,1.7-4v0l.7-.22,1.46-.61c1.38,1,2.71,1.37,3.59.28,1.09,1,1.88.79,2.22.27a4.57,4.57,0,0,0,.43-1c1.74,1.71,4.72.07,5.39-.41a4.25,4.25,0,0,1,.51.62,1.84,1.84,0,0,0,2,.63c.41-.07,1.47-.56,1.4-2.41a66.57,66.57,0,0,0-.83-7.33c-.06-.39-.12-.9-.12-.9M7.25,9.18a11.19,11.19,0,0,0-1-2.24c-.13-.25-.26-.41-.32-.26s-.26,1.26-.26,1.26A11.28,11.28,0,0,1,7,11.14c-.11.41-1.07,2.48-4.09,2.32-.32,0-3.38-.46-1.86-4.07C1.12,9.26,1,9,.78,9.3S-1,13.91,2.21,14.69A5,5,0,0,0,6.92,13c.21-.24.82-1.5.33-3.78m4.82,1.3a3.78,3.78,0,0,0-.83-1c-.46-.39-.86.18-.94.42-.26.79,1.09.66,1.39.63l.38,0m-1.82,5.46a9.45,9.45,0,0,1-5,.24c-.54-.12-.31-.48.15-.4a6.21,6.21,0,0,0,7-3.83l.05-.23a5.7,5.7,0,0,1-2,.09c-1.25-.39-1-2.26,0-3.49s2,.75,2.18,1.16a4.89,4.89,0,0,1-.67,4.93,4.21,4.21,0,0,1-1.65,1.53M37.16,6.59A58.43,58.43,0,0,1,37.83,13c0,.52.19.65.31.28a15.28,15.28,0,0,0,0-5.09c-.16-1.33-.77-5.42-.85-6.48,0-.57-.11-1.07-.31-.61A3.76,3.76,0,0,0,36.71,3c.15,1.45.3,2.53.45,3.57m-20.1-2a1.82,1.82,0,0,0-.23-1.29c-.21-.23-.44-.24-.76.25a.27.27,0,0,0,.12.43c.21.13.87.61.87.61M14,8c-.34.16-.63,0,.15-.59a9.47,9.47,0,0,0,2.52-2.1,9.67,9.67,0,0,1-1.07-.81c-.33-.34.09-1.27.42-1.63.85-1,1.25-.33,1.35-.16a2.76,2.76,0,0,1,.05,2.07s.32.25.42.35.07.42-.1.92c-.06.18-.26-.3-.71-.51-.35.75-.75,1.38-3,2.46m9.49-5.67a.29.29,0,0,0,.16-.06,1.77,1.77,0,0,0,.36-.8c0-.12-.46-.16-.58-.19A8.23,8.23,0,0,0,22.14.93a1.7,1.7,0,0,0-1.68,1c0,.1-.1.22-.13.32s0,.26.12.14A1.16,1.16,0,0,1,20.81,2a1.78,1.78,0,0,1,1.11-.26,3.35,3.35,0,0,1,1,.31c0,.08-1.52.83-1.76,1s-.22.19-.2.31.16.11.28.06c.6-.21.81-.2,1.29-.4a4.16,4.16,0,0,0,1-.66M45.25,4.19a3.71,3.71,0,0,1-.2.38c-.11.2-.24.24-.48.36s-4,1.68-4.14,1.73c-.43.19-.36,0-.3-.08a3.46,3.46,0,0,1,.11-.34c.06-.21.15-.26.44-.38s4-1.66,4.29-1.79.35,0,.28.12m-1.5,7.36c-.29,0-1.63.15-1.38-.64.07-.24.48-.81.93-.42a3.93,3.93,0,0,1,.84,1Zm-1.29-2.2c-1,1.22-1.26,3.09,0,3.48a5.7,5.7,0,0,0,2-.09l0,.24a6.22,6.22,0,0,1-7,3.82c-.46-.08-.7.28-.15.4a9.34,9.34,0,0,0,5-.24A4.28,4.28,0,0,0,44,15.43a4.89,4.89,0,0,0,.67-4.93c-.16-.4-1.15-2.4-2.18-1.15m12-6.47a.26.26,0,0,1-.1-.41c.3-.47.52-.46.72-.24a1.66,1.66,0,0,1,.21,1.22s-.62-.45-.83-.57m.81,1.53c.43.21.61.66.67.49.17-.47.22-.74.1-.87a4.15,4.15,0,0,0-.41-.33,2.6,2.6,0,0,0,0-2c-.09-.16-.47-.76-1.28.15-.31.34-.72,1.22-.4,1.54a8.11,8.11,0,0,0,1,.77,8.9,8.9,0,0,1-2.39,2c-.75.54-.47.72-.15.57,2.17-1,2.54-1.63,2.88-2.35m4.23,2.78a5,5,0,0,1-.05,3.24c-.37.6-.51.81-1,.75a3.49,3.49,0,0,1-1.5-.52,3.3,3.3,0,0,1-2.18,1.13c.43,2.21-.17,3.43-.39,3.67a5.36,5.36,0,0,1-5,1.77c-3.36-.81-1.76-5.13-1.5-5.53s.35,0,.3.09c-1.61,3.7,1.62,4.16,2,4.18,3.18.16,4.19-2,4.3-2.37S53.33,10.76,53,10.32c0,0,.21-1.15.28-1.3s.19,0,.34.27c0,0,.27.45.54,1,2.42.43,3-1.24,3.15-1.82s.4-.28.38,0a4,4,0,0,1-.18,1c.5.17,1.68.32,1.65.18A7.76,7.76,0,0,1,59,8c.08-.31.18-.76.25-1s.11-.26.26.15M81.28,10.8a5.43,5.43,0,0,1-.18,3.12c-.2.46-1.25.18-1.68,0a6,6,0,0,1-1.19-.57,7.71,7.71,0,0,1-.52,1.25c-.18.29-.27.33-.56.28s-1.52-.46-1.59-.86v0c-.75.66-2.09,1.15-4.46.8a4.81,4.81,0,0,1-1.37.3,2.23,2.23,0,0,1-2.54-2.17c-.12-.54-.44-2.89-.56-3.7s-.84-5.87-1-6.5L66,1.69c0-.09.07-.25.21.05s1.41,9.24,1.48,9.91A2.2,2.2,0,0,0,70,13.85,3.07,3.07,0,0,0,73,12c.12-.28.31-.21.27.07a3.28,3.28,0,0,1-.75,1.8c.78.07,3.15,0,3.85-1.89,0-.17.34-.29.24.14a3.91,3.91,0,0,1-.38,1.12c.39.17,1.45.63,1.59.19s.52-1.51.59-1.68.36-.26.31,0c0,.12-.1.44-.22.84a7.52,7.52,0,0,0,2.09.19c.36-.09.29-.45.23-.78s-1.16-6.7-1.27-7.23-.09-.8-.12-1a2.76,2.76,0,0,0-.32-.71.8.8,0,0,1,0-.73,3.77,3.77,0,0,0,.52-.76c.09-.2.2,0,.25.23a5,5,0,0,0,.59,1,.67.67,0,0,1,.15.51A5.16,5.16,0,0,1,80.2,4a.58.58,0,0,0,0,.41s1,5.57,1.13,6.39m-11.63-6s0-.15.11-.35.14-.25.43-.38,6.68-3,7-3.13c.42-.21.35,0,.29.11a2.69,2.69,0,0,1-.19.39c-.1.2-.24.25-.47.37s-6.68,3-6.81,3.07c-.43.19-.36.06-.31-.08m-3.75,11a3.26,3.26,0,0,1-.23.36c-.13.19-.27.21-.51.31s-3.8,1.26-3.94,1.31c-.44.14-.36,0-.29-.12a3.3,3.3,0,0,0,.14-.33c.08-.19.18-.24.48-.33s3.79-1.24,4.08-1.35c.44-.16.35,0,.27.15M84.21,9a11.28,11.28,0,0,1,0,4.32c-.13.32-.3.21-.31-.23a41.18,41.18,0,0,0-.65-5.43c-.15-.89-.3-1.81-.44-3a2.69,2.69,0,0,1,.23-1.65c.19-.39.27,0,.3.52.08.9.68,4.38.84,5.51M61,14.61c-.33-.07-.33-.95-.32-1.21s.21-.14.41-.08a14.75,14.75,0,0,0,3.39-.58c.23-.05.2-.27.15-.44a4.37,4.37,0,0,0-2.48-2.59l.05-1.1.18-.15a4,4,0,0,1,2.34,2.23,4.86,4.86,0,0,1,.23,3,.51.51,0,0,1-.4.34,11.54,11.54,0,0,1-3.55.61m14.88-8a1.44,1.44,0,0,1,.13.54c-.3.3-.63.35-.87.15A.78.78,0,0,1,75,6.6c0-.22,0-.3-.16-.15s-.19.19-.2.31c-.09.72-.4,1-1,1.09-.36,0-.62-.22-.37-.92,0-.15,0-.31-.21,0-.52,1.05-.2,1.63.33,1.71a1.17,1.17,0,0,0,1.23-.84.86.86,0,0,0,1,.33c.48-.12.59-.34.72-.73a2.26,2.26,0,0,0,0-1.45c0-.1-.08,0-.11,0l-.25.48a.16.16,0,0,0,0,.15M101.7,4.13a.27.27,0,0,1-.11-.43c.32-.49.55-.48.76-.25a1.75,1.75,0,0,1,.22,1.29s-.65-.48-.87-.61m.85,1.62c.45.21.65.69.71.51.17-.5.23-.78.1-.92s-.43-.35-.43-.35a2.75,2.75,0,0,0,0-2.07c-.1-.17-.5-.8-1.35.15-.33.37-.76,1.3-.42,1.64a9.13,9.13,0,0,0,1.07.8,9.44,9.44,0,0,1-2.52,2.11c-.79.56-.49.75-.15.59,2.28-1.08,2.67-1.71,3-2.46M89.47,4.11a.27.27,0,0,1-.11-.43c.32-.49.55-.48.76-.25a1.75,1.75,0,0,1,.22,1.29s-.66-.48-.87-.61m.85,1.62c.45.21.64.69.7.51.18-.5.23-.78.11-.92S90.7,5,90.7,5a2.75,2.75,0,0,0,0-2.07c-.1-.17-.51-.8-1.35.15-.33.37-.76,1.3-.42,1.63A7.79,7.79,0,0,0,90,5.49,9.44,9.44,0,0,1,87.44,7.6c-.79.56-.49.75-.15.59,2.28-1.08,2.67-1.71,3-2.46M96.41,4a.23.23,0,0,0,.16-.06,1.8,1.8,0,0,0,.36-.79c0-.12-.46-.17-.58-.2a7.24,7.24,0,0,0-1.29-.35,1.66,1.66,0,0,0-1.68,1l-.14.31c0,.16,0,.27.13.15a1.09,1.09,0,0,1,.36-.38,1.85,1.85,0,0,1,1.11-.26,3.27,3.27,0,0,1,1,.32c0,.07-1.52.82-1.76,1s-.23.18-.2.3.16.11.28.07c.6-.22.81-.2,1.29-.41a3.84,3.84,0,0,0,1-.66M88.53,13c-.09.2-.21.53-.28.72s0,.16.11.11a10.94,10.94,0,0,1,2-.93,6.4,6.4,0,0,1,1.75-.43,6.8,6.8,0,0,0,.55-.84c.08-.14,0-.18-.09-.16a5.39,5.39,0,0,1-1.74.15c-.87-.08-1.55-.74-1.53-1s.64-.6.87-.56c.67.1.65.69.83.69s.66-.76.68-1S91.21,9,90.78,9c-.72,0-1.94,1.17-2.42,1.92a.74.74,0,0,0,.1.91,8.08,8.08,0,0,0,1,.64,4.73,4.73,0,0,0-.93.55m24.61-3.72c-.11-1.13-.59-4.63-.64-5.53,0-.49-.08-.92-.29-.54a2.72,2.72,0,0,0-.28,1.65c.1,1.23.21,2.16.33,3.05a41.65,41.65,0,0,1,.47,5.45c0,.45.16.56.29.24a10.88,10.88,0,0,0,.12-4.32m-5.73,5.86a4.84,4.84,0,0,1-.42-.5h-.09l-.85.85,0,.16a4.33,4.33,0,0,0,.4.47,4.15,4.15,0,0,0,.51.43l.17,0,.85-.85v-.1a3.18,3.18,0,0,1-.53-.44m4-4.13a12.75,12.75,0,0,1-4.83-1c.16-.13.5-.57.38-1.67s-.56-4.24-.56-4.24c0-.33-.17-.64,0-.81s.59-.45.36-.76A6,6,0,0,1,106,1.37c-.09-.29-.18-.52-.32-.3s-.23.58-.45.88-.24.23-.11.46a3.53,3.53,0,0,1,.4,1.3c0,.21.08.66.14,1.09a43.44,43.44,0,0,1,.7,4.61s-3.17.11-3.59.51l-.63,1c-.06.11,0,.23.1.21a7.63,7.63,0,0,1,4.85.45c-.33.11-4,1.66-7,1.31-.46,0-3.67-.43-3.94-2.06,0-.21-.09-.28-.2-.08a1.72,1.72,0,0,0,.42,2.48,5.35,5.35,0,0,1-2.45,2.7,5.66,5.66,0,0,1-3.94-.2c-.22-.07-.54.11-.21.34s3.59,2.31,5.71.12A9.36,9.36,0,0,0,97,13.54c2.17,1.18,5.77.53,5.77.53a16.11,16.11,0,0,0,2.46-.73c.45-.18,3.51-1.57,5.59-1.08a3.44,3.44,0,0,0,.54.1s.37-.79.45-1,.18-.3-.4-.33M96,7.17a3.24,3.24,0,0,0,.53.45v.1l-.85.85H95.5A4.15,4.15,0,0,1,95,8.16a4.42,4.42,0,0,1-.4-.48l0-.16.85-.85h.09a3.89,3.89,0,0,0,.42.49" transform="translate(0 0)"/></g></g></g></g></g></g></g></g></g></g></svg>