<svg xmlns="http://www.w3.org/2000/svg" xmlns:xlink="http://www.w3.org/1999/xlink" width="107.88" height="20.43" viewBox="0 0 107.88 20.43"><defs><style>.cls-1{fill:none;}.cls-2{clip-path:url(#clip-path);}.cls-3{fill:#231f20;}</style><clipPath id="clip-path" transform="translate(0 0)"><rect class="cls-1" width="107.88" height="20.43"/></clipPath></defs><g id="Layer_2" data-name="Layer 2"><g id="svg2"><g id="g10"><g id="g54"><g id="g56"><g id="g94"><g id="g108"><g class="cls-2"><g id="g106"><g id="g104"><path id="path102" class="cls-3" d="M22.17,5.71l-.77.93v.15a3,3,0,0,0,.43.44,3.87,3.87,0,0,0,.55.38l.17,0,.77-.92,0-.1a3.6,3.6,0,0,1-.57-.39,4,4,0,0,1-.46-.46Zm.33,3.07,0,.05-.39-.28a4.17,4.17,0,0,1-.47-.47h-.1l-.8,1v.17a3.92,3.92,0,0,0,.46.45,3.12,3.12,0,0,0,.56.39l.18,0,.75-.9.3.28a4,4,0,0,0,.56.39l.18,0,.8-1,0-.11a4.38,4.38,0,0,1-.59-.4,5.32,5.32,0,0,1-.47-.48h-.1ZM3.18,5.65H3.09l-.85.85,0,.16a4.22,4.22,0,0,0,.39.47,5.15,5.15,0,0,0,.52.43h.16l.85-.85V6.59a3.25,3.25,0,0,1-.54-.44,4,4,0,0,1-.42-.5M5.37,2.29c.23-.13.36-.17.47-.37A3.31,3.31,0,0,0,6,1.54c.07-.16.14-.33-.28-.12S.86,3.53.58,3.65.2,3.84.14,4s-.09.31-.1.35-.12.27.3.08c.12-.06,4.8-2,5-2.17m27,14.28c-.27.13-4,1.74-4.26,1.87s-.38.18-.44.38a3.35,3.35,0,0,1-.11.34c-.05.13-.12.27.3.08.14-.06,3.9-1.68,4.13-1.81s.37-.16.47-.36a3.68,3.68,0,0,0,.2-.39c.06-.14.14-.32-.29-.11M33.93,4.18c0-.33-.08-.39.11-.56s.62-.52.39-.84a6.51,6.51,0,0,1-.75-1.21c-.09-.29-.18-.53-.32-.31a6.9,6.9,0,0,1-.48.72c-.12.16-.24.23-.1.48a3.83,3.83,0,0,1,.46,1.28c0,.21.07.68.14,1.11.08.58,1.12,8.08,1,8.24s-.95.86-2.37.07l-.13-.09c1-.73.94-1.44.77-1.7-.3-.48-3-2-4.56.46-.17.25-.3.84.06.62a2.08,2.08,0,0,1,1.94.3l.2.13a4,4,0,0,1-4.38.1,5.12,5.12,0,0,0,.09-.51c0-.4-.24-.44-.35,0a7.73,7.73,0,0,1-.36,1.31c-.35.69-1.35.15-1.76,0a7,7,0,0,0,.29-1.23c.05-.27-.12-.49-.3.07s-.82,2.2-3.65,1.25c0-.33.24-1.07-.38-.75a20.22,20.22,0,0,1-3.24,1.19c-.61.16-.71.25-.61.52s.25,1,.58.89l.32-.11c-.27.73-1.24,3-3,3.71a5.64,5.64,0,0,1-4-.19c-.23-.07-.57.12-.22.35s4,2.23,6.25-.06a11.69,11.69,0,0,0,1.7-4v0l.7-.23c.2-.07,1-.41,1.46-.61,1.37,1,2.71,1.37,3.59.28,1.09,1,1.88.8,2.22.28a4.77,4.77,0,0,0,.43-1c1.74,1.71,4.72.06,5.39-.41a3.62,3.62,0,0,1,.5.61,1.85,1.85,0,0,0,2,.64c.41-.07,1.47-.56,1.4-2.42a66.57,66.57,0,0,0-.83-7.33c-.06-.39-.13-.9-.13-.9M7.24,10.36a10.67,10.67,0,0,0-1-2.25C6.08,7.87,6,7.7,5.9,7.85s-.26,1.26-.26,1.26A11.07,11.07,0,0,1,7,12.31c-.1.42-1.06,2.48-4.08,2.32-.32,0-3.38-.46-1.86-4.07.05-.12-.08-.38-.28-.09S-1,15.08,2.21,15.87a5,5,0,0,0,4.71-1.73c.21-.25.81-1.51.32-3.78m4.83,1.29a3.93,3.93,0,0,0-.84-1c-.45-.38-.85.18-.93.42-.26.8,1.09.66,1.38.64l.39,0m-1.82,5.47a9.45,9.45,0,0,1-5,.24c-.54-.13-.31-.48.15-.41a6.22,6.22,0,0,0,7-3.82l0-.23a5.36,5.36,0,0,1-2,.08c-1.25-.39-1-2.26,0-3.48s2,.75,2.19,1.15a4.89,4.89,0,0,1-.67,4.93,4.38,4.38,0,0,1-1.65,1.54M37.16,7.77a58.15,58.15,0,0,1,.67,6.39c0,.52.18.65.31.27a15.51,15.51,0,0,0,0-5.08c-.16-1.33-.77-5.43-.85-6.48,0-.58-.12-1.07-.31-.62a3.8,3.8,0,0,0-.22,2c.15,1.44.3,2.53.45,3.57M17.06,5.71a1.83,1.83,0,0,0-.23-1.29c-.21-.22-.44-.24-.76.25a.28.28,0,0,0,.11.44c.22.13.88.6.88.6M14,9.19c-.34.16-.63,0,.15-.6a9.1,9.1,0,0,0,2.52-2.1,8.48,8.48,0,0,1-1.07-.81c-.33-.34.09-1.27.42-1.63.85-.95,1.25-.32,1.35-.15A2.82,2.82,0,0,1,17.42,6l.42.34c.13.14.07.43-.1.93-.06.18-.26-.3-.71-.52-.36.75-.75,1.39-3,2.47m9.49-5.67s.1,0,.16-.07A1.8,1.8,0,0,0,24,2.66c0-.12-.46-.17-.58-.2a7.24,7.24,0,0,0-1.29-.35,1.66,1.66,0,0,0-1.68,1l-.14.31c0,.16,0,.27.13.15a1.09,1.09,0,0,1,.36-.38,1.85,1.85,0,0,1,1.11-.26,3.27,3.27,0,0,1,1,.32c0,.07-1.52.82-1.76,1s-.23.18-.2.3.16.11.28.07c.6-.22.81-.2,1.29-.41a4.3,4.3,0,0,0,1-.65M44.88,5.36c-.07.15-.09.18-.2.38s-.25.24-.48.36-4,1.68-4.15,1.74c-.43.18-.36,0-.3-.09s0-.14.11-.34S40,7.16,40.3,7s4-1.67,4.29-1.8.35,0,.29.12m-1.5,7.36c-.29,0-1.64.15-1.39-.64.07-.24.48-.8.93-.41a3.52,3.52,0,0,1,.84,1Zm-1.3-2.2c-1,1.22-1.26,3.1,0,3.48a5.46,5.46,0,0,0,2-.08l0,.23a6.21,6.21,0,0,1-7,3.82c-.46-.07-.7.28-.15.41a9.45,9.45,0,0,0,5-.24,4.35,4.35,0,0,0,1.65-1.53,4.9,4.9,0,0,0,.67-4.94c-.16-.4-1.15-2.39-2.18-1.15m7.14-9a.26.26,0,0,1-.11-.41c.3-.47.52-.45.72-.24A1.68,1.68,0,0,1,50,2.07s-.62-.45-.82-.58M50,3c.43.2.61.66.67.49.17-.48.22-.75.1-.88s-.41-.33-.41-.33a2.6,2.6,0,0,0,0-2c-.09-.16-.48-.76-1.28.15-.31.35-.72,1.23-.4,1.55a8.11,8.11,0,0,0,1,.77,9.09,9.09,0,0,1-2.39,2c-.75.54-.47.72-.15.57C49.31,4.34,49.68,3.74,50,3M60.46,14.18c-.06.14-.09.17-.19.38s-.24.24-.47.37S56.16,16.6,56,16.66c-.42.2-.35.06-.3-.07s0-.15.1-.35.14-.26.43-.39,3.64-1.65,3.91-1.79.35,0,.29.12m15.59-2.69a5.58,5.58,0,0,1-.17,3.13c-.21.46-1.26.18-1.68,0a6.34,6.34,0,0,1-1.2-.58,8.41,8.41,0,0,1-.52,1.26c-.18.29-.27.32-.56.28s-1.53-.47-1.6-.86v0c-.75.66-2.09,1.14-4.46.8a4.33,4.33,0,0,1-1.37.29A2.22,2.22,0,0,1,62,13.63c-.12-.53-.44-2.89-.56-3.7s-.84-5.87-1-6.5l.3-1.05c0-.08.07-.25.2.06s1.42,9.24,1.49,9.91a2.21,2.21,0,0,0,2.37,2.2,3.1,3.1,0,0,0,2.94-1.87c.12-.28.31-.21.27.07a3.24,3.24,0,0,1-.75,1.79c.78.08,3.15,0,3.85-1.89,0-.17.33-.29.24.15A3.91,3.91,0,0,1,71,13.92c.39.17,1.45.62,1.59.18s.52-1.51.58-1.68.37-.25.32,0c0,.11-.1.44-.22.84a7.92,7.92,0,0,0,2.09.19c.36-.09.28-.45.23-.78S74.4,6,74.29,5.48s-.09-.8-.12-1a2.53,2.53,0,0,0-.33-.71.82.82,0,0,1,0-.73,3.64,3.64,0,0,0,.52-.77c.09-.19.2,0,.25.24a5.83,5.83,0,0,0,.59,1,.66.66,0,0,1,.15.5,4.53,4.53,0,0,1-.42.66.6.6,0,0,0,0,.41s1,5.58,1.13,6.39m3.09-1.27a14.9,14.9,0,0,1,0,5c-.12.37-.3.25-.31-.26a54.58,54.58,0,0,0-.67-6.3c-.14-1-.29-2.09-.44-3.51A3.57,3.57,0,0,1,78,3.24c.19-.45.27,0,.31.61.07,1,.69,5.06.85,6.37M58,12.34a3.75,3.75,0,0,0,.53.44v.1l-.85.85h-.17a3.91,3.91,0,0,1-.51-.42,3.64,3.64,0,0,1-.4-.48l0-.15.85-.85h.09a4.84,4.84,0,0,0,.42.5m.18,6.31c-.38.17-3.25,1-4.13,1.17-3.69.74-6.16-.81-6.39-4.2a8.87,8.87,0,0,1,2-6.06,4,4,0,0,1,.56-.63.93.93,0,0,0-1.4-.08c-.14.16-.25.06-.19-.2a2.14,2.14,0,0,1,2-1.88,2.81,2.81,0,0,1,2,.45c.49.36.17,1-.06,1.48a1.52,1.52,0,0,1-.62.47,5,5,0,0,0,.6.31c2.67.89,5.85-.58,6-.69s-.59-1.18-1-1.68c0,0,.18-1,.23-1.23s.12-.2.26,0a3.5,3.5,0,0,1,1,2.94c-.12.94-.34,1.06-.57,1.18A9.58,9.58,0,0,1,54.25,11c-2.2-.09-2.76-.58-3.31-1.2a5.65,5.65,0,0,0-2.6,3.72c-.48,2.58.29,4.22,2.32,4.82s6.61-.1,7.37-.17.5.31.12.48M64.31,5.26s0-.15.11-.35.14-.26.43-.38S71.14,2,71.42,1.81s.35,0,.28.12a3.31,3.31,0,0,1-.19.38c-.1.21-.24.25-.47.37s-6.29,2.59-6.42,2.65c-.43.2-.36.06-.31-.07M70.2,7.13a1.66,1.66,0,0,1,.14.54c-.31.29-.64.34-.87.15a.82.82,0,0,1-.2-.67c0-.23,0-.31-.15-.15s-.19.19-.2.3c-.09.73-.4,1-1,1.09-.35,0-.61-.22-.36-.92,0-.15-.06-.3-.21,0-.53,1-.21,1.64.33,1.72a1.2,1.2,0,0,0,1.23-.85.85.85,0,0,0,1,.34c.48-.13.58-.35.72-.73a2.31,2.31,0,0,0,0-1.46c0-.1-.08,0-.1,0L70.24,7a.14.14,0,0,0,0,.15M96.31,5.31a.28.28,0,0,1-.11-.44c.32-.49.55-.47.76-.25a1.76,1.76,0,0,1,.22,1.29s-.66-.47-.87-.6m.85,1.61c.45.21.64.7.7.52.18-.5.23-.79.1-.93a4.46,4.46,0,0,0-.42-.34,2.75,2.75,0,0,0,0-2.07c-.1-.17-.51-.8-1.35.15-.33.36-.76,1.29-.42,1.63a7.79,7.79,0,0,0,1.07.81,9.44,9.44,0,0,1-2.52,2.1c-.79.57-.49.76-.15.6,2.28-1.08,2.67-1.72,3-2.47M84.08,5.29c-.21-.14-.21-.29-.11-.44.31-.49.54-.47.75-.25A1.77,1.77,0,0,1,85,5.89s-.66-.47-.87-.6m.84,1.61c.46.21.65.7.71.52.17-.51.23-.79.1-.93a4.46,4.46,0,0,0-.42-.34,2.76,2.76,0,0,0,0-2.07c-.1-.18-.51-.8-1.35.15-.33.36-.76,1.29-.42,1.63a9,9,0,0,0,1.06.81,9.36,9.36,0,0,1-2.51,2.1c-.79.57-.49.76-.15.59,2.28-1.07,2.67-1.71,3-2.46M91,5.13a.32.32,0,0,0,.16-.06,1.88,1.88,0,0,0,.36-.8c0-.12-.46-.16-.58-.19a8.23,8.23,0,0,0-1.29-.36,1.69,1.69,0,0,0-1.68,1L87.85,5c0,.16,0,.26.12.14a1.3,1.3,0,0,1,.37-.37,1.7,1.7,0,0,1,1.11-.26,3.25,3.25,0,0,1,1,.31c0,.08-1.51.83-1.75,1s-.23.19-.21.31.17.11.29.06c.59-.21.81-.2,1.29-.4a4.16,4.16,0,0,0,1-.66m-7.88,9.08c-.09.19-.21.53-.28.72s0,.15.11.1a11.31,11.31,0,0,1,2-.93,6.83,6.83,0,0,1,1.74-.43,4.7,4.7,0,0,0,.55-.84c.09-.13,0-.18-.08-.15a5.68,5.68,0,0,1-1.74.15c-.88-.08-1.56-.75-1.53-1s.63-.59.87-.56c.66.11.65.69.83.7s.65-.76.68-1-.43-.78-.87-.8c-.71,0-1.93,1.17-2.41,1.92a.74.74,0,0,0,.1.91,8.66,8.66,0,0,0,1,.64,4.22,4.22,0,0,0-.92.55m24.61-3.73c-.12-1.13-.59-4.63-.64-5.52,0-.5-.08-.92-.29-.54a2.72,2.72,0,0,0-.28,1.65c.1,1.23.21,2.16.32,3a38.72,38.72,0,0,1,.47,5.46c0,.44.16.56.3.24a11.15,11.15,0,0,0,.12-4.33M102,16.34a3.21,3.21,0,0,1-.42-.49h-.1l-.84.85,0,.16a3.55,3.55,0,0,0,.4.47,2.91,2.91,0,0,0,.51.43h.17l.85-.85v-.11a2.75,2.75,0,0,1-.53-.44m4-4.13a12.9,12.9,0,0,1-4.83-1c.16-.14.5-.57.37-1.67S101,5.35,101,5.35c0-.33-.17-.65,0-.81s.58-.46.36-.77a6,6,0,0,1-.73-1.23c-.1-.28-.18-.52-.32-.29s-.23.58-.45.87-.24.23-.11.47a3.89,3.89,0,0,1,.4,1.29c0,.21.08.66.13,1.09a45.84,45.84,0,0,1,.71,4.61s-3.18.12-3.59.52l-.63,1c-.06.11,0,.23.1.2a7.69,7.69,0,0,1,4.84.45c-.32.11-3.94,1.66-7,1.32-.46,0-3.67-.44-3.94-2.07,0-.2-.09-.28-.2-.07A1.7,1.7,0,0,0,91,14.39a5.27,5.27,0,0,1-2.44,2.71,5.72,5.72,0,0,1-3.94-.2c-.22-.07-.55.1-.21.33s3.59,2.31,5.7.12a9,9,0,0,0,1.5-2.64c2.17,1.18,5.77.53,5.77.53a15,15,0,0,0,2.46-.72c.44-.18,3.51-1.57,5.59-1.09a3,3,0,0,0,.53.11s.38-.8.46-1,.18-.3-.4-.34M90.58,8.35a3.18,3.18,0,0,0,.53.44V8.9l-.85.84-.17,0a4.15,4.15,0,0,1-.51-.43,4.33,4.33,0,0,1-.4-.47l0-.16.85-.85h.1a4.84,4.84,0,0,0,.42.5" transform="translate(0 0)"/></g></g></g></g></g></g></g></g></g></g></svg>