<svg xmlns="http://www.w3.org/2000/svg" xmlns:xlink="http://www.w3.org/1999/xlink" width="105.78" height="20.74" viewBox="0 0 105.78 20.74"><defs><style>.cls-1{fill:none;}.cls-2{clip-path:url(#clip-path);}.cls-3{fill:#231f20;}</style><clipPath id="clip-path" transform="translate(0 0)"><rect class="cls-1" width="105.78" height="20.74"/></clipPath></defs><g id="Layer_2" data-name="Layer 2"><g id="svg2"><g id="g10"><g id="g50"><g id="g52"><g id="g90"><g id="g104"><g class="cls-2"><g id="g102"><g id="g100"><path id="path98" class="cls-3" d="M68.54,7.61l-.78.92v.16a4.57,4.57,0,0,0,.44.44,4.91,4.91,0,0,0,.55.38l.17,0,.77-.92,0-.1a3.66,3.66,0,0,1-.57-.4,4.91,4.91,0,0,1-.46-.45Zm.33,3.07,0,.05-.39-.28A4.17,4.17,0,0,1,68,10h-.1l-.8,1v.16a3.9,3.9,0,0,0,.45.46,3.6,3.6,0,0,0,.57.39l.18,0L69,11l.29.28a4.82,4.82,0,0,0,.57.39l.18,0,.79-.95,0-.11a4.47,4.47,0,0,1-.59-.41,5.21,5.21,0,0,1-.47-.47h-.1ZM22.17,6,21.4,7V7.1a3.58,3.58,0,0,0,.43.44,3.87,3.87,0,0,0,.55.38l.17,0L23.31,7l0-.1a3.6,3.6,0,0,1-.57-.39A4,4,0,0,1,22.26,6Zm.33,3.07,0,.05-.39-.28a4.17,4.17,0,0,1-.47-.47h-.1l-.8.95v.17a3.92,3.92,0,0,0,.46.45,2.68,2.68,0,0,0,.56.39l.18,0,.75-.9.3.27a4,4,0,0,0,.56.39l.18,0,.8-1,0-.1a5.68,5.68,0,0,1-.59-.41,5.32,5.32,0,0,1-.47-.48h-.1ZM3.18,6H3.09l-.85.85,0,.16a4.22,4.22,0,0,0,.39.47,5.15,5.15,0,0,0,.52.43h.16L4.15,7V6.9a3.71,3.71,0,0,1-.54-.44A3.37,3.37,0,0,1,3.18,6M5.37,2.6c.23-.13.36-.17.47-.37A3.31,3.31,0,0,0,6,1.85c.07-.15.14-.33-.28-.12S.87,3.84.58,4s-.38.19-.43.38L0,4.69c0,.13-.12.27.3.08.12-.06,4.8-2,5-2.17m27,14.28c-.27.13-4,1.74-4.26,1.87s-.38.18-.44.38a3.35,3.35,0,0,1-.11.34c-.05.13-.12.27.3.08.14-.06,3.9-1.68,4.13-1.81s.37-.16.47-.36.14-.24.2-.38.14-.33-.29-.12M33.93,4.5c0-.34-.08-.4.11-.57s.62-.52.39-.84a6.51,6.51,0,0,1-.75-1.21c-.09-.29-.18-.53-.32-.3s-.24.41-.47.71-.25.23-.11.48a3.83,3.83,0,0,1,.46,1.28c0,.21.07.68.13,1.11.09.58,1.13,8.08,1,8.24s-.95.86-2.37.07l-.13-.08c1-.74.94-1.45.77-1.71-.3-.48-3-2-4.57.46-.16.25-.29.84.07.62a2.1,2.1,0,0,1,1.95.3l.19.14a4,4,0,0,1-4.38.09,5.12,5.12,0,0,0,.09-.51c0-.4-.24-.44-.35,0a7.73,7.73,0,0,1-.36,1.31c-.35.69-1.35.15-1.76,0a6.76,6.76,0,0,0,.29-1.23c.05-.27-.12-.49-.3.07s-.82,2.2-3.65,1.25c0-.33.24-1.07-.38-.75a20.22,20.22,0,0,1-3.24,1.19c-.61.16-.71.25-.61.52s.26,1,.58.89l.32-.11c-.27.73-1.24,3-3,3.71a5.64,5.64,0,0,1-4-.19c-.23-.07-.57.12-.22.35s4,2.23,6.24-.06a11.46,11.46,0,0,0,1.71-4v0l.7-.23c.2-.07,1-.41,1.45-.61,1.38,1,2.72,1.37,3.6.29,1.09,1,1.88.79,2.22.27a4.57,4.57,0,0,0,.43-1c1.74,1.71,4.72.06,5.39-.41a3.62,3.62,0,0,1,.5.61,1.85,1.85,0,0,0,2,.64c.41-.07,1.47-.56,1.4-2.42a66.61,66.61,0,0,0-.83-7.32c-.06-.4-.13-.9-.13-.9M7.24,10.67a11.23,11.23,0,0,0-1-2.25C6.09,8.18,6,8,5.9,8.16s-.26,1.26-.26,1.26A11.4,11.4,0,0,1,7,12.62C6.9,13,5.94,15.1,2.92,15c-.32,0-3.38-.47-1.86-4.07.05-.13-.08-.39-.28-.1S-1,15.39,2.21,16.18a5,5,0,0,0,4.71-1.73c.21-.25.81-1.51.32-3.78M12.07,12a3.69,3.69,0,0,0-.84-1c-.45-.39-.86.17-.93.42-.26.79,1.09.65,1.38.63l.39,0m-1.82,5.47a9.45,9.45,0,0,1-5,.24c-.54-.13-.31-.48.15-.41a6.22,6.22,0,0,0,7-3.82l0-.23a5.41,5.41,0,0,1-2,.08c-1.24-.39-1-2.26,0-3.48s2,.75,2.18,1.15a4.92,4.92,0,0,1-.67,4.94,4.43,4.43,0,0,1-1.65,1.53M37.16,8.08a58.15,58.15,0,0,1,.67,6.39c0,.52.18.65.3.27a15.1,15.1,0,0,0,0-5.08c-.16-1.33-.77-5.43-.85-6.48,0-.58-.12-1.07-.31-.62a3.8,3.8,0,0,0-.22,1.95C36.85,6,37,7,37.16,8.08M17.06,6a1.8,1.8,0,0,0-.23-1.28c-.21-.23-.44-.25-.76.24a.28.28,0,0,0,.11.44c.22.13.88.6.88.6M14,9.5c-.34.16-.63,0,.15-.6a9.1,9.1,0,0,0,2.52-2.1A8.48,8.48,0,0,1,15.6,6c-.33-.33.09-1.26.42-1.63.85-1,1.25-.32,1.35-.15a2.82,2.82,0,0,1,.05,2.07l.42.34c.13.14.07.43-.1.93-.06.18-.26-.3-.71-.52-.36.75-.75,1.39-3,2.47m9.49-5.67s.1,0,.16-.07A1.8,1.8,0,0,0,24,3c0-.12-.46-.17-.58-.19a7.27,7.27,0,0,0-1.29-.36,1.66,1.66,0,0,0-1.68,1c0,.09-.1.22-.13.31s0,.27.12.15a1,1,0,0,1,.36-.37,1.71,1.71,0,0,1,1.11-.26,3.07,3.07,0,0,1,1,.31c0,.07-1.52.82-1.76,1s-.23.18-.2.3.16.11.28.07c.6-.22.81-.2,1.29-.41a4.3,4.3,0,0,0,1-.65M44.88,5.68c-.07.14-.09.17-.2.37s-.25.24-.48.36-4,1.68-4.15,1.74c-.43.18-.36,0-.3-.09s0-.14.11-.34.15-.25.45-.37l4.28-1.79c.43-.21.35,0,.29.12M43.37,13c-.28,0-1.63.15-1.38-.63.08-.25.48-.81.93-.42a3.69,3.69,0,0,1,.84,1Zm-1.29-2.2c-1,1.23-1.26,3.1,0,3.48a5.41,5.41,0,0,0,2-.08l0,.23a6.23,6.23,0,0,1-7,3.82c-.46-.07-.7.28-.15.41a9.45,9.45,0,0,0,5-.24,4.35,4.35,0,0,0,1.65-1.53A4.89,4.89,0,0,0,44.26,12c-.16-.4-1.15-2.39-2.18-1.15m16-.6a1.69,1.69,0,0,1,.51-.58c.53-.26.93-.19,1.15.23s.69,1.33.32,1.24-1.64-.4-2-.89m2.45,2.11a3.09,3.09,0,0,0,.32-1,8.94,8.94,0,0,0-.21-2.52,1.05,1.05,0,0,0-1.52-.63,11.57,11.57,0,0,0-1.85,2.32,2.28,2.28,0,0,1-2.87.91c-.28-.58-.57-1.07-.57-1.07-.14-.27-.28-.44-.35-.28s-.28,1.37-.28,1.37c.33.48,1.6,3,1.48,3.49s-1.15,2.7-4.44,2.53c-.35,0-3.69-.5-2-4.44.06-.14-.09-.42-.3-.1S46,18,49.48,18.84A5.45,5.45,0,0,0,54.61,17c.22-.26.84-1.55.4-3.86a2.54,2.54,0,0,0,1.2-.32,4.18,4.18,0,0,0,1.11-1.3l.1.13a8.61,8.61,0,0,0,2.59,1c.36,0,.41,0,.54-.28M74.27,12a5.34,5.34,0,0,1-.47,3.28c-.75,1.07-2.06.14-2.33,0s-.5,0-.83.14a7.41,7.41,0,0,1-4.87,1.26c-2.27-.26-2.46-3-2.55-3.81s-.49-5.26-.86-6.65a4.94,4.94,0,0,1,.17-1.71c.06-.26.18-.34.28.06s1,7.38,1.14,8.1c.34,2.39,1.75,2.53,2.25,2.65A8.16,8.16,0,0,0,71,14.06a.88.88,0,0,1,1,0,7.75,7.75,0,0,0,1.41.46c.47.07.5-.62.45-1.05s-1-5.77-1-6.09c-.1-.68-.21-1.17-.24-1.3-.09-.43-.08-.8-.12-1a2.88,2.88,0,0,0-.32-.7.79.79,0,0,1,0-.73,4.22,4.22,0,0,0,.51-.77c.09-.19.21,0,.26.24a4.75,4.75,0,0,0,.59,1,.74.74,0,0,1,.15.51,4.53,4.53,0,0,1-.42.66.63.63,0,0,0-.06.41L74.27,12M62.59,16.25a2.69,2.69,0,0,1-.19.39c-.1.2-.23.25-.46.38s-4.15,1.83-4.28,1.9c-.42.2-.35.06-.3-.08l.1-.34c0-.21.14-.27.42-.4s4.15-1.81,4.42-2,.35,0,.29.11M65,2.76s.05-.14.12-.34.15-.25.44-.36S70.1.22,70.37.09c.43-.2.35,0,.28.12a2.9,2.9,0,0,1-.2.38c-.11.2-.25.23-.48.35s-4.55,1.85-4.68,1.91c-.43.19-.35,0-.3-.09m12.1,8.3a13.13,13.13,0,0,1,0,4.66c-.12.34-.29.22-.3-.26a47.19,47.19,0,0,0-.67-5.84c-.14-.95-.29-1.94-.44-3.27a3.17,3.17,0,0,1,.22-1.77c.2-.42.28,0,.31.56.08,1,.68,4.71.85,5.92m-26-2.12a2.75,2.75,0,0,0,.53.44v.11l-.85.85h-.16a3.49,3.49,0,0,1-.52-.43,3.55,3.55,0,0,1-.4-.47l0-.16.85-.85h.09a4.75,4.75,0,0,0,.42.49M49.51,3.58a.26.26,0,0,1-.11-.41c.31-.47.53-.45.72-.23a1.67,1.67,0,0,1,.22,1.22l-.83-.58m.8,1.54c.44.2.62.66.68.49.16-.48.22-.75.09-.88s-.4-.33-.4-.33a2.64,2.64,0,0,0,0-2c-.09-.16-.48-.76-1.28.15-.32.35-.72,1.23-.4,1.55a8.28,8.28,0,0,0,1,.77,8.94,8.94,0,0,1-2.39,2c-.74.53-.47.71-.14.56,2.17-1,2.54-1.63,2.87-2.34m18.85-.84a1.48,1.48,0,0,1,.13.55c-.3.29-.63.34-.86.14a.81.81,0,0,1-.2-.67c0-.22,0-.3-.16-.14s-.18.18-.2.3c-.08.73-.4,1-1,1.09-.35,0-.61-.22-.36-.92,0-.15-.06-.31-.21,0-.53,1-.21,1.64.33,1.72a1.18,1.18,0,0,0,1.22-.85.88.88,0,0,0,1,.34c.48-.13.58-.35.71-.73a2.3,2.3,0,0,0,0-1.46c0-.1-.08,0-.1,0l-.26.49a.15.15,0,0,0,0,.14m25,1.34a.29.29,0,0,1-.11-.44c.32-.49.55-.47.76-.24a1.8,1.8,0,0,1,.23,1.28s-.66-.47-.88-.6m.85,1.61c.45.22.65.7.71.52.17-.5.23-.79.1-.93l-.42-.34a2.77,2.77,0,0,0,0-2.07c-.1-.17-.5-.8-1.35.15-.33.36-.75,1.29-.42,1.63A8.48,8.48,0,0,0,94.7,7a9.28,9.28,0,0,1-2.52,2.1c-.78.57-.49.76-.15.6,2.28-1.08,2.67-1.72,3-2.47M82,5.6c-.21-.14-.21-.29-.11-.44.32-.49.55-.47.76-.25a1.76,1.76,0,0,1,.22,1.29s-.65-.47-.87-.6m.85,1.61c.45.21.64.7.71.52.17-.5.23-.79.1-.93s-.43-.34-.43-.34a2.75,2.75,0,0,0,0-2.07c-.1-.17-.5-.8-1.35.15-.33.36-.75,1.29-.42,1.63A8.78,8.78,0,0,0,82.47,7,9.28,9.28,0,0,1,80,9.08c-.78.57-.49.76-.15.6,2.28-1.08,2.67-1.72,3-2.47m6.09-1.77a.29.29,0,0,0,.16-.06,1.77,1.77,0,0,0,.36-.8c0-.12-.46-.16-.58-.19A8.23,8.23,0,0,0,87.57,4a1.7,1.7,0,0,0-1.68,1c0,.1-.1.22-.13.32s0,.26.12.14a1.16,1.16,0,0,1,.36-.37,1.78,1.78,0,0,1,1.11-.26,3.35,3.35,0,0,1,1,.31c0,.08-1.52.83-1.76,1s-.22.19-.2.31.16.11.28.06c.6-.21.81-.2,1.29-.4a3.91,3.91,0,0,0,1-.66M81,14.52c-.09.19-.21.53-.28.72s0,.15.12.1a10.34,10.34,0,0,1,2-.92A6.32,6.32,0,0,1,84.58,14a5.32,5.32,0,0,0,.55-.84c.08-.13,0-.18-.09-.15a5.65,5.65,0,0,1-1.74.15c-.87-.08-1.55-.75-1.53-1s.64-.59.87-.56c.67.11.65.69.83.7s.66-.76.68-1-.42-.78-.86-.8c-.72-.05-1.94,1.17-2.41,1.92a.72.72,0,0,0,.09.91A8.93,8.93,0,0,0,82,14a4.53,4.53,0,0,0-.93.55m24.62-3.72c-.12-1.14-.6-4.63-.65-5.53,0-.49-.08-.92-.29-.54a2.79,2.79,0,0,0-.28,1.65c.1,1.23.22,2.16.33,3a42,42,0,0,1,.47,5.46c0,.44.16.56.29.24a11,11,0,0,0,.13-4.32m-5.74,5.85a3.89,3.89,0,0,1-.42-.49h-.09l-.85.85,0,.16a4.51,4.51,0,0,0,.4.47,3,3,0,0,0,.52.43h.16l.85-.85v-.11a2.75,2.75,0,0,1-.53-.44m4-4.13A12.77,12.77,0,0,1,99,11.57c.16-.13.5-.57.38-1.67s-.56-4.24-.56-4.24c0-.33-.17-.64,0-.81s.58-.46.35-.77a7.1,7.1,0,0,1-.73-1.23c-.09-.28-.18-.51-.32-.29a9.14,9.14,0,0,1-.45.87c-.12.16-.24.23-.1.47A3.71,3.71,0,0,1,98,5.2c0,.2.08.65.14,1.08a45.64,45.64,0,0,1,.71,4.62s-3.18.11-3.59.51l-.64,1c0,.11,0,.23.1.2a7.72,7.72,0,0,1,4.85.45c-.33.11-4,1.66-7,1.32-.46,0-3.68-.44-3.94-2.07,0-.2-.09-.28-.2-.07a1.7,1.7,0,0,0,.41,2.47,5.33,5.33,0,0,1-2.45,2.71,5.66,5.66,0,0,1-3.94-.2c-.22-.07-.54.11-.21.33s3.59,2.31,5.71.12A9.21,9.21,0,0,0,89.46,15c2.17,1.18,5.77.54,5.77.54a16.11,16.11,0,0,0,2.46-.73c.45-.18,3.52-1.57,5.59-1.09a3.15,3.15,0,0,0,.54.11l.46-1c.08-.19.18-.3-.4-.34M88.48,8.66A3.25,3.25,0,0,0,89,9.1v.11l-.85.85H88a4.09,4.09,0,0,1-.52-.43,4.22,4.22,0,0,1-.39-.47l0-.16L88,8.16h.09a4.84,4.84,0,0,0,.42.5" transform="translate(0 0)"/></g></g></g></g></g></g></g></g></g></g></svg>