<svg xmlns="http://www.w3.org/2000/svg" xmlns:xlink="http://www.w3.org/1999/xlink" width="109.03" height="20.53" viewBox="0 0 109.03 20.53"><defs><style>.cls-1{fill:none;}.cls-2{clip-path:url(#clip-path);}.cls-3{fill:#231f20;}</style><clipPath id="clip-path" transform="translate(0 0)"><rect class="cls-1" width="109.03" height="20.53"/></clipPath></defs><g id="Layer_2" data-name="Layer 2"><g id="svg2"><g id="g10"><g id="g106"><g id="g108"><g id="g146"><g id="g160"><g class="cls-2"><g id="g158"><g id="g156"><path id="path154" class="cls-3" d="M22.17,4.53l-.77.93v.16a3.58,3.58,0,0,0,.44.43,2.85,2.85,0,0,0,.55.38l.16,0,.77-.92V5.38A2.81,2.81,0,0,1,22.72,5a5,5,0,0,1-.46-.46Zm.33,3.08,0,0-.39-.28c-.17-.15-.32-.31-.47-.47h-.1l-.8,1V8a3.92,3.92,0,0,0,.46.45,3.4,3.4,0,0,0,.56.4l.18,0,.75-.9.3.27a3.66,3.66,0,0,0,.57.4l.17,0,.8-1,0-.1a4.47,4.47,0,0,1-.59-.41,5.21,5.21,0,0,1-.47-.47h-.1ZM3.19,4.48h-.1l-.85.86,0,.15a3,3,0,0,0,.4.47,3.42,3.42,0,0,0,.51.43H3.3l.85-.85V5.41A3.16,3.16,0,0,1,3.6,5a3.13,3.13,0,0,1-.41-.49M5.37,1.11C5.6,1,5.73,1,5.84.74A3.71,3.71,0,0,0,6,.36C6.1.21,6.17,0,5.75.24,5.48.38.87,2.35.58,2.48s-.37.18-.43.38-.09.3-.11.34-.12.28.3.08c.13-.06,4.8-2,5-2.17m27,14.28c-.27.14-4,1.74-4.26,1.87s-.38.18-.44.38-.09.31-.1.35-.13.26.3.07c.13,0,3.89-1.68,4.12-1.8s.37-.17.48-.37.13-.24.19-.38.14-.33-.29-.12M33.94,3c0-.34-.09-.4.1-.57s.63-.52.4-.84A5.6,5.6,0,0,1,33.69.39c-.1-.29-.19-.53-.33-.3s-.24.41-.47.71-.25.24-.11.48a3.91,3.91,0,0,1,.46,1.28c0,.22.07.68.14,1.12s1.12,8.08,1,8.24-.95.85-2.37.06l-.13-.08c1-.74.94-1.44.77-1.71-.29-.47-3-2-4.56.46-.17.25-.3.84.06.63a2.07,2.07,0,0,1,1.95.3l.2.13a4,4,0,0,1-4.39.1,5.19,5.19,0,0,0,.09-.52c0-.4-.23-.44-.35,0a6.31,6.31,0,0,1-.36,1.3c-.35.69-1.34.15-1.76,0a7,7,0,0,0,.29-1.23c.05-.27-.12-.5-.3.07s-.82,2.19-3.65,1.24c0-.33.24-1.07-.38-.75a20.43,20.43,0,0,1-3.23,1.2c-.62.15-.71.25-.62.52s.26,1,.58.88l.33-.11c-.28.74-1.25,3-3,3.71a5.67,5.67,0,0,1-4-.18c-.23-.07-.56.11-.21.35s4,2.22,6.24-.07a11.23,11.23,0,0,0,1.7-4v0l.7-.23c.2-.07,1-.41,1.46-.6,1.38,1,2.71,1.36,3.59.28,1.09,1,1.88.79,2.22.27a4.57,4.57,0,0,0,.43-1c1.74,1.71,4.72.06,5.39-.41a4.25,4.25,0,0,1,.51.62,1.84,1.84,0,0,0,2,.63c.41-.07,1.47-.56,1.41-2.42a68.39,68.39,0,0,0-.84-7.32c-.06-.39-.12-.9-.12-.9M7.25,9.18a11.52,11.52,0,0,0-1-2.25c-.14-.24-.27-.4-.33-.26s-.26,1.27-.26,1.27A11.28,11.28,0,0,1,7,11.14c-.11.41-1.07,2.48-4.09,2.32-.31,0-3.38-.46-1.86-4.07C1.12,9.26,1,9,.79,9.3S-1,13.91,2.21,14.69A5,5,0,0,0,6.92,13c.21-.25.82-1.5.33-3.78m4.82,1.29a3.88,3.88,0,0,0-.83-1c-.46-.39-.86.18-.94.42-.25.79,1.1.65,1.39.63l.38,0m-1.81,5.47a9.48,9.48,0,0,1-5,.24c-.54-.12-.31-.48.15-.41a6.19,6.19,0,0,0,7-3.82l.05-.23a5.7,5.7,0,0,1-2,.09c-1.25-.39-1-2.26,0-3.49s2,.75,2.19,1.15a4.9,4.9,0,0,1-.68,4.94,4.25,4.25,0,0,1-1.64,1.53m26.9-9.35A58.43,58.43,0,0,1,37.83,13c0,.52.19.65.31.28a15.28,15.28,0,0,0,0-5.09c-.16-1.33-.77-5.42-.85-6.48,0-.57-.11-1.07-.31-.61A3.67,3.67,0,0,0,36.72,3c.14,1.45.29,2.53.44,3.57m-20.1-2a1.82,1.82,0,0,0-.23-1.29c-.21-.23-.44-.24-.76.25a.28.28,0,0,0,.12.43c.21.13.87.61.87.61M14,8c-.35.16-.64,0,.15-.59a9.36,9.36,0,0,0,2.51-2.11,9.13,9.13,0,0,1-1.07-.8c-.33-.34.09-1.27.42-1.64.85-1,1.25-.32,1.35-.15a2.76,2.76,0,0,1,.05,2.07,5,5,0,0,1,.42.35c.13.14.07.42-.1.92-.06.18-.25-.3-.71-.51-.35.75-.74,1.38-3,2.46m9.48-5.67a.29.29,0,0,0,.16-.06,1.77,1.77,0,0,0,.36-.8c0-.12-.45-.16-.58-.19A8.23,8.23,0,0,0,22.14.93a1.7,1.7,0,0,0-1.68,1l-.13.32c0,.16,0,.26.12.14A1.16,1.16,0,0,1,20.81,2a1.71,1.71,0,0,1,1.11-.26,3.35,3.35,0,0,1,1,.31c0,.08-1.52.82-1.75,1s-.23.19-.21.3.16.12.29.07c.59-.21.8-.2,1.28-.4a3.91,3.91,0,0,0,1-.66M44.88,4.19a3.71,3.71,0,0,1-.2.38c-.11.2-.25.24-.48.36L40.05,6.66c-.43.19-.36,0-.3-.09s0-.14.11-.34.15-.25.45-.37,4-1.66,4.29-1.79.35,0,.28.12m-1.5,7.35c-.29,0-1.64.16-1.39-.63.08-.24.48-.81.93-.42a3.59,3.59,0,0,1,.84,1Zm-1.3-2.19c-1,1.22-1.26,3.09,0,3.48a5.7,5.7,0,0,0,2-.09l0,.23a6.24,6.24,0,0,1-7,3.83c-.46-.08-.69.28-.15.4a9.34,9.34,0,0,0,5-.24,4.23,4.23,0,0,0,1.66-1.53,4.91,4.91,0,0,0,.66-4.94c-.15-.4-1.15-2.39-2.18-1.14M61.82,6.12a5,5,0,0,1-.42,3.15c-.43.54-.59.74-1.11.61a3.44,3.44,0,0,1-1.39-.66,3.44,3.44,0,0,1-3.12.65,3.17,3.17,0,0,1-1.74.47A3.3,3.3,0,0,1,51.54,9l-.37.23a6.22,6.22,0,0,0-2.79,4.12c-.54,2.86.32,4.67,2.57,5.33s7.31-.11,8.15-.19.55.35.13.53a46.71,46.71,0,0,1-4.57,1.3c-4.07.82-6.82-.89-7.06-4.65A9.88,9.88,0,0,1,49.82,9a5.57,5.57,0,0,1,.62-.69A1,1,0,0,0,48.9,8.2c-.16.17-.27.06-.21-.23a2.38,2.38,0,0,1,2.22-2.08,3.17,3.17,0,0,1,2.24.5c.54.39.19,1.13-.07,1.63a1.15,1.15,0,0,1-.47.41c.69.47,3.19,1.53,4.45-1.11.11-.24.31-.27.23.08a5.24,5.24,0,0,1-.47,1.32,2,2,0,0,0,2.71-1.6c.19-.56.41-.24.37,0a4.94,4.94,0,0,1-.29,1c.47.22,1.59.5,1.58.36a8,8,0,0,1,0-1.67c.11-.29.25-.71.35-.89s.13-.24.24.17m14.56,5.17A6.43,6.43,0,0,1,75.8,14c-.2.46-1,.2-1.47.11a2.82,2.82,0,0,1-.67-.29,3,3,0,0,1-1.35,1.11c-.75.25-5,1.62-6.94,0-.43-.31-1.19-.86-1.23-2.93,0-.85-.43-5.5-.85-8a1.6,1.6,0,0,1,.23-.9c.17-.51.27-.15.39.15.56,1.31.86,8.18.89,8.63a2.48,2.48,0,0,0,1.88,2.3,9.58,9.58,0,0,0,5.82-.64,4,4,0,0,0,1.34-1c.17-.24.34-.26.28.09l-.05.22a3.83,3.83,0,0,0,1.44.18c.37-.09.33-.59.27-.92s-1.17-6.67-1.28-7.2-.09-.8-.13-1a3.06,3.06,0,0,0-.32-.7.78.78,0,0,1,0-.72,3.64,3.64,0,0,0,.52-.77c.1-.19.21,0,.26.24a5,5,0,0,0,.6,1c.11.15.2.4.15.5a4,4,0,0,1-.42.66c0,.06-.08.17-.06.41,0,0,1.14,5.9,1.25,6.73m-14.9,1.93a3.71,3.71,0,0,1-.2.38c-.1.2-.24.24-.47.37s-4.48,2-4.61,2c-.43.19-.36.05-.31-.08s0-.15.11-.35.15-.25.44-.38,4.48-2,4.75-2.11c.42-.21.35,0,.29.12m5.73-9.67s.05-.15.11-.35.14-.25.43-.38S73,.57,73.31.43c.42-.22.35,0,.29.11a3.31,3.31,0,0,1-.19.38c-.1.21-.24.25-.47.37s-5.29,2.28-5.42,2.34c-.42.2-.36.06-.31-.08m12.52,6a13.68,13.68,0,0,1,.12,4.78c-.12.35-.29.24-.31-.26a49.63,49.63,0,0,0-.77-6c-.16-1-.33-2-.5-3.35a3.31,3.31,0,0,1,.19-1.83c.19-.43.27,0,.32.57.1,1,.77,4.83,1,6.08m-9.6,1a4,4,0,0,1-.47-.45V9.92l.78-1h.11a5.21,5.21,0,0,0,.47.47l.39.27,0-.06.78-1h.1a4.19,4.19,0,0,0,.48.46,3.3,3.3,0,0,0,.6.4l0,.11-.78,1-.17,0a3.6,3.6,0,0,1-.57-.39l-.3-.26-.75.91-.17,0a3.53,3.53,0,0,1-.57-.38m1.51-5.35a1.57,1.57,0,0,1,.14.56c-.31.3-.65.35-.89.15a.86.86,0,0,1-.2-.69c0-.22,0-.31-.16-.15s-.19.2-.21.31c-.09.75-.41,1.08-1,1.12-.37,0-.63-.22-.38-.94.05-.16,0-.32-.21,0-.54,1.07-.21,1.67.34,1.76a1.19,1.19,0,0,0,1.25-.87.9.9,0,0,0,1,.34c.48-.12.59-.35.73-.75a2.33,2.33,0,0,0,0-1.49c0-.1-.08,0-.1,0l-.26.5a.14.14,0,0,0,0,.15m25.82-1a.28.28,0,0,1-.11-.43c.32-.49.55-.48.76-.25a1.82,1.82,0,0,1,.23,1.29s-.66-.48-.88-.61m.85,1.62c.45.21.65.69.71.51.17-.5.23-.78.1-.92S98.7,5,98.7,5a2.82,2.82,0,0,0,0-2.07c-.1-.17-.5-.8-1.35.15-.33.37-.75,1.3-.42,1.63A8.48,8.48,0,0,0,98,5.51a9.28,9.28,0,0,1-2.52,2.11c-.78.56-.49.75-.15.59,2.28-1.08,2.67-1.71,3-2.46M50,1.53a.27.27,0,0,1-.1-.41c.29-.45.51-.44.7-.23a1.71,1.71,0,0,1,.21,1.2s-.61-.44-.81-.56M50.76,3c.42.19.6.64.66.48.16-.47.21-.73.09-.86a3.85,3.85,0,0,0-.4-.32,2.5,2.5,0,0,0,0-1.93c-.09-.16-.46-.74-1.25.14-.31.34-.7,1.21-.39,1.52a8,8,0,0,0,1,.75,8.45,8.45,0,0,1-2.33,1.95c-.73.53-.46.71-.14.55,2.11-1,2.47-1.59,2.81-2.28M85.23,4.11a.27.27,0,0,1-.11-.43c.32-.49.55-.48.76-.25a1.73,1.73,0,0,1,.22,1.28s-.65-.47-.87-.6m.85,1.62c.45.21.64.69.71.51.17-.5.23-.78.1-.92S86.46,5,86.46,5a2.75,2.75,0,0,0,0-2.07c-.1-.17-.5-.8-1.35.15-.33.37-.76,1.3-.42,1.63a7.79,7.79,0,0,0,1.07.81A9.44,9.44,0,0,1,83.2,7.6c-.78.56-.49.75-.15.59,2.28-1.08,2.67-1.71,3-2.46M92.17,4a.23.23,0,0,0,.16-.06,1.73,1.73,0,0,0,.36-.79c0-.12-.46-.17-.58-.2a8.23,8.23,0,0,0-1.29-.36,1.7,1.7,0,0,0-1.68,1c0,.1-.1.23-.13.32s0,.27.12.14a1.16,1.16,0,0,1,.36-.37,1.85,1.85,0,0,1,1.11-.26,3.68,3.68,0,0,1,1,.31c0,.08-1.52.83-1.76,1s-.22.18-.2.3.16.11.28.07c.6-.22.81-.21,1.29-.41a3.84,3.84,0,0,0,1-.66M84.29,13c-.09.2-.21.53-.28.72s0,.16.12.11a10.31,10.31,0,0,1,2-.93,6.26,6.26,0,0,1,1.74-.43,7.66,7.66,0,0,0,.55-.84c.08-.14,0-.18-.09-.16a5.65,5.65,0,0,1-1.74.15c-.87-.08-1.55-.74-1.53-1s.64-.6.87-.56c.67.1.65.69.83.69s.66-.76.68-1S87,9,86.54,9c-.72,0-1.94,1.17-2.41,1.92a.72.72,0,0,0,.09.91,8.93,8.93,0,0,0,1,.64,4.53,4.53,0,0,0-.93.55m24.62-3.72c-.12-1.13-.6-4.63-.65-5.53,0-.49-.08-.92-.29-.54a2.79,2.79,0,0,0-.28,1.65c.1,1.23.22,2.16.33,3.05a41.65,41.65,0,0,1,.47,5.45c0,.44.16.56.29.24a11,11,0,0,0,.13-4.32m-5.74,5.86a4.84,4.84,0,0,1-.42-.5h-.09l-.85.86,0,.15a3.64,3.64,0,0,0,.4.48,4.24,4.24,0,0,0,.52.43l.16,0,.85-.85v-.1a3.18,3.18,0,0,1-.53-.44m4-4.14a12.58,12.58,0,0,1-4.84-.95c.16-.13.5-.57.38-1.67s-.56-4.24-.56-4.24c0-.33-.17-.64,0-.81s.58-.45.35-.76a7.1,7.1,0,0,1-.73-1.23c-.09-.29-.18-.52-.32-.3A9.23,9.23,0,0,1,101,2c-.12.15-.24.23-.1.46a3.71,3.71,0,0,1,.39,1.3c0,.21.08.66.14,1.09a45.84,45.84,0,0,1,.71,4.61s-3.18.11-3.59.51l-.64,1c0,.11,0,.23.1.21a7.64,7.64,0,0,1,4.85.45c-.33.11-4,1.66-7,1.31-.45,0-3.67-.43-3.93-2.07,0-.2-.09-.28-.2-.07a1.7,1.7,0,0,0,.41,2.47,5.33,5.33,0,0,1-2.45,2.71,5.66,5.66,0,0,1-3.94-.2c-.22-.07-.54.11-.21.33s3.59,2.32,5.71.12a9.12,9.12,0,0,0,1.49-2.63c2.17,1.18,5.77.53,5.77.53a16.11,16.11,0,0,0,2.46-.73c.45-.18,3.52-1.57,5.59-1.08a3.44,3.44,0,0,0,.54.1l.46-1c.08-.19.18-.3-.4-.34M91.73,7.17a3.25,3.25,0,0,0,.54.44v.11l-.85.85h-.16a4.09,4.09,0,0,1-.52-.43,3.47,3.47,0,0,1-.39-.47l0-.16.85-.85h.09a3.89,3.89,0,0,0,.42.49" transform="translate(0 0)"/></g></g></g></g></g></g></g></g></g></g></svg>