<svg xmlns="http://www.w3.org/2000/svg" xmlns:xlink="http://www.w3.org/1999/xlink" width="58.57" height="19.17" viewBox="0 0 58.57 19.17"><defs><style>.cls-1{fill:none;}.cls-2{clip-path:url(#clip-path);}.cls-3{fill:#231f20;}</style><clipPath id="clip-path" transform="translate(0 0)"><rect class="cls-1" width="58.57" height="19.17"/></clipPath></defs><g id="Layer_2" data-name="Layer 2"><g id="svg2"><g id="g10"><g id="g42"><g id="g44"><g id="g70"><g id="g84"><g class="cls-2"><g id="g82"><g id="g80"><path id="path78" class="cls-3" d="M6,4.28A1.83,1.83,0,0,0,5.78,3c-.21-.23-.44-.24-.76.25-.1.15-.1.3.11.44s.88.6.88.6M3,7.75c-.34.17-.63,0,.15-.59a9.28,9.28,0,0,0,2.52-2.1,9.67,9.67,0,0,1-1.07-.81C4.22,3.91,4.64,3,5,2.62c.85-1,1.25-.33,1.35-.16a2.84,2.84,0,0,1,0,2.08s.32.24.42.34.07.42-.1.93C6.63,6,6.43,5.5,6,5.29,5.62,6,5.23,6.67,3,7.75M21,6.68l-.78.92v.16a4.57,4.57,0,0,0,.44.44,4.91,4.91,0,0,0,.55.38l.17,0,.77-.92,0-.11a2.63,2.63,0,0,1-.57-.39,4.91,4.91,0,0,1-.46-.45Zm.33,3.07,0,.05-.38-.28a4.17,4.17,0,0,1-.47-.47h-.1l-.8,1,0,.16a3.9,3.9,0,0,0,.46.45,3.09,3.09,0,0,0,.57.4l.17,0,.76-.9.29.27a3.09,3.09,0,0,0,.57.4l.17,0,.8-1,0-.11a4.47,4.47,0,0,1-.59-.41,5.21,5.21,0,0,1-.47-.47h-.1ZM6,7.56l-.77.92v.16a6.09,6.09,0,0,0,.44.44,3.31,3.31,0,0,0,.55.37l.17,0,.77-.92,0-.11A3.6,3.6,0,0,1,6.55,8a4.91,4.91,0,0,1-.46-.45Zm.34,3.07,0,0-.38-.28a4.17,4.17,0,0,1-.47-.47H5.33l-.8,1v.16A3.19,3.19,0,0,0,5,11.5a3.09,3.09,0,0,0,.57.4l.17,0,.76-.9.29.27a3.09,3.09,0,0,0,.57.4l.17,0,.8-1,0-.1a4.47,4.47,0,0,1-.59-.41,5.21,5.21,0,0,1-.47-.47h-.1Zm41.54-5a1.76,1.76,0,0,0-.22-1.29c-.21-.22-.44-.24-.76.25-.1.15-.1.3.11.44s.87.6.87.6m-3,3.48c-.34.16-.63,0,.15-.6a9.28,9.28,0,0,0,2.52-2.1,8.78,8.78,0,0,1-1.07-.81c-.33-.34.09-1.27.42-1.63.85-.95,1.25-.32,1.35-.15a2.75,2.75,0,0,1,0,2.07s.33.24.43.34.07.42-.1.93c-.06.18-.26-.31-.71-.52-.36.75-.75,1.39-3,2.47m-9.18-3.5a1.76,1.76,0,0,0-.22-1.29c-.21-.23-.44-.24-.76.25-.1.15-.1.3.11.44s.87.6.87.6m-3,3.48c-.34.16-.64,0,.15-.6a9.44,9.44,0,0,0,2.52-2.1,8.78,8.78,0,0,1-1.07-.81c-.34-.34.09-1.27.42-1.63C35.46,3,35.86,3.6,36,3.77a2.75,2.75,0,0,1,0,2.07s.33.24.43.34.07.42-.1.93c-.07.17-.26-.31-.71-.52-.36.75-.75,1.39-3,2.47m8.16-3.58c-.48.2-.69.19-1.29.4-.12,0-.26,0-.28-.07s.1-.23.2-.3,1.75-.89,1.76-1a3.35,3.35,0,0,0-1-.31A1.71,1.71,0,0,0,39,4.49a1.16,1.16,0,0,0-.36.37c-.08.12-.17,0-.12-.14l.13-.32a1.68,1.68,0,0,1,1.69-1,7.41,7.41,0,0,1,1.28.36c.12,0,.56.07.58.19a1.88,1.88,0,0,1-.36.8.32.32,0,0,1-.16.06,4.16,4.16,0,0,1-1,.66m-6,7.87a8.93,8.93,0,0,1-1-.64.72.72,0,0,1-.09-.91c.47-.75,1.69-2,2.41-1.92.43,0,.89.57.86.8s-.46,1-.68,1-.16-.59-.83-.7c-.23,0-.85.36-.87.56s.66.93,1.53,1a5.35,5.35,0,0,0,1.74-.16c.11,0,.17,0,.09.16a6.12,6.12,0,0,1-.55.84,6.73,6.73,0,0,0-1.74.43,11.31,11.31,0,0,0-2,.93c-.09,0-.14,0-.12-.1s.19-.53.28-.72a4.53,4.53,0,0,1,.93-.55m23.69-3.18c-.12-1.13-.6-4.63-.65-5.53,0-.49-.08-.91-.29-.53a2.77,2.77,0,0,0-.28,1.64c.1,1.24.22,2.17.33,3.05A42,42,0,0,1,58,14.26c0,.44.16.55.29.24a11.07,11.07,0,0,0,.13-4.33M52.71,16a3.89,3.89,0,0,1-.42-.49H52.2l-.85.85,0,.16a3.55,3.55,0,0,0,.4.47,3,3,0,0,0,.52.43h.16l.85-.85v-.11a2.88,2.88,0,0,1-.54-.44m4-4.13a13,13,0,0,1-4.84-1c.16-.14.5-.57.38-1.67S51.65,5,51.65,5c0-.33-.17-.65,0-.81s.58-.46.35-.77a6.52,6.52,0,0,1-.73-1.23c-.09-.28-.18-.51-.32-.29a7.29,7.29,0,0,1-.45.87c-.12.16-.24.23-.1.47a3.73,3.73,0,0,1,.39,1.29c0,.21.08.66.14,1.09a43.27,43.27,0,0,1,.7,4.62s-3.17.11-3.58.51l-.64,1c-.06.11,0,.23.1.2a7.72,7.72,0,0,1,4.85.45c-.33.11-4,1.66-7,1.32-.45,0-3.67-.44-3.94-2.07,0-.2-.08-.28-.19-.07a1.7,1.7,0,0,0,.41,2.47,5.28,5.28,0,0,1-2.45,2.7,5.63,5.63,0,0,1-3.94-.19c-.22-.07-.54.1-.21.33s3.59,2.31,5.71.12a9.21,9.21,0,0,0,1.49-2.64c2.17,1.18,5.78.53,5.78.53a15.17,15.17,0,0,0,2.45-.72c.45-.19,3.51-1.57,5.59-1.09a3.15,3.15,0,0,0,.54.11l.46-1c.08-.19.18-.3-.4-.34M40.85,7.54h-.09l-.85.85,0,.16a4.22,4.22,0,0,0,.39.47,5.15,5.15,0,0,0,.52.43l.17,0,.84-.85v-.1A3.34,3.34,0,0,1,41.27,8a4.84,4.84,0,0,1-.42-.5m-23-5c.14,0,3.61-1.45,3.85-1.56s.36-.16.48-.35.14-.24.21-.38.14-.32-.28-.12l-4,1.62c-.29.11-.38.17-.45.36s-.1.31-.12.35-.13.26.3.08m4,.77a2,2,0,0,1,.13.55c-.31.29-.63.34-.87.14a.78.78,0,0,1-.19-.67c0-.22,0-.3-.16-.15s-.19.19-.2.31c-.09.72-.4,1-1,1.08-.35,0-.61-.22-.36-.91.05-.15-.06-.31-.21,0-.53,1-.21,1.63.33,1.71a1.19,1.19,0,0,0,1.22-.85.85.85,0,0,0,1,.34c.48-.12.58-.34.72-.73a2.35,2.35,0,0,0-.05-1.45c0-.1-.08-.05-.1,0l-.26.48c0,.06-.05.1,0,.15M12.44,14.78A6.66,6.66,0,0,0,13,12.09c-.11-.83-1.24-6.75-1.24-6.75a.63.63,0,0,1,.06-.41,4.72,4.72,0,0,0,.42-.67.66.66,0,0,0-.15-.5,4.57,4.57,0,0,1-.59-1c0-.2-.17-.43-.25-.23a3.77,3.77,0,0,1-.52.76.82.82,0,0,0,0,.73A2.53,2.53,0,0,1,11,4.7c0,.21,0,.57.12,1s1.22,6.9,1.27,7.23.11.87-.26.85l-1.51-.08a3.07,3.07,0,0,0,.32-.94c0-.19-.14-.54-.35-.15s-1.71,2.56-6,2.54C.7,15.15.19,12.53.79,11.61c.15-.22.06-.36-.11-.16a3.39,3.39,0,0,0-.52,3c1.13,2.68,5.7,1.89,5.7,1.89.31-.06,2.88-.33,4.27-1.84a4.08,4.08,0,0,0,.93.41c.44.1,1.17.37,1.38-.09M25.49,5a.63.63,0,0,1,.06-.41A5.16,5.16,0,0,0,26,3.94a.68.68,0,0,0-.15-.51,4.75,4.75,0,0,1-.59-1c-.05-.21-.17-.44-.25-.24a3.48,3.48,0,0,1-.52.76.83.83,0,0,0,0,.73,2.81,2.81,0,0,1,.33.71c0,.21,0,.57.12,1,0,.13.13.62.23,1.3,0,.32,1,5.66,1,6.09s0,1.12-.45,1.05a7,7,0,0,1-1.41-.47.9.9,0,0,0-.94,0,8.18,8.18,0,0,1-4.79,1.26c-.5-.12-1.91-.26-2.25-2.65-.1-.73-1-7.71-1.14-8.11s-.22-.31-.27,0a4.88,4.88,0,0,0-.17,1.7c.36,1.4.76,5.79.86,6.66s.27,3.55,2.54,3.81A7.4,7.4,0,0,0,23,14.66c.33-.19.56-.31.83-.14s1.58,1.1,2.33,0a5.36,5.36,0,0,0,.47-3.28C26.49,10.54,25.49,5,25.49,5m-10,11.41c-.27.14-4.07,1.69-4.35,1.82s-.37.2-.43.4a3.58,3.58,0,0,1-.09.35l0,.18a1.23,1.23,0,0,0,.28-.11c.13-.06,4-1.63,4.22-1.77s.36-.17.46-.38a3,3,0,0,0,.18-.39l0-.21a.65.65,0,0,0-.27.11M29.7,10a11.11,11.11,0,0,1-.12,4.32c-.13.32-.3.2-.29-.24a41.65,41.65,0,0,0-.47-5.45c-.11-.89-.23-1.82-.33-3.05a2.72,2.72,0,0,1,.28-1.65c.21-.38.27,0,.29.54.05.9.53,4.39.64,5.53" transform="translate(0 0)"/></g></g></g></g></g></g></g></g></g></g></svg>