<svg xmlns="http://www.w3.org/2000/svg" xmlns:xlink="http://www.w3.org/1999/xlink" width="72.33" height="21.64" viewBox="0 0 72.33 21.64"><defs><style>.cls-1{fill:none;}.cls-2{clip-path:url(#clip-path);}.cls-3{fill:#231f20;}</style><clipPath id="clip-path" transform="translate(0 0)"><rect class="cls-1" width="72.33" height="21.64"/></clipPath></defs><g id="Layer_2" data-name="Layer 2"><g id="svg2"><g id="g10"><g id="g94"><g id="g96"><g id="g134"><g id="g148"><g class="cls-2"><g id="g146"><g id="g144"><path id="path142" class="cls-3" d="M12.77,5.33l-.72,1v.16a3.7,3.7,0,0,0,.46.42,4.73,4.73,0,0,0,.56.35l.17,0,.72-1,0-.1a3.21,3.21,0,0,1-.59-.36,5.19,5.19,0,0,1-.49-.43Zm.49,3.05,0,0-.4-.26a4.15,4.15,0,0,1-.49-.44h-.11l-.74,1V8.9a3.34,3.34,0,0,0,.48.43,3.5,3.5,0,0,0,.58.36l.18,0,.7-.94.31.26a3.4,3.4,0,0,0,.59.37l.17,0,.75-1,0-.1a3.87,3.87,0,0,1-.61-.38,4.23,4.23,0,0,1-.5-.45H14Zm21-.92-.73,1v.16A3.55,3.55,0,0,0,34,9a3.51,3.51,0,0,0,.57.35l.16,0,.73-1,0-.11a3.08,3.08,0,0,1-.6-.36,4.91,4.91,0,0,1-.48-.43Zm.49,3.05,0,.05-.4-.26a3.49,3.49,0,0,1-.49-.45H33.7l-.74,1V11a3.89,3.89,0,0,0,.48.43,3.06,3.06,0,0,0,.59.37l.17,0,.71-.94.31.26a3.5,3.5,0,0,0,.58.36l.18,0,.74-1,0-.1a5.07,5.07,0,0,1-.61-.38,5.23,5.23,0,0,1-.49-.45h-.1ZM12.47,15.74c-.29,0-1.64.16-1.39-.63.07-.24.48-.81.93-.42a3.32,3.32,0,0,1,.82,1c-.13,0-.24.07-.36.08m2-4.77c0,.21-.09,1.27-.09,1.27.42.5,1.53,1.68,1.31,2.09s-1.5,1-2.09,1.17a5.72,5.72,0,0,0-.25-.81c-.16-.4-1.15-2.39-2.18-1.15s-1.26,3.1,0,3.48a5.41,5.41,0,0,0,2-.08l0,.23a6.21,6.21,0,0,1-7,3.82c-.46-.07-.7.29-.15.41a9.45,9.45,0,0,0,5-.24,4.45,4.45,0,0,0,1.66-1.53,5.08,5.08,0,0,0,1-2.82c.71-.24,2.58-.83,2.56-2.48a4.08,4.08,0,0,0-1.58-3.58c-.19-.17-.21,0-.24.22m25.9,1.3a4.57,4.57,0,0,1-.55,3.16c-.46.8-1.63.1-2.37-.2s-1.18.14-1.91.54a11.11,11.11,0,0,1-6.6,1.06C25.58,16,25.68,12,25.68,12a10.6,10.6,0,0,1-1,3.46c-1.57,2.25-6.25,2.59-6.65,2.67s-.58-.28-.14-.42c3.88-.91,5.3-2.39,5.8-2.89a3.5,3.5,0,0,0,.63-.7c-.74-3.07-5.06-5.41-5.06-5.41a2.91,2.91,0,0,1-.07.31c0,.14-.22.07-.36,0s-.74-.23-1.63-.53c0,0-.49-1.89-.56-2.23s.16-.26.36-.18c6,2.44,7.34,6.45,7.51,7.71,1.47-2.56.26-6.73.17-7.39a5.16,5.16,0,0,1,.14-2c.16-.63.36-.08.42.48s1.17,6.74,1.33,7.55c.38,2.75,2.81,2.89,3.57,3,2.75.42,6.35-1.39,6.75-1.63s.8,0,1.08.16a4.2,4.2,0,0,0,1.73.52c.3,0,.1-1.63,0-2.3S38.4,6,38.4,6c-.07-.43-.15-.88-.17-1.08a3.47,3.47,0,0,0-.49-1.24c-.14-.24,0-.31.09-.47s.28-.46.44-.71.23,0,.33.28a5.84,5.84,0,0,0,.77,1.16c.23.3-.14.74-.32.92s-.13.23-.09.55c0,0,1.2,5.54,1.41,6.86M6.9,17.19a5,5,0,0,1-4.71,1.72C-1,18.13.51,13.9.76,13.52s.33,0,.28.09c-1.52,3.61,1.54,4.06,1.86,4.07,3,.16,4-1.91,4.08-2.32a11,11,0,0,0-1.36-3.2s.2-1.12.26-1.27.18,0,.32.27a11.34,11.34,0,0,1,1,2.24c.49,2.28-.11,3.54-.32,3.79M3.58,9.57a2.93,2.93,0,0,0,.54.45v.1L3.27,11H3.11a3.42,3.42,0,0,1-.52-.42,4.42,4.42,0,0,1-.4-.48l0-.15.85-.86h.09a3.89,3.89,0,0,0,.42.49M20.1,3.67s0-.14.12-.34.15-.26.44-.38,4.93-2,5.21-2.14.35,0,.28.12a3.71,3.71,0,0,1-.2.38c-.11.2-.25.24-.48.35s-4.93,2-5.07,2.09c-.43.19-.35,0-.3-.08M5.41,5.57C5.18,5.69.47,7.6.34,7.66c-.43.18-.35,0-.3-.09a3.35,3.35,0,0,0,.11-.34C.22,7,.31,7,.6,6.86s4.93-2,5.2-2.15c.43-.2.35,0,.29.12l-.2.38c-.11.2-.25.24-.48.36M29,3.47s0-.15.1-.35.14-.25.43-.38S35.5.24,35.77.1s.35,0,.29.11a3.31,3.31,0,0,1-.19.38c-.11.21-.24.25-.47.38s-5.93,2.51-6.06,2.58c-.42.19-.35.05-.3-.08m14.58,7.46a14.78,14.78,0,0,1,.25,5c-.1.37-.27.25-.31-.27a58.75,58.75,0,0,0-1-6.26c-.2-1-.39-2.08-.6-3.48A3.71,3.71,0,0,1,42.13,4c.19-.45.27,0,.34.6.12,1,.92,5,1.15,6.34m-9-6.37a1.42,1.42,0,0,1,.12.51.58.58,0,0,1-.8.13.74.74,0,0,1-.18-.62c0-.2,0-.28-.14-.14s-.18.18-.19.29c-.08.67-.37,1-.89,1-.33,0-.57-.2-.34-.85,0-.13-.05-.28-.19,0-.49,1-.19,1.52.3,1.59a1.1,1.1,0,0,0,1.14-.78A.8.8,0,0,0,34.4,6a.83.83,0,0,0,.66-.68A2.1,2.1,0,0,0,35,4c0-.09-.07,0-.09,0l-.24.45a.13.13,0,0,0,0,.13M11.18,1.78c-.21-.14-.21-.29-.11-.44.31-.49.55-.48.75-.25a1.72,1.72,0,0,1,.23,1.29s-.66-.47-.87-.6M12,3.39c.46.21.65.69.71.52.18-.5.24-.79.1-.93a4.46,4.46,0,0,0-.42-.34,2.76,2.76,0,0,0,0-2.07c-.1-.17-.51-.8-1.35.15-.33.36-.76,1.29-.42,1.63a8.78,8.78,0,0,0,1.07.81,9.61,9.61,0,0,1-2.52,2.1c-.79.57-.49.76-.15.59,2.28-1.08,2.67-1.71,3-2.46M60.76,6.56c-.21-.14-.21-.29-.11-.44.32-.49.55-.47.76-.25a1.76,1.76,0,0,1,.22,1.29s-.65-.47-.87-.6m.85,1.61c.45.21.64.7.71.52.17-.51.23-.79.1-.93S62,7.42,62,7.42a2.76,2.76,0,0,0,0-2.07c-.1-.18-.5-.8-1.35.15-.33.36-.75,1.29-.42,1.63a9.67,9.67,0,0,0,1.07.81A9.44,9.44,0,0,1,58.73,10c-.78.57-.49.76-.15.59,2.28-1.08,2.67-1.71,3-2.46M48.53,6.54c-.21-.14-.21-.29-.11-.44.32-.49.55-.48.76-.25a1.76,1.76,0,0,1,.22,1.29s-.66-.47-.87-.6m.85,1.61c.45.21.64.69.71.52.17-.51.22-.79.1-.93s-.43-.34-.43-.34a2.76,2.76,0,0,0,0-2.07c-.1-.18-.5-.8-1.35.15-.33.36-.76,1.29-.42,1.63A8.78,8.78,0,0,0,49,7.92,9.44,9.44,0,0,1,46.5,10c-.79.56-.49.76-.15.59,2.28-1.08,2.67-1.71,3-2.46m6.09-1.77a.29.29,0,0,0,.16-.06,1.88,1.88,0,0,0,.36-.8c0-.12-.46-.16-.58-.19A7.27,7.27,0,0,0,54.12,5a1.67,1.67,0,0,0-1.68,1l-.14.32c0,.16,0,.26.13.14a1.16,1.16,0,0,1,.36-.37,1.71,1.71,0,0,1,1.11-.26,3.35,3.35,0,0,1,1,.31c0,.07-1.52.82-1.76,1s-.23.19-.2.3.16.12.28.07c.6-.21.81-.2,1.29-.4a4.16,4.16,0,0,0,1-.66m-7.88,9.08c-.09.19-.21.52-.28.72s0,.15.11.1a11.81,11.81,0,0,1,2-.93,6.64,6.64,0,0,1,1.74-.43,6.12,6.12,0,0,0,.55-.84c.08-.13,0-.18-.09-.16a5.12,5.12,0,0,1-1.74.15c-.87-.07-1.55-.74-1.53-1s.64-.6.87-.56c.67.1.65.69.83.7s.66-.76.68-1-.43-.78-.86-.8c-.72,0-1.94,1.17-2.41,1.92a.73.73,0,0,0,.09.91,8.08,8.08,0,0,0,1,.64,4.28,4.28,0,0,0-.93.55m24.62-3.73c-.12-1.13-.6-4.63-.65-5.52,0-.5-.08-.92-.29-.54A2.76,2.76,0,0,0,71,7.31c.1,1.24.22,2.17.33,3.05a42,42,0,0,1,.47,5.46c0,.44.16.55.29.24a11.07,11.07,0,0,0,.13-4.33m-5.74,5.86a3.89,3.89,0,0,1-.42-.49H66l-.85.85,0,.16a3.55,3.55,0,0,0,.4.47A3.42,3.42,0,0,0,66,19h.17l.85-.85V18a2.88,2.88,0,0,1-.54-.44m4-4.13a12.93,12.93,0,0,1-4.83-1c.16-.14.5-.57.38-1.67s-.56-4.24-.56-4.24c0-.33-.17-.65,0-.81s.58-.46.35-.77a6,6,0,0,1-.73-1.23c-.09-.28-.18-.52-.32-.3a6.69,6.69,0,0,1-.45.88c-.12.16-.24.23-.11.47a3.42,3.42,0,0,1,.4,1.29c0,.21.08.66.14,1.09a43.44,43.44,0,0,1,.7,4.61s-3.17.12-3.58.52l-.64,1c-.06.11,0,.23.1.2a7.72,7.72,0,0,1,4.85.45c-.33.11-4,1.66-7,1.32-.46,0-3.67-.44-3.94-2.07,0-.21-.09-.28-.2-.07a1.71,1.71,0,0,0,.42,2.47A5.28,5.28,0,0,1,53,18.34,5.63,5.63,0,0,1,49,18.15c-.22-.07-.54.1-.21.33s3.59,2.31,5.71.12A9.21,9.21,0,0,0,56,16c2.17,1.18,5.77.53,5.77.53a16,16,0,0,0,2.46-.72c.45-.19,3.51-1.57,5.59-1.09a3.15,3.15,0,0,0,.54.11l.46-1c.08-.19.18-.31-.41-.34M55,9.6a3.34,3.34,0,0,0,.54.44v.1l-.85.85-.16,0a5.15,5.15,0,0,1-.52-.43,4.22,4.22,0,0,1-.39-.47l0-.16.85-.86h.09a4.84,4.84,0,0,0,.42.5" transform="translate(0 0)"/></g></g></g></g></g></g></g></g></g></g></svg>