<svg xmlns="http://www.w3.org/2000/svg" xmlns:xlink="http://www.w3.org/1999/xlink" width="54.44" height="19.24" viewBox="0 0 54.44 19.24"><defs><style>.cls-1{fill:none;}.cls-2{clip-path:url(#clip-path);}.cls-3{fill:#231f20;}</style><clipPath id="clip-path" transform="translate(0 0)"><rect class="cls-1" width="54.44" height="19.24"/></clipPath></defs><g id="Layer_2" data-name="Layer 2"><g id="svg2"><g id="g10"><g id="g62"><g id="g64"><g id="g118"><g id="g132"><g class="cls-2"><g id="g130"><g id="g128"><path id="path126" class="cls-3" d="M19.1,5.73l.24-.46s.07-.1.1,0a2.19,2.19,0,0,1,0,1.38c-.13.37-.23.58-.68.69A.82.82,0,0,1,17.86,7a1.12,1.12,0,0,1-1.16.81c-.51-.08-.81-.63-.31-1.63.14-.29.24-.14.19,0-.23.66,0,.9.35.87.54,0,.83-.34.92-1,0-.11-.06-.09.19-.28s.16-.07.15.14a.73.73,0,0,0,.18.63.59.59,0,0,0,.82-.13,1.42,1.42,0,0,0-.12-.52.15.15,0,0,1,0-.14m-6.46,7.71c-.28.12-3.67,1.54-4,1.65s-.38.17-.44.37-.1.3-.12.34-.13.27.3.09c.14-.06,3.6-1.48,3.83-1.6s.37-.15.48-.36a3.75,3.75,0,0,0,.2-.37c.07-.15.15-.32-.28-.12m-2.7-2.36h-.1L9,11.92l0,.16a3.55,3.55,0,0,0,.4.47,3.42,3.42,0,0,0,.51.43h.17l.85-.85V12a3.71,3.71,0,0,1-.54-.44,4.83,4.83,0,0,1-.41-.49m.47,6.32c-.75.07-5.33.78-7.36.17S.24,15.34.72,12.75A5.71,5.71,0,0,1,3.33,9c.54.63,1.1,1.11,3.3,1.2a9.67,9.67,0,0,0,4.33-1c.22-.12.44-.24.56-1.19a3.48,3.48,0,0,0-1-2.93c-.14-.16-.21-.17-.26,0S10,6.34,10,6.34c.38.5,1.14,1.58,1,1.69S7.63,9.6,5,8.72L4.36,8.4A1.32,1.32,0,0,0,5,7.93c.24-.45.56-1.12.06-1.47A2.8,2.8,0,0,0,3,6,2.15,2.15,0,0,0,1,7.88c-.06.27,0,.37.19.21a.91.91,0,0,1,1.39.08A4.65,4.65,0,0,0,2,8.8a8.89,8.89,0,0,0-2,6c.22,3.4,2.7,4.94,6.38,4.21.88-.18,3.76-1,4.13-1.18s.64-.55-.12-.48m11-12.94c0-.33-.08-.38.11-.55s.66-.49.44-.81a5.61,5.61,0,0,1-.7-1.19c-.09-.29-.17-.52-.32-.3s-.24.39-.47.69-.25.22-.12.46A2.79,2.79,0,0,1,20.73,4c-.05.58,1.29,7.55,1.18,7.86a3.24,3.24,0,0,1-3.17,0c-.18-.11-.25-.14-.29.19a1.25,1.25,0,0,0,.79,1.5,6.53,6.53,0,0,1-3,3.34,5.86,5.86,0,0,1-4.17-.07c-.23-.08-.57.11-.22.35S16,19.29,18.16,17a10.15,10.15,0,0,0,1.68-3.3,4.13,4.13,0,0,0,.68,0c.7,0,1.69-.24,1.78-1.08a17.49,17.49,0,0,0-.41-5.26c-.18-1-.53-2.87-.53-2.87m3.39-.88c0-.53-.09-1-.32-.58a3,3,0,0,0-.3,1.78c.11,1.33.23,2.33.36,3.29A45.65,45.65,0,0,1,25,14c0,.48.18.6.32.26a12,12,0,0,0,.13-4.67c-.12-1.23-.64-5-.69-6m-9-1c.13-.06,3.59-1.49,3.83-1.61s.37-.15.48-.35a3.71,3.71,0,0,0,.2-.38c.07-.15.15-.32-.28-.12s-3.67,1.54-4,1.66-.38.17-.44.37-.1.3-.12.34-.13.27.3.09M14,7.19c-.12-1-.25-1.95-.36-3.29a3,3,0,0,1,.31-1.78c.22-.41.29,0,.31.58.05,1,.57,4.75.7,6a11.83,11.83,0,0,1-.14,4.66c-.14.34-.33.22-.31-.26A45.51,45.51,0,0,0,14,7.19M3.18,2.1A1.63,1.63,0,0,0,3,.91c-.19-.21-.4-.22-.7.23a.25.25,0,0,0,.11.4c.19.12.8.56.8.56M.36,5.31c-.31.15-.58,0,.14-.55A8.55,8.55,0,0,0,2.82,2.82a8.19,8.19,0,0,1-1-.75C1.53,1.76,1.92.9,2.23.56,3-.31,3.38.27,3.47.42a2.56,2.56,0,0,1,0,1.92,4,4,0,0,1,.39.32c.12.12.07.38-.09.85-.06.16-.24-.28-.65-.48-.33.69-.69,1.28-2.8,2.28m43.38.26a1.77,1.77,0,0,0-.23-1.29c-.2-.23-.44-.24-.75.25a.27.27,0,0,0,.11.43l.87.61M40.69,9c-.34.17-.64,0,.15-.59a9.64,9.64,0,0,0,2.52-2.1,8.78,8.78,0,0,1-1.07-.81c-.34-.34.09-1.27.42-1.63.84-1,1.25-.33,1.35-.16a2.78,2.78,0,0,1,0,2.08,4.46,4.46,0,0,1,.42.34c.13.14.08.42-.1.93-.06.17-.25-.31-.7-.52C43.36,7.33,43,8,40.69,9M31.51,5.55a1.77,1.77,0,0,0-.23-1.29c-.21-.23-.44-.24-.75.25a.27.27,0,0,0,.11.43c.21.13.87.61.87.61M28.46,9c-.34.16-.64,0,.15-.59a9.81,9.81,0,0,0,2.52-2.1,8.78,8.78,0,0,1-1.07-.81c-.34-.34.09-1.27.42-1.63.84-1,1.25-.33,1.35-.16a2.75,2.75,0,0,1,0,2.07,5,5,0,0,1,.42.35c.13.14.07.42-.1.93-.06.17-.25-.31-.71-.52-.35.75-.74,1.38-3,2.46m8.16-3.58c-.48.21-.69.19-1.29.41-.12,0-.27,0-.29-.07s.11-.24.21-.3,1.75-.9,1.76-1a3.16,3.16,0,0,0-1-.31,1.71,1.71,0,0,0-1.11.26,1.09,1.09,0,0,0-.37.37c-.08.12-.16,0-.12-.15l.14-.31a1.66,1.66,0,0,1,1.68-1,7.27,7.27,0,0,1,1.29.36c.12,0,.55.07.58.19a1.88,1.88,0,0,1-.36.8c-.06,0-.12,0-.17.06a3.57,3.57,0,0,1-1,.65m-6,7.87a8.21,8.21,0,0,1-1-.63.75.75,0,0,1-.1-.92C30,11,31.23,9.8,32,9.84c.43,0,.89.58.86.8s-.46,1-.68,1-.17-.6-.84-.7c-.22,0-.84.36-.86.56s.65.93,1.53,1a5.39,5.39,0,0,0,1.74-.15c.11,0,.17,0,.08.16a5.09,5.09,0,0,1-.55.84,6.83,6.83,0,0,0-1.74.43,10.62,10.62,0,0,0-2,.93.08.08,0,0,1-.11-.1c.07-.2.19-.53.28-.72a4.51,4.51,0,0,1,.93-.56m23.68-3.17c-.12-1.13-.6-4.63-.64-5.53,0-.49-.08-.91-.29-.53a2.68,2.68,0,0,0-.28,1.64c.1,1.24.21,2.16.33,3.05a42,42,0,0,1,.46,5.45c0,.45.16.56.3.24a11.09,11.09,0,0,0,.12-4.32M48.57,16a5,5,0,0,1-.41-.5h-.1l-.85.85,0,.16a4.33,4.33,0,0,0,.4.47,4.15,4.15,0,0,0,.51.43h.17l.85-.86v-.1a3.71,3.71,0,0,1-.54-.44m4-4.13a12.75,12.75,0,0,1-4.83-1c.16-.13.5-.57.37-1.67S47.51,5,47.51,5c0-.32-.16-.64,0-.8s.58-.46.36-.77a6,6,0,0,1-.73-1.23c-.1-.28-.18-.52-.32-.3s-.23.58-.45.88-.24.23-.11.46a4,4,0,0,1,.4,1.3c0,.21.07.66.13,1.09a45.84,45.84,0,0,1,.71,4.61s-3.17.11-3.59.52l-.64,1c0,.11,0,.23.11.21a7.6,7.6,0,0,1,4.84.45c-.32.11-3.94,1.66-7,1.31-.46,0-3.67-.43-3.94-2.06,0-.21-.09-.28-.2-.07a1.71,1.71,0,0,0,.41,2.47,5.25,5.25,0,0,1-2.44,2.7,5.7,5.7,0,0,1-3.94-.19c-.23-.08-.55.1-.22.33s3.6,2.31,5.72.12a9.62,9.62,0,0,0,1.49-2.64c2.17,1.18,5.77.53,5.77.53a16.11,16.11,0,0,0,2.46-.73c.44-.18,3.51-1.57,5.59-1.08a3,3,0,0,0,.53.11s.38-.8.46-1,.18-.31-.4-.34M36.72,7.51h-.09l-.86.86,0,.15a3.64,3.64,0,0,0,.4.48,3.35,3.35,0,0,0,.51.42h.17l.85-.85v-.1A3.79,3.79,0,0,1,37.13,8a4.83,4.83,0,0,1-.41-.49" transform="translate(0 0)"/></g></g></g></g></g></g></g></g></g></g></svg>