<svg xmlns="http://www.w3.org/2000/svg" xmlns:xlink="http://www.w3.org/1999/xlink" width="67.32" height="17.75" viewBox="0 0 67.32 17.75"><defs><style>.cls-1{fill:none;}.cls-2{clip-path:url(#clip-path);}.cls-3{fill:#231f20;}</style><clipPath id="clip-path" transform="translate(0 0)"><rect class="cls-1" width="67.32" height="17.75"/></clipPath></defs><g id="Layer_2" data-name="Layer 2"><g id="svg2"><g id="g10"><g id="g54"><g id="g56"><g id="g110"><g id="g124"><g class="cls-2"><g id="g122"><g id="g120"><path id="path118" class="cls-3" d="M19.94,14.62a3,3,0,0,1-.18.38c-.1.21-.24.26-.46.38s-4,1.7-4.15,1.76c-.41.21-.35.07-.3-.07s0-.15.1-.35.14-.26.42-.39,4-1.68,4.28-1.82c.42-.22.35,0,.29.11M17,9.09c.5-.25.87-.18,1.08.21s.64,1.26.29,1.16-1.53-.37-1.84-.82A1.6,1.6,0,0,1,17,9.09m-1.2,1.72.09.11a7.65,7.65,0,0,0,2.42.94c.34,0,.38,0,.51-.25a3.79,3.79,0,0,0,.3-.9,8.62,8.62,0,0,0-.21-2.36,1,1,0,0,0-1.41-.58,10.68,10.68,0,0,0-1.73,2.16,2.12,2.12,0,0,1-2.79.8,5.25,5.25,0,0,0,.27-.91c.09-.45-.28-.36-.38,0s-.39,1.07-.54,1.43c-.34.79-1.36,0-1.64-.25A4.76,4.76,0,0,0,11,10c.06-.26-.14-.59-.37-.05S9.53,12,7.22,11.1c-.22-.63-.48-1.21-.48-1.21-.11-.26-.23-.43-.3-.3S6,10.82,6,10.82c.26.47,1.19,2.94,1,3.34S5.7,16.5,2.63,16c-.32-.05-3.41-.84-1.44-4.26.06-.12,0-.39-.28-.12s-2.32,4.38.85,5.52a5.19,5.19,0,0,0,5-1.17,4.46,4.46,0,0,0,.79-3.29A3.19,3.19,0,0,0,10,11.84a2.18,2.18,0,0,0,1.45,1.06c.27,0,.39.06.56-.21s.27-.48.38-.71a2.29,2.29,0,0,0,2.32,0,3.93,3.93,0,0,0,1-1.2M38.24,9.66a13.06,13.06,0,0,1-.13,4.66c-.14.34-.31.21-.3-.27a48.9,48.9,0,0,0-.46-5.87c-.11-.95-.23-1.95-.32-3.28a3.1,3.1,0,0,1,.28-1.77c.21-.41.27.05.29.57,0,1,.52,4.74.64,6m-2.3,2.22a5.32,5.32,0,0,1-.52.91,8,8,0,0,0-5.53,1.1,15.14,15.14,0,0,1-5.06,1.21c-3.09-.06-3-3.19-3.11-3.63s-1.31-7.88-1.46-8.39l.29-1c0-.1.08-.3.19-.11.35.61,1.43,8.5,1.84,10,1,3.91,8.21.44,8.54.29-3.46-1.25-4.93-.55-5.13-.48s-.26,0-.2-.15a4.23,4.23,0,0,1,.68-1.16c.63-.39,3.22-.3,3.38-.57.06-.12-1.15-6.08-1.18-6.32a4.16,4.16,0,0,0-.59-1.36c-.17-.25,0-.34.09-.52.23-.34.29-.52.46-.81s.25,0,.38.31a6.44,6.44,0,0,0,.89,1.26c.27.33-.22.73-.41.93s-.14.26-.08.63c0,0,.81,3.46.91,4a4.08,4.08,0,0,1-.19,2.72,20.06,20.06,0,0,0,5.54.82c.39,0,.34.18.27.34M22.6,2.66s0-.14.09-.35.15-.25.43-.39S27.13.24,27.4.1c.42-.22.35,0,.29.11L27.51.6C27.4.8,27.27.85,27,1S23,2.67,22.9,2.73c-.42.21-.35.07-.3-.07m4.07,4.11h-.09l-.85.85,0,.16a4.22,4.22,0,0,0,.39.47,4,4,0,0,0,.52.42h.17l.84-.85v-.1a2.88,2.88,0,0,1-.54-.44,4.84,4.84,0,0,1-.42-.5M55.75,4.71a.27.27,0,0,1-.11-.43c.31-.49.54-.48.75-.25a1.77,1.77,0,0,1,.23,1.29l-.87-.61m.84,1.62c.46.21.65.69.71.52.17-.51.23-.79.1-.93A4.46,4.46,0,0,0,57,5.58a2.78,2.78,0,0,0,0-2.08c-.1-.17-.51-.8-1.35.16-.34.36-.76,1.29-.42,1.63a9,9,0,0,0,1.06.81,9.36,9.36,0,0,1-2.51,2.1c-.79.56-.49.76-.15.59,2.28-1.08,2.67-1.71,3-2.46m-47-2.84c-.19-.13-.19-.27-.1-.4.29-.46.5-.44.7-.23A1.59,1.59,0,0,1,10.35,4s-.6-.43-.8-.55M10.33,5c.42.19.6.64.65.47.16-.46.22-.72.1-.85s-.39-.32-.39-.32a2.54,2.54,0,0,0,0-1.91c-.1-.16-.47-.74-1.25.14C9.09,2.85,8.7,3.7,9,4a8,8,0,0,0,1,.75A8.69,8.69,0,0,1,7.68,6.7c-.73.52-.46.7-.14.55C9.64,6.25,10,5.67,10.33,5m33.19-.29a.27.27,0,0,1-.12-.43c.32-.49.55-.48.76-.25a1.83,1.83,0,0,1,.23,1.29s-.66-.48-.87-.61m.84,1.62c.46.21.65.69.71.52.17-.51.23-.79.1-.93a5,5,0,0,0-.42-.35,2.76,2.76,0,0,0,0-2.07c-.1-.17-.5-.8-1.35.16C43,4,42.6,4.93,42.93,5.27A9.67,9.67,0,0,0,44,6.08a9.55,9.55,0,0,1-2.51,2.1c-.79.56-.5.75-.15.59,2.28-1.08,2.67-1.71,3-2.46m6.09-1.77s.11,0,.16-.06a1.66,1.66,0,0,0,.36-.8c0-.12-.45-.17-.58-.19a7.41,7.41,0,0,0-1.28-.36,1.68,1.68,0,0,0-1.69,1c0,.09-.09.22-.13.31s0,.27.12.15a1.16,1.16,0,0,1,.36-.37A1.74,1.74,0,0,1,48.89,4a3.08,3.08,0,0,1,1,.31c0,.07-1.51.82-1.75,1s-.23.18-.21.3.17.11.29.07c.59-.22.81-.2,1.29-.41a3.57,3.57,0,0,0,1-.65m-7.87,9.08a6.3,6.3,0,0,0-.28.72.08.08,0,0,0,.11.1,10.62,10.62,0,0,1,2-.93,6.73,6.73,0,0,1,1.74-.43,5.09,5.09,0,0,0,.55-.84c.09-.13,0-.18-.08-.16a5.45,5.45,0,0,1-1.75.15c-.87-.07-1.55-.74-1.53-1s.64-.6.87-.56c.67.1.66.69.84.7s.65-.77.68-1-.43-.77-.87-.8c-.71,0-1.93,1.18-2.41,1.92a.75.75,0,0,0,.09.92,10.17,10.17,0,0,0,1,.63,4.72,4.72,0,0,0-.92.56M67.19,9.89c-.12-1.13-.6-4.63-.64-5.53,0-.49-.08-.91-.3-.53A2.76,2.76,0,0,0,66,5.47c.1,1.24.21,2.16.32,3.05A41.65,41.65,0,0,1,66.77,14c0,.45.16.56.3.24a11.09,11.09,0,0,0,.12-4.32m-5.74,5.86a6.4,6.4,0,0,1-.42-.49h-.09l-.85.85,0,.16a4.33,4.33,0,0,0,.4.47,4.15,4.15,0,0,0,.51.43h.17l.85-.86v-.1a3.71,3.71,0,0,1-.54-.44m4-4.13a12.75,12.75,0,0,1-4.83-1c.15-.13.49-.57.37-1.67s-.56-4.23-.56-4.23c0-.33-.17-.65,0-.81s.58-.46.36-.77A6,6,0,0,1,60,2c-.1-.28-.18-.52-.32-.3s-.23.58-.45.88-.24.23-.11.46a4,4,0,0,1,.4,1.3c0,.21.07.66.13,1.09A45.84,45.84,0,0,1,60.4,10s-3.18.11-3.59.52l-.64,1c-.05.11,0,.23.11.21a7.6,7.6,0,0,1,4.84.45c-.32.11-3.94,1.66-7,1.31-.46,0-3.67-.43-3.94-2.06,0-.21-.09-.28-.2-.07a1.7,1.7,0,0,0,.41,2.47A5.25,5.25,0,0,1,48,16.5a5.72,5.72,0,0,1-4-.19c-.22-.08-.54.1-.21.33s3.6,2.31,5.71.12A9.33,9.33,0,0,0,51,14.12c2.16,1.18,5.77.53,5.77.53a16.81,16.81,0,0,0,2.46-.73c.44-.18,3.51-1.57,5.59-1.08a3,3,0,0,0,.53.11s.38-.8.46-1,.18-.31-.4-.34M50,7.76a4.51,4.51,0,0,0,.54.44v.1l-.85.85h-.17A3.35,3.35,0,0,1,49,8.74a3.64,3.64,0,0,1-.4-.48l0-.15.85-.86h.1a4.72,4.72,0,0,0,.41.5" transform="translate(0 0)"/></g></g></g></g></g></g></g></g></g></g></svg>