<svg xmlns="http://www.w3.org/2000/svg" xmlns:xlink="http://www.w3.org/1999/xlink" width="65.84" height="17.43" viewBox="0 0 65.84 17.43"><defs><style>.cls-1{fill:none;}.cls-2{clip-path:url(#clip-path);}.cls-3{fill:#231f20;}</style><clipPath id="clip-path" transform="translate(0 0)"><rect class="cls-1" width="65.84" height="17.42"/></clipPath></defs><g id="Layer_2" data-name="Layer 2"><g id="svg2"><g id="g10"><g id="g50"><g id="g52"><g id="g90"><g id="g104"><g class="cls-2"><g id="g102"><g id="g100"><path id="path98" class="cls-3" d="M36,2.21c0-.53-.11-1-.3-.57a3.14,3.14,0,0,0-.23,1.79c.15,1.32.3,2.31.44,3.26a49.17,49.17,0,0,1,.67,5.85c0,.49.18.6.3.26a12.64,12.64,0,0,0,0-4.66c-.16-1.22-.77-5-.85-5.93M28.61,5.42a1.4,1.4,0,0,1,.13.54c-.3.3-.63.35-.86.15a.82.82,0,0,1-.2-.67c0-.22,0-.31-.16-.15s-.18.19-.2.3c-.08.73-.4,1.06-1,1.1-.35,0-.61-.23-.36-.92.05-.15-.06-.31-.21,0-.53,1.05-.21,1.63.33,1.71a1.16,1.16,0,0,0,1.22-.85.87.87,0,0,0,1,.34c.48-.12.58-.34.72-.73A2.38,2.38,0,0,0,29,4.78c0-.09-.08,0-.1,0l-.26.48a.16.16,0,0,0,0,.15m4.25-2.07a.61.61,0,0,1,.06-.4,5.16,5.16,0,0,0,.42-.66.68.68,0,0,0-.15-.51,4.57,4.57,0,0,1-.59-1c-.05-.2-.17-.43-.26-.24a4.22,4.22,0,0,1-.51.77.82.82,0,0,0,0,.73,2.66,2.66,0,0,1,.33.71c0,.21,0,.57.12,1s1.21,6.9,1.27,7.23.12.69-.23.78a7.88,7.88,0,0,1-2.09-.19c.11-.4.19-.73.21-.84.06-.29-.24-.2-.31,0s-.43,1.2-.58,1.68-1.21,0-1.6-.19a3.34,3.34,0,0,0,.38-1.12c.1-.44-.19-.32-.24-.14-.69,1.85-3.06,2-3.85,1.89A3.24,3.24,0,0,0,26,11c0-.28-.16-.35-.28-.07a3.06,3.06,0,0,1-2.93,1.87,2.2,2.2,0,0,1-2.37-2.2C20.31,9.93,19,1,18.89.7s-.17-.15-.2-.06l-.3,1c.1.63.83,5.69.95,6.5s.44,3.16.56,3.69a2.22,2.22,0,0,0,2.53,2.18,4.68,4.68,0,0,0,1.37-.3c2.38.34,3.71-.14,4.47-.8v0c.07.4,1.31.82,1.6.86s.38,0,.56-.28A10,10,0,0,0,31,12.32a6.31,6.31,0,0,0,1.19.57c.43.16,1.48.44,1.68,0A5.53,5.53,0,0,0,34,9.75c-.17-.82-1.14-6.4-1.14-6.4M12,6a8,8,0,0,0-.25,1,7.6,7.6,0,0,0,.16,1.68c0,.15-1.15,0-1.65-.17a5,5,0,0,0,.18-1c0-.27-.25-.57-.38,0S9.31,9.66,6.89,9.23c-.27-.54-.54-1-.54-1C6.2,8,6.07,7.82,6,8s-.28,1.29-.28,1.29c.32.45,1.55,2.86,1.43,3.28S6,15.08,2.86,14.91c-.33,0-3.57-.47-2-4.17.06-.13-.08-.4-.29-.09s-1.86,4.72,1.5,5.52a5.32,5.32,0,0,0,5-1.76,4.82,4.82,0,0,0,.39-3.67A3.35,3.35,0,0,0,9.64,9.61a3.44,3.44,0,0,0,1.5.52c.54.06.68-.15,1-.75a5,5,0,0,0,.06-3.25c-.15-.4-.18-.32-.26-.14M22.67,3.84c.14-.06,6.66-2.77,6.9-2.89s.36-.16.47-.36a4.19,4.19,0,0,0,.21-.38c.06-.15.14-.32-.29-.12s-6.74,2.82-7,3-.38.17-.44.37-.1.3-.12.34-.12.27.3.09m-4.37,11c-.28.13-3.67,1.54-4,1.66s-.38.17-.44.37-.1.3-.12.34-.13.27.3.09c.13-.06,3.6-1.49,3.83-1.61s.37-.15.48-.35a3.75,3.75,0,0,0,.2-.37c.07-.16.15-.33-.28-.13m-4.58-.94c-.33-.07-.33-1-.32-1.22s.21-.13.41-.08a14.66,14.66,0,0,0,3.4-.57c.23-.06.2-.28.15-.44A4.33,4.33,0,0,0,14.88,9l0-1.11.18-.14A4,4,0,0,1,17.45,10a4.89,4.89,0,0,1,.23,3,.56.56,0,0,1-.41.34,11.73,11.73,0,0,1-3.55.61M55.14,4.35a1.76,1.76,0,0,0-.22-1.29c-.21-.23-.44-.24-.76.25a.27.27,0,0,0,.11.43c.22.13.87.61.87.61m-3,3.47c-.34.17-.64,0,.15-.59a9.44,9.44,0,0,0,2.52-2.1,8.78,8.78,0,0,1-1.07-.81c-.34-.34.09-1.27.42-1.63.85-1,1.25-.33,1.35-.16a2.78,2.78,0,0,1,0,2.08s.33.24.43.34.07.42-.1.93c-.07.17-.26-.31-.71-.52-.36.75-.75,1.38-3,2.46M42.91,4.33A1.76,1.76,0,0,0,42.68,3c-.21-.23-.44-.24-.75.25a.27.27,0,0,0,.11.43c.21.13.87.61.87.61m-3,3.47c-.34.16-.64,0,.15-.59a9.64,9.64,0,0,0,2.52-2.1,8.78,8.78,0,0,1-1.07-.81c-.34-.34.09-1.27.42-1.63.84-1,1.25-.33,1.35-.16a2.75,2.75,0,0,1,0,2.07,5,5,0,0,1,.42.35c.13.14.08.42-.1.92-.06.18-.25-.3-.7-.51-.36.75-.75,1.38-3,2.46M49,3.57s.1,0,.16-.06a1.88,1.88,0,0,0,.36-.8c0-.12-.46-.17-.58-.2a8.19,8.19,0,0,0-1.29-.35,1.66,1.66,0,0,0-1.68,1l-.14.31c0,.16,0,.27.13.15a1.09,1.09,0,0,1,.36-.38A1.77,1.77,0,0,1,47.41,3a3.16,3.16,0,0,1,1,.31c0,.07-1.52.82-1.76,1s-.23.18-.2.3.16.11.28.07c.6-.22.81-.2,1.29-.41a4,4,0,0,0,1-.65M41.1,12.65c-.09.19-.21.52-.28.72a.08.08,0,0,0,.11.1,10.62,10.62,0,0,1,2-.93,6.83,6.83,0,0,1,1.74-.43,5.09,5.09,0,0,0,.55-.84c.09-.14,0-.18-.08-.16a5.39,5.39,0,0,1-1.74.15c-.87-.07-1.56-.74-1.53-1s.64-.6.87-.56c.66.1.65.69.83.7s.65-.77.68-1-.43-.77-.86-.8c-.72,0-1.94,1.18-2.42,1.92a.75.75,0,0,0,.1.92,8.21,8.21,0,0,0,1,.63,4.11,4.11,0,0,0-.93.56M65.71,8.92c-.12-1.13-.59-4.63-.64-5.53,0-.49-.08-.91-.29-.53A2.68,2.68,0,0,0,64.5,4.5c.1,1.24.21,2.16.33,3.05A40.25,40.25,0,0,1,65.29,13c0,.45.17.56.3.24a10.88,10.88,0,0,0,.12-4.32M60,14.78a4.75,4.75,0,0,1-.42-.49h-.1l-.84.85,0,.16a4.33,4.33,0,0,0,.4.47,4.15,4.15,0,0,0,.51.43h.17l.85-.86v-.1a3.18,3.18,0,0,1-.53-.44m4-4.13a12.75,12.75,0,0,1-4.83-1c.16-.13.5-.57.37-1.67s-.55-4.23-.55-4.23c0-.33-.17-.65,0-.82s.58-.45.36-.76A6,6,0,0,1,58.56,1c-.1-.28-.18-.52-.32-.3s-.23.58-.45.88c-.12.15-.24.23-.11.46a3.73,3.73,0,0,1,.4,1.3c0,.21.08.66.14,1.09A46.2,46.2,0,0,1,58.92,9s-3.17.11-3.59.51l-.63,1c-.06.11-.05.23.1.21a7.63,7.63,0,0,1,4.85.45c-.33.11-3.95,1.66-7,1.31-.46,0-3.67-.43-3.94-2.06,0-.21-.09-.28-.2-.08a1.72,1.72,0,0,0,.41,2.48,5.29,5.29,0,0,1-2.44,2.7,5.66,5.66,0,0,1-3.94-.2c-.22-.07-.55.11-.21.34S45.91,18,48,15.79a9.36,9.36,0,0,0,1.49-2.64c2.17,1.18,5.77.53,5.77.53A16.11,16.11,0,0,0,57.75,13c.44-.18,3.51-1.57,5.59-1.08a3.53,3.53,0,0,0,.53.1s.38-.79.46-1,.18-.31-.4-.34M48.12,6.29H48l-.85.86,0,.15a3.64,3.64,0,0,0,.4.48,3.42,3.42,0,0,0,.52.42h.16l.85-.85v-.1a3.75,3.75,0,0,1-.53-.44,4.84,4.84,0,0,1-.42-.5M7.9,2.27A1.67,1.67,0,0,0,7.7,1.1C7.51.9,7.3.88,7,1.33c-.09.13-.09.27.1.39s.79.55.79.55M5.14,5.42c-.31.14-.58,0,.13-.54A8.39,8.39,0,0,0,7.55,3a8.58,8.58,0,0,1-1-.73c-.3-.31.08-1.15.38-1.48C7.73-.1,8.1.47,8.19.62a2.56,2.56,0,0,1,0,1.88s.29.22.38.31.06.39-.09.84c-.06.16-.23-.27-.64-.47-.32.68-.68,1.26-2.74,2.24" transform="translate(0 0)"/></g></g></g></g></g></g></g></g></g></g></svg>