<svg xmlns="http://www.w3.org/2000/svg" xmlns:xlink="http://www.w3.org/1999/xlink" width="60.06" height="18.85" viewBox="0 0 60.06 18.85"><defs><style>.cls-1{fill:none;}.cls-2{clip-path:url(#clip-path);}.cls-3{fill:#231f20;}</style><clipPath id="clip-path" transform="translate(0 0)"><rect class="cls-1" width="60.06" height="18.85"/></clipPath></defs><g id="Layer_2" data-name="Layer 2"><g id="svg2"><g id="g10"><g id="g38"><g id="g40"><g id="g62"><g id="g76"><g class="cls-2"><g id="g74"><g id="g72"><path id="path70" class="cls-3" d="M2.29,1.43a.26.26,0,0,1-.1-.4c.29-.44.5-.43.69-.22A1.64,1.64,0,0,1,3.08,2s-.59-.43-.79-.54m.77,1.46c.41.19.58.63.64.47.16-.46.21-.72.09-.84a4.6,4.6,0,0,0-.38-.32,2.48,2.48,0,0,0,0-1.87C3.28.17,2.91-.4,2.15.47c-.31.33-.69,1.17-.39,1.47a7.9,7.9,0,0,0,1,.74A8.58,8.58,0,0,1,.45,4.58c-.71.51-.44.69-.13.54,2.06-1,2.42-1.55,2.74-2.23m29.31,7.33a15,15,0,0,1-.13,5c-.14.37-.31.24-.3-.28a54.48,54.48,0,0,0-.45-6.31c-.11-1-.23-2.09-.32-3.52a3.56,3.56,0,0,1,.29-1.91c.21-.44.27,0,.28.62.05,1,.52,5.09.63,6.4m-21.51,1a2.75,2.75,0,0,0,.53.44v.11l-.85.85h-.17a4,4,0,0,1-.51-.43,3,3,0,0,1-.4-.47l0-.15.85-.86h.09a3.89,3.89,0,0,0,.42.49m18.84.3a5.53,5.53,0,0,1-.18,3.12c-.2.46-1.26.18-1.68,0a6.19,6.19,0,0,1-1.2-.57,8.75,8.75,0,0,1-.51,1.25c-.19.29-.27.32-.56.28S24,15.12,24,14.72v0c-.76.66-2.09,1.14-4.47.8a4.81,4.81,0,0,1-1.37.3,2.23,2.23,0,0,1-2.54-2.18c-.12-.53-.43-2.88-.55-3.69s-.85-5.88-1-6.5l.3-1c0-.09.08-.26.21.06s1.41,9.23,1.49,9.9a2.2,2.2,0,0,0,2.36,2.2,3.07,3.07,0,0,0,2.94-1.87c.12-.28.31-.21.28.07a3.39,3.39,0,0,1-.76,1.8c.79.07,3.16,0,3.85-1.89.05-.17.34-.3.24.14a3.6,3.6,0,0,1-.38,1.12c.39.17,1.45.63,1.6.19s.52-1.51.58-1.68.36-.26.31,0c0,.12-.1.44-.22.84a7.52,7.52,0,0,0,2.09.19c.36-.09.29-.45.23-.78S28,6,27.93,5.46s-.08-.8-.12-1a2.92,2.92,0,0,0-.32-.71.76.76,0,0,1,0-.73A4.22,4.22,0,0,0,28,2.24c.09-.19.2,0,.25.24a5.5,5.5,0,0,0,.59,1A.68.68,0,0,1,29,4a6.56,6.56,0,0,1-.42.66.61.61,0,0,0-.06.4s1,5.58,1.14,6.4M13.43,13.17a2.63,2.63,0,0,1-.21.38c-.11.2-.24.23-.48.35s-3.69,1.55-3.82,1.6c-.43.19-.36.05-.3-.08l.11-.34c.07-.2.16-.26.45-.38s3.69-1.52,4-1.65.35,0,.28.12M18,5.24l.1-.35c.06-.2.15-.25.43-.38s6.3-2.58,6.57-2.71c.42-.22.35,0,.29.11s-.09.18-.19.38-.24.25-.47.37-6.3,2.6-6.43,2.66c-.42.19-.35,0-.3-.08M11,17.5c-.38.17-3.26,1-4.13,1.17-3.69.74-6.17-.81-6.39-4.2a8.87,8.87,0,0,1,2-6.06,3.6,3.6,0,0,1,.56-.63A.92.92,0,0,0,1.71,7.7c-.15.16-.26.06-.2-.2a2.16,2.16,0,0,1,2-1.89,2.85,2.85,0,0,1,2,.46c.49.35.17,1-.06,1.47A1.44,1.44,0,0,1,4.86,8c.3.16.53.29.6.31,2.67.89,5.85-.58,6-.69s-.59-1.19-1-1.69c0,0,.18-1,.23-1.22s.12-.2.26-.05a3.56,3.56,0,0,1,1,2.94c-.12.94-.35,1.06-.57,1.18a9.66,9.66,0,0,1-4.32,1c-2.2-.09-2.76-.57-3.31-1.2a5.67,5.67,0,0,0-2.6,3.72c-.49,2.59.29,4.22,2.32,4.82s6.61-.1,7.37-.17.5.31.12.49M24.17,7.09a2,2,0,0,1,.13.54.64.64,0,0,1-.87.15.82.82,0,0,1-.19-.67c0-.22,0-.3-.16-.14s-.18.18-.19.3c-.09.72-.4,1-1,1.08-.35,0-.61-.22-.36-.91.05-.15-.05-.31-.21,0-.52,1-.2,1.62.33,1.7a1.18,1.18,0,0,0,1.22-.84.86.86,0,0,0,1,.33c.47-.12.57-.34.71-.72a2.35,2.35,0,0,0-.05-1.45c0-.1-.08,0-.1,0l-.25.47c0,.06-.06.1,0,.15M48.49,5.38A.27.27,0,0,1,48.38,5c.31-.49.54-.48.75-.25A1.76,1.76,0,0,1,49.36,6s-.66-.48-.87-.61M49.33,7c.46.21.65.69.71.51.17-.5.23-.78.1-.92a5,5,0,0,0-.42-.35,2.75,2.75,0,0,0,0-2.07c-.1-.17-.51-.8-1.36.15-.33.37-.75,1.3-.42,1.63A8.48,8.48,0,0,0,49,6.76a9.36,9.36,0,0,1-2.51,2.11c-.79.56-.5.75-.15.59C48.59,8.38,49,7.75,49.33,7M36.26,5.36a.28.28,0,0,1-.12-.43c.32-.49.55-.48.76-.25A1.8,1.8,0,0,1,37.13,6s-.66-.47-.87-.6M37.1,7c.46.21.65.69.71.51.17-.5.23-.78.1-.92a5,5,0,0,0-.42-.35,2.77,2.77,0,0,0-.05-2.07c-.1-.17-.5-.8-1.35.15-.33.37-.75,1.3-.42,1.63a8.48,8.48,0,0,0,1.07.81,9.28,9.28,0,0,1-2.52,2.11c-.78.56-.49.75-.14.59,2.28-1.08,2.67-1.71,3-2.46M43.19,5.2c.05,0,.11,0,.16-.06a1.63,1.63,0,0,0,.36-.79c0-.13-.45-.17-.58-.2a8.42,8.42,0,0,0-1.28-.36,1.7,1.7,0,0,0-1.69,1L40,5.1c0,.16,0,.27.12.14a1.41,1.41,0,0,1,.36-.37,1.86,1.86,0,0,1,1.11-.26,3.68,3.68,0,0,1,1,.31c0,.08-1.52.83-1.75,1s-.23.18-.21.3.16.11.29.07c.59-.22.81-.21,1.29-.41a3.68,3.68,0,0,0,.95-.66m-7.87,9.08A5.91,5.91,0,0,0,35,15c0,.07,0,.16.11.11a10.62,10.62,0,0,1,2-.93,6,6,0,0,1,1.74-.43,5.55,5.55,0,0,0,.55-.84c.09-.14,0-.18-.08-.16a5.75,5.75,0,0,1-1.75.15c-.87-.08-1.55-.74-1.53-1s.64-.6.87-.56c.67.1.66.69.84.69s.65-.76.68-1-.43-.77-.87-.8c-.72,0-1.93,1.17-2.41,1.92a.74.74,0,0,0,.09.91,8.93,8.93,0,0,0,1,.64,4.22,4.22,0,0,0-.92.55m24.61-3.72c-.12-1.13-.6-4.63-.64-5.53,0-.49-.08-.92-.3-.54a2.8,2.8,0,0,0-.27,1.65c.1,1.23.21,2.16.32,3.05a41.65,41.65,0,0,1,.47,5.45c0,.44.16.56.3.24a11.11,11.11,0,0,0,.12-4.32m-5.74,5.86c-.15-.16-.29-.33-.42-.5h-.09l-.85.86,0,.15a3.64,3.64,0,0,0,.4.48,4.15,4.15,0,0,0,.51.43l.17,0,.85-.85v-.1a3.71,3.71,0,0,1-.54-.44m4-4.14a12.5,12.5,0,0,1-4.83-.95c.15-.13.49-.57.37-1.67s-.56-4.24-.56-4.24c0-.33-.17-.64,0-.81s.58-.45.35-.76a6.46,6.46,0,0,1-.72-1.23c-.1-.29-.18-.52-.32-.3A9.47,9.47,0,0,1,52,3.2c-.11.15-.24.23-.1.46A4,4,0,0,1,52.3,5c0,.21.07.66.13,1.09a45.84,45.84,0,0,1,.71,4.61s-3.18.11-3.59.51l-.64,1c0,.11,0,.23.11.21a7.6,7.6,0,0,1,4.84.45c-.32.11-3.94,1.66-7,1.31-.46,0-3.68-.43-3.94-2.07,0-.2-.09-.28-.2-.07a1.7,1.7,0,0,0,.41,2.47,5.27,5.27,0,0,1-2.44,2.71,5.69,5.69,0,0,1-3.95-.2c-.22-.07-.54.11-.21.33s3.6,2.32,5.71.12a9.09,9.09,0,0,0,1.5-2.63c2.16,1.18,5.77.53,5.77.53A16.34,16.34,0,0,0,52,14.59c.45-.18,3.52-1.57,5.6-1.08a3.27,3.27,0,0,0,.53.1l.46-1c.08-.19.18-.3-.4-.34M42.75,8.42a3.71,3.71,0,0,0,.54.44V9l-.85.85h-.17a3.42,3.42,0,0,1-.51-.43,3.55,3.55,0,0,1-.4-.47l0-.16.85-.85h.1a3.8,3.8,0,0,0,.41.49" transform="translate(0 0)"/></g></g></g></g></g></g></g></g></g></g></svg>