<svg xmlns="http://www.w3.org/2000/svg" xmlns:xlink="http://www.w3.org/1999/xlink" width="57.44" height="18.7" viewBox="0 0 57.44 18.7"><defs><style>.cls-1{fill:none;}.cls-2{clip-path:url(#clip-path);}.cls-3{fill:#231f20;}</style><clipPath id="clip-path" transform="translate(0 0)"><rect class="cls-1" width="57.44" height="18.7"/></clipPath></defs><g id="Layer_2" data-name="Layer 2"><g id="svg2"><g id="g10"><g id="g50"><g id="g52"><g id="g106"><g id="g120"><g class="cls-2"><g id="g118"><g id="g116"><path id="path114" class="cls-3" d="M20.32,6.85l-.78.93v.15a3.66,3.66,0,0,0,.44.44,3.87,3.87,0,0,0,.55.38l.17,0,.77-.93,0-.1a3.6,3.6,0,0,1-.57-.39,4,4,0,0,1-.46-.46Zm.33,3.07,0,.06-.39-.28a4.25,4.25,0,0,1-.47-.48h-.1l-.8.95v.17a3.82,3.82,0,0,0,.45.45,4.49,4.49,0,0,0,.57.4l.18,0,.75-.91.29.28a6.58,6.58,0,0,0,.57.4l.18,0,.79-1,0-.1A4.47,4.47,0,0,1,22,9.44,5.32,5.32,0,0,1,21.55,9h-.1ZM10.6,10c.51-.25.88-.18,1.08.21s.65,1.25.3,1.15-1.54-.37-1.85-.82A1.66,1.66,0,0,1,10.6,10m1.31,2.76c.34,0,.38,0,.51-.25a3.06,3.06,0,0,0,.3-.9,8.45,8.45,0,0,0-.2-2.35,1,1,0,0,0-1.41-.59,10.06,10.06,0,0,0-1.73,2.17,2.14,2.14,0,0,1-2.69.85c-.26-.55-.53-1-.53-1-.14-.25-.26-.41-.32-.27s-.27,1.29-.27,1.29A11.39,11.39,0,0,1,7,15c-.11.41-1.09,2.51-4.16,2.36-.32,0-3.27-.49-1.89-4.15,0-.13-.08-.39-.28-.09s-1.8,4.69,1.45,5.49a5.07,5.07,0,0,0,4.79-1.76,4.9,4.9,0,0,0,.38-3.61A2.31,2.31,0,0,0,8.37,13a4.26,4.26,0,0,0,1-1.21l.08.11a7.65,7.65,0,0,0,2.42.94m14.14-1.45a5.28,5.28,0,0,1-.47,3.28c-.74,1.07-2.06.13-2.33,0s-.5,0-.83.14A7.43,7.43,0,0,1,17.55,16c-2.27-.26-2.46-3-2.54-3.8s-.5-5.27-.86-6.66a4.85,4.85,0,0,1,.17-1.7c0-.26.17-.35.27,0s1,7.38,1.14,8.1c.34,2.39,1.76,2.53,2.25,2.65a8.09,8.09,0,0,0,4.79-1.25.88.88,0,0,1,.94,0,7,7,0,0,0,1.42.46c.46.07.49-.61.44-1.05s-1-5.76-1-6.09c-.09-.67-.2-1.16-.23-1.29-.09-.44-.09-.8-.12-1a2.76,2.76,0,0,0-.32-.71.8.8,0,0,1,0-.73,3.64,3.64,0,0,0,.52-.77c.09-.19.2,0,.25.24a5,5,0,0,0,.59,1,.66.66,0,0,1,.15.5,4.72,4.72,0,0,1-.42.67.57.57,0,0,0,0,.4s1,5.54,1.11,6.27M14,15.13a2.2,2.2,0,0,1-.19.38c-.1.21-.23.25-.46.37S9.18,17.64,9,17.71c-.42.19-.35.06-.3-.08s0-.15.11-.35S9,17,9.28,16.9s4.18-1.75,4.45-1.88c.42-.22.35,0,.28.11M16.39,2.82l.12-.35c.06-.2.15-.25.44-.37s4.53-1.88,4.8-2c.43-.2.35,0,.29.12l-.2.38c-.11.2-.25.24-.48.36s-4.53,1.89-4.67,2c-.42.18-.35.05-.3-.08m12.48,7.57a13.23,13.23,0,0,1,0,4.66c-.13.34-.3.22-.31-.26a47.18,47.18,0,0,0-.61-5.85C27.81,8,27.66,7,27.53,5.68a3.07,3.07,0,0,1,.24-1.78c.2-.42.27,0,.3.56.07,1,.64,4.72.8,5.93M3.44,9.4A3.71,3.71,0,0,0,4,9.84V10l-.85.85H3a4.15,4.15,0,0,1-.51-.43,4.33,4.33,0,0,1-.4-.47l0-.16.85-.85H3a5,5,0,0,0,.42.5M2.29,3.81c-.19-.12-.19-.26-.1-.39.29-.45.5-.43.69-.23a1.67,1.67,0,0,1,.2,1.17s-.59-.43-.79-.55m.77,1.47c.41.19.58.62.64.46.15-.45.21-.71.09-.83a4.6,4.6,0,0,0-.38-.32,2.53,2.53,0,0,0,0-1.87c-.09-.16-.46-.73-1.22.13-.3.33-.69,1.18-.38,1.48a6.93,6.93,0,0,0,1,.73A8.23,8.23,0,0,1,.45,7c-.71.51-.44.69-.13.54C2.38,6.53,2.74,6,3.06,5.28M20.94,3.66a1.61,1.61,0,0,1,.13.54.63.63,0,0,1-.86.14A.77.77,0,0,1,20,3.68c0-.22,0-.31-.16-.15s-.18.18-.2.3c-.09.72-.4,1-1,1.08-.35,0-.6-.22-.36-.91.05-.15-.05-.31-.21,0-.52,1-.2,1.62.33,1.7a1.16,1.16,0,0,0,1.22-.84.86.86,0,0,0,1,.33c.47-.12.57-.34.71-.72a2.33,2.33,0,0,0,0-1.45c0-.09-.08,0-.11,0L21,3.51a.16.16,0,0,0,0,.15M45.87,5.19a.28.28,0,0,1-.12-.43c.32-.49.55-.48.76-.25a1.76,1.76,0,0,1,.23,1.29s-.66-.48-.87-.61m.84,1.62c.46.21.65.69.71.51.17-.5.23-.78.1-.92a5,5,0,0,0-.42-.35,2.75,2.75,0,0,0,0-2.07c-.1-.17-.51-.8-1.35.15-.34.37-.76,1.3-.42,1.63a7.93,7.93,0,0,0,1.06.81,9.36,9.36,0,0,1-2.51,2.11c-.79.56-.49.75-.15.59,2.28-1.08,2.67-1.71,3-2.46M33.64,5.17a.28.28,0,0,1-.12-.43c.32-.49.55-.48.76-.25a1.82,1.82,0,0,1,.23,1.29s-.66-.48-.87-.61m.84,1.62c.46.21.65.69.71.51.17-.5.23-.78.1-.92S34.87,6,34.87,6a2.77,2.77,0,0,0,0-2.07c-.1-.17-.5-.8-1.35.15-.33.37-.75,1.3-.42,1.63a8.48,8.48,0,0,0,1.07.81,9.36,9.36,0,0,1-2.51,2.11c-.79.56-.5.75-.15.59,2.27-1.08,2.67-1.71,3-2.46M40.57,5A.27.27,0,0,0,40.73,5a1.73,1.73,0,0,0,.36-.79c0-.12-.45-.17-.58-.2a8.42,8.42,0,0,0-1.28-.36,1.7,1.7,0,0,0-1.69,1c0,.09-.09.22-.13.31s0,.27.12.15a1.31,1.31,0,0,1,.36-.38A1.88,1.88,0,0,1,39,4.42a3.7,3.7,0,0,1,1,.31c0,.08-1.51.83-1.75,1S38,5.89,38,6s.17.11.29.07c.59-.22.81-.2,1.29-.41a3.48,3.48,0,0,0,1-.66M32.7,14.09c-.1.2-.21.53-.29.72s0,.16.12.11a10.62,10.62,0,0,1,2-.93,6,6,0,0,1,1.74-.43,5.55,5.55,0,0,0,.55-.84c.09-.14,0-.18-.08-.16a5.45,5.45,0,0,1-1.75.15c-.87-.08-1.55-.74-1.53-1s.64-.59.87-.56c.67.11.66.7.84.7s.65-.76.68-1-.43-.77-.87-.8C34.23,10,33,11.24,32.53,12a.74.74,0,0,0,.09.91,10,10,0,0,0,1,.64,4.22,4.22,0,0,0-.92.55m24.61-3.72c-.12-1.13-.6-4.63-.64-5.53,0-.49-.08-.92-.3-.54A2.8,2.8,0,0,0,56.1,6c.09,1.23.21,2.16.32,3.05a41.65,41.65,0,0,1,.47,5.45c0,.44.16.56.3.24a11.09,11.09,0,0,0,.12-4.32m-5.74,5.86c-.15-.16-.29-.33-.42-.5h-.09l-.85.86,0,.16a4.33,4.33,0,0,0,.4.47,4.15,4.15,0,0,0,.51.43l.17,0,.85-.85v-.1a3.25,3.25,0,0,1-.54-.44m4-4.14a12.5,12.5,0,0,1-4.83-.95c.15-.13.49-.57.37-1.67s-.56-4.24-.56-4.24c0-.33-.17-.64,0-.81s.58-.45.36-.76a5.84,5.84,0,0,1-.73-1.24c-.1-.28-.18-.51-.32-.29s-.23.58-.45.88-.24.23-.11.46a4,4,0,0,1,.4,1.3c0,.21.07.66.13,1.09a45.84,45.84,0,0,1,.71,4.61s-3.18.11-3.59.51l-.64,1c0,.11,0,.23.11.21a7.6,7.6,0,0,1,4.84.45c-.32.11-3.94,1.66-7,1.31-.46,0-3.67-.43-3.94-2.06,0-.21-.09-.29-.2-.08a1.7,1.7,0,0,0,.41,2.47A5.27,5.27,0,0,1,38.07,17a5.69,5.69,0,0,1-4-.2c-.22-.07-.54.11-.21.34s3.6,2.31,5.71.12a9.33,9.33,0,0,0,1.5-2.64c2.16,1.18,5.77.53,5.77.53a16.81,16.81,0,0,0,2.46-.73c.44-.18,3.51-1.57,5.59-1.08a3.27,3.27,0,0,0,.53.1s.38-.79.46-1,.18-.3-.4-.34M40.13,8.23a4.6,4.6,0,0,0,.54.45v.1l-.85.85h-.17a3.42,3.42,0,0,1-.51-.43,3.55,3.55,0,0,1-.4-.47l0-.16.85-.85h.1a3.8,3.8,0,0,0,.41.49" transform="translate(0 0)"/></g></g></g></g></g></g></g></g></g></g></svg>