<svg xmlns="http://www.w3.org/2000/svg" xmlns:xlink="http://www.w3.org/1999/xlink" width="60.32" height="20.96" viewBox="0 0 60.32 20.96"><defs><style>.cls-1{fill:none;}.cls-2{clip-path:url(#clip-path);}.cls-3{fill:#231f20;}</style><clipPath id="clip-path" transform="translate(0 0)"><rect class="cls-1" width="60.32" height="20.96"/></clipPath></defs><g id="Layer_2" data-name="Layer 2"><g id="svg2"><g id="g10"><g id="g62"><g id="g64"><g id="g102"><g id="g116"><g class="cls-2"><g id="g114"><g id="g112"><path id="path110" class="cls-3" d="M14.53,6.26a5,5,0,0,1-.43,3.21c-.43.55-.6.75-1.13.63a3.6,3.6,0,0,1-1.42-.68,3.48,3.48,0,0,1-3.18.66,3.2,3.2,0,0,1-1.77.48A3.38,3.38,0,0,1,4.05,9.21l-.38.23a6.37,6.37,0,0,0-2.85,4.2c-.55,2.92.33,4.76,2.62,5.44s7.46-.11,8.32-.19.56.35.13.55-3.67,1.12-4.66,1.32C3.07,21.59.27,19.84,0,16A10.09,10.09,0,0,1,2.29,9.18a5.22,5.22,0,0,1,.64-.71,1,1,0,0,0-1.57-.1c-.17.19-.29.07-.22-.22A2.43,2.43,0,0,1,3.41,6a3.22,3.22,0,0,1,2.28.51c.55.41.19,1.16-.07,1.67a1.27,1.27,0,0,1-.48.41c.7.48,3.25,1.56,4.54-1.13.11-.25.31-.28.23.08a5.2,5.2,0,0,1-.48,1.35,2.06,2.06,0,0,0,2.76-1.64c.2-.56.43-.23.38,0a5.16,5.16,0,0,1-.29,1c.48.22,1.62.51,1.61.36a7.5,7.5,0,0,1,0-1.69,8.22,8.22,0,0,1,.36-.91c.1-.18.14-.26.24.17M29.1,13.07a6.53,6.53,0,0,1-.59,2.73c-.21.47-1,.21-1.5.11a4,4,0,0,1-1-.49,3.21,3.21,0,0,1-1.06.74c-.76.26-5.12,1.66-7.09,0-.44-.31-1.2-.88-1.24-3,0-.86-.44-5.61-.88-8.16A1.67,1.67,0,0,1,16,4.12c.18-.52.28-.15.39.16.58,1.33.88,8.34.91,8.8a2.52,2.52,0,0,0,1.92,2.34,9.67,9.67,0,0,0,5.94-.65,3.94,3.94,0,0,0,1.37-1c.17-.24.34-.26.29.1a3.31,3.31,0,0,1-.25.75,4.46,4.46,0,0,0,1.67.24c.37-.09.33-.6.27-.94s-1.2-6.81-1.31-7.34-.09-.82-.12-1a3.17,3.17,0,0,0-.34-.72.79.79,0,0,1,0-.74,4,4,0,0,0,.53-.77c.09-.21.21,0,.26.23a5.25,5.25,0,0,0,.61,1.05.66.66,0,0,1,.16.51,4.14,4.14,0,0,1-.43.67.55.55,0,0,0-.06.42s1.16,6,1.27,6.86m-14.84-.28a3.75,3.75,0,0,1-.2.37c-.11.21-.25.24-.48.36s-4.52,1.9-4.65,2c-.43.18-.35,0-.3-.09a3.35,3.35,0,0,0,.11-.34c.07-.2.15-.25.45-.37s4.51-1.88,4.79-2,.35,0,.28.13m4.63-7.67.1-.35c.06-.2.15-.25.44-.38S24.74,2.18,25,2.05c.43-.21.36,0,.29.12s-.09.17-.19.37-.25.25-.48.37S19.32,5.14,19.19,5.2c-.42.19-.35,0-.3-.08m12.9,6.37a13.68,13.68,0,0,1,.12,4.78c-.12.36-.3.24-.31-.25a51.76,51.76,0,0,0-.77-6c-.17-1-.34-2-.5-3.35a3.32,3.32,0,0,1,.18-1.83c.19-.43.28,0,.32.57.1,1,.78,4.83,1,6.07m-9,.61.18,0,.74-.91.29.27a4.12,4.12,0,0,0,.58.38l.17,0,.79-1,0-.1a4.81,4.81,0,0,1-.6-.4,4.27,4.27,0,0,1-.48-.47h-.1l-.79,1,0,0-.38-.27a3.51,3.51,0,0,1-.48-.46H22.5l-.78,1v.16a5,5,0,0,0,.47.45,3,3,0,0,0,.57.38M2.45,1.44a.26.26,0,0,1-.1-.4c.29-.45.5-.43.69-.22A1.66,1.66,0,0,1,3.25,2s-.6-.44-.8-.56m.78,1.48c.41.2.59.64.65.48.15-.46.21-.72.09-.85s-.39-.32-.39-.32a2.51,2.51,0,0,0,0-1.9C3.45.18,3.08-.4,2.3.47,2,.81,1.61,1.66,1.92,2a7,7,0,0,0,1,.74A8.62,8.62,0,0,1,.59,4.64c-.73.52-.45.7-.14.55,2.09-1,2.45-1.58,2.78-2.27M24,6.34a1.61,1.61,0,0,1,.13.54c-.3.29-.63.34-.86.14a.77.77,0,0,1-.19-.66c0-.22,0-.3-.16-.15s-.19.19-.2.3c-.09.72-.4,1-1,1.09-.35,0-.6-.23-.36-.92,0-.15-.05-.3-.21,0-.52,1.05-.2,1.63.33,1.71a1.18,1.18,0,0,0,1.22-.85.85.85,0,0,0,1,.34c.47-.12.57-.34.71-.73a2.38,2.38,0,0,0,0-1.44c0-.1-.08,0-.11,0l-.25.48a.16.16,0,0,0,0,.15m24.73.09A.28.28,0,0,1,48.63,6c.32-.49.55-.47.76-.25A1.83,1.83,0,0,1,49.62,7s-.66-.47-.87-.6M49.59,8c.46.22.65.7.71.52.17-.5.23-.79.1-.93S50,7.29,50,7.29a2.77,2.77,0,0,0,0-2.07c-.09-.17-.5-.8-1.35.15-.33.36-.75,1.29-.41,1.63a7.93,7.93,0,0,0,1.06.81,9.18,9.18,0,0,1-2.51,2.1c-.79.57-.49.76-.15.6,2.28-1.08,2.67-1.72,3-2.47M36.51,6.41A.29.29,0,0,1,36.4,6c.32-.49.55-.47.76-.25A1.83,1.83,0,0,1,37.39,7s-.66-.47-.88-.6M37.36,8c.45.21.65.7.71.52.17-.5.23-.79.1-.93s-.42-.34-.42-.34a2.77,2.77,0,0,0,0-2.07c-.1-.17-.5-.8-1.35.15C36,5.71,35.6,6.64,35.93,7A8.48,8.48,0,0,0,37,7.79a9.28,9.28,0,0,1-2.52,2.1c-.78.57-.49.76-.15.6C36.61,9.41,37,8.77,37.36,8m6.09-1.77a.29.29,0,0,0,.16-.06,1.77,1.77,0,0,0,.36-.8c0-.12-.45-.16-.58-.19a8.42,8.42,0,0,0-1.28-.36,1.71,1.71,0,0,0-1.69,1l-.13.32c0,.16,0,.26.12.14a1.27,1.27,0,0,1,.36-.37,1.73,1.73,0,0,1,1.11-.26,3.35,3.35,0,0,1,1,.31c0,.08-1.52.83-1.75,1s-.23.19-.21.31.16.11.29.06c.59-.21.8-.2,1.29-.4a4,4,0,0,0,1-.66m-7.88,9.08c-.09.19-.21.53-.28.72s0,.15.12.1a12.09,12.09,0,0,1,2-.93,6.73,6.73,0,0,1,1.74-.43,4.7,4.7,0,0,0,.55-.84c.09-.13,0-.17-.09-.15a5.65,5.65,0,0,1-1.74.15c-.87-.08-1.55-.75-1.53-1s.64-.59.87-.56c.67.11.66.69.84.7s.65-.76.68-1a1.07,1.07,0,0,0-.87-.8c-.72-.05-1.93,1.17-2.41,1.92a.74.74,0,0,0,.09.91,8.93,8.93,0,0,0,1,.64,4.53,4.53,0,0,0-.93.55M60.19,11.6c-.12-1.13-.6-4.62-.64-5.52,0-.5-.09-.92-.3-.54A2.72,2.72,0,0,0,59,7.19c.09,1.23.21,2.16.32,3a42,42,0,0,1,.47,5.46c0,.44.16.56.3.24a11.15,11.15,0,0,0,.12-4.33m-5.74,5.86A3.89,3.89,0,0,1,54,17h-.09l-.85.86,0,.15a3.47,3.47,0,0,0,.39.47,3.39,3.39,0,0,0,.52.43h.17L55,18V17.9a2.54,2.54,0,0,1-.54-.44m4-4.13a12.9,12.9,0,0,1-4.83-.95c.15-.14.49-.57.37-1.67s-.56-4.24-.56-4.24c0-.33-.17-.64,0-.81s.58-.46.35-.77A6.75,6.75,0,0,1,53,3.66c-.09-.28-.17-.51-.32-.29a7.29,7.29,0,0,1-.45.87c-.11.16-.24.23-.1.47a4,4,0,0,1,.4,1.3c0,.2.07.65.13,1.08a45.64,45.64,0,0,1,.71,4.62s-3.18.11-3.59.51l-.64,1c-.05.11-.05.23.1.2a7.72,7.72,0,0,1,4.85.45c-.32.11-3.95,1.66-7,1.32-.46,0-3.68-.44-3.94-2.07,0-.2-.09-.28-.2-.07a1.7,1.7,0,0,0,.41,2.47A5.31,5.31,0,0,1,41,18.22a5.75,5.75,0,0,1-4-.2c-.22-.07-.54.1-.21.33s3.6,2.31,5.71.12A9.21,9.21,0,0,0,44,15.83c2.17,1.18,5.78.53,5.78.53a15.57,15.57,0,0,0,2.46-.72c.44-.18,3.51-1.57,5.59-1.09a3,3,0,0,0,.53.11s.38-.8.46-1,.18-.3-.4-.34M43,9.47a3.25,3.25,0,0,0,.54.44V10l-.85.84-.17,0a3.42,3.42,0,0,1-.51-.43,4.33,4.33,0,0,1-.4-.47l0-.16L42.5,9h.09a5,5,0,0,0,.42.5" transform="translate(0 0)"/></g></g></g></g></g></g></g></g></g></g></svg>