<svg xmlns="http://www.w3.org/2000/svg" xmlns:xlink="http://www.w3.org/1999/xlink" width="26.91" height="10.38" viewBox="0 0 26.91 10.38"><defs><style>.cls-1{fill:none;}.cls-2{clip-path:url(#clip-path);}.cls-3,.cls-4{fill:#231f20;}.cls-3{fill-rule:evenodd;}</style><clipPath id="clip-path" transform="translate(0)"><rect class="cls-1" y="1.43" width="4.77" height="6.3"/></clipPath></defs><g id="Layer_2" data-name="Layer 2"><g id="Layer_1-2" data-name="Layer 1"><g id="g332"><g class="cls-2"><g id="g330"><g id="g328"><path id="path326" class="cls-3" d="M2.7,2.64a.61.61,0,0,0,.18.28A9.2,9.2,0,0,1,4.37,7.23c0,.12,0,.39.12.39s.18-.29.21-.39a7.2,7.2,0,0,0-.25-3.05A7.91,7.91,0,0,0,3.06,1.49S3,1.42,3,1.43A3.46,3.46,0,0,0,2.7,2.64M0,2.75A.53.53,0,0,0,.19,3,9.2,9.2,0,0,1,1.68,7.34c0,.12,0,.39.12.39S2,7.44,2,7.34a7.21,7.21,0,0,0-.25-3A8,8,0,0,0,.37,1.6S.3,1.53.27,1.55A3.36,3.36,0,0,0,0,2.75" transform="translate(0)"/></g></g></g></g><g id="g86"><g id="g100"><g id="g98"><g id="g96"><path id="path94" class="cls-4" d="M17,3.71l-.1,0h0l0,0-.39.52,0,0v.14l.63.56h.13l.41-.55V4.27ZM12.9,9l-.63-.55h-.12L11.74,9v.15l.63.56h.12l.41-.55V9ZM16.18,1.7l.15-.05h0a.53.53,0,0,1,.33-.25l.23,0h.19l.19,0,.17.07.12.06h0l-.15.08L16.5,2l-.06,0h0l-.07.05h0l-.06.06h0l0,.07v0l.07.09,0,0h.16l.21,0L17,2.27l.36-.13A2.43,2.43,0,0,0,17.77,2h0l.06,0h0l.08-.07L18,1.81l0,0h.09l.07,0h0l.1-.11h0l.07-.15.06-.17h0l0-.13v0l-.07-.07h0L18.26,1h0l-.12,0L18,1,17.86.88,17.68.8,17.5.73h0l-.22,0h0l-.19,0a.85.85,0,0,0-.72.39h0l-.11.2h0l-.09.22h0v.2Zm-4,.33.28.12h0V1.89l0-.14-.07-.11-.12,0-.15,0L12,1.7l-.07.09Zm-1.3,1.74-.16,0,0-.06,0-.08h0l.11-.09h0l.33-.2.33-.21.31-.25.26-.26-.25-.12-.26-.22h0l-.06-.16h0l0-.18h0l.12-.28.19-.28.24-.2.27-.08h0l.28.18.09.35h0V2l0,.26v0l.09.06h0l0,.08h0l0,.2h0l-.07.18h0l-.1.07,0,0-.07,0h0l-.05-.06,0,0L12.26,3l-.35.3a3.24,3.24,0,0,1-.83.42h0l-.19,0ZM21.11,8.5h0l-.51.17-.52.17L19.59,9l-.36.12h0l-.05,0h0l0,.06-.21.39v0L19,9.7l0,0h0l.91-.31,1-.32h0l0,0h0L21,9h0l.21-.4h0V8.49ZM26.9,5.88c0-.16,0-.3,0-.42,0-.31-.07-.63-.11-1l-.12-1c0-.32-.09-.65-.13-1s-.09-.63-.12-.94h0l0-.37V.88h0v0l0-.16L26.21.6h0l-.08.1h0l-.16.42-.08.27,0,.25v0h0c0,.32.07.64.11,1l.12,1,.12,1c0,.31.08.64.13,1s.07.62.1.92.05.6.07.9v0l.06.06.06.07.15-.19h0a1.83,1.83,0,0,0,.12-.41c0-.16,0-.32,0-.49v-.5Zm-1.62-.33h0l-.64,0a5.5,5.5,0,0,1-.77-.07l-.4-.08-.37-.1-.4-.13L22.33,5l.11-.24.08-.36V4.07l0-.31h0c0-.19-.05-.39-.08-.62s-.07-.44-.11-.65-.06-.39-.09-.55l-.06-.3V1.48l.07-.15.11-.15h0L22.44,1l0-.08-.07,0L22.24.75,22.1.54,22,.3,21.9.06l0-.06h-.22l-.34.73,0,.05.13.19.07.21.05.26,0,.25c.05.23.09.48.13.74s.09.52.13.78.08.52.11.75.05.42.06.59l0,.06-.15,0-.34,0-.38,0-.38,0-.35,0-.25,0h0l-.12,0h0v0l-.22.33a4,4,0,0,0-.18.36l0,0,0,.09,0,0h.06a4.51,4.51,0,0,1,.72,0,5.12,5.12,0,0,1,.69,0,5.63,5.63,0,0,1,.69.14c.15,0,.31.09.48.14a7.8,7.8,0,0,1-.88.31,6.83,6.83,0,0,1-1,.21,7,7,0,0,1-.85.09h-.94l-.17,0-.16,0-.15,0-.28-.16-.28-.29,0,0-.11,0h-.05l-.19.79,0,0,0,0,.29.31.31.2a4,4,0,0,1-.16.49,3.53,3.53,0,0,1-.28.5,3.16,3.16,0,0,1-.39.44,2.7,2.7,0,0,1-.5.37,4.57,4.57,0,0,1-.49.25,3.88,3.88,0,0,1-.45.14,2.32,2.32,0,0,1-.46.07h-.52l-.26.12v.16l.11.08h0l.39.13.37.08.34,0h.34a2.54,2.54,0,0,0,.54-.09,2.62,2.62,0,0,0,.52-.22,1.76,1.76,0,0,0,.69-.66A4.57,4.57,0,0,0,18,8.54h0c0-.15.09-.3.14-.47s.07-.3.1-.46l.25,0H19a6.28,6.28,0,0,0,.75,0c.29,0,.56-.09.83-.15s.54-.14.8-.22l.77-.29.64-.25a5,5,0,0,1,.63-.19,6.37,6.37,0,0,1,.65-.09h.12a3.21,3.21,0,0,1,.6.06h.13L25,6.41h0l.09-.16.11-.17.09-.17h0l.06-.13h0V5.62l-.07,0Zm-10,1a6,6,0,0,1-1.1.55A7.42,7.42,0,0,1,13,7.46a8.71,8.71,0,0,1-1.2.18l-.52,0a5.58,5.58,0,0,1-.7,0,2.13,2.13,0,0,1-.66-.16,1.93,1.93,0,0,1-.54-.35A1.73,1.73,0,0,1,9,6.57a1.9,1.9,0,0,1-.13-.73,2.34,2.34,0,0,1,.42-1.32l0,0h0l.17,0,0,.08,0,.16,0,0a1.54,1.54,0,0,0-.17.66v0A1.32,1.32,0,0,0,9.48,6a1,1,0,0,0,.33.38,1.56,1.56,0,0,0,.43.21,2.25,2.25,0,0,0,.52.08h.53c.33,0,.65,0,1,0s.62-.09.93-.15.6-.15.9-.25.61-.23.92-.37l.08-.08h0a1.85,1.85,0,0,0-.25-.53,4.45,4.45,0,0,0-.38-.48l0,0,0-.05.25-.75h.21l0,0a3.44,3.44,0,0,1,.44.68,2.21,2.21,0,0,1,.21.78h0v.27l0,.34-.08.32-.19.23Z" transform="translate(0)"/></g></g></g></g></g></g></svg>