<svg xmlns="http://www.w3.org/2000/svg" xmlns:xlink="http://www.w3.org/1999/xlink" width="27.87" height="10.38" viewBox="0 0 27.87 10.38"><defs><style>.cls-1{fill:none;}.cls-2{clip-path:url(#clip-path);}.cls-3,.cls-4{fill:#231f20;}.cls-3{fill-rule:evenodd;}</style><clipPath id="clip-path" transform="translate(0)"><rect class="cls-1" y="1.47" width="6.71" height="6.23"/></clipPath></defs><g id="Layer_2" data-name="Layer 2"><g id="Layer_1-2" data-name="Layer 1"><g id="g544"><g class="cls-2"><g id="g542"><g id="g540"><path id="path538" class="cls-3" d="M0,2.68A.61.61,0,0,0,.19,3a9.27,9.27,0,0,1,1.49,4.3c0,.13,0,.4.12.4s.18-.3.21-.4a7.17,7.17,0,0,0-.25-3A8,8,0,0,0,.37,1.52S.3,1.46.26,1.47A3.68,3.68,0,0,0,0,2.68m3.39.76c0,.73.26,1.28,1.08,1.28a1.39,1.39,0,0,0,.91-.35A7.28,7.28,0,0,0,6.2,7.63c.07.1.12.07.16,0s.27-.65.33-.82a.26.26,0,0,0,0-.24,10.8,10.8,0,0,1-1-3.22c-.16-.67-.31-1.78-1.12-1.78s-1.14,1-1.18,1.88m1.74-.1c0,.12-.29.2-.64.2s-.62-.13-.65-.37a.7.7,0,0,1,.55-.49,1.13,1.13,0,0,1,.74.66" transform="translate(0)"/></g></g></g></g><g id="g86"><g id="g100"><g id="g98"><g id="g96"><path id="path94" class="cls-4" d="M18,3.71l-.09,0h0v0l-.4.52v.16l.63.56h.13l.4-.55,0,0V4.27ZM13.86,9l-.62-.55h-.12L12.71,9l0,0v.13l.63.56h.13l.41-.55V9ZM17.14,1.7l.15-.05h0a.54.54,0,0,1,.32-.25l.24,0h.19l.18,0,.18.07.12.06h0l-.16.08L17.46,2l-.06,0h0l-.07.05h0l-.06.06h0l0,.07v0l.08.09v0h.16l.22,0L18,2.27l.36-.13A2,2,0,0,0,18.73,2h0l.06,0h0l.09-.07L19,1.81l0,0h.08l.08,0h0l.09-.11h0l.07-.15.06-.17h0l0-.13v0l-.07-.07h0L19.22,1h0l-.13,0L19,1,18.82.88,18.64.8,18.46.73h0l-.21,0h0l-.19,0a.83.83,0,0,0-.71.39h0l-.11.2h0l-.09.22h0v.2Zm-4,.33.27.12h0V1.89l0-.14-.06-.11-.12,0-.15,0L13,1.7l-.07.09Zm-1.3,1.74-.16,0,0-.06,0-.08h0l.12-.09h0l.34-.2.32-.21.32-.25.26-.26-.25-.12-.26-.22h0l-.06-.16h0l0-.18h0l.12-.28.18-.28.25-.2.26-.08h0l.27.18.09.35h0V2l0,.26v0l.08.06h0l0,.08h0l0,.2h0l-.07.18h0l-.1.07,0,0-.06,0h0l0-.06,0,0L13.23,3l-.35.3a3.26,3.26,0,0,1-.4.24,2.89,2.89,0,0,1-.44.18h0l-.19,0ZM22.07,8.5h0l-.51.17L21,8.84,20.55,9l-.35.12h0l0,0h0l0,.06-.21.39v0l.05.07,0,0h0l.91-.31,1-.32h0l0,0h0l0-.05h0l.21-.4h0l0,0V8.49h-.12Zm5.8-2.62a2.58,2.58,0,0,0,0-.42c0-.31-.06-.63-.1-1l-.12-1c-.05-.32-.09-.65-.14-1s-.08-.63-.11-.94h0l0-.37V.88h0v0l0-.16L27.18.6h0l-.08.1h0c0,.07-.08.2-.16.42l-.08.27,0,.25v0h0l.12,1,.12,1,.12,1c0,.31.08.64.12,1s.08.62.1.92.05.6.07.9v0l.06.06.07.07.14-.19h0a1.42,1.42,0,0,0,.12-.41,3.86,3.86,0,0,0,.06-.49v-.5Zm-1.62-.33h0l-.64,0a5.37,5.37,0,0,1-.76-.07l-.4-.08L24,5.27l-.39-.13L23.29,5l.11-.24.08-.36,0-.29V4.07l0-.31h0c0-.19-.05-.39-.09-.62s-.07-.44-.1-.65-.07-.39-.1-.55,0-.25-.05-.3V1.48l.07-.15.11-.15h0L23.41,1l0-.08-.07,0L23.2.75,23.06.54,23,.3,22.86.06l0-.06h-.21l-.34.73,0,.05L22.4,1l.06.21.05.26,0,.25c0,.23.09.48.13.74s.09.52.13.78.07.52.1.75,0,.42.07.59l0,.06-.15,0-.33,0-.38,0-.39,0-.34,0-.26,0h0l-.13,0h0v0l-.22.33a4,4,0,0,0-.18.36l0,0,0,.09,0,0h.05a4.72,4.72,0,0,1,.73,0,5.32,5.32,0,0,1,.69,0,5.87,5.87,0,0,1,.68.14,4.34,4.34,0,0,1,.48.14,7.68,7.68,0,0,1-.87.31,6.94,6.94,0,0,1-1,.21,6.7,6.7,0,0,1-.84.09h-.94l-.18,0-.15,0-.15,0-.28-.16-.28-.29,0,0-.11,0h-.05l-.2.79V7l0,0,.29.31.31.2a4,4,0,0,1-.17.49,3.46,3.46,0,0,1-.27.5,3.16,3.16,0,0,1-.39.44,2.78,2.78,0,0,1-.51.37,4.5,4.5,0,0,1-.48.25,3.88,3.88,0,0,1-.45.14,2.32,2.32,0,0,1-.46.07h-.52l-.27.12v.16l.1.08h0l.4.13.36.08.35,0h.34a2.54,2.54,0,0,0,.54-.09,2.62,2.62,0,0,0,.52-.22,1.91,1.91,0,0,0,.69-.66A5.29,5.29,0,0,0,19,8.54h0c0-.15.09-.3.13-.47s.07-.3.1-.46l.26,0h.45a6.06,6.06,0,0,0,.75,0q.43-.06.84-.15c.27-.06.53-.14.8-.22l.77-.29.64-.25a5.45,5.45,0,0,1,.62-.19A6.57,6.57,0,0,1,25,6.41h.12a3.29,3.29,0,0,1,.6.06h.13L26,6.41h0l.09-.16.1-.17.1-.17h0l.06-.13h0V5.62l-.07,0Zm-10,1a6.35,6.35,0,0,1-1.11.55,7,7,0,0,1-1.18.32,8.71,8.71,0,0,1-1.2.18l-.52,0a5.48,5.48,0,0,1-.7,0,2.06,2.06,0,0,1-.66-.16,1.79,1.79,0,0,1-.54-.35A1.58,1.58,0,0,1,10,6.57a1.9,1.9,0,0,1-.14-.73,2.36,2.36,0,0,1,.43-1.32l0,0h0l.16,0,0,.08,0,.16,0,0a1.41,1.41,0,0,0-.17.66v0a1.32,1.32,0,0,0,.12.57,1,1,0,0,0,.32.38,1.63,1.63,0,0,0,.44.21,2.09,2.09,0,0,0,.51.08h.54c.33,0,.65,0,1,0s.62-.09.92-.15a9.41,9.41,0,0,0,.91-.25c.3-.11.61-.23.92-.37l.08-.08h0a1.6,1.6,0,0,0-.24-.53c-.12-.17-.25-.33-.38-.48l0,0V4.68l.26-.75h.21l0,0a3.09,3.09,0,0,1,.45.68,2.21,2.21,0,0,1,.21.78h0v.27l0,.34-.09.32-.18.23Z" transform="translate(0)"/></g></g></g></g></g></g></svg>