<svg xmlns="http://www.w3.org/2000/svg" xmlns:xlink="http://www.w3.org/1999/xlink" width="25.86" height="10.38" viewBox="0 0 25.86 10.38"><defs><style>.cls-1{fill:none;}.cls-2{clip-path:url(#clip-path);}.cls-3,.cls-4{fill:#231f20;}.cls-3{fill-rule:evenodd;}</style><clipPath id="clip-path" transform="translate(0)"><rect class="cls-1" y="1.54" width="2.68" height="6.09"/></clipPath></defs><g id="Layer_2" data-name="Layer 2"><g id="Layer_1-2" data-name="Layer 1"><g id="g476"><g class="cls-2"><g id="g474"><g id="g472"><path id="path470" class="cls-3" d="M1.05,1.64A2,2,0,0,0,.32,4.5,10.44,10.44,0,0,1,1.53,7.37c0,.14.07.25.16.25a.18.18,0,0,0,.18-.22A6.61,6.61,0,0,0,.77,3.72a.83.83,0,0,1-.22-.47c0-.22.7-.38,1-.38s.65.06.86.06c0,0,0,0,0,0l.25-1.21a2.66,2.66,0,0,0-1.64-.07" transform="translate(0)"/></g></g></g></g><g id="g86"><g id="g100"><g id="g98"><g id="g96"><path id="path94" class="cls-4" d="M16,3.71l-.09,0h0l0,0-.39.52v.16l.63.56h.12l.41-.55V4.27ZM11.85,9l-.62-.55h-.12L10.7,9l0,0v.13l.63.56h.13l.4-.55,0,0V9ZM15.13,1.7l.15-.05h0a.54.54,0,0,1,.32-.25l.24,0h.19l.18,0,.17.07.13.06h0l-.16.08L15.45,2l-.06,0h0l-.07.05h0l-.06.06h0l0,.07v0l.08.09v0h.16l.22,0L16,2.27l.36-.13A2,2,0,0,0,16.72,2h0l.07,0h0l.09-.07L17,1.81l0,0h.08l.08,0h0l.1-.11h0l.07-.15.05-.17h0l0-.13v0l-.07-.07h0L17.21,1h0l-.13,0L17,1,16.81.88,16.63.8,16.45.73h0l-.21,0h0L16,.66a.83.83,0,0,0-.71.39h0l-.11.2h0l-.09.22h0v.2Zm-4,.33.27.12h0V1.89l0-.14-.07-.11-.11,0-.15,0-.14.07-.06.09ZM9.83,3.77l-.17,0,0-.06,0-.08h0l.12-.09h0l.34-.2.32-.21.31-.25.26-.26-.24-.12-.26-.22h0l-.06-.16h0V1.89h0l.13-.28.18-.28.25-.2.26-.08h0l.27.18.09.35h0l0,.21V2l0,.26v0l.08.06h0l0,.08h0l0,.2h0l-.07.18h0l-.1.07,0,0-.06,0h0l0-.06,0,0L11.22,3l-.35.3a4.23,4.23,0,0,1-.4.24,2.89,2.89,0,0,1-.44.18h0l-.19,0ZM20.06,8.5h0l-.51.17L19,8.84,18.54,9l-.35.12h0l0,0h0l0,.06-.21.39v0l.05.07,0,0h0l.91-.31,1-.32h0l0,0h0l0-.05h0l.22-.4h0v0l0-.06h-.12Zm5.8-2.62c0-.16,0-.3,0-.42,0-.31-.06-.63-.1-1s-.08-.65-.13-1-.08-.65-.13-1-.08-.63-.11-.94h0l0-.37V.88h0v0l0-.16L25.17.6h0l-.08.1h0l-.16.42-.09.27,0,.25v0h0l.12,1,.12,1,.12,1,.12,1c0,.31.08.62.1.92s.05.6.07.9v0l.06.06.06.07.15-.19h0a1.83,1.83,0,0,0,.12-.41,2.63,2.63,0,0,0,.05-.49v-.5Zm-1.62-.33h0l-.64,0a5.37,5.37,0,0,1-.76-.07l-.4-.08L22,5.27l-.39-.13L21.28,5l.11-.24.08-.36,0-.29V4.07l0-.31h0c0-.19,0-.39-.09-.62s-.07-.44-.1-.65-.07-.39-.1-.55,0-.25-.05-.3V1.48l.07-.15.1-.15h0L21.4,1l0-.08-.07,0L21.19.75,21.05.54,20.94.3,20.85.06l0-.06h-.22l-.33.73,0,.05.12.19.07.21.05.26.05.25c0,.23.09.48.13.74s.09.52.13.78.07.52.1.75.05.42.07.59l0,.06-.15,0-.33,0-.38,0-.39,0-.34,0-.26,0h0l-.13,0h0v0l-.22.33a4,4,0,0,0-.18.36l0,0,0,.09,0,0h.05a4.72,4.72,0,0,1,.73,0,5.32,5.32,0,0,1,.69,0,5.87,5.87,0,0,1,.68.14,4.34,4.34,0,0,1,.48.14,7.16,7.16,0,0,1-.88.31,6.54,6.54,0,0,1-1,.21,6.9,6.9,0,0,1-.84.09h-.94l-.18,0-.15,0-.15,0-.28-.16-.28-.29,0,0-.11,0h-.06l-.19.79V7l0,0,.3.31.3.2A2.81,2.81,0,0,1,16.6,8a3.53,3.53,0,0,1-.28.5,3.07,3.07,0,0,1-.38.44,2.78,2.78,0,0,1-.51.37,3.8,3.8,0,0,1-.49.25,3.88,3.88,0,0,1-.45.14,2.12,2.12,0,0,1-.45.07h-.52l-.27.12v.16l.1.08h0a3.7,3.7,0,0,0,.4.13l.36.08.35,0h.34a2.54,2.54,0,0,0,.54-.09,2.62,2.62,0,0,0,.52-.22,1.91,1.91,0,0,0,.69-.66,4.56,4.56,0,0,0,.4-.86h0c.05-.15.1-.3.14-.47s.07-.3.1-.46l.26,0h.45a6.06,6.06,0,0,0,.75,0q.43-.06.84-.15c.27-.06.53-.14.79-.22l.78-.29.64-.25a4.44,4.44,0,0,1,.62-.19A6.57,6.57,0,0,1,23,6.41h.12a3.38,3.38,0,0,1,.6.06h.13L24,6.41h0l.09-.16.1-.17.1-.17h0l.06-.13h0V5.62l-.07,0Zm-10,1a6.35,6.35,0,0,1-1.11.55,7.3,7.3,0,0,1-1.18.32,8.85,8.85,0,0,1-1.21.18l-.52,0a5.32,5.32,0,0,1-.69,0,2,2,0,0,1-.66-.16,1.68,1.68,0,0,1-.54-.35,1.58,1.58,0,0,1-.37-.54,1.9,1.9,0,0,1-.14-.73,2.36,2.36,0,0,1,.43-1.32l0,0h0l.17,0,0,.08,0,.16,0,0a1.41,1.41,0,0,0-.17.66v0A1.32,1.32,0,0,0,8.44,6a1,1,0,0,0,.32.38,1.63,1.63,0,0,0,.44.21,2.09,2.09,0,0,0,.51.08h.54c.33,0,.65,0,1,0s.62-.09.92-.15.6-.15.91-.25.6-.23.92-.37L14,5.79h0a1.6,1.6,0,0,0-.24-.53,4.54,4.54,0,0,0-.39-.48l0,0V4.68l.26-.75h.21l0,0a3.09,3.09,0,0,1,.45.68,2.45,2.45,0,0,1,.21.78h0v.27l0,.34-.09.32-.18.23Z" transform="translate(0)"/></g></g></g></g></g></g></svg>