<svg xmlns="http://www.w3.org/2000/svg" xmlns:xlink="http://www.w3.org/1999/xlink" width="28.39" height="10.38" viewBox="0 0 28.39 10.38"><defs><style>.cls-1{fill:none;}.cls-2{clip-path:url(#clip-path);}.cls-3,.cls-4{fill:#231f20;}.cls-3{fill-rule:evenodd;}</style><clipPath id="clip-path" transform="translate(0)"><rect class="cls-1" y="1.52" width="7.73" height="6.12"/></clipPath></defs><g id="Layer_2" data-name="Layer 2"><g id="Layer_1-2" data-name="Layer 1"><g id="g432"><g class="cls-2"><g id="g430"><g id="g428"><path id="path426" class="cls-3" d="M4,1.62A3.14,3.14,0,0,0,4,2.5a.89.89,0,0,0,.83.7,5.47,5.47,0,0,0,1.46-.1.12.12,0,0,1,.17.13,12.49,12.49,0,0,0,.11,2,6.83,6.83,0,0,0,.7,2.33c.07.14.17.16.21,0s.18-.57.26-.84a.41.41,0,0,0-.07-.35,10.08,10.08,0,0,1-.79-3.67c-.05-.5,0-1-.73-.9A5.53,5.53,0,0,1,5,1.88c-.37,0-.84-.13-.87-.27s0-.09-.09-.09S4,1.59,4,1.62m-2.94,0A2,2,0,0,0,.32,4.48,10.44,10.44,0,0,1,1.53,7.35c0,.14.07.26.16.26s.19-.06.18-.23A6.55,6.55,0,0,0,.77,3.71a.83.83,0,0,1-.22-.47c0-.23.7-.39,1-.39s.65.06.86.06c0,0,0,0,0,0l.24-1.21a2.63,2.63,0,0,0-1.63-.07" transform="translate(0)"/></g></g></g></g><g id="g86"><g id="g100"><g id="g98"><g id="g96"><path id="path94" class="cls-4" d="M18.48,3.71l-.09,0h0v0l-.4.52v.16l.63.56h.13l.4-.55,0,0V4.27ZM14.38,9l-.63-.55h-.12L13.22,9v.15l.63.56H14l.41-.55V9ZM17.65,1.7l.15-.05h0a.54.54,0,0,1,.32-.25l.24,0h.19l.18,0,.18.07.12.06h0l-.15.08L18,2l-.06,0h0l-.07.05h0l-.06.06h0l0,.07v0l.08.09,0,0H18l.21,0,.31-.08.36-.13A2,2,0,0,0,19.24,2h0l.06,0h0l.08-.07.07-.06,0,0h.09l.07,0h0l.1-.11h0l.07-.15.06-.17h0l0-.13v0l-.07-.07h0L19.73,1h0L19.6,1l-.08,0L19.33.88,19.16.8,19,.73h0l-.21,0h0l-.19,0a.85.85,0,0,0-.72.39h0l-.11.2h0l-.09.22h0v.2Zm-4,.33.28.12h0V1.89l0-.14-.06-.11-.12,0-.15,0-.13.07-.07.09Zm-1.3,1.74-.16,0,0-.06,0-.08h0l.12-.09h0l.34-.2L13,3.1l.32-.25.26-.26-.25-.12-.26-.22h0L13,2.08h0l0-.18h0l.12-.28.18-.28.25-.2.26-.08h0l.27.18.1.35h0V2l0,.26v0l.09.06h0l0,.08h0l0,.2h0l-.07.18h0l-.1.07,0,0-.07,0h0l0-.06,0,0L13.74,3l-.35.3a3.24,3.24,0,0,1-.83.42h0l-.19,0ZM22.59,8.5h0l-.51.17-.53.17L21.07,9l-.36.12h0l-.05,0h0l0,.06-.21.39v0l.06.07,0,0h0l.91-.31,1-.32h0l0,0h0l0-.05h0l.21-.4h0V8.49Zm5.79-2.62c0-.16,0-.3,0-.42,0-.31-.07-.63-.11-1l-.12-1c-.05-.32-.09-.65-.13-1s-.09-.63-.12-.94h0l0-.37V.88h0v0l0-.16L27.69.6h0l-.08.1h0l-.16.42-.08.27-.05.25v0h0l.12,1,.12,1,.12,1c0,.31.08.64.12,1s.08.62.11.92l.06.9v0l.06.06.06.07.14-.19h0a1.83,1.83,0,0,0,.12-.41c0-.16,0-.32.05-.49v-.5Zm-1.62-.33h0l-.65,0a5.5,5.5,0,0,1-.76-.07l-.4-.08-.37-.1-.4-.13L23.8,5l.12-.24L24,4.43V4.07l0-.31h0c0-.19,0-.39-.08-.62s-.07-.44-.11-.65-.06-.39-.09-.55l-.06-.3V1.48l.07-.15.11-.15h0L23.92,1,24,1l-.07,0L23.71.75,23.58.54,23.47.3,23.38.06l0-.06h-.22L22.8.73l0,.05.13.19.07.21.05.26,0,.25c.05.23.09.48.13.74s.09.52.13.78.07.52.11.75,0,.42.06.59l0,.06-.15,0-.34,0-.38,0-.38,0-.35,0-.25,0h0l-.13,0h0v0l-.22.33a4,4,0,0,0-.18.36l0,0,0,.09,0,0h.06a4.51,4.51,0,0,1,.72,0,5.32,5.32,0,0,1,.69,0,5.47,5.47,0,0,1,.68.14c.16,0,.32.09.49.14a8.56,8.56,0,0,1-.88.31,6.94,6.94,0,0,1-1,.21,6.7,6.7,0,0,1-.84.09H20.1l-.18,0-.15,0-.15,0-.28-.16-.28-.29,0,0-.11,0h-.05l-.2.79V7l0,0L19,7.3l.31.2a4,4,0,0,1-.17.49,2.7,2.7,0,0,1-.27.5,3.16,3.16,0,0,1-.39.44,2.7,2.7,0,0,1-.5.37,4.57,4.57,0,0,1-.49.25,3.88,3.88,0,0,1-.45.14,2.32,2.32,0,0,1-.46.07H16l-.27.12v.16l.11.08h0l.39.13.37.08.34,0h.34a2.54,2.54,0,0,0,.54-.09,2.62,2.62,0,0,0,.52-.22,1.83,1.83,0,0,0,.69-.66,4.57,4.57,0,0,0,.41-.86h0c0-.15.09-.3.14-.47s.07-.3.09-.46l.26,0h.46a6.28,6.28,0,0,0,.75,0c.28,0,.56-.09.83-.15s.54-.14.8-.22l.77-.29.64-.25a5,5,0,0,1,.63-.19,6,6,0,0,1,.65-.09h.12a3.21,3.21,0,0,1,.6.06h.13l.09-.07h0l.09-.16.1-.17.1-.17h0l.06-.13h0V5.62l-.07,0Zm-10,1a5.73,5.73,0,0,1-1.11.55,7,7,0,0,1-1.18.32,8.71,8.71,0,0,1-1.2.18l-.52,0a5.48,5.48,0,0,1-.7,0,2.13,2.13,0,0,1-.66-.16,1.79,1.79,0,0,1-.54-.35,1.73,1.73,0,0,1-.37-.54,1.9,1.9,0,0,1-.13-.73,2.34,2.34,0,0,1,.42-1.32l0,0h0l.17,0v.08l0,.16,0,0a1.41,1.41,0,0,0-.17.66v0A1.32,1.32,0,0,0,11,6a1.11,1.11,0,0,0,.32.38,1.78,1.78,0,0,0,.44.21,2.25,2.25,0,0,0,.52.08h.53c.33,0,.65,0,1,0l.93-.15c.3-.07.6-.15.9-.25s.61-.23.92-.37l.08-.08h0a1.85,1.85,0,0,0-.25-.53,4.45,4.45,0,0,0-.38-.48l0,0,0-.05.25-.75h.21l0,0a3.09,3.09,0,0,1,.45.68,2.21,2.21,0,0,1,.21.78h0v.27l0,.34-.08.32-.19.23Z" transform="translate(0)"/></g></g></g></g></g></g></svg>