<svg xmlns="http://www.w3.org/2000/svg" xmlns:xlink="http://www.w3.org/1999/xlink" width="28.22" height="10.38" viewBox="0 0 28.22 10.38"><defs><style>.cls-1{fill:none;}.cls-2{clip-path:url(#clip-path);}.cls-3,.cls-4{fill:#231f20;}.cls-3{fill-rule:evenodd;}</style><clipPath id="clip-path" transform="translate(0)"><rect class="cls-1" y="1.51" width="7.39" height="6.14"/></clipPath></defs><g id="Layer_2" data-name="Layer 2"><g id="Layer_1-2" data-name="Layer 1"><g id="g400"><g class="cls-2"><g id="g398"><g id="g396"><path id="path394" class="cls-3" d="M4.88,1.76A7.94,7.94,0,0,1,3.37,6.08a.34.34,0,0,0-.1.23c0,.39,0,.87.06,1.2s.13.19.26,0a8.53,8.53,0,0,0,1.58-4,12.47,12.47,0,0,0,2,4c.08.13.13.05.14-.09a8.1,8.1,0,0,0,.08-1c0-.07,0-.12,0-.16A18.46,18.46,0,0,1,5.21,1.72c0-.14-.09-.21-.18-.21s-.14.12-.15.25M1.05,1.63A2,2,0,0,0,.32,4.49,10.44,10.44,0,0,1,1.53,7.36c0,.15.07.26.16.26a.19.19,0,0,0,.18-.22A6.58,6.58,0,0,0,.77,3.72a.83.83,0,0,1-.22-.47c0-.23.7-.38,1-.38s.65,0,.87,0h0L2.68,1.7a2.7,2.7,0,0,0-1.63-.07" transform="translate(0)"/></g></g></g></g><g id="g86"><g id="g100"><g id="g98"><g id="g96"><path id="path94" class="cls-4" d="M18.32,3.71l-.1,0h0l0,0-.39.52,0,0v.14L18.4,5h.13l.41-.55V4.27ZM14.21,9l-.63-.55h-.12L13.05,9v.15l.63.56h.13l.4-.55,0,0V9ZM17.49,1.7l.15-.05h0A.53.53,0,0,1,18,1.38l.23,0h.19l.19,0,.17.07.13.06h0l-.16.08L17.81,2l-.06,0h0l-.07.05h0l-.06.06h0l0,.07v0l.07.09,0,0h.16l.21,0,.32-.08.36-.13A2.83,2.83,0,0,0,19.08,2h0l.06,0h0l.08-.07.08-.06,0,0h.09l.07,0h0l.1-.11h0l.07-.15.06-.17h0l0-.13v0l-.06-.07h0L19.57,1h0l-.12,0-.09,0L19.17.88,19,.8,18.81.73h0l-.22,0h0l-.19,0a.85.85,0,0,0-.72.39h0l-.11.2h0l-.09.22h0v.2Zm-4,.33.28.12h0V1.89l0-.14-.07-.11-.12,0-.15,0-.13.07-.07.09Zm-1.3,1.74-.16,0,0-.06,0-.08h0l.11-.09h0l.34-.2.32-.21.31-.25.26-.26-.25-.12-.26-.22h0l-.06-.16h0l0-.18h0L13,1.61l.19-.28.24-.2.27-.08h0l.28.18.09.35h0V2l0,.26v0l.09.06h0l0,.08h0l0,.2h0l-.08.18h0l-.1.07,0,0-.07,0h0l0-.06,0,0L13.57,3l-.35.3a3.24,3.24,0,0,1-.83.42h0l-.19,0ZM22.42,8.5h0l-.52.17-.52.17L20.9,9l-.36.12h0l-.05,0h0l0,.06-.21.39v0l.06.07,0,0h0l.9-.31,1-.32h0l0,0h0l0-.05h0l.21-.4h0V8.49Zm5.8-2.62q0-.24,0-.42c0-.31-.07-.63-.11-1l-.12-1c0-.32-.09-.65-.13-1s-.09-.63-.12-.94h0l0-.37V.88h0v0l0-.16L27.52.6h0L27.4.7h0a3.34,3.34,0,0,0-.17.42l-.08.27,0,.25v0h0c0,.32.07.64.11,1l.12,1,.12,1c0,.31.08.64.13,1s.07.62.1.92,0,.6.07.9v0l.06.06.06.07L28,7.29h0a1.83,1.83,0,0,0,.12-.41c0-.16,0-.32.05-.49v-.5Zm-1.63-.33h0l-.64,0a5.5,5.5,0,0,1-.77-.07l-.4-.08-.37-.1L24,5.14,23.64,5l.11-.24.08-.36V4.07l0-.31h0c0-.19-.05-.39-.08-.62s-.07-.44-.11-.65-.06-.39-.09-.55l-.06-.3V1.48l.07-.15.11-.15h0L23.75,1,23.8,1l-.07,0L23.55.75,23.41.54,23.3.3,23.21.06l0-.06H23l-.34.73,0,.05.13.19.07.21.05.26,0,.25c.05.23.09.48.14.74l.12.78c0,.26.08.52.11.75s.05.42.06.59l0,.06-.15,0-.34,0-.38,0-.38,0-.35,0-.25,0h0l-.12,0h0l0,0-.22.33a4,4,0,0,0-.18.36l0,0,0,.09,0,0H21a4.56,4.56,0,0,1,.73,0,5.07,5.07,0,0,1,.68,0,5.63,5.63,0,0,1,.69.14c.15,0,.31.09.48.14a7.8,7.8,0,0,1-.88.31,6.83,6.83,0,0,1-1,.21,7,7,0,0,1-.85.09h-.94l-.17,0-.16,0-.14,0-.29-.16-.28-.29,0,0-.11,0H18.7l-.19.79V7l0,0,.29.31.31.2A4,4,0,0,1,19,8a3.53,3.53,0,0,1-.28.5,3.16,3.16,0,0,1-.39.44,2.7,2.7,0,0,1-.5.37,4.57,4.57,0,0,1-.49.25,3.88,3.88,0,0,1-.45.14,2.34,2.34,0,0,1-.45.07h-.53l-.26.12v.16l.11.08h0l.39.13.37.08.34,0h.34a2.54,2.54,0,0,0,.54-.09,2.62,2.62,0,0,0,.52-.22,1.76,1.76,0,0,0,.69-.66,4.57,4.57,0,0,0,.41-.86h0c.05-.15.09-.3.14-.47s.07-.3.1-.46l.25,0h.46a6.17,6.17,0,0,0,.75,0c.29,0,.56-.09.83-.15s.54-.14.8-.22l.77-.29.64-.25a5,5,0,0,1,.63-.19,6.37,6.37,0,0,1,.65-.09h.12a3.21,3.21,0,0,1,.6.06h.14l.08-.07h0l.09-.16.11-.17.09-.17h0l.06-.13h0V5.62l-.07,0Zm-10,1a6.35,6.35,0,0,1-1.11.55,7.15,7.15,0,0,1-1.19.32,8.71,8.71,0,0,1-1.2.18l-.52,0a5.58,5.58,0,0,1-.7,0,2.13,2.13,0,0,1-.66-.16,1.93,1.93,0,0,1-.54-.35,1.73,1.73,0,0,1-.37-.54,1.9,1.9,0,0,1-.13-.73,2.34,2.34,0,0,1,.42-1.32l0,0h0l.17,0,0,.08,0,.16,0,0a1.7,1.7,0,0,0-.17.66v0a1.32,1.32,0,0,0,.12.57,1,1,0,0,0,.33.38,1.72,1.72,0,0,0,.43.21,2.25,2.25,0,0,0,.52.08h.53c.33,0,.65,0,1,0s.62-.09.93-.15.6-.15.9-.25.61-.23.92-.37l.08-.08h0a1.85,1.85,0,0,0-.25-.53,4.45,4.45,0,0,0-.38-.48l0,0,0-.05L16,3.93h.21l0,0a3.44,3.44,0,0,1,.44.68,2.21,2.21,0,0,1,.21.78h0v.27l0,.34-.08.32-.18.23Z" transform="translate(0)"/></g></g></g></g></g></g></svg>