<svg xmlns="http://www.w3.org/2000/svg" xmlns:xlink="http://www.w3.org/1999/xlink" width="28.09" height="10.38" viewBox="0 0 28.09 10.38"><defs><style>.cls-1{fill:none;}.cls-2{clip-path:url(#clip-path);}.cls-3,.cls-4{fill:#231f20;}.cls-3{fill-rule:evenodd;}</style><clipPath id="clip-path" transform="translate(0)"><rect class="cls-1" y="1.51" width="7.13" height="6.14"/></clipPath></defs><g id="Layer_2" data-name="Layer 2"><g id="Layer_1-2" data-name="Layer 1"><g id="g384"><g class="cls-2"><g id="g382"><g id="g380"><path id="path378" class="cls-3" d="M3.83,3.39c0,.73.26,1.28,1.07,1.28a1.39,1.39,0,0,0,.91-.34,7.45,7.45,0,0,0,.81,3.26c.08.1.12.06.17,0s.27-.65.32-.82a.28.28,0,0,0,0-.25,10.44,10.44,0,0,1-1-3.22C6,2.62,5.81,1.51,5,1.51s-1.15,1-1.18,1.88m1.74-.1c0,.13-.3.21-.64.21s-.62-.14-.65-.37a.69.69,0,0,1,.55-.5,1.2,1.2,0,0,1,.74.66M1.05,1.62A2,2,0,0,0,.32,4.48,10.15,10.15,0,0,1,1.53,7.35c.05.15.07.26.16.26a.19.19,0,0,0,.18-.22A6.58,6.58,0,0,0,.77,3.71a.82.82,0,0,1-.21-.47c0-.23.69-.38,1-.38s.65.05.87.05c0,0,0,0,0,0l.25-1.21a2.74,2.74,0,0,0-1.64-.07" transform="translate(0)"/></g></g></g></g><g id="g86"><g id="g100"><g id="g98"><g id="g96"><path id="path94" class="cls-4" d="M18.19,3.71l-.1,0h0l0,0-.4.52v.16l.63.56h.13l.41-.55V4.27ZM14.08,9l-.63-.55h-.12L12.92,9v.15l.63.56h.12l.41-.55V9ZM17.35,1.7l.16-.05h0a.54.54,0,0,1,.32-.25l.24,0h.19l.19,0,.17.07.12.06h0l-.15.08L17.67,2l-.06,0h0l-.07.05h0l-.06.06h0l0,.07v0l.07.09,0,0h.16l.21,0,.31-.08.36-.13A2.43,2.43,0,0,0,19,2h0l.06,0h0l.08-.07.07-.06,0,0h.09l.07,0h0l.1-.11h0l.07-.15.06-.17h0l0-.13v0l-.07-.07h0L19.43,1h0l-.12,0-.09,0L19,.88,18.86.8,18.68.73h0l-.21,0h0l-.19,0a.85.85,0,0,0-.72.39h0l-.11.2h0l-.09.22h0v.2Zm-4,.33.28.12h0V1.89l0-.14-.07-.11-.12,0-.15,0-.13.07-.07.09Zm-1.3,1.74-.16,0,0-.06L12,3.61h0l.11-.09h0l.33-.2.33-.21.31-.25.26-.26-.25-.12-.26-.22h0l-.06-.16h0l0-.18h0l.12-.28.19-.28.24-.2.26-.08h0l.28.18.09.35h0V2l0,.26v0L14,2.3h0l0,.08h0l0,.2h0L14,2.79h0l-.1.07,0,0-.07,0h0l-.05-.06,0,0L13.44,3l-.35.3a3.24,3.24,0,0,1-.83.42h0l-.19,0ZM22.29,8.5h0l-.51.17-.52.17L20.77,9l-.36.12h0l-.05,0h0l0,.06-.21.39v0l.06.07,0,0h0l.91-.31,1-.32h0l0,0h0l0-.05h0l.21-.4h0V8.49Zm5.79-2.62c0-.16,0-.3,0-.42,0-.31-.07-.63-.11-1l-.12-1c0-.32-.09-.65-.13-1s-.09-.63-.12-.94h0l0-.37V.88h0v0l0-.16L27.39.6h0l-.08.1h0c0,.07-.08.2-.16.42L27,1.4,27,1.65v0h0l.12,1,.12,1,.12,1c0,.31.08.64.12,1s.08.62.11.92.05.6.07.9v0l.06.06.06.07.14-.19h0A1.83,1.83,0,0,0,28,6.87c0-.16,0-.32,0-.49v-.5Zm-1.62-.33h0l-.65,0A5.5,5.5,0,0,1,25,5.45l-.4-.08-.37-.1-.4-.13L23.51,5l.11-.24.08-.36V4.07l0-.31h0c0-.19-.05-.39-.08-.62s-.07-.44-.11-.65-.06-.39-.09-.55l-.06-.3V1.48l.07-.15.11-.15h0L23.62,1,23.67,1l-.07,0L23.41.75,23.28.54,23.17.3,23.08.06l0-.06h-.22L22.5.73l0,.05.13.19.07.21.05.26,0,.25c.05.23.09.48.13.74S23,3,23,3.21s.08.52.11.75.05.42.06.59l0,.06-.15,0-.34,0-.38,0-.38,0-.35,0-.25,0h0l-.12,0h0v0l-.22.33a4,4,0,0,0-.18.36l0,0,0,.09,0,0h.06a4.51,4.51,0,0,1,.72,0,5.22,5.22,0,0,1,.69,0,5.12,5.12,0,0,1,.68.14c.16,0,.32.09.49.14a8.56,8.56,0,0,1-.88.31,6.83,6.83,0,0,1-1,.21,7,7,0,0,1-.85.09H19.8l-.17,0-.16,0-.15,0L19,6.43l-.28-.29,0,0-.11,0h-.05l-.2.79V7l0,0,.29.31.31.2a4,4,0,0,1-.16.49,3.53,3.53,0,0,1-.28.5,3.16,3.16,0,0,1-.39.44,2.7,2.7,0,0,1-.5.37,4.57,4.57,0,0,1-.49.25,3.88,3.88,0,0,1-.45.14,2.32,2.32,0,0,1-.46.07h-.52l-.27.12v.16l.11.08h0l.39.13.37.08.34,0h.34a2.54,2.54,0,0,0,.54-.09,2.62,2.62,0,0,0,.52-.22,1.83,1.83,0,0,0,.69-.66,4.57,4.57,0,0,0,.41-.86h0c.05-.15.09-.3.14-.47s.07-.3.1-.46l.25,0h.46a6.28,6.28,0,0,0,.75,0c.28,0,.56-.09.83-.15s.54-.14.8-.22l.77-.29L24,6.69a5,5,0,0,1,.63-.19,6.37,6.37,0,0,1,.65-.09h.12a3.21,3.21,0,0,1,.6.06h.13l.09-.07h0l.09-.16.1-.17.1-.17h0l.06-.13h0V5.62l-.07,0Zm-10,1a5.73,5.73,0,0,1-1.11.55,7,7,0,0,1-1.18.32,8.71,8.71,0,0,1-1.2.18l-.52,0a5.58,5.58,0,0,1-.7,0,2.13,2.13,0,0,1-.66-.16,1.93,1.93,0,0,1-.54-.35,1.73,1.73,0,0,1-.37-.54A1.9,1.9,0,0,1,10,5.84a2.34,2.34,0,0,1,.42-1.32l0,0h0l.17,0v.08l0,.16,0,0a1.54,1.54,0,0,0-.17.66v0a1.32,1.32,0,0,0,.12.57,1,1,0,0,0,.33.38,1.56,1.56,0,0,0,.43.21,2.25,2.25,0,0,0,.52.08h.53c.33,0,.65,0,1,0s.62-.09.93-.15.6-.15.9-.25.61-.23.92-.37l.08-.08h0A1.85,1.85,0,0,0,16,5.25a4.45,4.45,0,0,0-.38-.48l0,0,0-.05.25-.75h.21l0,0a3.09,3.09,0,0,1,.45.68,2.21,2.21,0,0,1,.21.78h0v.27l0,.34-.08.32-.19.23Z" transform="translate(0)"/></g></g></g></g></g></g></svg>