<svg xmlns="http://www.w3.org/2000/svg" xmlns:xlink="http://www.w3.org/1999/xlink" width="27.79" height="10.38" viewBox="0 0 27.79 10.38"><defs><style>.cls-1{fill:none;}.cls-2{clip-path:url(#clip-path);}.cls-3,.cls-4{fill:#231f20;}.cls-3{fill-rule:evenodd;}</style><clipPath id="clip-path" transform="translate(0)"><rect class="cls-1" y="1.54" width="6.53" height="6.09"/></clipPath></defs><g id="Layer_2" data-name="Layer 2"><g id="Layer_1-2" data-name="Layer 1"><g id="g368"><g class="cls-2"><g id="g366"><g id="g364"><path id="path362" class="cls-3" d="M3.9,1.62a1.56,1.56,0,0,1-.19.7c-.3.36-1,.29-1.13-.06a1.36,1.36,0,0,1,0-.45c0-.09,0-.14-.08-.14s-.09.09-.12.17a2.2,2.2,0,0,1-.22.58.93.93,0,0,1-1.43.09A1.93,1.93,0,0,1,.3,1.84c0-.08-.1-.12-.13,0L0,2.85c0,.08,0,.12.09.25C.45,3.9.64,4.26.91,5a10.82,10.82,0,0,1,.58,2.37c0,.1.05.28.17.28s.13-.13.14-.21a6.18,6.18,0,0,0-.41-3.25c0-.07,0-.11,0-.13a.2.2,0,0,1,.13,0c.35,0,.65-.29.82-.61a.91.91,0,0,0,1.44,0,2.35,2.35,0,0,0,.29-1.82C4,1.56,4,1.54,4,1.54s-.1,0-.1.08m1.42,3a5.89,5.89,0,0,0-.47,1A.24.24,0,0,0,4.9,6c.33.24.63.48.93.71.09,0,.11.06.16,0a8.46,8.46,0,0,0,.51-1.1.15.15,0,0,0,0-.21,10.75,10.75,0,0,0-.94-.73c-.09,0-.16,0-.2,0" transform="translate(0)"/></g></g></g></g><g id="g86"><g id="g100"><g id="g98"><g id="g96"><path id="path94" class="cls-4" d="M17.88,3.71l-.09,0h0v0l-.4.52v.16L18,5h.13l.4-.55,0,0V4.27ZM13.77,9l-.62-.55H13L12.62,9l0,0v.13l.63.56h.13l.41-.55V9ZM17.05,1.7l.15-.05h0a.54.54,0,0,1,.32-.25l.24,0H18l.18,0,.18.07.12.06h0l-.16.08L17.37,2l-.06,0h0l-.07.05h0l-.06.06h0l0,.07v0l.08.09v0h.16l.22,0,.31-.08.36-.13A2,2,0,0,0,18.64,2h0l.06,0h0l.09-.07.07-.06,0,0H19l.08,0h0l.09-.11h0l.07-.15.06-.17h0l0-.13v0l-.07-.07h0L19.13,1h0L19,1l-.08,0L18.73.88,18.55.8,18.37.73h0l-.21,0h0L18,.66a.83.83,0,0,0-.71.39h0l-.11.2h0l-.09.22h0v.2Zm-4,.33.27.12h0V1.89l0-.14-.06-.11-.12,0-.15,0-.13.07-.07.09Zm-1.3,1.74-.16,0,0-.06,0-.08h0l.12-.09h0l.34-.2.32-.21.32-.25L13,2.59l-.25-.12-.26-.22h0l-.06-.16h0l0-.18h0l.12-.28.18-.28.25-.2.26-.08h0l.27.18.09.35h0V2l0,.26v0l.08.06h0l0,.08h0l0,.2h0l-.07.18h0l-.1.07,0,0-.06,0h0l0-.06,0,0L13.14,3l-.35.3a3.26,3.26,0,0,1-.4.24,2.89,2.89,0,0,1-.44.18h0l-.19,0ZM22,8.5h0l-.51.17-.53.17L20.46,9l-.35.12h0l0,0h0l0,.06-.21.39v0l.05.07,0,0h0l.91-.31,1-.32h0l0,0h0l0-.05h0l.21-.4h0l0,0V8.49H22Zm5.8-2.62a2.58,2.58,0,0,0,0-.42c0-.31-.06-.63-.1-1l-.12-1c-.05-.32-.09-.65-.14-1s-.08-.63-.11-.94h0l0-.37V.88h0v0l0-.16L27.09.6h0L27,.7h0c0,.07-.08.2-.16.42l-.08.27,0,.25v0h0l.12,1,.12,1,.12,1c0,.31.08.64.12,1s.08.62.1.92.05.6.07.9v0l.06.06.07.07.14-.19h0a1.42,1.42,0,0,0,.12-.41,3.86,3.86,0,0,0,.06-.49v-.5Zm-1.62-.33h0l-.64,0a5.37,5.37,0,0,1-.76-.07l-.4-.08L24,5.27l-.39-.13L23.2,5l.11-.24.08-.36,0-.29V4.07l0-.31h0c0-.19-.05-.39-.09-.62s-.07-.44-.1-.65-.07-.39-.1-.55,0-.25-.05-.3V1.48l.07-.15.11-.15h0L23.32,1l0-.08-.07,0L23.11.75,23,.54,22.86.3,22.77.06l0-.06h-.21L22.2.73l0,.05.13.19.06.21.05.26,0,.25c0,.23.09.48.13.74s.09.52.13.78.07.52.1.75.05.42.07.59l0,.06-.15,0-.33,0-.38,0-.39,0-.34,0-.26,0h0l-.13,0h0v0l-.22.33a4,4,0,0,0-.18.36l0,0,0,.09,0,0h.05a4.72,4.72,0,0,1,.73,0,5.32,5.32,0,0,1,.69,0,5.87,5.87,0,0,1,.68.14,4.34,4.34,0,0,1,.48.14,7.68,7.68,0,0,1-.87.31,6.94,6.94,0,0,1-1,.21,6.7,6.7,0,0,1-.84.09H19.5l-.18,0-.15,0-.15,0-.28-.16-.28-.29,0,0-.11,0h-.05l-.2.79V7l0,0,.29.31.31.2a4,4,0,0,1-.17.49,3.46,3.46,0,0,1-.27.5,3.16,3.16,0,0,1-.39.44,2.78,2.78,0,0,1-.51.37,4.5,4.5,0,0,1-.48.25,3.88,3.88,0,0,1-.45.14,2.32,2.32,0,0,1-.46.07h-.52l-.27.12v.16l.1.08h0l.4.13.36.08.35,0h.34a2.54,2.54,0,0,0,.54-.09,2.62,2.62,0,0,0,.52-.22,1.91,1.91,0,0,0,.69-.66,5.29,5.29,0,0,0,.41-.86h0c0-.15.09-.3.13-.47s.07-.3.1-.46l.26,0h.45a6.06,6.06,0,0,0,.75,0q.43-.06.84-.15c.27-.06.53-.14.8-.22L23,6.94l.64-.25a5.45,5.45,0,0,1,.62-.19,6.57,6.57,0,0,1,.66-.09h.12a3.29,3.29,0,0,1,.6.06h.13l.09-.07h0L26,6.24l.1-.17.1-.17h0l.06-.13h0V5.62l-.07,0Zm-10,1A6.35,6.35,0,0,1,15,7.14a7,7,0,0,1-1.18.32,8.71,8.71,0,0,1-1.2.18l-.52,0a5.48,5.48,0,0,1-.7,0,2.06,2.06,0,0,1-.66-.16,1.79,1.79,0,0,1-.54-.35,1.58,1.58,0,0,1-.37-.54,1.9,1.9,0,0,1-.14-.73,2.36,2.36,0,0,1,.43-1.32l0,0h0l.16,0,0,.08,0,.16,0,0a1.41,1.41,0,0,0-.17.66v0a1.32,1.32,0,0,0,.12.57,1,1,0,0,0,.32.38,1.63,1.63,0,0,0,.44.21,2.09,2.09,0,0,0,.51.08h.54c.33,0,.65,0,1,0s.62-.09.92-.15A9.41,9.41,0,0,0,15,6.24c.3-.11.61-.23.92-.37L16,5.79h0a1.6,1.6,0,0,0-.24-.53c-.12-.17-.25-.33-.38-.48l0,0V4.68l.26-.75h.21l0,0a3.09,3.09,0,0,1,.45.68,2.21,2.21,0,0,1,.21.78h0v.27l0,.34-.09.32-.18.23Z" transform="translate(0)"/></g></g></g></g></g></g></svg>