<svg xmlns="http://www.w3.org/2000/svg" xmlns:xlink="http://www.w3.org/1999/xlink" width="29.25" height="10.38" viewBox="0 0 29.25 10.38"><defs><style>.cls-1{fill:none;}.cls-2{clip-path:url(#clip-path);}.cls-3,.cls-4{fill:#231f20;}.cls-3{fill-rule:evenodd;}</style><clipPath id="clip-path" transform="translate(0)"><rect class="cls-1" y="1.54" width="9.45" height="6.09"/></clipPath></defs><g id="Layer_2" data-name="Layer 2"><g id="Layer_1-2" data-name="Layer 1"><g id="g320"><g class="cls-2"><g id="g318"><g id="g316"><path id="path314" class="cls-3" d="M9.21,1.62a1.44,1.44,0,0,1-.19.7c-.3.36-1,.29-1.13-.06a1.69,1.69,0,0,1,0-.45c0-.09,0-.14-.08-.14s-.09.09-.12.17a2.23,2.23,0,0,1-.21.58A.94.94,0,0,1,6,2.51a1.78,1.78,0,0,1-.42-.67c0-.08-.11-.12-.14,0l-.17,1c0,.08,0,.12.09.25.36.8.55,1.16.82,1.87A10.28,10.28,0,0,1,6.8,7.34c0,.1,0,.28.17.28s.14-.13.15-.21A6.29,6.29,0,0,0,6.7,4.16c0-.07,0-.11,0-.13a.23.23,0,0,1,.14,0c.34,0,.65-.29.81-.61a.92.92,0,0,0,1.44,0,2.31,2.31,0,0,0,.29-1.82c0-.06-.06-.08-.07-.08s-.1,0-.1.08m-5.31,0a1.56,1.56,0,0,1-.19.7c-.3.36-1,.29-1.13-.06a1.36,1.36,0,0,1,0-.45c0-.09,0-.14-.08-.14s-.09.09-.12.17a2.2,2.2,0,0,1-.22.58.93.93,0,0,1-1.43.09A1.93,1.93,0,0,1,.3,1.84c0-.08-.1-.12-.13,0L0,2.85c0,.08,0,.12.09.25C.45,3.9.64,4.26.91,5a10.28,10.28,0,0,1,.58,2.37c0,.1.05.28.17.28s.13-.13.14-.21a6.18,6.18,0,0,0-.41-3.25c0-.07,0-.11,0-.13a.2.2,0,0,1,.13,0,1,1,0,0,0,.82-.61.92.92,0,0,0,1.44,0,2.35,2.35,0,0,0,.29-1.82C4,1.56,4,1.54,4,1.54s-.1,0-.1.08" transform="translate(0)"/></g></g></g></g><g id="g86"><g id="g100"><g id="g98"><g id="g96"><path id="path94" class="cls-4" d="M19.35,3.71l-.1,0h0l0,0-.4.52v.16l.63.56h.13L20,4.42V4.27ZM15.24,9l-.63-.55h-.12L14.08,9v.15l.63.56h.12l.41-.55V9ZM18.51,1.7l.16-.05h0A.54.54,0,0,1,19,1.38l.24,0h.19l.19,0,.17.07.12.06h0l-.15.08L18.83,2l-.06,0h0l-.07.05h0l-.06.06h0l0,.07v0l.07.09,0,0h.16l.21,0,.31-.08.36-.13A2.43,2.43,0,0,0,20.11,2h0l.06,0h0l.08-.07.07-.06,0,0h.09l.07,0h0l.1-.11h0l.07-.15.06-.17h0l0-.13v0l-.07-.07h0L20.59,1h0l-.12,0-.09,0L20.19.88,20,.8,19.84.73h0l-.21,0h0l-.19,0a.85.85,0,0,0-.72.39h0l-.11.2h0l-.09.22h0v.2Zm-4,.33.28.12h0V1.89l0-.14-.07-.11-.12,0-.15,0-.13.07-.07.09Zm-1.3,1.74-.16,0,0-.06,0-.08h0l.11-.09h0l.33-.2.33-.21.31-.25.26-.26-.25-.12L14,2.25h0l-.06-.16h0l0-.18h0L14,1.61l.19-.28.24-.2.26-.08h0l.28.18.09.35h0V2l0,.26v0l.09.06h0l0,.08h0l0,.2h0l-.07.18h0l-.1.07,0,0-.07,0h0l-.05-.06,0,0L14.6,3l-.35.3a3.24,3.24,0,0,1-.83.42h0l-.19,0ZM23.45,8.5h0l-.51.17-.52.17L21.93,9l-.36.12h0l-.05,0h0l0,.06-.21.39v0l.06.07,0,0h0l.91-.31,1-.32h0l0,0h0l0-.05h0l.21-.4h0V8.49Zm5.79-2.62c0-.16,0-.3,0-.42,0-.31-.07-.63-.11-1l-.12-1c0-.32-.09-.65-.13-1s-.09-.63-.12-.94h0l0-.37V.88h0v0l0-.16L28.55.6h0l-.08.1h0c0,.07-.08.2-.16.42l-.08.27-.05.25v0h0l.12,1,.12,1,.12,1c0,.31.08.64.12,1s.08.62.11.92.05.6.07.9v0l.06.06.06.07.14-.19h0a1.83,1.83,0,0,0,.12-.41c0-.16,0-.32,0-.49v-.5Zm-1.62-.33h0l-.65,0a5.5,5.5,0,0,1-.76-.07l-.4-.08-.37-.1L25,5.14,24.67,5l.11-.24.08-.36V4.07l0-.31h0c0-.19-.05-.39-.08-.62s-.07-.44-.11-.65-.06-.39-.09-.55l-.06-.3V1.48l.07-.15.11-.15h0L24.78,1l0-.08-.07,0L24.57.75,24.44.54,24.33.3,24.24.06l0-.06H24l-.34.73,0,.05.13.19.07.21.05.26,0,.25c.05.23.09.48.13.74s.09.52.13.78.08.52.11.75.05.42.06.59l0,.06-.15,0-.34,0-.38,0-.38,0-.35,0-.25,0h0l-.12,0h0v0l-.22.33a4,4,0,0,0-.18.36l0,0,0,.09,0,0H22a4.51,4.51,0,0,1,.72,0,5.22,5.22,0,0,1,.69,0,5.12,5.12,0,0,1,.68.14c.16,0,.32.09.49.14a8.56,8.56,0,0,1-.88.31,6.83,6.83,0,0,1-1,.21,7,7,0,0,1-.85.09H21l-.17,0-.16,0-.15,0-.28-.16-.28-.29,0,0-.11,0h-.05l-.2.79V7l0,0,.29.31.31.2A4,4,0,0,1,20,8a3.53,3.53,0,0,1-.28.5,3.16,3.16,0,0,1-.39.44,2.7,2.7,0,0,1-.5.37,4.57,4.57,0,0,1-.49.25,3.88,3.88,0,0,1-.45.14,2.32,2.32,0,0,1-.46.07H16.9l-.27.12v.16l.11.08h0l.39.13.37.08.34,0h.34a2.54,2.54,0,0,0,.54-.09,2.62,2.62,0,0,0,.52-.22A1.83,1.83,0,0,0,20,9.4a4.57,4.57,0,0,0,.41-.86h0c.05-.15.09-.3.14-.47s.07-.3.1-.46l.25,0h.46a6.28,6.28,0,0,0,.75,0c.28,0,.56-.09.83-.15s.54-.14.8-.22l.77-.29.64-.25a5,5,0,0,1,.63-.19,6.37,6.37,0,0,1,.65-.09h.12a3.21,3.21,0,0,1,.6.06h.13l.09-.07h0l.09-.16.1-.17.1-.17h0l.06-.13h0V5.62l-.07,0Zm-10,1a5.73,5.73,0,0,1-1.11.55,7,7,0,0,1-1.18.32,8.71,8.71,0,0,1-1.2.18l-.52,0a5.58,5.58,0,0,1-.7,0,2.13,2.13,0,0,1-.66-.16,1.93,1.93,0,0,1-.54-.35,1.73,1.73,0,0,1-.37-.54,1.9,1.9,0,0,1-.13-.73,2.34,2.34,0,0,1,.42-1.32l0,0h0l.17,0v.08l0,.16,0,0a1.54,1.54,0,0,0-.17.66v0a1.32,1.32,0,0,0,.12.57,1,1,0,0,0,.33.38,1.56,1.56,0,0,0,.43.21,2.25,2.25,0,0,0,.52.08h.53c.33,0,.65,0,1,0s.62-.09.93-.15.6-.15.9-.25.61-.23.92-.37l.08-.08h0a1.85,1.85,0,0,0-.25-.53,4.45,4.45,0,0,0-.38-.48l0,0,0-.05L17,3.93h.21l0,0a3.09,3.09,0,0,1,.45.68,2.21,2.21,0,0,1,.21.78h0v.27l0,.34-.08.32-.19.23Z" transform="translate(0)"/></g></g></g></g></g></g></svg>