<svg xmlns="http://www.w3.org/2000/svg" xmlns:xlink="http://www.w3.org/1999/xlink" width="28.76" height="10.38" viewBox="0 0 28.76 10.38"><defs><style>.cls-1{fill:none;}.cls-2{clip-path:url(#clip-path);}.cls-3,.cls-4{fill:#231f20;}.cls-3{fill-rule:evenodd;}</style><clipPath id="clip-path" transform="translate(0)"><rect class="cls-1" y="1.49" width="8.48" height="6.18"/></clipPath></defs><g id="Layer_2" data-name="Layer 2"><g id="Layer_1-2" data-name="Layer 1"><g id="g304"><g class="cls-2"><g id="g302"><g id="g300"><path id="path298" class="cls-3" d="M6.62,1.54A3.65,3.65,0,0,0,5.31,3.66a.92.92,0,0,0,.27.83c.3.23.81.37.81.59a7,7,0,0,0-.66,1.64.78.78,0,0,0,.69.94,2.61,2.61,0,0,0,2-1.41c0-.06,0-.16,0-.13a4,4,0,0,1-1.13.31c-.68,0-1-.18-.92-.33S7,5,7,4.53A.86.86,0,0,0,7,3.85c-.29-.35-1-.39-1-.72s.42-.48.69-.66a6,6,0,0,0,.23-.83c0-.09-.08-.22-.21-.1M3.9,1.66a1.45,1.45,0,0,1-.19.71c-.3.36-1,.29-1.13-.07a1.36,1.36,0,0,1,0-.45c0-.09,0-.13-.08-.13s-.09.09-.12.17a2.35,2.35,0,0,1-.22.58.93.93,0,0,1-1.43.09A1.93,1.93,0,0,1,.3,1.89c0-.08-.1-.13-.13,0L0,2.9C0,3,0,3,.09,3.14.45,4,.64,4.31.91,5a10.24,10.24,0,0,1,.58,2.38c0,.1.05.28.17.28s.13-.13.15-.21a6.29,6.29,0,0,0-.42-3.25c0-.07,0-.11,0-.14a.2.2,0,0,1,.13,0c.35,0,.66-.29.82-.6a.92.92,0,0,0,1.44,0,2.38,2.38,0,0,0,.29-1.83S4,1.59,4,1.59s-.1,0-.1.07" transform="translate(0)"/></g></g></g></g><g id="g86"><g id="g100"><g id="g98"><g id="g96"><path id="path94" class="cls-4" d="M18.86,3.71l-.1,0h0l0,0-.39.52,0,0v.14L19,5h.12l.41-.55V4.27ZM14.75,9l-.63-.55H14L13.59,9v.15l.63.56h.13l.4-.55,0,0V9ZM18,1.7l.15-.05h0a.59.59,0,0,1,.33-.25l.24,0H19l.19,0,.17.07.13.06h0l-.16.08L18.35,2l-.06,0h0l-.07.05h0l-.06.06h0l0,.07v0l.07.09,0,0h.16l.21,0,.32-.08.36-.13A2.32,2.32,0,0,0,19.62,2h0l.07,0h0l.08-.07.08-.06,0,0H20l.07,0h0l.1-.11h0l.07-.15.06-.17h0l0-.13v0l-.07-.07h0L20.11,1h0L20,1l-.09,0L19.71.88,19.53.8,19.35.73h0l-.22,0h0l-.19,0a.82.82,0,0,0-.71.39h0l-.12.2h0L18,1.49h0v.2ZM14,2l.28.12h0V1.89l0-.14-.07-.11-.12,0-.14,0-.14.07-.07.09ZM12.73,3.77l-.17,0,0-.06,0-.08h0l.12-.09h0l.34-.2.32-.21.31-.25L14,2.59l-.25-.12-.26-.22h0l-.07-.16h0l0-.18h0l.12-.28.19-.28.24-.2.27-.08h0l.27.18.09.35h0V2l0,.26v0l.09.06h0l.05.08h0v.2h0l-.07.18h0l-.11.07,0,0-.07,0h0l0-.06,0,0L14.11,3l-.35.3a3.26,3.26,0,0,1-.4.24,2.77,2.77,0,0,1-.43.18h0l-.19,0ZM23,8.5h0l-.52.17-.52.17L21.44,9l-.35.12h0l0,0h0l0,.06-.2.39,0,0,.06.07,0,0h0l.91-.31,1-.32h0l0,0h0l0-.05h0l.22-.4h0V8.49Zm5.8-2.62q0-.24,0-.42c0-.31-.06-.63-.11-1s-.08-.65-.12-1-.09-.65-.13-1l-.12-.94h0l0-.37V.88h0v0l0-.16L28.07.6H28l-.08.1h0a3.34,3.34,0,0,0-.17.42l-.08.27,0,.25v0h0l.12,1q0,.48.12,1c0,.31.07.63.11,1s.09.64.13,1,.07.62.1.92.05.6.07.9v0l.06.06.06.07.15-.19h0a1.83,1.83,0,0,0,.12-.41,2.63,2.63,0,0,0,.05-.49v-.5Zm-1.62-.33h0l-.64,0a5.5,5.5,0,0,1-.77-.07l-.39-.08-.38-.1-.4-.13L24.18,5l.11-.24.08-.36,0-.29V4.07l0-.31h0c0-.19-.06-.39-.09-.62s-.07-.44-.1-.65l-.1-.55c0-.15,0-.25,0-.3V1.48l.07-.15.1-.15h0L24.3,1l0-.08-.07,0L24.09.75,24,.54,23.84.3,23.75.06l0-.06h-.22l-.33.73,0,.05.12.19.07.21,0,.26.05.25c0,.23.08.48.13.74s.09.52.13.78.07.52.1.75.05.42.06.59l0,.06-.15,0-.33,0-.38,0-.39,0-.34,0-.26,0h0l-.12,0h0v0l-.22.33a3.94,3.94,0,0,0-.19.36v0l0,.09,0,0h.06a4.64,4.64,0,0,1,.73,0,5.07,5.07,0,0,1,.68,0,5.63,5.63,0,0,1,.69.14c.15,0,.32.09.48.14a7.8,7.8,0,0,1-.88.31,6.54,6.54,0,0,1-1,.21,6.84,6.84,0,0,1-.85.09h-.94l-.17,0-.15,0-.15,0-.29-.16-.28-.29,0,0-.12,0h-.05l-.19.79V7l0,0,.3.31.3.2A2.81,2.81,0,0,1,19.5,8a3.53,3.53,0,0,1-.28.5,3.16,3.16,0,0,1-.39.44,2.4,2.4,0,0,1-.5.37,4.57,4.57,0,0,1-.49.25,3.88,3.88,0,0,1-.45.14,2.22,2.22,0,0,1-.45.07h-.52l-.27.12v.16l.1.08h0a3.7,3.7,0,0,0,.4.13l.36.08.34,0h.34a2.54,2.54,0,0,0,.54-.09,2.39,2.39,0,0,0,.52-.22,1.86,1.86,0,0,0,.7-.66,4.56,4.56,0,0,0,.4-.86h0c.05-.15.1-.3.14-.47s.07-.3.1-.46l.25,0h.46a6.06,6.06,0,0,0,.75,0c.29,0,.57-.09.83-.15s.54-.14.8-.22L24,6.94l.64-.25a4.44,4.44,0,0,1,.62-.19c.21,0,.43-.07.65-.09H26a3.21,3.21,0,0,1,.6.06h.14l.08-.07h0l.08-.16.11-.17.1-.17h0l.06-.13h0V5.62l-.06,0Zm-10,1A6.35,6.35,0,0,1,16,7.14a7.3,7.3,0,0,1-1.18.32,9.09,9.09,0,0,1-1.21.18l-.52,0a5.58,5.58,0,0,1-.7,0,2,2,0,0,1-.65-.16,1.68,1.68,0,0,1-.54-.35,1.75,1.75,0,0,1-.38-.54,1.9,1.9,0,0,1-.13-.73,2.34,2.34,0,0,1,.42-1.32l0,0h0l.17,0,0,.08,0,.16v0a1.55,1.55,0,0,0-.18.66v0a1.2,1.2,0,0,0,.13.57.93.93,0,0,0,.32.38,1.63,1.63,0,0,0,.44.21,2.09,2.09,0,0,0,.51.08h.54c.33,0,.65,0,1,0s.62-.09.92-.15.6-.15.9-.25.61-.23.92-.37l.08-.08h0a1.85,1.85,0,0,0-.25-.53,3.48,3.48,0,0,0-.38-.48l0,0,0-.05.26-.75h.21l0,0a3.44,3.44,0,0,1,.44.68,2.21,2.21,0,0,1,.21.78h0v.27l0,.34-.09.32-.18.23Z" transform="translate(0)"/></g></g></g></g></g></g></svg>