<svg xmlns="http://www.w3.org/2000/svg" xmlns:xlink="http://www.w3.org/1999/xlink" width="28.62" height="10.38" viewBox="0 0 28.62 10.38"><defs><style>.cls-1{fill:none;}.cls-2{clip-path:url(#clip-path);}.cls-3,.cls-4{fill:#231f20;}.cls-3{fill-rule:evenodd;}</style><clipPath id="clip-path" transform="translate(0)"><rect class="cls-1" y="1.51" width="8.19" height="6.14"/></clipPath></defs><g id="Layer_2" data-name="Layer 2"><g id="Layer_1-2" data-name="Layer 1"><g id="g240"><g class="cls-2"><g id="g238"><g id="g236"><path id="path234" class="cls-3" d="M5.68,1.76A7.86,7.86,0,0,1,4.17,6.08a.34.34,0,0,0-.1.23,11.08,11.08,0,0,0,.07,1.2c0,.18.12.19.25,0A8.53,8.53,0,0,0,6,3.57a12.47,12.47,0,0,0,2,4c.08.13.13.05.14-.09a8.1,8.1,0,0,0,.08-1c0-.07,0-.12,0-.16A18.46,18.46,0,0,1,6,1.72c0-.14-.09-.21-.18-.21s-.14.12-.15.25M3.9,1.61a1.45,1.45,0,0,1-.19.71c-.3.36-1,.29-1.13-.07a1.36,1.36,0,0,1,0-.45c0-.09,0-.13-.08-.13s-.09.09-.12.17a2.52,2.52,0,0,1-.22.58.93.93,0,0,1-1.43.09A2,2,0,0,1,.3,1.84c0-.08-.1-.13-.13,0L0,2.84a.54.54,0,0,0,.09.25C.45,3.9.64,4.26.91,5a10.77,10.77,0,0,1,.58,2.38c0,.1.05.28.17.28s.13-.14.14-.21a6.18,6.18,0,0,0-.41-3.25c0-.07,0-.12,0-.14a.2.2,0,0,1,.13,0c.35,0,.65-.29.82-.6a.92.92,0,0,0,1.44,0,2.38,2.38,0,0,0,.29-1.83C4,1.56,4,1.53,4,1.53s-.1,0-.1.08" transform="translate(0)"/></g></g></g></g><g id="g86"><g id="g100"><g id="g98"><g id="g96"><path id="path94" class="cls-4" d="M18.72,3.71l-.1,0h0l0,0-.39.52,0,0v.14L18.8,5h.13l.41-.55V4.27ZM14.61,9,14,8.48h-.12L13.45,9v.15l.63.56h.13l.4-.55,0,0V9ZM17.89,1.7,18,1.65h0a.53.53,0,0,1,.33-.25l.23,0h.19l.19,0,.17.07.13.06h0l-.16.08L18.21,2l-.06,0h0l-.07.05h0L18,2.18h0l0,.07v0l.07.09,0,0h.16l.21,0,.32-.08.36-.13A2.83,2.83,0,0,0,19.48,2h0l.06,0h0l.08-.07.08-.06,0,0h.09l.07,0h0l.1-.11h0l.07-.15.06-.17h0l0-.13v0l-.06-.07h0L20,1h0l-.12,0-.09,0L19.57.88,19.39.8,19.21.73h0L19,.68h0l-.19,0a.85.85,0,0,0-.72.39h0l-.11.2h0l-.09.22h0v.2Zm-4,.33.28.12h0V1.89l0-.14-.07-.11L14,1.6l-.15,0-.13.07-.07.09Zm-1.3,1.74-.16,0,0-.06,0-.08h0l.11-.09h0l.34-.2.32-.21.31-.25.26-.26-.25-.12-.26-.22h0l-.06-.16h0l0-.18h0l.12-.28.19-.28.24-.2.27-.08h0l.28.18.09.35h0V2l0,.26v0l.09.06h0l0,.08h0l0,.2h0l-.08.18h0l-.1.07,0,0-.07,0h0l-.05-.06,0,0L14,3l-.35.3a3.24,3.24,0,0,1-.83.42h0l-.19,0ZM22.82,8.5h0l-.52.17-.52.17L21.3,9l-.36.12h0l-.05,0h0l0,.06-.21.39v0l.06.07,0,0h0l.9-.31,1-.32h0l0,0h0l0-.05h0l.21-.4h0V8.49Zm5.8-2.62q0-.24,0-.42c0-.31-.07-.63-.11-1l-.12-1c0-.32-.09-.65-.13-1s-.09-.63-.12-.94h0l0-.37V.88h0v0l0-.16L27.92.6h0L27.8.7h0a3.34,3.34,0,0,0-.17.42l-.08.27,0,.25v0h0c0,.32.07.64.11,1l.12,1,.12,1c0,.31.08.64.13,1s.07.62.1.92.05.6.07.9v0l.06.06.06.07.15-.19h0a1.83,1.83,0,0,0,.12-.41c0-.16,0-.32.05-.49v-.5ZM27,5.55h0l-.64,0a5.5,5.5,0,0,1-.77-.07l-.4-.08-.37-.1-.4-.13L24,5l.11-.24.08-.36V4.07l0-.31h0c0-.19,0-.39-.08-.62s-.07-.44-.11-.65-.06-.39-.09-.55l-.06-.3V1.48L24,1.33l.11-.15h0L24.15,1,24.2,1l-.07,0L24,.75,23.81.54,23.7.3,23.61.06l0-.06h-.22L23,.73l0,.05.13.19.07.21.05.26,0,.25c.05.23.09.48.14.74l.12.78c0,.26.08.52.11.75s0,.42.06.59l0,.06-.15,0-.34,0-.38,0-.38,0-.35,0-.25,0h0l-.12,0h0l0,0-.22.33a4,4,0,0,0-.18.36l0,0,0,.09,0,0h.06a4.56,4.56,0,0,1,.73,0,5.07,5.07,0,0,1,.68,0,5.63,5.63,0,0,1,.69.14c.15,0,.31.09.48.14a7.8,7.8,0,0,1-.88.31,6.83,6.83,0,0,1-1,.21,7,7,0,0,1-.85.09h-.94l-.17,0-.16,0-.14,0-.29-.16-.28-.29,0,0-.11,0h0l-.19.79V7l0,0,.29.31.31.2a4,4,0,0,1-.16.49,3.53,3.53,0,0,1-.28.5,3.16,3.16,0,0,1-.39.44,2.7,2.7,0,0,1-.5.37,4.57,4.57,0,0,1-.49.25,3.88,3.88,0,0,1-.45.14,2.34,2.34,0,0,1-.45.07h-.53L16,9.89v.16l.11.08h0l.39.13.37.08.34,0h.34a2.54,2.54,0,0,0,.54-.09,2.62,2.62,0,0,0,.52-.22,1.76,1.76,0,0,0,.69-.66,4.57,4.57,0,0,0,.41-.86h0c.05-.15.09-.3.14-.47s.07-.3.1-.46l.25,0h.46a6.17,6.17,0,0,0,.75,0c.29,0,.56-.09.83-.15s.54-.14.8-.22l.77-.29.64-.25a5,5,0,0,1,.63-.19,6.37,6.37,0,0,1,.65-.09h.12a3.21,3.21,0,0,1,.6.06h.14l.08-.07h0l.09-.16.11-.17L27,5.9h0l.06-.13h0V5.62l-.07,0Zm-10,1a6.35,6.35,0,0,1-1.11.55,7.15,7.15,0,0,1-1.19.32,8.71,8.71,0,0,1-1.2.18l-.52,0a5.58,5.58,0,0,1-.7,0,2.13,2.13,0,0,1-.66-.16,1.93,1.93,0,0,1-.54-.35,1.73,1.73,0,0,1-.37-.54,1.9,1.9,0,0,1-.13-.73A2.34,2.34,0,0,1,11,4.52l0,0h0l.17,0,0,.08,0,.16,0,0a1.7,1.7,0,0,0-.17.66v0a1.32,1.32,0,0,0,.12.57,1,1,0,0,0,.33.38,1.72,1.72,0,0,0,.43.21,2.25,2.25,0,0,0,.52.08H13c.33,0,.65,0,1,0s.62-.09.93-.15.6-.15.9-.25.61-.23.92-.37l.08-.08h0a1.85,1.85,0,0,0-.25-.53,4.45,4.45,0,0,0-.38-.48l0,0,0-.05.25-.75h.21l0,0a3.44,3.44,0,0,1,.44.68,2.21,2.21,0,0,1,.21.78h0v.27l0,.34-.08.32L17,6.6Z" transform="translate(0)"/></g></g></g></g></g></g></svg>