<svg xmlns="http://www.w3.org/2000/svg" xmlns:xlink="http://www.w3.org/1999/xlink" width="27.13" height="10.38" viewBox="0 0 27.13 10.38"><defs><style>.cls-1{fill:none;}.cls-2{clip-path:url(#clip-path);}.cls-3,.cls-4{fill:#231f20;}.cls-3{fill-rule:evenodd;}</style><clipPath id="clip-path" transform="translate(0)"><rect class="cls-1" y="1.49" width="5.21" height="6.19"/></clipPath></defs><g id="Layer_2" data-name="Layer 2"><g id="Layer_1-2" data-name="Layer 1"><g id="g192"><g class="cls-2"><g id="g190"><g id="g188"><path id="path186" class="cls-3" d="M3.13,2.7A.71.71,0,0,0,3.31,3,9.09,9.09,0,0,1,4.8,7.28c0,.13,0,.4.13.4s.18-.3.21-.4a7.17,7.17,0,0,0-.26-3A7.65,7.65,0,0,0,3.49,1.55c0-.05-.06-.07-.1-.06A3.7,3.7,0,0,0,3.13,2.7M1.32,1.55A3.54,3.54,0,0,0,0,3.66a.86.86,0,0,0,.27.83c.3.24.8.37.8.6A6.9,6.9,0,0,0,.42,6.72a.79.79,0,0,0,.7.94,2.61,2.61,0,0,0,2-1.41s0-.15,0-.12A3.79,3.79,0,0,1,2,6.43c-.67,0-1-.18-.92-.32s.56-1.1.65-1.57a.8.8,0,0,0-.09-.69c-.29-.34-1-.39-1-.71s.43-.48.7-.66a7.62,7.62,0,0,0,.22-.84c0-.08-.08-.22-.2-.09" transform="translate(0)"/></g></g></g></g><g id="g86"><g id="g100"><g id="g98"><g id="g96"><path id="path94" class="cls-4" d="M17.22,3.71l-.09,0h0v0l-.4.52v.16l.63.56h.13l.4-.55,0,0V4.27ZM13.11,9l-.62-.55h-.12L12,9v.15l.63.56h.12l.41-.55V9ZM16.39,1.7l.15-.05h0a.54.54,0,0,1,.32-.25l.24,0h.19l.18,0,.18.07.12.06h0l-.15.08L16.71,2l-.06,0h0l-.07.05h0l-.06.06h0l0,.07v0l.08.09,0,0h.15l.22,0,.31-.08.36-.13A2,2,0,0,0,18,2h0l.06,0h0l.09-.07.07-.06,0,0h.09l.07,0h0l.1-.11h0l.07-.15.06-.17h0l0-.13v0l-.07-.07h0L18.47,1h0l-.13,0-.08,0L18.07.88,17.9.8,17.72.73h0l-.21,0h0l-.18,0a.85.85,0,0,0-.72.39h0l-.11.2h0l-.09.22h0v.2Zm-4,.33.28.12h0V1.89l0-.14-.06-.11-.12,0-.15,0-.13.07-.07.09Zm-1.3,1.74-.16,0,0-.06,0-.08h0l.12-.09h0l.34-.2.32-.21.32-.25.26-.26-.25-.12-.26-.22h0l-.06-.16h0l0-.18h0l.12-.28.18-.28.25-.2.26-.08h0l.27.18.09.35h0V2l0,.26v0l.09.06h0l0,.08h0l0,.2h0l-.07.18h0l-.1.07,0,0-.06,0h0l0-.06,0,0L12.48,3l-.35.3a3.24,3.24,0,0,1-.83.42h0l-.19,0ZM21.33,8.5h0l-.51.17-.53.17L19.81,9l-.36.12h0l-.05,0h0l0,.06-.21.39v0l.06.07v0h0l.91-.31,1-.32h0l0,0h0l0-.05h0l.21-.4h0l0,0V8.49Zm5.79-2.62c0-.16,0-.3,0-.42,0-.31-.07-.63-.11-1l-.12-1c-.05-.32-.09-.65-.14-1s-.08-.63-.11-.94h0l0-.37V.88h0v0l0-.16L26.43.6h0l-.08.1h0c0,.07-.08.2-.16.42l-.08.27,0,.25v0h0l.12,1,.12,1,.12,1c0,.31.08.64.12,1s.08.62.1.92.05.6.07.9v0l.06.06.06.07.14-.19h0a1.83,1.83,0,0,0,.12-.41c0-.16,0-.32.05-.49v-.5ZM25.5,5.55h0l-.65,0a5.5,5.5,0,0,1-.76-.07l-.4-.08-.38-.1-.39-.13L22.54,5l.12-.24.07-.36,0-.29V4.07l0-.31h0c0-.19-.05-.39-.08-.62s-.07-.44-.11-.65-.07-.39-.09-.55l-.06-.3V1.48l.07-.15.11-.15h0L22.66,1,22.71,1l-.07,0L22.45.75,22.31.54,22.21.3l-.1-.24,0-.06h-.21l-.34.73,0,.05.13.19.06.21.06.26,0,.25c.05.23.09.48.13.74s.09.52.13.78.07.52.1.75,0,.42.07.59l0,.06-.15,0-.34,0-.38,0-.38,0-.35,0-.25,0h0l-.13,0h0v0L20,5.24a4,4,0,0,0-.18.36l0,0,0,.09,0,0h.06a4.51,4.51,0,0,1,.72,0,5.32,5.32,0,0,1,.69,0,5.87,5.87,0,0,1,.68.14,4.34,4.34,0,0,1,.48.14,7.68,7.68,0,0,1-.87.31,6.94,6.94,0,0,1-1,.21,6.7,6.7,0,0,1-.84.09h-.94l-.18,0-.15,0-.15,0-.28-.16-.28-.29,0,0-.11,0h-.05l-.2.79V7l0,0,.29.31.31.2a4,4,0,0,1-.17.49,2.7,2.7,0,0,1-.27.5,3.16,3.16,0,0,1-.39.44,2.7,2.7,0,0,1-.5.37c-.18.1-.35.19-.49.25a3.88,3.88,0,0,1-.45.14,2.32,2.32,0,0,1-.46.07h-.52l-.27.12v.16l.11.08h0l.39.13.37.08.34,0h.34a2.54,2.54,0,0,0,.54-.09,2.62,2.62,0,0,0,.52-.22,1.83,1.83,0,0,0,.69-.66,5.29,5.29,0,0,0,.41-.86h0c0-.15.09-.3.14-.47s.07-.3.09-.46l.26,0h.46a6.28,6.28,0,0,0,.75,0c.28,0,.56-.09.83-.15s.53-.14.8-.22l.77-.29L23,6.69a5,5,0,0,1,.63-.19,6,6,0,0,1,.65-.09h.12a3.21,3.21,0,0,1,.6.06h.13l.09-.07h0l.09-.16.1-.17.1-.17h0l.06-.13h0V5.62l-.07,0Zm-10,1a6,6,0,0,1-1.11.55,7,7,0,0,1-1.18.32,8.71,8.71,0,0,1-1.2.18l-.52,0a5.48,5.48,0,0,1-.7,0,2.13,2.13,0,0,1-.66-.16,1.79,1.79,0,0,1-.54-.35,1.58,1.58,0,0,1-.37-.54,1.9,1.9,0,0,1-.13-.73,2.34,2.34,0,0,1,.42-1.32l0,0h0l.17,0v.08l0,.16,0,0a1.41,1.41,0,0,0-.17.66v0A1.32,1.32,0,0,0,9.7,6a1,1,0,0,0,.32.38,1.78,1.78,0,0,0,.44.21,2.17,2.17,0,0,0,.51.08h.54c.33,0,.65,0,1,0l.93-.15c.3-.07.6-.15.9-.25s.61-.23.92-.37l.08-.08h0a1.85,1.85,0,0,0-.25-.53,4.45,4.45,0,0,0-.38-.48l0,0,0-.05.25-.75h.21l0,0a3.09,3.09,0,0,1,.45.68,2.21,2.21,0,0,1,.21.78h0v.27l0,.34-.08.32-.19.23Z" transform="translate(0)"/></g></g></g></g></g></g></svg>