<svg xmlns="http://www.w3.org/2000/svg" xmlns:xlink="http://www.w3.org/1999/xlink" width="27.87" height="10.38" viewBox="0 0 27.87 10.38"><defs><style>.cls-1{fill:none;}.cls-2{clip-path:url(#clip-path);}.cls-3,.cls-4{fill:#231f20;}.cls-3{fill-rule:evenodd;}</style><clipPath id="clip-path" transform="translate(0)"><rect class="cls-1" y="1.48" width="6.7" height="6.2"/></clipPath></defs><g id="Layer_2" data-name="Layer 2"><g id="Layer_1-2" data-name="Layer 1"><g id="g580"><g class="cls-2"><g id="g578"><g id="g576"><path id="path574" class="cls-3" d="M1.32,1.53A3.6,3.6,0,0,0,0,3.65a.88.88,0,0,0,.27.83c.3.23.8.37.8.59A7.49,7.49,0,0,0,.42,6.71a.79.79,0,0,0,.7.94,2.63,2.63,0,0,0,2-1.41c0-.06,0-.16,0-.13A3.88,3.88,0,0,1,2,6.42c-.67,0-1-.18-.92-.33s.56-1.1.65-1.57a.78.78,0,0,0-.09-.68c-.29-.35-1-.39-1-.72s.43-.48.7-.66a7.52,7.52,0,0,0,.22-.83c0-.09-.08-.22-.2-.1M3,1.66a2.53,2.53,0,0,0,0,.88.86.86,0,0,0,.82.7,5.44,5.44,0,0,0,1.46-.1.12.12,0,0,1,.17.13,12.49,12.49,0,0,0,.11,2,6.76,6.76,0,0,0,.7,2.33c.07.15.18.16.21,0s.18-.57.26-.84a.41.41,0,0,0-.07-.35,9.82,9.82,0,0,1-.78-3.66c-.06-.51,0-1-.73-.91A5,5,0,0,1,4,1.92c-.37,0-.84-.13-.87-.27s0-.09-.09-.09S3,1.63,3,1.66" transform="translate(0)"/></g></g></g></g><g id="g86"><g id="g100"><g id="g98"><g id="g96"><path id="path94" class="cls-4" d="M18,3.71l-.1,0h0l0,0-.39.52v.16l.63.56h.12l.41-.55V4.27ZM13.86,9l-.62-.55h-.13L12.7,9v.15l.63.56h.13l.4-.55,0,0V9ZM17.14,1.7l.15-.05h0a.59.59,0,0,1,.33-.25l.24,0h.19l.18,0,.17.07.13.06h0l-.16.08L17.46,2l-.06,0h0l-.07.05h0l-.06.06h0l0,.07v0l.08.09v0h.16l.22,0L18,2.27l.36-.13A2,2,0,0,0,18.73,2h0l.07,0h0l.09-.07L19,1.81l0,0h.08l.08,0h0l.1-.11h0l.08-.15.05-.17h0l0-.13v0l-.07-.07h0L19.22,1h0l-.13,0L19,1,18.82.88,18.64.8,18.46.73h0l-.22,0h0l-.19,0a.83.83,0,0,0-.71.39h0l-.12.2h0l-.09.22h0v.2Zm-4,.33.27.12h0V1.89l0-.14-.07-.11-.11,0-.15,0-.14.07-.07.09Zm-1.3,1.74-.17,0,0-.06,0-.08h0l.12-.09h0l.34-.2.32-.21.31-.25.26-.26-.24-.12-.27-.22h0l-.06-.16h0V1.89h0l.12-.28.19-.28.25-.2.26-.08h0l.27.18.09.35h0V2l0,.26v0l.09.06h0l0,.08h0v.2h0l-.07.18h0l-.1.07,0,0-.07,0h0l0-.06,0,0L13.23,3l-.36.3a3.14,3.14,0,0,1-.39.24,3.38,3.38,0,0,1-.44.18h0l-.2,0ZM22.07,8.5h0l-.52.17L21,8.84,20.55,9l-.35.12h0l0,0h0l0,.06-.2.39,0,0,.06.07,0,0h0l.91-.31,1-.32h0l0,0h0l0-.05h0l.22-.4h0v0l0-.06h-.12Zm5.8-2.62c0-.16,0-.3,0-.42,0-.31-.06-.63-.1-1s-.09-.65-.13-1-.09-.65-.13-1-.08-.63-.11-.94h0l0-.37V.88h0v0l0-.16L27.18.6h0l-.08.1h0a2.49,2.49,0,0,0-.16.42l-.09.27,0,.25v0h0l.12,1c0,.32.07.64.12,1s.07.63.12,1,.08.64.12,1,.08.62.1.92.05.6.07.9v0l.06.06.06.07.15-.19h0a1.83,1.83,0,0,0,.12-.41,2.63,2.63,0,0,0,.05-.49v-.5Zm-1.62-.33h0l-.64,0a5.64,5.64,0,0,1-.77-.07l-.39-.08L24,5.27l-.4-.13L23.29,5l.11-.24.08-.36,0-.29V4.07l0-.31h0c0-.19-.05-.39-.09-.62s-.07-.44-.1-.65l-.1-.55c0-.15,0-.25-.05-.3V1.48l.07-.15.1-.15h0L23.41,1l0-.08-.07,0L23.2.75,23.06.54,23,.3,22.86.06l0-.06h-.22l-.33.73,0,.05.12.19.07.21.05.26,0,.25c0,.23.08.48.13.74s.09.52.13.78.07.52.1.75,0,.42.06.59l0,.06-.15,0-.33,0-.38,0-.39,0-.34,0-.26,0h0l-.13,0h0v0l-.22.33a4,4,0,0,0-.18.36l0,0,0,.09,0,0h.06a4.72,4.72,0,0,1,.73,0,5.32,5.32,0,0,1,.69,0,5.87,5.87,0,0,1,.68.14c.15,0,.32.09.48.14a7.8,7.8,0,0,1-.88.31,6.54,6.54,0,0,1-1,.21,6.84,6.84,0,0,1-.85.09h-.94l-.17,0-.15,0-.15,0-.29-.16-.27-.29,0,0-.11,0h-.06l-.19.79V7l0,0,.3.31.3.2a2.81,2.81,0,0,1-.16.49,3.53,3.53,0,0,1-.28.5,3.07,3.07,0,0,1-.38.44,2.78,2.78,0,0,1-.51.37,4.57,4.57,0,0,1-.49.25,3.88,3.88,0,0,1-.45.14,2.22,2.22,0,0,1-.45.07h-.52l-.27.12v.16l.1.08h0a3.7,3.7,0,0,0,.4.13l.36.08.35,0h.34a2.45,2.45,0,0,0,.53-.09,2.7,2.7,0,0,0,.53-.22,1.91,1.91,0,0,0,.69-.66,4.56,4.56,0,0,0,.4-.86h0c.05-.15.1-.3.14-.47s.07-.3.1-.46l.25,0h.46a6.06,6.06,0,0,0,.75,0q.43-.06.84-.15c.27-.06.53-.14.79-.22l.78-.29.64-.25a4.44,4.44,0,0,1,.62-.19c.21,0,.43-.07.65-.09h.12a3.21,3.21,0,0,1,.6.06h.14L26,6.41h0l.09-.16.1-.17.1-.17h0l.06-.13h0V5.62l-.06,0Zm-10,1a6.35,6.35,0,0,1-1.11.55,7.3,7.3,0,0,1-1.18.32,9.09,9.09,0,0,1-1.21.18l-.52,0a5.58,5.58,0,0,1-.7,0,2,2,0,0,1-.65-.16,1.68,1.68,0,0,1-.54-.35A1.58,1.58,0,0,1,10,6.57a1.9,1.9,0,0,1-.14-.73,2.34,2.34,0,0,1,.42-1.32l0,0h0l.17,0,0,.08,0,.16v0a1.55,1.55,0,0,0-.18.66v0a1.2,1.2,0,0,0,.13.57.93.93,0,0,0,.32.38,1.63,1.63,0,0,0,.44.21,2.09,2.09,0,0,0,.51.08h.54c.33,0,.65,0,1,0s.62-.09.92-.15.6-.15.91-.25.6-.23.91-.37L16,5.79h0a1.83,1.83,0,0,0-.24-.53,4.54,4.54,0,0,0-.39-.48l0,0,0-.05.26-.75h.21l0,0a3,3,0,0,1,.44.68,2.21,2.21,0,0,1,.21.78h0v.27l0,.34-.09.32-.18.23Z" transform="translate(0)"/></g></g></g></g></g></g></svg>