<svg xmlns="http://www.w3.org/2000/svg" xmlns:xlink="http://www.w3.org/1999/xlink" width="27.54" height="10.38" viewBox="0 0 27.54 10.38"><defs><style>.cls-1{fill:none;}.cls-2{clip-path:url(#clip-path);}.cls-3,.cls-4{fill:#231f20;}.cls-3{fill-rule:evenodd;}</style><clipPath id="clip-path" transform="translate(0)"><rect class="cls-1" y="2.47" width="6.04" height="4.21"/></clipPath></defs><g id="Layer_2" data-name="Layer 2"><g id="Layer_1-2" data-name="Layer 1"><g id="g516"><g class="cls-2"><g id="g514"><g id="g512"><path id="path510" class="cls-3" d="M0,4.88c0,.9.43,1.81,1.41,1.81S3,6,3,4.69c0-.78-.73-2.22-1.63-2.22S0,4.21,0,4.88m2.61,0c0,.39-.67.59-1.14.59S.37,5.11.37,4.72a1,1,0,0,1,.94-1,1.56,1.56,0,0,1,1.3,1.11M4.83,3.3a7.22,7.22,0,0,0-.47,1.06.26.26,0,0,0,.06.28c.32.23.62.48.93.7.09.06.11.07.15,0A7.87,7.87,0,0,0,6,4.21.16.16,0,0,0,6,4,9.11,9.11,0,0,0,5,3.27c-.09-.06-.15,0-.2,0" transform="translate(0)"/></g></g></g></g><g id="g86"><g id="g100"><g id="g98"><g id="g96"><path id="path94" class="cls-4" d="M17.64,3.71l-.1,0h0l0,0-.39.52v.16l.63.56h.12l.41-.55V4.27ZM13.53,9l-.63-.55h-.12L12.37,9v.15l.63.56h.13l.4-.55,0,0V9ZM16.81,1.7,17,1.65h0a.59.59,0,0,1,.33-.25l.24,0h.19l.18,0,.17.07.13.06h0l-.16.08L17.13,2l-.06,0h0L17,2.12h0l-.06.06h0l0,.07v0l.08.09v0h.16l.21,0,.32-.08L18,2.14A2.32,2.32,0,0,0,18.4,2h0l.07,0h0l.09-.07.07-.06,0,0h.08l.08,0h0l.1-.11h0L19,1.46l.05-.17h0l0-.13v0L19,1.07h0L18.89,1h0l-.13,0-.08,0L18.49.88,18.31.8,18.13.73h0l-.22,0h0l-.19,0a.83.83,0,0,0-.71.39h0l-.12.2h0l-.09.22h0v.2ZM12.8,2l.28.12h0V1.89l0-.14L13,1.64l-.11,0-.15,0-.14.07-.07.09ZM11.51,3.77l-.17,0,0-.06,0-.08h0l.12-.09h0l.34-.2.32-.21.31-.25.26-.26-.25-.12-.26-.22h0l-.06-.16h0V1.89h0l.12-.28.19-.28.24-.2L13,1.05h0l.27.18.09.35h0V2l0,.26v0l.09.06h0l0,.08h0v.2h0l-.07.18h0l-.1.07,0,0-.07,0h0l0-.06,0,0L12.9,3l-.36.3a2.65,2.65,0,0,1-.4.24,2.77,2.77,0,0,1-.43.18h0l-.19,0ZM21.74,8.5h0l-.52.17-.52.17L20.22,9l-.35.12h0l0,0h0l0,.06-.2.39,0,0,.06.07,0,0h0l.91-.31c.31-.11.63-.22,1-.32h0l0,0h0l0-.05h0l.22-.4h0v0l0-.06Zm5.8-2.62q0-.24,0-.42c0-.31-.06-.63-.11-1s-.08-.65-.12-1-.09-.65-.13-1-.08-.63-.11-.94h0l0-.37V.88h0v0l0-.16L26.85.6H26.8l-.08.1h0a2.49,2.49,0,0,0-.16.42l-.09.27,0,.25v0h0l.12,1q0,.48.12,1c0,.31.07.63.11,1s.09.64.13,1,.07.62.1.92,0,.6.07.9v0l.06.06.06.07.15-.19h0a1.83,1.83,0,0,0,.12-.41,2.63,2.63,0,0,0,.05-.49v-.5Zm-1.62-.33h0l-.64,0a5.64,5.64,0,0,1-.77-.07l-.39-.08-.38-.1-.4-.13L23,5l.11-.24.08-.36,0-.29V4.07l0-.31h0c0-.19,0-.39-.09-.62S23,2.7,23,2.49l-.1-.55c0-.15,0-.25-.05-.3V1.48l.07-.15.1-.15h0L23.08,1l0-.08-.07,0L22.87.75,22.73.54,22.62.3,22.53.06l0-.06h-.22L22,.73l0,.05.12.19.07.21.05.26.05.25c0,.23.08.48.13.74s.09.52.13.78.07.52.1.75.05.42.06.59l0,.06-.15,0-.33,0-.38,0-.39,0-.34,0-.26,0h0l-.12,0h0v0l-.22.33a3.94,3.94,0,0,0-.19.36v0l0,.09,0,0h.06a4.64,4.64,0,0,1,.73,0,5.07,5.07,0,0,1,.68,0,5.63,5.63,0,0,1,.69.14c.15,0,.32.09.48.14a7.8,7.8,0,0,1-.88.31,6.54,6.54,0,0,1-1,.21,6.84,6.84,0,0,1-.85.09h-.94l-.17,0-.15,0-.15,0-.29-.16-.27-.29,0,0-.11,0H18l-.19.79V7l0,0,.3.31.3.2a2.81,2.81,0,0,1-.16.49,3.53,3.53,0,0,1-.28.5,3.86,3.86,0,0,1-.38.44,2.78,2.78,0,0,1-.51.37,4.57,4.57,0,0,1-.49.25,3.88,3.88,0,0,1-.45.14,2.22,2.22,0,0,1-.45.07H15.2l-.27.12v.16l.1.08h0a3.7,3.7,0,0,0,.4.13l.36.08.34,0h.34a2.54,2.54,0,0,0,.54-.09,2.39,2.39,0,0,0,.52-.22,1.86,1.86,0,0,0,.7-.66,4.56,4.56,0,0,0,.4-.86h0c.05-.15.1-.3.14-.47s.07-.3.1-.46l.25,0h.46a6.06,6.06,0,0,0,.75,0q.43-.06.84-.15c.26-.06.53-.14.79-.22l.78-.29.64-.25A4.44,4.44,0,0,1,24,6.5c.21,0,.43-.07.65-.09h.12a3.21,3.21,0,0,1,.6.06h.14l.08-.07h0l.08-.16.11-.17.1-.17h0L26,5.76h0V5.62l-.06,0Zm-10,1a6.35,6.35,0,0,1-1.11.55,7.3,7.3,0,0,1-1.18.32,9.09,9.09,0,0,1-1.21.18l-.52,0a5.58,5.58,0,0,1-.7,0,2,2,0,0,1-.65-.16A1.68,1.68,0,0,1,10,7.11a1.58,1.58,0,0,1-.37-.54,1.73,1.73,0,0,1-.14-.73A2.34,2.34,0,0,1,9.9,4.52l0,0h0l.17,0,0,.08,0,.16v0a1.55,1.55,0,0,0-.18.66v0a1.2,1.2,0,0,0,.13.57.93.93,0,0,0,.32.38,1.63,1.63,0,0,0,.44.21,2.09,2.09,0,0,0,.51.08h.54c.33,0,.65,0,1,0s.62-.09.92-.15.6-.15.91-.25.6-.23.91-.37l.08-.08h0a1.62,1.62,0,0,0-.25-.53,3.48,3.48,0,0,0-.38-.48l0,0,0-.05.26-.75h.21l0,0a3.44,3.44,0,0,1,.44.68,2.21,2.21,0,0,1,.21.78h0v.27l0,.34-.09.32-.18.23Z" transform="translate(0)"/></g></g></g></g></g></g></svg>