<svg xmlns="http://www.w3.org/2000/svg" xmlns:xlink="http://www.w3.org/1999/xlink" width="27.56" height="10.38" viewBox="0 0 27.56 10.38"><defs><style>.cls-1{fill:none;}.cls-2{clip-path:url(#clip-path);}.cls-3,.cls-4{fill:#231f20;}.cls-3{fill-rule:evenodd;}</style><clipPath id="clip-path" transform="translate(0)"><rect class="cls-1" y="1.49" width="6.09" height="6.19"/></clipPath></defs><g id="Layer_2" data-name="Layer 2"><g id="Layer_1-2" data-name="Layer 1"><g id="g500"><g class="cls-2"><g id="g498"><g id="g496"><path id="path494" class="cls-3" d="M4,2.7A.71.71,0,0,0,4.19,3a9.2,9.2,0,0,1,1.49,4.3c0,.13,0,.4.13.4s.17-.3.21-.4a7.17,7.17,0,0,0-.26-3A7.82,7.82,0,0,0,4.37,1.55c0-.05-.07-.07-.1-.06A3.7,3.7,0,0,0,4,2.7M0,4.89c0,.89.43,1.8,1.41,1.8S3,6,3,4.69c0-.78-.73-2.21-1.63-2.21S0,4.21,0,4.89m2.61,0c0,.39-.67.59-1.14.59S.37,5.11.37,4.72a1,1,0,0,1,.94-1,1.56,1.56,0,0,1,1.3,1.11" transform="translate(0)"/></g></g></g></g><g id="g86"><g id="g100"><g id="g98"><g id="g96"><path id="path94" class="cls-4" d="M17.66,3.71l-.09,0h0v0l-.4.52v.16l.63.56h.13l.4-.55,0,0V4.27ZM13.55,9l-.62-.55h-.12L12.4,9l0,0v.13l.64.56h.12l.41-.55V9ZM16.83,1.7,17,1.65h0a.54.54,0,0,1,.32-.25l.24,0h.19l.18,0,.18.07.12.06h0l-.16.08L17.15,2l-.06,0h0L17,2.12h0L17,2.18h0l0,.07v0l.08.09,0,0h.15l.22,0,.31-.08.36-.13A2,2,0,0,0,18.42,2h0l.06,0h0l.09-.07.07-.06,0,0h.08l.08,0h0l.09-.11h0L19,1.46l.06-.17h0l0-.13v0L19,1.07h0L18.91,1h0l-.13,0L18.7,1,18.51.88,18.34.8,18.16.73h0l-.21,0h0l-.19,0a.83.83,0,0,0-.71.39h0l-.11.2h0l-.09.22h0v.2Zm-4,.33.27.12h0V1.89l0-.14L13,1.64l-.12,0-.15,0-.13.07-.07.09Zm-1.3,1.74-.16,0,0-.06,0-.08h0l.12-.09h0l.34-.2.32-.21.32-.25.26-.26-.25-.12-.26-.22h0l-.06-.16h0l0-.18h0l.12-.28.18-.28.25-.2.26-.08h0l.27.18.09.35h0V2l0,.26v0l.08.06h0l0,.08h0l0,.2h0l-.07.18h0l-.1.07,0,0-.06,0h0l0-.06,0,0L12.92,3l-.35.3a3.24,3.24,0,0,1-.83.42h0l-.19,0ZM21.76,8.5h0l-.51.17-.53.17L20.24,9l-.35.12h0l0,0h0l0,.06-.21.39v0l.06.07v0h0l.91-.31,1-.32h0l0,0h0l0-.05h0l.21-.4h0l0,0V8.49h-.12Zm5.8-2.62c0-.16,0-.3,0-.42,0-.31-.07-.63-.11-1l-.12-1c0-.32-.09-.65-.14-1s-.08-.63-.11-.94h0l0-.37V.88h0v0l0-.16L26.87.6h0l-.08.1h0l-.16.42-.08.27-.05.25v0h0l.12,1,.12,1,.12,1c0,.31.08.64.12,1s.08.62.1.92,0,.6.07.9v0l.06.06.07.07.14-.19h0a1.17,1.17,0,0,0,.12-.41,3.86,3.86,0,0,0,.06-.49v-.5Zm-1.62-.33h0l-.65,0a5.37,5.37,0,0,1-.76-.07l-.4-.08-.38-.1-.39-.13L23,5l.12-.24.07-.36,0-.29V4.07l0-.31h0c0-.19-.05-.39-.09-.62S23,2.7,23,2.49s-.07-.39-.1-.55,0-.25-.05-.3V1.48l.07-.15L23,1.18h0L23.1,1l0-.08-.06,0L22.89.75,22.75.54,22.64.3,22.55.06l0-.06h-.21L22,.73l0,.05.13.19.06.21.05.26.05.25c.05.23.09.48.13.74s.09.52.13.78.07.52.1.75.05.42.07.59l0,.06-.14,0-.34,0-.38,0-.38,0-.35,0-.25,0h0l-.13,0h0v0l-.22.33a4,4,0,0,0-.18.36l0,0,0,.09,0,0h.06a4.51,4.51,0,0,1,.72,0,5.32,5.32,0,0,1,.69,0,5.87,5.87,0,0,1,.68.14,4.34,4.34,0,0,1,.48.14,7.68,7.68,0,0,1-.87.31,6.94,6.94,0,0,1-1,.21,6.7,6.7,0,0,1-.84.09h-.94l-.18,0-.15,0-.15,0-.28-.16-.28-.29,0,0-.11,0h-.05l-.2.79V7l0,0,.29.31.31.2A4,4,0,0,1,18.3,8a2.7,2.7,0,0,1-.27.5,3.16,3.16,0,0,1-.39.44,3.08,3.08,0,0,1-.5.37c-.18.1-.35.19-.49.25a3.88,3.88,0,0,1-.45.14,2.32,2.32,0,0,1-.46.07h-.52L15,9.89v0l0,.1v0l.1.08h0l.4.13.36.08.35,0h.34a2.54,2.54,0,0,0,.54-.09,2.62,2.62,0,0,0,.52-.22,1.91,1.91,0,0,0,.69-.66,5.29,5.29,0,0,0,.41-.86h0c0-.15.09-.3.13-.47a3.11,3.11,0,0,0,.1-.46l.26,0h.46a6,6,0,0,0,.74,0q.44-.06.84-.15c.27-.06.53-.14.8-.22l.77-.29.64-.25a5,5,0,0,1,.63-.19,6,6,0,0,1,.65-.09h.12a3.21,3.21,0,0,1,.6.06h.13l.09-.07h0l.09-.16.1-.17L26,5.9h0L26,5.76h0V5.62l-.07,0Zm-10,1a6.35,6.35,0,0,1-1.11.55,7,7,0,0,1-1.18.32,8.71,8.71,0,0,1-1.2.18l-.52,0a5.48,5.48,0,0,1-.7,0,2.13,2.13,0,0,1-.66-.16A1.79,1.79,0,0,1,10,7.11a1.58,1.58,0,0,1-.37-.54,1.9,1.9,0,0,1-.14-.73,2.36,2.36,0,0,1,.43-1.32l0,0h0l.17,0v.08l0,.16,0,0a1.41,1.41,0,0,0-.17.66v0a1.32,1.32,0,0,0,.12.57,1,1,0,0,0,.32.38,1.78,1.78,0,0,0,.44.21,2.09,2.09,0,0,0,.51.08H12c.33,0,.65,0,1,0l.93-.15c.3-.07.6-.15.9-.25s.61-.23.92-.37l.08-.08h0a1.85,1.85,0,0,0-.25-.53c-.12-.17-.25-.33-.38-.48l0,0V4.68l.26-.75h.21l0,0a3.09,3.09,0,0,1,.45.68,2.21,2.21,0,0,1,.21.78h0v.27l0,.34-.09.32-.18.23Z" transform="translate(0)"/></g></g></g></g></g></g></svg>