<svg xmlns="http://www.w3.org/2000/svg" xmlns:xlink="http://www.w3.org/1999/xlink" width="28.6" height="10.38" viewBox="0 0 28.6 10.38"><defs><style>.cls-1{fill:none;}.cls-2{clip-path:url(#clip-path);}.cls-3,.cls-4{fill:#231f20;}.cls-3{fill-rule:evenodd;}</style><clipPath id="clip-path" transform="translate(0)"><rect class="cls-1" y="1.54" width="8.16" height="6.09"/></clipPath></defs><g id="Layer_2" data-name="Layer 2"><g id="Layer_1-2" data-name="Layer 1"><g id="g468"><g class="cls-2"><g id="g466"><g id="g464"><path id="path462" class="cls-3" d="M7.92,1.62a1.44,1.44,0,0,1-.19.7c-.3.36-1,.29-1.13-.06a1.69,1.69,0,0,1,0-.45c0-.09,0-.14-.08-.14s-.09.09-.12.17a2.23,2.23,0,0,1-.21.58.94.94,0,0,1-1.44.09,1.91,1.91,0,0,1-.42-.67c0-.08-.1-.12-.14,0L4,2.85c0,.08,0,.12.09.25.36.8.55,1.16.82,1.87a10.28,10.28,0,0,1,.58,2.37c0,.1,0,.28.17.28s.14-.13.15-.21a6.29,6.29,0,0,0-.42-3.25c0-.07,0-.11,0-.13a.23.23,0,0,1,.14,0c.35,0,.65-.29.82-.61a.9.9,0,0,0,1.43,0,2.31,2.31,0,0,0,.29-1.82c0-.06-.05-.08-.06-.08s-.11,0-.11.08M0,4.73c0,.9.43,1.81,1.41,1.81S3,5.85,3,4.54c0-.78-.72-2.22-1.63-2.22S0,4.06,0,4.73m2.61,0c0,.39-.67.59-1.14.59S.37,5,.37,4.56a1,1,0,0,1,.94-1,1.56,1.56,0,0,1,1.3,1.11" transform="translate(0)"/></g></g></g></g><g id="g86"><g id="g100"><g id="g98"><g id="g96"><path id="path94" class="cls-4" d="M18.7,3.71l-.09,0h0l0,0-.39.52v.16l.63.56h.12l.41-.55V4.27ZM14.59,9,14,8.48h-.12L13.44,9l0,0v.13l.63.56h.13l.4-.55,0,0V9ZM17.87,1.7,18,1.65h0a.54.54,0,0,1,.32-.25l.24,0h.19l.18,0,.17.07.13.06h0l-.16.08L18.19,2l-.06,0h0l-.07.05h0L18,2.18h0l0,.07v0l.08.09v0h.16l.22,0,.31-.08.36-.13A2,2,0,0,0,19.46,2h0l.07,0h0l.09-.07.07-.06,0,0h.08l.08,0h0l.1-.11h0l.07-.15.05-.17h0l0-.13v0l-.07-.07h0L20,1h0l-.13,0-.08,0L19.55.88,19.37.8,19.19.73h0L19,.68h0l-.19,0a.83.83,0,0,0-.71.39h0l-.11.2h0l-.09.22h0v.2Zm-4,.33.27.12h0V1.89l0-.14-.07-.11L14,1.6l-.15,0-.14.07-.06.09Zm-1.3,1.74-.17,0,0-.06,0-.08h0l.12-.09h0l.34-.2.32-.21.31-.25.26-.26-.24-.12-.26-.22h0l-.06-.16h0V1.89h0l.13-.28.18-.28.25-.2.26-.08h0l.27.18.09.35h0l0,.21V2l0,.26v0l.08.06h0l0,.08h0l0,.2h0l-.07.18h0l-.1.07,0,0-.06,0h0l0-.06,0,0L14,3l-.35.3a4.23,4.23,0,0,1-.4.24,2.89,2.89,0,0,1-.44.18h0l-.19,0ZM22.8,8.5h0l-.51.17-.53.17L21.28,9l-.35.12h0l0,0h0l0,.06-.21.39v0l.05.07,0,0h0l.91-.31,1-.32h0l0,0h0l0-.05h0l.22-.4h0v0l0-.06H22.8Zm5.8-2.62c0-.16,0-.3,0-.42,0-.31-.06-.63-.1-1s-.08-.65-.13-1-.08-.65-.13-1-.08-.63-.11-.94h0l0-.37V.88h0v0l0-.16L27.91.6h0l-.08.1h0c0,.07-.08.2-.16.42l-.09.27,0,.25v0h0l.12,1,.12,1,.12,1c0,.31.08.64.12,1s.08.62.1.92.05.6.07.9v0l.06.06.06.07.15-.19h0a1.83,1.83,0,0,0,.12-.41,2.63,2.63,0,0,0,.05-.49v-.5ZM27,5.55h0l-.64,0a5.37,5.37,0,0,1-.76-.07l-.4-.08-.38-.1-.39-.13L24,5l.11-.24.08-.36,0-.29V4.07l0-.31h0c0-.19-.05-.39-.09-.62s-.07-.44-.1-.65l-.1-.55c0-.15,0-.25-.05-.3V1.48L24,1.33l.1-.15h0L24.14,1l0-.08-.07,0L23.93.75,23.79.54,23.68.3,23.59.06l0-.06h-.22L23,.73l0,.05.12.19.07.21,0,.26.05.25c0,.23.09.48.13.74s.09.52.13.78.07.52.1.75.05.42.07.59l0,.06-.15,0-.33,0-.38,0-.39,0-.34,0-.26,0h0l-.13,0h0v0l-.22.33a4,4,0,0,0-.18.36l0,0,0,.09,0,0h.05a4.72,4.72,0,0,1,.73,0,5.32,5.32,0,0,1,.69,0,5.87,5.87,0,0,1,.68.14,4.34,4.34,0,0,1,.48.14,7.16,7.16,0,0,1-.88.31,6.54,6.54,0,0,1-1,.21,6.9,6.9,0,0,1-.84.09h-.94l-.18,0-.15,0-.15,0-.28-.16-.28-.29,0,0-.11,0h-.06l-.19.79V7l0,0,.3.31.3.2a2.81,2.81,0,0,1-.16.49,3.53,3.53,0,0,1-.28.5,3.07,3.07,0,0,1-.38.44,2.78,2.78,0,0,1-.51.37,3.8,3.8,0,0,1-.49.25,3.88,3.88,0,0,1-.45.14,2.12,2.12,0,0,1-.45.07h-.52L16,9.89v.16l.1.08h0a3.7,3.7,0,0,0,.4.13l.36.08.35,0h.34a2.54,2.54,0,0,0,.54-.09,2.62,2.62,0,0,0,.52-.22,1.91,1.91,0,0,0,.69-.66,4.56,4.56,0,0,0,.4-.86h0c.05-.15.1-.3.14-.47s.07-.3.1-.46l.26,0h.45a6.06,6.06,0,0,0,.75,0q.43-.06.84-.15c.27-.06.53-.14.79-.22l.78-.29.64-.25a4.44,4.44,0,0,1,.62-.19,6.57,6.57,0,0,1,.66-.09h.12a3.38,3.38,0,0,1,.6.06h.13l.09-.07h0l.09-.16.1-.17L27,5.9h0l.06-.13h0V5.62l-.07,0Zm-10,1a6.35,6.35,0,0,1-1.11.55,7.3,7.3,0,0,1-1.18.32,8.85,8.85,0,0,1-1.21.18l-.52,0a5.32,5.32,0,0,1-.69,0,2,2,0,0,1-.66-.16,1.68,1.68,0,0,1-.54-.35,1.58,1.58,0,0,1-.37-.54,1.9,1.9,0,0,1-.14-.73A2.36,2.36,0,0,1,11,4.52l0,0h0l.17,0,0,.08,0,.16,0,0a1.41,1.41,0,0,0-.17.66v0a1.32,1.32,0,0,0,.12.57,1,1,0,0,0,.32.38,1.63,1.63,0,0,0,.44.21,2.09,2.09,0,0,0,.51.08H13c.33,0,.65,0,1,0s.62-.09.92-.15.6-.15.91-.25.6-.23.92-.37l.07-.08h0a1.6,1.6,0,0,0-.24-.53,4.54,4.54,0,0,0-.39-.48l0,0V4.68l.26-.75h.21l0,0a3.09,3.09,0,0,1,.45.68,2.45,2.45,0,0,1,.21.78h0v.27l0,.34-.09.32L17,6.6Z" transform="translate(0)"/></g></g></g></g></g></g></svg>