<svg xmlns="http://www.w3.org/2000/svg" xmlns:xlink="http://www.w3.org/1999/xlink" width="28.42" height="10.38" viewBox="0 0 28.42 10.38"><defs><style>.cls-1{fill:none;}.cls-2{clip-path:url(#clip-path);}.cls-3,.cls-4{fill:#231f20;}.cls-3{fill-rule:evenodd;}</style><clipPath id="clip-path" transform="translate(0)"><rect class="cls-1" y="1.51" width="7.8" height="6.14"/></clipPath></defs><g id="Layer_2" data-name="Layer 2"><g id="Layer_1-2" data-name="Layer 1"><g id="g404"><g class="cls-2"><g id="g402"><g id="g400"><path id="path398" class="cls-3" d="M7.29,1.7A12.34,12.34,0,0,0,6.1,5.29,14.72,14.72,0,0,0,4.21,1.68c-.09-.12-.2-.09-.21.09s-.09.63-.1.9A.35.35,0,0,0,4,3,11.67,11.67,0,0,1,6,7.45c0,.09,0,.2.14.2s.15-.07.16-.2A14.82,14.82,0,0,1,7.7,2.81c.06-.12.1-.14.1-.27a5.49,5.49,0,0,1-.2-.85c-.08-.28-.18-.2-.31,0M0,4.73c0,.89.43,1.8,1.41,1.8S3,5.85,3,4.54c0-.79-.72-2.22-1.63-2.22S0,4.06,0,4.73m2.61-.05c0,.39-.67.6-1.14.6S.37,5,.37,4.56a1,1,0,0,1,.94-1,1.56,1.56,0,0,1,1.3,1.11" transform="translate(0)"/></g></g></g></g><g id="g86"><g id="g100"><g id="g98"><g id="g96"><path id="path94" class="cls-4" d="M18.52,3.71l-.1,0h0l0,0L18,4.27v.16l.63.56h.12l.41-.55V4.27ZM14.41,9l-.63-.55h-.12L13.25,9v.15l.63.56H14l.4-.55,0,0V9ZM17.69,1.7l.15-.05h0a.59.59,0,0,1,.33-.25l.24,0h.19l.18,0,.17.07.13.06h0l-.16.08L18,2l-.06,0h0l-.07.05h0l-.06.06h0l0,.07v0l.08.09v0H18l.21,0,.32-.08.36-.13A2.32,2.32,0,0,0,19.28,2h0l.07,0h0l.09-.07.07-.06,0,0h.08l.08,0h0l.1-.11h0l.08-.15.05-.17h0l0-.13v0l-.07-.07h0L19.77,1h0l-.13,0-.08,0L19.37.88,19.19.8,19,.73h0l-.22,0h0l-.19,0a.83.83,0,0,0-.71.39h0l-.12.2h0l-.09.22h0v.2Zm-4,.33.28.12h0V1.89l0-.14-.07-.11-.11,0-.15,0-.14.07-.07.09ZM12.39,3.77l-.17,0,0-.06,0-.08h0l.12-.09h0l.34-.2.32-.21.31-.25.26-.26-.25-.12-.26-.22h0l-.06-.16h0V1.89h0l.12-.28.19-.28.24-.2.27-.08h0l.27.18.09.35h0V2l0,.26v0l.09.06h0l.05.08h0v.2h0l-.07.18h0l-.1.07,0,0-.07,0h0l0-.06,0,0L13.78,3l-.36.3a2.65,2.65,0,0,1-.4.24,2.77,2.77,0,0,1-.43.18h0l-.19,0ZM22.62,8.5h0l-.52.17-.52.17L21.1,9l-.35.12h0l0,0h0l0,.06-.2.39,0,0,.06.07,0,0h0l.91-.31c.31-.11.63-.22,1-.32h0l0,0h0l0-.05h0l.22-.4h0v0l0-.06Zm5.8-2.62q0-.24,0-.42c0-.31-.06-.63-.11-1s-.08-.65-.12-1-.09-.65-.13-1-.08-.63-.11-.94h0l0-.37V.88h0v0l0-.16L27.73.6h-.05L27.6.7h0a2.49,2.49,0,0,0-.16.42l-.09.27,0,.25v0h0l.12,1q0,.48.12,1c0,.31.07.63.11,1s.09.64.13,1,.07.62.1.92.05.6.07.9v0l.06.06.06.07.15-.19h0a1.83,1.83,0,0,0,.12-.41,2.63,2.63,0,0,0,.05-.49v-.5ZM26.8,5.55h0l-.64,0a5.64,5.64,0,0,1-.77-.07L25,5.37l-.38-.1-.4-.13L23.84,5,24,4.79,24,4.43l0-.29V4.07l0-.31h0c0-.19-.05-.39-.09-.62s-.07-.44-.1-.65l-.1-.55c0-.15,0-.25,0-.3V1.48l.07-.15.1-.15h0L24,1,24,1l-.07,0L23.75.75,23.61.54,23.5.3,23.41.06l0-.06h-.22l-.33.73,0,.05.12.19.07.21,0,.26.05.25c0,.23.08.48.13.74s.09.52.13.78.07.52.1.75.05.42.06.59l0,.06-.15,0-.33,0-.38,0-.39,0-.34,0-.26,0h0l-.12,0h0v0l-.22.33a3.94,3.94,0,0,0-.19.36v0l0,.09,0,0h.06a4.64,4.64,0,0,1,.73,0,5.07,5.07,0,0,1,.68,0,5.63,5.63,0,0,1,.69.14c.15,0,.32.09.48.14a7.8,7.8,0,0,1-.88.31,6.54,6.54,0,0,1-1,.21,6.84,6.84,0,0,1-.85.09h-.94l-.17,0-.15,0-.15,0-.29-.16-.27-.29,0,0-.11,0H18.9l-.19.79V7l0,0,.3.31.3.2a2.81,2.81,0,0,1-.16.49,3.53,3.53,0,0,1-.28.5,3.86,3.86,0,0,1-.38.44A2.78,2.78,0,0,1,18,9.3a4.57,4.57,0,0,1-.49.25,3.88,3.88,0,0,1-.45.14,2.22,2.22,0,0,1-.45.07h-.52l-.27.12v.16l.1.08h0a3.7,3.7,0,0,0,.4.13l.36.08.34,0h.34a2.54,2.54,0,0,0,.54-.09,2.39,2.39,0,0,0,.52-.22,1.86,1.86,0,0,0,.7-.66,4.56,4.56,0,0,0,.4-.86h0c.05-.15.1-.3.14-.47s.07-.3.1-.46l.25,0h.46a6.06,6.06,0,0,0,.75,0q.44-.06.84-.15c.26-.06.53-.14.79-.22l.78-.29.64-.25a4.44,4.44,0,0,1,.62-.19c.21,0,.43-.07.65-.09h.12a3.21,3.21,0,0,1,.6.06h.14l.08-.07h0l.08-.16.11-.17.1-.17h0l.06-.13h0V5.62l-.06,0Zm-10,1a6.35,6.35,0,0,1-1.11.55,7.3,7.3,0,0,1-1.18.32,9.09,9.09,0,0,1-1.21.18l-.52,0a5.58,5.58,0,0,1-.7,0,2,2,0,0,1-.65-.16,1.68,1.68,0,0,1-.54-.35,1.58,1.58,0,0,1-.37-.54,1.73,1.73,0,0,1-.14-.73,2.34,2.34,0,0,1,.42-1.32l0,0h0l.17,0,0,.08,0,.16v0a1.55,1.55,0,0,0-.18.66v0A1.2,1.2,0,0,0,11,6a.93.93,0,0,0,.32.38,1.63,1.63,0,0,0,.44.21,2.09,2.09,0,0,0,.51.08h.54c.33,0,.65,0,1,0s.62-.09.92-.15.6-.15.91-.25.6-.23.91-.37l.08-.08h0a1.62,1.62,0,0,0-.25-.53A3.48,3.48,0,0,0,16,4.77l0,0,0-.05.26-.75h.21l0,0a3.44,3.44,0,0,1,.44.68,2.21,2.21,0,0,1,.21.78h0v.27l0,.34L17,6.37l-.18.23Z" transform="translate(0)"/></g></g></g></g></g></g></svg>