<svg xmlns="http://www.w3.org/2000/svg" xmlns:xlink="http://www.w3.org/1999/xlink" width="26.41" height="10.38" viewBox="0 0 26.41 10.38"><defs><style>.cls-1{fill:none;}.cls-2{clip-path:url(#clip-path);}.cls-3,.cls-4{fill:#231f20;}.cls-3{fill-rule:evenodd;}</style><clipPath id="clip-path" transform="translate(0)"><rect class="cls-1" y="1.52" width="3.78" height="6.12"/></clipPath></defs><g id="Layer_2" data-name="Layer 2"><g id="Layer_1-2" data-name="Layer 1"><g id="g412"><g class="cls-2"><g id="g410"><g id="g408"><path id="path406" class="cls-3" d="M0,1.62A2.8,2.8,0,0,0,0,2.5a.89.89,0,0,0,.83.7,5.47,5.47,0,0,0,1.46-.1c.12,0,.16,0,.16.13a12.36,12.36,0,0,0,.12,2,7,7,0,0,0,.69,2.33c.08.14.18.16.21,0s.18-.57.26-.84a.4.4,0,0,0-.06-.35,9.68,9.68,0,0,1-.79-3.67c-.06-.5,0-1-.73-.9a5.72,5.72,0,0,1-1.11.12c-.37,0-.84-.14-.86-.27s0-.09-.09-.09-.07.07-.08.1" transform="translate(0)"/></g></g></g></g><g id="g86"><g id="g100"><g id="g98"><g id="g96"><path id="path94" class="cls-4" d="M16.51,3.71l-.1,0h0l0,0L16,4.27l0,0v.14l.63.56h.13l.41-.55V4.27ZM12.4,9l-.63-.55h-.12L11.24,9v.15l.63.56H12l.4-.55,0,0V9ZM15.68,1.7l.15-.05h0a.56.56,0,0,1,.33-.25l.24,0h.18l.19,0,.17.07.13.06h0l-.16.08L16,2l-.06,0h0l-.06.05h0l-.06.06h0l0,.07v0l.07.09,0,0H16l.21,0,.32-.08.36-.13A2.83,2.83,0,0,0,17.27,2h0l.07,0h0l.08-.07.08-.06,0,0h.09l.07,0h0l.1-.11h0l.07-.15.06-.17h0l0-.13v0l-.07-.07h0L17.76,1h0l-.12,0-.09,0L17.36.88,17.18.8,17,.73h0l-.22,0h0l-.19,0a.85.85,0,0,0-.72.39h0l-.11.2h0l-.09.22h0v.2Zm-4,.33.28.12h0V1.89l0-.14-.07-.11-.12,0-.15,0-.13.07-.07.09Zm-1.3,1.74-.16,0,0-.06,0-.08h0l.12-.09h0l.34-.2.32-.21.31-.25.26-.26-.25-.12-.26-.22h0l-.07-.16h0l0-.18h0l.12-.28.19-.28.24-.2.27-.08h0l.28.18.09.35h0V2l0,.26v0l.09.06h0l.05.08h0v.2h0l-.07.18h0l-.11.07,0,0-.07,0h0l0-.06,0,0L11.76,3l-.35.3a3.24,3.24,0,0,1-.83.42h0l-.19,0ZM20.61,8.5h0l-.52.17-.52.17L19.09,9l-.36.12h0l0,0h0l0,.06-.2.39,0,0,.06.07,0,0h0l.9-.31,1-.32h0l0,0h0l0-.05h0l.22-.4h0V8.49Zm5.8-2.62q0-.24,0-.42c0-.31-.07-.63-.11-1l-.12-1c0-.32-.09-.65-.13-1s-.08-.63-.12-.94h0l0-.37V.88h0v0l0-.16L25.71.6h0l-.08.1h0a3.34,3.34,0,0,0-.17.42l-.08.27,0,.25v0h0c0,.32.07.64.11,1s.08.64.13,1,.07.63.11,1,.09.64.13,1,.07.62.1.92.05.6.07.9v0l.06.06.06.07.15-.19h0a1.83,1.83,0,0,0,.12-.41,3.87,3.87,0,0,0,0-.49v-.5Zm-1.62-.33h0l-.64,0a5.5,5.5,0,0,1-.77-.07L23,5.37l-.37-.1-.4-.13L21.83,5l.11-.24L22,4.43V3.76h0c0-.19-.06-.39-.09-.62s-.07-.44-.1-.65l-.1-.55a3,3,0,0,0-.06-.3l0-.16.07-.15.1-.15h0L22,1,22,1l-.07,0L21.74.75,21.6.54,21.49.3,21.4.06l0-.06h-.22l-.33.73,0,.05.12.19.07.21.05.26,0,.25c.05.23.09.48.14.74l.12.78c0,.26.08.52.11.75s.05.42.06.59l0,.06-.15,0-.33,0-.38,0-.39,0-.35,0-.25,0h0l-.12,0h0l0,0-.21.33a3.94,3.94,0,0,0-.19.36l0,0,.05.09,0,0h.06a4.64,4.64,0,0,1,.73,0,5.07,5.07,0,0,1,.68,0,5.63,5.63,0,0,1,.69.14c.15,0,.32.09.48.14a7.8,7.8,0,0,1-.88.31,6.83,6.83,0,0,1-1,.21,6.84,6.84,0,0,1-.85.09h-.94l-.17,0-.15,0-.15,0-.29-.16-.28-.29,0,0-.11,0h-.05l-.19.79V7l0,0,.3.31.3.2a2.81,2.81,0,0,1-.16.49,3.53,3.53,0,0,1-.28.5,3.16,3.16,0,0,1-.39.44,2.4,2.4,0,0,1-.5.37,4.57,4.57,0,0,1-.49.25,3.88,3.88,0,0,1-.45.14,2.22,2.22,0,0,1-.45.07h-.52l-.27.12v.16l.1.08h0a3.7,3.7,0,0,0,.4.13l.36.08.34,0h.34a2.54,2.54,0,0,0,.54-.09,2.39,2.39,0,0,0,.52-.22,1.86,1.86,0,0,0,.7-.66,5.29,5.29,0,0,0,.4-.86h0c0-.15.1-.3.14-.47s.07-.3.1-.46l.25,0h.46a6.17,6.17,0,0,0,.75,0c.29,0,.56-.09.83-.15s.54-.14.8-.22l.78-.29.64-.25a4.44,4.44,0,0,1,.62-.19c.21,0,.43-.07.65-.09h.12a3.21,3.21,0,0,1,.6.06h.14l.08-.07h0l.08-.16.11-.17.09-.17h0l.06-.13h0V5.62l-.06,0Zm-10,1a6.35,6.35,0,0,1-1.11.55,7.15,7.15,0,0,1-1.19.32,8.71,8.71,0,0,1-1.2.18l-.52,0a5.58,5.58,0,0,1-.7,0,2,2,0,0,1-.65-.16,1.84,1.84,0,0,1-.55-.35,1.91,1.91,0,0,1-.37-.54,1.9,1.9,0,0,1-.13-.73,2.34,2.34,0,0,1,.42-1.32l0,0h0l.17,0,0,.08,0,.16v0a1.55,1.55,0,0,0-.18.66v0A1.2,1.2,0,0,0,9,6a.93.93,0,0,0,.32.38,1.63,1.63,0,0,0,.44.21,2.09,2.09,0,0,0,.51.08h.54c.33,0,.65,0,1,0s.62-.09.92-.15.6-.15.9-.25.61-.23.92-.37l.08-.08h0a1.85,1.85,0,0,0-.25-.53A3.48,3.48,0,0,0,14,4.77l0,0,0-.05.26-.75h.21l0,0a3.44,3.44,0,0,1,.44.68,2.21,2.21,0,0,1,.21.78h0v.27l0,.34L15,6.37l-.18.23Z" transform="translate(0)"/></g></g></g></g></g></g></svg>