<svg viewBox="0 0 73.19 21.61" xmlns="http://www.w3.org/2000/svg"><path d="m.06 9.55s.06-.22.06-.27c0-.04 0-.08.03-.14v-.06s.01-.05.01-.05v-.07s.03-.07.03-.1.02-.12.02-.12c0-.02.02-.08.03-.09.01-.03.03-.11.03-.15 0-.05.02-.09.03-.13 0-.03.04-.1.04-.11.01-.05.03-.13.05-.18.01-.05.03-.1.03-.12v-.06s.02 0 .02 0v-.03s.02-.1.01-.14c0-.03 0-.06.02-.1.05-.11.13-.28.14-.33 0-.06 0-.12.02-.16.02-.05.05-.16.06-.24 0-.06.04-.16.06-.21.03-.07.04-.12.05-.17.02-.12.1-.26.19-.31.05-.03.12.09.12.11v.06s-.01.03-.01.05v.08l-.02.07s0 .07 0 .08 0 .04-.02.06v.1c0 .02-.11.36-.12.37v.03s0 .04 0 .04v.02s-.02.1-.02.1v.02s-.01.04-.01.08c0 .01-.02.08-.03.09 0 .03-.04.11-.06.14-.03.05-.04.12-.05.18-.01.09-.06.37-.07.38l-.06.18v.04q0 .06-.03.12v.04s-.03.06-.03.06v.05s-.01.05-.01.05c-.01.04-.03.1-.04.14 0 .04-.01.08-.03.11-.05.17-.02 1.03 0 1.14 0 .03.02.06.02.09 0 .05 0 .12.01.17s.06.16.09.23v.05s.02.04.03.05t.01.07v.04c.05.05.08.12.1.18.02.07.1.21.18.35.03.04.04.06.08.08l.04.03.06.02s.06.04.11.06h.02s.03 0 .03 0v.03s.21-.05.22-.05l.06-.06v-.05s.05 0 .05 0 .16-.37.17-.42c.02-.12.07-.42.17-.43.09-.01.15.07.14.14v.05s0 .04 0 .04t0 .08s0 .04 0 .09v.11s-.03.05-.03.05c0 .04-.03.2-.02.23v.1c-.02.06-.05.11-.05.12v.11c-.01.04-.03.14-.03.17 0 .04-.12.35-.14.37-.01 0-.04.06-.06.09-.02.02-.05.08-.06.09-.03.02-.11.11-.15.15-.1.11-.23.17-.38.15-.04 0-.14-.04-.25-.07-.06-.02-.15-.07-.2-.11 0 0-.08-.12-.11-.18h-.04s0-.04 0-.04c0-.02 0-.03-.02-.04-.06-.08-.18-.22-.2-.27-.1-.2-.23-.5-.25-.7 0-.03-.02-.07-.03-.09 0-.02-.02-.12-.03-.15v-.03s0 0-.01-.06v-.04s-.01-.05-.01-.05v-.03c0-.06-.03-.22-.03-.27 0-.08 0-.18-.01-.26 0-.09.03-.84.05-.87m17.22 3.82s.03.11.04.12c0 0 .22.02.24.02h.15c.02.02.03.03.07 0v.02s.1.01.1 0c.03-.02.05-.01.08-.01t.06.02l.05.02s.09 0 .13-.01c.08-.02.09-.02.15 0 .08 0 .17.02.2 0h.02s.04.02.06.01h.03s.04.01.04.01h.06l.03.02s.11-.03.11-.03c.03-.02.03-.02.06 0l.06.03s.13-.01.21-.02c.09 0 .31.02.37.03.1.01.3 0 .37-.01.04-.01.07 0 .1.01s.08 0 .12 0h.03s.17-.03.18-.03c0 0 .01-.03.01-.05h.02s.01.07.01.07.37-.03.4-.01.04.02.08 0c.03-.02.08-.02.12-.02h.07.12s.04 0 .04 0h.02s.08 0 .08 0h.05s.05.02.06.02h.14c.07.01.12.08.09.16 0 .02-.02.04-.04.06-.01.02-.03.04-.04.07-.02.05-.06.14-.06.15-.03.1-.1.24-.15.32-.04.07-.11.19-.14.27-.02.05-.04.11-.07.15-.03.03-.07.11-.08.15-.01.07-.24.06-.3.05-.05 0-.07 0-.11-.02-.03-.01-.05 0-.1 0-.11.01-.21.02-.26.02 0 0-.15.01-.21.02l-.05.02h-.04s-.05-.02-.07-.02c-.16.02-.31.03-.48.03-.14 0-.26.02-.4.05-.1.02-.19.03-.21.05l-.05.02h-.08q-.08.01-.11.02c-.05.02-.17.04-.18.06-.02.01-.07.02-.11.03-.07.01-.37.08-.4.12 0 0-.42.2-.48.22h-.03s-.06.03-.06.03c-.04.02-.1.04-.14.06h-.03s-.04.04-.04.04l-.05.03h-.02s-.06.03-.06.03t-.03.04c-.06.01-.28.13-.45.22-.16.09-.42.22-.47.26-.06.04-.12.07-.2.11l-.05.03s-.03.03-.06.03c-.06.01-.11.04-.17.08l-.06.05c-.08.02-.18.04-.2.07 0 0-.07.05-.1.07 0 0 0 0-.06.02-.02 0-.07.03-.09.04l-.03.04s-.01.02-.05.03c-.03 0-.08.04-.14.06-.04.02-.08.04-.12.07h-.04s-.03.03-.03.03t-.05.03c-.08.04-.18.08-.27.11-.08.03-.17.07-.24.11-.14.09-.3.15-.47.2-.21.06-.42.14-.61.23-.08.04-.2.1-.25.11-.08.02-.28.08-.31.1-.06.04-.15.09-.23.1-.13 0-.22.02-.33.05h-.03s-.01.04-.01.04-.03 0-.04 0c-.03 0-.12.01-.17.02-.15.02-.25.04-.39.04-.12 0-.28.02-.38.04-.06.01-.3 0-.33-.02 0 0-.07 0-.1 0-.02 0-.11-.02-.18-.03-.02 0-.14-.03-.32-.08l-.05-.03-.05-.02h-.04s-.03-.02-.03-.02l-.04-.03-.08-.03s-.06-.02-.1-.04c-.05-.02-.11-.05-.15-.06s-.54-.5-.57-.54c-.03-.05-.09-.16-.14-.21-.01-.01-.11-.17-.12-.18 0-.04-.02-.06-.05-.1-.02-.02-.04-.05-.05-.1-.02-.08-.07-.19-.11-.27l-.03-.03v-.03s-.02-.02-.02-.02c-.02-.04-.06-.12-.07-.13s-.03-.07-.04-.09c0-.01-.05-.1-.07-.14-.03-.05-.09-.17-.11-.22-.03-.09-.08-.17-.12-.25-.03-.05-.2-.22-.25-.23h-.03s-.05-.03-.05-.03-.01 0-.06-.02c-.05-.01-.15-.01-.22-.01-.06 0-.14 0-.23.01h-.04s-.14.03-.14.04c0 0-.18.07-.21.08 0 0-.07.03-.1.05l-.04.02s-.08.04-.13.07c0 0 0 0-.09.04 0 0-.03.02-.03.02-.15.05-.39.25-.52.36-.17.15-.33.34-.47.51-.04.04-.12.13-.16.18t-.07.1v.03s-.03 0-.03 0l-.02.04-.03.05s-.04.05-.05.08c-.02.04-.04.08-.06.1-.07.08-.14.27-.17.37-.02.07-.06.16-.12.23v.05s-.02.04-.02.04c-.02.04-.05.12-.05.12 0 .02-.03.05-.03.07-.01.06-.04.16-.04.16-.01.03-.02.06-.03.09t-.02.03l-.03.04s-.05.11-.08.15-.08.19-.09.27c-.01.14-.07.26-.14.4-.03.06-.05.13-.07.19 0 .02 0 .05-.02.07-.03.02-.05.06-.06.1 0 .04-.17.35-.19.37t-.04.05s-.02.04-.04.06l-.05.06-.03.06s-.04.04-.07.08c-.12.17-.4.33-.61.41-.16.06-.31.03-.49-.01-.08-.02-.32-.13-.4-.19h-.03s-.03-.02-.03-.02c-.04-.02-.07-.04-.1-.06-.02-.03-.04-.03-.07-.05t-.04-.02l-.06-.03c-.05-.05-.1-.1-.15-.14l-.06-.04s-.05-.07-.07-.1c-.03-.03-.1-.1-.11-.12-.04-.05-.08-.09-.12-.14 0 0-.07-.1-.11-.16-.01-.02-.03-.06-.05-.1-.02-.03-.04-.07-.06-.1-.12-.15-.27-.51-.33-.72-.03-.1-.09-.3-.11-.43 0-.02 0-.05-.02-.07s-.02-.02-.02-.04 0-.06 0-.08c-.01-.08-.05-.27-.08-.31-.04-.05-.09-.7-.08-.77v-.06q-.02-.05-.02-.07s.01-.05.01-.06c0-.06 0-.12.02-.19.01-.09.01-.18 0-.27 0-.07-.02-.24-.02-.25 0 0 .02-.09.03-.1 0-.04.03-.12.02-.16v-.03s0-.02 0-.04q.01-.07.01-.08s.01-.02.02-.03c0-.06.02-.15.01-.19t.02-.03s.01-.04.01-.07.01-.1.02-.13c.01-.05.03-.15.07-.2.02-.04.04-.14.05-.18.01-.07.03-.15.08-.2 0 0 .13-.17.13-.17h.06s.02.02.02.02h.03s0 .2 0 .21v.29c0 .04-.05.25-.07.28-.02.02-.04.15-.04.17 0 .14 0 .32-.03.47v.06s-.02.04-.02.05v.07s0 .07 0 .07l-.02.08v.05s0 .13 0 .14c-.04.16.06.73.15.88v.07c0 .06 0 .1.02.14.01.02.02.05.03.07 0 .04.03.07.05.1.04.06.08.16.1.23 0 .02.01.03.04.07v.07s.06.04.06.04c.01.1.09.25.15.31 0 0 .09.13.1.14h.05s.02.05.02.05 0 0 .04.07l.04.03s.03.03.05.06c0 0 .04.06.04.06l.04.03s.04.04.04.04c.03.04.11.09.15.1s.13.07.15.11.1.06.14.06c0 0 .14.08.15.09.05.09.33.1.49.1.01 0 .16-.04.17-.05 0 0 .1-.1.1-.1l.04-.02.02-.04h.03s.05-.05.05-.05c.06-.04.11-.08.14-.09 0 0 .37-.54.39-.6.01-.04.04-.12.05-.13.03-.02.06-.15.07-.18 0-.07.07-.22.11-.32.03-.08.09-.25.13-.37t.03-.03s.02-.06.04-.1c.04-.08.08-.16.11-.25 0-.03.05-.15.07-.17t.04-.09s.02-.07.04-.1c.01-.02.04-.07.06-.09.01-.01.06-.08.06-.09.03-.08.05-.15.07-.22t.05-.04l.02-.03h.02s.03-.08.02-.11c0 0 .06-.08.06-.08t.04-.04l.04-.06s.03-.04.05-.08t.03-.05l.03-.04.04-.03c.04-.07.18-.26.21-.27.04-.02.1-.08.15-.13.03-.03.1-.11.11-.11 0 0 .1-.09.13-.13h.03s.04-.02.04-.02l.03-.06s.02-.04.04-.05c.01 0 .16-.09.17-.09.05-.01.1-.06.14-.11 0-.02.06-.04.07-.05 0 0 .07-.05.1-.07t.07-.04s.06-.03.08-.05c.03-.03.14-.08.17-.08.04 0 .07-.03.11-.07v-.03s.06 0 .06 0v-.07s.02-.06.03-.07v.09s.01.04.01.04.14-.06.14-.06l.05-.02s0 0 .04-.02h.04s.03 0 .04-.02c.05-.04.16-.07.2-.09.08-.02.09-.02.12-.03h.04s.02-.06.02-.06q.02.06.03.06h.07s.04 0 .04 0h.03s.02-.02.02-.02c.02-.01.06 0 .09.03.03.02.07.01.12 0 .04 0 .11-.02.12.01 0 .01.02.02.06.04.05.03.21.13.24.18.01.02.01.03.03.04.02.02.03.03.04.05v.03l.04.03v.04s.02.03.02.03h.04s.08.2.11.27c.02.04.04.1.06.13h.02s.01.07.01.07l.03.04v.03s0 .02 0 .02t.04.1l.03.03c.04.06.05.09.06.17 0 .01.02.03.03.04 0 0 .02.04.04.07.01.02.02.05.04.07.02.03.03.05.04.09l.02.03.02.04s.03.04.03.05l.02.05.05.08s0 .01.03.04l.05.06v.05s.05.03.05.03v.04s.04.01.04.01v.02s.35.38.37.4c.05.02.08.04.1.06.02.04.08.07.11.09l.04.02s.06.03.1.05c.05.02.11.05.15.07l.03.03h.04s.1.03.1.03l.04.02q.05.02.12.04s.09 0 .11 0l.04.02.02-.03s.02-.01.04-.01v.04l.11.02h.04s0 0 .07.01h.08.07c.05.01.05.01.07.01t.09 0s.03-.02.04-.02l.03.03h.07s.04 0 .05-.01c.03-.01.04-.02.05-.02.08.01.21-.01.27-.05t.04-.01s.06.01.08 0 .03-.01.04 0t.04-.01s.02-.02.04 0t.03 0c.08-.02.1-.03.15-.05h.06s.04-.03.04-.03h.06s.02 0 .02 0h.04s.03-.02.03-.02c.03 0 .12-.03.13-.04t.05-.02s.06 0 .08-.01.07-.04.09-.05c.05-.05.07-.05.14-.04t.04-.03s.01-.01.04 0t.04-.01s.04-.03.05-.03c.03.01.17-.06.21-.08s.16-.07.21-.07q.08 0 .09-.02s.07-.05.11-.05c0 0 .2-.09.21-.1.03-.02.15-.08.21-.1h.04s.03 0 .03 0v-.04q.07-.03.07-.06s.02-.12.02-.03c0 .05.04.07.09.04l.04-.04s.05-.04.06-.05c.1-.03.25-.07.28-.14 0 0 .1-.04.12-.04.05-.02.06-.02.1-.06.01-.01.08-.07.1-.07s.04-.01.06-.02h.03s.03.01.03 0c.01-.07.13-.1.21-.12l.03-.02s.06-.01.1-.02v-.02s.02-.02.02-.02.06-.05.08-.05c.08-.03.49-.23.51-.26s0-.08-.02-.09c-.04-.02-.18-.03-.21-.03-.07 0-.22-.01-.25-.03-.02-.02-.26-.03-.32-.03-.08 0-.17 0-.27-.02-.07-.02-.17-.03-.25-.04q-.08 0-.1 0s-.04-.01-.05 0q-.08.01-.09 0c-.2-.02-.44-.04-.61-.07h-.06s-.02-.01-.02-.01h-.04s-.05.02-.09 0h-.05s-.05-.03-.11-.04c-.07 0-.16-.02-.19-.03q-.06 0-.1 0s-.03 0-.07-.01c-.11 0-.22-.02-.32-.03l-.1-.03h-.02s-.03 0-.03 0t-.07 0s-.13-.02-.2-.03h-.04s-.03 0-.03 0h-.04s-.03-.01-.03-.01c-.24-.03-.39-.05-.64-.04h-.05s-.02 0-.1 0c-.03 0-.06 0-.06 0-.01 0-.04 0-.09 0s-.16 0-.22.01c-.09.02-.4.08-.41-.08 0-.15.01-.25.07-.38l.03-.02.03-.07c.01-.05.01-.05.02-.16 0 0 .04-.08.05-.09l.02-.02s0 0 .02-.06c.01-.04.06-.12.08-.16t.04-.08l.04-.04v-.09h.03s.03.02.05.02l.06-.03s.03-.04.08-.08l.03-.04.02-.03s.05-.02.06-.03c.04-.01.07-.02.09-.04v-.05s.05 0 .05 0h.02s.04-.02.07-.07l.04.04c.05-.03.11-.09.11-.16l.02.03h.03s.07-.02.07-.02l.04-.03v-.02s0-.02 0-.02h.04s.05-.01.05-.01l.02-.02s.03-.03.04-.03c.08-.02.11-.03.18-.06.09-.04.16-.08.22-.13.06-.04.16-.08.24-.11.03 0 .14-.06.17-.09.02-.02.04-.04.07-.04t.03 0s.04-.03.06-.04c.03 0 .03 0 .06-.03h.04s.03-.02.03-.02c.03-.01.08-.04.11-.07 0 0 .09-.05.13-.08t.05-.03s.08-.03.12-.05.05-.08.06-.14l.03.06s.08-.02.09-.02.04-.03.04-.03t.03-.02c.05-.02.15-.07.18-.09.02-.01.14-.11.15-.13l.14-.11c.05-.02.1-.07.17-.12l.03-.03s0-.02.05-.04l.06-.06s.01-.02.04-.02.04-.01.05-.03c.02-.04.04-.05.07-.08t.04-.04s0-.02.06-.06c.03-.05.03-.05.03-.05s.05-.02.06-.03v-.04s.05-.03.05-.03l.02-.04.05-.04s0-.01.05-.05v-.05s.05-.04.05-.04c.03-.03.09-.1.11-.14l.02-.03v-.04s.06-.04.06-.04l.05-.09s.03-.03.04-.04l.03-.05s.04-.04.04-.04t.02-.05l.05-.06v-.04s.03-.01.03-.01l.04-.06s.05-.06.05-.07c0-.07.01-.09.05-.13.05-.05.08-.08.09-.14 0 0 .04-.04.05-.05t.04-.09h.04s.02-.03.04-.04c.02-.03.03-.05.05-.1t.02-.03l.03-.04.05-.07.02-.05s.01-.02.03-.03c.04-.03.05-.04.05-.07s.47-.52.49-.53c.02 0 .03-.02.06-.05s.06-.04.1-.06v-.03s.05-.03.05-.03c.03 0 .05-.02.12-.06v-.03s.04-.01.04-.01v-.02s.08-.02.09-.02t.05-.03s0 0 .04 0h.02s0-.03 0-.03.08-.01.09-.01c.05 0 .07 0 .11-.01.04 0 .1-.02.1-.02h.03s.03 0 .03 0h.03s.03 0 .03 0c.02.01.09.06.1.06.02.01.04.01.07.02h.03t.06.08h.03s0 .04 0 .04c.04.03.07.05.09.01 0 0 .01.05.02.08t.03.06s.04.06.07.1c.02.02.04.05.04.07t0 .04s.01.08.02.09c.07.14.1.37.11.52v.34.06s.01.03.01.03v.03s-.01.1-.01.1v.09s0 .03 0 .03v.05s.02.03 0 .06v.1.1t.02.08v.1c0 .06.01.16.01.16v.05s0 .03 0 .03v.04s-.01.03-.01.1v.05c-.03.06-.07.19-.09.27-.02.07-.05.16-.08.24-.01.03-.03.09-.04.1-.02.02-.04.06-.05.09-.02.04-.13.05-.17.05-.08 0-.16-.21-.16-.29 0-.04 0-.1-.02-.12 0 0 0-.07 0-.11 0-.08 0-.19 0-.27 0-.21-.05-.84-.07-.88-.09-.17-.16-.32-.3-.42-.05-.04-.16-.04-.23-.04-.22 0-.52.3-.65.44t-.07.09s-.02.02-.04.03c-.03.02-.04.03-.05.06 0 .01-.04.04-.08.08t-.04.05s-.02.04-.02.05t-.03.05s-.05.05-.06.08c0 0-.03.04-.06.08 0 0-.03.05-.04.06l-.03.04-.03.05s-.04.06-.04.06t-.02.03s-.03.02-.03.03c-.02.04-.04.11-.07.16-.01.02-.04.05-.05.07-.02.02-.04.05-.05.08-.02.03-.03.05-.04.07t-.03.06v.03s-.06.07-.07.08c-.03.02-.05.04-.07.07-.03.05-.07.11-.11.16l-.06.06-.02.02s-.02.03-.02.05t-.02.04s-.03.03-.05.05c-.02.01-.06.07-.11.13 0 0-.04.06-.05.08-.02.02-.02.03-.04.05-.03.02-.06.04-.08.06 0 0-.05.06-.06.08l-.03.04-.03.03s-.08.1-.12.13-.13.11-.15.13c-.03.05-.23.22-.28.24-.04.02-.1.06-.14.09-.02.01-.04.03-.06.05-.05.04-.07.06-.08.07-.1.03-.24.14-.32.21-.02.03-.02.06 0 .07.02 0 .07.03.09.04.02.02.13-.01.15-.02v.02s.02.02.02.02c.03.03.17.03.17.03h.11t.02-.03s.02-.02.03.02v.04s.08 0 .08 0h.05s.06 0 .06 0h.02s.03.03.05.03c.06 0 .12-.01.14 0 .01.01.09.01.14 0h.05s.02-.02.02-.02l.05.03h.05s.03 0 .03 0t.04 0s.14.02.18 0c0-.02 0-.04.01-.04l.02.06s.01.01.06.02t.03-.01s.03-.03.05 0c.04.03.05.03.07.01.03-.02.08 0 .11.02t.06 0s.17.03.18.03h.05s.04-.01.06-.01c.05.01.09.03.13.02h.08s.09.03.16.03c.06 0 .11 0 .15.02t.08.02h.05s.02 0 .02 0h.06s.04.01.04.01h.05s.03.01.03.01t.05 0s.06 0 .09 0h.13.03s0-.04 0-.04c0-.02 0-.05.02-.05m-13.21-9.31s0 .03 0 .05t0 .07v.08s.01.02.01.02v.28c0 .05.02.12.03.16 0 .03.02.07.02.12l.02.04s0 .05 0 .06t.03.05v.03c.04.21.32.56.57.6.02 0 .07-.01.11-.03t.05-.04l.04-.06s.05-.04.06-.1t0-.08s0-.04 0-.09l.02.02h.03s.06-.23.06-.26c0-.05.05-.2.11-.22.13-.04.14.28.13.36v.07.05s0 .04 0 .04v.07c-.02.09-.04.17-.07.25 0 .03-.03.09-.03.09t-.02.05v.04s-.01.04-.01.04l-.05.09s-.05.1-.06.15l-.18.25s-.09.07-.14.1c-.01.01-.1.09-.16.07h-.06s-.04 0-.08 0c-.03 0-.07-.02-.09-.03-.03-.03-.04-.03-.14-.1-.04-.03-.1-.07-.12-.12-.02-.03-.07-.11-.1-.13-.05-.03-.08-.11-.11-.17-.11-.22-.19-.47-.21-.72-.02-.24-.05-.7 0-.86 0-.02 0-.07.01-.1v-.08h.03s.05-.22.05-.22c0-.03.03-.13.05-.16 0 0 .05-.24.05-.24 0-.06.05-.31.1-.36 0 0 .08-.23.1-.29 0-.02.02-.07.03-.11t.02-.04l.03-.05v-.07s.04-.02.04-.02t0-.04s.04-.07.06-.11c.04-.06.11-.14.11 0 0 .11-.15.72-.19.78-.02.03-.16.79-.16.84m1.65 6.04s.01.05.03.03l.03-.04v-.02s.03-.01.03-.01v-.03l.03-.05s.01-.04.04-.06l.02-.05h.03s.04-.05.04-.05l.03-.05v-.05s.02-.04.02-.04.03-.05.05-.07c.02-.04.06-.09.1-.15t.03-.08h.02s.03-.05.04-.08c0-.02.16-.06.18-.05t.08.03h.03s.01.05.01.05h.04s.04.03.04.03l.03.04s.01 0 .05.03h.03s.04.02.04.02c.01 0 .03.02.04.03.02.02.08.08.1.09h.04s.01.04.01.04l.03.03s.14.09.15.09.02.01.03.03.01.02.03.02.04 0 .05.01l.06.07h.04s.02.04.02.05v.02s.05 0 .05 0v.04s.02.03.02.03c0 .01.09.06.09.06t.03.03s.06.04.07.04c0 0 .06.17.06.17v.03s.01.02 0 .05c0 .06 0 .11-.04.14-.01.01-.03.05-.04.06-.01.06-.02.07-.07.13l-.03.05s-.03.04-.06.08t-.03.04s-.01.01-.02.04t-.03.06s-.03.05-.04.07c-.01.03-.04.07-.06.11-.06.1-.14.22-.26.24-.05.01-.48-.33-.59-.41-.01-.01-.04-.02-.07-.03-.01 0-.08-.04-.08-.04l-.05-.04s-.02-.04-.03-.04c-.02 0-.02-.01-.05-.03-.07-.06-.22-.17-.3-.18-.09 0-.17.15-.22.23-.06.11-.12.22-.19.31-.03.03-.04.05-.04.07 0 .04 0 .05-.02.08 0 0-.03.04-.05.05l-.04.09c-.08.1-.19.17-.33.07-.09-.07-.2-.14-.29-.2h-.02s-.04-.04-.04-.04l-.06-.04-.05-.03s-.03-.02-.05-.03t-.04-.02s-.03-.01-.07-.03c-.02-.01-.04-.02-.04-.03-.02-.03-.02-.04-.05-.05-.05-.02-.11-.05-.17-.1l-.03-.02h-.03s-.03-.05-.03-.05t-.04-.03s-.08-.08-.13-.12c-.06-.06 0-.22.04-.32.02-.06.07-.17.11-.24 0 0 .02-.03.02-.03t.02-.05l.03-.04s.04-.1.06-.14c.01-.02.04-.07.04-.08t.02-.04l.04-.04s0-.02.02-.05c.01-.03.04-.08.06-.09h.04s0-.05 0-.05h.06s.01-.01.04-.03c.06-.04.53.28.59.33l.04.02s.06.01.06.02c0 0 .08.07.1.08l.12.07s.03.03.07.03c.02 0 .04 0 .05.02t.04.04l.1.02h.04s.05-.02.05-.02v-.08s.02.03.02.03zm.09 10s.03.03.03.03h.06s.03-.02.03-.02t.1-.07s.06 0 .07-.02l.11-.08s.06 0 .1-.02c.05-.01.1-.02.12-.03l.03-.02.07-.03.05-.02h.03s.02.01.02.01c.01-.02.14-.08.2-.09.03 0 .11-.03.16-.04t.04-.02s.49-.17.49-.17v-.12s0-.19.02-.1v.1s.01.13.03.12l.02-.02s.01 0 .06-.02t.05-.03h.03s.05-.01.07-.03c.03-.02.03-.03.06-.03.01 0 .05 0 .07-.02 0 0 .04 0 .09-.02.02 0 .06-.01.08-.02.04 0 .09-.04.12-.06s.12-.05.14-.06h.03s.03 0 .03 0c.03 0 .07 0 .08-.02t.06-.02s.07-.03.11-.06h.04s.03.02.05 0 .03-.02.05-.03h.03s.03 0 .04-.02c0 0 .06-.02.12-.02.03 0 .1-.04.13-.06s.07-.04.08-.05c.02-.01.05-.03.06-.03.03 0 .03 0 .07-.02.01 0 .11-.04.13-.04h.03s.09 0 .09 0c.01 0 .13.04.11.05l.02.04v.05s0 .13-.02.16c-.04.09-.07.19-.1.29-.02.07-.11.14-.17.17t-.07.02s-.04.01-.05.02t-.07.01s-.04.02-.07.03c-.15.06-.32.12-.49.15l-.05.02h-.03s-.02.02-.02.02l-.08.02h-.04s-.02.02-.02.02h-.02c-.09.04-.24.08-.28.11-.02.02-.08.03-.11.04-.04 0-.11.03-.17.05-.1.03-.26.09-.3.1 0 0 0 0-.04.02l-.04.02h-.03s-.03.02-.03.02t-.09.03l-.07.02-.08.02-.06.02s-.03.02-.04.02c-.06.01-.14.03-.15.03-.04.02-.09.05-.13.06h-.03s-.04.02-.04.02h-.03s-.04.02-.04.02t-.05.02s-.04.02-.08.02c-.07.01-.16.05-.23.09-.02.02-.06.02-.09.03-.06 0-.12.02-.2.04l-.04.02c-.07.03-.1.05-.12.04t-.04.02l-.07.03c-.06.02-.09.03-.15.03-.05 0-.06-.04-.07-.08-.02-.09.05-.3.08-.37.02-.04.17-.35.19-.3m3.83-18.14s.03-.17.03-.2.02-.14.02-.15c0-.02.05-.12.06-.16.02-.05.05-.16.06-.17t.05-.09v-.04s.05-.1.07-.15.04-.09.08-.15t.02-.04v-.02s.02-.03.02-.03.11-.07.15-.07c.09-.01.18-.01.25.02.04.02.08.04.13.05.04 0 .07.03.09.06s.06.06.09.08c.09.07.41.53.43.68.01.1 0 .2-.01.29l-.03.04-.03.02v.03s-.04.04-.04.04v.03s-.02.03-.04.04c-.02.02-.04.03-.05.06 0 0-.14 0-.17 0-.12-.07-.26-.2-.34-.3s-.38-.28-.46-.14c-.06.09-.05.43-.05.55v.04s0 .1 0 .1t0 .06v.07s0 .05 0 .05v.11.15c0 .04-.02.1 0 .15v.04s0 .06 0 .06t0 .1c.01.06.01.15 0 .22v.04s-.03.04-.03.04v.05c.01.02.01.03 0 .05-.02.06-.03.11-.03.18v.07s-.01.12-.02.15c-.02.06-.02.13-.03.2v.07h-.02s0 .05 0 .05l-.02.07v.03c-.03.16-.16.7-.26.73-.07.03-.16-.19-.17-.24-.02-.06-.02-.06-.06-.14l-.02-.03c-.03-.07-.06-.14-.09-.21-.1-.22-.22-.42-.34-.6s-.27-.39-.44-.53c-.02-.02-.04-.03-.05-.05-.02-.02-.03-.04-.05-.06 0 0-.03-.04-.05-.06s-.04-.05-.1-.09v-.02s-.04-.01-.04-.01t-.06-.04s-.02-.04-.06-.07l-.05-.02s-.14.03-.17.04c-.06.03-.17.02-.23-.01-.04-.02-.12-.06-.13-.06-.05 0-.05-.02-.08-.04-.01-.02-.03-.03-.05-.04-.1-.05-.41-.3-.42-.42s-.02-.27-.01-.4l.02-.05q.02-.05.02-.09l.02-.07s0-.04.02-.08c.02-.02.02-.04.02-.06 0-.03.03-.1.05-.11.04-.05.08-.08.1-.11 0 0 .16-.02.18-.02s.08.01.12.03c.02.01.05.02.08.02h.02s0 .03 0 .03l.06.02h.02s0 .04 0 .04h.03s.02.02.02.02h.06c.02.06.07.1.13.14.04.03.14.11.14.11s.11.11.12.11h.02s.03.05.03.05c.02 0 .03.01.03.02t.04.03c.07.04.16.15.2.2h.03s.02.03.03.06c0 0 .04.05.06.08h.04s.01.05.01.05h.03s.03 0 .03 0c.03.05.07.14.1.14.02 0 .02.02.05.05.02.02.03.04.04.05.06.05.13.15.18.24l.09.13s.05.08.08.14c0 .03.18.28.19.29s.02.03.04.06c0 0 .05.08.05.08.07.05.1-.16.1-.2s0-.15 0-.21c0 0 0-.07 0-.1 0-.04 0-.13 0-.18 0-.16-.02-.85.01-.92m-1.7 5.55s.07-.07.08-.08h.03s.03-.05.03-.05h.03c.07-.06.14-.09.22-.13.03-.01.06-.03.08-.05.04-.03.1-.05.13-.06.05-.02.08-.05.12-.08s.05-.03.09-.03l.09-.03s.08-.06.1-.06.04-.02.07-.05c0 0 .02-.03.06-.03h.08c.01 0 .18-.1.18-.1t.03-.02s.06-.02.09-.04t.04-.02s.07-.02.07-.02l.03-.03q.06 0 .06 0l.03-.03h.03s.04-.02.04-.02v-.03s.11-.02.11-.02h.02s.04-.03.04-.03t.06-.07h.04s.02-.02.02-.02h.05s.16-.07.19-.1t.07-.03l.06-.02.08-.03h.03s.03-.04.03-.04t.04-.04s.11-.05.13-.05h.05v-.02s.04 0 .04 0 .04-.01.05-.02v-.03s.04-.03.04-.03c.11-.02.18-.05.21-.14v.03s.18-.05.18-.05c.09-.05.15-.08.18-.14v.02s.08.01.11 0l.05-.04v-.02s.05-.02.05-.02c.05-.02.09-.04.1-.09 0-.01.02-.11.02-.09v.09s.13-.02.14-.02c.02-.01.06-.03.08-.04.05-.04.16-.09.21-.1l.04-.02s.03-.01.05-.02l.05-.03h.03s.03-.03.03-.03c.04-.03.05-.03.08-.03t.05-.02s.03-.03.09-.04.39-.17.4-.19c.02-.03.15-.06.17-.06h.03s.02-.04.02-.04h.05s.04-.02.05-.05c0-.02.03-.06.03-.04s.11-.02.16-.03t.04-.03l.03-.02h.06s.06-.03.06-.03c.04 0 .07-.03.12-.05.03-.01.06-.03.07-.04.02 0 .05-.03.07-.04.03-.02.07-.05.11-.05h.05s.03-.02.03-.02c.03 0 .08 0 .09.02v.02s.06.02.06.02v.04c.02.07.01.11 0 .17v.1s0 .02-.02.05l-.02.04q-.01.05-.02.06s-.09.18-.11.21c-.01.02-.68.3-.77.33-.06.02-.17.06-.22.1-.06.04-.15.08-.21.11-.08.03-.22.07-.23.08-.03.02-.12.05-.2.09-.03.01-.05.02-.07.04s-.05.03-.1.04l-.07.04h-.02s-.03.02-.03.02l-.03.02s-.03.02-.06.03c-.13.06-.37.17-.4.2-.02.02-.17.08-.2.09-.08.02-.17.05-.24.09-.02.02-.06.03-.08.05l-.06.03h-.05s-.07.06-.07.06l-.09.03s-.04.03-.05.04h-.04s-.03.01-.03.01l-.06.03h-.05s-.19.11-.19.11c-.02.01-.05.02-.06.03t-.03.02s-.04 0-.06.01c-.06.03-.14.08-.19.1-.06.03-.16.07-.22.09s-.14.06-.21.09c-.08.04-.14.07-.18.08-.04 0-.15.07-.2.11-.04.02-.13.07-.17.08-.09.02-.15.06-.22.1-.05.03-.15.06-.19.07-.02 0-.13.07-.19.1-.04.02-.12.07-.17.08-.07.02-.15.05-.21.09-.05.03-.38.2-.42.16s-.02-.18-.01-.26c0-.04.02-.07.03-.12 0-.02.05-.19.05-.19m9.25-2.41s.02-.04.02-.05c0 0 0-.1.03-.09v.03s0 .07 0 .07v.07c0 .05.23.07.23.04 0 0 .02-.02.05-.04l.05-.07q.03-.06.04-.06s.02-.04.03-.05c.02-.04.04-.07.08-.11v-.07s.04-.01.04-.01l.03-.09s.05-.07.08-.1v-.02s.02-.04.02-.04h.04s.03-.07.03-.07c.02-.04.13-.12.21-.16.03-.02.12 0 .14.03 0 0 .07.05.07.05.03 0 .06 0 .08.02l.05.07.05.03s.04.01.11.07h.03s.02.05.02.05t.11.07s.05.04.06.04q.01.05.04.05h.03s.09.09.13.13c0 0 .14.1.18.14.04.03.04.03.06.09l.03.05v.03s0 .03 0 .03-.05.16-.07.2-.03.07-.03.07t-.05.06l-.04.06v.05s-.06.03-.06.03l-.03.05-.02.03-.02.04v.02c-.08.15-.24.45-.42.43-.15-.02-.38-.23-.5-.34l-.04-.02h-.02s-.06-.06-.09-.08l-.06-.05s-.04-.03-.09-.07c-.02-.02-.06-.05-.06-.05-.05-.03-.14-.07-.18-.11-.08-.08-.24.12-.27.17-.04.09-.1.18-.15.26-.01.02-.05.12-.07.17s-.04.09-.08.13c-.06.08-.18.23-.25.22-.1-.02-.43-.23-.57-.33-.09-.05-.21-.12-.31-.19-.08-.05-.18-.12-.25-.19s-.04-.19-.01-.27c.01-.04.07-.15.07-.15.04-.02.04-.03.07-.11t.04-.07s.01-.03.01-.06c0 0 .06-.1.06-.1.01-.01.03-.02.04-.03 0-.01.01-.03.03-.07s.15-.23.17-.23c.05 0 .05 0 .07-.04.01-.01.05-.04.06-.05.07-.03.15-.04.18 0 0 .02.05.02.08.02.02 0 .05.03.07.04.05.04.09.07.14.08.07.02.18.1.27.17.03.02.25.15.26.14m-1.26 13.86s.05-.03.07-.05.07-.05.11-.07t.05-.02h.04s.03-.01.03-.01t.06-.03c.11-.08.33-.13.45-.17h.03s.05-.01.05-.01c.03-.02.11-.05.14-.06l.04-.02h.05s.04-.05.04-.05c.02-.01.02-.01.03 0 0 0 .39-.11.44-.15.03-.03.12-.06.17-.07.03-.01.07-.02.09-.03l.06-.02s.04 0 .05-.01l.35-.14c.12-.02.29-.1.41-.16h.05s.03 0 .03 0c.03-.01.07-.04.1-.05t.03 0s.03 0 .04 0c.02-.02.04-.06.05-.08v.05s.08-.04.08-.04h.02s.05-.02.05-.02h.04s.03-.04.03-.04c.03 0 .1-.02.18-.04 0 0 .3-.12.37-.16h.05s.07-.03.07-.03c.03-.01.1-.03.12-.03t.03-.02l.05-.02s.01 0 .05-.02l.05-.02s.18-.05.26-.07h.02s.02-.05.02-.05h.03s.04 0 .04 0c.02 0 .08-.03.09-.04.05-.02.27-.12.39-.17h.08t.05-.02s.04-.02.08-.03c.01 0 .09-.05.1-.06.04-.01.09-.03.12-.03s.05 0 .08-.02c.02-.02.06-.06.08-.05t.04 0s.03-.02.05-.02t.05-.01s.01-.01.09-.03c.09-.02.16-.04.22-.07.02-.01.11 0 .13.01t.03.03s.01.03.03.04c.04.02-.08.37-.09.38-.02.06-.12.3-.15.31-.07.02-.17.06-.18.06-.09.01-.15.03-.25.06-.07.02-.14.04-.22.05 0 0-.06.03-.08.04t-.09.02h-.03s-.02.02-.02.02c-.13.05-.27.1-.39.13-.09.03-.24.07-.34.13-.1.05-.22.1-.32.14-.1.03-.32.1-.36.12h-.03s-.06.03-.09.05h-.03s-.03.02-.03.02l-.02.02h-.02s-.04 0-.04 0l-.09.05h-.03s-.05.03-.05.03t-.07 0s-.04 0-.07 0l-.03.02s-.04.03-.04.03h-.02s-.04 0-.04 0l-.05.02c-.23.11-.49.2-.71.27-.09.03-.14.05-.23.07h-.03s-.01.02-.07.04t-.07.03h-.03s-.06.02-.06.02c-.05.01-.12.04-.18.07-.08.03-.18.08-.24.1 0 0-.11.04-.18.06-.03 0-.05.02-.08.03-.03.02-.08.03-.12.05-.04 0-.1.02-.12.04l-.05.03-.06.02h-.02s-.07.04-.12.05c-.03.01-.07.02-.1.03 0 0-.09.03-.12.03s-.06.01-.08.02c0 0-.05.02-.06.02t-.07.03c-.09.03-.35.11-.38.13-.04.02-.06-.16-.06-.16 0-.02.03-.14.05-.16.03-.06.12-.27.13-.32m1.03-17.22v.1s.02.06.02.06v.04s0 .04.01.08c.02.08.04.17.05.19.02.03.05.1.08.17 0 0 .04.07.05.09l.02.03h.03s.03.03.03.03c.04.08.09.1.16.12.08.02.17-.05.2-.08v-.02s.03-.03.03-.03h.05s0-.05 0-.05h.03s0-.04 0-.04v-.02s.02-.01.04-.05l.02-.04s.06-.07.07-.07c.08 0 .08.11.08.17 0 .04 0 .08-.01.11v.05q-.02.05-.02.06s-.09.24-.11.27c-.02.05-.09.18-.11.2-.02.03-.03.04-.04.06 0 .04-.11.15-.15.2-.04.04-.06.07-.1.08-.01 0-.12.07-.11.07.02.05-.19-.02-.19-.02-.08-.03-.17-.12-.21-.18t-.06-.07l-.03-.02v-.03s-.01-.03-.01-.03l-.02-.06v-.03s-.02-.04-.02-.04c-.05-.11-.11-.26-.14-.39 0-.04-.03-.25-.02-.25 0 0 .01-.28.01-.29 0 0 .02-.11.03-.17 0-.06.01-.09.03-.13v-.05s0-.04 0-.04c.02-.06.08-.27.08-.29 0-.05.09-.33.1-.35.02-.03.08-.22.09-.29.02-.1.07-.22.11-.31.04-.08.08-.18.13-.27.02-.04.07-.11.11-.04.03.04.02.05 0 .11v.06s-.01.05-.01.05v.06c-.02.09-.04.16-.06.24q-.02.05-.02.07v.03s-.02.04-.02.04c0 .03-.03.11-.05.17-.03.08-.14.69-.1.75m14.68 14.38s.05 0 .07 0c.03 0 .04-.01.11-.06.15-.04.21-.05.27-.14.01.01.02.02.04.03l.06-.04.06-.02s.04-.02.04-.02c.01-.01.05-.03.09-.04 0 0 .03-.02.04-.03l.05-.05s.1-.03.1-.05v-.07s0-.08 0-.08v-.03s-.03-.04-.03-.05t-.01-.05v-.02s-.04-.04-.04-.04c-.02-.03-.04-.12-.05-.16 0-.02 0-.03-.01-.06l-.03-.06v-.04s-.07-.2-.11-.32t-.02-.05s-.01-.07-.02-.09c-.02-.04-.05-.12-.05-.16s-.02-.26-.03-.37v-.03s0-.04 0-.04c0-.06 0-.06 0-.12t.01-.11s0-.05 0-.08c0-.04.01-.09.03-.13 0-.01 0-.05 0-.08t0-.09c.01-.07.02-.13.01-.18-.01-.03 0-.09.01-.15 0-.02 0-.05 0-.06t0-.04s.05-.09.05-.14c0-.04.03-.11.04-.16v-.03s.01-.03.03-.1c0-.02.06-.11.06-.11v-.06s.02-.02.02-.02v-.05s.07-.07.06-.12c0-.03 0-.05 0-.06h.02s.04-.04.04-.04c.06-.17.18-.32.29-.46.02-.02.07-.08.07-.08h.03s.02-.01.02-.01v-.03s.03-.03.04-.04c.08-.05.16-.1.25-.14h.03s.06-.04.06-.04c.07-.02.13-.04.17-.05t.07-.02l.04-.02h.03s.17 0 .17 0c.05 0 .21 0 .24.04t.06.02h.04s0 .04 0 .04h.03s.12.06.13.07v.03s.05 0 .05 0l.02.03.02.02s.02.02.05.03l.04.05h.03s.01.04.01.04l.03.04s.09.09.1.11t.04.04s.02.02.03.03c0 .02.02.05.02.05t.06.09s.05.07.08.1l.03.04v.07c.03.05.11.17.15.22l.03.06v.04s.05.04.05.04v.05s.01.03.01.03c.08.15.14.28.17.43t0 .08v.03c.02.07.02.15.02.16t.02.05s0 .01 0 .03v.23c0 .07-.03.55-.05.6-.01.04-.01.06 0 .13 0 .05-.01.11-.03.17-.02.08-.03.12-.02.16 0 .02-.02.12-.04.17-.06.13-.16.38-.22.56-.04.1-.8.73-.91.79-.16.1.32.46.35.47.05.02.11.04.13.07.04.04.09.09.16.12h.04s.04.02.05.04c0 0 .05.01.08.02.02 0 .04 0 .06.02.11.04.6.16.69.12t.03.01s.03-.01.06 0c.03.02.19 0 .19 0h.04s.04.02.06.02h.03s.04-.01.05-.02c0 0 .21-.01.2-.03l.04.02s.02 0 .03 0c.02 0 .09-.02.14-.02l.06-.02h.02c.07 0 .1-.01.15-.03.06-.02.17-.06.24-.06.08 0 .23-.02.26-.06h.05l.02-.02h.03s0-.08 0-.08v-.04s.02.04.02.04c0 .01 0 .05.02.04.01 0 .23-.1.26-.11h.02s.06-.03.08-.04t.05-.03s.03-.04.07-.05c.09-.02.41-.24.44-.34.09-.26-.06-1.55-.15-1.86-.01-.04-.05-.31-.05-.33 0 0-.02-.14-.04-.2-.01-.05-.02-.12-.03-.18-.04-.33-.09-.71-.13-.91 0-.03-.02-.12-.02-.12 0-.01-.02-.07-.02-.07 0-.09-.02-.3-.05-.35-.01-.02-.01-.07-.02-.12v-.08s0-.04 0-.04v-.05s0-.04 0-.04 0-.06 0-.07v-.03s-.02-.05-.02-.05v-.05s-.02-.05-.02-.05c-.02-.07-.02-.13-.02-.18 0-.09-.02-.18-.04-.25-.05-.13-.09-.36-.08-.5 0-.06-.03-.16-.04-.19v-.02s-.03-.02-.03-.03c0-.05.01-.14 0-.19-.01-.03-.02-.05-.02-.08 0-.04-.02-.12-.05-.18 0-.01 0-.05 0-.08v-.05s0-.05 0-.07c-.02-.05-.03-.09-.04-.14 0 0 0-.06 0-.07 0-.02-.02-.11-.03-.18-.02-.1-.07-.35-.07-.44 0-.03 0-.09 0-.1-.02-.02-.02-.04-.02-.09 0-.08-.02-.2-.04-.34-.02-.16-.06-.42-.08-.45-.02-.04-.06-.32-.06-.41 0-.06 0-.16-.02-.19-.01-.05-.02-.11-.02-.17 0-.07 0-.13-.02-.22 0-.03 0-.06 0-.09s0-.07-.02-.11q-.02-.09-.01-.1s0-.12-.02-.17c-.01-.08-.03-.14-.05-.21-.01-.03 0-.05 0-.11 0-.04 0-.09-.02-.14-.01-.04-.02-.14-.02-.2 0-.07-.02-.17-.05-.26 0 0-.05-.41-.06-.54l-.02-.08v-.15c-.02-.06-.02-.12-.02-.16v-.03s-.01 0-.01-.03c0-.01-.02-.09-.02-.09t-.01-.09s0-.09-.01-.13c0-.02 0-.05 0-.07-.01-.19-.03-.37-.06-.51 0-.01-.04-.39-.05-.57v-.07s-.02-.02-.02-.02v-.03s-.01-.08-.02-.13c0-.04 0-.11-.01-.12-.01-.03-.02-.06-.02-.08s-.02-.15-.04-.26c-.02-.09-.03-.18-.02-.23 0-.1-.06-.43-.12-.51-.04-.04-.15-.29-.14-.33v-.11s.02-.07.02-.07v-.04s.02-.03.04-.06c0 0 .03-.09.04-.12.03-.11.08-.27.11-.34.06-.12.12-.25.13-.34.01-.07.11-.26.16-.32.04-.05.11-.01.12.02.04.06.06.09.07.13.03.11.05.21.1.31.02.04.04.09.07.12 0 .01.04.05.05.07v.04s.04.05.04.05v.03s.02.04.03.05v.03s.02.06.02.06h.04s.1.2.11.23l.02.04.02.05.03.04v.03s.02.05.02.09c0 .01.02.07.02.07.06.07.12.2.15.28.08.2.19.42.3.6.05.07.51 1.3.51 1.32 0 .11 0 .33-.17.28-.02 0-.1-.09-.11-.11-.02-.03-.07-.09-.12-.13-.07-.07-.15-.15-.2-.21-.07-.08-.22-.24-.23-.24-.03-.02-.09.02-.1.04v.13s0 0 .01.05v.04.25c0 .09 0 .22.02.27 0 .01.01.04.02.05t.02.04c-.02.05-.02.08 0 .14.05.16.06.37.07.48v.03s.03.04.03.04v.08c0 .03 0 .08.01.1 0 .01.02.09.02.12.03.34.08.74.12.93.07.31.11.71.13.97 0 .13.04.4.06.45.01.04.02.14.02.2 0 .08 0 .18.04.24.07.19.12.62.15.89v.09s.03.13.03.13v.02s.01.02.01.06t.02.06s.02.07.02.12c0 .13.03.33.08.45v.09s0 .07 0 .07v.09s.05.02.05.02v.04s-.02.04-.02.04c0 .02.02.12.03.16.04.15.05.29.07.48l.02.05.02.07s.02.12.02.15c0 .05.01.15.03.19.02.05.02.13.02.18t.03.05s.01 0 .01.07t-.01.04s0 .05 0 .05c0 .04.04.19.05.23.02.06.04.18.05.3 0 .07.01.15.03.2.01.04.03.12.03.15v.15c0 .05.08.41.08.41t.03.06s0 .08 0 .08v.03s.02.03.02.03c.01.06.02.15.02.2 0 .06 0 .16.01.21.02.03.02.15.03.22 0 .03.03.26.03.26.03.05.03.15.03.24v.07s0 .05.02.1v.05c0 .12.02.29.02.3v.2.16c-.01.08-.01.2 0 .26s0 .39-.04.51v.02s0 .01 0 .03v.06c-.01.08-.04.3-.06.36 0 0-.02.08-.02.08 0 .04 0 .04-.02.09t-.02.08l-.02.06v.03s-.04.13-.04.13c-.04.06-.06.1-.09.18-.02.05-.07.15-.1.19-.02.02-.03.04-.05.07 0 .02-.04.04-.07.07 0 0-.12.18-.12.19-.03.07-.23.24-.3.28-.02 0-.12.1-.15.13l-.05.02-.02.02-.02.02-.05.03c-.08.05-.35.15-.43.16-.11.01-.43.08-.51.13-.03.02-.22.06-.27.07h-.08s-.02 0-.06 0c0 0-.1.03-.13.04-.1.03-.49.05-.7.06-.26.01-.45-.02-.65-.07-.33-.09-.58-.21-.82-.37-.04-.03-.1-.08-.14-.11-.04-.04-.09-.09-.13-.11-.04-.03-.07-.08-.11-.12-.03-.05-.08-.1-.13-.14-.06-.05-.2-.24-.24-.32t-.03-.05s-.05-.07-.05-.08c-.03-.07-.07-.12-.12-.17-.09-.1-.18-.21-.31-.16-.05.02-.12.07-.16.1 0 0-.02.01-.06.03h-.02s-.02.03-.02.03c-.04.02-.07.04-.1.06l-.39.22-.04.02-.03.02s-.05.04-.08.06c-.11.04-.2.08-.21.09 0 0-.16.06-.2.07-.05.01-.11.04-.16.07-.06.04-.11.06-.18.09l-.03.02h-.03s-.05.04-.05.04h-.05s-.05.02-.05.02c-.04 0-.09.02-.1.03-.06.04-.78.33-.85.33-.08 0-.3.1-.4.15-.02 0-.18.04-.28.07-.05.01-.11.02-.15.04q-.06.02-.07.03s-.02.01-.04.01c-.07 0-.18.04-.26.06-.07.02-.12.03-.21.04-.02 0-.16.05-.16.05l-.06.02c-.05 0-.14 0-.15.01 0 0-.11.02-.15.03-.05.01-.17.04-.17.04s-.19.04-.23.04h-.06s-.05 0-.08.01h-.04s-.07.02-.07.02h-.08c-.2.04-.35.06-.54.06-.31 0-.94-.01-1.11-.08-.05-.02-.14-.05-.21-.06t-.06-.02s-.03-.02-.04-.02h-.04s-.04-.02-.04-.02h-.03s-.05-.02-.05-.02c-.1-.03-.29-.09-.35-.15 0-.01-.04-.02-.06-.03-.04-.01-.06-.03-.1-.06-.03-.02-.12-.08-.17-.1-.02-.01-.04-.03-.06-.04t-.04-.02l-.08-.06s-.02 0-.04-.03l-.04-.03s-.06-.03-.06-.04c0-.02-.13-.12-.16-.15-.05-.04-.09-.08-.14-.13l-.08-.06s-.05-.05-.08-.07c-.04-.05-.12-.14-.12-.14-.02-.04-.07-.11-.12-.16h-.02s-.01-.04-.01-.04l-.02-.03s-.02-.03-.02-.04c0 0-.13-.19-.21-.32-.15-.22-.26-.45-.35-.69-.1-.28-.19-.57-.27-.86 0 0-.01-.05-.01-.08 0-.01 0-.05-.01-.06t-.02-.04s-.03-.13-.05-.19v-.06s-.02-.04-.02-.04c-.04-.16-.08-.34-.09-.45-.05-.5-.18-1.66-.19-1.73s-.01-.2-.01-.34c0-.12 0-.25-.03-.37-.03-.11-.04-.26-.04-.37 0-.1-.01-.26-.03-.4-.01-.16-.03-.32-.04-.48 0-.1-.02-.25-.05-.37-.01-.07-.02-.16-.01-.25 0 0-.02-.17-.02-.22 0-.02 0-.09 0-.14v-.04s0-.06 0-.06v-.05s-.02-.02-.02-.04c0-.04 0-.14-.02-.18-.01-.04-.02-.08-.01-.1 0-.02 0-.05 0-.1 0-.04 0-.11 0-.14 0-.01-.02-.1-.03-.13-.02-.09-.06-.29-.05-.36.01-.08 0-.38-.02-.44-.01-.03-.04-.35-.04-.43 0-.13-.02-.27-.04-.37-.02-.07-.03-.18-.03-.19 0 0 0-.08 0-.11t0-.08v-.04s0-.08 0-.08v-.02s-.02-.02-.03-.06v-.05s-.01-.06-.01-.06c0-.03-.02-.08-.02-.08 0-.02 0-.05 0-.09 0-.02 0-.05 0-.08v-.04s0-.02 0-.08c0-.05 0-.09-.01-.12-.02-.1-.05-.25-.04-.33 0-.09 0-.33-.05-.42-.02-.04-.03-.15-.04-.19 0-.01 0-.07 0-.1 0-.02 0-.04 0-.07-.01-.06-.01-.1-.01-.16 0-.02-.03-.2-.04-.27-.08-.47-.2-1.16-.27-1.59-.03-.17-.16-.73-.16-.73 0-.01-.05-.26-.06-.34-.02-.14-.07-.43-.1-.47-.04-.07.08-.53.12-.63 0 0 0-.04.01-.1 0 0 .03-.08.05-.14v-.03s.02-.03.02-.03q.03-.08.03-.08s.11-.15.1-.19c0-.01.14-.06.15-.05.01 0 .1.07.1.08 0 0 .01.05.01.07l.02.07s0 .04 0 .05t.01.08s0 .12.01.13c.03.05.05.09.05.16v.05t.01.08s0 .03.01.05c0 0 0 .05.01.08 0 .03 0 .05.02.07t.01.04l.02.04s.01.08.01.09c0 .04.03.14.04.17 0 0 .02.04.02.04 0 .03.03.09.03.09 0 .08.02.14.03.21.01.05.03.13.04.19 0 .04 0 .1.03.13v.04s0 .04 0 .04c.02.08.04.15.04.24 0 .04 0 .08.02.12.01.06.02.07.02.12 0 .09.03.24.07.36.03.1.1.64.07.71l.03.03v.04s.02.1.02.11c0 0 .03.21.04.26 0 .08.02.19.03.28.01.05.02.12.03.13 0 0 0 .06.02.13.03.2.06.46.07.58 0 .08.03.19.05.31 0 .05.04.25.04.25 0 .19.02.44.07.58t-.01.08s.01.03.01.03v.07s.03.05.03.05v.05s0 .07 0 .07v.03s.02.02.02.02v.17c.03.21.08.62.06.72 0 .03 0 .29.03.32.02.01.03.09.02.11 0 .04-.01.1-.01.15 0 .08.02.13.04.23.02.09.03.16.03.24 0 .04 0 .1.02.21t0 .08v.04s.02.04.02.04v.05s0 .13 0 .14v.07s0 .06 0 .06v.03s.01.06.01.06v.04s0 .02 0 .02t.03.07s0 .07.02.11c-.01.08 0 .18.01.24v.09.03s.02.05.02.05v.11c-.01.06 0 .24 0 .27t0 .07s0 .03 0 .06v.05s0 .02.01.05v.1s0 .11.02.16c.05.24.06.44.08.66.02.26.03.45.04.66t.02.06v.05s0 .03 0 .03c0 .04.01.09.01.13 0 .03 0 .04.01.06t.02.04s.01.07.02.12t.01.08v.03s0 .02 0 .02c0 .04 0 .1.01.15.01.06.02.12.02.17 0 .06 0 .15.03.21.02.03.03.11.03.14 0 .05.02.11.04.17 0 .02.06.18.06.2 0 .08.01.14.04.22.02.07.04.13.05.21 0 .03 0 .03.04.07v.07s0 .04 0 .04v.03s0 .01.02.07h.03s.01.04 0 .05c0 .03 0 .03.01.07l.04.07c.04.11.13.4.21.48v.05s.04 0 .04 0v.04s.04.04.04.04t.03.05s.04.07.06.12l.07.11s.08.09.13.16v.03s.05.03.05.03t.04.06s.02.01.03.03l.08.08s.08.04.1.06c.02.03.05.06.08.07 0 0 0 .02.05.06.05.06.12.11.16.14.08.04.11.06.17.12.03.03.04.03.11.05.03 0 .08.04.1.06 0 0 .16.11.17.1v-.04s.02-.03.02-.03c0-.01.02.04.02.04 0 .04 0 .04.02.04.09.02.11.03.13.02s.05.03.06.05c.01.03.13.06.16.07.04 0 .17.05.17.05.03.02.05.01.08 0h.03s.04 0 .04 0v-.08s.02.03.02.03t.04.08s.02.03.04.02.04-.02.04 0c.03.04.15.02.2 0h.03s.02.03.02.03h.02s.02 0 .07 0l.14.02s.05 0 .15.01l.05-.02h.04s.03 0 .03 0t.04.01s.04 0 .05 0t.06.02c.09 0 .37.01.4-.03.03.02.1 0 .12 0t.05 0s.07.01.1 0c.04-.03.23-.05.24-.04 0 0 .1 0 .13-.01.04-.01.11-.05.11-.05l.03.03s.1-.03.14-.04h.03s.02-.04.02-.04h.03s.04-.03.04-.03h.1s.04-.01.04-.01h.06s.05 0 .07 0c.1-.04.17-.07.26-.06.06.01.19-.07.24-.1l.03-.02h.03s.03.02.03.02c.04-.01.07-.03.1-.05.02-.01.06-.02.08-.02h.03s.09-.01.09-.01l.06-.03h.06s.2-.07.29-.1c.04-.01.1-.03.14-.04.07 0 .1 0 .14-.06l.28-.11s.23-.06.23-.08.02-.02.03-.02c.04 0 .05 0 .08-.03.02-.02.05-.05.05-.04.03.03.09 0 .14-.03.04-.01.05-.01.08-.04.01-.01.02-.01.05 0 0 0 .03-.02.06-.03l.11-.05s.04 0 .07-.04c.01-.02.05-.08.06-.05m-7.1-7.14v.02s.03-.02.03-.02l.05-.07s.09-.05.1-.05l.05-.03v-.03s.03-.02.03-.02h.02s.02 0 .05-.03t.06-.05h.04s.07-.06.07-.06c.04-.03.14-.1.15-.1s.13-.04.15-.07c.03-.05.04-.06.09-.08 0 0 .08-.03.09-.04h.04s.03 0 .03 0c.04-.02.14-.09.15-.11.04-.04.12-.09.17-.11t.05-.02l.04-.02.11-.05h.05s.02-.05.06-.06c.06-.03.12-.05.12-.05q.06 0 .06-.02s0-.03.03-.04c.01 0 .07-.04.11-.06t.05-.02s.03 0 .04-.02t.04-.02s.03 0 .09-.04c.03 0 .03-.01.05-.03 0 0 .07-.07.07-.07h.05s.01-.02.07-.05h.05s.18-.11.18-.11c0-.01.04-.03.07-.05h.02s.06-.04.06-.04.02-.06.03-.05c0 .02.01.05.03.05s.04-.01.05-.05c0-.01.04-.03.08-.05.07-.03.11-.05.18-.1t.04-.01s.05-.04.08-.06c.01-.01.02-.01.04-.02.02 0 .08-.03.09-.04.04-.04.08-.07.11-.08h.05s.02 0 .04 0c.02-.02.04-.04.07-.05h.04s.03-.06.03-.06c.03-.02.05-.03.1-.04 0 0 .01 0 .06-.03l.05-.03s.03.02.04.02c0 0 .02-.05.02-.05t.03-.02s.05 0 .06-.02c0 0 0 0 .05-.02.03-.01.06-.04.1-.08h.04s.03-.02.05-.03c0-.01.03-.02.07-.02h.02s.04-.02.04-.02v-.02s.06-.03.08-.04.06-.03.09-.04l.04-.03s.05-.01.1-.04h.05s.04-.02.04-.02c.03-.01.06-.02.12-.08h.04s.05-.02.05-.02v-.03s.05-.01.05-.01l.04-.02h.03s.06 0 .07-.03c.02-.02.08-.07.08-.07h.02s.05-.02.05-.02t.04-.01s.08-.06.11-.07c.02 0 .12-.05.12-.05l.03-.04v-.03s.03-.14.03-.13c.01.02.01.04.02.06 0 0 .01.1.02.08 0 0 .24-.09.24-.09s.22-.13.23-.14c.07-.05.31-.17.47-.24t.09-.04h.05s.11-.08.16-.11q.06 0 .08-.01l.03-.02h.03s.05-.02.07-.04c0-.01.41-.22.41-.22l.3-.16h.03s.02 0 .02 0v-.03s.06 0 .06 0h.03l.02-.04s.03-.02.04-.03h.05s.03-.04.03-.04l.12-.04s0-.02.03-.02c.02 0 .25-.12.28-.15v-.03s.06-.02.06-.02h.05s.1-.04.1-.04l.1-.08c.06-.01.1-.02.13-.05.01-.02.1-.06.13-.07.01 0 .16-.06.16-.06t.06-.02l.06-.05s0 0 0-.03c0-.04.02-.13.02-.04q0 .05 0 .07s.06-.05.06-.05h.03s.09-.03.09-.03l.06-.04s.05-.03.07-.03c.01 0 .03-.01.08-.04l.04-.03h.03s0 0 .03 0c.04-.01.22-.11.24-.13t.07-.04s.09-.03.1-.04c.02-.03.07-.02.09-.02.03 0 .12.01.12 0 0 0 .1-.11.11-.12v-.02s.04-.01.04-.01t.04-.03c.07-.06.22-.14.31-.1.24.1.1.45.03.6-.04.1-.11.22-.18.29l-.05.06-.09.06s-.05.05-.08.05c-.05 0-.1.01-.12.03-.1.07-.23.14-.34.19-.12.06-.34.17-.38.2-.05.03-.25.12-.37.17-.04.02-.11.06-.15.09-.03.02-.07.04-.11.05h-.05s-.02.02-.02.02h-.03s-.08.07-.08.07c-.05.02-.07.03-.1.05l-.06.02s-.04.02-.05.03c-.03.02-.1.06-.1.06-.09.09-.28.16-.41.21-.05.02-.12.05-.17.08-.06.03-.15.08-.18.08 0 0-.04.02-.08.04-.05.03-.1.05-.1.05-.04.01-.05.02-.09.04-.04.03-.05.04-.1.06l-.06.04s-.04.04-.1.06c-.08.03-.14.06-.2.11-.02.02-.05.03-.08.03h-.03s-.04.02-.04.02l-.03.04c-.1.04-.18.07-.24.1h-.03s-.05.02-.07.03c-.03.01-.06.03-.08.05s-.03.03-.1.05h-.03s-.04.02-.04.02c-.02 0-.04.02-.06.03 0 0-.06.03-.09.05t-.04.01s-.03 0-.05.02c0 0-.05.03-.1.05-.06.02-.12.06-.16.1 0 0 0 0-.05.01l-.06.02c-.07.02-.1.03-.12.05-.03.03-.12.07-.18.09-.05.02-.13.07-.18.1 0 0-.05.03-.07.04l-.03.02h-.04s-.05.04-.05.04l-.04.02-.04.02-.05.02s0 0-.04.03-.12.07-.16.09c-.07.02-.15.06-.2.1-.04.03-.14.07-.19.09-.04.01-.07.03-.08.04 0 0-.06.04-.1.05-.11.06-.27.15-.38.2t-.04.03s-.06.04-.09.05c-.04.01-.15.06-.18.09-.05.05-.11.08-.17.1-.07.03-.14.06-.21.11h-.02s-.03.03-.09.06l-.05.03s-.04.04-.06.04c-.05.01-.08.02-.12.05l-.02.02h-.03s-.05.04-.05.06t-.07.03s0 0-.06.03c-.03.02-.06.03-.09.05-.03.01-.07.03-.1.05-.04.02-.12.07-.14.09-.01.01-.11.06-.17.09-.07.03-.33.17-.35.2 0 0-.14.07-.17.09-.06.03-.14.08-.2.12-.04.03-.13.07-.18.09 0 0-.17.09-.18.1-.02.02-.04.03-.06.05-.03.02-.07.03-.14.09l-.04.02h-.03s-.03.03-.03.03c-.02.01-.07.04-.07.04-.04.02-.1.04-.12.06l-.04.04-.03.03h-.03s-.03.01-.03.01h-.03s-.03.02-.03.02c-.04.02-.15.09-.16.1 0 0-.14.09-.18.12-.07.04-.33.21-.36.07-.02-.11.06-.5.11-.6t.02-.08l.03-.06v-.06s.02-.01.02-.03t.02-.05s.01-.04.01-.05c0-.02 0-.05.03-.02m2.97-5.95c.05.02.08-.11.09-.15.01-.07.01-.08.01-.12s0-.07 0-.1c0-.02 0-.1 0-.16v-.09s.01-.03.01-.03c0-.06.01-.19.02-.23v-.08s0-.03 0-.03v-.03s0-.09 0-.11c0-.04.03-.14.03-.14 0-.02 0-.12.02-.16v-.03s.01-.02.02-.05v-.05s.02-.05.02-.05v-.03c.03-.1.07-.26.12-.37.01-.02.04-.07.04-.09s.02-.06.03-.08c.02-.03.03-.05.03-.05 0-.03 0-.06.03-.08s.06-.1.07-.12c.02-.04.05-.11.07-.13t.04-.05s.03-.04.06-.06c.01 0 .1-.11.11-.13l.22-.03s.09.02.1.02c.06.02.08.03.09.03.02 0 .09.08.12.12.01.01.14.13.15.13.04.02.19.3.2.33.01.04.04.11.06.14v.28h-.02s0 .04 0 .04l-.03.06v.02s0 .03 0 .03c-.01.02-.09.14-.1.15l-.02.06s-.04.05-.06.07c-.06.05-.11.02-.17-.02-.02-.02-.03-.03-.04-.05 0-.02-.03-.05-.06-.09t-.04-.09s-.06-.05-.07-.06c-.04-.03-.11-.1-.14-.14-.03-.05-.08-.08-.14-.11-.17-.09-.32.07-.35.2-.01.05-.05.19-.06.21s-.02.05-.02.07c.02.05.02.07.02.14-.02.17-.03.31-.03.47 0 .18-.01.57-.03.62-.02.06-.04.29-.05.41 0 .08-.03.28-.05.32 0 0-.05.17-.06.21 0 .07-.03.19-.05.3t0 .05s0 .02-.02.05c0 0-.02.05-.03.05 0 .05-.03.11-.06.18l-.02.06s0 .04-.02.07c-.01.02-.02.04-.03.06t-.03.04s-.11-.04-.12-.05v-.02s0-.04 0-.04c-.02-.06-.07-.21-.09-.26-.01-.03-.09-.22-.15-.38-.01-.03-.04-.06-.06-.1t-.02-.04s-.02-.06-.02-.08t-.04-.04l-.03-.04v-.03s-.01-.01-.04-.05l-.02-.05s-.02-.03-.04-.07l-.02-.04v-.03s-.04-.05-.04-.05c-.02-.04-.06-.09-.12-.15v-.03s-.04-.03-.05-.04t-.02-.04s-.03-.04-.05-.05c-.02-.03-.07-.09-.07-.09-.03-.03-.08-.09-.12-.12-.07-.07-.15-.18-.21-.26 0 0-.04-.05-.04-.05l-.04-.03s-.02-.01-.03-.03c0 0-.04-.03-.05-.05 0 0-.03-.02-.03-.02h-.04s-.02-.02-.02-.02-.11.02-.13.03c-.04.02-.12.02-.17 0l-.05-.02-.04-.03s-.04-.01-.05-.02c-.02-.01-.06-.04-.06-.04-.07-.03-.14-.07-.2-.11-.02-.02-.07-.05-.07-.05s-.03-.02-.04-.03c-.03-.03-.05-.05-.07-.05s-.1-.18-.1-.22v-.06s-.02-.06-.02-.06v-.04s.02-.03.02-.03c.01-.05 0-.08 0-.12v-.04s0-.05 0-.05l.02-.05v-.06s.03-.06.03-.06c0-.01.02-.07.02-.09.06-.25.11-.44.38-.33t.05 0s.07.02.09.03c.03.02.08.06.08.07.04.04.14.1.22.14.02.01.06.06.09.09h.04s.03.03.03.03h.04s.08.09.1.12c.03.04.08.1.1.11l.03.03.02.03.02.02.02.02v.04s.04 0 .04 0t.02.01s0 .02.06.06h.03v.03s.02.03.02.03l.03.03h.02v.03s.03.01.03.01l.06.08.03.05h.04q.02.06.03.07s.05.04.05.06c0 0 .07.09.09.11t.05.05s.04.05.05.06c.03.06.06.1.09.14.01.02.07.11.09.15l.05.07v.06s.04.01.04.01l.06.09v.05s.04.09.04.09c.03.04.07.1.08.12 0 .03.07.11.09.09m1.01 7.09s.12.02.1.04c0 .01 0 .06-.01.09 0 .03-.03.08-.05.1-.04.06-.07.21-.08.29v.06s-.01.05-.01.05v.03s-.03.06-.04.1v.03s-.01.06-.01.06t-.03.04s0 .02-.02.06c-.02.07-.04.14-.05.2 0 .03-.03.09-.04.12s-.03.09-.04.16c-.03.13-.1.45-.1.47-.02.08-.02.64 0 .71 0 0 .03.15.05.24.01.07.05.17.07.22.04.08.04.09.07.17v.03h.03v.03s.02.06.02.06c.02.03.04.08.06.1.01.02.08.1.12.14.02.02.21.08.21.08l.12-.04c.06-.04.1-.11.12-.19 0-.03 0-.04.03-.07 0 0 .03-.09.04-.12l.02-.04s.01-.08.01-.09t0-.07s.1-.09.12-.08c.19.08 0 .73-.05.85-.06.14-.11.28-.17.37v.02c-.03.05-.04.07-.04.07t-.02.04l-.03.04s-.09.12-.09.12-.22.09-.23.06h-.06s-.04-.02-.04-.02t-.05-.02l-.05-.03s-.09-.04-.09-.04c-.01 0-.08-.06-.1-.09t-.04-.05s0 0-.02-.04l-.03-.04s-.03-.02-.04-.04c0-.01-.02-.03-.03-.03l-.02-.05-.02-.04v-.03s-.04-.04-.04-.04v-.03s-.02-.03-.02-.03v-.04s-.05-.07-.05-.07v-.04s-.04-.06-.04-.06c-.01-.03-.02-.05-.02-.06 0 0-.1-.56-.1-.56s0-.52.01-.6c0-.04 0-.09-.01-.12t0-.04s0-.02.01-.06c0-.01.01-.06.01-.08l.02-.06s0-.07.01-.1t.03-.09c0-.05.01-.12.02-.17 0 0 .03-.07.04-.1t.01-.04s-.01-.03 0-.07v-.06s.01-.02.01-.02l.02-.05v-.04s0 0 .03-.04c0-.01.01-.06.01-.07v-.04s0-.09 0-.09c.01-.05.02-.14.06-.17 0 0 .07-.23.08-.26 0-.03.02-.07.02-.08.02-.04.02-.06.03-.12 0-.01.03-.12.03-.12.02-.03.04-.07.05-.1.01-.05.17-.34.22-.35m3.74 7.78s.03 0 .05-.01.03-.01.07 0c.11.04-.15.57-.18.62-.04.09-.06.2-.08.31 0 .05-.03.13-.04.15-.03.05-.06.13-.08.17-.09.26 0 .46.09.67.1.22.21.38.45.29l.07-.12.03-.04v-.07s.05-.06.05-.06c.02-.04.11-.22.17-.13.03.06-.02.28-.05.39l-.03.12s0 .02-.03.07c-.02.03-.02.05-.03.09 0 .04-.04.09-.06.12t-.01.04v.09s-.04.09-.07.11v.02s-.05.04-.06.05c-.09.14-.32.28-.5.13-.11-.09-.17-.17-.25-.29-.04-.06-.07-.11-.09-.18s-.07-.24-.08-.26c-.03-.04 0-.38.01-.42 0 0 0-.05 0-.06t.01-.04v-.04s.01-.04.01-.04v-.03s.02-.06 0-.08c0-.01 0-.02.02-.03t.02-.05c0-.09.07-.33.1-.36.02-.03.04-.08.04-.1v-.09s.01-.04.02-.07c0-.03.04-.12.04-.12.03-.02.04-.03.05-.08l.13-.36s.04-.05.07-.09c0-.02.04-.07.05-.08l.07-.05.05-.08zm1.71-9.06c0 .18-.11.4-.2.54 0 0-.03.08-.04.12l-.02.05-.04.08-.02.04-.02.04v.03s-.02.03-.02.03t-.02.04s-.04.08-.05.07c0 0-.03.03-.04.03l-.04.04s-.05.03-.1.04c-.09.02-.17-.01-.23-.06-.07-.05-.18-.12-.19-.13-.03-.03-.14-.11-.19-.15-.13-.09-.65-.5-.66-.53-.04-.09-.04-.12-.01-.21 0 0 .02-.03.03-.04l.02-.11.04-.02s.06-.1.06-.11t.02-.04s0 0 .01-.04v-.02s.02-.08.02-.08v-.03s.03-.08.03-.08v-.03s.02-.03.06-.05l.02-.04s.03-.06.06-.08c.02-.02.08-.06.08-.07.01-.02.04-.05.05-.09v-.02s.05-.01.05-.01c.07-.07.11-.05.18-.03.03 0 .3.16.3.16 0 .03.01.06.03.07.03.01.12.05.13.06.02.04.02.06.06.05.02 0 .03 0 .05.02l.02.04s.1.08.14.12c0 0 .03.03.05.04h.02s.07.07.07.07c0 .01.05.05.05.06.03.02.08.05.09.06.05.07.11.15.11.21m-.5 6.31s.1.03.12 0c.02-.02.08-.06.1-.06.03 0 .04 0 .13-.05l.03-.04s.05-.03.08-.06c.02-.02.08-.06.09-.06.04-.02.07-.03.09-.06s.04-.06.09-.07c0 0 .19-.11.21-.13.01-.02.04-.05.06-.07t.06 0l.03-.06q.07-.06.1-.06s.06-.06.08-.09l.03-.05s.02-.02.02-.02c.06-.03.08-.04.1-.1 0-.03-.07-.29-.12-.43 0-.01-.12-.21-.18-.31-.04-.07-.17-.3-.17-.3 0-.02-.35-.35-.36-.36 0 0-.07-.03-.1-.04l-.06-.04c-.1-.02-.26-.04-.36 0-.09.02-.36.11-.4.15-.03.03-.05.05-.1.1-.02.02-.06.04-.06.05-.01.02-.09.11-.14.17 0 0-.08.29-.08.31v.04.04s0 .02 0 .02l.02.04.03.07v.08s.01.05.04.14t.03.04h.03s-.02.03-.02.03v.03s.06.11.08.15c.06.17.43.99.51.99m7.38-15.12s.08.03.1.04l.05.15v.04s.02.02.02.02v.03s0 .05 0 .05l.02.06s.02.03.02.05q.01.05.01.07l.03.05v.08s.01.04.01.04v.02s.02.02.02.05t.06.06s.09.21.1.23v.02s.04.02.04.02l.03.05v.04s.02.03.02.03c.01.02.02.04.03.08 0 .02.01.03.03.04t.04.04s.03.07.04.11l.02.05.04.05v.03s.04.03.04.03v.07s.02.03.02.03c.01.02.05.07.07.1v.06s.06.11.07.14c.01.04.02.08.03.1 0 0 .06.17.07.2.03.1.09.24.13.3.01.02.05.13.1.27 0 .01.11.24.11.24s.02.05.02.07c0 .04.01.11.04.15t.02.08s.02.11.04.16c0 .04.02.11.05.15l.02.07s.02.13.02.13c0-.02-.02.08-.02.08 0 .02-.02.11-.07.1h-.03s-.05-.02-.06-.03c0 0-.07-.07-.1-.1-.06-.06-.13-.14-.17-.22-.05-.09-.33-.4-.44-.34-.08.04 0 1.01.04 1.14.02.07.03.14.04.2l-.02.06c0 .08 0 .11.03.19.05.17.07.36.08.54 0 .11.03.31.06.4.01.05.04.23.05.38.01.14.04.41.04.48 0 0 .01.12.01.12t.01.04l.02.03s0 .12.02.18l.06.45s0 .16 0 .2l.02.04s0 .02.02.05v.11c0 .06.12.79.14.84v.03s0 .03 0 .03v.04s0 .03 0 .06t.01.12s.02.09.03.13c.01.03 0 .1 0 .14 0 .09 0 .17.02.23.01.05.04.16.04.18 0 .07 0 .18.02.24 0 0 .01.13.02.22 0 .01.02.09.02.11v.03s.02.03.02.03v.09c.02.08.05.22.05.25v.05s0 .04 0 .06.02.09.02.09v.25c0 .1.02.16.04.23 0 .04.02.08.02.11t0 .07v.06s.01.04.01.04v.03c.01.05.02.09.03.15v.02s0 .04 0 .04v.04s.01.05.01.05t0 .07v.04s0 .04.01.06l.02.04s0 .05 0 .05c.01.03.03.12.03.17v.14c.03.13.05.28.05.4 0 .01.02.09.03.14v.1s0 .1 0 .13c0 .06.01.19.02.22.05.16.05.28.06.44 0 0 .02.15.03.23.01.09.03.23.02.26 0 .14.02.31.04.43.01.07.01.18.01.27v.11t0 .04l.02.05c.01.11.02.23.02.33v.16s0 .07 0 .07v.11.11t0 .04s.02.04.02.04c0 .05-.01.13-.01.16 0 .06 0 .11-.01.18-.01.1-.02.2-.03.27 0 .03-.01.14-.01.14 0 .03 0 .08-.02.11 0 .03-.01.07-.02.1v.06s-.01.06-.01.06t0 .05c0 .05-.03.19-.06.25v.04s-.03.09-.03.09v.05s-.02.05-.02.06c0 .03 0 .06-.04.09l-.03.07-.02.07v.08s-.04.04-.04.04l-.03.02v.04s-.04.04-.04.04l-.03.05v.03s-.02.04-.02.04v.03s-.05.03-.05.03c-.01.01-.02.02-.02.04 0 .04-.1 0-.11-.02-.05-.06-.09-.6-.07-.74.01-.13.02-.26 0-.4t0-.04s0-.05 0-.1c0-.03 0-.11-.03-.14t-.03-.04h.04v-.11s0-.04 0-.04v-.03s-.02-.03-.02-.03c0-.06 0-.17-.02-.24-.01-.11-.05-.47-.05-.49.01-.13-.01-.31-.05-.5 0-.03-.02-.12-.02-.13 0-.04 0-.07 0-.1v-.07s-.01-.05-.01-.05v-.06s0-.15-.01-.18c0-.02 0-.05 0-.07v-.03s-.02-.05-.02-.05v-.02s0-.02 0-.05t0-.04v-.05s-.01-.03-.01-.03c-.01-.08-.02-.15-.02-.25 0-.09-.02-.15-.04-.22v-.04s.02-.1.02-.1v-.03s-.02-.05-.02-.05v-.04s-.04-.12-.04-.14c0-.2-.02-.41-.07-.6-.05-.25-.11-.59-.12-.84 0-.14-.02-.32-.06-.43 0-.02 0-.03 0-.07 0-.02 0-.05 0-.07q0-.05-.02-.19s0-.08-.02-.12c-.02-.06-.03-.11-.04-.21t-.01-.14v-.08s-.03-.06-.03-.06c0-.07-.01-.16 0-.26 0-.09-.03-.24-.05-.32-.02-.06-.03-.16-.04-.25-.02-.23-.13-1.1-.13-1.1-.04-.08-.06-.3-.07-.47-.01-.16-.03-.39-.06-.46 0-.02 0-.06-.01-.11 0-.04 0-.07 0-.1 0 0 0-.06 0-.11l-.02-.04v-.1s-.01-.03-.01-.03v-.02s-.01-.12-.02-.16v-.07s0-.03 0-.03c0-.05-.01-.07-.03-.11 0 0 0-.11-.01-.13v-.08s-.01-.04-.01-.04c0-.04 0-.06-.01-.08 0-.04-.02-.08-.03-.11 0-.07-.02-.15-.03-.22v-.04s0-.04 0-.04v-.03s-.01-.17-.02-.18c0 0-.02-.2-.02-.25 0-.06 0-.16-.03-.23v-.08s-.01-.03-.02-.09v-.05s-.02-.03-.02-.03c-.02-.07-.03-.13-.03-.2 0-.05 0-.12 0-.12 0-.02 0-.1-.01-.15 0-.1 0-.2-.02-.26-.03-.17-.06-.38-.08-.58 0-.08-.02-.22-.03-.27-.02-.05-.02-.17-.01-.23 0-.05 0-.06-.02-.09 0 0 0-.09-.01-.12 0-.06-.03-.22-.03-.23-.03-.08-.07-.48-.08-.61 0-.12-.03-.39-.05-.48-.03-.12-.04-.31-.05-.47 0-.09-.03-.12-.07-.19-.02-.03-.08-.23-.07-.25.01-.14.03-.27.1-.4.02-.04.05-.13.05-.16 0-.05.04-.15.06-.2.01-.03.05-.12.08-.18v-.06s0-.03 0-.03.01-.02.05-.04v-.03s.03-.05.03-.06c0-.05.02-.07.07-.17l.03-.05s.02-.04.04-.05.05-.03.05-.04m9.87 16.39s0 .06.03.05c0 0 .23-.17.23-.19 0 0 .03-.02.06-.04.02 0 .07-.03.07-.03v-.02s.04-.02.04-.02l.04-.04h.05s.07-.05.07-.05t.05-.02s.07-.05.08-.06l.02-.03s.06-.05.06-.05c.03 0 .12-.09.12-.09 0-.03.01-.03.12-.06l.13-.09s.03-.03.05-.04c.03-.02.04-.02.07-.05l.02-.02s.02 0 .05-.04h.03s.02-.04.02-.04l.02-.02s.05-.03.06-.03c.04-.01.05-.03.09-.06.08-.08.44-.34.51-.36.02 0 .46-.36.48-.39h.03s.03-.02.03-.02c.02-.01.04-.03.06-.06h.06s0-.04 0-.04l.03-.02v-.02s.12-.11.13-.12h.04s0-.06 0-.06c0-.01.07-.04.09-.05.03-.01.2-.2.22-.24q.06-.02.1-.07v-.02s.04-.02.04-.02t.07-.02v-.02s.02-.03.02-.03c.13-.11.35-.32.34-.53 0-.04-.09-.3-.14-.43-.02-.05-.06-.15-.09-.19-.03-.06-.08-.14-.1-.19-.02-.04-.05-.1-.08-.13-.05-.04-.08-.1-.1-.16-.01-.04-.02-.05-.05-.08-.02-.02-.04-.07-.04-.08 0 0-.01-.02-.06-.1l-.03-.06c-.02-.05-.04-.11-.07-.14-.02-.02-.08-.12-.1-.16v-.04s-.04-.05-.04-.05c-.02-.03-.04-.06-.05-.09-.01-.05-.02-.05-.04-.08-.02-.02-.05-.06-.05-.08-.03-.1-.09-.24-.15-.32-.07-.09-.13-.19-.16-.27-.05-.13-.09-.26-.16-.38v-.06s-.01-.03-.02-.05l-.02-.05s-.03-.07-.03-.1v-.04s-.02-.06-.02-.06c0-.02-.02-.06-.03-.07l-.02-.02s-.03-.03-.03-.05v-.03c-.01-.05-.01-.08-.04-.11l-.02-.02s0-.02-.02-.04c-.03-.09-.04-.14-.08-.17v-.04s0-.03 0-.03-.04-.09-.04-.12v-.04s-.04-.01-.04-.01l-.04-.07-.04-.08-.02-.03s-.05-.1-.05-.1c-.04-.15 0-.4.05-.6.04-.23.05-.3.1-.46.02-.06.03-.15.04-.21 0-.03 0-.04.03-.07t.03-.02s.03 0 .03-.03c0-.02.11.03.11.03s.06.06.08.09l.04.07v.03s.05.06.06.09c0 0 .03.02.05.04v.04s.05.02.05.02t.03.02s.04.04.06.06c.03.03.06.05.08.08.08.1.22.24.3.29l.03.03s.02.02.05.03h.02s.02.07.02.07h.02s.02.02.02.02.03.03.03.04c.02.02.07.08.1.12l.03.03s.06.05.07.06c0 .01.07.07.07.07.01 0 .06.03.08.05.03.03.07.07.07.07s.04.06.05.08l.03.02v.02s.05.04.05.04v.03s.05.04.07.06c.11.08.19.37-.06.32-.05-.01-.09-.02-.13-.04-.04-.01-.09-.02-.13-.03-.13-.02-.22-.03-.33.02-.02 0 .03.19.04.21.04.05.07.15.09.23 0 .03.09.11.12.14.02.01.1.16.12.21l.02.05.02.05s.01.02.03.07v.03s.04 0 .04 0l.04.08.02.04.02.05v.03s0 .04 0 .04l.03.04s.04.03.06.07v.02s.03.01.03.01l.03.07s.03.05.03.05.03.05.04.06t.04.07v.03s.04.04.04.04c.01.01.03.05.05.09.02.05.05.11.07.13.03.04.05.07.06.1 0 .03.02.11.04.14 0 0 .03.04.03.05t.03.06c.01.05.03.09.05.14.05.11.1.28.12.42v.12.16s.02.04.02.04v.07s.01.06.01.06c.01.05.03.16.02.16-.02 0 0 .05 0 .07 0 0 0 .03-.02.1v.02s0 .02 0 .05c0 .05-.01.07-.02.09t-.01.1s0 .04 0 .05t0 .03v.04s-.01.05-.01.05v.1s-.02.03-.02.03v.03s0 .05-.01.12v.12s-.01.08-.01.08v.03s-.02.05-.02.05v.03c-.02.07-.04.17-.05.19q-.03.06-.04.1s-.04.1-.06.14v.04s0 .02 0 .02c0 .02-.04.07-.05.09-.09.13-.34.45-.38.48-.05.04-.15.14-.2.21-.03.04-.07.07-.1.1-.02.01-.05.05-.07.08l-.04.03s-.18.2-.21.21c-.09.04-.19.13-.23.22 0 0-.48.34-.49.34l-.02.05v.02s-.05.06-.05.06v.03s-.02.02-.02.02c-.04.04-.05.05-.05.1 0 .04-.02.08-.03.12-.02.05-.05.13-.06.21v.08s-.01.03-.01.03v.03s-.02.04-.02.08t0 .05c-.03.1-.02.42-.02.59 0 0 .02.1.03.16s.03.12.03.15c0 .05 0 .11.02.13s.04.12.04.14c0 .04.03.16.05.2v.02s.04.05.04.05l.03.04v.03s0 .04.01.06c0 .02.02.04.03.05t.04.05s.02.08.06.09c0 0 .06.07.07.09v.03s.05.04.05.04h.04s.01.06.01.06l.02.03s0 0 .02.04c0 0 .02.02.03.03.07.06.14.14.22.23h.04s.03.06.03.06c.01.02.01.03.04.04.03.02.06.04.1.07l.04.02s.05.02.05.02c0 .01.16.11.17.11t.06.03s.04.01.06.02h.06s.02.04.02.04t.06.03s.09.03.11.03l.06.02s.04 0 .04 0t.04.02s.04 0 .05 0t.04.01h.07s.21.08.26.05c0 0 .23-.02.25-.02s.09.01.13 0h.12.15.12.03s.07-.01.1-.02t.05-.02s.01-.01.04 0h.15s.1-.03.13-.04c.04-.01.09-.03.13-.05.05-.03.14-.05.21-.05.05 0 .1-.02.14-.05 0 0 .06-.03.07-.03 0 0 .19-.02.21-.05t.06-.03h.02s0-.02 0-.02h.08s.08-.06.08-.06t.06-.02h.02l.02-.03s.01-.03.03-.02c.02.02.14-.03.18-.07.06-.05.17-.1.22-.12l.03-.03s0 0 .04-.03c0 0 .09-.04.15-.07t.04-.03l.04-.03s.04-.01.07-.01l.02-.05s.12-.07.16-.08c.07-.02.19-.07.23-.11 0 0 .05-.03.08-.05 0 0 .02-.03.03-.04l.04-.05c.07-.04.2-.12.23-.16l.05-.02.03-.03h.03l.04-.03s.09-.07.1-.08c0 0 .08-.04.09-.06l.03-.05h.03s.01-.06.01-.06h.03s.02 0 .02 0 .04-.04.05-.05c.02-.02.04-.04.07-.05 0 0 .1-.07.1-.07.01-.03.04-.08.06-.09h.04s.02-.04.02-.04l.07-.02c.03-.05.13-.11.18-.13.03-.01.05-.05.06-.08l.04-.02v-.02s.04-.02.04-.02l.03-.02s.06-.07.1-.12h.04s.26-.22.31-.27c.04-.04.05-.05.08-.06 0 0 .08-.09.09-.09.02-.03.04-.04.08-.06l.05-.08c.04-.05.12-.11.18-.14.03-.02.14-.13.16-.17.02-.06.08-.12.15-.16.04-.03.12-.14.15-.19l.03-.03s0 0 .04-.05h.03s.03-.03.04-.04c.04-.04.06-.07.08-.07 0 0 .02-.02.03-.05.02-.03.03-.06.06-.08.04-.03.16-.23.23-.34.08-.13.12-.31.02-.47-.04-.07-.08-.1-.14-.16-.02-.02-.02-.02-.04 0t-.04.01-.08.01s-.05.03-.06.02c0 0-.01.13-.01.13 0-.04-.01-.09-.04-.07-.03.01-.04.02-.05 0t-.06-.03s-.06.02-.07.02c-.02.01-.03.02-.06.02h-.07s-.03.02-.03.02h-.07c-.08.03-.15.04-.16.04-.05.02-1 .14-1.06.14s-.14 0-.19.02c-.04.01-.06.01-.1 0h-.05s-.04-.02-.04-.02c-.13 0-.31 0-.38-.05-.02-.01-.03-.01-.05-.02-.03 0-.06-.01-.1-.02h-.03s-.02-.02-.07-.03c0 0-.07-.02-.09-.03 0 0-.12-.04-.16-.06l-.05-.02h-.03s-.03-.02-.03-.02h-.03s-.03-.02-.03-.02c-.07-.02-.22-.18-.28-.25-.1-.11-.15-.2-.22-.34-.1-.21-.1-.66-.1-1.02s.28-1.09.48-1.26c0 0 0-.01.02-.05 0-.03.03-.04.05-.06 0 0 .02-.04.04-.07 0-.01.02-.02.06-.05l.03-.02s.01-.02.05-.06c.03-.03.07-.06.11-.09t.06-.05l.02-.05s.09-.06.12-.1c.02-.02.23-.12.28-.14.06-.02.1-.04.16-.06h.03l.1-.05h.1s.08.02.08.02l.08-.02h.08s.03 0 .03 0h.03s.12 0 .13.02c0 0 .14.06.15.06q.07 0 .1.02s.08.03.13.05c.07.02.49.25.5.28.03.05.06.09.11.11s.05.02.1.06l.02.06s.12.07.12.06v-.04s.02-.06.02-.06l.02-.05v-.06s.05.03.05.03c.01.03 0 .12 0 .12l-.02-.02s.02.14.02.14c0 .04 0 .07.02.08h.05t.02-.03v.06s.02.03.02.04c0 0 .01.08.02.08 0 0 .04.02.05.03t.02.03s.04.09.05.1c.08.09.27.29.26.37h.05v.04s.02.03.04.04t.03.07s.02.04.03.04.04.05.05.07c0 .01.06.08.1.09h.05s.09.02.09.02c.05 0 .1-.04.13-.06 0 0 .05-.02.05-.02.05-.01.09-.02.11-.03s.08-.04.1-.06t.05-.02l.02-.02h.03s.05-.04.05-.04h.04s.03-.05.03-.05h.02s.01-.04.01-.04l.06-.02h.03s.04-.03.07-.04t.05-.05s.19-.13.21-.14h.04s.01-.03.01-.03c.05-.04.05-.05.12-.06 0 0 .05-.04.1-.08.02-.02.07-.05.1-.06t.04-.02s.02-.04.05-.05.16-.13.22-.18l.05-.03h.03s0-.05 0-.05l.1-.06s.02-.02.03-.03c.03-.01.04-.02.06-.05t.05-.03s.05-.03.07-.04.03-.03.05-.05v-.05s.05 0 .05 0h.04s.01-.03.01-.03h.03s.02-.02.04-.03h.02s.03-.02.03-.02v-.04s.14-.06.17-.07c.1-.04.17-.07.23-.04.05.03.14.19.14.27v.08s.01.07.01.07v.03s0 .03 0 .03v.03c-.02.07-.03.11-.04.18v.05s0 .04-.02.07v.17c.01.1.07.39.15.44 0 0 .08.15.09.16t.03.04s.02 0 .04.05l.04.03h.03s.03-.02.03-.01l.02.08.02.02s.03.04.03.04c.03.02.08.05.11.08.05.04.1.09.13.09l.06.03v.03s.07.04.07.04c.01 0 .04 0 .04-.02s.02-.07.03-.07v.09s.02.03.03.04l.05.03h.04s.03.02.03.02c.03.02.12.04.2.06.05.01.14.03.15.04q.06.02.09.02s.1 0 .11.01t.05 0s.01 0 .03 0c.12.03.79-.05.94-.12h.04s.03-.02.03-.03c.03-.03.06-.03.07-.03 0 0 .05 0 .05-.02t.03-.04s.07-.04.07-.04c.03-.01.04-.01.08-.04 0 0 .07-.04.07-.04s.03-.02.1-.06c.03-.02.07-.04.09-.05.04-.01.07-.02.09-.05.01-.03.03-.04.07-.07.02-.02.06-.04.07-.05l.03-.04s.03 0 .04-.03c.04-.05.04-.06.06-.06 0 0 .04-.04.04-.05v-.02s.06-.06.06-.06c.05-.04.42-.65.43-.7 0 0 .38-.73.39-.74.04-.04.09-.09.11-.13.01-.03.11-.16.12-.16.04-.02.05-.02.05-.02t.03-.02s.11 0 .11.02c.01.08.03.18.02.23-.02.09-.11.3-.18.47 0 .02-.05.1-.05.1-.02.01-.03.04-.05.1 0 .03-.04.09-.06.11-.01.01-.03.15-.03.18-.02.24.83.82.96.78.01 0 .06.02.08.04 0 0 .03.02.04.02 0 0 .08.02.17.03.11.02.18.04.24.03.04 0 .15.02.2.04.21.05.5-.06.68-.13.01 0 .03-.02.03-.04.01-.03.02-.12.02-.11v-.03s0-.03 0-.03l-.02-.05-.03-.04v-.06s-.04-.08-.04-.08c-.01-.05-.01-.07-.02-.08t-.03-.03s-.03-.05-.04-.06c-.03-.05-.16-.25-.23-.36-.05-.07 0-.35.02-.42l.03-.04s.01-.04.02-.07c0-.04.02-.1.03-.13 0-.03.02-.06.02-.1 0-.11.18-.76.34-.58v.02s.02.04.02.04h.02s0 .04 0 .04t.04.05s.03.04.04.06c.05.08.12.17.13.24l.02.04s.02.05.03.07v.04s.04.04.04.04v.04s.01.03.01.03l.02.04.02.06.02.04q.02.07.04.08v.06s.02.02.02.02c.07.18.19 1.05.12 1.21-.03.05-.03.13-.04.18 0 .02-.02.09-.04.15v.04s-.01.04-.01.04c0 .02-.03.09-.05.12v.07s-.02.06-.04.08c0 .01-.07.16-.08.17 0 0-.05.1-.06.12-.02.02-.03.05-.04.07 0 .02-.01.04-.03.07l-.03.04-.03.05s-.02.04-.02.04c-.07.11-.34.33-.47.37-.03.01-.07.02-.07.02-.04.02-.06.03-.08.03-.07 0-.14.01-.21.04-.11.03-.55.01-.65-.02-.07-.02-.16-.04-.24-.05-.05 0-.13-.02-.16-.04-.03-.03-.04-.04-.05-.04-.12-.05-.23-.09-.34-.16-.12-.07-.43-.28-.49-.39-.01-.02-.13-.17-.19-.24-.04-.05-.06-.08-.09-.13-.02-.03-.12-.17-.17-.1-.07.08-.12.16-.18.26-.02.03-.03.05-.04.07 0 .03-.02.06-.04.08t-.04.05l-.02.03s-.01.01-.04.06v.03s-.01.03-.01.03-.04.04-.05.05c-.03.02-.04.03-.05.05l-.04.06q-.05.03-.07.05l-.04.05s-.1.08-.14.12c-.17.15-.35.26-.55.38-.1.06-.24.1-.36.13-.06.01-.38.11-.38.11-.08.07-.77.03-.92 0-.24-.04-.52-.15-.72-.29h-.03s-.04-.05-.04-.05l-.04-.03-.07-.04v-.02s-.04-.03-.04-.03c-.05-.03-.1-.08-.12-.1l-.05-.04-.03-.04s-.02-.03-.04-.04c-.05-.04-.12-.17-.17-.26l-.03-.05-.02-.03s-.04-.06-.04-.06c-.01-.03-.08-.18-.09-.18l-.06-.21v-.03s0-.1 0-.1c0-.02-.01-.07-.01-.07v-.06s-.01-.04-.01-.04v-.04s0-.03 0-.03v-.03l-.03-.06-.02-.09c0-.05-.14.01-.15.02s-.04.03-.06.04c-.05.01-.07.02-.09.04s-.21.17-.29.23c-.01.03-.02.05-.02.05h-.02s0 .03 0 .03h-.02s-.08.06-.08.06t-.05.04c-.09.04-.19.12-.27.18-.03.02-.04.03-.07.05l-.02.02s-.01.02-.04.03c-.04.02-.1.07-.14.1l-.08.07q-.05.02-.06.04s-.03.03-.04.04h-.02s-.02.02-.05.05c-.05.05-.18.14-.24.17-.08.03-.18.13-.19.22-.02.15-.05.35-.07.54-.01.1-.02.2-.03.32 0 .04-.02.2-.03.26-.02.14-.07.4-.09.43-.01.02-.05.09-.05.09-.02.06-.03.07-.05.11 0 .02-.04.1-.05.13 0 .02-.02.09-.02.1v.04h-.03v-.05s-.06.08-.07.11c-.04.06-.05.1-.07.11-.05.03-.14.2-.17.26-.04.08-.13.18-.2.23 0 0-.07.09-.09.14-.02.03-.02.05-.03.08 0 .02 0 .06-.03.06v-.04s-.03 0-.03 0c-.06.04-.09.08-.12.16 0 0-.12.11-.12.11t-.05.05s-.03.07-.05.08l-.06.04-.05.04h-.03s-.03.04-.05.09c0 .02-.04.04-.06.06-.01.02-.04.04-.05.06t-.04.03s-.03.02-.04.03c-.07.06-.25.23-.25.23-.1.13-.34.32-.51.46-.02.02-.03.04-.05.06-.01.02-.02.02-.03.04t-.06.05s-.07.05-.08.06l-.04.03c-.05.04-.12.1-.14.12s-.06.04-.09.05t-.05.05l-.03.03c-.11.07-.2.13-.29.21-.08.06-.25.2-.27.21-.04.02-.14.1-.2.15l-.06.03s-.04.04-.04.04c-.09.07-.19.13-.3.18-.05.03-.15.08-.18.1-.06.05-.1.07-.18.1 0 0-.11.08-.15.11-.02.02-.16.08-.2.09-.09.03-.66.29-.71.34 0 0-.49.13-.53.14-.02 0-.06.02-.1.03s-.09.02-.13.03c-.03 0-.11.03-.14.05t-.04.02s-.12 0-.12.01c0 0-.23.03-.26.03h-.04q-.06 0-.07 0s-.1.02-.12.02c-.05 0-.14 0-.2 0-.1 0-.31.02-.33 0-.03 0-.09-.02-.12-.02h-.08q-.07 0-.09-.02h-.03s-.06-.02-.06-.02h-.05s-.02-.01-.07-.03h-.04s-.06-.02-.06-.02c-.11-.03-.31-.09-.39-.15 0 0-.07-.02-.11-.03l-.07-.04-.03-.02s-.04-.02-.05-.03t-.07-.03s-.04-.02-.05-.03c0-.01-.07-.06-.14-.11-.05-.04-.1-.07-.16-.13h-.03s-.03-.03-.03-.03c-.02-.01-.04-.03-.05-.05-.03-.03-.07-.08-.11-.13-.07-.08-.14-.17-.22-.25-.04-.04-.15-.2-.19-.28-.02-.02-.04-.07-.04-.07-.03-.03-.05-.06-.07-.12l-.03-.04-.02-.07v-.04s-.02-.04-.02-.04c-.02-.04-.04-.11-.04-.14v-.05s-.02-.04-.03-.05l-.02-.04-.02-.04c-.03-.14-.07-.35-.08-.5l-.02-.15s-.02-.06-.01-.09v-.09c-.01-.05-.02-.08-.02-.13 0-.03 0-.07 0-.07 0-.04 0-.08 0-.11 0-.02 0-.04 0-.07.01-.07.02-.09.02-.14l-.03-.14v-.04s.01-.04.01-.05c0-.07.02-.2.05-.28 0-.05 0-.13 0-.15 0 0 .02-.07.02-.09v-.03s0-.03 0-.03l.02-.03.02-.11c0-.07.03-.17-.06-.18-.05 0-.1 0-.12.01-.03.03-.06.04-.1.05-.02 0-.03.02-.05.04l-.03.03h-.02s-.04 0-.04 0l-.06.05s-.05.05-.13.11l-.07.05c-.07.04-.14.08-.19.1-.02 0-.08.07-.13.11h-.02s-.02.02-.02.02c-.03.02-.09.05-.09.05-.08.08-.2.15-.32.21-.03.01-.15.1-.19.14-.01 0-.03.02-.04.03t-.06.02s-.04.01-.06.03c-.19.14-.45.32-.6.38-.06.02-.11.07-.18.14t-.04.01s-.04 0-.05.02c0 .01-.27.14-.35.18s-.38.22-.61.36c-.09.05-.22.11-.32.13-.03 0-.06.03-.12.07 0 0-.04.02-.04.02s-.1.05-.17.08c-.04.02-.13.07-.14.07-.03.02-.1.06-.14.08h-.04s-.04 0-.07.03h-.03s-.02.02-.05.04c-.02.01-.04.03-.06.03-.04.02-.06.02-.08.04s-.04.03-.07.04-.06.03-.08.04c-.02.02-.05.03-.07.04t-.08.03h-.03s-.12.1-.15.1c-.08.02-.13.04-.19.08h-.05s-.03.03-.03.03t-.06.02s-.02 0-.04 0t-.07.01s-.09.02-.16.03c-.07 0-.12.02-.19.04-.09.02-.19.05-.27.05-.04 0-.13.01-.16.02-.04.01-.12.05-.15.06h-.09s-.01 0-.06 0c-.05.02-.17.05-.17.05t-.05 0h-.02s-.04.03-.04.03c-.06.02-.14.02-.18.02-.03 0-.29.06-.32.08-.02 0-.04.02-.05.02h-.02s-.06 0-.06 0l-.04.02h-.07s-.04.01-.04.01h-.03c-.08.03-.21.05-.32.06-.06 0-.17.04-.25.06-.02 0-.04 0-.06 0q-.05 0-.1.02h-.03s-.05 0-.05 0t-.06.01s-.04 0-.08 0t-.06.02s-.15.03-.2.04-.14.03-.2.05c-.13.04-.26.06-.38.08-.04 0-.1.02-.14.04-.06.02-.14.03-.2.04s-.12.02-.2.04c-.06.01-.14.03-.17.03t-.05 0l-.03.03s-.15.02-.2.02c-.12.01-.16-.08-.16-.15 0-.04.1-.15.13-.17l.07-.02h.04l.04-.03h.03v-.04h.02s.21-.07.22-.07c.02-.02.07-.06.08-.06t.03 0s.05-.01.07-.02c.03-.02.07-.02.12-.02v-.02s.07 0 .07 0 .08-.03.08-.03c.03-.02.08-.06.12-.06t.05-.02s.04-.02.04-.02q.07-.01.07-.02s.02-.05.03-.06c.05-.03.17-.04.25-.06.02 0 .2-.08.21-.08.03-.02.12-.07.18-.09h.05s.05-.02.05-.02c.02 0 .08-.04.11-.06 0 0 .03 0 .05-.02l.06-.02s.05-.02.05-.02h.08t.07-.03l.08-.04.02-.02s.02 0 .04-.01h.07s.03-.05.03-.05c.05-.01.12-.03.14-.04.03-.02.04-.01.08 0 .02.01.06-.03.08-.05.01-.01.04-.01.06-.01.03 0 .04 0 .05-.01t.04-.02s.05 0 .07-.03c.01 0 .04-.03.04-.03h.03s.07-.03.07-.03c.06 0 .08 0 .12-.03.04-.02.06-.04.11-.05h.03s.02-.03.02-.03h.02l.05-.03.05-.05s.06-.02.07-.01t.05-.01q.06-.03.11-.06l.07-.03h.02s.27-.13.41-.2l.21-.1s.06-.03.09-.05.11-.05.13-.05.23-.12.23-.12c0-.01.19-.11.2-.11.04 0 .33-.16.44-.23h.02s.02-.03.04-.04c.05-.03.08-.04.13-.06t.04-.03h.02s.06-.04.06-.04c.03-.02.04-.03.04-.03s.31-.16.37-.18c.08-.04.13-.08.17-.12 0-.01.15-.07.29-.12l.02-.03.05-.04s.08-.05.11-.06c.07-.02.12-.05.18-.1.02-.02.07-.03.11-.04.02 0 .05-.03.1-.06.02-.01.06-.05.11-.1h.04s.05 0 .05-.01c.02-.05.1-.1.18-.11 0 0 .18-.11.18-.11.02-.02.08-.04.11-.04.06-.02.07-.02.11-.05s.08-.05.11-.05v-.04s.05-.02.05-.02l.04-.02.05-.03s.04 0 .06-.03c0 0 .02.02.02 0 .04-.09.12-.11.19-.13.06-.02.2-.11.24-.15h.03s.04-.05.04-.05c.02 0 .02-.01.02-.03v-.03s0-.03 0-.03v.03zm-7.84-10.67s.18-.12.2-.13h.03s.06-.06.06-.06c.04-.02.09-.05.09-.05h.03s.03 0 .03 0v-.03h.03s.05-.02.05-.02v-.03s.01-.03.03-.03c.06-.02.08-.02.12-.05l.04-.02h.02s.04-.04.04-.04c.06-.02.16-.11.24-.17l.03-.03h.04s.06-.05.06-.05l.06-.05.02-.02c.05-.03.41-.28.41-.28.02-.05.06-.08.1-.07.04 0 .08-.04.09-.07t.05-.03s.06-.03.06-.04t.03-.03s.05-.05.05-.1v.04s.04 0 .04 0l.07-.04s.12-.11.12-.11h.03s.03 0 .03 0v-.04s.06-.03.06-.03h.02s.05-.03.05-.05t.04-.02s.03-.04.05-.05c0-.01.04-.04.05-.04s.01 0 .06-.05l.04-.03q.06-.03.09-.07h.04s0-.06 0-.06h.05c.22-.19.78-.68.79-.86.01-.11-.09-.19-.16-.25-.06-.05-.15-.13-.18-.18-.05-.08-.09-.16-.12-.2 0 0-.11-.24-.12-.26-.02-.08-.02-.13-.02-.2q0-.06.04-.19v-.05s.01-.1.04-.13c.01-.02.04-.11.05-.16t.02-.05s.04-.14.04-.14c0-.01.03-.07.03-.07v-.05s0-.04.02-.06c.06-.08.11-.15.16-.25 0 0 .17-.18.21-.22.06-.06.19-.16.27-.19.12-.05.21-.08.33-.04.04.01.09.06.11.1 0 .01.09.1.11.11.02.02.1.27.1.3s.05.25.05.25-.01.12-.01.13v.05.1c0 .1-.03.26-.05.39v.06s0 .06 0 .1v.03s-.02.03-.02.03v.04s0 .11 0 .11c0 .05-.03.16-.04.2-.02.09-.02.1.01.19.02.06.1.14.16.17.05.02.15.11.21.17l.05.03.03.03h.02l.03.04v.03s.07.02.07.02v.03s.02.03.02.03l.02.02s.04.04.04.05l.05.04v.02s.05.03.05.04v.05t.02.04v.15s0 .07 0 .07v.03s-.1.32-.12.35c-.02.04-.06.04-.11.03t-.06-.04l-.02-.04h-.03s-.03-.04-.03-.04l-.04-.03-.02-.02-.04-.02h-.02s-.05-.04-.07-.06c0 0-.1-.08-.13-.1-.11-.09-.42-.32-.56-.3-.06 0-.31.29-.42.41-.05.06-.11.14-.17.21-.03.04-.07.09-.11.12-.04.04-.09.09-.11.11-.14.15-.81.77-.98.85-.04.03-.1.06-.14.09l-.05.02-.08.06s-.06.03-.08.04c-.03.01-.06.02-.08.03-.03.03-.09.04-.15.06l-.14.08s-.05.04-.07.05c-.05.01-.08.02-.1.05-.01.02-.03.03-.05.04-.03.01-.06.02-.08.04-.04.03-.1.07-.12.08-.03.01-.06.03-.11.07-.05.03-.13.05-.2.07 0 0-.1.05-.14.07-.21.1-.44.21-.64.29-.03.01-.11-.06-.11-.08-.01-.04-.02-.05 0-.08.01-.03.03-.09.02-.13m1.82 3.22v-.02s.01.04.01.04t.07.08l.09.07c.03.05.17.15.22.17 0 0 .23.07.27.09l.07.04s.08 0 .15.04h.03s.02.03.02.03c.01 0 .05.02.08.03t.04.03h.02s.05 0 .06 0l.04.03s.02.02.05.02.04 0 .08.02c.03.02.05.03.06.02 0 0 .03 0 .05.01.04.01.06.02.09.02t.03.03s.04.03.07.03t.04.01h.02s.04.03.04.03t.06.04s.04.04.06.04l.02-.05v.04s.04.02.05.02c.02 0 .04.02.06.03l.05.04s.06.05.08.05.03.16.02.17c-.09.07-.13.09-.26.11-.08 0-.2.04-.26.08s.04.14.07.17v.02s.03.04.03.04h.03s.06.05.08.09l.05.03h.03s.06.05.08.08c.02.02.06.07.07.07.05.01.09.04.12.08h.02s.03.01.03.01l.05.02s.07.04.08.06c.03.04.15.1.2.12l.04.02s.02.03.03.03c.02 0 .03 0 .08.04 0 0 .1-.02.1-.03v-.07s0-.09.02-.1c0 0 .01.14.01.15 0 .02.07-.02.07-.03.01-.02.04-.06.07-.11.02-.04.11-.15.14-.17 0 0 .14-.22.15-.23 0-.01.03-.05.08-.11l.02-.02.05-.06c.05-.1.17-.25.25-.33.03-.02.04-.03.05-.07.02-.04.04-.08.08-.1.02-.01.11-.14.12-.14 0 0 .07-.1.12-.16.03-.04.05-.06.07-.08 0 0 .07-.09.07-.1.02-.05.09-.11.13-.15.01 0 .06-.05.06-.06 0-.03.03-.06.05-.08.02-.03.05-.05.07-.08v-.04s.04-.04.04-.04v-.03c.05-.05.11-.13.16-.19.04-.05.05-.06.05-.08s.01-.05.03-.05t.05-.02s.04-.07.07-.11h.02s.03-.03.03-.04.07 0 .07 0l.07.03s-.05.33-.05.33-.05.13-.06.18c-.01.04-.07.28-.12.52v.03s0 .03 0 .03v.02s-.02.03-.03.04t-.01.05c-.02.07-.04.13-.08.19-.02.02-.03.04-.04.06-.01.03-.03.05-.06.07t-.02.04s-.01.02-.03.05c0 0-.05.07-.07.09-.03.04-.07.09-.08.13-.03.06-.08.13-.13.17-.02.02-.03.04-.04.06-.02.04-.03.05-.06.08t-.03.04s-.02.03-.03.04t-.03.05s-.01.03-.04.05c-.08.08-.17.21-.22.32-.02.05-.2.34-.21.34-.03.02 0 .1 0 .11v.03s.06.03.06.03c.01.03.02.04.05.05.04.01.04.01.06.04 0 .01.04.02.1.04 0 0 .07.04.07.04.02.02.1.09.14.12h.03s.05.03.05.03l.04.03.03.02s.03.01.04.02t.04.05h.03c.06.06.22.2.25.26 0 0 .05.05.07.07h.03s.02.01.03.07v.02s.06.02.06.02v.04s.03.05.03.05c.09.08.16.2.19.3 0 .02.03.06.07.12t0 .05s.04.09.04.09t.02.06s.02.06.03.08.03.07.03.08v.05s.02.03.03.04c.02.02-.03.55-.03.56-.05.2-.08.35-.08.53 0 .14-.1.52-.18.58l-.26.37s-.43.34-.47.36c-.09.05-.18.1-.25.17-.03.02-.04.03-.08.05-.03.01-.05.02-.07.05-.02.02-.03.03-.06.05t-.1.05v.03c-.1.07-.46.24-.65.33-.05.02-.32.12-.35.12-.05 0-.09.01-.13.03h-.03s-.04 0-.04 0h-.08s-.04.02-.04.02h-.12s-.11.01-.11.01t-.04-.02c-.06 0-.08-.01-.13-.03-.04-.01-.08-.02-.09-.03-.03-.02-.06-.03-.09-.04-.1-.04-.19-.09-.27-.16-.04-.04-.21-.29-.22-.35-.01-.03-.02-.07-.02-.1t-.02-.05s-.02-.02-.03-.05c-.02-.11-.03-.15-.06-.24 0-.02-.01-.19-.01-.27v-.11s0-.03 0-.05v-.03s.01-.07.01-.07v-.04s.02-.03.02-.03v-.02s0-.02 0-.02v-.07s0-.15 0-.17 0-.04.02-.07t.01-.05l.02-.05v-.06c.01-.35.08-.76.23-1.01.01-.02.02-.03.02-.04q0-.08.03-.09s.01-.02.01-.04t.01-.05s.02-.04.03-.05c0 0 0-.04.01-.06 0-.03.02-.08.04-.1t.03-.06v-.05s.05-.06.05-.06l.02-.06s.06-.12.09-.15c.05-.07.2-.3.17-.45-.01-.04-.23-.22-.3-.28-.17-.14-.56-.46-.59-.5-.02-.03-.04-.04-.08-.06-.03-.01-.08-.04-.09-.06-.02-.06-.02-.07-.07-.1-.02-.02-.07-.06-.07-.06-.03-.06-.08-.13-.13-.17-.07-.05-.08-.08-.12-.14-.09-.16-.4-.39-.6-.54-.09-.07-.08-.62-.07-.84 0-.13.01-.33.04-.41v-.06s.02-.02.03-.07l.05-.06s.03-.05.05-.06c0-.01.02-.02.02-.08m3.33-3.08c.11-.09.33.06.38.11.01.02.04.04.06.06l.08.04.03.04h.04s.04.05.04.05h.02s.01.04.01.04h.02s.03.01.03.01l.02.04s.03.04.04.05t.04.03s.02.03.05.04c.02 0 .05.03.09.06.01.01.03.03.03.03h.04l.02.06h.03s.14.14.15.16.12.19.12.19.03.22.03.23c0 .04-.02.09-.05.14 0 0-.02.04-.03.04-.02.1-.07.21-.16.28-.07.06-.15.18-.22.27t-.05.08v.03s-.05.04-.06.06c-.02.02-.05.05-.06.07-.05.08-.36-.19-.37-.2h-.02s-.03-.03-.03-.03c-.02-.01-.05-.04-.09-.07-.06-.05-.15-.12-.16-.15-.02-.03-.23-.2-.26-.22-.09-.05-.21-.13-.29-.2-.07-.07-.14.07-.15.09v.02s-.02.03-.02.03v.03s-.04.03-.06.09c-.01.02-.03.03-.03.04-.02.05-.02.06-.04.1-.01.02-.05.07-.08.11-.08.21-.17.44-.37.56-.03.02-.15-.02-.21-.04h-.03s-.02-.03-.02-.03l-.06-.03s-.02-.04-.05-.04c-.02 0-.12-.08-.18-.11-.1-.07-.22-.15-.31-.24-.04-.04-.09-.08-.14-.11t-.04-.03s-.02-.02-.03-.02c-.04-.02-.06-.03-.09-.06-.06-.07-.28-.3-.18-.43l.02-.04.02-.07s0-.02.05-.09l.03-.06s.07-.13.07-.13c.03-.13.13-.32.23-.43.14-.15.22-.22.44-.11.07.03.15.09.2.16t.04.01s.02 0 .04.01c.04.04.08.06.13.09.05.02.07.04.08.06 0 0 .02.04.02.04h.03s.02.02.03.03h.03s.01.04.01.04t.06.05h.04s.02.03.02.03h.05c.03.05.15.12.23.12h.02s.04-.03.04-.03c.03-.02.07-.04.08-.06 0-.08.07-.18.12-.23.04-.04.11-.16.13-.22.02-.04.1-.21.14-.24l.08-.08s.05-.1.08-.1m-1.59 9.21c.04.06.14.17.17.2 0 0 .08.04.09.04l.04.04h.07s.02-.02.03-.01c.05.03.09.06.13.05s.08-.02.11-.02h.04s.03.01.04.01h.04s.02-.02.02-.02h.02s.02.02.03 0c.02-.02.09-.05.15-.03 0 0 .14-.04.23-.06.03 0 .08-.05.1-.07s.05 0 .07 0 .05 0 .07-.02t.06-.03s.08-.05.1-.07h.02s.01-.01.05-.04l.06-.03s.01-.03.03-.03c0 0 .1-.04.1-.05 0 0 .01-.05.03-.02l.02.02s.08-.08.09-.1c.01-.03.02-.03.06-.05 0 0 .05-.03.1-.07.02-.01.04-.02.07-.03.02 0 .04-.02.06-.05.01-.01.04-.03.07-.05l.04-.03h.03s.02-.02.02-.02c.01-.01.04-.03.05-.04v-.02s.08-.03.08-.03v-.03s.05-.01.05-.01v-.06c.08-.03.11-.04.14-.09s0-.17-.02-.2c-.01-.02-.13-.15-.19-.23t-.05-.04s-.01-.02-.04-.03c-.02-.01-.05-.03-.07-.05-.06-.07-.13-.13-.22-.17-.08-.04-.18-.09-.24-.15-.03-.03-.1-.06-.15-.07-.06-.02-.1-.04-.14-.07-.05-.04-.13-.09-.19-.11-.09-.03-.2-.09-.28-.15l-.09-.03-.05-.03c-.05-.05-.17-.02-.24 0-.03 0-.18.24-.25.34l-.03.05q-.03.06-.03.07s-.04.05-.09.11t-.03.05v.03s-.04.04-.04.04v.05s-.02.03-.02.03c-.08.13-.17.26-.24.38-.04.07-.06.09-.06.1-.01.04-.04.12-.06.15-.03.04-.08.27-.06.31v.03s0 .03 0 .09v.05s.02.04.02.04c.01.05.02.11.03.14l.02.04s.03.04.02.06m.67-13.01s.01-.06.02-.08t.01-.06s0-.13 0-.14v-.07s0-.09 0-.09c0-.03 0-.18-.03-.19l-.15-.29c-.04-.1-.33-.02-.38.05l-.04.02-.06.07s-.02.01-.04.03c-.03.02-.04.04-.05.08-.03.11-.01.2.07.3v.02l.02.04s.03.01.04.03c0 0 .05.04.07.06t.05.02s.14.13.2.18c.03.03.23.16.26.01m8.66-.64s.01.02.02.03c0 .02 0 .04.02.03.04 0 .09-.04.13-.08h.04s.02 0 .02 0c.01-.02.03-.02.08-.06t.04-.04l.02-.02.05-.03h.05s.01 0 .03-.02.05-.04.05-.05c.06-.02.1-.04.13-.08.02-.03.12-.08.16-.11l.08-.05h.04s.04-.03.06-.05h.05s.03-.02.03-.02c.04-.02.14-.1.19-.14h.04s.04-.02.04-.02.04-.04.06-.06l.05-.02s.15-.06.17-.05c.13.08.08.34.02.46v.03q-.02.06-.02.07l-.03.04-.02.03v.02s-.04.08-.04.08t-.02.03s-.08.04-.1.06c0 0-.08.05-.11.07s-.06.04-.1.07l-.04.03s-.05.02-.06.03c-.02.03-.04.03-.1.05 0 0-.1.07-.11.08h-.03s-.04.04-.06.06c0 0-.04.03-.06.04t-.05.03s-.32.18-.44.24c-.14.07-.29.16-.43.25-.05.03-.16.1-.2.12-.09.04-.18.08-.24.12s-.18.12-.21.14h-.05s-.03.03-.03.03c-.03.01-.06.03-.08.05 0 0-.03.02-.04.02-.03.01-.06.03-.08.04 0 0-.15.1-.2.12h-.04s-.05.04-.07.05c-.01 0-.03.02-.04.02-.05.02-.06.02-.09.04-.07.04-.14.09-.21.12-.07.04-.14.08-.2.14 0 0 0 0-.04 0 0 0-.04.02-.05.03-.04.02-.07.04-.11.07-.05.03-.16.1-.19.13-.02.02-.08.04-.13.06-.04.02-.1.04-.13.07 0 0-.09.06-.12.07-.03.02-.11.06-.12.07-.04.04-.13.1-.18.12-.08.04-.16.08-.23.12-.06.03-.2.11-.21.12 0 0-.07.05-.11.08-.03.02-.1.06-.15.09h-.03s-.07.05-.07.05-.06.04-.06.04c-.04.01-.13.05-.15.08s-.06.05-.12.07c-.02.01-.07.03-.1.06t-.08.05s-.03.03-.04.03c0 0-.07.05-.1.07 0 0-.04.02-.05.03-.04.02-.08.03-.1.04-.03.02-.26.16-.43.27-.03.02-.06.03-.1.05t-.06.05h-.02s-.07.06-.07.06h-.02s-.03.05-.03.05-.1.07-.11.05l-.07-.02h-.02s-.03-.05-.03-.05c-.03-.01.03-.45.05-.49.04-.11.06-.17.1-.2l.03-.03s.02-.04.03-.04c.02 0 .03 0 .05-.01.02-.04.03-.06.05-.06.08-.03.13-.07.21-.11t.04-.04l.03-.03h.03s.02-.01.02-.01c.02-.02.04-.03.08-.05t.05-.04h.02s.03-.02.03-.02l.03-.04s.04-.02.06-.03c.02 0 .07-.02.07-.04l.03-.03.06-.03.12-.06s.04-.02.07-.06h.05s.01-.02.05-.03c.01 0 .04-.03.05-.05.04-.05.33-.18.4-.21 0 0 .15-.1.15-.1.01-.03.04-.07.08-.07.05 0 .1-.04.16-.08l.04-.03s.02-.02.08-.04l.04-.03s.07-.05.11-.06t.05-.03s.07-.03.08-.04c.02-.02.08-.07.08-.07s.05-.02.05-.02t.05-.03s.05-.04.07-.05c.04-.02.05-.03.09-.05.02-.02.08-.04.1-.05h.04s.01-.04.01-.04l.05-.02s.09-.05.09-.05c.04 0 .08-.04.11-.07.09-.08.27-.16.34-.18.06-.03.13-.08.18-.12t.04 0s0 0 .04-.03c.03-.03.09-.07.1-.07s.16-.07.16-.08c0 0 .15-.09.16-.09.08-.02.12-.07.17-.12h.03s.04-.02.04-.02l.05-.03s.06-.03.06-.03l.02-.03h.04c.12-.04.25-.1.38-.2 0 0 .12-.07.17-.1.05-.02.08-.04.08-.04s0 0 .05-.02c.01 0 .03-.07.05-.11m2.67 3.74s-.03.21-.04.23c-.03.07-.05.13-.06.14-.02.02-.03.05-.03.09 0 0-.01.04-.03.08q-.02.06-.03.07s0 0-.02.04t-.03.07s-.02.05-.02.07c-.02.04-.02.07-.03.1-.08.3-.17.67-.15.92.01.19.07.39.14.57.02.07.09.23.13.26.07.04.16.15.21.21.12.14.39.04.48-.14.02-.05.07-.25.08-.31t.02-.05s.02-.07.02-.07c.02-.04.03-.09.04-.13.03-.09.12 0 .15.03 0 0 .01.18.01.23 0 .07-.03.15-.05.19-.03.06-.04.13-.03.2 0 .05-.1.32-.13.34-.02.02-.14.31-.14.34l-.05.05s-.01 0-.12.12c-.06.07-.17.14-.26.13-.24-.02-.39-.18-.52-.34-.2-.25-.41-.89-.32-1.24 0-.04 0-.07 0-.1 0-.04 0-.1 0-.14q.01-.05.02-.1v-.03s0-.03 0-.05c.02-.04.02-.09.03-.14 0-.04.03-.14.05-.17 0 0 .02-.11.02-.14 0-.05.04-.12.07-.17v-.04s.01-.05.04-.09v-.03s.02-.06.02-.06c.03-.06.08-.19.1-.27.01-.05.03-.14.05-.15.03-.03.06-.09.08-.13.03-.08.07-.16.12-.25v-.05s.03 0 .03 0l.02-.04v-.02s.04-.04.05-.04h.07m2.62 8.63c0-.05 0-.08-.02-.14 0-.04-.18-.18-.22-.2t-.03-.03l-.04-.03v-.02s-.06-.01-.06-.01t-.06-.02s-.06-.05-.07-.07c-.1-.14-.71-.3-.89-.22h-.04s-.05.01-.05.01l-.12.05s0 0-.05.02c-.02 0-.09.04-.1.04-.03.02-.05.04-.08.05-.06.03-.1.08-.15.14t-.04.04s-.03.04-.03.05c0 0-.04.08-.06.08-.01 0 0 .17 0 .17l.03.02.09.06s.09.07.1.07h.06s.03.02.03.02t.03.02s.1 0 .1 0c.03.02.03.02.08.03.04 0 .08.02.12.04h.04c.01-.01.02-.01.05 0h.07.05s.03-.02.03-.02t.03.02s.07-.01.09 0c.11.07.98-.09 1.07-.14m.35-11.65s.04-.19.05-.12c0 0 .04.07.06.08.02.03.04.1.06.15 0 .01.13.17.13.17.04.03.14.11.16.15l.02.05h.03s.02.07.02.07 0 0 .03.04c.02.04.05.07.05.07.05.04.2.26.27.37.02.03.04.05.07.08.02.01.07.07.09.09v.03s.02.03.02.03l.03.09s.1.09.1.09 0-.04 0-.05c0 0 0-.05.03-.04v.03s0 .13 0 .13.04.11.04.11t.02.06c.04.09.13.11.13 0 0-.05.02-.17.03-.26.02-.09.02-.26 0-.36 0-.12 0-.43 0-.59v-.03s.02-.08.02-.08t0-.07s0-.06 0-.06t0-.05c-.02-.08-.02-.08-.01-.11.01-.05.01-.12.01-.18 0-.28.16-.75.35-.95.01-.02.08-.15.1-.19l.04-.05v-.06s.05-.03.05-.03c.01-.02.04-.07.04-.07 0-.01.02-.05.03-.05t.05-.04s.02-.04.03-.04l.02-.02s.04-.02.06-.03h.03s.03-.03.03-.03l.08-.06c.03-.05.33-.07.37-.07.07 0 .24.11.28.18.02.03.06.11.08.11.05.02.09.12.11.18 0 0 .03.03.05.05.01.01.03.11.04.12v.04s.02.04.02.05t.01.06v.05c.04.14-.03.3-.09.42-.07.13-.13.26-.29.06-.02-.02-.03-.02-.08-.08-.01-.02-.08-.09-.11-.13-.04-.04-.08-.08-.12-.11s-.09-.07-.12-.11c-.02-.02-.21-.06-.22-.03 0 0-.07.03-.09.03-.04 0-.07.03-.1.04-.04.03-.09.08-.12.12-.11.13-.11.29-.12.49 0 .05-.03.17-.04.22v.18.15.12.16s-.02.3-.02.32c0 .1-.04.67-.06 1 0 .1-.02.18-.05.27v.05s-.02.1-.02.1v.05s-.01.07-.01.07v.04c0 .09-.02.19-.04.24v.06s0 .05 0 .05c0 .03-.05.15-.05.15v.05s-.04.06-.05.08c-.03.05-.04.07-.07.12-.06.08-.2.05-.22-.06v-.04s-.02-.07-.03-.1c-.01-.06-.04-.14-.05-.19 0-.03-.09-.16-.13-.23l-.02-.05s-.02-.05-.06-.09v-.04s-.04-.01-.04-.01l-.02-.05s-.05-.08-.07-.09c0 0-.03-.04-.04-.06l-.02-.03s0-.02-.03-.05c-.06-.09-.11-.17-.18-.25l-.03-.04v-.03s-.06-.04-.06-.04t-.02-.03s-.02-.1-.06-.09v.03s-.01.03-.01.03v-.06s0-.03-.02-.06t-.07-.07v.03s-.07 0-.07 0c-.01.02-.04.07-.05.05-.01-.04-.01-.05 0-.09 0-.04.03-.09.02-.1-.01-.07-.31-.34-.38-.37-.06-.04-.14-.02-.19 0s-.09.03-.15.02l-.35-.2s-.24-.17-.36-.24c-.14-.09-.19-.34-.19-.54 0 0 .03-.16.04-.26t.01-.06s.01-.02.01-.04t.01-.09c-.01-.11.18-.2.26-.21 0 0 .03.01.05.02h.02s.06.02.06.02h.03s.05.03.09.03t.05.02s.01.01.05.03q.05.03.07.02c.06 0 .33.21.34.24 0 0 .08.04.09.05h.02s.02.05.02.05l.04-.02s0 .03 0 .04c0 .02.02.04.03.05.02.01.08.05.08.05m1.72 18.05s.03.08.03.1c0 0 0 .15.02.12h.03c.04 0 .05 0 .09-.03h.02s.07-.03.07-.03t.04-.02q.05-.02.08-.05v-.04h.04s.07 0 .08-.02l.08-.04v-.02s.04 0 .04 0t.02-.02s.1-.05.12-.05c.04 0 .04 0 .04-.02.02-.05.04-.05.08-.07.02 0 .05-.02.09-.06.04-.03.08-.05.11-.06.02 0 .03-.01.04-.03v-.02s.05-.01.05-.01l.02-.02h.02s.03-.01.03-.01l.03-.05s.04-.02.07-.02h.03s0-.05 0-.05h.03s.05-.04.07-.06c.02-.03.18-.13.2-.13t.04-.02s.01-.02.03-.03c.04-.03.12-.08.14-.09l.06-.05s.07-.04.11-.07l.03-.03.05-.02.06-.02h.03s.03-.04.03-.04t.05-.03s.02-.03.06-.04c.02-.01.1-.05.11-.06.02-.02.13-.11.17-.13.02 0 .07-.05.08-.06t.04-.03s.06-.03.08-.04c.12-.1.31-.22.42-.3l.03-.04.07-.04s.02-.03.03-.04c.03 0 .22-.09.25-.11.06-.04.17-.11.19-.11.04 0 .07-.03.1-.06.04-.04.06-.04.09-.04.08 0 .21-.06.27-.1 0 0 .05-.01.1-.02h.03s.06-.02.06-.02h.02s.05-.03.05-.03h.03l.02-.02h.03s.03 0 .03 0h.05s.02.02.03.02c.04 0 .08 0 .11.01.03.02.06.04.11.05.07.02.15.07.21.11.02.01.07.04.08.05t.15.05l.05.04h.02s.09.03.14.04c.04 0 .05.01.1 0h.04s.04-.03.05-.03t.04-.03s.02-.04.06-.03c.12.02.32-.1.41-.23t.05-.03l.03-.02s0-.02.05-.04l.03-.06s.06-.07.05-.15c0 0 0-.11.02-.1v.04s.01.08.01.08c0 .03.1-.14.1-.15l.02-.06s.1-.19.11-.19h.07s.04.02.04.02c.01 0 0 .11 0 .11-.01.03 0 .05 0 .09v.03l-.02.04s.02.1.02.1c.04.07.12.09.18.11t.03.03s.01.03.03.05c0 .01.02.02.04 0t.04-.02c.09.05.32.11.39.04.05-.05.13-.12.14-.15.05-.26.11-.55.19-.67v-.03s.01-.02.01-.02v-.03s.05-.05.05-.05c0-.04.01-.06.02-.08 0 0 .02-.01.07-.04.08-.04.1.04.11.14.01.07.02.2 0 .26-.1.46-.25.87-.5 1.24-.08.12-.36.25-.51.29-.17.04-.52-.15-.66-.24-.07-.04-.23.09-.29.14-.09.07-.18.14-.28.2-.21.13-.46.22-.73.18-.15-.02-.43-.17-.53-.27-.16-.16-.54-.1-.72 0t-.04.01s-.04 0-.09.02c-.02 0-.08.05-.13.08h-.02s-.06.02-.07.03c-.01 0-.05.03-.08.04-.03.02-.08.05-.12.07-.07.04-.23.13-.23.13-.03 0-.1.06-.12.08s-.08.05-.14.08c-.12.06-.32.22-.44.32-.03.02-.18.11-.27.17-.02.01-.04.03-.06.04-.02.02-.03.03-.07.04l-.03.02-.03.04s-.05.02-.08.03l-.24.15c-.07.09-.2.15-.32.18-.06.02-.25.1-.3.13-.02.02-.06.04-.1.06t-.05.03s-.03.01-.06.02c-.02 0-.07.03-.07.04l-.27.05-.05.02h-.04s-.07.03-.11.06h-.06s-.03 0-.05 0l-.06.03s-.02 0-.07 0c0 0-.1.01-.15.02-.04 0-.07 0-.13-.03-.05-.02.08-.18.09-.19.02-.02.03-.07.03-.11 0-.06 0-.09 0-.13m5.37-15.79c.01.06.1-.01.14-.05l.02-.03.04-.03s.04-.03.09-.05c0 0 .24-.2.29-.23v-.03s.04 0 .04 0v-.02s.06-.04.09-.06l.03-.03s.01-.03.05-.05c.02-.02.07-.06.09-.09l.03-.03.02-.04s.09-.05.09-.06c.03-.03.14-.19.1-.21l-.06-.09-.08-.06s-.02-.02-.04-.03c-.02 0-.04-.02-.05-.03t-.04-.03h-.04s-.05-.06-.08-.09c-.04-.03-.08-.07-.08-.07-.02-.03-.05-.05-.08-.07s-.07-.06-.08-.09c-.09-.15-.2-.3-.23-.42-.05-.19 0-.4.05-.58t.01-.08v-.03c.01-.05.02-.09.04-.14t.02-.05v-.03s.02-.04.02-.04c.01-.03.02-.06.03-.08v-.04s.02-.03.02-.03t.02-.04l.03-.06.06-.1.02-.06.02-.02v-.02s.02-.02.02-.02t.05-.09s.19-.2.27-.26c.1-.08.25-.12.39-.11.11.01.29.1.34.19.03.05.07.13.12.18.01.01.08.22.08.22.01.07.03.17.06.24 0 .02.01.08.01.11 0 .07 0 .11.02.19.01.08 0 .22 0 .31 0 .1-.02.22 0 .34.02.11.02.23.01.33s0 .17.03.24c0 .03.03.06.06.07.04.02.08.04.12.09.03.04.03.04.03.04.03.03.1.09.11.09.1.05.22.25.22.41 0 .03 0 .21-.01.3 0 0-.02.07-.03.11 0 .01-.03.05-.04.07l-.04.03c-.03.08-.4-.23-.41-.24-.02-.02-.14-.1-.2-.14-.12-.07-.18-.08-.33-.05l-.06.07s-.01.03-.06.08l-.02.03s-.05.05-.08.08c-.01 0-.03.04-.04.06 0 0-.03.04-.05.07-.04.04-.09.09-.13.12-.03.03-.09.08-.11.11-.03.04-.07.09-.11.11-.01 0-.05.03-.06.04-.02.04-.03.04-.06.06-.02.01-.04.03-.06.04l-.04.04-.04.04s-.05.03-.05.04c-.02.02-.04.03-.06.05l-.02.02-.03.04s-.05.04-.07.05c0 0-.09.07-.11.1-.05.04-.11.1-.14.12-.16.11-.41.3-.5.41l-.12.09c-.08.04-.14.07-.2.11-.04.03-.09.06-.13.08h-.02s-.01.05-.01.05h-.03s-.06.03-.08.05c-.06.06-.39.26-.58.38-.29.17-1.31.72-1.34.72-.02 0-.18.06-.23.08-.03.01-.07.03-.11.04t-.07.03h-.03s-.06.03-.06.03h-.04s-.03.03-.03.03h-.08s-.03.02-.03.02c-.02.01-.07.03-.09.04l-.09.02-.06.02h-.03s-.02.03-.02.03h-.03s-.03.02-.03.02c-.07.03-.33.11-.47.16-.32.1-.09-.17 0-.23h.05s.04-.03.04-.03 0-.01.03-.03c0 0 .03-.02.05-.04h.05c.05-.05.14-.11.23-.17l.06-.04.11-.04s.02-.03.02-.03t.05-.02l.06-.02s.02 0 .03-.03c0-.03.03-.04.04-.06 0 0 .09-.02.1-.02 0 0 .03-.03.09-.08l.09-.03s.08-.04.1-.06c0 0 .41-.25.41-.25.06 0 .13-.04.18-.1.04-.05.12-.08.17-.1.01 0 .09-.06.13-.09s.06-.04.09-.04c0 0 .12-.09.13-.1h.07s.05-.07.05-.07h.05s.04-.06.07-.07c.01 0 .09-.05.12-.07.11-.08.26-.18.39-.26l.07-.03v-.04s.05-.02.05-.02h.03s.03-.02.03-.02c.06-.05.13-.11.2-.14.04-.02.06-.03.08-.06 0-.02.06-.04.12-.06.04-.01.08-.04.13-.09 0 0 .04-.05.05-.05.05-.02.17-.07.18-.1.02-.04.03-.06.07-.05 0 0 .08-.06.12-.09l.08-.05s.05-.04.06-.05t.03-.03s.05-.01.06-.03t.04-.09m1.51-1.81s.09 0 .11-.03c.02-.02.02-.3.01-.33-.02-.05-.05-.2-.05-.26 0-.12-.13-.45-.21-.5-.11-.07-.29-.11-.44-.05s-.36.32-.33.5c0 0 .08.08.11.11l.04.07.04.03s.06.07.09.08t.09.04v.03s.1.06.13.08c.04.02.06.04.1.06h.04s.07.04.07.04l.03.04s.06.04.07.04h.03s.07.04.08.05m-.52 4.76.02-.02v-.03s0-.04 0-.04v-.03c.02-.05.06-.16.08-.2.01-.03.11-.29.15-.4.05-.12.12-.32.18-.37v-.05s.04-.03.05-.03v-.06h.03s.03-.1.03-.1c.03-.02.04-.05.05-.09h.06s.03.02.03.04v.13s-.01.04-.03.08c0 0-.02.05-.03.08-.01.05-.05.17-.07.2-.03.03-.05.07-.07.11-.03.09-.07.17-.12.26-.01.02-.06.15-.1.25-.01.04-.05.37-.05.39.01.05 0 .08 0 .13 0 .06.01.13.03.17.03.07.06.21.06.29 0 .05 0 .08.03.12 0 0 .02.05.02.1 0 0 .05.06.06.08 0 .01.04.05.04.07.01.02.03.04.05.07l.05.04.08.02s.11.01.18 0t.04-.03s.02-.02.06-.03.15-.22.15-.24c0-.05.11-.26.16-.27.08-.02.08.25.05.3 0 .01-.02.09-.03.14v.03s0 .01-.02.05c-.02.06-.03.14-.06.2-.1.23-.19.43-.38.59-.1.09-.3.13-.43.05-.03-.02-.23-.2-.24-.22-.01-.05-.03-.08-.03-.09-.01-.02-.03-.06-.04-.07-.02-.05-.07-.17-.07-.18 0-.03-.02-.1-.03-.15v-.03q-.04-.05-.04-.07s-.02-.2-.02-.27-.01-.14 0-.22v-.09s0-.05 0-.07 0-.01 0-.03c0-.06.01-.15.02-.18v-.06s.02-.07.02-.07v-.09s.02-.03.02-.03c0-.02.02-.04.03-.08" fill="#1d1d1b" fill-rule="evenodd"/></svg>