<svg viewBox="0 0 71.36 25.98" xmlns="http://www.w3.org/2000/svg"><path d="m3.25 25.71a9 9 0 0 1 -1-.44 2.25 2.25 0 0 1 -.35-.27l-.39-.32a5.34 5.34 0 0 1 -1-1.85 4 4 0 0 1 -.17-1v-.15-.39-.2a3 3 0 0 0 0-.63 7.28 7.28 0 0 1 .66-2.75c.17-.38.06-.53-.17-.86a3.09 3.09 0 0 1 -.57-1.08 8.68 8.68 0 0 1 -.26-2.19 17.55 17.55 0 0 1 1.06-4.42h.17v.25l-.05.16v.27.28.24c0 .17-.08.41-.12.63a10.86 10.86 0 0 0 -.46 2.49 3.83 3.83 0 0 0 .66 2.17c.19.23.56.49.77.08a1.8 1.8 0 0 0 .16-.51 2.53 2.53 0 0 1 .18-.63c.49 0 0 1.71-.14 2a1.55 1.55 0 0 1 -.36.64 1.91 1.91 0 0 0 -.52.58 6.39 6.39 0 0 0 -.13 4.19 2.79 2.79 0 0 0 .44.75l.4.39.22.18a6.19 6.19 0 0 0 2 .76 5.9 5.9 0 0 0 2.43-.08 11.8 11.8 0 0 0 2.92-1.09c1.08-.68 3.44-2.22 3.67-3.13a5.85 5.85 0 0 0 -.5-1.58 4.77 4.77 0 0 0 -.24-.44l-.22-.35c-.13-.23-.44-.83-.44-.83a5.33 5.33 0 0 1 .1-1.31c.12-.2.56.46.65.58a3.11 3.11 0 0 0 .59.74 2.43 2.43 0 0 0 1.6 0 4.29 4.29 0 0 0 2-2h.17l.05.15v.14.16a.89.89 0 0 0 .1.9 1.3 1.3 0 0 0 1.57.37 1.46 1.46 0 0 0 .69-.95c.11-.27.44-1.17.66-1.07v.32l.06.17.27.31a3.09 3.09 0 0 0 .77.41l.27.08.24.06a1.85 1.85 0 0 0 1.14-.2c.31-.18.11-.55 0-.79-.21-.39-.58-.94-.88-1.39a8.9 8.9 0 0 1 -.95-1.49c-.14-.32-.27-.61-.4-.95a1.42 1.42 0 0 0 -.23-.42.55.55 0 0 1 -.17-.39 3.53 3.53 0 0 1 .26-1.6c.07-.17.23 0 .28.1a1.79 1.79 0 0 0 .54.61 1.25 1.25 0 0 1 .2.17l.38.34a4.31 4.31 0 0 1 .68.67c.23.28-.06.36-.29.31 0 0-.67-.17-.54 0a11.54 11.54 0 0 1 1.67 3 5.37 5.37 0 0 1 .2 2.21 3.37 3.37 0 0 1 -.44 1.09 6.56 6.56 0 0 1 -.65.38c-.37.13-.68.23-.74.43a12.8 12.8 0 0 0 -.4 2.52l.05.3v.27c0 .13.08.27.12.4a2.83 2.83 0 0 0 .39.73 3.36 3.36 0 0 0 1.05.89 3.62 3.62 0 0 0 3.36-.18l.14-.06.3-.15.27-.16a4.43 4.43 0 0 0 .67-.41l.32-.23.48-.4a4.1 4.1 0 0 1 .36-.28 16.09 16.09 0 0 0 2.14-2.13c.19-.26.76-1.06.53-1.29 0 0-.84.18-1.09.23a5.77 5.77 0 0 1 -1.59.2c-1.49 0-1.77-1.33-1.42-2.75a2.31 2.31 0 0 1 1.57-1.72c.78-.19 2 1.07 2.36 1.49s.46.56 1 .35a5.49 5.49 0 0 0 .56-.32l.14-.08.12-.08.13-.08.19-.16c.33-.15-.36-.93-.46-1a5.45 5.45 0 0 1 -.72-1l-.16-.21-.16-.28c-.1-.16-.24-.39-.3-.51s-.25-.54-.26-.56a.83.83 0 0 0 -.18-.25.79.79 0 0 1 -.23-.34 4 4 0 0 1 .22-1.74c0-.16.36.3.36.3a1.18 1.18 0 0 0 .25.25l.13.09.59.46c.2.15.58.42.65.49a.48.48 0 0 1 .18.52c0 .06-.25 0-.29 0a.94.94 0 0 0 -.39 0c-.15 0 .51.85.56.91a4.78 4.78 0 0 1 .68 1 4 4 0 0 1 -.15 3.32 3.84 3.84 0 0 1 -.72.53c-.26.13-.83.43-.84.65a7.64 7.64 0 0 1 -.3 2 4.31 4.31 0 0 1 -.83 1.19 12.71 12.71 0 0 0 -1 1.1 8.27 8.27 0 0 1 -1.57 1.34l-.1.12-.24.18a4.73 4.73 0 0 1 -.43.31l-.42.31a3.74 3.74 0 0 1 -.49.32 6.18 6.18 0 0 1 -2.15.69 3.36 3.36 0 0 1 -3-1.1 3.55 3.55 0 0 1 -.8-1.57 6 6 0 0 1 -.08-2.57 8.47 8.47 0 0 1 .2-1.07 3.11 3.11 0 0 0 .15-1.13l-.37-.12a1.56 1.56 0 0 1 -.4-.22 4.16 4.16 0 0 1 -.35-.24 2.69 2.69 0 0 0 -.44-.33 3.3 3.3 0 0 0 -.37.69 1.72 1.72 0 0 1 -.49.73 1.87 1.87 0 0 1 -.92.32c-.71.09-1.26-.61-1.65-1.1-.07-.08-.36.3-.41.35a1.77 1.77 0 0 1 -.53.49 2.08 2.08 0 0 1 -.61.26h-.2-.28-.18-.3v.35 1.39a2.31 2.31 0 0 1 -.12.67 2.59 2.59 0 0 1 -.53 1.12l-.55.64-.12.07a5.9 5.9 0 0 0 -.38.56 6.88 6.88 0 0 1 -1.26 1l-.46.32-.14.08-.19.08c-.27.16-.55.33-.84.47s-.6.3-.88.42l-.44.16a1.85 1.85 0 0 0 -.4.16 7.58 7.58 0 0 1 -4.17.05m13.58-5.49a6.44 6.44 0 0 1 -.12 1.35 1.94 1.94 0 0 0 0 1.06 6.21 6.21 0 0 0 .45.84c.12.17.48-.12.52-.22l.1-.38c0-.14.07-.25.16-.3.29-.16-.11 1.14-.12 1.17-.15.46-.53 1.09-1 .55a2.49 2.49 0 0 1 -.51-1.42 7.48 7.48 0 0 1 .52-2.65m49.57.81a1.68 1.68 0 0 0 .89-.52 1.38 1.38 0 0 0 .2-.33c.05-.12.21-.45.32-.41v.41a.63.63 0 0 0 .19.21.8.8 0 0 0 .69.11c.18-.12.22-.35.28-.72a1.73 1.73 0 0 1 .26-.62c.3-.48 0 1 0 1.14a2.34 2.34 0 0 1 -.47.92 1 1 0 0 1 -.81.25c-.53-.13-.65-.16-1 .1a1.66 1.66 0 0 1 -1.1.37 1.25 1.25 0 0 1 -.48-.22.77.77 0 0 0 -.71-.14 7.44 7.44 0 0 0 -2.25 1.39 5.55 5.55 0 0 1 -2.82 1.3c-.18 0 .36-.32.36-.32a2.18 2.18 0 0 0 .42-.24c.27-.18.75-.5.91-.63l.56-.4.13-.08.76-.56a8.79 8.79 0 0 1 1.38-1 2.79 2.79 0 0 1 1.09-.42 1 1 0 0 1 .5.2 1.2 1.2 0 0 0 .7.2m-34.57 1.87a3.58 3.58 0 0 1 .71-1.3c.13-.15.72.2.86.29a6.74 6.74 0 0 0 .72.41c.06 0 .34-.46.45-.64s.34-.47.55-.46a3.75 3.75 0 0 1 1.45 1.23 3.29 3.29 0 0 1 -.86 1.26s-.56-.35-.77-.49-.59-.39-.74-.36a6.65 6.65 0 0 0 -.4.6c-.16.26-.36.58-.67.42a6.36 6.36 0 0 1 -1.3-1m7.31-2.79c-.44-.25-.3-2.31-.14-2.85a7.79 7.79 0 0 1 .26-.83 4.22 4.22 0 0 0 .38-1.14s-.52-.39-.66-.49a4.46 4.46 0 0 1 -.63-.52l-.58-.6a1.94 1.94 0 0 0 -.31-.26c-.15-.12-.35-.26-.37-.36a3.13 3.13 0 0 1 0-1.58c.05-.13.22 0 .31.05a1 1 0 0 0 .32.16l.4.14a4 4 0 0 0 .44.16c.32.11 1 .35 1.05.4.3.16-.36.41-.53.47s.71.68.71.68c.17.11.76.5.92.29.66-.86 1.52-2.14 2.24-3.21.23-.36.09.66 0 .78v.12.35.16a1.73 1.73 0 0 1 -.3.59c-.25.35-1 1.56-1 1.63s.53.48.78.63a2.83 2.83 0 0 1 .8.74c.41.58.82 2.4.11 3.1a7.88 7.88 0 0 1 -1.81 1.47 3 3 0 0 1 -1.33.45l-.36-.14c-.25-.05-.25-.05-.28-.07l-.15-.09zm-32.22-.32s-.08-.14-.12-.23a2.42 2.42 0 0 1 -.12-.4 4.77 4.77 0 0 1 -.12-1.14 11.53 11.53 0 0 1 .36-2.37c.06-.29.31-1.4.59-1.22a4 4 0 0 1 -.12.46c0 .11-.08.41-.12.64a15.22 15.22 0 0 0 -.24 1.89c0 .69.42 1.64 1 1.76.28.06.45-.45.5-.69.16-.86.43-.66.32 0s-.35 2-1 2c-.38 0-.76-.48-.89-.74m36-2.37c0-.48-2-1.62-2.43-1.51a8.12 8.12 0 0 0 -1.05 2c-.08.27.15.62.26.77a.88.88 0 0 0 .83.18 5.42 5.42 0 0 0 2.39-1.48m14.08-1.16c.21-.24-1.22-1.1-1.82-.8-.22.11-.71.36-.7.61 0 .61 2.08.53 2.52.19m-26.79-.16c0-.24-.73-.58-1-.64-.46-.1-1.4.47-1 .67.22.1 2 .41 1.95 0m-18-3.53a3.2 3.2 0 0 1 -.33-1.35 6.23 6.23 0 0 1 .51-2.35 10.28 10.28 0 0 1 -.11 1.1 2.91 2.91 0 0 0 .14 1.55c.09.19.41.67.66.65a.4.4 0 0 0 .33-.24l.12-.41a1 1 0 0 1 .1-.36 4.65 4.65 0 0 1 0 1.15 1.62 1.62 0 0 1 -.3.69c-.19.25-.39.26-.67 0a1.78 1.78 0 0 1 -.24-.24l-.17-.24m-8.34-.85a2.54 2.54 0 0 1 .13-1.53 2.41 2.41 0 0 1 1-1.07l.24-.16.43-.29.16-.06.28-.16.22-.12.42-.21.25-.15.43-.23c.88-.5 1.79-1 2.69-1.45l1.27-.67.14-.06.14-.08.46-.24.27-.12.16-.08.16-.07.16-.08.24-.14.16-.06.25-.12.7-.36a4.07 4.07 0 0 1 1.45-.6c.18 0-.07.86-.14 1l-.19.09-.25.14-.1-.03-.18.07-.47.24a4.62 4.62 0 0 0 -.52.28l-.16.06-.19.08-.48.22-.86.43c-.63.32-2.17 1.13-3.32 1.75-.54.28-1.42.75-1.67.91-.42.25-1 .56-1.5.83a5 5 0 0 0 -1.29 1c-.12.27.18.48.42.65s.6.5.27.92c-.08.11-.6-.09-.67-.13l-.38-.17zm49.05-1.53a2.61 2.61 0 0 1 -.34-1.38 6.61 6.61 0 0 1 .83-2.54s-.16.5-.23.71a4.43 4.43 0 0 0 -.24 1.41c0 .45.52 1.47 1 1.29.15-.06.21-.29.28-.52s.14-.49.26-.47 0 .44 0 .47a4 4 0 0 1 -.14.76c0 .15-.35.76-.5.77a.88.88 0 0 1 -.91-.5m13.7-1.53v-.17a3.41 3.41 0 0 1 .12-.52l.12-.35c.1-.3.28-.73.44-1.08s0 .64-.06.68c-.13.29-.39.9-.3 1.15v.24a2.34 2.34 0 0 0 .08.35 2 2 0 0 0 .3.59c.18.26.46 0 .6-.1s.07-.07.11-.21.11-.39.2-.3c.38.39-.47 1.63-.82 1.71-.64.14-.93-1.58-.79-2m-28.63.83a2.21 2.21 0 0 1 .59-1.44c.18-.07.62.22.84.37a2.63 2.63 0 0 0 .78.4c.08 0 .31-.46.36-.56a2.6 2.6 0 0 1 .43-.64c.21-.25 1.51.9 1.62 1.12.2.38-.61 1.51-.72 1.48s-.51-.36-.77-.55-.68-.49-.77-.45-.3.61-.37.74c-.14.31-.3.65-.61.52a6.63 6.63 0 0 1 -1.36-1m-7.2-4.91a3.71 3.71 0 0 0 -.69-.44c-.16-.09-.48-.35-.52-.55a2.51 2.51 0 0 1 .28-1.45l.11-.2.17-.18a1.19 1.19 0 0 1 .46-.28.62.62 0 0 1 .64.32 2.18 2.18 0 0 1 .25.77 3.71 3.71 0 0 1 .08.79.65.65 0 0 0 .32.59 1.8 1.8 0 0 1 .25.18 1.1 1.1 0 0 1 .41.5 1.44 1.44 0 0 1 -.07.7s-.41-.19-.51-.19c-.26-.16-.45-.28-.69-.23 0 0-.13.24-.14.27-.11.26-.11.26-.15.31-.14.2-.14.2-.15.23s-.16.25-.25.37-.33.4-.39.5a1 1 0 0 1 -.17.23 1.18 1.18 0 0 0 -.28.29 11.64 11.64 0 0 1 -3.78 2.76 11.16 11.16 0 0 1 1-1.18c.23-.22.45-.45.69-.66l.28-.3.22-.2.14-.1.08-.12a14.25 14.25 0 0 0 2.38-2.72m-12.12-.87c0-.11-.36-.38-.5-.48a1 1 0 0 1 -.46-.47 2.07 2.07 0 0 1 .1-1.27c.19-.36.85-1.09 1.28-.67a2.67 2.67 0 0 1 .46 1.76c0 .18.18.36.38.56.35.35.42.48.26 1.15 0 0-.34-.16-.39-.19s-.41-.25-.56-.19-.14.18-.19.29a3.45 3.45 0 0 1 -.25.41 5.67 5.67 0 0 1 -.6.71l-.2.26-.17.2c-.1.09-.21.2-.6.63a8.09 8.09 0 0 1 -2.91 2 12.48 12.48 0 0 1 1-1.19c.35-.38.75-.79 1.2-1.22a2.61 2.61 0 0 0 .3-.27l.18-.19.58-.54a8.17 8.17 0 0 0 1.07-1.29m20.42.51a2.64 2.64 0 0 0 -.39-.54 1.45 1.45 0 0 1 -.37-.74c-.08-.66.49-1.89 1.13-2 .3 0 .42.14.54.33a2.05 2.05 0 0 1 .16.75v.18.42.92l.33.23.23.16a1.49 1.49 0 0 1 .43.47c.07.19 0 .74-.15.81s-.19-.12-.24-.17a2.71 2.71 0 0 0 -.35-.24 1.42 1.42 0 0 0 -.79-.31l-2.11 2.16a11.11 11.11 0 0 1 -2.74 1.36c-.27-.11.47-.57.49-.58.29-.18.61-.38.62-.4a9.57 9.57 0 0 1 1.14-.9 7.66 7.66 0 0 0 2.11-1.94m-37.21-.4c.7-.33 2.16 1.47 2.51 1.91a1.74 1.74 0 0 1 .15.21 1.69 1.69 0 0 0 .25.32c.09 0 .08-.44.08-.52v-.22c-.04-1.06-.04-1.06-.04-1.11 0-.5.13-1.55.62-1.78.32-.15.63.24.77.43s.39 1 0 1.06a2 2 0 0 1 -.39-.22.69.69 0 0 0 -.57-.17s0 2 0 2.26c0 .08-.16 2.36-.4 1.9a9 9 0 0 0 -1.61-2.19.64.64 0 0 0 -.6-.22.57.57 0 0 1 -.44-.08 1.06 1.06 0 0 1 -.33-1.58m17 3c-.12-.2.4-1.27.57-1.4s1.38.79 1.52 1a8.18 8.18 0 0 1 -.65 1.32c-.14.27-1.34-.82-1.44-1m24.93-.81c.77-.69 8-5.17 8.26-5.17s-.15.85-.21.9a20.73 20.73 0 0 1 -2.21 1.5c-.74.46-1.47.91-2.19 1.39s-1.48.96-2.19 1.4l-1.11.72c-.13.09-.51.34-.56.28s0-.89.16-.93m11.54-4.16c.55-.14 1.5.69 1.92 1.06 0 0 .44.52.62.75a4.13 4.13 0 0 1 .31.42c.09.16.27.44.35.46s.07-.65.07-.65v-1.37a3.82 3.82 0 0 1 .12-.89l.06-.2a1.2 1.2 0 0 1 .12-.28l.16-.27a1.16 1.16 0 0 1 .15-.3.83.83 0 0 1 .88-.38c.26.05.61.6.66.87a1.28 1.28 0 0 1 -.17.77s-.39-.25-.43-.29-.44-.36-.62-.34a.58.58 0 0 0 -.49.5 9 9 0 0 0 -.03 1.44 14.41 14.41 0 0 1 0 1.76c0 .24-.17 1.5-.44 1.4a.92.92 0 0 1 -.08-.25 1.34 1.34 0 0 0 -.1-.29 7.38 7.38 0 0 0 -.4-.64 6.7 6.7 0 0 0 -.85-1.06c-.17-.17-.4-.39-.54-.4a1.76 1.76 0 0 1 -.88-.26 1 1 0 0 1 -.5-.47c-.07-.23-.07-1 .16-1.09m-30.63 3.7c-.2-.13-.28-1.08-.26-1.33a9.15 9.15 0 0 1 .52-2.56s0 .66-.08.84a4.25 4.25 0 0 0 -.08 1.65 1.35 1.35 0 0 0 .59.95c.3.17.44-.12.48-.35s.09-.6.27-.6-.18 1.43-.25 1.62a.64.64 0 0 1 -1.19-.22m5.41-2.74c0 .3.82.75 1 .64s-.26-.75-.31-.81-.26-.13-.58 0zm8.62-.35c0 .51.67.72 1 .67s-.17-1-.22-1.08c-.24-.23-.81.3-.75.41m-19.61-.16a.49.49 0 0 0 -.87-.37c-.21.21.07.38.21.45s.66.38.66-.08m48-.2c0-.86-.65-1.25-1.18-.58-.25.31.2.59.39.7l.26.16.16.08c.36.21.38.22.37-.36m-18.9 15.16c.17-.15.93-.93.86-1.1a20.82 20.82 0 0 0 -1.65-3 14.38 14.38 0 0 1 -.69-1.55 2.63 2.63 0 0 1 -.13-2.31c0-.06.67.59.74.65l.1.13.19.17.46.38c.1.09.19.19.3.28a1.64 1.64 0 0 1 .31.33c.06.07.29.43 0 .39s-.76-.14-.77-.05a13.51 13.51 0 0 0 1.09 1.93 4.68 4.68 0 0 1 .57 3.6 3.58 3.58 0 0 1 -1 1.55 7.72 7.72 0 0 1 -.64.68 3.15 3.15 0 0 0 -.69.66 3.16 3.16 0 0 0 -.18 1.63 5.86 5.86 0 0 0 .71 1.52 3.09 3.09 0 0 0 1.58 1 4.58 4.58 0 0 0 1.91 0 4.34 4.34 0 0 0 .48-.14 1.57 1.57 0 0 0 .3-.12 1.84 1.84 0 0 1 .38-.13 20.79 20.79 0 0 0 2.54-1.66 23.59 23.59 0 0 0 1.94-1.83c.27-.27 2-2 1.14-2.37-.11 0-.36.07-.5.12a3.09 3.09 0 0 1 -.65.18 9.06 9.06 0 0 1 -1.75.24 2.39 2.39 0 0 1 -1.34-.5c-.67-.59-.52-1.79-.26-2.69a2.46 2.46 0 0 1 1.85-1.6 4.49 4.49 0 0 1 1.41.46 5.75 5.75 0 0 1 1.56 1.7c0 .09.48-.15.5-.16l.53-.32c.29-.18.64-.45 1-.69l.3-.07a1 1 0 0 1 .32-.48c.23-.18.67-.53.93-.46s.15.55.14.75a1.39 1.39 0 0 0 .18.95 2.07 2.07 0 0 0 1.11.85 3 3 0 0 0 1.56 0 3.4 3.4 0 0 0 1.52-1 5.93 5.93 0 0 0 .58-1.03 5.67 5.67 0 0 1 .76-1.28c.28-.22.08.57 0 .69a1.85 1.85 0 0 0 -.24.87c.13.73 2.8 1.4 2.93.65a1.59 1.59 0 0 0 -.25-.64c-.16-.2-.35-.43-.35-.57a3.58 3.58 0 0 1 .39-1.43c.33-.18 1.13 2.11.93 2.66v.28.24l-.1.31a3.66 3.66 0 0 1 -.37.71 1.25 1.25 0 0 1 -.91.5 2.79 2.79 0 0 1 -2-.45 2.66 2.66 0 0 1 -.47-.41c-.09-.11-.39-.44-.42-.42a4.57 4.57 0 0 0 -.24.41l-.24.4a2.1 2.1 0 0 1 -.58.57 6.36 6.36 0 0 1 -1.61.69 2.64 2.64 0 0 1 -1.51-.22 2.35 2.35 0 0 1 -.85-.66 2.45 2.45 0 0 1 -.28-.49s-.09-.24-.1-.28v-.2a3.88 3.88 0 0 0 -.08-.45c-.05-.1-1.05.75-1.06.76l-.13.09-.2.17c-.15.12-.41.32-.42.34a1.31 1.31 0 0 0 -.66 1.16 3.2 3.2 0 0 1 -.26 1.51 12.43 12.43 0 0 1 -.73 1.18l-.62.72-.27.34a6.51 6.51 0 0 1 -1.41 1.36l-.71.6a6.37 6.37 0 0 1 -.82.63 7.35 7.35 0 0 1 -4.16 1.44 3.27 3.27 0 0 1 -1.65-.49 4.26 4.26 0 0 1 -1.55-2.06v-.24c0-.22 0-.22-.08-.48a2.23 2.23 0 0 1 0-.63 8.88 8.88 0 0 0 0-1.49c-.06 0-.47.3-.58.4s-.46.32-.69.46-.38.26-.56.4-.48.35-.67.47c-.46.28-1 .64-1.39.87s-.52.32-.78.46l-.14.06-.3.15-.14.08-.29.16a34 34 0 0 1 -7.31 2c-.62-.05 2.5-1.35 2.69-1.41a16.63 16.63 0 0 0 1.61-.7l.14-.08.14-.08.42-.19.14-.08.28-.16.45-.24.88-.51a2.65 2.65 0 0 1 .4-.24c.22-.12.5-.3.79-.48l.28-.16.38-.23a29.33 29.33 0 0 0 2.72-1.75c.75-.56 1.49-1.14 2.2-1.73a1 1 0 0 1 .31-.07c.08.08.4-.56.59-.74m16.77-12.17.13-.07.3-.28.17-.16a2.37 2.37 0 0 0 .29-.25 3.56 3.56 0 0 0 .54-.65s-.37-.33-.53-.45a1.39 1.39 0 0 1 -.53-.62 2.36 2.36 0 0 1 .86-2.3c.17-.12.41 0 .62.08s.4.61.45.91a1.64 1.64 0 0 1 0 .44 3.15 3.15 0 0 0 0 .47 3.92 3.92 0 0 0 .32 1l.13.09a.89.89 0 0 1 .31.51c0 .11 0 .63-.18.61a3.06 3.06 0 0 1 -.22-.21 1.5 1.5 0 0 0 -.6-.28c-.1 0-.58.6-.68.73a8.48 8.48 0 0 1 -.76.7l-.17.2c-.12.12-.37.34-.65.58a2.71 2.71 0 0 1 -.45.3c-.13.07-.65.45-.91.64s-.72.48-1.08.71a7.11 7.11 0 0 1 -1.24.59 6.87 6.87 0 0 1 -1.27.38c0-.11.93-.73 1.08-.82a15.23 15.23 0 0 0 1.38-.87c.49-.36 2.07-1.44 2.33-1.6a5 5 0 0 0 .4-.38" fill="#221e1f" fill-rule="evenodd"/></svg>