<svg viewBox="0 0 97.65 25.71" xmlns="http://www.w3.org/2000/svg"><path d="m66.23 9.91c.05.18.09.3.09.31 0 0-.51-.34-.59-.39-.19-.13-.39-.29-.57-.43-.43-.34.14-1.35.47-1.57.14-.1.54.19.64.29.17.17.34.26.69.43.2.1.39-.19.55-.44.19-.29.4-.63.51-.68.07-.04 1.14.75 1.4.95s.08.69-.05.9c-.14.21-.43.65-.44.68-.04.16-.8-.45-.8-.45-.2-.16-.67-.52-.73-.53-.07-.02-.3.41-.36.54 0 0-.03.07-.16.36l-.15.29c-.16.18-.27-.02-.36-.17-.07-.15-.11.03-.12-.08m-53.45 10.34s-.45.2-.62.28c-.18.08-.38.15-.59.22 0 0-.34.14-.48.2-.81.34-1.55.57-2.42.72-1.51.27-4.24.72-5.37.12-.84-.28-1.51-.6-2.19-1.01-.33-.19-.85-1.26-1.02-1.7-.23-.62-.04-1.46.12-2.21.06-.28.2-.58.32-.88.12-.29.29-.68.22-.78-.69-1.02-.8-2.56-.34-3.95.1-.29.29-1.12.4-1.65.11-.5.28-1.11.55-1.48.15-.2-.2 1.34-.23 1.48-.08.34-.15.65-.24 1-.1.4-.2.81-.24 1.26-.08.8.28 2.26.99 2.4.14.03.45-.84.55-1.11l.18.03c.06.02.03.28.02.34-.03.25-.1.48-.16.72-.08.28-.27.89-.51 1.12-.07.08-.11.12-.23.15-.26.07-.42.11-.52.34-.01.02-.13.31-.14.36-.09.28-.14.56-.12.88.02.54.25 1.15.51 1.48.75.93 1.88 1.46 3.3 1.71.72.13 2.38.15 3.06-.08.03-.01.41-.06.53-.08l.52-.08c.14-.03.48-.11.69-.16.44-.11.85-.22 1.25-.36.94-.33 2.05-.73 2.72-1.06.36-.18.81-.4 1.07-.56.55-.34.46-.5.14-1.08-.2-.37-.39-.7-.64-1.02 0 0-.21-.25-.32-.37-.13-.15-.24-.29-.35-.46-.14-.2.24-1.29.33-1.39.34-.43 1.58 1.78 1.67 1.96.3.6.08 3.28-.71 3.77-.16.11-.41.27-.51.32l-.26.14-.25.13-.68.33zm80.65-18.83c-.45-.23-.88-.04-.96.46-.04.22.72.65.93.76.82.44.12-1.1.03-1.22m-76.86-.73c.25.25-.24 1.43-.48 2.02-.04.1-.14-.56-.14-.56 0-.17.06-.44.12-.64.08-.24.29-.86.5-.82m50.21 2.14c-.02-.56-.14-1.42-.84-.74-.25.25.04.56.21.7.17.13.64.5.63.04m-44.94.68c-.12-.59-.03-2.9.53-3.25.05-.04-.11.66-.12.72-.13.59-.16 1.16-.08 1.68.04.25.29.72.49.8.18.07.36.08.48-.09.02-.04.09-.23.13-.35.02-.07.09-.26.15-.21.2.14-.32 1.49-.56 1.58-.56.21-.91-.4-1.01-.88m20.91-.43s-.15-.15-.21-.17l-.3-.02c-.17-.02-.24-.07-.38-.14-.2-.11-.51-.28-.64-.43-.2-.24-.34-1.34.19-1.38.47-.04 1.38.83 1.67 1.17.21.25.39.51.57.77.15.22.6.9.68.91.13.02.1-.55.1-.63-.03-.81-.05-1.32 0-1.75.06-.5.32-1.15.68-1.38.63-.39 1.56 1.2.94 1.73-.07.06-.46-.42-.56-.55-.15-.19-.65-.49-.7 0-.02.2-.01.43 0 .64.02.49.02 1.07 0 1.4-.04.44-.13.93-.24 1.32-.04.14-.25.79-.32.77l-.1-.17-.08-.2-.14-.24-.06-.16-.09-.15c-.08-.11-.17-.24-.3-.41q-.1-.2-.15-.26c-.08-.09-.16-.18-.23-.29-.03-.04-.31-.4-.33-.41m39.16-.17c-.01-.07-.07-1.06.18-1.02.94.13 1.63.88 2.39 1.7.15.16.28.35.39.55.04.07.34.57.38.3.01-.08 0-.97 0-1.28 0-.47.02-1.2.18-1.69.11-.35.54-.93.85-1.1.25-.14.49-.08.68.07.24.19.39.53.47.86.04.15-.2.62-.3.64-.01 0-.19-.13-.21-.16l-.17-.21c-.19-.15-.34-.26-.54-.26-.28 0-.42.31-.5.54-.1.3-.06 2.15-.04 2.45.04.53-.1 1.49-.31 1.96-.05.1-.37-.54-.4-.59s-.22-.35-.32-.5c-.24-.35-.49-.68-.78-.97l-.18-.22c-.09-.09-.2-.2-.2-.2-.04-.03-.17-.11-.35-.07q-.09.03-.22-.02c-.43-.17-.77-.36-.99-.74m-78.73-.17c-.09-.22.04-.95.21-1.1.75-.65 2.81 2.43 2.99 2.83.08.19.15-.53.15-.62 0-.52 0-1.19.12-1.64.12-.46.34-1.14.71-1.37.41-.25.96.5 1.03.92.05.31-.08.61-.28.72-.04.02-.23-.18-.26-.22-.11-.15-.22-.28-.38-.38-.18-.11-.37-.16-.44.12 0 0-.08.48-.08.48l.04.26-.04.32v1.06c0 .26-.03.66-.1.98-.08.37-.25 1.12-.4 1.2-.03.01-.15-.29-.18-.37-.09-.23-.19-.48-.3-.7-.21-.41-.46-.81-.74-1.16-.23-.28-.56-.69-.85-.67-.47.03-1.04-.25-1.17-.68m67.48 3.1c1.3-.87 2.64-1.71 3.98-2.54.18-.11.36-.22.55-.32.18-.1.37-.21.54-.32.15-.1.31-.19.47-.28.17-.1.35-.21.52-.32.06-.04.33-.19.48-.28.18-.1.34-.21.5-.32.19-.13.99-.63 1.08-.62.19.04-.04.72-.11.82-.02.03-.66.48-.91.64-.17.11-.37.24-.51.32-.23.13-.48.28-.75.46l-.14.07-.26.16-.65.4c-.39.24-.78.48-1.15.72-.64.43-1.75 1.15-2.14 1.35-.41.2-.79.45-1.17.7-.18.12-.45.3-.46.3-.2-.01-.03-.84.11-.93m-4.7-2.09-.29-.26c-.09-.1-.24-.4-.29-.55-.11-.36.21-1.35.38-1.52.3-.3.53-.53.81-.58.35-.07.5.44.54.75.04.3.02.65 0 .96s-.05.85-.01.87c.34.25.84.6.94.97.05.18-.04.59-.15.66-.02.01-.2-.13-.24-.17-.11-.09-.24-.17-.38-.25-.23-.14-.54-.32-.67-.34-.07 0-.44.45-.54.57-.16.2-.31.37-.48.55-.18.18-.4.4-.54.52-.1.08-.26.22-.41.35-.22.16-.22.16-.22.16-.3.27-2.21 1.31-2.61 1.3-.33-.01 1.12-.98 1.12-.98t.24-.19c.11-.09.25-.2.45-.34l.13-.09c.1-.08.23-.2.3-.25.41-.29 2.24-1.63 1.92-2.15m-54.04 3.03c-.18-1.94.72-4.03 1.38-5.55.08-.19.26.14.2.29-.09.22-.15.48-.2.76 0 .02-.11.35-.16.52q-.06.19-.12.36l-.08.24c-.27.95-.57 2.5-.06 3.43.17.31.51.54.83.38.16-.08.28-.28.34-.44.1-.25.24-.58.29-.6.43-.18-.49 2.01-.52 2.07-.02.06-.49.34-.7.32-.61-.08-1.23-1.12-1.19-1.79m81.19-2.99c.04-.1-.41-.46-.6-.61-.16-.13-.39-.38-.44-.6-.11-.48.14-1.12.3-1.55.13-.32.39-.56.73-.68.24-.09.51.11.6.24.33.47.38 1.41.38 2.09 0 .37.13.47.42.7.15.12.55.78.19 1.04-.07.05-.38-.14-.54-.23-.22-.13-.41-.24-.59-.2-.02 0-.22.26-.33.39l-.16.2s-.48.45-.71.66c-.45.41-.89.78-1.38 1.15-.58.44-3.95 2.59-4.51 2.28-.09-.06.65-.51.71-.55.28-.17.71-.44.86-.53.55-.37 1.68-1.11 1.8-1.19.28-.18.65-.42 1.07-.72 0 0 .25-.17.25-.17l.39-.31c.12-.08.22-.16.33-.25l.28-.29.13-.08.2-.18.19-.21.22-.18c.05-.06.17-.21.17-.21m-73.87 5.24c.41-.34 2.12-1.2 3.22-1.75l.14-.06.26-.14.26-.14.3-.14.24-.12.26-.14.52-.25c.26-.17.6-.3.92-.43.58-.23 1.18-.55 1.73-.84.56-.3 1.15-.57 1.74-.82.62-.27 1.42-.61 1.85-.82.56-.28 1.54-.75 1.86-.82.27-.06.1.43.06.54-.07.18-.23.59-.38.62-.21.04-1.2.54-1.7.78-.59.29-1.22.58-1.82.84l-.18.08-.16.08-.18.08-.18.08q-.21.11-.34.16c-.17.07-.31.15-.46.24-.12.07-.28.15-.4.2l-.4.2c-.16.08-.28.14-.42.2s-.31.14-.44.2c-.34.16-.34.16-.34.16q-.15.08-.24.12c-1.23.53-2.46 1.15-3.61 1.81l-1.65.88c-.09.05-.77.44-.82.38-.14-.17.31-1.1.38-1.17m14.09.47c-.08-.66.09-3.44.61-3.79.26-.17.12.28.09.33-.09.23-.2.54-.22.64-.12.68-.27 1.48-.12 2.01.11.39.36.96.82.75.14-.07.2-.3.26-.54.03-.1.16-.64.24-.44.15.36-.3 1.63-.51 1.84-.57.56-1.07-.44-1.18-.8m46.77-3.26s-.15.53-.21.69c-.13.34-.23.76-.2 1.16.04.73.22 1.46.91 1.53.16.02.27-.31.3-.45.04-.16.15-.58.23-.51.39.3-.37 1.89-.94 1.89-.45 0-.79-.88-.87-1.31-.11-.59.53-3.48.78-3.01m13.79.43c-.04.21-.19.56-.31.84-.1.22-.2.49-.18.74.05.54.09 1 .3 1.26.13.17.26.26.51.15.02 0 .26-.32.27-.34v-.12c.03-.11.07-.17.13-.24.24-.29-.13 1-.14 1.02-.13.31-.29.59-.65.64-.68.11-.8-1.45-.75-1.95.04-.37.7-2.46.81-2.02m-53.4 3.42c1.02-1.01 13.09-5.7 13.14-5.69.23.05-.22.91-.28 1.03s-1.23.55-1.61.69c-.62.23-1.26.5-1.86.76-1.33.59-2.63 1.16-3.93 1.73-.45.2-1.96.84-1.96.84-.3.12-.61.28-.81.38-.11.06-.58.26-.85.38-.58.26-1.16.51-1.73.8-.31.15-.62.31-.51-.16.06-.23.19-.68.38-.76m-34.51.96c-.11-.91-.26-2.88.39-3.56.19-.2 0 .45-.03.55-.11.38-.16.95-.15 1.26 0 .44.28 1.93.88 1.51.16-.11.18-.18.24-.4.05-.16.12-.43.24-.35.16.11-.38 1.42-.43 1.5-.33.61-1.08-.08-1.14-.51m44.29 1c-.18-1.04.11-2.45.42-3.33.06-.16 1.01-2.07.88-1.26l-.11.25-.08.16-.08.16c-.04.09-.15.52-.22.8-.23.91-.29 1.89-.08 2.81.11.47.39.85.75 1.08.23.14.35.04.42-.2.06-.16.23-.68.35-.6.42.28-.51 2.17-.91 2.17-.66 0-1.33-1.32-1.33-2.05m-28.66 1.27-.34.08c-.06 0-.53-.22-.58-.27-.15-.13-.25-.42-.24-.57.01-.12.11-.75.23-.73.38.07.72.13.97.3.29.19.57.49.78.75l.23.31.09.13c.14.18.36.48.44.5 0 0 .03-1.6.03-1.63 0-.4.06-.88.19-1.23.14-.33.22-.54.55-.66.28-.1.66.31.77.5.15.28.48.96-.02 1.06l-.31-.25-.21-.17c-.6-.4-.63.05-.6.72.04 1.09.08 2.07-.16 2.89-.1.34-.15.49-.34.12-.11-.21-.29-.5-.52-.84-.08-.12-.17-.26-.25-.35 0 0-.27-.31-.38-.43l-.29-.24zm21.36.5.04-.26v-.22q0-.06.08-.36l.04-.2.04-.16.06-.16.06-.2c.06-.23.13-.43.2-.64.06-.17.14-.4.17-.51.02-.05-.14 1.03-.21 1.35-.13.65-.09 1.83.46 2.13.22.12.43.09.56-.1q.06-.09.14-.34c.04-.12.11-.33.17-.35.34-.1-.28 1.66-.57 1.75-.21.07-.51.16-.68-.03-.16-.18-.3-.42-.39-.66l-.1-.32-.04-.24v-.18l-.04-.3zm-36.8 1.08c-.13-.34.51-1.46.85-1.41.05 0 .48.27.65.38.26.18.65.44.76.46.06.01.23-.25.28-.34.13-.22.16-.28.16-.28.15-.2.28-.39.46-.42.22-.05 1.19.85 1.36 1.04.26.28-.47 1.4-.74 1.45-.05.01-.76-.52-.9-.64-.54-.43-.72-.12-1 .37-.31.54-.44.48-.9.11-.04-.04-.31-.21-.45-.31-.18-.12-.44-.3-.54-.42m77.34 1.29c.05-.12-.21-.31-.32-.39-.1-.07-.22-.16-.3-.26l-.2-.1c-.4-.41-1.92.15-1.67.74.2.47 2.08.2 2.49.01m-31.41 1.55c.2-.29-.82-.41-1.07-.44-.23-.02-1.63-.04-1.69.12 0 .01.49.51.58.6.18.18.53.53.57.55.1.05 1.24-.61 1.62-.83m17.54-.54c.11-.48-1.85-1.46-2.26-1.55-.19-.04-1.04 1.54-1.11 1.83-.55 2.29 3.03.51 3.37-.28m-3.03-4.84c.09.17-.29.26-.39.29-.04 0-.27.1-.24.18.07.22 1.13.88 1.39.94.12.03 1.2-1.44 1.46-1.8l.16-.21.23-.33c.08-.12.08-.13.17-.23q.11-.13.15-.21c.07-.13.14-.23.17-.27 0 0 .11-.15.11-.17l.17.03c.05.05-.05.37-.07.46l-.08.28c-.15.52-.3 1.04-.38 1.16l-.57.82c-.17.25-.52.77-.5.97 0 .03.27.2.32.23.18.1.39.21.53.32.28.21.51.46.73.73.24.3.42.68.42 1.18.01.59-.09 1.21-.3 1.67-.4.87-2.64 2.35-3.77 1.83-.27-.13-.51-.51-.56-.84-.15-.86-.07-1.87.16-2.65.06-.2.19-.5.28-.72.14-.31.33-.76.3-.84 0-.02-.66-.54-.93-.75l-.22-.18-.12-.08c-.13-.11-1.24-1.21-1.24-1.27-.05-.45-.1-1.19.06-1.52.05-.11.22.02.32.09.13.1.27.15.45.21.26.09.85.31.89.32q.29.12.33.12c.08 0 .55.23.58.27m-24.9 10.22c-1.39-.62-2.18-1.21-2.68-2.69-.63-1.87-.79-4.51-.93-6.64-.18-2.82-.49-5.74-.89-8.33-.13-.85-.34-1.78-.52-2.61-.15-.66.08-1.54.47-1.96.26-.27.73 2.57.78 2.92.11.84.52 4.05.52 4.05.29 3.52.76 8.78 1.05 10.36.21 1.16.75 2.43 1.82 2.89.04.03.05.03.26.12.07.03.27.1.4.14l.36.12c.11.04.21.07.32.08h.26l.22.04c.47.14 1.99-.19 2.74-.36.09-.02 1.06-.39 1.61-.6.26-.1.53-.25.77-.38.17-.1.51-.29.65-.32.3-.07-.83-.88-.83-.88-.43-.27-.85-.54-1.27-.58-.35-.04-.6-.02-.93.1-.24.09-.54.21-.66.07-.16-.18.29-1.29.38-1.39.27-.34 1.18-.83 1.61-.82l.16-.04.2-.04c.24-.04.57-.1.69-.12.49-.07.91-.13 1.31-.16.8-.06 2.45-.02 3.2.28.76.3 2.02.84 2.15.93.15.11-.17.91-.26 1.14-.09.22-.52.42-1.05.66-.4.18-2.08.96-1.99 1.29.07.28 1.12.8 1.46.92.26.09.54.14.85.16l.28-.02c.15 0 .48 0 .48.02 0 .05.94-.39.99-.42.2-.13.71-.5.76-.59 0-.01 0-.54 0-.94 0-1.24-.4-3.94-.69-5.74-.08-.51-.25-1.67-.36-2.49l-.04-.28-.04-.2c-.05-.29-.12-.8-.12-.8-.07-.6-.13-1.11-.2-1.57-.13-.83-.25-1.93-.37-3.05-.09-.87-.19-1.82-.4-2.45-.11-.33.21-1.58.52-1.67.07-.02.46.82.55 1.01l.08.16.08.16.14.26c.07.14.18.41.26.6.28.67.87 2.1.74 2.46-.09.24-.45-.24-.5-.31-.09-.12-.33-.43-.46-.32-.05.05.12 1.74.15 1.94q.05.31.08.44t.08.48c.05.36.12.85.16 1.08.23 1.41.45 2.95.64 4.57.22 1.85.54 4.65.48 5.5-.09 1.46-.46 2.17-1.06 3.02-.22.32-1.04.67-1.51.77-.53.12-1.25.17-1.77-.04-.67-.27-1.09-.53-1.61-.91-.15-.11-.4-.38-.58-.58-.17-.19-.45-.49-.63-.51-.15-.02-1.47.64-1.79.82-.58.33-1.24.58-1.92.82-1.6.57-3.05.79-4.72.42m17.86-21.58c.39.48 2.18 4.26 1.87 4.7-.09.13-.35-.18-.41-.26-.12-.14-.38-.47-.48-.43-.02 0 .02.76.03.98.02.27.04.64.08.92.07.47.17 1.1.24 1.65.17 1.24.35 2.6.52 3.65.34 2.06.97 6.25.81 7.22v.34l-.04.42-.04.4c-.04.46-.11.76-.2 1.16-.06.28-.35 1.24-.6 1.14 0 0 0-1.09 0-1.24 0-.56 0-1.71-.04-2.23-.07-.97-.23-2.16-.36-3.17l-.04-.32v-.14l-.04-.26-.04-.36-.04-.32c-.06-.51-.15-1.18-.2-1.53l-.04-.24-.04-.36-.04-.2-.04-.36-.04-.28q-.03-.21-.08-.64c-.03-.24-.07-.54-.08-.6-.24-.89-.56-4.04-.77-6.06-.05-.45-.13-1.17-.16-1.24l-.12-.28c-.05-.13-.15-.37-.16-.44-.06-.37.1-.81.22-1.08.05-.12.26-.59.33-.54m31.77 19.66c.36-.13.67.07.91.22.29.19.5.17.83.04.26-.1.39-.24.57-.43.11-.12.15-.2.23-.37.07-.14.17-.36.3-.27l.03.42s.21.16.23.17c.2.1.44.13.65.04.06-.03.16-.42.22-.68.06-.23.17-.5.31-.62.31-.25-.1 1.18-.13 1.26-.15.41-.29.7-.62.92-.2.14-.49.11-.75.02-.29-.1-.44-.16-.56-.09-.03.02-.16.13-.18.16q-.07.09-.17.15l-.48.26c-.28.15-.7-.06-.93-.17-.24-.12-.5-.25-.75-.14-.48.2-1.44.84-2.32 1.43-.61.4-1.89 1.24-2.65 1.14-.05 0 .52-.35.56-.38.25-.15.5-.32.75-.48.2-.14.42-.28.7-.49q.06-.05.21-.15l.32-.24c.92-.65 2.26-1.6 2.72-1.71m-72.17 3.43c-.02-.31.55-1.11.75-1.24.18-.12.55.17.76.33.23.18.64.5.83.53.11.01.37-.38.44-.5.16-.24.29-.44.61-.5.14-.03 1.37 1.05 1.45 1.22.17.38-.65 1.28-.97 1.26-.14 0-.68-.38-.79-.47-.22-.19-.55-.46-.68-.44-.02 0-.3.43-.34.48-.16.22-.26.36-.46.5-.3.22-1.44-.96-1.59-1.17m17.37-6.81c-.77-.47-1.55-.87-2.53-1.2-1.01-.34-2.09-.69-2.82-1.15-.46-.28-.9-.58-1.28-.93-.19-.17-.37-.36-.54-.55-.19-.2-.4-.38-.63-.54-.24-.17-.16-1.15-.11-1.44.07-.35.09-.49.4-.27.03.02.69.24 1.07.37l.52.16.48.16c.21.07.47.15.38.43-.02.05-.28.09-.3.09-.14.02-.7.1-.6.21.64.68 1.86 1.09 2.89 1.43.92.31 2.53.86 2.93 1.18.35.29.96.8 1.05 1.2.2.92.55 2.55.05 3.16-.58.72-3.48 2.55-5.15 3.6-1.41.88-4.36 2.7-6.04 1.66-.3-.19-.46-.72-.55-1.12-.09-.41-.04-1.19 0-1.68.02-.22.08-1.15.05-1.18-.02-.02-.51.1-.71.15l-.32.08c-.14.04-.3.08-.45.12 0 0-.88.15-1.05.18l-.2.02-.28.02-.2.02-.32.04c-2.22.29-4.24-1.57-4.46-3.19-.38-2.74-.76-5.73-.76-8.59 0-1.15-.15-2.56-.37-3.93-.09-.55-.19-1.16-.28-1.69-.08-.44-.21-1.18-.18-1.4.03-.24.62-1.82.71-1.49.23.92.37 1.88.49 2.89.09.79.2 1.72.24 2.45.02.48.09 1.3.16 1.77.04.25.07.95.08 1.4.03.86.07 1.53.12 2.37.05.85.12 1.77.2 2.69.03.41.18 1.6.2 1.65l.08.4.04.2c.04.14.1.35.2.56l.12.24.06.16.08.14.1.22c.92 2.17 7.02 1.51 8.3-.03.28-.34-.32-1.28-.5-1.53-.13-.17-.31-.42-.4-.52-.21-.24-.46-.53-.46-.65 0-.26.07-1.21.32-1.34.21-.11 1.09 1 1.19 1.22.26.5.49 1 .59 1.69.12.86-.12 1.68-.4 2.41-.08.2-.36.38-.63.56-.21.14-.69.46-.71.52-.15.72-.16 1.18-.12 1.85.02.34.35.69.56.86.18.15.82.22 1.07.13 2.11-.79 3.84-1.66 5.61-2.75.37-.23.74-.47 1.09-.72.4-.29.8-.57 1.21-.84.34-.22.68-.48.98-.76.42-.38.09-.78-.26-1.2m-2.65 7.33c.15-.25 5.1-2.26 5.1-2.26.17.05-.09.77-.23.86-.69.41-4.48 2.08-5.1 2.17-.18.03-.01-.65.24-.76m40.02-.94c-.19-.22-.31-.88-.38-1.3 0-.03-.03-.74-.04-.94q0-.21.04-.67s.05-.55.02-.56c-.02 0-.78.46-1.01.6-.26.16-.63.43-.93.64-.62.45-1.39.92-2.18 1.38l-.24.12c-.2.1-.37.19-.57.3-.15.09-.32.18-.48.26-.18.08-.37.17-.52.28-.49.35-2.29.74-3.19.92-.63.13-1.5.3-1.86.4l-.4.12q-.16.05-.28.08c-.14.03-1.42.15-1.02 0l.23-.16.13-.07.18-.08.4-.18c.19-.07.38-.14.56-.22.48-.21 1.06-.45 1.57-.66 1.07-.44 2.04-.91 2.98-1.46 1.34-.79 3.8-2.35 5.8-3.62.61-.39 3.45-2.61 3.13-3.16-.78-1.36-2.5-4.56-2.58-5.18 0-.07.18-1.27.25-1.38.04-.06.46.39.5.45.17.18.4.38.61.56.41.35.84.73 1.08 1.09.09.14-.06.14-.2.14s-.67-.01-.67.02c.05.27.48.97.75 1.4.31.51.76 1.24.87 1.69.14.64.08 1.38 0 2.17-.05.54-.58 1.16-1.02 1.69-.22.26-.46.48-.72.7-.25.22-.39.38-.6.65-.18.24-.23 1.43-.12 1.65.15.33.65 1.46.65 1.46.1.32 1.05.77 1.42.89.27.09 1.83.15 2.02-.04l.4-.12q.16-.05.28-.1l.2-.08.16-.06c.21-.08.39-.15.56-.26l.26-.16c.19-.12.26-.16.26-.16 1.26-.67 4.03-3.16 4.68-4.37.13-.24-.01-.49-.18-.66-.06-.06-.37.04-.47.07-.2.07-.36.12-.6.16-.65.11-1.57.25-1.84.24-1.64-.06-1.97-1.33-1.61-2.91.3-1.36 1.82-2.15 3.13-1.4.36.2.7.48.95.79.19.24.79.99.94.96.39-.08 1.38-.78 1.69-1.03.07-.06.23-.21.34-.3.12-.11.28-.23.42-.33.11-.08.82-.58.91-.34.08.22.07.43.06.66-.02.47-.01.61.14.88.22.38.6.68 1.01.86 1.21.55 2.23-.14 2.98-.67.22-.16.53-.74.74-1.12.22-.4.71-1.32.94-1.3.13.01-.12.64-.14.67-.1.21-.31.62-.24.78.15.35.64.6 1.01.78.4.2 1.66.35 1.87-.03.12-.21-.33-.82-.47-1.02-.15-.21.17-1.49.28-1.63.15-.2.53.64.58.78.22.58.36 1.02.34 1.81-.01.56-.27 1.15-.54 1.53-.45.61-1.5.62-2.26.32-.32-.12-.6-.28-.83-.49-.09-.08-.19-.2-.27-.29-.07-.09-.3-.37-.34-.35-.04.03-.13.2-.17.27-.07.14-.16.27-.33.3l-.12.35-.16.23s-.28.21-.42.32c-.34.25-.83.43-1.3.53-.35.08-1.08.07-1.47-.14-.4-.21-.69-.44-.96-.78-.11-.14-.22-.33-.29-.51l-.08-.28c-.03-.12-.15-.61-.19-.59-.56.3-1.87 1.23-2.23 1.71-.03.04-.08.61-.08.72-.03.54-.06 1.04-.22 1.4-.15.33-.33.62-.52.9-.08.12-.18.26-.39.53q-.16.17-.18.2c-.11.15-.24.3-.37.44l-.18.2-.22.21c-.59.76-1.96 1.76-2.98 2.49-.73.53-2.88 1.54-4.07 1.18-1.19-.35-2.14-.75-2.58-1.81m-67.28 1.34c.18-.04 1.27-.5 1.81-.74.55-.24 1.15-.45 1.74-.66.72-.26 1.44-.54 2.14-.84l.16-.06.2-.08.12-.06.16-.06.32-.14c.29-.12.9-.38 1.02-.35.16.03-.12.76-.2.83-.23.19-3.66 1.54-4.17 1.69-.11.03-.69.24-1.05.38l-.4.14-.16.06-.12.06-.28.1c-.23.08-.46.16-.65.24-.18.08-.37.15-.56.22-.16.06-.3.11-.3-.08 0-.12.12-.6.22-.64" fill="#1d1d1b" fill-rule="evenodd"/></svg>