<svg viewBox="0 0 89.01 25.85" xmlns="http://www.w3.org/2000/svg"><path d="m61.15 18.13c.09.04-.83.67-.89.7-.39.25-.95.61-1.25.7-.47.15-1.51.23-1.66-.29-.18-.03-.35-.92-.38-1.13-.06-.5.12-1.61.32-2.17.06-.17.22-.53.34-.8.14-.31.27-.61.26-.71 0 0-.6-.48-.73-.59q-.21-.17-.32-.27t-.23-.19c-.21-.19-.41-.4-.59-.62-.1-.12-.18-.19-.3-.29-.13-.09-.26-.19-.29-.27-.06-.17-.09-1.36.05-1.63.07-.13.3.06.34.1.1.08.24.13.4.19l.38.14.14.06.32.12c.3.11.74.28.92.39.27.16-.39.4-.51.44-.34.12 1.16 1.09 1.4 1.04.12-.03 1.05-1.33 1.26-1.64.2-.29 1.14-1.54 1.26-1.55.21-.02-.28 1.57-.34 1.7-.16.36-.48.78-.73 1.08-.27.33-.71.84-.23 1.13.76.46 1.55 1.05 1.68 2.13.04.33-.08 1.14-.16 1.44 0 0-.34.65-.46.78m-2.94-16.77c0-.26-.47-.09-.56-.01-.17.13-.23.19-.17.47.04.17.53.53.69.58.37.12.09-.92.04-1.04m26.78-.01c-.35-.35-1.07 0-.92.45.07.2.68.59.89.68.66.3.15-.98.03-1.14m-52.43.27c.55 0 1.18.54 1.6.9.22.19.42.43.59.66.12.16.55.72.6.71.03 0 .08-.63.09-.7q.02-.21.06-.48c.04-.28.09-.57.14-.72.12-.35.33-.99.63-1.07.55-.15 1.01.32 1.19.74.08.2-.17.55-.3.58-.07.02-.22-.09-.3-.14l-.26-.16c-.45-.22-.69-.19-.75.36-.02.19-.08 1.44-.08 1.61q0 .19-.04.48c-.05.43-.12 1.05-.21 1.3 0 .02-.55-.91-.62-1.04-.2-.34-.48-.75-.75-1.04-.12-.12-.3-.25-.44-.35-.05-.03-.08-.04-.38-.06-.12 0-.3-.04-.4-.1-.14-.08-.39-.22-.44-.36-.08-.2-.07-.32-.02-.68l.1-.44zm40.9 1.01c-.07-.19-.06-1.07.16-1.11.68-.1 1.48.69 1.85 1.07.1.1.4.47.58.7.11.14.22.3.31.46.07.11.26.44.34.41.09-.04.04-.84.04-.84 0-.06.03-.97.05-1.26.04-.67.29-1.07.59-1.55.26-.42.85-.77 1.25-.26.33.42.49.91.14 1.42-.06.08-.42-.32-.46-.37-.13-.14-.32-.26-.5-.32-.18-.05-.48.34-.52.51-.05.21-.08 1.61-.08 2.13 0 .48-.1 1.3-.2 1.92-.05.32-.35.66-.44.16-.07-.35-.26-.61-.44-.86-.34-.47-.85-1.15-1.04-1.34-.07-.07-.21-.21-.3-.2-.19.02-.34.04-.52-.05-.22-.11-.74-.41-.79-.64m-11.24 2.63s.24-.15.35-.23c.17-.11.36-.24.51-.32.02-.01.28-.16.3-.17q.18-.13.35-.23l.14-.08.26-.16c.62-.35 1.39-.82 2.07-1.24.92-.56 4.16-2.38 4.17-2.38.22-.05.01.62-.06.76-.12.26-1.72 1.16-2.22 1.43-.77.4-1.56.88-2.26 1.36q-.05.04-.22.12l-.55.34-.14.06-.17.09c-.36.23-1 .63-1.14.72-.2.12-.38.23-.57.32-.2.09-.47.27-.64.41-.14.12-.4.34-.43.01 0-.06.11-.76.23-.8m-56.4-1.85c-.13-.15.08-.78.17-.94.06-.11.99.32 1.14.38.14.06.84.76 1.17 1.09.15.15.3.31.41.49.08.13.4.64.5.6.05-.02.02-1.03 0-1.32-.01-.31 0-.71.08-1.06.07-.27.29-.93.52-1.01.85-.27 1.46.6 1.09 1.24-.06.11-.44-.08-.52-.12-.21-.1-.48-.24-.66-.11-.11.08-.11.57-.11.92 0 .5 0 1.43-.04 1.72-.04.34-.09.62-.16.92-.03.11-.16.67-.3.48l-.04-.2-.08-.2-.08-.14-.08-.14c-.1-.2-.21-.36-.34-.53-.22-.3-.44-.57-.7-.84-.11-.1-.33-.32-.37-.33-.04-.02-.08-.01-.32 0-.14 0-.2-.02-.32-.1-.47-.29-.84-.52-.95-.8m51.84-.08s-.09-.11-.15-.19c-.08-.09-.24-.29-.24-.29-.14-.2-.29-.44-.33-.69-.04-.2.4-1.14.59-1.56.06-.13.57-.47.76-.39.3.13.41.38.46.74.03.22 0 .72-.04 1.14 0 .09-.06.76.05.76.19 0 .85.67.88.91.03.22-.02.7-.22.7-.04 0-.2-.15-.23-.18-.02-.02-.19-.15-.31-.23-.21-.16-.49-.36-.74-.32 0 0-.87.95-1.02 1.12-.33.38-.79.74-1.22 1.01-.28.17-2.29 1.24-2.43 1.16-.22-.13.98-.93 1.02-.96 0 0 .38-.29.53-.41.13-.1.38-.27.56-.39.66-.44 1.9-1.29 2.1-1.93m-55.54.24c-.01.11-.08.41-.12.6l-.08.28c-.03.12-.08.28-.08.28-.1.63-.07 1.43.32 1.82.17.16.44.09.53-.09.09-.2.22-.47.24-.47.2-.03 0 .8-.05.93-.14.31-.29.66-.65.72-.86.14-.86-1.84-.75-2.43.06-.29.24-.84.4-1.32.02-.04.24-.32.24-.32m83.56-.62c.29.33.83.96.52 1.38-.09.11-.44-.18-.53-.25-.17-.14-.34-.26-.57-.23 0 0-.17.2-.27.31-.12.14-.24.27-.36.4-.21.21-.47.45-.77.68q-.12.14-.22.22-.15.13-.2.16l-.39.31-.21.17-.24.15q-.13.08-.24.16c-.65.47-3.47 2.19-4.24 1.99-.15-.04.73-.59.79-.63l.14-.08q.19-.1.37-.21l.4-.23c.07-.04.63-.39.91-.56.17-.1.43-.28.73-.48l.24-.16c.55-.36 1.37-.91 1.65-1.13.32-.25 1.51-1.2 1.43-1.46 0-.02-.21-.16-.24-.17-.12-.08-.28-.19-.36-.25-.16-.14-.28-.31-.39-.51-.39-.68.48-2.02.87-2.29.47-.33.85.27.97.64.07.23.12.56.12.78 0 .15.03 1.26.1 1.28m-60.79.74c0 .06-.22.71-.34 1.08s-.25.75-.32 1.16c-.08.44.02 1.09.22 1.38.16.24.33.47.64.52.15.02.31-.13.36-.24.06-.12.27-.57.3-.56.14.07-.17 1.84-1.02 1.76-.6-.06-1.11-1.23-.95-1.85v-.18l.04-.42.02-.12q.02-.07.1-.38l.08-.28.04-.16q.05-.18.08-.28c.1-.34.5-1.46.75-1.44m31.48 4.76c.03-.29.5-1.21.75-1.3.07-.03.48.23.7.36.29.18.72.44.88.39.02 0 .21-.36.27-.47.11-.21.29-.53.42-.6.28-.14 1.45.79 1.55 1.08.13.37-.52 1.57-.79 1.44-.05-.02-.44-.33-.65-.49-.2-.16-.59-.47-.7-.48-.05 0-.28.39-.36.54-.12.2-.4.7-.4.7-.28.16-1.65-.96-1.68-1.16m-45.72 1.27c-.03-.5-.05-.91.12-1.45.72-2.25 12.58-6.83 12.76-6.72.14.09-.03.64-.1.77-.04.07-1.18.52-1.53.65-.61.24-1.21.47-1.82.72-1.09.45-2.41.99-3.35 1.52-.25.14-1.05.55-1.57.8-.49.25-1.32.66-1.59.85-.91.6-2.49 1.65-2.54 2.01-.01.07.29.41.35.47.16.16.18.39.13.61-.05.24-.19.19-.42.1-.09-.04-.21-.09-.27-.15l-.17-.19zm60.05-1.28c.08-.44.49-2.72.91-2.69.04 0-.26.84-.26.84-.13.36-.2.74-.24 1.15-.06.58.4 1.62.95 1.46.13-.04.21-.29.26-.48.05-.18.14-.48.25-.43.24.09-.26 1.81-.72 1.94-.72.2-1.25-1.21-1.15-1.79m14.6-1.95c.16.07-.16.76-.21.87-.17.35-.26.74-.26 1.16 0 .39.28 1.11.62 1.06.21-.03.31-.18.38-.34.06-.12.18-.4.24-.38.18.09-.22 1.11-.25 1.18-.07.11-.16.27-.25.35-.11.1-.73.1-.69.02 0 0-.15-.21-.16-.23-.06-.08-.07-.1-.13-.27-.09-.24-.13-.56-.16-.82-.07-.55.58-2.55.88-2.61m-52.64 4.88c-.15-.55-.16-1.3.14-1.75.13-.19.45-.49.79-.78q.22-.16.24-.17c.3-.3 1.91-1.03 2.61-1.33.93-.4 1.99-.85 2.82-1.26.94-.47 5.71-2.43 5.88-2.42.24.02-.09.77-.14.83-.04.06-.42.2-.62.27 0 0-.49.22-.73.32-.18.08-.41.18-.61.26l-.28.12-.14.06-.26.14c-.42.17-.84.33-1.25.48-.46.16-.94.36-1.35.58-.5.27-1.74.79-2.6 1.16-.94.4-1.9.82-2.78 1.32-.42.24-1.29.78-1.43 1.16-.02.04.43.49.64.7.2.2.39.59.19.99-.05.1-.64-.24-.65-.24l-.46-.44zm-27.19.08c-.09-.25.48-1.16.64-1.3.14-.13.68.3.85.43.17.14.59.47.73.36l.15-.26.08-.16.08-.14c.08-.13.22-.34.36-.4.24-.1 1.12.83 1.3 1.04.27.3-.38 1.24-.59 1.45-.13.14-.59-.27-.67-.34-.2-.18-.56-.51-.73-.48-.02 0-.3.44-.44.68-.23.37-.33.35-.65.12-.25-.18-1.08-.82-1.11-1m36.17.29c-.08.13-.82 1.02-.92 1.02-.13 0-1.01-.78-1.36-1.1-.2-.17.57-1.28.75-1.31.21-.04.59.27.83.46.22.18.53.44.69.49.03.01.93-1.02.93-1.02 0-.21.82.55.82.55.23.21.61.56.66.73.09.36-.82 1.45-1.12 1.18-.16-.14-.47-.43-.52-.48-.15-.15-.61-.61-.74-.53m33.1 4.12c.17-.25-1.2-1.27-2.03-.67-1.33.96 1.34 1.01 2.03.67m-13.81.8c.16-.52-1.94-1.7-2.3-1.61-.19.05-1.03 1.74-1.08 2.06-.04.26.17.6.32.72.51.41 1.42-.05 1.8-.28.21-.13.69-.48 1.26-.9m-18.05-.75c-.19-.09-.92.44-1.06.55-.24.18-.35.6-.33.98 0 .17.46 1.22.55 1.36.23.33 1.74-1.14 1.79-1.38.03-.13-.33-.69-.42-.83-.05-.07-.2-.27-.23-.29-.18-.15-.29-.25-.3-.39m-7.12.96c-.16-.65.5-3.28.83-3.93.14-.28.18.28.18.28-.01.22-.05.52-.12.76-.1.34-.25.89-.28 1.09-.11.68-.1 2.55.87 2.37.09-.02.19-.27.22-.36.07-.2.17-.48.28-.5.32-.04-.06 1.28-.12 1.46-.08.25-.41.78-.69.78-.71 0-1.1-1.22-1.17-1.95m15.03-16.53c.17-.14 1.03 1.89 1.14 2.15.2.48.98 2.32.78 2.58-.07.09-.5-.43-.55-.49-.14-.17-.35-.43-.45-.42-.04 0 .1 1.22.11 1.34.05.43.16 1.16.24 1.68.03.21.14 1.25.2 1.85l.04.24.04.32.04.32.04.28.08.6c.27 2.18.77 6.76.73 7.34-.09 1.21-.25 3.28-.72 3.75-.12.12-.09-.86-.09-.86v-.7l-.04-.86-.08-1.28q0-.1-.04-.36c-.03-.2-.09-.77-.12-1.2-.17-1.96-.38-4.12-.73-6.02-.04-.22-.28-2.39-.4-3.45-.05-.44-.12-1.15-.16-1.56-.05-.55-.12-1.33-.16-1.65q0-.06-.04-.48c-.02-.28-.08-.88-.08-.88-.04-.16-.04-.18-.1-.32l-.08-.18c-.04-.09-.1-.19-.1-.22-.02-.17.33-1.1.49-1.51m-19.55 20.89c-1.29-.72-1.69-6.8-1.79-8.6-.03-.59-.46-4.25-.73-6.5-.08-.69-.16-1.14-.32-1.89-.07-.32-.15-.63-.24-.92-.1-.33-.18-.57-.12-.8.07-.27.46-1.6.6-1.54.34.15 1.14 6 1.22 6.72.11 1.02.28 2.63.32 3.39.04.6.1 1.53.2 2.03.02.1.02.1.04.48l.04.7c.03.43.08 1.05.12 1.47.07.69.17 1.36.32 1.97.18.71.43 1.27.75 1.8.19.31.86.71 1.4 1.03.28.17 2.04.46 2.14.36l.57-.04c.14-.01.55-.06.68-.08l.57-.08.2-.04.24-.04c.42-.06.95-.19 1.41-.32.34-.1.71-.24 1.05-.36.2-.07 1.22-.45 1.19-.62-.1-.7-.27-1.8-.24-1.97.11-.81.34-1.37.58-1.99.12-.31.68-.89 1.01-1s.42-.11.81.02c1.14.39 1.67 3.31.81 4.36-.26.31-.65.79-.79.92-.62.56-.09.78.63.89 1.15.18 3.23-.39 3.71-1.14.12-.19-.24-3.63-.38-4.94-.07-.71-.22-1.61-.32-2.21-.12-.74-.21-1.57-.28-2.33-.08-.92-.21-1.92-.32-2.73-.14-1.01-.23-2.1-.32-3.21-.04-.52-.11-1.3-.18-1.53-.1-.28-.12-.38-.02-.68.13-.38.4-1.19.67-1.25 0 0 .89 2.25.93 2.34.33.87.7 1.85.64 2.49-.02.19-.45-.39-.45-.39-.12-.17-.27-.36-.37-.39-.08-.02-.05.63-.04.66.02.39.04.67.08 1.12.04.48.13 1.18.2 1.65.14.91.34 2.22.4 2.77.07.6.13 1.3.2 2.01l.04.32.06.32.02.36.04.16.04.4q.04.4.08.72l.04.32.04.24.04.28c.05.5.12 1.33.12 1.85 0 3.24-1.36 4.56-4.58 4.56-.64 0-1.14-.33-1.51-.62-.14-.11-.28-.24-.38-.38-.17-.21-.4-.5-.49-.48l-3.63 1.39c-.1.14-3.24.38-3.43.38-.91 0-3.29-.75-3.32-1.38m52.73-.39c.35-.08.57-.23.77-.45.09-.09.16-.22.23-.35.03-.05.27-.46.34-.34v.36c.03.14.06.16.24.24.18.09.44.2.6.08.11-.08.18-.35.24-.6.06-.24.14-.44.25-.63.29-.49.08.93.01 1.11-.16.47-.37.99-.89 1.1-.17.04-.39-.02-.52-.06q-.43-.14-.63-.03l-.32.23c-.18.13-.46.22-.67.26-.27.06-.56-.1-.77-.22s-.35-.2-.56-.18c-.53.05-1.1.41-1.55.74-.07.05-.3.21-.46.32l-.23.17q-.1.09-.2.15c-.61.35-2.2 1.26-2.71 1.14-.11-.03.02-.25.11-.27.24-.08.42-.14.56-.24q.14-.08.26-.15l.13-.07.12-.08.26-.16c.5-.33 1.28-.85 1.52-1.05.46-.37.97-.72 1.48-1.04.24-.15.77-.38 1.11-.38.21 0 .39.09.52.18.2.13.44.29.73.22m-81.24 2.55-.13-.07-.2-.2c-.13-.13-.27-.3-.37-.45l-.32-.46-.16-.24-.16-.28c-.29-.37-.65-2.36-.7-3.01-.05-.55-.08-1.16-.04-1.74.03-.36-.12-.71-.38-1.31-.48-1.12-.24-2.61.02-3.77.1-.44.54-2.35.83-2.34.21 0-.16 1.29-.22 1.5-.14.49-.26 1.02-.36 1.52-.16.81.01 2.56.87 2.83.31.1.52-.19.58-.42.07-.24.2-.7.28-.72.27-.09.08 1.08.04 1.24-.07.33-.17.62-.35.84-.09.11-.17.2-.31.25-.12.04-.59.21-.59.24v.58l.04.36v.22l.04.44c.02.28.15.81.24 1.17.18.71.58 1.38 1 1.86.32.37.65.62 1.16.81.32.12.72.02.94-.13.57-.4.9-1.29 1.1-2.06.19-.77.53-1.58.87-2.25.49-.98 1.66-2.52 2.86-2.7.58-.09.99.64 1.19 1.1.19.45.63 1.28 1.38 1.81.18.15.4.28.61.39.37.2 1.71.58 2.2.34.1-.05-.31-.52-.36-.59q-.05-.06-.18-.2c-.09-.09-.28-.3-.29-.31-.13-.18-.28-.39-.38-.59-.08-.17-.36-.77-.37-.78-.22-.14-.32-1.84-.32-2.21 0-.5.4-1.4.67-1.98.22-.48.72-.82 1.15-1.11.49-.33 1.22-.57 1.96-.62 1.32-.1 3.62.14 4.41 1 .13.14.03.36-.14.37-.05 0-.27-.07-.32-.1-.14-.07-.44-.22-.44-.22-.38-.14-.82-.14-1.17-.12-1 .05-1.82.23-2.58.48-.81.27-2.54.91-2.68 1.63-.07.4.43 1.64.62 2.11.21.49.85 1.12 1.35 1.6.29.28.86.54 1.36.61.59.08 1.09.09 1.61-.12.89-.35 1.73-.93 2.53-1.47.39-.27.77-.55 1.13-.84.18-.15.5-.41.68-.61.09-.09.24-.19.34-.19.18 0-.13.84-.18.96-.12.29-.25.59-.42.82-.33.45-.95.92-1.42 1.24-.11.07-.24.15-.37.23l-.32.24-.36.24q-.15.06-.25.17l-.24.15-.14.08s-.28.16-.4.24l-.28.16c-.11.07-.35.21-.36.22l-.29.1s-.16.11-.2.14c-.34.28-2.33.85-2.82.92-.3.04-2.12.23-2.34-.04q-.12-.04-.28-.1c-.16-.06-.5-.19-.52-.2-.08-.04-.25-.16-.38-.25-.11-.08-.22-.16-.34-.24-.32-.2-.79-.91-1.01-1.28-.1-.16-.24-.51-.34-.76-.14-.34-.28-.53-.57-.72-.53-.35-2.24 1.54-2.44 1.97-.33.71-.63 1.46-.91 2.29-.26.76-.56 1.67-.91 2.2-.18.27-.38.51-.72.61-.72.22-1.15-.08-1.68-.45m22.07.45c.22-.18 4.31-1.96 4.62-1.97.21 0-.04.66-.07.74 0 .02-.33.15-.33.15l-.16.06-.16.06-.16.08-.16.08-.36.16c-.24.1-.38.16-.38.16l-.26.14-.16.06-.2.08-.2.08-.28.14c-.19.08-.57.24-.6.26q-.15.07-.28.12c-.16.06-.37.14-.48.2-.12.06-.53.27-.6.19-.13-.14.07-.76.25-.79m-17.44.1.14-.06.14-.08.18-.08c.2-.1.4-.19.62-.28l1.17-.52c.42-.18.85-.36 1.25-.56.35-.17 1.09-.53 1.38-.47.24.05-.29.84-.35.87l-.18.06-.2.04s-.35.13-.36.14c-.21.09-.51.23-.64.28-.36.15-.9.4-1.33.6-.08.04-.85.36-1.33.56-.14.06-.72.3-.72.3-.16-.15.09-.74.24-.8m57.66-.78c-.17-.46-.29-.86-.36-1.45q-.03-.27 0-.8v-.14l.04-.34c.01-.17.04-.69.02-.72-.04-.05-.59.31-.67.36l-.72.48c-.43.29-.86.57-1.31.84-.43.26-1.17.71-1.37.83-.27.14-.54.28-.81.4-.26.12-.78.37-.85.44-.33.32-6.62 1.75-7.09 1.66-.45-.09 2.62-1.28 2.82-1.36.54-.21 1.51-.59 1.67-.68.45-.24 1.18-.63 1.47-.72.92-.3 5.24-2.86 5.9-3.5.24-.24 1.25-.95 1.83-1.36.37-.26 1.49-1.25 1.56-1.72.04-.27-1.17-2.34-1.55-2.99-.12-.21-.21-.45-.3-.7-.11-.31-.24-.63-.36-.92-.16-.37-.3-.7-.24-1.08.05-.33.17-1.12.34-1.1.04 0 .2.22.28.34.04.06.17.19.28.29l.3.29q.07.07.22.19l.18.17c.19.19.6.6.64.65.1.13.2.25.1.42-.02.03-.16 0-.22-.02-.21-.06-.29-.05-.54-.03-.21.01.29.77.34.83l.26.46.14.28c.32.47.7 1.05.79 1.69.1.72.02 1.39-.08 2.21-.04.32-.57.98-.96 1.47-.22.27-.46.49-.73.71-.3.26-.56.47-.67.71-.15.32-.28 1.29-.14 1.61l.08.4q.07.24.12.36c.09.25.22.48.39.65.06.06.65.5 1.12.85.26.19 1.24.2 1.65.2.58 0 1.8-.39 2.22-.66 1.04-.69 2.17-1.44 2.93-2.05.38-.3.89-.81 1.33-1.24q.2-.24.44-.53c.1-.11.3-.33.31-.33.16-.19.16-.19.19-.24.04-.06.13-.21.14-.22.16-.16-.14-.62-.28-.66-.03 0-.4.11-.54.16-.18.06-.35.09-.57.12-.66.1-1.13.16-1.82.16-.49 0-.96-.35-1.24-.59-.63-.53-.34-2.02-.05-2.72.12-.29.85-1.13 1.14-1.22.42-.12.82-.16 1.28-.05.54.13 1.16.64 1.57 1.12l.25.33c.21.26.49.61.58.63.17.04 1.5-.86 1.73-1.04.44-.36 1.27-1.03 1.61-1.02.18 0 .14.72.13.91-.03.48.09.68.3.96.25.35.64.6 1.09.74.48.16 1.2.1 1.65-.06.59-.2 1.01-.63 1.38-1.06 0 0 .24-.43.35-.63l.08-.14.08-.16.08-.16c.2-.38.42-.78.64-.92.37-.24-.01.74-.04.8-.1.22-.28.6-.16.76.3.4.76.68 1.29.84.32.09 1.5.23 1.51-.2 0-.19-.17-.52-.27-.65-.15-.2-.34-.46-.26-.65l.08-.32.08-.4c.04-.2.1-.39.21-.53.17-.24.61.81.64.9.18.45.26.96.28 1.46.02.53-.24 1.28-.51 1.61-.28.35-.36.44-.85.6-.42.14-1.08 0-1.53-.16-.3-.11-.57-.28-.78-.49-.09-.09-.28-.28-.35-.39l-.15-.24c-.13-.05-.46.49-.58.67-.14.22-.39.5-.62.62-.47.26-1.04.58-1.59.62-.44.04-1.07.05-1.45-.24-.35-.26-.72-.54-.86-.73-.11-.16-.2-.38-.27-.58-.02-.06-.08-.28-.1-.36 0 0-.09-.52-.15-.47-.16.15-.51.39-.73.55-.3.21-.6.43-.88.65-.48.39-.64.51-.69.99-.06.51-.18 1.59-.32 1.69l-1.56 2.12c-.25.44-2.85 2.48-3.42 2.74q-.12.08-.26.16c-.18.1-.42.24-.58.32-.3.15-.8.3-1.21.42-.7.21-1.4.22-2.1.12-1.14-.17-1.82-1.06-2.4-1.83m-41.35-2.77c.23-.1 1.09-.78 1.54-1.14l.12-.08.2-.16.78-.71c.12-.12.29-.29.39-.38.3-.26-.2-1.2-.4-1.56-.29-.54-.6-1.12-.85-1.65-.11-.24-.21-.51-.3-.76s-.29-.78-.3-.8c-.33-.53-.2-1.17.07-1.9.03-.1.56.46.59.49.16.17.49.51.58.58.24.19.98.97 1.04 1.23.06.24-.23.12-.32.08-.21-.09-.47-.21-.62-.15-.03 0 .54 1.21.6 1.34.26.56.62 1.33.67 1.71.05.47.13 1.66-.12 2.17-.15.3-.26.52-.62.93l-.08.13-.22.18q-.17.16-.21.22c-.96 1.34-5.89 4.12-7.73 4.54-.57.13-.97.22-1.53.32-.25.05-.64.11-.81.14-.28.04-.58.09-.81.14l-.4.08-.32.04-.24.04-.16.04-.16.04-.32.08c-.18.04-1.56.34-1.53.22.05-.23.54-.44.97-.62.08-.04.52-.19.77-.28t.51-.15s0 0 .27-.11c.85-.33 3.13-1.24 3.13-1.24 1.98-.99 5.02-2.51 5.83-3.05" fill="#1d1d1b" fill-rule="evenodd"/></svg>