<svg viewBox="0 0 84.79 25.9" xmlns="http://www.w3.org/2000/svg"><path d="m62.29 11.87s-.05-.09-.08-.14c-.02-.04-.35-.6-.19-.61.13-.01.42.03.67.07.11.02.11 0 .14-.14.04-.19-.86-.98-1.04-1.12-.21-.15-.46-.34-.62-.54-.06-.07-.52-.64-.59-.48-.07.17-.25 1.35-.21 1.5.05.19.32.83.62 1.47l1.03 1.85c.13.25.33.58.43.74.17.26.52.82.55 1.08.05.43-1.25 1.63-1.6 1.88-.64.45-1.41.99-1.92 1.48-.58.57-1.77 1.26-2.7 1.78-.49.28-1.13.64-1.49.88-.38.25-1.04.68-1.37.8 0 0-.59.32-.81.44-.26.15-.54.28-.81.4q-.14.06-.24.12l-.14.08-.4.16c-.16.06-.29.11-.45.18l-.12.06-.16.06c-.35.13-1.06.44-1.57.66-.12.05-1.47.64-1.27.78.28.18 6.51-1.49 7.07-1.84 1-.62 2.05-1.21 3.07-1.77.1-.06.22-.14.31-.21.11-.09.23-.17.36-.25q.52-.37.57-.4c.12-.08.27-.18.36-.24.11-.06.22-.15.33-.23.07-.05.6-.44.66-.37.02.02-.02.52-.02.52l-.04.64c-.02.33 0 .65.04.96.08.49.2.82.34 1.2.17.44.72 1.09 1.09 1.32.26.16.52.32.84.43.13.04.26.09.4.12l.48.08.73-.04q.18 0 .36-.04c.23-.04.42-.07.57-.12.21-.07.57-.19.85-.28.1-.03.51-.25.77-.38.14-.07.27-.16.4-.24s.27-.18.36-.22c.79-.39 2.6-2 3.09-2.69.03-.04.33-.4.47-.57l.21-.24c.36-.5.67-.94.89-1.38.12-.24.17-.5.2-.84q.02-.28.04-.78l.02-.42c.36-.45 1.7-1.57 2.22-1.83.06-.03.19.49.22.62.04.17.14.34.22.5.15.27.46.55.81.86.27.25 1.02.38 1.41.34.56-.05 1.4-.29 1.72-.61.36-.36.73-.72.94-1.1.15-.27.25-.44.44-.14.1.16.21.27.36.39.74.6 2.25 1.17 3.07.22.13-.16.34-.81.55-1.48.15-.45-.07-1.21-.24-1.69-.05-.13-.49-1.19-.65-1.01-.12.13-.43 1.25-.4 1.46.03.15.12.27.25.43.11.13.26.35.3.54.12.66-1.07.51-1.53.38-.48-.13-.98-.43-1.24-.79-.12-.17.08-.63.19-.9.06-.15.31-.73 0-.68-.2.03-.66.95-.85 1.33-.22.44-.52 1.02-.82 1.21-.42.27-1.1.7-1.36.71-.56.03-1.12.05-1.53-.14-.4-.18-.77-.48-.97-.86-.12-.23-.16-.38-.14-.7q.03-.53 0-.68c-.05-.27-.23-.28-.47-.16-.09.04-.6.45-.86.67-.39.33-1.8 1.42-2.14 1.4-.09 0-.6-.65-.75-.84-.12-.16-.28-.3-.43-.43l-.23-.19c-.32-.3-1.01-.7-1.53-.66-.28.02-1 .21-1.12.48l-.2.17c-.32.45-.61.91-.69 1.22-.35 1.39.07 2.83 1.47 2.83.71 0 1.4-.09 2.1-.24l.32-.08c.23-.08.55-.2.63-.14.17.12.29.39.2.6-.31.73-1.45 1.83-2.1 2.43-1.4 1.29-3.02 2.77-5.38 3.04-.57.06-1.23.04-1.65-.2-.5-.27-.79-.51-1.16-.89-.24-.24-.6-.99-.6-1.46s0-1.25.18-1.55c.14-.23.41-.46.72-.71.11-.09.46-.45.66-.67.34-.36.86-.94.9-1.57.06-.84.11-1.64 0-2.17-.1-.48-.33-.93-.59-1.33m-14.3-.17c-.05-.36-.15-.79-.2-.99q-.05-.21-.08-.4l-.04-.28-.04-.28c-.03-.18-.05-.31-.08-.44 0 0-.05-.34-.08-.52l-.04-.28-.04-.44-.04-.16c-.24-.97-.4-2.27-.52-3.33-.08-.66-.16-1.33.34-.56 0 .01.48.73.61.56.23-.3-.61-2.19-.79-2.57-.08-.17-.26-.57-.28-.6l-.14-.28-.08-.16-.08-.16c-.06-.14-.45-.94-.54-.91-.45.15-.46 1.59-.37 1.87 0 0 .31 2.21.41 3.05.16 1.4.53 4.37.75 5.57 0 .12.16.88.25 1.32l.24 1.23c.04.36.11.79.13.91l.04.24.04.2c.02.15.03.2.08.52l.04.28.04.28.04.24.04.2c.06.51.15 1.31.24 2.01q.03.23.08.88s.03.4.05.53q.03.26.08 1.33l.02.2c.59.02.68-2.73.67-3.01-.03-.83-.1-1.91-.24-2.77-.04-.25-.09-.51-.12-.76-.08-.56-.08-.56-.08-.56-.04-.18-.12-.6-.12-.6l-.02-.11-.15-1.23zm31.71-11.63c-.19-.5-.83.13-.89.42-.04.19.61.56.83.68.48.28.42-.04.34-.48-.03-.16-.15-.57-.28-.62m-68.08.42c-.33-.03-1.09.29-.72.55.23.17.61.37.94.39.28.02.14-.36.08-.5-.04-.11-.09-.2-.3-.44m41.34.25c-.05-.23-.79-.12-.72.45.03.22.6.56.77.59.28.04 0-.95-.05-1.04m15.26.83c-.06-.1-.03-.91.15-1.02.49-.28 1.67.78 1.94 1.06.2.21.43.5.63.74.1.12.61.74.63.7.03-.05-.01-.78-.02-.9v-.84c0-.29.02-.64.12-.98.08-.28.51-1.11.74-1.2.32-.12.58-.22.71-.16.29.14.53.52.61.88.04.19-.12.79-.29.75-.05-.01-.31-.25-.39-.34-.16-.15-.27-.27-.49-.32-.17-.04-.4.21-.46.34s-.06 1.01-.06 1.52c0 .86-.06 1.71-.16 2.49-.01.08-.27 1.06-.42.55-.1-.35-.25-.67-.47-.96-.36-.49-.77-1.04-1.11-1.36-.12-.11-.21-.19-.37-.17-.22.03-.38-.03-.6-.14-.26-.13-.61-.32-.68-.64m-48.52 2.53c1.24-.82 2.57-1.57 3.91-2.29.16-.08.62-.35.93-.52.38-.22.79-.44 1.17-.64.35-.18.74-.39 1.05-.52.35-.15.39-.16.3.2-.05.19-.13.48-.26.52-.93.32-3.08 1.6-4.26 2.33-.12.08-1.31.75-2.04 1.16l-.26.16-.26.16-.46.3c-.32.03-.07-.79.18-.86m37.35.47c.85-.83 3.21-2.2 4.42-2.86.38-.21.79-.46 1.19-.7l.5-.32c.15-.09.34-.21.61-.36.38-.22.77-.47 1.13-.72.19-.13.32-.04.28.16-.08.37-.13.66-.34.77-.33.16-.69.42-.98.65-.25.2-.79.5-1.16.71l-1.05.64c-.18.1-.39.22-.54.33-.18.13-.4.29-.57.39-.76.43-1.49.89-2.21 1.37-.16.11-.32.22-.49.31-.14.08-.32.21-.48.32s-.41.29-.48.24c-.11-.07.01-.91.17-.94m-17.12-1.23c.01.21-.19.77-.32.78-.05 0-.34.15-.48.22q-.12.06-.24.1t-.28.1l-.4.16-.16.08-.16.08c-.2.09-.4.16-.61.24-.13.05-.89.36-1.29.52-.44.18-1.13.46-1.33.49-.38.05.3-.81.69-.95.48-.17 1-.39 1.47-.62.45-.22 2.98-1.32 3.13-1.2m-27.94 1.81c0-.27.47-1.14.67-1.24.17-.09.64.34.8.49.11.11.71.65.63.79l-.06.24-.08.16c-.05.08-.11.17-.17.24q-.11.14-.15.21c-.1.18-.2.37-.32.38-.2.03-1.32-1.01-1.31-1.26m40.41-2.53c-.33-.23-.55-.55-.7-.97-.13-.39.32-1.38.47-1.6.24-.34.8-.73 1.13-.22.11.17.21.49.21.73s-.03.62-.04.82c-.01.15-.06.81.05.84.27.06.85.63.92.89.05.16-.02.67-.24.68l-.41-.3c-.21-.13-.61-.38-.67-.4-.2-.1-1.05.95-1.22 1.15-.19.23-1.03.98-1.3 1.09-.35.14-.73.39-1.03.6-.15.11-1.12.59-1.26.54-.33-.12.29-.54.36-.58.21-.13.43-.26.62-.4.14-.1.78-.6 1.15-.88l.46-.32c.19-.14.38-.29.56-.45.24-.22 1.07-.98.93-1.23m-41.84-.88c-.33-.71.24-2.04.87-2.19.43-.1.64.32.77.6.1.23.1.6.1.82 0 .27 0 .55.08.64.04.04.18.09.3.14s.18.08.28.14c.16.1.27.21.38.36.09.12.02.68-.14.7-.06 0-.15-.04-.26-.1l-.32-.16c-.19-.08-.52-.23-.58-.16-.15.16-.32.33-.44.5-.1.14-.39.45-.57.65-.31.33-.84.89-1.14 1.05-.06.03-.23.17-.34.25s-.22.17-.77.51l-.38.24c-.24.16-1.49.85-1.67.84-.21 0 .61-.64.61-.64.25-.19.49-.39.74-.6l.65-.5c.26-.21.52-.42.79-.64.42-.35 1.28-1.07 1.43-1.23.12-.13.49-.53.44-.66-.02-.06-.24-.17-.33-.21-.19-.1-.47-.23-.46-.38m68.86.54s-.4-.34-.62-.5c-.2-.15-.46-.51-.46-.82 0-.73.48-1.42.85-1.96.09-.14.52-.07.64.01.43.3.53 1.5.61 2.35.01.18.16.34.52.71.18.19.28.95.02 1.01-.02 0-.36-.2-.52-.29-.15-.09-.4-.25-.54-.19q-.06.03-.15.17c-.09.14-.2.31-.42.52l-.16.16s-.25.24-.38.35c-.53.49-1.04.95-1.65 1.37-1.07.73-3.21 2.17-4.24 2.19-.35 0 1.55-1.17 1.65-1.23.62-.38 1.21-.8 1.79-1.22.91-.66 3-2.19 3.07-2.61m-68.16 5.51c-.23-.27.4-1.54.79-1.46l.13.09q.14.12.3.25c.07.05.13.1.21.15.31.19.69.42.8.41.02 0 .26-.51.31-.62.09-.19.25-.46.45-.54.22-.1 1.17.75 1.29.9.34.42-.34 1.53-.64 1.59-.07.01-.53-.35-.68-.47-.21-.17-.49-.39-.65-.41-.07 0-.4.59-.44.7-.11.25-.27.6-.58.4-.3-.19-1.21-.83-1.27-.98m40.04.18c-.15-.19.47-1.38.66-1.42.16-.04.57.24.79.38.17.11.71.47.83.38 0 0 .3-.57.34-.66q.07-.14.41-.54c.12-.16 1.47.99 1.51 1.12.14.52-.29 1.09-.59 1.44-.12.13-.73-.36-.81-.42-.22-.18-.64-.51-.81-.47-.02 0-.38.75-.45.92-.11.23-.28.46-.54.27 0 0-.24-.15-.37-.23s-.26-.16-.38-.25c-.19-.14-.56-.41-.59-.51m28.88-2.74c.06.12-.11.54-.17.67-.11.25-.36.82-.3.98v.4c.01.16.04.24.08.36.06.16.15.41.22.48.43.43.66-.11.83-.54.13-.32.04.8-.03.98-.14.36-.33.75-.81.7-.29-.03-.5-.52-.58-.78-.21-.63-.07-1.43.12-2 .07-.21.48-1.37.64-1.26m-14.43 3.23c-.28-.7-.14-1.51.04-2.21.05-.19.62-1.85.65-1.33l-.08.32-.06.16-.14.28c-.15.47-.19.96-.16 1.45.03.52.4 1.03.83 1.14.24.07.34-.27.38-.46.04-.18.12-.55.26-.52.2.03-.08 1.04-.12 1.17-.08.25-.27.74-.52.8-.3.07-.35.05-.6-.13-.1-.07-.19-.16-.25-.25l-.08-.14c-.03-.07-.14-.28-.14-.28m-60.59-2.59c-.02-.4-.95-1.38-1.3-1.74-.1-.1-.21-.21-.32-.29-.09-.07-.23-.07-.4.01l-.12.06c-.13 0-.98-.51-1.01-.62-.06-.24.04-.91.21-1.11.26-.3 1.42.57 1.77.83.25.19.48.42.67.66.15.19.63.8.7.8s0-.61 0-.62q-.04-.41-.04-.68c0-.39 0-.61.04-.88.06-.38.32-1.19.63-1.28.75-.24 1.61.43 1.02 1.22-.03.04-.22-.07-.26-.09-.14-.08-.26-.14-.45-.18-.24-.06-.6-.03-.62.3q-.01.21.02.56l.02.4q0 .2.04 1c.01.31-.04.72-.12 1.08-.26 1.17-.49 2.15-1.16 2.88-.29.31-1.63 1.58-2 1.44-.03-.01.59-.78.63-.83t.27-.29l.13-.08.2-.24c.08-.08.12-.12.2-.2.32-.33 1.36-1.58 1.24-2.12m30.74 2.29c.01.31.05 1.05.26 1.29.15.16.31.3.61.26.22-.03.55-.36.58-.58.01-.07-.04-.38-.08-.64-.05-.31-.03-.61.06-.92.05-.16.38.97.42 1.12.13.44.49.7 1.02.53.11-.03-.13-.65-.19-.82-.14-.38-.12-.92.05-1.26.11-.21.66 1.45.7 1.66.04.22-.05.98-.21 1.15-.38.43-1.36.4-1.55-.19l-.08.22-.09.13-.2.2c-.14.14-.25.24-.43.33-.43.2-.8-.26-.91-.52-.12-.3-.18-.91-.18-1.18 0 0 .07-1.25.22-.78m-9.28 1.97c-.3-.77.08-2.07.36-2.89.15-.43.18-.21.12.16l-.08.4q-.05.2-.08.44c-.1.68.06 1.52.5 1.85.23.18.46.1.55-.17.08-.23.18-.52.3-.52.11 0-.07.66-.1.76-.07.26-.16.51-.3.7-.56.76-1.1-.2-1.27-.74m8.95 2.69c-.06-.23.49-1.13.65-1.25.23-.16.64.1.91.28.2.14.75.5.82.47.02 0 .27-.52.35-.67.04-.09.32-.48.4-.5.32-.08 1.66 1.15 1.72 1.48.02.16-.71 1.12-.84 1.17-.08.03-.58-.37-.73-.48-.18-.14-.55-.42-.59-.45-.11-.06-.46.29-.6.43-.09.09-.17.19-.25.29-.08.12-.19.27-.28.28-.31.04-1.49-.79-1.55-1.06m34.18 2.02c.22-.28-.98-.87-1.24-.84-.55.07-1.28.18-1.12.81.11.44 2.01.11 2.36.02m-38.21.59c-.14-.99-.16-1.83-.08-2.85.03-.36.53-2.07.8-2.02.04 0-.18.95-.2 1.02-.1.42-.3 1.24-.24 1.51.25 1.15.39 1.75.64 2 .21.21.5.18.63-.1.04-.07.09-.28.14-.44.04-.12.09-.32.22-.32.09 0-.08.88-.08.88-.09.43-.16.79-.29 1.04-.11.2-.34.36-.6.39-.4.04-.83-.79-.95-1.1m24.45.4c.02-.44-1.85-1.41-2.28-1.46-.32-.04-1.38 2.12-.88 2.74.69.86 3.17-.97 3.16-1.28m-50.61 1.41c-.12-.15-.4-1.07-.62-1.76-.06-.19.4-4.42.72-4.65.31-.22.07 1.21.04 1.34-.11.67-.29 1.72-.24 2.17.08.8.2 1.57.7 1.97.27.22.61.2.78-.11.07-.12.1-.27.14-.42.04-.17.08-.3.17-.41.3-.43.23.83.23.83-.03.36-.09.72-.3.98-.27.33-1.54.83-1.62.05m47.15 1.54c-.21-.04-.43-.81-.49-1.07-.14-.55.13-1.95.28-2.41.08-.24.16-.46.26-.68s.3-.68.3-.68c.02-.09-1.14-.99-1.31-1.12-.15-.12-1.21-1.14-1.23-1.2-.09-.36-.12-.87-.04-1.24.04-.21.09-.43.48-.2q.09.06.22.1c.45.15 1.9.64 1.98.82.03.08 0 .16-.1.22l-.19.05c-.07.02-.32.08-.34.15-.05.22 1.07.81 1.31.93.11.06 1.24-1.49 1.41-1.73q.07-.11.24-.32l.24-.34c.15-.2.65-.86.7-.86.22-.01-.43 1.89-.54 2.08l-.08.14-.08.14-.25.36c-.05.07-.1.13-.15.21-.35.57-.48.78.04 1.1.71.44 1.34.95 1.55 1.89.11.5-.11 1.57-.26 1.93-.36.88-3.02 2.71-3.96 1.75m-26.49-.63c.46-1.19-3.55-3.65-4.34-4.13-.39-.24-.88-.52-1.31-.76-.24-.14-.71-.4-.71-.4-.29-.16-.81-.43-.91-.38 0 0 .25 2.75.26 2.79l.04.32.04.4.04.2q.04.2.08.44c.03.2.11.65.12.68l.04.16q.07.22.08.32c.05.28.53 1.17.81 1.7.11.2.95.54 1.43.73.42.17 1.09-.01 1.53-.14.71-.21 2.52-1.32 2.79-1.93m-5.39 3.49c-.54-.44-1.01-.84-1.19-1.12-.26-.42-.54-1.38-.79-2.25-.24-.83-.5-3.26-.68-5.02-.06-.6-.18-1.42-.28-2.17-.05-.32-.05-.37-.08-.52l-.04-.2-.04-.2-.04-.4-.04-.28-.04-.2-.06-.32c-.2-1.48-.42-3.02-.63-4.05-.1-.52-.34-1.65-.36-1.73-.06-.22-.24-.84-.24-.84-.11-.3-.22-.61-.16-.8.1-.32.28-.89.3-.92.25-.49.45.19.55.52.24.83.43 1.78.6 2.65.03.16.33 1.91.52 3.09.1.59.17 1.06.24 1.6.03.25.21 1.48.34 1.47 0 0 .12-.26.12-.26.07-.16.15-.35.24-.5.07-.13.17-.25.27-.36.1-.1.22-.22.24-.28.04-.12 2.13-1.64 2.54-1.91.24-.16.49-.32.72-.49.2-.14.44-.29.65-.43.5-.31 1.06-.66 1.51-.96 1-.66 2.06-1.24 3.13-1.8l.91-.48.38-.24c.13-.08.28-.15.42-.22.57-.26 1.64-.77 1.86-.9.33-.21 1.81-.64 2.16-.63.36.01.56.21.75.4.23.22.32.8.29 1.01-.1.74-.52 2.01-.87 2.53-.57.84-1.09 1.61-1.71 2.38l-.31.43-.09.14c-.11.15-.41.54-.41.54-.14.17-.27.34-.39.53-.16.26-.45.73-.52.74-.2.02.28-1.26.32-1.36.26-.69 1.06-1.69 1.63-2.4.41-.51 1.88-2.34 1.41-2.88-.2-.23-.8-.17-1.14-.13-2.02.26-7.44 3.6-9.67 5.08-.78.52-3.7 2.69-3.8 3.08-.05.18.8.47 1.09.56l.32.1.24.08.6.2c.95.34 1.93.71 2.78 1.18 1.32.74 2.62 1.47 3.74 2.41.46.39 1.34 1.14 1.47 1.29.48.55 1.05 1.08 1.72 1.43.98.52 2.32 1.02 3.59.66.73-.21 1.4-.55 1.91-.99.24-.21.45-.43.66-.68.09-.1.19-.25.26-.37.12-.18.25-.37.36-.5.43-.52.51-.24.58.35.02.18.29.98.42 1.1.61.61 1.3.98 2.42.84.6-.07 1.15-.35 1.53-.67.27-.22-.2-3.24-.38-4.37q-.03-.17-.08-.44c-.05-.25-.08-.43-.12-.72l-.04-.2-.04-.16-.04-.24-.04-.28-.04-.28-.08-.44c-.04-.22-.1-.56-.12-.68q-.04-.26-.08-.48l-.04-.24-.04-.16-.04-.24c-.21-1.37-.76-5.13-.77-5.26-.05-.56-.2-1.4-.36-1.97-.11-.4.26-1.43.47-1.72.03-.05 1.04 1.97 1.12 2.12.28.55.95 2.04.91 2.37-.04.26-.48-.2-.55-.27l-.16-.2c-.13-.14-.23-.25-.32-.26-.04 0 .32 2.68.34 2.86.07.54.35 2.23.53 3.25.41 2.44.92 5.51.93 7.28 0 .64-.15 1.34-.38 1.85-.57 1.23-2.69 1.7-4.05 1.06-.4-.19-.72-.48-.96-.83-.11-.16-.19-.33-.27-.53-.09-.2-.11-.26-.12-.28-.04-.12-.16-.47-.19-.47-.05 0-.26.32-.33.43-.11.16-.23.34-.34.47-.24.29-.47.52-.79.74-.54.38-1.12.77-1.86.93-1.3.29-2.81-.1-3.7-.71-.61-.42-1.16-.83-1.63-1.39-.18-.22-.94-.88-1.52-1.38-.17-.15-2.1-1.65-1.62-.83.43.73.78 2.55.4 3.41-.46 1.05-2.19 2.12-3.35 2.51-.83.27-1.77.16-2.48-.18m56.74-2.33c.18-.15.61-.12.81-.04.46.18.79.31.89.3.34-.02.59-.26.77-.45.1-.11.16-.2.23-.33.08-.16.24-.45.36-.44l-.02.36c0 .12.05.24.27.3l.16.04c.14.04.44.09.54-.05.05-.07.07-.15.09-.25q.07-.4.08-.44c.07-.21.14-.41.27-.55.28-.29.05.9.01 1.04-.09.31-.26.85-.49 1.01-.46.32-.59.38-1.18.09-.15-.08-.38.1-.58.26-.19.15-.41.24-.67.34-.31.12-.7-.11-.91-.22-.25-.14-.51-.21-.83-.06-.67.33-1.43.87-2.16 1.39-.45.32-2.09 1.38-2.68 1.16-.07-.02.61-.44.61-.44.21-.13.42-.26.62-.4.43-.29.85-.58 1.26-.89.83-.61 2.19-1.6 2.55-1.72m-40.68 2.97c0-.47.29-2.73.75-2.79.15-.02-.05.58-.1.74-.14.41-.24.77-.2 1.28.01.2.23.64.38.68.27.07.33-.02.42-.2.02-.05.17-.34.22-.24.16.29-.37 1.14-.45 1.24-.39.46-.86-.4-1.02-.72m-20.93-3.77c.07.09-.11.99-.16 1.29-.1.5-.1.88-.08 1.36.02.41.34.83.58 1.05.15.14.31.22.47.02.06-.08.09-.16.13-.27.06-.2.12-.37.2-.46.27-.26-.07.93-.08.98-.12.35-.27.63-.55.82-.55.39-1.09-1.12-1.15-1.42-.09-.5.13-3.1.65-3.37m12.95 4.41s-.03-.27-.04-.38.02-.51.04-.66c.02-.14.1-.5.16-.72.03-.13.17-.49.26-.72.04-.11.28-.71.38-.61.04.03-.15.99-.19 1.18-.03.12-.33 1.32-.12 1.32l.38.56c.03.2.5-.18.52-.22q.03-.06.12-.34c.04-.13.07-.23.19-.22.26.04-.19 1.47-.49 1.6-.71.31-1.06-.21-1.22-.78m-19.61.83c.8-.26 1.75-.69 2.45-1.01.11-.05.37-.15.56-.22.2-.07.39-.16.57-.24.09-.04 1.36-.58 1.23-.2-.16.46-.63.65-1.19.89-.23.09-.68.28-.68.28l-.89.36c-.35.14-1 .38-1.49.56-.15.05-.71.23-.77.2-.17-.08.1-.57.22-.62m-.42-3.44c.6-.44 1.32-.96 1.76-1.34l.22-.18s.04-.03.24-.2l.25-.18s.04-.04.22-.2c.15-.13.32-.28.44-.4l.2-.2.18-.22c.18-.09.4-.67.37-.94-.05-.54-.51-1.37-.79-1.85-.18-.32-1.07-2.26-.31-2.4.09-.02.45.56.51.67.15.25.33.53.56.58.62.14 2.24-.18 2.54-.74.14-.26-.4-1.1-.56-1.34-.21-.31-.24-1.75.18-1.8.19-.02.92 1.57 1.01 1.86.33 1.1-.12 2.07-.52 2.78-.11.2-.69.42-.99.53-.2.07-.51.18-.61.2-.42.1-.54.13-.54.56 0 1.39-.02 2.47-.84 3.5-.29.36-1.08 1.06-1.71 1.6-.31.27-.78.68-.98.82l-.24.16-.22.16-.34.24q-.25.11-.3.17c-.24.3-2.8 1.54-3.33 1.65-.89.2-5.81.98-5.81.98-.74-.23 1.92-1.05 1.98-1.06.96-.27 1.82-.57 2.64-.98.5-.25 1.75-.79 2.6-1.16.76-.33 1.55-.8 2.18-1.28" fill="#1d1d1b" fill-rule="evenodd"/></svg>