<svg viewBox="0 0 81.18 26.02" xmlns="http://www.w3.org/2000/svg"><path d="m49.92 2.52c.11.27.3.45.54.6.56.36.36-.74.17-1.02-.26-.37-.67.29-.71.41m27.51.07c-.18-.48-.87.14-.93.35-.07.21.67.69.85.78.74.37.3-.98.09-1.14m-59.67.78c-.19-.69.47-3.16.88-3.04.02 0-.1.27-.12.31q-.05.11-.12.32c-.06.19-.12.4-.16.6-.12.59-.04 1.75.58 1.71.13 0 .23-.18.32-.34.05-.08.16-.28.21-.26.13.06-.11.67-.13.74q-.05.13-.14.32l-.15.25-.06.12c-.23.78-1.08-.34-1.12-.74m7.7-.92c.07-.46.16-1.07.27-1.16.1-.07.62.24.8.35.13.08.34.21.38.24l.13.09c.18.15.24.2.24.2.14.08.59.64.78.91q.14.19.15.21t.17.25s.09.15.15.27c.08.14.2.37.28.38.09 0 .13-.53.14-.64l.04-.24v-.26q0-.25.04-.52c.07-.49.18-.92.34-1.32.15-.37.43-.82.77-1.02.36-.22.79.3.94.52.22.3.43.76-.01.99-.14.07-.53-.22-.68-.33-.17-.12-.38-.28-.53-.25-.31.05-.36.61-.38.94v.22l-.04.78c-.03.33-.07.69-.12 1-.06.35-.42 1.82-.68 1.7l-1.22-2.18s-.7-.59-.83-.58c-.36.02-1.1.02-1.15-.54m-18.84.32s-.33-.31-.52-.45c-.2-.16-.35-.28-.42-.54-.04-.12.22-.76.31-.76.77.05 1.42.51 1.91 1.01.05.05.2.26.27.35.11.16.22.31.34.45.08.09.23.35.31.49s.24.42.34.41c.05 0 .08-.61.09-.7v-.66c.04-.52.11-1.12.3-1.52.12-.25.38-.8.6-.84.55-.1.9.23 1.09.56.15.26.13.83-.6.66-.21-.13-.45-.29-.68-.26-.19.02-.25 1.02-.26 1.3 0 .17-.04.73-.04.8 0 .2 0 .45-.04.76-.05.41-.34 1.53-.58 1.63l-.06-.18-.06-.16q-.07-.18-.16-.36c-.08-.16-.27-.46-.4-.68-.24-.39-.46-.73-.76-1.05-.44-.47-.6-.15-.86.35-.1.2-.23.38-.36.56q-.07.09-.19.23c-.08.08-.26.29-.26.29-.12.23-.95.71-1.38.95-.14.08-.27.16-.4.24-.12.08-.32.19-.38.22-.13.05-.95.41-.95.23 0-.15 1.81-1.39 2.1-1.58.38-.25 1.76-1.33 1.74-1.77m48 3.4c.58-.61 8.28-4.7 8.28-4.7.23.03-.11.8-.13.84 0 0-.58.37-.78.49l-.26.17c-.16.11-.33.21-.51.29 0 0-.49.27-.69.38l-.14.08-.38.22-.14.06-.34.22c-.42.21-.79.43-1.17.66-.73.45-1.48.88-2.22 1.28-.41.23-1.06.58-1.25.72-.08.06-.39.28-.46.19-.12-.15.02-.85.19-.92m13.46-1.94c.19-.13.41.2.53.37.1.15.48.72.56.7l-.02-.34.04-.18c.02-.34.04-.72.04-1 0-.38.04-.94.18-1.29.12-.31.55-1.04.83-1.16.21-.09.46-.2.67-.08.32.18.52.58.59.98.03.21-.18.62-.35.64-.04 0-.68-.59-.69-.66-.02-.24-.63.27-.64.3-.02.05-.14 1.62-.18 2.35-.03.46-.11 1.28-.24 1.85-.02.08-.11.4-.17.41-.11.03-.29-.37-.38-.58-.09-.22-.39-.67-.61-.98-.19-.28-.38-.57-.61-.81-.04-.04-.23-.23-.29-.25l-.34-.02c-.11-.02-.19-.06-.32-.12-.64-.3-1.17-.99-.6-1.75.2-.27 1.29.53 1.4.63.08.08 1.18 1.12.62.99m-54.88 1.41.04-.28q.07-.58.08-.64s.08-.3.12-.44c.06-.21.28-.86.38-.94.15-.11-.1.74-.1.74-.1.34-.24 1.45-.12 1.68.16.32.42.79.45.82.15.13.47.21.56-.01.06-.14.22-.54.26-.51.3.23-.09 1.42-.34 1.52-.85.33-1.59-1.27-1.33-1.93m36.87-1.46c-.04-.08-.11-.15-.18-.22l-.16-.2c-.16-.2-.3-.39-.34-.69-.11-.82.55-1.75 1.21-1.99.23-.08.43.22.5.36.1.21.17.53.14.78-.04.39-.14 1.41 0 1.57l.21.17.37.33c.06.09.11.16.18.23.12.12-.02.58-.08.78-.03.1-.58-.3-.65-.36-.21-.16-.44-.33-.67-.37-.08-.02-.47.46-.6.61-.16.19-.36.37-.54.54-.2.18-.4.35-.61.52-.02.02-.22.16-.32.24-.08.06-.31.23-.31.23-.28.25-.91.53-1.27.66-.27.1-.54.2-.77.34-.08.05-.5.25-.56.16-.11-.14 1.04-.91 1.13-.96.07-.04.4-.28.58-.42.14-.1.38-.26.57-.39.53-.35 2.18-1.48 2.17-1.94m-29.13 3.05c-.14-.16-1.99-.22-2.07-.13l-.2.04q-.18.03-.32.08c-.21.07-.37.13-.54.22-.15.08-.21.13-.3.26-.12.17-.24.34-.42.32-.18-.03.4-1.16.42-1.18.18-.31.46-.72.78-.9.87-.49 3.09-.58 3.97-.1.65.36-1.04 2.29-1.26 2.48-.25.2-2.96 1.3-2.13.58.34-.29.71-.57 1.08-.82.16-.11 1.07-.71 1-.86m56.1-2.44s-.33-.26-.5-.4c-.18-.14-.33-.32-.44-.52-.33-.6.49-2.24.91-2.31.26-.04.49-.08.66.09.35.33.4 1.35.45 2.2q.02.41.21.59c.08.07.27.25.29.29.12.19.29.89-.08.96-.02 0-.41-.26-.47-.31-.16-.12-.35-.26-.53-.19-.02 0-.24.28-.33.39-.07.09-.37.37-.58.57l-.23.19c-.16.14-.48.4-.48.4q-.06.07-.23.17c-.1.06-.15.1-.34.25l-.08.12-.27.15c-.86.7-3.38 2.12-4.64 2.2-.22.01 1.47-1.02 1.55-1.07.13-.08.27-.16.4-.24.18-.1.45-.26.56-.33.14-.1.68-.44 1-.63.58-.36 1.21-.74 1.7-1.14.25-.2.66-.53.76-.62.2-.18.77-.71.72-.81m-28.3 4.48c.04-.34.49-1.15.75-1.27.1-.05.51.23.71.38.27.19.61.42.87.4.01 0 .26-.46.31-.55.11-.22.25-.43.46-.54.19-.11 1.2.76 1.34.93.38.47-.2 1.57-.64 1.66-.08.02-.53-.38-.68-.51-.22-.19-.57-.5-.79-.49-.02 0-.3.56-.35.66-.08.16-.26.52-.36.54-.36.09-1.66-.97-1.64-1.2m-24.4.29c.07-.04 1.05-.46 1.68-.72.11-.05.24-.09.36-.14 0 0 .41-.16.61-.24.23-.07.25-.07.32-.1l.18-.08q.1-.04.34-.14c.8-.33 2.48-.96 3.73-1.42.23-.09.67-.25.7-.26.28-.09.71-.22.87-.3.55-.28 1.21-.53 1.83-.7.58-.16 1.12-.39 1.65-.62.25-.11.77-.34.75.08-.02.3-.22.79-.44.88-.5.22-1 .41-1.51.6-.24.09-.49.18-.73.26-.29.1-.58.21-.85.32-.48.2-1.03.41-1.57.62-.3.12-.82.32-.89.34-.31.11-.63.23-.93.34-.21.08-.89.34-.89.34q-.16.05-.28.1l-.2.08-.2.08-.24.08-.36.18-.28.12c-.29.11-.78.3-.84.32-.56.19-1.17.4-1.9.68-.12.04-.35.14-.52.22-.3.13-.83.37-.98.33-.2-.05.37-1.21.6-1.26m39.69-2.68c-.32.61-.72 1.94-.4 2.76.12.31.47.85.83.57.11-.09.16-.29.21-.49.02-.09.15-.54.26-.36.23.36-.29 1.51-.5 1.75-.5.61-1.1-.25-1.26-.71-.22-.66-.1-1.5.12-2.17.08-.23.53-1.56.72-1.36m-56.05.05c.3-.09.02.47-.04.58-.08.16-.13.31-.18.52-.11.47-.26 1.17-.24 1.36.04.43.3 1.06.62 1.18.25.1.39-.02.46-.26.05-.16.19-.58.29-.51.38.24-.41 1.73-.76 1.82-.64.16-1.03-1.02-1.07-1.5-.04-.58.47-3.07.91-3.19m68.8 3.23c.09-.33.85-2.97.98-2.27 0 .06-.19.49-.25.63-.15.32-.27.59-.32 1-.06.52.13.97.33 1.3.09.15.42.06.51-.04l.15-.23c.07-.12.23-.4.23-.4.36.04-.42 1.55-.76 1.7-.76.34-.87-1.4-.87-1.69m-41.43 1.44c-.15-.54-.14-1.2 0-1.77.14-.55.5-1.71.81-2.05.13-.14-.16 1-.22 1.17-.18.48-.18.89-.18 1.52 0 .26.23.67.4.76.19.1.24.09.34-.12.08-.16.26-.51.34-.47.23.12-.39 1.39-.47 1.46-.45.49-.85-.09-1.02-.51m-23.64-.21c.12-.18.94.28 1.06.37.35.28.64.57.94.89.17.18.32.35.45.55.1.15.36.53.44.52.06 0 .07-.8.07-.88 0-.28 0-.76.08-1.09.1-.42.36-1.2.69-1.36.55-.27 1.07.28 1.21.8.06.22-.13.45-.26.53-.05.03-.2-.08-.26-.13-.04-.03-.17-.12-.22-.14-.12-.06-.74-.24-.72-.01l-.07.15-.04.2v.36c0 .42-.01.98-.04 1.33-.03.38-.12.83-.2 1.24-.03.16-.2.86-.32.78 0 0-.12-.35-.13-.38l-.06-.2c-.1-.26-.26-.49-.42-.7-.27-.34-.62-.77-.83-.96-.13-.12-.32-.3-.49-.29-.37.02-.42.02-.71-.18-.28-.2-.68-1.3-.17-1.42m23.42 4.91c.05-.23-.72-.38-.93-.42-.2-.04-2.11-.35-1.94.06.08.18 1.15 1.13 1.31 1.14.06 0 .51-.21.69-.3.12-.06.33-.17.38-.2.14-.1.39-.26.48-.28m31.84.63c.17-.53-1.54-.98-2.05-.67-.4.24-.56.59.02.76.49.15 1.62.21 2.03-.09m-60.5.82c-.3-.79.61-3.45.99-3.39.1.02-.28.96-.3 1.02-.11.23-.21.76-.28 1.14s.24 1.02.48 1.14c.14.07.31.06.44-.07.02-.02.11-.23.11-.23.06-.14.09-.22.2-.22.09 0-.04.54-.06.6-.04.19-.09.35-.18.5-.13.22-.4.47-.73.44-.13-.01-.42-.52-.67-.94m44.42-1.86c-.24.07-1.02 1.55-1.13 1.9-.11.33.1.78.3.88.27.15.58.19.93.1.41-.11 2.2-1.05 2.16-1.34-.08-.51-1.77-1.47-2.25-1.54m-24.13 1.62c-.34-.97-2.5-2.56-3.89-1.87-.71.36-1.7.85-1.93.99-.51.31-2.55 2.53-2.52 3.05 0 .13 1.13.17 1.18.17.49-.01 1.37-.03 1.47-.04.92-.09 1.86-.21 2.68-.44.74-.21 3.09-1.14 3-1.87m22.68 2.62-.21-.46c-.1-.31-.12-.64-.12-.92 0-.69.16-1.5.38-2.03.1-.24.28-.63.32-.72.15-.28.28-.52.24-.7 0-.02-1.02-.88-1.22-1.06-.11-.09-1.12-1.15-1.14-1.19-.11-.29-.05-1.25.09-1.63.01-.04 1.04.41 1.26.51q.15.06.24.1l.36.14c.22.1.65.3.69.38.06.12 0 .2-.12.24-.2.07-.5.17-.5.24 0 .15 1.13.88 1.33.93.16.04 2.27-2.74 2.4-2.93.41-.61.33.06.22.38-.15.46-.45 1.28-.48 1.31-.27.34-1.15 1.52-1.12 1.78 0 .04.26.2.32.24.17.11.32.22.47.34.26.21.48.4.66.69.18.28.53.9.42 1.29-.05.17-.09.47-.12.66-.05.36-.08.59-.14.72-.13.31-.27.53-.52.73-.22.18-.43.35-.67.51-.12.08-.31.2-.5.32l-.14.08c-.13.07-.24.13-.28.16-.72.57-1.55.22-2.13-.11m-6.31-18.23c.07-.2.14-.43.2-.64q.07-.23.1-.3l.08-.14s.12-.19.12-.2c.08-.25.26.28.26.28.05.21.11.41.18.58.18.4.46 1.03.61 1.28 0 .02.27.68.41 1.02.03.1.53 1.37.18 1.31-.15-.03-.31-.23-.43-.38-.09-.11-.28-.34-.37-.3-.1.04.08 1.89.12 2.26l.1.68.02.32.04.2.04.28.04.4.04.28c.15 1.28.53 4.54.53 4.54.19 2.04.62 7.33-.4 8.07-.16.12-.16-2.44-.16-2.49 0-.35-.12-1.79-.2-2.69-.15-1.74-.32-3.69-.52-4.99-.28-1.9-.99-9.31-.97-9.38m-2.5 21.55c-.17-1.06.46-2.42.87-3.13.43-.74.37.05.12.48-.2.34-.32.65-.46 1.08-.17.51.08 1.46.46 1.57.18.06.32-.26.38-.41.07-.17.17-.39.36-.33.24.07-.31 1.03-.31 1.03-.18.32-.35.6-.75.65-.36.04-.62-.63-.67-.94m-10.31.72c-.22-.64.18-3.42.85-3.69.27-.11-.04.72-.12.9-.16.37-.34.92-.3 1.28.05.49.08.81.36 1.12.13.14.37-.02.46-.1.06-.05.13-.18.17-.25.06-.12.1-.2.19-.2.17.01.02.49-.01.58-.08.22-.22.56-.37.71-.39.39-1.16.28-1.22-.35m44.13-2.35c.37-.02.69-.04.88.07.23.14.63.37.9.25.32-.14.53-.24.73-.49.08-.1.15-.23.24-.37.08-.13.15-.26.27-.3l.03.26v.16q.02.11.17.21c.21.13.45.24.69.11.06-.03.15-.34.22-.6s.17-.55.36-.68c.33-.24-.03.96-.04 1-.03.08-.38.73-.56 1.06-.04.07-.47.25-.55.25s-.32-.05-.4-.08l-.39-.2s-.35.23-.52.35-.52.28-.73.25c-.22-.03-.5-.08-.61-.14-.26-.16-.54-.33-.87-.22-.49.16-.85.33-1.23.58l-.24.16q-.13.08-.24.16c-.19.14-.44.32-.58.4-.57.33-2.17 1.25-2.7 1.08-.13-.04 1-.68 1.07-.72.26-.14.93-.59 1.38-.89.89-.59 2.43-1.57 2.71-1.66m-65.35 2.6c.67-.32 1.74-.77 2.63-1.15.45-.19.92-.39 1.31-.6.21-.11 1.05-.48 1.21-.4.09.05-.19.67-.23.7-.39.26-2.1.96-3.04 1.35-.37.15-1.49.6-1.49.6-.11.04-.27.11-.36.16 0 0-.3.17-.32.12-.1-.23.21-.7.3-.78m-7.7.94c-.31-.08-.84-.66-.97-.96-.42-1.01-.65-2.52-.24-3.73.24-.72.49-1.46.75-2.01.16-.34.36-.76.5-.94.18-.23.43-.59.49-.87.01-.04-.1-.27-.14-.36-.08-.17-.13-.29-.18-.48-.04-.14-.09-.29-.12-.44l-.04-.16v-.22l-.04-.28c-.13-.65.27-2.16.53-3.03l.04-.16.04-.16.04-.16q.06-.19.08-.28c.02-.09.04-.16.08-.28.06-.17.11-.35.16-.52q.08-.26.1-.32.1-.23.11-.27c.06-.23.18.18.15.31-.03.16-.12.6-.12.6l-.06.2q-.09.24-.1.28c-.07.28-.15.6-.22.78-.35.9-.41 2.21-.12 3.11.13.41.33.71.69.9.53.29.83-.61.99-1.1.21-.65.21.55.16.8-.08.42-.17.74-.3 1.06-.07.16-.27.41-.42.5-.09.05-.26.14-.36.14-.15 0-.51 0-.83.44-.07.1-.27.43-.4.64-.27.44-.5.95-.66 1.51-.31 1.08-.7 2.42-.3 3.47.09.23.58.62.85.68.53.12 1.22-.03 1.69-.18.81-.26 1.81-1.17 2.49-1.79.25-.23.95-.89.95-.89.35-.35.72-.72 1.11-1.03 1.46-1.16 3.89-3.09 5.88-3.02.59.02 1.11.09 1.55.34.25.14.49.36.65.6.19.27.41.49.65.72.55.55 1.07 1.03 1.61.23.77-1.16 1.58-2.19 2.47-3.22.06-.08.56-.48.83-.7.15-.12.28-.22.65-.45.12-.05.19-.08.24-.12 0 0 .62-.23.77-.28.12-.04.16-.05.32-.08.23-.03.73-.12.74-.12.21-.06 1.56.37 2.12.54.36.11 1.11.91 1.29 1.24.2.37.28.96.14 1.49-.03.1-.07.19-.08.28-.04.22-.08.46-.12.56l-.06.16-.08.16-.08.2c-.05.12-.12.3-.16.38q-.11.22-.12.3c0 .06 1.03-.14 1.21-.18.39-.08.77-.2 1.13-.32.63-.21 1.77-.59 1.98-.68.56-.24.5-.29.09-.63-.25-.21-.55-.46-.77-.6-.19-.13-.73-.43-.98-.45-.27-.03-.54.04-.75.14-.18.09-.52.26-.6.15-.35-.46.37-1.65.8-1.83.8-.34 1.61-.6 2.64-.74 1.08-.15 1.84-.15 2.79.04.81.16 3.09.7 3.16 1.3.04.33-.46 1.17-.64 1.46l-.19.07-.16.06q-.08.03-.3.14l-.14.06-.14.06c-.1.04-.26.11-.34.16-.25.14-1.09.64-1.09.64-.3.42 1.36 1.18 1.78 1.22.51.06 1.25.06 1.82-.16 1.61-.64 1.88-.78 1.63-2.95l-.08-.52-.04-.24-.04-.24c-.04-.39-.09-1.1-.12-1.53-.06-.83-.14-1.91-.29-2.73-.26-1.49-1.01-9.31-.92-9.51.13-.33.44-1.1.54-1.14.08-.04.92 2.1.97 2.23.07.19.15.37.22.56l.2.48s.58 1.63.1 1.33c-.09-.06-.22-.24-.37-.43-.1-.13-.25-.34-.35-.35-.1 0 .16 2.51.17 2.67.08.76.2 1.9.32 2.73.36 2.4.6 4.7.6 6.7 0 1.59-.44 3.14-1.33 3.93-.72.64-2.32 1.18-3.37.94-.77-.17-1.45-.49-2.11-1.17-.1-.11-.2-.22-.37-.38l-.16-.18c-.11-.12-.23-.24-.37-.34-.18-.13-1.02.28-1.22.37-.3.15-.64.27-.99.38-.73.24-1.47.49-2.26.68-.67.17-2.66.64-2.66.64-.27.05-.56.11-.81.16-.26.06-.45.08-.77.12l-.49.08q-.3.05-.52.08l-.36.04-.28.04c-.09.01-.66.07-.69.08-.39.11-2.41 0-3.36-.08l-.35-.08s0 0-.36-.08c-.27-.06-.84-.19-.88-.17-.03.01-.26.38-.31.47-.11.21-.25.46-.38.46-.27 0-.08-.48-.02-.62.11-.28.22-.54 0-.88l-.13-.09c-.05-.04-.24-.22-.35-.33-.21-.2-.38-.41-.57-.64-.47-.58-1.3-.93-2.32-.89-1.14.05-3.21 1.29-3.89 1.88-.41.35-.96.83-1.31 1.08-.06.04-.51.45-.73.65q-.06.08-.29.29l-.13.08-.17.21c-.27.21-.85.78-1.25 1.18-.41.41-.9.75-1.39 1.08-.54.36-2.07.58-2.49.03m18.8-1.25c.02-.29.4-1.2.64-1.28.18-.06.48-.15.58-.07.23.19.24.25.27.64.06.64-.98 2.48-1.38 2.31-.04-.02.34-.62.35-.65q.08-.13.16-.24c.08-.1.16-.23.22-.34.21-.38.19-.83-.38-.71-.03 0-.16.14-.18.17-.08.09-.22.24-.28.18m48.54-3.77c-.43.9-1.42 1.99-2.16 2.58-.13.1-.28.22-.33.28-.08.09-.17.17-.26.25-.21.18-.42.36-.64.52s-.42.31-.62.48c-.02.02-.22.17-.32.24q-.14.1-.23.15c-.06.04-.18.1-.22.14-.69.68-3.28 1.45-4.32 1.12-.68-.22-1.31-.41-1.62-.71-.38-.37-.79-.79-.98-1.35-.14-.42-.32-1.02-.32-1.51l.04-.22.04-.34v-.26c.01-.17.06-.97-.02-.94-.1.03-.4.23-.62.38l-.26.16-.24.16-.38.25s-.25.16-.37.23c-.21.13-.62.38-.67.4-.92.5-2.01 1.1-2.82 1.51-.93.46-2.19.87-3.43 1-.44.05-1.37.23-2.02.36-.1.02-.16.04-.28.08s-.31.08-.48.12c-.29.06-1.11.24-1.22.15-.26-.19 1.17-.7 1.22-.72.18-.07 1.06-.39 1.59-.58s1.32-.48 1.63-.64c.47-.23 1.48-.72 1.61-.76.04-.02.42-.22.61-.32.28-.16.65-.36.89-.48l.14-.08.16-.08.28-.16.22-.14c.12-.06.27-.14.42-.22l.28-.16.16-.08c.49-.23.97-.52 1.49-.84.12-.08.26-.16.38-.24.13-.08.37-.24.37-.24.13-.08.26-.16.38-.25.1-.08.21-.14.32-.2.57-.3 3.35-2.46 3.23-2.96-.15-.63-.51-1.21-.83-1.73-.11-.17-.61-1.19-.91-1.8l-.08-.24-.12-.36c-.1-.29-.22-.55-.34-.8-.21-.42.12-1.83.32-1.81l.13.1.16.26c.07.08.17.18.26.27l.4.42.13.09s.18.17.2.2c.1.1.21.22.37.37q.07.1.17.19c.11.1.24.33.14.48h-.15s-.2-.07-.2-.07c-.14-.03-.39-.08-.44.04-.06.15.59 1.3.73 1.5.29.43.54.98.71 1.53.07.23-.03 1.64-.08 2.37-.04.63-.71 1.26-1.12 1.64l-.2.2-.24.2-.13.08c-.26.23-.67.59-.71.7-.2.48-.27.92-.26 1.5.02.91.52 1.64 1.02 2.13.28.28 1.38.47 2.07.59 1.65.29 4.91-2.02 5.74-2.86.32-.32.65-.61.98-.91.31-.27.61-.62.87-.94.21-.26.74-1.29-.08-1.12-.89.19-1.75.37-2.76.37-2.55 0-1.53-3.49-.32-4.36.78-.56 1.65-.24 2.34.24.29.2.56.46.77.74.11.15.68.96.77.92.64-.26 1.17-.53 1.68-.91.56-.41 1.43-1.06 1.66-1.09.2-.03.22.42.22.56 0 .53 0 1 .06 1.1.19.33.57.61.95.88.36.26 1.1.23 1.55.18.41-.04 1.24-.48 1.42-.73.37-.53.8-1.22 1.2-1.88.09-.14.65-.9.63-.3 0 .2-.1.38-.18.52-.11.21-.24.44-.26.64-.11.93 2.08 1.27 2.8 1 .12-.04-.2-.7-.2-.7-.14-.22-.33-.53-.3-.66.02-.14.34-1.37.42-1.3.75.51.99 2 .75 3.07-.02.08-.42.76-.72 1.26-.12.2-.96.26-1.36.25-.52-.01-.94-.31-1.27-.54-.15-.11-.27-.22-.39-.35-.13-.14-.42-.46-.47-.44-.04.01-.15.23-.21.33-.06.12-.16.27-.25.37-.19.22-.41.47-.68.61-.43.22-.94.49-1.49.54-.56.05-1.06-.02-1.41-.22-.36-.2-.68-.4-.89-.74-.12-.19-.23-.4-.3-.62-.02-.07-.07-.28-.08-.36-.01-.09-.07-.44-.11-.46-.12-.05-.81.51-.99.66q-.07.06-.24.16l-.2.16c-.07.05-.15.12-.31.11-.03.11-.08.18-.24.28-.22.14-.33.21-.36.52-.07.58-.18 1.6-.34 1.89" fill="#1d1d1b" fill-rule="evenodd"/></svg>