<svg viewBox="0 0 79.84 25.97" xmlns="http://www.w3.org/2000/svg"><path d="m49.56 1.6c-.31-.21-.79 0-.78.39 0 .26.52.66.74.7.28.04.15-.92.03-1.09m25.83 1.24c-.3.2.91.92 1.1.94.27.03-.04-1.09-.18-1.25-.27-.29-.86-.05-.92.31m-70.73.76c-.14-.62.33-3.3.96-3.26.06 0-.28.82-.32.9-.21.43-.34 1.17-.2 1.65.06.22.28.76.49.8.17.04.31-.02.4-.16.04-.07.3-.49.3-.48.28.48-.52 1.63-.93 1.62-.16 0-.39-.33-.51-.5l-.11-.31-.09-.25zm24.61.72-.12-.24s-.05-.19-.08-.28c-.08-.28-.08-.65-.08-.96 0-.54.65-2.19.89-2.42.12-.12-.04.46-.06.5-.06.13-.16.32-.18.4-.12.46-.2.92-.2 1.36s.28.84.52 1.06c.21.19.42-.11.47-.21.05-.09.25-.51.32-.36.12.25-.3 1.2-.43 1.35-.34.4-.69.11-1.04-.19m-18.67-3.06c.19-.31 1.89 1.17 1.96 1.26q.14.14.42.49l.09.13c.11.14.62.84.65.82.03-.01.05-1.31.05-1.55 0-.33.08-.84.2-1.2.09-.26.47-1.2.71-1.23.3-.03.47.04.7.21.4.3.51.98.17 1.35-.04.05-.4-.24-.48-.31-.17-.14-.33-.25-.57-.28-.29-.04-.29 2.4-.29 2.58 0 .37-.1 2.54-.56 2.46l-.05-.21-.04-.16s-.11-.25-.18-.38c-.11-.22-.26-.51-.36-.68-.26-.42-.56-.85-.9-1.2-.16-.17-.32-.2-.63-.25-.27-.04-.58-.21-.79-.34-.39-.24-.66-1.5-.1-1.53m42.81 4.46c2.05-1.19 8.13-4.43 8.26-4.46.73-.17-.54 1.04-.59 1.06-.36.22-1.07.65-1.19.7-.91.42-1.84.95-2.68 1.46-.13.08-.32.18-.46.26l-.14.06-.12.08-.14.08q-.23.11-.32.16c-.27.15-.28.16-.36.22l-.16.06c-.23.13-.49.27-.73.4-.37.21-.99.56-1.15.68-.1.08-.47.33-.45.03.01-.13.09-.72.24-.8m11.3-2.5c.05-.25.15-.78.28-.82.28-.09.83.27 1.1.45.36.24.73.65.98 1.01l.32.44.08.14c.05.08.43.7.5.6l.04-.4v-.35c.02-.33.06-.76.1-.94l.02-.44c.02-.2.07-.33.12-.48.2-.57.56-1.01 1.03-1.33.51-.34 1.07.68 1.03 1.08-.02.18-.17.58-.35.48-.03-.02-.2-.21-.25-.27-.12-.14-.24-.28-.37-.38-.23-.17-.53.05-.62.18-.19.27-.18.82-.17 1.16 0 .63-.05 1.39-.17 2.07-.08.44-.25 1.38-.37 1.46-.03.02-.23.08-.25-.01-.08-.34-.19-.71-.2-.74-.31-.61-.73-1.24-1.18-1.74-.09-.1-.23-.18-.35-.19-.37-.03-.5-.1-.75-.26-.32-.22-.45-.34-.57-.74m-15.77.38s-.21-.28-.36-.47c-.14-.18-.26-.45-.29-.7-.08-.59.64-1.78 1.15-1.83.45-.04.65.31.66.72.01.32 0 .55-.04.94-.04.33-.09.78-.01.87l.21.17q.14.1.24.19c.13.12.39.37.41.58.02.2-.07.55-.17.7-.04.06-.3-.17-.35-.21-.1-.09-.22-.19-.33-.26-.2-.13-.58-.39-.73-.28-.17.12-.39.39-.52.56-.1.12-.23.24-.4.39l-.17.17c-.74.74-2.22 1.61-3.34 1.88-.21.05.02-.41.1-.46l.28-.16c.15-.08.32-.17.65-.4.1-.07.34-.24.34-.24.21-.14.41-.27.62-.4.56-.34 1.86-1.24 2.04-1.77m-45.75 3.72c.01-.26.52-1.2.73-1.26.23-.07.73.29.94.45.22.16.66.49.81.43.02 0 .27-.43.33-.53.11-.21.25-.43.46-.54.3-.17 1.6 1.13 1.65 1.46.02.16-.68 1.15-.79 1.16-.15.02-.64-.38-.84-.55-.21-.18-.64-.53-.81-.47-.04.01-.42.68-.47.79-.19.41-.35.41-.7.15-.46-.34-1.05-.77-1.32-1.1m28.18.9c-.19-.51-.85.04-.97.26-.13.24.49.59.69.7.72.41.54-.69.28-.96m44.56-3.42c0-.08-.39-.4-.5-.48-.2-.15-.43-.37-.48-.67-.14-.9.96-3.06 1.79-1.77.13.21.21.55.22.84v1.2c0 .15 0 .27.11.39.12.13 1.03 1.14.33 1.37 0 0-.3-.21-.42-.29-.19-.13-.37-.26-.53-.29 0 0-.54.54-.74.73-.08.08-.56.47-.8.65-.25.2-.5.39-.76.57-.18.13-.8.57-.8.57 0 .02-1.89 1.07-2.15 1.19-.01 0-.45.15-.65.22l-.16.04-.24.08c-.19.06-1.12.28-1.1.23.03-.1.67-.5.82-.58.33-.17.98-.52 1.05-.56.61-.35 1.22-.7 1.79-1.08 1.16-.77 2.76-1.83 3.19-2.38m-28.41 3.95c-.05-.26.53-1.22.71-1.3.15-.07.52.19.74.35.25.18.65.48.89.44 0 0 .28-.44.31-.49.1-.17.31-.53.42-.56.46-.13 1.25.73 1.51 1.1.28.39-.57 1.47-.81 1.48-.07 0-.51-.4-.65-.53-.16-.15-.58-.52-.74-.5-.05 0-.36.56-.42.68-.11.21-.23.45-.4.54-.15.08-.77-.44-.87-.53-.09-.08-.27-.23-.4-.32-.07-.06-.31-.24-.28-.35m-36.18 1.03c1.74-1.13 12.77-6.59 13.4-6.48.14.02-.2 1.01-.33 1.09 0 0-.38.17-.51.23-.14.06-.3.13-.44.2l-.28.14-.16.06-.14.08-.3.14c-.59.27-1.63.75-1.84.86-.33.18-2.17 1.04-3.47 1.65-1.03.48-2.43 1.18-3.61 1.77-.51.25-1.07.58-1.59.88-.76.44-1.53.7-.72-.62m50.74.7c-.16-.44-.26-.75-.24-1.36.02-.56.68-2.55.96-2.6.04 0-.28.9-.32.99-.12.35-.21.77-.24 1.18-.05.52.47 1.56.98 1.26.1-.06.15-.23.19-.35.06-.19.14-.49.24-.52.24-.08-.08 1.01-.1 1.08-.12.34-.29.7-.61.84-.34.16-.69-.26-.87-.52m-23.38 0c-.02-.89-.02-3.11.67-3.71.27-.23-.02.69-.05.78-.14.43-.27.98-.24 1.45.02.45.11.91.35 1.19.11.13.33.08.42-.04.03-.05.08-.17.11-.27.04-.13.08-.21.15-.26.26-.16.09.79.05.9-.11.28-.31.49-.51.67-.17.16-.45.05-.58-.06-.09-.07-.22-.32-.29-.48-.02-.05-.05-.16-.08-.18m36.89.52c-.08-.56-.05-1.08.08-1.61.08-.3.65-1.68.87-1.69.05 0-.19.72-.2.74-.18.34-.35.64-.38.99-.05.45.1 1.22.4 1.38.22.11.4-.04.52-.2.03-.04.09-.21.11-.26.06-.17.09-.25.22-.19.06.03-.08.62-.11.71-.08.22-.17.44-.3.6-.61.77-.92.12-1.19-.48m-58.09.36c1.1-.62 8.85-4.03 9.6-3.91.2.03-.16.81-.23.87-.05.04-2.17.84-2.37.89-.55.14-1.95.73-2.82 1.11-.07.03-1 .4-1.45.58-.4.16-.84.36-1.21.56-.33.18-.87.41-1.29.58-.1.04-.47.2-.48.16-.06-.18.15-.8.26-.84m13.32-4.19c.17-.1.59-.24.74-.03s.3.41.34.56c.1.36.08.72.04 1.12-.02.24-.08.77-.02.8.27.15.87.76.95 1.08.06.25-.02.72-.2.82-.03.02-.37-.36-.48-.48-.15-.17-.39-.3-.59-.42-.2-.1-.64.39-.81.58-.22.24-.49.55-.71.7-.25.18-.52.38-.76.58-.27.22-.6.43-.92.61-.58.32-1.99 1.11-2.04 1.14-.35.23-.66.38-1.09.56-.08.03-1.03.45-.93.2.03-.08.75-.6 1.15-.88.18-.13.45-.32.57-.38.22-.11.39-.25.58-.39.36-.29.77-.54 1.18-.79.47-.29.98-.6 1.37-.88l.24-.16s.25-.18.34-.24c.17-.12.36-.27.52-.41.56-.51.53-.53-.02-1.04-.44-.4-.56-.63-.35-1.36.08-.28.2-.53.34-.74.07-.1.2-.24.34-.39l.21-.16zm-17.97 7.12c-.23-.24.51-1.45.81-1.47.16 0 1.41.95 1.45 1.1.14.57-.52 1.68-1 1.36-.26-.18-1.23-.91-1.26-.99m52.78 2.41c.02-.53-2.14-1.37-2.42-.24-.08.3.56.41.83.46.21.04 1.7.04 1.59-.22m-57.93.08c.16-.53-1.76-1.86-2.2-1.99-.48-.13-1.53 1.93-1.67 2.41-.06.2.2.69.37.75.31.11.72.25 1.02.09l.28-.08.24-.08c.08-.03.3-.11.36-.14l.16-.08q.2-.11.32-.16c.18-.08 1.07-.59 1.11-.72m44.05.28c.11-.51-1.39-1.3-1.82-1.52-.6-.32-1.48 1.3-1.58 1.89-.06.34.18.63.35.79.57.54 2.9-.83 3.04-1.16m-15.61-.16c-.17-.75-.48-1.85-1.23-1.98-.38-.07-.82.23-1.03.42-.53.47-.95 1.12-1.21 1.84-.07.2-.09.66.11.78l.18.2q.12.14.2.2c.2.16.41.27.65.39.65.32 2.34-1.09 2.32-1.85m4.21 1.49c.38-.75-3.43-1.87-3.48-1.86-.02 0-.09.33-.09.33l-.04.2-.08.32-.12.4c-.06.24-.12.41-.2.6-.1.23-.25.61-.28.68-.09.26 2.24-.08 2.64-.14.29-.05 1.59-.3 1.65-.54m7.88 1.46-.21-.22s-.13-.22-.15-.27c-.08-.18-.12-.38-.16-.6-.1-.56.17-1.84.36-2.37.09-.23.19-.47.3-.68.13-.24.41-.76.36-.86-.04-.09-.18-.2-.27-.27q-.21-.17-.45-.36c-.26-.24-.5-.49-.74-.75-.08-.08-.2-.21-.25-.28-.12-.16-.27-.34-.37-.41-.33-.26-.46-1.84-.11-1.94 0 0 2.45 1.14 2.49 1.22.11.19-.07.24-.18.26-.19.05-.5.12-.44.24.1.21 1.06.88 1.31.92.17.03 1.17-1.3 1.31-1.51.19-.26 1.26-1.57 1.29-1.58.49-.28-.32 1.75-.37 1.82-.14.19-.46.61-.48.64-.17.21-.32.42-.48.65-.21.32-.36.53.02.76.25.15.46.31.68.49.45.39.83.97.89 1.71.03.37-.24 1.6-.42 1.81-.77.85-2.48 2.33-3.94 1.58m-27.7-.31c-.16.76.89 1.82 1.6 1.79.15 0-.16-.59-.17-.62l-.27-.33q-.14-.14-.19-.2c-.14-.18-.71-.71-.97-.64m21.11-17.53c.1-.5.26-.97.52-1.27.05-.05.18.29.21.35.1.25.19.46.3.68.19.37.35.79.5 1.21.05.14.13.3.2.44l.12.28.06.16.08.16c.1.24.49 1.2.28 1.36-.14.11-.44-.34-.48-.4-.11-.17-.3-.45-.46-.5-.08-.02.05 1.16.07 1.38l.04.44.04.28.04.36c.02.16.07.6.08.7l.04.26c.04.28.06.4.08.56.04.36.07.7.12 1.08l.04.28.04.4.04.28.12.92c.25 1.97.49 4.71.69 6.84.06.67-.14 2.7-.61 3.17-.29.29-.24-.79-.24-.82.02-.3.02-.54 0-.8l-.04-.3v-.8l-.04-.22-.04-.44-.04-.36v-.3c-.17-1.78-.4-3.86-.65-5.6-.13-.92-.38-3.05-.56-4.61-.12-.98-.21-1.76-.28-2.61-.03-.36-.1-.95-.16-1.52-.01-.13-.05-.36-.08-.48-.06-.23-.1-.4-.04-.56m-41.37 20.42c1.09-.23 3.03-1.1 4.15-1.61.28-.13.15.44.12.54-.11.31-.21.34-.5.42-.19.05-1.05.37-1.49.55-.52.2-1.07.4-1.61.56q-.2.06-.68.22c-.36.1-.12-.51.03-.68m32.47.66c.05-.34 1.08-2.66 1.13-1.83 0 .05-.21.4-.32.57-.14.22-.26.42-.29.7-.04.37.05.92.29 1.19.19.21.4.18.54-.05.11-.18.3-.48.38-.47.22.02-.16.86-.18.9-.18.36-.36.5-.65.74-.65.54-1-1.41-.91-1.75m40.2-1.34c.23-.12.67-.12.89-.02.49.23.8.38.83.38.51.07.99-.6 1.19-.92.17-.27.29-.32.26.02-.03.43.44.54.83.48.1-.02.24-.46.29-.6.08-.27.2-.66.44-.68.18-.01-.11.92-.12.94-.08.24-.14.41-.24.62-.17.36-.37.56-.77.7-.16.06-.27.02-.44-.04-.35-.11-.6-.2-.76-.09q-.12.11-.24.19c-.21.14-.35.21-.66.26-.32.06-.54-.08-.77-.22-.24-.15-.46-.28-.81-.18-.49.14-.89.33-1.27.58-.37.25-1.18.77-1.25.8l-.26.16c-.13.09-.26.17-.4.24-.2.1-.46.21-.69.3-.16.06-.6.15-.89.2-.31.06-.55-.09-.16-.24.88-.33 1.72-.89 2.52-1.42s1.95-1.29 2.48-1.47m-56.66 1.06c.08-.23.93-2.67 1.13-2.07.02.06-.3.7-.4.9-.18.36-.31.73-.36 1.18-.05.43.17.95.39 1.26.16.22.44.18.61 0 .09-.1.15-.22.21-.35.06-.14.14-.33.28-.29.09.02-.06.56-.07.61-.06.18-.15.32-.24.47-.17.29-.33.54-.67.65-.82.26-1.23-1.75-.87-2.37m40.9 2.57c-.81-.35-1.65-1.48-1.77-2.53-.05-.47-.07-.83-.05-1.18 0-.07.04-.68.05-.69.03-.28.06-.63.05-.67-.04-.1-1.13.61-1.2.65-.16.11-.34.22-.5.32-.21.13-.53.33-.65.4-.86.57-1.88 1.02-2.85 1.44-.99.43-1.98.77-3.27 1.02-.44.09-1.42.24-2.22.36l-.44.08-.48.12c-.34.07-1.29.26-1.38.13-.14-.19 1.1-.62 1.3-.69.16-.05 1.03-.35 1.57-.54.58-.2 1.24-.43 1.71-.64l.38-.18c.06-.02.33-.12.36-.14.22-.11.71-.34.77-.36 1.95-.61 9.64-5.26 9.5-6.34 0-.04-.2-.53-.28-.72l-.22-.38c-.03-.05-.15-.32-.22-.46q-.1-.21-.14-.28c-.08-.13-.17-.28-.24-.42-.14-.28-.4-.81-.42-.84-.02-.04-.16-.48-.23-.67l-.14-.44c-.04-.13-.09-.28-.14-.4-.28-.72-.34-1.22.05-2.1.09-.21.3.14.31.15.07.11.18.29.24.36.15.16.31.32.48.47.35.32 1 .93 1.07 1.32.02.1-.27.03-.34.02-.19-.04-.31-.06-.5-.03-.2.02.26.75.26.75.09.14.17.29.24.44.04.09.14.28.22.42.25.46.62 1.14.69 1.61.16 1.18-.03 2.46-.7 3.26-.29.34-.58.64-.93.92-.34.28-.81.68-.93.84-.07.08-.14.32-.18.44-.05.16-.06.29-.08.56-.02.23-.02.26-.04.34-.11.42.33 1.3.51 1.63.12.22.31.43.49.59.1.09.21.18.33.25.16.09.36.2.38.26.06.14 1.33.2 1.61.2.26 0 1.44-.35 2.34-.62.84-.25 2.26-1.38 2.98-1.97.22-.18.46-.39.64-.57.22-.22.51-.47.79-.7q.1-.12.27-.27t.19-.23c.06-.06.25-.29.41-.49.04-.06.11-.19.14-.22.12-.12-.15-.53-.22-.56-.11-.05-.24 0-.4.04-.21.06-.38.11-.64.14l-.28.04-.28.04-.44.04h-.89l-.4-.12-.2-.06c-.16-.06-.18-.07-.64-.41-.64-.34-.29-2.01-.05-2.6.09-.22.24-.41.38-.58.09-.12.15-.19.26-.28.1-.08.3-.25.34-.3.16-.24.74-.33 1.08-.31.49.02.93.32 1.28.55.29.19.58.5.78.77.12.17.26.37.32.48.07.14.21.38.32.44.23.12 1.49-.68 1.72-.82 0 0 .55-.42.76-.58.26-.19.65-.46.95-.53.32-.07.25.56.22.74-.07.48-.07.59.1.96.09.2.51.55.89.86.27.22 1.01.24 1.31.24.88 0 1.83-.71 2.2-1.29.19-.29.39-.64.54-.94.18-.36.33-.66.66-.86.41-.24-.04.72-.04.72-.12.24-.28.56-.26.74.08.74 2.67 1.6 2.78.8.02-.15-.19-.55-.26-.66-.11-.16-.25-.37-.22-.54.05-.28.27-1.28.47-1.34.5-.17.91 2.42.75 2.75l-.08.36c-.04.13-.1.32-.14.4-.1.25-.24.49-.42.67-.27.27-.62.39-1.09.43-.5.05-1.16-.22-1.47-.42-.16-.1-.57-.58-.91-.97-.11-.13-.34.24-.38.29-.1.16-.22.36-.33.47-.23.24-.48.42-.76.61-.46.31-1.21.42-1.67.42-1.68 0-2.03-1.09-2.39-2.42-.02-.09-.85.46-.92.51-.32.21-.63.43-.92.66-.36.28-.57.45-.61.67 0 0 0 0-.08.72l-.08.6c-.03.18-.13.41-.22.54-1.78 2.56-3.96 4.25-7.1 5.5-.9.36-2.44.17-3.09-.22m-51.58-.51c-.32-.26-.49-1.1-.54-1.57-.05-.57.07-1.58.26-2.17l.08-.2.06-.16.12-.32c.11-.29.26-.7.26-.8 0-.05-.69.14-.69.14-.19.05-.72.17-.89.04-.66-.49-.96-.72-1.03-1.71-.05-.7.24-1.55.44-2.13.13-.35.26-.66.42-.98 0 0 .18-.25.24-.34.1-.14.18-.28.21-.46 0-.02-1.32-1.2-1.46-1.32-.12-.1-1.36-1.44-1.36-1.44-.08-.41 0-1.15.18-1.56.02-.06.43.19.54.25.23.14.53.27.79.37.49.17 2.23.79.53.91-.3.02.68.72.74.76.41.26 1.06.66 1.21.64.04 0 1.58-1.74 1.73-1.94.03-.05.57-.69.88-1.06.13-.16.27-.34.4-.52.04-.06.43-.49.43-.49.52.02-.79 2.35-.9 2.5-.27.37-.56.74-.88 1.06-.21.2-.85.91-.7 1.21l.21.17.13.08c.14.11.28.24.4.36.28.28.51.56.73.9.45.67.3 2.24-.09 3.02-.08.16-.39.38-.6.53-.28.2-.69.49-.75.64-.04.1-.13.27-.22.42-.08.13-.16.28-.2.36 0 0-.22.55-.32.82-.29.76-.59 1.77-.46 2.65.02.15.12.38.18.5l.15.23.2.16c.11.2 1.03.26 1.26.25.44-.02 1.61-.46 1.88-.74l.21-.17.2-.16c.22-.17.42-.35.63-.54.35-.32 1.04-.96 1.13-1.04.73-.73 1.52-1.4 2.32-2.06.83-.68 1.7-1.27 2.69-1.8.45-.24 1-.42 1.55-.54.43-.09 1.04-.18 1.38-.15.22.02.76 0 1.06-.11.01-.05.13-.45.13-.45.13-.07.7.6.84.76.25.3.6.56.93.78.71.47 1.53.89 2.44 1.14 1.37.39 6.83.74 7.36-.23.02-.05-.03-.23-.05-.31-.02-.05-.09-.31-.1-.36-.03-.17-.04-1.05 0-1.09l.08-.36.04-.16.04-.16s.11-.32.16-.48c.17-.52.34-.98.58-1.41.33-.57.89-1.19 1.44-1.53.15-.09.33-.21.45-.25.18-.07.4-.15.38-.3l-.08-.32q-.04-.14-.08-.36c-.08-.43-.15-.89-.2-1.33-.2-1.56-.42-3.28-.64-4.86-.18-1.23-.57-4.64-.57-4.66.01-.25.41-1.3.56-1.3.03 0 .22.41.27.52l.08.16.08.12.08.16.08.14c.1.18.19.36.26.56.07.19.16.36.26.54.19.34.4.74.54 1.1.04.09.54 1.45.1 1.18-.24-.15-.33-.23-.49-.45-.04-.05-.43-.57-.49-.36-.08.26.2 2.32.29 2.88 0 0 .14.88.18 1.16.05.33.08.53.12.88l.04.24.04.24.04.28c.06.38.12.81.16 1.12.06.48.12.89.24 1.33.34 1.17.66 2.29 1.49 2.77.46.26.96.48 1.51.66.56.18 1.15.39 1.55.74.32.28.56.69.65 1.2.17 1.01-.31 2.24-.84 2.78-.42.42-2.2.64-3.29.77-.63.07-1.34.11-2.22.04-.22-.02-.53-.09-.73-.16-.21-.07-.53-.17-.69-.08-.6.35-3.64.96-4.15.96l-.45.04q-.47.04-.68.04h-.65c-.57 0-1.1 0-1.51-.08-.37-.07-1.18-.22-1.34-.27-.28-.08-.69-.19-.78-.22-.25-.08-.54-.18-.74-.16-.04 0 0 .54 0 .54.01.31 0 .43-.04.76-.02.18-.09.55-.19.74-.3.6-1.19.21-1.59-.06-.44-.29-.78-.63-1.03-1.1-.12-.22-.21-.44-.3-.7-.06-.16-.1-.37-.12-.56q-.04-.36-.04-.72c0-.19 0-.53-.07-.62-.17-.18-1.71.05-2.08.15-.87.25-1.61.58-2.28 1.02-1.08.72-2.12 1.67-3.12 2.58-.19.17-.98.96-1.49 1.46-.47.47-1.04.97-1.65 1.3-.51.27-.94.3-1.51.3-.55 0-1.95-.7-2.02-1.22" fill="#1d1d1b" fill-rule="evenodd"/></svg>