<svg viewBox="0 0 81.5 27.04" xmlns="http://www.w3.org/2000/svg"><path d="m64.14 24.02c-.29.36-1.63.81-2.23 1-.79.26-1.83.16-2.54-.14-.87-.33-1.86-1.36-2-2.41-.05-.36-.11-.85-.1-.96.04-.43.1-1.23.05-1.66-.01-.13-.73.39-.76.42l-.24.16-.26.16c-.51.37-.83.6-1.29.88-.31.19-1.43.89-1.43.89l-.14.08-.18.08c-.15.08-.32.16-.46.24-.06.04-.28.15-.4.22-.13.07-.38.21-.4.22-.9.52-5.97 1.87-7.19 1.82-.34-.02 1.26-.76 1.3-.78.1-.04.27-.11.3-.12.12-.06.3-.13.46-.2.3-.12.68-.28.93-.38.49-.2 1.38-.58 1.49-.64.39-.21 1.22-.65 1.41-.7.29-.09 2.23-1.24 3.15-1.81l.14-.08.22-.14.26-.14c.24-.15.47-.29.71-.44.13-.08.26-.17.38-.25.11-.08.22-.15.33-.23.13-.08.36-.24.36-.24l.13-.09c.15-.12.18-.15.2-.16.61-.28 3.28-2.53 3.38-3.12.04-.22-.47-1.08-.62-1.31-.25-.37-.48-.79-.68-1.18-.31-.61-1.22-2.62-1.23-2.69-.05-.35.2-1.8.26-1.61 0 0 1.25 1.2 1.38 1.3.25.19.5.44.68.7.06.09.22.39-.05.35-.11-.01-.76-.11-.71.04.07.2.14.42.27.57.1.12.19.3.28.47.04.08.15.25.32.5 0 0 .21.38.32.56.53.92.64 2.4.26 3.53-.18.52-.89 1.26-1.36 1.74-.12.12-.29.25-.43.35-.19.13-.31.22-.4.44-.19.43-.35 1.31-.18 1.65l.04.2.04.16c.04.16.08.3.14.44.1.23.21.45.38.61.37.38.65.66 1.2.89 1.27.53 3.02-.06 3.93-.58.99-.56 1.89-1.31 2.77-2.04.43-.36.89-.76 1.25-1.2.28-.34 1.14-1.37 1.14-1.37.14-.14-.13-.63-.26-.64-.15-.01-.26.04-.36.08-.14.06-.26.1-.44.14-.61.14-1.53.24-2.14.24-.39 0-.86-.31-1.21-.54-.71-.47-.41-2.13-.08-2.79.23-.45.84-1.15 1.37-1.29.91-.23 1.62.28 2.17.71.21.17.45.46.67.73.23.27.51.63.63.63.2 0 1.43-.83 1.65-1.02.45-.38 1.21-1.01 1.56-1.1.27-.06.25.48.24.66-.02.33-.05.79.08.92l.15.25c.09.11.15.18.26.27.23.2.47.38.77.49.87.33 1.88-.04 2.43-.43.47-.35.79-.71 1.06-1.27.23-.49.57-1.23.89-1.44.35-.23.07.63.02.72-.1.22-.22.48-.26.64-.19.83 2.2 1.29 2.82.94.11-.06-.04-.42-.09-.54-.03-.07-.13-.21-.17-.27-.06-.08-.21-.28-.21-.29-.08-.25.19-1.81.46-1.6.36.27.6 1.13.75 1.69.08.33.06 1.41-.16 1.81-.06.16-.14.31-.22.44-.07.1-.27.31-.46.5-.17.17-1.12.34-1.36.21l-.16-.04-.16-.04c-.06-.02-.24-.08-.28-.1-.19-.08-.37-.17-.52-.28s-.29-.23-.42-.38c-.16-.18-.4-.45-.48-.44-.03 0-.19.32-.23.39 0 .02-.17.26-.24.36-.14.21-.34.41-.55.55-.47.3-.96.57-1.66.65-.32.04-1.1 0-1.48-.26-.78-.54-1.05-.9-1.25-2.03-.01-.06-1.18.76-1.18.76-.25.18-1.06.8-1.1.88-.04.09-.08.61-.1.9-.03.48-.1.93-.26 1.29-.71 1.49-2.34 2.97-3.86 4.21l-.23.16c-.07.05-.15.11-.23.17 0 0-.78.28-.72.39m-35.89-10.81s0-.02 0-.03c.02-.13.13-.94.12-.93-.08.01-.32.52-.46.97l-.18.9s-.03.08-.04.11c-.17.85-.36 1.8-.2 2.41.13.52.58 1.75 1.23 1.53.32-.11 1.15-2.12.75-2.3-.12-.06-.26.42-.31.62-.03.11-.14.35-.25.39-.49.18-.81-.66-.9-1.04-.13-.4-.04-1.09.03-1.72l.2-.9zm49.05-11.97c-.31-.2-.64-.11-.82.19-.21.35.17.59.42.74.12.07.63.39.7.24.08-.15-.2-.89-.31-1.18m-26.81.3c-.25-.23-.83.2-.64.56.11.21.49.59.78.53.21-.04.01-.98-.14-1.09m15.47.06c.28-.16.82.19 1.04.33.42.28.84.67 1.14 1.07l.16.23c.09.09.16.17.23.29.11.18.42.66.56.66l.02-.4v-.22s-.02-.12-.02-.12c.02-.2.02-.45.02-.66 0-.42 0-1.08.16-1.48.19-.48.75-1.51 1.41-1.24.6.24.74 1.02.45 1.6-.04.09-.62-.39-.73-.49-.47-.39-.85.27-.85.8l.04.94-.04.68v.29s0 .16 0 .16v.18c-.04.31-.25 1.96-.54 1.8-.02-.01-.09-.25-.11-.31-.04-.12-.09-.31-.14-.4l-.24-.34-.18-.23c-.25-.38-.52-.71-.83-1.04-.2-.21-.3-.22-.65-.26-.18-.02-.51-.23-.67-.34-.28-.19-.89-1.21-.25-1.5m-11.2 3.73.23-.15s.32-.21.48-.32c.17-.11.35-.22.52-.32q.1-.06.28-.17l.12-.07.12-.08c.17-.1.36-.22.5-.32t.43-.25c.37-.22 1.06-.63 1.18-.71.67-.41 1.34-.81 2.04-1.2.35-.2.72-.43 1.06-.65.29-.19.84-.55 1.02-.55.17 0-.12.83-.16.86-.55.55-2.95 1.93-4.39 2.76-.29.17-.71.42-1.06.64l-.26.16-.14.08-.15.09c-.19.13-.4.28-.61.39-.38.21-.75.44-1.09.68-.11.08-.39.28-.44.23-.1-.1.06-1.01.3-1.09m-24.33-1.3c-.16-.46 0-.89.26-1.3.07-.12.9.4.96.45.08.06.51.38.51.38l.18.22c.23.2.43.45.61.7.07.09.54.73.59.66.06-.09.02-.53 0-.68v-.4c0-.35 0-.84.08-1.16s.36-1.06.62-1.16c.56-.21 1.06.29 1.23.8.05.15-.1.42-.21.62-.04.07-.39-.16-.43-.19-.2-.13-.39-.25-.63-.28-.23-.03-.19.75-.18.92.03.52 0 1.34-.04 1.73-.03.3-.25 1.79-.52 1.65l-.05-.15c-.03-.1-.06-.19-.1-.28-.01-.02-.22-.4-.32-.58-.18-.32-.38-.6-.61-.85-.46-.51-1.23-.89-1.94-1.08m19.6-.46c0-.05-.11-.15-.17-.21-.1-.08-.18-.18-.25-.29-.15-.24-.26-.41-.3-.66-.06-.36.28-1.28.47-1.48.22-.23.42-.44.78-.51.3-.06.47.42.52.66.07.29.07.43.04.72-.02.22-.09 1.04-.08 1.08.03.12.3.33.49.49.21.16.35.33.49.55.14.21-.11.75-.24.74-.02 0-.39-.3-.46-.35-.18-.13-.39-.26-.59-.37-.17-.09-1.09.93-1.24 1.11-.3.34-.77.85-1.2 1.03-.04.02-.56.31-.79.44-.13.08-.33.2-.4.24-.28.15-1.29.63-1.4.62-.37-.06.36-.58.39-.59.1-.05.43-.25.64-.38.27-.17.82-.6 1.19-.9q.06-.05.21-.15c.12-.08.36-.24.36-.24.2-.13.4-.29.57-.45.18-.16 1.04-.95.96-1.11m-35.33.99c-.2-.33-.21-1.16.24-1.29.26-.08 1.37.86 1.57 1.05.2.2.39.43.55.66.07.09.54.76.59.68s.04-.75.03-.94c0-.28.03-.86.13-1.19.11-.4.4-1.24.79-1.3.43-.07.73.4.89.68.13.23.33.89-.15.89 0 0-.34-.2-.35-.21-.13-.11-.34-.31-.51-.32-.33-.01-.34 1.05-.34 1.42 0 .47-.01 1.12-.12 1.77-.04.25-.23 1.16-.44 1.1l-.04-.13q-.07-.25-.1-.3c-.08-.16-.24-.47-.28-.54-.21-.33-.42-.65-.68-.93-.18-.2-.5-.54-.69-.61l-.14-.04h-.18s-.24-.09-.26-.1c-.16-.08-.35-.21-.48-.34m-11.88-.63c-.05-.28.13-.93.34-.98.3-.08 1.49.72 1.76 1 .19.22.38.45.55.68.14.19.27.39.39.59.16.28.43.75.53.76.02 0 .02-.49.02-.5 0-.3.02-.7.04-1.04.02-.36.07-.77.2-1.11.16-.4.32-.8.61-.96.12-.07.51.14.76.27.22.12.6 1.24.13 1.3-.05 0-.19-.11-.21-.13q-.13-.12-.19-.15c-.2-.12-.5-.29-.63-.26-.26.05-.26.61-.26.98 0 .41-.01 1.07-.04 1.65-.02.4-.23 1.6-.49 1.76-.05.03-.12-.18-.12-.2q-.06-.19-.14-.36l-.08-.18-.08-.18-.08-.14-.14-.26c-.21-.41-.44-.78-.72-1.12-.21-.26-.59-.72-.88-.61-.35.13-1.17-.49-1.27-.8m74.22-.52s-.42-.34-.57-.45c-.18-.14-.32-.3-.44-.51-.43-.79.62-2.2.93-2.33.24-.1.39-.02.61.11.44.25.48 1.85.48 2.3 0 .2 0 .29.15.42s.38.33.43.41c.1.16.15 1.03-.08.92-.13-.06-.31-.19-.46-.3-.17-.12-.36-.26-.59-.2l-2.33 2.22c-.39.51-4.15 2.57-4.79 2.43-.17-.04.62-.56.63-.57l.13-.07c.12-.06.16-.09.26-.16q.05-.04.22-.12l.28-.16c.62-.38 1.41-.86 1.85-1.22.07-.06.23-.15.35-.23.16-.1.33-.21.48-.32l.22-.16.57-.4.13-.09c.37-.27 1.48-1.16 1.52-1.52m-28.15 5.38c-.19-.23.49-1.31.71-1.41.1-.04.53.23.73.36.22.14.67.43.81.4.02 0 .27-.47.4-.72.08-.15.25-.38.4-.46.15-.07 1.21.78 1.36.92.24.23.24.57.09.87 0 0-.2.27-.29.39s-.28.39-.3.42c-.06.11-.7-.41-.77-.46-.21-.17-.65-.52-.81-.46-.05.01-.33.62-.39.75-.11.23-.27.58-.59.44-.18-.08-1.32-.89-1.35-1.04m14.65 1.07c-.08-.18-.53-1.28-.37-1.43l.04-.44.04-.2.04-.2c.04-.22.1-.41.16-.6.08-.24.42-1.24.6-1.12.06.04-.22.67-.24.71-.15.32-.21.76-.24 1.16-.04.63.34 1.64.98 1.48.1-.02.2-.32.23-.43.05-.2.14-.54.28-.47.26.14-.28 1.54-.39 1.67-.43.51-.75.27-1.13-.13m14.26-3.47c.04.07-.13.58-.18.67-.23.46-.3.6-.34 1.28-.02.31.23.75.37 1.02.13.23.49.03.58-.11q.06-.1.1-.22c.04-.13.1-.32.19-.29.33.08-.32 1.52-.64 1.66-.62.27-.91-.67-.97-1.24-.06-.53.06-1.19.26-1.65.08-.19.52-1.2.62-1.11m-44.48 4.31c-.1-.3.4-1.07.59-1.34.23-.35 1.62.82 1.73 1.02.21.36-.57 1.5-.97 1.3-.12-.06-1.31-.92-1.35-.97m-26.84 2.91c-.38-.96.31-2.67.67-3.56.14-.35-.12.79-.13.84-.13.45-.24 1.01-.22 1.68 0 .29.32.84.52.92.27.11.41-.11.48-.32.04-.12.15-.41.24-.37.39.19-.4 1.61-.56 1.66-.6.19-.83-.37-1.01-.84m11.01-.32s.03-.52.04-.64l.04-.28q.02-.1.04-.32c.05-.4.13-.79.2-1.16.06-.3.37-1.84.6-1.74.14.06-.14 1.31-.19 1.58-.15.65-.29 1.39-.2 2.09.05.41.45 1.25.79 1.35.23.07.37-.2.42-.38.06-.2.19-.67.32-.66.22.02-.03 2.19-.74 2.36-.24.06-.74-.39-.89-.66-.09-.16-.14-.29-.2-.48-.08-.23-.09-.26-.1-.32l-.04-.2c-.02-.14-.08-.52-.08-.52m49.84 2.47c-.05-.26-.76-.66-1.05-.72-.67-.14-1.87.49-1.21.82.31.15 2.2.28 2.26-.1m-13.77.95c-.2-.56-1.6-1.4-2.22-1.51-.24-.04-2 2.55-.62 2.93.66.18 2.81-1.02 2.84-1.42m-17.79-1.57c-.23-.16-.41-.17-.7-.08-.28.08-.59.51-.67.8-.13.47.37 2.16.68 2.33 0 0 3.01-1.37.69-3.05m14.68-.36c0-.14-.43-.44-.6-.56-.23-.16-.48-.35-.68-.55-.07-.08-.31-.31-.31-.31-.1-.12-.28-.32-.58-.64-.22-.17-.31-.23-.33-.31-.1-.41-.12-1.25.05-1.59 0 0 .4.17.5.21.12.05.52.19.77.28.33.12 1.34.48 1.35.64 0 .12-.44.25-.55.28-.27.08.04.31.14.38.31.23.87.62 1.15.66.12.01 1.05-1.31 1.17-1.5.33-.54.77-1.1 1.18-1.6.62-.76-.12 1.62-.25 1.8-.26.36-1.16 1.59-1.09 1.81.01.04.22.17.34.24.17.11.33.21.49.32.29.21.51.42.71.71.55.78.49 1.74.15 2.78-.22.68-2.06 1.85-2.87 2.03-.31.07-.92.06-1.07-.18-.57-.91-.62-1.22-.48-2.53.06-.54.18-.91.35-1.32.07-.19.15-.37.24-.54.07-.13.23-.42.22-.5m-44.39 5.69c-.06-.2-.12-.4-.14-.64v-.18l-.04-.22.04-.46v-.14s.17-.67.24-.88c.08-.21.44-1.07.55-1.1.12-.04-.14.64-.18.74-.11.29-.18.73-.24 1.1-.07.45.15 1.01.41 1.28.12.12.32.16.45.06.01-.01.11-.23.17-.35.06-.14.1-.22.22-.15.26.15-.27 1.16-.34 1.26-.39.51-.9.08-1.12-.31m36.71-17.75c.1-.39.35-1.38.56-1.42.03 0 .5.98.55 1.1.01.03.18.42.26.6.08.19.18.42.26.58.2.4.41.82.56 1.23.04.09.5 1.32.08 1.22-.11-.02-.28-.26-.37-.39-.13-.18-.32-.43-.42-.45-.08 0 .14 1.36.17 1.58.04.29.08.55.12.84l.04.28.04.2.04.28.04.28c.09.57.17 1.11.28 1.64.06.31.19 1.15.28 1.73.08.5.18 1.08.28 1.6.05.24.08.46.12.72.02.13.11.69.16.96.17 1 .45 2.8.41 3.43v1.06c0 .47-.03.99-.12 1.52-.07.44-.38 1.22-.54 1.21 0 0-.05-1.09-.06-1.27l-.04-.42-.04-.18v-.26l-.04-.28v-.12c-.04-.49-.12-1.08-.2-1.61-.08-.52-.15-.97-.2-1.48-.18-1.81-.45-3.34-.8-5.1-.02-.11-.07-.41-.08-.52l-.04-.36v-.14l-.04-.14-.04-.28c-.04-.27-.08-.52-.12-.8-.11-.75-.25-1.62-.37-2.29-.14-.85-.29-1.77-.36-2.53-.03-.37-.09-.97-.2-1.37-.06-.21-.18-.65-.16-.68m33.82 17.92c.26 0 .8-.5.97-.72l.09-.17c.07-.1.23-.32.29-.3v.29s.03.16.03.16c.03.09.11.12.18.16.17.09.49.22.65.08.15-.12.2-.24.22-.4.04-.33.16-.57.31-.9.12-.25.12.62.11.66q-.02.06-.08.36c-.06.3-.23.7-.39.92-.38.48-.76.44-1.32.21-.2-.08-.36.05-.56.21-.19.16-.41.29-.69.37-.36.1-.66-.09-.87-.22-.15-.1-.65-.28-.83-.1l-.12.04c-.18.06-.33.14-.48.22-.07.04-.43.27-.62.4-.2.13-.39.27-.58.41-.18.13-.53.4-.53.4-.41.27-.82.49-1.29.72-.19.1-1.28.47-1.28.23 0-.07.23-.16.35-.21.16-.06.45-.25.77-.46.17-.11.34-.21.51-.32.28-.18.55-.37.82-.57.24-.18.67-.5.77-.56.21-.15.44-.32.64-.49.25-.21.55-.39.86-.55.28-.14.72-.32 1.05-.22.17.05.31.13.44.22.14.1.37.2.6.14m-75.21 3.45-.07-.13-.18-.18c-.12-.15-.25-.31-.36-.48-.19-.28-.42-.69-.54-1.13l-.06-.16c-.04-.12-.08-.3-.1-.44-.04-.23-.13-1.32-.06-1.32l-.02-.26.04-.18c.03-.24.1-.71.1-.72.03-.17.15-.62.22-.92.06-.23.13-.43.2-.64.13-.37.34-.94.32-1.04 0-.07-.12-.28-.14-.32-.07-.12-.13-.26-.18-.4-.05-.13-.09-.26-.12-.4l-.04-.24c-.03-.31-.04-.41-.04-.42-.11-.43.22-2.48.36-2.99.09-.31.17-.62.24-.92.05-.2.22-.92.34-.93.21-.02-.43 4.17-.43 4.17-.13.29.45 1.48.75 1.54.32.06.63-.06.76-.29l.07-.19.04-.2.04-.2c.04-.15.09-.36.22-.33.45.09-.24 2.04-.52 2.21-.19.12-.31.14-.54.14-.2 0-.51 0-.52 0-.25.18-.54 2.03-.61 2.62-.11.94.47 2.66 1.15 3.09.44.28 1.28.77 1.33.78.65.2 1.35.24 2.05.16.58-.07 2.16-.62 2.48-.91.11-.09.42-.25.59-.34.1-.05.46-.3.69-.46.43-.3.91-.65 1.26-1 .78-.79 1.46-1.56 2.19-2.42.4-.47-.57-6.28-.89-8.15-.2-1.2-.46-2.72-.56-3.59-.15-1.18-.35-2.67-.52-3.79-.06-.35.35-2.55.65-1.08l.52 2.37c.36 1.79.86 4.31 1.01 5.54.07.58.14 1.17.24 1.77.09.56.2 1.2.28 1.76.06.41.24 1.65.24 1.65.11.61.2 1.18.28 1.81.11.77.25 1.74.55 2.41.13.31.27.61.44.88.08.12.16.25.24.36.02.02.16.2.17.21.07.07.12.14.14.16.13.25.99.57 1.35.69.44.15 1.08-.02 1.49-.18.75-.29 1.28-.9 1.69-1.52q.05-.08.16-.28l.16-.28q.05-.09.16-.3l.16-.28c.15-.24.53-.84.82-.79 0 0 .05.32.05.33.03.23.09.54.18.72.1.2.27.42.41.59.33.39.63.64 1.1.93 1.16.71 2.54 1.02 4.09.9 1.52-.12 2.6-.37 3.91-.8.69-.23 3.15-1.19 3.25-1.59 0-.03-.09-.36-.12-.48l-.04-.16-.04-.2-.04-.2c-.05-.25-.1-1.21-.1-1.21s.06-.6.06-.62c.01-.17.03-.42.08-.62.05-.24.13-.47.22-.68.19-.42.45-.95.87-1.12.25-.11.55-.24.87-.14.79.24 1.51 1.5 1.59 2.39.07.69-.28 1.71-.54 2.27-.15.33-.34.61-.57.86-.2.22-.6.65-.56.79.3.95 2.25.95 3.19.76.54-.11 2.04-.73 1.91-1.32-.33-1.6-.93-5.46-1.37-8.29-.17-1.07-.45-2.79-.68-4.15-.07-.39-.33-1.91-.33-1.91-.1-.47-.35-2.17-.28-2.33l.08-.28c.08-.28.08-.28.08-.28.08-.24.22-.64.34-.65.08 0 .61 1.16.68 1.33l.12.26c.06.12.14.3.2.44 0 0 .12.3.16.42.06.15.12.3.18.44.19.4.55 1.22.57 1.37.06.45-.25.28-.42.11-.03-.03-.21-.26-.29-.35-.1-.13-.19-.21-.32-.26-.06-.02.11 1.11.13 1.3.06.42.18 1.03.28 1.52l.04.2.04.32.04.2c.05.26.1.52.16.8.04.19.08.43.09.5 0 .08.07.49.11.71.42 2.31.76 4.61 1.09 6.86.11.8 0 1.87-.24 2.81-.26 1.05-1.26 1.52-2.2 1.91-1.2.5-2.53.12-3.41-.42-.31-.19-.6-.64-.79-.96-.15-.27-.26-.45-.54-.32l-.38.22-.28.14c-.52.28-2.05.89-3.31 1.38-1.19.47-2.43.64-3.87.76-.75.06-1.69-.03-2.54-.24-1.26-.31-2.87-1.33-3.35-2.59-.07-.2-.42.41-.42.41q-.03.06-.11.21c-.07.15-.16.32-.24.46l-.16.24c-.08.12-.22.31-.24.34l-.2.23-.08.13-.22.18c-.16.24-.95.58-1.44.79-.83.35-2.85-.34-3.14-1.07l-.18-.24c-.08-.11-.16-.24-.23-.37-.16-.28-.3-.54-.44-.86-.12-.27-.22-.6-.3-.92-.07-.29-.23-.92-.28-.98 0 0-.28.79-.32.9-.14.38-.33.65-.54.94-.05.06-.65.75-1.06 1.21-.16.18-.42.43-.66.66q-.08.06-.26.25t-.2.18c-.36.44-1.89 1.3-2.86 1.83-.62.34-1.47.54-2.28.64-1.14.14-2.69-.26-3.4-1.03m29.1.61c.21-.26 4.79-2.15 4.95-2.14.17 0-.02.67-.08.75-.01.01-.67.32-.84.39 0 0-.37.16-.46.2-.56.24-1.1.46-1.65.68s-1.11.46-1.63.72c-.17.08-.62.3-.61.08 0-.21.14-.65.32-.68m-11.46.72c-.03-.26.51-1.08.71-1.2.15-.1.99.39 1.35.6.29.17.48-.14.62-.38.09-.14.38-.59.48-.6.4-.06 1.48.97 1.59 1.41.06.2-.65.96-.81 1.12-.08.08-.66-.39-.79-.49-.21-.17-.61-.49-.7-.46-.05.01-.39.61-.5.8-.14.24-.27.47-.54.27l-.17-.09-.36-.24-.26-.16c-.16-.11-.65-.43-.63-.56m-9.67.71c.31-.16.7-.38.97-.6.24-.19.74-.42 1.06-.55.13-.06.17-.09.28-.16t.22-.12q.26-.14.3-.16l.14-.08.14-.08.16-.08.28-.16.14-.08c.2-.11.53-.28.62-.3.32-.08.05.7 0 .78-.08.12-.4.28-.57.36-.25.12-.49.23-.73.36-.07.04-.27.16-.4.24 0 0-.34.17-.51.24-.52.24-1.09.52-1.55.84-.16.11-.43.3-.57.36-.39.18-.12-.69-.01-.82" fill="#1d1d1b" fill-rule="evenodd"/></svg>