<svg viewBox="0 0 74.49 26.48" xmlns="http://www.w3.org/2000/svg"><path d="m33.89 1.16c-.06-.24-.68.04-.75.13-.16.22.1.42.25.54.89.71.86-.3.5-.67m9.82.76c-.15-.29-.6.08-.68.21-.14.26.1.48.3.64.81.65.72-.48.38-.85m25.89.27c-.07.39.88 1.01 1.14.91.31-.12-.24-1.18-.28-1.23-.31-.31-.71.07-.86.31m-31.75.8c.1-.9.3-2.32.72-2.78.35-.38-.04.86-.04.86-.1.32-.2 1.08-.16 1.44.04.37.23.76.55.92.13.06.24-.03.32-.14t.12-.26c.05-.11.1-.24.18-.28.09-.05.02.84-.04 1-.09.26-.21.58-.42.68-.72.36-1.21-.94-1.23-1.44m-15.48.61c-.34-.44 1.06-1.84 1.43-2 .45-.2 3.18-.34 3.21.22.03.57-.77 1.48-1.12 1.8-.34.31-1.64.99-2.14.95-.29-.03.7-.74.7-.74l.48-.32.16-.08c.05-.03.35-.23.36-.25.19-.52-1.65-.26-1.89-.21-.21.04-.45.12-.6.23-.25.18-.57.41-.59.41m-5.74.59c-.35-1.37.35-2.88.88-3.84.07-.12-.08.82-.21 1.08-.14.28-.41.89-.34 1.2.13.64.29 1.43.83 1.36.09-.01.23-.24.26-.32.06-.12.17-.38.26-.32.44.3-.64 1.57-.89 1.63-.18.04-.55-.46-.79-.78m43.75-.24c-.49-.16-1.11-.38-1.19-.44-.3-.24-.41-1.11-.05-1.38.38-.28 1.6.77 1.82 1 .21.24.41.5.6.77.14.2.59.82.68.79.06-.02.06-1.4.06-1.48 0-.38 0-.79.12-1.14.16-.48.49-1.15.91-1.37.15-.08.6-.18.78.09l.16.2c.08.11.14.2.19.35.08.27.07.76-.15.94-.07.06-.36-.24-.43-.31-.16-.16-.35-.36-.63-.33-.27.03-.41.32-.46.58-.04.21-.04.51-.04.74v.16q.03.29 0 .56v.14l-.04.5v.42l-.04.32q-.06.35-.08.6c-.04.35-.1.96-.44.9l-.09-.33c-.03-.12-.11-.29-.18-.42-.12-.24-.23-.4-.45-.7-.26-.34-.85-1.1-1.04-1.17m-12.63 1.92c.12-.38 8.24-4.85 8.24-4.85.13 0-.14.89-.26.94-.78.31-3.15 1.83-4.3 2.6-.59.39-1.61.98-2.42 1.45l-.35.21c-.22.12-.44.24-.62.33 0 0-.18.17-.2.19-.06.06-.19.2-.3.06-.08-.1.03-.9.21-.92m-14.43-2.88s-.24-.21-.39-.33c-.14-.14-.3-.34-.35-.55-.1-.41.14-1.04.34-1.37.11-.17 1.16-1.18 1.35-.53.11.39.25.87.25 1.14 0 .17-.04.45-.08.64-.06.26-.11.49.08.72q.05.04.21.19c.06.06.15.18.26.33.25.33.17.54.04.96-.04.13-.56-.35-.61-.4-.15-.14-.34-.31-.53-.29-.14.02-.49.44-.56.56-.04.07-.16.17-.29.28-.05.04-.2.18-.3.27-.39.37-.86.69-1.32.99-.53.35-2.47 1.38-3.05 1.47-.6.09 2.42-1.85 2.5-1.91.48-.31.95-.64 1.4-.97.21-.16 1.22-.93 1.06-1.2m9.18-.16c-.12-.72.49-1.66.92-1.94.37-.23.66-.05.79.29.13.33.14.68.1 1.08-.03.34-.1 1.11 0 1.18.28.18.84.58.88.91.03.24-.06.49-.15.67-.01.02-.48-.29-.58-.35-.22-.14-.53-.35-.66-.38s-.53.46-.65.62c-.17.2-.36.4-.56.57-.38.33-1.12.95-1.29 1.04-.27.14-1.05.56-1.05.56-.18.13-1.07.5-1.17.46-.34-.15 1.19-1.1 1.19-1.1l.32-.24.13-.09q.17-.14.19-.15s.55-.38.81-.56c.43-.3.89-.65 1.22-1.05.28-.33.35-.41 0-.73-.22-.2-.36-.46-.45-.79m-25.35 4.23c.11-.46.4-.91.68-1.24.2-.24 1.35.96 1.42 1.22.12.47-.67 1.56-1.06 1.24-.25-.2-.96-.94-1.04-1.22m15.67.6c-.18-.33.66-1.35 1.03-1.3.09.01 1.14.85 1.15.88.04.32.57-.46.57-.46.14-.21.39-.49.65-.52.17-.02 1.3 1.07 1.35 1.3.07.34-.68 1.12-.91 1.22-.09.04-.6-.38-.76-.51-.2-.17-.6-.5-.69-.47-.05.02-.42.52-.52.66-.16.24-.34.5-.64.25-.1-.08-.21-.17-.4-.32l-.2-.16c-.12-.1-.61-.53-.61-.58m37.33-3.44c.03-.08-.36-.41-.57-.6-.29-.26-.47-.49-.43-1.04.04-.69.45-1.66 1.03-1.8.26-.07.54.04.65.23.26.44.35 1.07.36 1.49 0 .35.02.98.3 1.24l.13.09c.06.06.21.25.23.35.04.26.06.62-.16.76 0 0-.36-.23-.44-.28-.17-.11-.36-.24-.51-.26-.07-.01-.24.2-.33.31-.12.14-.3.37-.36.42-.12.11-.36.32-.4.36-.14.12-.27.23-.4.36-.46.46-1.05.85-1.61 1.21-.82.53-3.33 2.04-4.13 1.94-.25-.03 1.46-1.06 1.53-1.1.56-.32 1.27-.79 1.9-1.21 1.18-.78 2.19-1.59 3.22-2.5m-67.27-.59c0-.2.16-.65.28-.78.3-.33 1.65.78 1.83.96.21.21.43.5.63.77.07.1.56.75.57.74.11-.1.03-1.22 0-1.5-.05-.68-.07-.82 0-1.36.06-.47.4-1.42.73-1.57.18-.08.51.09.8.23.17.09.45.7.45.94 0 .16-.27.39-.38.32-.31-.18-.92-.52-1.1-.43-.05.03-.05 1.22-.05 1.39v.24l.04.3q.01.22-.04.78c-.11 1.17-.29 2.32-.62 3.13-.28.67-1.46 1.91-2.18 2.11-.52.14.95-1.41.98-1.44.35-.35 1.27-1.36 1.08-1.89-.27-.72-.79-1.39-1.35-1.84-.16-.13-.19-.15-.37-.07-.14.07-.33-.04-.52-.16-.24-.15-.72-.6-.77-.88m39.01 5.42c.22-.48.44-.98.67-1.24.17-.19.66.18.8.29.22.18.48.39.78.45.13.03.34-.42.4-.56.11-.23.24-.46.46-.58.13-.07.75.43.97.62l.31.21.16.2c.45.24-.52 1.53-.7 1.56-.08.01-.96-.7-1.18-.88-.22-.17-.42.17-.55.39-.18.31-.41.71-.5.74-.12.05-.66-.34-.87-.48-.14-.1-.83-.58-.75-.72m-31.05 1.15c-.1-.18-.28-1.05-.41-1.71-.17-.84.34-2.73.61-3.57.12-.39.28-.81.42-1.2.06-.15.47-1.24.65-.92.08.13-.41 1.97-.48 2.15-.21.54-.51 1.52-.46 2.17.04.55.09 1.24.26 1.54.14.25.41.43.72.46.18.02.29-.28.35-.42.06-.16.24-.65.41-.51.2.15-.06 1.34-.15 1.56-.1.27-.44.87-.73.94-.24.06-.47.05-.68-.06l-.5-.42zm45.5-.31c-.09-.64.18-3.54.79-3.48.03 0-.23.79-.26.87-.13.39-.22.84-.2 1.32.02.58.36 1.31.98 1.16.05-.01.17-.31.19-.39.04-.16.14-.56.27-.5.17.08-.1 1.06-.15 1.22-.13.35-.3.57-.59.76-.41.27-1-.78-1.03-.96m-37.65-.15c-.24.35-.75 1.05-.96 1.09-.19.04-1.47-1.05-1.49-1.24-.04-.26.6-1.12.83-1.22.17-.08.58.25.74.37.19.15.64.51.83.47.03 0 .28-.37.4-.56.12-.18.31-.44.52-.5.25-.07 1.33 1.16 1.55 1.4.26.3-.85 1.39-1.06 1.27-.17-.09-.43-.37-.58-.54-.13-.14-.62-.65-.79-.54m51.49.99c-.04-.12-.12-.36-.12-.36-.04-.15-.17-1.03-.08-1l.04-.36q.03-.2.08-.36c.07-.19.13-.38.2-.56.08-.23.41-1.05.59-1.04.07 0-.14.64-.16.68-.1.19-.29.59-.3.64-.19.68-.02 1.7.52 1.83.17.04.35-.22.4-.34.07-.16.18-.4.26-.34.22.15-.34 1.27-.41 1.36-.37.42-.74.36-1.02-.14m-42.68 1.04c.13-.13 1.79-.9 2.48-1.2l.34-.16.14-.08.18-.08.18-.08.14-.08.26-.14c.16-.08 1.25-.62 1.29-.5.08.24-.22.72-.34.8-.33.21-.97.49-1.41.68-.47.2-.97.45-1.41.68-.18.1-1.02.49-1.51.72-.14.07-.61.29-.66.23-.1-.13.17-.77.32-.79m9.27.74c.17-.45-1.23-1.01-1.75-.86-.19.05-.59.42-.52.6.14.38 1.84.58 2.27.26m23.46 3.95c.26-.42-1.1-.87-1.61-.85-.31 0-.65.35-.77.56-.33.62 1.98.46 2.37.29m-13.77.67c.06-.46-2.12-1.61-2.35-1.44-.24.18-.9 1.47-1.02 1.82-.1.29.07.75.26.9.67.54 3.14-.79 3.11-1.28m-39.39 1.59c-.24-.17-.38-1.32-.38-1.52 0-1.18.4-2.61.85-3.65.53-1.23.27.03.16.52l-.08.28-.12.4c-.1.37-.19.75-.24 1.16-.08.68.09 1.46.43 1.88.22.27.49.24.64-.07.07-.14.28-.59.31-.58.28.11-.15 1.46-.27 1.68-.37.68-.93.36-1.29-.1m36.3-3.64c-.69-.66-1.96-1.85-2.42-2.2-.11-.08-.05-1.43.04-1.65.07-.16.38.09.47.16.03.02.44.18.64.25.46.16 1.23.45 1.46.61.18.12-.04.28-.17.31-.17.04-.43.11-.42.22.01.09.46.41.62.52l.34.24.26.14c.17.12 1.43-1.56 1.59-1.77l.16-.2.23-.31.09-.13c.14-.19.57-.77.69-.74.07.02-.12.76-.15.89-.13.52-.24.81-.46 1.18-.15.24-.32.48-.49.7-.16.2-.51.67-.53.89 0 .02.49.34.64.44.17.11.38.25.52.39.38.38.74.89.81 1.54.05.42-.18 1.56-.38 1.93-.41.72-2.85 2.43-3.91 1.6-.3-.24-.43-.62-.51-1.08-.12-.69.14-1.96.34-2.49.08-.21.15-.4.24-.6.13-.29.34-.78.32-.83m-20.02 5.15c.06-.22.55-1.19.75-1.24s.66.26.91.42c.28.19.74.49.96.43 0 0 .15-.25.15-.25t.16-.26c.12-.2.27-.4.47-.52.27-.17 1.43.84 1.49 1.12.09.4-.47 1.18-.74 1.3-.14.06-.6-.31-.78-.45-.21-.17-.62-.5-1.05-.18l-.16.2c-.09.09-.15.19-.23.29-.06.09-.18.25-.24.26-.27.04-1.7-.95-1.67-1.12m12.27 2.96c-.18-.53-.29-1.2-.29-1.82 0-.38.37-2.49.53-2.66.18-.2.05.91.03 1.08-.04.37-.1.92-.08 1.18.05.57.15 1.82.91 1.75.19-.02.3-.21.34-.38.04-.18.19-.76.33-.64.28.25-.27 1.74-.46 1.88-.24.17-.64.19-.9.03-.04-.02-.15-.13-.18-.16-.1-.12-.22-.25-.24-.26m-21.04 0c.8-.29 1.81-.79 2.68-1.23.17-.08.49-.24.55-.26.17-.07.48-.22.73-.34.34-.17 1.07-.53 1.26-.47.18.06-.23.76-.33.8-.44.16-.92.41-1.34.64-.38.2-.92.44-1.39.64-.51.22-1.59.71-1.67.76-.9.55-1.11.03-.48-.54m53.21-2.09c.31-.04.67-.09.87.02.31.16.6.32.79.3.42-.04.67-.29.9-.51.07-.07.16-.24.23-.37.06-.11.18-.33.3-.27v.17s.03.38.1.38l.15.07c.13.05.22.09.34.1.19.01.32-.04.42-.3l.04-.24.04-.2c.03-.12.2-.57.3-.58.69-.11-.47 2.01-.74 2.19-.19.12-.41.15-.67.06-.24-.08-.54-.18-.81.05 0 0-.25.16-.25.17q-.09.05-.26.12l-.16.06-.24.06c-.06.13-.62-.21-.62-.21-.16-.1-.4-.24-.59-.21-.82.15-1.73.81-2.47 1.36-.38.28-2.27 1.38-2.76 1.14-.05-.03 1.11-.73 1.2-.79.2-.12.41-.26.6-.4.23-.16.45-.33.69-.48.77-.51 2.6-1.65 2.62-1.67m-65.36 3.09c-.17-.08-.53-.3-.77-.44-.08-.05-.3-.19-.34-.23l-.18-.22q-.13-.14-.18-.17c-.28-.18-.86-1.3-.93-1.71-.23-1.19-.15-2.32.12-3.41.07-.3.16-.63.26-.92.1-.31.26-.77.2-1.08l-.17-.23q-.06-.08-.15-.25c-.12-.22-.21-.46-.26-.76-.12-.71-.13-1.51.12-2.25l.04-.24.04-.16c.02-.05.08-.36.12-.52.05-.24.18-.59.28-.88.22-.61.63-1.75.81-1.93.17-.17-.33 1.55-.36 1.69-.22.77-.48 1.69-.48 2.33 0 .81.28 1.6.8 1.98.23.17.4-.1.55-.33.06-.09.1-.2.14-.32.05-.15.15-.42.26-.42.44-.02-.41 2.29-.52 2.45-.08.11-.19.26-.32.28-.39.06-.51.08-.58.3-.13.41-.24.81-.32 1.21-.22.98-.07 2.07.38 2.97.3.6.81.98 1.37 1.32.32.2.69.33 1.09.46.24.08.51.12.81.16.28.04.93.08.93.08l.44-.04.81-.08c.22-.03.45-.07.65-.12.33-.08.63-.16.93-.28 1.3-.52 2.59-1.03 3.62-1.71.27-.18 1.36-1.12 2.23-1.86.3-.25-.14-1.4-.28-1.73-.13-.3-.34-.76-.44-.94-.17-.28-.36-.63-.42-.96-.07-.39.25-1.98.63-1.08.09.23.2.42.32.62 0 0 .26.34.26.34.08.07.2.15.21.17.09.16.76.37 1.02.41.57.08 1.15-.11 1.61-.3.4-.16.78-.49 1.01-.82.18-.26.81-1.14.99-1.12s-.02.57-.05.66c-.08.23-.15.43-.08.64.13.4.46.66.83.82.15.07 1.02.09.99.02l.39-.23c.15-.1.23-.2.33-.34.18-.25.33-.57.45-.87s.24-.57.39-.82c.07-.11.25-.27.31-.07 0 0-.07.38-.07.38q-.06.15.03.35c.16.39.62.7 1.01.88.58.27 1.81.43 2.31-.07.15-.15-.38-1.5-.5-1.78-.28-.64-.53-1.36-.75-2.05-.42-1.34-.96-3.05-.36-4.07.08-.13.96 1.06 1.02 1.16.34.48.98 1.39.91 1.72-.03.14-.44-.13-.45-.14-.15-.1-.24-.16-.44-.13-.08.01.52 1.62.54 1.66.06.18.13.35.2.52l.08.2.08.16c.03.07.11.28.14.36.04.12.09.24.12.36.02.08.07.28.08.36 0 0 .06.45.06.44.24-1.23-.06.76-.06.76-.03.19-.07.43-.12.6l-.04.16-.04.2-.04.16c-.05.21-.11.42-.18.58-.32.67-1.57.9-2.34.72-.69-.16-1.3-.47-1.65-.96-.22-.31-.52.29-.62.5-.17.33-.34.57-.65.76-.52.32-1.16.33-1.74.08-.25-.11-.51-.32-.67-.52-.09-.11-.17-.24-.23-.37-.07-.15-.17-.36-.27-.33 0 0-.15.2-.18.23-.08.11-.17.21-.27.31-.19.19-.38.38-.77.53l-.16.06c-.15.05-.32.1-.48.14l-.4.08c-.33.02-.67.04-.73.1l-.06.44-.04.36-.04.32-.04.2c-.06.47-.11.85-.26 1.2-.2.44-1.34 1.53-1.76 1.81-.55.37-1.1.73-1.65 1.04-.32.18-.69.39-.97.52l-.16.08q-.1.05-.26.12c-.18.07-.41.17-.57.26-.37.22-2.03.59-3.18.84-.91.2-2.27.01-3.27-.38m12.45.32s.2-.1.3-.16c.04-.02.17-.08.26-.12l.18-.08.2-.08.14-.08.18-.08.16-.06.24-.12.28-.12.16-.06q.2-.09.24-.1c.16-.06.82-.34 1.19-.5l.26-.14.32-.12c.24-.08.78-.28.79-.27.18.03-.15.84-.31.88-.81.2-2.18.82-2.94 1.22-.19.1-.39.2-.6.28-.28.11-.73.29-.87.36-1.04.52-.49-.47-.2-.64m35.5-.92c-.14-.45-.28-.96-.32-1.44-.02-.22 0-.89.04-1.14.02-.18.09-.66.06-.7-.06-.09-.75.4-.81.44q-.09.05-.36.24l-.24.16c-.41.3-.84.61-1.31.84-.99.49-2.08 1.07-3.04 1.66-.53.33-6.44 1.78-7.02 1.67-.63-.12 2.54-1.28 2.62-1.3.53-.19 1.1-.39 1.59-.62.28-.13.54-.26.83-.4l.12-.08.16-.08.16-.08c.16-.09.17-.1.32-.18l.16-.06.14-.08c.16-.09.18-.1.26-.14.15-.07.31-.16.52-.3l.16-.08.3-.16.22-.14.26-.14.14-.08c.14-.07.45-.24.45-.24.12-.08.27-.16.42-.24 0 0 .07-.04.26-.16.13-.08.27-.17.4-.24l.16-.08.28-.16c.14-.08.32-.2.4-.24.14-.08.48-.32.7-.48.2-.14.6-.43.74-.49.63-.29 3.33-2.49 3.42-3.08.02-.12-.24-.69-.3-.81-.04-.06-.16-.27-.24-.4-.05-.09-.13-.24-.2-.38l-.77-1.39c-.15-.3-.44-1.03-.65-1.57-.34-.87-.3-1.13-.1-2.19.05-.24 2.06 1.85 2.21 2.11.13.23-.23.16-.3.14-.21-.05-.41-.1-.54-.03-.16.09.68 1.45.74 1.54.33.49.67 1.05.79 1.73.1.62.15 1.72-.12 2.33-.14.3-.58.89-1 1.43-.14.18-.4.4-.62.58-.24.2-.62.51-.69.69-.18.44-.18.99-.18 1.59 0 .52.28 1.09.55 1.38.33.37.72.81 1.17.94.49.15 1.1.22 1.69.22.8 0 1.77-.44 2.34-.74 1.06-.56 2-1.32 2.87-2.08.39-.34.8-.75 1.19-1.15.2-.2.41-.42.83-.9.04-.04.15-.18.15-.19l.14-.22c.17-.17-.1-.59-.22-.65-.06-.03-.49.11-.59.14-.17.05-.39.11-.58.13-.47.05-1.6.16-1.78.16-1.48 0-1.98-1.67-1.43-3.03.32-.8.95-1.56 1.94-1.67.44-.04 1.3.37 1.53.62l.13.09.2.2c.14.14.26.27.38.43.21.28.64.85.8.86.29 0 1.84-1.11 2.09-1.34.24-.22.53-.47.83-.63.16-.09.48-.2.5.08l.02.68-.04.26c0 .14.08.35.14.5.12.32.7.82 1.05.92.48.14.96.27 1.42.14.67-.19 1.01-.41 1.48-.75.32-.23.56-.67.73-1.04.21-.45.54-1.13.83-1.36.37-.3.15.51.1.62-.14.29-.34.73-.24.9.12.21.32.37.69.6l.2.08.12.08c.3.3 2.46.5 1.52-.75-.24-.33-.4-1.66.17-1.94.27-.13.73 1.34.79 1.69.16.95-.1 1.65-.5 2.41-.33.62-1.55.67-2.2.4-.32-.13-.68-.35-1.12-.78-.03-.02-.12-.17-.15-.21-.1-.15-.11-.16-.18-.22-.06-.05-.24.24-.26.28-.1.19-.24.43-.34.54-.11.12-.27.29-.34.36q-.08.06-.21.15c-.09.06-.15.1-.22.16-.28.25-1.18.45-1.63.5s-1.11-.19-1.45-.42c-.26-.18-.47-.42-.65-.68-.12-.17-.2-.38-.26-.6-.05-.15-.2-.73-.26-.68-.21.16-.54.42-.55.43l-.26.17s-.36.29-.51.4c-.11.08-.22.17-.33.26-.18.14-.55.44-.56.47-.04.21-.04.29-.04.44 0 .1-.05.59-.08.84-.04.37-.11.64-.26.88l-.08.16-.08.16-.16.24c-.12.16-.5.63-.5.63l-.08.13-.12.1-.16.17-.18.23c-.11.11-.25.25-.28.32-.17.39-2.67 2.34-3.16 2.55-.12.05-.33.19-.46.28-.1.07-.34.19-.51.28-.22.12-.8.31-1.25.46-.52.17-1.58.27-2.06.12-.97-.3-2.37-.97-2.52-1.99m-32.71 2.8c-.11-.25.55-.4.78-.45l.61-.12c.21-.05.49-.12.89-.24l.16-.06c.23-.08.59-.2.69-.22.38-.11.73-.21 1.09-.32 0 0 .24-.08.36-.12q.12-.04.28-.1t.28-.1l.2-.06.28-.1.36-.12.16-.06c.18-.06.44-.15.77-.26l.36-.12.24-.12.16-.04.16-.04.16-.06.2-.06c1.55-.51 6.81-3.14 6.96-4.45.05-.4-.23-1.11-.4-1.59-.05-.14-.09-.24-.14-.34-.07-.14-.19-.38-.22-.46-.1-.25-.19-.52-.24-.78-.05-.24.16-1.17.32-1.28.07-.05.33.5.39.64q.05.1.23.39l.2.16c.09.16.82.36 1.16.45.47.12 2.06-.13 2.64-.36.31-.12 1.36-.6 1.39-.82.06-.45-.66-.71-1.07-.82q-.15-.04-.44-.04l-.4.02-.24.02c-.48-.02-1.37-.05-1.53-.14-.39-.22-.69-.4-.87-.72-.19-.34-.19-1.11-.08-1.48.08-.3.21-.55.36-.78l.07-.15c.04-.09.08-.14.16-.26l.09-.13c.12-.14.15-.18.16-.2.08-.17.8-.55 1.04-.63.37-.12.9.06 1.21.26 1.77 1.13 3.11 4.11 1.75 6.6-.2.37-1.33.86-1.79 1.01-.36.12-.79.23-1.21.28-.39.05-.84.08-1.19.08-.03 0-.8.05-.73.1.16.11-.39 2.3-.5 2.55-.3.63-1.46 1.45-2.22 1.99-.4.28-.84.56-1.26.82-.22.13-.45.26-.67.37l-.14.06-.14.08-.18.08c-.12.06-.31.16-.38.2-.17.1-.58.27-.81.36 0 0-.84.36-1.21.52-.16.07-.74.27-1.09.38-.13.04-.27.09-.4.14q-.21.08-.32.1c-.07.01-.35.07-.36.08-.14.09-.82.16-.93.16-.65 0-1.11.03-1.76.08-.53.04-1.18.1-1.71.16 0 0-.49.08-.68.12-.22.04-.83.13-.98-.04" fill="#1d1d1b" fill-rule="evenodd"/></svg>