<svg viewBox="0 0 91.53 26.99" xmlns="http://www.w3.org/2000/svg"><path d="m25.01 1.61c.03-.08.08-.19.13-.18.02 0 .06.81.06.84-.04.42-.09.98 0 1.05.3.28.62.57.69 1.03.03.15.03.84-.26.9-.06.01-.27-.25-.36-.36-.07-.09-.4-.41-.5-.44-.15-.04-.66.68-.83.92-.46.64-1.06 1.2-1.66 1.7-.63.52-1.33 1.07-2.09 1.45-.8.4-1.71.91-2.46 1.4-.27.18-1.31.48-.48-.16.33-.26.71-.49 1.09-.72.7-.43 1.8-1.11 2.16-1.49.55-.56 1.24-1.13 1.85-1.62.35-.27 1.82-1.56 1.59-2.01-.51-.37-1.14-.83-1.28-1.03-.36-.52.16-2.04.45-2.44.17-.23.5-.41.82-.47.27-.05.56.22.79.54m-23.74 10.46c.07-.15.09-.18.38.09.11.12.18.13.35.17.23.04.43-.26.48-.42l.06-.24.04-.2c.03-.1.07-.26.16-.28.39-.07-.06 1.55-.16 1.77-.1.21-.22.4-.4.52-.05.03-.15.09-.22.1-.3.03-.55.05-.58.11-.91 1.96-.49 4.61.89 5.69.48.38 1.01.64 1.66.86.48.16 1.32.16 2.04.16.38 0 1.21-.26 1.64-.4.24-.08.59-.21.89-.32t.32-.14c.18-.08.39-.17.57-.22.37-.1 1.52-.84 2.1-1.22q.27-.16.27-.17c.15-.11.31-.23.47-.33.14-.1.45-.3.46-.31.16-.14.39-.33.44-.34.19-.05 1.61-1.47 1.61-1.7-.01-.38-.36-1.02-.61-1.49-.03-.06-.12-.25-.18-.4l-.18-.36s0-.02-.14-.32c-.29-.64-1.09-2.64-1.07-2.97.02-.29.26-1.31.44-1.35.05 0 .2.26.26.38.02.04.18.2.28.3l.09.13c.2.24.43.49.65.72.15.16.61.69.64.79.08.33-.02.35-.24.28-.23-.07-.52-.15-.55-.03-.01.05.38.83.49 1.06.18.37.44.88.55 1.12.28.66.59 2.51.08 3.31-.54.84-1.25 1.54-2.15 2.26l-.13.09-.21.17c-.17.14-.35.27-.54.39-.46.3-.92.59-1.21 1.02-.48.71-.8 3.69-.24 4.32l.08.18.14.22.07.15c.13.18.33.39.53.5.98.52 2.46 1.02 3.55.36l.18-.08c.21-.07.38-.11.48-.16.23-.1.46-.21.68-.33.44-.23 1.06-.57 1.36-.83 0 0 .3-.22.45-.32.17-.12.43-.31.54-.41.16-.14.33-.29.5-.42 0 0 .37-.32.52-.45.33-.29 1.59-1.58 1.59-1.93 0-.16-.13-.39-.24-.46-.05-.03-.7.13-.95.19-.55.14-1.03.19-1.65.12-.75-.08-1.45-.39-1.63-1.02-.13-.44-.21-1.37.04-1.89l.06-.16c.07-.19.14-.32.25-.48l.14-.2c.16-.17.28-.31.28-.31.07-.15.78-.37 1.02-.41.41-.06 1.17.3 1.39.54l.34.28s.25.26.37.39c.13.14.25.28.36.44.1.14.35.49.44.51.27.08 1.01-.23 1.08-.27l.17-.07.28-.14.2-.06c.12-.05.38-.16.33-.29 0 0-.44-.25-.54-.31-.22-.12-.44-.26-.64-.41-.33-.24-.63-.47-.9-.77-.53-.6-1.73-2.16-1.39-3.35.23-.78.43-1.49.71-1.92.69-1.03 1.88-1.57 3.26-1.92.83-.21 1.79-.23 2.54-.12.65.1 2.68.66 2.52 1.18-.02.08-.82-.13-.89-.16-.14-.06-.98-.06-1.39-.06-2.34 0-4.49 1.23-5.92 2.24-.62.44.99 2.33 1.24 2.57.47.46 1.1.97 1.78 1.2.63.21 1.31.41 2.01.5.98.13 2.91-.9 4.04-1.51t.22-.12c.13-.07.26-.14.38-.2.07-.04.26-.14.36-.2.14-.08.29-.16.45-.24.48-.26 1.32-.69 1.56-.74.02 0-.32 1.74-.64 1.86-.42.16-.9.42-1.29.64-.43.25-1 .57-1.31.72-.32.16-.79.43-1.17.64-.14.08-.48.24-.7.34l-.16.06-.32.18c-.2.1-1.68.74-2.78 1.23q-.15.07-.24.1s-.31.13-.32.14c-.21.11-.44.22-.67.32q-.16.07-.26.1t-.32.14c-.24.12-.76.38-.77.4 0 0-.12.6-.14.72-.04.25-.07.48-.12.64-.11.4-.22.73-.39 1.04-.93 1.69-3.31 3.45-5.01 4.42-.65.37-1.52.68-2.36.78-.56.07-1.13.08-1.69-.08-.08-.02-.22-.08-.28-.1l-.57-.28-.47-.33c-.24-.19-.43-.35-.58-.63-.41-.76-.71-1.64-.71-2.73 0-.69.09-1.23.2-1.85l.08-.36.04-.16c.04-.2.15-.69.1-.76-.03-.05-.71.29-.73.3-.14.07-.28.13-.42.18-.15.06-.34.15-.51.22-.58.26-1.29.49-1.98.6-.95.16-1.53.25-2.3.12-.71-.12-1.32-.24-1.81-.59-.26-.19-.58-.41-.74-.59-.12-.13-.35-.37-.39-.42l-.18-.25c-.06-.09-.14-.2-.16-.21-.23-.11-.69-1.7-.73-2.14-.09-.95 0-2.04.24-3.01.16-.65.43-1.78.42-1.95 0 0-.27-.5-.28-.52-.08-.12-.15-.59-.18-.82-.13-1.03.06-2.24.32-3.29.04-.16.08-.36.12-.52q.04-.18.08-.32l.08-.32c.06-.26.22-.89.46-.85.01 0-.13.79-.14.85-.02.14-.11.46-.16.68-.16.62-.4 1.63-.32 2.19.06.43.2 1.3.2 1.3 0 .16.1.68.1.68m86.34-9.73c-.42-.3-.87.25-.81.6.02.12.76.64.93.66.62.1.09-1.12-.12-1.26m-62.91 1.26c.12-.55-.71-1.61-1.11-.88-.18.33.07.53.3.68.2.13.74.48.81.2m36.18-.82c-.17-.22-.86.15-.66.56.11.21.49.52.73.56.32.05.07-.99-.07-1.11m-22.95 1.78c-.17-.49.31-2.63.74-2.7 0 0-.15.7-.17.78-.1.44-.19.97-.04 1.4.03.08.23.41.3.42.27.05.28.03.36-.14.07-.14.16-.33.24-.33.25 0-.13 1.32-.61 1.39-.52.09-.69-.42-.83-.82m38.22-.72c-.06-.34-.01-.74.13-1 .13-.23.72.04.84.11.46.26.98.69 1.34 1.18q.05.05.15.19s.2.24.27.33c.06.08.58.69.59.67.04-.06.04-1.21.04-1.64 0-.38.03-.82.16-1.21.12-.37.49-.99.81-1.16.19-.1.51-.19.68 0 .28.31.87 1.06.32 1.54-.09.07-.39-.23-.47-.31-.13-.12-.34-.34-.47-.33-.28.02-.47.26-.55.5-.01.06-.04.91-.04 1.23 0 .77-.05 1.72-.16 2.56-.03.26-.1.77-.47.59l-.02-.2-.06-.16c-.08-.2-.2-.38-.34-.57-.35-.5-.74-1.07-1.14-1.4-.19-.15-.2-.16-.42-.13-.16.03-.43-.11-.56-.19-.27-.16-.48-.32-.65-.59m-33.24 3.11c-.23-.25-.32-1.07-.3-1.49.03-.78.44-3.22.87-3.79.36-.47-.01 1.31-.02 1.32-.11.38-.43 1.68-.32 1.89l.06.32.02.16c.04.2.12.39.22.54.11.17.4.55.66.36.04-.03.14-.28.15-.3l.06-.16s.08-.22.1-.24c.42-.56-.12 1.56-.29 1.8-.29.4-1.14-.1-1.2-.41m-13.05-.34c-.14-.62.27-4.36.84-4.67.34-.19-.05 1.06-.09 1.18-.17.51-.3 1.12-.34 1.71-.05.61.31 1.66.9 1.54.08-.02.17-.27.21-.39s.14-.41.2-.42c.37-.05.02 1.13-.06 1.39-.09.29-.39.76-.75.7-.23-.04-.58-.55-.91-1.02m35.15.07c.46-.54 8.08-4.93 8.08-4.93.21 0 0 .64-.04.77-.06.19-1.67 1.14-2.06 1.36-.8.46-1.59.94-2.34 1.44-.72.48-1.48.95-2.22 1.37-.4.23-.8.46-1.16.73-.05.04-.41.3-.44.23-.05-.13-.05-.92.19-.96m-50.67-1.72c0-.09.23-1.11.36-1.73.06-.28.32-1.45.55-1.45.06 0-.21 1.52-.22 1.61-.12.66-.25 1.38-.16 1.88.08.44.53 1.41 1 1.18.03-.01.15-.33.17-.37.08-.3.08-.32.08-.32.28-.79.33.29.28.6-.06.38-.45 1.39-.75 1.43-.42.05-.93-.52-1.07-.82-.12-.25-.22-.56-.24-.88v-.88c0-.06 0-.24 0-.24m46.07-.12c.02-.06-.17-.28-.31-.43-.15-.17-.29-.38-.37-.61-.3-.83.56-1.68.99-2.11.17-.16.55.04.61.2.09.29.22.7.22.86l-.04.4v.16l-.04.28c-.02.17-.05.58.03.64.25.18.84.63.9.85.08.29 0 .52-.09.78-.01.04-.58-.34-.64-.38-.2-.13-.55-.36-.75-.32-.05.01-.41.44-.48.54-.12.16-.32.36-.49.53-.34.34-.74.74-1.12.98-.75.49-2.26 1.43-2.99 1.53-.49.07 1.05-.94 1.08-.95.43-.26.87-.59 1.25-.92.87-.73 2.06-1.73 2.25-2.04m27.01-.16c.02-.15-.43-.49-.59-.61-.18-.14-.32-.34-.46-.55-.4-.6.6-2.14.97-2.27.3-.1.49.03.68.19.29.25.36 1.33.39 1.88.04.63.08.67.46 1 .25.22.32.61.17.99-.06.15-.46-.14-.55-.2-.15-.11-.33-.22-.53-.24-.05 0-.44.46-.56.61-.21.22-.42.43-.66.62-.44.35-1.49 1.21-1.56 1.28-.57.56-3.62 2.29-4.37 2.14-.12-.02.21-.23.21-.23.13-.08.3-.2.41-.3 0 0 .36-.21.54-.31.14-.08.41-.26.63-.4l.26-.16s0 0 .22-.12l.34-.24.71-.48.13-.09c.11-.08.22-.16.33-.23.17-.11.46-.31.5-.33.04-.03.07-.05.45-.31.1-.07.28-.22.41-.33.23-.19.73-.61.77-.64s.18-.17.24-.24l.12-.08.18-.18.15-.17zm-80.51 2.81c.14-.61-1.02-2.07-1.36-2.44-.15-.16-.27-.26-.52-.27-.22-.01-.49-.16-.77-.3-.51-.27-.63-.88-.26-1.42.28-.4 1.71.84 1.84 1 .18.21.41.51.6.77q.1.14.15.23l.16.24c.14.21.34.51.36.51.08 0 .06-.85.06-.85v-.58c.03-.38.09-.84.2-1.18.11-.36.33-1.01.67-1.1.5-.14.67.03.94.37.11.14.26.32.29.54.03.21-.01.33-.18.6 0 .15-.63-.24-.63-.24-.18-.11-.31-.18-.55-.22-.2-.03-.28.25-.3.46v1.27c-.02.5-.1 1.17-.2 1.67-.18.88-.38 1.56-.75 2.21-.15.27-.55.63-.88.93-.22.21-1.28 1-.56.1.62-.77 1.54-1.91 1.66-2.27m52.36 2.53c-.08-.1.1-.53.18-.72.05-.13.13-.27.2-.38l.09-.13c.05-.06.11-.14.11-.17 0-.27.89.36.89.36.19.14.58.42.77.36.08-.03.29-.44.34-.56.08-.17.25-.51.4-.56.32-.1 1.49.85 1.57 1.16.1.39-.39 1.03-.65 1.38-.03.03-1.22-.8-1.29-.86-.24-.17-.36.06-.5.32-.14.25-.42.79-.46.82-.25.2-1.65-.92-1.66-1.02m-20.53.4c-.17-.58.1-1.34.28-1.85.07-.19.13-.37.22-.5q.04-.07.39-.55.41-1.01.07.17c-.02.07-.11.27-.16.4l-.06.14-.16.28c-.06.13-.13.29-.14.46-.04.42 0 .71.18 1.06.05.1.16.27.28.3q.27.07.37.3l.02-.26c.01-.05.05-.15.12-.32.06-.15.21-.51.3-.48.31.09-.4 1.68-.81 1.75-.54.09-.83-.46-.91-.9m35.12.48c-.17-.09-.37-1.27-.3-1.3l.04-.42.08-.4c.05-.22.09-.44.16-.64.12-.37.33-.97.52-1.17.14-.14-.23.96-.24 1-.12.37-.16.88-.16 1.25 0 .56.41 1.24.97 1.18.11-.01.2-.32.24-.45.04-.14.15-.54.23-.5.48.22-.47 1.9-.62 1.96-.3.12-.69-.26-.93-.5m13.63.16c-.14-.39-.29-.94-.18-1.41.2-.83.36-1.5.73-2.14.22-.37-.13.84-.15.88-.22.43-.32 1.01-.14 1.55.09.26.24.71.55.66.2-.03.3-.17.38-.31.07-.13.23-.43.27-.43.11.02-.09.76-.12.84-.08.21-.17.41-.28.58-.36.56-.81.18-1.05-.22m-49.64 3.28c.7-.48 3.01-1.41 4.42-1.97.81-.32 1.6-.65 2.38-1.02.22-.1.72-.32 1.09-.48l.34-.16q.12-.06.26-.12c.13-.05.63-.26.67-.21.18.18.02.61-.07.82-.06.13-2.04.96-2.46 1.12-.21.08-.92.39-1.31.56l-.3.1s-.02.01-.32.14c-.22.1-.51.21-.77.32l-.36.16-.2.08-.2.08-.36.16s0 0-.28.12c-.17.07-.43.18-.54.24-.08.04-.5.22-.75.32-.38.16-.82.34-1.15.56-.64.43-.3-.64-.09-.82m-30.45.72c.03-.33.36-1.25.62-1.36.16-.07 1.02.48 1.23.62.56.37.54.66.14 1.2-.34.46-.42.57-.81.4-.2-.09-1.22-.67-1.19-.86m70.32 1.89c-.09-.27-.71-.61-1-.73-.32-.14-.78-.03-1.01.1-.24.14-.72.57-.2.76.31.12 2.2.23 2.21-.13m-34.94 1.26c-.37-1.07.22-2.75.8-3.49.11-.15-.12.57-.15.64-.12.34-.22.7-.28 1.1-.07.45.17 1.41.44 1.6.18.13.35 0 .43-.15.11-.22.28-.51.4-.5.13.01-.15.84-.18.92-.11.31-.37.73-.7.78-.4.06-.64-.59-.75-.9m-22.8.98c.08-.31-1.03-1.02-1.42-.92-.24.06-.73.26-.75.5-.04.66 1.67.51 2.17.42m41.59-2.7c-.44.53-.9 1.28-1.04 2.04-.04.25.2.69.38.76.14.05.45.04.93.02.2 0 .86-.42 1.17-.62.16-.11.32-.21.48-.33l.2-.16q.14-.12.18-.14c.48-.15-.88-1-.9-1.02-.22-.14-1.21-.67-1.4-.55m-1.34 4.11c-.47-.65-.3-1.89-.12-2.79.06-.29.17-.59.28-.84.07-.16.17-.34.24-.48.08-.14.15-.32.18-.48.02-.11-1.04-.93-1.23-1.08s-1.23-1.12-1.27-1.32c-.11-.53-.12-1.02.05-1.54.04-.12.25.03.26.04.13.1.24.17.52.27q.12.04.28.1l.28.1.16.06c.24.09.93.36.93.36.13.07.28.27.08.36-.26.11-.54.23-.54.26-.02.12.96.74 1.11.81.38.16.47.02.65-.26.11-.18.27-.39.4-.58l.19-.23.09-.13q.12-.21.17-.27c.15-.18.3-.38.43-.57.21-.32.71-1.04.87-1.1.41-.17-.5 2.03-.5 2.03-.15.25-.31.51-.49.73-.19.24-.46.6-.54.89 0 .04.66.51.85.64.17.12.33.24.46.4.08.11.34.41.34.41.58.57.29 2.16.03 2.8-.29.7-2.12 1.84-3.07 1.95-.38.04-1.03-.22-1.09-.52m-7.04.66c.11-.4-.48-.79-.75-.92-.25-.12-1.5-.31-1.44.01.05.26.63.63.85.75.15.08 1.31.59 1.33.16m.62-19.95c.45.34 1.99 4.93 1.82 5.1-.11.12-.38-.21-.45-.3l-.23-.34-.17-.23c-.3-.13-.14 1.1-.09 1.44l.04.24.04.4.04.24q.04.24.08.52c.27 1.91.52 3.8.77 5.74.05.38.1.79.16 1.17l.04.24.04.44.04.16q.04.16.08.44c.12.87.24 1.92.24 2.69 0 .61-.11 3.69-.66 3.91-.11.05-.25-2.95-.26-3.19 0-.2-.24-2.17-.36-3.13-.25-2.01-.52-4-.81-5.98-.24-1.71-.5-3.96-.67-5.58l-.02-.36v-.28c-.02-.32-.06-.78-.08-.98l-.12-.5c-.02-.07-.08-.24-.08-.28 0-.3.42-1.67.61-1.58m-14.87 21.61c-.65-.15-1.26-.65-1.73-1.04-.25-.2-.77-1.07-1.19-1.77-.22-.36-.38-1.1-.48-1.65 0 0-.14-.55-.2-.8l-.08-.4-.04-.28c-.03-.22-.07-.55-.08-.6 0 0-.08-.97-.16-2.13l-.04-.4q0-.07-.04-.68l-.04-.56v-.24q0-.19-.04-.68c-.13-1.57-.26-2.84-.44-4.45-.04-.39-.23-1.47-.4-2.53-.06-.35-.14-.69-.24-1-.09-.28-.29-.89-.2-1.08l.12-.32.08-.32c.08-.21.22-.59.29-.69.27-.38.94 2.92.96 3.06.36 1.81.61 4.17.61 6.14 0 1.75.31 7.25 1.4 8.82.27.39.8.9 1.3 1.39.96.94 3.07.82 4.51.69 1.23-.11 5.54-1.54 6.14-2.13.01-.01-.26-1.54-.32-1.82-.05-.28-.11-.57-.16-.84-.08-.39-.14-.76-.2-1.16s-.11-.79-.16-1.2l-.04-.32-.04-.4c-.04-.31-.08-.65-.12-.94l-.36-3.13c-.15-1.06-.35-3.41-.49-4.92-.03-.32-.08-.79-.16-1.12q-.04-.16-.1-.3c-.07-.17-.12-.32-.1-.54.03-.32.4-1.43.62-1.42 0 0 1.07 2.17 1.13 2.3.31.73.92 2.17.8 2.36-.11.17-.52-.34-.57-.41-.12-.15-.35-.43-.47-.44-.14 0 .22 3.15.26 3.54.16 1.4.35 2.93.52 4.21.17 1.24.37 2.47.57 3.65.09.52.4 2.13.64 2.26.02 0 .42-.09.67-.15.26-.07 1.25-.24 1.37-.12 0 0 .34.09.38.1.11.03.29.08.46.18l.14.06.13.09c.15.12.18.15.2.16 1.1.51.44 3.6-.44 4.09-.64.36-1.7-.19-2.19-.58-.26-.2-.44-.43-.65-.68q-.05-.06-.15-.21l-.18-.21s-.15-.26-.15-.26c-.09-.16-.11-.19-.18-.25-.12-.12-1.27.42-1.42.49-.27.13-1.11.48-1.63.7-.92.38-1.96.7-2.99.92-1.16.26-3.6.49-4.64-.02m46.55-1.46c.34-.13.64 0 .87.14.3.18.48.29.87.14.4-.15.95-.68 1.01-1.14 0-.08.17 0 .19.15.02.16.04.4.08.43.21.14.55.21.78.11.02-.01.13-.39.22-.72.03-.1.14-.31.22-.44l.07-.13c.1-.23.07.84 0 1.1-.07.21-.16.46-.26.64l-.15.25-.2.16c-.06.1-.37.18-.5.17l-.24-.06-.41-.14c-.18 0-.26.03-.45.21-.07.07-.12.12-.21.17-.23.12-.46.2-.73.26-.17.04-.44-.11-.57-.18-.24-.14-.43-.24-.74-.22-.24.02-1.46.83-2.36 1.42-.51.34-2.11 1.36-2.72 1.17-.25-.08.2-.26.2-.26.17-.07.39-.16.48-.22l.61-.4c.19-.13.52-.35.6-.41.2-.17.44-.35.67-.48.43-.27.82-.57 1.21-.89.39-.31.9-.72 1.48-.81m-37.94 3.63c-.09-.64.04-1.16.2-1.69.05-.15.2-.46.3-.66 0-.01.3-.46.31-.48h.15s-.02.18-.03.21c-.04.13-.11.32-.14.38-.18.33-.25.65-.3 1.06-.04.34.13.92.39 1.08.12.07.33-.03.45-.15q.07-.07.15-.23c.06-.13.08-.17.21-.15.09.01-.15.58-.17.63-.09.2-.17.39-.29.53-.59.69-1.02.03-1.22-.55m-15.28.27c-.3-1.06-.48-1.97-.21-3.2.08-.36.21-.88.32-1.32.08-.3.29-1.16.42-1.18.31-.05-.03 1.28-.1 1.58-.15.59-.24 1.36-.24 1.81s.43 1.97.98 1.52c.12-.09.17-.31.23-.55.03-.12.12-.4.18-.48.2-.26.26.6.26.6-.02.28-.12.6-.22.84-.19.45-.34.71-.73.96-.1.06-.73-.44-.9-.57m37.45.6c-.89-.3-1.7-1.43-1.92-2.43-.07-.31-.15-.79-.12-1.14.03-.36.09-1.21.08-1.4 0-.09-.7.38-.76.41-.24.16-.52.35-1.05.72-.12.08-.37.25-.37.25-.05.04-.27.2-.41.29l-.26.14c-.49.33-1.01.64-1.53.92l-.14.06q-.12.05-.36.2l-.28.14c-.27.14-.74.4-.85.46-.36.23-6.29 1.65-6.68 1.6-.42-.05 1.24-.79 1.32-.82.6-.22.94-.35 1.57-.64q.16-.08.28-.12c.17-.06.47-.18.52-.2.17-.07.61-.29.91-.44l.26-.12c.11-.06.27-.14.38-.2.27-.15.62-.35.85-.44 1.77-.71 8.81-5.38 8.99-6.58.05-.29-1.12-2.23-1.47-2.79l-.22-.38-.06-.16-.08-.2q-.09-.17-.12-.28c-.07-.22-.15-.43-.24-.64-.37-.84-.4-1.14-.15-2.24.04-.19 1.28.99 1.42 1.14 0 0 .21.21.32.32.13.13.25.26.36.41.04.05.21.28.13.34-.03.02-.29-.02-.38-.04-.05 0-.42-.07-.46 0-.08.18.62 1.3.78 1.54.29.43.69 1.04.79 1.57.08.44.14.86.08 1.26-.03.2-.1.81-.08.91.07.44-.69 1.35-1 1.72-.11.14-.47.46-.71.66-.3.26-.55.48-.65.73-.2.5-.23 1.18-.1 1.67.12.46.31 1.15.6 1.31l.18.23c.09.1.2.19.31.27.21.15.44.27.71.38 2.17.9 5.77-1.47 6.75-2.68 0 0 .42-.41.58-.56.21-.2.42-.4.63-.61.18-.18.36-.39.53-.58l.18-.22.1-.14q.14-.17.15-.19c.03-.06.11-.19.14-.22.16-.16-.05-.54-.15-.63-.08-.07-.4.03-.6.09-.17.05-.5.11-.77.16-.57.1-1.41.25-1.69.16q-.15-.05-.28-.08l-.16-.04-.16-.04q-.11-.03-.28-.14l-.15-.09c-.12-.09-.18-.14-.18-.14-.56-.17-.37-2.07-.17-2.54.17-.4.37-.69.66-.97.13-.13.29-.29.39-.35.07-.04.25-.15.26-.16l.2-.06.32-.06c-.07-.04.65.09.85.16.23.08.42.2.6.33.43.31.75.69 1.1 1.11.51.6.61.64 1.34.11.13-.1.39-.26.57-.39.24-.16.45-.31.65-.49.31-.28.87-.77 1.26-.81.2-.02.19.61.18.86 0 .36 0 .78.3 1.02q.07.1.17.19c.13.11.26.22.41.31.44.27 1.1.35 1.59.27.38-.06.74-.18 1.05-.38.16-.11.34-.23.47-.33l.21-.2.18-.22s.45-.8.55-1.04c.1-.21.57-1.17.8-1.08.2.08-.02.58-.07.7-.11.25-.3.68-.24.84.11.31.74.67 1.05.78.28.1 1.78.42 1.79-.16 0-.14-.22-.53-.31-.65-.13-.19-.24-.35-.26-.45-.02-.13.24-1.11.34-1.44.06-.18.36.27.36.28.08.12.16.28.22.4.23.46.27.93.32 1.56.06.71-.17 1.73-.71 2.09-.57.39-2.01.42-2.6-.16l-.13-.09c-.11-.08-.21-.17-.3-.26-.12-.14-.29-.33-.36-.49-.02-.05-.54.71-.57.75-.05.07-.45.55-.56.49l-.04-.14-.02.24-.14.1c-.12.09-.26.17-.41.24-.28.14-.65.26-1.01.3-.52.06-.92.02-1.39-.18-.41-.17-.78-.47-.99-.84-.1-.18-.2-.36-.26-.56-.05-.17-.24-.77-.3-.72-.43.3-2.11 1.62-2.16 1.81-.02.08-.03.23-.04.4l-.04.74c-.03.27-.1.62-.22.9-.47 1.14-3.47 4.26-4.54 4.69-.17.07-.66.4-.92.58-.33.23-.88.41-1.36.57-1.11.37-2.03.19-3.11-.04m-45.35.15c-.4-.19.01-1.14.13-1.41.09-.21.2-.42.33-.6.16-.21.33-.45.31-.57 0-.04-.25-.19-.32-.24-.13-.08-.2-.17-.28-.3-.16-.26.36-.95.5-1.12.11-.13.22-.27.32-.38l.24-.21.23-.15c.13-.13.57.11.72.19.26.14-.18.94-.36.93-.07 0-.26-.1-.31-.15-.1-.09-.18-.17-.21-.17-.14 0-.41.22-.42.34-.01.17.47.35.66.38.38.07.75-.2 1-.39.19-.14.67-.49.78-.41.26.18-.95 1.19-1.16 1.36-.58.46-1.17.93-1.51 1.34-.97 1.16 1.07 1.01 1.82.79.44-.13.85-.3 1.23-.5.33-.17.91-.47 1.07-.48.3-.02-.74.9-.74.9-.37.29-.69.53-1.16.75-.68.32-2.36.77-2.87.09m-22.09.2c.09-.03.53-.26.74-.37.24-.13.48-.24.75-.34l.24-.12.16-.06.14-.08.3-.14.24-.12c.14-.06.29-.13.36-.16.52-.2 1.15-.51 1.69-.78.47-.23 1.38-.67 1.57-.69.22-.02-.01.64-.08.75-.05.09-.17.14-.36.22-.2.09-.4.18-.59.28-.54.29-1.38.64-2.08.94-.36.16-.83.36-1.09.5-.14.08-.3.16-.45.22-.17.07-.48.2-.48.2-.3.14-1.05.5-1.05.5-.51.35-.14-.68-.03-.76" fill="#1d1d1b" fill-rule="evenodd"/></svg>