<svg viewBox="0 0 81.09 27.32" xmlns="http://www.w3.org/2000/svg"><path d="m18.14 3.54c.29-.13 1.17-.63 1.67-.92.53-.31 1.14-.6 1.7-.84.12-.05.54-.26.79-.38.29-.14.57-.27.85-.4.37-.17 1.93-.81.98.33-.02.03-.28.14-.46.21 0 0-.29.14-.36.18l-.81.44c-.34.17-.66.32-1.01.46-.18.07-.37.16-.52.24-.1.05-.43.2-.64.3-.55.25-1.16.53-1.63.82-.19.12-.78.47-.92.39-.05-.03.13-.81.38-.83m32.43.04c-.02-.24-.36-.18-.48-.11-.19.1-.33.24-.29.47.04.26.51.6.73.66.29.08.09-.9.04-1.02m26.78.41c-.35-.33-.89-.03-.94.39-.03.23.66.64.87.76.67.39.23-.96.07-1.16m-71.56 1.69c-.17-.61.13-1.59.36-2.05.1-.21.72-1.44.73-1.43.01 0-.18.49-.19.51-.05.12-.09.25-.14.4l-.06.16q-.06.16-.1.28c-.04.11-.11.4-.16.6-.17.65.16 1.59.64 1.67.15.02.32-.16.38-.26.12-.2.26-.41.26-.41.27-.14-.18 1.01-.18 1.02-.11.21-.4.5-.65.58-.51.16-.84-.68-.91-1.06m8.51.8c.06-.37.42-.9.63-1.2.2-.28 1.25.77 1.3 1.04.07.34-.55 1.46-.82 1.43-.16-.02-1.16-1.1-1.12-1.27m-5.68 1.37c-.53-.39.08-1.87.43-2.15.7-.56 1.58-1.06 2.45-1.55.39-.22.85-.48 1.21-.66.48-.24 1.25-.63 1.45-.74.81-.47 1.73-.93 2.62-1.3.2-.08.42-.17.57-.24q.13-.06.28-.14c.14-.07.3-.16.36-.18.16-.06.7-.25.71-.06 0 .19-.14.68-.32.72-.14.04-.4.16-.56.24l-.14.08-.14.08c-.16.08-.35.16-.52.24l-.18.08-.2.08-.18.08-.16.08-.18.08-.18.08-.16.08-.18.08-.16.08-.12.06c-.89.38-1.81.86-2.6 1.39-.02.01-.37.19-.54.28l-.36.22-.14.06-.16.08c-.12.06-.91.51-1.35.76-.37.21-.74.48-1.05.76-.19.17-.25.4-.03.6 0 0 .25.16.25.17.14.08.39.22.4.23.16.14-.15.63-.34.64-.16 0-.71-.15-.73-.29m45.71-.21c.04-.07.58-.4.85-.56 0 0 .45-.26.69-.4l.14-.08s0 0 .26-.16c.25-.16 1.36-.79 2.1-1.2.13-.08.3-.17.42-.24l.14-.08.14-.08.16-.08.14-.08s.05-.03.24-.12l.28-.16c.18-.11.37-.22.55-.32l.22-.14.14-.06.18-.08c.15-.08.37-.22.54-.32.33-.2.92-.55 1.11-.62s.16.16.14.26c-.03.25-.1.61-.32.68 0 0-.6.38-.71.44l-.26.16c-.35.21-.71.42-1.09.6-.8.39-1.62.86-2.28 1.32-.13.09-.69.4-1.01.56-.38.2-.88.47-1.13.64l-.24.12-.24.16-.14.08-.16.08q-.1.05-.38.24l-.14.08-.21.18c-.21.1-.22.04-.24-.13l.04-.44.06-.24zm12.83-1.81c-.68 0-1.23-.26-1.43-.84-.24-.7.2-1.17.81-.88.32.15.71.49 1.02.77.24.21.46.51.65.77.11.16.21.31.32.48.1.16.34.55.42.56.08 0 .13-1.82.13-1.94 0-.21.09-.7.2-.96.19-.49.56-1.08 1.11-1.22.5-.13 1.04.72.91 1.22-.08.3-.29.7-.52.28-.11-.2-.37-.51-.64-.5-.26 0-.44.24-.52.46-.08.21-.08.66-.08.86 0 .43-.01.97-.04 1.4-.03.44-.09.87-.2 1.39-.02.08-.2.92-.34.86q-.12-.05-.14-.14c-.04-.16-.08-.36-.14-.5-.12-.28-.32-.57-.49-.82 0 0-.37-.52-.47-.67l-.35-.43-.18-.15zm-17.44-.59-.16-.2c-.12-.16-.23-.37-.29-.57-.23-.72.56-1.7.92-1.98.42-.33.77.09.85.45.08.37.04.82 0 1.21-.03.27-.09.87.03.92.19.07.77.6.82.81.07.27-.02.5-.11.76-.03.09-.53-.27-.59-.32-.25-.18-.58-.43-.79-.39-.03 0-.15.15-.19.19-.08.1-.26.3-.28.32-.18.2-.36.39-.57.56-.41.36-.84.73-1.26 1.01-.63.42-1.77 1.06-2.51 1.18-.14.02.02-.36.03-.38.04-.08.21-.15.39-.25.19-.1.54-.32.84-.51l.32-.24c.19-.14.46-.33.58-.4.39-.24 2.37-1.58 1.96-2.16m-21.73.23-.12.32-.06.16c-.06.21-.12.43-.16.56-.11.37-.23.72-.24.98-.04.62.23 1.4.83 1.31.06 0 .14-.24.18-.36.06-.17.13-.35.24-.41.27-.15-.14 1.07-.18 1.18-.1.25-.35.73-.68.66-.34-.07-.5-.32-.64-.58-.21-.38-.23-1.02-.14-1.52.07-.37.73-2.38.99-2.29m-14.22 3.47c.04-.3.47-1.05.68-1.24.15-.13.54.19.7.31.21.16.66.53.86.47.07-.02.15-.16.22-.28q.11-.23.14-.28c.11-.17.33-.49.51-.51.22-.02 1.19.92 1.25 1.15.09.37-.58 1.33-.79 1.35-.09 0-.48-.31-.68-.47-.25-.2-.54-.43-.67-.41-.01 0-.2.38-.27.51-.11.22-.25.51-.4.58-.28.14-1.51-.92-1.55-1.18m63.15-2.67c.05-.08-.31-.38-.43-.49-.2-.17-.4-.38-.51-.63-.27-.6.47-2.15.91-2.27.25-.07.49-.07.67.09.34.29.4 1.59.44 2.42 0 .11.2.32.48.62.16.17.31.94.01 1.04-.03.01-.29-.17-.41-.25-.18-.13-.49-.35-.75-.18q-.1.12-.26.31t-.16.18c-.2.22-.58.53-.9.79l-.22.18s-.17.16-.21.18c-.13.08-.56.39-.83.59-.49.35-4.07 2.46-4.6 2.11-.07-.05.7-.54.77-.58.3-.16.68-.37 1.01-.56.63-.36 1.23-.73 1.81-1.12 1.09-.72 2.8-1.87 3.19-2.41m-28.34 4.34c-.04-.35.47-1.08.69-1.3.1-.09.63.28.76.37.27.19.62.44.88.39.01 0 .29-.49.35-.59.07-.13.29-.47.4-.5.39-.11 1.57 1.01 1.51 1.54-.02.21-.6.96-.75 1.05-.07.04-1-.74-1.18-.88-.26-.22-.41.04-.56.29-.14.25-.45.78-.49.8-.27.2-1.59-.99-1.63-1.18m14.34.2c-.01-.49.57-2.67.93-2.65.03 0-.3.91-.3.92-.12.35-.21.74-.24 1.14-.04.51.23.98.47 1.26.12.14.43.22.57.06.07-.08.13-.3.17-.46s.11-.42.21-.42c.25 0-.14 1.74-.7 1.94-.26.1-.53-.09-.72-.29-.17-.19-.6-1.29-.39-1.51m13.74 1.38v-.14l-.04-.34c0-.06.06-.52.08-.62.04-.25.12-.47.2-.68.1-.26.51-1.29.7-1.29.14 0-.32.92-.32.92-.08.14-.14.29-.22.56l-.05.53.05.31.08.28c.06.18.17.39.32.48.24.15.42-.04.51-.18.05-.09.3-.51.32-.5.32.13-.47 1.47-.55 1.53-.63.46-1.03-.32-1.09-.86m-44.94-1.56c1-.36 2.59 2.35 2.92 3 .17.33.2-.64.2-.64v-.94c0-.38.06-.79.16-1.2s.63-1.43 1.19-1.09c.43.26.95.89.52 1.4-.06.07-.44-.16-.56-.23-.18-.11-.34-.2-.6-.18-.3.03-.27.5-.25.65.04.52 0 1.23-.09 1.78-.09.6-.3 1.84-.57 2.06-.08.06-.26-.54-.3-.66-.09-.28-.22-.57-.37-.79-.26-.38-.56-.81-.85-1.12-.05-.05-.4-.37-.4-.37-.37-.06-.75-.13-.81-.16-.43-.21-.66-1.11-.19-1.5m35.12 7.62c-.39-.32-.89-.73-1.01-.76-.52-.16-1.3.02-1.43.5-.09.32.45.41.71.46.3.05 1.69.09 1.74-.2m-42.56.22c.14-.43-1.44-1.56-2.08-.4-.13.24.41.39.59.42.2.04.96 0 1.49-.02m28.69.37c.16-.48-1.77-1.56-2.19-1.64-.18-.04-1.08 1.53-1.15 1.78-.32 1.16.73 1.34 1.59.96.34-.15.65-.34.95-.52.12-.08.37-.23.48-.32l.32-.27zm-47.56-5.55c.02-.25.17-.77.38-.78.35 0 1.38.88 1.59 1.13.2.24.37.49.55.76.11.17.21.33.32.5s.27.44.34.47c.12.05.17-.84.17-.89l-.04-.54-.04-.36c-.01-.19 0-.45.04-.68.09-.41.42-1.26.73-1.41.79-.39 1.68 1.11 1.05 1.48-.03.02-.33-.16-.53-.28-.18-.11-.4-.25-.5-.26-.22-.03-.35.18-.34.34l.04.28.04.7s-.18 1.38-.24 1.83c-.11.8-.26 1.39-.54 2.11 0 0-.4.63-.56.88-.08.11-.16.23-.25.33l-.21.18q-.16.14-.18.16c-.16.23-2.28 1.44-2.24 1.06 0-.06.67-.59.89-.76.3-.24.81-.64.95-.79.52-.53 1.46-1.48 1.5-1.85.06-.46-.89-1.83-1.16-2.12-.07-.07-.22-.23-.33-.34-.06-.07-.18-.12-.27-.13l-.2.04-.18-.06c-.26-.12-.85-.62-.76-1m43.94 8.2c-.33-.3-.39-.94-.42-1.31-.04-.53.17-1.54.35-2.03.09-.23.18-.45.28-.66.15-.32.37-.78.38-.84 0-.04-.5-.44-.6-.52-.21-.16-.42-.35-.6-.54-.21-.21-.41-.43-.59-.65-.08-.1-.17-.22-.38-.36-.09-.05-.17-.11-.22-.18-.18-.26-.05-1.45.09-1.74.04-.08.19.06.22.09.09.08.26.18.46.25.09.03.15.05.36.14l.2.08q.18.08.24.1c.25.09.51.21.73.32.51.25.17.38-.27.53-.31.11 1.06 1.14 1.43 1.07 0 0 .5-.66.59-.79.22-.27.42-.54.63-.83.23-.32 1.16-1.52 1.37-1.53 0 0-.22.92-.22.92-.11.42-.2.79-.46 1.14l-.33.45c-.06.08-.15.18-.16.19-.16.23-.52.74-.54.82-.02.06.63.58.88.78s.52.46.67.75c.41.74.5 2.2-.08 2.91-.5.61-3.16 2.63-4 1.43m-5.9-19.34c.14 0 .86 1.87.93 2.07.03.09.37.9.55 1.3.08.19.55 1.29.15 1.24-.08-.01-.33-.3-.39-.38-.11-.16-.31-.44-.46-.39-.14.05.23 3.04.28 3.32l.04.28.04.22c.02.2.08.73.08.78.07.57.12.91.2 1.49.31 2.16.77 5.56.73 6.68-.05 1.15-.17 3.65-.75 4.27-.2.21-.11-.92-.09-1.1v-1.04c0-.5-.11-1.82-.2-2.91 0 0-.07-.68-.08-.72-.03-.25-.08-.68-.08-.68l-.04-.28-.04-.28-.04-.44-.04-.28v-.16l-.04-.24-.04-.32c-.04-.32-.09-.67-.12-1l-.04-.4-.04-.36-.04-.28-.04-.36-.04-.28c-.04-.39-.09-.82-.16-1.28-.06-.4-.13-.91-.16-1.32q0-.05-.04-.28s-.09-.89-.12-1.16l-.04-.4-.04-.32q0-.4-.04-.84l-.08-.64c-.02-.14-.07-.73-.08-.96v-.2l-.04-.44-.06-.14c-.03-.06-.1-.24-.1-.28 0-.26.44-1.42.6-1.45m-2.74 22.26c-.12-.59-.11-1.11.08-1.77.14-.49.71-2.19.99-2.25.17-.03-.23.84-.3.99-.21.45-.3 1-.37 1.58-.03.29.14 1.07.36 1.18.23.11.44.01.58-.14.08-.09.33-.36.35-.31.22.43-.58 1.35-.91 1.42-.34.08-.59-.35-.79-.7m33.42-1.3c.43-.1.68-.15 1.03.06.24.15.47.29.75.26.27-.02.63-.28.8-.43.1-.08.17-.22.25-.35s.24-.41.33-.35v.15q.02.32.13.4c.2.15.43.2.71.16.07 0 .48-1.09.55-1.27.18-.46.1.8.04.99-.11.33-.24.65-.43.92-.08.11-.39.33-.56.35-.2.02-.36-.02-.52-.08-.32-.12-.41-.16-.54-.14 0 0-.18.16-.24.21l-.21.15c-.2.11-.41.19-.67.22-.24.03-.64-.2-.89-.34-.27-.16-.61-.07-.93.04-.36.13-1.02.57-1.49.88-.52.34-2.63 1.73-3.22 1.4-.09-.05.45-.32.52-.35.22-.11.49-.29.73-.46l.28-.14.26-.18c.12-.08.23-.15.35-.23 0 0 .24-.16.36-.24.4-.26.79-.52 1.17-.8.31-.22 1.21-.82 1.45-.82m-45.84.57c-.1-.16.07-1.03.26-1.09.36-.12 1.2.71 1.46.98.2.19.36.41.52.65.09.14.2.31.32.5.08.15.15.3.17.32.16.13.21-.73.21-.78l.04-1.04v-.16c0-.1.05-.36.08-.48.09-.34.3-.85.58-.99.36-.16.62.17.77.4.1.16.17.38.22.58.05.19 0 1-.07.94-.18-.14-.25-.19-.35-.37-.09-.17-.21-.3-.35-.42-.24-.19-.4-.1-.44.22v.48l-.04.24-.04.32c-.06.54-.37 2.66-.85 2.41l-.06-.16c-.1-.23-.21-.48-.32-.7-.15-.3-.34-.56-.56-.79-.24-.26-.45-.48-.71-.53-.12-.02-.27-.08-.41-.15-.02 0-.25-.12-.28-.15l-.16-.23zm-13.03 2.15-.23-.34s-.1-.23-.16-.36c-.15-.34-.26-.7-.34-1.12-.08-.38-.13-.89-.12-1.22q.03-.72.08-1.15c.04-.32.08-.68.07-.81-.01-.12-1.12.7-1.18.74-.29.24-.88.61-1.32.88-.94.57-2.27 1.39-3.02 1.69-.95.38-2.36.93-2.88 1.06-.53.13-6.08.82-6.14.8-.76-.3 3.49-1.39 3.68-1.44.26-.07 1.2-.4 1.77-.6.28-.1.68-.25 1.01-.38l.28-.1.16-.06c.09-.03.24-.09.3-.12.18-.09.21-.1.26-.12 1.63-.51 7.56-3.83 7.77-5.06.06-.39-.42-1.51-.57-1.76-.25-.46-.77-1.47-.81-1.75-.05-.36.16-1.06.3-1.34.1-.19.44.46.44.46.13.24.21.33.45.46.36.21 1.03.47 1.53.22.44-.22.81-.41 1.14-.74.15-.15.27-.3.4-.48.14-.18.29-.35.47-.5.59-.49.93-.07.95.65.02.47-.14 1.5-.33 2.66l-.14.04-.1-.18v-.5c0-.29 0-1.02-.11-1.14-.16-.17-.56.37-.68.53-.18.26-.39.47-.64.67-.26.21-.61.4-.94.53-.28.12-.83.34-.85.38l.02.16v1.46c-.03.46-.1.96-.2 1.39-.06.25-.15.46-.26.66-.16.28-.23.57-.3.98-.37 2.04.53 3.69 2.08 4.07.6.15 1.29.09 1.9 0 .9-.13 1.81-.61 2.52-1.02.9-.52 3.84-2.63 4.03-3.59.03-.15-.15-.41-.29-.41l-.21.05-.2.04c-.32.06-.73.11-1.01.12-.27.01-1.16.01-1.25-.04l-.16-.04-.16-.06q-.19-.07-.34-.16c-.17-.1-.43-.25-.51-.43-.32-.72-.49-1.34-.11-2.2.26-.59.65-1.21 1.21-1.5.36-.19.64-.16 1.01-.06.53.15.92.61 1.26 1.02.18.21.42.5.52.65.13.21.42.65.52.66.53.04 2.01-.78 1.93-1.26-.03-.19-.6-1-.77-1.2-.14-.17-.31-.37-.45-.5-.14-.14-.5-.51-.54-.58-.25-.44-2.54-2.32-3.71-3.28l-.22-.18-.12-.07q-.13-.12-.22-.18l-.2-.16c-.2-.16-.2-.16-.2-.16-.15-.1-.56-.4-.56-.4-.57-.45-1.72-1.38-1.8-1.6-.36-.97.15-2.18.59-2.8.12-.16.99-.72 1.28-.89.25-.14.5-.27.77-.4l.28-.14.24-.12.28-.12c.38-.23 1.97-.85 2.95-1.23.38-.15 1.99-.75 3.11-1.16 1.86-.69 3.77-1.31 5.93-1.67.47-.08 1.24-.01 1.65.22.28.15.4.44.46.78.15.83-1.55 3.16-2.09 3.65-.23.2-.59.56-.86.84q-.2.2-.3.31c-.07.08-.14.16-.17.18q-.11.1-.2.18c-.08.08-.26.26-.26.26-.08.07-.74.68-1.11 1.03 0 .01-.22.2-.35.3-.26.22-.42.35-.49.35-.17 0 .41-.88.41-.88s.39-.54.56-.76c.34-.46.76-.92 1.19-1.3.7-.62 2.48-2.31 2.63-2.66.07-.16.09-.43-.09-.54-.76-.43-2.77-.35-3.74.13 0 0-.56.18-.77.24-.25.08-.68.22-.76.24 0 0 0 0-.65.2-.29.1-.6.2-.89.3-1.06.37-2.06.74-3.07 1.16-1.1.47-2.28.97-3.29 1.44-.61.28-2.67 1.35-2.74 1.64-.05.2.72.7.91.8l.71.4c.2.11.69.4.7.41.09.06.33.21.49.31l.14.08.26.16.14.08.14.08c.25.15.83.54 1.23.8 1.5.99 2.99 2 4.45 3.02 1.19.83 2.35 1.79 3.36 2.79 1.01 1.01 2.54 2.51 3.5 3.02.45.24 1.02.38 1.63.42.53.03 2.63-.4 2.58-.94-.28-3.16-.62-6.15-1.01-9.43-.1-.83-.2-1.69-.24-2.29v-.44l-.04-.28-.04-.52q-.08-.84-.08-.84v-.26l-.04-.38c-.03-.25-.07-.37-.14-.56-.09-.25-.06-.36.02-.64.06-.2.14-.4.22-.58l.06-.14.06-.16.08-.12.07-.13c.06-.14.88 1.72.9 1.78.34.78.9 2.06.84 2.56-.02.16-.5-.38-.53-.41-.15-.17-.4-.44-.45-.45-.15 0 .12 2.25.16 2.59.12.99.23 1.77.36 2.73.05.32.26 2.23.36 3.13l.04.24.04.24.06.52.02.44.04.54c0 .06.04.44.04.5 0 .24.06.88.06.88.09-.66-.06 1.21-.1 1.52-.03.22-.1.48-.16.68-.15.48-.3.96-.69 1.22l-.23.15c-.11.07-.23.13-.51.26l-.4.16q-.32.08-.37.1c-.41.2-1.5.1-1.98-.02-1.19-.3-2.96-2.06-4.17-3.26-.87-.86-3.66-3.42-4.26-3.55-.03 0 .35.76.36.78.16.31.25.74.3 1.14.07.61.08 1.37-.1 1.89-.1.29-.62.67-.89.84-.18.12-.35.22-.56.32-.25.12-.65.31-.67.48-.07.86-.27 1.82-.67 2.39-.14.21-.4.57-.55.72l-.13.07-.2.18q-.2.19-.24.21c-.15.11-.17.12-.22.18-.42.45-1.9 1.43-3.17 2.27-.31.2-.7.34-1.07.46-.19.06-.35.11-.56.16-.16.03-.81.18-.81.18.12.17-1.66-.07-1.82-.1-.28-.06-.59-.21-.83-.34-.06-.03-.23-.18-.35-.27l-.33-.28zm-6.46.57c.34-.12.71-.3 1.04-.47 0 0 .86-.36 1.23-.52.67-.28 1.99-.83 2.23-.79 0 0-.25.77-.26.79l-.16.02-.16.06-.2.08-.2.08-.2.08-.16.06-.14.06-.14.06q-.09.03-.4.16l-.16.06-.28.14-.16.06-.2.08c-.43.17-.91.36-1.27.52-.69.31-.82.11-.4-.53m49.51.53-.16-.08c-.12-.07-.25-.16-.36-.25-.2-.17-.36-.37-.53-.57-.32-.4-.57-.93-.66-1.55-.04-.27-.09-.64-.08-.88l.08-.96c.03-.34.06-.64 0-.7-.05-.05-.65.35-.75.41-.12.08-.36.24-.36.24-.09.05-.27.17-.27.17q-.14.12-.21.15c-.15.07-.27.15-.4.24-.17.11-.36.23-.64.38q-.21.1-.28.14c-.13.08-.39.24-.44.26-.26.12-.61.3-.95.46-.27.13-.64.32-.87.38-.31.09-.59.28-.88.47-.28.19-.71.3-1.1.37-.12.02-.76.18-1.17.28-.38.09-.93.19-1.41.28-.47.08-1.2.22-1.45.28-.51.13-1.27.31-1.69.25-.43-.07 2.78-1.26 2.98-1.34.51-.19 1.31-.49 1.53-.6.51-.25 1.04-.51 1.57-.7 1.82-.66 9.04-5.16 9.38-6.4 0-.02-.19-.6-.22-.66-.07-.14-.16-.31-.24-.44-.09-.13-.14-.21-.2-.36-.09-.21-.26-.48-.4-.72-.1-.16-.33-.63-.49-.92-.01-.03-.2-.5-.28-.72-.05-.14-.12-.32-.16-.44-.06-.18-.11-.32-.18-.48-.15-.39-.26-.65-.2-.96.03-.16.22-1.21.36-1.14.01 0 1.24 1.25 1.33 1.37.1.12.18.21.28.32.13.13.24.26.35.41.07.11.12.33-.08.3-.26-.04-.67-.1-.7-.07-.12.11.65 1.42.74 1.56.3.45.52.94.71 1.5.38 1.14-.07 2.43-.49 3.26-.14.29-.62.71-.93.96-.33.26-.98.8-1.08 1.03-.2.48-.2.96-.2 1.53 0 .43.32 1.25.56 1.46 1.55 1.39 2.88 1.54 5.05.55 1.68-.77 4.39-3.03 5.38-4.52.15-.21-.02-.46-.15-.63-.06-.08-.45.04-.54.07-.24.08-.54.12-.85.16-.59.08-.97.12-1.53.12-.47 0-.94-.31-1.24-.51-1.34-.89.08-3.38.84-3.88.29-.19.75-.37 1.17-.26.67.18 1.18.46 1.57.9.18.2.33.38.49.59.19.26.52.7.64.71.21.02 1.57-.84 1.75-1 .35-.32 1.1-.93 1.56-1.01.19-.03.22.31.21.4-.02.39-.05.91.11 1.3.05.13.56.54.95.84.24.19 1.28.28 1.59.18.3-.1.61-.2 1.02-.46l.13-.09.13-.09c.18-.15.24-.2.24-.2.13-.07.56-.84.73-1.16.11-.2.72-1.35.94-1.07.1.12-.17.67-.24.79-.08.17-.23.45-.2.6.15.91 2.02 1.23 2.84.92.12-.04-.24-.74-.25-.76-.14-.21-.35-.5-.26-.69.06-.12.14-.33.16-.44.06-.29.15-.72.23-.79.46-.44.88 2.24.86 2.56-.05.67-.34 1.17-.63 1.6-.4.6-1.48.49-2.13.29-.32-.1-.63-.31-.86-.51-.14-.12-.25-.26-.36-.41-.09-.12-.25-.34-.34-.3-.04.01-.2.29-.26.4-.08.13-.16.27-.25.37-.19.21-.43.46-.64.57-.43.23-.89.46-1.45.54-.5.07-1.03-.03-1.49-.22-.33-.14-.67-.45-.86-.74-.12-.18-.21-.4-.29-.63q-.04-.1-.08-.32c-.02-.1-.12-.58-.18-.5-.01.02-.94.68-1.17.82-.41.26-.83.55-1.13.92l-.06.72q-.02.22-.04.4c-.05.35-.1.6-.22.86-.23.48-1.51 2.17-2.08 2.51q-.14.11-.23.19l-.2.2-.33.3c-.12.1-.29.25-.38.32l-.34.23c-.13.09-.34.24-.43.33-.1.09-.2.17-.3.25l-.23.15-.26.16c-.61.44-1.45.88-2.32 1.02-1.35.22-1.83.11-3.15-.22" fill="#1d1d1b" fill-rule="evenodd"/></svg>