<svg viewBox="0 0 97.85 26.67" xmlns="http://www.w3.org/2000/svg"><path d="m93.36 1.17c-.11-.42-.74.09-.83.23-.2.31.15.52.38.66 1.41.86.7-.74.45-.9m-27.52 1.3c.05.32.93 1.19.93.34 0-.91-.76-1.05-.93-.34m-39.75.52c.02.36.64.74 1.01.76.1 0-.13-.87-.19-.94-.14-.14-.42-.1-.65.02-.04.04-.16.15-.17.15m6.26-.83c.1-.02.02.39-.03.63-.08.43-.11.9.04 1.28.07.17.22.52.42.54.19.02.29-.06.36-.22.06-.12.17-.36.28-.28.1.07-.12.7-.14.76-.07.2-.18.37-.31.51-.41.42-.8-.02-1-.37-.36-.63-.06-2.32.37-2.86m6 2.95c.55-.45 6.48-3.98 6.79-4.02.22-.03.04.46 0 .54-.08.19-1.12.83-1.67 1.16l-.14.08-.28.16-.28.16c-.28.16-.28.16-.28.16l-.26.16q-.24.15-.26.16l-.14.08-.43.24c-.31.19-.7.43-.97.56-.23.12-.69.4-1.03.6-.29.18-.6.37-.89.56-.14.09-.43.28-.4 0 .02-.21.1-.54.26-.61m43.82-1.92c-.15-.19-.32-.42-.34-.56 0-.08.03-.89.22-.86.76.11 1.29.46 1.8.97.23.23.47.47.67.72l.16.23.16.24c.14.19.28.38.34.4.03 0 .03-1.59.03-1.82 0-.45.02-.86.16-1.2.4-1.01 1.44-1.93 1.98-.36.08.24-.04.64-.2.82-.02.02-.35-.25-.41-.3-.17-.14-.36-.3-.52-.34-.24-.06-.46.29-.53.46-.04.11-.04.22-.04.4l.04 1.02c0 .99-.04 1.79-.16 2.67-.03.23-.26.74-.4.32-.13-.38-.23-.59-.42-.86-.32-.43-.7-.96-.98-1.24-.2-.2-.37-.37-.63-.33-.24.04-.76-.25-.93-.38m-11.44 2.72c.94-.83 7.94-5.1 8.07-5.07.24.06-.16.84-.17.87-.12.18-3.2 2.12-4.26 2.77-.7.43-1.38.88-2.06 1.33 0 0 0 0-.26.16l-.32.22-.71.46-.23.19c-.18.07-.25.05-.25-.13 0-.16.05-.75.19-.79m-55.28-1.3c-.17-.3-.01-1.25.4-1.25.37 0 1.07.48 1.32.68.31.25.6.52.89.8.11.11.23.25.32.37.08.11.36.49.4.47.07-.05 0-.59 0-.59q-.03-.27-.04-.83c0-.26.01-.59.1-.88.12-.4.29-.94.62-1.12.57-.31 1.38.82 1.45 1.16.02.12-.25.36-.36.38-.04 0-.43-.22-.5-.27-.16-.11-.5-.35-.65-.29-.23.09-.21.45-.18.8.05.66.1 1.65.04 2.29-.04.42-.14 1.05-.37 1.44-.04.08-.22-.38-.24-.41-.06-.16-.25-.51-.38-.76-.18-.33-.5-.67-.78-.98-.27-.29-.61-.65-.94-.41-.16.12-.67-.19-.95-.36l-.16-.23zm-13.22 2.38c0-.13-.02-.19-.08-.3-.05-.1-.09-.41-.1-.52-.04-.31.06-.91.16-1.26.09-.31.52-1.76.52-1.45 0 .27-.1.71-.16 1-.1.43-.17.89-.08 1.36.08.43.29.7.56.94.21.18.43-.04.51-.19.07-.13.09-.21.14-.38.03-.1.07-.23.15-.17.21.13-.01.83-.1 1.02-.07.16-.15.35-.31.59l-.17.17c-.04.23-.66-.21-.66-.21-.09-.08-.23-.32-.39-.59m63.87-2.85c-.05-.07-.14-.2-.19-.23q-.14-.11-.2-.2c-.14-.19-.32-.45-.33-.57-.08-.51.13-1.11.3-1.46.11-.23.46-.57.73-.64.54-.15.71.53.75.92 0 .04-.02.4-.04.68 0 .09-.06.91 0 .93.22.05.87.7.96.94.07.18-.03.52-.09.67-.03.07-.54-.26-.62-.31-.28-.18-.57-.37-.81-.32-.02 0-.28.33-.32.38l-.09.13c-.14.17-.29.32-.45.48-.29.29-1.07 1.02-1.07 1.02-.16.13-3.44 2.14-2.93 1.4.14-.2 1.52-1.21 2.28-1.77.66-.48 1.97-1.45 2.11-2.05m26.99-.64c.02-.06-.35-.37-.54-.53-.23-.19-.43-.37-.51-.71-.18-.73.36-1.97 1.03-2.21.24-.08.6.2.71.4.29.52.32 1.48.32 2.05 0 .27.1.34.29.49.2.15.37.3.43.59.04.21 0 .62-.22.62l-.13-.09s-.25-.16-.25-.17c-.16-.11-.36-.23-.54-.26-.02 0-.2.22-.29.33-.11.14-.28.35-.36.44-.13.14-.54.52-.79.74-.53.48-1.08.95-1.69 1.35l-.32.24s-.32.21-.48.32c-.26.17-.87.56-.91.58-.36.18-.73.33-1.09.46-.19.07-1.14.44-1.16.37-.02-.1.48-.47.58-.55.03-.02.34-.21.5-.31.18-.11.44-.27.54-.33.6-.39 1.18-.78 1.74-1.19.95-.68 2.09-1.7 3.15-2.65m-63.39 4.21c-.04-.2.08-.48.19-.75.1-.24.13-.3.21-.43.08-.1.15-.19.16-.23.07-.33 1.18.53 1.19.55.26.21.65.58.27 1.19-.25.4-.49.78-1.03.4l-.13-.09c-.1-.08-.21-.17-.31-.24-.2-.14-.51-.35-.56-.4m-3.16-2.88c-.02-.06-.3-.26-.44-.36-.21-.15-.36-.32-.5-.54-.39-.59.83-2.84 1.55-2.12.42.41.46 1.28.41 1.84-.03.41.03.48.29.79.23.27.17.81-.02 1.09-.06.09-.36-.14-.41-.18-.13-.1-.2-.16-.4-.12 0 0-.25.32-.26.33l-.17.23c-.08.09-.28.3-.52.55-.15.15-.74.67-1.12.99-.41.35-3.29 2.23-3.69 2.03-.16-.08.55-.49.58-.51.24-.14.43-.29.64-.45.48-.38 1.1-.88 1.43-1.15 0 0 .46-.34.67-.5.08-.06.5-.39.72-.57.37-.29 1.21-.99 1.24-1.35m66.65 4.53c-.09-.51.27-3.13.79-3.05.11.02-.28.92-.28.92-.14.31-.26.71-.22 1.06.03.29.27.73.45 1.08.12.22.48-.08.54-.15.06-.08.07-.11.1-.22.03-.12.11-.38.19-.34.34.16-.38 1.48-.53 1.63-.49.49-1-.52-1.04-.93m-28.14 0c-.13-.16.48-1.26.62-1.36.16-.11.59.18.81.32.23.15.63.42.84.38 0 0 .27-.53.31-.62q.1-.19.4-.56c.09-.14.81.41.83.43.16.13.62.51.62.51.35.43-.25 1.59-.61 1.64-.03 0-.27-.16-.34-.22l-.13-.09q-.16-.14-.19-.15c-.2-.12-.78-.49-.82-.47-.03.01-.25.49-.33.65-.09.19-.28.59-.36.6-.31.04-1.57-.81-1.65-1.06m14.52.46c-.24-.48-.27-1.05-.18-1.58.06-.38.45-2.13.79-2.17.05 0-.21.78-.22.8-.13.4-.2.88-.2 1.26 0 .48.46 1.65.97 1.34.14-.08.18-.22.24-.44.05-.19.15-.54.27-.47.45.25-.46 1.87-.74 1.97-.4.15-.78-.48-.93-.72m-34.51 1.63c-.13-.76-.09-1.39.08-2.13.04-.2.1-.38.16-.56.03-.08.11-.29.14-.36q.09-.21.11-.27c.06-.23.07.32.03.47-.09.4-.24 1.09-.2 1.61.03.42.23.94.47 1.16.17.15.34.02.42-.15.1-.22.24-.51.24-.51.61-.22-.48 1.73-.48 1.73-.4.39-.87-.76-.96-.98m-42.74.63c-.31-.74-.18-1.29.23-1.97.2-.34 1.68-1.14 2.35-1.5.43-.23 1.29-.7 1.49-.82l.38-.19.15-.07c.24-.13.5-.27.74-.4 1.47-.78 4.92-2.53 5.67-2.71.31-.07.1.59.04.74-.03.07-.39.26-.6.38-.48.26-1.01.52-1.51.74-1.08.48-2.16.98-3.19 1.53-1.87.99-3.72 2.01-5.42 3.14-.3.2.19.55.31.64.2.14.43.32.47.49.08.32-.26.43-.5.36-.17-.05-.59-.19-.6-.36m30.19.64c.24-.46-1.42-.99-1.91-.8-.45.17-.47.55-.04.76.39.2 1.49.18 1.95.04m-12.51.2c.2-.59-1.28-.91-1.79-.61-.5.29.02.6.32.7.44.16.97.04 1.47-.09m5.28.62c.04-.63.18-1.12.33-1.63.07-.27.42-1.17.62-1.08.07.04-.24.78-.3.91-.16.38-.24.89-.2 1.32.04.46.14 1.04.48 1.3.17.14.31.09.48-.07.06-.05.09-.14.13-.23.05-.12.15-.38.24-.33.48.26-.51 1.62-.82 1.68-.55.1-.85-1.37-.95-1.88m-17.84 1.84c-.12-.33.29-1.16.43-1.4.2-.34 1.59.7 1.73.89.19.26-.33 1.17-.46 1.36-.15.23-1.56-.69-1.69-.86m76.21.72c.07-.16-.58-.58-.78-.72-.7-.46-1.27.11-1.63.48s.98.49 1.02.49c.42 0 .99-.12 1.39-.25m-34.34-3.97c.26-.06.84.31 1.16.51s.66.64.89.93c.15.19.28.38.4.58.08.13.35.57.43.51 0 0 .04-1.2.03-1.33-.01-.15-.01-.26 0-.56 0-.36.19-.88.32-1.18.4-.98 1.29-.51 1.49.32.06.23-.08.53-.19.65-.04.05-.3-.13-.37-.17-.18-.12-.39-.26-.46-.26-.51 0-.43.96-.38 1.46.06.73-.07 1.84-.29 2.8-.04.16-.36-.47-.36-.47-.12-.23-.25-.44-.38-.64-.24-.36-.53-.76-.83-1.06-.15-.14-.36-.34-.54-.31-.29.06-.48-.03-.72-.2-.4-.29-.62-1.55-.2-1.59m-44.9 5.53-.06-.16c-.02-.05-.09-.28-.1-.36-.05-.31-.05-.51-.04-.84q.01-.25 0-.28c-.05-.3.52-1.9.65-1.94.02 0-.13.74-.16.9-.06.31-.21 1.2-.06 1.28l.02.2c.02.11.06.22.1.32s.12.27.34.49c.15.25.44 0 .51-.15s.23-.52.26-.52c.18.04-.02.75-.07.94-.11.39-.23.58-.51.8-.25.2-.8-.57-.87-.68m65.41-.28c.2-.52-1.77-1.48-2.22-1.54-.21-.03-1.94 2.53-.57 2.93.76.22 2.47-.94 2.78-1.38m-3.48 2.82c-.27-.22-.41-.84-.46-1.27-.05-.56.05-1.44.24-2.03.07-.22.19-.55.22-.64.15-.37.34-.84.32-.92 0-.03-.23-.2-.36-.29-.1-.07-.31-.23-.32-.24-.13-.1-.45-.38-.67-.57-.28-.24-1.19-1.09-1.22-1.23-.07-.4-.12-1.14.07-1.52.05-.1.26.05.3.09q.17.13.22.15s.22.08.28.1c.16.05.32.1.48.16.22.08.42.15.64.22.15.05.63.23.67.32.08.22-.12.26-.3.3-.17.04-.37.08-.27.25.08.14 1.04.72 1.24.79.29.1 1.16-1.31 1.33-1.59.16-.26 1.15-1.66 1.27-1.66.22-.01-.25 1.65-.3 1.78-.06.15-.78 1.24-1.13 1.77-.12.17.4.47.56.56.25.14.48.34.69.52.34.3.63.77.75 1.28.08.38-.08 1.57-.26 1.97-.33.73-3.16 2.89-4 1.69m-27.77-.65c.37 1.06.86 2.15 1.92 2.51s2.59.03 3.47-.58l.24-.12s.29-.17.4-.24c.22-.13.49-.3.64-.41q.13-.1.43-.31l.13-.09s.36-.34.41-.39c.03-.04.13-.15.16-.16.19-.05-.28-.74-.28-.74-.12-.18-.33-.48-.41-.57-.29-.31-.57-.6-.89-.88-.64-.56-1.37-1.2-1.98-1.58-1.32-.81-4.5-2.75-5.17-2.66-.05 0 .03.71.05.86l.04.36.04.4.04.28c.07.6.15 1.17.24 1.77.07.43.17 1.05.24 1.36.04.16.08.35.12.52.08.36.08.36.08.36.03.12.08.27.08.32m-35.66 2.74s-.81-.48-1.2-.72c-.14-.11-.41-.32-.43-.33-.34-.15-.84-1.31-1.01-1.78-.24-.64-.29-1.49-.29-2.07 0-.78.2-1.75.41-2.47.11-.38.48-1.68.72-1.62.01 0-.16.83-.19 1.02-.1.5-.2 1.02-.28 1.57-.14 1 .03 2.01.47 2.77.6 1.05 1.49 1.73 2.74 2.15.74.24 1.95.2 2.66 0 3.1-.88 6.48-2.83 8.11-5.14.18-.25-.43-1.4-.64-1.81l-.08-.16-.08-.18-.08-.12-.08-.14c-.15-.29-.3-.58-.42-.9l-.06-.16-.1-.28-.08-.24-.32-.92c-.06-.17-.13-.27-.22-.4-.12-.17-.16-.25-.14-.52.03-.42.14-1.02.36-1.26.03-.03.57.52.66.6l.2.2.1.13.19.19.18.24.05.16c.16.14.48.41.63.6.12.14.26.42-.13.37l-.32-.12q-.15-.05-.38-.03c-.2.02.7 1.58.7 1.58.29.49.57 1.01.67 1.69.09.64-.1 2.26-.42 2.99l-.09.13q-.12.14-.32.39l-.28.34q-.05.07-.27.29t-.33.27l-.3.31q-.2.16-.21.18c-.13.28-2.6 1.81-3.7 2.49-.03.02-.44.2-.65.28l-.16.06-.2.08c-.14.06-.3.13-.44.2-.23.1-.51.19-.77.26l-.36.08c-.15.03-.36.08-.4.1-.68.3-2.72 0-3.39-.34m56.38-20.06c.13-.38.39-1.13.52-1.24.08-.07.33.59.36.68q.03.09.14.28c.05.09.16.34.24.52q.1.23.12.28l.08.2.06.16.06.16c.04.08.1.24.14.36l.06.16.08.16.08.16c.17.38.64 1.45.52 1.69-.11.22-.35-.05-.46-.17-.18-.21-.5-.57-.59-.6-.05-.02.05 1.16.06 1.33 0 .06.15.99.24 1.53l.52 3.41c.18 1.1.39 2.33.52 3.33l.04.2q.03.15.08.6l.08.64q.05.29.08.64c.07.7.18 1.93.24 2.21.14.69.07 4.36-.6 4.39-.17 0-.17-1.13-.17-1.32 0-.5-.01-1.13-.08-1.79-.04-.42-.1-.81-.16-1.25-.07-.51-.15-1.03-.2-1.48-.18-1.56-.41-3.11-.69-4.78-.4-2.41-1.42-10.43-1.41-10.47m-19.63 21.31c-.18-.12-.68-.63-1.1-1.06-.32-.32-.73-1.81-.94-2.64-.24-.98-.47-3-.64-4.53-.09-.83-.18-1.63-.24-2.35l-.04-.18-.04-.4-.06-.36-.02-.24-.04-.32-.04-.4-.04-.4c-.15-1.36-.39-2.89-.6-4.29-.1-.63-.2-1.23-.33-1.8-.05-.23-.14-.61-.18-.74-.09-.26-.2-.59-.14-.74.02-.04.09-.31.12-.44.05-.2.1-.42.18-.56.25-.46.32-.46.5.04.19.53.35 1.4.48 2.13.1.54.33 2.16.49 3.21.08.57.17 1.19.24 1.77 0 .04.06.64.08.84.03.3.08.62.13.91.02.13.48-.72.54-.83.14-.26.32-.49.56-.65.45-.3 1.55-1.18 2.28-1.77.79-.64 1.74-1.22 2.61-1.75 1.82-1.11 5.15-3.1 6.01-3.41.66-.24 1.81-.66 2.2-.62.34.03.61.23.74.5.73 1.37-2.63 6.79-3.2 7.24-.59.47.34-1.4.34-1.4l.08-.16.08-.16c.06-.12.17-.32.25-.45l.13-.22.14-.26c.52-.84 1.42-2.3 1.47-2.67.02-.12-.19-.34-.34-.5-.48-.51-2.67.66-2.98.82-.22.11-.43.23-.63.32l-.14.08-.16.08-.14.08-.26.16-.28.14q-.17.09-.26.14c-.18.11-.57.35-.62.36l-.38.24-.14.08c-.19.11-.36.21-.54.32l-.49.32s-.35.22-.51.32c-.66.43-1.34.88-2.01 1.33-1.1.74-2.94 2.02-3.54 2.84-.11.15 1 .52 1.19.58.48.16 1.08.38 1.61.58.43.16.86.32 1.29.46.26.09.47.19.71.3.27.14.76.38.83.4 1.23.41 3.07 1.7 4.31 2.58.73.52 1.45 1.14 2.08 1.77.5.5 1.6 1.53 2.08 1.67l.14.08.18.08q.14.07.28.12c.26.1.76.19 1.19.26.63.11 2.87-.43 2.94-.94.07-.47-.39-3.21-.64-4.74-.28-1.66-.54-3.25-.81-4.82-.21-1.29-.48-3.3-.73-5.1-.1-.76-.21-1.19-.43-1.78-.12-.34.17-1.37.41-1.7.05-.07 1.11 1.86 1.18 2 .32.58 1.03 1.95.95 2.49-.02.16-.53-.39-.53-.39-.16-.17-.42-.45-.53-.42-.05.01.17 1.5.2 1.7.09.61.18 1.26.28 1.77.05.23.09.47.12.72.05.33.1.61.16.92l.12.72q.04.2.08.48.02.14.08.44c.1.51.2 1.11.28 1.6l.04.36c.02.11.06.35.08.42 0 0 0 0 .06.38l.02.16c.04.26.09.57.12.84.05.42.07.51.08.6l.04.2.04.2.04.32.04.4v.18c.01.15.06.62.06.62.18.18-.29 1.81-.36 2.01-.21.55-.48.96-.8 1.38-.08.11-.69.33-.94.41l-.16.06q-.16.06-.32.1l-.32.08c-.15.02-.36.04-.36.04-.28.17-1.54-.1-1.81-.22-1.38-.62-2.33-1.52-3.32-2.52-.47-.47-3.15-2.7-3.45-2.48-.02.01.22.33.24.36.08.11.16.23.23.35.16.27.26.58.34.92.11.43.27 1.81.08 2.09l-.06.16-.06.16c-.06.14-.06.16-.15.27-.14.19-.28.35-.47.5-.38.3-.99.77-1.18.88-.17.1-.63.36-.63.36l-.26.14-.26.14-.3.14c-.24.24-1.84.57-2.32.6-.17.01-.62-.07-.79-.1s-.27-.05-.4-.1l-.26-.14-.14-.08zm53.25-2.79c.37-.04.62-.22.82-.45.09-.11.24-.31.25-.33.1-.21.24-.48.38-.48l-.02.36c.01.11.09.17.18.24.18.14.4.16.66.12.1-.01.22-.53.28-.76.05-.19.18-.56.33-.58.21-.03-.03 1.05-.09 1.26-.13.43-.35.78-.68 1-.21.14-.46.11-.71.02-.24-.09-.44-.16-.57-.07-.4.27-.81.55-1.04.59-.25.04-.55-.11-.75-.22-.28-.15-.38-.18-.74-.1-.62.14-1.64.96-2.29 1.48-.64.52-1.6 1.15-2.68 1.19-.17 0 .69-.52.69-.52.27-.17.59-.38.88-.57.31-.2 1.01-.76 1.47-1.13.45-.36 1.16-.92 1.48-1.09.28-.15.79-.38 1.17-.32.11.02.3.12.46.22.12.07.34.19.51.14m-33.64-.01c.21-.16.09.32.05.43-.08.24-.18.54-.2.72-.06.57-.1 1.47.32 1.76.18.13.36-.07.42-.2.09-.2.18-.38.33-.31.18.08-.29 1.03-.29 1.05-.07.1-.54.71-.65.42l-.14-.04-.13-.09c-.12-.12-.19-.26-.25-.43-.2-.53-.14-1.16-.02-1.73.11-.51.27-1.21.55-1.6m-10.76 3.02c0-.33.48-2.2.73-2.46.12-.12-.06.58-.09.71 0 0-.12 1.16-.16 1.57-.03.3.35.9.54.98.24.1.37-.13.45-.26.04-.08.18-.33.24-.14.14.44-.3 1.5-.85 1.4-.64-.11-.79-1.19-.87-1.81m-19.92 1.01c.62-.2 2.66-1.29 3.77-1.89s2.79-1.5 3.79-1.77c.33-.09.2.76-.32.96-.13.05-.77.36-1.09.52-.36.18-1.61.76-2.42 1.14-.68.32-1.46.71-2.18 1.07-.38.19-.92.46-1.13.54-.18.07-.56.23-.58.21-.09-.09.1-.7.16-.79m38.14-1.91c.15-.12.89-.55 1.27-.76.46-.26.91-.53 1.35-.8.89-.55 1.77-1.1 2.6-1.7 1.06-.77 3.88-2.92 4.04-3.7.04-.18-.54-1.1-.75-1.45-.3-.49-.62-1-.89-1.47-.13-.22-.24-.47-.34-.72-.13-.33-.33-.81-.42-1-.12-.23-.3-.6-.3-.7 0-.13.17-1.5.34-1.41.22.12 2.1 1.97 2.14 2.17.03.15-.27.1-.36.08-.06-.01-.66-.08-.5.1.51.57 1.42 2.21 1.65 2.97.3.98.11 2.39-.31 3.16-.21.38-.59.77-.91 1.06-.37.34-.95.86-1.04 1.16-.18.56-.11 1.32 0 1.89.18.89 1.07 1.68 1.92 1.93.51.15 1.42.16 2.06-.02.8-.23 1.56-.55 2.16-.98 1.83-1.32 3.21-2.7 4.64-4.41.1-.11-.07-.44-.16-.61-.05-.11-.55.06-.71.11-.22.07-.44.12-.69.16-.65.12-1.4.25-1.77.16-1.42-.35-2.03-1.38-1.39-2.95.3-.74.87-1.61 1.79-1.71.54-.06 1 .19 1.37.38.38.2.71.52.98.84.21.26.71.85.88.83.29-.04 1.32-.81 1.71-1.12.36-.29 1.38-1.1 1.57-1 .14.07.1.7.09.9-.02.32.07.51.18.76.33.73 1.78 1.21 2.66.86.36-.15 1.34-.63 1.52-1.03l.09-.15q.08-.13.16-.28.09-.16.16-.32c.06-.13.17-.37.2-.42.09-.17.68-1.26.83-1.02.09.15-.09.61-.14.72-.09.21-.25.58-.22.72.14.66 2.48 1.45 2.86.75.08-.15-.18-.63-.26-.74-.13-.17-.32-.41-.3-.53.09-.48.22-1.17.31-1.36.28-.57.94 1.7.98 1.96.08.53-.04 1.24-.26 1.73-.16.36-.38.62-.72.8-.33.17-1 .21-1.37.1-.77-.22-1.38-.56-1.72-1.2-.05-.09-.65.76-.67.79-.23.32-.44.49-.75.72-.71.52-1.9.73-2.83.31-.83-.37-1.08-1.08-1.34-2.04-.02-.08-1.15.82-1.19.85-.38.3-1.08.86-1.12 1.07q-.01.07 0 .22s0 .03-.04.86c0 .14-.06.84-.2.88l-.06.16-.08.16q-.05.11-.16.28-.17.27-.25.38-.05.06-.15.21c-.16.23-.72.98-.92 1.11-.16.11-.51.47-.7.67-.26.27-.55.57-.8.77-.07.06-.31.25-.31.25-.14.13-.43.39-.43.39l-.64.48-.26.16c-.77.56-2.91 1.54-4.03 1.22-.66-.19-1.41-.4-1.59-.6-.43-.47-1.05-1.17-1.11-1.35-.14-.39-.23-.79-.34-1.28-.05-.23-.05-.56-.04-.82l.04-.58s.04-.53.02-.56c-.04-.06-1.04.64-1.11.68 0 0-.31.22-.45.32l-.46.32-.15.09c-.1.07-.29.22-.31.23-.12.08-.36.24-.36.24-.92.66-2.19 1.55-3.29 1.93-1.21.41-6.06 1.72-6.5 1.65-.61-.1 2.47-1.36 2.58-1.41.51-.2 1.27-.49 1.57-.68.38-.23 1.23-.73 1.5-.8m-49.52 1.36c-.08-.58-.05-.94 0-1.34.04-.37.14-1.27.13-1.33s-.89.51-.95.56c-.09.07-.45.3-.71.48l-.26.16c-.64.42-1.46.91-2.22 1.16-1.02.34-2.27.69-3.43 1.02-.23.07-.75.21-.77.22-.3.1-.83.26-.97.3-.27.08-.65.19-.81.24-.2.07-.97.35-.94-.02.01-.12 1.52-.72 1.82-.84.65-.26 1.25-.54 1.85-.84.44-.22 1.21-.63 1.78-.94.38-.21 1.69-.9 1.69-.9.71-.31 1.89-1.09 2.72-1.65.11-.07.48-.32.73-.48l.13-.09c.1-.08.2-.16.31-.23.19-.13.38-.27.56-.41s.52-.41.66-.48c.66-.3 3.02-2.58 3.13-3.32.03-.2-.67-.62-.9-.66-.47-.08-1.02-.06-1.53-.04-.45.02-.88.02-1.19-.14-.32-.16-.63-.42-.8-.72-.08-.14-.34-1.29-.16-1.41l.08-.4c.05-.17.1-.3.16-.44.12-.29.27-.51.44-.75.21-.29.64-.55 1.07-.6.49-.05.87.14 1.16.35.86.61 1.98 2.09 2.21 3.32.11.59.05 2.19-.16 2.73-.4 1-1.02 1.63-1.72 2.32-.32.31-.67.64-1.03.9-.34.25-.75.57-.98.93-.33.53-.64 2-.71 2.77-.07.83.63 1.39 1.23 1.63.37.15 1.06.02 1.37-.14 1.1-.55 1.79-1.26 2.51-2.18.29-.38.79-1.01.97-1.16.36-.31.9-.82 1.17-1.21.26-.37 1.55-1.12 2.07-1.37.46-.23.93-.42 1.43-.62.06-.02.3-.12.32-.12l.17.06c.02-.15.12-.18.48-.3 1.22-.4 4.24-1.67 4.7-2.59.31-.61-.69-1.11-1.15-1.14h-.75l-.83.04c-.34 0-.67-.04-1.05-.12-.37-.07-.69-.39-.98-.67-.81-.8.42-4.08 2.47-3.62.28.06.82.43 1.24.72q.14.11.21.19c.06.06.12.12.2.17.37.24.9 1.33 1.06 1.8.32.93.5 2.91-.08 3.81-.34.53-.58.85-1.02 1.26-.8.75-2.32 1.26-3.43 1.63-1.08.36-2.83.97-3.47 1.49-.99.8-2.14 1.74-2.57 2.32-.31.42-.64.85-.97 1.27-.18.22-.46.54-.81.92l-.17.16c-.1.07-.19.14-.2.16 0 0-.57.35-.64.39-.1.05-.28.12-.38.16l-.16.06-.32.06c0 .12-.92-.07-1.01-.1-.12-.04-.35-.14-.52-.22-.26-.11-.52-.29-.69-.5-.36-.46-.68-.92-.79-1.62" fill="#1d1d1b" fill-rule="evenodd"/></svg>