<svg viewBox="0 0 65.87 27.1" xmlns="http://www.w3.org/2000/svg"><path d="m3.46 26.43a9.5 9.5 0 0 1 2.25-1l.29-.06.34-.12.54-.18c.92-.26.38.6.08.69-.79.25-1.52.51-2.27.78a8.44 8.44 0 0 0 -1.13.46c-.8.4-.39-.36-.1-.56m7-.41a1.54 1.54 0 0 1 -.59-.4c-.09-.11-.27-.29-.38-.42l-.2-.21a3 3 0 0 1 -.22-.73l-.07-.27v-.34-.55-.36-.22-.25c0-.32.09-.62.15-.91s.11-.48.16-.64a2.08 2.08 0 0 0 .14-.63c0-.17-.72.37-.72.37-.24.17-.47.31-.71.46l-.9.56-.25.15-.38.24c-.55.34-1.08.65-1.65.95l-.8.42-.8.37a3.16 3.16 0 0 1 -1.63.38 1.29 1.29 0 0 1 -.92-.49 3.39 3.39 0 0 1 -.69-1.45 9.1 9.1 0 0 1 .4-3.58c.12-.37.41-1.21.42-1.21.25-.58.57-1.3.39-1.66 0 0-.16-.32-.24-.46a3 3 0 0 1 -.25-.83c-.13-.68.35-3.93.81-4 .26-.05.06.4 0 .49a7.59 7.59 0 0 0 -.24.8 7.14 7.14 0 0 0 -.24 1.62 4.3 4.3 0 0 0 .57 1.56c.07.14.37.13.48.05a.75.75 0 0 0 .27-.5c0-.19.17-.68.27-.62s-.14 1.2-.17 1.28a7.93 7.93 0 0 1 -.46.83 13.74 13.74 0 0 0 -.9 1.94c-.55 1.45-1.21 3.63.38 4.48a1.83 1.83 0 0 0 1.24-.12 38.49 38.49 0 0 0 8.13-4.89c.62-.48-2-1.89-2.1-2a32.32 32.32 0 0 1 -2.88-1.56c-.21-.13-2.12-2-2.14-2.09a4.4 4.4 0 0 1 .13-1.59c0-.13.42.19.46.22a6.36 6.36 0 0 0 .67.35l.13.07.18.08a4.9 4.9 0 0 0 .52.24c.23.09.63.25.68.44s0 .17-.12.22l-.55.15c-.02.23 1.93 1.23 2.26 1.36s1 .44 1.33.63c.19.11.43.26.76.48l.13.08.2.16a2.75 2.75 0 0 1 .88 1.22c.24.66.24 2.44-.28 2.93l-.46.41a2.22 2.22 0 0 0 -.63.78l-.03.18-.08.32v.12a2.46 2.46 0 0 0 -.08.27 8.27 8.27 0 0 0 -.24 1.74v.36c0 .06.06.3.08.36a2.18 2.18 0 0 0 .22.43 2 2 0 0 0 .58.6 3.17 3.17 0 0 0 2.49.37h.28l.19-.05.32-.07c.18 0 .45-.15.64-.22.39-.15.76-.3 1.13-.48a12 12 0 0 0 3.29-2.29c.3-.29 1.52-1.51.27-1.33a4.25 4.25 0 0 1 -3-.27 2 2 0 0 1 -.67-1 3.28 3.28 0 0 1 .06-1.44l.14-.26.15-.25a5.59 5.59 0 0 1 .44-.61 2 2 0 0 1 1.22-.62 1.63 1.63 0 0 1 1.09.46 6.42 6.42 0 0 1 1.26 1.48c.25.4.4.64.88.51a4 4 0 0 0 1.17-.47l-.2-1.71a6.71 6.71 0 0 1 .62-2 2 2 0 0 1 .24-.39c.11-.16.22-.33.32-.5s.11-.34.14-.85a5.15 5.15 0 0 1 .08-.9s.82.3.93.35l.76.25a7.74 7.74 0 0 1 .93.37.19.19 0 0 1 -.06.31h-.16c-.11 0-.34.07-.37.09s.78.64.79.65a5.77 5.77 0 0 0 .56.27l.54.26a14.61 14.61 0 0 1 2 1.14 2.24 2.24 0 0 1 .78 1.18 4 4 0 0 1 -.48 3.1 1.46 1.46 0 0 1 -.45.24 1.05 1.05 0 0 1 -.36.08l-.44.06a6.24 6.24 0 0 1 -1.08-.06l-.43-.08-.76-.11s0 0-.3 0l-.53-.12-1.28-.29a2.32 2.32 0 0 0 -1.79.3l-.71.26c-.21.07-.78.27-.78.37a5.1 5.1 0 0 1 -.62 2.07l-.16.25a3.44 3.44 0 0 1 -.35.41 7.68 7.68 0 0 1 -.67.64c-.37.29-1 .76-1.52 1.14a10.9 10.9 0 0 1 -4 1.84 4.67 4.67 0 0 1 -2.61-.28m31.51-1a3.23 3.23 0 0 1 -.81-1.44 5.56 5.56 0 0 1 -.11-1.32v-.3-.3-.33c0-.16 0-.56 0-.67a10.29 10.29 0 0 0 -1.25.69l-.6.39-.73.48c-1 .54-2.24 1.24-3 1.58a16.06 16.06 0 0 1 -3.62 1.09l-1.07.2h-.24-.28q-.3 0-.6.12a7.75 7.75 0 0 1 -1.87.33c-.22-.08.43-.39.44-.39a8.68 8.68 0 0 1 .84-.34l1.75-.63c.48-.18 1.23-.47 1.47-.58l.18-.08.14-.08.18-.07.35-.16.3-.16.42-.2c2-.84 9.8-5.45 9.67-6.77a2.69 2.69 0 0 0 -.32-.75c-.07-.14-.14-.25-.22-.38s-.12-.22-.19-.37l-.24-.4c0-.05-.17-.3-.24-.44l-.27-.72-.12-.24-.12-.35c-.1-.31-.22-.62-.34-.92a2.56 2.56 0 0 1 0-2.12c0-.12 1.3 1.16 1.43 1.31l.21.19.2.2.18.17c.09.11.31.52 0 .47-.1 0-.76-.11-.75-.09a8.23 8.23 0 0 0 .67 1.42 4.8 4.8 0 0 1 .62 1.11c.3 1.1.63 2.78-.14 3.84a7.4 7.4 0 0 1 -1.69 1.66 2.61 2.61 0 0 0 -.44 2.81 3 3 0 0 0 2.29 1.9 5.39 5.39 0 0 0 2.39-.3c.26-.09.62-.25.92-.38l.25-.15.14-.06c.19-.11.4-.22.45-.14a1.14 1.14 0 0 1 .27-.3l.67-.48c.45-.34.95-.71 1.35-1.07.7-.64 2.24-2.05 2.34-2.61a1.25 1.25 0 0 0 -.27-.49c-.07 0-.38.07-.51.12a3.65 3.65 0 0 1 -.52.11 12.71 12.71 0 0 1 -1.91.2c-1.62 0-2.07-1.65-1.55-3 .38-1 1.45-2.21 2.83-1.52a4.4 4.4 0 0 1 1.24.92 3.78 3.78 0 0 1 .43.54c.13.2.41.61.55.6a7.4 7.4 0 0 0 1.82-1.05c.21-.15.51-.4.76-.6s.59-.46.87-.4.1.73.08 1 0 .58.16.67l.06.14.08.13.25.26a2.1 2.1 0 0 0 .54.38 2.84 2.84 0 0 0 1.51.12 2.77 2.77 0 0 0 1.39-.58 4.58 4.58 0 0 0 1.3-1.81c.09-.18.47-.94.74-.84.09 0-.05.53-.08.6a2.14 2.14 0 0 0 -.32 1c0 .28.92.73 1.19.85.8.33 2.14.32 1.52-.75-.22-.38-.35-.6-.3-.82a4.41 4.41 0 0 1 .36-1.2c.48-.41.87 2.29.87 2.59a2.83 2.83 0 0 1 -.59 1.6 1.4 1.4 0 0 1 -.94.48 2.72 2.72 0 0 1 -1.51-.26 2.14 2.14 0 0 1 -.77-.54 4.23 4.23 0 0 0 -.58-.6l-.09.13-.08.16-.08.14-.24.35a2.33 2.33 0 0 1 -.65.6 4.66 4.66 0 0 1 -1.45.57 2.67 2.67 0 0 1 -1.48-.19 9.07 9.07 0 0 1 -1-.79 2.83 2.83 0 0 1 -.28-.5l-.08-.32c0-.13-.14-.7-.22-.65s-.48.33-.54.39-.38.28-.57.42-.43.3-.76.57l-.15.07a.67.67 0 0 0 -.25.25 8.65 8.65 0 0 0 -.14 1 3.67 3.67 0 0 1 -.26 1.19 6 6 0 0 1 -.84 1.24l-.18.19a2.43 2.43 0 0 0 -.26.3.75.75 0 0 1 -.18.18 1.52 1.52 0 0 0 -.26.3 19.9 19.9 0 0 1 -3 2.46 8.05 8.05 0 0 1 -2.39 1.09 6.84 6.84 0 0 1 -2 .2 3.29 3.29 0 0 1 -2.13-1.07m-38.42 0 .5-.26.24-.12.52-.23.16-.06.39-.16a16.28 16.28 0 0 1 2-.76c.21 0-.14.68-.18.73l-1.21.5-.16.06-.16.06-.2.06-.16.06-.3.12-.26.1c-.21.08-.44.17-.62.26l-.22.13-.16.06-.16.08c-.22.1-.44.18-.33-.12s.17-.51.31-.51m21.32-4.24a1.68 1.68 0 0 1 -.14.44s-.12.41-.16.59c-.12.48-.3 1.2-.32 1.43a2.86 2.86 0 0 0 .44 1.24c.11.19.46 0 .55-.08a1.48 1.48 0 0 0 .12-.29 1.9 1.9 0 0 1 .17-.38c.15-.27 0 .64 0 .77a2.27 2.27 0 0 1 -.43.85.55.55 0 0 1 -.62.18c-.79-.29-.69-2.05-.46-2.85.11-.39.23-.78.36-1.15 0-.12.36-1 .5-.75m35.61 1.24a1.25 1.25 0 0 0 1.12-.45s.21-.31.31-.46.22-.34.28-.26v.24.16c0 .11 0 .17.16.19a3.29 3.29 0 0 0 .76.13 2.55 2.55 0 0 0 .23-.72c0-.18.24-.58.37-.61s-.11 1.14-.17 1.28a2.28 2.28 0 0 1 -.59.89.69.69 0 0 1 -.66.12 1.51 1.51 0 0 1 -.28-.1c-.15-.07-.31-.15-.44-.09s-.08 0-.2.17l-.21.18a4 4 0 0 1 -.62.24.9.9 0 0 1 -.68-.14 1.65 1.65 0 0 0 -.87-.26 11.73 11.73 0 0 0 -2.41 1.38c-.27.18-2.45 1.4-2.81 1.1-.15-.13.29-.25.32-.26a1.61 1.61 0 0 0 .4-.17l.89-.56c.52-.32 1-.68 1.52-1s1-.72 1.53-1a2.49 2.49 0 0 1 1.09-.38 1 1 0 0 1 .5.18 2.39 2.39 0 0 0 .48.26m-26.9-1.81a4.43 4.43 0 0 1 -.27-2.72 3.62 3.62 0 0 1 .36-1.11c.06-.14.26-.56.26-.56a1.19 1.19 0 0 0 .21-.62l-.33-.24-.33-.24-.72-.64c-.13-.12-1.14-1.22-1.14-1.22a3.56 3.56 0 0 1 .11-1.61c0-.07.19.06.24.1a1.45 1.45 0 0 0 .39.21l.56.21.15.06.21.08c.29.11.56.23.83.36s.35.27.12.36l-.32.05c-.13 0-.19 0-.24.08-.24.23 1.23 1.08 1.43 1.11s.27-.23.32-.31.28-.39.67-.86c0 0 .16-.25.17-.25a1.5 1.5 0 0 1 .17-.23c.22-.27.45-.55.63-.82s.55-.76.67-.76-.43 1.82-.47 1.89l-.24.33-.09.15-.4.52c-.27.34-.64.79-.17 1.07a3.18 3.18 0 0 1 1.67 2 5.13 5.13 0 0 1 -.3 2 5.43 5.43 0 0 1 -2.9 1.95 1.32 1.32 0 0 1 -1.27-.31m3.72-2.86c0-.46-1.92-1.59-2.39-1.53a7 7 0 0 0 -1.12 1.94 1.24 1.24 0 0 0 .25.89c.12.2.69.14.92.12a4.57 4.57 0 0 0 2.34-1.42m-18.81.95a2.51 2.51 0 0 0 -1.08-.89c-.4-.16-1.19.14-1 .59.09.24.47.36.76.42.12 0 1.66.27 1.35-.12m10.62-.58c.65-.68-2.66-2.41-3.1-2.29-.06 0-.12.38-.14.51a2 2 0 0 1 -.12.44 4.31 4.31 0 0 1 -.22.49 1 1 0 0 0 -.15.57c.09.49 3.42.5 3.73.28m22.36-1a2.33 2.33 0 0 0 -1-.76 1.57 1.57 0 0 0 -1 0 1.45 1.45 0 0 0 -.43.32s-.14.17-.16.18.19.33.2.33a2.35 2.35 0 0 0 .79.2c.26 0 1.57 0 1.58-.27m-26.34-.68c.38-.41-1-2.62-1.65-2.16a3 3 0 0 0 -1.21 2c0 .29.83.77 1.11.91s1.73-.45 1.75-.73m-10.57-8.44a6.81 6.81 0 0 0 -.48 2.31c0 .59.22 1.36.9 1.31.08 0 .17-.28.21-.4s.15-.44.22-.37-.38 1.46-.52 1.71c-.62.77-1.16-1-1.21-1.44s.76-3.89.88-3.12m47.68-.26a8.08 8.08 0 0 1 -.63 1.85l.23.68a2.45 2.45 0 0 0 .14.34l.07.15.17.14c0 .19.53-.26.54-.27s.27-.47.27-.42-.33 1.76-.93 1.63c-1.27-.28-.61-3.55.14-4.1m-14.77 2.73a3.41 3.41 0 0 1 0-1.82c.17-.51.6-1.78.78-1.78a4.26 4.26 0 0 1 -.24.75 3.54 3.54 0 0 0 -.26 1c0 .76.19 1.61.82 1.72.18 0 .33-.21.38-.38s.16-.65.27-.6c.37.17-.39 1.83-.77 2s-.84-.6-1-.89m-23.22-5.54c.07-.22-.39-.52-.58-.64a2.51 2.51 0 0 1 -.62-.63c-.48-.61.61-2.56.84-2.92a1.25 1.25 0 0 1 .78-.43 1 1 0 0 1 .79.52 3 3 0 0 1 .26 1.8 2.68 2.68 0 0 1 -.22.71.94.94 0 0 0 -.12.56s.16.17.2.2.18.22.25.32a2.66 2.66 0 0 1 .41.7c.11.48-.22 1.45-.59.94-.21-.28-.62-.84-.84-.84a8.78 8.78 0 0 0 -.55.73 6.83 6.83 0 0 1 -.72.89c-.49.47-1.27 1.26-1.59 1.54s-3.63 2.37-4 2.26.75-.78.79-.8.56-.43.84-.65.55-.43.83-.62l.85-.64a14.64 14.64 0 0 0 1.55-1.39c.19-.2.61-.64.71-.72a4.1 4.1 0 0 0 .61-.68zm8.48 4.55c-.09-.37.54-1.46.85-1.41l.7.46c.25.17.6.4.79.37l.34-.59a1.16 1.16 0 0 1 .44-.53c.29-.15 1.55 1 1.53 1.54a2.62 2.62 0 0 1 -.79 1.1s-.65-.49-.73-.55a3.67 3.67 0 0 0 -.75-.56 9.45 9.45 0 0 0 -.47.84c-.11.23-.29.62-.68.32l-.32-.24-.25-.16a7.49 7.49 0 0 1 -.66-.59m28.93-4.79c0-.08-.13-.14-.22-.2l-.39-.24a1.42 1.42 0 0 1 -.46-.59 2.43 2.43 0 0 1 .89-2.3.66.66 0 0 1 .73.13 2.08 2.08 0 0 1 .29.62 3.6 3.6 0 0 1 .08.56v.24l.06 1.2c0 .08.1.14.18.18a1.54 1.54 0 0 1 .31.27 1 1 0 0 1 .08 1c-.07.12-.5-.23-.55-.26a1.56 1.56 0 0 0 -.5-.29c-.07 0-.53.51-.6.6s-.44.42-.68.64a12.63 12.63 0 0 1 -1.51 1.2c-.59.4-4.12 2.52-4.65 2.2-.07 0 .66-.54.73-.58l.26-.16.14-.07.3-.16a1.74 1.74 0 0 0 .28-.16l.12-.08.18-.13.14-.08.49-.31.22-.12.27-.17.45-.32c.92-.59 3.2-2.09 3.36-2.65m-27.61-.55a1.79 1.79 0 0 0 -.19-.18.69.69 0 0 1 -.17-.21 2.76 2.76 0 0 1 -.34-.62 3.22 3.22 0 0 1 .46-1.54c.2-.24.55-.58.85-.54s.5.51.52.9a7.62 7.62 0 0 1 0 .91c0 .14-.12.92 0 .92s.7.57.86.75 0 .66-.1.81a3.88 3.88 0 0 1 -.61-.4c-.18-.12-.58-.4-.77-.34a2.49 2.49 0 0 0 -.45.49c-.09.11-.37.38-.56.57s-.76.65-1.16 1a13 13 0 0 1 -2.86 1.35c-.26-.11.5-.55.53-.57l.74-.43.52-.41c.11-.09.46-.33.67-.47a12.39 12.39 0 0 0 1.22-.9c.18-.14 1-.84.87-1.06m-30.73 2.53a6.57 6.57 0 0 1 .7-4.94c.2-.37-.09.64-.11.7a8.79 8.79 0 0 0 -.36 1.27 4 4 0 0 0 0 1.82 2.11 2.11 0 0 0 .26.52 1.84 1.84 0 0 0 .21.27l.19.17c0 .2.51-.22.52-.24a2 2 0 0 0 .14-.35c0-.07.08-.26.15-.21.27.18-.42 1.6-.55 1.72-.39.4-1-.33-1.12-.68m35.31-.44c1.36-.97 8.24-4.88 8.43-4.88s-.19.87-.26.93c-.77.61-8.37 4.87-8.37 4.87s0-.93.17-1m14.8-.83a6 6 0 0 0 .12-1.58 3.91 3.91 0 0 1 .18-1.43c.34-.57.81-1.37 1.35-1.33.37 0 .81.86.7 1.21s-.2.66-.5.29a1.55 1.55 0 0 0 -.65-.51c-.17-.05-.48.26-.54.4a10.72 10.72 0 0 0 -.14 2.32c0 .29-.12 2.46-.59 2.35l-.09-.33a1 1 0 0 0 -.14-.36c0-.09-.21-.34-.31-.5-.25-.37-.57-.84-.77-1.08a2.11 2.11 0 0 0 -.4-.39c-.09-.06-.09-.06-.31 0a.82.82 0 0 1 -.45-.12c-.36-.19-.8-.43-.8-1 0-1.6 1.42-.31 1.86.09a6 6 0 0 1 .75.84l.16.24.15.24a1.52 1.52 0 0 1 .16.26 2.35 2.35 0 0 0 .26.39m-41.23-2.06c0-.06-.28-.26-.46-.39a1.11 1.11 0 0 1 -.46-.61 1.44 1.44 0 0 1 .28-1c.33-.3 1.69 1.06 1.83 1.21s.48.6.71.91a4.57 4.57 0 0 1 .29.47 3.61 3.61 0 0 0 .42.68 4.09 4.09 0 0 0 .14-1.1c0-.45.06-1.16.12-1.52a3.6 3.6 0 0 1 .59-1.32c.37-.38.77 0 1 .29a1.11 1.11 0 0 1 .1 1.43c-.06.12-.41-.29-.44-.33a2.89 2.89 0 0 0 -.41-.43c-.58-.37-.58 1.2-.58 1.48 0 .48-.35 3-.75 3l-.06-.21-.08-.2-.15-.36-.27-.54a6.63 6.63 0 0 0 -.72-1c-.3-.38-.61-.76-.85-.09a2.56 2.56 0 0 1 -.69 1.19c-.66.44-2.74 1.84-3.28 1.68-.13 0 .41-.39.42-.4a6.79 6.79 0 0 0 .65-.44 1.05 1.05 0 0 1 .24-.15l.3-.16c.16-.1.37-.27.55-.41.38-.28 1.68-1.33 1.56-1.68m49.82-.8c-.19-.56-.94 0-1 .36s.77.73 1 .83c.58.29.25-1 0-1.19m-37.18-.43c-.2-.21-.44-.45-.62-.46s-.52.32-.64.53c-.23.43.54.9.82 1.07.86.53.76-.51.44-1.14m9.73.09c-.26-.32-.76 0-.84.32s.48.63.63.75c.53.41.36-.87.21-1.07" fill="#221e1f" fill-rule="evenodd"/></svg>