<svg viewBox="0 0 77.78 27.01" xmlns="http://www.w3.org/2000/svg"><path d="m73.74 1.37c-.06-.2-.44-.24-.59-.14-.19.13-.43.33-.38.56.03.15.7.59.85.66.68.31.32-.82.12-1.08m-26.89.05c-.23-.17-.71.07-.72.37 0 .24.55.75.76.74.3-.02.06-.92-.04-1.11m-21.35 2.72c-.29-.67-.11-2.92.39-3.49.19-.22.05.59.03.69-.1.54-.17.94-.16 1.45 0 .37.28.65.52.8.22.14.35-.05.4-.2s.15-.47.24-.47c.45 0-.4 1.61-.62 1.71-.22.11-.64-.33-.81-.5m-6.91-.42c-.46-.06-2.14-.18-2.49.05-.22.15-1.02.68-1.07.67-.65-.08 1-2.03 1.34-2.18.49-.21 1.26-.22 1.79-.22.48 0 .74 0 1.13.04.16.02.83.08.83.22-.03 1.09-.74 1.78-1.41 2.42-.19.19-.69.41-1.01.55-.25.11-1.32.38-.7-.11.15-.12.3-.24.44-.36.14-.11.28-.23.42-.34s.82-.65.73-.74m-6.93 1.68c-.22-.31-.25-1.06-.18-1.48.09-.58.42-2.05.72-2.38.13-.14-.07.86-.11 1.06-.1.52-.2 1-.2 1.4 0 .3.24.86.46.94.08.03.22-.02.27-.07l.09-.13c.06-.12.14-.28.2-.27.37.07-.35 1.27-.52 1.39-.31.22-.61-.27-.73-.46m50.67-3.82c.36-.27 1.58.74 1.76.96l.3.33.17.21q.16.19.16.2c.05.07.22.31.31.45.1.16.31.47.34.48.1.04.12-.6.12-.66 0-.05-.02-1.05-.02-1.26 0-.42.12-.82.24-1.12.17-.45.51-.77.85-1.07.18-.15.48-.06.61.05.41.36.74 1.02.32 1.57-.06.08-.46-.31-.48-.33-.15-.15-.29-.28-.49-.33-.26-.06-.48.3-.54.5-.03.11-.04.54-.04.8 0 .47 0 1.25-.04 1.81-.02.29-.15 2.18-.55 1.87t-.06-.18c-.04-.21-.1-.38-.18-.54l-.17-.25c-.08-.11-.16-.22-.23-.33-.26-.38-.54-.77-.86-1.1-.07-.07-.23-.11-.63-.21-.21-.05-.49-.24-.71-.38-.3-.2-.69-1.29-.18-1.47m-11.4 3.79c.54-.45 7.73-4.76 8.14-4.87.21-.06.03.65-.06.8-.03.06-.66.48-.93.66 0 0-.35.21-.52.32q-.13.08-.28.16c-.14.07-.27.16-.4.24-.28.18-.77.46-1.15.68s-.73.45-1.09.68c-.75.5-1.58 1.01-2.38 1.4-.04.02-.1.06-.34.22l-.26.14-.48.32s-.43.27-.46.2c-.08-.18.06-.89.22-.97m-5.29-3.01c-.05-.41.27-1.35.48-1.54.26-.24.58-.52.83-.49.38.05.47.58.51.94.02.2-.02.64-.04.92-.03.35-.06.7-.01.76l.13.09.33.25c.17.13.33.27.43.47.1.19.02.73-.16.84-.01 0-.2-.13-.2-.13-.1-.08-.19-.16-.29-.23-.24-.15-.6-.4-.73-.42-.12-.02-.48.42-.6.57l-.22.31-.13.07-.22.18c-.4.4-.85.85-1.26 1.1s-1.98 1.08-2.24 1.08c-.19 0 .17-.46.17-.46.05-.05.22-.15.35-.23.22-.13.46-.33.67-.5.43-.34.89-.65 1.35-.95.47-.31.89-.71 1.26-1.12.28-.31.36-.39.04-.7-.18-.18-.47-.5-.47-.84m27.75 1.15c-.02-.06-.26-.22-.42-.34-.17-.12-.33-.27-.46-.43-.37-.45-.07-1.33.13-1.82.1-.25.43-.68.73-.74.27-.06.62.08.69.29.25.69.34 1.46.34 2.22 0 .19.2.37.45.59s.36.82.09 1.06c-.01.02-.32-.16-.46-.24-.23-.13-.48-.28-.63-.24-.02 0-.18.23-.25.31-.07.1-.2.26-.61.62q-.07.07-.22.2c-.13.1-.23.22-.34.34 0 0-.23.19-.33.27-.19.16-.61.49-.65.51 0 0-.43.29-.58.4l-.12.08-.24.16c-.39.26-.78.49-1.19.72-.32.18-2.33 1.12-2.6.99-.06-.03.65-.55.71-.58.3-.17.6-.34.89-.52.64-.39 1.26-.79 1.88-1.2.9-.6 3-2.05 3.2-2.62m-69.24 1.88c0-.12-.38-.36-.59-.48-.22-.13-.38-.26-.54-.45-.19-.23.12-.99.24-1.16.36-.48 1.77 1.01 1.96 1.21.13.14.49.67.72 1.01q.08.12.16.28s.02.04.16.28c.08.15.32.55.38.54.07-.02.06-1.37.05-1.58-.03-.74-.06-1.33.08-1.81.12-.41.3-.93.65-1.12.44-.25.85.19 1.03.46.12.17.26.39.26.54 0 .07-.14.36-.22.48 0 .09-.6-.25-.65-.28-.18-.12-.4-.27-.6-.2-.15.05-.14 1.54-.14 1.93 0 .72-.04 1.38-.2 2.13-.04.17-.28 1.25-.4 1.18l-.05-.13-.06-.2c-.07-.2-.15-.37-.24-.56-.15-.31-.32-.61-.48-.9-.16-.28-.78-1.27-1.08-1.18-.03.01-.11.29-.15.43-.02.05-.09.25-.1.28 0 0 0 0-.12.34-.07.2-.36.63-.53.89-.14.21-.78.72-1.26 1.11-.24.19-1.63.74-1.52.51 0 0 .81-.64.94-.74.34-.25.63-.53.92-.82.55-.55 1.26-1.27 1.38-1.98m41.03 3.33c-.17-.22.41-1.19.56-1.34.22-.23 1.36.47 1.52.67.16.19.48-.45.51-.5.14-.28.31-.62.54-.66s1.27.92 1.41 1.12c.25.36-.44 1.33-.68 1.47-.09.05-.58-.35-.72-.46s-.68-.55-.72-.54c-.06 0-.27.4-.38.59-.15.28-.34.63-.38.66-.27.21-1.67-.96-1.66-1.02m-25.45.16c1.29-.73 3.89-1.86 6.15-2.85 2.02-.88 6.23-2.63 7.06-2.79.31-.06-.15 1.17-.34 1.22-.56.14-2.42.9-3.77 1.47-.66.27-1.31.53-1.98.78-.61.23-1.25.47-1.83.76l-3.63 1.61c-.24.12-.87.42-.87.42-.06.03-.31.16-.48.26l-.3.16c-.45.22-.76.37-.46-.32.09-.21.3-.69.46-.72m40.06.88-.06-.16-.1-.2c-.11-.32-.14-.74-.12-1.12.02-.63.46-2.04.75-2.4.29-.37-.09.71-.13.79-.16.41-.24.9-.22 1.44 0 .22.17.6.26.74.06.1.78.72.78.31 0-.09.29-.88.34-.88.44 0-.27 1.66-.31 1.71-.36.5-.98.26-1.19-.24m13.51-.16c-.19-.72.36-2.9.81-3.14.1-.06-.2.83-.22.88-.16.32-.22.61-.26 1.04-.04.44.21.86.39 1.14.17.25.52-.07.6-.21.07-.14.25-.46.28-.46.09 0-.04.59-.06.68-.05.19-.1.34-.18.5-.11.22-.35.6-.68.52-.4-.1-.59-.54-.67-.94m-44.88-1.61c0 .33.06 1.42.26 1.54.47.28.79.05 1.04-.31.04-.07.03-.61.02-.78-.03-.43-.03-.76.11-1.12.1-.25.25.29.26.31l.04.5v.22c0 .06.06.23.08.28.03.07.16.33.21.38.16.14.9.2.87.01-.02-.12-.04-.24-.1-.39-.07-.17-.15-.39-.18-.52-.04-.2-.1-1.29.19-1.22.03 0 .55 1.62.57 1.72.06.28-.28 1.25-.45 1.35-.19.12-.35.21-.59.21-.12 0-.34-.05-.44-.1-.15-.07-.35-.17-.47-.04l-.09.15-.16.2s-.17.13-.23.17c-.08.06-.16.11-.2.14-.21.18-.6-.08-.73-.18-.26-.21-.3-.74-.3-1.06 0-.17 0-1.68.3-1.46m1.63 4.76c.07-.35.42-1.11.71-1.26s1.53.9 1.47 1.33c-.05.35-.63 1.39-.98 1.04-.11-.11-.2-.2-.31-.27-.12-.08-.23-.16-.34-.25-.23-.21-.55-.5-.55-.57m-17.53 1.23c-.07-.21-.13-.43-.18-.68-.02-.12-.08-.4-.08-.48l.04-.44v-.14s0-.31 0-.31c0-.17.03-.3.08-.56l.04-.24.04-.2.04-.28.04-.2s0 0 .12-.48l.04-.2.08-.28c.08-.28.08-.28.08-.28.12-.49.67-2.13.93-2.25.2-.09-.48 2.4-.53 2.57-.05.16-.14.44-.16.52l-.04.16-.04.2-.04.16c-.23.8.35 3.61 1.34 2.92.1-.07.17-.32.23-.51.05-.17.17-.58.28-.6.57-.1-.46 2.26-.51 2.36-.13.22-.86.29-1.07.15-.37-.24-.53-.51-.74-.91m-5.65.36c-.44-.97.29-2.92.65-3.85.06-.17.09.31.06.4-.05.18-.16.56-.16.56l-.08.28-.08.32c-.01.07-.08.38-.08.44v.62l.04.18s.13.34.14.36c.09.18.19.38.36.48.15.1.32.11.4-.06.11-.23.24-.49.28-.51.29-.14-.15 1.4-.42 1.55-.51.28-1.01-.43-1.12-.77m56.69 1.58c.06-.2-.53-.62-.7-.72-.23-.13-.92-.22-1.13-.08-.26.17-.45.3-.58.54-.34.61 2.11.39 2.41.25m-13.83.83c.15-.55-1.84-1.5-2.24-1.58-.18-.04-1.04 1.63-1.11 1.86-.09.29.02.67.19.88.11.14.46.28.68.23.48-.12 2.51-1.06 2.48-1.39m-3.62 2.72-.07-.15q-.11-.21-.14-.28c-.04-.1-.12-.33-.12-.36-.1-.54 0-1.3.12-2.01.06-.32.18-.64.3-.92 0 0 .16-.32.22-.44.1-.2.26-.51.22-.66-.01-.05-.22-.2-.3-.26-.13-.1-.29-.23-.44-.35-.3-.25-.6-.5-1.24-1.22q-.05-.06-.22-.16c-.08-.04-.18-.11-.22-.18-.16-.26-.16-1.48.05-1.76.05-.07.23.08.26.1.12.1.23.17.39.23l.22.08q.37.13.41.14c.15.06.29.11.44.16.16.06.72.28.75.33.19.25.04.3-.2.35-.08.01-.24.04-.33.1-.13.09.53.56.58.6.2.15.65.47.85.4.09-.03.98-1.26 1.17-1.54l.24-.32q.1-.14.48-.64l.17-.23c.13-.18.31-.42.33-.43.48-.12-.35 1.84-.44 1.98-.18.26-.51.75-.56.82-.16.21-.47.64-.49.85 0 .07.26.23.34.28.18.11.42.26.52.33.25.19.47.42.66.66.55.67.56 2.04.15 2.92-.34.72-1.96 1.78-2.86 1.93-.61.1-.83-.02-1.27-.35m-20.41-1.37c.05-.08.52-.45.66-.55.17-.12.54-.42.55-.63.06-1.06-2.93-2.4-4.18-2.04-.67.19-1.29.52-1.71.97-.67.71-3.14 3.6-3.03 4.24.1.55 4.15-.33 4.65-.47.21-.06 1.05-.44 1.57-.68.24-.11.48-.24.64-.33l.13-.09.28-.16.26-.16.17-.1zm13.28-16.45c.15-.44.31-.93.49-1.26.12-.21.92 1.94.96 2.06.07.2.14.4.2.6s.13.37.22.54c.16.31.55 1.13.38 1.48-.08.17-.49-.31-.51-.33-.09-.11-.31-.37-.41-.34s0 .77.03.94c.01.09.07.52.08.68.05.58.13 1.11.2 1.65.06.4.24 1.65.24 1.65.08.43.19 1.23.28 1.85l.04.32.04.24.04.32.04.2c.04.22.05.31.08.56l.04.36.04.2.04.32.04.24q.05.32.08.52c.09.68.2 1.51.24 2.11l.04.42.04.44.04.32.04.64c0 .15.03.87.04.88.1.27-.27 2.08-.4 2.45-.09.24-.36.43-.42.08-.02-.1-.03-.48-.03-.61 0-.29 0-.39-.03-.71-.17-1.92-.41-4.34-.68-6.54q-.03-.26-.08-.52l-.04-.24-.04-.52-.04-.32c-.05-.3-.2-1.3-.2-1.32q-.05-.4-.08-.56c-.04-.26-.08-.54-.12-.8-.04-.31-.08-.61-.12-.92l-.04-.32-.04-.28-.04-.28c-.12-.9-.28-2.42-.4-3.57l-.04-.4-.04-.28-.04-.44q-.02-.24-.04-.36c-.08-.41-.18-.93-.12-1.12m33.99 19.17c.3-.1.56-.27.74-.49.07-.09.16-.23.21-.33.09-.17.13-.26.24-.36.02-.02.04.32.04.32 0 .09.06.26.15.29.31.11.51.19.74.12.03-.01.16-.46.23-.74.07-.24.18-.44.32-.6.27-.3 0 1.03-.04 1.12-.11.33-.27.76-.52.98s-.65.14-1.2.03c-.15-.03-.31.08-.58.28-.19.13-.38.22-.62.3-.29.1-.59 0-.81-.14-.15-.09-.68-.42-.93-.18l-.2.06-.18.08c-.08.04-.23.11-.3.16-.16.11-.33.22-.49.32l-1.03.72c-.58.38-2.04 1.33-2.76 1.1-.11-.03.28-.24.28-.24.17-.06.33-.13.47-.22.18-.12.58-.38.87-.56.46-.29 1.01-.7 1.51-1.06s1.05-.76 1.52-1.03c.29-.16.71-.34 1.13-.3.12.01.31.12.4.18.21.13.5.3.8.18m-35.8 1.88c.06-.51.54-2.2.95-2.27.03 0-.27.89-.28.92-.13.4-.28 1.16-.14 1.65.06.21.22.67.42.69.18.02.27-.1.36-.25.07-.12.26-.43.31-.39.29.2-.56 1.57-.8 1.62-.78.16-.82-1.52-.83-1.97m18.15 2.07c-.57-.28-1.09-.83-1.39-1.38-.25-.46-.34-.94-.42-1.59-.04-.27-.02-.67 0-.96 0-.17.05-1.01.04-1.02-.04-.05-1.17.7-1.28.77l-.24.17c-.11.08-.22.16-.33.23-.13.08-.34.21-.38.24-.12.08-.25.16-.38.24-.93.53-1.86 1.05-2.82 1.57-.97.52-2.24.83-3.49 1.1l-.2.04-.2.04-.16.04-.24.04-.16.04-1.13.24c-.14.04-2.17.6-1.77.19.37-.38 2.34-1.11 3.26-1.43 1.19-.42 2.38-.98 3.39-1.63.74-.47 1.54-.91 2.32-1.32.43-.23 1.6-.98 2.44-1.52.74-.47 3.92-2.82 3.81-3.45-.03-.21-.46-.97-.72-1.42-.3-.53-.58-1.05-.87-1.59-.13-.25-.24-.52-.34-.8-.11-.29-.24-.66-.35-.88-.13-.28-.26-.56-.22-.8.03-.17.22-1.26.32-1.24.21.04 2.11 2.11 2.09 2.34 0 .03-.32-.03-.34-.03-.13-.02-.35-.06-.46-.03-.23.06.67 1.47.74 1.58.32.48.68 1.08.79 1.69.06.34.12 1.84-.08 2.25-.39.77-.7 1.4-1.33 1.89-.16.12-.3.24-.45.37q-.14.12-.2.16l-.18.14c-.25.28-.49 1.57-.29 1.94l.04.24.04.16q.05.21.1.32c.1.23.22.45.38.62.35.36.77.78 1.2.91.49.15.99.25 1.61.18.83-.09 1.65-.29 2.22-.66 2.05-1.35 3.86-2.66 5.29-4.61.17-.23-.03-.49-.15-.66-.06-.08-.53.08-.62.11-.15.05-.33.08-.52.12-.58.11-1.3.2-1.77.2s-.95-.3-1.28-.51c-.63-.39-.45-1.83-.25-2.52.04-.15.49-.71.94-1.28.21-.26.65-.36 1.06-.39.46-.04 1.12.32 1.37.54.43.38.94.98 1.45 1.58.2.23 1.68-.86 1.79-.95.49-.39 1.3-1.03 1.63-1.09.15-.03.21.16.22.3v.36l-.04.52c.05.39.29.76.53.98.6.55 1.85.72 2.74.31.63-.29 1.05-.71 1.39-1.3.16-.27.37-.65.46-.86.07-.17.13-.3.22-.44.04-.07.12-.18.17-.23.04-.04.15-.17.15-.17.02-.08.24 0 .23.17 0 .14-.06.29-.11.39-.17.4-.31.71-.28 1.05.02.22 1.02.78 1.29.82.31.05 1.53.22 1.51-.22-.01-.24-.17-.55-.31-.72-.15-.18-.24-.28-.21-.57.03-.42.21-.93.34-1.28.13-.34.56.68.56.68.16.36.27.75.34 1.21.08.55-.03 1.12-.2 1.64-.11.32-.4.62-.72.94-.19.2-1.15.21-1.48.13-.39-.09-.81-.28-1.08-.51-.15-.12-.3-.27-.42-.42-.11-.13-.3-.37-.38-.33 0 0-.21.35-.25.41-.08.13-.16.27-.25.37-.22.24-.45.47-.74.65-.24.15-.49.24-.79.34-.14.05-.29.08-.42.12-.11.02-.18.04-.19.04-.04 0-.24 0-.24.02-.03.15-1.3-.3-1.36-.33-.31-.15-.55-.46-.75-.73-.11-.15-.21-.37-.27-.55l-.06-.24-.04-.24s-.08-.38-.14-.3c0 0-.87.66-1.12.83-.27.19-1.07.79-1.1.88-.09.23-.1.66-.1.92 0 .37-.09.84-.22 1.17-.18.45-.52.9-.85 1.3l-.18.22q-.13.1-.18.18t-.19.23c-.09.09-.21.21-.24.29-.1.31-2.57 2.23-3.06 2.56-.68.45-1.38.77-2.24 1.06-1.07.35-2.25.34-3.21-.14m-27.79-.2c-.41-.67.37-3.03.77-3.38.18-.16-.08.65-.08.65-.06.18-.24.76-.24.76-.07.41-.08 1.42.32 1.65.31.17.5.12.61-.2.05-.16.36-.79.36-.28s-.51 1.64-.95 1.63c-.41 0-.64-.5-.79-.82m-18.82 1.32c.17-.11 1.04-.45 1.49-.62.29-.11.78-.29.87-.35.02-.01.63-.27.86-.37l.16-.06.32-.14.16-.06.45-.18.16-.06.34-.16.16-.08q.21-.11.34-.16.19-.08.34-.16c.16-.08.35-.17.5-.22.36-.1-.18.81-.26.87-.11.09-.72.37-1.03.51-.61.27-1.27.56-1.9.82l-.16.06-.4.16c-.19.07-.39.16-.57.24-.16.07-.28.12-.45.18s-.41.16-.6.24c-.27.11-1.05.4-1.05.4-.31.04.06-.8.24-.86m-7.26.6c-1.32-.84-1.8-3.07-1.07-4.9l.04-.16.04-.16.08-.24c.09-.3.18-.58.3-.84.23-.49.71-1.51.69-1.72l-.08-.14-.08-.14s-.03-.07-.12-.3c-.11-.3-.18-.64-.22-1.02-.09-.79.53-4.43 1.08-5.03.21-.23-.07.9-.11 1.05s-.16.43-.21.55c0 .02-.11.64-.15.87-.2 1.16-.21 2.6.68 3.32.29.23.59-.12.71-.32.14-.25.39-.66.42-.65.15.03-.16 1.11-.19 1.22-.12.35-.23.67-.45.9-.09.1-.22.17-.38.21-.42.09-.43.1-.52.24-.08.12-.14.22-.2.36-.09.2-.21.49-.28.62-.59 1.18-1.23 3.75-.4 4.98.18.27.49.41.89.46.19.02.92-.22 1.41-.38.7-.23 2.08-1.81 2.7-2.54.21-.26.42-.51.63-.77.18-.22.41-.48.62-.72.23-.26.46-.5.71-.74.09-.09.22-.2.35-.3.11-.09.27-.25.36-.37.22-.33 1.46-1.09 1.89-1.31.37-.19.74-.36 1.15-.5.21-.07.51-.17.65-.2.09-.02.26-.05.31-.05.07 0 .25 0 .25-.01.16-.2 1.78.36 1.98.44.29.12.59.43.8.65.23.24.48.51.73.67.27.18.69.45.9.17.01-.02.37-.55.55-.82.2-.29.39-.6.57-.9.18-.32.37-.63.57-.95.37-.61.79-1.22 1.26-1.74 1-1.1 2.07-2.04 3.92-2.17.45-.03 1.87.51 2.14.74q.13.08.24.16l.32.24c.24.17.48.41.62.68.18.34.37.69.34 1.12-.03.64-.22 1.38-.46 1.86-.12.24-.32.62-.41.74-.09.1-.41.49-.25.52.2.03 2.23-.84 2.72-1.07.19-.09.89-.46 1.31-.68.33-.17 1.12-.59 1.3-.51l.03.27-.04.32.04.44c.01.12.12.43.18.62.26.79 1.35 1.16 2.1 1.16.63 0 1.19-.31 1.58-.56q.43-.27.41-1.35c0-.25-.1-.92-.16-1.37-.07-.49-.1-.72-.16-1.2 0 0-.14-.9-.2-1.32-.13-.81-.35-2.3-.4-2.75-.03-.28-.08-.64-.12-.94-.07-.47-.16-1.14-.2-1.44-.06-.48-.12-.98-.16-1.24l-.04-.28-.04-.4-.04-.28-.04-.2-.04-.18c-.07-.65-.19-1.86-.24-2.35-.05-.45-.11-.94-.2-1.36-.08-.33-.17-.75-.12-.84l.12-.4.04-.16c.08-.28.17-.53.31-.75.13-.22 1.05 1.89 1.1 2.04.08.24.16.46.26.68.07.15.21.44.22.48.14.4.47 1.3.33 1.52-.09.15-.62-.5-.69-.58-.03-.04-.25-.31-.33-.16-.03.06.02.47.03.59l.04.4.04.48c.03.31.07.6.12.88l.04.24.04.24.04.2.04.2c.11.69.2 1.33.28 2.01.14 1.13.31 2.35.52 3.61.23 1.37.44 3.11.44 4.23 0 .69-.1 1.75-.38 2.39-.2.45-.43.84-.85 1.07-.34.19-1.28.7-1.58.6l-.28.04h-.16q-.23 0-.44-.04c-.2-.04-.46-.09-.62-.18-.45-.24-.78-.53-1.08-.91-.15-.18-.23-.43-.29-.69l-.08-.28c-.04-.23-.12-.73-.12-.74-.02-.03-1.13.46-1.29.54q-.12.05-.32.16l-.16.08-.18.08-.32.16q-.11.07-.24.12c-.38.16-.78.33-1.29.5l-.12.04-.24.08-.44.16-.28.08c-1.46.58-3.46 1.06-5.36 1.2l-.32.04-.18.04-.2-.06h-.13q-.19.09-.41.1c-.3 0-.95.03-.97.04-.23.02-.85-.06-1.17-.12-.24-.05-.7-.13-.88-.09-.05.01-.17.29-.21.39-.07.17-.16.38-.28.46-.29.21-.19-.37-.18-.42.06-.35.12-.66.09-.84-.01-.07-1.74-1.5-1.96-1.57-.52-.17-1.01-.26-1.62-.26-.73 0-1.57.39-2.06.7-1.3.83-2.33 1.71-3.28 2.88-.91 1.12-1.82 2.18-2.83 3.19-.33.33-.78.52-1.32.65-.63.15-1.26-.21-1.7-.5" fill="#1d1d1b" fill-rule="evenodd"/></svg>