<svg viewBox="0 0 77.02 25.46" xmlns="http://www.w3.org/2000/svg"><path d="m45.49 1.62c.12.32.4.78.87.78.05 0 .05-.57.02-.72-.02-.12-.11-.33-.19-.39-.23-.19-.65.12-.7.33m26.67.02c-.07.38.83.92 1.16.9.28-.02-.2-1.16-.27-1.23-.24-.24-.91 0-.89.33m-49.01-.64s-.12.57-.17.83c-.11.47-.27 1.22-.16 1.61.1.35.21.67.48.84.2.13.35-.08.43-.19q.08-.12.15-.29c.02-.05.11-.26.2-.24.1.02-.07.75-.1.84-.06.22-.15.45-.26.62-.42.63-.91.18-1.18-.31-.3-.54-.27-1.43-.09-2.07l.04-.16.04-.16.08-.28.06-.24c.04-.13.33-.96.48-.79m38.55.51c.35-.34 1.63.91 1.8 1.08.18.18.41.46.61.7.03.04.22.32.31.45.07.1.3.45.34.44.07-.04.09-1.22.09-1.28 0-.52 0-1.25.18-1.67s.45-.93.85-1.14c.21-.12.51-.14.65.01.21.22.42.44.49.73.04.15 0 .97-.3.85-.01 0-.25-.24-.38-.38-.12-.12-.25-.23-.41-.29-.24-.08-.52.23-.56.42-.08.32-.08 1.18-.08 1.77 0 .79-.07 1.4-.2 2.21-.12.72-.28.76-.54.08-.13-.32-.36-.64-.57-.92-.19-.26-.42-.55-.64-.81-.09-.11-.17-.19-.26-.29-.03-.03-.21-.13-.23-.13h-.36c-.27-.1-.73-.36-.89-.56-.18-.22-.19-1.15.1-1.26m-11.4 3.72c.08-.12 3-1.87 4-2.44.3-.17 1.01-.58 1.05-.6.34-.21.69-.41 1.05-.6l.48-.3c.12-.06.35-.19.55-.3s1.02-.58 1.06-.55c.22.13-.11.78-.16.87-.15.28-8.23 4.92-8.23 4.92-.1-.01-.05-.98.2-.99m-42.92-2.6s-.29-.25-.39-.34c-.1-.11-.33-.33-.45-.33-.4 0-.5.99-.54 1.5-.01.16-.46 3.54-.77 2.89-.43-.9-.81-1.68-1.26-2.14-.07-.07-.35-.35-.37-.35l-.24.02h-.16l-.3-.1c-.28-.12-.65-.44-.73-.76-.07-.3.11-.87.28-1.02.28-.25 1.65.99 1.77 1.13.22.24.41.46.6.73.09.13.66.98.66.98.07-.07.15-1.07.17-1.4.03-.46.12-1.16.3-1.63.14-.37.32-.6.62-.8.68-.45 1.39 1.01.82 1.62m38.29.58s-.23-.26-.34-.37c-.14-.17-.29-.37-.33-.63-.07-.53.29-1.26.51-1.6.14-.22.43-.4.7-.47.8-.2.61 1.81.52 2.23-.07.34.15.5.4.68.24.17.49.35.57.68.03.13-.07.52-.13.65-.03.07-.58-.34-.64-.38-.25-.18-.49-.35-.8-.34 0 0-.4.49-.43.54-.12.18-.46.51-.74.78-.07.08-.17.18-.26.24l-.12.07-.28.24-.23.16c-.2.2-2.59 1.4-2.91 1.45-.57.07 1.07-.98 1.07-.98.21-.12.41-.26.6-.41.2-.17.64-.48 1.22-.88 0 0 .46-.36.65-.51.2-.16 1.12-.91.96-1.17m-31 3.9c-.04-.12-.15-1.36-.21-2.11-.04-.52.29-1.6.46-2.13.09-.26.5-1.5.73-1.45.08.02-.17.57-.18.6-.05.1-.12.44-.16.6-.15.66-.33 1.46-.36 1.97-.05.6.23 1.81.84 1.83.22 0 .37-.34.45-.55l.04-.24c.03-.13.09-.39.2-.39.56 0-.55 2.33-.59 2.37-.14.12-.42.11-.57.03-.14-.08-.24-.14-.35-.23l-.13-.08-.16-.23zm58.05-3.67s-.16-.13-.23-.18c-.08-.06-.32-.24-.32-.24-.18-.16-.37-.35-.43-.55-.23-.84.37-1.97.91-2.27.22-.12.58 0 .7.15.34.42.38 1.43.41 2.36 0 .09.25.37.48.61.1.11.2.23.21.39 0 .03-.06.74-.18.62l-.34-.22-.24-.16c-.07-.04-.21-.13-.22-.14-.18-.18-.71.52-.77.6-.2.26-.53.56-.79.76l-.13.07q-.2.2-.28.29l-.2.16-.13.08c-.27.21-.84.64-.91.69-.4.29-3.75 2.25-4.22 1.93-.06-.04.67-.54.75-.58.07-.04.58-.33.91-.52.4-.23 1.27-.8 1.88-1.2.6-.4 1.47-.98 1.77-1.22.23-.19.68-.56.73-.6.13-.13.73-.74.66-.82m-26.62 6.15c-.36.06-1.66-.92-1.68-1.21-.01-.22.6-1.24.75-1.28.15-.03.49.21.66.34.23.17.57.41.83.46.08.02.36-.51.44-.66.08-.14.28-.46.44-.5.15-.04.62.32.76.43.11.1.23.2.34.3.1.1.33.33.37.36.35.26-.56 1.47-.64 1.5-.14.06-.63-.36-.91-.59-.11-.09-.25-.21-.34-.26-.3-.18-.37-.04-.54.27-.13.24-.44.81-.49.84m12.81-.3c-.2-.73-.1-1.36.08-2.09.05-.18.72-1.89.73-1.41 0 0-.1.34-.12.4l-.06.14q-.08.16-.1.22c-.09.28-.31 1.02-.24 1.29.11.45.41 1.64.97 1.28.14-.09.18-.26.24-.48.04-.15.11-.45.26-.44.11 0-.07.91-.1 1.04-.09.32-.23.61-.44.82-.55.54-1.06-.44-1.21-.78m13.67-.72c-.01-.25.15-.73.24-.96.06-.14.12-.29.18-.44l.17-.35c.12-.2.14-.24.23-.35.07.08-.01.34-.04.42 0 0-.15.33-.2.44-.22.48-.33.95-.18 1.53.07.29.24.79.66.68.15-.04.24-.19.3-.32s.18-.39.24-.35c.25.2-.32 1.72-.94 1.65-.64-.07-.78-1.39-.67-1.95m-57.38 1.91c.09-.34 2.91-1.69 3.51-1.96 1.19-.55 2.66-1.2 3.99-1.79 1.79-.79 8.15-3.43 8.15-3.43.32-.08.02.68-.02.78-.1.25-.54.48-.99.72-.49.26-1.61.74-2.35 1.06l-.17.07-.14.06-.2.06c-.17.06-.38.15-.52.24-.3.19-.77.36-1.17.5-.06.02-.89.37-1.25.52-.22.09-.44.2-.65.3-.21.11-.42.2-.65.28-1.45.56-3.34 1.3-4.55 2.01-.29.17-.61.33-.94.47-.34.15-.82.42-1.21.64-.18.1-1.05.6-1.11.58-.18-.07.14-.97.26-1.12m21.36.78c-.12-.59.32-2.89.75-3.15.36-.21-.07.85-.08.9-.05.11-.4 1.39-.2 1.29l.02.24c.01.06.12.3.14.34.05.1.14.3.24.32.24.06.32-.1.38-.26.05-.12.2-.47.28-.32.11.19-.32 1.11-.45 1.39-.37.8-.97-.45-1.08-.75m-11.9.88c1.34-.71 7.71-3.55 8.2-3.45.24.05-.16.85-.21.89-.03.03-.2.09-.31.13-.17.06-.41.16-.61.24-.18.08-.34.14-.52.2-.2.07-.44.17-.67.26-.74.31-2.17.92-2.4 1.05l-.16.08-.36.16c-.2.09-.4.19-.58.28q-.06.03-.42.16c-.12.05-.26.1-.36.16q-.2.11-.28.14-.24.08-.36.14c-.24.12-1.15.57-1.24.53-.18-.07.11-.96.29-.97m-18.55 2.74c-.38-.79.15-3.2.79-3.51.06-.03-.14.58-.14.58-.09.28-.28.88-.28.88-.12.6-.08 1.48.54 1.58.15.02.45-.51.45-.7h.16l.02.2c0 .14-.07.32-.12.48-.09.26-.18.52-.32.7-.44.54-.77.29-1.1-.22m56.7.8c-.23-.32-.65-.51-1.05-.66-.42-.16-.89.02-1.12.23-.26.24-.41.49.07.65.39.13 1.07.15 1.33.1.15-.03.9-.17.77-.32m-44.46-.04c-.25-.42-.34-1.13-.34-1.54 0-.5.59-2.29.84-2.52s0 .35-.03.46c-.07.17-.18.59-.24.84-.21.83-.15 2.03.62 2.14.15.02.24-.18.28-.3.07-.18.16-.42.29-.35.22.11-.36 1.38-.43 1.44-.31.28-.8.26-.99-.17m30.64.86c.03-.39-2.01-1.57-2.32-1.46-.19.07-.98 1.55-1.07 1.85-.11.35.09.68.23.88.13.18.48.2.76.19.51-.02 2.42-1.13 2.4-1.45m-2.01-3.46c.06-.05.43-.55.58-.75.19-.27.37-.52.56-.78.27-.37 1.2-1.59 1.33-1.61.32-.05-.53 1.98-.57 2.05-.25.34-1.07 1.43-1 1.65.02.06.25.2.38.28.12.07.32.21.46.32.06.05.26.2.29.23l.18.22.19.25c.24.24.34.71.41 1.09.06.36-.21 1.59-.38 1.85-.7 1.01-2.53 2.3-4.01 1.56-.23-.11-.42-.85-.45-1.14-.08-.63.14-1.64.32-2.29.07-.25.18-.49.3-.72.12-.25.32-.63.33-.72 0-.06-.51-.47-.64-.57-.25-.2-.48-.4-.71-.62-.27-.26-1.09-1.1-1.14-1.26v-1l.05-.25c.05-.14.06-.16.05-.19-.08-.25 1.99.93 2.05.97.12.07-.04.44-.11.53 0 .09.22.25.34.34.27.19.9.65 1.18.57m-7.96 7.11c.23-.7-1.78-1.34-2.03-.98-.16.23.66.77.79.84.04.02 1.02.55 1.24.13m-.29-18.43c.04-.21.42-1.03.55-1.18.1-.11.71 1.38.78 1.54.22.53.43 1.07.63 1.65.15.45.45 1.39.44 1.61 0 .43-.36.11-.46-.04-.15-.2-.45-.61-.56-.6-.03 0 .26 2.27.26 2.33l.04.4.04.28q.04.28.08.6t.08.52c.02.14.06.38.08.52.1.8.2 1.6.32 2.37.05.35.21 1.7.32 2.61.18 1.52.71 6.93-.38 7.16-.1.02-.1-.69-.1-.82 0-.64-.04-1.38-.08-2.07v-.46l-.04-.28-.04-.44q-.02-.4-.04-.52l-.04-.32-.04-.24-.04-.14c-.13-1.37-.26-2.56-.49-4.15-.22-1.53-.43-3.07-.61-4.5l-.04-.23-.04-.24-.04-.32-.04-.24c-.05-.38-.15-1.27-.2-1.76l-.08-.84c-.03-.35-.11-1.16-.12-1.2-.07-.33-.18-.88-.14-.96m-37.36 20.99c-1.51-.67-1.6-3.31-1.11-5.02.14-.5.29-.95.46-1.4l.08-.2.06-.12c.06-.14.11-.26.16-.4.09-.23.28-.79.28-.8s-.33-.45-.43-.6c-.18-.25-.35-.57-.42-.93l-.04-.16-.04-.16-.04-.16c-.02-.24-.05-.67-.04-.84 0-.05.04-.86.08-.84 0 0 .04-.33.04-.36.02-.21.07-.4.12-.6l.04-.16.04-.2c.02-.08.08-.29.12-.44.14-.48.48-1.67.74-1.7.08-.01-.06.47-.09.58l-.08.28c-.04.12-.12.36-.12.36-.16.63-.41 1.65-.36 2.13.09.86.19 1.59.67 2.27.25.36.54.37.76-.02.07-.12.1-.26.14-.44.04-.17.13-.58.24-.6.48-.08-.24 1.93-.26 1.97-.1.24-.24.49-.46.62-.27.16-.34.23-.45.55-.25.75-.91 2.94-.85 3.21v.66c0 .16.03.36.08.54.09.29.24.55.38.78.28.47.76.69 1.37.84 2.34.58 8.07-4.25 8.37-5.52.13-.53-.61-3.11-.91-4.14-.19-.66-.43-1.28-.69-1.89l-.48-1.08-.12-.26-.08-.14-.06-.12c-.09-.2-.22-.48-.26-.6-.1-.28.03-1.31.11-1.55.09-.3.94.97.94.97.31.47.62.99.83 1.55.39 1.03.83 2.2 1.11 3.13.13.44.3 1.28.42 1.89.13.66.44 2.35.44 2.53 0 1.32.74 2.36 1.32 3.18.24.34 1.13.69 1.64.81.41.1 1.63.05 2.02-.14.65-.33 1.2-.62 1.73-1.05.2-.17.46-.46.66-.7.2-.23.49-.56.81-.55.14 0-.04.59-.08.69-.09.29-.12.43.02.76.16.37.44.61.83.76 1.16.46 2.56-.76 3.21-1.63l.09-.13c.11-.15.41-.53.42-.54.23-.22.51-.29.34.17-.16.44-.31.84-.3 1.05 0 .13.25.37.34.45t.31.23l.3.14c.19.19.97-.09 1.12-.19.38-.26.71-.8 1.06-1.36l.08-.14.08-.16.08-.14s.23-.39.23-.39c.28-.12.29.15.28.29-.03.35-.06.62.09.82.26.35.7.7 1.17.82.73.2 1.3.12 2.14 0 .44-.06.99-.28 1.35-.46.45-.22 1.01-.43 1.46-.61.16-.06-.15-1.45-.21-1.72-.14-.62-.27-1.38-.32-2.01 0 0-.2-1.65-.28-2.29-.04-.35-.1-.73-.16-1.08-.05-.3-.12-.77-.14-.96-.14-1.15-.35-2.62-.51-3.65-.12-.85-.21-1.75-.28-2.57-.04-.42-.08-.97-.16-1.29-.08-.33-.17-.67-.12-.8.16-.49.31-.87.49-1.27.15-.33 1.03 1.95 1.08 2.11l.15.33.07.19c.07.2.16.44.22.6 0 0 .54 1.62.16 1.4-.15-.09-.23-.19-.35-.35-.11-.14-.34-.45-.45-.39-.04.02.05.84.07 1.03.04.26.12.84.12.88.02.19.04.38.08.6.04.23.11.82.16 1.2.17 1.36.33 2.61.52 3.85l.52 3.49c.02.12.19.92.28 1.32.04.17.22.98.38.86.27-.18 1.48-.24 1.98-.24.42 0 1.06.39 1.26.61.25.29.41.64.46 1.13.1 1.12-.36 2.48-1.07 2.87-.26.14-.85.17-1.09.02-1.09-.69-1.62-1.23-2.29-2.34-.07-.11-1 .27-1.1.31-.34.14-.64.26-.97.38-.35.13-.72.26-1.09.38-.18.06-.37.12-.56.16l-.36.08-.36.06c.22.2-1.52-.18-1.78-.28s-.53-.31-.76-.49c-.09-.07-.2-.21-.26-.3-.1-.14-.22-.3-.27-.31-.01 0-.43.61-.53.76-.19.28-.41.47-.69.66-.26.18-.91.4-1.29.26-.36-.13-.6-.24-.89-.42-.12-.08-.23-.18-.31-.29l-.18-.25q-.11-.19-.19-.21s-.35.33-.48.47c-.15.17-.31.33-.47.43-.22.14-.45.26-.73.36-.14.05-.28.11-.42.14l-.16.04-.43.05-.42-.05c-.1-.02-.24-.06-.32-.1-.19-.08-.36-.17-.5-.29-.3-.27-.52-.62-.62-1.1-.03-.14-.73.44-.81.52-.28.23-.58.48-.82.6-.75.35-1.7.78-2.7.62-.71-.12-1.12-.31-1.63-.58-.25-.13-.61-.56-.95-.98-.04-.06-.13-.21-.14-.22-.13-.13-.47-1.03-.61-1.44-.07-.21-.16-.48-.2-.68-.06-.28-.22-1.06-.32-1.06-.05 0-.18.36-.21.45-.08.22-.16.45-.52.87l-.32.43c-.26.33-.92.93-1.43 1.4-1.05.96-2.3 1.7-3.6 2.42-.76.42-2.99 1.01-3.71.26m68.9-2.23c.33-.09.53-.14.9 0l.25.15c.18.09.31.16.48.18.64.07 1.17-.74 1.35-1.23.04-.09.19.05.19.15-.02.3-.02.32.04.39.14.17.6.32.8.19.07-.05.15-.34.24-.72.04-.17.17-.43.27-.55.54-.67-.33 1.83-.37 1.9-.23.41-.79.48-1.25.26-.26-.12-.38-.04-.62.16-.19.15-.41.25-.67.34-.34.13-.73-.1-.95-.22-.18-.1-.67-.29-.91-.08l-.22.08-.18.08-.26.16-.48.32c-.16.11-.32.22-.48.33-.14.1-.38.26-.58.4-.72.48-1.6 1.05-2.63 1.08-.3 0 .52-.4.52-.4s.52-.31.67-.4l.24-.16.36-.24.71-.48c.79-.52 2.5-1.62 2.58-1.67m-15.81 4.11c-.15-.08-.71-.65-1.27-1.21-.24-.24-.42-1.08-.49-1.51-.07-.42-.07-.79-.04-1.14l.04-.18v-.26l.04-.26c.02-.1.05-.3.02-.36-.05-.09-.61.31-.63.32 0 0-.24.16-.85.55-.12.1-.21.17-.36.26-.13.08-.26.16-.48.32l-.24.16c-.98.56-2.12 1.2-3.01 1.65-.9.45-6.5 1.93-7.3 1.76-.51-.11 2.49-1.24 2.66-1.3 1.12-.37 2.14-.87 3.12-1.38 2.26-1.19 9.35-5.26 9.52-6.66 0-.08-.57-1.22-.83-1.75l-.16-.26c-.09-.15-.24-.42-.24-.42-.14-.24-.33-.56-.42-.78-.1-.24-.2-.48-.28-.72-.1-.29-.22-.65-.34-.88-.16-.29-.24-.45-.18-.8.03-.18.2-1.2.31-1.18.05 0 1.08 1.03 1.34 1.29.19.19.56.56.59.6.1.12.23.29.15.45-.02.05-.17 0-.24-.01q-.2-.06-.58 0c-.08.01.5 1.04.52 1.07l.14.28.08.14.16.26c.57.92.72 1.84.59 3.19-.09.91-.4 1.38-.94 1.91l-.2.2-.1.13-.2.18q-.13.11-.21.18l-.2.18-.13.09-.13.09c-.08.06-.18.2-.31.39-.37.44-.12 1.97.08 2.49.25.64.85 1.11 1.45 1.4.5.25 1.15.29 1.71.22 1.14-.15 2.14-.56 3.02-1.14.38-.25.98-.65 1.16-.82.28-.26.88-.78 1.09-.88.39-.18 1.99-1.98 2.25-2.44.1-.18-.02-.56-.18-.62-.08-.03-.25.02-.48.1 0 0-.55.11-.74.14-.41.07-1.22.13-1.76.17-1.59.11-1.84-1.78-1.43-2.99.27-.79.91-1.46 1.75-1.67.38-.1.93.12 1.27.26.4.16.79.58 1.06.89l.17.21c.08.11.17.22.26.33.1.12.39.48.42.48.39-.05 1.85-1.06 2.17-1.32.26-.22.86-.71 1.08-.73.37-.04.32.3.29.51-.04.33-.09.71.07 1.03.2.4.5.67.89.88.46.24.99.27 1.41.26.28 0 .95-.34 1.46-.6.37-.19.76-.89 1.02-1.35.21-.39.73-1.33 1-1.23.12.04-.11.66-.13.71-.15.3-.34.69-.24.86.1.18.92.81 1.09.76l.12.04.16.04c.23.05.32.06.6.08.21.01.48-.05.71-.14.23-.1 0-.55-.06-.68l-.15-.23c-.14-.18-.2-.24-.22-.46-.01-.11.33-1.26.4-1.38.12-.2.45.45.48.5.15.31.26.6.32 1 .1.67.12 1.45-.18 2.11-.18.37-.39.71-.77.88-.39.17-.94.21-1.41.08-.43-.12-.74-.28-1.04-.52-.15-.12-.29-.23-.42-.39-.1-.13-.29-.37-.36-.37s-.2.24-.24.33c-.09.17-.21.33-.33.48-.2.25-.43.5-.72.65-.48.25-.99.45-1.65.5-1.42.1-2.29-.89-2.49-2.33-.03-.25-.66.28-.69.32-.16.16-.32.31-.51.43-.22.14-1.06.74-1.11.86-.04.1-.11.8-.14 1.1-.04.35-.08.8-.26 1.06l-.06.14-.14.26-.17.23c-.14.22-.29.4-.45.6-.12.14-.31.35-.46.52-.12.12-.39.44-.4.46 0 .01-1.24 1.13-1.5 1.35-.16.13-.47.39-.7.58l-.13.09q-.11.07-.23.18-.07.06-.23.15c-.15.09-.2.12-.26.17-.33.37-1.67.83-2.45 1.09-.84.28-2.18.22-2.98-.26m-21.22-1.86c-.09.05-.18.14-.31.27-.07.07-.32.32-.39.28-.32-.2.76-1.55 1.14-1.6.97-.14-.01 2.07-.12 2.27-.3.54-.9 1.04-1.41 1.3-.31.16.81-1.17.87-1.24.16-.17.36-.37.43-.53.08-.18.1-.82-.21-.75m-26 1.74c.32-.3 4.73-2.67 4.79-2.66.15.01-.22.81-.24.83-.1.09-.91.57-1.3.79q-.14.08-.26.16c-.12.08-.32.19-.55.32l-.18.08c-.15.07-.35.17-.46.24-.44.26-.89.51-1.33.76-.07.04-.7.4-.77.32-.12-.15.17-.83.3-.84m15.65-.7c-.14-.21-.28-.39-.53-.26-.15.08-.25.18-.35.31-.07.09-.18.23-.28.21-.04 0 .11-.5.12-.52.07-.19.16-.42.29-.55.24-.26.49-.52.72-.55.27-.03.39.22.46.42.16.42-.07 1.02-.22 1.34-.1.21-.35.54-.51.72-.05.05-.74.64-.86.51-.09-.09.56-.74.61-.79.14-.14.5-.63.54-.83" fill="#1d1d1b" fill-rule="evenodd"/></svg>