<svg viewBox="0 0 97.4 30.43" xmlns="http://www.w3.org/2000/svg"><path d="m66.51 4.7c-.55-.28-.92.33-.46.78.77.78.77-.2.46-.78m25.95.29c-.08.36.85.96 1.14.94.18-.02-.01-.74-.05-.86-.05-.16-.11-.27-.21-.37-.33-.33-.73.02-.88.29m-65.67.44c-.54-.88 1.14-2.24 1.71-2.47l.33-.14c.13-.05.47-.2.48-.2 0 0 .63-.27.95-.4.33-.14 1.37-.54 2.04-.8 1.12-.43 3.7-1.37 3.98-1.42.33-.06-.03.78-.16.82 0 0-.56.21-.73.28q-.2.08-.36.14l-.28.12c-.4.16-.79.3-1.21.44-.43.14-.85.28-1.25.46s-.88.37-1.29.52c-.43.16-.85.34-1.25.52-.27.12-.91.39-1.33.56-.38.15-.69.35-.95.62-.18.18-.22.25.01.44.21.17.35.29.39.63.16 1.2-1.03.22-1.09-.12m22.81 2.07c-.26-.32-.26-.89-.26-1.39 0-.13.22-.95.32-1.32.06-.2.36-1.2.46-1.18.13.02-.14 1.05-.18 1.18-.11.4-.23.88-.16 1.32.04.27.24.68.48.8.29.15.35-.02.45-.28.02-.06.19-.52.28-.36.15.26-.46 2.63-1.39 1.23m-44.61-1.26c-.25-.15-.83-.51-.83-.72 0-.4.06-.82.23-1.12.22-.4 1.79 1.1 1.82 1.13.21.2.4.48.55.73.09.15.6.96.62.96.01 0 .12-1.28.13-1.36.03-.33.13-.76.2-1.02.07-.29.43-1.2.69-1.28.54-.17 1.3.44 1.17 1.08-.1.5-.35.53-.71.28-.18-.13-.56-.4-.7-.29-.11.09-.19.94-.21 1.26v.28l-.04.34v.22c0 .1-.03.51-.04.64 0 .12-.31 1.32-.46 1.93-.05.18-.35-.64-.35-.64-.11-.32-.25-.65-.4-.92-.21-.37-.72-1.22-1.07-1.3-.08-.02-.15.2-.18.3-.05.16-.16.35-.26.52-.18.31-.36.56-.64.77-.36.28-.75.53-1.18.76-.23.12-.66.35-.69.36-.04.02-.84.36-.71.12.18-.31 1.26-1.06 1.77-1.41.28-.19.55-.44.82-.69.12-.12.8-.78.46-.91m76.79-.4c-.03-.22.05-.94.26-.94.71-.02 1.42.71 1.85 1.15.21.22.41.46.57.71.09.15.59.9.64.7.03-.11.03-.52.02-.7 0-.15.01-.6.04-.84.03-.38.08-.98.18-1.24.17-.44.44-.91.81-1.16.16-.11.83-.07.83.09l.1.14c.1.12.14.17.19.33.11.29.12.76-.12 1-.07.07-.39-.29-.43-.33-.12-.13-.3-.33-.52-.33s-.42.16-.51.34c-.1.21-.1.86-.1 1.16 0 .63 0 1.27-.04 1.69-.02.26-.19 2.03-.61 1.69l-.04-.16q-.04-.17-.12-.32c-.1-.19-.19-.35-.3-.52-.27-.41-.55-.79-.86-1.16-.04-.05-.34-.35-.36-.36l-.19-.03-.16.04s-.27-.09-.28-.1c-.42-.21-.57-.43-.87-.84m-2.99-2.02c.15.22 0 .71-.16.91-.05.07-1.59.99-2.09 1.27-.36.2-.81.46-1.03.6-.12.08-.76.45-1.09.64-.69.4-1.72.99-2.1 1.24-.16.11-.3.18-.48.28-.17.09-.39.22-.56.33-.18.12-.84.57-.94.51-.08-.04.05-.77.13-.87.03-.04.27-.2.46-.33.12-.09.86-.55 1.27-.8l.26-.16.14-.08.14-.08.22-.14.2-.08c.19-.13.76-.48 1.13-.7.37-.23.74-.44 1.13-.64.39-.21.79-.44 1.17-.68.47-.3 2.09-1.22 2.19-1.22m-39.47 5.23-.2-.02q-.26-.03-.52-.04c-.1 0-.22.02-.38.04-.13.02-.45.06-.5.08-.22.08-.6.21-.66.17-.14-.1.41-.95.46-1.02.18-.25.75-.48 1.16-.51.37-.03 1.59-.08 1.8.17.28.32-.02.76-.23 1.08-.11.16-.22.32-.35.45l-.2.19-.2.16c-.06.11-.66.37-.86.41-.17.03-.3.07-.44.12-.1.03-.46.15-.2-.14.12-.08.13-.08.24-.17.02-.02.29-.21.43-.31.19-.14.71-.51.67-.64m26.69-2.34c-.02-.08-.11-.17-.18-.24-.03-.02-.18-.17-.2-.2-.13-.16-.24-.38-.31-.59-.12-.39.28-1.31.42-1.55.13-.21.51-.52.79-.56.44-.06.55.52.61.9q.04.22 0 .48l-.06.4c0 .32-.01.81 0 .83.02.02.14.12.23.18.06.05.32.24.32.24.14.12.26.3.37.47.1.14-.07.63-.15.74-.07.1-.52-.31-.6-.37-.13-.12-.51-.4-.77-.32-.03.01-1.01 1.02-1.07 1.11-.28.37-.79.8-1.21 1.02-.25.13-.75.39-.77.4-.21.14-.43.26-.68.36q-.15.06-.34.16l-.38.22c-.08.04-.71.29-.63.06.07-.2 1.85-1.38 2.45-1.78.44-.29 2.21-1.56 2.15-1.97m-49.88-2.77c.04.09-.25 1.09-.36 1.46-.18.62-.43 1.54-.36 2.13.07.66.23 2.08.89 2.07.23 0 .27-.2.32-.42.05-.23.16-.71.35-.65.27.08-.17 2.2-.7 2.34-.32.08-.5-.04-.76-.21-.34-.22-.52-.74-.63-1.2-.16-.65-.13-1.64.04-2.33.03-.11.14-.65.2-.96.05-.25.14-.51.22-.76.12-.35.52-1.55.78-1.46m76.92 3.04c.04-.09-.39-.48-.58-.65-.2-.19-.31-.31-.42-.61-.25-.74.56-2.04 1.03-2.19.21-.07.57.04.68.24.34.57.34 1.62.34 2.27 0 .17.18.35.39.55.08.08.21.2.25.3.05.12.04.84-.08.8-.13-.04-.29-.14-.48-.25-.24-.15-.44-.28-1.04.25-.16.2-.48.47-.79.72-.11.1-.28.25-.32.29-.21.18-.64.54-.66.55-.86.57-4.42 2.9-5 2.51-.08-.05.65-.55.71-.58.3-.17.61-.34.91-.52.63-.38 1.31-.8 1.85-1.16 1.04-.69 2.69-1.81 3.19-2.51m-28.24 4.96c-.04-.39.5-1.47.77-1.46.14 0 .5.25.72.39.28.18.64.42.83.38 0 0 .28-.49.33-.59.12-.21.25-.45.42-.54.15-.08 1.14.75 1.35.92.15.12.29.53.15.71l-.16.3-.2.23s-.12.19-.17.27c-.07.12-.09.14-.2.18 0 0-.68-.51-.95-.72-.15-.12-.3-.24-.47-.28-.05-.01-.31.44-.35.52-.14.28-.34.67-.4.7-.17.07-.58-.2-.83-.36-.1-.06-.31-.22-.46-.33l-.2-.16s-.17-.15-.17-.15m14.46.77c-.23-.57.06-3.29.68-3.63.16-.08-.18.84-.19.9-.09.25-.15.88-.2 1.36-.03.3.26.78.41 1.02.08.12.43.25.59.12.08-.07.14-.26.17-.38.05-.21.13-.52.3-.52.15 0-.12 1.05-.16 1.16-.16.4-.27.62-.6.84-.33.21-.89-.72-.99-.88m13.64-.64c.11-.66.48-1.99.87-2.29.28-.21-.28 1-.28 1-.07.12-.1.25-.14.4l-.04.16v.2l-.04.22c-.07.27.29 1.01.46 1.1.23.12.41-.02.52-.24.07-.13.24-.44.28-.44.07 0 0 .51-.02.56-.06.22-.12.38-.2.56-.11.24-.26.52-.54.58-.33.07-.58-.27-.68-.5-.06-.12-.12-.31-.14-.44l-.06-.36.02-.34v-.18zm-53.85 1.12c-.08-.43.62-1.43 1.01-1.36.22.04 1.38 1.06 1.45 1.3.06.21-.62 1-.77 1.12-.25.18-1.58-.77-1.69-1.06m-31.78 2.29c-.13-.4-.33-1-.33-1.39 0-.66.63-2.96 1.03-3.01.24-.03-.09.63-.18.8-.2.41-.35.84-.4 1.41-.04.47.15 1.7.79 1.52.1-.03.17-.25.22-.4.04-.11.15-.44.26-.4s-.06.74-.1.88c-.07.24-.14.5-.26.66-.28.38-.63.17-1.02-.07m37.67-1.19c.07-.24.85-2.55 1.02-1.87l-.07.15-.08.14-.08.14c-.07.14-.21.45-.22.48-.12.39-.16 1.23.11 1.52.12.12.34.06.42-.07.07-.13.22-.41.31-.37.25.09-.4 1.21-.46 1.29-.14.17-.35.23-.58.13-.39-.17-.49-1.04-.36-1.53m-22.33 4.01.16-.06.28-.08c.08-.02.28-.11.4-.16.25-.11.5-.21.73-.32.37-.18 1.52-.75 1.37-1.04-.52-1.04-1.71-1.81-2.91-2.21-.74-.25-1.7-.03-2.29.31-.18.1-.42.24-.57.36-.19.17-.57.47-.65.52-.3.2-.86.94-1.15 1.33-.17.23-1.23 1.68-.93 1.83.94.5 4.41-.07 5.55-.48m60.58.79c-.04-.23-.77-.68-1.04-.73-.55-.1-2.06.43-1.23.82.47.22 2.08.26 2.27-.1m-13.85.76c-.19-.4-1.83-1.63-2.31-1.46-.18.07-1.02 1.61-1.08 1.92-.05.27.15.81.36.88.36.11.75.16 1.11-.02s1.96-1.04 1.91-1.32m-22.86-.29c-.25-.25-3.63-1.16-4.51-1.35-1.29-.29-4.5-.86-4.78.74-.02.12.33 1.11.48 1.53l.06.16.08.2.08.18c.04.12.11.32.16.46.1.29.29.86.36.88.58.16 1.45 0 2.22-.14.48-.09 2.01-.69 3.1-1.12.47-.19.99-.43 1.45-.66.2-.1 1.44-.72 1.28-.88m19.34 3.19c-.25-.31-.37-.59-.47-1.08-.13-.65.12-1.84.32-2.41.08-.23.17-.43.26-.64.17-.39.3-.67.27-.87 0-.03-.44-.35-.53-.42-.11-.08-.21-.17-.32-.26-.07-.06-.32-.29-.32-.29-.15-.12-1.21-1.18-1.21-1.18-.09-.29-.17-1.36.04-1.67 0-.01 1.04.4 1.29.5.08.03.29.11.36.14q.18.08.24.1c.08.03.3.11.36.14.11.05.57.36.2.46-.18.05-.59.17-.51.27.15.21.98.73 1.26.83.19.07 1.05-1.1 1.27-1.41.37-.5 1.1-1.49 1.22-1.64.6-.73-.09 1.56-.26 1.77-.28.34-1.07 1.44-1.13 1.79 0 0 .72.52.84.6.11.08.3.22.38.29l.18.22.16.23c.23.22.37.76.41 1.15.04.43-.16 1.47-.38 1.78-.58.84-2.73 2.45-3.95 1.58m-58.36-1.76c.09-.52.77-2.42 1.2-2.34.14.02-.34 1.11-.37 1.16-.18.29-.33.65-.38 1.06-.11.78.22 1.72.78 1.62.04 0 .15-.35.19-.46.05-.14.11-.33.19-.35.24-.04-.03.88-.07.99-.06.15-.12.33-.18.44-.05.11-.09.14-.17.19q-.08.05-.12.15c-.09.2-.59-.11-.67-.18-.52-.44-.5-1.48-.39-2.28m51.83-16.87c.05-.16.16-.48.16-.48l.06-.2.06-.12s.12-.34.17-.49c.05-.14.66 1.42.66 1.42s.23.63.32.88c.12.34.33.89.4 1.06.56 1.27.61 2.99-.47 1.01-.21-.38-.03 1.34-.03 1.34.03.34.07.65.12.96.03.2.06.62.08.8l.04.32q0 .07.04.36l.04.24c.03.19.07.55.08.72.06.77.11 1.33.2 2.25.03.28.11.91.13.99v.14s0 .2 0 .2c.05.55.11 1.15.16 1.58.05.41.12 1.04.12 1.51v.18l.04.38.04.52c0 .1.05.85.04.86-.02.02.03.64.04.84v.24l-.04.2v.24c0 .37 0 .9-.08 1.18l-.04.16-.04.32-.04.2-.04.16-.04.16-.04.16c-.05.2-.11.35-.18.52l-.2.4h-.2l.03-.27v-.21s0-1.14 0-1.14c0-1.14-.04-2.18-.12-3.27-.14-1.89-.42-5.4-.48-6-.08-.7-.19-1.6-.28-2.43l-.04-.28-.04-.4-.04-.36-.04-.18v-.22l-.04-.28-.04-.4-.04-.4-.04-.4c-.09-.79-.22-2.01-.21-2.57 0-.27-.03-.83-.08-1.16-.05-.39-.14-1.1-.08-1.24m-27.37 13.33c-.52-.78-1.15-1.54-1.84-2.14-.76-.66-1.49-1.35-2.2-2.05l-.2-.18c-.13-.1-.32-.26-.35-.3-.05-.05-.29-.26-.45-.39q-.12-.09-.21-.19c-.35-.34-.69-.68-1.05-1-.35-.32-.89-.82-1.06-.99-.06-.06-.15-.14-.21-.2-.07-.06-.31-.3-.55-.54l-.08-.13-.19-.19s-.18-.23-.27-.33c-.12-.14-.25-.28-.43-.48q-.16-.2-.18-.22l-.2-.24-.18-.25c-.3-.38-1.06-1.37-1.14-1.55-.13-.32-.07-1.2.02-1.52.02-.08 1.69 1.03 1.84 1.12l.23.17.23.15c.19.11.35.2.51.33.21.16.79.58.79.73.02.29-.45.14-.62.08-.25-.09-.43-.14-.62-.09-.13.03.73.95.78 1 .34.37.71.77 1.43 1.43.18.16.36.31.54.46.19.15.42.37.64.59l.33.28.13.09c.3.25.7.62 1.12 1.05t.16.16l.22.18.34.28.39.32.19.21s.18.16.27.25c.03.03.36.36.55.54l.3.3s.15.17.18.18c0 0 .85 1.1 1 1.3l.24.4c.09.13.13.2.2.36.06.13.13.28.2.4.19.3.3.86.38 1.28.04.22.06.65.05.88 0 .22-.01.41.08.62.02.06.23-.48.24-.54.04-.13.23-.96.16-.96l.04-.32v-.5l-.04-.38-.04-.58c-.03-.5-.08-.99-.16-1.55-.04-.28-.27-2.42-.37-3.29l-.04-.24-.04-.4-.12-.96c-.05-.53-.16-1.4-.24-2.13-.07-.54-.14-1.13-.21-1.61-.08-.67-.17-1.36-.12-1.72.08-.54.18-1.21.33-1.46.32-.54.77 2.55.8 2.78l.6 4.66c.08.59.15 1.29.24 2.13.08.75.19 1.71.26 2.25.18 1.4.6 4.33.62 4.42.17.67 1.12 2.73 1.81 2.58.1-.02-.15-.66-.17-.7-.09-.2-.17-.41-.22-.64-.15-.67-.23-1.07-.04-1.73.2-.71.87-1.47 1.45-2.14.24-.28.88-.35 1.36-.41 1.6-.19 4.22.61 5.77 1.12.16.05.36.12.61.2l.2.06.2.08.2.06c.26.07.55.15.77.2l.36.08.2.04.16.04c.41.11.81.22 1.25.32.39.08.71.13 1.13.16.09 0 .52.04.54.09.06.19-.4 1.48-.59 1.59-.07.04-.48.02-.67 0-.3-.02-.32-.01-.61.04-.21.04-.38.09-.57.16-.38.14-.99.46-1.45.7-.79.42-1.59.87-2.38 1.33-.73.42-1.54.8-2.38 1.1-.45.16-.85.3-1.25.4-.21.05-.52.11-.81.16q-.11.02-.97.08c-.11 0-.56.04-.54.18.03.17-.13.78-.25.82-.15.05-.23.07-.28-.13l-.04-.32-.04-.28c-.01-.07-.1-.25-.11-.29 0-.01-.81-.33-.95-.39-.26-.1-.62-.31-.78-.51-.49-.59-1.02-1.23-1.18-1.66-.06-.16-.75-2.09-.81-2.01 0 0-.1.35-.12.4l-.04.16c-.06.22-.13.43-.2.64-.12.37-.4.88-.63 1.3-.63 1.18-2.42 2.85-3.73 3.31l-.46.22c-.21.07-.44.14-.65.2q-.23.06-.32.1l-.32.12c-.25.08-.48.16-.73.22-.38.1-.77.24-1.15.38-.43.16-1.17.44-1.32.41-.61-.09 1.38-1 1.38-1 .65-.25 1.35-.7 1.98-1.11.61-.39 1.54-1 1.8-1.22.23-.2.59-.49.73-.6q.22-.17.32-.27l.13-.09.18-.17q.12-.12.16-.13c.29-.09 1.54-1.67 1.76-2.02.09-.14.13-.21.16-.32v-.13s-.15-.08-.15-.08l-.07-.15-.04-.36-.04-.16c-.04-.16-.12-.48-.12-.48-.08-.26-.22-.55-.38-.85l-.06-.12-.14-.26-.08-.14zm62.69 6.28c.14 0 .26-.41.32-.62.04-.15.2-.68.34-.71.27-.05-.06 1.1-.09 1.19-.16.43-.29.72-.62.98-.18.14-.3.15-.63.13-.09 0-.24-.07-.3-.1-.18-.09-.22-.12-.4-.08-.02 0-.17.14-.23.19-.05.05-.15.11-.24.17-.15.1-.35.17-.56.22-.23.05-.49-.02-.68-.14-.22-.14-.56-.34-.85-.22-.27.12-1.38.79-2.28 1.35-.77.47-1.96 1.2-2.78 1.14-.16 0 1.1-.72 1.18-.77.38-.22.73-.48 1.08-.73.49-.36 1.99-1.42 1.99-1.42.44-.23 1.01-.52 1.37-.52.2 0 .44.15.62.26.31.19.6.2.95.04.42-.2.64-.57.85-.98 0 0 .11-.23.2-.1l-.02.2v.3c.05.12.59.29.79.25m-50.89 2.31c.06-.52.2-.9.36-1.36.08-.24.46-1.27.68-1.18.05.02-.17.7-.21.8-.08.17-.17.38-.22.58-.16.56-.15 1.24.14 1.69.11.16.22.15.52.12.05 0 .2-.23.22-.28.08-.17.18-.38.24-.4.34-.12-.28 1.04-.3 1.08-.11.19-.33.54-.57.58-.76.14-.89-.86-.87-1.63m-40.71 1.42c-.55-.17-1.21-.45-1.51-.89-.39-.58-.74-1.12-1.12-1.78-.33-.58-.34-1.72-.34-2.25 0-1.1.31-2.46.64-3.45.17-.5.41-1.21.3-1.44-.15-.34-.23-.77-.35-1.34-.17-.89 1.15-5.4 1.64-5.44.09 0-.1.56-.1.56-.06.17-.1.4-.12.6-.07.51-.18.87-.32 1.29-.2.59-.51 1.6-.44 2.33.05.58.31 1.39.71 1.61.29.16.57.03.75-.22.08-.11.12-.31.15-.47.05-.22.07-.35.15-.51.14-.28.29.48.29.54 0 .39-.1.95-.26 1.24-.14.26-.3.47-.55.62-.15.09-.29.18-.51.18l-.2-.04-.16-.06c-.06-.01-.35-.06-.32.1l-.08.18-.06.24-.04.16-.04.16-.08.32q-.04.14-.08.32c-.11.5-.24 1.13-.24 1.6 0 .87.16 1.5.42 2.09.12.28.2.4.36.62q.06.09.41.49c.15.28 1.26.83 1.65.95.73.23 1.67.18 2.62.12 2.41-.14 4.76-1.5 6.45-2.63.92-.61 2-1.33 1.83-2.45-.1-.68-.31-1.22-.56-1.73-.24-.48-.64-1.28-.73-1.58-.06-.2.13-1.34.3-1.41.14-.05.62.84.73 1.04.09.17.28.52.28.52q.06.09.19.19c.09.07.24.19.28.25.16.23.71.37 1.02.41.16.02.57-.59.76-.88.07-.12.17-.29.17-.29t.43-.63s.17-.25.4-.56c.54-.74 1.24-1.69 1.79-2.19.53-.46 1.13-.92 1.88-1.14.6-.18 1.08-.17 1.73-.08.79.11 1.48.55 1.99.96.25.2.51.4.73.64.09.1.2.22.44.52l.13.23c.55.45-.25 2.55-.47 3-.18.37-1.3 1-1.77 1.23-.99.49-2.22.93-3.47 1.12-.93.14-1.98.25-2.68.24-.48 0-1.04-.05-1.59-.16-.25-.05-1.12-.22-1.14-.19-.06.07-.11.5-.13.66-.04.33-.09.69-.16 1.04-.08.37-.21.78-.38 1.06-.68 1.1-2.19 2.04-3.37 2.63l-.17.09q-.12.09-.57.33l-.16.06c-.41.19-.91.42-1.27.6-.14.07-.28.14-.42.18-.21.06-.52.15-.6.18-.23.08-.47.16-.73.22l-.16.04-.16.04c-.07.01-.41.07-.42.07-.3.4-2.97.04-3.62-.07m30.84-.5c-.13-.54.41-2.94.71-3.2.39-.33-.01.79-.03.84-.02.07-.36 1.32-.24 1.32l.08.48q.05.15.14.28c.15.22.28.41.56.28.09-.04.11-.09.16-.2.04-.09.17-.38.17-.39.26-.32.14.29.09.43-.42 1.17-1.36 1.73-1.65.16m13.05 1.08c-.03-.26.81-.59 1.09-.7q.09-.03.36-.12l.24-.08c.21-.08.42-.17.61-.26.79-.39 1.97-.98 2.36-1.2.86-.49 3.63-2.5 3.75-3.45.04-.29-.73-2.17-.9-2.37-.04-.05-.12-.19-.16-.28-.07-.15-.18-.31-.32-.5q-.05-.07-.16-.24l-.17-.23-.05-.13c-.3-.39-.76-1-1.01-1.24q-.16-.15-.19-.19c-.06-.07-.29-.31-.29-.31-.02-.01-.2-.2-.3-.29l-.24-.29c-.09-.1-.21-.19-.31-.28-.1-.08-.19-.17-.28-.26s-.33-.3-.57-.5c-.15-.14-.45-.41-.48-.45-.18-.21-.43-.49-.58-.62 0 0-.24-.23-.36-.34l-.28-.31q-.15-.12-.18-.17c-.07-.11-.15-.21-.25-.29-.4-.35-.82-.73-1.16-1.14-.17-.21-1.11-1.26-1.11-1.26-.16-.09-2.86-3.91-2.91-4.11-.03-.12.03-1.08.06-1.6 0-.08.65.42.65.42l.09.13s.13.1.23.17c.28.2.9.66.98.75.14.14.26.25.42.38.08.07.39.36.59.55q.05.05.21.19t.15.17c.02.07 0 .47-.1.34 0 0-.88-.33-.97-.34-.04 0 .35.64.36.66 0 0 .38.48.54.67.3.38.62.76.96 1.1.7.7 1.41 1.4 2.1 2.11.52.53 2.07 2.05 2.07 2.05.36.27.74.66 1.02 1.01l.29.29.16.2.08.12c.1.12.52.6.52.6.27.14 1.09 1.65 1.3 2.1.18.4.33.8.48 1.24q.04.12.08.28l.04.16.04.16q.07.23.08.32l.04.32c0 .13.03.55.05.58.11.15.25-.33.27-.41.08-.28.07-.5.04-.9-.04-.7-.1-1.3-.16-2.03-.11-1.31-.33-2.94-.57-4.34-.31-1.85-1.16-9.66-1.13-9.79.1-.39.22-.85.41-1.18.13-.22.36.28.38.32l.14.26.06.16.08.2.51 1.04c.15.31.32.78.44 1.16.04.12.49 1.46.1 1.3-.18-.07-.3-.23-.42-.37-.11-.13-.29-.36-.36-.35-.09.02.08 1.23.11 1.46.06.4.11.7.16 1.12.14 1.09.27 2.12.4 3.09.25 1.85.43 3.38.61 5.14.16 1.58.16 2.84-.28 4.37-.16.55-.37 1.02-.61 1.49-.13.26-.34.66-.48.86q-.05.06-.15.21l-.09.13c-.17.19-.18.2-.2.24-.24.48-1.54 1.45-2.09 1.81-.67.44-5.19 1.89-5.89 1.48m28.08 0c-.8-.19-1.78-1.65-1.88-2.53-.04-.34-.09-.8-.08-1 .03-.5.08-1.26.07-1.46 0-.1-1.23.71-1.32.78l-.13.09q-.18.14-.21.15c-.13.08-.25.16-.38.24-.22.14-.53.33-.71.44-.5.33-1.05.64-1.59.92l-.16.08c-.12.05-.34.16-.42.22l-.14.06-.12.08c-.13.07-.3.16-.42.22-.16.08-.39.2-.42.22-.33.24-6.52 1.59-6.8 1.53-.29-.07.54-.48.54-.48.2-.1.45-.19.69-.28l.26-.1.16-.06.16-.08.16-.06q.17-.06.26-.1c.15-.07.3-.13.47-.18.96-.32 2.05-.86 3.03-1.34 1.49-.74 4.01-2.3 6.08-3.58.58-.36 1.26-.9 1.84-1.37.31-.25 1.89-1.52 1.62-1.87-.18-.24-1.11-2.04-1.53-2.89-.12-.24-.23-.5-.32-.76-.11-.29-.21-.58-.32-.84-.1-.23-.32-.75-.32-.76 0-.07.1-.55.12-.68 0-.06.16-.78.24-.74.12.07.25.15.28.2.06.1.15.24.24.33.22.22.46.42.71.62.06.05.21.21.3.3 0 0 .28.28.39.38.06.06.25.36.23.43 0 .03-.6.01-.86 0-.21 0 .32.78.32.78.08.12.16.24.22.38.07.15.14.28.22.42.31.5.56.95.74 1.51.45 1.33-.12 2.83-.71 3.6-.13.17-.57.58-.85.84-.36.33-.8.74-.88.9-.37.83-.12 2.42.42 2.91.43.39.76.68 1.28.97.29.16.92.16 1.57.16.71 0 1.62-.4 2.3-.7 1.11-.49 2.25-1.42 3.07-2.24.16-.16.48-.44.72-.65.23-.2.45-.44.65-.67.21-.24.6-.69.64-.75.25-.43.24-.45-.04-.9-.03-.04-.4.08-.4.08l-.28.1c-.34.08-.79.17-1.09.2-.73.07-1.4.07-2.04-.22-.28-.13-.61-.44-.69-.76-.05-.22-.21-1.58 0-1.68l.08-.28q.04-.1.12-.28c.09-.2.25-.39.4-.58.31-.39.6-.6 1.12-.81.37-.15.91.04 1.25.18.35.14 1 .7 1.33 1.1l.24.32.17.24c.1.13.2.27.23.29.34.18 1.91-1.07 2.19-1.3.29-.24.59-.45.92-.65.16-.1.48-.18.5.12v.64l-.04.24c0 .16.08.36.14.52.16.41.6.7.97.9.39.22 1.08.24 1.53.16.35-.07.67-.23 1.01-.42.22-.16.22-.16.22-.16l.13-.09c.15-.12.18-.15.2-.16.1-.05.6-.9.78-1.22.22-.4.65-1.15.9-1.12.14.02-.17.75-.18.76-.13.26-.24.49-.2.78.04.28.83.69 1.09.8.39.16 1.81.37 1.72-.28-.02-.13-.2-.45-.26-.54-.16-.24-.29-.44-.22-.66.03-.09.09-.36.12-.52.06-.28.12-.59.23-.71.32-.37.86 1.71.9 2.04.08.58-.12 1.28-.34 1.75-.06.13-.15.27-.24.38-.04.04-.13.13-.18.16-.11.06-.26.16-.28.17-.06.08-.52.13-.59.13h-.52l-.26-.06-.14-.02c-.26 0-.86-.39-1.04-.55-.11-.1-.73-.67-.73-.65l-.16.24-.08.14q-.08.14-.16.26c-.11.16-.4.5-.58.58-.85.39-2.09.96-2.9.52-.84-.45-1.42-.96-1.47-2.21 0-.23-.67.34-.7.38-.04.04-.36.31-.53.44q-.06.05-.21.15c-.12.08-.22.16-.33.25-.22.18-.52.41-.59.51l-.04.56c-.03.31-.04.46-.08.74-.03.19-.07.47-.19.73-.78 1.67-2.39 2.99-3.78 4.09-1.13.9-4.56 2.92-6.3 1.63m-18.92-1.91c.23.02.35.18.46.34.14.19-.2.65-.33.82-.12.16-.22-.05-.24-.09-.04-.09-.1-.23-.15-.25-.24-.14-.56.07-.61.29-.02.1.25.27.34.3.13.05.45.08.56.08l.45-.04q.43-.05.59-.03c.21.02-.22.63-.26.67-.03.03-.4.11-.5.13-.27.05-.85.14-.85.14-.22.08-.88.31-.93.28-.03-.02.11-.39.12-.4.08-.2.05-.24-.13-.42-.19-.18.02-.6.13-.83.12-.24.98-1.03 1.33-.98m-40.74 2.31c-.19-.45-.09-1.05.04-1.53.09-.35 1.47-1.03 2.38-1.48l.32-.18.14-.06.14-.08.16-.08.18-.08.26-.14c.36-.16 1.14-.53 1.2-.55.86-.43 1.75-.84 2.63-1.23l.2-.08.16-.08q.11-.06.24-.12l.16-.08.16-.08c.07-.04.29-.14.42-.2 0 0 1.69-.79 1.35-.4l-.04.2-.06.16c-.06.16-.11.29-.2.38-.21.18-1.77.89-2.47 1.19-.98.43-2.37 1.03-3.01 1.4-.85.49-1.79.93-2.68 1.33-.38.17-1.01.46-1.26.69-.26.24.03.42.24.53.14.08.67.36.66.42-.02.18-.05.54-.26.54-.46 0-.91-.06-1.09-.38m39.15 1.24.3-.14.24-.08.2-.06c.15-.05.37-.12.44-.14.15-.04.32-.08.44-.12.51-.17 1.26-.41 1.69-.42.16 0 .03.25 0 .3l-.09.13c-.11.12-.11.12-.12.2-.01.06-1 .31-1.16.35-.15.04-.32.08-.44.12s-.4.11-.61.16c-.32.08-.7.21-1.05.32-.21.07-.34.09-.24-.14.08-.21.17-.41.38-.48" fill="#1d1d1b" fill-rule="evenodd"/></svg>