<svg viewBox="0 0 77.51 27.66" xmlns="http://www.w3.org/2000/svg"><path d="m73.32 2.43c-.1-.26-.59-.06-.71.04-.37.3-.15.58.12.79 1.13.87 1.2-.15.59-.83m-26.85.34c-.18-.24-.58.12-.67.22-.16.19.09.43.21.56.79.78.86-.34.46-.78m-24.62 2.25-.22-.18-.13-.09-.14-.06h-.32c-.4-.07-.74-.33-.93-.62-.16-.25-.04-1.22.24-1.18.48.06.87.37 1.2.64.31.25.6.48.87.76.14.14.28.32.39.49.1.15.32.5.46.48.07-.01.03-.76.03-.78-.04-.75-.06-1.05.02-1.61.09-.6.35-1.22.67-1.6.18-.2.58.02.71.12.28.22.98 1.7.36 1.83-.03 0-.21-.25-.27-.33-.1-.13-.17-.22-.3-.31-.13-.1-.63-.51-.73-.15-.11.39-.06.75-.02 1.04.1.72.04 1.3-.06 2.09-.05.39-.14.79-.24 1.12-.03.12-.11.39-.23.27l-.07-.19-.08-.16-.22-.32q-.07-.11-.22-.34-.05-.08-.25-.33l-.16-.2c-.07-.08-.34-.37-.34-.38m40.04-2.24c.62-.16 1.71.81 2.06 1.22l.46.56s.22.31.31.45c.11.16.26.39.36.38.02 0 .02-.6.02-.6v-.72c0-.4 0-1.09.16-1.57.09-.27.91-1.71 1.35-1.27.48.48.88.88.51 1.62-.06.12-.48-.27-.55-.32-.17-.15-.39-.35-.57-.25-.46.24-.46 1.47-.46 2.43 0 .31-.05 2.79-.54 2.52-.02-.01-.09-.25-.11-.31-.05-.2-.12-.36-.22-.52-.12-.2-.27-.41-.41-.59-.26-.35-.62-.83-.87-1.03-.05-.04-.21-.16-.22-.17l-.2.02q-.14.02-.28-.04c-.26-.1-.47-.25-.69-.4-.35-.25-.41-1-.12-1.4m-54.81 4.12c-.36-1.04.44-1.98 1.19-2.37l.5-.32s.37-.19.56-.28c.09-.04.19-.11.26-.16q.07-.05.22-.12l.26-.14.14-.06.18-.08c.15-.07.34-.17.55-.28 0 0 .43-.19.54-.24.43-.19 1.44-.65 1.49-.68.71-.4 4.78-2.25 5.2-2.19.11.02-.04.55-.07.66-.06.2-.42.36-.67.46l-.2.06-.2.08-.28.1-.14.06-.14.06c-.37.14-.56.22-.93.38-1.14.5-2.26.99-3.33 1.53-.45.23-.94.46-1.39.66-.64.29-1.25.6-1.86.94-.34.19-1.39.85-1.45 1.08-.04.15.3.48.49.68.24.23.34.46.15.8-.15.26-.99-.49-1.06-.63m43.45-.21c.69-.61 7.98-4.96 8.18-4.97.24-.01-.03.74-.08.81-.21.28-1.47 1.04-2.04 1.36-.8.46-1.62.94-2.38 1.45-.22.15-.83.49-1.23.72-.27.16-.77.48-1.13.72l-.24.16c-.28.16-.28.16-.28.16-.22.13-.43.26-.62.41-.12.1-.35.25-.37-.02 0-.08.03-.78.2-.81m-49.87-1.83c-.24-.11-.03-1.26.26-1.26.63-.01 2.03 1.49 2.3 1.98.11.2.36.66.51.58.08-.04.07-.78.06-.88 0-.06 0-.4 0-.47.04-.61.37-2.02.81-2.21.7-.3 1.61 1.16.89 1.57-.02.01-.32-.19-.33-.21l-.18-.14q-.13-.13-.19-.15c-.22-.08-.48-.09-.51.1-.05.39-.08.75-.08 1.1 0 .54-.06 1.37-.2 1.99-.03.15-.3 1.28-.45.96-.03-.11-.06-.17-.14-.36-.1-.22-.21-.42-.32-.62-.18-.32-.41-.63-.65-.9-.13-.14-.53-.55-.67-.56-.34-.02-.94-.24-1.1-.53m45.29-.08c-.29-.31-.63-.68-.72-1.08-.16-.7.51-1.75.97-1.97.45-.21.72.13.81.52.07.31.07.52.04.8-.03.33-.11 1.18 0 1.26.28.18.83.56.88.83.04.21-.02.75-.17.79-.01 0-.17-.13-.2-.16-.09-.08-.22-.16-.32-.23-.21-.14-.53-.34-.71-.38-.1-.02-.39.34-.5.48-.15.18-.3.36-1.02 1.07-.04.02-.14.11-.56.46-.42.34-2.45 1.47-2.93 1.47-.27 0 .17-.41.22-.44 0 0 .54-.33.79-.48.21-.13.39-.26.58-.41.21-.17.42-.32.63-.47.68-.48 2.04-1.47 2.2-2.05m27.02-.06c.04-.06-.46-.48-.6-.59-.19-.16-.36-.37-.43-.63-.21-.73.5-2.07 1.07-2.23.21-.06.63.17.68.34l.08.16.06.16.08.32c.02.13.03.15.04.44.02.39.06 1.26.29 1.49.1.09.29.27.29.27.12.17.29.95-.02 1.01l-.42-.28c-.17-.11-.37-.23-.52-.26-.03 0-.52.53-.66.68-.11.11-.37.39-.37.39-.16.12-.3.25-.44.39-.36.36-1.06.87-1.61 1.27-.47.34-3.68 2.28-4.14 1.97-.08-.06.62-.54.69-.58l.95-.56c.26-.16 1.18-.77 1.78-1.16.71-.47 3.14-2.24 3.21-2.59m-28.17 5.34c-.12-.45.4-1.53.87-1.43.01 0 .47.28.67.4.29.17.56.34.74.31.04 0 .24-.4.29-.51.1-.21.25-.52.45-.6.33-.14 1.54.94 1.57 1.28.02.15-.35.76-.61 1.19-.12.19-.68-.25-.81-.36-.25-.2-.61-.49-.77-.53-.03 0-.26.42-.32.54-.13.24-.34.62-.42.7-.23.2-1.63-.9-1.64-1m15.16-3.06c.08.07-.14.68-.21.87-.13.38-.21.79-.24 1.24-.04.54.41 1.45.97 1.32.13-.03.2-.32.24-.48.03-.13.13-.51.24-.46.3.15-.21 1.93-.74 2-.61.08-1.15-.96-1.07-1.52.09-.64.39-2.89.82-2.98m12.95 3.6c-.11-.64.42-3.07.82-3.07.22 0-.22.91-.23.94-.16.31-.24.62-.23 1.04.01.34.21.73.38 1.06.1.21.42.03.51-.07.07-.06.09-.12.13-.23.07-.18.13-.34.2-.38.19-.09-.12 1.01-.16 1.1-.11.25-.25.57-.55.62-.55.09-.78-.59-.87-1.02m-44.35.84c-.07-.3.54-1.15.75-1.3.26-.2 1.51.91 1.55 1.18.07.43-.71 1.63-.99 1.36-.37-.34-1.31-1.25-1.31-1.25m-20.62.97c-.02-.2.55-1.15.7-1.27.17-.12.68.22.87.34.2.14.62.41.79.36.09-.03.29-.37.36-.5.09-.16.28-.5.44-.54.33-.09 1.65 1.08 1.71 1.44.04.22-.5.87-.76 1.18-.08.09-.69-.37-.83-.46-.16-.12-.68-.5-.73-.49-.2.01-.42.48-.57.78-.1.21-.35.47-.58.27 0 0-.48-.35-.66-.48-.18-.14-.77-.56-.76-.63m10.86 1.35c-.18-.27 0-1.27.14-1.59.77-1.97 13.97-7.25 13.97-7.25.17.06-.14.82-.18.86-.02.02-3.28 1.58-3.78 1.78-.49.19-2.46 1.09-3.8 1.71-1.05.48-2.21 1.11-3.27 1.69-.51.27-2.98 1.62-2.57 2.1.03.03.31.17.46.25.12.06.3.15.36.22.13.14-.04.6-.15.64-.44.16-.87-.16-1.17-.39m-14.31.09c-.35-.84-.12-2.01.14-2.93.04-.13.09-.27.14-.38.14-.28.33-.31.19.03-.09.22-.13.44-.17.71-.03.2-.07.49-.08.64v.27c-.13.33.26.94.39 1.13.11.16.39.2.53.06.05-.05.1-.21.13-.3.04-.13.1-.31.18-.29.51.13-.38 1.59-.46 1.67-.22.22-.98-.34-.99-.62m58.8 3.18c.07-.18-.79-.7-1.02-.76-.63-.16-1.38.08-1.47.66-.06.39 2.23.46 2.49.09m-51.3.83c0-.28-.39-.55-.62-.72-.4-.29-1.32 0-1.41.44-.1.48 1.72.36 2.04.28m19.87-.56c.14-.51-.65-1.4-.94-1.65-.55-.49-1.46.36-1.52.89-.06.56.38 2.2.93 1.97.57-.23 1.16-.76 1.53-1.2m-8.15-.8c.05-.16.15-.74.2-1.09.05-.3.11-.58.2-.84l.08-.24.04-.16q.04-.16.08-.28c.09-.26.24-.72.31-.79.32-.33-.21 2.09-.27 2.32-.22.77-.14 2.41.67 2.59.24.05.33-.19.38-.38.06-.2.2-.65.33-.61.62.15-.48 2.16-.65 2.26-.99.56-1.64-1.91-1.37-2.77m25.69 1.53c.18-.47-1.77-1.49-2.22-1.55-.23-.03-1 1.53-1.11 1.83-.09.24-.02.72.19.88.27.2.35.26.8.23.48-.03 2.25-1.07 2.34-1.38m-3.63 2.67c-.43-.78-.39-1.7-.18-2.75.07-.34.18-.64.3-.92.17-.39.42-.95.4-1.12 0-.04-.26-.21-.32-.25-.12-.08-.25-.16-.35-.25-.11-.1-.32-.29-.52-.49l-.13-.07c-.18-.16-1.13-1.1-1.16-1.2-.12-.43-.05-1.11.05-1.55.04-.18.3.03.36.08.1.08.16.12.3.17.19.06.35.12.53.18l.16.06q.15.06.32.12c.27.09.87.31.94.43.12.19-.17.25-.34.29-.16.03-.3.07-.29.22 0 .1 1.11.82 1.3.86.16.03 1.14-1.31 1.41-1.68q.07-.11.18-.24c.11-.13.21-.27.31-.41s.31-.44.32-.46c.08-.14.21-.35.32-.42.48-.34-.32 1.87-.4 2.01-.05.08-.17.24-.25.36-.1.14-.21.3-.31.45-.14.21-.53.79-.48.9 0 .02.64.44.83.56.13.09.75.68.87.92.03.04.08.17.12.26.11.25.2.54.18.8-.15 1.73-.46 2.06-1.6 2.79-.64.41-2.23 1.41-2.87.34m-39.8-2.71c.06.02-.12.61-.2.89-.11.49-.18 1.23 0 1.77.09.27.33.72.65.7.13 0 .36-.21.4-.34.06-.16.18-.51.24-.49.32.08-.33 1.64-.43 1.71-.48.36-.85-.06-1.08-.4-.4-.6-.28-3.57.42-3.85m33.07-16.22c.12-.06 1.06 2.2 1.11 2.35.02.06.38.85.56 1.24.09.19.63 1.44.04 1.26l-.19-.2q-.17-.22-.18-.22c-.13-.13-.41-.41-.47-.38-.03.02.03.6.04.67l.04.28.04.28.04.52.04.32s0 .05.04.36l.04.24.04.32.08.48q.07.34.08.44c.2 1.57.42 3.37.65 4.7.23 1.4.43 3.13.48 4.3.05.98 0 1.93-.16 2.93-.05.31-.29 1.24-.54 1.12-.05-.02-.1-.59-.1-.59v-.76c0-.51-.04-1.02-.09-1.65-.07-.96-.2-2.21-.36-3.25-.15-.93-.24-1.69-.36-2.69-.11-.9-.22-1.88-.36-2.65-.15-.83-.26-1.64-.36-2.57-.06-.5-.19-1.66-.2-1.73-.04-.27-.07-.47-.08-.62-.02-.31-.04-.64-.08-.98l-.04-.32v-.16c-.02-.27-.05-.58-.12-.8-.12-.38-.21-.68-.16-.88.1-.39.33-1.19.54-1.35m31.68 19.93c.26-.16.71-.18.97-.04.36.19.66.35 1.01.24.26-.08.49-.25.66-.43 0 0 .17-.31.23-.42.09-.17.17-.31.32-.32l-.02.28c0 .11 0 .26.11.29.26.08.56.17.73.15.12-.02.2-.43.24-.64.05-.25.14-.66.42-.68.19-.01-.17 1.23-.2 1.3-.16.39-.33.8-.66.95-.18.08-.44.08-.67.02-.25-.07-.56-.16-.68-.05-.23.22-.45.41-.82.49-.36.08-.57 0-.85-.14-.19-.1-.7-.37-1.05-.1l-.16.06c-.08.04-.23.11-.3.16 0 0-.52.35-.73.48l-.13.09c-.05.04-.29.21-.29.21q-.05.03-.21.17c-.1.09-.24.18-.35.25-.4.22-.79.44-1.21.68-.15.09-1.24.47-1.37.36-.08-.07.48-.35.51-.36.31-.15.48-.28.62-.4l.14-.08.14-.08c.12-.08.28-.2.46-.33l.53-.39.34-.24c.12-.08.14-.09.75-.56l.44-.32.35-.24.14-.08.22-.16.18-.04.18-.08zm-32.91-.08s-.16.58-.2.72c-.12.41-.22.78-.24 1.28-.01.24 0 1.04.3 1.1.19.04.35-.11.48-.3.08-.14.13-.23.18-.25.31-.17-.18 1.01-.22 1.1-.22.41-.52.54-.95.33-.22-.1-.29-.88-.32-1.2-.05-.63.59-2.63.97-2.79m-10.43 4.2c-.14-.3-.3-.98-.18-1.34l.04-.24q.03-.18.08-.32c.06-.17.11-.34.16-.52.07-.27.42-1.09.66-1.1 0 0-.3.86-.33.94-.14.4-.2 1.09-.04 1.53.1.29.3.59.61.44.12-.06.2-.18.26-.3.02-.04.24-.5.32-.38.12.17-.36 1.24-.49 1.4-.34.4-.82.41-1.08-.09m27.38.06c-.42-.2-.95-.84-1.17-1.24-.2-.37-.33-.8-.4-1.29-.04-.26-.04-.79-.04-1.04q0-.16.04-.64c0-.06.05-.59.02-.56l-.22.04-.32.24-.14.09q-.11.08-.23.15c-.13.07-.26.16-.38.25-.41.3-.87.64-1.28.88l-2.92 1.64c-.94.54-2.2.83-3.43 1.11l-.2.04-.2.04c-.18.03-.37.08-.53.12l-.16.04-.24.04-.24.04c-.16.04-.34.09-.43.11-.44.13-1.65.48-1.88.36-.27-.14 1.19-.74 1.26-.78.52-.22 1.03-.41 1.57-.62.5-.19 1.05-.4 1.57-.68l.14-.06.14-.08.28-.14c.17-.07.3-.13.44-.22.14-.08.26-.15.43-.22 0 0 .56-.3.78-.43.13-.07.27-.16.4-.24.12-.07.22-.13.34-.2l.77-.44c.07-.04.28-.16.4-.24.08-.05.23-.13.36-.2 1.04-.56 2.01-1.26 2.95-1.93.82-.59 3.4-2.48 3.33-3.21-.04-.34-1.2-2.27-1.61-2.91-.11-.17-.19-.37-.26-.58-.13-.35-.26-.73-.42-1.06-.15-.31-.28-.59-.26-.78.01-.12.19-1.33.29-1.3.17.05.19.05.29.21.09.13.21.29.33.39.22.2.58.5.69.58.07.05.45.42.62.6.07.07.32.36.22.5-.02.04-.2.01-.29 0-.24-.04-.35-.06-.54 0-.15.04.27.68.3.71.08.13.17.26.24.4.08.15.15.28.24.42.3.48.69 1.12.79 1.62s.17 1.92-.08 2.41c-.34.67-.61 1.05-1.07 1.57-.16.18-.37.37-.55.54-.31.27-.59.51-.66.69-.36.97-.16 2.28.41 2.95.35.4.75.77 1.32.95.52.16 1.15.14 1.85.12.64-.02 1.63-.53 2.18-.82 1.16-.62 4.63-3.46 5.02-4.62.06-.17-.08-.42-.17-.53-.07-.1-.5.07-.58.09-.18.07-.51.13-.81.18-.37.07-1.61.26-1.69.16l-1.18-.49c-.56-.17-.36-1.92-.25-2.42.07-.28.24-.54.38-.76.08-.11.21-.27.35-.43l.2-.19c.17-.26.68-.35 1.02-.41.46-.07 1.16.36 1.45.55.56.38 1.02.97 1.39 1.55.17.28 1.77-.87 1.88-.97.37-.34 1.13-1 1.55-1.09.25-.05.28.53.27.61-.04.39-.07.74.09 1.04.23.42.61.7 1.05.9s1.18.18 1.65.06c.45-.11 1.01-.58 1.47-.96.12-.1.47-.75.61-1.03.2-.4.54-1.09.74-1.17.32-.14.17.36.09.57-.14.37-.31.79-.28.96.02.1.31.35.39.42l.26.15.16.08s.21.11.24.14c.08.09 2.54.58 1.53-.77-.33-.45-.17-1.1.05-1.98.09-.36.6.76.6.76.17.41.28.8.34 1.33.06.52-.12 1.38-.34 1.71-.22.32-.49.7-.76.76-.73.16-1.32.15-1.98-.18-.02-.01-.41-.29-.61-.44-.1-.08-.2-.19-.27-.29-.13-.17-.22-.29-.32-.27 0 0-.16.26-.17.27l-.08.12-.16.28c-.15.24-.37.44-.6.61-.5.37-1.06.59-1.82.7-.33.05-1.15-.1-1.43-.34-.34-.3-.66-.59-.79-.8-.09-.16-.17-.33-.22-.52-.04-.16-.21-.74-.28-.68-.34.3-.72.59-1.08.85-.32.23-1.06.77-1.1.91 0 .01-.06.74-.08 1.04-.03.42-.14.77-.26 1.12-.39 1.16-3.67 4.25-4.76 4.8-.74.37-1.78.89-2.22 1.03-1.24.39-2.33.05-3.33-.32m-51.83.3c-.54-.11-1.22-.74-1.6-1.11-.37-.36-.85-1.2-.96-1.8-.15-.82-.28-1.61-.2-2.34.06-.58.18-1.27.33-1.83 0 0 .17-.53.24-.72.08-.23.16-.47.05-.63-.27-.44-.65-1.06-.7-1.29-.15-.68-.23-1.72 0-2.41l.04-.28.04-.2c.04-.18.08-.35.12-.52.06-.24.17-.66.2-.76.12-.37.52-1.53.8-1.54.09 0-.23 1.46-.28 1.66-.15.7-.37 1.69-.4 2.13-.06.94.24 1.76.83 2.11.23.14.47-.19.5-.34.09-.35.21-.8.23-.84.28-.5.19 1.36.07 1.62-.16.37-.32.73-.67.9-.72.35-.77 2.06-.77 2.91 0 .38.1.8.2 1.14 0 0 .11.35.16.51.11.15.13.18.14.22.09.39.78.98 1.11 1.24.47.38 1.08.58 1.76.74.83.21 1.65.1 2.46-.08.85-.19 2.48-.74 3.02-1.23.04-.03.21-.13.26-.16q.14-.08.26-.16c.16-.11.31-.21.46-.32l.6-.4.14-.08c.1-.07.23-.17.34-.25.41-.33 1.68-1.34 1.62-1.71-.05-.32-.15-.62-.29-.86-.03-.04-1.04.16-1.23.19-.46.09-1.11.13-1.45.04-.44-.11-.9-.23-1.14-.53-.23-.28-.31-.46-.37-.9-.04-.26.25-1.27.42-1.87.1-.36.67-.85.99-1.02.3-.16.61-.2.99-.14.6.1.95.5 1.26.9.14.17.27.34.39.53.19.28.46.69.52.72.51.27 2-1.15 2.12-1.69.06-.26-.19-2.35-.32-3.25-.14-.98-.28-1.97-.4-2.89-.12-.91-.27-1.95-.4-2.89q-.04-.28-.08-.48c-.05-.26-.09-.55-.12-.84-.02-.16-.17-1.41-.08-1.41l.04-.2.04-.16s.08-.24.12-.36c.05-.15.21-.61.29-.63.1-.03.32 1.08.36 1.27.1.48.3 1.48.32 1.65.02.13.2 1.24.28 1.81.05.35.11.72.16 1.09.05.36.11.73.16 1.08.19 1.23.36 2.53.52 3.93.14 1.17.6 4.23.61 4.26.3.74.7 1.72.92 1.96.39.41.81.85 1.4 1.05 1.47.49 3.38.47 4.84.14 1.14-.25 4.59-1.18 4.82-1.71.03-.06-.07-.51-.12-.72-.06-.28-.12-.57-.16-.84-.11-.74-.01-2.07.34-2.55.32-.43.66-.9 1.05-1.1.94-.48 1.49.21 1.9.82.32.48.5 1.09.58 1.77.06.52-.24 1.61-.42 2.01 0 .02-.43.49-.6.67-.05.05-.23.19-.35.29-.13.11-.39.32-.43.41-.22.55 1.34.98 1.9 1.04.51.06 1.88-.19 2.32-.42.27-.14.84-.45.89-.72.03-.21-.2-2.23-.36-3.58q-.02-.19-.08-.48l-.08-.44c-.05-.29-.12-.72-.16-1.04l-.32-2.09c-.24-1.64-.4-2.92-.61-4.58-.16-1.29-.47-3.63-.6-4.05-.11-.35.39-1.86.72-1.78.01 0 .08.28.09.29l.04.16.06.24.22.44.06.16c.09.22.2.43.32.62.11.17.2.34.28.54.09.21.18.4.28.6.07.13.22.44.22.44.09.19.42 1.23.17 1.23-.11 0-.4-.34-.49-.46-.17-.21-.36-.44-.47-.45-.14-.01.06 1.45.1 1.77.03.2.08.51.12.76l.04.24q.07.37.08.48.04.36.08.64l.04.24c.08.44.08.44.08.44.08.56.13.99.2 1.61.04.33.08.65.12.96l.12.72c.04.32.08.65.12.96l.12.84c.14 1.21.28 2.53.28 3.65 0 2.36-1.19 3.46-3.25 3.76-.61.09-1.23.05-1.82-.12-.51-.14-.96-.38-1.26-.73-.15-.17-.27-.35-.39-.56-.1-.18-.31-.55-.44-.56-.11-.01-.75.33-.97.46-.01 0-.28.11-.4.16-.22.08-.49.2-.73.3-.29.12-1.35.47-2.1.72-1.92.64-3.78.63-5.81.36-1-.13-1.88-1.22-2.62-2.15-.22-.27-.46-1.06-.58-1.49-.08-.28-.14-.54-.2-.84-.05-.25-.23-1.14-.32-1.07l-.07.19-.08.2-.12.24c-.09.18-.3.35-.52.53-.3.25-.68.52-1.03.7v.66l-.04.78c-.02.32-.08.78-.22 1.1-.49 1.12-2.89 3-4.04 3.53-.96.45-2.4 1.12-3.03 1.27-1.28.3-2.44.31-3.79-.16m8.66.69c1.06-.43 2.22-.96 3.24-1.51.91-.49 3.14-1.6 3.49-1.66.27-.04-.02.84-.18.94-.08.05-.7.35-.99.48-.6.28-1.82.86-1.99.96-.64.36-1.37.67-2.06.94-.41.16-.82.34-1.21.54-.61.32-.46-.16-.3-.7" fill="#1d1d1b" fill-rule="evenodd"/></svg>