<svg viewBox="0 0 84.17 25.5" xmlns="http://www.w3.org/2000/svg"><path d="m22.39 14.6c-.03-.28-.06-.57-.09-.89-.15-1.7-.23-2.92-.32-4.7-.04-.71-.28-2.95-.44-4.54-.03-.33-.11-.84-.2-1.24-.1-.45-.28-1.26-.2-1.45l.08-.28c.08-.28.08-.28.08-.28.04-.12.06-.18.1-.26l.08-.14.07-.13c.23-.49.68 1.98.68 1.98.25 1.36.4 2.78.48 4.13.22 3.61.53 6.76.93 10.32.09.8.41 1.75.79 2.31.33.49.72.85 1.24 1.15.59.34 1.2.54 1.99.74.77.19 1.89.13 2.62-.04 1.19-.27 2.31-.52 3.17-.86.83-.33 1.68-.77 2.4-1.24.64-.42 2.13-1.41 2.48-1.35.05.01.05.28.05.31-.03.33-.05.51-.04.64.02.21.13.57.22.74.05.08.41.45.93.96.18.18 1.2.21 1.45.16.71-.14 2.06-.66 2-1.33-.11-1.46-.29-3.16-.57-4.55-.44-2.19-.83-5.88-1.17-9.07-.1-.94-.18-1.81-.24-2.59-.02-.31-.12-.64-.22-.9-.11-.27-.06-.53.02-.8.08-.29.36-1.25.64-1.14.03.01.08.27.09.29.03.14.07.34.1.44.08.24.21.52.33.76.37.78.73 1.62 1.05 2.45.08.21.43 1.62-.12.93-.1-.12-.62-.78-.69-.72 0 0 .08.87.08.88l.02.4.04.4.08.72.04.28.04.4.04.32.04.2.04.28.06.4c.09.71.38 2.83.55 4.09.37 2.75.69 5.18.28 7.63-.05.29-.6 1.09-.95 1.24l-.12.08c-.12.08-.26.17-.39.24-.14.08-.6.24-.91.34-.37.12-.95.08-1.57.04-.41-.03-1.02-.54-1.22-.8-.2-.25-.44-1.02-.67-1.75-.06-.19-1.25.6-1.37.68-.95.63-1.97 1.18-3.11 1.61-1.05.39-2.23.83-3.51.94-1.05.09-2.31.17-3.27-.24-.71-.21-1.35-.66-1.93-1.07-.42-.3-.78-1.08-1.08-1.72-.11-.24-.24-.66-.36-1.04-.07-.2-.12-.42-.16-.64q-.02-.11-.08-.56c-.02-.13-.05-.36-.08-.44 0 0-.04-.37-.08-.75.06-.08-.22-1.81-.2-1.97m57.4-13.43c-.39-.07-.95.04-.83.6.05.24.92.66 1.13.7.23.04-.08-1.18-.3-1.3m-26.78.7c-.05-.33-.62.08-.7.18-.17.2.06.45.19.56.82.7.95-.11.51-.74m-27.54.9c-.23-.33-.17-1.03.1-1.38.25-.33 1.59.99 1.67 1.06.21.21.43.43.59.69.08.14.56.88.58.88.05-.01.11-.8.11-.82.04-.52.07-.94.18-1.33.13-.45.3-.91.69-1.12.72-.39.91 1.23.76 1.71-.03.09-.41-.3-.44-.32-.17-.16-.29-.28-.42-.33-.27-.1-.36.58-.38.8q-.03.28-.05.79c0 .21-.04.56-.08.84s-.26 1.65-.52 1.47l-.04-.15s-.02-.06-.14-.32c-.11-.23-.28-.63-.32-.7s-.4-.54-.61-.8c-.37-.47-1.08-.77-1.67-.97m42.94-1.03c.51-.33 1.72.76 1.96 1.03.2.23.41.46.61.7.06.07.22.31.31.46.1.16.24.36.37.36 0 0 .02-1.68.02-1.7 0-.39.02-.7.12-1.14.07-.31.96-1.85 1.41-1.31.47.57.77.93.49 1.6-.07.18-.38-.15-.43-.2-.04-.05-.42-.38-.42-.38-.69-.19-.72.7-.72 1.1 0 .05-.04 5.42-.66 3.46-.18-.55-1.17-1.77-1.61-2.1q-.14-.1-.45-.05c-.21-.03-.51-.22-.69-.34-.46-.31-.58-.83-.29-1.46m-11.27 3.95c.98-.65 3.81-2.47 3.81-2.47.17-.09 1.35-.8 2.1-1.26l.14-.08.14-.08.14-.08.14-.08c.11-.07.35-.22.52-.32s.34-.21.51-.32c.19-.12.41-.27.56-.3.27-.05-.04.8-.15.91-.14.14-1.41.92-2.11 1.35-.73.45-1.47.91-2.17 1.38s-1.44.96-2.16 1.35c-.35.19-.76.46-1.15.72l-.13.09c-.08.07-.18.15-.19.15-.44.12-.19-.87 0-.96m-53.08-1.62c-.14-.3.02-.93.14-1.18.23-.48 1.76.82 1.92.96.26.24.49.56.7.86q.08.12.16.26l.16.28c.1.16.27.44.36.46.06.01.14-1.42.15-1.55.02-.3.05-.87.12-1.28.1-.6.35-1.17.72-1.52.39-.37 1.06.75 1.14 1.08.06.22-.12.53-.3.54 0 0-.32-.22-.43-.31-.21-.15-.41-.29-.45-.29-.44-.04-.42 1.25-.42 1.56 0 .25-.25 3.78-.68 3.19-.04-.09-.12-.27-.15-.31q-.07-.12-.12-.22l-.16-.26c-.21-.37-.53-.91-.71-1.1-.31-.31-.61-.6-.92-.51-.26.08-.54-.08-.73-.2l-.32-.23-.16-.23zm48.44-.11s-.23-.33-.45-.62c-.16-.22-.26-.39-.3-.7-.06-.46.33-1.25.51-1.52.12-.18.5-.49.8-.43.3.07.4.36.47.66.09.39.04.93 0 1.37-.02.25-.05.52.07.61.36.28.81.62.89.87.05.15-.04.5-.09.67-.03.11-.48-.22-.51-.24-.15-.11-.32-.21-.49-.31-.38-.21-.61.08-.88.41-.45.56-1.05 1.25-1.9 1.75l-.18.08-.14.08q-.14.08-.26.16c-.12.08-.31.2-.38.24l-.38.18q-.06.02-.28.14c-.21.11-.53.28-.66.26-.37-.08.38-.6.42-.62.22-.13.42-.26.62-.4l.23-.19c.1-.09.22-.17.34-.25l.21-.18s.22-.16.32-.23c.37-.27.82-.58 1.28-1.04.12-.1.29-.25.35-.3s.13-.14.18-.2c.11-.13.22-.26.23-.27m-37.4 3.72c-.28-.23-.36-.97-.42-1.43-.08-.77.58-4.14 1.03-4.8.17-.25.11.62.1.64q-.04.16-.2.64c-.06.21-.14.56-.2.84l-.04.2-.04.28-.04.2-.06.52c-.06-.35 0 .54.02.68.02.25.08.48.16.68.11.27.39.77.69.79.18 0 .32-.28.38-.41.1-.21.28-.61.38-.6.45.06-.57 2.11-.86 2.24-.37.16-.71-.26-.9-.49m64.44-4.2c0-.06-.38-.34-.56-.48-.18-.13-.31-.28-.42-.48-.39-.68.33-2.12.81-2.39.21-.11.51 0 .67.09.31.18.47 1.67.52 2.16q.05.46.25.63c.09.08.24.2.3.29.11.15.25 1.01-.03.97-.04 0-.31-.18-.48-.3-.18-.12-.39-.25-.67-.1l-.08.12-.09.13c-.12.14-.24.28-.36.4-.11.11-.21.2-.33.3s-.3.26-.36.33c-.28.3-1.05.88-1.63 1.31-1.2.89-2.55 1.54-4.07 2.1-.36.13 1.35-1.07 1.52-1.18.62-.41 1.4-.93 1.83-1.25.95-.69 3.05-2.22 3.19-2.65m-28.19 5.6c-.18-.18.49-1.2.62-1.36s.6.17.73.27c.19.13.75.52.95.42.04-.02.26-.43.31-.55.02-.05.26-.38.41-.58.11-.15.75.36.83.43.27.22.55.44.71.65.22.29-.42 1.39-.65 1.49-.14.06-.57-.32-.7-.44-.17-.15-.6-.51-.79-.53-.05 0-.26.38-.32.5-.21.39-.4.74-.44.76-.28.13-1.55-.83-1.65-1.06m28.19.46c-.14-.69-.05-1.38.18-2.01.08-.22.48-1.26.61-1.14.08.07-.11.53-.16.64-.18.41-.31.7-.34 1.27-.02.38.22.9.44 1.1.15.13.34.08.48-.07.06-.06.1-.13.13-.23.05-.16.12-.37.19-.37.57.04-.44 1.61-.74 1.71-.4.13-.72-.58-.79-.9m-13.84-.96c-.02-.55.54-2.76.87-2.55.03.02-.22.69-.24.74-.15.4-.24.89-.22 1.41.02.5.42 1.36.95 1.2.17-.05.22-.29.26-.48.03-.14.11-.51.23-.46.42.2-.38 1.83-.6 1.94-.25.13-.47-.02-.7-.17-.39-.26-.57-1.12-.55-1.64m-41.02 2.63c-.49-.59-.12-1.82.29-2.24 1.35-1.38 4.37-2.65 6.48-3.52l.18-.08c.25-.12.35-.16.35-.16l.2-.08.18-.08.18-.08c.19-.08.37-.16.55-.24s.38-.18.52-.24l1.86-.8c.67-.29 1.92-.83 2.16-.92.17-.07.36-.14.48-.2s.29-.12.44-.18c.14-.05 1.03-.38 1.07-.26.03.12-.05.89-.22.9-.02 0-.31.11-.44.16l-.16.06-.2.08-.16.06c-.14.05-.6.23-.89.34-.18.07-.36.14-.52.22-.14.07-.26.12-.4.18-.25.11-.51.22-.77.32-.61.25-1.25.52-1.82.82l-.14.06-.38.16c-.13.05-.28.12-.4.18-.15.07-.48.22-.48.22-.26.1-.51.21-.77.32-1.94.86-6.46 2.94-6.96 3.85-.05.09.22.36.36.49t.21.11c.08.03.28.16.3.26.21 1.07-1.02.48-1.09.28m8.04-2.27c.09-.02.09.97.09.97 0 .11.05.4.15.55.25.36.76.2 1.06 0 .51-.32.57-.66.44-1.4-.04-.22-.15-1.39.24-1.26.09.03.19.94.21 1.16.02.31.08.74.29.96.13.13.75.32.92.15.08-.08-.1-.56-.24-.96-.21-.58-.15-1.21 0-1.78.05-.18.22.06.24.09t.08.52c.02.16.14.42.22.6.16.36.46 1.04.35 1.37l-.04.2-.04.2-.04.24c-.04.15-.14.3-.36.41l-.19.13c-.14.07-.3.1-.48.08-.16-.01-.4-.08-.53-.14-.24-.12-.42-.21-.48-.19l-.17.21q-.12.16-.19.23c-.17.15-.37.3-.61.37s-.62.1-.83-.09c-.27-.23-.4-.67-.4-1.04 0-.19.15-1.67.31-1.59m-25.81 3.48c-.18-.58 0-1.47.16-2.05.07-.25.4-1.23.56-1.12 0 0-.19.73-.22.83-.11.42-.14.94-.14 1.24 0 .43.25.88.45 1.14.07.1.29.12.39.04.01 0 .11-.25.11-.25.04-.09.1-.26.18-.28.29-.07-.12 1.11-.18 1.2-.57.92-1.17-.08-1.31-.76m27.84 1.89c.02-.29.56-1.11.77-1.25.26-.16 1.5.87 1.61 1.21.12.36-.75 1.41-1.03 1.28-.18-.08-1.36-1.14-1.35-1.24m35.14 1.61c-.24-.76-2.21-1.08-2.45-.04-.07.31.98.38 1.15.38.1 0 1.38-.07 1.3-.34m-47.38-.61c-.05.32-.04.57.02.85l.12.16c-.08-.13-.11-.5-.12-.68v-.16c0-.07 0-.13-.02-.16m33.53 1.81c.24-.49-1.86-1.46-2.26-1.55-.19-.04-1.01 1.54-1.07 1.79-.18.7.17 1.04.73 1.19.53.14 2.49-1.15 2.6-1.43m-26.96 1.44c-.15-.21-.19-1.03-.22-1.61-.03-.61.56-2.83.75-3.36.16-.44.04.93.01 1.04-.11.5-.31 1.42-.32 1.6-.04.64.31 1.74.95 1.67.21-.03.26-.27.3-.5.04-.19.15-.77.33-.63.36.28-.42 2.37-.92 2.46-.37.07-.77-.4-.89-.66m-21.9-2.65s-.16.5-.26.8c-.14.41-.16.93-.16 1.18s.17.9.42 1.04c.17.09.33.04.4-.1.08-.14.24-.44.3-.42.28.1-.36 1.27-.42 1.36-.27.43-.72 0-.94-.23-.03-.04-.15-1.05-.21-1.51-.01-.11.22-.85.32-1.17.06-.18.35-1.05.54-.96m45.29 3.96c-.17-.23-.47-.84-.39-1.23v-.22l.04-.5.08-.8c.02-.16.12-.45.18-.64.05-.14.16-.41.24-.6.15-.35.3-.7.27-.88l-.97-.76-.24-.2c-.21-.2-.4-.39-.6-.6-.09-.1-.2-.21-.32-.29-.14-.09-.23-.15-.34-.27-.11-.11-.08-1.38 0-1.58.09-.22.18-.15.34-.03.12.09.22.16.37.21l.2.06.28.1.16.06.32.12c.25.09.93.32.97.46.02.08.03.14-.07.19l-.14.05c-.18.04-.36.08-.39.11-.25.19 1.14 1.02 1.47.97 0 0 1-1.35 1.06-1.48.06-.12.17-.25.25-.36.11-.13.21-.27.31-.41.08-.12.17-.24.32-.46l.24-.34c.6-.84-.06 1.52-.2 1.73-.08.12-.16.25-.24.38-.1.16-.22.32-.33.47-.18.23-.46.64-.54.89-.01.04.58.43.71.52.22.14.43.32.62.5.41.4.69 1 .69 1.63 0 .45-.1 1.42-.34 1.68-.8.89-2.65 2.61-4.03 1.52m-6.53-19.27c.18-.08 1.03 1.6 1.14 1.82.28.57 1.04 2.11.86 2.58-.08.2-.53-.36-.55-.39-.08-.09-.43-.54-.52-.4-.07.11.22 2.47.32 3.18.07.56.13.96.2 1.61l.04.28q.04.26.08.6t.08.52.08.6c.08.7.31 2.52.48 3.93.09.74.21 1.71.24 2.09v.12l.04.4.04.36v.52.25c.07.55-.21 3.18-.77 3.3-.09.02-.12-1.87-.12-1.9-.01-.57-.07-1.33-.12-1.77-.05-.41-.1-.86-.16-1.29-.07-.56-.14-1.08-.2-1.69-.03-.3-.4-3.29-.68-5.54l-.04-.32-.04-.36-.04-.32-.04-.32q-.05-.43-.08-.68l-.04-.4-.04-.28-.04-.2-.04-.5v-.3s0 0-.06-.44c0-.03-.06-.72-.06-.76-.03-.41-.07-.86-.12-1.21-.03-.19-.05-.29-.05-.33q0-.37-.03-.59c0-.07-.06-.22-.08-.28-.06-.17-.16-.45-.16-.52 0-.33.34-1.16.49-1.38m31.53 19.95c.29-.08.65-.18.89-.06.33.16.6.3.93.3.29 0 .58-.29.74-.45.07-.08.16-.19.21-.29.08-.15.26-.49.35-.43v.23s.03.16.03.16c.03.08.11.17.2.2.13.04.7.2.74.01.09-.41.21-.94.42-1.23.23-.32.01 1.11-.07 1.3-.18.4-.29.66-.64.89-.18.12-.26.14-.49.09q-.27-.06-.34-.1c-.06-.03-.2-.1-.22-.1-.17 0-.34.15-.49.29-.21.19-.48.29-.76.35-.22.05-.52-.11-.78-.24-.4-.2-.47-.18-.92-.04-.4.12-.96.53-1.37.82-.94.68-1.98 1.43-2.94 1.67-.22.05-.77-.02-.28-.2.23-.08.56-.29.85-.46.13-.08.95-.67 1.48-1.04l.13-.09c.09-.07.31-.23.32-.24 0 0 .22-.17.32-.24.08-.06.32-.24.32-.24.37-.31.89-.74 1.38-.85m-76.18 2.29s-.18-.2-.28-.29c-.08-.07-.15-.2-.24-.33-.18-.3-.34-.6-.48-.96-.54-1.35-.46-3.16.02-4.58.07-.2.2-.6.2-.6q.07-.24.1-.32l.08-.2c.1-.23.16-.36.16-.36.06-.16-.08-.47-.24-.84-.14-.31-.19-.71-.22-1.12-.07-.95.62-4.83 1.21-5.35.4-.36-.22 1.6-.22 1.6-.23.68-.37 1.39-.46 2.21-.09.73.14 1.87.83 2.25.31.17.59-.33.67-.5.07-.17.34-.8.4-.78.2.09-.17 1.54-.26 1.72-.24.55-.48.78-1.13.88-.52.08-.83 2.81-.83 3.27s.33 1.36.54 1.91c.12.32.84.92 1.33 1.33.39.33 1.39.56 2.02.64.54.07 2.27-.04 2.74-.28.02 0 .43-.15.61-.2.26-.08.51-.16.74-.26.2-.08.53-.26.79-.4.18-.1.63-.33.64-.33.74-.28 3.35-2.37 3.58-3.09.15-.48-.5-1.99-.71-2.39l-.08-.14q-.11-.17-.16-.28l-.14-.24-.16-.25c-.15-.29.05-1.27.18-1.55.14-.28.45.36.52.49.1.2.33.63.52.72.45.22 1.01.16 1.45.08.47-.09 1.01-.38 1.26-.69.24-.31.43-.63.64-.99.24-.41.64-1.12.81-1.16.15-.04-.04.64-.06.7-.05.19-.19.65-.02.8.4.35.84.75 1.05.84.35.17.8.19 1.17.04.16-.06-.11-.87-.18-1.08-.11-.31.14-1.06.3-1.52.14-.41.55.72.55.72.13.4.21.8.24 1.28.06 1.08-.44 2-1.27 2.27-.42.14-1.17 0-1.53-.18-.4-.19-.74-.55-.98-.91-.11-.17-.32.17-.36.24-.09.15-.22.36-.33.47-.2.22-.39.41-.66.57-.18.11-.41.19-.62.26q-.16.05-.28.08c-.21.05-.55.12-.58.15v.37s0 .28 0 .28c-.03.52-.04.87-.08 1.27-.03.34-.11.64-.2.92-.44 1.31-2.67 2.9-3.85 3.57-.84.48-1.77 1-2.83 1.23-.33.07-1.17.24-1.21.24-.2.02-.75.04-.97.04-.15 0-.39 0-.39 0-.08.12-1.78-.34-1.99-.43-.25-.11-.51-.22-.73-.36-.11-.07-.37-.25-.38-.25-.1-.09-.23-.21-.24-.21m11.47.95c.68-.29 1.4-.61 2.06-.94.36-.18 1.47-.65 2.18-.95.69-.29 1.49-.64 2.24-.96 0 0 .37-.16.54-.24l.44-.18.14-.06c.38-.19 1.08-.53 1.37-.49.15.02-.21.87-.34.92l-.16.06-.16.08-.32.14-.24.12c-.41.19-.84.38-1.25.54-.64.25-1.76.74-2.62 1.12-.83.37-1.63.72-2.38 1.04-.2.09-.71.31-.73.32l-.28.12-.12.06-.16.06c-.26.11-.49.22-.46-.16.02-.21.08-.55.26-.6m34.39 1.54.25-.18c.1-.07.18-.12.31-.17.14-.05.26-.11.4-.18.09-.05.2-.1.32-.14.07-.02 1.07-.45 1.61-.68 1.19-.51 2.29-.99 3.33-1.62 1.75-1.07 5.14-3.18 5.54-3.46.7-.5 1.39-1.06 2.06-1.61.33-.28.71-.66.98-1 .39-.5.3-.7-.02-1.32-.03-.05-.45-.75-.72-1.18-.25-.41-.56-.91-.73-1.31-.03-.08-.21-.52-.3-.76-.11-.27-.23-.59-.36-.8-.21-.34-.21-.4-.14-.88.02-.14.15-1.07.26-1.02.33.12 2.15 1.9 2.18 2.31l-.2-.02-.16-.04s-.48-.07-.5 0c-.05.22.66 1.34.86 1.62.31.44.56.93.75 1.48.17.52.08 1.49 0 2.25-.07.72-.84 1.52-1.33 1.99-.13.13-.26.25-.4.36-.18.16-.5.43-.52.47-.19.35-.39 1.34-.22 1.67.01.03.07.33.08.36q.04.2.1.36c.1.27.19.51.38.7.34.35.73.74 1.08.87.5.19.85.28 1.57.26.77-.02 1.52-.31 2.22-.58.54-.21 1.21-.69 1.65-1.05.09-.08.2-.17.3-.25q.2-.16.4-.32c.21-.22.45-.42.7-.6.9-.64 1.76-1.69 2.39-2.6.13-.19.05-.46-.08-.6-.06-.08-.89.09-1.33.18-.51.1-1.55.28-1.7.2l-.36-.08q-.28-.07-.36-.1c-.22-.08-.35-.17-.52-.29-.61-.43-.58-1.9-.25-2.64.24-.54.6-.93 1.02-1.3.24-.2.74-.32.99-.29.68.07 1.31.42 1.71.84.18.18.44.45.52.56.08.1.16.2.23.31.07.1.24.37.32.38.49.06 1.98-1.17 2.49-1.59.23-.19 1.08-.89 1.12-.13.04.83.07 1.39.57 1.8 1.12.89 2.48.47 3.43-.3.31-.25.56-.75.78-1.18.2-.4.65-1.29.83-1.34.28-.09.19.31.12.48-.17.48-.32.89-.3 1.08.02.24.92.72 1.17.78.41.1 1.14.26 1.56 0 .21-.14-.03-.58-.11-.72-.22-.36-.35-.56-.34-.78 0-.22.23-1.14.36-1.26.42-.38.96 2.09.94 2.5-.04.66-.25 1.23-.55 1.64-.45.61-1.56.61-2.29.31-.3-.12-.53-.23-.76-.43-.1-.08-.21-.19-.29-.29-.14-.17-.28-.35-.4-.33 0 0-.16.26-.21.35-.08.14-.16.26-.24.38-.15.22-.37.51-.63.62l-.24.17c-.12.09-.27.15-.43.21-.31.11-.6.22-.89.24-.5.05-.97 0-1.37-.18-.42-.19-.73-.46-.97-.82-.1-.16-.19-.34-.26-.54-.03-.09-.07-.2-.08-.28-.05-.28-.09-.46-.1-.49-.06-.11-.75.49-.8.53-.08.07-.43.35-.43.35l-.23.19-.13.09-.13.09c-.17.14-.51.43-.54.47-.04.06-.08.8-.1 1.16-.03.48-.11.73-.26 1.1-.95 2.36-5.85 6.56-9.08 6.02-.69-.11-1.15-.42-1.61-.75-.38-.27-.71-.81-.9-1.28-.09-.22-.2-.76-.3-1.24-.04-.19-.01-.71 0-1.01 0 0 .06-1.2-.06-.95-.17.37-4.3 2.76-5.63 3.52-.8.46-2.22.77-3.37 1.02-.64.14-1.41.31-1.94.46-.08.02-2.04.58-1.73.21m-12.05-1.81c.21-.71.41-1.26.75-1.8.16-.25.01.54-.03.64-.17.43-.3.77-.28 1.08.02.42.12.83.38 1.01.16.11.36.09.57-.15l.08-.18c.05-.09.1-.19.22-.13.35.17-.49 1.5-.9 1.56-.73.11-.89-1.45-.78-2.03" fill="#1d1d1b" fill-rule="evenodd"/></svg>