<svg xmlns="http://www.w3.org/2000/svg" viewBox="0 0 76.8 25.77"><g data-name="Layer 2"><path d="M52.52 23.89a5.85 5.85 0 0 0-.2-.59 4.86 4.86 0 0 1-.18-.75 3.25 3.25 0 0 1 0-.82c0-.19.08-1.43.06-1.44a12.54 12.54 0 0 0-1.37.83 1.39 1.39 0 0 0-.3.26l-.26.14-.13.08a2.24 2.24 0 0 1-.33.23 1.22 1.22 0 0 1-.23.16c-1 .57-2.3 1.32-3 1.71s-6.44 2.12-7.4 2c-.53-.09 2.46-1.28 2.69-1.36a10.49 10.49 0 0 0 1.5-.62c.43-.23 1.33-.7 1.45-.75a36.46 36.46 0 0 0 6.16-3.73c.84-.59 3.64-2.7 3.61-3.43a19.75 19.75 0 0 0-1.61-2.9 4.87 4.87 0 0 1-.38-.83 9.17 9.17 0 0 0-.38-.91 2.1 2.1 0 0 1-.3-.87 6.6 6.6 0 0 1 .2-1.3c.27.18.27.18.37.31a2 2 0 0 0 .24.26 3.45 3.45 0 0 1 .28.26l.3.25a7.81 7.81 0 0 1 .6.56c.06.06.68.67.36.72h-.2s-.46-.08-.47-.07c-.18 0-.1.27 0 .39a3.89 3.89 0 0 0 .23.37l.32.56c.35.6 1 1.8 1 1.9a5.71 5.71 0 0 1 0 2.33 3.68 3.68 0 0 1-1 1.62s-.46.47-.67.67a1.89 1.89 0 0 1-.31.25.77.77 0 0 0-.36.45 3.08 3.08 0 0 0-.18 1.57 3.48 3.48 0 0 0 .54 1.42 3.82 3.82 0 0 0 1.15.93 7.18 7.18 0 0 0 1.63.25c1.35.11 3.44-1.41 5-2.53a12.36 12.36 0 0 0 1.71-1.6c.14-.15 1.86-2 .83-2.09a3.6 3.6 0 0 0-.48.15c-.13 0-.63.14-1 .2a8.8 8.8 0 0 1-1.43.16 2.42 2.42 0 0 1-1.27-.46c-.65-.47-.56-1.63-.38-2.45a2.62 2.62 0 0 1 1.77-1.84 2.09 2.09 0 0 1 1.35.3l.26.16a2 2 0 0 1 .33.24 5.9 5.9 0 0 1 .5.49 6.49 6.49 0 0 0 .86.95 9.19 9.19 0 0 0 1.73-1 4.42 4.42 0 0 0 .52-.44l.23-.19a2 2 0 0 1 .87-.5c.24 0 .22.58.22.69a1.42 1.42 0 0 0 .17 1.07 2.18 2.18 0 0 0 1.12.85 2.69 2.69 0 0 0 1.59 0c.39-.15 1.3-.56 1.5-1l.19-.24a4.34 4.34 0 0 0 .3-.58c.16-.34.35-.73.52-1s.63-.85.54-.12a3.08 3.08 0 0 1-.2.48 1.33 1.33 0 0 0-.18.75c.06.77 2.9 1.35 2.92.71a1.29 1.29 0 0 0-.25-.69c-.2-.28-.32-.45-.3-.69s.21-1.25.4-1.31.67 1.14.75 1.39a3.46 3.46 0 0 1 .08 1.66 2.29 2.29 0 0 1-.59 1.25c-.58.3-.81.42-.86.43a2.5 2.5 0 0 1-1.53-.26 2.89 2.89 0 0 1-.73-.48 1.41 1.41 0 0 1-.25-.29c-.11-.15-.21-.29-.3-.31a3.37 3.37 0 0 0-.26.41l-.22.38a6.14 6.14 0 0 1-.64.62 3.09 3.09 0 0 1-1.53.64 2.65 2.65 0 0 1-1.59-.21 2.13 2.13 0 0 1-.48-.35l-.13-.08-.16-.27a2.75 2.75 0 0 1-.42-.91 2.08 2.08 0 0 1-.08-.47c0-.16 0-.16-.24-.08l-.72.59-.13.09c-.12.1-.28.24-.38.31s-.87.66-.9.71-.08.84-.1 1.19a2.68 2.68 0 0 1-.18.95 5.16 5.16 0 0 1-.6 1A11 11 0 0 1 62.33 22c-.79.7-2.54 2.2-2.64 2.27-.67.45-3.33 2-4.54 1.44l-.4-.08-.56-.2a3.3 3.3 0 0 1-.65-.39 2.56 2.56 0 0 1-.48-.45c-.1-.12-.52-.64-.54-.65m-34.7-2.37a2.51 2.51 0 0 1 1.18-.19 4.83 4.83 0 0 0 .91.24 2.83 2.83 0 0 0 .63-.35v-.13l.06-.14a1.32 1.32 0 0 1 .22-.33l.08.17a1.62 1.62 0 0 0 .11.37c.21 0 .48 0 .55-.11a3.89 3.89 0 0 0 .14-.38c0-.13.06-.2.15-.25.32-.15-.09.9-.14 1s-.2.53-.39.61a1 1 0 0 1-.48.08 1.09 1.09 0 0 0-.46-.05 2.88 2.88 0 0 1-.81.41 1 1 0 0 1-.6-.16 1.32 1.32 0 0 0-.92-.12A17.85 17.85 0 0 0 14.73 24a10.67 10.67 0 0 1-3.44 1.55C11 25.57 12 25 12 25c.23-.14.45-.29.67-.45l.75-.46.39-.23.54-.32c1.09-.67 3-1.84 3.51-2M7.53 21.2c.15.05-.06.59-.12.75a2.63 2.63 0 0 0-.08 1.55c.08.28.27.81.57.81.15 0 .29-.16.36-.28s.27-.43.32-.34c.12.25-.48 1.3-.57 1.4-.59.71-1.13-.7-1.16-1.23s.28-2.5.68-2.66M25.88 24a4.7 4.7 0 0 1-.6-2.88 11.79 11.79 0 0 1 .24-1.27c.08-.34.29-1.15.16-1.24l-.31-.29c-.11-.11-.23-.23-.43-.05l-.06.12-.06.16a1.86 1.86 0 0 1-.23.32 2.46 2.46 0 0 1-2.16.73 2.8 2.8 0 0 1-1-.5 1.79 1.79 0 0 1-.27-.28c-.08-.09-.34-.39-.38-.34a4.26 4.26 0 0 1-1.21 1.06 5.39 5.39 0 0 1-2 .57 3.9 3.9 0 0 1-1.8-.22 2.61 2.61 0 0 1-1.08-.74 7 7 0 0 0-.79-.86 2.31 2.31 0 0 0-.45.22l-.26.16-.28.15c-.34.18-.73.39-1 .52-.69.29-1.42.59-2.14.87a10.6 10.6 0 0 1-6.14.65A4.62 4.62 0 0 1 .6 19a5.64 5.64 0 0 1-.6-1.72A5.18 5.18 0 0 1 .32 15c.08-.23.16-.45.26-.67l.12-.26c.18-.38.18-.38.18-.41s-.08-.15-.15-.23a2 2 0 0 1-.23-.27 2.28 2.28 0 0 1-.38-.93 7.14 7.14 0 0 1 .72-4.11c.21-.27.16.31.1.45s-.2.47-.22.55c-.11.52-.36 1.66-.36 1.66-.09.61.45 1.88 1 1.75.11 0 .29-.31.33-.42s.22-.57.26-.49c.26.44-.51 1.68-.73 2a4.68 4.68 0 0 0-.54 2.23l.08.36v.16c0 .14.07.26.12.39a3 3 0 0 0 .42.8 4.3 4.3 0 0 0 3.1 1.68 8.15 8.15 0 0 0 2.51 0 19 19 0 0 0 6.38-2.34c.09-.07-.11-.69-.15-.81a4.17 4.17 0 0 1-.2-1.42 5.47 5.47 0 0 1 .5-2.24 2.53 2.53 0 0 1 .95-1.07.89.89 0 0 1 .84.06 3.53 3.53 0 0 1 1.29 2.65 6.14 6.14 0 0 1-.34 2 3.13 3.13 0 0 1-.52.69l-.53.58c-.08.18.8.74 1 .79a7.25 7.25 0 0 0 1.57.2 4.49 4.49 0 0 0 2-.61 8.86 8.86 0 0 0 1-1c.2-.29.79-1.12 1-1.09s-.09.75-.13.89a1.09 1.09 0 0 0 .11.86 1.66 1.66 0 0 0 .91.62 1.86 1.86 0 0 0 1.24 0 1.79 1.79 0 0 0 1-1 7.18 7.18 0 0 1 .74-1.58c.2-.12.14.19.12.32s-.18.89.12 1.08a2.88 2.88 0 0 0 .27.22 2.11 2.11 0 0 0 .78.38 1.39 1.39 0 0 0 1-.17c.13-.09-.08-.62-.13-.76s-.33-.77-.22-.87a1.64 1.64 0 0 0 .07-.28l.08-.32c.07-.19.18-.53.32-.53s.3.6.38.81a4.63 4.63 0 0 1 .14.48c0 .16.11.49.12.51a3 3 0 0 1-.72 2.57 3.85 3.85 0 0 1-.57.22l-.59.05a2.39 2.39 0 0 0-.51 0 2.28 2.28 0 0 0-.24.65 9 9 0 0 0-.12 1.22v.67s.1.26.1.28a2.43 2.43 0 0 0 .33.57 5.07 5.07 0 0 0 .83.76s.35.08.52.12a3.26 3.26 0 0 0 1.27.08 5.7 5.7 0 0 0 2.35-.81 15.71 15.71 0 0 0 2.51-1.86 4.06 4.06 0 0 1 .49-.44 3.45 3.45 0 0 0 .55-.53c.19-.21.54-.62.56-.65s.51-.87.16-.87a4 4 0 0 0-.89.13 5 5 0 0 1-1.75.16c-.33-.08-1-.31-1-.6l-.16-.23a.88.88 0 0 1-.09-.3 5 5 0 0 1-.13-.91A3.37 3.37 0 0 1 32.1 15a3.39 3.39 0 0 1 1-.79 1.36 1.36 0 0 1 1 .06 4.7 4.7 0 0 1 1.76 2c0 .1.68-.21.73-.24a3.83 3.83 0 0 0 .73-.48c.3-.25-.37-1.24-.59-1.58a18.94 18.94 0 0 1-1.61-3.36c0-.23.13-1.3.31-1.36a10.55 10.55 0 0 1 2.31 2.57c0 .11-.3 0-.33 0a.93.93 0 0 0-.53-.1c-.14 0 .66 1.21.69 1.25a5.77 5.77 0 0 1 .57 1.35 5.27 5.27 0 0 1 0 1.9 2.52 2.52 0 0 1-.71 1c-.14.1-.45.32-.48.33-.22.15-.54.36-.56.46v.72l-.16.79a6.88 6.88 0 0 1-.26.75A6.41 6.41 0 0 1 34 22.39l-3.12 2.16a6 6 0 0 1-2.19.63 2.87 2.87 0 0 1-1.85-.38 5.72 5.72 0 0 1-.55-.37 2.1 2.1 0 0 1-.28-.25ZM70 20.82a1.27 1.27 0 0 1 .88-.05 1.58 1.58 0 0 1 .28.15.92.92 0 0 0 .52.18 1.44 1.44 0 0 0 1-.48 2.39 2.39 0 0 0 .23-.37c.07-.14.24-.45.33-.38V20s0 .43.2.48l.17.06a.63.63 0 0 0 .5 0 2.94 2.94 0 0 0 .28-.8c0-.15.23-.61.35-.56s-.11 1.16-.15 1.28a1.77 1.77 0 0 1-.56.91.74.74 0 0 1-.53.18 1.51 1.51 0 0 1-.48-.14 1.11 1.11 0 0 0-.24-.1 2.18 2.18 0 0 0-.45.33 1.57 1.57 0 0 1-.59.3 1 1 0 0 1-.83-.12 1.18 1.18 0 0 0-.88-.19 3.87 3.87 0 0 0-1.32.7l-1.1.78c-.43.26-2.28 1.39-2.67 1.15-.06 0 .58-.43.6-.43l.73-.48c.15-.09.83-.58 1.24-.87.78-.57 2.35-1.64 2.52-1.69m-34 2.38a6.36 6.36 0 0 1 .67-1.3c.1-.16.59.14.71.21l.35.24a4.6 4.6 0 0 0 .4.24c.32 0 .43-.16.54-.4s.31-.66.5-.73 1.58 1 1.53 1.4a6.65 6.65 0 0 1-.59 1.17c-.14.17-.73-.34-.82-.43s-.6-.53-.8-.46c0 0-.33.46-.41.58s-.32.53-.4.54a3.54 3.54 0 0 1-1.65-1M44.55 20c-.46-.38-.34-1.83-.29-2.54a4.65 4.65 0 0 1 .34-1.27 3.36 3.36 0 0 1 .2-.43 2.65 2.65 0 0 0 .25-.6c0-.07-.46-.42-.59-.51s-.45-.36-.66-.55a6.73 6.73 0 0 1-.6-.59 2 2 0 0 0-.29-.29 3.42 3.42 0 0 1-.42-.34 3 3 0 0 1 0-1.67s.35.13.47.19l.52.18h.12a14.75 14.75 0 0 1 1.44.56c.09.05-.14.34-.14.34l-.27.05-.15.07c-.22.17 1.23 1.1 1.54 1a2.2 2.2 0 0 0 .32-.4l.08-.14.32-.43.24-.34.32-.46.23-.31c.12-.16.23-.33.32-.46s.55-.82.67-.74-.12.84-.17 1a3.3 3.3 0 0 1-.43 1.08c-.29.44-1 1.56-1 1.61s.44.35.58.44a5.14 5.14 0 0 1 .67.48 2.68 2.68 0 0 1 .83 1.52 5.15 5.15 0 0 1-.26 1.9 5.65 5.65 0 0 1-2.9 2 1.92 1.92 0 0 1-1.29-.35m3.69-2.94-.09-.06-.07-.13-.22-.18a6.5 6.5 0 0 0-.63-.4 7.67 7.67 0 0 0-1.31-.61c-.28 0-1 1.57-1.14 1.92a1.09 1.09 0 0 0 .21.92c.15.26.64.21.88.17.52-.1 2.43-1.18 2.37-1.57m-13.76-.41c-.06-.23-.77-.65-1-.72-.47-.11-1.3.41-.77.74.27.17 1.77.36 1.79 0M4.76 12.27c.45-.13 1.36.75 1.65 1a4.28 4.28 0 0 1 .5.61c.11.16.53.78.61.73a8.8 8.8 0 0 0 0-1.09 4.88 4.88 0 0 1 .09-1.19c.1-.39.29-1 .53-1.11a.58.58 0 0 1 .63.09c.26.24.83 1.25.35 1.55-.09.06-.41-.29-.51-.4s-.82-.44-.71-.11-.05 4.82-.41 4.06a8 8 0 0 0-1.44-2.23c-.19-.19-.3-.3-.55-.23a1.08 1.08 0 0 1-.75-.26c-.2-.2-.45-1.4 0-1.46m57.6 3.91c.06-.17-.61-.67-.8-.72-.78-.2-1.36-.18-1.72.45-.44.8 2.18.38 2.52.27m-46.43-1.3c0-.44-1-2.06-1.53-1.74-1.11.65-.77 2.08-.09 3 .16.24 1.62-1.1 1.62-1.3M24.4 12c-.16-.59.15-3.37.65-3.69s0 .71 0 .82a4 4 0 0 0-.3 1.09 2.06 2.06 0 0 0 .4 1.6c.47.41.79-.19.81-.69h.16v.2A3.75 3.75 0 0 1 26 12a2.28 2.28 0 0 1-.25.66c-.64.73-1.15 0-1.35-.66m47.76-2.32a3.41 3.41 0 0 1 .12-1.9c.09-.28.5-1.48.67-1.34s-.2.75-.25.84a4.73 4.73 0 0 0-.26 1.14 1.67 1.67 0 0 0 .48 1.14c.31.12.48-.1.58-.3s.22-.45.27-.37c.26.32-.49 1.55-.71 1.64-.51.19-.77-.47-.9-.85M58.07 8.13A9.43 9.43 0 0 1 58.83 6c.12-.08-.24.92-.24.92a3.13 3.13 0 0 0-.16 1.39c.08.38.54 1.53 1 1.15a.62.62 0 0 0 .23-.46c.05-.2.13-.54.28-.46.43.23-.49 1.94-.83 2s-.65-.41-.78-.6a2.78 2.78 0 0 1-.26-1.8M12.74 9.3a3.94 3.94 0 0 1 .55-1.3c.15-.15 1.47.87 1.52 1s-.66 1.58-1.11 1.23l-.32-.24-.13-.08c-.17-.14-.52-.43-.51-.53M25.11 4.5l-.27-.17a4.25 4.25 0 0 1-.35-.27 2.1 2.1 0 0 1-.49-.48c-.14-.28.08-1 .2-1.35a1.88 1.88 0 0 1 .8-.83.57.57 0 0 1 .65.09 1.88 1.88 0 0 1 .31.7 5.48 5.48 0 0 1 0 .74 3.43 3.43 0 0 0 0 .83 1 1 0 0 0 .27.17 1.6 1.6 0 0 1 .37.25 3.19 3.19 0 0 1 .26.26l.28.34c.16.16 0 .66-.05.86s-.45-.28-.56-.36a2.09 2.09 0 0 0-.8-.41 13.29 13.29 0 0 0-1.16 1.31 5 5 0 0 1-1.18 1.13l-1 .79c-.23.19-.75.53-1.12.79a10.19 10.19 0 0 1-2.66 1.4c-.27.05 1.61-1.45 1.61-1.45.42-.34 1.72-1.35 1.72-1.35.55-.39 3.19-2.54 3-3M43.39 9c-.08-.23.49-1.2.65-1.32s.67.25.8.33a3.18 3.18 0 0 0 .8.45c.09 0 .37-.55.43-.68a1.24 1.24 0 0 1 .44-.54c.15-.11 1.3.84 1.4 1 .45.51-.43 1.73-.68 1.64 0 0-.41-.29-.55-.41L46.17 9c-.36-.22-.36-.22-.57.18a3.88 3.88 0 0 0-.22.46 2.08 2.08 0 0 1-.23.42c-.22.33-1.69-.86-1.76-1.1m-39.11.38c-.44-.58.31-2 .75-2.32 1.46-1 11.18-5.85 12.12-5.67.21 0-.2.86-.2.86s-3.09 1.35-3.67 1.57c-.27.1-1.23.54-1.83.83l-1.72.79c-.27.12-2.06 1-3.34 1.64A6.48 6.48 0 0 0 4.91 8c-.22.19-.47.44-.18.69s.73.65.69.84v.16c0 .06-.07.19-.14.21-.33.12-.87-.37-1-.59m29.1-6c-.08-.88.14-2.12 1.21-2.28.38-.05.52.4.6.7a3.93 3.93 0 0 1 .12 1.05c0 .19 0 .81.07.82s.71.73.76 1-.13.63-.27.63a2.42 2.42 0 0 1-.32-.23 1.74 1.74 0 0 0-.36-.3c-.26-.15-.35 0-.46.2a3.83 3.83 0 0 1-.33.46A6.68 6.68 0 0 1 33 6.75l-.23.25-.2.16a.66.66 0 0 0-.22.16L32 7.5l-1.21.79c-.41.27-2.26 1.36-2.66 1.21-.11 0 .19-.32.25-.34h.24l.09-.16a8.21 8.21 0 0 1 1.07-.67c.43-.25 1.37-1 2-1.5a21.6 21.6 0 0 0 1.77-1.51c.27-.31.82-.94.76-1.09l-.48-.33a1.3 1.3 0 0 1-.48-.48m38.78.08-.54-.5a1.87 1.87 0 0 1-.44-.49c-.44-.81.64-3.21 1.6-2.25a1.76 1.76 0 0 1 .25.63c0 .07 0 .32.08 1 0 .34 0 .83.06.87l.19.16a2.37 2.37 0 0 1 .32.29c.12.14.33 1 0 1a2 2 0 0 1-.53-.3.58.58 0 0 0-.66-.09l-.24.31a1.68 1.68 0 0 1-.17.23 8 8 0 0 1-.6.56 2.32 2.32 0 0 0-.35.33l-.1.2-.83.66-.17.14-.57.42c-.2.14-.84.54-1.26.79a7.22 7.22 0 0 1-1.31.63c-.21.08-1.41.53-1.37.4s.57-.48.71-.56c.35-.19.73-.41 1.06-.63l.36-.24.25-.16.24-.17.24-.14a1.5 1.5 0 0 0 .23-.17l.42-.31c.58-.38 1.15-.77 1.68-1.19.2-.16.54-.45.8-.68s.72-.66.7-.78m-27.65.21a1.5 1.5 0 0 1-.61-1.79 2.29 2.29 0 0 1 .41-.88c.1-.12.91-.76 1-.3.08.3.29 1 .29 1V2.59c0 .17 0 .61.09.63a2.73 2.73 0 0 1 .87.79c.06.11.07.8-.16.84a1.73 1.73 0 0 1-.21-.17 2.35 2.35 0 0 0-.32-.23 4 4 0 0 0-.72-.38c-.1 0-.45.43-.57.57s-.31.37-.48.55-.42.45-.53.54l-.36.27-.23.21-.22.15c-.13.13-1.56.86-2.2 1.18-.29.15-1.2.57-.5-.09a2.19 2.19 0 0 1 .44-.35l.68-.39c.6-.44 1.46-1.07 1.86-1.4S44.68 4 44.51 3.67m4.72 2C50.09 5 57.36.58 57.55.59s-.16.84-.2.9-1.82 1.18-2.16 1.38L54 3.58c-.19.11-.42.25-.75.47a3.75 3.75 0 0 1-.36.24l-.14.08-.16.08-.26.16-.58.39c-.36.24-.78.51-1.1.7l-.27.16a1.18 1.18 0 0 1-.25.15l-.25.16-.14.09-.2.15a2.18 2.18 0 0 1-.46.25c-.09-.09 0-.94.15-1M18.87 5.4a6.06 6.06 0 0 1 .5-3.6c.19-.32 0 .87-.06 1a3.11 3.11 0 0 0-.12 1.54 1.59 1.59 0 0 0 .59 1c.17.15.4-.21.44-.33s.16-.45.23-.38c.3.27-.32 1.52-.49 1.61a.82.82 0 0 1-1.09-.75m41.79-2.82a1.43 1.43 0 0 1 .11-1c.3-.48 1.67.75 1.89 1a9.87 9.87 0 0 1 .74.84l.3.44c.09.13.28.43.34.41a4.71 4.71 0 0 0 0-.74v-.89a4.41 4.41 0 0 1 .14-1.41c.3-.58.93-1.84 1.73-1.08a1.06 1.06 0 0 1 .17 1.33c-.11.14-.36-.09-.43-.16a1 1 0 0 0-.59-.41.74.74 0 0 0-.48.38 14 14 0 0 0-.06 1.74 12.13 12.13 0 0 1 0 1.23 7.46 7.46 0 0 1-.3 1.74c-.06.16-.36-.51-.36-.51a3.71 3.71 0 0 0-.4-.67c-.22-.28-.68-.9-.72-.95a2.28 2.28 0 0 0-.36-.39 1.53 1.53 0 0 0-.23-.15H61.73c-.36-.12-.91-.42-1-.77m-56.72-1a7.32 7.32 0 0 0-.39 2.13 1.28 1.28 0 0 0 .65 1c.16.07.32-.1.4-.24a3.43 3.43 0 0 1 .3-.48c.13.23-.36 1.42-.46 1.55s-.57.31-.57.1l-.24-.15s-.12-.17-.14-.21a1.3 1.3 0 0 1-.26-.57 5.17 5.17 0 0 1 .16-2c0-.28.33-1.32.55-1.14m20.63 1c-.12.35.71.72 1 .79s-.13-1-.22-1c-.24-.21-.57.07-.75.23m10.34.37c-.1-.69-.35-1.3-1-.68-.24.22.17.48.31.56s.73.46.68.12M44.26 2c-.06.42.86 1 .92.8a1.48 1.48 0 0 0-.11-1c-.18-.27-.79-.08-.81.23m28.21-.78c-.24-.29-1-.08-1 .31s.59.71.94.87c.7.33.21-.88 0-1.18" data-name="Layer 1" style="fill:#221e1f;fill-rule:evenodd"/></g></svg>