<svg viewBox="0 0 74.34 27.36" xmlns="http://www.w3.org/2000/svg"><path d="m14.74 24.17a8.91 8.91 0 0 1 .42-1.71 4.46 4.46 0 0 1 .28-.75 2.6 2.6 0 0 0 .32-.95s-.84 0-.84 0a3.91 3.91 0 0 1 -1.28-.2 4.82 4.82 0 0 1 -1-.44 2.8 2.8 0 0 1 -.35-.25l-.29-.21a5.7 5.7 0 0 1 -1.1-1.83 7.69 7.69 0 0 1 -.34-1 3.66 3.66 0 0 0 -.39-1 6.84 6.84 0 0 0 -.32.81 3.82 3.82 0 0 1 -.51.86c-1.13 1.58-3.41 2.93-5.34 4.1a1.81 1.81 0 0 1 -.52.2 11 11 0 0 1 -1.11.12h-.32a1.26 1.26 0 0 1 -.36-.1 3.74 3.74 0 0 1 -.54-.33 2.09 2.09 0 0 1 -.83-1.14c-.06-.19-.11-.38-.16-.59l-.08-.4-.08-.36v-.2-.32a8.6 8.6 0 0 1 .55-2.63c.12-.34.25-.64.38-.95a3 3 0 0 0 .36-1.1l-.15-.1-.1-.12a.8.8 0 0 1 -.15-.18 2.59 2.59 0 0 1 -.29-.52 4.73 4.73 0 0 1 -.24-2 12.63 12.63 0 0 1 1.46-4.36c.17-.24.07.55 0 .69s-.1.26-.14.39l-.14.4a12.29 12.29 0 0 0 -.54 1.9 4 4 0 0 0 .2 1.86c.13.27.64 1.11 1 .78a1.45 1.45 0 0 0 .31-.62c.06-.23.18-.63.3-.65s0 .76 0 .93-.17.5-.24.75a2.07 2.07 0 0 1 -.43.82.74.74 0 0 1 -.31.19.46.46 0 0 0 -.34.29 7 7 0 0 0 -.8 4.6 2.09 2.09 0 0 0 .84 1.07 1.88 1.88 0 0 0 1.17.3c1.58 0 4.73-2.55 5.67-3.48a5.86 5.86 0 0 0 1.34-1.69c.2-.65-.48-2.79-.85-4-.1-.31-.22-.68-.36-1.07l-.06-.15-.06-.16-.1-.28-.1-.2c-.13-.37-.31-.81-.47-1.23a6.28 6.28 0 0 1 -.48-1.42 3.7 3.7 0 0 1 .31-1.28s.66 1.06.7 1.12a9.94 9.94 0 0 1 .66 1.35c.35.8.66 1.63 1 2.49.13.39.27.83.36 1.23l.16.79a8.44 8.44 0 0 0 .2.87c.05.19.11.48.16.72v.19.2.2l.08.4c.06.22.13.46.2.67s.07.21.1.28a3.65 3.65 0 0 1 .14.35 4.9 4.9 0 0 0 .66 1.29c.06.09.93 1.1.89.7l-.12-.36a2.17 2.17 0 0 0 -.1-.28l-.08-.2-.06-.16a5.88 5.88 0 0 1 -.27-1.42 3.77 3.77 0 0 1 .26-1.86 3.48 3.48 0 0 1 1-1.49l.24-.19a4.54 4.54 0 0 1 .53-.3 6.22 6.22 0 0 1 1.17-.41 5.75 5.75 0 0 1 3.31.29c.24.14 1.17.74 1.15 1s-.4 0-.48-.07a2.58 2.58 0 0 0 -.75-.19 8.38 8.38 0 0 0 -2.59.27c-.72.18-2.79.86-3 1.29-.37.81 1.06 3.66 1.44 3.89l.28.29a1.57 1.57 0 0 0 .21.17 3 3 0 0 0 .77.44 1.87 1.87 0 0 0 .88.06l.24-.06h.2a9.92 9.92 0 0 0 2.67-1.32c.21-.13.4-.26.59-.4l.5-.43a5 5 0 0 0 .49-.43 6.22 6.22 0 0 1 .62-.58c.19 0-.42 1.55-.54 1.71a8.23 8.23 0 0 1 -2.42 2.09c-.3.16-.87.46-1 .49a12.59 12.59 0 0 0 -1.76.81 7.4 7.4 0 0 0 -1.17 2.91 2.32 2.32 0 0 0 .37 1.33 1.36 1.36 0 0 0 .84.67c1.37.47 3.2-1.08 4.15-1.89s1.93-1.64 2.8-2.28a14.62 14.62 0 0 1 4.48-1.86c.71-.21 1.45-.44 2.15-.69.31-.11.7-.31 1-.47a5.64 5.64 0 0 0 .69-.44l.16-.2a2.82 2.82 0 0 0 0-.79c0-.39-.07-.84-.12-1.25s-.21-1.32-.32-2c-.21-1.28-.47-2.87-.63-4-.2-1.37-.39-2.68-.59-4-.04-.8-.19-1.54-.28-2.41-.05-.46-.12-1.1-.16-1.27a1.21 1.21 0 0 1 0-.75l.08-.32.08-.28a3.58 3.58 0 0 1 .24-.77c.09-.12.7 1.3.73 1.36a16 16 0 0 0 .69 1.48 4.69 4.69 0 0 1 .5 1.37c0 .47-.37.19-.51 0s-.4-.53-.56-.51 0 .47 0 .57v.32l.08.51.24 1.47c0 .26.08.52.12.79s.07.47.12.71.09.49.12.72.09.67.12.79a46.84 46.84 0 0 1 .86 6.22v1a4 4 0 0 1 0 .48 3.25 3.25 0 0 1 -.18 1c-.78 1.72-2.33 2.46-4.33 2.91a12.59 12.59 0 0 0 -5.15 2.28c-.59.48-1.46 1.19-1.74 1.49a11.2 11.2 0 0 1 -1.9 1.67 2.57 2.57 0 0 1 -3 .39 2.93 2.93 0 0 1 -1.47-2.85m37.9-9.87a5.36 5.36 0 0 1 -.51 3.51l-.13.19a2.65 2.65 0 0 1 -.38.37l-.8.76a2.58 2.58 0 0 0 -.65 3 2.76 2.76 0 0 0 .92 1.27 2.89 2.89 0 0 0 .83.45l.36.12.4.06a2 2 0 0 0 .32-.03c.33 0 .52 0 .81-.08a3.91 3.91 0 0 0 .88-.21 21.48 21.48 0 0 0 3.78-2.3 12.06 12.06 0 0 0 2.73-2.85c.06-.2-.13-.46-.23-.56s-.34 0-.43.07a3.15 3.15 0 0 1 -.67.15 13.54 13.54 0 0 1 -1.7.2c-2.68.08-2.09-3.28-.72-4.41a2 2 0 0 1 2.57.24 3.93 3.93 0 0 1 .73.74c.1.13.28.35.31.4s.31.53.44.5a7.68 7.68 0 0 0 2.3-1.41 3.62 3.62 0 0 1 1-.65c.29 0 .29.32.29.66a2.67 2.67 0 0 0 .14 1.07 4.29 4.29 0 0 0 1 .87 3 3 0 0 0 1.6.14 3.64 3.64 0 0 0 1.67-1l.24-.34c.11-.18.31-.53.34-.59.2-.41.65-1.3 1-1.28s-.21.83-.21.83a.91.91 0 0 0 -.16.8c.22.48 2.56 1.48 2.83.77.09-.22-.08-.53-.17-.7a1.87 1.87 0 0 0 -.17-.23.67.67 0 0 1 -.17-.31 3.58 3.58 0 0 1 .45-1.52c.19-.09.54.77.61 1a3.72 3.72 0 0 1 .2 1.9 2.81 2.81 0 0 1 -.71 1.52 2.18 2.18 0 0 1 -2.18.1c-.29-.18-.79-.52-.79-.52a4.12 4.12 0 0 1 -.28-.31c-.1-.12-.31-.38-.36-.36a2 2 0 0 0 -.24.36c-.07.12-.25.39-.25.39a2.75 2.75 0 0 1 -.57.56 4.4 4.4 0 0 1 -1.49.65 2.84 2.84 0 0 1 -1.59-.18 2.72 2.72 0 0 1 -1-.83 3.35 3.35 0 0 1 -.28-.64l-.08-.35s-.09-.56-.13-.46-2.17 1.62-2.34 1.72c0 0-.06.58-.07.6-.06.76-.07.85-.07.91a2.66 2.66 0 0 1 -.22.69 7.88 7.88 0 0 1 -1 1.4l-.12.1-.16.17-.26.3a2.44 2.44 0 0 0 -.27.29 20.64 20.64 0 0 1 -3 2.47 6.33 6.33 0 0 1 -2.27 1.05 5.34 5.34 0 0 1 -2.15.19 8.32 8.32 0 0 1 -1-.29l-.34-.16-.07-.09-.21-.18a4 4 0 0 1 -1-1.32l-.06-.16-.06-.16-.08-.23a5.12 5.12 0 0 1 -.16-1 6.31 6.31 0 0 1 .05-1c0-.23.07-.88.07-.9s-.54.23-.59.26a3.75 3.75 0 0 1 -.36.24l-.38.24c-.49.32-1 .65-1.51.95-1.08.61-2.2 1.21-3.35 1.77a36.84 36.84 0 0 1 -7 1.52c-.33 0 1.19-.71 1.29-.75l.76-.29c.25-.11.52-.21.79-.3a14.52 14.52 0 0 0 3-1.28c1-.62 2.11-1.17 3.15-1.69a15.8 15.8 0 0 0 3-1.81c.08-.1 1.44-1 2.13-1.54.28-.2 1.86-1.5 1.62-1.85 0-.07-.54-1.08-.74-1.5 0-.08-.54-1-.83-1.49a3.61 3.61 0 0 1 -.3-.73c-.1-.31-.22-.61-.34-.91a2.19 2.19 0 0 1 -.32-1.07c0-.2.19-1.13.34-1.09a1.31 1.31 0 0 1 .29.33c.07.09.27.3.52.55a2 2 0 0 0 .29.25 4.35 4.35 0 0 1 .55.5s.64.73.42.79a.59.59 0 0 1 -.24 0c-.13 0-.58-.17-.61 0a1.11 1.11 0 0 0 .15.46v.4a1.21 1.21 0 0 1 .32.27c.05 0 .05 0 .17.24a10 10 0 0 1 .85 1.63m-48.7 10.05c1.18-.58 3.08-1.53 3.71-1.78l1.91-.81a11.75 11.75 0 0 1 2.26-.85c.16 0-.05.8-.13.9l-.53.2-.14.06-.2.08-.12.06-1 .44-.43.17-.2.08-.2.08-.16.06-.18.06c-.32.13-.72.32-1.06.47s-.75.36-1 .46-.74.31-1.2.55l-.25.06-.27.14-.16.06-.1.13h-.16c-.77.38-.7-.06-.39-.65m26-.6a4.82 4.82 0 0 1 .55-2.75c.21-.22.05.38 0 .45a1.69 1.69 0 0 0 -.08.45v1.09.12a1 1 0 0 0 .14.3.53.53 0 0 0 .18.21s.17.14.17.16.4-.21.4-.21a2.74 2.74 0 0 1 .32-.54c.28.07-.36 1.69-.75 1.8s-.9-.71-1-1m37.57-2.53a1 1 0 0 1 .85 0 3.83 3.83 0 0 0 .9.34 1.45 1.45 0 0 0 .86-.46 2 2 0 0 0 .23-.34c.07-.14.24-.44.36-.25 0 0 0 .52.16.48l.26.1a.57.57 0 0 0 .51 0 3 3 0 0 0 .18-.63c0-.19.21-.61.36-.66s-.09 1.12-.09 1.17a2.6 2.6 0 0 1 -.57.92 2.85 2.85 0 0 1 -.75.17s-.27-.11-.28-.11l-.23-.13a2.21 2.21 0 0 0 -.54.37 2.23 2.23 0 0 1 -.67.26 1 1 0 0 1 -.74-.18 1.11 1.11 0 0 0 -.77-.22 15.33 15.33 0 0 0 -2.45 1.37c-.39.23-1 .62-1.18.69a6.09 6.09 0 0 1 -.88.31c-.14 0-.73.19-.75.1a9.33 9.33 0 0 1 1.45-.91l.36-.23.35-.25.33-.23c.86-.57 2.55-1.63 2.73-1.68m-32.93-19.61a4.75 4.75 0 0 1 .52-1.43c.08 0 .42.94.47 1.07s.44 1 .66 1.55c.1.22.21.46.32.67a2.46 2.46 0 0 1 .18.44l.05.16c.08.17.43 1.33 0 1.15a4.09 4.09 0 0 1 -.7-.73c-.42-.5-.17.86-.11 1.16l.55 3.64c.23 1.26.39 2.47.55 3.81l.12 1v.27.2l.08.48c.07.46.11.91.16 1.38v.4.49c0 .4.06.38.06.38v.16.24a2.31 2.31 0 0 1 0 .53v.38a8.36 8.36 0 0 1 -.12 1c-.08.34-.38 1.38-.62 1.48s-.12-.76-.1-.91a5.47 5.47 0 0 0 0-.81c-.08-1-.22-2.77-.28-3.25s-.23-1.62-.35-2.42c-.08-.51-.21-1.44-.32-2.17-.25-1.76-.56-3.92-.71-5.15 0-.41-.12-1-.16-1.31v-.51-.28-.24l-.06-.39c0-.49-.08-.86-.13-1.27a5.57 5.57 0 0 1 -.1-1.15m7.56 18.07a2.23 2.23 0 0 1 -.38-1.21 6.48 6.48 0 0 1 .36-2.18 7.61 7.61 0 0 1 .38-.87c.11-.22.28-.56.23-.67a2.08 2.08 0 0 0 -.3-.25 3.81 3.81 0 0 1 -.32-.24c-.1-.08-.21-.2-.32-.3l-.38-.34c-.13-.11-1.15-1.15-1.16-1.21a3.75 3.75 0 0 1 .09-1.64 3 3 0 0 1 .51.25c.14.08.58.24.85.34s1.24.44 1.26.65-.06.15-.18.18h-.18c-.23 0-.23 0-.29.07-.26.16 1.21 1.11 1.5 1.06a2.7 2.7 0 0 0 .25-.31l.16-.24.16-.19.63-.82c.11-.15.21-.29.33-.43a2.67 2.67 0 0 0 .3-.41 3.69 3.69 0 0 1 .68-.83c.38-.14-.36 1.8-.44 1.9a18.63 18.63 0 0 0 -1.17 1.81c0 .08.41.34.55.43a4 4 0 0 1 .64.52 2.47 2.47 0 0 1 .79 1.52 4.25 4.25 0 0 1 -.38 1.9c-.18.47-1.19 1.07-1.71 1.37a2 2 0 0 1 -2.46.1m3.71-2.74c0-.45-1.87-1.4-2.27-1.53-.21-.07-1 1.49-1.14 1.72-.43 1.19.55 1.53 1.52 1.15.33-.13 2-1.06 1.89-1.34m14.17-.57c-.19-.75-2.4-1.34-2.55-.26-.1.73 2.48.53 2.55.26m-35.35-4.66a4.7 4.7 0 0 1 0 .88 2.65 2.65 0 0 0 0 1.31.64.64 0 0 0 .53.45 1.07 1.07 0 0 0 .83-.3 2.26 2.26 0 0 0 .39-1.66c0-.2-.12-1.57.23-1.17a2.1 2.1 0 0 1 .17.78 4.54 4.54 0 0 0 .21 1.31c.09.13 1.28 1.11 1.38.43a3.07 3.07 0 0 0 -.22-.59 5.24 5.24 0 0 1 -.18-.52c-.1-.36-.22-1.39.12-1.57.07 0 .18.39.2.46a2.91 2.91 0 0 0 .18.64s.62 1.38.42 1.38v.2.16.16.2c0 .17-.12.38-.28.43-.59.19-1.1.35-1.54-.15-.19-.21-.42-.47-.55-.17a2.87 2.87 0 0 1 -.61.77 1.13 1.13 0 0 1 -.91.16c-.3-.06-.48-.41-.57-.69-.19-.57-.08-3.06.43-2.9m-19.05 2.23c-.11-.5-.09-3.54.49-3.59 0 0-.11.71-.13.82a4.29 4.29 0 0 0 -.07 1.33c.23.68 1 2.31 1.17.47 0-.07.18.18.18.24a1.3 1.3 0 0 1 -.08.51 5.76 5.76 0 0 1 -.4 1.05c-.28.54-1.06-.71-1.11-.81m64.07-3.82a3.46 3.46 0 0 1 .26-2c.09-.23.49-1.24.62-1.19s-.2.76-.22.79a3.39 3.39 0 0 0 -.26.61c-.2.71 0 1.64.56 1.81.12 0 .29-.15.34-.24s.29-.51.33-.48-.24 1.77-1 1.67c-.34-.05-.61-.59-.66-.93m-13.75 0a6.05 6.05 0 0 1 -.33-1.26 4.33 4.33 0 0 1 .31-1.65c.08-.2.46-1.23.6-1.16s-.15.62-.18.69a5 5 0 0 0 -.26.87c-.16.82.09 1.84.78 2 .24 0 .33-.3.38-.5s.14-.55.27-.46-.31 1.55-.42 1.68c-.42.5-.74.21-1.15-.17m-30.19-4.9c.17-.11.07.65 0 .86a2.7 2.7 0 0 0 .14 1.42c.1.3.29.71.65.64.14 0 .21-.2.26-.32s.19-.48.23-.45-.12 2-.95 1.8c-1.16-.22-.59-3-.31-3.95m44.12-1.38s-.39-.34-.52-.45a1.49 1.49 0 0 1 -.48-.64 2.9 2.9 0 0 1 .26-1.51 1.35 1.35 0 0 1 .74-.81.63.63 0 0 1 .68.24 5.45 5.45 0 0 1 .37 2.28c0 .21.21.4.45.64a.91.91 0 0 1 .14 1c-.07.11-.38-.1-.48-.18a1.6 1.6 0 0 0 -.62-.32s-.2.19-.27.28a3.85 3.85 0 0 1 -.27.3c-.23.23-.46.46-1 .94l-.47.37a10.66 10.66 0 0 1 -1 .7l-.2.16-.26.16-.07.1-.14.08-.24.16-.22.14c-.21.11-.47.23-.64.33a6.68 6.68 0 0 1 -1.27.56c-.18.06-1.33.46-1.29.33a3 3 0 0 1 .77-.57l.52-.3a3.69 3.69 0 0 0 .51-.29c.23-.16 1.18-.73 1.79-1.11.88-.59 2.94-1.92 3.21-2.59m-53.91 3.27.25-.18.34-.23.64-.37.16-.06.2-.08.36-.2.21-.15a3.33 3.33 0 0 0 .46-.24c.51-.32 2-1 2.95-1.46l.16-.08.18-.05.16-.08.16-.09.18-.08.23-.14.18-.06.14-.08.16-.08.32-.16.47-.17.32-.16a4.09 4.09 0 0 1 .42-.2l.69-.32c.27-.13.55-.24.84-.35l.16-.06.16-.06.13-.08.28-.12a5.32 5.32 0 0 1 .94-.33c.45-.09.06 1.15-.36 1.26a5.36 5.36 0 0 0 -.6.24l-.83.38-2 .86c-.71.32-2.24 1.08-3.35 1.62l-1.55.8-1.71.89a8.18 8.18 0 0 0 -1.43.81c-.87.69-.17-1 0-1.14m26.29-3.83a1.24 1.24 0 0 0 -.2-.2c-.05 0-.05 0-.16-.2a2.24 2.24 0 0 1 -.34-.59 2.92 2.92 0 0 1 .47-1.58 2.35 2.35 0 0 1 .72-.54c.24 0 .37.1.52.27a2 2 0 0 1 .16 1c0 .32-.09 1.35-.08 1.36a5.65 5.65 0 0 1 .92.86 1.12 1.12 0 0 1 -.11.82 7.65 7.65 0 0 1 -1.19-.76c-.18-.16-.53.3-.6.39a3.41 3.41 0 0 1 -.58.62 2.13 2.13 0 0 0 -.26.26 2.47 2.47 0 0 1 -.28.28c-.13.11-.25.19-.38.29l-.31.28a12.39 12.39 0 0 1 -2.94 1.36c-.22 0 .43-.54.43-.54l.22-.13.15-.06.33-.19.69-.49c.23-.17.45-.32.7-.47s2.27-1.59 2.12-2m4.6 2.09c1.71-1.11 8.14-4.82 8.45-4.86s-.06.76-.08.8a4 4 0 0 1 -.56.4l-.13.09-.38.24a4.62 4.62 0 0 1 -.48.28c-.25.13-.49.27-.8.45l-.35.22-.67.36c-.18.08-.42.2-.5.25l-.14.08-.12.12-.35.23-.46.26c-.2.1-.66.36-.67.37-.38.25-.78.5-1.18.71s-.79.44-1.17.68l-.4.29c-.35 0-.17-.79 0-.94m11.59-2.6a1.52 1.52 0 0 1 .12-1.15c.17-.23 1.16.47 1.17.48a4.26 4.26 0 0 1 .81.67c.17.21.39.5.57.76s.6.81.63.8.1-1.23.1-1.38a7.76 7.76 0 0 1 .16-1.47c.07-.32 1.1-1.85 1.44-1.33l.15.07c.08 0 .08 0 .19.19a2.09 2.09 0 0 1 .27.44 1.43 1.43 0 0 1 -.11.93c-.07.19-.47-.25-.52-.3s-.33-.36-.6-.33a.59.59 0 0 0 -.46.49 7.09 7.09 0 0 0 0 1c0 .33 0 1.15-.08 1.65s-.2 1.91-.46 1.94-.15 0-.18-.2a1.69 1.69 0 0 0 -.14-.48l-.56-.78c-.15-.23-.4-.6-.48-.69l-.57-.6h-.34a1.62 1.62 0 0 1 -.5-.22c-.2-.12-.56-.35-.61-.55m-57.22-.49a1.64 1.64 0 0 1 .15-1.1c.22-.35 1.57.96 1.67 1.06a7.08 7.08 0 0 1 .79 1l.16.23c.13.2.28.43.4.44s0-.51.06-.55v-.52l.05-.4a3.17 3.17 0 0 1 .22-.87 3.91 3.91 0 0 1 .26-.59 1.75 1.75 0 0 1 .2-.34l.2-.21c0-.26.66.2.71.24a1.54 1.54 0 0 1 .33.43c.08.15 0 .5-.2 1 0 0-.74-.57-.74-.57-.51-.4-.61.88-.64 1.2-.06.84-.17 2-.24 2.3s-.21.85-.35.74v-.19l-.06-.2c0-.07-.12-.3-.15-.37s-.18-.34-.28-.5a5.17 5.17 0 0 0 -.67-.92 9.26 9.26 0 0 0 -.91-.59 4 4 0 0 1 -.91-.71m13.03.54c.32-.44-1.77-.36-2.07-.28a1 1 0 0 0 -.65.37c-.1.14-.33.47-.52.41s.34-.86.37-.92a3.67 3.67 0 0 1 .49-.68 1.67 1.67 0 0 1 .92-.41c.68-.16 3.48 0 2.74 1.05a4.74 4.74 0 0 1 -1.62 1.59c-.2.1-1.43.55-1.52.43s.69-.66.85-.78l.47-.33a6.31 6.31 0 0 0 .54-.45m55.92-1.24c-.2-.43-.9 0-1 .32s.55.63.8.79c.84.52.42-.88.18-1.11m-27.36-.29a.53.53 0 0 0 -.79.35c0 .2.51.73.69.77.46.11.22-.92.1-1.12m-.09 6.53a1.57 1.57 0 0 0 .49.26 4.94 4.94 0 0 0 .41-.61c.12-.25.28-.57.53-.62s1.18.92 1.41 1.15-.45 1.33-.67 1.5-.63-.36-.73-.46-.67-.6-.83-.56c0 0-.36.58-.39.65a2.11 2.11 0 0 1 -.36.59c-.24.14-1.53-.86-1.61-1.05s.48-1.45.78-1.47a2.42 2.42 0 0 1 .39.21s.51.35.58.41" fill="#221e1f" fill-rule="evenodd"/></svg>