<svg viewBox="0 0 87.04 27.18" xmlns="http://www.w3.org/2000/svg"><path d="m20.75 22.94a.31.31 0 0 1 -.15 0c-.28 0 0-.74.13-.82l1.18-.59c.53-.22 1.08-.47 1.6-.73.24-.12 1-.47 1.55-.69l.62-.28s.83-.37.68-.09a3.68 3.68 0 0 1 -.55.86c-.2.11-.4.21-.61.3l-.2.1-.18.08-.14.06a1.89 1.89 0 0 0 -.32.14l-.34.15-.43.2a5.44 5.44 0 0 1 -.5.22l-.4.18-.84.36-.29.15-.31.14m62-14.21a2.56 2.56 0 0 0 .27-.79c-.14-.06-.42.54-.49.69v.1l-.42 1.09a2.57 2.57 0 0 0 .51 2.21c.45.23.74-.26.87-.51 0 0 .5-1.14.28-1.15s-.17.08-.22.24a.54.54 0 0 1 -.14.27c-.12.17-.31.32-.53.16s-.32-.6-.38-1v-.24zm-27.41-6.61c-.14-.39-.74.11-.79.3s.38.58.52.67c.66.47.4-.66.27-1m27.44.63c-.42-.27-.89-.24-1 .32-.06.23.79.72 1 .86.48.28.2-.94 0-1.18m-46.58 1.24c-.35-.62.34-3.58.74-3.58a16 16 0 0 1 -.34 1.57 1.89 1.89 0 0 0 .26 1.65.33.33 0 0 0 .51 0c.05-.07.05-.07.16-.38 0-.09.1-.26.18-.26.37 0-.39 1.62-.58 1.71-.48.24-.84-.34-.93-.7m-15.46-.44c0-.19 0-1.19.2-1.21a1.6 1.6 0 0 1 1.07.38 4.42 4.42 0 0 1 1.15 1.21l.09.13.15.2.24.4c.05.08.43.75.46.47.08-.85.28-2.59.32-2.69.12-.35.7-1.72 1.27-1a1.91 1.91 0 0 1 .48 1c0 .17-.32.38-.6.2l-.13-.09c-.1-.08-.66-.34-.72-.06a13.07 13.07 0 0 0 -.22 1.85 12.81 12.81 0 0 1 -.41 2.56c0 .17-.57-1-.61-1a5 5 0 0 0 -.72-1.12c-.09-.11-.32-.39-.32-.41 0-.18 0-.18-.39-.12 0 0-.45-.17-.72-.27a2.19 2.19 0 0 1 -.43-.25 1.8 1.8 0 0 0 -.16-.15m47.08-2.09c.27 0-.12.84-.16.9s-1.77 1.07-2.16 1.26a20 20 0 0 0 -2.17 1.21c-.57.38-4.13 2.34-4.21 2.32-.44-.12.42-1.07.53-1.14l.52-.31.26-.16.42-.24c.8-.49 1.62-.94 2.46-1.38s1.42-.79 2.11-1.19a21.49 21.49 0 0 1 2.39-1.27m3.05 2.14a1.6 1.6 0 0 1 .18-1c.34-.46 1.84 1.07 1.92 1.16s.42.53.63.81a4.32 4.32 0 0 1 .27.42c.08.14.24.44.33.43s.08-1.13.09-1.24c0-.36.06-1.19.08-1.3a3.5 3.5 0 0 1 .54-1.19c.52-.81 1.4-.69 1.65.27a1.24 1.24 0 0 1 -.18.92c-.09.11-.43-.3-.45-.33a.73.73 0 0 0 -.62-.3c-.19 0-.38.27-.47.42s-.06.72-.06.75v.34a12.11 12.11 0 0 1 -.16 2.07v.2.36.28c0 .12-.14.58-.21.6s-.26-.21-.31-.41a1.54 1.54 0 0 0 -.26-.53 13 13 0 0 0 -1.33-1.63c-.15-.15-.16-.16-.41-.17a1.25 1.25 0 0 1 -.59-.22 1 1 0 0 1 -.63-.71m-16.37.25-.19-.23a1.84 1.84 0 0 1 -.28-.54 3 3 0 0 1 .47-1.59c.22-.31.88-.79 1.22-.31a1.69 1.69 0 0 1 .22 1.07l-.08.68c0 .24-.08.65 0 .7a3.12 3.12 0 0 1 .87.82 1.13 1.13 0 0 1 -.1.83s-.75-.47-.9-.57c-.45-.3-.71 0-1 .39a6.61 6.61 0 0 1 -1.83 1.55l-.6.29-.26.14a1.72 1.72 0 0 1 -.38.2 8 8 0 0 0 -.79.36c-.2.1-.67.35-.85.26s1.21-.94 1.21-.94l.27-.15.34-.24c.12-.08.24-.16.35-.25a3.88 3.88 0 0 1 .31-.23c.45-.27 2.38-1.58 2.06-2.24m-49.66 1c0-.07-.36-.28-.5-.36a.88.88 0 0 1 -.38-.36c-.09-.2 0-1.23.22-1.28s.94.35 1.27.57a4.63 4.63 0 0 1 1.1 1.19 6.32 6.32 0 0 1 .47.75c.07.12.37.67.44.65s.06-.57.06-.67v-.79a8.78 8.78 0 0 1 .2-1.23c.08-.32.48-1.21.74-1.31.52-.19 1.06.54 1.21 1 .1.29-.13.52-.27.65s-.37-.19-.46-.26l-.38-.31a.33.33 0 0 0 -.52.2 2.32 2.32 0 0 0 -.08.67v.6.33a11.1 11.1 0 0 1 -.24 1.76c0 .21-.3 1.2-.5 1.15v-.16l-.08-.32a3.9 3.9 0 0 0 -.21-.57 7.41 7.41 0 0 0 -.49-.84 4.23 4.23 0 0 0 -1-1.2c-.17-.13-.25.15-.28.32a2.18 2.18 0 0 1 -.25.69 4.59 4.59 0 0 1 -.32.53c-.13.18-.32.43-.4.56a7.34 7.34 0 0 1 -2.56 1.65s.66-.76.71-.81l.2-.18.2-.22.23-.2a3.37 3.37 0 0 1 .35-.29 6 6 0 0 0 1.5-2m11.47 3.78a6.63 6.63 0 0 1 -.17-3.63 10.14 10.14 0 0 1 .84-2.5 11.45 11.45 0 0 1 -.36 1.84c-.24 1-.32 2.57.24 3.23.19.23.61.49.81.12a2.28 2.28 0 0 0 .14-.46c0-.17.15-.6.35-.42s-.38 1.93-.53 2.13c-.33.45-1 0-1.32-.33m66-3.55c0-.08-.37-.4-.52-.52a1.47 1.47 0 0 1 -.5-.67 3.3 3.3 0 0 1 .34-1.53 1.39 1.39 0 0 1 .76-.71.74.74 0 0 1 .64.24 5.28 5.28 0 0 1 .34 2.37 2.25 2.25 0 0 0 .46.61.88.88 0 0 1 .1 1c0 .12-.43-.18-.5-.24a.68.68 0 0 0 -.74-.2l-.17.22-.38.4-.82.71a12.84 12.84 0 0 1 -1.78 1.3 16 16 0 0 1 -2 1.13c-.28.13-2.25.84-2.2.63a12.45 12.45 0 0 1 1.66-1c.56-.32 1.25-.74 1.86-1.11s1.24-.78 1.83-1.19a11.83 11.83 0 0 0 1.59-1.38m-54.17.79a1.5 1.5 0 0 1 -.16.63 2.24 2.24 0 0 0 -.14.36 5.48 5.48 0 0 0 -.24 1.38 1.85 1.85 0 0 0 .48 1.19c.15.1.39.16.5 0a1.8 1.8 0 0 0 .14-.38c0-.14.08-.26.16-.29.46-.15-.31 1.59-.39 1.67-.45.48-1.05-.38-1.15-.74a5.39 5.39 0 0 1 .15-2.56c.06-.24.4-1.42.66-1.3m25.25 3.66c-.15-.39.56-1.61 1-1.41l.46.32.2.17c.16.12.51.36.71.32l.3-.51a1.93 1.93 0 0 1 .42-.61c.28-.23 1.42.86 1.57 1.11s-.53 1.51-.8 1.52l-.64-.53c-.24-.2-.66-.55-.82-.51 0 0-.3.51-.32.56a5.09 5.09 0 0 1 -.4.66c-.26.13-1.5-.86-1.64-1.09m-20.16.81c-.48-.94.41-2.16 1-2.45l.28-.16a1 1 0 0 1 .22-.12 2.69 2.69 0 0 0 .29-.16l.26-.11 1.16-.64c.39-.2.76-.37 1.15-.56s.76-.37 1.12-.57a30.72 30.72 0 0 1 5-2.11s0 .87-.24.9a43.87 43.87 0 0 0 -5.63 2.6c-.44.23-1 .5-1.51.75l-.14.06-.16.08-.3.14-.65.35a11.4 11.4 0 0 0 -1.22.76c-.52.42.13.7.55.86.1 0-.06.57-.13.63-.28.24-.92 0-1.05-.27m10.77-.51c.16-.41-1.24-.17-1.47-.1a2.66 2.66 0 0 0 -.62.22l-.25.16c-.09.07-.15.11-.22.09s.19-.72.21-.77a2.38 2.38 0 0 1 .43-.56 2.79 2.79 0 0 1 1.66-.51c.19 0 1.49-.08 1.43.34a5.73 5.73 0 0 1 -.73 1.5 4.82 4.82 0 0 1 -2.08 1c-.32 0 .76-.73.76-.73a6.12 6.12 0 0 1 .89-.59m24.23 1.15a2.57 2.57 0 0 1 -.3-1.2 9.76 9.76 0 0 1 .36-1.69c.07-.19.58-1.29.64-1.08l-.14.45-.08.2a2.36 2.36 0 0 0 -.12.27 3.68 3.68 0 0 0 -.22 1.15v.16a1.89 1.89 0 0 0 .08.4 1.38 1.38 0 0 0 .18.41c.11.19.3.49.59.44s.29-.27.34-.5.17-.65.3-.47-.18 2.92-1.63 1.46m-61.12 1.77c.2-.22 7-3.79 7.24-3.84.06 0 .05.7-.21.81-.06 0-1.13.67-1.65 1s-1.27.71-1.87 1l-.3.16-.18.08-.44.23-.85.48c-.3.14-.71.34-.92.47a2.36 2.36 0 0 1 -1 .45c-.34 0 0-.76.17-.86m30.89 0c-.08-.68.25-3.18.75-3.6.08-.08-.09.63-.11.71a6.15 6.15 0 0 0 -.2 1.82c0 .32.23 1 .5 1s.36-.12.45-.34.21-.48.26-.48c.2 0-.06.78-.1.88a2.74 2.74 0 0 1 -.38.83c-.47.63-1.1-.45-1.13-.83m-13.54 2.16c.28-.34-.07-.89-.24-1.14a1.88 1.88 0 0 0 -.35-.43 2 2 0 0 1 -.35-.36c-.13-.22-.63-.25-.93-.24-.56 0-1.24 1.29-1.3 1.84s1.18 1.37 1.77 1.29a2.49 2.49 0 0 0 1.4-1m4.14 1.17c.09-.12-.22-.61-.33-.78a5 5 0 0 0 -1.27-.86c-.2-.1-1.61-.7-1.69-.53l-.43 2.27a4.31 4.31 0 0 0 .85.14 9.6 9.6 0 0 0 1.16.06c.41 0 1.58 0 1.71-.3m43.29 1.3c.22-.33-1.18-1.09-1.62-.94a2.42 2.42 0 0 0 -.55.23l-.18.17a1.56 1.56 0 0 1 -.15.17c-.22 0 .32.38.32.38a3 3 0 0 0 .56.16 5.15 5.15 0 0 0 1.62-.17m-14.09.4c0-.46-2-1.69-2.4-1.61a9.72 9.72 0 0 0 -1.11 2 1 1 0 0 0 .27.85 1.21 1.21 0 0 0 1 .12 4.88 4.88 0 0 0 1.26-.61l.47-.32.35-.22zm-51.11.42a4.39 4.39 0 0 1 .2-2.45c.07-.26.69-2 .8-1.36a3.53 3.53 0 0 1 -.29.64 4.38 4.38 0 0 0 -.36 1.11 2.52 2.52 0 0 0 .36 1.96.35.35 0 0 0 .59 0 .77.77 0 0 0 .1-.21c0-.17.11-.37.19-.39.29-.05-.25 1.46-.4 1.59-.57.51-1.15-.31-1.22-.85m46.95 1.14c.06-.28.12-.82.16-1.25a3.39 3.39 0 0 1 .2-.91 7 7 0 0 1 .34-.79 3.54 3.54 0 0 0 .33-.86l-.62-.5a6 6 0 0 1 -.59-.53c-.21-.21-.41-.42-.59-.64a1.92 1.92 0 0 0 -.28-.29c-.16-.13-.36-.29-.38-.39a10.41 10.41 0 0 1 .1-1.66c0-.14.32.15.32.15a.76.76 0 0 0 .28.16l.16.06.16.07.31.13.16.06.2.08.16.06.16.06c.14.06.69.29.7.4s0 .21-.22.25l-.42.09c-.26.22 1.21 1.07 1.43 1.1a14.56 14.56 0 0 0 1.21-1.5 13.49 13.49 0 0 1 1.23-1.59c.68-.76-.17 1.62-.27 1.77s-.55.75-.57.76a10.55 10.55 0 0 0 -.62.88c-.11.16.35.48.51.58a7.37 7.37 0 0 1 .61.5 2.55 2.55 0 0 1 .81 1.61c.22 2.13-1.92 3.49-3.62 3.72-1 .14-1.22-.85-1.36-1.58m-23.38-18.27a4.88 4.88 0 0 0 .56 1c.18.29.37.62.53.92.33.6 1.08 2 .95 2.38 0 .11-.51-.34-.54-.38a2.22 2.22 0 0 0 -.51-.42s.18 1.42.18 1.57c.07.53.16 1.07.24 1.59.17 1 .36 2.14.52 3 .09.49.18 1 .24 1.5s.13 1 .22 1.47.17 1 .22 1.48v.16l.07.67.05.2v.48.27.36a11.56 11.56 0 0 1 -.16 3c-.07.23-.31 1-.49 1a7.89 7.89 0 0 1 -.07-1.2c0-.38-.05-1.14-.12-1.74v-.28-.35-.36-.51-.14-.14-.4-.2c-.05-.26-.05-.26-.08-.47s-.09-.67-.16-1.15c0-.25-.08-.56-.12-.75s-.08-.45-.12-.68a6.18 6.18 0 0 0 -.12-.67v-.24-.24-.39-.16a3.93 3.93 0 0 1 -.08-.51v-.36-.16l-.05-.24c0-.61-.5-3.3-.79-5a17 17 0 0 0 -.46-2.23 2 2 0 0 1 .09-1.68m16.62-.73c.18-.18 1.07 2.1 1.15 2.35a1.7 1.7 0 0 0 .14.32l.14.27c.11.24.22.51.32.75s.61 1.53.26 1.45-.38-.29-.53-.49-.34-.46-.47-.38a27.58 27.58 0 0 0 .38 2.87c.18 1 .34 1.93.48 2.89.31 2.2.87 6.44.87 7.09 0 1.32 0 4-.6 4.61-.19.18-.19-1-.19-1.13 0-.51 0-1.27-.08-1.9v-.39-.18c0-.17-.05-.38-.08-.61-.09-.58-.14-1.08-.2-1.61-.1-.83-.24-2.09-.32-2.63l-.12-.71v-.32-.28-.16a11.73 11.73 0 0 1 -.24-1.26c-.13-1-.26-2-.44-2.94 0-.24-.25-1.87-.39-3-.06-.44-.11-1-.16-1.55a3.22 3.22 0 0 0 -.37-1.06 1.68 1.68 0 0 1 .11-1.13c0-.14.09-.31.14-.45l.06-.16.08-.12zm-3.45 21.67a2.8 2.8 0 0 1 .74-1.21c.24-.16 1.45.89 1.53 1.22s-.2.54-.3.67a4.78 4.78 0 0 0 -.43.64c0 .14-.83-.56-.83-.56-.18-.15-.71-.6-.71-.76m4.5 2a2.45 2.45 0 0 1 1.85-1.58c.26 0 .42.26.46.46a3.54 3.54 0 0 1 -.42.69c-.13 0-.18 0-.24-.12s-.14-.23-.24-.24c-.27 0-.63.23-.54.49 0 .1.45.28.58.3a2.46 2.46 0 0 0 .6 0h.36a2.06 2.06 0 0 1 .38 0c.23.07-.17.72-.26.76s-2.03.57-2.4.57c-.11 0 0-.33 0-.34l.08-.2.17-.21s-.09-.17-.21-.32-.19-.26-.18-.32m31.69-1.71a1 1 0 0 1 .9.14c.2.13.47.31.69.26a2 2 0 0 0 1.34-1.18c.1-.18.16.12.16.12a1.52 1.52 0 0 0 0 .39.82.82 0 0 0 .88.2s.16-.48.23-.7.27-.66.39-.61c.57.23-.72 2.14-.87 2.23a.77.77 0 0 1 -.65.06.8.8 0 0 1 -.3-.14c-.12-.07-.18-.11-.3-.07a.59.59 0 0 0 -.25.19.8.8 0 0 1 -.23.16 1.59 1.59 0 0 1 -.71.26 1 1 0 0 1 -.64-.18 1.25 1.25 0 0 0 -.76-.26 10.66 10.66 0 0 0 -2.42 1.33 5.76 5.76 0 0 1 -2.87 1.15c-.3 0 .6-.44.6-.44s.5-.29.73-.44l.14-.07.38-.24.27-.17.21-.15.3-.22.27-.14c.11-.09.23-.17.32-.23a5.46 5.46 0 0 0 .45-.33l.21-.15a5.93 5.93 0 0 1 1.53-.77m-38.74 1.76c.11-.17-.07-.69-.26-.73a.43.43 0 0 0 -.43.09s-.42.3-.31.09l.08-.32a2.19 2.19 0 0 1 .14-.41c.15-.33.33-.59.8-.5.23 0 .37.5.45.77a3.08 3.08 0 0 1 -.41 1.69 2.84 2.84 0 0 1 -.87.95c-.19.13-1.27.75-.78.27a10.66 10.66 0 0 0 1.59-1.9m22.56 2.2-.41-.22a2.46 2.46 0 0 1 -.44-.34 10.53 10.53 0 0 1 -.66-.88 3.58 3.58 0 0 1 -.44-1.42 5.49 5.49 0 0 1 0-1.15v-.36c0-.16.07-.74.06-.75s-.5.23-.58.28l-.47.32c-.3.16-.77.47-1.14.71a15.16 15.16 0 0 1 -2.23 1.27 10.59 10.59 0 0 1 -1 .33l-.36.08-.28.08-.28.08h-.16l-.43.08c-.12 0-1.14.25-1.67.36l-.76.16c-.14 0-1 .19-.9 0s.4-.36.78-.5a6.41 6.41 0 0 0 .8-.34c.3-.15.61-.28.91-.41s.64-.3.94-.46l.81-.43.16-.08.32-.16.23-.11.33-.17 1.8-1c1.2-.64 5.49-3.41 5.79-4.35.09-.29-.39-1.11-.55-1.36a12.21 12.21 0 0 1 -.7-1.34 24.57 24.57 0 0 1 -1.18-2.78 4.84 4.84 0 0 1 .31-1.6c.11-.11.27.16.31.22a2.56 2.56 0 0 0 .39.48l.4.39.38.37a7 7 0 0 1 .62.68c.13.19.07.35-.16.27s-.6-.17-.66-.06a6.72 6.72 0 0 0 .74 1.59 6.85 6.85 0 0 1 .78 1.66 6.58 6.58 0 0 1 -.12 2.38 3.29 3.29 0 0 1 -1 1.51c-.23.22-.57.56-.72.67a2.55 2.55 0 0 0 -.68.63 3.06 3.06 0 0 0 -.22 1.66c.59 2.45 2.34 3.15 5.02 2.25a7.88 7.88 0 0 0 2.8-1.64 5.43 5.43 0 0 1 .52-.46 5.66 5.66 0 0 0 .54-.43l.49-.44a5 5 0 0 0 .55-.47c.17-.16 2.2-2.13.93-2.13 0 0-.37.11-.54.16a4.17 4.17 0 0 1 -.76.12c-.56.06-1.07.12-1.43.12a5.74 5.74 0 0 1 -1.35-.5c-.77-.36-.44-2.09-.18-2.77a2.12 2.12 0 0 1 3.75-.6 4.69 4.69 0 0 1 .63.7c.16.23.51.72.6.72a8 8 0 0 0 2.21-1.3 5.26 5.26 0 0 1 1-.68c.21-.07.4 0 .41.21v.48.24a1.1 1.1 0 0 0 .12.67 2.46 2.46 0 0 0 3.29.91 4.28 4.28 0 0 0 1.74-2.01c.11-.2.59-1.07.8-1s-.09.69-.14.78a1.94 1.94 0 0 0 -.26.74c.08.78 2.19 1.39 2.86.92.16-.11-.18-.75-.22-.8-.14-.21-.34-.5-.25-.68a3.67 3.67 0 0 0 .16-.67c0-.16.16-.56.28-.61s.57 1 .68 1.24a3.58 3.58 0 0 1 .09 1.85 2.67 2.67 0 0 1 -.64 1.31 2.25 2.25 0 0 1 -.36.24 2 2 0 0 1 -.71.14h-.34a2.48 2.48 0 0 1 -.44-.08c-.15-.05-.43-.17-.64-.26a2.58 2.58 0 0 1 -.65-.49l-.22-.29c-.08-.1-.27-.34-.29-.32a3 3 0 0 0 -.25.35l-.24.35a1.84 1.84 0 0 1 -.66.64 12.12 12.12 0 0 1 -1.59.61 2.52 2.52 0 0 1 -2.36-1 4.44 4.44 0 0 1 -.45-1.44s-1.18.74-1.19.75c-.25.16-1.2.85-1.21.87a9.31 9.31 0 0 0 -.16 1.19 2 2 0 0 1 -.26 1l-.08.18-.08.11c-.08.14-.16.25-.25.38a5.84 5.84 0 0 1 -.5.62l-.07.13-.58.56-.26.31a17.28 17.28 0 0 1 -1.52 1.28c-.11.08-.4.3-.43.31a5.31 5.31 0 0 0 -.47.37 3.41 3.41 0 0 1 -.44.3l-.54.32a6.46 6.46 0 0 1 -2.35.93 4.41 4.41 0 0 1 -2.77-.28m-40.06-.18c-.21-.45.32-3.27.82-3.28l-.26.91a3.06 3.06 0 0 0 -.12 1.62c.08.28.24.62.54.69a.39.39 0 0 0 .37-.15.68.68 0 0 0 .15-.26c0-.13.06-.16.2-.12s-.2.7-.2.71a1.63 1.63 0 0 1 -.37.65c-.6.47-1-.39-1.13-.77m-8-.24a3.2 3.2 0 0 1 .72-1.26c.21-.06.56.17.77.31a2.54 2.54 0 0 0 .8.41c.06 0 .27-.35.32-.44s.29-.48.42-.52 1.23.61 1.4.8-.11 1-.39 1.42c-.17.29-.36.18-.59 0a5.24 5.24 0 0 0 -.66-.47c-.3-.18-.46-.24-.66.1a5 5 0 0 1 -.48.75 3.7 3.7 0 0 1 -1.65-1.09m-5.41.72a3.91 3.91 0 0 1 .83-3.06c.23-.27.07.36.07.37l-.06.11-.14.32a2.91 2.91 0 0 0 -.36 1.09 1.11 1.11 0 0 0 .46.87.35.35 0 0 0 .48-.13c.09-.11.32-.42.33-.42.49.19-.5 1.46-.91 1.58-.17.05-.56-.53-.72-.77m-9.09.47a3.48 3.48 0 0 1 -1.42-2.6 6.86 6.86 0 0 1 .46-2.26 7.73 7.73 0 0 1 1-1.91c.23-.29 1.16-1.58 1.16-1.59s-.09-.17-.15-.25a3.27 3.27 0 0 1 -.23-.36 3.78 3.78 0 0 1 -.34-.84 6.25 6.25 0 0 1 0-2.65 26.58 26.58 0 0 1 1-3.5c.43-.27-.13 1.7-.15 1.76a10.91 10.91 0 0 0 -.48 2.25 4.92 4.92 0 0 0 .34 1.79 1.32 1.32 0 0 0 .68.61c.31.07.42-.07.55-.34a5.32 5.32 0 0 0 .22-.63 2.5 2.5 0 0 1 .09-.29c.21-.5.15 1 .11 1.16a3.7 3.7 0 0 1 -.54 1.19.57.57 0 0 1 -.27.26 2 2 0 0 0 -.51.26 2.83 2.83 0 0 0 -.73.81 8.88 8.88 0 0 0 -1.69 4.75 1.52 1.52 0 0 0 .55 1 2.12 2.12 0 0 0 1.38.32 5.74 5.74 0 0 0 2.25-.81 20.11 20.11 0 0 0 2.3-1.56 12 12 0 0 1 1.1-.77l.66-.4.5-.3.24-.12a7 7 0 0 1 1.71-.71l.71-.2c.21-.05.83-.2.82-.33v-.16-.16c0-.19-.06-.38-.08-.52v-.23-.3-.18a.87.87 0 0 0 0-.24 5.52 5.52 0 0 1 .34-2.37 3.68 3.68 0 0 1 .53-.93l.18-.21.17-.19.1-.13a1.58 1.58 0 0 1 2.2-.39l.15.2.23.34.09.15.16.23c0 .06.46.49.72.74a3.49 3.49 0 0 0 1.7.68 4.51 4.51 0 0 0 2.11-.25c.2-.1.11-.32 0-.56a2.57 2.57 0 0 1 -.12-1 6.71 6.71 0 0 1 .49-2.26 8.59 8.59 0 0 1 .4-.87c.12-.2.42-.73.42-.75a6 6 0 0 1 0-1.85s.45.15.55.19.45.18.67.25a4.2 4.2 0 0 1 1.08.48c.12.21 0 .24-.16.28l-.33.08c-.2.1.82.69.89.73.34.2.78.4 1.19.59.75.35 2.16 1 2.3 1.16a3.65 3.65 0 0 1 .54 4.48 2.16 2.16 0 0 1 -.57.28c-.22.08-.43.16-.46.34l-.12.24-.08.24a6.36 6.36 0 0 0 -.2.95 5.62 5.62 0 0 0 .17 2.7c.4 1 1.28 1.34 2.45 1.76.83.3 3.94-.79 4.38-1.28l.26-.17.26-.15.43-.33.4-.31a4.81 4.81 0 0 0 .57-.44c.56-.51 1.43-1.3 1.54-1.81a4.16 4.16 0 0 0 -.53-1.83 6.46 6.46 0 0 1 -.7-1.56 3.41 3.41 0 0 1 .22-1.31c0-.13.33.26.33.26a2.28 2.28 0 0 1 .26.46 2.78 2.78 0 0 0 .69.92 4.53 4.53 0 0 0 2.1.8c1.27.18 4.84-.06 5.61-1.15.15-.22-.28-.88-.4-1.05a2.85 2.85 0 0 0 -.25-.33.94.94 0 0 1 -.28-.44 3.22 3.22 0 0 1 .16-1.35c.13-.36.83.69.85.72a4.21 4.21 0 0 1 .5 1.09 3.72 3.72 0 0 1 -.51 3.1 5.61 5.61 0 0 1 -1.9.84 10.81 10.81 0 0 1 -2.55.35 14 14 0 0 1 -1.47 0 5.89 5.89 0 0 1 -.64-.12c-.13 0-.75-.16-.73-.1a6.61 6.61 0 0 1 -.54 2.52 8 8 0 0 1 -1.85 1.92l-.23.19a2.52 2.52 0 0 1 -.33.24l-.2.18a3.88 3.88 0 0 1 -.33.23 6.38 6.38 0 0 0 -.62.43l-.2.08-.16.07-.38.22a14.2 14.2 0 0 1 -2.58.87 4.85 4.85 0 0 1 -2-.11h-.15l-.25-.1-.14-.08-.22-.12-.35-.27-.12-.08-.08-.12-.14-.09c-.59-.27-1-2.49-1-3.3a6.41 6.41 0 0 1 .28-1.77 8.13 8.13 0 0 0 .35-1.71l-.38-.05h-.55-.48-.32-.2l-.79-.07-.92-.12c-.1 0-.95-.15-.91 0l-.28.08a.83.83 0 0 0 -.3.14 4.88 4.88 0 0 1 -.66.29 8.18 8.18 0 0 1 -1.71.48c-.3 0-1.72.16-2-.1a1.45 1.45 0 0 0 -.24-.1 3 3 0 0 1 -.52-.22 5.74 5.74 0 0 1 -.74-.52 3.57 3.57 0 0 1 -.69-.85 3.67 3.67 0 0 0 -.67-.83 5.66 5.66 0 0 0 -1 .28c-.48.15-.92 1-1.12 1.45a1.51 1.51 0 0 0 -.14.91 2.64 2.64 0 0 0 .14.51 1.13 1.13 0 0 0 .16.31c.13.15.13.15.14.18a8.13 8.13 0 0 0 1.59 1.1c.08 0 .45.17.69.25l.24.08c.3.11 1.1.44 1.16.66.09.37.11 1.58-.18 1.75a7.44 7.44 0 0 1 -1.1-.49 5.49 5.49 0 0 0 -3.54-.45 9.37 9.37 0 0 0 -1.47.39 8.2 8.2 0 0 0 -.76.32c-.26.12-.52.24-.8.34a18 18 0 0 0 -2.57 1.39c-.82.6-1.61 1.08-2.53 1.63a3 3 0 0 1 -2.94 0m46.48-.14c.07 0 .71-.27 1-.37s.66-.27 1-.38a12.16 12.16 0 0 1 2.17-.6 1.42 1.42 0 0 1 -.28.74l-.53.18-.16.06-.4.14-1.47.47-.56.16-.36.14-.28.1c-.78.22-.38-.29-.08-.64" fill="#221e1f" fill-rule="evenodd"/></svg>