<svg viewBox="0 0 75.77 26.53" xmlns="http://www.w3.org/2000/svg"><path d="m51.24 23.69a5.86 5.86 0 0 1 -.24-1.25 6 6 0 0 1 0-1 5.12 5.12 0 0 0 0-1.06s-1.09.7-1.22.8a12.08 12.08 0 0 1 -1.26.85c-.9.56-2 1.14-3 1.69-.83.44-6.59 2.06-7.51 1.93-.45-.06 1.42-.84 1.42-.84l.18-.08.13-.06.16-.06.4-.16.62-.24c.27-.12.57-.23.85-.33l.82-.38.66-.32c.27-.14.67-.37.83-.43 2.12-.89 9.68-5.87 9.42-6.82 0-.16-.42-.86-.66-1.3-.13-.25-.26-.47-.4-.69l-.34-.58a19.76 19.76 0 0 1 -1.23-2.85c0-.2.19-1.47.38-1.45a14 14 0 0 1 2.15 2.4 2.76 2.76 0 0 1 -.4-.06.84.84 0 0 0 -.47 0c-.16 0 .84 1.66.87 1.69a6.15 6.15 0 0 1 .51 1l.08.16a.94.94 0 0 1 .1.24 3.39 3.39 0 0 1 .08.44c0 .16.07.45.08.49a7.79 7.79 0 0 1 -.34 2.08 4.3 4.3 0 0 1 -.82 1l-.91.86-.23.15c-.85.86-.38 2.66.18 3.45a3 3 0 0 0 1.15.9 4.64 4.64 0 0 0 3.3-.18c1.61-.54 5.6-3.73 6.15-5.15.26-.67-.66-.45-.94-.38a10 10 0 0 1 -2.3.28 2.13 2.13 0 0 1 -1.3-.55c-.6-.51-.44-1.79-.22-2.56a2.62 2.62 0 0 1 1.89-1.68 2.71 2.71 0 0 1 1.39.47l1.72 1.75a8.08 8.08 0 0 0 1.78-1.07c.37-.29 1.42-1.14 1.66-1.05s.17.56.14.81a1.36 1.36 0 0 0 .27 1 4.44 4.44 0 0 0 1.1.78 2.87 2.87 0 0 0 1.72 0 3.43 3.43 0 0 0 1.39-1 6.27 6.27 0 0 0 .69-1.25 5.07 5.07 0 0 1 .34-.61s.45-.57.48-.18a1.7 1.7 0 0 1 -.24.75 1 1 0 0 0 -.16.76 2.54 2.54 0 0 0 1.2.81c.39.11 1.68.28 1.69-.2a1.51 1.51 0 0 0 -.31-.68.85.85 0 0 1 -.25-.65 4.06 4.06 0 0 1 .33-1.24c.14-.37.62.72.65.77a4.68 4.68 0 0 1 .31 1.39 2.62 2.62 0 0 1 -1 2.41 2.2 2.2 0 0 1 -1.27.14 3 3 0 0 1 -2-1.37s-.66.89-.66.89a3.2 3.2 0 0 1 -.75.66c-.22.16-1.41.72-1.39.32l-.14.19a2.46 2.46 0 0 1 -.83-.06 2.3 2.3 0 0 1 -.83-.34 2.26 2.26 0 0 1 -.65-.69 2.9 2.9 0 0 1 -.26-.53c0-.07-.07-.29-.08-.36a1.44 1.44 0 0 0 -.1-.45c-.08 0-.6.39-.72.49l-.24.19-.21.17c-.37.27-1.15.83-1.19 1v.55.6a5 5 0 0 1 -.26 1 11 11 0 0 1 -1.76 2.29 10.61 10.61 0 0 1 -1.53 1.39c-.23.17-.54.42-.8.64a4.43 4.43 0 0 1 -.41.31l-.48.3a6.88 6.88 0 0 1 -2.35 1l-.39.08a1.88 1.88 0 0 1 -.44 0 7.42 7.42 0 0 1 -1.15 0l-.32-.08-.55-.17a3.16 3.16 0 0 1 -.77-.49 1.15 1.15 0 0 1 -.19-.17l-.2-.31a9 9 0 0 0 -.61-.91m20.61-21c.16-.69-.43-1.64-1.07-1.07-.34.31-.08.56.16.76s.84.63.92.3m-28.45-.55c0 .29.56.8.84.76s0-1-.13-1.13-.77.14-.71.37m-28.54 1a4.87 4.87 0 0 1 .7-2.93c.22-.27.12.28.1.35l-.12.28a2.36 2.36 0 0 0 -.16.47c-.12.54-.24 1.3.23 1.63a.36.36 0 0 0 .52-.15s.24-.39.28-.33-.51 1.38-.63 1.48c-.45.36-.84-.42-.92-.8m44.89-.2c-.1-.21 0-1 .2-1.07.52-.16 1.53.69 1.85 1a9.24 9.24 0 0 1 .68.84 5.32 5.32 0 0 0 .68.85v-.34-.33-1.04a4.37 4.37 0 0 1 .12-1.15c.18-.69.72-1.48 1.49-1.39.26 0 .56.62.64.88s-.07.75-.21.8-.39-.25-.5-.36a1 1 0 0 0 -.55-.34c-.1 0-.38.26-.44.37a1.47 1.47 0 0 0 -.09.65v2s-.16 2.16-.5 2.16c-.1 0-.16-.26-.18-.37a2.27 2.27 0 0 0 -.38-.74 8.28 8.28 0 0 0 -.75-1c-.39-.39-.51-.51-1-.57a1.73 1.73 0 0 1 -1.1-.81m-11.56 3a18.1 18.1 0 0 1 1.93-1.29l.24-.16.26-.16.26-.16.3-.2.25-.16.29-.16.37-.24.28-.16c.82-.54 4.1-2.47 4.28-2.51s0 .68 0 .77a11.94 11.94 0 0 1 -2.07 1.41c-.79.43-1.57.87-2.31 1.36-.35.24-.73.47-1.11.68a14.41 14.41 0 0 0 -1.28.79l-.13.08-.28.14-.22.11-.36.24-.24.16-.23.19c-.18.11-.24.1-.29-.11v-.25-.14zm-4.56-2c0-.07-.21-.36-.34-.51a1.61 1.61 0 0 1 -.35-.56 2.65 2.65 0 0 1 .33-1.54c.14-.29.85-1 1.23-.53a1.31 1.31 0 0 1 .25.64 6.37 6.37 0 0 1 0 1.27c0 .22-.05.62.07.66a2.53 2.53 0 0 1 .88.84 1.27 1.27 0 0 1 -.08.74s-.56-.28-.65-.34c-.27-.16-.64-.39-.78-.36a1.23 1.23 0 0 0 -.22.23l-.28.32-.56.6a6.84 6.84 0 0 1 -.61.56 4.85 4.85 0 0 0 -.63.49 16.68 16.68 0 0 1 -2.65 1.3c-.38 0 .26-.51.28-.53a2.76 2.76 0 0 1 .35-.25l.4-.24.33-.25.21-.15a4 4 0 0 0 .4-.33l.23-.16a9.24 9.24 0 0 0 2.23-2m-27.63 2.95a8 8 0 0 0 -2.28 0 2.11 2.11 0 0 0 -.55.14c-.18.1-.25.13-.34.1s.55-1.3.58-1.32a1.64 1.64 0 0 1 1-.55 10.14 10.14 0 0 1 3.22.07c.26.21-.45 1.27-.63 1.54a5.1 5.1 0 0 1 -2.81 1.8c-.46 0 .89-.93.89-.93.15-.11 1-.71.89-.85m55.28-3c0-.09-.22-.23-.31-.29a3.53 3.53 0 0 1 -.35-.26 1.07 1.07 0 0 1 -.41-1 2.17 2.17 0 0 1 1-1.78.66.66 0 0 1 .71.15 3.52 3.52 0 0 1 .4 1.83c0 .8 0 .8.35 1.05a.9.9 0 0 1 .37.46c.06.22 0 .73-.18.73a5.18 5.18 0 0 1 -.48-.3 1.38 1.38 0 0 0 -.48-.25c-.07 0-.32.29-.41.4a3 3 0 0 1 -.33.37l-.6.56-.18.16a19.77 19.77 0 0 1 -1.62 1.26 12.39 12.39 0 0 1 -4.26 1.99c-.29 0 .76-.68.76-.68l.45-.22a1.83 1.83 0 0 0 .26-.16l.26-.16c.28-.16 1.21-.77 1.83-1.19.81-.53 3.1-2.15 3.22-2.65m-48.77 4.48c-.11-.2-.62-1.6-.42-1.8v-.47a3.55 3.55 0 0 1 0-.68c0-.21.12-.91.12-.91.06-.31.16-.77.24-1.15s.39-1.7.75-1.63a8.83 8.83 0 0 1 -.23 1.32 9.4 9.4 0 0 0 -.28 2.53 2.64 2.64 0 0 0 .64 1.9c.32.24.56 0 .67-.28a3.46 3.46 0 0 0 .12-.47c0-.15.08-.34.18-.38.65-.2-.18 2-.28 2.16s-.5.56-.67.47a2.17 2.17 0 0 1 -.84-.65m-16.48-1.28c.39-.83-.63-2.11-1.16-2.59a6.62 6.62 0 0 0 -.75-.29 2.63 2.63 0 0 1 -.59-.29l-.22-.15c-.42-.19-.28-1.33.1-1.38.62-.08 1.41.75 1.82 1.18a5.56 5.56 0 0 1 .56.72 9.64 9.64 0 0 0 .66.92 3.3 3.3 0 0 0 0-.7c0-.41 0-1 0-1.46a4.87 4.87 0 0 1 .36-1.15c.42-1 1.18-.41 1.43.35a.81.81 0 0 1 -.21.84s-.37-.3-.41-.33a.73.73 0 0 0 -.19-.2c-.49-.39-.53.31-.55.7a25.68 25.68 0 0 1 -.28 3.19 3.89 3.89 0 0 1 -.7 1.64c-.36.36-.8.81-1 1s-1.73 1.11-1.05.31a4.18 4.18 0 0 1 .6-.59l.58-.57a5.62 5.62 0 0 0 1-1.15m36.4 2.09a3.36 3.36 0 0 1 .5-1.09c.25-.38.61-.14 1 .1.21.14.84.55 1 .31a5.55 5.55 0 0 1 .66-1c.22-.22 1.63 1 1.63 1.24a1.17 1.17 0 0 1 -.31.81 4.2 4.2 0 0 0 -.39.58c0 .09-.87-.53-.87-.53a3.28 3.28 0 0 0 -.8-.51l-.33.59a1.13 1.13 0 0 0 -.12.24 2 2 0 0 1 -.22.41c-.23.3-1.67-.92-1.75-1.13m14.67-.11a6.07 6.07 0 0 1 .78-2.79c.1-.16-.07.63-.11.73a3.72 3.72 0 0 0 -.25 1.5c0 .51.48 1.57 1 1.22.1-.06.15-.28.19-.43s.13-.52.23-.54 0 1-.07 1.18-.32.84-.62.89a.77.77 0 0 1 -.72-.33c-.09-.2-.61-1.34-.43-1.43m14.93-2.19a1.94 1.94 0 0 1 -.22.76 1.91 1.91 0 0 0 -.29 1.15 4.75 4.75 0 0 0 .34 1.16c.17.21.39.07.52-.06a.39.39 0 0 0 .15-.21c0-.12.18-.41.21-.4.24.06-.06.87-.11 1a1.65 1.65 0 0 1 -.58.74c-.85.71-.91-2-.89-2.12a5.39 5.39 0 0 1 .32-1c.06-.16.45-1.09.55-1m-65.82 6.34c-.12-1.11-.13-2.92.61-3.77.3-.35-.09.79-.09.8a4.78 4.78 0 0 0 -.24 1.55c0 .5.46 1.63 1 1.36a.59.59 0 0 0 .17-.29c0-.13.11-.44.26-.4s-.09.91-.12 1a1.78 1.78 0 0 1 -.38.69c-.46.46-1.08-.7-1.16-1m15.07 0c0-.16-.94-.3-1.16-.33s-1.67-.13-2.25-.16c-1-.06-2.27-.12-3.3-.12a8.28 8.28 0 0 0 -3 .49c-.62.31.14.81.53 1.07a6.92 6.92 0 0 1 1.36 1.09l.49.44c.16.2.48.6.6.63a20.51 20.51 0 0 0 3.58-1.44l.72-.36c.15-.07.33-.15.48-.24l.4-.22c.1 0 .51-.28.75-.41s.74-.42.8-.44m40 3.24c.23-.33-1.35-1.24-2.12-.66-.4.29-.56.59.06.77a3.44 3.44 0 0 0 2.06-.11m-14.1.8c-.06-.48-1.89-1.52-2.41-1.46a8.94 8.94 0 0 0 -1 1.94.94.94 0 0 0 .27.86c.67.67 3.2-.95 3.19-1.34m-3.61 2.94c-.26-.16-.42-.76-.49-1.1a7.53 7.53 0 0 1 .28-2.23 5 5 0 0 1 .34-.89 1.8 1.8 0 0 0 .27-.81l-.33-.26-.32-.23a8.9 8.9 0 0 1 -.93-.83l-.34-.4a1.56 1.56 0 0 0 -.28-.23 1 1 0 0 1 -.34-.35 4.44 4.44 0 0 1 .08-1.58c0-.06.36.12.49.19l.26.1.44.16.76.28c.16.05.69.24.69.37s-.38.24-.63.35.53.58.55.6a2.46 2.46 0 0 0 .86.46c.17 0 1.12-1.38 1.27-1.61s.22-.28.33-.42l.32-.42a10.62 10.62 0 0 1 .67-.84c.36 0-.39 1.91-.48 2l-.56.79c-.16.23-.58.81-.51 1a2.69 2.69 0 0 0 .39.25 5.68 5.68 0 0 1 .51.32c.1.09.22.19.49.45l.17.23a2 2 0 0 1 .44 1.3 4.11 4.11 0 0 1 -.38 1.8c-.45.62-3.19 2.71-4 1.53m-28.26 2.63c-.15-.5.42-1.68.82-1.47s.56.29.83.46l.13.08a.83.83 0 0 0 .23.15l.25.17c.15.13.15.13.18.14s-.44 1.34-.54 1.47-1.86-.9-1.9-1m55.36-1.27a1.36 1.36 0 0 0 .75-.42 2 2 0 0 0 .24-.39c0-.08.26-.48.34-.41v.15.22a.28.28 0 0 0 .16.24 1 1 0 0 0 .78.12c.1-.05.12-.15.14-.28v-.32-.16a3.34 3.34 0 0 1 .28-.57c.23-.38 0 1 0 1.13a2.57 2.57 0 0 1 -.52 1 1.31 1.31 0 0 1 -.5.25c-.07 0-.12 0-.28 0h-.16l-.28-.14c-.13 0-.36.12-.72.37a2.17 2.17 0 0 1 -.63.24 1.11 1.11 0 0 1 -.68-.16 1.07 1.07 0 0 0 -.87-.19 3.57 3.57 0 0 0 -1.29.65c-.37.26-.9.64-1.14.79a6.46 6.46 0 0 1 -2.71 1.15c-.14 0 .3-.33.32-.34a1.82 1.82 0 0 0 .5-.26l.88-.55c.12-.08.24-.16.35-.25s.45-.33.88-.62l.13-.09.2-.16c.49-.34 1.44-1 1.58-1.06a1.9 1.9 0 0 1 1.1-.22c.06 0 .27.14.41.22s.49.28.66.14m-44.1 2.49c1.54-.61 7.31-2.56 7.66-2.52.15 0-.11.88-.2.93a14.39 14.39 0 0 1 -2.05.68c-.69.2-1.37.45-2 .7a13.32 13.32 0 0 1 -2.3.69l-.6.2a3.47 3.47 0 0 1 -.69.19c-.13 0 0-.3 0-.41s.13-.46.22-.46m-6.42-2.34c.34-.37 0 .68 0 .7a5.25 5.25 0 0 0 -.2 1.15v.32l.06.19.12.32a1.3 1.3 0 0 0 .35.45c.19.1.35 0 .45-.21a1 1 0 0 0 .1-.24 1.54 1.54 0 0 1 .1-.24c.14-.18 0 .76 0 .84a2.69 2.69 0 0 1 -.37.74c-.42.46-.85-.13-1-.53a5 5 0 0 1 .39-3.49m-18.81 4.14a6.27 6.27 0 0 1 -.94-1.22 5.07 5.07 0 0 1 -.44-2v-.38-.26-.17c0-.15.08-.58.12-.85a5.94 5.94 0 0 1 .28-1.07 11 11 0 0 1 .6-1.43c.21-.42.65-1.33.68-1.43a1.85 1.85 0 0 0 -.23-.34 1.94 1.94 0 0 1 -.23-.33 3.75 3.75 0 0 1 -.42-1 7.13 7.13 0 0 1 -.08-2.41c.09-.67.77-3.91 1.17-3.91.19 0-.18 1.69-.25 2a6.37 6.37 0 0 0 -.36 2.27c.14.77.46 2.52 1.09 2.5.34 0 .47-.1.54-.42a8.14 8.14 0 0 1 .28-1.08c.39-.22.2 1 .16 1.28a7.17 7.17 0 0 1 -.3 1 1.6 1.6 0 0 1 -.4.49 1.2 1.2 0 0 0 -.54.42c-.15.33-.46.93-.69 1.41a6.63 6.63 0 0 0 -.66 4.25 6 6 0 0 0 .76 1.16 1.67 1.67 0 0 0 1.13.41 2.12 2.12 0 0 0 1.34-.43 14.56 14.56 0 0 0 2.56-2.42l.18-.22.08-.12.52-.59c.17-.21.17-.21.45-.52l.13-.1a1.25 1.25 0 0 1 .19-.2c.21-.18.61-.54.7-.65a10.37 10.37 0 0 1 1.88-1.28c.35-.19.72-.39 1.09-.55a13.4 13.4 0 0 0 1.41-.69c.14-.1-.55-.62-.62-.67l-.21-.15c-.16-.1-.32-.22-.47-.33a5.38 5.38 0 0 1 -1.22-1.11 2.85 2.85 0 0 1 -.34-1.33 2.43 2.43 0 0 1 1.45-1.94 9 9 0 0 1 2.71-.49 36.24 36.24 0 0 1 4.88.15c.92.08 1.89.22 2.8.36.37.06 1.07.18 1.28.24h.16a5.58 5.58 0 0 1 .71.14v.12a1.5 1.5 0 0 1 -.08.27l-.12.36c-.08.24-.24.71-.28.77s-1.61 1-1.81 1.09a9.61 9.61 0 0 0 -1.78 1.12 4 4 0 0 0 -.43 1.79v.14l.05.28a1.25 1.25 0 0 0 .07.31 7.23 7.23 0 0 0 .34.7c.52 1 1.94 1.49 3.31 1.62a15.75 15.75 0 0 0 5.17-.91l1-.36a1 1 0 0 0 .24-.09c.21-.09.45-.19.64-.25s1.84-.65 1.8-.87c0 0-.72-.14-.84-.16l-.88-.16-.44-.08-.4-.08-.35-.08h-.24l-.4-.08a11 11 0 0 0 -1.83-.24 11.92 11.92 0 0 0 -1.63-.05 3.49 3.49 0 0 1 -1 0c-.11-.05.14-.6.18-.68a4 4 0 0 1 .39-.72 4.83 4.83 0 0 1 1.86-.45h.42c.16 0 .81-.05 1.09-.07a6.09 6.09 0 0 0 1.28-.22c.26-.1-.78-5.94-.9-6.46-.2-.88-.4-2.15-.56-3.2v-.28-.32-.28c-.19-.27-.19-.27-.19-.64s0-.34-.08-.55v-.2c0-.16-.08-.48-.08-.48a3.28 3.28 0 0 1 -.16-.79 4.07 4.07 0 0 1 .6-1.6c.12-.09.19.32.2.41a2 2 0 0 0 .26.64l.32.53.16.26.08.2.08.14c.23.38 1 1.9.82 2.26-.1.18-.49-.22-.6-.32s-.45-.45-.52-.41a7.87 7.87 0 0 0 .16 1.1v.2.19.2l.08.4v.24.23.24c.06.27.06.27.08.4v.23.2.2l.12.63s0 .08.07.36v.2.39.28c.07.43.16.87.24 1.31s.2 1 .2 1v.32.23.28c0 .2.1.83.1.83a11.46 11.46 0 0 1 -.06 1.19 4.17 4.17 0 0 1 -.08.59c0 .21-.09.43 0 .49s3.79.75 4.17.78h.44.32a2.85 2.85 0 0 0 .62 0c.13-.1 0-1.08-.09-1.4l.34-1.03c0-.26-.08-.48-.11-.75l-.12-.75c-.13-.76-.33-1.95-.4-2.34s-.16-.87-.16-1.34-.15-1-.24-1.51c-.16-.85-.25-1.56-.36-2.41a11.88 11.88 0 0 0 -.48-2.38 4.21 4.21 0 0 1 .49-1.79c.23-.14.33.2.39.4a4.08 4.08 0 0 0 .38 1c.24.41 1.61 3.09 1.31 3.44-.11.13-.56-.41-.59-.44-.15-.19-.39-.47-.54-.44a9.69 9.69 0 0 0 .2 1.51 5.79 5.79 0 0 0 .12.6c.06.29.11.56.15.87.16 1 .4 2.56.52 3.09.21.93.39 1.83.52 2.81v.28l.13.15v.2.32.2c0 .16 0 .16.08.51s.19 1.37.35 1.4a10.19 10.19 0 0 0 1.94.17c.12 0 1.24 0 1.24.11a4.47 4.47 0 0 1 -.79 1.57 8.35 8.35 0 0 1 -1.17-.05c-.11 0-.86 0-.94.08s-.08.16-.07.29a10.19 10.19 0 0 1 0 1.09 11.3 11.3 0 0 1 -.19 2c-.07.27-.14.54-.22.76s-.15.36-.22.55l-.18.36c0 .16-.17 0-.19-.17v-.15-.34c0-.32 0-1.05 0-1.48s-.1-1.12-.16-1.66c0-.28-.13-1.19-.26-1.21a6.71 6.71 0 0 0 -2.86.71c-1 .45-2 .93-3 1.29a32.37 32.37 0 0 1 -5.73 1.52 5.24 5.24 0 0 1 -5.14-1.78 10.29 10.29 0 0 1 -.49-1.64 5.52 5.52 0 0 1 .16-1.74s.11-.4.16-.56a1 1 0 0 0 .06-.47c0-.08-.51.19-.52.19a4.58 4.58 0 0 1 -.54.28l-.32.25-.55.26-.52.23a5.31 5.31 0 0 1 -.64.3c-.24.1-.94.39-1 .53a2.59 2.59 0 0 0 -.08.58 1.9 1.9 0 0 1 -.11.76s-.22-.35-.27-.46-.27-.55-.44-.5c-2.66.86-5.31 2.18-6.81 4.21a17.49 17.49 0 0 1 -2.29 2.63c-.82.72-2.78 1.9-3.95.66m6.33-.11s1.13-.51 1.51-.68c.23-.1.53-.23.72-.29l.79-.34.28-.14.16-.06.16-.06.16-.06.27-.13.17-.06.35-.16a8 8 0 0 1 1.59-.59c.17.06-.14.83-.21.88a3.1 3.1 0 0 1 -.78.36 8.68 8.68 0 0 0 -.88.34l-1.79.77-1 .4-.17.06-.44.17-.28.12a3.44 3.44 0 0 1 -.81.31c-.12 0 0-.82.22-.84" fill="#221e1f" fill-rule="evenodd"/></svg>