<svg viewBox="0 0 73.41 28.74" xmlns="http://www.w3.org/2000/svg"><path d="m18.82 18.65a20.61 20.61 0 0 0 2.18-1.09c.67-.39 1.93-1.13 2.09-1.27a8.29 8.29 0 0 0 1.45-1.56c.26-.39 1.27-1.71 1.83-1.33a3.43 3.43 0 0 1 .42 1.27 5.47 5.47 0 0 0 .22.75 2.77 2.77 0 0 0 .14.28l.15.25.07.12a1.68 1.68 0 0 0 .91.71c.63.16 1.93.17 2.31-.43a17.06 17.06 0 0 0 -.34-3.74c-.06-.37-.29-1.92-.48-3.09-.09-.63-.15-1.07-.24-1.75s-.18-1.42-.28-2-.2-1.23-.27-1.83a9.61 9.61 0 0 0 -.34-1.86c-.1-.26.44-2.23.71-1.8.4.63 1.92 3.66 1.79 4.37-.07.41-.88-.73-.91-.78-.19-.31-.18.39-.18.39s.08.56.12.79c.07.43.11.7.16 1.11.11.87.26 1.81.38 2.5.26 1.58.79 5.56.77 5.66v.75c0 .12-.06.74-.07.85a5.81 5.81 0 0 1 -.2.89 3.05 3.05 0 0 1 -.67 1.19 3.27 3.27 0 0 1 -1.5.62h-.42-.26-.18a3.28 3.28 0 0 1 -.62-.18 3.62 3.62 0 0 1 -.87-.81 3 3 0 0 1 -.5-1.21c-.06-.32-.27-1.33-.5-1.37s-.9.73-1 1a12.44 12.44 0 0 1 -.91 1.22 8.38 8.38 0 0 1 -2.27 1.67c-.53.1 2.19.46 2.47.5.59.08 2 .25 2.49.24l2.29.19h1.57 1.15c.06 0 .6 0 .56.12l-.06.2-.16.26-.14.27-.06.16c-.1.22-.38.79-.55.83h-.28l-.2-.06h-.22-.42a5.28 5.28 0 0 0 -1.23.07 19.6 19.6 0 0 0 -4.38 1.57l-.46.24-.56.28-.49.25a5.69 5.69 0 0 1 -.56.26l-.32.16-.2.08-.59.25-.6.24-.48.16a3.7 3.7 0 0 1 -3.13-.3 16.49 16.49 0 0 1 -1.19-1.34 4.7 4.7 0 0 1 -.63-1.63c-.1-.39-.25-1-.28-1.18a5.52 5.52 0 0 0 -.28-1.15 9 9 0 0 0 -.36.87 1.51 1.51 0 0 1 -.22.37l-.09.13-.15.2a20.79 20.79 0 0 1 -3.12 2.58c-.82.54-4.48 2.5-5.75 2.24h-.38-.2-.3-.24a3.47 3.47 0 0 1 -.71-.16 4.62 4.62 0 0 1 -1.68-1 4.67 4.67 0 0 1 -1.05-1.84 17.24 17.24 0 0 1 -.32-2.27 7.13 7.13 0 0 1 .44-2.46 3.78 3.78 0 0 0 .34-2l-.21-.34a1.86 1.86 0 0 1 -.21-.57 8.53 8.53 0 0 1 .16-3.05c0-.14.25-1 .4-1.62.07-.29.42-1.67.63-1.56a10.66 10.66 0 0 1 -.35 1.87 8.32 8.32 0 0 0 -.36 2.56c.18.76.37 1.52.79 1.8s.57.15.72-.2a5 5 0 0 0 .2-.59v-.16a1.77 1.77 0 0 1 .15-.41c.09-.21.2.14.21.15s-.06.43-.08.59a3 3 0 0 1 -.08.44l-.08.28v.16c-.11.49-.34 1.17-.86 1.24s-.6.48-.81 1.14a7.27 7.27 0 0 0 -.4 2.16c.07 1.1.53 2.72 1.35 3.11l.34.24a2.64 2.64 0 0 0 .36.23 3.77 3.77 0 0 0 1 .38 5.49 5.49 0 0 0 2.11 0l1.28-.32a5 5 0 0 0 1.19-.45c.8-.42 1.53-.85 2.27-1.31a11.18 11.18 0 0 0 3.5-3.04 25.34 25.34 0 0 0 -.34-4.59v-.36-.39-.28-.32-.47-.44c0-.14-.06-.53-.09-.67v-.24-.36-.23-.2-.32l-.57-.26v-.21a39.64 39.64 0 0 0 -.6-4.46 18.26 18.26 0 0 1 -.4-3.6 7.25 7.25 0 0 1 .2-.71l.1-.28.15-.42c.14-.46.53 1.36.55 1.45.13.67.27 1.35.4 2.06.27 1.51.56 3.66.79 5.38s.47 3.56.68 5.43c.18 1.63.69 5.4.83 5.74a20.74 20.74 0 0 0 1 2.29 2.5 2.5 0 0 0 1.22.9 2.36 2.36 0 0 0 .72.12c.08 0 1.15 0 1.15-.08h.2.16l.32-.1.28-.1.36-.14.63-.26.34-.14.34-.15c.23-.1.84-.4 1.23-.6.22-.11 1.16-.57 1.13-.68a4.51 4.51 0 0 0 -.71-.13h-.18-.4l-.66-.18h-.36l-.24-.06h-.22l-.2-.08c-.09 0-.09 0-.38 0l-.43-.13h-.32-.32-.2-.24l-.47-.08h-.18a3.84 3.84 0 0 0 -.66 0c-.2 0-.89 0-.92-.14a2.55 2.55 0 0 1 .58-1.26c.06-.06.51-.4.51-.4m23.22-16.78c0-.29-.61.06-.69.15-.21.26.16.59.3.72.79.68.69-.5.39-.87m27.37 0c-.27-.44-.91.2-.92.49s.74.66.93.75c.74.36.16-1.07 0-1.24m-11.79 1.31c-.13-.18 0-.76.1-1s1 .21 1.1.28a5.84 5.84 0 0 1 .81.68 6.93 6.93 0 0 1 .68.84 6.3 6.3 0 0 0 .65.87s0-.42 0-.45v-1.04a6 6 0 0 1 .22-1.45l.11-.31a2.65 2.65 0 0 0 .24-.4 1.2 1.2 0 0 1 .5-.48c.15-.07.52-.25.7-.07a1.67 1.67 0 0 1 .59 1s-.1.33-.1.33l-.11.32c0 .14-.47-.33-.47-.33a1 1 0 0 0 -.53-.36c-.21 0-.45.22-.52.37a3.58 3.58 0 0 0 -.09 1v1.39a21.63 21.63 0 0 1 -.47 2.33c0 .2-.36-.55-.36-.55a2.94 2.94 0 0 0 -.32-.55c-.23-.35-.48-.73-.72-1-.11-.13-.24-.27-.36-.39a1.12 1.12 0 0 0 -.21-.17h-.18c-.23 0-.23 0-.32 0-.26-.1-1-.47-1-.79m-11.45 2.65c.66-.38 1.34-.79 2-1.22s1.49-.88 2.33-1.38l.14-.08.22-.14.54-.28.55-.32.26-.16.28-.16 1-.59a4.47 4.47 0 0 1 1.1-.57c.21 0-.15.87-.2.94s-1.79 1.09-2.16 1.29a5.38 5.38 0 0 0 -.52.32l-.62.36c-.19.1-.44.24-.78.46l-.14.08-.24.16c-.73.41-1.47.85-2.27 1.34l-.37.24-.24.12s-.36.21-.52.32l-.32.23c-.46.13-.18-.9 0-1m-23.61 1.2c-.3-.32-.21-1-.14-1.5 0-.24.2-1.27.36-1.2s.07.66 0 .88a1.13 1.13 0 0 0 .1.93c.3.63.91.06 1.16-.19s.21-.91.17-1.26a2.77 2.77 0 0 1 .13-1.12c.07-.27.31.77.31.77a2.58 2.58 0 0 0 .22 1.11 1.54 1.54 0 0 0 .39.35c.14 0 .69.16.66-.1l-.06-.17-.14-.32c-.06-.18-.12-.38-.16-.56a2.86 2.86 0 0 1 .13-1.32c.08-.3.27.45.27.45 0 .15.1.37.16.56l.14.31a3.47 3.47 0 0 1 .16.36 1.93 1.93 0 0 1 .14.69 1.11 1.11 0 0 1 -1.94.86c-.18-.16-.29 0-.43.21a2.43 2.43 0 0 1 -.38.5c-.36.21-1.22.33-1.29-.24m18.93-3c0-.06-.23-.37-.37-.56a1.43 1.43 0 0 1 -.35-.8 1.93 1.93 0 0 1 1.32-2c.23 0 .43.23.48.42a2.8 2.8 0 0 1 .1 1c0 .11-.07.68-.08.79s0 .33 0 .43l.52.42a1 1 0 0 1 .4.5 1.07 1.07 0 0 1 -.08.7c0 .11-.46-.19-.57-.27a3.13 3.13 0 0 0 -.8-.45 6.72 6.72 0 0 0 -.57.59c-.17.18-.33.36-.51.53a7.29 7.29 0 0 1 -1.17 1 8.55 8.55 0 0 0 -1.07.59 3.63 3.63 0 0 1 -1.34.54c-.28-.09.2-.46.26-.5a3.91 3.91 0 0 0 .65-.4 11.59 11.59 0 0 1 1.16-.79 7.27 7.27 0 0 0 2.06-1.78m-25.44.96c.24-.63 4-2.24 5-2.65.48-.2 1.07-.45 1.43-.62.54-.25 1.1-.48 1.67-.71l.44-.2.3-.1.16-.05.2-.08.31-.14.14-.06a8.4 8.4 0 0 1 1.77-.57c.21 0-.2.85-.27.9a5.87 5.87 0 0 1 -.62.24l-.84.34-.83.34c-.13 0-.65.25-1 .37-1 .42-2.06.85-3.06 1.35-.46.22-1.05.49-1.58.71s-1.17.55-1.75.83a4.13 4.13 0 0 0 -1.29.92c-.2.29 0 .43.21.59a1.29 1.29 0 0 1 .53.58c.06.18-.09.68-.26.62-1.24-.43-1.31-1.4-.64-2.58m53-.73c0-.14-.13-.24-.24-.32a3.93 3.93 0 0 1 -.45-.32 1.17 1.17 0 0 1 -.33-.9c.07-.7.46-1.83 1.06-2a.65.65 0 0 1 .63.15 1.37 1.37 0 0 1 .34.78c0 .19.06.74.08 1.19a2.26 2.26 0 0 0 .09.73 1 1 0 0 1 .52 1.36 5.19 5.19 0 0 1 -.57-.15c-.08 0-.08 0-.25-.19s-.21-.16-.37-.08l-.19.23-.26.31a5.05 5.05 0 0 1 -.63.59l-.34.3a3.94 3.94 0 0 1 -.34.3c-.2.16-.59.49-.62.5s-.35.21-.5.32-.39.27-.6.4l-1.13.67a10.66 10.66 0 0 1 -2.72 1 4.17 4.17 0 0 1 .8-.58c.32-.18.7-.39 1-.6l.38-.24.26-.16.14-.07.14-.08c.2-.13.63-.42.93-.64.55-.38 1.27-.88 1.69-1.14a9.84 9.84 0 0 0 1.56-1.39m-62.1 1.86a7 7 0 0 0 -1.37-2.13c-.3-.37-.6-.64-1-.55s-.92-.38-1-.76a1.69 1.69 0 0 1 .2-1.13c.41-.63 2.83 2.32 2.86 2.37s.57.84.59.54v-.28-.3-.33-.28c0-.6.16-2.08.65-2.44a.9.9 0 0 1 .89.13l.16.2a1.76 1.76 0 0 1 .21.29.78.78 0 0 1 -.19.94c-.09.13-.46-.21-.54-.28s-.4-.36-.69-.23-.16.93-.16 1.18a11 11 0 0 1 -.05 1.26c-.08 1-.25 2.85-.89 3.56a9.61 9.61 0 0 1 -1.11 1.1c-.14.11-1.44.95-1.46.59a4.46 4.46 0 0 1 .69-.68c.28-.23.56-.49.81-.74.46-.46 1.4-1.34 1.4-2.03m33.2 3.13c-.2-.27.54-1.53.86-1.47a3.06 3.06 0 0 1 .63.41 3.16 3.16 0 0 0 .72.44c.1 0 .35-.43.4-.53a1.56 1.56 0 0 1 .51-.69c.17-.12 1.27.85 1.39 1 .4.42-.16 1.47-.55 1.67 0 0-.56-.35-.77-.49l-.78-.52a3.53 3.53 0 0 0 -.28.44 1.31 1.31 0 0 0 -.16.31 2.09 2.09 0 0 1 -.25.47c-.21.3-1.63-.85-1.72-1m14.65-.48a6 6 0 0 1 .31-1.26c.07-.17.5-1.27.6-1a6.34 6.34 0 0 1 -.26.77 4.42 4.42 0 0 0 -.25 1.11c-.08.71.27 1.48.81 1.6.25.06.33-.26.38-.45s.17-.69.3-.52c.4.55-.55 1.93-.86 2-.8.29-1-1.59-1-2.24m-30.88 1.14a2.76 2.76 0 0 1 .74-1.3c.22-.18 1.64 1 1.71 1.12.17.41-.59 1.61-1 1.37s-1.5-1-1.47-1.19m45.1.91a4.27 4.27 0 0 1 -.2-1.34 5.18 5.18 0 0 1 .39-1.47c0-.11.71-1.24.56-.75a2.82 2.82 0 0 1 -.26.69 2.68 2.68 0 0 0 -.3.93c0 .47.27 1.8.76 1.39a.77.77 0 0 0 .28-.36c.06-.15.13-.33.2-.35s-.09.94-.14 1a1.48 1.48 0 0 1 -.5.65c-.2.13-.6-.25-.79-.44m-49.24 1.42c.06-.27-1.5 0-1.71 0a1.09 1.09 0 0 0 -.61.23c-.15.15-.43.43-.5.43-.29 0 .48-1.39.48-1.39.21-.38.79-.5 1.31-.58a5.67 5.67 0 0 1 1.31-.12c.19 0 1.25.08 1.1.3l-.16.29-.14.26c-.11.16-.22.31-.32.48a2.31 2.31 0 0 1 -.76.85l-.14.06-.14.08-.41.25a2 2 0 0 1 -.91.32c-.18 0 .29-.44.31-.45l.32-.24.17-.09a3.06 3.06 0 0 0 .8-.72m39.07 4.51c.16-.26-.73-.8-1-.87-.65-.14-1.48.11-1.44.72s2.09.24 2.46.15m-14.1.68c.11-.38-1.48-1.22-1.9-1.45-.18-.09-.44-.23-.66.1l-.08.14c-.08.12-.16.26-.24.37a3.75 3.75 0 0 0 -.61 1.31 1 1 0 0 0 1.45.83l.2-.06.24-.13.55-.3a5 5 0 0 0 1.05-.81m-36.91-1.21a2 2 0 0 0 0-.5 5.58 5.58 0 0 1 .16-.87l.2-.87v-.2-.19l.2-.74c0-.23.13-.51.2-.74s.28.46.28.51a6 6 0 0 1 -.2 1.07 6 6 0 0 0 -.24 2.25c.17.81.44 2 1 2.08.35 0 .44-.45.5-.77s.34-.91.36-.32a3.31 3.31 0 0 1 -.64 2.31c-.11.1-.47.31-.7.15-1-.74-1.09-1.72-1.13-3.17m32.8 3.09a7.29 7.29 0 0 1 .34-2.52 4.53 4.53 0 0 1 .28-.69l.15-.28a.93.93 0 0 0 .18-.43c0-.1-.46-.48-.57-.56a5.48 5.48 0 0 1 -.75-.6l-.08-.12-.12-.08-.1-.14c-.09-.11-.22-.25-.3-.33a1.76 1.76 0 0 0 -.33-.27.58.58 0 0 1 -.3-.4 3.55 3.55 0 0 1 .09-1.55c0-.13.25 0 .26 0a1.71 1.71 0 0 0 .35.22l.52.2.56.22.79.32c.13.07.27.25.1.35l-.22.06-.39.1c-.14.11.44.5.47.52.23.15.55.36.7.43.33.17.39.1.58-.18a8.16 8.16 0 0 1 .5-.66 4.46 4.46 0 0 0 .41-.56 2.87 2.87 0 0 1 .25-.33l.24-.32c.2-.26.82-1.1 1-1.06s-.17.78-.19.86a8 8 0 0 1 -.47 1.2c-.09.12-.24.35-.24.35s-.21.27-.31.41a5 5 0 0 0 -.52.87c0 .08.31.25.41.31a4.35 4.35 0 0 1 .45.3 3.09 3.09 0 0 1 .43.37l.16.17.16.2a3.08 3.08 0 0 1 .4 1.12c.26 2.15-1.66 3.47-3.4 3.78-1 .18-1.27-.56-1.49-1.32m-36.15 1.96a2.86 2.86 0 0 1 -.3-1.29 5.29 5.29 0 0 1 .36-1.58c0-.17.32-1 .47-.85s-.19.75-.23.89a4 4 0 0 0 -.16 1.12 1.46 1.46 0 0 0 .14.54 1.35 1.35 0 0 0 .16.32.75.75 0 0 1 .12.2c0 .13.42 0 .47-.14s.31-.55.32-.54c.17.29-.2 1.15-.3 1.35-.27.53-.64.27-1.05 0m31.58-4.26c-.09-.76-.21-1.74-.32-2.3-.14-.71-.24-1.56-.32-2.23s-.23-1.68-.35-2.44-.27-1.57-.36-2.38l-.08-.59-.08-.47a1.57 1.57 0 0 0 0-.28c-.06-.29-.08-.52-.12-.83s-.1-.8-.16-1.23-.09-.63-.12-1a3.86 3.86 0 0 0 -.23-1.08 1.31 1.31 0 0 1 -.14-.83c.09-.35.31-1.23.46-1.29s1.21 2 1.31 2.28c.18.46.35.84.56 1.27 0 0 .83 1.9.2 1.56a.35.35 0 0 1 -.2-.18 3.69 3.69 0 0 0 -.23-.3 4.7 4.7 0 0 0 -.49-.5 23.27 23.27 0 0 0 .42 3.57c.12.73.43 2.88.64 4.32v.24c.05.28.05.28.08.55a8.33 8.33 0 0 0 .12.87v.24.4a3.85 3.85 0 0 0 .08.47v.2.22l.08.53c.12.81.21 2 .27 2.89a6.24 6.24 0 0 1 0 1.21 7.46 7.46 0 0 0 -.05 1.43 6.51 6.51 0 0 1 -.68 2.17c-.12.08-.12-1.4-.12-1.54 0-.71 0-1.44-.08-2v-.32c0-.24 0-.24 0-.41v-.14l.05-.22v-.47c0-.05-.07-.86-.07-.89v-.12a1.36 1.36 0 0 0 0-.38m30.43 4.57a1.56 1.56 0 0 1 1 .06 1.28 1.28 0 0 0 .8.26c.54 0 .94-.65 1.17-1 .08-.14.1-.18.25 0v.42a.88.88 0 0 0 .85.14c.09-.07.11-.18.15-.35a4.17 4.17 0 0 1 .1-.43c0-.11.18-.51.37-.49s0 .88-.11 1.08a3.88 3.88 0 0 1 -.65 1.08c-.25.34-.86.09-1.13 0s-.32.06-.49.2a1.72 1.72 0 0 1 -.78.37 1.12 1.12 0 0 1 -.75-.13 1.17 1.17 0 0 0 -.88-.22 13.4 13.4 0 0 0 -2.46 1.3c-.58.39-2 1.28-2.74 1.1-.15 0 .55-.38.55-.38l.74-.44.6-.4a2.7 2.7 0 0 0 .34-.25l.23-.16.13-.07c.81-.53 2.55-1.64 2.64-1.68m-16.39 4.03a4.62 4.62 0 0 1 -1.18-1.34 5.88 5.88 0 0 1 -.34-3.13c.07-.66-.21-.44-.52-.19l-.36.23a4.08 4.08 0 0 0 -.51.33 29 29 0 0 1 -3.25 2 15.46 15.46 0 0 1 -3.92 1.35c-1.05.26-4.45.93-4.62.89s.56-.47.56-.47c.21-.1.61-.24.92-.36a1.54 1.54 0 0 0 .3-.12l.53-.21.14-.06.26-.1.28-.1c.26-.1.53-.21.8-.3s.49-.18.65-.26l.82-.39.14-.08.14-.08a2.71 2.71 0 0 1 .42-.2c2-.85 9.74-5.51 9.71-6.89a5.19 5.19 0 0 0 -.66-1.27c-.25-.38-.46-.78-.68-1.19a11.16 11.16 0 0 1 -1.21-2.85c0-.18.24-1.54.38-1.48a13.46 13.46 0 0 1 2.12 2.38c0 .07-.24 0-.29 0s-.63-.15-.62 0a9.86 9.86 0 0 0 .81 1.53 6 6 0 0 1 .8 1.67 5.94 5.94 0 0 1 -.08 2.3 3.53 3.53 0 0 1 -1.09 1.64 2.83 2.83 0 0 1 -.35.31l-.2.18c-.28.27-.75.73-.78.78a4.18 4.18 0 0 0 -.18 1.56 2.68 2.68 0 0 0 .57 1.45 3 3 0 0 0 2.55 1.19c2.83 0 6.56-3.28 7.93-5.14.23-.31.24-.93-.41-.84l-.16.06-.31.1-1 .15c-1.12.16-2.62 0-2.81-1.12-.34-2.07 1.22-4.57 3.41-3.17a3.54 3.54 0 0 1 .87.77l.19.23.09.13.17.23a3.15 3.15 0 0 0 .39.46c.26.13 2.07-1.21 2.3-1.39a4.1 4.1 0 0 1 1-.69c.38 0 .36.32.34.77a1.57 1.57 0 0 0 .14.93 2.24 2.24 0 0 0 1 .89 2.59 2.59 0 0 0 1.44.14 2.62 2.62 0 0 0 1.37-.65 6.6 6.6 0 0 0 1-1.31c0-.06.12-.22.18-.31l.05-.14.08-.14.08-.2c.07-.14.45-.67.6-.43s-.12.66-.2.79-.29.52-.16.77a2.44 2.44 0 0 0 1.24.83c.36.12 1.68.31 1.61-.3a1.73 1.73 0 0 0 -.23-.54c-.22-.38-.3-.52-.29-.64s.26-1.33.42-1.33c.62 0 .9 2.31.82 3a7.43 7.43 0 0 1 -.65 1.4c-.46.84-2.42.14-2.93-.27a2.9 2.9 0 0 1 -.48-.51c-.21-.26-.27-.3-.46 0a2.6 2.6 0 0 1 -.87 1.07c-1.58.79-3.42 1.09-4.22-.73a2.46 2.46 0 0 1 -.14-.38c0-.23-.14-.66-.21-.65a4 4 0 0 0 -.77.57l-.79.56a3.21 3.21 0 0 0 -.73.63 3.53 3.53 0 0 0 -.08.72 5.49 5.49 0 0 1 0 .55 2.49 2.49 0 0 1 -.18.77 8 8 0 0 1 -.8 1.23l-.19.22-.25.31a3.19 3.19 0 0 1 -.31.33 1.27 1.27 0 0 0 -.23.28 16.56 16.56 0 0 1 -3.1 2.52 5.77 5.77 0 0 1 -5.78.75m-23.47-.39a4.82 4.82 0 0 1 .64-2.79c.14-.26.1.23.08.27s-.09.3-.13.42a2.68 2.68 0 0 0 -.15 1.27c.06.23.23.68.43.75a.36.36 0 0 0 .38-.18 1 1 0 0 0 .14-.3c.05-.11.08-.21.15-.22.27 0-.06 1-.09 1a1.38 1.38 0 0 1 -.54.71c-.55.3-.85-.55-1-.95m-18.6 2.43c.25-.18 6.87-3.28 6.94-3.3.27 0 0 .89-.17 1a7.2 7.2 0 0 0 -.93.47l-1.1.5-1 .43-1.13.52-.5.24-.5.23-.49.24c-.16.09-.38.22-.48.26l-.93.39c-.09 0 0-1 .29-1" fill="#221e1f" fill-rule="evenodd"/></svg>