<svg viewBox="0 0 77.52 29.23" xmlns="http://www.w3.org/2000/svg" xmlns:xlink="http://www.w3.org/1999/xlink"><clipPath id="a"><path d="m0 29.24h77.52v-29.24h-77.52z"/></clipPath><g clip-path="url(#a)"><path d="m18.14 4.86h-.49l-.23-.17-.2-.23a2.7 2.7 0 0 1 -.3-1.46v-.36l.08-.41a2.66 2.66 0 0 1 .16-.55 3.79 3.79 0 0 1 .12-.36l.08-.23c0-.15.2-.61.2-.61a6.17 6.17 0 0 1 -.1.85 3.72 3.72 0 0 0 -.11 1.51c.08.32.26.89.53 1h.14c.19 0 .27-.15.32-.32s.18-.53.24-.53c.5.29-.37 1.72-.5 1.89m10.69.52-.08-.17-.06-.16-.08-.2-.16-.3-.08-.14-.08-.17a7.33 7.33 0 0 0 -.63-1c-.17-.23-.43-.57-.66-.57h-.08a1.43 1.43 0 0 1 -.86-.53 1.63 1.63 0 0 1 0-1.16.29.29 0 0 1 .25-.14c.75.03 2.13 2.14 2.15 2.19l.44.49v-.73c0-.19 0-.53 0-.65a4.13 4.13 0 0 1 .53-2 .3.3 0 0 1 .23-.16.59.59 0 0 1 .4.18c.2.25 1 1.31.44 1.59l-.34-.22-.31-.32a.65.65 0 0 0 -.36-.23c-.25 0-.25.41-.25.72v1a8 8 0 0 1 0 1c0 .31-.2 1.6-.35 1.6m-16 .53-.22-.47a8.72 8.72 0 0 0 -.4-.81 4.23 4.23 0 0 0 -.41-.6c-.14-.17-.27-.34-.4-.52a.32.32 0 0 0 -.4-.11h-.12a.65.65 0 0 1 -.38-.17 2 2 0 0 1 -.5-.55c0-.14.13-1.06.23-1.06a1.52 1.52 0 0 1 .69.27l.13.09.22.17.82 1c.14.21.29.45.4.63s.28.5.38.5v-1.48a3.85 3.85 0 0 1 0-1 2.63 2.63 0 0 1 .5-1.29.36.36 0 0 1 .2-.06c.53 0 1.24 1 .72 1.48l-.49-.17c-.21-.15-.3-.21-.44-.21h-.06l-.08.92a8.7 8.7 0 0 1 -.08 1.47c-.06.39-.15 1-.19 1.19s-.19.82-.28.82m52.06.36v-.25-.2l-.17-.34-.16-.25a1.22 1.22 0 0 1 -.2-.21 5.72 5.72 0 0 0 -.77-1 1.49 1.49 0 0 0 -.53-.39h-.14-.07s-.08 0-.21-.09a1.91 1.91 0 0 1 -.93-.77 1.14 1.14 0 0 1 .19-.92.3.3 0 0 1 .16-.05c.5 0 1.52.93 1.73 1.14a7.12 7.12 0 0 1 .58.71c.14.19.64.88.66.88a12.55 12.55 0 0 0 .13-2.16 2.85 2.85 0 0 1 .22-1 3.76 3.76 0 0 1 .8-1 .35.35 0 0 1 .25-.1.9.9 0 0 1 .62.38c.28.43.27.63.1 1.22s-.41-.33-.41-.33a.92.92 0 0 0 -.58-.33l-.41.2-.15.17-.07.44v1.7c0 .4-.18 2.57-.53 2.57m-15 .36c-.15-.18.11-.92.22-1l1.1-.71.28-.16.51-.32c.68-.41 1.42-.87 2-1.22s1.48-.85 2.19-1.29a16.74 16.74 0 0 1 2.25-1.15c.27.08-.26.82-.27.83a29.19 29.19 0 0 1 -4.47 2.76c-.18.1-.41.22-.51.29s-.51.32-.84.51l-.24.15-.28.16-.35.2c-.27.15-.73.46-1.06.67l-.56.28m-4.1-5.08c-.22 0-.57.2-.57.33-.11.37.56.88.8.88a.08.08 0 0 0 .08 0 1.28 1.28 0 0 0 -.15-1.1c0-.05-.09-.06-.16-.06m-4.05 5.61h-.09c-.39-.09.37-.57.37-.57a4.29 4.29 0 0 0 .55-.4c.08-.07.73-.55 1.06-.79a12.74 12.74 0 0 0 1.07-.82c.16-.16.87-.82.75-1l-.2-.2-.17-.19a1.5 1.5 0 0 1 -.34-.69 2.05 2.05 0 0 1 1.17-2h.17c.27 0 .41.32.47.55a2.92 2.92 0 0 1 0 .93 7.29 7.29 0 0 0 0 1.13 2.45 2.45 0 0 1 1 .91c.11.18 0 .6-.13.76l-.66-.41a1.5 1.5 0 0 0 -.66-.29.27.27 0 0 0 -.22.1 13.36 13.36 0 0 1 -1.08 1.17c-.4.39-2.25 1.82-3 1.82m31.28-5.89a.67.67 0 0 0 -.46.24c-.3.33 0 .57.21.75a2.59 2.59 0 0 0 .82.45c.32 0-.06-1.13-.18-1.28a.64.64 0 0 0 -.39-.16m-6.72 7.44h-.09l.67-.55c.1 0 .74-.42 1.06-.62.61-.37 1.2-.76 1.79-1.15a22.83 22.83 0 0 0 3.29-2.69 2.26 2.26 0 0 0 -.59-.49 1.18 1.18 0 0 1 -.5-.8 2.58 2.58 0 0 1 .9-2 .67.67 0 0 1 .3-.08.6.6 0 0 1 .39.14 1.37 1.37 0 0 1 .4.87c0 .17.1.9.12 1.23a1 1 0 0 0 .29.72l.29.29c.1.18.26.76 0 .93l-.5-.28a1.26 1.26 0 0 0 -.56-.24h-.09l-.45.53v.12l-.62.58a11.42 11.42 0 0 1 -1.38 1.11c-.16.1-.35.24-.57.4l-.14.08-.36.24c-.15.1-.84.49-1.15.67a10.52 10.52 0 0 1 -2.5 1m-64.14.8a1.17 1.17 0 0 1 -.85-.58l-.14-.26-.08-.24a6.18 6.18 0 0 1 -.16-1.08 5.81 5.81 0 0 1 .2-1.82c.1-.35.67-2 .93-2l-.3 1.19a6.39 6.39 0 0 0 -.32 1.6c0 .68.25 2 .87 2 .18 0 .33-.22.39-.34l.08-.28c0-.13.09-.4.18-.4h.06c.2.15 0 1.28-.13 1.54-.18.45-.44.64-.72.64m29.62.45a.86.86 0 0 1 -.66-.56 2.68 2.68 0 0 1 -.11-1.54c.08-.46.47-2.08.71-2.13l-.11.78c-.05.21-.09.42-.12.64a6.77 6.77 0 0 0 0 1.11l.06.19.08.14a.56.56 0 0 0 .36.28c.15 0 .26-.31.31-.46l.23-.45c.26.28-.4 1.89-.69 1.94h-.06m14 .11c-.45 0-1.3-.84-1.59-1.12-.09-.28.47-1.15.63-1.34a.13.13 0 0 1 .11 0 1.77 1.77 0 0 1 .71.36 2.36 2.36 0 0 0 .82.44l.17-.25.1-.14.08-.2.08-.14c.11-.18.27-.44.46-.47.28 0 1.28 1 1.45 1.18s-.55 1.46-.7 1.48a6.8 6.8 0 0 1 -1.2-.85.38.38 0 0 0 -.22-.1c-.14 0-.23.17-.35.39a4.82 4.82 0 0 1 -.5.83h-.08m14.13.56a.85.85 0 0 1 -.49-.22 2.31 2.31 0 0 1 -.58-1.74c0-.55.56-2.61.89-2.61l-.3 1a3.46 3.46 0 0 0 -.2 1.27c0 .33.45 1.36.83 1.36a.24.24 0 0 0 .2-.11l.16-.26a3.4 3.4 0 0 1 .24-.68h.07c.21 0-.15 1.21-.15 1.21a1.49 1.49 0 0 1 -.49.79.35.35 0 0 1 -.19.06m13.79.22a.67.67 0 0 1 -.59-.44 2.83 2.83 0 0 1 -.22-1.38 6.63 6.63 0 0 1 .4-1.47 5.13 5.13 0 0 1 .53-.86s0 0 0 .11a4.8 4.8 0 0 1 -.3.83 1.88 1.88 0 0 0 -.22 1 2.53 2.53 0 0 0 .3 1.07.29.29 0 0 0 .26.17.54.54 0 0 0 .35-.16.74.74 0 0 0 .17-.33l.19-.25c.27.13-.32 1.42-.39 1.5a.66.66 0 0 1 -.47.22m-52.41 2.28h-.09c-.18-.07.68-.64.73-.68a4.46 4.46 0 0 0 .8-.63c.13-.22-1-.22-1-.22a2.49 2.49 0 0 0 -.89.12l-.2.06-.14.08-.23.19a3.09 3.09 0 0 1 -.44.34c-.26 0 .34-1 .39-1.08a2.11 2.11 0 0 1 .79-.76 6.23 6.23 0 0 1 1.75-.23 2.34 2.34 0 0 1 1.38.3c.2.17-.25.84-.38 1s-.34.41-.58.68l-.18.15h-.18l-.18.08-.28.16-.14.08a2.68 2.68 0 0 1 -.88.29m-9.9.29c-.37 0-.89-.15-.88-.42a2.58 2.58 0 0 1 .67-2.43 14 14 0 0 1 2.45-1.24l.16-.06.12-.05.08.01.7-.3c.51-.19 1-.4 1.51-.61.87-.38 1.79-.74 2.64-1.07l1.43-.6a5.27 5.27 0 0 1 1.31-.43h.1c.13.07-.17.89-.27.94-.58.32-3.43 1.41-5.24 2.11-1.56.59-4.76 1.89-5.29 2.65-.19.26.19.46.39.57a.68.68 0 0 0 .28.1l.34.18c0 .25-.09.6-.32.67a.75.75 0 0 1 -.23 0m4.65 2.38c-.35 0-.62-.49-.78-.77l-.07-.24-.09-.39v-.54-.26-.27a5.37 5.37 0 0 1 .23-.92c.05-.12.28-.81.38-.81a3 3 0 0 1 -.11.65 3.76 3.76 0 0 0 -.12 1.42c.06.31.31 1 .62 1 .22 0 .32-.18.39-.37s.17-.51.24-.51c.19.1-.1 1.29-.19 1.48s-.33.51-.58.51m-15.24 1.59c-.19 0 0-.5 0-.64s.28-.67.27-.68l-.14-.13a1 1 0 0 1 -.26-.14 1.17 1.17 0 0 1 -.44-.47c-.11-.39.38-1.25.59-1.54a12.86 12.86 0 0 1 1.65-1.47.6.6 0 0 1 .41-.15 1.1 1.1 0 0 1 .94.62c0 .1-.14.45-.22.61s-.23.47-.24.5a0 0 0 0 1 0 0c-.11 0-.39-.29-.39-.29a1.12 1.12 0 0 0 -.61-.28c-.25 0-2.59 1 .41 1.78h.15a8 8 0 0 0 1.36-.17 7.66 7.66 0 0 1 1.15-.23h.05c.24 0-.45 1.08-.5 1.14l-1.26.36a11.38 11.38 0 0 0 -1.55.55l-.16.06-.16.08-.28.14-.16.06-.16.08-.13.05-.14.08-.14.08m45.83-1.83a7.42 7.42 0 0 0 -1.1 2 1 1 0 0 0 .28.85 1 1 0 0 0 .62.18.77.77 0 0 0 .32-.05c.65-.33 2.19-1.1 2.25-1.45s-1.9-1.51-2.34-1.51m-.57 4.78a.79.79 0 0 1 -.77-.4l-.09-.13a.55.55 0 0 1 -.15-.28 3.57 3.57 0 0 1 -.18-.84 6.28 6.28 0 0 1 .62-2.87c.05-.12.05-.12.15-.32a1.43 1.43 0 0 0 .18-.41 5.66 5.66 0 0 0 -.8-.72c-.14-.11-.51-.48-.76-.72a8.39 8.39 0 0 0 -.82-.75c-.32-.26-.28-1.4-.11-1.85l.31.09a1.17 1.17 0 0 0 .35.19l.35.13.66.24c.28.1.52.19.76.3s.34.23.17.37l-.17.05h-.23l-.22.18a4.74 4.74 0 0 0 1.33.93c.3 0 1.19-1.32 1.37-1.6a18.06 18.06 0 0 1 1.32-1.68c.37 0-.52 2.05-.58 2.13-.31.45-1 1.56-1 1.61l.82.59a2.4 2.4 0 0 1 .76.76c.14.27.53 1 .45 1.22v.4.24.43a2.3 2.3 0 0 1 -.22.7 5.43 5.43 0 0 1 -3.37 2m-15 .05c-1 0-.79-3.54-.13-4.13q.06-.06.09-.06c.12 0-.12.83-.13.87a3.39 3.39 0 0 0 -.08 1.51c.06.28.27.66.53.66a.38.38 0 0 0 .18-.06.93.93 0 0 0 .21-.41l.23-.41c.32.33-.41 1.85-.63 2a.6.6 0 0 1 -.27.07m-21.68.43c-.18 0-.15-.51-.15-.6a6.18 6.18 0 0 0 0-1.07v-.86a10.85 10.85 0 0 0 -.48-2.4s-.19-1.08-.31-1.78-.25-1.39-.36-2.1c-.08-.52-.18-1.09-.28-1.71l-.06-.27v-.16-.24a3.46 3.46 0 0 0 -.08-.4s-.08-.48-.12-.75l-.22-.85c0-.26 0-.26-.08-.47s-.08-.46-.12-.72l-.36-2.45v-.28-.28-.24-.39a2.58 2.58 0 0 0 -.13-.44.66.66 0 0 1 -.06-.55c.1-.5.25-1.27.57-1.39l.08.3-.08.17c.1.18.23.39.33.56l.07.15.16.29.06.12.06.15.1.12.08.14a7 7 0 0 1 .92 2.32s0 .05-.07.05-.46-.36-.46-.36c-.16-.19-.34-.42-.55-.44l.22 1.5c0 .08.08.59.12.87s.1.64.16 1c.17 1 .39 2.18.55 3a40.55 40.55 0 0 1 .92 6.14v.75a7 7 0 0 1 0 1.19c0 .25 0 .25-.06.43v.16.16.18a4.62 4.62 0 0 1 -.43 1.46h-.18m-9.09.06c-.13 0-.13 0-.13-.15a1.55 1.55 0 0 1 .2-.64l.23-.21.14-.09a1.75 1.75 0 0 1 .32-.21l.28-.13a4.63 4.63 0 0 1 .44-.24c.25-.13.54-.29.77-.44a8.29 8.29 0 0 1 .84-.43c.51-.24 1.2-.57 1.57-.8a1.9 1.9 0 0 1 .66-.27.14.14 0 0 1 .16.12c0 .25-.11.8-.34.87s-2 1-2.95 1.46l-.87.44-.16.08-.14.08-.15.1-.16.08-.26.15-.37.23zm40.7 2.16c-.11 0-.08-.34-.07-.55a2.4 2.4 0 0 0 0-.68v-.71a5.28 5.28 0 0 1 0-.79 27.51 27.51 0 0 0 -.36-3.09c-.12-.76-.27-1.89-.4-2.85s-.25-1.71-.4-2.58v-.16-.2-.31a6 6 0 0 0 -.08-.64l-.08-.47v-.28-.28-.27l-.4-2.54c-.13-.77-.25-1.44-.32-2.14-.1-.88-.29-1.86-.44-2.65-.08-.44.25-1.89.59-2l.2.53a3.53 3.53 0 0 0 .25.56c.09.19.17.35.25.55s.24.53.24.54c.18.35.35.73.52 1.13 0 .1.54 1.34.25 1.34a.19.19 0 0 1 -.11 0l-.37-.41-.46-.35c-.05 0 0 .48 0 .64v.36.32.19.16.24l.06.16v.24c0 .25 0 .25.08.47l.08.44.12.67v.28.28l.06.37a9.22 9.22 0 0 1 .3 1.77c0 .26.15 1 .24 1.54v.24c0 .24.07.46.09.51s.11.61.15.91c.22 1.4.48 3.08.56 4.4.1 1.59.22 3.45-.28 4.6-.06.14-.22.48-.32.51m24.8 1.31h-.17c-.2 0 1.11-.72 1.17-.74a13.05 13.05 0 0 0 1.3-.88 17.35 17.35 0 0 1 2.68-1.76 2.13 2.13 0 0 1 .57-.11.78.78 0 0 1 .22 0c.88.31 1 .36 1 .36a1.58 1.58 0 0 0 .83-.5c.1-.12.48-.59.57-.59v.34l.2.16a1.06 1.06 0 0 0 .43.13.68.68 0 0 0 .23-.05c.11 0 .18-.41.24-.67a1.29 1.29 0 0 1 .35-.69l.08.59a2.58 2.58 0 0 1 -.16.57 4.06 4.06 0 0 1 -.25.64l-.15.25-.2.16c0 .1-.39.17-.56.17l-.32-.1-.28-.14c-.13 0-.31.15-.5.3a1.92 1.92 0 0 1 -.72.34h-.16a1.45 1.45 0 0 1 -.68-.24.9.9 0 0 0 -.47-.17h-.28a3.47 3.47 0 0 0 -1.3.66c-.36.26-.89.64-1.13.79a6.52 6.52 0 0 1 -2.55 1.11m-38.57.84c-.33 0-.87-.06-.49-.32l.29-.09.32-.07.36-.12.2-.06a16.26 16.26 0 0 0 2.43-.95 5 5 0 0 1 .79-.44s.6-.36.92-.55l.89-.57a4.91 4.91 0 0 1 .77-.59 5.34 5.34 0 0 0 1.35-1.48 3 3 0 0 0 -.29-1.7 13.17 13.17 0 0 0 -1.88-2.89l-.29-.33a2.32 2.32 0 0 0 -.3-.29l-.38-.39-.35-.4c-.08-.09-.43-.42-.62-.59s-.48-.45-.75-.72l-.21-.19-.53-.5-.2-.2-.4-.38c-.44-.44-1.15-1.17-1.35-1.36-.43-.4-1.07-1.06-1.28-1.3a13.75 13.75 0 0 0 -1.25-1.42c-.1-.09-.78-1-1.18-1.55a10.19 10.19 0 0 0 -1.23-1.39c-.4-.38-.26-1.73-.14-2.12a.43.43 0 0 1 .15 0c.07 0 .14 0 .12.18s1.61 1.21 1.87 1.33a9.11 9.11 0 0 1 1 .61c.16.11.94.63.64.85a.32.32 0 0 1 -.18 0 2.08 2.08 0 0 1 -.52-.11 2.11 2.11 0 0 0 -.55-.14c-.1 0-.17 0-.16.1 0 .37 3.35 3.74 4.18 4.56s1.56 1.56 2.17 2.08a13.9 13.9 0 0 1 2.08 2.2 14.26 14.26 0 0 1 1.81 3l.06.16.06.16a1.94 1.94 0 0 1 .12.43l.27 1.56a2.36 2.36 0 0 0 .33-1.06 12.6 12.6 0 0 0 -.32-2.44c-.13-.67-.28-1.38-.36-1.9-.23-1.5-.45-2.91-.71-4.36-.06-.29-.11-.6-.16-.91s0-.23-.08-.55a4.92 4.92 0 0 0 -.02-.57c-.06-.3-.12-.59-.16-.91s0-.28-.08-.59l-.12-.87c-.05-.3-.1-.59-.16-.87s0-.18-.08-.6v-.35-.16-.32c0-.24-.12-.71-.12-.71a1.13 1.13 0 0 1 -.08-.76l.08-.23.08-.36a2.26 2.26 0 0 1 .23-.73l.25.53a2.59 2.59 0 0 0 .3.6 7.26 7.26 0 0 1 .57 1.07l.14.31a1.39 1.39 0 0 1 .16.32l.28.67c.1.24.43 1.14.29 1.28l-.58-.44c-.16-.19-.42-.51-.54-.54a23.28 23.28 0 0 0 .54 3.55c.18.94.4 2.18.52 2.89.34 2 1 6 .92 6.79a15.87 15.87 0 0 1 -.3 2.75 18.16 18.16 0 0 1 -1.3 2.22 17.36 17.36 0 0 1 -2.26 1.79c-.87.64-3.74 1.14-5.35 1.41h-.23m-19.56.57a3.92 3.92 0 0 1 -1.54-.48 3.67 3.67 0 0 1 -1.1-3.41 6 6 0 0 1 1.2-2.53c.25-.38.71-1.06.8-1.18a3.49 3.49 0 0 1 1-.68s0 0 0 .11c-.54.76-2.59 4-2.31 4.84v.67l.08.36a3.85 3.85 0 0 0 .19.47 1.22 1.22 0 0 0 1.17.55 3 3 0 0 0 .69-.09c1.07-.27 2.56-1.83 3.48-2.81a4.32 4.32 0 0 1 .37-.39l.2-.2.18-.2a1.59 1.59 0 0 1 .17-.18l.19-.19c.05-.07.87-.8 1.25-1.14l.4-.31c.26-.47 2.37-1.4 3.08-1.63a3.1 3.1 0 0 1 1-.14 3.11 3.11 0 0 1 1.56.34c.08.06.33.27.59.52.07.06.52.31.79.47a2.34 2.34 0 0 0 .93.15 1.46 1.46 0 0 0 .54-.07 4.44 4.44 0 0 0 1.36-.88c.05-.06.45-.66.71-1 0-.05.15-.28.24-.45s.21-.4.4-.4a.24.24 0 0 1 .13 0l-.13.58a1 1 0 0 0 -.07.7c.06.48 1.24.82 1.66.82.23 0 .74-.11.7-.41a4.67 4.67 0 0 0 -.35-.58 2 2 0 0 1 -.22-.75c0-.25.25-1.17.53-1.17 0 0 .08 0 .13.08a3 3 0 0 1 .5 1.72 5.53 5.53 0 0 1 -.53 2.12 2 2 0 0 1 -3.13-.35c0-.08-.08-.11-.13-.11s-.3.24-.4.4a5.26 5.26 0 0 1 -.49.65 3.52 3.52 0 0 1 -1.54.86 1.32 1.32 0 0 1 -.39.06 3.11 3.11 0 0 1 -1.66-.68 5.23 5.23 0 0 0 -1.5-.83 3.34 3.34 0 0 0 -.8-.08 1.52 1.52 0 0 0 -.67.1l-.32.12a2.56 2.56 0 0 0 -.4.16l-.28.12-.43.21a6.88 6.88 0 0 0 -1.23.81c-.48.4-1.32 1.22-2 1.86-.15.15-.42.41-.46.46l-.47.51-.2.2-.3.31-.19.2-.27.28a6.74 6.74 0 0 1 -2.3 1.5 1.4 1.4 0 0 1 -.41.06m54.13-10.32c-.52 0-1 .23-1.1.68s1.05.4 1.22.41c.22 0 1.33-.12 1.32-.31s-.85-.71-1.14-.76a1.73 1.73 0 0 0 -.32 0m-5 10.32a5.38 5.38 0 0 1 -1.88-.37 14.46 14.46 0 0 0 -1.21-1c-.21-.11-.5-.86-.6-1.16a5.08 5.08 0 0 1 -.2-1.07s0-.64 0-.91a6.93 6.93 0 0 0 0-1c-.07 0-1 .63-1.34.85l-.58.4-.74.42c-.48.26-1 .57-1.47.87-.13.09-1 .54-1.55.8a19.86 19.86 0 0 1 -3.48 1l-.9.2c-.2.05-.37.08-.6.12l-.52.12a12.85 12.85 0 0 1 -1.74.39c-.66-.17 2.7-1.42 2.86-1.48a22.51 22.51 0 0 0 3.22-1.46c2-1.13 4-2.33 5.89-3.54.7-.45 3.56-2.56 3.49-3.28a3.8 3.8 0 0 0 -.26-.65l-.16-.26c-.09-.13-.21-.31-.24-.37a1.51 1.51 0 0 0 -.16-.3l-.18-.16-.07-.12a4.19 4.19 0 0 0 -.23-.36v-.11-.14a18 18 0 0 1 -1.22-2.83 7.89 7.89 0 0 1 .32-1.44l1.34 1.32.29.28a2.89 2.89 0 0 1 .35.35c.07.09.3.41 0 .42h-.09-.16-.46c-.18.09.72 1.55.78 1.64a5.21 5.21 0 0 1 .78 1.66c.09.94.19 2.51-.48 3.19l-2 2.08a6.84 6.84 0 0 0 -.16 1.55 4.13 4.13 0 0 0 .62 1.5 2.37 2.37 0 0 0 2.19 1.06 8.39 8.39 0 0 0 4.3-1.57 18.83 18.83 0 0 0 2.28-1.88l.57-.54s0 0 .31-.32l.21-.21c.19-.23.88-1 .74-1.25s-.27-.38-.37-.38a10.38 10.38 0 0 1 -2.6.48h-.19a2.34 2.34 0 0 1 -1.32-.53 2.2 2.2 0 0 1 -.45-.92c-.27-1.45.76-3.33 2.24-3.33a2.05 2.05 0 0 1 1 .28 4.16 4.16 0 0 1 1.09.9 5.79 5.79 0 0 1 .43.55c.11.17.32.47.46.47a9 9 0 0 0 2.19-1.32l.2-.24.34-.24.13-.09.29-.21h.15c.29 0 .29.19.29.49a3.78 3.78 0 0 0 .08 1.09c.13.26.6.87.91.91l.18.08.16.06a3 3 0 0 0 .64.12h.15a3.33 3.33 0 0 0 .88-.12 3.28 3.28 0 0 0 1.27-.82 5 5 0 0 0 .76-1.22c.07-.14.59-1.17.84-1.17a.09.09 0 0 1 .09.07c.08.16-.13.62-.21.78s-.27.58-.15.78a2.65 2.65 0 0 0 1.39.86 2.2 2.2 0 0 0 .58.08 2.28 2.28 0 0 0 .73-.12c.31-.1.06-.6 0-.77l-.38-.61.08-.34.08-.36a2.48 2.48 0 0 1 .1-.43l.08-.2v-.12c0-.05 0-.07.06-.07s.55.86.55.86a5 5 0 0 1 .37 1.73 3.4 3.4 0 0 1 -.53 1.62 1.37 1.37 0 0 1 -.87.55 3 3 0 0 1 -.55.05 1.94 1.94 0 0 1 -.9-.19 5.09 5.09 0 0 1 -.83-.51l-.3-.29-.18-.25-.16-.17-.26.37a4.07 4.07 0 0 1 -.33.48 2.94 2.94 0 0 1 -.66.61 4.13 4.13 0 0 1 -1.7.61h-.17a3.6 3.6 0 0 1 -1.23-.31 2.14 2.14 0 0 1 -.81-.77 4.91 4.91 0 0 1 -.26-.53 4.7 4.7 0 0 0 -.26-.86l-.53.33-.12.07-.29.29-.24.16a1.78 1.78 0 0 1 -.42.31l-.15.07a7.7 7.7 0 0 0 -.6.54l-.09.62a6.81 6.81 0 0 1 -.07.83 4.88 4.88 0 0 1 -.23.81l-.08.18-.07.14-.25.36c-.13.18-.34.47-.56.74l-.51.56-.22.28a20 20 0 0 1 -3.1 2.58l-.26.16-.17.08-.53.31-.44.2a1.65 1.65 0 0 1 -.32.12l-.43.14a3 3 0 0 1 -1.31.27m-44.59.66a13 13 0 0 1 1.05-1.48c.19-.24.44-.58.18-.81a.25.25 0 0 0 -.16-.06.57.57 0 0 0 -.3.11l-.38.2c.15-.49.35-1.14.64-1.31a.62.62 0 0 1 .31-.1c.49 0 .58.9.44 1.33a3.71 3.71 0 0 1 -1.75 2.14m3.93.1h-.09c-.24 0 1-.85 1-.88l.13-.09.23-.15.13-.09.22-.15c.25-.15.52-.31.76-.47.46-.31.92-.63 1.37-1a7.69 7.69 0 0 1 1.52-1 3.05 3.05 0 0 1 .94-.21.92.92 0 0 1 .29 0 2.17 2.17 0 0 1 .42.17.81.81 0 0 0 .36.12.32.32 0 0 0 .18-.06l.15-.06a.78.78 0 0 0 .28-.16l.24-.25a2.65 2.65 0 0 0 .24-.4c.07-.14.17-.34.26-.36l.08.3c0 .21 0 .38.14.44a1.08 1.08 0 0 0 .33.06.35.35 0 0 0 .32-.15l.05-.35.08-.35a4 4 0 0 1 .12-.41c0-.08.05-.11.07-.11s.1.93.09 1a3.15 3.15 0 0 1 -.43 1.14.66.66 0 0 1 -.35.19h-.29a.89.89 0 0 1 -.27-.06l-.12-.06h-.16a1.36 1.36 0 0 0 -.49.31 1.88 1.88 0 0 1 -.66.28h-.1a.87.87 0 0 1 -.42-.14 1.63 1.63 0 0 0 -.79-.2h-.16a7.25 7.25 0 0 0 -2.8 1.57 8.24 8.24 0 0 1 -2.9 1.4m18 .43.19-.72.19-.11c.13-.06.22-.1.19-.25l-.59-.55c-.14-.13.17-.75.24-.88a3.89 3.89 0 0 1 1.24-1.07l1-.07.1.07.17.15a.41.41 0 0 1 .17.45l-.32.51h-.07c-.14 0-.28-.15-.36-.25a1 1 0 0 0 -.42-.2s-.06 0-.07 0l-.22.05a1.13 1.13 0 0 0 -.34.18l-.22.16-.11.07c-.54.3 1.45.91 1.46.91h.08a5.77 5.77 0 0 0 .81.1 9.43 9.43 0 0 1 1-.13h.14a1 1 0 0 1 -.43.7h-.23-.19-.13-.13-.13l-1.37.24a2.94 2.94 0 0 0 -.82.28 3 3 0 0 1 -.82.31m-.64 2.22.33-.75a36.63 36.63 0 0 1 4.92-1.33c.23 0-.27.69-.27.7s-2.39.71-2.81.8a12.28 12.28 0 0 0 -1.46.4z" fill="#221e1f"/></g></svg>