<svg viewBox="0 0 72.28 25.21" xmlns="http://www.w3.org/2000/svg"><path d="m41.36 1.65c-.09.22.39.65.58.6.24-.07-.02-.72-.1-.82-.11-.13-.4.14-.48.22m26.34.86c.01.21.69.62.93.6.1-.01-.05-.65-.07-.71a.827.827 0 0 0 -.21-.29c-.23-.24-.75.2-.66.4m-57.51.11-.08-.12-.02-.08a1.3 1.3 0 0 1 0-.62c0-.02.08-.22.12-.31l.18-.27c.01-.12.49.09.51.1l.09.05c.07.06.09.07.1.07.28 0 1.29 1.32 1.49 1.62.05.07.26.38.29.12.05-.5.13-.99.27-1.4.15-.44.34-.83.65-1.11.09-.08.45-.14.55-.04.23.23.45.45.49.53.14.27.21 1.12-.17 1.19-.2.04-.46-.22-.64-.39-.36-.36-.47.44-.52.8q-.04.29-.04.31v.12l-.04.23c-.04.33-.1.75-.16 1.09-.04.3-.08.51-.16.7-.03.07-.08.21-.18.31-.02.17-.26-.13-.26-.13a.64.64 0 0 1 -.11-.22s-.16-.32-.24-.47c-.06-.12-.35-.54-.53-.82-.21-.3-.44-.66-.67-.72-.18-.05-.36-.14-.55-.23-.09-.05-.18-.11-.29-.2-.03-.02-.09-.09-.1-.09m46.85.53c-.25-.31-.02-1.07.22-1.23.26-.18 1.02.3 1.17.41l.28.29c.09.05.17.12.38.35.08.07.2.2.26.29l.05.1s.01.02.08.12c.02.03.12.15.16.2.08.09.24.29.25.3.12.18.23.35.31.35l.02-.15.04-.82.04-.41v-.1c.02-.35.07-.63.16-.9.11-.34.31-.68.51-.95.08-.1.29-.33.4-.38a.98.98 0 0 1 .55-.06l.17.09c.08.07.09.08.12.08.38.04.63 1.44.19 1.59-.2.07-.38-.1-.45-.21-.06-.09-.3-.33-.41-.37-.21-.07-.41.09-.49.22-.07.11-.1.22-.11.39l-.04 1.21-.04.58-.04.57c-.03.53-.17 1.33-.39 1.79-.05.1-.25.03-.3 0-.05-.04-.12-.25-.16-.36-.05-.15-.12-.35-.16-.4q-.06-.07-.08-.1s-.08-.17-.08-.17l-.11-.14c-.04-.08-.08-.13-.12-.21-.2-.29-.77-1.08-.95-1.14-.59-.19-.84-.27-.93-.34-.08-.07-.48-.4-.47-.46m-15.79.29c.06-.12-.18-.38-.3-.51-.1-.16-.21-.38-.26-.59-.07-.36.04-.71.16-1.05.02-.09.12-.3.17-.35l.08-.12.03-.09s.34-.34.37-.36c.26-.17.42-.15.82-.1.1.01.31.7.33.86v.27l-.04.31-.04.21c0 .09-.07.83 0 .85.01 0 .09.09.12.12s.1.08.13.1l.09.07.02.09s.16.16.2.18c.33.16.29.67.18 1.03-.1.32-1.2-.4-1.28-.55-.05-.1-.52.38-.52.38l-.12.12-.12.16c-.08.08-.16.15-.25.22-.07.05-.12.11-.18.17q-.12.12-.18.17l-.04.08-.26.21s-.29.21-.29.22l-.2.14-.11.1-.09.03c-.12.08-.28.16-.42.23l-.47.25-.39.18-.2.08c-.26.13-1.09.54-1.29.37-.18-.15.17-.43.25-.49.05-.04.11-.08.18-.11s.19-.12.27-.18c.53-.36 1.75-1.16 1.92-1.23.3-.12 1.62-1.2 1.7-1.46m25.88-.11c0-1.18.17-1.91 1.02-2.44.24-.15.78.27.84.41.09.22.18.48.2.74.04.51.04.64.04.86 0 .17.34 1.04.35 1.04.11.11.17.22.24.36.11.22.04.56-.04.75-.07.15-.33.08-.42 0-.11-.1-.27-.23-.38-.27-.3-.11-.37-.05-.61.18q-.06.09-.28.33c-.25.19-.49.4-.7.62 0 .01-.51.39-.85.64-.88.66-2.22 1.62-3.36 1.95-.27.08-.59.18-.86.28-.25.08-.75.23-.86.18-.3-.15.63-.68.74-.72.3-.11.77-.37 1.02-.57.26-.21.64-.4.98-.56.09-.05.17-.1.25-.16.02-.02.24-.17.38-.27l.16-.08q.09-.05.16-.1t.16-.1c.3-.15 1.2-.82 1.87-1.32.22-.17.8-.62.81-.77 0-.04-.24-.29-.4-.44l-.23-.22c-.03-.05-.2-.32-.22-.31m-56.09 4.61s1.6-1.06 1.64-1.09c.13-.11 1.2-.66 1.72-.92l.4-.2c.06-.05.28-.16.42-.23l.9-.47.09-.05q.06-.04.14-.07s.16-.08.24-.12l.2-.14.24-.1c.09-.04.27-.14.31-.18l.12-.02.08-.04c.15-.07.43-.22.47-.25.28-.24 3.01-1.46 3.92-1.82l.12-.04.19-.08.12-.04.08-.04.58-.23.12-.04q.12-.04.2-.08l.28-.12c.17-.08.35-.17.55-.23.11-.04.22-.09.35-.16l.16-.08.13-.05q.09-.05.22-.11l.23-.08c.13-.04.42-.15.63-.24.15-.06.53-.21.61-.02.16.37-.2.91-.4 1.14-.03.04-1.73.79-2.13.95-.1.04-.2.08-.27.12l-.24.12c-.1.04-.2.08-.27.12l-.08.04-.24.08-1.1.47c-.98.39-2.62 1.21-4 1.9l-.23.12-.08.02q-.1.03-.2.08l-.08.04-.12.1-.24.12-.23.1-.24.12-.47.23-1.76.94c-.59.3-1.19.62-1.75.97-.15.09-.29.16-.44.24-.13.07-.28.17-.39.26-.14.11-.31.21-.47.29-.09.04-.17.1-.25.16-.05.04-.39.09-.32-.07v-.27s.13-.34.14-.35l.06-.27c.04-.07.08-.13.12-.21l.12-.12s.09-.09.09-.11m14.01-1.03c.07-.43.57-2.48.93-2.35.18.07-.11.94-.15 1.07-.14.43-.27 1.01-.23 1.52.05.76.54 1.58 1.08.78.42-.62.2.74.17.85-.07.23-.19.5-.4.68-.13.1-.58.11-.7-.02-.17-.17-.3-.31-.46-.5-.32-.38-.4-1.41-.23-2.01m15 1.58c-.07-.36.13-.74.31-1.01l.03-.09q.08-.12.19-.22l.05-.09.13-.1c-.05-.21.86.37.86.37.2.12.43.27.59.35.15.07.39-.39.45-.53.13-.26.33-.54.73-.49.24.03 1.1.86 1.24 1.08.29.46-.27 1.41-.65 1.57-.23.09-1.26-.73-1.37-.88-.07-.09-.27.23-.27.23l-.09.15-.1.13-.06.16-.09.17a.53.53 0 0 1 -.25.24c-.32.1-.89-.31-1.03-.48-.04-.04-.65-.56-.65-.56m14.5 1.66s-.03-.09-.06-.16l-.08-.16a3.07 3.07 0 0 1 -.2-.74c-.03-.23.11-1.02.19-1.56.05-.29.54-1.55.82-1.46.1.04-.16.69-.19.76-.18.47-.26.9-.23 1.56.01.24.17.51.28.67.05.07.41.45.56.22.04-.05.35-.78.35-.78.02-.19.18.12.18.12q.06.12.04.43c-.01.18-.12.56-.2.7-.15.29-.26.52-.49.7-.16.13-.43.06-.59-.02-.07-.04-.17-.09-.23-.13l-.04-.08s-.07-.06-.12-.08m13.62.85c-.18-.19-.26-.49-.36-.83-.13-.45 0-1.11.11-1.48.1-.34.24-.68.39-.98.06-.13.14-.24.21-.35l.02-.08.05-.09s.29-.15.23.01v.16l-.04.15c-.03.11-.07.22-.12.31l-.05.09q-.06.07-.11.18l-.08.15c-.15.45-.23 1.91.54 1.77.09-.01.26-.36.3-.44.21-.42.28.33.22.55-.04.14-.09.3-.12.36q-.08.13-.11.22c-.02.06-.12.19-.2.29-.07.05-.16.12-.16.12-.09.25-.62-.03-.73-.12m-50.4-.44c-.2-.32.46-1.15.68-1.42.18-.23.66.17.81.28l.16.12.09.03.1.13c.09.05.2.12.21.12.2 0 .4-.26.56-.48.12-.16.46-.61.74-.38.42.35.77.67 1.15 1.07.21.23-.53 1.08-.74 1.31-.18.2-.65-.02-.73-.18s-.42-.43-.59-.49c-.15-.04-.36.3-.45.44-.11.18-.24.38-.42.5-.18.13-.76-.33-.9-.45-.09-.07-.28-.22-.3-.25-.06-.06-.37-.36-.38-.36m5.42 2.75c.16-.18 2.38-1.09 3.21-1.43l1.6-.7c.37-.15 1.73-.69 1.86-.54.21.25-.02.84-.3.94-.45.15-1.05.43-1.51.66l-1.6.7c-.23.11-1.04.44-1.61.67-.13.05-.24.1-.35.16-.16.08-.34.14-.51.2-.15.05-.29.1-.43.16-.03.02-.63.23-.63.1 0-.22 0-.38.06-.55l.1-.16s.12-.18.12-.19m-13.57 1.73c0-.16.49-.39.64-.45.23-.09.86-.35.86-.35.21-.11 1.01-.43 1.61-.67 1.23-.49 2.98-1.19 3.76-1.45.71-.24.39.66.25.89-.08.13-.26.2-.44.24-.27.06-.49.15-.7.24l-.16.1-.12.02-.12.04-.08.04-.19.08-.2.08-.12.04-.12.04-.08.04-.12.04-.12.04-.16.08c-.11.05-.2.08-.32.12l-.2.08-.08.04c-.67.27-1.84.73-2.11.82-.12.04-.72.28-1.1.43-.26.11-.46.19-.68.15-.2-.03.01-.64.07-.71m48.27.99c.02-.1-.18-.26-.29-.34-.07-.06-.29-.23-.3-.25-.26-.32-1.2 0-1.35.23-.39.59 1.76.37 1.94.35m-37.55-.89c-.24-.03-.48-.04-.63.12-.22.23-.39.65-.22 1.13l.04.08.12.23.08.15.14.2c0 .07.53-.19.55-.2l.16-.06c.19-.09.51-.26.57-.45.04-.13-.22-.53-.35-.74-.06-.09-.19-.23-.33-.37-.03-.02-.12-.08-.12-.1m23.91 1.33c-.01-.54-1.57-1.46-2.09-1.42-.03 0-.15.18-.17.22-.04.08-.12.19-.18.25-.02.02-.26.4-.37.57-.13.21-.31.5-.3.79 0 .24.06.39.18.53.07.08.07.09.12.12.04.03.12.07.12.08.12.24 1.07-.12 1.21-.18.17-.07.35-.19.51-.29.08-.05.12-.07.2-.1.11-.04.24-.13.33-.2.04-.04.21-.16.35-.28.03-.02.09-.09.11-.09m-37.33.24c.13-.37-1.16-1.28-1.43-1.42l-.39.1c-.07 0-.83 1.25-.88 1.41-.15.47-.05.76.33.95.51.25 2.39-.83 2.37-1.04m33.72 2.39s-.12-.17-.14-.21c-.07-.14-.17-.66-.18-.82-.04-.56.17-1.95.39-2.38.12-.25.33-.68.39-.86.16-.52.18-.59-.26-.9l-.14-.13-.17-.16q-.06-.04-.34-.31c-.08-.07-.24-.19-.29-.26-.1-.16-.2-.29-.33-.42l-.34-.34-.09-.04a.713.713 0 0 1 -.17-.21c-.14-.36-.16-1.63.21-1.77.09-.04 2.27 1.02 2.45 1.13.11.07.09.32-.01.39-.08.05-.24.09-.37.12s.17.3.18.31c.08.06.26.21.26.21.2.13.42.28.65.33.12.03 1.26-1.43 1.34-1.6.09-.17.47-.58.65-.76.08-.08.22-.26.31-.39q.12-.16.18-.19c.07-.03.12-.06.27.06.17.02-.49 1.8-.49 1.8l-.14.17-.12.16-.05.1-.08.12c-.03.05-.1.13-.14.17-.1.09-.24.32-.33.45-.03.05-.24.38-.25.38-.21-.03.63.64.63.64.12.1.23.19.34.3l.18.17c.05.07.12.16.12.16.13.05.4.73.48.95.21.62-.15 2.02-.46 2.41-.41.51-1.6 1.32-2.3 1.52-.34.1-.75.2-1.13.12-.11-.02-.26-.09-.39-.16l-.33-.28zm-36.07 1.23c.28.23-.23.91-.44.97-.25.07-.48.15-.7.23-.2.08-.43.16-.67.23l-.28.12-.19.08c-.24.08-.55.18-.71.23-.25.08-.48.16-.74.24-.04.01-.85.24-.81.06.13-.49.19-.7.65-.88l1.25-.47c.33-.13 1.22-.47 1.22-.47.14-.04.2-.06.31-.12.08-.04.19-.08.27-.12.13-.05.73-.29.84-.11m28.73 3.32c-.44-.68-.47-1.66-.23-2.6.08-.33.2-.78.27-1.01.11-.33.12-.36.41-.39.06 0-.12.81-.13.86-.09.39-.2.89-.16 1.21.05.36.29 1.28.7 1.03.03-.02.06-.09.08-.13.06-.11.13-.18.27-.13.22.07.02.79-.03.95-.15.46-1.06.6-1.18.22m34.21-2.63s.38-.36.45-.42l.07-.1c.02-.06.03-.08.1-.16.04-.06.19-.23.2-.24.08-.01.2.01.21.08l.04.31.04.09s.23.15.29.16c.37.12.46-.17.56-.53.07-.21.19-.6.41-.64.39-.08.09.96.02 1.15-.21.61-.34.92-.88 1.19-.16.08-.65-.05-.78-.11-.11-.05-.29-.14-.39-.04-.11.11-.67.47-.86.47-.49 0-.64-.07-1.13-.31-.17-.1-.65-.01-.92.04-.14.02-.65.36-.89.52-.27.18-1.06.68-1.06.68l-.2.14-.09.02q-.12.08-.18.13-.09.07-.16.1l-.12.04-.08.04-.15.08c-.09.03-.21.09-.23.06l-.08.08s-.07.03-.15.06c-.38.11-.85.25-1.29.18l.12-.31.12-.02.08-.04c.1-.04.2-.08.27-.12q.11-.05.16-.1s.12-.09.16-.11l.39-.2q.06 0 .1-.05s.2-.14.24-.16c.08-.05.24-.16.38-.24q.12-.08.24-.18l.11-.05c.12-.07.3-.18.38-.25.09-.08.21-.17.31-.23.12-.08.84-.57 1.37-.94.28-.19 1.18-.41 1.57-.25l.23.14q.07.05.16.1c.16.08.26.1.51.08l.23-.08.13-.05zm-50.22-.42c.24-.04.05.79.02.93-.1.47-.23 1.03 0 1.48.13.26.3.46.57.15.03-.04.07-.14.1-.2.07-.18.1-.26.34-.21.26.05-.43 1.7-.75 1.71l-.24.03c-.07.01-.11 0-.2-.03-.69-.3-.73-1.54-.49-2.36.09-.3.2-.62.31-.9.05-.11.1-.25.19-.43l.14-.2zm8.45 3.34c-.24-.35.49-1.53 1.04-1.46.23.03 1.07.84 1.2 1.04.18.3-.05.67-.19.91-.05.08-.21.31-.23.35l-.11.15s-.12.08-.12.1c0 .03-.28.02-.28.02-.09-.01-.21-.1-.29-.16-.1-.08-.25-.23-.36-.34q-.12-.11-.17-.16-.09-.06-.14-.11s-.09-.07-.18-.13c-.03-.02-.16-.16-.16-.21m-18.57-11.44c.03-.05.06-.1.08-.15 0 0 .61-1.62.41-1.72-.23-.12-.42.18-.53.35-.07.11-.22.3-.33.44l-.36.48c-.04.05-.08.11-.12.16l-.12.16-.03.09c-.14.17-.6.71-.66.72-.13.02-.66-.3-.68-.4q-.03-.11.09-.19c.1-.13.1-.18.1-.25 0-.24-1.5-1.16-1.79-1.07-.32.1-.4 1.79-.28 1.87.2.13 1.58 1.41 1.52 1.64 0 .01-.15.31-.24.49l-.04.08-.06.16-.1.12c-.23.45-.41.94-.51 1.44-.15.77-.29 1.68.11 2.21.12.16.21.28.42.34.15.05.32.09.47.08l.31-.04.23-.04.39-.02c0 .26-.06.43-.13.62-.05.13-.12.29-.16.43-.2.69-.32 1.63-.15 2.38.11.47.36.88.58 1.23.13.21.71.7.97.77.36.1.83.24 1.14.19.11-.02.57-.15.86-.26l.77-.45c.07-.05.13-.1.14-.12.07-.07.17-.16.25-.22.1-.07.24-.19.26-.21l.14-.09.21-.22c.66-.67 1.41-1.28 2.18-1.77.81-.52 1.71-.94 2.74-1.24.16-.05.35-.1.51-.16.16-.05.35-.12.51-.15.39-.1 1.14-.29 1.21-.31.32-.11 1.86-.62 1.96-.55.18.12.35.41.45.6.08.17.34.42.52.6.36.36.73.73 1.27.86 1.14.28 3.45.11 4.11-.65.06-.07 1.04-.95 1.06-.96.12-.02.2.13.26.25.06.11.1.21.18.31l.22.21c.27.5 2.12.86 2.72.78.31-.04.57-.14.82-.23l.08-.04.12-.04q.17-.08.2-.1c.35-.15.56-.57.68-.82.05-.09.08-.17.12-.27.04-.11.07-.18.11-.27.05-.09.09-.21.12-.31l.04-.23.04-.23c.07.1.08-.43.08-.43q.02-1.02-.04-1.79c-.09-1.07-.3-2.72-.48-4.13 0-.05-.07-.51-.08-.55l-.08-.62-.04-.43c-.03-.22-.08-.52-.12-.74-.05-.26-.08-.54-.12-.82-.07-.53-.2-1.55-.24-1.76-.1-.55-.17-1.06-.24-1.64-.06-.48-.13-1.14-.08-1.49.03-.16.22.08.22.08.07.11.39.41.55.18.27-.38-.51-1.98-.74-2.43-.08-.17-.17-.34-.24-.51 0 0-.08-.16-.11-.23l-.04-.08-.04-.08c-.11-.22-.23-.47-.28-.62-.03-.14-.07-.23-.12-.35 0-.02-.05-.12-.08-.13l-.21-.03c-.09.1-.17.27-.18.27q-.05.09-.08.16c-.13.32-.24.65-.31.94-.08.31 0 .52.08.78.08.25.12.55.16.9.09.75.2 1.75.28 2.42.09.77.32 2.61.32 2.61.11.73.19 1.43.28 2.18 0 0 .39 2.98.55 4.17.14 1.04.55 4.04.32 4.37-.09.13-.25.21-.41.29l-.22.11-.13.05-.08.04c-.17.17-1.04.11-1.33.04-.42-.09-.72-.27-1.01-.5-.14-.11-.22-.24-.31-.41-.01-.03-.08-.13-.11-.18l-.04-.13-.04-.78-.04-.09c-.22-.16-.55.17-.69.31-.1.1-.2.2-.28.33-.07.11-.19.23-.28.32-.41.41-.84.79-1.39 1.06-.4.2-.98.37-1.53.39-.41.02-1.21.03-1.49-.15a7.34 7.34 0 0 0 -.78-.47s-.72-.69-.47-.72c.18-.02.87-.86 1-1.05.34-.51.33-2.02.15-2.54-.09-.27-.44-1.02-.64-1.14-.03-.02-.13-.12-.18-.17l-.12-.12a1.58 1.58 0 0 0 -.5-.3c-.17-.07-.49.02-.7.08-.19.05-.32.16-.45.28-.07.07-.11.12-.16.21l-.1.12c-.21.19-.49 1.06-.53 1.4-.04.28-.08.71-.08.92v.37l.04.55.02.47s-.45.21-.55.26c-.34.14-.92.3-1.37.43-.88.25-2.49.72-2.7.86 0 0-.26.1-.39.16l-.16.08c-.13.06-.28.14-.34.19l-.17.09-.08.02s-.33.2-.48.3c-.1.06-.16.1-.27.16l-.22.13c.02.07-.4.33-.47.37l-.19.14-.13.11c-.32.23-.6.5-.83.73l-.74.66c-.11.12-.26.26-.39.35l-.1.05-.7.48c-.35.2-.81.45-.97.45-.15 0-1.04-.02-1.14-.14a.481.481 0 0 0 -.11-.09l-.09-.03c-.16-.17-.27-.33-.33-.47-.13-.32-.15-.74-.08-1.21.12-.88.49-1.84.86-2.57.05-.1.24-.23.37-.32 0 0 .22-.21.3-.28.21-.21.38-.38.54-.65.02-.03.02-.12.01-.24l.11-.56c.03-.44 0-1.14-.08-1.35-.02-.05-.06-.19-.08-.27l-.02-.09-.53-.85a5.27 5.27 0 0 0 -.46-.48c-.18-.17-.09-.53.06-.77l.51-.69zm-1.37-4.09c-.3-.21-.69-.48-.73-.48-.24-.03-.33.21-.42.42-.06.14-.24.39-.37.47-.34.23-1.41-.67-1.6-.85-.36-.35.19-1.31.5-1.53.24-.16.61.08.86.25.13.09.57.35.67.33.17-.04.29-.29.37-.45s.25-.37.41-.45c0 0 .02 0 .02-.01l.48.1c.32.2 1.01.81 1.08.91.22.32-.32 1.21-.5 1.39-.03.03-.09.09-.16.13-.22.12-.62-.24-.62-.24m-.82-6.68c0 .1-.02.18-.02.21-.07.33-.13.74-.04 1.09.04.15.11.41.28.6 0 0-.04.53.34.04.07-.06.1-.1.12-.17.1-.26.39-.83.39-.02 0 .12-.1.51-.22.79 0 0-.34.74-.73.62-.14-.02-.33-.2-.49-.37-.02-.03-.08-.12-.1-.12 0-.03-.04-.16-.06-.23-.09-.33-.09-.67-.08-1.13 0-.23.24-1.28.42-1.71 0 0 .25-.89.23-.31l-.04.72zm43.69 2.95c-.31.21-.68.44-1.01.6-.27.14-.95.49-.99.53-.06.05-.11.07-.18.11-.07.03-.2.12-.27.18l-.08.02-.14.11c-.08.06-.22.04-.4-.05-.1-.01.04-.55.06-.62l.1-.15.03-.09s1.54-1 1.7-1.08l1.06-.57c.06-.03.12-.06.18-.1l2.15-1.18.1-.05c.11-.06.21-.11.31-.18.09-.06.21-.14.31-.17.43-.18 1.99-.98 2.27-1.27l.24.02c.07 0 .1.01.1.1v.35l-.04.2-.1.15-.02.09c-.01.1-2.03 1.26-2.17 1.3-.05.02-.42.23-.74.42l-2.45 1.35zm5.99 19.54c-.16.08-.36.18-.43.21-.15.08-.47.24-.47.24-.1.04-.29.11-.32.12-.19.04-.31.07-.43.12-.71.28-1.97.32-2.7.08-.21-.07-.4-.14-.59-.23l-.12-.1-.16-.08-.15-.09-.1-.05c-.08-.03-.43-.42-.52-.53 0 0-.12-.15-.15-.18l-.15-.22-.05-.1s-.12-.15-.13-.14c-.01 0-.28-.84-.29-.9-.08-.4-.1-1.04-.08-1.37 0-.12.07-1.11.02-1.11-.15 0-1.12.65-1.45.88-.47.32-1.03.65-1.53.9-.93.46-3.41 1.61-3.48 1.62-.94.19-2.44.48-2.86.55-.49.07-1.04.16-1.49.27-.33.08-2.33.35-1.86.18l.13-.32c.06-.1 2.18-.9 2.48-.98.84-.24 1.94-.59 2.64-1.02 0 0 .4-.2.69-.35l.31-.16c.13-.07.43-.22.43-.22.32-.25.95-.61 1.34-.72.2-.06.59-.24.74-.37.17-.14.48-.3.74-.43l.16-.06.35-.2q.09-.05.15-.1l.31-.2c.1-.05.21-.1.21-.1.12-.01.48-.28.57-.36.01-.01.47-.3.73-.48l.13-.1c.12-.08.28-.19.36-.21.02-.01.25-.19.34-.27l.09-.05.2-.16c.24-.16 1.1-.78 1.12-.8l.11-.1.11-.12.33-.3c.05-.05.47-.49.48-.49.16.01-.16-.82-.18-.86l-.18-.27-.16-.28-.06-.15-.04-.08-.12-.23-.04-.09c-.1-.12-.22-.35-.31-.53-.4-.78-1.09-2.23-1.22-3-.04-.27.21-1.62.53-1.51.14.06.29.25.37.37.06.09.22.25.35.38s.25.24.62.56l.08.14c.17.11.78.72.57.97l-.37.05c-.07 0-.36 0-.35.02l.02.12.04.12.08.16.1.12.06.15.09.17q.05.05.07.14l.22.35c.11.22.28.56.35.66.03.04.09.2.14.31.06.15.16.4.2.47.32.63.01 2.31-.19 2.92-.11.32-.41.68-.63.91-.24.24-.65.64-.78.74l-.21.16-.15.11-.13.1-.19.14q-.07.03-.11.11s-.07.09-.09.1c-.35.28-.17 1.83-.05 2.22.03.11.33.58.6.99.28.43 1.42.9 1.99.86.96-.07 1.61-.23 2.33-.47l.12-.04.12-.1c.06-.03.13-.06.23-.1l1.11-.63c.25-.16.51-.34.8-.57l.16-.12.12-.12.16-.12.1-.05.13-.11c.11-.09.24-.19.35-.27.12-.1.23-.18.34-.29.2-.2.4-.38.62-.55.21-.15.4-.41.56-.61 0 0 .23-.22.3-.28.08-.07.19-.2.24-.29.1-.15.36-.81-.06-.72-.24.05-.77.16-.78.16l-.32.04-.27.04-.39.04c-.17.01-.74.06-.71.04l-.35-.04-.16-.04s-.24-.08-.35-.12c-.17-.05-.39-.13-.47-.21-.23-.24-.42-.44-.57-.74-.07-.14-.08-.4-.08-.51 0-.09 0-.85.04-.86l.04-.23.04-.16c.03-.11.07-.22.12-.31l.24-.48c.02-.05.36-.39.53-.56l.22-.23s.32-.2.32-.21l.12-.02.15-.04.2-.04c.7-.03.8.03.78.04l.12.04.08.04.2.08c.13.07.25.12.37.2.21.13.42.33.59.51.16.16.44.44.52.6.09.18.37.62.55.64.29.04 1.42-.73 1.69-.93l.32-.26.15-.09s.12-.11.17-.15c.1-.07.33-.21.35-.21l.18-.11.13-.05c.08-.03.6.04.55.14.02.05.02.43.02.66 0 .47 0 .58.12.82.4.8 1.44 1.23 2.68.91.27-.07 1.11-.6 1.27-.84l.04-.1.22-.28c.1-.17.22-.36.3-.52.04-.07.08-.14.13-.22 0 0 .08-.16.09-.17l.1-.12c.07-.15.18-.36.3-.48l.12-.12c.04-.07.38-.07.35.01l.04.08c.02.1-.01.29-.04.39l-.04.08-.08.16c-.07.13-.28.57-.23.66.25.51.79.81 1.39.95.33.08 1.39.3 1.07-.49l-.14-.2-.08-.11c-.12-.18-.16-.33-.14-.63.04-.46.53-1.92.94-.86l.04.08.08.16c.08.16.14.37.2.55.07.24.15.61.17.94 0 0-.12 1.38-.39 1.56-.09.18-.18.34-.19.35-.18.26-.38.38-.67.56-.5.32-1.87-.1-2.26-.42l-.13-.1q-.07-.03-.1-.09l-.13-.1a.914.914 0 0 1 -.21-.23c-.06-.09-.15-.23-.26-.21-.03 0-.35.47-.46.62-.02.03-.46.38-.65.52-.55.41-1.46.58-2.04.58-.27 0-1.03-.23-1.27-.47l-.27-.21c-.07-.05-.11-.11-.18-.21-.02-.03-.15-.18-.17-.18 0 0-.19-.34-.2-.35a19.9 19.9 0 0 1 -.23-.87c-.02-.09-.53.29-.55.3-.17.13-.37.27-.52.38l-.14.09-.1.05-.22.21c-.25.17-.55.36-.57.43-.1.3-.16.66-.16.96 0 .21-.11.63-.19.88-.04.13-.35.6-.51.86-.35.55-.85 1.16-1.35 1.56-.27.21-.53.44-.77.67-.23.23-.5.44-.75.65-.18.15-.56.43-.75.57l-1.21.76zm-18.83-4.4v-.14l-.04-1.62v-.1c0-.21-.07-.83-.12-1.21l-.36-3.08c-.19-1.62-.41-3.35-.67-5.03-.07-.46-.12-.97-.16-1.42-.03-.39-.11-1.03-.16-1.5a38.8 38.8 0 0 1 -.16-1.52c-.05-.74-.12-1.65-.2-2.18-.02-.15-.1-.3-.16-.43-.08-.17 0-.44.08-.66.07-.21.33-.97.45-.99.27-.06.61.6.69.84.05.16.35.77.51 1.09.2.39.37.81.51 1.25.07.2.54 1.6.22 1.64-.19.02-.37-.16-.5-.28-.02-.02-.43-.43-.45-.22 0 0 .15 1.45.22 1.99.03.25.2 1.59.28 2.26l.04.31.04.35c.03.29.07.54.12.82.11.66.2 1.31.28 1.99.15 1.21.51 4.55.51 4.56.05.89.11 1.91-.03 2.73-.12.63-.34 1.72-.56 2-.29.37-.35-.02-.38-.32v-1.11z" fill="#1d1d1b" fill-rule="evenodd"/></svg>