<svg viewBox="0 0 65.21 26.56" xmlns="http://www.w3.org/2000/svg"><path d="m34.43 2c0-.4-.78-.05-.82.28s.36.56.53.68c.57.4.45-.58.29-1m26.37 1.53c0 .37 1.3 1.56 1.24.36 0-.37-.14-.77-.46-.86s-.89.22-.78.5m-35.23-.24a7.84 7.84 0 0 1 .84-2.75c.1 0-.15.79-.17.85a4 4 0 0 0 -.24 1.38 1.52 1.52 0 0 0 .52 1c.16.15.41 0 .48-.17a4.89 4.89 0 0 1 .24-.48c.15 0 .07.59 0 .76a3.09 3.09 0 0 1 -.18.51c-.17.39-.43.7-.9.37a2.08 2.08 0 0 1 -.63-1.48m12.8 2.94c1.44-.84 3-1.72 4.44-2.45l2.13-1.11 1-.53a4 4 0 0 1 1.06-.48c.18 0-.15.81-.23.86-.66.44-2.86 1.61-4.58 2.52-.42.22-.9.48-1.23.64a.94.94 0 0 0 -.3.16 1.74 1.74 0 0 1 -.28.16 1.21 1.21 0 0 0 -.34.15l-.38.2a9.16 9.16 0 0 0 -1.2.68c-.02.02-.42.37-.42.02s.2-.81.3-.83m-26.11-1.41a1.57 1.57 0 0 1 -.6-.76c0-.17.06-1 .28-1.11.38-.12 1.34.75 1.56 1a7 7 0 0 1 .57.75c.11.16.63.93.68.81a7.45 7.45 0 0 0 0-1.59 5.31 5.31 0 0 1 .16-1.6c.12-.48.65-1.5 1.2-.86a1.4 1.4 0 0 1 .28 1.6c0 .06-.37-.3-.42-.36a1.06 1.06 0 0 0 -.47-.34c-.34 0-.34.88-.34 1.15a16.31 16.31 0 0 1 -.15 2.75c0 .18-.29 1.19-.43 1 0 0-.1-.23-.15-.34s-.14-.35-.2-.46-.16-.27-.24-.4l-.08-.12-.09-.13-.15-.2a8.25 8.25 0 0 0 -.52-.67 2.61 2.61 0 0 0 -.27-.22l-.27.15a.46.46 0 0 1 -.35 0m37.74-.91c-.08-.14.07-1 .24-1 .66-.12 1.45.73 1.78 1.13.2.25.48.6.59.77a7.9 7.9 0 0 0 .69 1s.12-1.41.13-1.65a6.19 6.19 0 0 1 .22-1.31 2.69 2.69 0 0 1 1-1.2.74.74 0 0 1 .77.15 1.3 1.3 0 0 1 .15.2 1.63 1.63 0 0 1 .22.62c0 .19-.15.66-.3.69s-.24-.18-.32-.28l-.1-.2a.93.93 0 0 0 -.47-.3c-.25-.07-.46.22-.56.37a14.15 14.15 0 0 0 -.14 1.59 11.28 11.28 0 0 1 -.19 1.52c-.07.32-.31 1.67-.6 1.59v-.25-.16a2 2 0 0 0 -.1-.26l-.25-.42-.07-.15c0-.09-.49-.73-.72-1a1.73 1.73 0 0 0 -.39-.42c-.11-.1-.11-.1-.28-.07a.72.72 0 0 1 -.39-.09c-.34-.21-.73-.44-.83-.82m-16.16.23c0-.09-.22-.4-.35-.57a1.47 1.47 0 0 1 -.33-.75 3 3 0 0 1 .63-1.5 2.19 2.19 0 0 1 .77-.45c.23-.07.43.31.47.5a2.53 2.53 0 0 1 0 1 5.57 5.57 0 0 0 -.09 1.22s.34.29.49.4a1.1 1.1 0 0 1 .4.56c.06.19-.11.71-.23.74l-.38-.32-.22-.16c-.19-.14-.51-.4-.7-.34s-.82.78-1 1a5.35 5.35 0 0 1 -1.31.83 18.4 18.4 0 0 1 -2.83 1.29c-.67.15.8-.8.8-.8.24-.12 1-.61 1.45-.93a10.41 10.41 0 0 0 2.31-1.82m-29.44 3.72c-1-1.75-.16-4.8.82-6.19.2-.28-.26 1.33-.29 1.4a9 9 0 0 0 -.44 1.69 3.17 3.17 0 0 0 .62 2.23c.3.31.56.17.75-.13a2.18 2.18 0 0 0 .14-.34c0-.14.14-.43.23-.41s-.29 2-.81 2.13-.75-.2-1-.38m57.1-2.36c0-.1-.36-.43-.5-.54a1.45 1.45 0 0 1 -.49-.62 2.53 2.53 0 0 1 .26-1.45c.18-.31.42-.75.8-.85a.66.66 0 0 1 .63.13 1.5 1.5 0 0 1 .34.94v.34.24.26a2.5 2.5 0 0 1 0 .67.43.43 0 0 0 .07.31l.21.18a1.5 1.5 0 0 1 .27.29c.13.15.14.86-.06.91s-.3-.14-.43-.26a3 3 0 0 0 -.43-.3c-.08 0-.58.42-.75.58s-.56.48-.86.72a16.18 16.18 0 0 1 -1.64 1.17l-.38.24c-.11.08-.37.23-.53.33l-.22.13-.14.06-.2.08-.58.32a6.19 6.19 0 0 1 -1.25.46c-.38.1-1 .27-1.15.35s.58-.57.75-.65c.34-.17.71-.37 1-.55l1.96-1.13c.6-.36 1.45-.88 1.76-1.1l1.24-1 .12-.07zm-29.11 3.84c-.16-.18.52-1.37.73-1.42s.54.23.75.4a3.37 3.37 0 0 0 .73.48c.14 0 .38-.41.47-.58a1.46 1.46 0 0 1 .46-.55c.3-.13 1.2.79 1.39 1a.69.69 0 0 1 0 .88c-.3.24-.3.24-.37.42a.53.53 0 0 1 -.32.32c-.09 0-.62-.46-.73-.56s-.58-.58-.74-.52-.4.65-.44.74c-.15.32-.32.68-.71.39l-.64-.47a5.39 5.39 0 0 0 -.58-.54m-6.3-3.11s-.17.8-.25 1.13a9 9 0 0 0 -.27 1.86c0 .74.88 2 1.23.83 0-.05.17-.6.31-.34a3.5 3.5 0 0 1 -.11.82c-.15.52-.31 1-.84 1.09-.92.21-1.15-2.29-1-3a8.42 8.42 0 0 1 .93-2.39m21 3.31a4.08 4.08 0 0 1 .38-1.47c0-.08.66-1.28.56-.83a2.55 2.55 0 0 1 -.3.72 4 4 0 0 0 -.22.71 2.1 2.1 0 0 0 .27 1.73.61.61 0 0 0 .59.25c.21 0 .24-.31.26-.48s.12-.52.27-.45-.35 1.91-.93 2c-.27 0-.57-.3-.67-.48a2.51 2.51 0 0 1 -.21-1.7m14.08 2.53a3.83 3.83 0 0 1 -.08-1.62 6.46 6.46 0 0 1 .38-1c.07-.17.45-1 .57-1s-.25.8-.29.86a2 2 0 0 0 -.3.89c-.17 1.39.63 1.94 1.19.7.11-.23 0 .61 0 .65a2.34 2.34 0 0 1 -.22.48c-.14.26-.25.46-.53.55s-.59-.3-.7-.55m-56.95.19a.69.69 0 0 1 -.36-.06c-.09 0-.4-.21-.42-.29-.34-2 .69-1.3 1.52-.71a12.27 12.27 0 0 1 .9 1l.21.3.14.26c.12.19.45.7.52.67a5.18 5.18 0 0 0 .1-.84c0-.59 0-1.52.07-1.75.08-.43.35-1.22.68-1.39.66-.34 1.56 1.22 1 1.82a2.4 2.4 0 0 1 -.45-.35 2 2 0 0 0 -.63-.42c-.26 0-.29.68-.3 1a11.52 11.52 0 0 1 -.13 1.8 6.8 6.8 0 0 1 -.49 1.93 2.85 2.85 0 0 1 -.16-.42 4.45 4.45 0 0 0 -.2-.52c-.08-.13-.16-.29-.24-.43a4.21 4.21 0 0 0 -.33-.55c-.2-.27-1.07-1.24-1.42-1m11.45 4.33a3.52 3.52 0 0 1 -.61-1.53 12.18 12.18 0 0 1 .86-4.7c.21-.43 0 1.23-.07 1.38a7.1 7.1 0 0 0 -.28 1.94c0 .59.45 2.12 1.06 1.92a.63.63 0 0 0 .46-.46 3.34 3.34 0 0 0 .11-.43c.06-.23.1-.39.32-.31s-.4 1.94-.5 2.12a.84.84 0 0 1 -.67.43.87.87 0 0 1 -.55-.21zm35.18 1c.06-.18-.65-.78-.85-.83-.7-.18-1.41-.16-1.69.45s2.22.55 2.54.38m-14.22.22c.25-.55-1.66-1.56-2.08-1.74s-1.32 1.59-1.41 2a1.07 1.07 0 0 0 .23.78 1.11 1.11 0 0 0 .88.22 6 6 0 0 0 2.38-1.24m-4.13 1.62a5.93 5.93 0 0 1 .35-2.39c.12-.3.23-.56.36-.81s.41-.82.33-.89l-.3-.21-.32-.29-.61-.57c-.13-.14-1.14-1.23-1.15-1.23a3.15 3.15 0 0 1 .15-1.65l1.5.68.14.06.38.16a3 3 0 0 1 .4.2c.07 0 .24.24.09.33h-.25-.24c-.13 0-.21.07-.16.17a3.61 3.61 0 0 0 1.48 1c.11 0 .21-.19.27-.28a3.87 3.87 0 0 1 .35-.45 4.12 4.12 0 0 0 .28-.31l.34-.44c.22-.27.44-.55.66-.79l.38-.45a4.73 4.73 0 0 1 .34-.42c.44-.26-.49 1.9-.55 2a1.06 1.06 0 0 0 -.16.21 4 4 0 0 1 -.34.41l-.16.19c-.13.18-.55.75-.51.92a2.29 2.29 0 0 0 .23.17c.13.08.25.15.37.24s.35.28.52.44a2.63 2.63 0 0 1 .74 1.34 5.13 5.13 0 0 1 -.34 2c-.41.89-2.8 2.34-4 1.75-.34-.16-.52-.72-.59-1.18m-7.79-1.3c-.17 0-1.23.73-2.18 1.33a7.76 7.76 0 0 0 -.77.7c-.24.24-.52.51-.73.69a4.76 4.76 0 0 0 -.63.64c-.1.12-.63.79-.51.85a29.59 29.59 0 0 0 4.94-1 21.24 21.24 0 0 0 2.25-.95l.16-.06a2.62 2.62 0 0 0 .36-.15l.24-.14.23-.12c.22-.1 1-.47.94-.65s-.95-.94-1.25-1.09a3.72 3.72 0 0 0 -3 0m33.44 4.55a1.14 1.14 0 0 1 1 .06c.26.16.65.4.88.3a2.08 2.08 0 0 0 .95-.63l.16-.24.12-.26c.15-.07.14.12.14.2s0 .4.24.47l.18.06c.18.06.31.11.46 0s.21-.52.31-.79c.05-.12.23-.52.38-.52s0 .76-.06.8a3.76 3.76 0 0 1 -.22.57 1.67 1.67 0 0 1 -.63.83.69.69 0 0 1 -.72 0c-.3-.11-.54-.21-.85 0l-.21.14a1.58 1.58 0 0 1 -.61.22 1.19 1.19 0 0 1 -.82-.26.89.89 0 0 0 -.93-.14 17.74 17.74 0 0 0 -2.23 1.25c-.59.36-2.08 1.22-2.82 1-.22-.06.34-.27.39-.29a7.2 7.2 0 0 0 .71-.37c.2-.11.92-.56 1.38-.83.89-.55 2.54-1.53 2.81-1.65m-47.7 1.94c0-.15.05-.45-.16-.47a.6.6 0 0 0 -.55.18 2.27 2.27 0 0 1 -.2.21c-.08 0 0-.43.05-.49a2.44 2.44 0 0 1 .3-.58c.21-.28.61-.6.93-.2.76.95-.83 2.52-1.28 2.92-.71.63-.44-.07-.08-.43a14.48 14.48 0 0 0 1-1.14m-7.78 1.4a7.48 7.48 0 0 1 -1.24-1.54 11.75 11.75 0 0 1 -.82-2.89 8.77 8.77 0 0 1 0-1.82 4.64 4.64 0 0 0 0-1.34c-.16-.05-.52-1.27-.55-1.59a10.62 10.62 0 0 1 .51-4.22v-.18-.16-.19l.2-.72c.09-.35.62-1.35.44-.43-.11.54-.29 1.41-.36 1.66a14.8 14.8 0 0 0 -.24 1.94 3.34 3.34 0 0 0 .79 2.95c.3.23.52-.28.57-.45s.2-.81.29-.78c.39.16-.25 2.21-.49 2.43l-.17.18-.15.05c-.1 0-.29.06-.3.14a11.71 11.71 0 0 0 -.14 2 5.61 5.61 0 0 0 .78 2.28 3.46 3.46 0 0 0 1.27 1.22 1.79 1.79 0 0 0 1.28.22c.8-.24 1.36-1.39 1.65-2.16a11.39 11.39 0 0 1 1.42-2.72 5.11 5.11 0 0 1 1.3-1.24c.17-.11 2.1-1.36 2.41-.54a.33.33 0 0 1 .14.17l.16.25.08.14.44.73a5.64 5.64 0 0 0 1.07 1.27 8.79 8.79 0 0 0 5.24 1.73c.38 0 1.39-1.11 1.6-1.4a5.61 5.61 0 0 0 .61-3v-1.25a10.15 10.15 0 0 0 0-1 4.55 4.55 0 0 1 0-.53v-.58-.49-.5-.32-.47c-.45-1.51-.67-4.19-.78-4.71 0-.19-.19-1.6-.28-2.49l-.08-.87v-.44-.39-.1-.34-.32a5 5 0 0 0 -.18-1 1.08 1.08 0 0 1 -.13-.9c.15-.42.36-1 .44-1.12s.3.4.31.45a4.86 4.86 0 0 0 .26.61c.1.18.22.42.34.7l.06.15.12.26c.18.37.36.72.52 1.13.06.15.57 1.46.12 1.37-.12 0-.28-.23-.41-.41s-.3-.4-.43-.42.54 5.75.54 5.76c.09.79.2 1.87.28 2.85l.08.87c0 .29.06.7.08.87a8.35 8.35 0 0 1 0 .91v.22.58.13a7.13 7.13 0 0 0 0 .72c0 .31-.1.78-.16 1.13v.23.2c0 .15-.07.33-.08.44v.2a1.91 1.91 0 0 0 -.08.45c0 .31.7-.53.71-.55a6.37 6.37 0 0 1 .61-.67 8 8 0 0 1 1.6-1.21 5.6 5.6 0 0 1 3.87-.89 3.66 3.66 0 0 1 2.29 1.72c.23.76-.5 2.14-.89 2.86-.21.41-3.65 1.92-4.35 2.15a21.42 21.42 0 0 1 -2.39.67c-.48.11-1.07.24-1.51.32l-.93.17h-.14-.51-.47-.27a3.08 3.08 0 0 0 -.46 0 9.3 9.3 0 0 1 -.93-.07 10.1 10.1 0 0 1 -1.66-.28 12.46 12.46 0 0 1 -2.23-.85 5.05 5.05 0 0 1 -1.6-1.37 8 8 0 0 1 -.63-1c-.11-.22-.49-.87-.67-.91-.66-.13-1.92.9-2.64 1.5a6.14 6.14 0 0 0 -1 1.61c-.06.14-.06.14-.14.3l-.31.73a3.52 3.52 0 0 0 -.18.4 4.38 4.38 0 0 1 -.23.54c-.83 1.4-1.46 2.46-3.27 1.26m39.69.48a3.62 3.62 0 0 1 -1.35-.89 5.06 5.06 0 0 1 -.79-1.52 4.77 4.77 0 0 1 -.14-1.15c0-.37.07-.79.12-1.15s.09-.67 0-.71-1.38.83-1.51.92c-.28.2-1.13.67-1.66 1a16.87 16.87 0 0 1 -4.14 1.78l-1.27.24-.68.12h-.24-.36-.24-.15-.4-.28a3.59 3.59 0 0 0 -.56.12h-.16-.2l-.28.08a3.91 3.91 0 0 1 -1.08.08c-.09-.19 2.86-1.24 3.15-1.34l.28-.08.4-.12c.23-.08.49-.19.74-.3s.4-.18.62-.26l.14-.06.25-.12.16-.07a2.24 2.24 0 0 1 .36-.16 38.29 38.29 0 0 0 6.11-3.25c.84-.52 3.71-2.44 3.79-3.09a3.63 3.63 0 0 0 -.26-.81 4.56 4.56 0 0 0 -.24-.44 1.48 1.48 0 0 1 -.18-.38 2.08 2.08 0 0 0 -.22-.39 2.56 2.56 0 0 1 -.22-.4l-.22-.45c-.07-.15-.18-.36-.22-.46l-.56-1.62a1.55 1.55 0 0 1 -.15-1 4.65 4.65 0 0 1 .12-.56 3.51 3.51 0 0 0 .12-.49c0-.12 1 1 1 1l.52.51.2.2a2.06 2.06 0 0 1 .32.41c.13.22 0 .36-.19.27s-.56-.18-.67 0 .29.71.35.82c.16.27.32.58.47.87a5.42 5.42 0 0 1 .66 1.58 6.65 6.65 0 0 1 -.16 2.3 2.94 2.94 0 0 1 -1.11 1.58c-.24.21-.47.42-.73.61a10 10 0 0 0 -.74.7 3.15 3.15 0 0 0 -.2 1.63v.31.24a2.17 2.17 0 0 0 .12.36.62.62 0 0 0 .13.27 2.11 2.11 0 0 1 .17.27 2.67 2.67 0 0 0 1.15.94 5.15 5.15 0 0 0 3.58-.12 15.09 15.09 0 0 0 4.26-2.76 9.56 9.56 0 0 0 1.63-1.61c.17-.23.47-1.05-.15-1a1.54 1.54 0 0 0 -.36.1 2.42 2.42 0 0 1 -.48.09c-.25 0-1 .11-1.57.16a2.58 2.58 0 0 1 -1.57-.5 1.3 1.3 0 0 1 -.46-.87 3 3 0 0 1 2-3.38 2.87 2.87 0 0 1 1.33.3 5.85 5.85 0 0 1 1 .81c.1.13.26.37.38.55a3.78 3.78 0 0 0 .52.68 8.38 8.38 0 0 0 2.34-1.3 4.48 4.48 0 0 1 .89-.6c.37-.19.49.07.49.43v.22.27a.77.77 0 0 0 .06.56c.62 1.32 1.81 1.53 3.35 1.07a2.81 2.81 0 0 0 1.47-1.39l.08-.13.16-.26.16-.28.08-.16.08-.14c0-.09.49-.75.63-.45.06.1-.18.62-.23.73a1.81 1.81 0 0 0 -.26.69c.15.78 2 1.47 2.84 1 .15-.08 0-.46-.07-.6l-.17-.29a1 1 0 0 1 -.25-.1c-.05-.24.35-1.54.53-1.52.69.1.7 2.58.62 3.11a2.5 2.5 0 0 1 -.77 1.31 2.28 2.28 0 0 1 -2.15 0 2.89 2.89 0 0 1 -.75-.5 3.4 3.4 0 0 1 -.25-.31c-.08-.12-.32-.46-.39-.43l-.25.36-.23.36a3.19 3.19 0 0 1 -.6.56 3.8 3.8 0 0 1 -1.67.61 4.53 4.53 0 0 1 -1.52-.3 2.77 2.77 0 0 1 -1.22-2.2c0-.24-.65.29-.68.32a2.65 2.65 0 0 1 -.67.46 8.55 8.55 0 0 0 -1.15.83c0 .13-.12.75-.16 1.11a2.33 2.33 0 0 1 -.31 1.06 1.47 1.47 0 0 0 -.12.22s-.14.21-.23.32a4.75 4.75 0 0 1 -.43.55l-.44.48a2.1 2.1 0 0 1 -.26.27c-.12.12-.23.24-.36.35l-.21.17-.31.26-.48.45-.2.16-.23.16a3.19 3.19 0 0 1 -.42.3l-.45.33c-.1.08-.44.3-.71.46l-.16.08-.11.08a6 6 0 0 1 -4.94.83" fill="#221e1f" fill-rule="evenodd"/></svg>