<svg viewBox="0 0 81.39 28.32" xmlns="http://www.w3.org/2000/svg"><path d="m7.46 25.89c-.21-.15-.45.08-.58.21a3.28 3.28 0 0 1 -.39.32c-.25-.21.59-1.36.6-1.38.55-.68 1.1 0 .89.86-.15.62-1.37 2.63-2.06 2.4-.14-.05.82-1 .87-1.06.27-.26 1-.95.67-1.35m7.77.75c-.08-.26.54-1.1.75-1.19s.52.16.76.32a5.86 5.86 0 0 0 .73.45c.08 0 .36-.41.44-.53a1.12 1.12 0 0 1 .52-.42 6.6 6.6 0 0 1 1.29.92c.37.36-.36 1.47-.73 1.5a2.73 2.73 0 0 1 -.71-.47c-.18-.16-.52-.47-.72-.42s-.25.32-.32.43-.27.45-.36.48c-.31.12-1.59-.75-1.65-1.07m21.36-1.26c.76-.35 3-2.06 3.08-2.94a3.2 3.2 0 0 0 -.37-1.7c-.71-1.65-3.62-4.22-5.48-5.86a24.42 24.42 0 0 1 -2.8-3c-.42-.52-.85-1.07-1.31-1.69l-.24-.36-.08-.12-.17-.23-.15-.2a1.6 1.6 0 0 0 -.17-.21 1.68 1.68 0 0 1 -.33-.41 4 4 0 0 1 0-1.45c0-.13 1 .57 1.07.62l.55.4.57.4c.11.09.36.26.56.39a4.7 4.7 0 0 1 .54.44c.24.23.07.43-.25.33a3.16 3.16 0 0 0 -.85-.19c-.07 0 .24.44.26.48a3.89 3.89 0 0 0 .46.53c.32.31.65.66.94 1a9.42 9.42 0 0 0 .9.95c.1.07.64.61.91.89l.48.46.48.44c.09.1.39.34.57.49s.67.6.7.64l.3.3.52.47.55.63.09.13a1.07 1.07 0 0 0 .27.25 8.58 8.58 0 0 1 1.54 2.33c.09.31.23.77.24.87s.16 1.31.19 1.27c.36-.4 0-2.62-.11-3.65-.05-.34-.16-1.1-.16-1.15 0-.36-.07-.62-.11-.83v-.2-.39-.24-.32-.27-.2-.48-.27l-.6-4.2c-.12-.88-.23-1.74-.33-2.62 0-.36-.13-1.07-.16-1.22a1.89 1.89 0 0 1 -.08-.68l.16-.63a.81.81 0 0 1 .28-.48c.06 0 .44.67.5.77.15.3.3.62.43.94.21.48.89 2.07.74 2.26s-.42-.25-.45-.3-.29-.4-.4-.39 0 .64 0 .76v.36.28.27.32.28c.13.8.43 2.67.44 2.77a37.62 37.62 0 0 1 .69 6.59 16.32 16.32 0 0 1 -.15 2.92c-.53 2.66-1.88 3.58-3.88 4.78a12.23 12.23 0 0 1 -2.46.67c-.55.11-1 .2-1.59.28l-.4.08h-.3s-.53.09-.48 0a16.39 16.39 0 0 1 2.43-1.07 13.73 13.73 0 0 0 2.45-1.15m-11.77.95c0-.33.62-1.34 1-1.12a6 6 0 0 1 1.17 1c.12.12-.6 1.36-.74 1.39a4.55 4.55 0 0 1 -1.44-1.23m34.92-8.4a3.53 3.53 0 0 0 -.56-1.46l-.34-.64a.8.8 0 0 0 -.15-.25 4.4 4.4 0 0 1 -.22-.44 27.29 27.29 0 0 1 -1.1-2.59 3.82 3.82 0 0 1 .24-1.46c.1-.16.34.16.42.26l.36.38a3.27 3.27 0 0 1 .33.34c.15.12.27.23.41.36s.59.59.62.84c0 .1-.31 0-.41 0s-.56-.11-.46.1c.3.62.64 1.27 1 1.92a5.08 5.08 0 0 1 .38 3.38c-.05.53-.68 1.15-1.08 1.56-.22.21-.57.56-.69.66a2.82 2.82 0 0 0 -.65.64 3.47 3.47 0 0 0 -.2 1.46 2.81 2.81 0 0 0 .59 1.54 6 6 0 0 0 1.31.94 4.12 4.12 0 0 0 1.83.11 6.61 6.61 0 0 0 2.35-.87 2.89 2.89 0 0 0 .38-.22l.35-.24.34-.24.34-.24.2-.17.34-.26.64-.49a8.48 8.48 0 0 0 1.25-1.17l.21-.19c.1-.12.21-.25.29-.33a4.44 4.44 0 0 0 .36-.42l.16-.23c.16-.15-.06-.54-.16-.64s-.54.08-.65.12-.44.08-.68.12a11.6 11.6 0 0 1 -1.63.12 2.29 2.29 0 0 1 -1.2-.53 2.67 2.67 0 0 1 -.16-2.58 3.35 3.35 0 0 1 1-1.2 1.29 1.29 0 0 1 1-.29c1.29.14 2 1.22 2.64 2.15.22.32 2.19-1.14 2.29-1.23a3.6 3.6 0 0 1 1-.69c.21-.08.4 0 .42.22a2.05 2.05 0 0 1 0 .67 1 1 0 0 0 .06.59 2.34 2.34 0 0 0 3.09 1 3.59 3.59 0 0 0 1.78-1.86c.12-.23.63-1.17.82-1.09s0 .61-.11.78-.3.6-.2.8a2 2 0 0 0 1 .75c.29.12 2 .44 1.77-.18a2.62 2.62 0 0 0 -.28-.52 1 1 0 0 1 -.25-.64 3.37 3.37 0 0 1 .37-1.27c.08-.15.32.28.32.28a3.56 3.56 0 0 1 .28.59 2.25 2.25 0 0 1 .14.48c0 .12.07.5.08.63v.38a3.92 3.92 0 0 1 -.58 1.67 1.3 1.3 0 0 1 -.91.51 2.61 2.61 0 0 1 -1.35-.18 2.45 2.45 0 0 1 -.73-.46 2.11 2.11 0 0 1 -.3-.3 1.37 1.37 0 0 1 -.17-.23c-.07-.12-.12-.2-.2-.2s-.18.24-.24.32-.27.43-.3.47a4.91 4.91 0 0 1 -.63.57 3.17 3.17 0 0 1 -2.73.4 2.26 2.26 0 0 1 -1.07-.87 4.49 4.49 0 0 1 -.4-1.39c0-.17-.65.34-.65.34s-.36.28-.57.43a6.41 6.41 0 0 0 -.51.47 3.55 3.55 0 0 1 -.31.23c-.12.08-.3.2-.32.28a4.05 4.05 0 0 0 -.08.63c0 .26-.06.58-.08.68a2.7 2.7 0 0 1 -.27.87 15.32 15.32 0 0 1 -4.75 4.52c-1.09.58-2.72 1.45-4.14 1.14a3.83 3.83 0 0 1 -1.54-.61 3.32 3.32 0 0 1 -1.07-1.31 2.24 2.24 0 0 0 -.14-.39 4.46 4.46 0 0 1 -.18-.95 5 5 0 0 1 0-.88c0-.33.11-1.11.1-1.16s-.71.35-.71.35l-.12.06-.5.32-.19.09-1 .67-.14.07-.31.17a11.48 11.48 0 0 1 -1.42.79l-.18.08-.18.08-.14.08-.34.16a6.62 6.62 0 0 0 -.89.45 19.2 19.2 0 0 1 -3.15.76c-.64.11-1.43.24-1.91.36-.28.07-1.67.22-1.33-.07l.57-.24.14-.07.14-.05h.12l.32-.1c.17-.08.4-.17.6-.24l.32-.12.55-.2c.53-.21 1.12-.43 1.52-.62l.13-.06.3-.14.16-.06.28-.15a2.45 2.45 0 0 1 .52-.24l.56-.28.27-.16.44-.24.24-.14.44-.22.73-.39c.89-.48 1.75-1 2.57-1.51s1.45-1 2.16-1.51l.53-.41.31-.22.16-.21c.18-.14.37-.31.59-.5l.07-.12a2 2 0 0 1 .23-.25m9.89 8.14.2-.06.23-.1c.13-.06.34-.2.52-.31l.17-.08.15-.08.39-.25c.17-.13.45-.31.68-.47l.83-.56a8.22 8.22 0 0 1 1.56-1 2 2 0 0 1 .9-.25 1.22 1.22 0 0 1 .4.18 1.16 1.16 0 0 0 .7.26 1.55 1.55 0 0 0 .82-.45 1.61 1.61 0 0 0 .23-.33s.26-.49.34-.35v.19.24a.87.87 0 0 0 .2.16.67.67 0 0 0 .67.07 3.86 3.86 0 0 0 .22-.67 2.72 2.72 0 0 1 .27-.54c.27-.47.09.75.05.86a2.91 2.91 0 0 1 -.41.91 1.21 1.21 0 0 1 -.69.47 2.51 2.51 0 0 1 -.5-.14.71.71 0 0 0 -.42-.12l-.22.19-.23.17a1.78 1.78 0 0 1 -.6.22 1 1 0 0 1 -.76-.22.74.74 0 0 0 -.72-.17 8.79 8.79 0 0 0 -1.84 1l-.14.08-.22.14a2.2 2.2 0 0 1 -.28.22c-.38.22-.87.5-1.17.63-.08 0-1.75.47-1.28.12m-27.04-21.12c0-.21.29-1.38.51-1.25 0 0 .32.55.37.65s.23.51.34.71c0 0 1.53 3.42.92 2.93a2.46 2.46 0 0 1 -.41-.38c-.13-.16-.29-.36-.43-.37a5.33 5.33 0 0 0 0 .87 7.4 7.4 0 0 0 .08.75c.05.32.08.62.12 1s.1.77.16 1.14.35 2.47.53 3.81c.32 2.37.85 6.45.85 7.28a10.14 10.14 0 0 1 -.2 2.22c-.06.27-.34 1.42-.55 1.36 0 0 0-1.49 0-1.67a9.93 9.93 0 0 0 -.07-1.39 3.35 3.35 0 0 1 -.05-.47c0-.23 0-.23-.08-.88s-.12-1-.2-1.54c0-.2-.22-1.61-.33-2.46s-.24-1.83-.36-2.73c-.23-1.71-.45-3.35-.64-4.91-.12-.88-.23-1.87-.33-2.85l-.11-1.1a3.47 3.47 0 0 1 -.12-.72m-41.65 19.69a47.49 47.49 0 0 1 5.35-2.37c.31-.06-.09.86-.13.92a6 6 0 0 1 -.82.39c-.44.19-1.32.53-1.95.78s-1.24.54-1.83.83c-.19.09-.84.42-.95.35s.14-.87.33-.9m7.07-1.26c0-.06-.12-.15-.2-.22l-.17-.21a2.27 2.27 0 0 1 -.29-.4l-.16-.19-.06-.15-.12-.12-.1-.24-.12-.27a15.19 15.19 0 0 1 -.69-3.63c0-.31-.18-2.09-.28-3.32-.08-.9-.16-1.9-.25-2.85-.12-1.4-.35-3.29-.64-4.84l-.16-.75-.08-.35c0-.13-.12-.48-.12-.48a2.84 2.84 0 0 1 .51-1.32c.23-.17.6 2 .64 2.27s.34 2.57.53 4l.16 1.94c.07.89.16 1.95.25 2.91a41.35 41.35 0 0 0 .52 4.28c.62 2.14 1.82 3.12 4.09 3.61a9.64 9.64 0 0 0 2.83 0 13.23 13.23 0 0 0 3.54-.94c.65-.26 1.25-.53 1.87-.83a7.91 7.91 0 0 0 .79-.48 3.46 3.46 0 0 1 .92-.49c.27-.05.14.48.1.65s-.15.72 0 .79l.06.16.08.16.17.23a1.45 1.45 0 0 0 .39.3c.89.49 2-.34 2.52-.72a10.23 10.23 0 0 0 -.4-2.75c0-.12-.23-.85-.36-1.31a10.13 10.13 0 0 1 -.28-1.18c0-.17.38-1.25.51-1.17.35.24 1 3.12 1.21 3.94.33 1.63.83 2.67 2.45 3 .8.18 3.65-.25 3.3-1.05a3.25 3.25 0 0 0 -.71-1.12 1.67 1.67 0 0 1 .09-1.67c.35-.32 1.31 1.79 1.36 2.19a5.13 5.13 0 0 1 -.3 2.06c-.21.75-1.9 1.21-2.78 1.21a4.67 4.67 0 0 1 -1.75-.19 3.13 3.13 0 0 1 -1-.59 2.35 2.35 0 0 1 -.36-.41c-.1-.14-.33-.45-.43-.44l-.12.2c-.06.18-.11.33-.15.43a1.88 1.88 0 0 1 -.46.58 3.17 3.17 0 0 1 -1.57.71 1.82 1.82 0 0 1 -1.12-.21 3.2 3.2 0 0 1 -.72-.8 3.82 3.82 0 0 1 -.18-.51c0-.15-.18-.74-.24-.7a12.68 12.68 0 0 1 -1.81 1l-.39.2-.44.2-.16.06-.2.08-.36.14a1.18 1.18 0 0 0 -.28.12 9.2 9.2 0 0 1 -1.47.44l-1 .2h-.2-.2-.24s-.53 0-.52.06l-.69.06a5.25 5.25 0 0 1 -.86 0 10.82 10.82 0 0 1 -1.23-.16 5.85 5.85 0 0 1 -2.47-1.12m26.53-2.43a6 6 0 0 1 .83-2.71c.1-.11-.14.71-.16.79a4.43 4.43 0 0 0 -.2 1.39c0 .25.29 1 .46 1.05s.35 0 .42-.18.18-.48.27-.49-.1.79-.15.92c-.12.36-.29.82-.69.82s-.89-1.13-.82-1.55m-33-.11c-.07-.05-.2-.11-.31-.17a3.61 3.61 0 0 1 -.44-.23 3.81 3.81 0 0 1 -.44-.34 1.47 1.47 0 0 0 -.13-.19c-.73-.4 1.13-2.23 1.24-2.31.65-.51 2.2-1.19 2.33.23 0 0-.35.66-.46.86s-.43-.29-.48-.34a1.16 1.16 0 0 0 -.65-.38c-.34-.06-1.47.67-1.08 1a3.66 3.66 0 0 0 1.66.78 3.17 3.17 0 0 0 1.36-.08c.37-.07 1.28-.26 1.44-.13s-.49 1-.61 1.08h-.27a3 3 0 0 0 -.44.08l-.56.21a5.51 5.51 0 0 0 -1 .4c-.6.32-1.58.85-2 1-.22.07.25-.85.26-.87s.19-.15.35-.27.37-.27.28-.34m49 .92c-1.09-.26-1-1.51-.86-2.67a4.47 4.47 0 0 1 .4-1.35l.26-.56a.68.68 0 0 0 .11-.66l-.31-.27a2.55 2.55 0 0 1 -.55-.42l-.3-.3-.3-.29-.23-.32-.28-.23a.89.89 0 0 1 -.29-.29 3.55 3.55 0 0 1 0-1.52c0-.11.73.19 1 .31l.48.2.72.3c.15.06.42.17.33.36s-.26.1-.37.11-.21 0-.25.09c-.15.22 1.07 1 1.25 1s1.26-1.32 1.43-1.59a8.84 8.84 0 0 1 1.32-1.5c.15 0-.44 1.71-.49 1.78a8.24 8.24 0 0 1 -.48.69 5 5 0 0 0 -.47.64c-.18.3-.3.49 0 .71l.69.48a2.66 2.66 0 0 1 .96 1.46 4.87 4.87 0 0 1 -.26 1.9c-.19.49-2.5 2.34-3.5 1.93m-40.48-3.83c-.06-.21 0-1.06.22-1.13.42-.15 1.5.93 1.77 1.23l.07.12.16.2a3.42 3.42 0 0 0 .51.56 5.55 5.55 0 0 0 .06-1 8.14 8.14 0 0 1 0-1.07 4.22 4.22 0 0 1 .38-1.23c.65-1.14 1.84.28 1.39 1.21-.12.25-.23.21-.36 0a1.71 1.71 0 0 0 -.4-.45c-.62-.49-.69.23-.69.63 0 .71 0 1.95-.08 2.58 0 0-.31 1.21-.31 1.21l-.18-.42a4.3 4.3 0 0 0 -.28-.52c-.22-.31-.45-.6-.69-.9s-.46-.51-.8-.39c-.18.06-.79-.37-.81-.6m43.48.92c.14-.54-1.75-1.57-2.21-1.64a7.21 7.21 0 0 0 -1.13 1.8c-.35 1.12.76 1.26 1.57 1a7.1 7.1 0 0 0 1-.53l.38-.24a5 5 0 0 0 .43-.35m13.73-.53c.15-.5-1.11-.93-1.65-.91a1.4 1.4 0 0 0 -.77.54c-.38.77 2.15.41 2.42.37m-48.89-1.33a5.39 5.39 0 0 1 -.16-2.1 13.09 13.09 0 0 1 .44-2.26c.06-.28.35-1.44.58-1.36.07 0-.05.75-.07.85l-.12.43v.16a16.72 16.72 0 0 0 -.31 1.94c-.08.69.39 2.18 1 2.06.12 0 .27-.28.32-.4s.25-.64.33-.64 0 .9-.05 1.08a2.49 2.49 0 0 1 -.51 1 .57.57 0 0 1 -.86 0 4.39 4.39 0 0 1 -.38-.5l-.07-.16zm9.44-1.13c.64-2.43 2.19-.31 2.19-.31 0 .35-.56 1.46-.94 1.3a6.13 6.13 0 0 1 -1.25-1m-27.08-2.08c-.19-.68 0-3 .55-3.44a4.61 4.61 0 0 1 -.12 1v.15c0 .07-.07.31-.07.36a3.66 3.66 0 0 0 0 1v.16c0 .05 0 .05.12.24a.91.91 0 0 0 .36.43c.28.15.45-.07.51-.28s.2-.67.28-.55-.31 1.57-.38 1.72c-.4.81-1.17-.64-1.25-.79m7.59-.91a35.12 35.12 0 0 1 4.05-2.3l.15-.06.23-.11.22-.12a.45.45 0 0 1 .2-.1l1.07-.5.5-.24a6.05 6.05 0 0 1 .57-.28l.67-.24.36-.16.2-.07.16-.09c1.41-.7 3-1.37 4.45-1.94.81-.32 1.84-.72 2.47-1l.16-.08.2-.08.16-.08c.17-.07.61-.27.73-.21s-.26 1.1-.45 1.14l-.52.22-.24.14-.27.16c-.24.12-.77.33-1.15.48-.6.24-1.47.62-2.19.93l-2.07.9c-.79.39-1.62.78-2.42 1.09a32.75 32.75 0 0 0 -4.66 2.25l-.14.06-.14.08-.28.14a.8.8 0 0 0 -.25.15l-.5.26-.5.28c-1.17.72-1.16.69-.73-.58m69.54-3.82a1.66 1.66 0 0 1 -.27.88 1.74 1.74 0 0 0 -.26 1 2.38 2.38 0 0 0 .35 1.1c.14.21.47 0 .56-.13a1.59 1.59 0 0 0 .13-.22c0-.05.13-.36.21-.24s-.4 1.34-.46 1.4c-.57.57-.91-.1-1.07-.49a3 3 0 0 1 .16-2.06v-.12l.06-.16.1-.23.06-.14c0-.1.31-.63.39-.62m-53.42 3.3a2.44 2.44 0 0 1 -.22-1.35c0-.46.51-2.52.85-2.5.07 0-.14.6-.14.6s-.08.25-.12.39a5.76 5.76 0 0 0 -.15 1.37 1.31 1.31 0 0 0 .49 1 .28.28 0 0 0 .44 0 .87.87 0 0 0 .1-.24c.05-.15.08-.27.16-.32.25-.16-.13 1.38-.63 1.76-.08.07-.62-.45-.78-.6m39-.71c-.06-1 .08-2.92.77-3.44.11-.08-.23.83-.23.83a4.7 4.7 0 0 0 -.25 1.15c-.06.5.31 1.54 1 1.38.09 0 .19-.26.22-.35s.17-.57.26-.56-.12 1-.16 1.15a1.28 1.28 0 0 1 -.6.79c-.42.17-.93-.67-1-1m-13.6-2.34c.06-.14.63.26.72.33s.76.53.91.4l.31-.51a2.06 2.06 0 0 1 .42-.58c.09-.09.57.29.68.38l.44.35.23.2c.53.33-.33 1.45-.55 1.63s-.54-.32-.66-.42a7 7 0 0 0 -.8-.6 4.38 4.38 0 0 0 -.44.69c-.12.23-.28.52-.39.53-.26 0-1.3-.79-1.49-1s.08-.58.17-.77a1.5 1.5 0 0 1 .16-.29l.19-.23zm27.41-3.09c0-.07-.29-.36-.49-.54a1.83 1.83 0 0 1 -.49-.64 2.74 2.74 0 0 1 .38-1.61c.29-.32 1-1 1.35-.26a7.23 7.23 0 0 1 .26 2.06c0 .29.13.39.44.69a.83.83 0 0 1 .2.34c0 .15 0 .78-.17.69l-.48-.29a1.8 1.8 0 0 0 -.48-.26s-.24.22-.29.28l-.08.13-.2.24-.33.27-.4.34a15.21 15.21 0 0 1 -1.34 1.06 16.48 16.48 0 0 1 -4.56 2.19c-.26.08.81-.7.92-.76l.23-.14a4.21 4.21 0 0 0 .56-.29l.24-.14.15-.07c.1 0 .3-.19.44-.28l.94-.59a16.91 16.91 0 0 0 1.68-1.12l.32-.23.4-.32.63-.56zm-42.76 2.25a4.82 4.82 0 0 1 -.18-1.66 6 6 0 0 1 .76-2.23c.16-.26-.11.67-.12.73a4.26 4.26 0 0 0 -.2 1.5c0 .55.26 1.35.81 1.22l.31-.8c.15-.39 0 .81 0 .81a4.3 4.3 0 0 1 -.26.71c-.4.8-.88.24-1.16-.28m16-3-.29-.3-.08-.13a1.4 1.4 0 0 1 -.29-.6 2.85 2.85 0 0 1 .54-1.54 1.23 1.23 0 0 1 .73-.43c.24 0 .39.28.46.46a3.17 3.17 0 0 1 0 1.27c0 .23-.1.86 0 .92s.52.48.8.75 0 .78-.18.81l-.5-.39a4.28 4.28 0 0 0 -.57-.37 7.77 7.77 0 0 0 -1.24 1.11 9.85 9.85 0 0 1 -1.34 1c-.08.06-.8.41-1.12.56l-.29.22-.38.16c-.08 0-.57.3-.6.16s2-1.56 2.35-1.75 2.24-1.55 2-1.9m-40.38.94s-.18.1-.26.17-.31 0-.45-.13a2.09 2.09 0 0 1 -.6-.44c-.15-.41-.18-1.35.36-1.4.39 0 1.28.84 1.62 1.17a7.92 7.92 0 0 1 .61.69l.57.7s.06-.61.09-.92v-.32-.13-.71a4.19 4.19 0 0 1 .26-1.07c.19-.48.49-1.26 1.15-1.11s.84 1.33.4 1.82c0 0-.23-.26-.32-.39a1.06 1.06 0 0 0 -.51-.42c-.25-.08-.39.15-.48.29a13.66 13.66 0 0 0 -.09 1.77 8.87 8.87 0 0 1 -.16 1.76c0 .21-.31 1.4-.47 1.32 0 0-.08-.27-.09-.29a2.35 2.35 0 0 0 -.14-.37 5 5 0 0 0 -.48-.77c-.16-.23-.39-.49-.63-.77l-.2-.19-.25-.27m-9.71 1.45c-.39-.88.39-2.7.78-3.62h.15c.05.05 0 .23-.06.27a4 4 0 0 0 -.19.5c-.11.39-.29 1-.31 1.23-.06.47.2 1.43.66 1.48.25 0 .33-.15.39-.36s.16-.47.28-.45-.19 1-.22 1.07c-.11.29-.28.77-.59.81s-.87-.66-.89-.93m54.61-.31.33-.22.52-.32c.2-.1.48-.25.59-.32l.51-.31c.34-.2 1-.55 1.09-.64l1-.6.63-.33.56-.32.16-.08.16-.08.23-.13c.15-.08.32-.17.48-.27l.5-.28a4.74 4.74 0 0 0 .54-.31 2.47 2.47 0 0 1 1-.48c.27 0-.23.87-.25.88a29.38 29.38 0 0 1 -4.52 2.61c-.77.39-1.5.83-2.23 1.28l-.37.21-.13.06-.51.32c-.88.54-.34-.64-.28-.69m11.47-3.53c.59-.13 1.59.81 1.84 1.18a6.51 6.51 0 0 1 .55.72c.07.11.57.84.62.77s.06-1.25.07-1.58a4.19 4.19 0 0 1 .22-1.35c.14-.3.51-1 .8-1.07.14-.06.59-.23.79.08l.09.15a.9.9 0 0 1 .21.36 1 1 0 0 1 -.1.9c-.06.13-.5-.27-.5-.35a.68.68 0 0 0 -.56-.29c-.21 0-.42.27-.46.46v.27.46.89c0 .61-.06 1-.12 1.43s-.24 1.46-.51 1.4v-.21-.16c0-.05-.13-.34-.14-.36s-.28-.44-.4-.61a6.1 6.1 0 0 0 -.83-1.06l-.36-.22h-.13-.24-.14a4.14 4.14 0 0 1 -.62-.35c-.32-.21-.56-1.34-.08-1.41m-37.95 1.43a1.23 1.23 0 0 1 -.57-.6c-.14-.41.82-1.22 1.1-1.46.44-.36 1.81-.74 1.68.31a1.48 1.48 0 0 1 -.49.69c-.08 0-.22-.23-.28-.33s-.18-.21-.5-.26-.83.21-.75.52a2.74 2.74 0 0 0 .93.51 3.85 3.85 0 0 0 1 0 2.36 2.36 0 0 1 .89 0c.05 0-.34.74-.57.76a7 7 0 0 0 -1.9.41 4.68 4.68 0 0 1 -.76.24c-.07-.07.14-.42.16-.44s.19-.25.11-.35m-8.65-1.1c-.1-.56.22-2.71.75-3 .07 0-.14.56-.16.62a3.49 3.49 0 0 0 -.2 1.35c0 .3.22.88.44 1s.34-.08.46-.26l.06-.18c0-.1.06-.2.16-.24s-.08.73-.12.84a4.45 4.45 0 0 1 -.33.76c-.37.68-1-.51-1.06-.88m57.83-.42c-.26-.46-1 0-.92.48 0 .22.88.72 1.08.77s0-1.11-.16-1.25m-26.69-.44c0-.18-.34-.08-.43 0s-.35.23-.29.53a1 1 0 0 0 .81.59c.15 0 .09-.94-.09-1.09m-25.06-1.34c.08 0 1.18-.43 1.68-.63s1.31-.49 2.38-.85l.92-.34a7.62 7.62 0 0 1 1.85-.59c.11 0-.25.78-.41.85a31.47 31.47 0 0 1 -3.7 1.22 7.83 7.83 0 0 0 -1 .34l-.91.38-.4.12-.4.15c-.64.27-.17-.46 0-.66" fill="#221e1f" fill-rule="evenodd"/></svg>