<svg viewBox="0 0 84.19 25.12" xmlns="http://www.w3.org/2000/svg"><path d="m38.22 1.29c-.38-.25-1 .16-.46.58 1 .78.7 0 .46-.58m-15.43.54c-.29-.2-.82-.11-.76.34l.67.4c.58.26.26-.53.09-.74m30.81-.14c-.08-.23-.58.13-.63.2s.06.48.18.6.41.38.6.3 0-1-.15-1.1m25.74.47c.19.39 1.29 1.29 1.13.1 0-.23-.18-.64-.38-.69s-1 .2-.75.59m-51.84 1.72c-.16-.44.26-3.14.61-3.26l-.13 1c-.08.38-.24 1.21-.1 1.39v.16l.15.31a.57.57 0 0 0 .31.26.3.3 0 0 0 .38-.21 2.24 2.24 0 0 1 .2-.4c.21 0-.06.86-.1 1-.1.33-.24.64-.6.69s-.59-.58-.75-.89m6.53-.68h-.16a1.5 1.5 0 0 0 -.4 0 4.75 4.75 0 0 0 -1.12.08 1.55 1.55 0 0 0 -.5.31 2 2 0 0 1 -.45.27c-.37.09.52-1.42 1.3-1.71.58-.22 2.44-.14 2.41.49a3 3 0 0 1 -.95 1.31 7.3 7.3 0 0 1 -2 .83c-.38 0 .89-.83.89-.83.22-.13 1-.55.94-.75m-32.16.31a5.81 5.81 0 0 1 .71-2.19l-.12.69a3.72 3.72 0 0 0 -.2 1.31 1.34 1.34 0 0 0 .54.87.31.31 0 0 0 .36-.24c.08-.18.16-.39.28-.4l-.14.84a1.6 1.6 0 0 1 -.23.66c-.14.2-.27.22-.53.13-.47-.16-.75-1.05-.67-1.67m15 1.23a2.72 2.72 0 0 1 -.07-1.74v-.16a2.55 2.55 0 0 1 .08-.28l.19-.35.45-1-.18.87a3.72 3.72 0 0 0 -.2 1.31c0 .31.3 1 .52 1.07s.47-.35.61-.74c.07-.21.11.55.07.74a2.7 2.7 0 0 1 -.38.95c-.34.51-1-.25-1.07-.64m52.18-2.94c.64-.11 1.47.7 1.78 1s.42.48.62.74a2.69 2.69 0 0 1 .31.44l.33.43a13.29 13.29 0 0 0 .09-1.88 4 4 0 0 1 .2-1.11c.36-1.08 1.56-1.78 2-.23a1.15 1.15 0 0 1 -.23.72l-.42-.29c-.15-.16-.35-.38-.55-.38a.62.62 0 0 0 -.49.46 22.8 22.8 0 0 0 -.12 2.38c0 .33-.11 2.23-.48 2.1l-.12-.16a2.57 2.57 0 0 0 -.16-.51c0-.07-.27-.43-.4-.62a6 6 0 0 0 -.88-1.12l-.21-.17-.27.02c-.27 0-.27 0-.36-.06a3.93 3.93 0 0 1 -.6-.35c-.29-.21-.51-1.2-.08-1.41m-11.29 3.74c.68-.79 8.12-4.78 8.12-4.78s-.05.72-.15.82a12.59 12.59 0 0 1 -2 1.29c-.78.42-1.53.87-2.27 1.33l-1 .57a10.37 10.37 0 0 0 -1.15.7c-.16.1-.35.22-.52.31l-.67.4-.24.17-.16.13c-.36 0-.19-.92 0-.94m-4.48-1.94a5.48 5.48 0 0 0 -.38-.43 1.25 1.25 0 0 1 -.33-.68 4.23 4.23 0 0 1 .56-1.57.64.64 0 0 1 1.11 0 1.89 1.89 0 0 1 .12 1 4.68 4.68 0 0 0 -.06 1.19l.31.25a2 2 0 0 1 .38.32.8.8 0 0 1 .14 1.05l-.23-.13-.35-.24a4.77 4.77 0 0 0 -.68-.38l-.43.42a6.28 6.28 0 0 1 -.49.54 8.39 8.39 0 0 1 -.94.85 7.33 7.33 0 0 1 -2.45 1.31c-.31.06.13-.46.17-.49.19-.11.39-.26.58-.39l.21-.17.61-.46.22-.16c.5-.37 1.94-1.41 1.94-1.83m-50.73 3.17c1.8-1.11 11.83-6.06 11.91-6.03.43.14 0 1.15-.24 1.28l-.1.06h-.12l-.14.06-.46.21c-.3.16-.62.31-.91.44l-1.73.81a24.67 24.67 0 0 1 -3.29 1.57 16.44 16.44 0 0 0 -1.59.75l-1.67.87a17.3 17.3 0 0 0 -1.68 1c-.43.27-.48.23-.34-.27.07-.23.2-.69.36-.72m35.72-3.51-1-.9c-.17-.09-.1-.87 0-1.08.12-.53.79-1.45 1.31-1.15s.5 1.17.52 1.7a1 1 0 0 0 .49.92.81.81 0 0 1 .08 1l-.41-.15a.81.81 0 0 0 -.39-.17 4.5 4.5 0 0 0 -.42.63l-.33.33-.23.33a4.8 4.8 0 0 1 -1 1.08c-.58.41-1.18.83-1.82 1.22-.4.25-1.84 1.13-2.09 1l.65-.64a8.69 8.69 0 0 0 .73-.49c.23-.19.48-.39.72-.56s.52-.38.83-.63a3.47 3.47 0 0 0 .39-.34h.15l.16.05-.06-.15.18-.19c.12-.1.27-.21.38-.32a7.6 7.6 0 0 0 1.16-1.41m41.76.54c0-.07-.39-.4-.57-.55a1.33 1.33 0 0 1 -.42-.59c-.17-.71.37-2.1 1-2.24.93-.21 1 1.09 1 2 0 .68.08.74.45 1.07.18.17.45 1.14 0 1.08l-.34-.23-.22-.14-.24-.14c-.08 0-.64.51-.79.66s-.47.42-.71.63c-.53.44-1.22 1-1.59 1.26a11.89 11.89 0 0 1 -4.24 2.06c-.26.05.71-.64.76-.67l1-.66.81-.53c.29-.18.57-.36.84-.55s.58-.38.87-.56a5.82 5.82 0 0 0 .81-.56c.24-.2.7-.58.73-.62l.85-.81m-57.34-.23c-.34-.22-1-.66-1.06-.86a2 2 0 0 1 .85-2 .62.62 0 0 1 .94.38 1.43 1.43 0 0 1 .11.43 2.15 2.15 0 0 1 0 .8v.61a2.27 2.27 0 0 1 .62.87l-.24.69-.27-.22c-.14-.14-.29-.29-.46-.25a2.73 2.73 0 0 0 -.32.5l-.41.54a3.84 3.84 0 0 1 -.44.46l-.39.38c-.25.6-4.82 3.41-5.43 3.48-.29 0 .82-.83.82-.83s.29-.22.43-.33l.42-.32c.61-.42 1.21-.89 1.79-1.35l.19-.16.59-.47a9 9 0 0 0 .85-.68c.29-.26 1.54-1.42 1.41-1.71m-13.98 2.37.07.19-.06.67.06 1 .08.2.18.25a.5.5 0 0 0 .34.2l.22-.29c0-.17.16-.56.25-.51s-.15 2.06-.83 1.84c-.9-.3-.9-2.8-.31-3.55m43.34 2.93c-.17-.2.51-1.46.77-1.46a2.14 2.14 0 0 1 .67.37c.23.16.62.45.83.39l.8-1.14.74.45a5.24 5.24 0 0 1 .66.57c.23.43-.24 1.51-.72 1.57 0 0-.54-.39-.67-.5a3.5 3.5 0 0 0 -.7-.48l-.45.77c-.09.21-.27.58-.53.47l-.33-.2-.33-.23c-.12-.08-.27-.2-.42-.32l-.13-.07zm15.07-2.87c.09.06-.14.64-.2.79a3.45 3.45 0 0 0 -.24 1.35c0 .43.39 1.6 1 1.22a.72.72 0 0 0 .13-.42c0-.21.13-.53.28-.49s-.27 1.86-.74 1.94c-.68.1-1-.72-1.09-1.25s.37-3 .83-3.17m12.86 4c-.09-.44-.24-1.27 0-1.62v-.16l.17-.25c0-.12.11-.29.16-.44s.35-.86.49-.88-.3 1-.31 1a2.55 2.55 0 0 0 -.18 1.17c0 .27.25.86.44.91a.38.38 0 0 0 .5-.21.77.77 0 0 0 .1-.22c0-.14.07-.21.16-.25.43-.22-.39 1.43-.45 1.49-.49.49-.83-.15-1-.53m-54.22-2.28a1.71 1.71 0 0 1 .22-1.18c.35-.29 1.65.78 1.84 1l.07.13.2.2.16.19s0 0 .18.19l.19.2.06.15.09.14.3.22c0-.06 0-1.24 0-1.7a3.6 3.6 0 0 1 .2-1c.25-.7.6-1 1.25-.51a2 2 0 0 1 .5 1l-.3.51-.45-.29a.69.69 0 0 0 -.58-.35c-.18 0-.18.74-.18.9s0 .81 0 1.19-.23 2.15-.51 2.11l-.09-.29a1.11 1.11 0 0 0 -.19-.35l-.08-.22-.16-.24a4.79 4.79 0 0 0 -.81-.93c-.43-.39-.56-.52-.82-.45s-.84-.42-1.09-.64m-4.28 2.29c-.17-.39.45-1.57.87-1.37s1.15.54 1.31 1c.11.31-.55 1.44-.83 1.22s-.91-.61-1.35-.88m-13.36 3a4.12 4.12 0 0 1 -1.48-.87c-.15-.27.23-1.12.38-1.33s.68.09 1 .26.7.43.62.91c0 .19-.27.94-.48 1m27.36 0-.19.03-.16-.08-.22-.15a1.74 1.74 0 0 1 -.3-.36c-.28-.57 1.78-2.94 2.31-2.52.24.19.5.4.54.58a1.8 1.8 0 0 1 -.48 1c-.13 0-.36-.22-.51-.38s-.25-.25-.42-.21a.89.89 0 0 0 -.62.6c0 .14.31.35.42.42a2.37 2.37 0 0 0 .32.13c.15.05.19.07.24.16a8.37 8.37 0 0 0 1.27 0 8 8 0 0 1 1.35-.19c.32.36-.59.72-.9.79a13.43 13.43 0 0 0 -1.4.39 7.11 7.11 0 0 0 -1.27.62c-.26.14-.49.26-.3-.16.1-.23.1-.23.15-.27l.14-.32m-31.83 1.13c-.14-.64-.09-2.47.46-3 0 0-.16 1.25-.18 1.39a2.71 2.71 0 0 0 .13 1.06c.41 1.07.68.5 1-.17.09-.21.08.68 0 .92a1.92 1.92 0 0 1 -.31.74c-.43.66-1.07-.64-1.12-.94m27.61-.12-.32-.1c-.18-.06-.69-.11-.82 0a4.91 4.91 0 0 0 -.59.7c-.08.61 2.09.89 2.41.89s-.12-.66-.16-.76a2.52 2.52 0 0 0 -.27-.42l-.25-.35m38.93 2c.17-.25-.74-.69-1-.79-.6-.27-1.55.15-1.4.73.12.43 2 .13 2.37.06m-31.73.63c.12-.17-.43-.6-.59-.69-.47-.23-1.18 0-1.25.46s1.59.41 1.84.23m-19.81.07c-.27-.56-2-1.46-2.2-.28-.08.4 2 .59 2.2.28m27.93.94a1.11 1.11 0 0 0 -.63-.76 2.26 2.26 0 0 0 -.64-.26c-.14 0-1-.12-.9.07a2.4 2.4 0 0 0 .86.9c.17.09 1.35.62 1.31.05m9.88-.85c.22-.48-1.8-1.51-2.19-1.56-.23 0-1 1.54-1.13 1.84a.84.84 0 0 0 .77 1.09 5.16 5.16 0 0 0 2.55-1.37m-3.44 2.79a6.39 6.39 0 0 1 -.47-1.2 6.93 6.93 0 0 1 .4-2.36c.08-.21.18-.43.28-.63a1.43 1.43 0 0 0 .23-.73l-.13-.07-.22-.16-.42-.34a7.67 7.67 0 0 1 -.86-.77 4.1 4.1 0 0 0 -.7-.68 2.43 2.43 0 0 1 -.02-1.73 15.17 15.17 0 0 1 2.54 1.07l-.08.22h-.16l-.38.09c-.28.17 1.2 1 1.39 1a9.91 9.91 0 0 0 1.14-1.44c.36-.54.77-1.11 1.19-1.62.61-.75-.12 1.58-.25 1.75a16.7 16.7 0 0 0 -1.12 1.74c0 .07.43.36.59.47a3.37 3.37 0 0 1 .55.43 2.39 2.39 0 0 1 .81 1.53 4.09 4.09 0 0 1 -.38 1.84 4.81 4.81 0 0 1 -1.67 1.35 2.06 2.06 0 0 1 -2.26.19m-6.72-18.05c.06-.24.33-1.33.51-1.24 0 0 .49 1 .57 1.21.15.37.33.84.51 1.3l.14.3.16.34a3.26 3.26 0 0 1 .3.93c0 .47-.35.1-.47 0s-.32-.36-.47-.38l.42 3.29c.07.46.16 1 .2 1.43 0 .21.07.5.12.75s.1.56.12.67c.35 2.27.82 5.34.92 7.09 0 .57 0 3.45-.67 3.38v-.58a.78.78 0 0 0 0-.34 3.6 3.6 0 0 1 0-.46v-.29a26.67 26.67 0 0 0 -.37-2.9c-.27-1.61-.5-3.27-.72-4.91 0-.18-.1-.67-.16-1l-.08-.51v-.32-.2c-.14-.85-.25-1.78-.36-2.65l-.16-1.39c-.06-.48-.17-1.3-.2-1.54v-.28-.28a4.34 4.34 0 0 0 -.1-.69 1.24 1.24 0 0 1 -.06-.78m-11.23 16.96c.12.09-.13.86-.26.93-.72.4-3.92 1.89-4.06 1.91s.07-.67.15-.73a3.55 3.55 0 0 1 .54-.3c.28-.13.82-.43 1.21-.65l.54-.26a9.35 9.35 0 0 0 .88-.45l.14-.08.25-.14a2.28 2.28 0 0 1 .61-.23m7.46 2.53c-.19-.07-.39.08-.52.23l-.35.33c-.29-.21.62-1.58 1-1.63.23 0 .42.21.47.41a1.65 1.65 0 0 1 -.13 1.13c-.39.64-1.2 2-1.8 2-.13 0 .45-.69.45-.7l.16-.2.18-.22c.23-.29.89-1.11.51-1.39m-37.09-1.36c.22-.2 0 .63 0 .78l-.06.16-.1.32a1.86 1.86 0 0 0 .39 1.61.38.38 0 0 0 .52 0l.13-.25c0-.14.12-.33.19-.33.27 0-.3 1.38-.33 1.42a.53.53 0 0 1 -.56.26c-1.08-.36-.87-3.32-.15-4m17.34 3.19a6.08 6.08 0 0 1 .58-3.24c.21-.26 0 .56 0 .62a6.18 6.18 0 0 0 -.22 1.31c-.05.5.45 1.56.93 1.27l.18-.28c.06-.18.16-.48.27-.42l-.11.78a1.85 1.85 0 0 1 -.35.86c-.61.58-1.07-.48-1.24-.9m54.68-2a1.23 1.23 0 0 1 .8-.08l.4.22a.87.87 0 0 0 .6.13 1.27 1.27 0 0 0 .76-.44 1.61 1.61 0 0 0 .23-.33s.26-.49.34-.23l.11.4.13.07.18.06c.15.05.39.09.51 0s.1-.35.18-.67a2.23 2.23 0 0 1 .25-.54c.4-.46 0 1.2-.07 1.26a1.35 1.35 0 0 1 -.79.93.84.84 0 0 1 -.56 0c-.22-.07-.51-.17-.62-.07a3 3 0 0 1 -.85.51 1.18 1.18 0 0 1 -.9-.22.88.88 0 0 0 -.89-.06c-.19.07-1.45.87-2.45 1.5a7.51 7.51 0 0 1 -1.34.72l-.79.22c-.27.06-.33-.17 0-.26a26.64 26.64 0 0 0 2.44-1.53 10.77 10.77 0 0 0 1.08-.8 4.06 4.06 0 0 1 1.29-.72m-68.24 3.06a6.38 6.38 0 0 1 -.77-1.92 5.55 5.55 0 0 1 0-2.26c0-.32.09-.65.15-.91s.14-.61.08-.69l-.65.19-.8.28c-.23.06-.42.13-.64.2l-.83.28c-1 .23-3.58.15-4-.71l-.62-.57a1.79 1.79 0 0 1 -.56-.72l-.08-.14-.08-.15c-.07-.17-.14-.35-.2-.52a6.4 6.4 0 0 1 -.34-1.26 10 10 0 0 1 .2-2.77c.09-.54.56-2.08 1.1-2.1l-.18.52a3.66 3.66 0 0 0 -.2.59c-.13.45-.22.94-.32 1.47a4.78 4.78 0 0 0 .16 2 3.59 3.59 0 0 0 2.49 2.45 7.59 7.59 0 0 0 4.5-.37 17.9 17.9 0 0 0 5.53-3.17c.46-.52.6-.69.28-1.43-.22-.51-.49-1-.75-1.5a12.08 12.08 0 0 1 -1-3.27c.06-.24.32-1.28.48-1.2l.16.25a.92.92 0 0 0 .15.25l.18.19.28.32a8.83 8.83 0 0 1 .72 1c.05.08.19.42 0 .48l-.28-.08c-.13-.07-.33-.17-.4 0a11.63 11.63 0 0 0 .64 1.44 15.34 15.34 0 0 1 .64 1.51c.62 2.47-1 3.67-2.31 4.55a20 20 0 0 1 -1.93 1.19c-.45.24-.74.39-.86.91l-.08.24-.08.32c0 .17-.12 1.19-.12 1.19v.23.44l.12.47a2.13 2.13 0 0 0 .26.7 3 3 0 0 0 2.27 1.54c2.4.27 7.84-3.13 8.06-4.57 0-.14-.13-.47-.3-.42a8.43 8.43 0 0 1 -.83.2l-.44.08a3.44 3.44 0 0 1 -.84 0h-.27a2 2 0 0 1 -.6-.14 1.39 1.39 0 0 1 -.57-.29 2 2 0 0 1 -.41-2 3.45 3.45 0 0 1 .34-.95 3.18 3.18 0 0 1 .27-.37l.08-.12.2-.16a1.73 1.73 0 0 1 1.12-.44 2.67 2.67 0 0 1 1.42.75 4.22 4.22 0 0 1 .54.65l.23.32a3 3 0 0 0 .34.45c.3.24 2.3-1.52 2.49-1.73l.19-.23a3.45 3.45 0 0 1 .48-.51c.39-.32.42-.19.42.4a5.48 5.48 0 0 0 .14 1.35 2.45 2.45 0 0 0 .85 1.12c1.14 1 2.95 0 3.57-.83a7 7 0 0 0 .7-1.56 5.54 5.54 0 0 1 .3-.73l.16-.18.13-.27.08-.12.37-.39.22-.2h.15l.26-.16a1.22 1.22 0 0 1 1 .16 6.17 6.17 0 0 1 1.25 1.88c.29.67.68 2.25 0 2.81a2.26 2.26 0 0 1 -1.34.2c-.22 0-1-.11-1.11 0a10.68 10.68 0 0 0 -.74 2.8 5.21 5.21 0 0 0 .26 1.67 12.41 12.41 0 0 0 .87 1 3.57 3.57 0 0 0 1.54.39 5.86 5.86 0 0 0 2.36-.53 14.16 14.16 0 0 0 4.19-2.89c.26-.23.75-.69.73-1.07s-.19-.36-.54-.34h-.32c-.19 0-.58.08-.83.12-1.1.13-2.27-.2-2.41-1.39a3.72 3.72 0 0 1 .59-1.84 2.55 2.55 0 0 1 1.11-1 1.36 1.36 0 0 1 1 0 3.38 3.38 0 0 1 1 .92 5.5 5.5 0 0 1 .38.56c.15.24.39.63.54.65a9.83 9.83 0 0 0 2.52-.84c.16-.1-.11-1.32-.17-1.62-.14-.59-.25-1.28-.36-1.94l-.64-4c-.12-.73-.26-1.69-.36-2.49s-.22-1.81-.32-2.42a7.32 7.32 0 0 0 -.15-.79 5 5 0 0 1 -.2-.91c.06-.36.26-1.28.51-1.39l.42.87a4.13 4.13 0 0 0 .32.63c.11.19.24.43.32.6l.06.16.14.28.06.11.14.32.16.36c.06.14.44 1 .14 1l-.34-.27c-.18-.19-.32-.34-.45-.35l.06 1.07v.2c0 .26 0 .26.08.44v.27c.05.36.05.36.08.52v.2.39.2c.08.51.22 1.48.24 1.62a13.39 13.39 0 0 0 .44 1.44c0 .2.07.43.11.67s.08.45.12.64.09.44.12.63v.24.16.2l.24 1.15a9 9 0 0 0 .45 1.31c.1 0 .38 0 .65-.08a2.66 2.66 0 0 1 1.23 0 4.35 4.35 0 0 1 1.13.59 1.46 1.46 0 0 1 .44.94 6.35 6.35 0 0 1 -.22 2.41 1.33 1.33 0 0 1 -.6.75c-.79.34-1.71-.3-2.19-.77a4.4 4.4 0 0 1 -.58-.7l-.3-.51c-.11-.22-.24-.48-.34-.5a5.86 5.86 0 0 0 -.71.24l-.76.28a6.37 6.37 0 0 0 -1.19.47 1 1 0 0 0 -.06.34 6.08 6.08 0 0 1 -.12.87 3 3 0 0 1 -.3.81 14.1 14.1 0 0 1 -4.85 3.86l-.2.08-.2.08-.2.08-.39.14a4.6 4.6 0 0 1 -1.24.28 5 5 0 0 1 -1.83-.16c-.26-.09-1-.47-1.07-.71l-.2-.23a1.24 1.24 0 0 1 -.22-.39 4.76 4.76 0 0 1 -.32-.91 6.77 6.77 0 0 1 0-2.29 18 18 0 0 1 .68-2.11c.16-.46.26-.74-.14-1-.18-.12-.7-.48-.85-.36l-.13.25a3.13 3.13 0 0 1 -.22.45 3 3 0 0 1 -.64.77l-.22.17-.35.23a3.29 3.29 0 0 1 -.86.34 4.83 4.83 0 0 1 -1.31 0l-1-.49c-.37-.22-.81-1.41-1.09-2.22-.06-.17-.58.45-.62.5a4 4 0 0 1 -.54.55c-.08.07-.45.31-.68.47s-.56.37-.58.55a9.46 9.46 0 0 1 -.58 2.32c-.53 1.29-6.09 5-7.63 4.62h-.56a2.3 2.3 0 0 1 -.48 0 3.08 3.08 0 0 1 -.87-.21c-.28-.11-1.08-.66-1.12-.93m52.22.73c-.26 0-1-1.07-1.12-1.35a5 5 0 0 1 -.35-1.82 6.46 6.46 0 0 1 0-.67v-.44-.22c0-.35-.35-.09-.51 0a17.08 17.08 0 0 1 -2.13 1.41 20.74 20.74 0 0 1 -5.18 2.36l-.28.07a2.23 2.23 0 0 1 -.36.09l-.35.08c-.16 0-.39.08-.6.11-.53.1-1.33.25-1.67.36-1.71.57-2.44.27-.44-.43l2.62-1a9.67 9.67 0 0 0 1.38-.65 10.19 10.19 0 0 1 1.43-.71 37.85 37.85 0 0 0 4.82-2.89c.79-.53 4-2.78 3.72-3.49l-.06-.2-.06-.14-.16-.33-.26-.44-.31-.59a5 5 0 0 1 -.39-.66 11.52 11.52 0 0 1 -1.17-2.79c0-.19.2-1.38.37-1.37 0 0 .56.6.69.75l.72.67c.22.2.64.6.65.79s0 .12-.23.09l-.54-.09c-.24.08 0 .41.07.55a5.65 5.65 0 0 1 .39.69c.12.24.32.52.48.77.65 1 .87 3.45-.13 4.49l-.24.28a3.55 3.55 0 0 1 -.48.47 5.58 5.58 0 0 0 -1 1c-.57.76 0 2.35.39 3a2.41 2.41 0 0 0 1.26.94c2.13.63 4.52-.7 5.73-1.81.6-.55 1.48-1.35 1.94-1.71a10.39 10.39 0 0 0 .93-.94c.43-.49.5-.62.28-1.26l-.63.14a5.76 5.76 0 0 1 -.6.12 9.55 9.55 0 0 1 -1.53.15 2.77 2.77 0 0 1 -1.32-.4c-.62-.36-.59-1.61-.4-2.39a2.54 2.54 0 0 1 1.81-1.8 2.34 2.34 0 0 1 1.31.3 3.55 3.55 0 0 1 .89.74 4.77 4.77 0 0 1 .45.54 3.59 3.59 0 0 0 .42.54 9.84 9.84 0 0 0 1.81-1 4 4 0 0 1 .57-.5 2.78 2.78 0 0 1 .93-.56c.31 0 .27.5.25.73a1.7 1.7 0 0 0 .1.89 2.1 2.1 0 0 0 .94.85 2.62 2.62 0 0 0 1.45.18 3 3 0 0 0 2.27-1.88 5.36 5.36 0 0 1 .74-1.22c.34-.12.13.47.06.64s-.35.8-.24.91a2.91 2.91 0 0 0 1.23.81c1.86.62 1.56-.24 1-1.21a3.86 3.86 0 0 1 .36-1.52c.28-.23.77 1.3.83 1.6a3.2 3.2 0 0 1 -.45 2.42 1.45 1.45 0 0 1 -.92.53 2.67 2.67 0 0 1 -1.74-.42 2.37 2.37 0 0 1 -.56-.48c-.13-.17-.36-.45-.47-.43l-.17.27-.23.38c-.05.07-.4.41-.62.63a3.13 3.13 0 0 1 -1.61.64 2.49 2.49 0 0 1 -1.52-.3c-.73-.49-.89-1-1.2-2l-.83.5c-.29.21-.57.43-.85.65a5.54 5.54 0 0 0 -.66.58 11.43 11.43 0 0 1 -.38 2.14 13.36 13.36 0 0 1 -4.75 4.66 12.08 12.08 0 0 1 -2.15 1c-1.11.24-2.7.36-3.44-.38" fill="#221e1f" fill-rule="evenodd"/></svg>