<svg viewBox="0 0 72.29 25.97" xmlns="http://www.w3.org/2000/svg"><path d="m23.55 1.8c.02-.59-.48-1.03-.93-.59-.25.25.01.44.21.59.11.08.26.19.34.24.3.19.36.23.38-.24m18.15.45c-.28-.24-.78.18-.69.5.07.27.53.56.76.6.34.06 0-.98-.07-1.1m25.68.36c.02.29 1.14 1.04 1.2.74.05-.2-.09-.92-.24-1.1-.28-.31-1.01-.06-.96.36m-51.77 3.06c-.2-.37-.39-1.17-.3-1.58v-.18l.08-.71c.04-.32.09-.62.16-.91.06-.26.26-1.14.47-1.08 0 0-.13.74-.15.84-.11.59-.12 1.37-.12 1.96 0 .46.35.89.59 1.16.2.24.45-.07.49-.27.04-.19.15-.67.27-.58.22.15-.18 1.5-.33 1.71-.33.5-.85-.04-1.15-.36m41.36-3.18c.42-.4 1.7.84 1.94 1.07.09.09.18.2.26.3q.09.11.16.2l.16.22c.08.1.2.3.3.46.04.06.25.41.32.32.02-.03.02-.65.02-.85 0-.26.02-.55.04-.87.02-.35.06-.91.18-1.21.15-.38.84-1.49 1.39-1.15.33.2.5.51.62.91.05.17-.14.63-.23.73-.03.03-.32-.25-.37-.3-.12-.12-.3-.27-.45-.34-.59-.29-.68.96-.69 1.2v.78c0 .39-.01.86-.08 1.31-.06.39-.24 1.64-.46 1.63-.03 0-.16-.38-.2-.48-.07-.21-.25-.47-.4-.69-.25-.38-.55-.82-.83-1.1-.16-.16-.38-.38-.52-.37-.33.02-.53-.09-.8-.26-.45-.28-.77-.92-.35-1.5m-11.24 3.68c.37-.35 7.77-4.72 8.01-4.77.53-.12-.13.91-.36 1.05 0 0-.32.21-.48.32-.2.14-.42.28-.64.4-.81.46-2.15 1.23-2.51 1.47q-.12.08-.26.16s0 0-.26.16l-.14.08-.28.16-.26.16s0 0-.28.16c-.13.07-.27.16-.4.24-.21.12-.53.32-.64.39l-1.19.71c-.11.08-.51.34-.56.28-.12-.14.07-.9.24-.95m-39.49-2.69c-.22-.15.03-1.06.12-1.23.04-.08.56.08.6.1.21.07.39.18.56.3.42.3.88.8 1.24 1.26q.11.12.44.54c.1.14.44.61.48.59.04-.01.08-1.08.09-1.2q.02-.56.04-.75c.03-.25.09-.5.16-.71.13-.38.3-.9.54-1.03.41-.23.76.12.97.45.32.5.26.7.08 1.23-.09.26-.54-.31-.58-.36-.07-.09-.75-.56-.72-.19.04.55-.33 4.46-.57 4.53-.05.02-.16-.22-.17-.26-.06-.2-.15-.47-.16-.49-.06-.12-.15-.3-.28-.5l-.16-.24c-.16-.31-.86-1.22-1.21-1.2-.03 0-.11.37-.12.45-.03.15-.07.3-.12.44-.12.33-.25.67-.46.9-.35.37-1.93 1.76-2.44 1.73-.29-.02.38-.62.38-.62.14-.12.55-.5.92-.85.15-.15.33-.34.46-.51q.1-.13.19-.22c.09-.09.18-.2.26-.3.14-.17.29-.37.39-.57.21-.41.06-.5-.26-.67-.13-.07-.67-.44-.66-.59m34.93.87c.02-.1-.23-.41-.39-.61-.13-.16-.21-.36-.29-.58-.09-.26.28-1.34.42-1.45l.17-.23.2-.16c.12-.1.27-.17.41-.21.21-.06.47.29.51.46.07.31.11.59.08.91-.04.42-.11 1.15-.03 1.24s.27.22.41.31c.19.13.31.29.44.48.07.1.08.83-.14.83-.05 0-.18-.1-.21-.13-.1-.09-.19-.15-.31-.23-.25-.17-.6-.4-.8-.37 0 0-.35.42-.46.56 0 0-.39.39-.58.58-.35.35-.7.65-1.11.94-.01 0-.3.17-.44.24l-.14.08-.16.08-.24.16c-.16.09-.34.18-.52.26-.21.1-.41.19-.6.3-.43.25-.64-.09-.18-.4l.3-.16.14-.08c.17-.1.33-.21.49-.32.89-.62 2.78-2.01 3.01-2.49m-18.07-1.15s-.45-.39-.63-.53-.43-.35-.49-.54c-.11-.44.02-1.04.22-1.37.18-.31.46-.6.8-.75.27-.12.48.05.65.19.19.16.24.52.29.82.05.36.06.56 0 .91-.05.27-.08.48.1.67t.21.23c.08.1.16.2.23.31.21.31.15.57.01.96-.05.14-.42-.26-.46-.29-.12-.12-.28-.29-.43-.25-.02 0-.21.3-.32.46-.11.17-.33.48-.35.5-.11.11-.34.36-.5.53q-.17.21-.18.22c-.25.25-.5.5-.76.71-.21.18-.86.73-.86.73-.41.41-3.39 2.5-3.83 2.43-.28-.04.43-.64.53-.72.12-.1.42-.34.43-.35.02-.01.32-.25.45-.37.57-.48 1.23-1.03 1.73-1.43.55-.44 1.2-.96 2.05-1.74l.37-.42c.18-.2.75-.81.73-.92m44.85 1.11s-.24-.2-.45-.37c-.19-.15-.37-.3-.46-.5-.25-.54.09-1.5.36-1.9.38-.57 1.02-.77 1.37 0 .11.24.18.56.2.85.02.49.07 1.4.23 1.54.2.17.9 1.01.3 1.27-.02 0-.34-.22-.45-.29-.16-.11-.34-.23-.55-.25-.03 0-.23.23-.28.28l-.07.12c-.04.06-.11.12-.16.18-.15.15-.65.63-.65.63l-.12.07-.18.16c-.1.1-.19.18-.3.27-.25.2-.55.44-.77.59-.87.58-3.83 2.44-4.6 2.24-.04 0 .64-.53.71-.57.28-.18.64-.38.97-.56.28-.16 1.18-.76 1.77-1.15.58-.39 1.48-.99 1.74-1.2s1.52-1.21 1.4-1.42m-45.75 5.21c-.11-.49-.15-.82-.08-1.39.02-.13.16-1.29.3-1.23.18.08.15.72.14.89-.03.42-.05.78.1 1.01.43.65.97.09 1.2-.4.1-.22.06-.67.02-1.03-.05-.44-.1-.82.06-1.23.14-.35.34.38.34.48 0 .47.06 1.09.3 1.39.43.54 1.65.88.96-.24-.38-.61-.71-1.43-.31-2.25.02-.04.87 1.62.93 2.05.06.41-.18 1.56-.38 1.78-.35.39-.78.2-1.15-.04q-.07-.04-.32-.35c-.16-.06-.3.24-.36.38-.48 1.07-1.07 1-1.73.18m17.81-.16c-.12-.15.41-1.19.6-1.31.18-.13.66.19.92.36.66.44.71.47 1.08-.26.33-.65.45-.67 1.01-.26.3.22.81.59.91.91.12.34-.48 1.29-.76 1.37-.07.02-.57-.4-.66-.49-.14-.12-.63-.54-.77-.5-.02 0-.11.19-.13.23l-.16.28c-.13.23-.4.7-.41.71-.21.17-1.62-.89-1.62-1.04m15.08-2.72c-.23.73-.48 1.54-.48 2.13 0 .51.47 1.42.99 1.16.06-.03.14-.28.17-.37.05-.19.13-.52.23-.54.22-.04.01.84-.03.98-.14.43-.25.74-.58.97-.51.36-1.08-.79-1.13-1.17-.1-.73 0-1.42.24-2.1.04-.11.57-1.5.6-1.06m12.73 2.84c.17-.89.38-1.57.76-2.23.18-.31-.06.67-.09.73-.08.14-.12.24-.18.4-.05.12-.09.23-.1.32l-.05.46.05.29q.03.17.1.36c.06.16.13.35.23.4.27.15.42.13.57-.12.08-.13.29-.47.32-.46.46.16-.56 1.61-.85 1.66-.63.09-.73-1.28-.78-1.8m-43.6 2.5c.02-.22.49-1.16.66-1.25.15-.08.8.43.98.57.42.33.2.74-.02 1.15-.28.52-.33.62-.73.31q-.06-.05-.21-.15l-.12-.08-.13-.09c-.15-.12-.43-.36-.42-.47m34.03 4.5c-.51-.43-2.02-1.54-2.46-.14-.08.25.75.4.95.42.17.02 1.47-.05 1.51-.28m-51.03-.26-.06-.16-.06-.12c-.06-.15-.1-.37-.12-.51-.03-.21-.06-.5-.08-.79v-.28s0-.24 0-.24c-.03-.17.29-1.82.44-2.57.06-.31.47-2.07.75-1.97 0 0-.33 1.65-.35 1.77-.19.97-.38 2.02-.2 3.01.09.51.31 1.24.68 1.47.35.22.53.03.66-.28.07-.15.29-.69.33-.68.18.04-.17 1.48-.19 1.56-.12.37-.23.63-.54.81-.31.19-.74-.2-.85-.31-.04-.04-.2-.28-.29-.42l-.12-.28zm14.94 1.26c.19-.19-.61-.66-.83-.72-.44-.14-1.16 0-1.3.4-.13.4 1.93.62 2.12.33m22.35-.15c0-.59-1.69-1.45-2.19-1.57-.24-.05-1.05 1.51-1.14 1.8-.35 1.18.85 1.23 1.61.91.31-.13.59-.33.86-.51l.36-.24.33-.23.17-.17zm-3.52 2.76c-.21-.35-.4-.65-.45-1.18-.04-.5.08-1.46.28-2.1.09-.3.2-.54.32-.79.11-.24.35-.76.25-.86-.01 0-.86-.72-1.25-1.05-.11-.1-1.11-1.06-1.11-1.06-.12-.47-.15-1.05 0-1.54.05-.18.31-.03.44.05.09.05.41.17.61.24.23.08.47.16.68.26.16.07.59.26.6.26.16.06.42.29.16.39-.19.07-.55.21-.52.28.09.18 1.1.79 1.31.87.12.05 1.16-1.37 1.31-1.58.18-.25.37-.5.57-.75.1-.13.22-.27.31-.4.13-.2.27-.41.41-.43.17-.03-.07.72-.12.85-.19.56-.35 1.03-.47 1.2-.15.21-.51.7-.58.72q-.17.05-.13.31s-.14.23-.14.24q-.11.16.02.46l.14.08.16.08c.1.06.23.16.34.24.09.07.21.15.29.23l.21.22.2.24c.22.19.51.91.47 1.3-.07.58-.16 1.47-.38 1.7-.55.61-2.93 2.7-3.91 1.53m-6.87-19.39c.27-.08 1.15 1.98 1.27 2.26.08.2.18.41.28.6.09.18.18.37.26.55.02.04.64 1.49.22 1.33-.13-.05-.34-.3-.53-.53-.09-.1-.38-.45-.44-.42-.15.08.44 3.67.47 3.82.2.99.37 2.01.52 3.01.07.5.15.99.24 1.47.1.55.19 1.11.28 1.67.2 1.27.45 2.96.4 4.02-.03.6-.14 2.83-.63 2.93-.1.02-.12-1.02-.12-1.1 0-.67-.02-1.34-.08-1.98-.03-.28-.14-.91-.18-1.13l-.06-.36-.12-.83-.04-.28-.04-.24c-.04-.24-.08-.51-.12-.75l-.08-.59c-.04-.24-.11-.74-.12-.79-.15-.73-.3-1.74-.44-2.61-.26-1.72-.55-3.63-.8-5.55-.11-.84-.29-2.24-.4-2.58-.2-.63.03-1.32.26-1.9m-.86 20.64c.12-.66.47-2.29.67-2.51.2-.21-.03 1.02-.03 1.04-.11.61-.25 1.36-.06 1.9.09.25.43.78.72.38.05-.07.1-.21.14-.34.05-.16.16-.47.29-.39.18.11-.29 2.02-.95 1.91-.72-.12-.78-1.2-.78-2m-7.19-1.42c0 .15-.03.24-.06.36-.05.18-.09.42-.12.63-.07.61-.11 1.07-.08 1.58.02.32.3.97.76.83.11-.03.18-.28.24-.48.03-.1.13-.45.23-.37.36.28-.35 1.78-.61 1.89-.62.27-.96-.7-1.06-1.21-.08-.43.2-3.29.7-3.25m39.42 1.25c.28-.09.65-.21.95-.06.37.19.64.32.92.3.31-.02.61-.29.77-.48.08-.1.16-.22.23-.33.09-.16.18-.31.26-.35l.08.12.03.39s.17.14.19.15c.2.1.44.15.63.05.06-.03.15-.37.23-.63.05-.18.2-.69.42-.67.05 0 .01.6-.02.75-.04.18-.11.39-.18.56-.12.28-.28.66-.5.79-.16.11-.34.21-.5.22-.13 0-.29-.05-.4-.1-.06-.03-.32-.14-.32-.14-.09-.01-.32.15-.52.3-.18.13-.37.21-.6.3-.26.09-.71-.14-1.04-.3-.31-.16-.6-.05-.91.06-.26.09-1.01.58-1.47.89-.69.46-2.5 1.66-3.18 1.46-.08-.03.97-.67 1.03-.7.46-.29.9-.57 1.33-.89.66-.48 2.36-1.63 2.57-1.67m-17.02 2.51c-.15-.44-.31-.91-.36-1.47 0-.13.02-.62.04-.99q.02-.33.04-.44s.06-.38.02-.44c-.05-.06-1.42.87-1.49.91-.11.08-.24.16-.36.24s-.34.21-.38.24c-.11.08-.24.17-.36.24-.98.55-1.88 1.05-2.87 1.54-.95.47-2.22.8-3.34 1.05-.31.07-.63.13-.96.2-.37.07-1.06.21-1.15.24-.36.1-1.64.45-1.79.34-.17-.13.48-.44.52-.46.26-.11.52-.22.8-.32.08-.03.56-.23.8-.34l.16-.06.16-.06.28-.1.16-.06.2-.08.16-.06c.17-.06.43-.16.52-.2t.28-.12l.36-.16s.5-.24.7-.34l.4-.2.14-.08q.15-.09.22-.12s.52-.27.69-.36c.14-.07.27-.15.4-.24.04-.03.22-.12.32-.18.23-.12 1.12-.63 1.65-.93.94-.54 2.23-1.27 3.14-2.02l.32-.24.2-.17q.2-.16.31-.22l.13-.09c.11-.08.35-.27.51-.4.49-.39 1.47-1.2 1.59-1.69.04-.19-.6-1.31-.82-1.68l-.16-.26-.08-.12-.24-.44c-.14-.25-.36-.63-.42-.79-.21-.57-.46-1.19-.72-1.7-.18-.36-.01-2.27.55-1.43.12.17.32.37.48.51.12.11.24.2.37.29.08.06.2.18.29.26.14.14.57.59.57.59.08.11.2.39-.12.34-.02 0-.52-.06-.52-.06-.31-.01.63 1.51.68 1.59.29.46.55.91.74 1.48.44 1.31-.09 2.89-.74 3.6-.27.29-.55.56-.86.81-.32.26-.54.48-.79.82-.01.02-.1.31-.12.4q-.04.16-.04.38c0 .24 0 .98.04.93l.04.2.04.16c.05.17.07.24.14.4 0 .01.22.35.33.51.25.38.72.72 1.19.88.54.18.92.25 1.55.18.8-.09 1.63-.25 2.19-.61 2.02-1.29 3.99-2.64 5.33-4.6.12-.18 0-.55-.17-.65-.1-.06-.38.04-.51.09-.14.05-.34.09-.6.14-.45.09-1.22.23-1.75.2-.22-.01-.5-.1-.71-.18-.1-.03-.32-.14-.47-.25q-.13-.12-.18-.14c-.5-.15-.34-1.99-.17-2.43.31-.77.85-1.47 1.77-1.64.35-.06 1.04.13 1.3.34l.24.16.23.19c.17.14.38.3.5.45.11.13.28.36.41.55.12.17.34.47.48.46.31-.04 1.31-.73 1.7-1.02.55-.4 1.38-1.02 1.56-1.04.16-.02.24.43.22.57-.06.43-.09.77.1 1.11.21.38.57.59.96.83.29.18 1.12.24 1.47.14.35-.09.6-.16.84-.3.12-.07.3-.2.47-.33q.13-.12.18-.14c.11-.03.59-.83.7-1.04.23-.44.67-1.26.83-1.32.34-.12.22.24.13.48-.09.22-.35.89-.34.91.25.81 2.69 1.5 2.83.79.03-.14-.16-.51-.22-.62-.11-.18-.34-.54-.34-.55-.04-.24.3-1.4.47-1.42.18-.02.59.97.64 1.17.22.78.23 1.55-.04 2.3-.46 1.29-1.66 1.4-2.95.79-.24-.12-.87-.71-.94-.99-.04-.19-.36.32-.36.32l-.08.14c-.1.17-.1.18-.16.26-.19.27-.43.48-.7.67-.46.33-1.11.52-1.81.57-.46.03-1.04-.17-1.38-.42-.23-.17-.5-.37-.64-.63-.08-.16-.21-.4-.24-.52l-.08-.32s-.08-.48-.12-.49c-.16-.04-.48.25-.59.36-.15.15-.33.28-.51.4-.19.13-.38.27-.55.41-.14.11-.62.5-.62.51q-.05.21-.08.63c-.03.35-.06.77-.08.91-.03.22-.13.53-.24.67-.52.7-1.7 2.19-1.71 2.19-.91.91-1.92 1.72-3.01 2.44-.96.64-2.62 1.46-4.14 1.17-1.01-.19-2.46-.96-2.61-1.92m-34.96.67c-.28-.89-.59-1.99-.48-2.88.06-.5.14-1.05.28-1.56.1-.35.29-1.07.27-1.24 0-.03-.76.47-.79.49-.12.08-.37.24-.37.24-.15.11-.28.21-.45.31-.63.39-1.56.95-1.95 1.15-1.47.74-2.93 1.47-4.5 1.92-.44.13-.93.18-1.23.2-.4.02-1.32.17-1.95.28-.45.08-.97.16-1.23.24-.31.09-1.29.36-1.14-.07 0-.03 1.16-.44 1.46-.54.55-.19 1.16-.41 1.71-.62.24-.09.53-.2.72-.28.07-.03.4-.14.6-.2.14-.04.35-.14.52-.22.46-.21 1.42-.65 1.71-.75.39-.14 1.76-.82 2.67-1.27.39-.2.82-.44 1.19-.67.4-.25 1.21-.73 1.35-.79.7-.31 2.85-1.99 3.04-2.67.05-.17-2.35-4.98-2.53-5.25-.05-.07.23-1.54.26-1.6.08-.13 1.16 1 1.28 1.13.25.25 1.06 1.11.93 1.38-.03.05-.4-.08-.4-.08-.02 0-.54-.19-.42 0 .38.58 1.35 2.32 1.43 3.05.15 1.26.06 2.21-.46 3.01-.06.09-.33.43-.49.62-.16.2-.23.35-.33.64-.29.86-.52 1.69-.6 2.77-.04.61.1 1.32.34 1.75.13.24.26.39.45.57q.08.07.29.22l.22.14c.19.19 1.23.26 1.55.24.41-.03.82-.12 1.15-.24.16-.05.38-.13.48-.18l.16-.08.2-.08q.3-.13.32-.14c.45-.14 1.72-1.15 2.5-1.77.39-.31.79-.64 1.12-1 .11-.11 1.33-1.42.78-1.58-.08-.02-.28.04-.54.11-.17.05-.55.12-.8.16-.37.06-.75.13-1.24.04-.78-.14-1.36-.47-1.49-1.33-.03-.2.12-1.67.36-1.82l.14-.28c.07-.1.16-.22.25-.33.13-.16.32-.32.5-.42.33-.17.67-.23 1.04-.14.5.12.93.55 1.29.9.15.16.3.32.42.5.15.23.45.67.56.69.25.05 1.25-.61 1.61-.85t.23-.19c.13-.1.3-.24.38-.3.33-.22.68-.45.76-.45.22.01.2.35.18.53-.03.27.02.65.08.95.08.38.15.74.3 1.05.16.35.44.6.74.81.76.55 3.19-.1 3.42-.91.1-.33-.37-3.33-.6-4.79s-.43-2.75-.68-4.24c-.22-1.29-.51-3.6-.72-5.27-.05-.36-.1-.71-.22-.99-.13-.31-.25-.59-.18-.83.11-.37.36-1.26.46-1.32.06-.04.46.76.53.89.19.39.54 1.06.62 1.19.38.62 1.18 1.97 1.07 2.69-.04.28-.56-.34-.59-.37-.11-.14-.44-.55-.57-.51-.07.02.04.89.07 1.2.03.28.07.56.12.83.02.14.08.5.12.79.03.2.3 1.83.44 2.65l.2 1.15.12.75.04.2.08.48c.14.94.44 3.52.4 3.68l.05.62-.05.65-.04.4c-.02.37-.07.79-.16 1.15-.14.54-.43.84-.84 1.11-.24.16-.54.34-.82.46-.15.07-.35.13-.6.2l-.16.04s-.24.06-.24.06c-.06.14-1.33-.18-1.43-.24-.2-.11-.49-.32-.85-.7l-.12-.21s-.31-.66-.36-.79c-.05-.14-.09-.36-.12-.56-.05-.31-.12-.69-.19-.84-.05-.11-.43.22-.48.26-.14.14-.31.28-.48.38q-.13.08-.24.16c-.13.09-.25.17-.4.24-.2.1-.56.26-.6.4v.38c-.02.22-.06.56-.12.77 0 0-.08.32-.12.48-.05.2-.1.38-.18.55-.72 1.58-4.52 4.52-6.61 4.81-.66.1-1.29.03-1.91-.08-.53-.1-1.31-.77-1.53-1.21m-7.57.74c.37-.16.94-.44 1.38-.66s.96-.43 1.43-.61c.07-.03.89-.44 1.33-.65l.18-.08.16-.08c.16-.08.32-.16.46-.24.24-.13.56-.32.79-.37.24-.06-.11.8-.14.85 0 .02-.56.33-.82.48-.48.27-1.13.56-1.67.79-.33.15-.8.35-1.06.48-.07.04-.27.1-.46.16-.18.06-.37.12-.54.2-.17.07-.43.19-.54.24l-.16.08-.14.08-.16.08c-.16.07-.38.18-.34-.08.03-.18.14-.59.27-.65" fill="#1d1d1b" fill-rule="evenodd"/></svg>