<svg viewBox="0 0 84.86 25.67" xmlns="http://www.w3.org/2000/svg"><path d="m37 1.52c-.05.19.28.39.48.51.1.07.63.38.67.24.31-.91-.6-1.49-1.15-.75m43.73-.11c-.32-.35-.91.02-.93.4-.01.22.76.67.96.74.51.18.17-.92-.03-1.14m-26.56.32c-.21-.41-.74.11-.71.47.01.11.49.53.6.55.47.09.24-.78.11-1.02m-34.52 1.45c-.2-.44-.01-1.45.12-1.9.06-.2.13-.41.2-.59l.06-.16.2-.44.17.03v.13c-.01.2-.09.41-.15.59-.14.38-.25.71-.28 1.17-.02.27.22.71.44.81.15.07.34.07.45-.09.03-.05.09-.27.11-.35.04-.16.07-.3.22-.28.1.01-.12.85-.14.95-.06.23-.15.54-.29.7-.44.5-.98-.2-1.11-.58m49.75-1.42c.41-.38 1.66.73 1.88.95.11.11.47.55.68.81.08.1.62.76.62.76.02-.02.02-.52.02-.55v-.4s0-.13 0-.13c0-.62.01-1.34.2-1.84.16-.42.63-1.24 1.17-1.21.73.04.88 1.08.65 1.66-.05.12-.52-.34-.52-.34-.08-.08-.36-.28-.47-.28-.57 0-.64.86-.6 1.25.07.66.05 1.62-.08 2.38-.04.21-.24 1.4-.45 1.3-.02-.01-.09-.25-.11-.31-.01-.05-.08-.24-.1-.28-.1-.22-.26-.44-.4-.63-.22-.3-.76-1.01-.81-1.04-.18-.15-.4-.33-.5-.32-.32.02-.55-.09-.82-.26-.53-.33-.67-.79-.37-1.5m-11.21 3.78c.46-.42 7.57-4.74 8.02-4.88.48-.15-.18.96-.38 1.08-.17.1-.34.21-.5.32-.2.13-.48.32-.62.4-.18.1-.42.24-.54.32-.21.14-.44.27-.66.4-.15.08-.45.24-.48.25q-.13.01-.22.15s-.27.17-.38.24l-.12.08-.14.08c-.24.16-.24.16-.24.16l-.32.22-.28.14-.25.17-.12.07-.14.08c-.2.12-.56.35-.64.4-.34.23-.7.47-1.05.67-.19.11-.36.21-.54.32-.17.1-.55.33-.55.33-.19-.02-.04-.9.13-.98m-4.51-1.78c.07-.14-.07-.23-.19-.3-.09-.06-.12-.1-.18-.18-.13-.19-.24-.34-.34-.58-.13-.3.18-1.12.3-1.43.09-.23.55-.65.84-.69.27-.04.37.1.48.27.09.16.16.43.18.65.02.21-.02.62-.04.83-.02.22-.07.79 0 .81.29.09 1.53 1.29.74 1.63-.01 0-.43-.29-.55-.37-.2-.14-.45-.31-.66-.38-.1-.03-.51.46-.59.56-.17.21-.4.5-.53.62-.17.16-.46.44-.56.52s-.2.15-.31.22c-.14.09-.32.21-.43.33-.17.17-2.2 1.15-2.33 1.09-.32-.15.5-.62.51-.63.21-.12.46-.26.63-.4.29-.24.68-.52 1.04-.78.76-.55 1.36-1.15 2-1.8m-42.89 2.97c-.17-.4-.3-1.23-.2-1.62l.04-.36.04-.2q.05-.26.08-.36c.06-.17.11-.33.16-.51.07-.23.27-.9.41-.93.1-.01-.15.94-.17 1.05-.13.53-.2.93-.12 1.47.08.57.33 1.24.92 1.19.11 0 .17-.24.2-.36.05-.2.14-.56.26-.56.22 0-.05 1.85-.68 2.01-.28.07-.74-.55-.94-.81m18.87-.63c-.02-.52.18-1.15.34-1.59.07-.2.38-1.09.57-1 .04.02-.22.84-.27 1-.12.36-.2.7-.2 1.01 0 .38.05 1.03.44 1.21.27.13.4 0 .48-.28.05-.18.15-.49.27-.42.29.16-.23 1.71-.73 1.79-.73.12-.89-1.26-.89-1.72m50.8-2.54c0-.09-.1-.15-.18-.2-.11-.08-.28-.18-.35-.25-.17-.15-.35-.32-.44-.51-.28-.52.23-1.96.64-2.18.3-.16.44-.23.65-.16.68.23.68 1.58.68 2.32 0 .31.18.47.45.7.19.17.43.93.08 1.08-.03.01-.39-.23-.49-.29-.21-.14-.36-.24-.56-.21l-2.23 2.16c-.34.62-3.88 2.27-4.78 2.5-.38.1 1.42-1.1 1.59-1.2.26-.16 1.2-.78 1.81-1.19.58-.39 1.33-.88 1.8-1.28q.2-.16.22-.18l.33-.29.13-.09c.11-.09.71-.66.66-.74m-42.82-.24s-.42-.29-.6-.4c-.21-.13-.4-.26-.52-.48-.19-.33.12-1.26.24-1.54.11-.27.47-.7.76-.79.28-.09.47-.09.69.07.25.17.32.58.36.96.03.3.03.62-.04.91-.04.2-.11.5 0 .57.28.16.59.58.79.86.13.18-.14.95-.28.87q-.07-.04-.19-.19l-.2-.22c-.1-.1-.3-.25-.44-.25-.01 0-.37.51-.52.71q-.05.06-.15.21l-.28.34c-.19.24-.77.9-1.02 1.03-.02.01-.1.1-.19.19-.04.04-.2.17-.3.25l-.2.16s-.22.18-.3.24c-.35.28-.78.52-1.18.74q-.06.03-.6.4c-.17.11-.53.35-.6.38-.38.18-1.44.62-1.47.62-.35.02 1.45-1.25 1.51-1.28.24-.17 1.07-.83 1.63-1.27l.31-.22.13-.09s.31-.25.44-.36c.27-.22.64-.53.79-.69.13-.14.26-.26.41-.38l.36-.36c.14-.13.76-.8.64-.98m-.95 5.62c-.21-.24.37-1.36.63-1.44.22-.07 1.4.74 1.48.95s-.49 1.36-.72 1.35-1.2-.69-1.39-.86m15.82-.19c-.04-.21.45-1.21.64-1.27.23-.07.55.14.82.32.22.15.6.4.7.42.08.01.33-.42.42-.58.14-.25.33-.58.54-.61.17-.02 1.09.75 1.26.92.47.46-.12 1.34-.5 1.65-.06.05-.53-.31-.69-.42l-.12-.07q-.08-.06-.2-.16c-.12-.09-.36-.28-.37-.29-.14-.08-.33.3-.4.44-.12.23-.36.72-.37.73-.24.27-1.68-.78-1.73-1.06m-29.82.44c-.11-.15.37-1.11.51-1.26.21-.23.5-.07.75.07.32.18.75.42.99.39 0 0 .26-.42.33-.53.09-.14.22-.36.34-.42.22-.11 1.31.67 1.47.84.22.24.03.54-.13.78-.12.17-.37.56-.4.71-.02.11-.74-.35-.76-.36l-.6-.4c-.33-.06-.44.21-.56.48-.07.16-.22.5-.36.53-.27.07-1.44-.68-1.57-.85m-16.43-2.59c-.25-.79-.87-1.55-1.38-2.11-.11-.12-.36-.38-.37-.39-.07-.06-.14-.11-.28.04l-.16.02c-.32-.02-.97-.42-1.12-.67-.33-.59.03-1.44.64-1.21.42.16.9.42 1.17.74.25.29.67.79.79.92.11.12.21.26.31.4.12.19.36.55.44.56.1.01.1-1.4.1-1.59 0-.24.07-.72.16-.99.13-.4.37-1.1.66-1.17.89-.22 1.3 1.17.85 1.7-.09.1-.3-.13-.35-.18-.12-.13-.24-.27-.36-.36-.2-.14-.49-.12-.52.17-.02.17-.03.72-.04 1.23-.01 1.06-.09 3.49-.4 4.28-.24.59-.43 1.01-.79 1.44-.32.37-.96.7-1.49.84-.12.03 1.06-1.36 1.23-1.56.25-.29 1.22-1.64.91-2.11m11.25 2.81c-.16-.47-.05-1.12.12-1.54.12-.29.22-.55.75-1.16.25-.49 6.13-3.18 6.99-3.51 1.23-.47 2.49-1.03 3.68-1.62.17-.08 1.18-.52 1.73-.75.12-.05.58-.23.84-.34.06-.02 1.09-.43.94-.1-.17.37-.41.88-.6.99-.07.04-.64.26-.9.36-.36.13-.69.27-1.02.44-.18.09-.53.23-.78.34-.31.13-.63.26-.88.38-.3.14-1.32.59-1.95.87-.6.27-1.25.55-1.81.83-.24.12-.66.33-.77.38-.28.12-.63.28-.96.43-.12.04-.23.08-.34.14-.07.04-.28.13-.42.2-.16.07-.34.16-.5.24l-.3.14-.14.06c-1.1.55-2.19 1.09-3.1 1.77-.3.22.14.59.28.7.28.22.58.46.63.66.02.08-.28.94-.33 1-.11.16-1.11-.73-1.19-.89m49.17-.97c.05-.54.53-2.62.9-2.6.05 0-.1.47-.1.48q-.05.16-.1.28t-.14.4c-.16.57-.21 1.27.06 1.76.13.24.52.78.85.4.06-.06.1-.2.13-.3.05-.17.16-.56.25-.51.36.23-.35 1.85-.59 1.91-.97.27-1.21-1.11-1.25-1.82m14.49-2.01c.13.14-.1.63-.21.86-.2.42-.31.95-.18 1.49.08.3.23.74.58.73.09 0 .23-.15.28-.23.08-.13.29-.5.31-.49.43.27-.5 1.63-.75 1.67-.77.12-.89-1.26-.86-1.8.03-.47.16-.84.3-1.19.09-.22.42-1.07.53-1.04m-73.2 4.01c.05-.89.21-1.86.55-2.55.05-.1-.04.66-.07.94-.07.66-.11.98 0 1.62.04.26.27.66.52.7.21.03.34-.21.4-.38.03-.1.2-.6.23-.57.33.34-.21 1.87-.57 1.97-.75.22-1-1.07-1.06-1.74m18.61 3.41c-.1-.29-.72-.71-1.04-.79-.53-.13-1.29.13-1.25.68.03.42 2.15.41 2.28.11m6.51-.7c.07-.22-1.34-.08-1.42-.07-.19.04-.5.33-.69.51-.09.1-.24.27-.3.27-.28.03.26-1.08.27-1.1.18-.3.57-.65.95-.73.21-.05 1.99-.14 2.15.1.16.23-.52 1.32-.68 1.57-.02.04-.42.32-.55.41l-.14.08-.26.16c-.22.14-1.17.47-1.18.3 0 0 .6-.49.72-.58l.12-.08.13-.09c.28-.2.81-.6.87-.76m6.68 1.52c.33-.43-.78-1.81-1.22-1.88-.34-.06-.76.42-.92.64-.37.53.1 1.97.46 2.33.18.18 1.59-.91 1.67-1.08m-19.58.77-.15-.25s-.08-.21-.1-.28c-.08-.24-.19-.6-.16-.85.07-.5.28-2.11.62-2.12.02 0-.06.28-.06.28-.04.15-.09.32-.12.47-.05.29-.09.7 0 1.03.1.36.25.85.54.97.26.11.4-.02.46-.3.04-.19.13-.65.25-.58.33.17-.25 1.74-.4 1.92-.12.14-.66-.14-.88-.3m50.6.39c.23-.26-1.35-1.17-1.7-.82l-.16.06-.14.08q-.09.06-.23.19c-.18.18-.25.43.05.54.6.23 1.57.25 2.18-.05m-64.39-.43c.09-.4.28-.86.48-1.19.15-.25 1.52.76 1.59.98.05.16-.32 1.14-.49 1.28-.23.2-1.56-.82-1.58-1.06m50.73 1.26c-.17-.45-1.86-1.61-2.37-1.43-.31.11-1.58 2.41-.65 2.77 1.09.41 2.49-.78 3.01-1.33m-52.58 2.4c-.29-.67-.05-2.56.36-3.14.21-.3.05.4.03.49-.1.44-.24 1.08-.12 1.51.08.3.31.82.64.81.13 0 .27-.14.32-.26.07-.15.21-.51.27-.49.1.04-.09.85-.11.96-.07.32-.13.53-.32.73-.43.44-.92-.29-1.07-.61m49.02.32c-.21-.27-.42-.81-.37-1.21.09-.76.2-1.72.32-2.12 0 0 .19-.45.26-.59.15-.33.31-.7.27-.87l-.14-.09q-.15-.11-.21-.15c-.11-.08-.29-.22-.42-.33-.28-.22-.54-.47-.78-.73s-.46-.46-.74-.69c-.29-.23-.21-1.4-.09-1.77 0-.03.49.2.55.23l.18.06.16.06.16.06.12.04.16.06c.31.12 1.22.46 1.25.6.01.06-.02.2-.1.22-.22.07-.53.16-.53.22s.4.35.51.44c.04.03.26.17.38.24l.14.08c.06.03.19.11.22.14.13.13 1.32-1.51 1.39-1.6.08-.11.17-.23.25-.33.1-.13.21-.27.3-.4.13-.19.58-.82.64-.83.34-.07-.19 1.58-.28 1.74-.13.25-.32.5-.49.73-.16.22-.32.44-.47.68-.18.29-.32.52.02.71.28.16.51.3.75.49.47.37.88.95.96 1.67.05.48-.17 1.51-.38 1.84-.38.58-1.08 1.04-1.69 1.39-.32.18-.74.42-1.14.46-.21.02-1.17-.05-1.16-.41m-7.06-17.67.04-.24.04-.24.08-.32c.05-.22.1-.46.2-.61.13-.18.97 1.78 1.03 1.91l.06.16.08.2.12.26c.08.2.24.55.28.61.09.16.53 1.29.12 1.25-.02 0-.16-.15-.29-.29s-.32-.34-.39-.37c-.09-.04.33 2.72.38 3.02.15.98.41 2.62.52 3.17.5 2.46.97 4.98 1.12 7.76.03.53-.03 1.33-.16 1.9-.06.25-.3 1.12-.53.94-.03-.02-.03-1.34-.03-1.42l-.04-.48v-.24l-.04-.24-.04-.4c-.02-.22-.2-1.47-.32-2.22l-.04-.28-.04-.32c-.01-.07-.08-.47-.12-.67-.06-.33-.13-.81-.2-1.23l-.08-.48c-.04-.23-.09-.48-.12-.67l-.08-.44-.04-.2c-.04-.19-.06-.3-.08-.44-.03-.23-.25-1.65-.36-2.34q-.03-.17-.08-.43c-.04-.21-.1-.5-.12-.75l-.04-.24-.04-.24q-.05-.29-.08-.48l-.2-1.31-.08-.56-.04-.32-.04-.32-.04-.32q-.04-.28-.08-.6c-.03-.24-.08-.6-.12-.75-.09-.31-.18-.63-.12-.79m-1.16 19.29c.07-.52.53-2.11.89-2.15.06 0-.19.78-.21.85-.14.44-.22.77-.2 1.31.01.3.23.81.46.89.16.06.36-.1.42-.22.08-.18.25-.53.29-.53.2-.01-.2 1.09-.21 1.12-.07.19-.32.66-.58.65-.68-.02-1.07-1.17-.86-1.92m-41.77 1.89c-.66-.29-1.12-.58-1.67-.92-.5-.32-.93-1.03-1.2-1.6-.29-.61-.4-1.41-.46-2.22-.05-.76.17-1.64.36-2.28l.08-.24.06-.16q.06-.16.1-.28c.07-.2.18-.53.16-.67l-.15-.25-.07-.13-.08-.14c-.07-.11-.13-.2-.14-.24-.12-.3-.26-.64-.32-.91-.17-.76-.25-1.67-.08-2.3l.04-.24.04-.28.04-.24c.04-.22.07-.39.12-.59l.08-.28.04-.12.04-.16s0 0 .08-.28c.1-.36.54-1.9.83-1.8.11.04-.28 1.29-.31 1.4-.19.59-.38 1.22-.44 1.9-.07.82-.09 1.67.2 2.38.15.36.36.89.64 1.03.29.14.55-.15.68-.39.05-.1.09-.25.12-.36.06-.25.14-.55.34-.55.1 0-.08.81-.1.91-.08.37-.18.79-.3 1.05-.13.27-.31.46-.55.62-.27.19-.36.25-.49.58-.27.7-.49 1.55-.46 2.42.02.67.27 1.32.54 1.78.28.49.66.98 1.16 1.25.6.33 1.25.64 2.07.75.4.06 2.14.1 2.47-.12l.2-.04.2-.06.2-.06.16-.04c.22-.06.46-.15.68-.24l.24-.12.16-.06.12-.06.16-.06.18-.08.16-.08.14-.08.16-.08c.88-.41 3.74-2.28 3.88-3.21.02-.13-.45-1.08-.58-1.31-.25-.43-.48-.9-.68-1.39-.02-.05-.23-.67-.34-.99-.05-.16-.15-.45-.18-.5 0 0-.04-.05-.19-.22-.07-.09-.2-.33-.15-.47l.04-.32v-.14s.07-.44.08-.49c0 0 .12-.32.18-.48.06-.17.36.38.36.38.08.14.24.3.37.43.2.2.4.42.58.64l.6.75c.11.16.1.36-.14.3-.13-.04-.53-.15-.55-.07-.04.12.36.92.53 1.26.27.54.44 1.01.66 1.66.17.51.1 1.49-.1 2.06-.01.04-.45.6-.8 1.03-.14.18-.3.33-.47.48l-.24.2c-.1.08-.31.26-.33.3-.3.45-2.39 1.7-3 1.95-.94.4-1.85.7-2.96 1.01-.54.15-2.22.12-2.79-.18m31.64.22c-.18-.82-.17-2.91.47-3.6.17-.19-.02.65-.03.73-.05.23-.08.41-.12.63l-.04.24v.75l.04.12c.03.09.06.19.1.26.1.18.28.41.52.39.15 0 .26-.22.3-.37.07-.23.14-.5.21-.61.17-.28.16.46.15.49-.03.17-.07.3-.12.43-.11.29-.27.72-.4.92-.23.36-.86-.2-1.06-.38m43.05-2.72c.39-.07.73-.13.92-.04.31.15.64.32.83.3.66-.07 1-.7 1.26-1.18.1-.18.16.12.16.12-.01.2-.02.35.02.4.11.14.64.28.79.16.1-.08.48-1.14.52-1.31l.13.05.04.36-.06.22-.06.32q-.08.24-.12.36c-.16.43-.28.68-.64.91-.19.12-.4.14-.66.06-.35-.11-.55-.17-.73-.08l-.07.13-.24.18c-.11.08-.35.18-.5.2-.31.05-.66-.12-1.02-.3-.4-.2-.89.05-1.17.2-.2.11-.43.25-.64.4-.14.09-.23.16-.4.22q-.1.04-.18.19c-.25.46-2.35 1.46-3.16 1.49-.16 0 .8-.6.8-.6.14-.08.29-.17.4-.24.38-.23.92-.62 1.38-.96l.43-.3q.18-.13.23-.17c.1-.08.22-.17.32-.24q.08-.05.2-.16s.24-.17.33-.22c.27-.18.56-.37.89-.48m-59.08 3.52c-.12-.49.02-3.17.55-3.1.12.01-.1.69-.13.77-.15.43-.16.95-.08 1.39.05.25.25.56.46.65.18.08.38 0 .46-.18.08-.17.31-.66.35-.62.26.19-.37 1.7-.52 1.82-.49.39-.92-.41-1.09-.73m43.48.69-.14-.06-.23-.17-.2-.16c-.18-.14-.38-.36-.5-.54-.15-.23-.31-.46-.4-.67-.06-.15-.15-.35-.18-.48l-.04-.2c0-.05-.05-.27-.06-.28 0 0-.06-.7-.06-.75q0-.34.04-.75c.02-.19.05-.54.06-.79 0-.17-1.27.75-1.27.75-.41.3-.83.6-1.27.87-.91.56-1.97 1.14-2.87 1.55l-.24.19s-.31.17-.44.24c-.22.12-.48.19-.76.26-.6.15-1.47.37-1.79.44l-.36.08c-.24.04-.44.08-.6.12-.19.05-.36.08-.56.12-.22.04-.39.07-.6.12-.02 0-.5.14-.72.2-.37.11-.78.22-1.18.19-.54-.04 2.36-1.25 2.61-1.34.88-.33 2.26-.86 2.75-1.25.11-.09.46-.25.64-.34 0 0 .59-.33.82-.45l.16-.08.14-.08c.12-.08.27-.17.4-.24l.16-.08.38-.24.16-.08.14-.08c.48-.29 1.08-.66 1.47-.87.21-.11.51-.31.76-.48.12-.08.24-.17.35-.25.11-.09.24-.18.36-.23.67-.29 3.75-2.88 3.69-3.4-.01-.12-.48-.99-.78-1.55q-.05-.1-.16-.26c-.05-.08-.2-.32-.3-.5-.14-.27-.14-.28-.14-.28l-.08-.14-.08-.14-.08-.12c-.05-.09-.08-.15-.16-.35l-.08-.2-.06-.16-.06-.16q-.09-.2-.1-.24c-.02-.06-.14-.33-.2-.48-.31-.73-.25-1.17-.01-2.05.03-.12.58.47.62.51.21.23.41.41.68.59.18.13 1.03.95.88 1.18 0 .01-.36-.06-.36-.06q-.23-.05-.47-.01s1.03 1.96 1.03 1.96c.61 1.13.74 1.95.45 3.54-.1.57-.66 1.14-1.05 1.52q-.05.07-.19.19c-.07.05-.28.25-.4.36-.24.22-.57.53-.62.61-.2.35-.21 1.14-.21 1.46 0 .52.3 1.19.58 1.51 1.2 1.34 2.32 1.36 4.34.75.41-.12 1.01-.49 1.47-.77.1-.06.39-.27.58-.4l.32-.24.13-.09c.14-.12.18-.15.2-.16.75-.34 3.91-3.38 3.06-3.89-.13-.08-.43.05-.58.11-.13.05-.35.09-.52.12-.6.1-1.23.2-1.79.2-.38 0-1.09-.27-1.24-.49-.54-.77-.6-1.53-.25-2.58.09-.26.29-.52.47-.74.1-.12.16-.2.28-.3.08-.07.24-.22.25-.24.17-.24.72-.28.97-.28.54 0 1.1.28 1.39.54.23.22.69.65.73.7q.08.08.25.3l.08.16c.1.13.29.38.43.4.24.04 1.49-.8 1.7-.98.46-.38 1.2-1 1.56-1.08.32-.07.24.62.22.81-.04.3 0 .49.1.75.15.39.56.68.92.87.4.22.9.22 1.39.22.14 0 .83-.33 1.43-.62.39-.19.74-.87.96-1.32.19-.39.59-1.17.8-1.27.38-.19.1.55.06.65-.13.34-.29.77-.22.91.14.29.74.64 1.08.73.29.08 1.59.32 1.68-.07.05-.21-.11-.51-.21-.66-.17-.25-.33-.49-.34-.53-.03-.16.31-1.35.38-1.45.19-.26.65.93.68.99.18.46.26 1.05.26 1.55 0 .57-.25 1.14-.5 1.49-.19.26-.45.48-.84.55-.41.08-.9.05-1.35-.1-.37-.12-.7-.33-1.01-.61q-.17-.19-.17-.2c-.11-.12-.34-.37-.4-.34l-.15.23c-.07.12-.21.39-.22.4-.15.21-.33.45-.54.6-.48.34-1.05.65-1.76.73-.83.09-1.59-.25-2.04-.7-.19-.19-.35-.47-.45-.74-.06-.16-.12-.35-.14-.51-.01-.09-.05-.38-.15-.38-.14 0-2.15 1.64-2.26 1.81l-.02.26v.38l-.04.6c-.03.3-.08.55-.2.75-.27.45-.62 1.04-.79 1.24q-.16.2-.24.29-.14.14-.25.32l-.21.19-.26.31c-.39.67-2.13 1.91-2.94 2.44-.68.45-1.39.76-2.25 1.05-1 .33-2.21.2-3.11-.2m-37.75.46c-.38-.32-.85-.71-.91-.85-.18-.44-.38-.92-.42-1.43-.04-.6.11-1.25.24-1.76.1-.39.2-.79.17-.96 0 0-.78.17-.9.19-.61.13-1.43.25-2.07.19-2.29-.2-3.84-1.05-4.44-3.03-.29-.95-.53-2.08-.64-3.09-.17-1.58-.6-5.35-.6-5.35-.05-.33-.09-.78-.12-1.05-.02-.18-.07-.52-.12-.85-.06-.35-.12-.76-.16-1.07-.06-.43-.12-.85-.2-1.27-.08-.44-.24-1.22-.36-1.82-.05-.25-.12-.49-.2-.71-.11-.31-.18-.49-.16-.91 0-.09.3-.95.42-1.26.07-.19.33.38.34.39.04.14.1.36.16.55.12.43.24.88.32 1.35.26 1.57.48 2.99.68 4.6.05.4.11.82.16 1.23l.08.61v.18l.04.37c.03.2.09.69.12.97.05.48.1.93.16 1.39.16 1.3.49 3.72.64 4.16.24.71.49 1.18.86 1.7.23.33.78.75 1.23.86 1.83.46 3.25.36 5.1-.16.84-.24 3.49-1.27 3.6-1.92.08-.49-1.61-.79-1.78-.66-.42.32-1.79-.12-2.21-.3-.65-.28-.66-1.73-.37-2.41.86-1.95 2.42-2.2 3.78-.49 1.04 1.3 1.87 3.51.88 5.39-.22.41-.94.79-1.41 1.05-.3.16-.68.36-.94.48-.3.13-.99.43-1 .47-.26.66-.58 1.5-.69 2.19-.09.57-.05.97.14 1.53.08.22.59.73.84.79.71.18 1.33-.21 1.85-.54.24-.15.56-.47.83-.74 0 0 .16-.17.2-.2.06-.06.19-.2.35-.4.24-.21.44-.48.63-.74.17-.23.5-.7.57-.76.36-.39 1.28-1.33 1.33-1.36.99-.64 2.18-1.41 2.93-1.78.23-.11.48-.24.72-.34 0 0 .41-.16.56-.22.14-.06.32-.12.44-.18l.16-.06.32-.12c.14-.06.29-.13.44-.2.24-.11.71-.34.8-.46.03-.04-.04-.27-.08-.42-.06-.19-.1-.37-.14-.6-.08-.43-.08-.8-.08-1.36 0-.7.25-1.48.54-1.95.3-.49.95-1 1.67-.72.65.25 1.38 1.72 1.33 2.65-.04.74-.08 1.61-.3 2.08-.15.31-.67.73-1.19 1.14-.44.35.76 1.02 1.07 1.12 1.2.4 3.89.02 4.28-1.13.06-.18-.2-1.75-.32-2.38l-.04-.2-.04-.24-.04-.16-.04-.2c-.07-.36-.14-.69-.2-1.07-.04-.25-.44-2.23-.72-3.61-.27-1.36-.53-2.66-.72-3.96-.1-.69-.22-1.52-.32-2.1-.06-.37-.17-.99-.2-1.11-.04-.12-.22-.75-.08-.79l.04-.16.04-.2q.03-.12.08-.28c.07-.21.22-.65.36-.65.08 0 .16.33.2.49.02.07.07.21.1.26l.14.22.06.14.08.14q.05.08.16.3l.08.14.08.14.14.22c.2.37.99 1.94.83 2.23-.07.13-.61-.38-.66-.42q-.12-.14-.22-.16c-.23-.06.29 2.82.33 3.03.16.88.32 1.75.52 2.61.39 1.75.84 3.77.99 5.31.1.97.24 3.61-.49 4.05l-.19.22-.32.3c-.18.17-.39.31-.65.41-.79.3-1.95.68-2.95.4-.64-.18-1.09-.34-1.48-.76-.16-.18-.34-.38-.47-.58l-.08-.12q-.11-.16-.16-.26c-.08-.15-.16-.28-.25-.41-.07-.1-1.09.34-1.26.41l-.26.12-.16.08-.18.08c-.28.12-.62.26-.84.34-.82.29-1.73.62-2.41 1.09-.51.35-1.58 1.21-2.46 1.93-.1.08-.66.82-.92 1.18-.33.46-.67.87-1.04 1.28-.79.89-2.33 1.51-3.53.73m-14.91-.37c.5-.54 7.44-4.01 7.44-4.01.03.01-.02.94-.29 1-.18.04-1.14.63-1.63.93-.54.33-1.18.67-1.77.99-.07.04-.28.16-.4.24-.14.08-.47.28-.5.3l-.16.06-.28.14c-.19.09-.54.24-.64.32l-.16.06-.14.08-.12.08-.14.08-.2.08-.14.08-.14.08-.12.08-.14.08c-.21.11-.55.29-.58.3-.23.05-.05-.84.09-.95" fill="#1d1d1b" fill-rule="evenodd"/></svg>