<svg viewBox="0 0 79.21 26.27" xmlns="http://www.w3.org/2000/svg"><path d="m30.69 1.07c-.14-.09-.44.07-.55.15-.24.17.48.65.65.69.55.1.08-.69-.1-.83m18.06 1.13c-.06-.43-.8-.06-.78.3.01.18.44.59.6.63.49.13.3-.86.18-.93m26.82.99c.04-.73-.47-1.71-1.09-.93-.28.35.05.56.3.71.14.09.78.49.8.22m-10.28.96c-.61-.16-1.3-.33-1.47-.78-.1-.28-.01-.86.14-1.07.15-.2 1.02.32 1.11.41.34.31 1.06 1.01 1.08 1.03.17.2.34.42.48.65.09.13.42.62.48.53l-.02-.22.04-.34v-.75c0-.55 0-1.07.16-1.47.16-.39.45-1 .8-1.19.21-.11.46-.21.7-.08.61.34.59 1.02.36 1.62-.04.1-.45-.33-.45-.33-.11-.11-.26-.26-.39-.32-.24-.11-.51.16-.6.3-.1.16-.1.96-.1 1.25 0 .45-.02 1.12-.08 1.65-.04.37-.21 1.79-.52 1.72-.02 0-.24-.65-.28-.77-.02-.06-.28-.42-.46-.67q-.13-.18-.15-.21c-.08-.12-.16-.24-.25-.35-.07-.09-.2-.23-.3-.33l-.27-.28zm-12.81 2.77c0-.21.03-.85.19-.91 0 0 .27-.17.34-.22.17-.11.33-.21.5-.32.35-.22.78-.48 1.06-.63l1.03-.63c.18-.1.45-.25.55-.32.16-.11.35-.21.52-.31.66-.36 1.74-.96 2.07-1.19.25-.17 1.98-1.18 2.06-1.16.21.05-.04.73-.11.85-.06.1-1.66 1.07-2.03 1.27-.7.37-1.43.79-2.09 1.23-.32.21-.68.44-1.01.62-.35.18-.84.43-.93.55-.02.03-.9.57-.98.6-.1.04-.35.19-.52.3-.2.12-.58.35-.65.31m-43.2-.5c1.3-.86 8.26-4.69 8.91-4.65.16.01-.11.91-.23.98l-.18.07-.32.16-.18.08c-.2.1-.41.21-.62.32 0 0-.76.38-1.24.61-.21.11-.41.2-.62.3l-.36.16-.14.08-.12.06-.16.06c-.35.19-1.08.58-1.21.67-.55.36-1.51.88-2.25 1.27-.06.03-.78.47-1.17.71-.11.07-.41.25-.4-.02 0-.23.1-.76.28-.85m20.18-4.54c-.27-.32.36-1.43.56-1.58.42-.33.89-.59 1.22-.02.12.21.19.59.22.89.01.14.01.14-.02.32s-.1.65-.1.65.27.35.43.55c.14.18.06.62-.06.81-.09.14-.31-.02-.37-.07-.13-.09-.27-.2-.42-.16-.05.01-.17.2-.24.32s-.16.24-.25.35c-.17.2-.48.57-.6.71l-.32.29q-.21.16-.23.19c-.33.47-1.38 1.08-1.92 1.36-.19.1-.43.24-.68.4l-.36.24c-.15.09-1.07.55-1.21.44-.11-.09.79-.83.86-.88q.17-.14.22-.18l.22-.18q.17-.14.22-.18l.46-.33c.08-.06.18-.14.18-.15l.32-.24.33-.25q.11-.09.21-.15c.12-.08.12-.08.23-.17.21-.17.57-.45.84-.67.26-.21.53-.43.77-.66.23-.22.63-.61.27-.85-.29-.18-.66-.44-.78-.79m18.72 2.12c-.04-.1-.09-.17-.17-.22q-.13-.09-.18-.18c-.14-.22-.32-.51-.34-.65-.05-.39.23-1.27.42-1.49.26-.29.44-.41.82-.56.2-.08.45.31.48.5.05.29.09.58.08.87 0 .05-.07.77-.08.83-.02.17-.04.31 0 .38l.23.19c.08.06.2.15.29.24.17.14.29.27.41.46.08.12-.05.55-.1.7-.02.06-.52-.26-.59-.3-.27-.17-.64-.4-.83-.37 0 0-.32.4-.39.48-.16.2-.36.4-.56.59-.19.19-.43.41-.97.84-.11.08-.2.14-.23.17-.16.15-3.21 1.8-2.75 1.14.13-.2.25-.32.46-.44s.7-.4.88-.51c.11-.08.23-.17.33-.25.08-.06.28-.2.42-.3l.23-.17q.11-.08.23-.15c.12-.07.25-.16.37-.25.21-.15.42-.32.61-.5.27-.25.96-.88.93-1.05m-18.52 3.66c.45.22.78-.02.98-.38.1-.19.05-.73.02-1.05-.03-.31.02-.68.15-.9.14-.25.31.51.33.63.07.43.14.9.27 1.06.19.24.99.35.81-.19-.17-.51-.38-1.14-.15-1.69.17-.42.75 1.52.79 1.67.08.32-.23 1.12-.4 1.26-.22.18-.57.25-.93.19-.11-.02-.23-.1-.32-.16-.15-.1-.23-.16-.33-.13l-.07.13-.08.14s0 .01-.18.23c-.08.1-.23.29-.37.28-.34-.01-.67-.03-.83-.14-.43-.34-.35-1.61-.23-2.21.06-.31.17-.46.28-.08.06.19.06.27.08.53.02.34.05.73.2.81m45.25-3.31c.07-.15-.27-.39-.46-.53-.18-.14-.48-.45-.52-.71-.06-.5.19-1.37.42-1.65.22-.27.37-.46.67-.56.12-.04.42.15.61.27.04.03.22.53.25.62 0 .02.02.27.04.77l.04.46v.51c.01.08.08.14.21.25.1.08.21.17.29.27.2.25.28.65.07.98-.06.09-.42-.18-.5-.24-.16-.12-.49-.37-.64-.22-.08.09-.18.2-.26.29l-.21.3s-.47.41-.64.55c-.09.08-.26.22-.32.28-.07.07-.18.16-.32.28-.11.1-.64.54-.64.55l-.14.04-.13.09q-.13.1-.31.23l-.14.08-.48.32-.14.08-.18.16-.14.04-.22.14-.14.06-.14.08c-.38.23-.81.41-1.27.57-.18.07-1.29.46-1.25.3.03-.11.59-.46.76-.56.29-.16.9-.51.96-.55.07-.05.63-.39.9-.55.13-.08.33-.21.38-.24.15-.11.3-.21.46-.32 1.16-.77 2.17-1.51 3.15-2.44m-27.97 4.74c-.05-.27.45-1.02.62-1.26.13-.18.66.2.81.31.24.17.6.43.85.39.03 0 .27-.43.31-.51.1-.22.24-.52.46-.59.19-.07.6.29.78.45l.4.31c.13.12.17.16.18.16.15.09.26.57.11.72l-.08.14-.25.3c-.11.13-.38.47-.4.47-.05 0-.47-.34-.68-.51-.17-.14-.62-.5-.74-.47-.04.01-.34.55-.39.64-.12.25-.26.56-.4.6-.21.05-1.62-.96-1.57-1.15m14.17.16c.06-1.1.35-2.07.8-2.83.18-.31-.14.82-.15.85-.14.33-.24.82-.22 1.21.03.49.29 1.49.9 1.33.15-.04.21-.28.26-.44.04-.15.15-.53.24-.49.34.13-.29 1.84-.66 1.93-.77.19-1.02-.89-1.17-1.56m13.78 1.31c-.19-1.6.09-2.29.66-3.4.15-.28.13.11.13.11l-.05.17q-.12.13-.11.15s-.11.35-.22.61c-.23.56-.24 1.92.42 2.02.18.03.34-.2.4-.34.08-.17.2-.44.26-.43.11 0-.07.81-.08.83-.09.24-.21.49-.36.67-.43.53-.86 0-1.05-.4m-63.03-.41s.14-.11.2-.16q.06-.05.21-.15l.44-.32c.35-.25.7-.49 1.07-.71l.5-.32.26-.16c.15-.08.42-.24.42-.24s.35-.2.48-.28l.12-.06.14-.06c.14-.07.34-.15.44-.24.19-.15 1.5-.81 2.35-1.23l.3-.16q.15-.08.24-.12l.16-.08.16-.08.28-.14.16-.06.2-.08.12-.06.16-.06s.56-.29.76-.39c.88-.47 1.79-.9 2.71-1.31 0 0 .42-.18.64-.28.29-.12.64-.28.88-.39.25-.13 1.28-.6 1.45-.42.14.16-.3.89-.37.98s-1.68.77-2.11.93c-.25.1-.66.3-.98.46l-.16.08-.14.08-.2.08-.28.14-.14.06-.22.14c-1.32.61-3.28 1.52-4.14 2.04-.22.13-1.2.65-1.83.99-.67.36-1.35.72-1.99 1.11-.26.16-.58.37-.86.56l-.46.32-.22.16-.24.16-.24.16-.12.08c-.07.05-.43.3-.43.29-.15-.16.15-1.14.3-1.26m-8.95-.9c.16-.32-.44-1.21-.62-1.46-.13-.18-.26-.35-.4-.51-.03-.04-.18-.18-.27-.26-.05-.05-.28-.26-.28-.27l-.2.02q-.21.04-.4 0c-.19-.04-.39-.15-.51-.27-.22-.2-.36-1.29 0-1.4.41-.13 1.6.8 1.79 1.03.2.23.4.49.56.75.07.1.48.77.56.62l-.02-.6-.04-.28-.04-.53c-.02-.28-.05-.78 0-1.01.08-.39.24-1.15.49-1.24s.4-.14.64-.02c.34.17.77 1.51.24 1.59 0 0-.22-.22-.31-.3-.15-.15-.26-.25-.44-.29-.3-.06-.2 1.6-.18 1.88.05.76-.01 1.72-.12 2.54-.1.79-1.49 2.31-2.21 2.4-.4.05.09-.47.21-.6t.18-.18c.1-.1.21-.22.3-.32.08-.09.36-.38.54-.55.16-.16.36-.47.55-.74m27.59 1.31c0-.26.56-1.01.75-1.18.26-.24 1.33.83 1.37 1.06.01.08-.26.46-.38.61 0 0-.29.47-.38.63-.12.19-1.37-1.01-1.35-1.12m-6.42-2.79c.05.22-.11.86-.19 1.16s-.08 1-.08 1.55c0 .37.19 1.03.48 1.2.26.15.4-.06.47-.29.06-.21.16-.55.27-.53.33.06-.21 1.73-.51 1.88-.77.36-1.16-1.06-1.2-1.74-.03-.57.08-1.55.24-2.18.06-.25.29-1.14.51-1.04m5.6 5.28c-.14-.37.47-1.14.68-1.34.15-.14.68.21.83.31.21.14.49.32.66.28.09-.02.22-.28.3-.43.04-.08.33-.39.42-.44.19-.1.7.3.93.48q.08.07.2.16l.2.16.17.19c.17 0-.36.79-.36.79-.11.17-.36.54-.52.53-.15 0-.61-.37-.82-.55-.41-.33-.61-.06-.89.33-.3.41-.45.57-.9.19-.13-.11-.28-.22-.43-.31-.14-.09-.42-.26-.46-.36m-8.37 2.62c-.41-.2-2.48-.44-2.82-.11-.07.07.76.7.85.76 0 0 .3.21.31.21.24.02.65-.2.86-.32.14-.08.86-.49.81-.55m-9.89-.21c-.11-.6-.06-1.3.04-1.9.03-.2.22-1.32.38-1.27.02 0-.08 1.32-.1 1.59-.02.2-.01.61.12.87.17.34.32.64.52.75.1.06.27-.03.32-.16.03-.08.06-.19.08-.28.03-.13.07-.29.09-.33.11-.21.08.84.04 1-.06.22-.18.64-.29.69-.7.34-1.01-.36-1.19-.96m53.75.9c.06-.16-.75-.7-.97-.76-.45-.12-1.77.11-1.43.73.2.35 2.12.32 2.4.03m-63.86.44c-.23-.12-.78-.5-.83-.78-.14-.82.5-1.74 1.04-2.22.42-.37 1.12-.97 1.83-.67.66.27.33 1.48-.16 1.57-.04 0-.22-.16-.35-.27-.09-.08-.21-.13-.35-.16-.35-.1-1.18.46-1.13.73.06.36.96.77 1.29.77.77 0 1.14-.08 1.79-.36.21-.09 1.12-.39 1.25-.27.4.36-.82 1.18-1.09 1.3q-.12.04-.26.1l-.14.06q-.22.08-.32.12c-.17.07-.34.14-.52.2l-.16.04q-.19.05-.28.08c-.62.22-1.21.58-1.73.93-.49.33-.47.2-.26-.32.07-.17.14-.34.21-.43.07-.1.26-.35.17-.42m50.14.28c-.08-.53-1.72-1.41-2.23-1.51-.2-.04-1.05 1.61-1.12 1.88-.1.36.09.72.28.87.69.55 2.88-.73 3.07-1.24m-3.58 2.75c-.07-.1-.61-1.16-.41-1.26l.04-.49.04-.28.08-.67c.03-.27.13-.51.22-.75.1-.26.2-.49.32-.73.13-.25.27-.54.21-.67 0 0-.28-.2-.32-.23-.1-.07-.27-.19-.42-.34q-.24-.2-.54-.45c-.1-.1-.3-.33-.54-.6-.07-.07-.17-.18-.24-.24-.18-.15-.35-.27-.36-.38-.07-.55-.09-1.03.06-1.51.03-.1.38.09.5.16 0 0 .74.29.98.38.29.11.79.3.92.38.11.07.28.26.11.37l-.23.05c-.18.04-.27.05-.33.11-.1.09.96.8 1.05.86.33.22.43.15.64-.14l.08-.12q.11-.18.32-.43l.09-.13c.14-.17.27-.34.39-.53.11-.18.26-.37.4-.55.14-.17.27-.34.4-.51.15-.2.45-.6.55-.62.34-.07-.43 1.85-.48 1.92l-.56.79c-.19.3-.52.81-.53.91 0 .05.31.26.45.36l.14.08s.25.17.25.17c.26.21.5.43.68.73.2.33.37.64.42 1.11.05.46-.19 1.48-.38 1.8-.39.68-2.09 1.75-3.07 1.84-.25.03-.9-.2-.92-.37m-39.35-3.57c-.12-1.1-.36-2.27-.6-3.33-.23-1.03-.42-2.07-.6-3.13-.08-.46-.18-.93-.28-1.39-.04-.18-.11-.58-.16-.83l-.04-.28-.04-.2-.08-.48c-.11-.6-.24-1.31-.32-1.82-.04-.28-.1-.54-.16-.79-.08-.32-.17-.66-.16-.75.03-.36.2-1.27.43-1.48.04-.04.92 1.58 1 1.76.19.41.36.77.58 1.15.13.22.51.93.33 1.2-.1.16-.49-.26-.52-.3-.17-.19-.44-.48-.48-.48-.08-.01.14 1.1.17 1.24l.04.16q.05.17.08.36c.04.25.05.32.08.43q.04.18.08.4c.04.19.08.41.12.6.04.2.08.4.12.59l.08.36.04.16c.04.18.11.55.16.83.16.87.32 1.73.52 2.61.24 1.1.4 2.15.52 3.29.09.94.1 3.64-.51 4.25-.17.17-.17-.53-.17-.53v-.38q.04-.59 0-1.01c-.04-.52-.24-2.22-.24-2.22m32.04-14.18c.1-.22.45-1 .5-1.01.15-.02.94 1.8 1.04 2.04q.06.14.16.31l.14.24c.08.17.19.42.28.63.08.2.4 1.02.27 1.16-.07.08-.46-.31-.54-.38-.14-.14-.48-.48-.5-.48-.01 0 .43 3.08.45 3.22.09.65.2 1.38.28 1.86s.21 1.27.24 1.55c.01.1.34 1.92.52 2.89l.04.28.04.4.04.24q.03.16.08.56s.08.55.08.55c.05.31.38 2.65.2 1.94v1.27c-.01.22-.12.87-.16 1.13-.05.32-.21 1.12-.51 1.1 0 0-.23-3.05-.25-3.28-.06-.81-.19-1.71-.32-2.56-.1-.66-.35-2.29-.36-2.34-.11-.74-.29-2.01-.36-2.34-.28-1.41-1.37-8.95-1.35-8.99m-40.46 18.98c.85-.64 1.79-1.21 2.73-1.74.22-.13.46-.26.68-.4.13-.08.35-.22.39-.25.11-.08.25-.16.37-.23.14-.08.67-.38.77-.26.12.15-.17.86-.32.91-.16.05-1.02.58-1.32.78-.12.08-.89.52-1.37.79-.22.12-.43.26-.64.4-.24.16-.48.32-.73.48l-.24.16c-.09.07-.31.22-.36.24-.23.08-.17-.28-.14-.48.02-.14.07-.37.2-.4m39.69 2.1c-.14-.46-.24-.94-.16-1.51.06-.46.48-2.3.72-2.45.13-.09-.04.83-.08.99-.07.29-.28 1.66-.1 1.75l.02.16c.03.11.09.23.15.31.07.1.16.19.27.25.25.13.39-.14.46-.32.07-.17.22-.53.31-.46.24.16-.52 1.58-.54 1.6-.38.48-.84.09-1.05-.31m32.55-2.1c.34-.1.54-.15.88-.06l.36.22c.13.07.27.11.42.14.28.05.79-.31.93-.46.07-.08.18-.22.23-.31.06-.14.22-.47.35-.41v.25s.03.2.03.2c.02.08.11.12.18.16.17.09.48.21.64.08.07-.06.16-.36.24-.63.07-.23.17-.6.37-.65.19-.05-.05.99-.09 1.13-.15.46-.3.76-.64 1.03-.18.14-.44.19-.7.1-.3-.11-.55-.19-.6-.18-.04.01-.38.28-.47.36-.12.11-.33.17-.53.21-.29.05-.52 0-.76-.14-.25-.14-.52-.3-.8-.22-.3.08-1.44.8-2.35 1.37-.5.31-2.15 1.29-2.67 1.11-.14-.05 1.05-.73 1.1-.75.42-.24.89-.58 1.31-.88.4-.29.8-.58 1.2-.86.19-.13.38-.27.58-.4l.12-.08.16-.08.24-.14.12-.04.16-.06zm-17.34 1.54-.04-.32-.04-.24c-.01-.16.02-.61.04-.87 0-.1.07-.95.03-.96-.11-.03-.79.45-1.05.63l-.34.22-.18.16-.26.12c-.32.21-.72.47-.98.63l-1.1.64c-1.37.84-2.79 1.36-4.64 1.76-.54.12-1.13.24-1.63.32-.19.03-.48.1-.71.16q-.16.04-.28.08t-.28.08c-2.44.54-.67-.28.2-.65.39-.17.82-.35 1.24-.5.41-.15 1.18-.43 1.43-.56l.28-.14.18-.08.26-.14.16-.06.3-.16.16-.08.14-.08.12-.06c.17-.07.4-.17.5-.26.01-.01.16-.07.26-.12.15-.07.27-.15.4-.24.04-.03.25-.14.36-.2l.16-.08.14-.08.16-.08c.23-.13.46-.26.7-.4s.65-.37.76-.44c.97-.59 1.9-1.18 2.82-1.79.71-.47 3.18-2.29 3.17-2.96 0-.16-.17-.52-.26-.69-.06-.11-.17-.32-.2-.38-.08-.12-.2-.3-.24-.38q-.08-.16-.16-.28c-.08-.12-.16-.27-.24-.42l-.08-.14-.08-.16-.08-.16-.08-.14c-.1-.16-.12-.19-.14-.24-.12-.27-.23-.52-.34-.83-.1-.31-.22-.63-.36-.91-.21-.41-.11-1.04.03-1.89.03-.19.54.36.58.41.16.18.41.44.52.53.33.24 1.14.88 1.04 1.32-.01.06-.27-.02-.31-.03-.15-.05-.31-.04-.49-.03-.13 0 .29.73.29.75.1.17.19.33.4.69l.08.16c.27.48.62 1.08.73 1.5.16.59.1 1.75-.08 2.38-.22.78-.78 1.33-1.33 1.79-.9.74-1.18.98-1.18 2.49 0 .57.34 1.11.59 1.46.28.39.75.65 1.27.94.43.24 1.31.18 1.95.12.76-.08 1.55-.49 2.11-.81 1.99-1.13 3.53-2.66 4.96-4.36.13-.15-.05-.45-.13-.58-.09-.16-.4-.03-.53.03-.19.08-.48.14-.72.18-.63.11-1.56.24-1.91.12-.45-.16-.75-.3-1.09-.51-.54-.34-.45-1.68-.24-2.29.15-.44.53-.89.95-1.4.14-.16.77-.5 1.06-.4.68.22 1.28.42 1.41.55l.36.32c.18.16.34.31.47.49.17.23.6.81.75.78.48-.08 1.36-.75 1.76-1.06.32-.25 1.34-1.07 1.59-.89.1.07.06.62.05.86-.02.28.07.49.18.77.15.37.64.65 1 .83.43.21.92.19 1.43.12.47-.06.99-.43 1.43-.74.09-.07.48-.68.8-1.18.35-.54.78-1.22.97-1.2.24.03-.32 1.03-.39 1.07-.06.04-.03.56.23.74.68.48 1.48.88 2.51.51.14-.05-.06-.53-.09-.61q-.05-.1-.17-.25c-.07-.09-.18-.24-.2-.34-.05-.27.27-1.48.44-1.53.21-.05.65 1.11.72 1.37.16.59.12 1.05.04 1.66-.13 1.04-.76 1.54-1.87 1.6-.91.06-1.82-.74-2.16-1.34-.08-.15-.4.37-.41.39-.1.17-.24.38-.33.49-.23.27-.56.51-.89.68-.07.04-.17.07-.26.1q-.12.04-.28.1c-.15.06-1.06.18-1.06.18l-.3-.04-.2-.04c-.12-.03-.17-.04-.28-.08-.16-.06-.44-.18-.54-.3l-.13-.09-.19-.18c-.13-.13-.24-.3-.33-.47-.07-.13-.13-.27-.18-.41l-.08-.32s-.09-.52-.16-.46c-.07.07-.77.59-1.11.83-.18.13-.59.45-.62.48l-.25.15c-.1.08-.24.19-.24.26-.09.76-.22 1.82-.4 2.18-1.13 2.25-5.57 6.04-8.62 5.8-.63-.05-1.26-.28-1.67-.58-.71-.52-1.3-1.27-1.45-2.33m-38.02 2.46c-.12-.43-.24-.93-.24-1.33 0-.85.81-3.03 1.27-3.28.17-.09-.32 1.2-.32 1.2-.17.46-.34.89-.36 1.33-.03.6.25 1.43.85 1.33.09-.02.18-.28.22-.4.06-.18.16-.48.31-.45s-.09.77-.13.89c-.09.26-.23.65-.37.82-.41.49-.92.47-1.25-.11m12.52-2.75c.4-.02.83-.05 1.11.1.34.18.51.27.72.26.38-.02.68-.62.88-1.01.11-.23.18.16.18.16.03.16.04.24.11.33.12.15.41.13.54.06.05-.03.14-.29.19-.43.06-.18.15-.44.23-.49.54-.34-.33 1.64-.51 1.81-.03.03-.35.12-.41.12l-.24-.06-.2-.06c-.11 0-.2.07-.3.14-.12.09-.24.17-.38.24-.35.17-.55.21-.9 0-.28-.17-.47-.25-.88-.3-.38-.04-1.16.38-1.59.62-.04.02-.41.28-.57.4-.12.09-.51.31-.79.47-.36.2-3.59 1.32-2.69.79.25-.15 1.69-.97 2.71-1.54.48-.27.9-.54 1.33-.85.41-.3.91-.62 1.46-.76m-24.1 3.37c-1.11-1.12-1.22-2.94-.61-4.58.28-.73.63-1.47 1.02-2.1.15-.25.36-.5.57-.7.06-.06.66-.65.72-.49.03.08-.52 1-.7 1.29-.12.21-.3.49-.4.64-.15.2-.28.46-.38.69-.39.91-1.13 2.72-.49 3.64.21.3.65.54 1.07.62.35.06 1.02.06 1.31-.16.92-.69 1.64-1.27 2.44-2.05s1.6-1.58 2.39-2.38c.82-.83 4.1-2.31 5.43-2.71.42-.13-1.58-1.17-1.94-1.22-.42-.06-.7.06-.96.22-.12.07-.61.34-.62.06-.05-2.52 4.03-2.73 5.81-2.73.78 0 1.67.27 2.33.48.39.12.75.27 1.07.46.15.08.26.15.45.33.05.05.12.13.15.15.07.04-.2.67-.22.71-.09.21-.28.65-.35.69-.03.01-.43.17-.62.24-.21.08-.45.19-.68.3-.21.1-1.11.59-1.13.71-.12.58 2.3 1.45 2.84 1.57.52.11 1.35-.21 1.77-.38.43-.17 1.08-.88 1.56-1.39.15-.17.58-.62.72-.55.13.07.07.33.02.51-.05.2-.13.53-.02.67.52.69 1.28 1.1 2.23.81.55-.17 1-.49 1.31-.91.23-.31.83-1.07 1.07-1.14.22-.07.02.42 0 .47-.07.15-.15.86.15 1.02l.23.15c.18.11.42.17.64.22.21.04.73-.27.97-.42.14-.09.51-.96.64-1.34.08-.2.23-.61.44-.55q.07.02.06.32c0 .26 0 .34.14.5.32.39.67.64 1.19.83.24.09 1.42.22 1.41-.26-.01-.79-.36-3.02-.6-4.56-.11-.69-.23-1.39-.36-2.1-.14-.77-.27-1.48-.36-2.18-.01-.1-.11-.63-.16-.91-.08-.45-.14-.86-.2-1.31 0 0-.13-1-.16-1.27l-.08-.59c-.03-.21-.08-.62-.08-.63 0-.1-.07-.59-.11-.87q-.06-.36-.1-.48l-.08-.16c-.04-.08-.14-.26-.14-.3 0-.13.16-.61.22-.77.03-.07.3-.77.32-.77.2.04.25.16.34.42.07.2.21.57.22.59.09.17.23.42.28.53.11.25.24.5.36.73q.07.14.1.24.07.23.1.3.09.17.12.24l.16.31c.08.15.68 1.38.2 1.35-.1 0-.4-.37-.53-.53-.05-.06-.28-.23-.31-.09 0 0 .06.62.06.64.02.2.04.38.08.67l.52 3.53.04.2.08.4.04.24.04.28.04.2.04.28.08.51q.02.17.08.44.05.26.08.43c.18 1.14.49 3.6.48 3.75-.08.81-.17 1.5-.28 2.16-.14.81-.83 1.15-1.77 1.13-.73-.02-1.38-.51-1.76-.9-.22-.22-.44.16-.58.41-.16.27-.37.65-.62.75-.27.11-.85.36-1.13.22l-.2-.04s-.66-.38-.66-.38c-.07-.04-.18-.18-.35-.41l-.11-.26s-.51.49-.56.55c-.18.2-.53.4-.87.6-.39.23-1.04.26-1.41.26-.21 0-.55-.13-.74-.22-.05-.03-.23-.13-.27-.17q-.16-.13-.18-.14s-.29-.4-.3-.43q-.06-.1-.1-.22c-.05-.14-.11-.33-.19-.34-.05 0-.33.3-.43.42-.12.13-.26.28-.4.4-.27.24-.58.5-.95.64-1.03.39-2.11.39-3.11 0-.67-.26-1.4-.82-1.88-1.29l-.16-.18s-.03-.03-.56-.54c-.35-.27-.81-.05-1.29.18l-.12.04-.16.06-.16.08c-.06.03-.19.07-.28.1-.11.04-.18.06-.26.1q-.17.08-.26.12l-.4.16q-.29.13-.32.14c-.11.04-.34.14-.52.22-.81.36-1.61.76-2.35 1.15-1.01.53-1.91 1.35-2.61 2.19-.34.41-1.14 1.32-1.26 1.42l-.17.17-.27.3c-.06.06-.21.19-.3.26-.11.09-.37.31-.38.33-.13.24-1.02.49-1.29.52-.88.11-1.37-.11-1.88-.51" fill="#1d1d1b" fill-rule="evenodd"/></svg>