<svg viewBox="0 0 76.5 26.41" xmlns="http://www.w3.org/2000/svg"><path d="m38.43 0-.17.25-.14.35-.08.22-.06.18-.06.2v.21l.06.38.06.28.16.99.36 2.26.12.62.08.53.06.41.06.35.16.87.16.87.64 3.61.04.32.04.15.04.32.04.2.04.2.05.43.07.44.08.5.11.63.09.53.04.22v.42s.06.55.06.55l.06.4.05.61.05.69.04.59v.32s0 .2 0 .2v.38s0 .42 0 .42l.05.32.11.08.18-.31.41-1.42.13-1.51-.1-1.54-.15-1.22-.16-1.16-.16-.95-.56-3.21-.06-.41-.11-.65-.11-.64-.28-1.47-.16-.87-.04-.2-.04-.2-.04-.16-.03-.2-.05-.4-.04-.33-.03-.24-.03-.31v-.16s.25.14.25.14l.23.29.17.21.22.14.12-.1-.06-.4-.16-.51-.16-.44-.07-.19-.49-1.05-.14-.29-.18-.4-.08-.18-.08-.18-.06-.12-.15-.31-.22-.4m-4.39.08-.38 1.22.02.34.1.66.2 1.39.04.28.08.4.08.47.06.41.02.15.04.19.04.24.4 2.18.1.54.13.76.12.75.76 4.16.16.84.18 1.06.15 1.09.07.91-.06.54-.39.33-.62.29-.58.2-.69.04-.67-.17-.49-.38-.34-.53-.18-.63v-.43l.04-.32-.02-.16-.22-.11-.34.14-.25.16-.46.4-.23.19-.64.48-1.15.73-1.32.59-1.48.37-1.46.13-1.53-.09-1.17-.26-.98-.48-.49-.35-.35-.27-.38-.37-.2-.24-.25-.05-.2.19-.26.34-.21.3-.08.12-.08.14-.08.14-.08.12-.18.27-.12.17-.61.52-.84.4-.95.06-.69-.19-.58-.3-.12-.08-.31-.25-.14-.12-.08-.1-.2-.23-.34-.46-.33-.71-.21-.62-.24-1.19-.23-1.48-.21-1.5-.09-.69-.07-.62-.2-1.26-.02-.12-.02-.24-.04-.35-.04-.28-.04-.36-.16-1.15-.08-.54-.14-.92-.19-1.16-.22-1.26-.23-1.24-.23-1.07-.2-.77-.16-.33-.17.18-.15.32-.16.38-.06.2-.04.16-.04.24.03.41.05.34.03.18.05.25.08.44.12.72.11.7.18 1.15.18 1.18.15.98.09.54.16.97.2 1.33.21 1.51.18 1.54.11 1.38.02 1.06-.11.58-.51.68-.69.76-.64.51-.34.25-.33.26-.23.15-.38.25-.78.47-.32.16-.2.08-.28.14-.63.27-.89.26-.74.07h-.13s-.16 0-.16 0l-.23-.02-.21-.02-.6-.12-.34-.1-.21-.06h-.21s-.1.15-.1.15l-.14-.29-.37-.39-.33-.35-.25-.36-.43-1.09-.17-1.19.25-1.38.43-1.37.11-.32.1-.2.11-.11.11-.09.18-.15.28-.58.17-.69.04-.38-.02-.37-.09-.12-.16.36-.14.41-.22.29-.36-.06-.51-.63-.25-.88-.04-.91.17-1.09.27-.97.11-.36.16-.55.14-.51.03-.24-.2.11-.21.4-.13.32-.3.91-.28 1.07-.08.33-.11.51-.06.27v.14l-.04.4v.14l-.02.75.05.36.09.43.41.85.26.29.11.11.08.1-.09.37-.19.47-.11.3-.12.37-.25.83-.17.91-.04 1.23.05.44.05.46.02.26.4 1.02.59.98.8.81 1.01.5 1.23.05.67-.11.72-.15.57-.16.65-.29.86-.43.8-.45.44-.34.21-.21.25-.18.3-.23.34-.3.24-.23.12-.13.07-.06.37-.36.56-.63.39-.7.06-.24.06-.32.03-.13.06-.12.11.15.14.34.1.28.1.29.11.31.05.15.19.37.27.49.28.44.2.21.14.1.14.13.13.13.05.05.39.28.47.27 1.14.27 1.21-.19.75-.38.6-.53.19-.26.31-.42.29-.37.12-.13.17 1.64.1.26.16.43.09.23.17.1.28.21.55.43.26.18.46.2.49.1.39-.15.18-.47.07-.51.03-.42v-.25s0-.23 0-.23l.02-.2h.59s.24.05.24.05l.32.04h.81s.84-.04.84-.04l.38-.06.55-.12.56-.14.26-.09.38-.14.12-.04.16-.06.2-.08.16-.08.61-.27.68-.4.62-.41.83-.6.19-.15.32-.22.19-.07.05.23.07.38.08.32.16.35.22.4.44.48.6.31 1.04.08.94-.27.86-.43.49-.49.3-.67.25-1.34-.03-1.35-.04-.32-.02-.44-.06-.36-.12-.88-.07-.51-.06-.48-.05-.32-.07-.4-.08-.36-.04-.17-.04-.22-.05-.3-.07-.34-.08-.47-.04-.25-.04-.22-.04-.24-.04-.2-.04-.2-.28-1.51-.1-.57-.11-.59-.07-.38-.04-.28-.04-.15-.04-.28-.04-.24-.05-.28-.03-.2-.04-.28-.07-.41-.07-.54.03-.25.18.11.21.22.26.25.23.11.12-.17-.08-.39-.14-.41-.1-.24-.32-.67-.16-.32-.08-.24-.06-.16-.27-.5-.33-.61-.09-.16-.2-.35-.21-.33-.11-.1zm31.16.08-.46.26-.4.49-.3.55-.1.66-.02.87v.64s0 .23 0 .23v.33s-.02.17-.02.17l-.19-.16-.17-.25-.35-.47-.65-.74-.52-.46-.69-.4-.65-.05-.17.69.24.52.48.37.27.14.23.08.14-.04.22.02.18.14.21.2.75.92.4.61.09.17.05.13.06.2.05.15.22-.11.14-.45.08-.61.04-.59v-.38s.01-.71.01-.71v-.77s.04-.66.04-.66l.05-.38.24-.23.35-.02.41.34.1.1.18.14h.14s.17-.44.17-.44l-.05-.46-.37-.64-.45-.11zm6.82-.02h-.37l-.51.48-.33.69-.12.82.11.44.3.33.23.21.29.28.13.15-.19.24-.42.4-.47.42-.34.29-.87.64-.44.31-.19.14-.14.11-.3.25-.49.31-.86.56-.28.18-.22.14-.5.3-.27.18-.33.25-.15.18h.21s.51-.14.51-.14l.63-.25.59-.26.37-.19 1.78-1.18.59-.44.57-.45.37-.34.25-.28.46-.48.43-.47.2-.21.3.03.28.16.16.1.26.14h.16s.07-.56.07-.56l-.25-.46-.31-.27-.14-.27-.14-1.2-.31-1.09-.29-.2zm-.43.98.39.11.12.23.19.45.09.42-.19.14-.36-.15-.44-.27-.24-.25.1-.39zm-14.09-.31-.27.16-.73.43-1.05.64-1.25.76-1.32.81-1.26.79-1.08.7-.76.53-.32.29-.08.59.07.22.24-.07.4-.28.37-.25.14-.08.12-.08.24-.16.14-.08.48-.32.31-.2.19-.11.37-.23.67-.41.34-.24 1.23-.78 1.3-.8.62-.4.24-.17.22-.14.24-.25.26-.4.12-.36-.17-.13zm-39.15.05-.27.03-.32.43-.21.54-.12.64v1.46l.02.51-.21-.11-.14-.21-.32-.51-.59-.7-.73-.65-.19-.12-.36-.2-.36-.15-.2.05-.12.47-.03.56.21.28.39.35.3.2.18-.17h.18s.06.04.06.04l.11.08.15.14.23.23.49.57.16.24.08.14.42.75.07.16.11.24.06.12.18-.36.11-.68.07-.83.03-.81v-.62s.03-.35.03-.35l.07-.37.16-.24.31.06.42.4.07.09.15.15h.11s.13-.82.13-.82l-.34-.71-.21-.17-.33-.14zm13.88.24-.28.07-.58.23-.71.3-.68.3-.47.22-2.09 1.07-2.17 1.11-1.99 1.03-4.26 2.38-.27.17-.22.14-.23.14-.32.19-.5.31-.28.16-.53.33-.62.39-.52.34-.25.19-.18.2-.13.1-.07.06-.33.39-.31.41-.21.43-.1.62-.05.57.05.4.21.25.4.32.42.23h.26l.07-.29.03-.45v-.34s-.17-.2-.17-.2l-.31-.22-.11-.08-.19-.15-.1-.08.26-.48.73-.66 1.08-.78 1.29-.84 1.37-.83 1.32-.75 1.12-.61.8-.4.33-.17.67-.35.88-.46.98-.51.94-.5.8-.42 1-.53 1.12-.57 1.09-.54.93-.43.64-.23.17-.2.17-.4.11-.4-.02-.2zm-2.1 5.02-.13.24-.07.48v.37s.29.91.29.91l.14.25.12.32-.06.19-.28-.02-.28-.08-.26-.16-.34-.47-.14-.6-.07-.43-.11-.44-.13-.23-.14.22-.06.49v.34l.13.62.03.65-.19.43-.41.34-.49.09-.28-.13-.24-.25-.05-.3v-.55s.03-.53.03-.53v-.17s-.06-.28-.06-.28l-.08-.22-.11.04-.18.65-.06.95.08.94.26.6.44.35.46-.04.44-.29.37-.41.26-.4h.23s.27.14.27.14l.42.18h.51s.43-.2.43-.2l.18-.32.14-.53.04-.42-.11-.3-.25-.58-.3-.66-.25-.55-.12-.23zm-8.67 5.46-.96.14-.87.24-.6.28-.16.24-.31.52-.25.51v.24s.2-.17.2-.17l.29-.26.24-.18.27-.13.31-.05.53-.05.58-.03h.46s.17.1.17.1l-.2.19-.4.35-.3.24-.12.08-.13.09-.14.08-.17.13-.24.25.02.14.52-.11.74-.36.8-.52.7-.58.43-.56v-.46l-.56-.33-.86-.06zm8.35.15-.24.32-.28.53-.12.39.23.35.37.27.31.23.21.17.44.06.41-.31.24-.5-.05-.48-.26-.27-.45-.39-.48-.31-.32-.06zm-4.12.99-.17.14-.16.37-.13.42-.07.29-.16 1.11.12 1.06.24.56.4.39.3.06.26-.12.1-.23.19-.48.17-.55.06-.43-.16-.13-.12.23-.07.27-.02.08-.19.26-.3-.02-.31-.39-.17-.52-.04-.68.08-.7.12-.59.06-.4zm19.84-11.76-.48.12-.33.32-.36.75-.13.84.16.36.23.31.24.26.09.26-.5.61-.77.67-.67.5-.3.21-.56.39-.59.47-.41.43v.26s.29-.11.29-.11l.6-.32.72-.42.64-.39.37-.25.96-.94.18-.22.25-.31.19-.22.17-.14.35.14.39.23.18.12.26.15.15.04.08-.7-.22-.31-.41-.37-.32-.2v-.29s.01-.55.01-.55l.02-.38-.04-.67-.15-.42-.32-.23zm-.38 1.05.27.05.14.33.08.46-.08.27-.37-.09-.36-.31-.12-.35.12-.2.31-.15zm-38.72-.39-.38.05-.3.46-.2.68-.1.66v2.02l-.17-.16-.29-.38-.2-.27-.65-.8-.34-.3-.54-.42-.57-.33-.44-.02-.14.25-.07.37v.3s.26.36.26.36l.42.33.28.17.29.12.16-.02.16-.02.32.27.45.54.44.66.3.62.02.42-.18.37-.27.39-.16.19-.24.29-.09.13-.83.9-.11.13-.13.2-.04.15h.18s1.16-.79 1.16-.79l.82-1.17.41-1.53.09-1.51.05-2.02.14-.19.27.06.2.12.13.12.15.17.13.13.08.05.16-.1.12-.29.02-.26-.15-.36-.27-.45-.35-.31zm52.42 4.42-.29.34-.24.69-.15.88-.03.93.12.83.31.57.53.18.46-.27.24-.5.04-.23.03-.4.02-.4-.03-.23-.09.09-.07.23-.11.37-.05.19-.08.14-.24-.06-.26-.14-.14-.11-.34-.75-.02-.7.16-.69.11-.33.11-.39v-.23zm13.69.29-.13.09-.07.19-.17.46-.2.55-.17.49-.09.81.17.86.24.41.38.2.42-.17.23-.38.22-.62v-.5l-.09.08-.14.24-.09.18-.15.15-.23.1-.18-.1-.29-.62-.12-.58.13-.58.21-.53.06-.19.07-.31v-.21zm-65.96 4.4-.23.39-.22.88-.18 1.15-.13 1.19-.06 1 .02.59.26 1.13.6.81.35.17.39-.03.3-.38.23-.61.13-.65.02-.51-.11-.18-.08.15-.13.31-.11.27-.13.25-.26.08-.4-.2-.28-.53-.18-.69-.09-.69-.03-.52.06-.95.18-.91.08-.34.1-.54.03-.48-.13-.18zm40.41-3.36-.46.46-.13.25-.18.34-.1.17-.41-.15-.41-.25-.37-.24-.27-.14-.27.19-.28.44-.19.48v.33s.17.18.17.18l.41.3.45.3.27.18.3.04.19-.19.13-.28.11-.25.15-.32.11-.17.18.07.31.19.32.21.2.13.37.23.2.08.15-.24.19-.26.27-.43v-.53s-.26-.24-.26-.24l-.45-.38-.46-.35-.26-.12zm5.34 1.67-.19 1 .16.99.36.92.44.77.47.75.5.82.42.76.24.55-.16.45-.55.63-.79.72-.86.72-.8.62-.57.43-1.15.81-1.16.71-.04.02-.24.14-.26.16-.4.24-.26.16-.14.08-.12.08-.26.16-.14.07-.08.05-.15.1-.09.06-.28.16-.86.52-1.26.64-1.47.69-1.49.67-1.32.58.09.08.59-.08.87-.17.95-.22.81-.19.47-.12 1.69-.45 1.53-.58 1.56-.85.59-.36.57-.35.27-.17.35-.22.35-.26.32-.22.23-.17.24-.17.45-.31.43-.29.21-.12.04.32v.49s-.03.66-.03.66v.31l.02.22.13.68.21.63.25.38.44.48.49.49.61.29.93.25.63.02.74-.11.58-.15 1.13-.48 1-.57 1.64-1.24 1.44-1.43.49-.56.4-.5.23-.33.09-.15.17-.25.07-.12.06-.15.06-.13.16-.45.06-.53v-.45l.04-.42.06-.32.14-.13.27-.22.24-.19.32-.24.11-.08.09-.08.19-.17.35-.29.34-.24.18-.02.31.85.41.72.6.44.72.19.63.02.88-.21.72-.4.67-.66.23-.36.11-.2.12-.15.21.12.2.23.35.34.47.25.63.24.75.05.68-.19.58-.61.29-.93.03-.95-.12-.39-.24-.55-.28-.53-.25-.34-.14.04-.11.51-.09.57.02.37.2.37.21.41.08.23-.44.27-.69-.04-.76-.25-.63-.36-.3-.4.05-.21.12-.35.12-.32.07-.24v-.25s-.14-.06-.14-.06l-.25.25-.26.45-.21.43-.7 1.18-.26.24-.33.25-.39.23-.19.09-.09.03-.7.16-.85-.15-.76-.36-.44-.45-.11-.48-.07-.61-.03-.3-.05-.24-.27-.04-.33.17-.27.19-.15.13-.22.19-.24.2-.15.13-.07.05-.12.1-.35.25-.22.15-.36.22-.38.21-.24.11-.24-.21-.34-.41-.65-.69-.8-.52-.66-.2-.69.02-.68.41-.58.64-.31.75-.08.78.06.75.25.64.51.45.82.17.76-.06.87-.13.42-.07.34-.09.29-.1.17-.06.3.16-.07.41-.28.51-.31.44-.16.21-.15.16-.36.37-.42.43-.34.35-1.53 1.35-1.76 1.1-.97.38-.4.11-.48.08-.31.02-.64.02-.26-.04-.26-.04-.16-.06-.2-.08-.16-.06-.5-.31-.37-.35-.37-.61-.29-.82-.09-.88.21-.78.53-.58.58-.53.58-.63.44-.75.2-1.12-.04-1.18-.3-.99-.51-.84-.18-.27-.33-.53-.28-.53-.05-.28.11-.03h.12s.28.05.28.05l.12.04.18-.09-.07-.21-.28-.32-.39-.36-.71-.61-.4-.38-.09-.1-.17-.15-.12-.03zm8.25 6.09.49.03.63.19.5.28.09.3-1.13.18-.93-.07-.29-.22.05-.28.26-.25.34-.16zm-11.81-4.7-.18.22-.15.25-.1.18-.2.26-.57.78-.2.32-.37.54-.37.5-.23.19-.31-.16-.46-.26-.43-.27-.19-.19.16-.14.3-.1.16-.08v-.18s-.33-.19-.33-.19l-.61-.24-.54-.18-.52-.18-.12-.06-.12-.1-.15-.1h-.17l-.07.35-.03.55.02.52.08.29.35.25.05.04.11.13.36.36.2.19.24.2.23.2.07.06.15.12.19.15.14.1.17.12.16.12-.05.25-.15.44-.21.53-.28 1.09-.07.9.07.81.29.77.59.3.54.1 1.15-.46.93-.66.8-.8.29-.65.05-.86-.14-.84-.3-.57-.18-.25-.2-.19-.12-.1-.08-.07-.63-.4-.21-.12-.15-.12.1-.27.26-.46.32-.51.27-.41.12-.32.18-.6.17-.65.06-.46-.12-.02zm-2.32 5.14.41.17.6.28.61.35.44.38.11.36-.07.07-.1.1-.4.29-.35.25-.6.36-.74.29-.63-.04-.33-.3-.13-.45.11-.37.23-.56.29-.58.3-.44.24-.14zm27.92 3.22-.15.09-.13.28-.07.24-.14.47-.24.29-.33-.04-.33-.21-.07-.19.02-.32h-.16l-.12.28-.44.6-.72.33-.25-.03-.23-.11-.43-.22-.59.04-.55.22-.79.51-.71.59-.17.12-.28.2-.46.34-.33.25-.14.07-.22.15-.19.13-.33.22-.32.22-.38.18-.12.08-.17.15.04.07.93-.21.89-.44.79-.5.96-.64.83-.53.49-.27.46-.03.37.17.45.17.51-.07.58-.36.3-.2.39.1.56.04.4-.25.15-.42.07-.22.2-.21.05-.15.07-.18.05-.24.04-.35-.05-.22zm-35.79 1.69-.34.15-.28.35-.18.35-.02.05-.08.19-.03.08-.07.23v.24s0 .28 0 .28h.06s.18-.32.18-.32l.28-.31.3-.19.22.05.04.41-.21.37-.38.48-.39.44-.17.2-.25.3-.2.29-.04.17.24-.06.66-.49.69-.8.48-.98.02-1-.18-.34-.33-.16zm-7.74 1.37-.34.07-.35.21-.22.2-.19.35-.22.55v.37l.15-.12.18-.19.23-.22.28-.12.29.14-.02.3-.18.33-.18.23-.21.22-.41.42-.43.47-.28.36.07.08.74-.39.6-.53.49-.72.26-.86-.04-.9-.22-.24zm-18.48.48-.2.06-.36.17-.3.15-.32.22-.24.12-.58.31-.6.31-.43.21-.18.09-.42.22-.49.26-.37.2-1.32.68-.14.33-.04.43.2.18.19-.07.18-.1.4-.24.42-.18.4-.18.38-.24.2-.09.06-.03.14-.08.65-.33.65-.33.39-.21.36-.21.42-.22.28-.15.37-.2.19-.13.11-.29.08-.38-.07-.26z" fill="#1d1d1b" fill-rule="evenodd"/></svg>