<svg viewBox="0 0 94.29 30.12" xmlns="http://www.w3.org/2000/svg"><path d="m89.36 9.33s.03-.1.03-.12v-.07s.03-.06.03-.06l.02-.09c.03-.08.06-.19.08-.24l.02-.05.03-.05v-.05s.02-.04.02-.04l.02-.04v-.05s.03-.03.03-.03l.03-.07v-.04s.05-.07.05-.07l.02-.05c.08-.2.4-.93.51-.96.07-.02-.03.35-.03.36-.04.13-.09.28-.12.34l-.24.48c-.09.17-.13.43-.15.61-.02.11.01.79.05.81.01 0 .04.1.04.12v.04s.03.07.03.08c.04.1.07.19.1.24.08.12.15.22.25.32.03.03.16.05.25.06.01 0 .16-.07.18-.09.04-.03.05-.04.07-.04.07 0 .23-.41.26-.49.2-.52.18.21.15.36-.02.1-.08.31-.15.42-.05.08-.12.26-.15.37-.05.19-.42.49-.59.51-.32.04-.54-.32-.71-.59-.02-.04-.05-.13-.05-.16-.02-.07-.04-.16-.05-.17 0-.02-.03-.11-.04-.17v-.04s-.02-.08-.02-.08c0-.04-.01-.07-.02-.1-.06-.25 0-.76.05-1.08m-.27-7c.07.02.32.21.43.29.05.04.46.29.59.23.12-.05.09-.34.07-.47v-.06q0-.06 0-.07c-.02-.07-.03-.16-.04-.27 0-.07-.18-.39-.25-.52l-.06-.07-.08-.04s-.07-.03-.07-.03-.16-.02-.18-.03t-.07.01s-.08.02-.11.02c-.19-.02-.46.38-.51.53-.06.17.21.43.29.48m-1.51 3.4s.11-.1.15-.13c0 0 .05-.04.07-.05.04-.03.1-.08.14-.1.02-.01.12-.09.17-.13.04-.03.32-.26.53-.43s.93-.79.89-.97c-.02-.11-.22-.26-.32-.31-.08-.03-.29-.22-.38-.3-.26-.24-.47-.5-.47-.93 0-.07.06-.35.09-.52 0-.03.02-.07.03-.13 0-.03.01-.04.02-.13 0-.03.03-.09.04-.13s.04-.12.04-.13c-.02-.09.35-.67.4-.74.19-.21.39-.41.75-.41.13 0 .3.11.4.18.19.13.36.7.41.96.01.1.02.18.03.3q0 .08 0 .12s0 .03 0 .14v.11s-.01.07-.01.07q0 .05.01.11c.04.13.04.53.04.76 0 .11 0 .28.02.32.06.1.21.21.32.28l.03.02.09.1.03.02s.05.05.07.08c.02.04.04.06.08.09.06.05.1.19.11.27.02.1-.02.64-.12.68s-.23 0-.29-.08c-.06-.06-.14-.12-.22-.17-.02 0-.04-.02-.05-.03t-.06-.04l-.03-.02h-.03s-.05-.05-.05-.05c-.01 0-.23-.14-.23-.14 0-.03-.22-.03-.23-.03-.05 0-.16.13-.18.17-.05.07-.12.17-.18.24-.06.06-.13.13-.17.2-.05.07-.13.15-.2.22-.12.12-.4.37-.41.38-.13.1-.37.3-.44.37-.05.06-.11.12-.16.16s-.2.17-.21.19c0 0-.02.01-.07.03 0 0-.04.03-.07.05l-.04.02-.02.03-.07.04-.11.08-.05.05-.07.07s-.08.07-.13.11c-.02.02-.03.02-.05.03t-.06.03s-.07.06-.11.08l-.06.04s-.07.04-.08.06c-.02.03-.18.13-.24.17-.04.03-.12.08-.13.08 0 0-.03.02-.05.02s-.05.03-.09.06c-.07.05-.15.1-.22.14-.03.01-.08.05-.14.11-.02 0-.04.02-.09.06-.07.05-.16.11-.24.15-.07.03-.21.11-.24.14-.1.1-.33.21-.51.3-.08.04-.17.1-.24.15-.05.04-.21.12-.31.17-.08.04-.21.1-.27.14 0 0-.08.04-.11.05-.05.02-.11.05-.16.08t-.07.02l-.06.02-.03.02h-.05s-.08.04-.08.04h-.07s-.05.03-.05.03c-.09.03-.23.09-.32.13h-.04s-.08.03-.08.03t-.09.03s-.04 0-.09.03c-.11.04-.3.12-.35.14 0 0-.07.02-.11.04l-.04.02s-.11.04-.17.05c-.11.03-.28.08-.37.07-.04 0 .06-.16.07-.18.08-.12 1.11-.71 1.41-.85.26-.13.46-.26.69-.42.14-.1.46-.29.66-.41.09-.05.31-.18.33-.2.1-.08.21-.14.32-.21.05-.03.11-.08.16-.12.06-.04.13-.09.19-.13.05-.03.11-.07.16-.1l.04-.02.1-.07s.02 0 .08-.05t.05-.04s.05-.04.07-.05h.04s.01-.02.05-.05l.04-.02q.06-.03.07-.04s.06-.04.12-.08l.05-.03h.03s.09-.09.09-.09c.12-.07.24-.15.33-.21 0 0 .05-.05.06-.05.01-.01.07-.05.11-.07t.08-.06l.04-.02s.07-.05.07-.05m-.14 17.05s.13.04.14.04h.09s.04.02.07.05c.02.01.08.05.08.05.03.02.1.05.11.06.09.06.39.24.43.23.02 0 .46-.01.46-.01.02 0 .24-.08.32-.12h.03s.06-.05.06-.05q.07-.03.07-.04s.03-.02.06-.03c.11-.04.42-.4.47-.53.04-.1.29-.56.39-.5.03.02.01.18 0 .26 0 .09 0 .13.02.2.05.14.27.23.47.3.11.04.2.06.32.06.05 0 .08-.02.12-.04.05-.03.15-.08.16-.09.07-.02.2-.67.2-.71.03-.17.23-.65.38-.63.11.01.03.66.01.72-.15.59-.55 1.78-1.28 1.78-.1 0-.36-.04-.45-.1-.02-.01-.14-.07-.21-.1l-.08-.05-.11-.04c-.14-.02-.32.15-.45.26-.05.04-.1.09-.15.13-.04.03-.18.13-.18.13s-.21.09-.23.09c-.06.02-.19.05-.27.09-.06.03-.45.03-.51-.01h-.06s-.04-.02-.07-.05c0 0-.07-.03-.08-.04l-.09-.07c-.07-.03-.09-.04-.15-.07-.12-.07-.3-.17-.37-.18-.2-.03-.38-.03-.56.04-.14.05-.34.13-.5.18-.08.03-.21.1-.27.14l-.05.05-.1.05-.06.04s-.08.05-.08.05-.11.07-.16.1c-.03.02-.05.03-.06.04-.03.02-.06.05-.08.06t-.05.04l-.05.03-.07.05s-.07.03-.08.03c-.17.11-.41.27-.56.4-.09.07-.18.15-.33.26-.06.04-.06.04-.06.04-.02.01-.06.04-.08.05h-.04s-.04 0-.04 0h-.03s-.02.06-.02.06h-.03s-.08.07-.08.07l-.03.02-.04.02-.03.02s-.05.03-.13.12h-.04s-.04.03-.04.03c-.01 0-.07.04-.1.05-.21.12-.42.23-.64.31 0 0-.11.06-.15.08-.06.03-.12.06-.18.08t-.09.04h-.04s-.04.01-.04.01l-.07.02h-.04c-.06.02-.07.02-.12.04-.2.06-.77.21-.84.12 0-.01.02-.08.03-.13 0 0 .18-.08.22-.1h.05s.05-.02.05-.02l.04-.02h.04s.07-.04.07-.04c.09-.04.25-.14.37-.22.07-.04.28-.17.42-.25.04-.02.07-.04.1-.07.02-.01.06-.04.07-.05.05-.03.1-.06.11-.06.04-.03.08-.05.11-.08.19-.12.66-.42.7-.48.03-.04.28-.21.33-.24.06-.03.15-.09.17-.11.03-.04.12-.09.18-.11.2-.1.49-.33.66-.48.21-.19.48-.38.73-.52.05-.03.11-.07.16-.11 0 0 .14-.08.21-.12l.03-.02s.04-.03.04-.03l.08-.05c.07-.04.18-.1.19-.11.31-.14.74-.34 1.17-.3m-10.28-21.04s.1-.13.15-.13c.09 0 .35-.01.4.04l.05.02s.04.01.08.04h.03s.07.05.07.05l.04.02.04.02.07.04.08.04c.09.05.22.15.32.24.1.08.23.19.33.26.02.01.34.29.34.29 0 .03.3.36.35.41t.07.08l.06.07s.04.05.07.08c.04.04.07.08.1.14.02.04.06.09.09.13.13.15.28.33.37.51.04.08.11.19.17.3.02.03.04.07.06.11 0 0 .05.07.05.07.02.02.05.05.05.05.02.05.11-.03.11-.04.04-.04.05-.75.05-.89 0-.2 0-.67 0-.68.03-.17.06-.44.04-.6s.03-.45.07-.64c0-.05.05-.19.08-.28l.03-.11.03-.07s.01-.05.02-.06c.02-.02.02-.03.03-.06.02-.08.61-.94.66-.97l.05-.04c.05-.04.11-.08.17-.11.14-.08.28-.12.43-.12.06 0 .16.04.24.09.03.02.05.03.08.05.08.03.26.28.31.37.04.07.07.14.11.21.02.05.07.14.07.15l.03.08s.02.09.02.09c.04.05-.01.28-.02.32s-.03.09-.06.14l-.02.06c-.04.16-.09.34-.28.27-.08-.03-.26-.26-.33-.36s-.24-.25-.35-.3c-.08-.04-.15-.07-.26-.07-.13 0-.39.19-.45.27-.1.16-.17.35-.19.58-.02.21-.03.53 0 .76 0 .07 0 .5-.02.84-.02.59-.06 1.41-.16 1.73 0 .01 0 .08-.01.13 0 .1-.01.18-.03.27-.01.08-.04.24-.04.31 0 .14-.12.45-.19.61-.02.04-.15.04-.17.04-.07 0-.11-.19-.13-.26-.02-.1-.05-.19-.07-.28-.05-.16-.15-.32-.24-.46-.07-.1-.19-.3-.26-.37-.04-.04-.19-.26-.28-.37-.19-.26-.36-.5-.56-.74-.09-.12-.2-.22-.31-.32-.08-.07-.12-.09-.22-.14-.04-.02-.08-.01-.15 0-.02 0-.22.05-.22.01h-.06s-.04-.03-.04-.03c-.02 0-.06-.02-.07-.02-.04-.02-.1-.05-.12-.07t-.08-.04s-.05-.02-.08-.04c-.04-.03-.11-.07-.14-.09-.15-.1-.43-.29-.47-.34-.11-.13-.14-.35-.16-.53-.01-.09.02-.22.05-.36l.02-.08v-.04s.03-.13.03-.13l.05-.12zm-1.29 15.77s.04.02.06.04.03.02.05.03c.06.03.1.04.15.06.1.03.27.09.32.09.26.03.69.07.77.07.29 0 1.14-.11 1.31-.26.2-.16-.78-.79-.82-.81-.42-.17-1.07-.32-1.5.02-.12.09-.26.21-.34.33-.07.11-.21.36 0 .43m-.89-11.15c.03.15-.1.46-.16.6-.07.14-.12.25-.15.37-.04.13-.13.47-.14.51v.05s-.02.04-.02.04v.04s-.02.05-.02.05v.04s-.01.04-.01.04c0 .05-.02.1.03.16.02.02.02.02-.04.01-.02 0-.03.3-.03.31 0 .07.02.26.01.27 0 0 .03.17.03.18 0 .03.03.12.04.15v.04s.03.03.03.03v.05s.03.04.03.04l.04.05c.07.18.13.3.22.45.07.12.22.24.33.29.13.06.43.12.51-.08q.02-.06.04-.08s.03-.02.04-.05c0-.02.02-.07.03-.1.02-.06.02-.08.03-.11.03-.08.07-.25.08-.34.01-.08.09-.24.17-.22.06.01.06.35.05.42-.03.27-.11.52-.18.79 0 .04-.08.21-.12.3-.01.03-.03.08-.05.13t-.04.06s-.04.06-.05.09c-.03.07-.25.27-.33.3-.07.03-.16.07-.25.04-.17-.05-.27-.11-.39-.2l-.06-.04-.05-.05s-.03-.05-.05-.06c-.02-.02-.04-.04-.06-.06-.03-.04-.06-.08-.06-.08-.04-.01-.28-.62-.29-.7s-.05-.27-.05-.27q-.02-.05-.02-.1c0-.08 0-.2-.02-.28-.08-.33.21-1.53.35-1.86.04-.1.1-.24.13-.32.04-.11.11-.31.14-.35.03-.05.1-.21.14-.29t.03-.06l.05-.07.04-.09h.04s.04-.01.04-.01zm-1.32-5.94c.05.36.01.65-.2.92-.01.02-.18.12-.27.16-.1.06-.23.13-.31.19-.06.05-.36.24-.55.36-.2.13-.73.43-1.17.69-.03.02-.08.05-.11.06s-.09.05-.12.07c-.1.06-.21.12-.3.18-.04.03-.1.06-.14.08-.05.03-.09.05-.15.08t-.06.03l-.06.03h-.04s-.09.08-.12.1c-.02.02-.18.11-.24.15l-.07.04h-.04s-.07.05-.07.05c-.05.02-.07.04-.12.08-.07.05-.2.14-.28.17h-.05s-.04 0-.04 0l-.02.05s-.05.03-.05.03l-.04.04s-.05.04-.08.05c-.08.05-.16.1-.24.16-.1.07-.22.15-.33.18-.04.01-.29.15-.32.17-.04.03-.2.13-.27.18-.19.11-.34.19-.54.29-.17.08-.42.26-.55.36-.06.04-.17.1-.26.14s-.2.13-.28.19c-.07.06-.43.25-.61.35-.07.04-.17.09-.26.15t-.06.04s-.05.03-.09.05t-.06.04s-.01 0-.08.04c-.06.03-.25.13-.3.2-.05.06-.18.18-.26.2-.06.01-.11 0-.16-.04-.1-.05.08-.79.1-.87.01-.06.92-.65 1.04-.72.37-.22.86-.5 1.12-.67l.1-.07c.06-.04.13-.08.17-.1.1-.05.21-.12.3-.19.08-.07.2-.13.3-.17.08-.04.22-.11.29-.17t.05-.03s.07-.04.1-.06t.04-.02l.07-.04s.1-.06.16-.08c.03-.01.1-.06.15-.09s.09-.06.13-.1l.03-.02.05-.04.08-.03.05-.04s.07-.03.13-.07h.03s.1-.06.1-.06c.17-.11.39-.25.53-.32.2-.11.38-.21.58-.33.29-.18 1.17-.68 1.17-.68.09-.03.18-.09.28-.15.05-.03.12-.08.14-.08.06-.02.14-.06.18-.1.08-.07.2-.13.3-.18.03-.02.2-.12.3-.19.21-.13.42-.26.64-.38.06-.03.2-.12.3-.19.06-.04.29-.18.35-.11m-14.27 19.01c.18.26.25.3.52.45.24.13.98-.1 1.18-.18.27-.12.45-.22.72-.37s1.32-.8 1.3-1.08c0-.08-.05-.14-.09-.19-.03-.03-.07-.1-.1-.15-.06-.11-.37-.33-.51-.43-.04-.03-.11-.08-.12-.08l-.05-.04-.03-.02h-.04s-.09-.07-.09-.07l-.06-.03s-.2-.1-.2-.1c-.07-.05-.18-.12-.27-.16-.1-.04-.26-.13-.37-.2l-.08-.03h-.03s-.05-.05-.05-.05h-.04s-.08-.05-.08-.05l-.04-.02h-.04c-.06-.04-.1-.05-.15-.07-.07-.01-.11-.02-.18 0l-.03.02s-.04.04-.04.04l-.11.15v.04s-.05.07-.07.1t-.05.07v.03s-.05.04-.05.04l-.03.06-.03.06c-.12.2-.26.42-.41.61v.04h-.03s-.02.1-.02.1t-.03.05s-.03.1-.05.12c-.03.04-.11.21-.18.36-.11.23-.16.73.03.97m-.17-17.5c.08.17.55.57.74.62.05.01.12.01.16-.04.1-.12.1-.36.09-.59v-.04s-.01-.13-.01-.13t0-.05s-.02-.08-.02-.08-.06-.14-.09-.19v-.04s-.02-.03-.05-.06c-.01-.02-.04-.05-.05-.07-.01-.04-.25-.09-.27-.06h-.04s-.02.01-.07.04h-.03s-.04.01-.04.01t-.05.05s-.14.1-.18.13c-.13.09-.22.35-.08.5m1.2 6.79c.07-.02.17-.04.2-.06.12-.13.3-.47.38-.65.07-.17.3-.53.47-.6.08-.03.19 0 .26.04.09.04.6.44.67.52.08.1.21.19.32.26.06.04.12.09.16.14s.1.11.16.16c.12.1.16.4.11.56-.03.09-.06.16-.1.25 0 0-.03.04-.05.06-.03.03-.05.07-.07.11-.03.06-.08.12-.13.17-.05.04-.1.11-.15.17s-.1.14-.13.2-.08.12-.14.16c-.03.02-.08.02-.15.01 0 0-.64-.47-.68-.51-.09-.09-.67-.57-.72-.58-.1-.01-.1-.01-.17 0-.03 0-.42.72-.43.75-.02.07-.19.44-.2.44h-.04s-.02.07-.02.07c-.03.03-.07.06-.09.08-.04.02-.23.09-.27.03-.01-.02-.68-.46-.81-.54l-.04-.02-.03-.02s-.02 0-.04-.05t-.05-.04s-.05-.04-.07-.06c0 0-.04-.03-.05-.03l-.07-.03s-.08-.05-.08-.05c-.03-.03-.06-.06-.1-.09-.02-.01-.04-.04-.06-.06s-.07-.07-.1-.08c-.04-.02-.09-.22-.08-.27.01-.08.12-.3.21-.49.07-.14.17-.33.2-.46 0 0 .09-.1.09-.1s.04-.06.09-.13t.05-.05l.04-.04s0 0 .04-.04c.02-.02.06-.05.06-.05.07-.11.48.15.52.18.02.02.25.17.36.25.12.08.24.16.36.23.03.02.08.04.12.08 0 .01.07.05.08.05.04.02.04.02.08.07h.04s.03.02.03.02zm-3.44 4.8c-.14-.21-.1-1.35-.06-1.52.02-.09.06-.26.07-.28.06-.12.1-.14.23-.05.05.03.12.08.17.13.05.06.14.1.23.14.06.03.14.06.21.09s.08.04.15.05c.06.01.08.02.13.04.18.09.4.17.59.24.35.12.64.23.99.41.04.02.07.04.1.08t.02.05s.02.05.04.05c.06.02-.08.16-.09.17-.05.03-.14.07-.22.07s-.25.02-.35.1c-.2.16.15.39.3.49.18.12.42.28.54.37.14.11.47.31.66.33l.11-.03.05-.04.02-.03.03-.02s.24-.35.27-.42.12-.17.17-.23c0 0 .11-.15.17-.22l.06-.07.02-.04.05-.05s.02-.01.04-.04c0 0 .11-.14.16-.21.04-.06.2-.28.3-.44.03-.03.05-.07.09-.12l.04-.05.03-.02.04-.06.02-.03.1-.13c.05-.07.13-.18.17-.2t.03-.05l.04-.05s.03-.03.04-.06l.04-.06.05-.03.04-.05s.06-.07.07-.11c.02-.04.12-.16.17-.21.06-.06.12-.17.16-.25.04-.07.12-.18.19-.22.03-.02.13 0 .15.06v.06s0 .11 0 .11l-.02.04v.04s-.04.08-.05.11c-.04.15-.1.41-.13.5-.06.13-.09.29-.09.43 0 .05-.09.31-.13.44-.03.09-.64.99-.7 1.03-.09.07-.27.35-.37.5l-.02.04-.02.04s0 .02-.05.05c0 0-.03.05-.04.06-.02.03-.07.12-.09.14-.02.03-.06.08-.11.13 0 .03 0 .04-.03.05 0 0-.03.1-.03.11 0 0-.01.19.02.15l.04.06s.09.07.09.07c.04.03.11.07.16.1.05.04.11.06.17.09 0 0 .12.08.16.11l.07.04.04.04.07.03s.07.05.07.06c.03.04.21.17.25.18.09.03.55.62.63.74.13.2.4.69.39.97 0 .26-.01.55-.06.78 0 .01-.02.12-.02.16v.04s0 .05 0 .05v.04s0 .11 0 .11v.05s-.03.23-.04.3c0 .05-.04.14-.06.21-.13.37-.33.71-.6.95-.13.12-.26.22-.41.33-.08.05-.18.13-.22.16-.09.05-.18.12-.25.18-.51.41-1.68 1.01-2.42.9-.09-.01-.44-.08-.51-.18l-.08-.06s-.04-.03-.06-.04l-.08-.06s-.04-.06-.05-.07c-.07-.1-.15-.21-.19-.3-.12-.27-.22-.61-.23-.91 0-.19 0-.43.03-.55.02-.1.03-.32.04-.42l.02-.08v-.05s.01-.02.02-.06v-.08s.02-.06.02-.06v-.04s.02-.15.02-.15v-.04s0-.06 0-.09c0-.07 0-.1.02-.15.02-.07.06-.25.06-.29 0-.02.12-.38.19-.58.01-.05.03-.09.06-.13s.04-.08.05-.13c0-.03.03-.07.05-.09.03-.05.08-.13.08-.13.02-.07.13-.3.23-.49.07-.14.2-.42.2-.46 0-.14-.57-.55-.71-.65-.07-.05-.12-.09-.18-.15-.04-.05-.11-.11-.15-.14 0 0-.12-.1-.18-.15-.02-.01-.07-.06-.07-.06-.02-.03-.06-.08-.1-.1-.07-.05-.14-.11-.23-.21-.03-.04-.07-.08-.16-.19-.02-.03-.07-.08-.12-.11l-.04-.07s-.03-.03-.04-.05t-.05-.06s-.04-.04-.07-.06l-.09-.12s-.03-.04-.04-.04t-.06-.07s-.03-.02-.05-.04c-.07-.04-.36-.25-.39-.3m-2.34-6.18s.23-.13.25-.15c.07-.06.14-.1.23-.12.04-.01.1-.05.13-.07.04-.03.08-.05.13-.08.04-.02.08-.05.12-.07.05-.03.1-.07.15-.09.09-.05.18-.1.26-.16.05-.03.05-.03.05-.03.01 0 .04-.03.05-.04.04-.04.09-.08.14-.11.03-.01.03-.02.05-.04t.13-.1l.04-.02.08-.08.05-.03s.05-.03.09-.05c.06-.04.15-.1.21-.15.07-.05.21-.16.21-.16.07-.04.17-.11.23-.16.03-.03.16-.12.24-.17.08-.06.52-.38.86-.63.17-.13.33-.29.48-.44.08-.08.15-.15.22-.23.05-.06.16-.16.23-.21 0 0 .11-.2.14-.26.07-.14-.05-.27-.13-.34-.07-.06-.14-.12-.21-.2l-.04-.05-.04-.04-.03-.05s-.04-.06-.05-.06l-.12-.22s-.01-.04-.03-.06l-.02-.04-.02-.05q-.03-.06-.03-.08s-.01-.06-.02-.06c-.1-.13.16-1.1.23-1.23.05-.1.1-.2.15-.3.02-.06.05-.11.09-.15l.07-.1.02-.03s.26-.25.36-.34c.05-.05.19-.12.26-.14.08-.02.14-.03.23-.03.03 0 .19.04.2.07h.04s.05.07.06.08c.03.04.1.14.11.14.06.04.13.36.16.49.02.11.04.25.04.33 0 .05-.02.21 0 .29v.04s-.01.05-.01.05v.04c-.02.06-.02.11-.02.12v.15s-.02.06-.02.06v.2c0 .03-.03.26-.04.35-.02.15-.04.27-.03.38 0 .07.49.46.56.5.14.06.42.41.5.58.1.2-.04.74-.21.82-.03.01-.27-.19-.3-.22-.04-.04-.27-.23-.3-.24-.06-.02-.11-.06-.16-.11-.01-.01-.13-.07-.16-.08l-.06-.04-.03-.02s-.05-.03-.08-.05l-.07-.05h-.05s-.05-.04-.05-.04c-.05 0-.13.03-.23.06-.03.01-.14.14-.17.19t-.1.12l-.02.03-.03.02-.02.03-.02.03s-.03.04-.04.06c-.02.02-.04.04-.05.06l-.04.05s-.04.05-.04.05c-.02.02-.07.08-.09.1t-.04.06s-.05.05-.07.07l-.02.03s-.02.02-.05.05c0 0-.11.09-.15.13l-.03.02-.02.03-.05.04-.04.05-.02.03c-.35.38-.8.71-1.23 1.02l-.04.02-.11.08-.05.02q-.07.06-.1.07s-.09.04-.13.06c-.01 0-.06.03-.08.04-.06.02-.07.03-.09.05l-.08.03q-.06.04-.08.06l-.07.02c-.12.06-.29.16-.36.21-.09.08-.28.17-.39.2-.02.01-.03.02-.15.07l-.07.03h-.04s-.03.03-.03.03l-.06.04c-.12.05-.36.14-.44.19-.13.09-.31.19-.45.23-.03.01-.1.03-.11.04h-.03s-.05.03-.05.03h-.03s-.27.09-.26.02c0-.03.06-.11.14-.23t.04-.04s.09-.07.14-.13c.02-.01.05-.04.05-.04m25.44 12.57c.04-.2-.04-.46-.2-.62-.05-.05-.12-.07-.2-.07-.05 0-.28.08-.41.12-.14.04-.35.11-.43.12s-.19.03-.23.03-.14.02-.19.04c-.14.04-.38.09-.51.11-.41.06-.83.07-1.25.07-.17 0-.43-.07-.61-.12-.22-.06-.43-.16-.63-.26-.26-.13-.58-.57-.65-.9-.03-.14-.04-.32-.04-.53 0-.17 0-.38-.02-.54-.03-.28.15-.79.28-1.14.06-.15.15-.3.24-.43 0 0 .04-.06.05-.09t.04-.05l.04-.04.02-.03s.01-.02.05-.08l.06-.08s.27-.27.38-.36h.04s.04-.06.04-.06c.02-.02.06-.06.09-.09s.07-.06.11-.08.08-.05.1-.07c0 0 .1-.04.14-.06q.06-.02.07-.02s.03 0 .07-.02.09-.05.12-.05l.07-.02h.1c.06-.01.06-.01.07-.02.18-.07.58.02.81.08.22.06.45.16.64.27 0 0 .07.05.1.08.05.04.1.08.17.11.08.04.23.15.34.25.02.02.06.06.08.08t.09.09s.02.02.06.05c.02.01.05.05.08.07.07.07.11.12.17.19.03.03.08.09.08.09.02.03.05.08.09.11l.04.05s.04.05.08.1l.02.04.02.03s.03.04.04.05c0 .01.01.02.05.07v.04s.04.02.04.02l.03.07c.06.08.12.16.17.25.05.08.12.16.19.21.26.17 1.66-.77 1.8-.89.1-.08.22-.17.34-.24l.07-.06.16-.13v-.03s.05-.01.05-.01h.03s.05-.06.05-.06c.09-.07.4-.33.4-.33.08-.04.1-.05.12-.06 0 0 .06-.05.09-.07s.07-.06.07-.08h.05s.03-.02.03-.02t.05-.04s.02-.02.05-.03q.05-.02.09-.04c.09-.06.19-.11.32-.13.04 0 .09.02.14.05 0 0 .05.03.05.03l.03.04s.05.28.05.3c0 .07.01.23 0 .31-.04.2-.06.4-.06.58 0 0 .04.17.06.23l.04.09v.03s.01.01.04.06c0 .02.02.06.03.08.02.09.13.22.19.29t.1.1l.02.03.03.05s.04.03.07.06l.04.02.07.07s.02.01.07.05l.07.06s.04.02.06.04c.04.04.1.08.16.1.06.03.16.08.17.09.12.09.3.13.46.17.08.02.22.05.27.06.06 0 .22.03.22.03h.09s.03 0 .05 0c.21.06 1.08-.08 1.26-.21.02-.01.26-.14.37-.2l.05-.02.05-.02.07-.04.03-.02.03-.02s.06-.04.09-.06c.03-.03.08-.05.11-.07.06-.03.54-.46.56-.51l.03-.05s.03-.05.03-.05c.03-.03.07-.06.07-.07.05-.08.11-.17.16-.25.08-.13.2-.36.29-.54s.25-.49.3-.56c.09-.14.22-.38.28-.53.02-.04.29-.33.33-.34.04 0 .08 0 .17.01.03 0 .02.19.02.21-.01.07-.04.18-.06.23-.04.12-.09.23-.14.35-.05.1-.24.52-.26.55-.07.09.02.37.07.44.03.04.06.08.09.11.04.04.08.09.1.14.02.04.53.35.63.4.25.13.47.23.78.3h.05s.05 0 .05 0t.1.02s.02 0 .08 0c.04 0 .14.02.18.03h.05.16.09s.11 0 .12 0l.07-.03h.05s.13-.05.13-.05c.12-.03.26-.07.31-.12.11-.12.1-.24.05-.4-.03-.09-.14-.37-.14-.37-.03-.04-.1-.13-.1-.14-.03-.04-.08-.09-.1-.12-.06-.08-.17-.26-.19-.29-.06-.17.07-.68.14-.93t.01-.04c0-.07.02-.16.03-.23l.02-.06v-.05s.03-.04.03-.04v-.04c.03-.07.05-.14.09-.19.02-.02.1-.12.1-.14 0-.04.15.04.15.04.04.03.06.06.09.1l.02.03.03.06.02.03.04.06.03.07c.11.15.23.41.27.59 0 .03.02.07.04.1.02.04.04.08.04.1v.03q.02.06.02.06v.04s.03.06.03.06l.02.09c.04.12.07.28.11.45.05.24.07.54.06.86 0 .2-.07.48-.14.7-.07.24-.16.54-.29.74-.1.17-.29.46-.36.52l-.06.04s-.04.04-.05.04l-.03.02-.04.02s-.07.04-.09.06c-.03.02-.1.06-.16.08-.04.02-.17.07-.17.07s-.29.05-.32.05c-.11.01-.27.03-.3.03-.17 0-.46 0-.62-.05-.31-.1-.59-.18-.86-.34h-.04s-.02-.01-.07-.06c-.07-.02-.07-.02-.08-.03-.07-.04-.13-.09-.18-.15-.02-.02-.03-.02-.07-.04 0 0-.07-.05-.08-.06-.06-.05-.12-.11-.16-.16-.01-.02-.08-.08-.13-.13-.04-.05-.1-.12-.14-.18-.03-.04-.07-.1-.11-.16-.02-.03-.11-.17-.13-.17-.06 0-.12 0-.16.02-.03.02-.12.17-.14.2-.05.09-.1.19-.16.28-.03.05-.11.17-.13.2-.04.08-.11.17-.16.24-.65.75-1.84 1.35-2.97 1.24-.21-.02-.39-.05-.6-.12-.06-.02-.12-.04-.21-.07l-.03-.02-.04-.04-.1-.03s-.04-.02-.06-.03c0 0-.1-.06-.17-.11l-.03-.02-.08-.06s-.08-.05-.11-.08c-.05-.03-.12-.1-.15-.14-.04-.05-.12-.13-.18-.17-.12-.07-.38-.61-.45-.8-.03-.08-.07-.2-.09-.28v-.05s0-.02-.02-.05t-.02-.08s-.01-.07-.02-.11c0-.04-.01-.08-.02-.11v-.05s0-.05 0-.05v-.04s-.03-.08-.05-.13c-.01-.02-.15-.04-.18-.02-.29.14-.6.39-.83.63-.02.02-.03.03-.05.04t-.1.07l-.06.05h-.03s-.05.06-.05.06l-.03.02c-.05.04-.11.09-.11.09-.03.04-.35.26-.49.35-.03.02-.07.07-.08.08-.03.03-.05.05-.1.07 0 0-.07.04-.07.04t-.05.04l-.06.03s-.02.03-.05.04c-.15.04-.29.27-.32.42 0 .05-.05.49-.08.77-.03.36-.08.84-.11 1.04-.02.14-.1.3-.17.41-.08.11-.17.29-.21.42-.04.11-.71.99-.82 1.1-.03.03-.06.07-.1.1-.04.04-.09.1-.11.11-.04.04-.07.07-.1.11l-.1.13v.03c-.1.07-.16.13-.24.22-.04.04-.07.08-.1.12-.04.05-.09.11-.13.14-.04.04-.09.08-.12.11s-.16.14-.17.15c-.03.02-.05.04-.07.06-.01.02-.05.05-.08.07-.02.02-.06.06-.06.06-.02.02-.08.08-.12.11l-.05.04-.08.05v.03s-.1.07-.1.07c-.02.02-.06.07-.06.07-.03.03-.05.05-.07.06-.11.15-.32.36-.48.46-.14.08-.39.3-.56.45l-.1.07-.03.02s-.05.04-.1.07l-.04.05c-.08.07-.23.2-.27.22-.07.04-.22.17-.33.26l-.06.04s-.05.03-.09.04c-.03 0-.06.03-.08.05-.08.06-.19.15-.27.18-.1.04-.26.14-.4.24-.05.02-.06.03-.1.06-.05.03-.09.06-.14.08-.09.05-.35.18-.35.18-.17.12-.52.29-.72.34-.21.05-.73.19-.85.26-.18.1-.75.18-.97.18-.02 0-.09 0-.11 0-.03 0-.15 0-.21 0h-.05q-.06.02-.12.02t-.08-.02l-.09.02c-.06.01-.08.02-.09.02h-.05s-.05-.01-.07 0c-.06 0-.08 0-.13 0-.52-.09-1.07-.18-1.42-.42-.05-.03-.16-.1-.2-.12-.07-.03-.16-.08-.22-.14-.12-.11-.26-.23-.4-.33-.11-.08-.27-.27-.33-.38-.07-.14-.21-.3-.31-.43-.12-.14-.46-.91-.46-1.05 0-.03 0-.07-.02-.12 0-.03-.01-.06-.01-.1v-.05q-.02-.05-.03-.1v-.13s-.02-.1-.02-.1v-.05c-.02-.09-.03-.19-.05-.27s-.03-.17-.03-.27c0-.27.02-.74.05-.95.03-.18.12-.89.05-.95-.03-.03-.1-.06-.16-.03-.28.14-.52.31-.77.51-.09.07-.27.18-.44.27-.03.03-.07.05-.1.07-.04.03-.07.04-.07.05-.02.02-.07.06-.09.07-.16.07-.55.35-.76.51-.26.19-.55.38-.85.51-.05.02-.12.07-.16.11-.05.05-.12.1-.19.12-.09.02-.3.14-.42.21-.26.16-.7.42-.82.46-.05.02-.29.15-.44.23h-.06s-.03.04-.03.04t-.06.04s-.21.11-.25.12c-.07.02-.15.06-.21.11-.05.04-.15.08-.22.1-.04.01-.15.08-.22.12-.03.03-.03.03-.04.04h-.03s-.05.03-.05.03h-.04c-.07.05-.16.08-.21.12-.07.04-.15.08-.23.12-.14.07-.37.18-.46.18 0 0-.26.06-.33.07h-.03s-.04.03-.05.03t-.06.01c-.05.02-.05.02-.15.03-.21.02-.41.07-.6.12-.07.02-.16.05-.22.06-.1.02-.19.04-.25.07-.09.03-.2.05-.28.07-.09.02-.29.05-.32.07-.09.05-1.09.23-1.19.23 0 0-1.01.19-1.04.2h-.03s-.05.02-.05.02h-.04s-.02.02-.08.02h-.03s-.03.02-.03.02c-.05.01-.19.05-.23.07-.13.06-.37.12-.54.16s-.3.06-.44.08c-.13.01-.21.03-.3.05h-.04s-.07.03-.07.03h-.09s-.07.04-.07.04c-.11.02-.3.02-.36-.02-.02-.01-.04-.04-.04-.07 0 0 .05-.06.08-.09.02-.04.32-.24.38-.25.04 0 .08-.03.11-.05.01 0 .14-.06.24-.1h.03s.02-.02.09-.05l.07-.04.06-.02s.08-.02.09-.03c.05-.02.1-.04.15-.06t.09-.03s0 0 .06-.03c.02 0 .02 0 .08-.02.02 0 .05-.02.06-.02.3-.12 1.24-.49 1.24-.49.04-.02.37-.15.54-.22.18-.07.41-.16.61-.22.43-.12.79-.29 1.17-.52.01 0 .04-.02.05-.02.03-.01.11-.05.16-.08.05-.02.1-.06.14-.07.03-.01.1-.03.16-.07t.06-.03c.05-.02.12-.04.16-.07.03-.01.06-.03.09-.05.04-.02.1-.04.12-.06.07-.07.35-.21.46-.25.11-.05.19-.09.29-.13.03-.01.08-.05.12-.07.03-.02.09-.05.11-.07.32-.16.71-.37.94-.51.13-.08.28-.17.43-.24.05-.02.29-.16.47-.27.02-.01.04-.02.07-.04 0 0 .1-.06.15-.08.04-.02.07-.04.12-.06.02-.01.06-.04.1-.06.02-.02.04-.02.06-.04l.08-.04.03-.02s.08-.05.12-.08t.06-.03l.06-.04s.04-.03.09-.05c.04-.02.12-.07.18-.11h.05s.04-.03.04-.03c.04-.02.08-.05.12-.08.15-.1.33-.22.44-.28.19-.1.58-.33.93-.54.05-.03.19-.12.21-.12.03-.01.14-.08.25-.15.08-.05.14-.09.25-.18l.08-.05.06-.03.05-.02s.12-.09.16-.13c.02-.02.08-.06.11-.07.04-.02.08-.05.12-.08l.05-.04s.07-.05.11-.07t.07-.05l.04-.03s.04-.02.05-.04c0 0 .04-.03.06-.04.13-.09.27-.19.4-.29.03-.03.09-.07.1-.07.04-.02.07-.05.11-.08.06-.05.12-.1.2-.16.12-.09.33-.24.39-.27.08-.04.31-.23.44-.34.26-.21.57-.46.77-.6.04-.03.1-.09.14-.13s.12-.12.2-.19l.02-.03s.05-.05.08-.07c0 0 .11-.11.17-.15.05-.05.09-.09.14-.14.02-.02.12-.12.16-.15.05-.04.14-.13.14-.13.01-.02.15-.16.15-.16.04 0 .2-.31.21-.38.05-.2-.29-.92-.39-1.1l-.05-.08q-.04-.06-.04-.07l-.04-.04s-.04-.07-.08-.12c-.03-.04-.06-.08-.07-.12-.05-.16-.17-.37-.25-.49-.19-.26-.36-.55-.5-.86-.08-.16-.17-.33-.26-.48-.06-.11-.22-.4-.23-.43-.01-.04-.02-.08-.04-.12l-.02-.04-.04-.07v-.04s-.02-.06-.02-.06l-.03-.06v-.04c-.06-.16-.15-.42-.19-.51-.06-.11-.1-.28-.14-.42 0-.03-.03-.08-.06-.12t-.02-.05l-.05-.09s-.04-.07-.07-.13c0 0-.05-.09-.07-.12t-.04-.07s-.04-.1-.05-.13v-.06s-.02-.05-.02-.05v-.04c-.04-.12.03-.44.06-.56 0-.03.03-.15.04-.25 0-.05.01-.06.05-.1 0-.01.01-.06 0-.07t0-.05c.04-.18.1-.45.14-.56.02-.05.13-.05.16-.04.07.02.1.08.13.14s.09.15.14.2.1.11.13.16c.01.02.06.06.12.11l.05.03c.19.21.42.43.68.63.03.03.05.06.06.07.02.02.05.04.07.07.03.04.07.1.09.11.03.02.05.05.07.07.02.03.04.05.09.08l.04.05s.01 0 .09.08c.11.1.62.61.42.75-.02.01-.27-.05-.36-.06-.15-.03-.34-.07-.49-.02-.27.08.31.93.36.98.03.04.05.07.07.12s.05.09.07.13l.03.06s.02.04.04.08l.05.09.02.04s.04.07.07.12c.01.02.05.07.07.11.02.03.05.09.08.14.02.05.05.1.08.14.48.8.84 1.47.84 2.59 0 .11-.04.44-.08.67 0 .05-.03.25-.03.25 0 .13-.02.24-.03.34v.06q-.02.12-.03.14v.05c-.02.06-.03.12-.04.15-.05.15-.17.52-.27.62-.17.17-.34.41-.49.61-.04.06-.08.12-.13.15s-.11.09-.15.13l-.07.06-.02.03-.07.09-.02.03-.04.02-.04.05c-.17.19-.38.35-.58.52-.06.05-.3.24-.3.24l-.05.03-.07.05-.03.02s-.1.1-.13.14c-.06.08-.13.23-.17.34-.03.07-.05.13-.06.21-.02.1-.04.21-.07.27-.06.14-.1.42-.07.58.01.09.01.2 0 .29v.17c0 .02.01.13.02.13s.07.28.07.31c0 .07.02.19.04.23.05.16.14.41.22.62.06.17.18.33.29.46.06.07.12.15.16.19.02.03.06.07.08.1.03.03.1.1.11.11.04.06.52.44.6.46.02 0 .1.05.14.07.06.03.13.07.19.09l.1.04h.05s.08.05.08.05l.04.02.06.02.1.02c.08.07.82.15 1.02.14.39-.02.78-.04 1.06-.09.06-.01.15-.04.2-.05.05-.02.14-.04.2-.06h.06s.06-.03.06-.03h.06s.05-.03.05-.03l.04-.02s.04-.01.12-.02l.07-.02.07-.03c.06-.03.13-.04.18-.05.05 0 .16-.05.23-.08.06-.03.16-.07.2-.07.07 0 1.07-.56 1.12-.61.13-.12.35-.24.51-.32.04-.02.07-.04.1-.07.04-.04.08-.07.13-.1.04-.02.11-.07.18-.13.02-.02.05-.04.07-.05.32-.2.7-.5.96-.76.06-.06.13-.11.2-.15.08-.04.15-.11.21-.17.03-.04.31-.26.47-.4.04-.03.28-.26.44-.41.07-.07.14-.13.21-.19.08-.06.17-.15.24-.23.06-.06.13-.13.2-.18s.14-.14.19-.21c.05-.06.12-.14.18-.2.07-.07.14-.15.21-.23.28-.32.65-.74.76-1.02m-25.83.83s-.04.45-.04.5c0 .03-.01.12-.02.21q0 .08 0 .09v.08s-.02.05-.02.05c-.03.32-.06.71-.11.95l-.02.06s-.01.14-.02.15t-.03.13s0 .05-.02.08t-.04.09s-.03.07-.03.11c0 .06-.02.14-.04.21-.02.06-.04.11-.06.16 0 .02-.02.04-.02.06v.05s-.05.04-.05.04l-.02.08v.03q-.03.05-.04.06s-.09.13-.09.15l-.12-.02-.03-.26s.01-.35.02-.43q0-.06 0-.12v-.45s0-.04 0-.04v-.05s0-.14 0-.15t0-.06s-.02-.02-.02-.04c.02-.31 0-.67-.03-.96 0-.07-.01-.13-.01-.22v-.05s0-.04 0-.04v-.04s-.01-.06-.01-.06v-.05s0-.04 0-.04v-.18s0-.1 0-.1v-.05s-.02-.05-.02-.05c-.07-.51-.12-.96-.17-1.52 0-.07-.02-.2-.02-.23s0-.05 0-.08l-.02-.06s-.02-.16-.02-.16l-.03-.14c0-.07-.02-.17-.02-.24 0-.06-.02-.18-.03-.23-.01-.06-.02-.13-.03-.16v-.04s-.01-.01-.01-.08v-.1c-.07-.39-.23-1.57-.23-1.61 0 0 0-.02 0-.07t-.01-.11s-.01-.05-.02-.14c-.02-.14-.04-.29-.07-.39-.01-.05-.08-.55-.11-.83-.03-.21-.08-.6-.09-.68 0-.02-.02-.16 0-.19 0 0 0-.04-.02-.12 0-.01-.04-.24-.05-.33-.07-.48-.12-.89-.23-1.45l-.02-.1s0 0-.01-.06l-.02-.12v-.06s0-.02-.01-.1v-.05s-.02-.05-.02-.05v-.03s0-.04 0-.04v-.06s-.02-.05-.02-.05v-.06s-.02-.09-.02-.09c-.01-.08-.03-.2-.03-.2v-.09s-.02-.12-.02-.12v-.08s-.02-.05-.02-.05v-.03s0-.05 0-.05c-.04-.2-.07-.47-.1-.71-.02-.19-.03-.26-.05-.4q0-.07 0-.08v-.04s0-.03 0-.03v-.03s0-.09 0-.09v-.1c-.04-.14-.11-.48-.11-.69s-.04-.48-.08-.67c-.03-.1-.05-.25-.05-.35 0-.11-.02-.23-.05-.33 0-.01 0-.08 0-.18 0 0-.04-.13-.04-.14-.02-.08-.04-.31-.05-.47 0-.06-.02-.18-.02-.24 0-.03-.01-.18-.01-.18t0-.05s-.01-.02-.02-.06c0-.04-.01-.11-.02-.17v-.1s-.02-.06-.02-.06v-.04c-.01-.06-.02-.15-.02-.18 0-.05-.02-.14-.02-.15 0-.03 0-.04-.01-.06t0-.07c-.01-.21-.04-.55-.08-.71-.04-.13-.05-.24-.05-.37 0-.16-.02-.31-.04-.43-.02-.14-.05-.28-.05-.36 0-.09-.02-.24-.05-.36l-.03-.08-.02-.06v-.05c-.02-.06-.04-.14-.04-.24 0-.01.03-.14.04-.22q.01-.07.03-.1v-.06c0-.06.02-.12.04-.16s.04-.2.04-.23c0-.1.04-.21.07-.31s.15-.37.24-.57c.02-.04.1-.07.15-.06.05 0 .12.17.13.21.04.16.07.28.12.38.06.14.23.48.24.5.04.05.1.15.11.21.03.1.07.2.12.28.04.07.09.15.11.23s.08.2.13.27c.1.16.16.36.2.54.04.14.14.37.22.54.09.19.19.4.25.61.02.07.2.56.2.56s.04.28.05.32c.01.08.02.21 0 .28v.03s-.06.03-.06.03c-.03.05-.22-.07-.24-.09-.11-.1-.25-.28-.31-.42-.05-.1-.19-.28-.31-.36-.22-.16-.14.46-.13.5.03.11.02.27 0 .35 0 .04.03.5.04.52 0 0 .06.46.07.59.02.19.05.39.08.56.02.11.04.27.06.36v.07s.02.11.02.11c0 .06.02.13.03.18 0 .02.03.13.04.19.06.34.09.6.14.92.04.28.07.53.13.82.02.09.02.14.03.23 0 .11.02.19.04.27v.05s.02.07.02.07c.01.12.02.16.02.19v.07s.02.05.02.05v.04s0 .04 0 .04v.05c.07.23.11.53.14.79.01.11.03.22.05.36 0 .06.04.26.04.26t.01.08c.01.05.03.11.03.17.01.1.05.34.08.53.02.14.05.29.06.45 0 .17.05.58.12.74.04.08.07.33.08.47.02.12.04.33.06.43.05.3.09.57.11.94 0 .11.05.36.06.48.02.1.03.2.04.27 0 .08.01.3.02.32t.01.1l.02.05v.03s.05.17.05.17c0 .13.01.28.05.41v.06s.01.06.01.06t.02.13l.02.14c.02.15.04.38.04.51 0 .1.02.35.04.5.01.12.02.37.03.61v.11s0 .08 0 .08v.09s0 .06 0 .07v.11.06s0 .2 0 .2v.07s0 .07 0 .07v.15s0 .05 0 .05v.1zm-3.52 3.86s-.1-.17-.1-.19c-.01-.03-.12-.15-.14-.16-.05-.03-.2-.1-.24-.06h-.04s-.05.01-.07.03c-.03.02-.07.05-.1.08t-.06.05l-.08.07c-.09.11-.27.33-.33.36-.31.15.13-.93.17-1 .1-.18.28-.4.42-.51.22-.17.4-.32.68-.2.19.08.34.41.36.62.02.18 0 .39-.04.56-.03.13-.06.27-.07.36-.02.14-.07.28-.12.42l-.04.06-.02.07v.03s-.03.04-.03.04v.03s-.02.04-.02.04c0 .02-.02.05-.02.07l-.02.05v.03s-.03.04-.03.04l-.04.05c-.03.06-.05.1-.07.16 0 .02-.04.08-.06.11-.03.05-.08.14-.08.14-.04.07-.06.1-.1.15-.03.04-.08.1-.1.12 0 0-.05.05-.11.1-.04.03-.1.08-.12.12-.05.08-.16.17-.24.23-.05.04-.4.37-.42.4-.05.09-.44.22-.59.21-.04 0 .07-.19.08-.2l.03-.02.04-.04.02-.03.03-.02.09-.12.06-.04.02-.04s.04-.04.06-.06t.05-.04c.07-.12.17-.21.27-.3.08-.07.2-.2.26-.29.02-.04.09-.1.14-.15.04-.04.09-.11.12-.15.02-.03.11-.14.14-.16.05-.04.11-.09.14-.14.14-.18.39-.63.32-.87m-6.12-5.09.05-.07s.04-.08.06-.12c.04-.08.08-.15.11-.25.08-.24-.02-.48-.09-.66-.01-.03-.04-.1-.06-.14t-.03-.09s-.02-.05-.02-.06c-.02-.04-.07-.13-.08-.14-.03-.03-.06-.08-.08-.13-.03-.07-.22-.27-.3-.34-.12-.12-.2-.18-.4-.23h-.06s-.09 0-.09 0t-.06 0s-.03.01-.09 0c0 0-.06.02-.07.03-.04.03-.08.06-.12.07-.07.02-.15.08-.2.14 0 0-.19.14-.2.15l-.18.17c-.05.07-.1.14-.17.2-.03.03-.11.13-.15.19l-.04.05s-.01 0-.07.07l-.03.07s-.11.19-.15.21c0 0-.1.19-.13.24-.09.18-.16.38-.19.58 0 .06.1.29.17.44.06.14.68.63.84.69.09.04.24.08.33.04.33-.11 1.49-.96 1.48-1.1m-3.16-19.32s-.02.19-.03.21c-.02.04-.04.2-.05.35-.01.09-.05.18-.08.24-.04.06-.09.15-.08.18.02.14-.05.4-.1.59-.04.17-.09.4-.09.58 0 .27.06.48.14.73.02.08.06.17.1.25 0 .02.06.12.06.12.02.03.06.07.07.1 0 .01.16.12.21.12.07 0 .09 0 .14-.02l.03-.02s.04-.03.04-.03c.03 0 .11-.28.13-.33.04-.14.1-.37.16-.45.12-.17.15.31.15.36-.02.16-.04.32-.09.48-.06.17-.17.51-.18.53l-.05.06v.07s-.04.08-.04.08-.05.07-.06.09c-.02.03-.04.08-.05.12s-.2.17-.26.21-.17.02-.25 0c-.2-.05-.41-.37-.5-.54-.06-.14-.13-.3-.18-.43-.02-.06-.04-.11-.05-.16l-.03-.08v-.04s-.01-.04-.01-.04c0-.02 0-.04 0-.06-.05-.11.11-1.09.19-1.54v-.04s.03-.04.03-.04l.03-.07s0 0 .03-.08l.02-.14c.02-.12.05-.24.09-.37.06-.19.2-.6.2-.6.11-.19.19-.33.36-.4m-.23 11.08s.15-.02.21 0c.14.03.52.3.68.42.1.07.2.15.28.19.05.02.37.21.37.21s.15-.05.19-.06c.09-.03.32-.48.38-.61l.09-.12s.06-.07.06-.07c.02-.01.04-.04.07-.07.07-.1.17-.17.27-.24.02-.02.17-.04.22 0 0 0 .09.06.12.08 0 0 .06.05.09.08l.08.06h.03s.06.07.1.09c.14.11.28.24.4.34l.08.08s.09.06.09.08t.04.02l.08.06h.03s.04.06.04.06c.14.13.23.25.29.46.01.05 0 .11-.02.14-.03.05-.06.16-.07.21 0 0-.17.23-.19.25-.03.04-.07.08-.1.12l-.03.05s-.06.05-.06.05c-.1.23-.24.43-.47.49-.03 0-.68-.45-.74-.51-.16-.15-.66-.57-.79-.57-.15 0-.44.44-.47.57-.03.11-.3.56-.38.63-.04.04-.12.06-.18.08-.14.04-1.55-1.02-1.57-1.05s-.04-.1-.07-.18c-.02-.05.16-.37.19-.42.07-.11.13-.24.18-.36.02-.06.06-.13.11-.19 0 0 0 0 .04-.05.03-.03.06-.07.06-.07.01-.03.11-.14.15-.18h.03s.04-.06.04-.06l.06-.03zm.41 14.22s-.05-.01-.09-.05c-.06-.03-.17-.02-.21 0-.1.02-.16.08-.25.15-.07.06-.14.12-.18.18-.03.06-.16.23-.19.25-.26.13.19-1.12.28-1.19t.05-.07l.06-.09c.05-.06.11-.13.17-.18.14-.14.3-.29.56-.22.07.02.14.06.18.09.04.04.11.09.15.12.16.1.18.47.17.68 0 .08-.02.14-.04.21v.07s-.03.1-.03.1c0 .01-.01.02-.05.04h.03s-.09.36-.1.4v.06s-.02.04-.02.04c0 .01-.02.04-.03.06s-.04.1-.06.15-.17.3-.28.5c-.05.08-.1.17-.14.26 0 .02-.05.07-.07.1l-.03.05s-.04.03-.04.04c-.02.1-1.21 1.1-1.21 1.1-.06.01-.18.07-.23.11-.02.01-.21.12-.22.11h-.1s-.03-.03-.04-.05c0-.04.15-.23.18-.25.07-.05.15-.15.22-.23.06-.07.15-.18.23-.26.03-.04.1-.11.1-.11l.03-.02.09-.1c.12-.15.29-.33.44-.48l.11-.11t.07-.05s.03-.03.05-.05c.03-.04.07-.08.12-.14l.02-.03.02-.03.03-.02.05-.07.03-.04v-.04s.05-.06.06-.07c.05-.05.1-.1.13-.18.05-.11.18-.39.16-.45-.04-.08-.12-.26-.18-.28m2.74-20.49s.03.04.04.05c.01 0 .04.07.04.08.02.12 0 .23-.02.34-.02.1-.04.19-.05.28 0 .05-.07.26-.09.26l-.02.03-.06.03-.03.02s-.08.05-.14.08c-.09.05-.17.11-.26.17-.08.05-.23.11-.33.16l-.06.03s-.05.03-.09.05t-.07.04s-.06.04-.11.05c-.09.03-.24.09-.3.16t-.05.03s-.1.03-.11.04t-.08.03s-.07.03-.1.05c-.1.06-.26.13-.36.16-.08.03-.18.06-.27.12-.2.11-.4.22-.62.31-.18.08-.72.33-.73.34-.03.03-1.26.62-1.31.63-.02 0-.08-.05-.1-.07v.04s.05.04.05.04c.02.02-.09.06-.1.06-.05.02-.07.03-.1.05 0 0-.15.07-.24.11l-.08.02-.06.02-.05.04s-.14.06-.21.09c-.06.03-.16.06-.16.07-.04.05-.13.1-.19.12-.12.04-.3.11-.41.19-.1.07-.26.15-.4.2-.08.03-.35.14-.36.15-.03.06-.69.37-.78.41-.1.03-.27.12-.4.18-.06.03-.16.08-.18.09-.08.02-.14.06-.21.11h-.04s-.09.06-.09.06l-.06.04s-.04.01-.08.05c0 0-.07.05-.08.05-.07.02-.22.08-.24.1-.01.01-.18.1-.2.1l-.05.04h-.04s-.06.05-.06.05l-.04.02c-.06.03-.12.06-.18.08s-.16.07-.23.11l-.07.04-.11.02s-.11.08-.14.11c-.05.04-.15.09-.2.11-.08.03-.16.06-.2.09-.05.04-.18.11-.21.06l.02.04-.11.07-.12.07s-.1.06-.22.12c-.04.02-.05.03-.08.06 0 0-.05.03-.11.06-.05.02-.11.05-.12.06-.03.03-.06.05-.11.07-.1.04-.3.24-.38.33l-.04.06-.02.04-.05.03-.07.02s.07.29.1.31c0 0 .21.21.24.26.1.11.19.21.27.32.11.15.08.63-.04.75s-.67-.16-.74-.28c-.01-.02-.04-.06-.06-.07-.02-.03-.04-.04-.06-.07-.04-.06-.07-.13-.1-.2-.05-.17-.07-.36-.07-.55 0-.23.05-.67.15-.93.05-.13.1-.26.2-.4t.03-.05l.05-.07.02-.04s.04-.05.06-.07.05-.06.07-.08c.02-.03.26-.25.29-.27.13-.07.31-.18.42-.27q.06 0 .14-.07c.06-.04.13-.09.2-.13.03-.02.08-.05.09-.05t.12-.06h.04s.08-.06.08-.06.04-.03.05-.03c.15-.06.28-.14.42-.22.03-.02.06-.04.08-.05.06-.03.09-.04.15-.07h.03s.11-.07.11-.07h.08c.06-.11.56-.32.78-.4 0 0 .06-.05.08-.06.02-.02.05-.03.08-.04s.12-.06.2-.11c.15-.08.33-.16.48-.22 0 0 .06-.03.07-.04.04-.02.06-.03.1-.04l.06-.04.03-.02c.06-.02.16-.07.17-.07.09-.04.37-.18.4-.2 0 0 .14-.07.21-.1.08-.04.24-.12.25-.12.06-.04.14-.08.2-.1.05-.02.14-.07.2-.1.05-.03.14-.07.21-.1l.05-.02.04-.02.11-.05.06-.03c.15-.08.44-.22.5-.24.08-.03.12-.05.19-.08.07-.04.19-.1.21-.1.06-.02.17-.09.24-.13h.05s.04-.03.04-.03.04-.02.05-.02t.06-.03c.26-.12.81-.39.91-.42.32-.14.63-.28.93-.43.56-.28 1.13-.56 1.77-.83t.05-.03h.04q.06-.04.09-.05l.1-.06s.08-.03.11-.05c.16-.05.33-.14.48-.23.16-.08.29-.14.45-.21.02-.01.09-.05.14-.08l.05-.04c.07-.04.22-.11.27-.1m-13.07 14.46c.07-.04-.06.12-.1.15-.01.02-.18.17-.19.17 0 0-.16.17-.18.19-.05.07-.13.19-.19.23-.05.04-.13.11-.17.17s-.12.15-.17.2c-.06.05-.12.13-.16.2-.05.07-.13.19-.17.23-.05.05-.11.13-.14.19-.03.07-.1.15-.15.21s-.1.14-.15.21c-.04.07-.1.15-.11.16-.02.03-.1.14-.14.21l-.05.06v.04l-.06.03s-.01.05-.03.07c-.06.08-.11.17-.11.3 0 .04.04.08.07.11l.05.04s.04.03.04.03c0 .02.14.02.14.02h.11c.07 0 .13.02.16.03h.05s.06.01.06.01h.09c.26.03.64.06.71.05.21-.02.5-.03.65 0 .19.02.47 0 .63-.03.19-.03.52-.08.77-.09.14 0 .31-.02.36-.04.07-.02.21-.04.31-.05.08 0 .18-.05.27-.08h.03s.07-.03.07-.03l.05-.02h.04c.12-.04.37-.11.42-.13t.06-.01s.07-.02.13-.04l.12-.03h.04c.08-.03.22-.08.31-.11.44-.13.89-.36 1.32-.57.42-.21.8-.45 1.15-.73.08-.06.16-.12.25-.17.08-.04.17-.13.24-.19.02-.02.08-.07.13-.1t.04-.05s.05-.06.06-.08c.02-.01.08-.08.12-.11l.04-.05s.05-.09.05-.09c.05 0-.04-.26-.04-.26-.04-.1-.33-.39-.53-.6-.06-.06-.22-.19-.35-.29 0-.01-.01-.01-.05-.04-.02-.02-.08-.07-.1-.08-.07-.04-.16-.09-.19-.13-.08-.09-.69-.42-.81-.45h-.04s-.03-.02-.03-.02l-.03-.02h-.07s-.1-.05-.1-.05c-.06-.03-.18-.07-.23-.08l-.09-.02-.05-.02h-.1s-.04-.03-.04-.03h-.03c-.08-.02-.36-.05-.36-.05-.08 0-.21 0-.28 0s-.25 0-.31 0c-.07 0-.27.04-.33.07s-.17.06-.26.08c-.35.06-.71.25-1 .4-.1.05-.38.21-.39.22-.09.08-.38.31-.38.31-.05.04-.12.08-.14.11v.03s-.03.03-.06.04-.09.05-.11.07c-.11.13-.23.22-.37.29m-2-13.59s.03.41.03.44c0 0-.13.42-.15.44t-.03.09s-.02.08-.03.12c-.02.06-.04.13-.07.2-.03.11-.18.83-.18.83v.22.2c0 .13.03.33.05.39.04.08.08.21.1.29.03.09.07.18.12.26.08.15.32.36.5.4.03 0 .14-.02.16-.03.01 0 .07-.03.08-.04.04-.03.05-.03.05-.04.05-.02.18-.3.2-.37.02-.08.11-.45.21-.41.12.04-.07.7-.09.76-.02.07-.03.11-.05.16-.02.06-.06.17-.05.18t-.03.08s-.01.13-.01.13v.04c-.04.08-.05.12-.05.13 0 0-.07.09-.07.1-.02.02-.04.06-.07.1-.02.04-.05.07-.08.11-.03.03-.1.11-.1.11-.01.04-.19.09-.24.1-.02 0-.15-.02-.28-.04l-.21-.18s-.19-.22-.2-.22c-.06 0-.28-.64-.29-.67-.03-.12-.05-.33-.08-.54q0-.06-.01-.12v-.07s0-.08 0-.17v-.04l.02-.14v-.05s.02-.05.02-.05l.02-.1v-.08s.01-.05.01-.05l.03-.04v-.15s.01-.05.01-.05l.02-.06s.08-.31.12-.49c.04-.17.1-.42.11-.49.02-.14.06-.37.12-.52.02-.06.05-.12.07-.18 0-.02.05-.15.08-.22s.14-.33.22-.32m-.65 21.58v-.05s-.01-.08-.01-.08-.03-.09-.04-.13c-.03-.07-.06-.12-.11-.17-.11-.12-.2-.19-.42-.17-.12.01-.3.18-.37.26-.03.04-.08.1-.1.14-.02.05-.07.12-.1.16-.28.37-.01-.63.02-.7.07-.13.12-.27.17-.4 0 0 .08-.13.1-.17.02-.03.05-.06.08-.09s.05-.05.07-.09c.01-.03.28-.21.35-.23s.23-.06.29-.03l.08.04h.04s.03.04.05.06.04.05.07.05c0 0 .11.16.13.19v.03s.03.06.03.06c.01.03.04.08.05.11.11.22.04.77-.02 1.05-.03.13-.44 1.06-.49 1.08v.04s-.04.02-.04.02l-.08.1s-.05.06-.07.07c-.02.02-.09.08-.13.12l-.07.08s-.04.04-.06.06c-.03.02-.09.07-.11.1 0 .01-.12.11-.13.12-.1.07-.22.16-.3.26-.13.17-1.03.8-1.24.71-.03-.01.09-.18.13-.22.05-.05.11-.11.15-.16.02-.03.04-.04.07-.06.01 0 .06-.05.1-.09.02-.02.06-.06.1-.09l.02-.04.03-.02.02-.03c.1-.1.22-.22.32-.3.11-.08.23-.18.33-.28l.07-.09.15-.12s.02-.02.05-.04c.02-.01.03-.02.05-.07t.15-.14l.07-.04.03-.06c.23-.23.39-.47.54-.75m-5.64-26.65s0 .36-.01.4c-.06.19-.12.34-.18.47-.06.1-.15.47-.18.64-.02.08-.02.19-.02.26v.07l.02.14v.08s.02.11.02.12c0 .26.33.77.61.75.05 0 .18-.14.28-.23.02-.02.07-.14.09-.19s.09-.2.16-.15c.04.03.04.26.02.32-.12.44-.22.78-.44 1.14-.05.08-.2.19-.3.22-.09.02-.16.04-.24 0-.11-.06-.2-.15-.27-.26-.03-.05-.08-.11-.12-.15-.03-.03-.07-.07-.07-.08-.01-.03-.04-.09-.06-.09l-.04-.12q-.01-.08-.03-.11s-.05-.26-.06-.29c0-.13 0-.45 0-.62 0-.06.05-.34.08-.49.01-.06.04-.19.06-.24.01-.03.06-.16.06-.21 0 0 .22-.66.26-.72.05-.09.11-.25.16-.36.08-.19.08-.2.21-.27m14.01 1.12s-.12.04-.14.04c-.08.01-.21.04-.26.06s-.27.09-.39.13c-.21.07-.57.2-.7.28-.07.04-.47.2-.74.3-.16.06-.25.09-.4.14-.1.03-.25.1-.39.17l-.1.04-.07.04-.04.02c-.07.03-.13.05-.2.08l-.07.03h-.07s-.05.02-.05.02l-.08.04s-.08.03-.1.04c0 0-.05.02-.06.02-.05.01-.08.02-.12.04l-.05.03h-.04s-.04-.02-.04 0-.06.09-.1.1c-.26.08-.53.15-.68.23-.22.1-.46.21-.67.26t-.09.04h-.06s-.04.02-.04.02l-.06.03s-.08.03-.08.04c-.08.02-.18.06-.31.11l-.06.04s-.06.03-.1.04l-.06.02s-.1.05-.13 0v.05s-.07.03-.11.05l-.07.03-.07.02s-.17.07-.29.11c-.06.02-.16.06-.2.07-.06.02-.12.04-.19.07l-.02.03s-.13.05-.16.06l-.08.04s-.05.02-.07.02c-.08.02-.25.09-.34.13-.07.03-.36.14-.64.24-.24.09-.51.2-.75.29-.12.05-.25.11-.35.19 0 0-.05.01-.07.02-.04 0-.07.02-.1.03q-.06.03-.1 0v.04s-.03.02-.03.02c-.07.04-.15.06-.21.08 0 0-.08.03-.12.05-.05.02-.12.05-.14.08s-.13.07-.15.03v.04s-.08.01-.08.01c-.02 0-.06.02-.09.04-.04.02-.17.08-.2.08-.08.02-.29.1-.4.15-.09.04-.26.12-.36.18-.11.07-.29.18-.38.2-.14.04-.29.1-.4.15l-.08.04h-.05s-.07.07-.07.07c-.05.02-.13.05-.13.05l-.08.05c-.28.13-.68.31-.89.37l-.09.05-.06.04c-.08.04-.15.07-.23.1l-.05.02s-.03.01-.1.06l-.07.02s-.03.04-.03.05c-.03.02-.06.03-.1.04l-.07.05h-.04s-.04.02-.04.02l-.07.04c-.07.03-.17.07-.24.09q-.06.01-.11.04s-.06.03-.1.05c-.03.01-.13.06-.14.07t-.06.03c-.12.04-.47.22-.74.37-.12.07-.25.14-.35.2-.04.03-.14.1-.16.1-.04.01-.21.04-.2-.06v-.05s0-.08 0-.1c.01-.05.03-.13.05-.17.04-.08.1-.22.11-.32.02-.09.04-.13.07-.19.03-.05.04-.08.07-.14.01-.04.05-.13.07-.15 0 0 .08-.09.09-.11h.03s.08-.07.08-.07t.05-.03s.01 0 .05-.04c0 0 .07-.04.12-.06t.07-.05h.04s.14-.09.14-.09l.05-.03q.05-.03.06-.03s.07-.04.12-.06c.06-.02.1-.04.12-.07.01-.01.22-.11.27-.13.1-.04.19-.08.27-.13 0 0 .11-.04.16-.06.02-.01.09-.04.13-.05.04-.02.09-.05.13-.07l.08-.02s.01 0 .05-.04c.11-.09.38-.19.52-.24t.09-.06l.08-.02.06-.03c.08-.03.23-.09.28-.13.15-.09.37-.18.51-.23.06-.02.11-.04.16-.07s.07-.04.12-.06c.07-.02.2-.07.23-.09.34-.17.69-.34 1.05-.5.33-.14 1.02-.43 1.1-.46.27-.09.78-.33 1.11-.49.17-.08.43-.2.57-.24.19-.05.43-.14.61-.22.15-.07.56-.23.59-.23 0 0 .04 0 .05-.01t.05-.03s.09-.05.14-.07h.12c0-.03.01-.03.09-.06.07-.03.27-.11.29-.12 0 0 .19-.07.27-.1s.2-.08.28-.12h.04s.07-.04.07-.04l.05-.02h.05s.05-.03.06-.04c.05-.03.2-.09.3-.12.06-.02.19-.07.28-.11.04-.02.13-.05.16-.06.04 0 .09-.02.16-.05.08-.03.21-.08.28-.12.02-.01.11-.05.14-.06h.05s.03-.02.03-.02l.07-.03c.07-.03.18-.08.18-.08.03-.02.09-.05.11-.05l.04-.02.05-.02c.09-.02.1-.03.1-.03.02 0 .07-.03.09-.04l.05-.02h.04s.04-.02.04-.02c.13-.05.68-.27 1.09-.43.17-.07.47-.18.57-.22.04-.01.11-.04.16-.06l.03-.02h.05q.05-.03.07-.04l.07-.04h.03s.11-.05.11-.05l.05-.03c.18-.05.32-.11.47-.19.14-.08.39-.16.51-.2.08-.02.13-.04.16-.06 0 0 .13-.04.16-.04.04-.01.11-.03.14-.05.04-.02.1-.04.15-.05q.09-.02.11-.03s.07-.03.11.01t.04-.05c.1-.02.19.03.21.15 0 .07-.04.38-.09.42-.04.04-.11.2-.12.3-.01.07-.06.2-.11.25t-.04.05l-.04.07-.08.06s-.05.02-.05.04m-13.97 11.28c-.11-.02-1.11.32-1.23.37-.06.03-.16.07-.24.1-.09.03-.15.08-.23.14q-.06.03-.06.03s-.05.02-.06.03t-.09.06q-.06.03-.07.04s-.01 0-.06.02l-.06.03c-.5.33-1.27.87-1.45 1.09 0 0-.06.05-.09.08s-.09.08-.14.14v.04s-.05.01-.05.01v.04s-.08.06-.08.06c-.01.01-.03.04-.03.04t-.1.05s-.07.1-.12.17c-.09.11-.31.35-.32.35-.11.07-.24.28-.3.39l-.02.03-.06.04s-.06.06-.08.09l-.06.09s-.03.04-.03.05l-.04.05c-.04.07-.08.11-.13.18-.04.04-.11.12-.12.16-.02.05-.08.14-.13.17-.03.02-.11.14-.12.18-.02.04-.11.15-.15.19-.02.03-.11.24-.09.27.04.07.06.1.1.12.26.13 1.38.12 1.93.11.05 0 .21-.02.23-.03t.04 0c.05.01.2 0 .26 0l.08-.02h.16c.1-.01.19-.03.28-.04.1-.02.19-.03.31-.04l.13-.02h.03s.08-.03.08-.03c.07-.01.17-.03.19-.04l.09-.03s.01-.01.04-.01c.13.02.64-.12.81-.18.22-.07.57-.18.8-.24l.06-.03.09-.02h.03s.05-.02.05-.02h.03s.1-.04.1-.04c.11-.03.27-.08.4-.11.04-.01.12-.04.18-.06t.07-.02h.04s.06-.05.06-.05c.15-.05.31-.11.4-.14l.06-.03.06-.02.06-.04c.09-.05.14-.07.22-.1.05-.02.13-.07.19-.11.02-.01.17-.09.23-.12.14-.07.35-.17.42-.23.1-.08.27-.19.41-.24.07-.02.19-.08.23-.14 0 0 .14-.09.19-.12.14-.08.23-.16.32-.26.1-.12.25-.29.23-.39-.01-.05-.1-.21-.16-.27l-.02-.03-.04-.05s-.02-.02-.04-.06c-.08-.11-.17-.24-.31-.33-.05-.04-.1-.09-.15-.15-.03 0-.05-.01-.07-.03-.03-.03-.06-.06-.09-.1-.08-.1-.6-.44-.75-.49-.17-.05-.39-.16-.55-.25l-.06-.02s-.03-.02-.06-.02c0 0-.12-.05-.17-.07h-.06c-.06-.04-.16-.08-.24-.09-.11-.01-.26-.04-.36-.07-.04 0-.22 0-.31 0-.07 0-.14 0-.2 0-.03 0-.13.02-.16.01-.02 0-.05-.01-.06 0m-7.29-12.27c.04-.11.28-.17.17.16 0 0-.03.14-.05.21v.04q-.04.1-.04.12l-.03.11c-.02.07-.04.15-.05.18-.03.08-.08.25-.09.27-.04.15-.1.36-.12.44-.09.34-.18.74-.27 1.12 0 .04-.06.38-.08.54t0 .06v.07s-.02.08-.02.08c0 .1-.02.18-.05.3l-.03-.02c.03.17.03.39 0 .5v.44c0 .33.06.59.17.95.18.61.37 1.08 1 1.35 0 0 .06-.01.1-.02s.08-.03.09-.03c.04-.03.04-.03.04-.03.03-.01.19-.34.21-.4.03-.09.06-.18.08-.26.01-.06.06-.21.07-.25.18-.32.23.04.22.22 0 .07-.04.27-.07.4 0 0-.02.07-.03.11s-.04.13-.04.14c-.05.39-.19.86-.38 1.16-.25.4-.32.42-.83.29-.04 0-.14-.08-.19-.12-.04-.03-.06-.04-.1-.09-.03-.03-.08-.08-.1-.09-.05-.01-.4-.55-.42-.61-.14-.33-.31-.76-.32-1.11 0 0-.04-.19-.06-.29-.02-.08-.02-.19-.02-.29 0-.06 0-.4 0-.4-.01-.14-.03-.31 0-.42.04-.2.08-.51.1-.76.01-.17.05-.47.13-.67v-.04s.02-.04.02-.04v-.04s.02-.04.03-.09q0-.06.02-.13c.03-.13.07-.29.08-.34.05-.18.14-.5.16-.59.1-.39.18-.68.31-1.04.02-.05.06-.18.09-.29t.02-.07s.03-.09.06-.13l.03-.07s.04-.13.05-.13c0 0 .01-.05.02-.07 0 0 .02-.07.02-.07.02-.04.05-.13.1-.21.01-.02.03-.04.03-.05m-4.31 28.66c-.02-.16 0-.26.03-.47 0-.06.04-.15.07-.22l.03-.07.03-.05v-.05c.02-.15 1.94-.9 2.02-.92.14-.03.32-.14.45-.2.11-.06.19-.08.3-.1 0 0 .21-.08.26-.1.09-.04.18-.07.25-.1l.06-.02.08-.04.03-.02s.05-.03.06-.03c.12-.04.43-.15.51-.21.03-.02.34-.13.45-.16.17-.05.35-.11.49-.18.08-.04.17-.07.25-.1s.19-.07.26-.1c.11-.05.36-.15.54-.23.15-.06.49-.2.51-.2.18-.05.39-.13.56-.22.15-.08.93-.4 1.02-.33 0 0 .04.06.04.08t0 .07s0 .08 0 .08v.03s-.02.04-.02.04t-.02.07c-.01.06-.03.13-.06.2-.01.03-.01.05-.02.08 0 .03-.01.06-.02.09-.01.04-.06.16-.08.17l-.04.05-.08.05-.06.03h-.04s-.07.03-.07.03c-.07.02-.16.06-.16.06-.08.05-.36.16-.52.22l-.03.02-.07.03-.1.04h-.04s-.08.05-.12.07-.11.05-.14.06c-.13.02-.36.12-.52.19-.04.01-.06.02-.1.05-.04.02-.08.04-.11.05l-.05.02s-.04.02-.06.02c-.05.01-.11.03-.14.05-.02.01-.06.03-.09.04-.07.02-.09.04-.14.06l-.07.02-.05.03s-.05.02-.07.03t-.1.05q-.07.01-.08.02c-.05.02-.09.03-.14.05h-.04s-.04.03-.04.03l-.09.03s-.04.01-.06.02l-.05.04c-.17.04-.41.09-.59.18h-.03s-.03.01-.03.01h-.05s-.03.03-.03.03l-.05.02h-.03q-.08.05-.11.05s-.09.04-.12.05c-.15.08-.32.15-.48.21-.15.06-.53.19-.53.19-.1.03-.22.07-.27.1-.01 0-.17.05-.18.05t-.05.03l-.07.03c-.14.05-.27.1-.4.18-.14.08-.4.18-.57.22-.15.04-.36.12-.51.2l-.05.04c-.06.02-.13.06-.14.06-.05.02-.17.07-.18.08-.03.03-.12.04-.14 0m-.21-17.95c-.12-.32.14-1.69.25-1.99.05-.12.09-.29.1-.4 0-.08.04-.17.08-.28t.02-.05v-.03s.02-.04.02-.08c.02-.14.18-.7.31-.72.08-.02.05.18.04.24-.02.11-.04.2-.05.32-.03.2-.07.47-.14.64-.1.24-.15.57-.2.95-.07.6.12 1.5.71 1.62l.15-.05.08-.07s.08-.21.09-.25c.03-.12.08-.24.13-.33.19-.3.16.32.16.38s-.03.13-.03.14c0 0-.04.07-.04.11t-.02.08v.04s-.02.03-.02.03c-.01.05-.02.07-.02.07t-.02.07c-.04.2-.12.41-.21.62-.19.42-.69.31-.94.02-.11-.13-.22-.29-.28-.47l-.02-.06v-.03s-.02-.05-.02-.05v-.04s-.02-.07-.04-.08c-.02-.03-.04-.15-.04-.18t-.01-.05s-.04-.1-.03-.11m-2.76 7.47s.04.1.06.13c.02.04.05.11.08.14 0 0 .14.21.18.28.09.15.46.38.65.28.16-.08.27-.32.3-.51.03-.18.12-.69.25-.73.2-.08.1.48.08.58-.06.31-.11.57-.18.7h.05s0 .04 0 .04c0 .06 0 .06-.02.1t-.02.07s-.01.12-.01.12c-.02.12-.05.27-.09.37-.03.08-.08.18-.14.26v.05s-.06.08-.06.08l-.04.04v.05s-.05.01-.05.01l-.02.04c-.02.05-.25.18-.32.19-.32.05-.75-.28-.92-.51-.08-.11-.22-.31-.23-.43 0-.02-.17-.43-.17-.43-.06-.06-.1-.55-.1-.56t-.01-.04s-.02-.03-.03-.08v-.08s0-.05 0-.05c-.03-.13-.05-.35-.05-.46 0-.12 0-.19.02-.3 0-.04 0-.09 0-.13 0 0 0-.23 0-.32l.02-.79c0-.05.07-.39.12-.6.03-.13.04-.24.06-.33.01-.1.05-.23.08-.29.07-.18.16-.47.2-.71.02-.11.11-.45.17-.66 0-.02.03-.08.04-.1.01-.03.02-.05.03-.1v-.08s.04-.06.04-.06c.01-.05.02-.07.01-.11 0-.07.04-.27.07-.33.02-.04.05-.13.08-.25.02-.1.21-.58.28-.23.02.08-.05.52-.09.76-.03.17-.17.68-.27 1.04s-.2.74-.26 1.2v.04s-.01.1-.02.1t-.01.04s.01.07.01.09v.2s0 .15 0 .2c-.02.2-.05.65 0 .74v.06s0 .03 0 .03v.04c0 .06 0 .06.02.11v.04s.02.09.02.09v.05s.02.07.02.07c0 .04.02.11.04.17.02.08.04.16.04.17.02.07.03.11.05.18.01.06.05.2.05.2.01.03.04.1.04.13m.8-17.46c.07-.01.28-.06.36 0h.04s.09.05.14.07c.05.03.13.1.17.14.05.05.1.1.15.15.02.02.04.05.06.08s.06.09.08.11c.13.16.34.8.3.99-.03.13-.05.23-.09.31-.02.04-.06.12-.06.12v.04s-.05.05-.05.05t-.04.04s-.1-.03-.11-.04t-.04-.04l-.03-.02-.02-.04v-.05c-.07-.08-.1-.13-.19-.19 0 0-.15-.16-.18-.2-.06-.07-.14-.17-.2-.21-.1-.08-.22-.13-.35-.18-.01 0-.26.03-.26.05t-.05.03s-.06.07-.06.08c-.04.04-.08.1-.09.15-.05.35-.05.6-.05.9v.08q0 .15 0 .21l.02.1v.08s-.01.01 0 .07t-.02.1s0 .08 0 .1c.04.55-.02 1.23-.07 1.79-.02.24-.08.61-.14.78-.02.06-.02.26-.02.34 0 .12 0 .42-.05.51-.01.02-.02.05-.02.05q0 .07-.01.09s-.01.07-.03.16c-.02.1-.04.21-.08.34-.02.06-.04.14-.07.23 0 0-.02.06-.03.09t-.02.08q-.01.06-.03.12l-.04.08v.05s-.02.03-.02.03v.03c-.04.09-.13.25-.2.34-.04.04-.07.1-.1.16-.02.05-.1.18-.1.18-.18.21-.34.38-.57.54-.19.14-.67.49-.68.5-.1.1-.19.17-.3.24-.05.03-.13.08-.17.11-.07.06-.13.11-.2.13-.06.02-.12.04-.18.05 0 0-.11.03-.18.05l-.03.02h-.04s-.05.03-.05.03h-.04s-.03.02-.08.04c-.06.02-.2.05-.21-.02-.01-.06.53-.57.58-.61.17-.13.38-.35.56-.52.08-.08.2-.2.27-.25.02-.01.08-.07.08-.07.03-.04.05-.06.13-.15.03-.03.09-.08.09-.08.05-.03.58-.54.6-.59 0-.03.14-.19.17-.22.07-.06.13-.15.18-.22.05-.08.11-.18.18-.26s.1-.15.17-.28l.03-.06c.04-.08.06-.2.07-.3 0-.12 0-.2-.04-.33-.03-.1-.09-.22-.14-.33l-.02-.06-.02-.04s-.03-.05-.02-.06l.03-.08s-.05.03-.05.03-.05-.1-.06-.12c-.01-.04-.02-.05-.05-.09-.04-.05-.08-.13-.1-.19 0-.04-.06-.13-.09-.21-.01-.03-.03-.06-.05-.08-.03-.03-.06-.09-.07-.12-.04-.07-.07-.12-.12-.2t-.09-.12s-.04-.06-.06-.09t-.04-.07l-.07-.07s-.05-.07-.08-.12c-.16-.24-.9-1.14-1.16-1.1-.05.01-.08.02-.12.06s-.08.08-.16.1c-.09.02-.58-.25-.77-.36t-.05-.04v-.03s-.07 0-.07 0l-.06-.04s-.03-.03-.07-.05q-.04-.06-.05-.06c-.09-.08-.16-.18-.22-.29-.07-.14.03-.63.07-.82.03-.11.06-.24.09-.28.01-.02.12-.19.12-.21 0-.04.24-.02.27 0 .06.02.22.09.37.14l.06.04c.06.03.15.08.17.08.11.03.63.48.82.65.25.22.64.58.77.77t.05.06s.02.03.04.05c.02.04.05.07.07.11l.02.03h.03s.04.07.04.07t.06.08l.04.04.08.13v.04s.1.08.1.08l.03.06.05.08s.02.04.03.06c.11.16.22.35.31.53.03.06.27.57.39.41.03-.03.06-.15.06-.19v-.15s0-.04 0-.06t0-.11c0-.07 0-.25 0-.32 0-.11-.02-.24 0-.33 0-.04 0-.11 0-.15v-.08c-.01-.12-.01-.17 0-.29 0-.1.01-.29.02-.34v-.16s0-.14 0-.14c.01-.12.04-.44.06-.52.04-.17.12-.48.12-.55 0-.02.02-.06.04-.08 0 0 .03-.07.04-.11.01-.03.06-.17.09-.27.03-.07.07-.17.11-.23s.09-.16.11-.22c.01-.05.34-.34.38-.33m-9.07 12.21c-.05.02-.03-.11-.03-.11-.01-.07 0-.22.03-.29v-.05s.01-.07.01-.07v-.08c.03-.07.04-.14.05-.21.02-.11.05-.28.07-.38.04-.22.07-.33.13-.53.03-.11.04-.16.06-.26v-.04s.02-.05.02-.05l.02-.08s.02-.11.04-.12h.05s-.04-.01-.04-.01.07-.3.07-.32c.04-.12.09-.3.12-.36.09-.19.17-.46.22-.67.06-.27.44-1.11.55-1.08.19.04-.35 1.33-.39 1.4-.01.03-.09.31-.14.51l-.04.08.02.05s-.03.14-.04.14 0 .08-.01.1v.05s-.02.04-.02.04v.04s-.03.07-.03.07v.04s-.06.13-.06.13l-.02.05s-.02.07-.03.08c-.04.03-.04.03-.02.06.01.01.01.11 0 .14l-.02.02s.01.03 0 .06c-.06.17-.09.48-.1.61-.03.3-.02.63 0 .86.02.29.05.64.07.82v.1s.02.04.02.04v.05c0 .06.03.16.04.2s.06.2.05.21c0 0-.02.03-.02.04 0 0 .06.08 0 .08l.05.02.02.03v.05s.04.04.05.06c.02.06.02.07.05.1.02.02.04.07.05.09.02.05.13.22.2.33.11.16.35.44.62.44.05 0 .13-.06.17-.1l.07-.06h.03s.07-.13.08-.15c.02-.03.04-.07.06-.11.02-.05.05-.12.05-.13 0 0 .04-.1.05-.13.05-.12.08-.22.12-.37l.02-.09v-.05s.01-.03.01-.03v-.04s.04-.03.07-.02v-.04s.04-.02.05-.03c.04-.02.1.08.11.1 0 0-.02.17-.02.22v.1s-.02.09-.03.11c-.01.05-.03.11-.03.14-.03.19-.07.45-.1.64 0 .05-.04.08-.09.13h.03s0 .05 0 .05c-.01.08-.04.15-.07.19v.04s-.02.03-.05.06t-.02.1l-.02.04-.03.06s-.03 0 0 .03h-.07s0 .03 0 .03h.03s-.01.08-.01.08t-.03.06s-.04.07-.07.11c-.05.08-.15.22-.16.23-.13.17-.3.27-.51.26-.21 0-.25.08-.31.22-.03.07-.1.23-.11.24 0 0-.08.19-.13.31-.03.06-.1.25-.1.3 0 .02-.09.44-.13.55-.07.2-.11.38-.13.64-.01.15-.06.58-.08.66-.03.09-.06.67-.06.67s.07.7.07.72c-.01.13.05.58.07.6 0 0 .02.12.02.15l.04.07s.03.11.04.14q.02.06.02.07s0 .02.03.07c.01.03.03.08.03.09v.04s.03.05.03.05l.02.04s.04.1.05.14c0 .02 0 .02.04.05t.03.07c.06.17.32.49.48.69.08.1.18.21.28.29.04.03.1.09.13.13l.1.09s.05.02.06.03c.02.02.24.18.37.28.06.05.14.1.21.13.03.01.21.11.21.13l.08.04.06.03h.04s.05.03.05.03c.03.02.07.03.1.05l.07.03.07.02.03.02h.03s.05.03.06.04c.01 0 .03.02.07.03l.06.03.09.02s.15.06.16.06c.33.19 2.12.27 2.55.19h.05s.06-.02.06-.02h.07s.04 0 .16-.02h.07s.13-.02.13-.02t.09-.01s.05 0 .08-.02c0 0 .04 0 .11-.01.05 0 .13-.02.2-.04.07-.01.13-.03.19-.04.04 0 .07-.01.12-.02.18-.05.35-.09.55-.12.03 0 .11-.03.16-.05h.04s.04-.02.04-.02h.04s.15-.05.2-.07l.07-.02h.05c.09-.03.58-.22.83-.31.03-.01.13-.05.13-.05l.07-.03.05-.02h.04s.05-.04.05-.04h.05s.09-.05.09-.05.06-.02.09-.04c.02 0 .22-.1.22-.1l.04-.02s.03-.01.06-.04c.03-.02.07-.05.1-.07h.04s.04-.03.04-.03q.07-.02.09-.04l.05-.02.07-.03c.16-.07.36-.16.51-.26.05-.03.12-.07.19-.11 0 0 .09-.05.13-.07l.05-.04.07-.02s.3-.18.46-.27c.29-.17.58-.36.83-.55.18-.14.79-.6.84-.62.04-.02.62-.55.67-.61l.09-.08.04-.06.02-.03.05-.05s.02-.04.03-.04l.06-.03c.04-.07.08-.15.14-.2.07-.05.1-.13.13-.2.05-.12.08-.25.08-.38 0-.09 0-.29-.02-.35s-.06-.2-.03-.24c-.01 0-.02-.1-.02-.1t0-.06c-.02-.08-.03-.1-.03-.12 0 0-.06-.14-.07-.15-.02-.05-.04-.13-.05-.17 0-.03 0-.04-.04-.07v-.05s-.01-.06-.01-.06l-.03-.04v-.06s-.04-.12-.05-.14h-.03s-.01-.05-.01-.05v-.05s-.01-.04-.01-.04c-.08-.16-.33-.61-.33-.61-.05-.05-.15-.2-.18-.27 0-.02-.05-.12-.07-.16 0-.02-.02-.08-.01-.09h.03s.03 0 0-.05c0 0-.06 0-.07-.01 0 0-.04-.1-.04-.11v-.04s-.05-.02-.05-.02v-.03s-.05-.11-.06-.13c-.01-.05-.07-.19-.09-.21-.05-.07-.07-.14-.1-.25-.03-.12.09-1.06.13-1.16.03-.09.08-.25.14-.28.17-.1.36.33.4.43.03.09.29.57.35.6l-.04.02.06.02.02.03s.02.03.04.05c.02.04.06.1.1.12.09.08.17.14.28.2.19.12.4.26.62.32.22.07.47-.17.57-.43l.04-.03v-.04s.03-.06.03-.06l.03-.02.05-.07.04-.06.03-.02c.04-.06.07-.12.13-.18.04-.04.08-.1.1-.15.07-.12.14-.23.23-.33.07-.1.15-.2.21-.3.07-.1.15-.21.24-.3.02-.03.05-.06.09-.11 0-.02.03-.05.03-.06.03-.02.04-.03.06-.06.03-.04.07-.09.09-.11.07-.06.38-.44.5-.59.15-.19.4-.49.54-.65l.03-.02.03-.02h.03s.05-.07.05-.07l.05-.08c.05-.05.11-.1.15-.13.01 0 .04-.05.06-.08.02-.02.03-.05.06-.06.06-.03.1-.07.15-.12.04-.04.11-.11.14-.14.12-.09.3-.24.35-.3.24-.27.77-.64 1.19-.94.22-.16.49-.32.74-.43h.05s.09-.06.09-.06h.04s.05-.03.05-.03c.03-.02.06-.03.09-.04h.04s.02 0 .02 0c0-.02.22-.09.25-.1.07-.02.24-.07.24-.07.2-.05.45-.11.69-.13.17-.01.53-.03.69.02.07.02.2.06.26.07.11.02.24.05.27.07.03.01.16.06.2.07s.1.04.11.04c.06.01.12.03.18.06h.04s.1.06.1.06h.04s.15.08.21.11c.05.03.15.08.18.09.07.03.16.07.18.08.11.05.23.14.33.22.04.03.16.12.16.12.04.05.12.1.18.13.2.12.4.35.55.53.17.2.32.45.43.66.09.17.13.32.17.52.02.1.03.22-.01.31-.02.03-.02.15-.02.17 0 .03-.12.47-.12.47-.01 0-.04.19-.04.25 0 0-.06.17-.08.25-.07.2-.21.6-.35.74-.05.05-.2.28-.23.35t-.05.05s-.04.04-.06.08c0 0-.14.17-.14.17t-.08.08s-.03.04-.06.06t-.08.08s-.04.04-.05.05c-.08.07-.25.21-.29.24-.08.05-.24.16-.29.22-.03.03-.09.08-.15.11-.04.01-.17.06-.2.09 0 0-.06.04-.1.06h-.05s-.04.03-.04.03c-.04.02-.15.1-.15.1l-.02.03-.13.05s-.02.02-.07.04l-.04.02-.09.04s0 0-.04.04c-.1.09-.54.28-.78.37-.08.03-.13.06-.19.1h-.07s-.05.04-.05.04h-.06s-.04.02-.04.02c0 .02-.02.03-.03.04h-.05s-.06.02-.07.03c-.06.04-.13.06-.21.08-.07.02-.18.05-.27.09-.02 0-.15.04-.19.05h-.04s-.07.03-.07.03 0 0-.07.02c-.03 0-.11.03-.11.03-.08.01-.18.03-.23.06-.02.01-.06.03-.09.04h-.04s-.01 0-.01 0c-.01.03-.11.07-.14.06-.07 0-.32.08-.41.13-.12.07-.75.2-.96.23-.04 0-.08.02-.12.03 0 0-.06 0-.08.01h-.04s-.05.03-.05.03l-.08.02s-.02 0-.05 0c0 0-.16.05-.18.06-.05.01-.15.05-.24.05-.18 0-.84.05-.92.22-.02.04-.09.2-.06.23l.03.09v.05s0 .06 0 .06c.01.05.03.14.04.19.04.15.07.25.11.39.03.11.13.29.21.38.02.02.19.29.19.3 0 0 .15.13.17.15.06.04.12.1.18.15.03.03.15.15.15.15.02.02.05.03.08.05 0 0 .03.02.09.07.11.09.29.17.43.21.05.01.15.04.28.08.07.02.12.04.19.05h.04s.04.02.04.02.12.02.12.02.44.02.49.02l.54-.03c.15 0 .68-.09.83-.2.12-.08.32-.17.45-.23.06-.02.41-.22.44-.26s.11-.11.17-.15.2-.16.2-.16c.06-.05.14-.12.18-.19 0 0 .12-.12.18-.18.08-.08.39-.48.65-.81.22-.28.43-.5.69-.73.01-.01.17-.01.19.03l.02.03s.03.05.04.06c.02.05.02.17.01.21-.02.09 0 .28 0 .46 0 .08.22.5.27.54.03.02.08.07.16.15l.06.06.04.06c.06.04.11.09.15.14t.04.04l.07.06.03.02c.26.19.51.34.82.42.14.04.39-.33.44-.41.05-.09.1-.18.16-.25l.04-.04s.03-.02.03-.06c0 0 .08-.16.09-.17.21-.31.64-.91.76-1.02.03-.02.15-.18.21-.26l.04-.07.02-.03s0 0 .05-.05c.02-.02.04-.04.06-.07.03-.06.14-.18.21-.26.05-.05.12-.16.16-.23.07-.14.28-.36.42-.5h.05s.08-.14.08-.14c.02-.03.06-.09.06-.09.07-.05.17-.15.23-.22.12-.15.28-.34.44-.44.06-.04.29-.25.46-.4.03-.03.06-.06.08-.09 0 0 .12-.1.12-.1.05-.02.19-.13.26-.2.04-.04.08-.07.13-.09.05-.03.1-.07.13-.11.03-.03.06-.06.11-.08.03-.01.1-.06.13-.08.26-.23.9-.43 1.42-.6.44-.14 1.3-.18 1.69-.06.1.03.19.06.3.08.07.02.22.06.26.09 0 0 .38.15.41.15.01 0 .48.27.48.27s.45.3.48.32c0 0 .11.09.12.09.04.04.08.08.11.1l.06.04.06.06.08.06.08.06c.18.11.36.35.45.53.13.24.22.41.27.66.04.26.03.74-.05 1.08-.07.31-.15.6-.24.88-.01.04-.05.12-.09.19v.03s-.02.05-.02.07c-.02.04-.04.09-.04.09-.02.05-.05.1-.08.14l-.04.05v.03s-.04.02-.04.02t-.03.05s-.14.19-.19.26c-.04.05-.1.13-.1.13-.02.03-.05.06-.07.08-.02.01-.08.06-.08.06-.03.06-.45.54-.46.54l.04.11s.27 0 .29 0c.06 0 .16-.02.22-.04.09-.03.22-.07.25-.08.06-.01.17-.05.25-.07h.08s.05-.02.05-.02h.06s.04-.03.04-.03c.08-.02.23-.06.24-.06t.07-.02c.06 0 .08-.01.12-.03.05-.01.15-.05.21-.09t.09-.03h.05s.06-.04.06-.04l.06-.02q.08-.02.09-.02l.05-.02.05-.02h.05s.07-.05.07-.05h.05s.06-.03.06-.03h.04s.03-.03.03-.03c.19-.1.53-.26.7-.33.06-.02-.03-.35-.04-.4-.03-.1-.06-.22-.06-.36t0-.05s-.02-.16-.02-.19v-.11s-.01-.03-.01-.03v-.06s.01-.07.01-.07v-.05s0-.04 0-.04v-.05s0-.03 0-.03v-.04s0-.06 0-.06t.01-.1c.02-.24.23-1.43.33-1.54.04-.05.12-.24.17-.38.04-.13.12-.33.15-.38.11-.19.26-.45.38-.63.03-.05.06-.09.14-.18h.04s.01-.09.01-.09c.07-.1.14-.22.21-.27.01 0 .11-.12.11-.13.03-.05.1-.12.14-.16.03-.03.05-.05.09-.09t.07-.07s.04-.05.04-.05c.02-.02.04-.04.07-.05.04-.02.07-.05.11-.08l.07-.05.04-.02s.1-.07.17-.12c.03 0 .07-.02.07-.02.01-.01.41-.1.43-.08h.08s.05 0 .05 0h.04s.04.03.04.03l.03.02s.11.06.18.1l.1.06s.05.03.05.03t.06.05s.07.04.08.05l.04.04s.02.03.04.04c.08.05.36.48.44.62.16.26.24.52.34.8.06.18.07.45.07.65 0 .12-.02.23-.04.34-.02.09-.05.23-.05.31 0 .13-.04.39-.07.49v.09s-.02.06-.03.1c0 .02-.02.09-.04.14v.07c-.03.08-.04.11-.04.12-.01.05-.02.07-.02.11s0 .07-.03.11c0 0-.05.16-.07.23-.06.22-.21.47-.34.66-.08.13-.37.58-.36.62.05.39 1.66.2 1.95.15.01 0 .08-.03.12-.04.02 0 .06-.02.08-.03l.07-.03.03-.02h.04s.12-.02.12-.02l.07-.03.04-.02s.04-.03.06-.03c.05-.01.08-.03.12-.05h.04s.06-.04.07-.04t.07-.02s.07-.03.09-.04c.02-.02.06-.04.1-.05h.04s.04-.06.04-.06h.04s.04-.03.09-.08q.06-.03.07-.04s.13-.09.18-.12c.03-.02.07-.04.07-.05.03-.03.06-.08.09-.09.06-.04.13-.31.12-.4l-.02-.06v-.14s-.02-.07-.02-.07v-.05s0-.05 0-.05v-.05s-.02-.07-.02-.07v-.08c-.02-.13-.03-.24-.05-.35s-.04-.29-.04-.44c-.04-.56-.14-1.18-.23-1.72-.02-.11-.05-.29-.06-.4-.02-.13-.05-.35-.08-.49-.04-.14-.08-.35-.1-.51-.02-.11-.04-.32-.06-.43-.05-.32-.08-.59-.12-.9 0-.06-.03-.25-.03-.29-.02-.08-.04-.17-.05-.27l-.02-.1s-.01-.1-.02-.16v-.07s-.03-.07-.03-.07c0-.03-.01-.08 0-.11h.1s-.07-.02-.07-.02-.07-.02-.06-.03c0 0-.02-.22-.02-.22v-.05s-.02-.08-.02-.08c0-.04-.02-.11-.03-.18 0-.05 0-.08 0-.15 0-.1-.02-.22-.05-.31-.03-.11-.06-.22-.08-.33v-.06s-.01-.07-.01-.07l-.02-.11v-.03s0-.07 0-.07v-.04s-.02-.05-.02-.05c-.02-.08-.02-.09-.02-.1t0-.06q0-.07 0-.12c-.04-.22-.09-.47-.12-.73v-.03s0-.04 0-.04v-.04s-.05-.13-.06-.18c-.01-.12-.04-.34-.04-.4l-.12-.71-.15-1.28c0-.19-.1-.82-.16-1.17-.03-.2-.07-.52-.1-.74-.02-.19-.11-.82-.11-.82-.01-.04-.03-.21-.03-.27-.01-.12-.02-.24-.03-.32v-.04q0-.06-.01-.14v-.03s0-.06 0-.06l-.03-.12v-.04s-.02-.05-.02-.05v-.06s-.02-.04-.02-.04v-.07s-.02-.08-.02-.11c0-.04 0-.09-.02-.17 0-.07-.01-.14-.02-.18 0-.06-.01-.14-.02-.19s-.03-.21-.04-.32l-.02-.07v-.06s-.02-.04-.02-.04l-.02-.07v-.04s-.02-.03-.02-.03c0-.07-.07-.2-.12-.31l-.03-.07-.03-.08-.02-.04-.02-.1-.02-.05c-.03-.06.16-.79.2-.92.05-.17.32-.75.49-.73.08.01.12.1.15.17.01.03.02.04.03.11 0 .04.04.16.05.19.02.04.04.09.05.11.01.04.03.08.04.1.04.06.08.11.1.18 0 0 .04.06.07.11.02.06.02.06.02.06.05.09.07.14.09.22.06.16.13.36.19.46.07.11.16.29.19.39.05.13.12.3.15.42.02.07.09.25.15.38.02.05.07.15.09.19.01.02.08.19.11.26.04.11.11.26.17.36.02.04.02.04.03.09 0 .03.03.08.05.11v.04s.07.11.07.11q.01.07.02.07c.07.13.3.73.25.86-.02.07-.06.12-.14.15-.05.02-.17-.01-.24-.03-.01 0-.11-.12-.14-.17-.02-.02-.04-.05-.05-.07t-.04-.05l-.04-.05c-.08-.11-.25-.32-.29-.35-.04-.02-.08 0-.1.03-.19.18.23 2.98.28 3.28.04.24.07.44.1.67.03.22.08.58.14.76.02.05.06.36.1.61.02.11.04.27.06.39.01.11.04.29.07.42.04.2.09.56.09.61.01.16.1.6.14.84.07.36.23 1.37.23 1.42 0 .09.14.96.22 1.42.01.05.08.5.13.81 0 .05.03.16.03.16.01.05.03.12.04.17.02.16.05.41.07.46v.05s0 .04 0 .09c0 .11.02.23.02.27.02.11.03.29.03.38-.01.12 0 .58.01.64.09.27.04 1.26-.01 1.58v.04s-.02.03-.02.06v.14c-.01.06-.03.16-.04.22-.01.08-.02.14-.04.22-.01.05-.02.09-.03.14s-.02.09-.02.16c-.01.11-.03.27-.07.35 0 .02-.02.07-.03.1t-.02.11s-.01.06-.02.09c0 .03-.03.09-.04.12-.01.04-.02.07-.04.11l-.02.07-.05.07c-.01.06-.03.12-.05.19-.01.04-.03.1-.05.13-.03.05-.07.13-.07.14 0 0-.14.15-.18.18t-.08.08l-.06.04-.02.03-.07.04c-.07.09-.82.42-1.11.54-.08.03-.18.06-.28.07q-.06 0-.1.03s-.05.03-.06.03c-.09.03-.19.05-.27.06-.02 0-.07.01-.09.02t-.07.02s-.07 0-.08 0c-.07.01-.12.02-.19.03l-.1.02h-.12s-.05 0-.1 0c-.06 0-.12 0-.16.01-.05.01-.13 0-.19-.02-.02 0-.13 0-.2-.01h-.12s-.02 0-.08 0l-.18-.02h-.05s-.05-.02-.05-.02c-.22-.02-.61-.14-.87-.22-.08-.02-.19-.08-.27-.13-.04-.02-.09-.06-.11-.08-.02-.03-.08-.06-.13-.07-.08-.03-.21-.09-.3-.14-.11-.06-.21-.09-.32-.11-.17-.04-.6.16-.73.24-.1.06-.29.13-.38.15h-.04s-.06.02-.06.02c-.03.02-.07.03-.12.05-.03.01-.05.02-.08.03l-.06.03h-.03c-.25.07-.53.18-.73.26-.23.1-.55.21-.8.29l-.1.04s-.11.02-.11.02c-.06.02-.16.05-.2.06l-.04.02h-.09s-.03.03-.07.04l-.07-.02s-.01.03-.04.03c-.24.08-.57.16-.83.21l-.15.02h-.08s-.05.02-.05.02c-.11.02-.17.03-.23.05-.04.01-.15.03-.2.03-.04 0-.08.01-.11.02-.04.02-.12.04-.17.06-.13.04-.32.05-.47.06h-.09s-.04.02-.08.02c-.06 0-.19.02-.2.03l-.05.02-.07.02c-1.42.16-2.74.19-4.13.19l-.63-.03h-.13s-.05 0-.05 0h-.06s-.08 0-.08 0h-.25c-.22.01-.66 0-.9-.05l-.14-.02h-.14c-.09-.01-.14-.02-.22-.04h-.06s-.14-.04-.16-.06h-.1s-.06 0-.06 0l-.07-.02s-.02 0-.07-.01l-.08-.02s-.07-.01-.09-.02c-.06-.02-.13-.05-.17-.06h-.04s-.1-.04-.1-.04h-.17s-.04 0-.04 0l-.04.02s-.09.05-.12.07c-.02 0-.03.02-.06.06-.02.03-.04.06-.07.1-.06.06-.26.38-.28.46 0 .04-.16.32-.21.41-.04.06-.35.4-.38.19-.01-.09.01-.49.06-.54 0 0 .05-.09.05-.1.01-.04.02-.08.04-.12.03-.05.08-.18.12-.28.01-.02.03-.05.03-.07v-.03s.05 0 .05 0v-.08s.03-.04.03-.04l.02-.05c.06-.17.08-.23.01-.41 0 0-.75-.67-.76-.67-.06-.03-.24-.34-.26-.4-.05-.16-.16-.4-.26-.55-.03-.04-.17 0-.19.02-.1.08-.38.43-.59.69-.02.03-.07.08-.07.08l-.02.04-.06.07-.05.04-.03.02-.03.02s-.05.07-.08.1c-.04.05-.11.11-.18.17l-.04.04s-.05.05-.1.08t-.06.04s-.06.06-.06.06c-.07.04-.09.04-.11.08l-.03.02-.03.02-.04.04s-.07.05-.1.08c-.13.1-.3.23-.46.3-.36.15-.77.32-1.13.4-.16.04-.77.07-.86.04s-.25-.03-.35-.03c0 0-.13-.01-.16-.02-.01 0-.05-.01-.06-.02t-.16-.03s0 0-.09-.03h-.05s-.11-.04-.13-.05c-.05-.02-.06-.02-.14-.04-.04-.01-.09-.02-.12-.05-.05-.04-.11-.06-.17-.08-.2-.07-.68-.39-.8-.57-.02-.03-.04-.06-.06-.08l-.05-.04s-.03-.02-.04-.03c-.04-.09-.1-.17-.16-.23-.1-.11-.19-.26-.25-.4-.12-.3-.35-.98-.32-1.21.03-.2.06-.49.02-.67 0-.03.01-.29.02-.43 0-.11 0-.17 0-.29 0-.16-.13-.24-.26-.27-.17-.04-.46-.05-.71-.06-.07 0-.14-.01-.22-.03-.09-.01-.34-.05-.36-.05-.13 0-.23-.02-.34-.04-.07-.01-.2-.04-.22-.03-.06.03-.11.06-.14.12-.05.13-.05.47-.05.75 0 .26-.04.6-.09.83 0 .03-.02.07-.03.11-.03.09-.04.12-.05.22l-.03.08c-.01.05-.03.13-.04.19 0 0-.04.17-.06.23l-.02.09v.08s-.02.04-.02.04v.07s-.02.07-.04.09c-.03.03-.03.04-.03.05 0 .17-.65.9-.76 1-.12.11-.43.41-.46.47 0 0-.15.14-.2.18t-.05.04s-.06.05-.08.07t-.05.04l-.02.03-.07.04c-.06.05-.14.11-.21.15-.07.03-.16.09-.23.15-.14.11-.3.22-.45.3t-.05.04l-.04.03s-.03.01-.06.04l-.03.02-.04.02s-.06.04-.12.1h-.05s-.05.05-.05.05c-.06.04-.21.14-.21.14-.08.04-.17.1-.25.15-.29.22-.65.41-.99.56-.05.02-.1.04-.14.07-.03.02-.11.06-.17.09l-.05.04-.06.02-.03.02-.06.04c-.15.06-.49.21-.55.25-.07.06-.73.3-.85.33-.08.02-.53.18-.85.3-.05.02-.17.03-.28.05-.03 0-.33.05-.33.05-.03.01-.34.09-.5.13-.41.1-.81.17-1.32.17h-.2s-.21.02-.21.02h-.03s-.08 0-.08 0h-.07s-.08 0-.08 0l-.11-.02h-.05s-.05 0-.05 0h-.04s-.39-.03-.39-.03c-.07 0-.18-.02-.26-.04-.04-.01-.12-.03-.14-.03-.05 0-.12 0-.13 0-.15-.02-.37-.05-.54-.13-.14-.07-.34-.14-.46-.17h-.08s-.03-.02-.03-.02h-.05s-.08-.04-.12-.06l-.06-.04h-.05s-.08-.08-.08-.08c-.08-.02-.32-.14-.39-.2q-.05-.05-.13-.07s-.1-.05-.12-.08c-.01-.02-.04-.03-.08-.06-.04-.02-.09-.05-.11-.07-.22-.18-.43-.35-.63-.56-.11-.12-.25-.27-.31-.37-.04-.07-.11-.13-.16-.18-.02-.02-.11-.17-.1-.17 0 0-.07-.11-.07-.11 0-.03-.05-.1-.09-.17v-.03s-.05-.07-.05-.07v-.03s-.05-.07-.05-.07c-.05-.11-.08-.19-.12-.29-.02-.05-.1-.24-.12-.28-.02-.03-.22-.96-.22-1.05l-.05-1.29c0-.81.29-1.98.52-2.9.03-.14.08-.26.14-.38.04-.08.07-.16.07-.17.02-.08.05-.17.08-.25.06-.13.12-.29.17-.43v-.04s.03-.02.05-.08l.02-.04.02-.06s.03-.06.04-.08.01-.04.01-.08c0-.08 0-.19-.02-.22l-.05-.05-.04-.08s-.02-.01-.04-.06c-.06-.12-.14-.23-.23-.34-.03-.05-.2-.37-.19-.43 0-.01-.03-.14-.05-.2-.03-.1-.05-.2-.07-.3s-.02-.13-.03-.24c0-.05 0-.09-.01-.14v-.07s-.02-.08-.02-.08v-.03s0-.04 0-.04v-.04s0-.08 0-.08c-.02-.02-.02-.03-.01-.09 0-.02 0-.1 0-.14v-.04s-.02-.09-.02-.09c0-.07-.01-.12-.01-.21l.02-.32v-.28s.02-.04.02-.06v-.07s.06-.03.06-.03z" fill="#1d1d1b" fill-rule="evenodd"/></svg>