<svg viewBox="0 0 101.96 28.73" xmlns="http://www.w3.org/2000/svg"><path d="m97.92 8.04c.07.1-.16.64-.22.78-.02.04-.06.1-.09.14-.04.06-.07.13-.1.21v.04s-.03.04-.03.04-.03.07-.03.07c-.01.04-.05.16-.06.16l-.04.42v.21c0 .05-.01.15 0 .17 0 0 .07.33.08.35.02.11.04.21.09.31.06.13.15.33.24.41.05.05.17.15.26.13.08-.02.2-.07.31-.12.05-.02.15-.21.18-.29.03-.07.07-.15.08-.16.02-.08.06-.15.1-.22.02-.04.08.04.09.05.06.2-.11.82-.2.98-.12.23-.22.41-.37.59-.03.03-.09.08-.12.1l-.1.05-.07.02s-.29-.03-.33-.05c-.05-.02-.14-.14-.19-.2-.04-.05-.17-.22-.18-.23 0 0-.08-.2-.12-.3-.01-.04-.04-.1-.05-.16-.01-.04-.04-.16-.06-.21-.15-.39.1-1.51.24-1.9.08-.23.27-.73.31-.79.06-.09.12-.22.16-.32.02-.05.15-.36.24-.29m-.09-4.45s.02-.03.02-.05l.02-.13v-.11c0-.07-.02-.13-.02-.13.01-.07-.06-.38-.08-.48-.04-.14-.09-.29-.17-.4-.04-.05-.09-.1-.17-.15l-.06-.04s-.04-.02-.05-.02c-.04 0-.12-.02-.12-.03-.02-.01-.32.05-.34.09l-.06.03s-.05.04-.05.04c-.03.03-.06.06-.1.09 0 0-.05.06-.08.1-.01.01-.08.1-.09.09-.01 0-.04.22 0 .26.07.1.16.2.26.31.02.02.1.07.16.11.05.03.12.08.17.13.08.09.68.37.78.28m-2.62 2.92.51-.39c.16-.1.37-.27.52-.43l.05-.04.08-.06.02-.03.04-.02s.03-.02.05-.04c.03-.03.11-.1.11-.11.02-.03.09-.09.14-.14l.08-.06s.12-.11.22-.21c.02-.02.04-.04.05-.07.02-.02.04-.05.06-.07.05-.05.02-.18 0-.23-.04-.07-.24-.21-.32-.24-.02-.01-.21-.16-.32-.25-.23-.18-.42-.43-.49-.77-.05-.27.16-1.19.31-1.43 0 0 .03-.08.03-.08t.03-.07s.04-.08.07-.12c.01-.02.09-.14.14-.21s.1-.13.16-.19c0 0 .08-.06.1-.08l.05-.04s.04-.03.04-.03c0-.02.33-.12.38-.12.06 0 .29.1.4.15.1.04.18.18.23.28s.16.44.24.69c0 0 .02.31.03.51v.08q0 .14 0 .17t0 .15s0 .01 0 .07c.02.16.04.32.03.47-.01.14-.02.45.02.49v.03s.02.01.09.09t.04.03s.14.11.17.14c.01.02.04.04.07.07l.02.03.05.04h.03c.05.07.1.12.14.19.1.17.11.3.11.51 0 .14-.05.47-.23.44-.04 0-.05-.02-.08-.04t-.05-.03s-.04-.02-.07-.04t-.05-.04s-.07-.05-.1-.07l-.06-.04s-.03-.03-.04-.03c-.04-.02-.1-.06-.11-.07-.03-.02-.08-.06-.11-.07-.08-.04-.19-.1-.24-.13-.04-.03-.15 0-.22.01-.02 0-.3.34-.33.38-.09.13-.21.29-.32.38-.08.07-.18.15-.26.23-.09.09-.2.19-.3.27-.06.05-.33.29-.55.48-.05.04-.1.09-.2.16l-.02.03h-.03s-.05.06-.05.06l-.06.04-.06.04-.05.04s-.14.12-.14.12c-.16.17-.39.34-.61.44-.05.02-.11.06-.14.09-.03.04-.11.09-.16.12-.03.02-.05.03-.08.04-.03.02-.07.04-.15.12-.04.02-.07.03-.09.04-.04.01-.11.06-.16.1s-.15.11-.17.12l-.03.02s-.04.03-.05.03l-.03.02-.06.03s-.05.02-.08.05c-.03.02-.05.03-.09.05-.05.02-.14.07-.19.11s-.07.05-.11.08l-.05.02-.07.04s-.02.02-.06.04l-.08.05s-.06.02-.1.05c-.03.02-.09.05-.1.06-.1.05-.46.25-.71.39s-2.13.77-2.2.75c-.05-.01.02-.13.04-.15.06-.07.5-.37.63-.43.07-.03.14-.08.22-.13l.12-.09.1-.05.03-.02s.05-.03.05-.03l.08-.05h.05s.05-.05.05-.05c.02-.01.24-.14.37-.22.09-.06.31-.18.38-.21.11-.05.25-.14.34-.21s.22-.15.33-.22c.48-.3 1.09-.67 1.38-.88.05-.04.11-.08.15-.11.04-.02.11-.08.17-.11q.06-.02.14-.09s.05-.03.09-.05c.03-.01.07-.03.09-.05.1-.09.2-.17.32-.24.11-.07.34-.21.35-.23m-5.79 20.38s.08-.06.12-.09h.04s.08-.05.09-.07c0 0 .05-.03.08-.05s.05-.03.08-.05c.02-.02.06-.05.06-.05l.08-.03.04-.02.04-.02s.02-.01.05-.02c.04-.01.12-.07.16-.1s.06-.04.11-.07c.03-.03.04-.04.04-.04.07-.04.12-.06.15-.1 0 0 .15-.11.18-.12.11-.07.22-.13.31-.21.01 0 .17-.12.27-.19.04-.03.05-.04.09-.05.02 0 .06-.04.07-.06.02-.02.1-.09.14-.1q.08-.04.1-.06s.06-.05.07-.06c.07-.04.09-.05.1-.06.03-.03.08-.06.11-.08.12-.07.23-.15.32-.25.03-.02.22-.15.3-.2.02-.01.13-.08.17-.12.02-.02.12-.1.2-.15l.05-.04s.06-.04.1-.06c.05-.03.18-.12.18-.12s.17-.11.17-.11c.03-.04.11-.07.16-.1.02-.01.06-.03.09-.05.04-.03.09-.06.18-.11l.05-.02s.06-.03.06-.03.04-.01.08-.03c.03-.01.05-.02.1-.03l.03-.02s.02-.02.04-.02c.06 0 .1-.02.15-.03.16-.05.44-.12.57-.11s.53.16.6.25c.03.04.19.13.26.15l.08.04s.09.03.12.03h.08s.08 0 .08 0c.03 0 .06 0 .06.02l.02-.03h.05l.05-.02c.1-.02.17-.03.23-.08 0 0 .07-.02.1-.03t.06-.04l.04-.03h.04s.07-.05.08-.05c.15-.11.31-.27.44-.45q.02-.05.03-.07s.02-.02.03-.06c.01-.05.03-.07.06-.1.04-.03.06-.09.08-.14.03-.07.06-.12.11-.17.11-.12.17-.01.15.12-.05.23 0 .3.11.44 0 0 .21.11.24.12.05.02.09.03.13.04.02 0 .18.05.17.06h.16.08s.04-.03.04-.03t.06-.03c.05 0 .14-.14.16-.19.02-.04.06-.22.05-.27-.01-.1.05-.31.1-.42.05-.12.24-.59.36-.52.14.09-.02.83-.05.97-.08.33-.27.71-.42 1-.12.22-.41.43-.67.5-.17.05-.4 0-.62-.07-.06-.02-.15-.06-.2-.1-.02-.02-.16-.11-.24-.1-.18.04-.49.3-.64.44-.18.17-.71.3-1.01.26-.07-.01-.29-.12-.45-.2-.04-.02-.07-.04-.09-.05-.04-.03-.08-.05-.12-.07-.02-.01-.21-.1-.2-.11 0 0-.21-.02-.21-.02-.07 0-.13.01-.14.01-.02 0-.06 0-.13.01-.23.03-.47.14-.66.24-.32.16-.65.37-.94.57-.13.09-.34.24-.41.28-.16.09-.3.19-.44.31-.13.11-.29.21-.43.28-.05.02-.06.03-.07.04t-.06.05s-.08.05-.11.07c-.08.05-.23.15-.26.16-.18.08-.41.19-.55.26-.09.05-.34.16-.51.24-.13.06-.43.12-.57.15-.12.02-.22.05-.32.08-.05.01-.26.04-.28-.03-.04-.13.15-.19.27-.23.06-.02.19-.06.23-.08.03-.02.13-.08.16-.08m-4.64-24.41.05-.03s.09-.02.13-.02c.06 0 .15.01.24.03.11.02.24.07.36.15l.04.02s.03.02.07.03l.11.09.06.03.09.07.08.07c.13.09.31.21.42.33.12.13.26.27.39.39s.26.29.37.43c.02.03.06.08.07.1.02.04.07.09.12.15l.04.04s.08.09.1.13l.08.11c.03.06.05.11.07.12t.03.05l.09.13.02.03.03.05.04.06.02.03s.05.08.07.11c0 .01.04.08.07.12.02.04.08.14.1.15.05.02.06.03.11 0 .06-.03.07-.2.06-.28 0-.07.01-.33.03-.49v-.12s0-.23 0-.23c0-.07 0-.32 0-.32.01-.23.03-.54.03-.71 0-.12 0-.24.01-.32.01-.07.03-.19.03-.26-.02-.23.27-.8.38-.96.03-.05.07-.1.1-.15.01-.02.03-.05.04-.08s.05-.11.05-.11l.02-.03s.03-.04.04-.05l.04-.06.02-.03s.04-.07.09-.13t.04-.05c.06-.14.57-.31.71-.32.17 0 .59.33.6.45 0 0 .05.09.09.15.03.05.07.12.09.19 0 .02.03.09.05.12v.04s.02.06.02.06c.01.03.02.13.02.17v.06s-.01.06-.01.06-.07.21-.1.27t-.01.05s-.01.04-.03.07c-.02.04-.06.1-.07.14h-.05s-.14.02-.13-.01c0 0-.05-.04-.05-.04-.02-.02-.05-.04-.06-.06s-.09-.1-.12-.14c-.04-.05-.08-.09-.14-.13 0 0-.09-.09-.14-.13-.23-.23-.38-.26-.7-.12-.1.05-.21.21-.27.31-.12.19-.16 1.03-.11 1.26.02.08 0 .37 0 .5 0 .06-.02.2-.02.24v.18l-.02.48c0 .39-.2 2.37-.41 2.47-.04.02-.11.05-.13.03-.09-.06-.12-.18-.15-.34-.01-.05-.02-.08-.03-.11-.02-.04-.03-.07-.04-.09t-.02-.07s-.04-.08-.04-.1c-.02-.1-.31-.53-.42-.68l-.04-.07-.11-.16-.04-.06-.02-.03v-.04s-.12-.14-.13-.15c-.02-.02-.05-.05-.06-.06-.02-.03-.05-.08-.06-.09-.03-.02-.09-.13-.12-.16-.04-.06-.08-.11-.13-.16-.04-.04-.1-.09-.13-.14-.05-.06-.09-.11-.16-.18l-.03-.02-.02-.04-.07-.06s-.06-.05-.07-.06c-.03-.02-.05-.03-.07-.06-.03-.03-.13-.09-.18-.09-.01 0-.05.01-.1.03-.08.03-.13.04-.21.02-.2-.05-.93-.47-1.02-.59-.07-.11-.13-.2-.18-.34-.06-.18-.03-.42 0-.59.01-.05.02-.07.04-.11s.03-.1.04-.14c0-.03.06-.17.06-.17.01-.02.02-.04.02-.05m-1.31 15.9s.19.09.22.1c.05.02.12.04.16.06h.06s.08.02.08.02l.03.02q.05.01.06.01s.02 0 .07 0t.08.01h.05s.14.03.14.03h.04s.04-.01.04-.01c.07 0 .09 0 .17.01.34.07.99-.1 1.4-.21.02 0 .07-.11.06-.14-.02-.08-.42-.39-.64-.57-.04-.03-.15-.11-.17-.12-.08-.03-.18-.07-.24-.11 0 0-.08-.02-.1-.02s-.09-.01-.15-.02l-.08-.02c-.06-.01-.14-.02-.21-.02h-.04s-.03 0-.03 0c-.02 0-.11 0-.12 0 0 0-.36.08-.38.09-.06.01-.19.1-.27.16-.12.08-.34.31-.36.46 0 .07.11.27.15.25m-1.48-9.04c0 .12 0 .26.03.37v.05s0 .05 0 .05c0 .01.04.17.05.17 0 0 .12.33.12.33.03.11.11.25.18.33t.01.04s.01.02.05.03c.02 0 .03.01.05.07l.06.04c.06.05.22.18.3.18.27 0 .41-.12.49-.38.03-.08.05-.17.07-.28.01-.04.1-.33.13-.36.17-.2.14.41.14.41-.02.18-.04.32-.1.49-.08.25-.17.5-.26.73-.05.12-.26.36-.36.43-.28.19-.66-.11-.9-.29-.04-.03-.16-.24-.17-.29t-.03-.07s-.03-.08-.06-.13c0-.02-.1-.19-.1-.18 0 0-.04-.22-.04-.25l-.02-.05v-.11s-.02-.05-.02-.05v-.07s-.02-.08-.02-.08v-.08c0-.09 0-.13 0-.18-.06-.3.13-1.16.24-1.5.05-.14.2-.57.23-.6 0 0 .19-.5.22-.58.01-.04.29-.53.26-.23-.01.13-.15.43-.22.6-.1.22-.16.45-.21.7-.02.11-.04.2-.07.31-.02.07-.03.13-.03.18s-.01.2-.03.26m-10.09-2.6c0-.2 2.23-1.47 2.24-1.47 0 0 .04-.01.04-.02.02-.03.05-.04.08-.07l.05-.04.09-.05c.1-.06.27-.16.3-.18.04-.03.37-.22.58-.34.1-.06.2-.11.3-.17t.06-.04s.06-.04.07-.04l.1-.04s.04-.02.06-.03c.18-.13.37-.26.55-.34.06-.03.14-.06.19-.1.04-.03.1-.06.17-.08 0 0 .11-.07.13-.09.04-.03.11-.07.13-.08.19-.1.54-.27.63-.35.16-.13.43-.27.59-.33.17-.07.43-.24.57-.34.14-.09.43-.27.6-.33.2-.07.44-.22.6-.35.13-.11.37-.24.56-.33q.05-.03.07-.04s.05-.04.08-.05l.05-.04s.08-.04.11-.06l.06-.04.05-.04s.22-.06.23 0v.04c.02.08.02.16.02.26 0 .05 0 .09-.03.15v.05h-.04v.05s-.01.07-.01.07c-.01.04-.02.06-.04.1s-.05.1-.06.13-.09.09-.11.11l-.06.04h-.05s0 .02-.05.05c0 0-.11.07-.14.08-.06.04-.12.07-.25.16h-.04s-.07.06-.07.06l-.04.02s-.05.04-.08.06c-.05.03-.1.05-.14.08-.06.04-.1.07-.17.11s-.27.16-.27.16t-.05.04s-.02.02-.08.04c-.02.01-.16.08-.17.1-.1.09-.45.27-.64.37-.17.08-.46.24-.59.35t-.05.02s-.07.04-.09.06c0 0-.02.01-.06.03l-.03.02-.06.04-.07.03c-.05.03-.08.04-.1.06-.04.03-.1.08-.14.09-.22.09-.44.23-.64.37 0 0-.02 0-.06.03-.03.01-.08.03-.11.05-.04.03-.12.08-.14.1-.03.03-.08.07-.11.09l-.04.02s-.05.03-.1.07l-.03.02s-.02.02-.13.09l-.05.04q-.08.03-.1.05s-.04.02-.05.02q-.07.02-.13.07l-.07.02-.03.02-.04.02-.04.02s-.1.06-.14.1c-.04.03-.09.07-.13.09-.12.07-.23.13-.35.18t-.04.04s-.04.03-.07.05c-.05.02-.11.06-.16.09h-.03s-.07.05-.19.14c-.03.03-.03.03-.03.03-.11.04-.4.23-.59.35-.1.07-.21.13-.33.18 0 0-.11.07-.15.1-.05.03-.12.07-.17.11-.05.03-.1.06-.15.09-.05.02-.1.06-.15.09-.11.07-.24.14-.3.19-.08.06-.62.41-.62.41-.03 0-.07 0-.09-.01l-.02-.03h-.03s-.02-.15-.02-.16v-.13s.01-.14.01-.14.07-.37.07-.37m-4.97 13.54c.04.05.11.14.13.16s.17.15.17.15c.04.07.39.12.51.12.19 0 .38-.04.58-.1.34-.1.65-.25.93-.41.13-.07.24-.15.36-.24.04-.03.14-.11.16-.12.07-.03.14-.08.2-.12.12-.08.24-.17.36-.28t.2-.17s.04-.04.05-.04c0-.02.04-.06.04-.06.02 0 0-.16 0-.2-.01-.17-.68-.65-.94-.84-.06-.04-.26-.14-.4-.21 0 0-.2-.11-.33-.18-.24-.13-.52-.28-.74-.37-.07-.03-.12 0-.18.02-.13.06-.72 1.05-.78 1.18-.03.06-.05.12-.09.16-.02.02-.07.13-.1.19q-.03.06-.04.07s-.03.05-.04.08v.03c-.05.07-.05.07-.05.07-.01.05-.02.08-.04.11-.15.33-.08.7.04 1m.62-16.94c.24.07.24-.58.23-.69-.03-.23-.1-.41-.23-.61-.17-.27-.71.12-.8.29-.03.05-.06.15-.03.23.04.1.14.24.23.36.06.08.5.43.61.42m-1.5 5.63s.27-.33.31-.34l.04-.02h.04s.08-.04.09 0c0 0 1.45.9 1.45.9.07.01.13 0 .17-.05.15-.17.26-.43.36-.64.05-.12.13-.24.21-.34.04-.05.1-.12.16-.17.02-.02.03-.03.06-.07l.05-.03s.33.09.38.13l.03.02c.05.05.11.1.17.14l.08.05.03.02.17.13.05.04.04.02s.11.11.17.16l.05.04h.04s.06.07.08.1c.02.02.04.04.07.05t.04.05s.01.02.04.04c.02.02.15.14.15.14s.11.28.13.34c.03.08-.04.3-.07.38-.06.16-.21.39-.34.49-.02.02-.11.14-.19.26-.02.03-.13.15-.21.23-.03.03-.12 0-.2-.02-.02 0-.27-.22-.34-.28-.08-.07-.3-.27-.33-.29h-.04s-.03-.03-.05-.06c-.02-.02-.06-.05-.09-.07h-.03s-.05-.04-.05-.05c-.04-.04-.06-.06-.14-.12t-.06-.05s-.07-.04-.1-.07c-.07-.05-.17-.13-.25-.1-.06.02-.16.17-.18.23-.05.11-.14.3-.18.37-.03.04-.07.11-.09.15v.05s-.04.06-.04.06l-.02.06s0 .01-.03.06-.07.13-.09.16c0 0 0 0-.03.05-.02.04-.04.08-.1.13l-.02.03s-.06.04-.1.04c-.07 0-.22 0-.27-.04-.18-.16-.55-.39-.81-.56-.24-.15-.49-.36-.66-.6-.09-.13.35-1.09.45-1.17m-1.46 3.47c.08-.05.43.2.48.26l.06.02s.07.03.1.05h.03s.12.05.12.05h.04s.05.02.05.02l.05.02c.11.05.29.14.37.15t.06.02s.07.03.11.04l.07.02.04.02.03.02s.02.02.05.02c.16.03.29.09.45.18.04 0 .09.02.14.04s.12.06.17.09c.07.04.1.06.18.09s.12.06.17.11c.13.16-.09.28-.24.29-.14.01-.43.06-.46.21-.02.12.57.55.68.62.07.05.13.08.2.13h.03s.02.02.08.07l.08.05.03.02.05.04.05.02h.04s.06.05.08.07c0 0 .03.02.04.03l.06.03s.07.01.08.02c.01.03.2 0 .21-.04l.07-.05.04-.07.03-.02.04-.04c.05-.08.1-.15.15-.23.02-.03.05-.07.06-.1.02-.05.05-.08.08-.12.02-.03.07-.08.07-.08.02-.04.06-.1.09-.12.05-.04.1-.13.14-.2 0 0 .08-.08.12-.13l.02-.03s.07-.07.07-.07c.12-.13.24-.33.32-.47 0-.02.05-.06.08-.1l.04-.05s.06-.05.08-.07l.07-.1s.04-.06.06-.08c.05-.05.15-.16.17-.21s.12-.17.18-.24c.05-.06.1-.13.15-.2s.16-.21.17-.23c.06-.07.11-.15.16-.23.04-.08.11-.15.18-.21.04-.03.1-.05.14-.01.06.04.05.12.04.19 0 .03-.03.1-.06.17 0 .03-.02.1-.03.17-.01.06-.03.14-.06.21 0 0-.04.14-.06.21-.04.14-.07.3-.09.45 0 .06-.05.19-.08.27-.02.03-.03.05-.03.05v.05s-.03.03-.03.03l-.02.05c-.05.13-.23.35-.33.47-.11.14-.26.36-.36.53l-.04.04s-.04.05-.04.05t-.04.06l-.06.08-.04.06s-.05.05-.07.08c-.03.04-.05.08-.07.14 0 0-.03.05-.04.06t-.04.06s-.01.02-.06.08t-.04.06c-.07.11-.17.27-.18.31-.01.06-.01.15.04.19.03.02.06.05.08.08.03.03.1.07.13.1h.04s.03.02.03.02l.07.05.03.02.04.02s.06.04.09.06c.07.06.19.14.26.17.06.03.18.13.24.19.33.3.56.61.8.95.14.2.29.65.3.93 0 .03-.03.42-.05.65s-.06.61-.1.74c-.08.24-.2.62-.23.65-.01.01-.05.08-.08.12-.03.05-.05.08-.08.13-.05.06-.17.2-.19.21s-.17.14-.26.21c-.1.08-.19.15-.3.22-.07.04-.2.14-.3.21l-.04.02-.08.06s-.04.04-.07.06-.07.05-.08.05c-.02.03-.66.39-.73.42-.28.12-.64.27-.86.32-.17.04-.4.06-.63.06-.13 0-.58-.15-.64-.24t-.06-.05l-.04-.04s-.08-.1-.11-.15l-.03-.02-.07-.11-.02-.03s-.02-.06-.03-.06c-.04-.01-.22-.69-.22-.73v-.1s-.01-.04-.01-.04v-.09c0-.08 0-.36.01-.42.03-.17.06-.39.06-.55t.01-.07s.01-.1.01-.13v-.04s.02-.06.02-.06c0-.03 0-.11 0-.11 0-.19.03-.39.08-.56.1-.34.22-.75.39-1.07.13-.24.46-.96.46-1.01.02-.17-.53-.55-.69-.65-.04-.03-.27-.23-.42-.36-.03-.02-.06-.06-.09-.1l-.05-.04s-.02-.01-.14-.12c-.06-.05-.11-.1-.16-.16-.02-.02-.05-.05-.08-.09l-.03-.02-.04-.06c-.12-.1-.26-.23-.33-.35-.08-.13-.22-.25-.34-.34-.1-.07-.32-.23-.35-.29-.18-.47-.12-1.5.08-1.87m2.41-8.01c0-.15-.08-.24-.21-.38t-.04-.04l-.03-.02-.04-.04s-.06-.07-.06-.07c-.16-.2-.27-.41-.37-.66-.02-.04-.03-.12-.04-.15v-.07q0-.14 0-.17c-.01-.2.29-1.07.41-1.24.14-.2.52-.63.78-.68.09-.02.25-.05.32-.01.43.23.52.79.5 1.27 0 .09 0 .25-.03.32-.02.07-.02.12-.03.21v.09s0 .13 0 .13c-.04.21-.12.71-.07.77.07.08.21.23.26.28l.06.03.05.04.03.02s.11.09.15.13c0 0 .11.09.13.11 0 0 .15.17.22.24l.03.06s.05.05.07.08l.03.05.02.06c.07.04-.08.72-.17.79-.05.04-.15-.06-.17-.08s-.11-.09-.15-.12c-.1-.07-.2-.15-.3-.21-.04-.02-.11-.08-.16-.12l-.1-.08h-.05s-.03-.05-.03-.05l-.13-.07c-.06-.04-.17-.11-.19-.11-.08-.02-.15 0-.22.03-.05.02-.54.57-.58.63-.07.11-.2.28-.32.35-.02.01-.04.04-.06.06-.03.03-.06.07-.13.12v.03s-.08.05-.08.05t-.03.05l-.03.02-.04.05s-.03.02-.04.04c-.02.03-.02.03-.04.05-.03.02-.05.05-.08.07l-.04.04s-.02.03-.04.04c-.06.04-.13.09-.18.13-.05.05-.13.12-.16.14-.06.03-.15.11-.24.19-.03.02-.1.08-.1.08-.06.04-.12.09-.17.13-.04.04-.14.11-.19.12-.03 0-.42.21-.57.29l-.08.05h-.03s-.12.09-.16.11c-.05.02-.1.05-.14.08s-.1.07-.14.09h-.03s-.08.07-.08.07c-.06.03-.17.08-.2.09-.14.04-.25.09-.37.15-.04.02-.13.06-.13.06l-.05.02-.05.02s-.06.04-.07.04t-.06.04s-.06.04-.09.06c-.04.02-.11.06-.19.06-.06 0-.1-.1-.12-.15-.03-.08.03-.2.07-.25.03-.04.1-.07.15-.09.07-.02.15-.07.2-.11l.06-.03.04-.02.05-.04.06-.04.03-.02s.08-.05.1-.06c.2-.13.41-.29.64-.45l.05-.04.03-.02.08-.06.03-.02.03-.02s.07-.05.11-.08c.04-.04.1-.08.15-.11s.11-.07.18-.13l.05-.04.04-.04c.11-.08.24-.17.34-.23.18-.09.39-.24.56-.38.07-.06.24-.2.28-.22 0 0 .12-.08.17-.12l.06-.07s.05-.06.08-.09c.17-.15.44-.39.52-.47l.05-.05s.05-.05.07-.06c0 0 .1-.11.15-.17t.03-.05l.02-.03s.05-.06.06-.07l.05-.09s.03-.06.03-.06m34.76 13.77s-.16.41-.18.47c-.03.11-.14.3-.21.38-.08.1-.21.25-.25.28-.02.01-.04.03-.07.07l-.05.04-.06.04-.06.04-.05.02s-.49.16-.55.16c0 0-.08.01-.16.03h-.03q-.1-.02-.24-.02c-.08 0-.38-.01-.38-.01-.07-.01-.4-.1-.62-.16-.15-.04-.32-.14-.45-.22-.16-.1-.33-.2-.45-.33-.11-.12-.23-.25-.34-.35-.06-.06-.13-.14-.17-.21-.05-.08-.1-.17-.16-.22-.1-.09-.23.1-.27.17l-.07.14-.04.07s-.02.02-.03.05c0 0-.03.05-.05.08-.14.21-.31.42-.47.63-.27.33-.93.73-1.35.81-.05.01-.13.05-.19.07-.04.02-.13.04-.21.07-.2.06-.4.09-.62.09-.42 0-.79-.02-1.18-.17-.12-.05-.25-.12-.36-.19-.06-.04-.14-.09-.17-.08-.01 0-.04.02-.05-.02 0-.04-.01-.04-.07-.1l-.1-.11c-.06-.03-.11-.08-.16-.13s-.1-.1-.14-.16c-.03-.04-.07-.1-.11-.14 0 0-.08-.13-.09-.16l-.02-.03-.04-.06c-.02-.05-.04-.1-.04-.11-.03-.04-.06-.11-.09-.18-.02-.05-.03-.08-.04-.12 0-.02-.02-.07-.03-.09-.02-.03-.07-.26-.07-.32 0-.02-.01-.14-.02-.26 0-.07-.02-.15-.04-.2-.09-.18-.31 0-.39.06-.05.04-.14.1-.24.16-.03.02-.06.04-.08.06-.04.03-.09.08-.13.12-.04.05-.1.11-.17.14 0 0-.08.07-.1.08 0 0-.03.03-.04.04l-.11.07-.02.03-.04.02-.04.02s-.03.03-.05.04l-.08.06s-.05.04-.08.06c-.04.03-.05.04-.07.05-.12.07-.24.16-.33.26-.09.09-.21.17-.32.24-.39.23-.41.32-.45.85-.04.46-.08.97-.15 1.37-.03.16-.2.54-.34.82 0 0-.08.12-.1.16-.02.03-.04.06-.06.08s-.04.05-.05.07c-.08.12-.17.27-.24.36-.64.78-1.32 1.59-2.09 2.19-.09.07-.18.17-.26.27-.05.05-.1.1-.15.15-.04.03-.09.08-.13.12-.02.02-.05.05-.08.06-.04.03-.05.03-.12.09l-.03.02s-.05.05-.08.07c-.04.04-.11.1-.18.14-.01 0-.04.03-.05.03-.03.02-.06.03-.08.05-.17.17-.4.33-.6.46-.07.04-.65.48-.65.48-.01.04-1.41.79-1.53.84-.03.01-.06.03-.09.05l-.08.06c-.06.02-.22.07-.22.07-.04.02-.12.05-.18.06s-.15.05-.24.07c-.25.08-.66.18-.96.26-.18.05-.45.06-.63.06-.07 0-.24 0-.32.01-.07 0-.2.02-.25.02-.9-.07-1.81-.36-2.42-.96l-.05-.04s-.02-.02-.04-.04c-.03-.03-.05-.06-.08-.09-.06-.07-.17-.21-.18-.22-.02-.02-.07-.07-.07-.08-.03-.05-.06-.11-.09-.13-.02-.01-.16-.21-.17-.23-.01-.03-.04-.09-.06-.12-.03-.04-.06-.08-.07-.11-.05-.1-.09-.19-.13-.31-.09-.23-.23-.64-.24-.74-.01-.19-.07-.52-.11-.77-.02-.14-.01-.22.02-.34.01-.05 0-.1-.01-.16s0-.18.01-.25t0-.08v-.05s0-.02 0-.07c.01-.04.01-.07.01-.12 0-.06 0-.19 0-.25.03-.24.08-.73.06-.79-.01-.03-.07-.07-.11-.06-.1.01-.37.17-.42.23-.05.07-.29.23-.39.27-.11.05-.32.19-.42.27-.13.1-.27.2-.43.3l-.05.04s-.07.04-.11.06c-.03.01-.1.05-.11.06 0 .01-.07.05-.1.07-.07.04-.14.09-.2.14-.01 0-.04.02-.07.03 0 0-.06.02-.06.02l-.05.05-.04.02-.03.02c-.11.09-.26.18-.41.27-.16.09-.42.24-.48.29-.02.02-.25.14-.42.23-.14.07-.43.24-.45.25-.24.17-.62.37-.9.48-.18.07-.35.16-.52.25-.06.03-.32.17-.49.25-.14.07-.48.25-.48.25-.07.05-.43.22-.48.22h-.04s-.05.03-.05.03l-.09.02h-.04s-.06.03-.06.03c-.03.02-.08.03-.13.04-.06.01-.23.04-.27.05h-.04s-.06.02-.06.02-.12.02-.14.03c-.3.06-.6.13-.9.21-.24.07-.56.14-.83.19-.17.04-.38.07-.54.1q-.06 0-.11.02c-.05 0-.17.03-.17.03-.09.01-.2.03-.26.04-.59.12-1.14.24-1.75.4t-.08.02s-.1.02-.15.02c-.04 0-.04 0-.05 0t-.12.02h-.03s-.03.03-.03.03c-.04.01-.08.03-.11.04-.05.01-.13.01-.18.01l-.1.02c-.14.07-.73.19-.79.04-.03-.06.38-.34.43-.35q.05-.02.07-.03s.03-.02.04-.02l.08-.03h.05s.07-.04.07-.04l.05-.02.07-.03.07-.02s.1-.03.12-.04c.18-.09.37-.16.57-.24.11-.04.19-.08.28-.13s.18-.08.3-.11c.2-.05.47-.16.63-.25.14-.07.43-.17.65-.24.18-.06.66-.24.68-.25 0 0 .54-.24.58-.24l.08-.05.08-.04.1-.05.06-.02.08-.02c.08-.04.23-.12.32-.18h.07s.08-.04.13-.06c.06-.02.12-.05.17-.09.05-.03.1-.07.15-.09l.03-.02s0 0 .06-.03c.03-.01.12-.05.12-.05.03-.02.09-.06.12-.07h.04s.06-.04.06-.04c.03-.01.06-.03.09-.05.04-.03.12-.07.18-.1l.07-.03.04-.02s.07-.04.1-.06c.1-.07.24-.13.35-.17.09-.03.24-.12.33-.18.46-.29.95-.57 1.43-.81.09-.04.35-.19.35-.19.02-.02.21-.13.31-.18.13-.07.28-.16.35-.2.06-.03.12-.07.17-.11.02-.01.13-.08.19-.11l.04-.02s.08-.04.08-.04c.08-.05.09-.06.16-.09.12-.05.25-.12.36-.19.23-.15.56-.37.69-.44.1-.05.31-.16.35-.19.09-.09.25-.2.35-.25.04-.02.11-.07.15-.1.05-.04.1-.08.15-.1l.08-.05.06-.03h.03c.05-.06.11-.11.17-.14.27-.16 2.42-1.77 2.45-1.82 0 0 .81-.73.82-.74.18-.12.65-.61.72-.81.02-.04.04-.1.04-.12v-.17c.02-.07-.34-.89-.4-.95-.05-.05-.31-.52-.47-.8-.07-.13-.17-.31-.22-.38-.03-.04-.17-.28-.26-.45l-.02-.03s-.05-.08-.06-.09c-.02-.04-.04-.08-.05-.1-.02-.04-.05-.1-.07-.15 0 0-.09-.16-.13-.24t-.03-.05s-.02-.04-.04-.06-.02-.03-.04-.06c-.26-.55-.51-1.26-.73-1.86-.05-.14-.14-.31-.23-.44-.03-.05-.04-.19-.04-.24q.01-.2.02-.25c.02-.07.04-.14.04-.19.01-.24.03-.41.11-.61.02-.07.06-.17.07-.26 0-.09.04-.17.07-.24.01-.03.11-.05.15-.01.06.06.1.1.13.17.02.05.07.11.11.15.05.05.2.21.29.31.09.09.27.29.31.32.05.03.24.2.31.26.26.23 1.04 1.01 1.06 1.17.02.1 0 .12-.04.19 0 .02-.11 0-.13-.01t-.08-.02s-.1-.02-.1-.02c-.13-.02-.35-.06-.49-.05-.04 0-.1.06-.11.1-.04.16.28.72.38.83 0 0 .08.12.12.19.02.03.04.07.05.1.02.06.04.12.09.17v.04s.02.04.02.04c.02.04.05.1.08.15t.06.08l.03.05.02.04c.29.47.7 1.15.82 1.61.11.4.18.92.14 1.33-.01.15-.04.31-.04.39 0 .09-.02.18-.04.32-.02.13-.05.35-.05.43 0 0-.01.12-.02.16q-.01.1-.03.14s-.02.05-.02.06c0 .09-.18.5-.26.64-.04.09-.32.43-.48.61-.08.09-.2.24-.28.28-.1.06-.19.18-.27.27-.24.3-.79.71-1.21 1.02-.05.04-.21.44-.23.52-.07.29-.11.49-.14.77-.06.53.05 1.13.23 1.6.14.36.34.67.57.93.1.12.26.31.35.36.07.05.14.09.2.15l.2.14c.11.04.19.08.28.12.03.01.08.05.11.07h.06s.06.03.06.03h.04s.03.02.03.02c.17.08.48.15.77.21.22.05.59.05.81 0 .14-.02.38-.04.54-.04.05 0 .11-.01.14-.02.07-.02.15-.03.21-.03.18-.01.48-.12.65-.19.22-.09.49-.2.72-.26.09-.02.24-.09.32-.15s.2-.12.29-.17c0 0 .07-.04.1-.06.05-.03.1-.06.16-.09.05-.03.15-.09.15-.09t.09-.05s.03-.03.03-.03c.05-.02.22-.12.32-.19l.06-.04.07-.04.03-.02s.03-.03.04-.03c.02 0 .09-.06.12-.08t.05-.04s.05-.03.08-.05c.04-.03.09-.07.12-.1.01-.02.1-.07.14-.1.31-.2.65-.48.96-.74.14-.12.33-.28.46-.35.03-.02.07-.05.09-.08 0 0 .09-.08.12-.1t.04-.04s.04-.04.07-.06l.04-.03s.06-.06.06-.06c.01 0 .16-.14.2-.18.07-.07.15-.15.23-.22.07-.06.2-.18.22-.19l.05-.05.02-.03s.04-.04.05-.04t.05-.05s.03-.04.06-.05c.18-.11.56-.56.8-.86.02-.03.07-.06.1-.09.02-.01.04-.04.07-.07t.06-.08v-.03s.04-.02.04-.02l.02-.04.03-.02.04-.04.04-.06.02-.04c.15-.18.3-.38.3-.68 0-.05-.15-.29-.23-.41-.07-.11-.43.02-.52.05-.2.07-.39.13-.59.15-.16.01-.51.05-.63.09-.04.01-.3.05-.47.08-.38.05-.94.12-1.25.03-.12-.03-.29-.09-.37-.1-.11-.02-.22-.05-.32-.1-.04-.02-.06-.02-.09-.04 0 0-.16-.09-.23-.13-.04-.03-.09-.06-.1-.07-.07-.02-.18-.17-.23-.23l-.03-.05s-.04-.06-.08-.1l-.02-.03-.04-.06-.04-.06c-.15-.13-.18-1.2-.15-1.37 0-.03 0-.07 0-.11l.02-.09v-.05s.04-.17.05-.27c.04-.22.13-.45.21-.6.17-.31.33-.62.58-.87.05-.05.11-.12.16-.17.03-.03.06-.06.09-.08.02-.02.06-.05.09-.09.02-.02.11-.09.16-.12l.03-.02.02-.03s.09-.06.12-.07c0 0 .12-.07.12-.07s.18-.07.2-.07l.14-.03h.04c.14-.05.39-.07.52-.03h.07s.09.01.14.03t.11.02q.06.01.11.02s.29.11.46.18c.22.08.43.26.61.4l.11.09c.06.04.13.09.21.16.02.01.04.04.07.07.02.02.12.11.13.11 0 0 .24.28.25.29.03.05.08.1.13.15.03.03.07.09.14.19.04.04.06.09.1.15 0 0 .1.15.14.21.03.05.1.14.1.14 0 .01.15.18.15.18 0 .02.09.03.1.03.09 0 .14-.01.21-.04.08-.03.25-.1.29-.12.07-.05.15-.09.23-.13.07-.03.18-.09.25-.14.29-.21.61-.42.92-.61.04-.03.08-.05.12-.08l.04-.05s0 0 .05-.03l.04-.05s.04-.03.04-.03c.02-.01.08-.06.16-.12l.02-.03.06-.04.08-.06s.03-.02.04-.04t.1-.08s.04-.02.05-.03c.14-.08.3-.2.42-.3.08-.07.34-.23.45-.25.06-.01.2-.04.25.02.14.13.16.38.15.58 0 .09-.02.19-.03.28s-.05.33-.03.44c.04.31.2.61.38.81.06.07.23.25.28.27 0 0 .12.1.19.16.06.04.16.13.2.14.3.13.81.34 1.11.32h.09.09.2c.03 0 .13-.01.17 0 .1 0 .17 0 .26-.02.19-.04.47-.12.66-.2.02 0 .08-.04.1-.06t.05-.03l.05-.04c.06-.03.1-.05.16-.09l.05-.02s.06-.03.06-.03c.15-.08.37-.2.48-.33.03-.03.08-.07.14-.13l.09-.11s.03-.04.04-.05c.01 0 .02-.03.04-.05 0-.01.04-.04.06-.07.06-.06.14-.17.18-.25.03-.07.1-.21.16-.26 0 0 .04-.08.05-.09v-.03s.05-.06.05-.06l.04-.05.02-.06v-.03s.03-.03.03-.03t.04-.07s.03-.06.05-.08c.12-.16.22-.37.28-.56.07-.19.77-1.22.73-.51 0 .16-.18.56-.26.67-.06.08-.28.55-.21.69s.12.26.2.35c.1.12.35.3.52.37h.03s.02.04.02.04l.05.02h.03s.05.05.05.05c.03.02.08.05.1.05t.04.02s.06.03.08.04c.02 0 .18.07.18.08l.22.07h.09s.05.02.07.03c.02 0 .05 0 .07.01.05.02.06.03.07.03h.19c.05.02.14.03.2.03h.16s.34 0 .33-.02c0 0 .2-.06.22-.06.09-.02.19-.04.24-.1.06-.06.06-.13.05-.22 0-.02-.02-.11-.05-.19v-.05s0-.03 0-.03h-.03s-.01-.07-.01-.07c-.01-.06-.2-.41-.25-.43-.07-.02-.27-.33-.24-.41v-.12l.02-.07v-.04c0-.07.04-.17.05-.23.04-.15.1-.33.1-.44.01-.17.13-.58.25-.68.23-.19.76 1.13.76 1.26l.02.11v.03s.04.04.04.06c0 0 .04.19.05.3.03.13.07.34.07.37 0 .08.01.18.04.29.01.05 0 .17 0 .25v.06s-.01.11-.02.13c-.02.06-.04.13-.04.18 0 .03 0 .08-.01.11 0 .05-.02.09-.03.14 0 .04-.01.08-.03.12-.02.05-.05.16-.05.17m-42.53-18.09s.11 0 .13.05v.04s.05.09.05.09v.04c.03.05.07.15.07.16.02.04.04.09.06.14l.03.07.03.07c.1.21.21.46.29.61l.04.07s.03.04.03.05c.02.05.06.13.06.13l.02.03.03.02.05.1.03.07v.04s.03.04.03.04l.04.05.03.05v.04s.03.07.03.07v.03c.05.08.1.18.13.25.08.21.17.39.27.58.04.07.17.37.26.58.15.35.4.96.4 1.22 0 .07-.03.21-.08.24-.05.02-.14.03-.18-.02-.13-.14-.64-.65-.67-.65-.05-.02-.08-.03-.14 0-.05.02 0 .45 0 .55v.1s.02.08.02.08c.01.07.01.12.02.16 0 .04 0 .1.02.15 0 0 .01.07.01.11s.01.12.01.13v.12c.02.07.05.21.05.24 0 .09.02.28.05.45.04.28.11.66.17.97.06.32.15.81.15.98 0 .1.1.65.16.95l.02.09v.06q.03.08.03.08c.01.06.03.19.04.23.02.12.1.52.1.52.01.09.04.26.05.33v.12s.03.1.03.1v.12c.01.07.06.31.06.31.01.04.04.23.06.34v.06s.03.07.03.07v.08s.02.07.02.07c0 .03.01.09.02.15 0 .05.01.11.03.15v.11s.01.03.01.03v.07s.02.04.02.04v.07s.01.05.01.05.01.06.02.11c.12.67.31 1.74.32 1.98.01.15.04.4.09.53.04.09.07.39.1.61.04.41.11.88.16 1.26.05.37.09.75.11 1.14 0 .12.06.64.1.94v.2t0 .16v.22c.02.2.04.4.02.6-.02.23-.04.6-.04.7 0 .22-.02.49-.04.69 0 .06-.02.23-.02.25 0 .06-.01.12-.02.15-.01.05-.02.07-.02.09 0 .21-.12.52-.2.71-.01.03-.07.24-.08.32l-.03.05-.02.08v.05s-.05.11-.05.11v.03s-.07.09-.09.1c-.01 0-.04.02-.06.02h-.05s-.04-.05-.04-.05.01-.27.02-.28c.02-.13.03-.26.04-.42.01-.26.01-.48 0-.76 0-.06 0-.09-.02-.15-.02-.09-.03-.21-.04-.29-.01-.12-.03-.32-.03-.39 0-.09 0-.31-.02-.35v-.03s-.03-.07-.03-.07v-.05s.02-.17.02-.17v-.05c-.04-.42-.09-.91-.16-1.34-.01-.09-.03-.19-.04-.29-.01-.12-.02-.24-.04-.33-.01-.07-.04-.27-.04-.3-.01-.1-.03-.21-.06-.29-.02-.07-.08-.5-.11-.7-.02-.2-.11-.77-.11-.77-.01-.06-.02-.11-.02-.14 0-.04-.01-.09-.02-.12-.02-.08-.03-.19-.03-.26 0-.16-.05-.42-.08-.54 0-.02-.03-.17-.04-.25 0-.06-.02-.13-.04-.18v-.04s-.02-.08-.02-.08v-.07s-.03-.13-.04-.17v-.06s-.01-.03-.01-.03t0-.08s0-.03-.02-.07c-.01-.03-.02-.1-.02-.14v-.09s-.03-.09-.03-.09c-.02-.11-.04-.22-.05-.32 0-.08-.02-.19-.04-.31-.02-.13-.05-.27-.05-.34 0 0-.02-.16-.04-.27-.29-1.87-.72-4.7-.85-5.72-.01-.11-.04-.26-.07-.39 0-.04-.05-.24-.05-.28-.01-.17-.04-.48-.09-.64 0-.01 0-.12 0-.14 0 0-.02-.12-.03-.16l-.02-.12v-.03s-.01-.07-.01-.07l-.02-.11c-.04-.24-.09-.54-.09-.7 0-.07-.04-.46-.07-.77-.02-.22-.05-.51-.09-.66 0-.02-.01-.11-.02-.17 0-.04-.02-.14-.02-.18-.02-.15-.05-.33-.08-.4-.01-.04-.04-.08-.05-.11l-.02-.06v-.06s-.04-.09-.04-.09c0-.02-.02-.04-.03-.06t-.03-.06s-.02-.05-.02-.08c0-.02-.02-.1-.02-.11-.01-.02.07-.41.1-.47 0-.01.02-.07.02-.08v-.06s.03-.08.03-.08c.02-.1.05-.2.07-.27.01-.03.05-.11.06-.15v-.04s.02-.05.02-.05l.02-.08v-.04s.02-.04.02-.04.07-.16.1-.22c.02-.03.1-.18.12-.15m-.26 24.08c.03-.11-.26-.34-.36-.36-.07-.01-.24.05-.28.09-.07.09-.46.52-.48.53-.15.09.02-.55.03-.59s.04-.1.07-.14t.03-.07v-.03s.03-.07.03-.07l.04-.08.02-.03.02-.04.04-.05s.04-.07.04-.09l.03-.02.04-.07s0 0 .04-.05c.02-.02.03-.04.06-.06.02-.01.07-.07.09-.1v-.03s.04-.02.04-.02l.05-.05s.07-.07.09-.1c.02-.01.04-.03.05-.04.02-.03.21-.05.28-.03.05.02.11.03.14.07.02.02.08.06.11.06.02 0 .18.27.19.32.17.49-.03 1.34-.24 1.78-.09.18-.22.4-.35.56-.04.06-.14.17-.21.25t-.08.08l-.02.03-.02.03s-.09.1-.11.12c-.04.05-.16.17-.23.23-.06.06-.16.19-.25.3-.02.02-.08.09-.08.09t-.04.05s-.03.03-.05.06c-.02.04-.07.1-.1.13l-.05.04s-.05.04-.06.06c0 0-.26.17-.32.21l-.06.04-.06.03s-.21.11-.21.05c0-.12.17-.27.26-.35.04-.04.22-.27.29-.37.02-.03.03-.04.06-.07s.05-.06.08-.09l.02-.03s.03-.04.04-.05c0-.01.03-.03.05-.05l.04-.04.09-.12s0 0 .04-.06c.03-.04.06-.08.12-.16l.04-.04c.09-.13.38-.48.58-.71.01-.02.06-.06.06-.06t.04-.07s.01-.02.05-.07t.04-.06s.03-.05.03-.05t.03-.06c.05-.07.17-.56.13-.59m-8.86-12.67s.09-.32.12-.42t.02-.07s.02-.07.03-.1l.03-.09c0-.06.01-.11.02-.11.01-.02.11-.27.14-.37l.02-.06s.03-.08.04-.13l.02-.03s.02-.03.03-.05v-.04s.05-.05.05-.05c.14-.43.43-1.27.67-1.43.02-.02.13-.06.13 0 0 .08 0 .17-.02.24 0 .02 0 .03-.02.06-.02.04-.03.07-.03.11 0 .01-.1.17-.12.19l-.05.12-.02.06-.18.37c-.1.21-.23.62-.33.92-.03.09-.03.38-.03.55v.48s.02.05.03.11c.02.08.02.1.02.18 0 0 .04.11.04.13l.02.09s.03.1.04.14c.02.07.04.13.06.18l.03.07.03.07.02.05s.18.26.24.32c.06.07.21.17.31.24.03.02.19-.03.22-.06.04-.04.06-.1.07-.14.02-.07.07-.19.11-.28l.02-.04s.02-.06.03-.09v-.04s.03-.05.03-.05l.02-.03c.02-.05.03-.08.05-.09.03-.02.08-.04.12-.01s.03.27.02.37c-.01.16-.52 1.46-.54 1.47-.01 0-.09.12-.1.14-.03.06-.08.14-.13.17-.16.11-.36.11-.53.02-.12-.06-.29-.2-.36-.31-.23-.34-.37-.62-.45-1.04-.04-.23-.04-.61-.04-.94 0-.02 0-.09 0-.13v-.06s.02-.04.02-.04c0-.02 0-.04 0-.07t0-.07l.02-.09v-.06s.02-.12.02-.12v-.04s.02-.06.02-.07m.51 8.17c.15-.02.25-.07.37-.16.1-.08.24-.16.36-.21.13-.05.66-.41.65-.53 0-.19-1.29-.2-1.39-.19-.09 0-.18.01-.25.01h-.23s-.14 0-.15.01h-.04s-.1.02-.1.02h-.07s-.1.02-.14.03-.1.03-.11.04c-.02.01-.06.13-.02.13 0 0 .58.48.6.5l.03.02s.04.04.07.06c.02.01.06.05.06.05.05.04.11.08.17.12l.03.02s.01.01.07.06l.04.02h.04zm-.94 5.49-.03-.02s-.02-.02-.06-.02-.13-.02-.14-.01c-.11.06-.44.26-.45.28l-.08.11s-.05.05-.07.08c0 .01-.19.22-.2.11-.04-.19.11-.6.19-.82.04-.11.1-.22.16-.31t.03-.04s.03-.07.06-.09c.03-.03.09-.09.1-.13 0 0 .11-.08.13-.1.04-.03.1-.08.14-.11.12-.11.27-.14.43-.17.03 0 .12.05.14.07t.06.04s.05.05.08.06c.15.08.23.6.27.89 0 0-.02.25-.03.32 0 .07-.01.14-.03.2q-.02.09-.02.11s-.02.04-.02.07c0 .05-.11.3-.14.35t-.03.05s-.05.08-.08.14l-.05.05s-.04.05-.06.08c-.05.09-.15.24-.17.3-.04.1-.12.25-.21.31-.07.05-.36.33-.49.46-.07.07-.18.18-.22.21l-.07.07s0 .01-.04.04c-.06.06-.11.11-.15.12-.02 0-.04.03-.05.04t-.04.03s-.11.05-.14.06c-.05.02-.12.04-.13.05l-.03.02h-.04s-.03.03-.03.03l-.06.03c-.35.11-.19-.14-.05-.26.23-.21.51-.51.76-.77l.05-.04s.01 0 .04-.05t.09-.08s.06-.06.09-.1l.07-.08s.03-.04.04-.05c.11-.1.28-.25.36-.38.02-.03.06-.07.09-.12t.07-.1c.06-.08.11-.2.16-.31.08-.17-.07-.67-.21-.64m-4.69-24.52c.07-.03.18-.04.27 0 .09.05.21.12.27.16.07.05.17.12.22.14.02.01.18.12.27.19l.03.02.03.02s.13.1.14.1c.03.01.07.05.1.08l.02.03.07.07s.06.06.09.07c0 0 .08.07.12.11.12.11.26.23.36.36.11.14.21.26.34.38.11.11.24.27.34.4.03.03.05.07.08.1 0 0 .06.08.09.12l.03.02.04.05.04.06.02.04s.04.07.06.09c0 0 .05.08.06.11.02.04.05.08.08.11.06.07.15.18.24.15.06-.02.09-.33.1-.46v-.18s.01-.04.01-.04v-.04s0-.07 0-.07v-.07s0-.04 0-.04v-.06c.01-.05.02-.21.02-.21s0-.1.01-.17c.01-.14.03-.35.05-.39 0-.02.02-.14.03-.17 0-.05.02-.12.03-.17.02-.07.08-.32.09-.33.01-.02.03-.07.04-.1.02-.06.04-.13.05-.16.03-.08.06-.14.07-.17 0 0 .05-.11.07-.15.14-.33.34-.53.68-.72.07-.04.25 0 .35.02.09.02.36.27.41.35.17.25.44 1.06.31 1.43-.03.09-.18.5-.28.41-.02-.02-.1-.14-.13-.19l-.03-.05v-.04s-.07-.09-.07-.09q-.03-.07-.04-.08c-.09-.11-.21-.27-.29-.39-.22-.34-.8-.23-.89.17-.08.35-.1.76-.1 1.12 0 .35 0 .74-.1 1.1 0 .03-.02.16-.02.2 0 .07-.02.14-.03.23-.03.15-.07.38-.1.52-.01.06-.03.14-.05.21v.04s-.02.06-.02.06v.07s-.03.04-.03.04v.07s-.02.04-.02.04c-.04.12-.12.37-.17.38-.07.01-.18-.28-.22-.37-.02-.04-.13-.27-.23-.45-.14-.27-.32-.53-.54-.79l-.04-.05v-.03s-.06-.04-.06-.04c-.05-.06-.1-.11-.15-.17-.1-.1-.19-.21-.28-.32-.1-.12-.21-.25-.33-.35l-.05-.08h-.05s-.02-.04-.02-.04-.04-.03-.04-.04c-.05-.03-.13-.08-.18-.12-.07-.06-.18.06-.21.11s-.07.09-.12.12c-.08.05-.58-.28-.65-.32l-.03-.02-.08-.04-.11-.09s-.05-.02-.05-.04c0 0 0-.01-.07-.06-.04-.03-.11-.09-.12-.1-.06-.04-.13-.28-.14-.39-.02-.13.03-.36.07-.52.07-.31.13-.47.32-.67m-4.35 13.91s.2-.24.23-.28c.01-.02.18 0 .22 0 .26.02 1.55.92 1.58 1.09.02.08.03.18 0 .28-.08.24-.38.99-.57 1.06-.07.03-.21.08-.23.07-.06-.03-.18-.08-.2-.08 0 0-.16-.08-.22-.11-.05-.03-.14-.1-.21-.15-.07-.06-.15-.1-.23-.15-.2-.1-.72-.4-.77-.62-.01-.05.36-1.04.41-1.11m-4.25-2.09.1-.07s.09-.07.12-.08t.09-.07l.22-.13.09-.03s.07-.07.12-.1c.1-.06.27-.15.33-.17l.13-.08.06-.04.04-.02s.04-.01.08-.03c.11-.06.23-.12.36-.19.05-.03.11-.06.17-.08.07-.03.13-.06.2-.09l.05-.04.09-.05s.06-.03.11-.06l.04.04v-.04s.04-.04.04-.04h.04s.04-.02.04-.02l.05-.03s.06-.03.09-.05c.02-.01.07-.04.1-.05.15-.07.4-.2.46-.22.05-.02.11-.04.12-.05.03-.02.11-.06.16-.08t.06-.03l.06-.03q.05-.02.06-.03s0 0 .04-.02l.07-.05s.05-.02.08-.03l.06-.02.05-.04.06-.03c.07-.02.1-.04.16-.06l.04-.02.06-.03h.04s.05-.03.05-.03l.05-.04.06-.02.1-.06.05-.02h.04s.06-.04.1-.06q.07-.03.08-.04s.05-.02.05-.02c.02 0 .2-.08.3-.12.16-.07.46-.2.54-.24s.18-.09.26-.11c.11-.04.24-.08.34-.13.03-.02.3-.13.46-.19.16-.07.47-.19.51-.2.14-.04.41-.13.54-.21.06-.04.17-.07.24-.1.11-.03.22-.08.32-.12h.03s.06-.04.07-.05t.06-.03l.1-.03.1-.04s.03-.02.11-.04q.06-.02.08-.03c.07-.03.19-.07.26-.1.07-.02.18-.07.26-.12l.03-.02q.08-.02.12-.05h.05s.04-.02.04-.02c.1-.04.17-.07.27-.12.09-.04.18-.08.28-.12.05-.02.17-.07.22-.1s.13-.06.19-.08c.07-.02.19-.06.27-.1.01 0 .4-.16.61-.24.36-.15.76-.3 1.1-.42.37-.13.89-.32 1.1-.42.09-.05.15-.06.26-.09s.25-.08.34-.12c.08-.04.19-.07.25-.09.08-.02.2-.07.3-.12.32-.15.7-.31 1.03-.4.08-.02.17-.06.26-.1.01 0 .04-.01.17-.04.05-.01.12-.03.16-.05.31-.13.43.08.31.35-.02.05-.08.16-.12.23-.04.05-.11.15-.14.23-.05.13-.15.27-.26.37 0 0-.08.04-.09.04-.07.02-.16.04-.18.05h-.06s-.09.02-.09.02l-.04.02-.08.02h-.07c-.14.05-.4.14-.56.21h-.04s-.04.02-.04.02-.09.04-.14.05c-.08.03-.21.08-.27.11-.04.02-.2.08-.28.12t-.08.01h-.06s0 .04 0 .04l-.1.02-.08.03-.05.02-.04.02s-.1.04-.14.05l-.06.03-.05.02q-.06.02-.09.03s-.07.02-.09.03c-.2.07-.36.13-.57.21-.07.03-.19.08-.22.09-.06.02-.12.04-.19.07-.17.08-.45.21-.58.24-.2.05-.41.14-.58.23-.11.06-.36.16-.5.2-.09.02-.17.05-.25.09s-.15.06-.25.09c-.09.03-.21.08-.28.11-.09.04-.22.11-.29.13-.27.1-.71.31-.98.45-.08.04-.16.08-.26.11-.12.04-.25.08-.39.14h-.05s-.04.02-.04.02c-.03.03-.11.06-.16.07-.02 0-.08.03-.11.04-.02 0-.04.02-.06.03t-.05.02c-.1.02-.2.07-.29.12-.05.03-.1.05-.14.06-.04 0-.12.04-.15.06-.02.01-.06.02-.1.03s-.08.03-.12.05l-.06.03q-.07.03-.08.03l-.07.03h-.06s-.04.02-.04.02c-.67.28-1.44.62-2.11.91-.01 0-.08.04-.11.06h-.05s-.07.05-.07.05h-.04c-.08.05-.17.1-.25.13-.1.05-.18.08-.27.13-.08.04-.2.1-.26.13-.17.07-.33.14-.49.22s-.34.18-.49.24c-.33.14-.66.31-.97.49-.12.07-.31.18-.4.22h-.04s-.03.02-.11.06l-.05.02-.07.03s-.08.05-.12.07t-.05.03s-.04.01-.07.03c-.15.08-.46.24-.48.26-.08.06-.44.26-.52.22-.07-.04.18-.62.23-.69.02-.03.04-.06.06-.11.03-.14.08-.3.11-.34m-4.21-5.18s-.28 1.13-.29 1.15c-.07.11-.15 1.06-.11 1.13.02.03.02.07.02.1 0 .04.01.12.02.16.02.07.03.15.05.21.04.11.09.26.16.36 0 0 .05.1.07.13l.07.1.05.04c.11.13.18.15.39.12l.04-.03.04-.02.02-.04.1-.08s.03-.03.04-.04c.01-.03.03-.05.04-.06l.04-.09v-.03s.02-.04.02-.04t.02-.07s.01-.07.03-.1t.02-.06s0-.04.02-.07v-.03s.02-.04.02-.04c.01-.03.03-.06.05-.08.13-.15.1.29.08.34v.05s-.02.06-.02.06l-.02.08c-.02.1-.04.16-.06.24-.07.23-.25.78-.25.79-.11.19-.23.34-.42.45-.14.09-.39 0-.48-.11-.13-.14-.24-.29-.34-.47-.36-.64-.32-1.44-.15-2.19.02-.11.09-.32.14-.48.03-.11.07-.22.09-.3.01-.05.03-.11.03-.12 0-.02.03-.09.04-.12.04-.17.12-.36.2-.5l.03-.06c.03-.07.05-.14.07-.16.01-.03.11-.17.13-.13m.02 17.93c-.23.02-.35.1-.45.25-.04.06-.09.12-.14.17-.03.03-.05.07-.07.1 0 .02-.08.1-.08.1-.09 0 .01-.43.03-.49l.06-.26c.01-.06.03-.1.04-.13l.02-.04s.02-.03.02-.05c0-.04.05-.13.08-.19.02-.03.04-.07.06-.09q.05-.07.05-.08s.09-.15.13-.2t.06-.06l.03-.02s.02-.02.03-.04c0-.01.04.03.04.04v-.07s.06-.03.06-.03c.08-.05.21-.08.33-.06.04 0 .19.11.3.18.18.12.23.49.23.74s-.16.73-.22.93c-.09.28-.21.62-.33.84-.13.23-.29.47-.56.7 0 0-.04.04-.07.06-.02.02-.05.05-.07.07s-.04.05-.08.07l-.06.08s-.03.03-.04.04c-.02.02-.07.07-.13.12-.12.12-.89.48-.49.07.04-.04.08-.09.12-.14.04-.06.08-.11.11-.17.07-.09.15-.2.22-.28s.26-.3.26-.3c.1-.09.19-.21.27-.32.04-.05.07-.1.12-.14.04-.04.1-.1.12-.15.02-.04.04-.06.09-.11t.06-.09s.03-.03.05-.07t.03-.04s.11-.24.14-.31c.02-.05.04-.15.02-.23v-.07s-.02-.01-.02-.03c0-.04-.32-.35-.4-.31m-6.7.07s.1.05.11.06c.02.02.06.04.1.06.06.03.08.04.12.07l.04.09h.03s.01-.04.01-.04.07.04.08.04c0 0 .05.04.06.04.03.02.07.05.08.06 0 0 .29.18.3.19.1.05.53.34.56.46.06.23-.16.6-.3.8-.1.14-.4.52-.44.54-.21.08-.38.07-.53-.07-.11-.1-.28-.19-.38-.23-.05-.03-.18-.09-.22-.14h-.06s-.04-.03-.04-.03c-.04-.02-.12-.07-.14-.07-.07-.05-.14-.11-.21-.18l-.05-.03s-.03-.03-.01-.09l-.03.02h-.03s-.03-.05-.04-.07c-.01-.07-.03-.17-.03-.24 0-.22.48-1.03.62-1.2.03-.04.12-.06.16-.06.03 0 .11 0 .15.01l.08.02zm-5.66-20.4c.06-.2.84-.61 1.02-.67.11-.04.2-.09.3-.14s.22-.12.32-.16c.08-.03.21-.08.28-.14s.22-.13.3-.17c.14-.06.7-.36 1.14-.6t.07-.03l.06-.04.07-.03s.11-.04.11-.05t.05-.02l.03-.02.04-.04s.11-.05.17-.09c.08-.05.3-.17.3-.17.11-.04.22-.1.33-.16l.04-.04h.04s.04-.03.04-.03c.06-.03.13-.06.17-.08.03-.02.08-.04.12-.05l.05-.04s.04-.03.07-.04c.16-.09.37-.2.6-.28 0 0 .11-.06.15-.08t.07-.04s.06-.03.08-.04c.04-.02.13-.05.18-.08.06-.04.13-.07.2-.09.22-.08.42-.16.61-.28.16-.1.38-.21.54-.28.24-.1.55-.23.67-.27.19-.06.41-.16.62-.25.21-.1.48-.22.66-.28.04-.01.11.01.14.05.1.18-.05.58-.13.72-.06.11-.32.3-.46.37-.24.11-.41.19-.6.31 0 0-.07.01-.07.01t-.05.03s-.11.06-.16.08l-.07.04-.05.02-.09.05h-.03s-.08.04-.1.05l-.31.15-.09.05h-.04s-.04.03-.04.03l-.07.03h-.04s-.1.05-.1.05c-.21.1-.37.18-.58.29-.23.12-.39.2-.62.29-.09.04-.17.07-.27.12-.11.06-.22.11-.34.16-.08.03-.17.08-.25.13-.09.06-.24.14-.34.17-.09.03-.24.12-.3.16-.08.06-.22.14-.29.17-.06.02-.09.04-.14.07s-.11.06-.17.08c-.1.03-.29.13-.37.2-.05.04-.45.24-.62.33-.11.05-.23.12-.33.18-.08.06-.2.14-.29.17-.23.1-.48.22-.67.34-.19.13-.52.28-.76.36-.06.02-.45.23-.7.37-.25.13-.25-.15-.21-.34 0-.03.02-.15.03-.27 0-.03.01-.07.02-.1.02-.05.04-.13.04-.15m-.33 4.49c.11-.21.03-.56-.03-.8-.01-.06-.11-.22-.18-.33-.04-.06-.36-.27-.41-.11h-.03s-.03.03-.05.04c0 0-.07.06-.09.07-.06.05-.13.12-.16.15-.16.16-.05.36.1.5.05.04.12.1.18.13.07.03.14.08.2.13.12.12.28.26.47.21m-1.49 10.87.09.05s.01 0 .05.03c.07.03.16.05.22.06.18.03.45.06.49.06.31-.04.95-.11 1.16-.19.05-.02.04-.11.04-.15-.02-.1-.36-.37-.47-.43-.04-.02-.1-.06-.14-.09s-.1-.06-.15-.08c-.07-.03-.13-.05-.18-.06h-.05s-.05-.01-.05-.01c-.02 0-.08-.02-.08-.02 0-.01-.3.04-.33.04s-.05.01-.11.03c-.04.01-.09.03-.09.03-.11.02-.3.19-.4.27-.19.17-.15.31 0 .47m-2.88-18.15s.27-.8.28-.85l.02-.06v-.04s.04-.09.06-.17c0-.03.03-.08.05-.12 0-.02.03-.08.04-.12.07-.22.31-.32.22.05-.03.12-.11.38-.17.56-.07.21-.11.42-.17.68-.05.26-.11.57-.14.83-.01.11-.02.21-.02.34v.12q0 .08.01.14s.02.07.01.09c-.03.12.17.56.25.67.05.08.11.18.14.21s.07.09.09.12t.05.05s.06.05.06.05c.01.04.26.06.29.07.17.02.32-.3.34-.42.01-.08.11-.57.21-.52.04.02.05.21.05.28v.14l-.03.06s-.01.03-.02.06c-.03.19-.1.47-.17.71-.05.19-.1.37-.18.45l-.02.03-.02.07-.06.03s-.04.02-.06.05c-.06.06-.11.11-.2.14-.55.17-1.06-.86-1.1-1.3q0-.05 0-.06s-.02-.1-.03-.14c0-.06-.02-.2-.01-.29q.01-.06 0-.09c-.03-.08-.02-.21-.01-.28.02-.13.03-.2.04-.35v-.12s.04-.05.04-.05c.02-.12.05-.27.06-.37.02-.21.06-.59.11-.67m.59 12.3c-.08 0-.42.13-.49.18-.05.04-.13.07-.19.09-.03.01-.25.09-.21 0 .06-.16.87-.88 1.05-1 .02-.01.16-.15.26-.23.08-.07.24-.23.25-.23t.1-.08l.07-.07.02-.03.03-.02.05-.05.02-.03.06-.04.02-.03.2-.15c.33-.33.75-.75 1.03-.98.21-.18.93-.88.94-1.06 0-.07 0-.16-.01-.21-.03-.06-.33-.29-.4-.33-.04-.03-.07-.05-.1-.08-.03-.04-.06-.07-.07-.08-.04-.02-.07-.05-.1-.08-.03-.04-.07-.07-.11-.1 0 0-.05-.06-.06-.07l-.06-.1s-.05-.06-.05-.07l-.02-.05-.02-.04s-.03-.06-.03-.06c-.09-.04.09-.9.1-.93.06-.23.15-.4.26-.6.1-.17.22-.37.36-.49.14-.11.41-.33.55-.35.04 0 .23-.04.25.01l.1.06.03.02s.06.05.08.08c.06.07.15.16.18.24.08.21.15.44.15.64v.69c-.05.32-.12.73-.12 1.04 0 .04.32.44.38.5v.05s.02.04.02.04c.02.04.05.07.08.1.02.03.06.07.08.1.03.05.07.14.07.14.04.04.04.28.04.37 0 .1-.15.41-.2.48s-.19-.06-.22-.09l-.04-.04-.04-.07s0 0-.03-.04l-.04-.04c-.09-.1-.34-.32-.45-.32-.1 0-.34.39-.43.53-.04.07-.14.18-.21.27-.06.07-.2.26-.21.28s-.57.63-.61.67c0 0-.05.04-.07.05l-.04.03h-.03s-.04.05-.04.05l-.09.05s-.06.06-.1.09c-.12.1-.31.25-.37.29-.2.12-.51.37-.76.57-.12.09-.36.28-.4.3-.14.09-.28.18-.41.28m-3.82-5.62s0 .04-.02.06v.04s0 .05 0 .05l-.02.05v.11s-.01.04-.01.04v.04s0 .05 0 .05c-.01.08-.05.35-.03.42v.24s.02.06.02.06v.04c.02.09.03.15.05.22.01.05.03.11.03.14 0 0 .1.22.13.28.02.05.06.12.12.22l.04.02.02.04c.04.11.32.24.47.2.03 0 .07-.05.09-.07l.05-.04s.05-.07.06-.07v-.05s.03-.03.03-.03v-.04s.02-.05.02-.05v-.04s.03-.04.03-.04v-.07s.02-.06.02-.06v-.04s.02-.06.02-.06v-.04c.02-.05.13-.32.19-.3.29.08-.39 1.86-.45 1.93-.05.07-.13.18-.23.19-.2.02-.47-.06-.59-.21-.1-.13-.19-.25-.28-.41-.01-.02-.03-.06-.04-.08t-.03-.09l-.04-.07s-.03-.08-.04-.12l-.02-.06v-.04s-.01-.04-.01-.04v-.04c-.06-.14-.08-.59-.08-.83-.01-.34.09-.86.2-1.13.07-.18.12-.41.17-.62.04-.18.14-.6.17-.66 0-.01.03-.07.04-.12 0-.03.07-.16.07-.16l.02-.03v-.07s.04-.02.04-.02l.02-.03.03-.05c.04-.1.12-.13.17-.03.03.07 0 .19-.02.25-.02.08-.06.18-.1.27-.04.1-.06.18-.09.3 0 0-.07.22-.11.32-.03.09-.07.22-.08.31m-5.86 6.22s.17-.02.21 0c.13.04.44.25.66.4.03.02.1.06.16.08l.07.06.05.04c.09.05.33.2.34.2.08.02.12 0 .16-.03.17-.13.26-.34.34-.54.04-.08.13-.2.19-.28l.04-.06.06-.07s.04-.06.09-.11c0 0 .05-.03.05-.04 0-.03.18.03.19.03.02 0 .06.02.08.03.05.03.05.03.05.03.1.03.95.7.95.72 0 0 .03.03.04.04 0 0 .03.04.04.05.03.03.05.07.06.09.05.12.16.35.1.44s-.13.19-.2.29t-.04.06s-.04.06-.07.09c-.04.04-.1.11-.13.17-.12.17-.38.51-.55.44l-.06-.02s-.02-.02-.07-.04l-.15-.11c-.08-.08-.28-.24-.3-.25-.04-.02-.09-.06-.12-.09-.04-.04-.08-.08-.13-.11-.1-.07-.32-.22-.43-.11-.03.03-.1.1-.11.11l-.02.05-.02.03-.02.04s-.05.1-.05.1c-.04.06-.11.15-.11.16 0 0-.03.06-.05.1-.01.03-.04.06-.06.08t-.04.04s-.05.05-.07.07c-.06.06-.09.09-.18.14-.17.09-.26.13-.44.02-.09-.06-.19-.13-.28-.2-.08-.06-.23-.16-.34-.23-.1-.06-.22-.16-.33-.26l-.05-.04s-.02-.02-.08-.07t-.06-.04l-.03-.02-.04-.06c-.05-.03-.03-.25-.02-.25v-.03s.03-.05.03-.05c0-.01.03-.06.05-.09.03-.05.05-.09.08-.15l.02-.05.04-.05v-.06s.03-.03.03-.03c.03-.04.05-.08.07-.13.02-.06.04-.08.08-.13.02-.02.07-.11.1-.16s.06-.1.15-.18c.02-.01.05-.03.05-.04m2.48-6.96s0 .03.01.04t0 .05l-.04.09q-.02.06-.02.07c0 .05-.12.32-.16.39q-.03.07-.03.08l-.04.05v.03s-.05.06-.05.06c-.03.05-.07.1-.08.15-.02.05-.05.11-.08.16-.19.3-.55.87-.75 1-.27.19-.61.42-.83.57-.04.03-.27.2-.41.31-.08.06-.44.3-.48.31-.12.01-.5.19-.73.3-.05.02-.11.05-.16.07s-.13.05-.15.07c-.05.04-.29.15-.37.12-.02 0 .06-.13.06-.15l.06-.03s.08-.07.14-.1c.05-.03.15-.11.3-.24.21-.14.48-.34.63-.51.07-.08.19-.18.29-.24.09-.05.23-.17.31-.25.18-.18.43-.42.59-.54.2-.15.41-.36.58-.54.06-.06.22-.23.25-.28.05-.08.25-.34.25-.34.15-.14.88-1.24.83-1.47-.03-.14-.06-.24-.11-.35-.03-.07-.08-.2-.09-.26s-.19-.38-.26-.46c-.02-.02-.05-.1-.1-.2l-.03-.07v-.04s-.06-.06-.06-.06l-.02-.03s-.03-.06-.04-.06c-.02-.02-.04-.05-.07-.1l-.02-.03-.04-.06-.05-.1s-.04-.05-.08-.11c-.03-.05-.09-.14-.1-.15-.08-.13-.59-.79-.67-.83 0 0-.03-.03-.04-.04l-.04-.06s-.06-.05-.1-.09c-.08-.07-.15-.15-.23-.22-.05-.04-.16-.13-.24-.12-.08 0-.14.03-.19.06-.03.01-.11.04-.15.03-.19-.04-.43-.2-.62-.33-.2-.13-.34-.27-.43-.5-.06-.16.06-.98.18-1.15 0 0 .05-.05.07-.07t.07-.03s.04-.03.05-.04c.14-.16.88.41.99.5.06.05.18.15.2.16.05.06.13.13.2.17 0 0 .1.1.14.14t.06.04s.07.06.09.09c.01.01.1.1.11.1.03 0 .91 1.07.94 1.12v.04s.05.06.05.06l.07.1v.04s.06.06.08.09c.03.04.07.09.06.14t.08.08l.02.04s.06.08.08.13c.03.06.07.11.11.16.04.06.08.12.11.19.03.06.06.13.11.16.03.02.14 0 .14-.04.03-.19.08-.77.14-1.49.03-.35.07-.87.1-1.05.05-.28.12-.56.22-.81.07-.19.26-.65.3-.74.09-.16.33-.39.52-.43.3-.05.5.14.66.3.04.04.25.37.24.43 0 0 .04.14.06.18v.04s.03.11.04.15c.04.16.06.32.06.45v.28q0 .11-.01.13-.02.06-.02.1s-.05.09-.07.12c-.02.04-.07.12-.09.17-.01.03-.11.04-.13.01-.08-.12-.17-.32-.21-.46-.03-.09-.1-.28-.21-.38t-.06-.07l-.04-.05-.03-.02c-.05-.05-.11-.12-.18-.15-.08-.04-.11-.05-.24-.05-.05 0-.12.04-.17.06-.02.01-.03.03-.05.04-.02.03-.02.03-.04.03 0 0-.08.22-.08.22l-.02.04v.06s-.02.05-.02.05v.06s-.03.1-.03.1-.01.22-.01.27q0 .08 0 .12s0 0 0 .12v.05s-.02.05-.02.05v.1s-.01.03-.01.03c-.02.23-.03.45-.03.67 0 .25-.03.59-.06.9v.09s0 .07 0 .07v.11s-.02.04-.02.04v.05s-.02.08-.03.13c-.01.09-.02.16-.02.18v.09c-.01.05-.02.11-.02.18 0 .06-.02.14-.03.2s-.02.08-.02.09l-.02.06c0 .07 0 .09-.02.12 0 .03-.02.11-.03.16-.01.09-.04.19-.08.29v.04c-.02.1-.05.29-.07.38-.02.08-.04.18-.05.19-.01.05-.03.1-.03.12 0 .08-.06.23-.1.32-.01.03-.02.09-.03.14v.09s-.05-.05-.05-.05zm-5.39 20.23c-.08 0-.08-.11-.07-.15t.01-.06s.02-.07.02-.08c0-.05.08-.33.12-.48.04-.13.48-.37.65-.45.14-.06.49-.24.77-.38.24-.12.53-.27.71-.37.18-.11.48-.24.71-.33.26-.11.68-.29.8-.34.06-.03.19-.09.2-.1 0 0 .09-.04.11-.05h.04s.03-.02.06-.03c.11-.05.38-.18.38-.18.12-.04.29-.11.42-.18.11-.06.23-.12.36-.17.15-.06.32-.12.45-.19.07-.04.46-.2.5-.19.23.06.2.2.11.4-.04.09-.08.19-.1.28-.02.12-.06.24-.13.31-.08.09-.59.28-.79.35-.23.08-.53.19-.77.3-.22.1-.69.3-.73.32 0 0-.11.06-.16.09-.07.04-.16.07-.24.1-.18.06-.46.15-.51.17-.11.04-.22.11-.32.17l-.05.03s-.08.03-.13.07l-.05.05s-.06.04-.09.05h-.04s-.03.03-.03.03l-.03.02h-.05s-.03.03-.03.03h-.03s-.04.03-.04.03l-.05.02h-.03s-.05.03-.05.03h-.03s-.05.03-.05.03l-.07.04s-.06.02-.12.05c-.03.01-.09.04-.12.06s-.06.03-.08.04t-.06.02s-.02.01-.08.03c0 0-.05.03-.08.05l-.04.02-.06.03s-.03.02-.06.04c-.04.04-.05.05-.09.06-.07.01-.12.04-.19.07-.06.02-.15.07-.19.08-.02.01-.06.03-.08.05-.02.01-.06.05-.07.06-.14.07-.26.13-.39.18m-2.41-14.45c-.01.13.21.86.29 1.06.03.07.1.21.15.3 0 0 .03.06.03.06l.02.05.02.05s.01.01.04.05c.02.02.04.04.05.06.02.04.3.23.37.25s.18.01.32 0c.11 0 .35-.38.4-.48.04-.08.08-.22.09-.33.01-.07.08-.33.13-.35.02 0 .13-.05.15.02t.01.07s.01.11 0 .12c0 .04-.01.14-.01.18v.05s-.02.06-.02.06v.11c-.02.07-.04.17-.07.28-.02.1-.03.18-.04.27 0 .04-.03.15-.05.2-.02.07-.05.18-.07.22-.02.07-.02.09-.04.14-.01.03-.04.09-.04.1 0 .02-.03.1-.04.12-.02.03-.05.13-.05.13s-.11.16-.17.23t-.05.05l-.04.04s-.01.02-.05.05c-.01.02-.06.07-.06.07-.03.04-.17.1-.23.11-.03 0-.09.02-.13.02-.12 0-.14 0-.21.05-.06.04-.1.11-.13.18-.04.08-.09.16-.15.23l-.04.06q-.03.07-.03.07s-.02.04-.03.06q-.02.06-.03.08c-.04.06-.05.08-.05.13 0 0-.05.14-.05.15-.03.07-.06.21-.09.33v.03s-.03.07-.03.07t-.02.11s-.02.09-.03.13-.04.22-.07.42c0 .07-.02.18-.02.25v.05s0 .04 0 .04q.01.17 0 .22c0 .18.11.4.19.54.07.12.23.41.24.44.12.29.96.86 1.25.95.31.1.68.2 1 .24.09 0 .22.02.33.03.13.01.29.02.37.05h.09s.04 0 .04 0h.09s.07 0 .07 0h.07s.09.01.09.01h.05c.24.02 2.19-.19 2.21-.22 0 0 .98-.21 1.09-.23l.1-.02.13-.04s.06-.02.14-.03h.04s.07-.04.09-.04c.24-.04.44-.07.64-.13.61-.18 1.95-.63 2.05-.69.11-.06.34-.14.5-.19.03-.01.37-.19.39-.21h.05s.03-.02.03-.02l.05-.03.05-.03h.05s.05-.05.05-.05h.03s.04-.01.04-.01c.03-.02.1-.05.1-.05l.06-.05s.06-.03.1-.04l.1-.04h.03c.24-.13.56-.3.76-.46h.04s.06-.06.06-.06l.06-.03.06-.04.03-.02.09-.05s.1-.07.15-.12c.02-.02.05-.04.07-.06t.04-.05s.02-.04.03-.04c.03-.02.03-.24 0-.27t-.03-.06s-.03-.08-.05-.11t-.02-.05c-.02-.05-.03-.08-.06-.13l-.02-.04s-.04-.08-.07-.11v-.04s-.04-.05-.06-.08c-.11-.17-.24-.37-.38-.54-.12-.15-.42-.52-.42-.52-.08-.11-.07-.24-.06-.39q0-.08.01-.11s.02-.08.02-.11c0 0 .01-.08.02-.12v-.04s.02-.04.02-.04v-.05c.03-.15.11-.64.22-.72.09-.07.23-.06.31.03l.09.12s.06.05.07.07c.02.02.04.07.05.07.11.07.36.38.41.48l.02.04.04.02s.04.07.05.08c.02.04.07.1.1.14l.07.09v.04s.05.05.05.05v.04s.04.04.05.04c.14.17.43 1.29.36 1.46-.04.1-.09.43-.11.61 0 .08-.03.24-.03.24-.01.04-.03.14-.03.14l-.02.04s-.02.04-.02.05c-.01.07-.04.16-.07.22-.04.08-.08.16-.1.23-.04.13-.11.28-.2.38-.2.22-.42.43-.65.64h-.03s-.04.04-.04.04l-.07.03v.03s-.13.09-.21.15c-.06.04-.17.11-.2.11-.06.02-.17.08-.23.12-.12.08-.37.25-.39.27-.11.1-.29.21-.41.28-.11.07-.24.66-.3.88-.01.07-.05.2-.05.2-.03.07-.06.16-.08.24-.04.16-.07.27-.08.42-.06.53-.07.98.07 1.48.07.25.17.46.28.68.05.11.14.22.22.33.02.04.04.07.05.09.04.04.09.1.09.13l.07.05.04.02.06.04c.05.04.15.11.15.11.03 0 .06.03.08.06.01.01.07.05.09.06.03.01.08.03.08.03s.09.07.09.07h.06s.08.04.08.04c.04.02.09.04.12.06h.06s.03.03.03.03h.04s.03.02.03.02h.09s.06 0 .06 0c.16.05.53.05.79.05.13 0 .74-.15 1.06-.23.08-.02.13-.04.2-.07.05-.03.15-.07.21-.08.07-.01.08-.01.12-.02l.07-.03h.04s.08-.03.12-.06c.04-.02.09-.05.12-.05 0 0 .11-.07.16-.1.06-.03.12-.06.19-.09l.04-.02.06-.04s.06-.02.09-.04c.03-.01.08-.03.08-.04.01-.01.09-.05.11-.06.06-.03.12-.08.16-.12.04-.03.1-.08.14-.09.08-.03.15-.07.21-.11s.16-.09.21-.12c.05-.02.12-.06.17-.1l.08-.07.07-.06c.08-.03.13-.06.19-.1.02-.01.05-.05.07-.07.03-.03.08-.06.12-.08.18-.08.45-.31.62-.46.3-.25 1.18-1.07 1.19-1.1l.02-.04s.03-.03.06-.08q.05-.03.05-.03s.09-.12.15-.18c.09-.11.18-.23.27-.34.18-.23.4-.5.53-.72.07-.11-.02-.56-.15-.59-.15-.02-.34.03-.42.07-.05.02-.21.06-.33.09-.63.13-1.51.3-1.82.29-.23 0-.48-.06-.73-.13-.06-.02-.09-.03-.13-.07-.04-.03-.09-.07-.14-.09t-.07-.03s0 0-.13-.09c-.03-.04-.04-.04-.05-.05-.11-.05-.22-.24-.27-.35-.04-.07-.07-.15-.09-.24 0-.03-.06-.27-.06-.27l.02-.19c.01-.09.03-.25.03-.27l.03-.37s0-.12.01-.16v-.05s.02-.05.02-.05l.02-.03v-.03s.02-.1.03-.15c0-.03.02-.09.05-.08h.04s-.06-.04-.06-.04l.02-.08.02-.03v-.05s.05-.12.07-.18c.02-.05.04-.09.07-.13s.06-.11.08-.14c.03-.08.25-.34.37-.49.17-.2.47-.45.71-.58.43-.23.79-.19 1.22-.02.09.04.21.1.29.16.09.08.21.18.29.21.12.07.28.25.35.36.09.13.24.28.35.39.13.13.23.27.34.43.08.13.28.42.33.46.18.11 1.22-.39 1.46-.51.18-.09.36-.19.52-.3.14-.09.43-.28.53-.32.12-.05.4-.26.5-.35.14-.12.34-.29.51-.35.08-.02.22-.05.3 0 .08.04.05.3.03.41-.02.14-.02.35-.02.54 0 .27.28 1.08.41 1.27.33.46.62.86 1.27.97h.06q.09.03.1.03c.05 0 .19.01.23.02q.08 0 .15 0h.24c.06.02.59-.11.78-.15.14-.03.37-.13.57-.21.13-.05.34-.15.51-.24.08-.04.17-.09.26-.14 0 0 .08-.05.12-.07l.06-.04s.06-.04.09-.05c.11-.06.41-.35.46-.46.03-.07.06-.17.02-.25-.08-.16-.24-.46-.25-.47-.08-.12-.16-.26-.23-.4-.09-.18-.59-.77-.87-1.09-.07-.08-.23-.26-.26-.3l-.06-.08s-.04-.06-.07-.08c-.04-.03-.04-.03-.07-.07-.06-.09-.14-.19-.22-.27s-.22-.21-.24-.25c-.03-.05-.17-.19-.23-.25l-.09-.09-.03-.02s-.13-.13-.15-.15l-.1-.12s-.05-.05-.07-.07l-.04-.02s-.03-.02-.05-.04c-.08-.08-.17-.17-.24-.26-.07-.08-.15-.17-.22-.25s-.16-.2-.26-.26c-.04-.02-.21-.19-.3-.28t-.05-.05s-.07-.07-.07-.07l-.03-.02q-.03-.06-.07-.09l-.02-.03s-.07-.05-.11-.08l-.05-.05s0 0-.11-.1l-.04-.04s-.07-.06-.11-.1l-.02-.03-.05-.04s-.06-.06-.07-.08c0 0 0 0-.07-.06-.02-.02-.05-.04-.06-.06-.03-.03-.07-.07-.11-.1-.05-.04-.1-.08-.14-.13-.07-.08-.17-.19-.25-.23-.08-.05-.2-.14-.26-.21-.05-.06-.32-.31-.52-.49-.31-.29-1-.9-1.07-.95-.15-.1-.34-.27-.5-.43-.17-.15-.43-.4-.51-.49-.17-.2-.23-1.15-.21-1.47 0-.18.09-.47.15-.68.03-.1.06-.23.09-.35.02-.09.08-.24.12-.35.06-.17.25-.53.45-.59.02 0 .05-.04.09-.08.03-.03.1-.08.15-.12s.1-.07.15-.11c0 0 .1-.07.14-.1.07-.05.2-.13.29-.18.13-.07.25-.14.36-.21.23-.15.45-.29.74-.46.02-.02.03-.02.05-.03h.03s.03-.03.08-.06l.05-.04c.11-.05.29-.14.43-.23.11-.06.23-.12.33-.18.13-.07.27-.15.4-.21.12-.06.3-.15.34-.18.02-.01.33-.17.48-.25l.08-.04q.06-.04.07-.04l.04-.02.03-.02.03-.02.09-.05c.06-.02.08-.03.13-.05.04-.02.06-.03.09-.04.02 0 .08-.03.09-.04 0 0 .09-.05.1-.06l.07-.03q.05-.02.08-.04s.16-.07.26-.12c.07-.03.18-.08.23-.12t.08-.03s.05-.02.06-.02q.09-.02.12-.03c.33-.18.64-.32.98-.46.16-.07.4-.17.47-.2.08-.04.17-.08.26-.11.01 0 .19-.08.29-.12l.04-.02.03-.02c.06-.02.11-.04.15-.05.05-.01.1-.03.14-.06.04-.02.08-.04.11-.06.18-.08.39-.16.5-.19s.67-.26 1.03-.41.67-.28 1.02-.44c.31-.14.71-.31.99-.39.1-.03.18-.06.26-.1s.13-.06.2-.08c.11-.03.17-.05.28-.1.02 0 .24-.1.22-.03v-.04s0-.03.04-.05l.05-.02.06-.02h.04s.09-.05.09-.05c.04 0 .07 0 .1-.03.09-.05.31-.12.47-.18 0 0 .14-.06.18-.07.08-.03.16-.06.24-.08.17-.04.38-.11.51-.16.15-.07.37-.12.55-.17.06-.01.35-.1.52-.16.15-.05.36-.11.5-.13.08 0 .27-.04.35-.06.05-.01.1-.02.12-.02h.06s.07 0 .08 0c.08-.02.42.06.47.1.11.08.33.24.34.26s.04.05.06.07c.03.03.06.08.08.11.04.09.11.22.13.28.12.32-.01 1.38-.21 1.58-.02.02-.18.39-.24.58s-.17.41-.28.61c-.05.1-.13.22-.2.31-.08.09-.17.22-.22.33s-.14.21-.22.31c-.04.06-.08.11-.11.19 0 .01-.01.09-.02.12 0 .04-.04.1-.07.13h-.05s-.09.04-.11.06c-.03.02-.1.11-.13.15-.05.07-.16.2-.24.3-.02.02-.06.05-.09.07-.01 0-.04.04-.05.06t-.11.11l-.02.03-.1.1s-.06.07-.08.08c-.02.02-.04.04-.06.07-.09.14-.36.41-.47.5-.13.1-.36.39-.51.58-.29.36-.81 1.01-.95 1.15-.15.15-.34.39-.46.57-.04.06-.07.1-.09.17-.02.05-.09.14-.13.18t-.05.06s-.02.04-.05.06c-.08.05-.13.04-.18-.03v-.03s.02-.05.02-.05l.03-.07v-.04s.02-.06.02-.06c0-.01.01-.08.02-.1v-.07s.04-.08.05-.1c0-.04.02-.11.04-.13.02-.04.03-.05.04-.11 0-.07.31-.64.46-.9.12-.21.31-.46.47-.61.04-.04.28-.34.48-.57.14-.17.49-.6.49-.6.18-.2.34-.38.51-.6.05-.06.31-.31.51-.51.04-.03.05-.04.1-.09l.02-.03.03-.02s.04-.06.05-.08c.02-.03.03-.04.06-.06s.06-.05.08-.07.04-.04.09-.1l.02-.03s.05-.05.07-.07c.15-.12.85-1.06.9-1.23.04-.13.07-.3.07-.47 0-.38-.47-.67-.82-.68-.27 0-.63.08-.83.15-.11.04-.22.07-.31.09-.07.01-.22.07-.32.11-.23.09-.48.18-.72.23-.11.02-.2.06-.31.1-.12.05-.21.08-.28.1-.36.12-.74.26-1.1.42l-.05.02-.04.02-.07.03-.06.04h-.03s-.04.02-.04.02h-.03s-.04.03-.04.03l-.09.03h-.04s-.05.02-.05.02h-.04s-.04.01-.04.01t-.05.01l-.03.02h-.05c-.08.04-.09.04-.14.05-.01 0-.08.04-.09.04 0 0 0 0-.11.04l-.05.02s-.09.04-.14.06l-.07.03-.05.04h-.06s-.06.04-.06.04h-.04s-.11.05-.14.08c-.07.05-.22.1-.31.13-.08.02-.21.06-.29.12-.12.1-.8.35-1.07.45-.15.05-.68.27-1.04.42-.34.15-.71.3-1.07.46h-.05s-.03.02-.03.02q-.07.03-.07.03s-.02.01-.07.03l-.1.04s-.16.08-.16.08c-.03.02-.08.04-.12.06-.05.03-.14.06-.14.06l-.07.02h-.04s-.01.05-.01.05l-.07.03-.09.04c-.06.02-.11.05-.15.07l-.06.04s-.07.02-.07.03t-.05.02s-.04.02-.06.03c-.05.02-.08.04-.12.06-.05.03-.08.04-.12.06-.16.05-.41.18-.58.29t-.07.03l-.08.04-.03.02s-.08.04-.11.06c-.02.01-.03.02-.05.02h-.06s-.05.03-.05.03c-.05.04-.16.1-.25.13-.1.04-.22.09-.29.13-.04.02-.08.04-.12.05-.03 0-.09.06-.11.08-.01 0-.05.02-.06.03t-.1.08l-.09.05-.06.03-.05.03h-.03s-.05.03-.06.04c-.04.02-.08.05-.12.07-.02.01-.04.02-.07.03t-.06.03c-.08.05-.15.09-.24.12-.05.02-.2.12-.26.16-.15.1-.3.19-.46.28-.49.26-1.79.99-1.88 1.22-.02.05-.06.17 0 .21l.04.06s0 0 .09.1t.05.05s.07.05.1.08c.04.04.09.07.14.1.01 0 .17.12.24.17.09.07.19.13.29.19.11.06.89.64.92.7 0 .02.08.06.11.08.05.03.09.07.13.1.01.01.15.11.22.16.03.02.08.07.13.12l.07.07.06.03s.06.04.09.06c.05.03.12.07.15.1.15.13.35.26.52.36.08.05.15.12.22.18.04.04.18.14.26.2.07.06.17.13.24.2s.16.14.24.19c.1.06.39.26.48.38.07.08.37.29.48.36.04.02.08.06.11.09l.05.04s.05.05.08.07c.1.07.19.14.28.21.62.48 1.25.95 1.88 1.42.13.1.37.28.44.37.12.14.31.29.46.39.25.17.61.52.86.77.03.03.07.07.16.16l.03.02.02.03s.07.07.1.09c.04.03.08.06.11.1.01.02.06.06.09.08 0 0 .08.08.11.11.04.04.09.1.1.11l.07.06s.04.04.05.05c.1.13.25.28.38.38.14.11.29.27.4.43.05.07.13.15.19.2.02.02.05.05.08.08.04.04.07.08.1.12.14.15.29.33.44.5t.04.06l.07.08s.03.04.04.05c.07.07.15.14.21.22.12.15.25.3.39.44.13.13.26.29.37.44.13.16.33.42.41.51.29.29.57.57.88.84 0 0 .06.03.08.05l.05.03.06.03s.03.02.04.03c0 0 .05.03.07.04.12.07.24.12.38.17 0 0 .11.05.14.07.07.04.18.07.24.08l.13.05h.03s.04 0 .04 0h.08s.03.03.05.04c.03 0 .1.02.14.03.74.13 1.35.05 2.01-.16.46-.15.92-.58 1.22-.89t.06-.06s.05-.05.06-.07c.02-.05.07-.11.11-.15.04-.05.12-.15.2-.26l.04-.05c.04-.05.08-.14.11-.21 0 0 .1-.15.13-.18t.05-.06l.07-.08s.11-.16.11-.16c.02-.05.39-.38.45-.4.08-.03.12-.04.2-.03.06 0 .08.68.08.79 0 .13.19.53.26.63.09.12.32.38.41.41.02 0 .08.05.11.07s.08.06.12.07c.05.01.08.03.12.06.05.04.13.06.19.08.14.04.23.06.4.08l.08.02h.08s.09.02.09.02h.07s.09 0 .09 0h.06c.16.06.85-.06 1.23-.12.28-.05.56-.18.83-.32.24-.12.69-.35.73-.37.13-.07.63-.41.66-.48.01-.04.05-.14.02-.17-.08-.08-.22-.22-.25-.26s-.09-.09-.14-.12c-.05-.04-.12-.08-.15-.12-.05-.06-.2-.17-.31-.25-.09-.07-.28-.2-.31-.23-.05-.05-.57-.19-.66-.19h-.07s-.06 0-.06 0h-.12c-.05 0-.11.01-.15.03 0 0-.06.02-.07.02q-.08.01-.09.02l-.05.04h-.04s-.04.03-.06.04c-.04.02-.08.04-.13.06-.04.02-.13.05-.17.09-.03.03-.33.12-.35 0v-.05s-.02-.04-.02-.08c0-.05 0-.12.01-.18v-.07s.01-.1.01-.1v-.03s.02-.06.02-.06l.02-.16c.02-.16.1-.66.22-.73.04-.02.11-.12.14-.15.02-.03.06-.06.09-.08.02-.02.08-.05.09-.07l.06-.03h.04s.04-.02.04-.02c.04-.02.08-.05.12-.07.1-.06.21-.12.3-.14l.15-.06s.09-.05.13-.06c.14-.03.28-.08.4-.12.07-.03.18-.07.25-.07 0 0 .26-.08.31-.1.14-.05.29-.08.41-.09.14-.02.27-.05.36-.08.11-.04.3-.09.41-.08.09 0 .36 0 .43-.02.23-.05.61-.1.82-.08.02 0 .13 0 .16-.01q.06 0 .13 0h.03q.15 0 .19.01s.03 0 .06 0t.07 0h.08s.05 0 .05 0h.08s.08.02.08.02h.04c.19.03.29.04.43.04 0 0 .23.04.33.05.64.11 2.14.41 2.4.71.02.03.05.07.08.1 0 0 .02.05.02.05 0 .03.01.07.01.07 0 .01-.05.19-.07.22-.05.09-.1.21-.12.31-.06.22-.14.52-.22.64-.09.14-.15.2-.32.27-.12.05-.33.15-.48.23-.11.05-.28.15-.4.23-.09.06-.29.2-.35.23-.05.02-.45.3-.73.49-.11.08-.21.17-.27.3-.04.09.04.2.11.26l.05.04s.04.02.07.04t.05.04c.21.18.54.29.83.37.2.06.58.12.83.06.1-.02.53-.06.73-.08.15-.01.38-.08.57-.14l.05-.03h.04s.04 0 .04 0l.1-.05.04-.04h.05s.03-.03.03-.03t.04-.02c.29-.04.72-.28.93-.46.07-.06.18-.15.21-.19 0 0 .08-.09.1-.13.03-.03.08-.09.11-.12.04-.03.1-.25.08-.31-.02-.05-.05-.45-.05-.54 0-.16-.04-.41-.07-.56-.01-.06-.02-.18-.02-.25 0-.09-.02-.2-.03-.28v-.06s-.02-.07-.02-.07v-.09c-.02-.07-.03-.16-.04-.2s-.02-.11-.02-.16v-.07s-.01-.07-.01-.07c-.06-.45-.14-.97-.25-1.46-.1-.45-.14-.74-.17-1.15 0-.04-.08-.38-.12-.58-.02-.12-.05-.25-.06-.34 0-.05-.02-.16-.02-.2s-.02-.11-.02-.15v-.04q0-.06-.01-.1c-.01-.08-.01-.11-.04-.23v-.08l-.02-.07v-.04s-.02-.06-.02-.06c-.04-.24-.11-.66-.15-.8-.02-.07-.05-.21-.05-.25-.02-.13-.04-.32-.08-.45-.04-.11-.05-.19-.06-.29-.01-.14-.02-.24-.04-.3-.02-.07-.05-.24-.06-.32-.01-.13-.02-.2-.05-.33 0-.04 0-.05-.01-.09v-.08s-.02-.17-.02-.17v-.04s0-.05 0-.05l-.02-.03v-.04s-.02-.14-.03-.2v-.07s-.02-.08-.02-.08l-.02-.08s0-.02 0-.04-.03-.27-.05-.39c-.01-.09-.04-.25-.07-.33-.03-.1-.06-.26-.07-.37-.01-.05-.02-.21-.03-.33 0-.08-.03-.24-.05-.31-.01-.06-.02-.1-.02-.16s0-.09-.02-.17v-.08s-.02-.04-.02-.04v-.03c-.01-.06-.03-.11-.04-.23-.07-.39-.16-.9-.18-1.3v-.06s-.02-.05-.02-.05v-.07s-.02-.04-.02-.04v-.06c-.04-.12-.06-.26-.07-.38 0-.02-.03-.22-.04-.27-.01-.1-.02-.15-.03-.23v-.05s-.01-.04-.01-.04t0-.04c0-.07-.02-.18-.04-.26-.01-.05-.02-.1-.03-.15 0-.02 0-.07-.01-.09q-.03-.07-.03-.1c-.03-.17-.1-.63-.1-.65 0-.36-.11-.77-.25-1.09-.17-.38-.06-.71.06-1.06.1-.32.28-.68.43-.98.01-.02.09-.02.1 0 .07.07.11.21.14.32.02.08.08.27.11.32.01.02.04.07.06.11.03.06.05.11.1.15.03.03.06.12.08.15.01.04.05.12.08.16.06.1.11.2.15.28.06.13.14.3.16.34.04.08.07.15.11.24.04.12.1.27.16.35.05.07.1.18.13.29.04.11.09.26.14.34.11.18.21.39.28.56.06.14.16.45.23.66.04.13.09.3.1.48 0 .04-.02.3-.12.27-.11-.04-.3-.22-.49-.4 0 0-.05-.06-.07-.08-.03-.03-.1-.12-.1-.12-.08-.08-.15-.16-.27-.13-.05.01-.02.28-.02.31v.05s.01.03.01.03v.1s.02.09.02.09.02.17.03.21c0 .04.01.09.01.09v.05s0 .03 0 .03l.02.08s.01.08.02.13v.09s.02.07.02.07c0 .04 0 .08.01.14l.02.05v.05c.04.21.07.4.09.61.01.15.04.31.08.49.02.11.04.19.06.27.02.06.05.21.06.26.03.26.05.37.11.62.05.19.08.4.1.62 0 .07.07.41.09.57 0 .04.02.11.03.15 0 .06.03.14.03.14v.07s.02.06.02.06v.05c.03.09.04.14.04.21.01.15.05.31.09.49.03.14.11.53.11.53.02.21.04.42.09.62.04.17.09.41.11.6.02.16.06.5.1.62.05.16.09.39.11.58.01.09.03.21.04.29 0 .07.01.1.02.16v.05s.03.08.04.13c0 .04.02.11.03.16v.06s.03.06.03.06v.03c.03.1.04.16.05.25.02.17.05.38.09.46.01.02.03.11.03.15v.07s0 .05 0 .05l.02.03s.03.11.03.13v.06s.03.12.03.12c.01.17.04.45.07.53.04.11.06.39.07.52.01.14.02.33.03.47v.16s0 .09 0 .09v.05q.02.05.02.08v.11s0 .1 0 .15c.04.85 0 1.65-.26 2.47-.09.31-.21.59-.33.89-.04.1-.45.74-.51.77-.02.01-.22.18-.29.25-.08.07-.22.19-.34.21s-.29.14-.39.21c-.12.08-.25.16-.39.2-.03 0-.08.02-.09.03t-.08.03h-.09s-.02.03-.07.04c-.12.02-.3.06-.41.1-.02 0-.03 0-.08 0h-.12c-.08 0-.19.02-.27.04-.1.02-.16.03-.31.05h-.05s-.04 0-.04 0h-.1s-.06 0-.06 0c-.04.03-.8-.04-.91-.07-.12-.03-.48-.18-.72-.29-.1-.04-.31-.2-.4-.28-.04-.04-.18-.15-.18-.15-.07-.05-.13-.1-.19-.15l-.02-.03-.07-.06-.15-.14s-.03-.03-.05-.04l-.05-.04c-.12-.11-.35-.32-.4-.33-.08-.02-.16-.03-.24 0-.3.12-.75.43-1.09.67-.03.03-.09.07-.1.08-.07.04-.27.15-.27.15-.14.06-.29.17-.41.28-.03.03-.07.05-.14.08l-.06.02h-.03c-.09.06-.18.11-.29.15l-.05.04-.06.04s-.02 0-.08.05l-.1.05s-.04.02-.07.04l-.07.02s-.08.01-.12.03c-.17.06-.61.22-.62.23-.34.09-.6.13-.95.16-.07 0-.3 0-.43 0h-.04s-.04-.03-.04-.03h-.08s-.13-.01-.13-.01c-.13 0-.3-.02-.38-.05l-.06-.03h-.03s-.04-.03-.04-.03l-.07-.03s-.04-.02-.09-.07c-.03-.02-.07-.04-.11-.06s-.14-.07-.17-.09c-.05-.04-.12-.1-.17-.12-.11-.05-.21-.17-.28-.26 0 0-.06-.05-.07-.06t-.05-.05s-.01-.02-.04-.05c-.02-.02-.06-.06-.06-.06-.03-.05-.05-.09-.08-.11s-.17-.36-.19-.43c-.04-.12-.11-.36-.27-.35-.05 0-.29.36-.36.48-.11.16-.23.32-.36.47-.37.43-.85.8-1.38 1.07-.15.08-.35.14-.48.18l-.06.03s0 0-.07.01h-.03s-.07.03-.07.03q-.05.02-.12.02c-.16.01-.22.03-.36.07-.13.04-.21.05-.35.07-.03 0-.03 0-.08 0-.04-.01-.12-.02-.15-.02-.19 0-.63-.02-.74-.09-.09-.05-.32-.14-.42-.17-.13-.04-.36-.13-.47-.21-.03-.02-.05-.04-.1-.07h-.05s-.09-.07-.09-.07h-.04s-.04-.07-.04-.07l-.06-.04c-.09-.06-.35-.22-.37-.25-.01-.02-.08-.07-.15-.12-.06-.06-.13-.13-.19-.19l-.07-.08-.1-.1v-.03s-.08-.04-.08-.04l-.05-.04s-.06-.06-.08-.09c-.1-.12-.25-.31-.33-.37-.03-.02-.2-.23-.33-.4-.1-.13-.2-.26-.29-.39-.06-.08-.12-.16-.17-.25-.02-.03-.05-.07-.07-.1l-.05-.05s-.04-.04-.04-.04c-.03-.04-.05-.08-.09-.11-.02-.02-.09-.09-.09-.09-.04-.06-.08-.11-.09-.12-.02-.02-.05-.05-.08-.09-.05-.06-.11-.14-.17-.18-.06-.05-.12-.13-.16-.19-.07-.11-.43-.5-.68-.77-.11-.12-.25-.27-.36-.38-.11-.12-.35-.35-.37-.38-.06-.09-.29-.3-.38-.36-.03-.02-.13-.12-.18-.17t-.04-.04s-.03-.03-.04-.04l-.06-.03s-.05-.03-.06-.04c-.12-.13-.26-.25-.42-.34-.03-.02-.07-.06-.1-.1-.02-.02-.06-.05-.09-.07-.04-.02-.08-.04-.12-.07-.02-.01-.17-.06-.16 0 .03.15.09.37.19.5 0 0 .07.21.09.28t.03.08l.02.07v.05s.03.04.03.04q.01.08.02.1c.08.2.12.43.14.63 0 .1.01.14.03.22s.04.17.05.24v.05s.02.05.02.05l.02.11q0 .11.02.18s0 .02 0 .05c0 .14-.02.45 0 .5.02.07 0 .17-.03.27 0 0-.08.19-.11.28 0 .02-.05.08-.07.12-.03.04-.05.07-.07.12-.05.14-.48.53-.62.62-.04.02-.05.03-.08.06l-.06.04-.03.02s-.05.04-.07.06c-.03.02-.07.05-.1.07s-.08.04-.11.06h-.05s-.05.03-.07.05c-.03.02-.07.04-.11.05-.04.02-.09.04-.13.07-.23.16-.55.25-.93.34-.32.08-.75.15-1.1.15-.53 0-1.09-.17-1.46-.44-.15-.11-.27-.21-.39-.35-.08-.1-.32-.44-.34-.51 0 0-.05-.11-.08-.15 0 0-.05-.15-.07-.19v-.03s-.03-.03-.03-.03l-.04-.09s-.05-.12-.07-.21v-.04s-.02-.03-.02-.03l-.03-.06c-.02-.07-.06-.16-.07-.2-.02-.06-.04-.16-.06-.19t-.02-.06v-.08s-.04-.09-.04-.09v-.05s-.02-.04-.03-.08q0-.07 0-.13s0-.08-.03-.12c-.06-.15-.11-.13-.25-.08-.17.07-.35.21-.49.32-.15.12-.32.24-.49.33-.09.05-.17.11-.24.18-.01.01-.1.06-.17.1l-.05.04-.05.02c-.18.1-.36.18-.55.27-.23.1-.48.21-.62.31-.08.06-.19.79-.19.87 0 .18 0 .45-.02.6 0 .04-.01.1-.02.12-.01.04-.02.05-.02.1 0 .04-.04.28-.04.28s-.02.05-.02.05c-.01.06-.02.08-.04.13t-.04.08s-.03.09-.08.15l-.03.02v.03s-.02.05-.02.05l-.06.03s-.02.07-.05.09c-.02.01-.07.09-.1.13s-.07.1-.13.16v.03s-.04.07-.06.09c-.03.05-.07.11-.11.16-.03.04-.07.09-.11.12-.04.02-.08.08-.11.12-.02.02-.14.18-.22.26l-.04.05-.04.05-.04.06s-.05.06-.05.06c-.08.07-.17.17-.23.25 0 0-.1.09-.13.11-.04.03-.08.07-.12.1-.08.07-.24.21-.26.24-.07.09-.2.2-.29.26s-.18.14-.27.21c-.36.3-.71.58-1.09.82-.04.03-.08.06-.12.09l-.05.03-.11.06-.1.08h-.03s-.06.07-.06.07c-.02.02-.05.05-.1.08l-.05.04-.05.04s-.11.08-.15.1c-.06.03-.1.05-.15.08l-.09.03s-.08.04-.09.06c-.09.08-.23.15-.35.2-.14.06-.34.13-.45.18t-.08.03s-.1.03-.17.06l-.05.04s-.08.03-.09.04c-.06.01-.11.03-.2.06-.04.02-.1.03-.14.05-.01 0-.13.04-.12.04 0 0-.16.02-.23.03h-.06l-.07.02s-.03 0-.03.01h-.05s-.07.02-.07.02l-.06.02c-.05 0-.05 0-.05 0t-.11.01c-.12 0-.46.01-.46.01-.03 0-.47-.02-.48-.03 0 0-.06-.02-.07-.02q-.05 0-.08-.01c-.09-.02-.24-.07-.27-.08-.06-.02-.16-.05-.2-.06-.07-.02-.08-.02-.1-.03-.03-.02-.11-.05-.11-.05-.58-.19-1.3-1.02-1.51-1.6-.06-.16-.21-.71-.2-.77v-.1s0-.04 0-.04q0-.07 0-.1s-.01-.04 0-.09c.02-.14.01-.28 0-.5 0-.16 0-.25 0-.38 0-.11.02-.27.02-.37l.03-.21s0-.05.02-.1v-.03s0-.02 0-.07c.02-.13.07-.54.11-.63.06-.13.32-.98.21-1.1-.03-.04-.18 0-.25.01h-.03s-.05.01-.07.02c-.04.02-.09.04-.13.05-.04 0-.06.01-.1.04-.03.02-.08.04-.11.05-.09.04-.17.07-.27.1-.03 0-.09.03-.12.06-.01.01-.04.02-.06.02h-.05s-.06.05-.06.05c-.04.01-.08.03-.13.05-.03 0-.07.02-.1.04h-.05s-.04.03-.04.03l-.05.02s-.2.09-.23.09c-.06 0-.99.29-1.03.31q-.11.02-.12.02l-.06.02h-.07s-.04.03-.04.03h-.07s-.05.03-.05.03l-.11.03h-.04s-.04.02-.04.02c-.16.04-.36.08-.54.1-.22.03-.35.05-.5.09-.21.06-.45.11-.64.13h-.03q-.05 0-.13 0-.09.01-.16.03h-.04s-.09.02-.09.02h-.09q-.05.02-.15.02c-.06 0-.08 0-.14 0-.05.01-.12.02-.12.02-.04 0-.07 0-.14.03h-.15s-.04 0-.04 0c-.03 0-.04 0-.06 0-.19.04-.66.02-.98 0-.29-.01-.57-.03-.84-.03-.12 0-.27-.04-.31-.1 0-.01-.02 0-.04.04 0 0-.05 0-.06 0-.07-.02-.15-.04-.2-.06-.01 0-.24-.07-.33-.09 0 0-.06-.03-.07-.03-.04-.02-.05-.03-.08-.04-.07-.02-.13-.05-.2-.07-.2-.05-.64-.32-.77-.46-.23-.23-.35-.37-.52-.64-.14-.23-.38-.7-.4-.99v-.05q-.02-.05-.03-.09s0-.13 0-.16c0-.04 0-.06 0-.09s-.01-.09-.01-.12-.03-.38-.05-.57c-.04-.41.25-1.42.4-1.75.02-.05.05-.11.07-.16 0 0 .06-.14.08-.2.05-.12.1-.23.15-.35.11-.21.24-.49.28-.69.02-.08-.2-.4-.29-.54-.06-.09-.13-.2-.15-.26-.03-.11-.08-.26-.13-.35-.09-.15-.38-1.21-.35-1.37.02-.09 0-.39-.02-.48 0-.07 0-.16 0-.21 0-.02 0-.14.01-.2.01-.34.04-.67.07-1.09 0-.08.09-.63.14-.97.04-.29.1-.57.19-.89.04-.12.07-.25.07-.32 0-.09.04-.24.08-.34l.02-.04v-.04s.02-.1.03-.13c.01-.04.04-.13.06-.2l.03-.11c.02-.07.03-.1.04-.14q.01-.05.02-.06s.03-.1.04-.14c.09-.29.18-.57.27-.83.03-.1.08-.29.1-.39.02-.08.07-.22.12-.32t.02-.06l.04-.08v-.07s.04-.06.06-.1c.06-.1.22-.19.24.01.02.16-.12.72-.17.88-.17.56-.35 1.11-.5 1.66-.05.2-.13.56-.2.88l-.02.14s0 .04-.02.12q-.01.05-.02.09v.05s-.02.05-.02.05v.1l-.05.02s.05 0 .05.07l-.02.25c0 .22-.05.68-.09.99-.02.14.01 1.05.06 1.13" fill="#1d1d1b" fill-rule="evenodd"/></svg>