<svg viewBox="0 0 89.8 30.85" xmlns="http://www.w3.org/2000/svg"><path d="m27.58 13.86h.21c.26 0 .7.13.74.3.19.84-2.22 2.73-3 2.49 0-.29.47-.55.79-.75a3.68 3.68 0 0 0 .85-.65c.34-.37-2-.33-2.28-.24a1.39 1.39 0 0 0 -.61.4c-.1.13-.47.6-.53.31a6 6 0 0 1 1-1.61c.3-.41 1.45-.47 2.15-.39.07-.08.7.11.71.11m-20.55-.55.16-.07a2 2 0 0 0 .33-.15l.3-.16c.4-.19.88-.41 1.16-.56s.8-.42 1.13-.55l1.25-.56c.2-.08.43-.17.6-.26a5.55 5.55 0 0 1 .6-.29l.53-.24.6-.32c.52-.22.82-1.17.42-1a21.21 21.21 0 0 0 -3.7 1.69l-.16.08-.18.08-.3.13-.28.14-.14.08-.41.2-.5.24-.94.47-.31.16-.16.06-1.13.55-.25.13-.63.35a2.29 2.29 0 0 0 -.92 1.11 2.62 2.62 0 0 0 -.13 1.41c0 .11.69.59.8.43a.66.66 0 0 0 -.13-.94c-.26-.21-.49-.4-.2-.71a3.14 3.14 0 0 1 .73-.56l.54-.22.19-.09zm-2.5 9.91c0 .1-.07.13-.12 0a2.59 2.59 0 0 1 -.38-1.39c0-.53.21-2.38.63-2.56 0 0-.07.41-.07.42a5.09 5.09 0 0 0 -.16.83 2.6 2.6 0 0 0 .1 1.35l.36.48c.11 0 .19.05.25 0a2.77 2.77 0 0 0 .12-.33c0-.11.16-.47.23-.39a1.52 1.52 0 0 1 -.6 1.76zm.06 3.81a6.08 6.08 0 0 0 1.49-.15 19.85 19.85 0 0 0 2.68-1c0-.08 0-.08.31-.13l.34-.16.14-.08.25-.16.16-.08c.22-.12 1.16-.66 1.23-.55-.14.74-.39 2.49.13 3 0 0 .11.25.14.3l.06.14a1.57 1.57 0 0 0 .2.3l.19.2.3.26a2.2 2.2 0 0 0 1.28.56 4.28 4.28 0 0 0 1.87-.37 11.61 11.61 0 0 0 2.85-2.51 16.52 16.52 0 0 1 2.76-2.36 7.49 7.49 0 0 1 3.34-1.53c.38 0 .9-.09 1 .34s.15.56.24.83a3 3 0 0 0 .83 1.3c.26.17 2 1.14 2.18.44a2.9 2.9 0 0 0 .14-.77v-.54l-.05-.38c.1-.21 1-.11 1.34-.07a7.08 7.08 0 0 0 .9 0h.16.29a17.75 17.75 0 0 0 2.59-.48l.44-.14.16-.06.35-.12c.17-.05.94-.31 1-.19s0 .47-.07.68v.28.32a5.6 5.6 0 0 0 0 1.43 6.15 6.15 0 0 0 .57 1.68c.56.56 1.18 1.18 1.29 1.24a4.63 4.63 0 0 0 2.19.5 23.94 23.94 0 0 0 2.58-.44 15.88 15.88 0 0 0 3.37-1.73 22.33 22.33 0 0 0 2.27-1.8l.08-.12.19-.25a4.09 4.09 0 0 0 .22-.39l.31-.83a7 7 0 0 0 .28-2.41 65.22 65.22 0 0 0 -1.08-7.27v-.19-.24-.24-.32-.16-.23-.24c0-.13-.07-.5-.12-.83a5.23 5.23 0 0 0 -.12-.64c0-.13-.11-.64-.16-1v-.23-.09-.18c-.06-.31-.11-.62-.16-1 0 0-.08-.64 0-.55a4.68 4.68 0 0 1 .49.42c.27.25.44.28.35-.23a7.14 7.14 0 0 0 -.5-1.5 21.79 21.79 0 0 0 -1.31-2.69 4.28 4.28 0 0 0 -.5 1.42.54.54 0 0 0 .1.44 1 1 0 0 1 .1.39l.12.84v.35.4c.05.47.14 1.16.2 1.5s.15 1 .2 1.41v.14.23.28.32.36.15.2c0 .1.05.36.08.63a45.33 45.33 0 0 0 .8 4.8c.19.86.89 5 .68 5.38-.87 1.56-5.19 4-7.46 4.26a5.71 5.71 0 0 1 -2-.07 3.72 3.72 0 0 1 -1.54-.84.43.43 0 0 0 -.14-.2 1.22 1.22 0 0 1 -.22-.18 1.78 1.78 0 0 1 -.24-.37c-.11-.25-.26-.6-.32-.8-.29-1-.23-2.08.59-2.49s1.89-.94 2.11-1a18.19 18.19 0 0 0 2-.9 9 9 0 0 1 2-.81 6.71 6.71 0 0 0 .69-1.63c-.28-.18-1.6.48-2.12.74a20.5 20.5 0 0 1 -3.62 1.53 3.77 3.77 0 0 1 -1.87-.28 12.67 12.67 0 0 1 -2-1.12c-.39-.34-2.09-2.28-1.68-3a8.58 8.58 0 0 1 2.61-1.33 7.58 7.58 0 0 1 1.48-.34l1.27-.16a3.48 3.48 0 0 1 .58 0h.14.38a2.51 2.51 0 0 1 1 .16c.19.07.37.15.54.23s.21.12.28.08-.11-.5-.23-.58a6 6 0 0 0 -1.82-.78 10.51 10.51 0 0 0 -1.4-.28h-.79-.28-.24a6.77 6.77 0 0 0 -2.15.56 3.86 3.86 0 0 1 -.36.22 5.75 5.75 0 0 0 -.62.48 5.07 5.07 0 0 0 -.71 1.07 4.18 4.18 0 0 0 -.31 2.93 3.73 3.73 0 0 0 .49 1l.31.48.18.22a4.48 4.48 0 0 0 1.11 1.05l.58.39c.38.25.43.29-.06.48a10.35 10.35 0 0 1 -5 .5 2.74 2.74 0 0 0 -.4-.08 2.08 2.08 0 0 1 -.48-.12l-.43-.16a5.34 5.34 0 0 1 -.94-.41c-.28-.18-.82-.51-.86-.55a3.76 3.76 0 0 1 -.4-.4l-.27-.28a3.79 3.79 0 0 0 -.38.71l-.62.14h-.23-.32l-.19.1-.36.08-.4.14-.2.08-.16.06a8.44 8.44 0 0 0 -2.39 1.48l-.74.57-.29.26a5.49 5.49 0 0 0 -.52.44c-.17.15-.34.3-.53.44a10 10 0 0 0 -.93.92l-.18.19-.44.44-.31.26a7 7 0 0 1 -2.14 1.48 2.38 2.38 0 0 1 -2.47-.27 1.56 1.56 0 0 1 -.49-1.07 8.41 8.41 0 0 1 .47-2.26 11.79 11.79 0 0 1 1.74-1.74 3.54 3.54 0 0 0 .92-3.41 4.51 4.51 0 0 0 -.58-1.45 9 9 0 0 1 -.72-1.42 1.11 1.11 0 0 1 .48.06c.1 0 .32.08.29-.08a.86.86 0 0 0 -.3-.45l-.2-.16c-.2-.14-.2-.14-.22-.17a2.89 2.89 0 0 0 -.35-.35l-.29-.28a2 2 0 0 1 -.37-.45c-.11-.22-.22-.43-.34-.06a4.37 4.37 0 0 0 -.27 1.33 25.11 25.11 0 0 0 1.17 2.45c.2.37.43.8.64 1.11a4.81 4.81 0 0 1 .5 1c0 .67-3 2.79-3.7 3.17-1.44.76-3.8 2-5.69 1.86l-1-.19a4.42 4.42 0 0 1 -2.39-1.39 3.5 3.5 0 0 1 -.64-1.62 13.3 13.3 0 0 1 .4-2.76c.06-.26.11-.47.34-.54a2.55 2.55 0 0 0 .62-.44c.22-.17.84-2.48.28-2.16-.09 0-.14.34-.17.49a2.77 2.77 0 0 1 -.07.41c-.07.22-.22.45-.52.32-.86-.37-.88-2.1-.72-3.13a7.17 7.17 0 0 1 .16-.83v-.16-.12-.2-.19-.2l.08-.28c0-.12.09-.7-.12-.53-.53.46-1 4.28-.91 5.2a3.11 3.11 0 0 0 .23.91 1.9 1.9 0 0 0 .22.37 2.4 2.4 0 0 1 .16.27c.05.11 0 .33-.12.51a5.29 5.29 0 0 0 -.21.6 6.52 6.52 0 0 0 -.2.79 8.78 8.78 0 0 0 -.05 2.67 4.55 4.55 0 0 0 .7 2 2.76 2.76 0 0 0 .6.73l.64.51.15.09.32.15a1.43 1.43 0 0 0 .36.14l.72.2h.12zm46-25.69a9.65 9.65 0 0 0 1.95-.4 4.91 4.91 0 0 0 1-.42l.43-.27a2.11 2.11 0 0 1 .45-.22c.39-.12-.07 1.39-.12 1.56a4.17 4.17 0 0 1 -.48 1.21c-.12 0 .08-.65.1-.73s.27-.94.1-.94a3.28 3.28 0 0 0 -.46.22c-.16.09-.31.16-.49.24s-.57.24-.88.34a6.73 6.73 0 0 1 -1 .24c-.29.05-.62.1-.87.12a12 12 0 0 0 -1.35.15 1.48 1.48 0 0 1 -.33 1l-.11-.36v-.12a2.33 2.33 0 0 0 -.26-.55c-.28-.42-.47-.7-.38-1 .19-.54.33-.5.9-.34a7.36 7.36 0 0 0 1.83.16m35.04 3.92c-.11-.36-.94.06-.93.44s.64.62.86.74c.89.47.22-1 .07-1.18m-27.31.18c-.14-.33-.84.12-.77.39a1.21 1.21 0 0 0 .54.6c.6.42.52-.7.23-1m-37.32-.93s-.16.72-.22 1a2.72 2.72 0 0 0 -.08 1.39c.07.29.27.75.62.63a.73.73 0 0 0 .32-.28v-.15c0-.06.08-.26.16-.28s0 .54 0 .63a2.69 2.69 0 0 1 -.22.66c-.1.18-.4.51-.64.47a.91.91 0 0 1 -.58-.57c-.15-.49 0-3.49.62-3.46m-11.56 4.34a3.5 3.5 0 0 1 .06-2.14v-.16-.2a2.33 2.33 0 0 1 .14-.47 2.43 2.43 0 0 1 .32-.51c.1-.12.27 0 .21 0a4.88 4.88 0 0 0 -.51 1.87 2.48 2.48 0 0 0 .39 1.19.49.49 0 0 0 .57.15.6.6 0 0 0 .19-.33 3.25 3.25 0 0 1 .15-.45c.09-.14.15.35.13.41v.16l-.08.4a7.34 7.34 0 0 1 -.4.8c-.32.6-1.07-.54-1.13-.72m67.86-.63a4.08 4.08 0 0 0 .06-.68v-.28a6 6 0 0 1 0-.89 4.38 4.38 0 0 1 .16-1.11 1.69 1.69 0 0 1 .29-.51l.2-.09s.15-.13.16-.19h.16a.86.86 0 0 0 .4-.14c.17-.08.48-.08.52 0l.08.12.08.12a1.45 1.45 0 0 1 .14.4c0 .14-.15.86-.35.62s-.54-.62-.81-.64-.49.27-.56.49v1.37s0 .79 0 1.25-.15 2-.47 2c-.06 0-.11-.07-.13-.13v-.2l-.06-.2a3.9 3.9 0 0 0 -.36-.59l-.4-.58-.07-.12-.24-.13-.18-.17a2.59 2.59 0 0 0 -.39-.42l-.17-.14h-.24a.33.33 0 0 1 -.2 0c-.38-.14-.94-.41-1-.82-.19-.67 0-1.27.77-1a5.68 5.68 0 0 1 1.07.76c.07.06.52.61.75.89l.77.95m-6.47-3.72a1.29 1.29 0 0 1 -.17.86c0 .08-1.57 1-2 1.24-.76.43-1.54.88-2.26 1.36-.23.16-.67.4-1 .58l-1 .63c-.18.11-.34.21-.53.31l-.24.16a1.52 1.52 0 0 1 -.26.16l-.51.32c-.23.15-.49.31-.6.26-.36-.15.34-1 .51-1.13.38-.24.78-.48 1.14-.72s.75-.48 1.13-.71l.66-.4.16-.08.39-.17c.76-.47 1.54-.91 2.31-1.35.38-.22.74-.42 1.11-.65l.5-.3a1.91 1.91 0 0 1 .66-.32m-38.57 3.5.18-.22a1.63 1.63 0 0 0 .36-.72c0-.05-.38-.33-.53-.44a.86.86 0 0 1 -.42-.5 2.44 2.44 0 0 1 .28-1.17c.29-.49 1.84 1.29 1.89 1.35.22.27.48.6.63.82a5.64 5.64 0 0 0 .73 1c.08 0 .05-.71.05-.71v-.46c0-.37 0-.37 0-.71a3.08 3.08 0 0 1 .12-.79c.1-.37.33-1.1.61-1.21.6-.22 1.58 1.07 1 1.67-.06.08-.65-.37-.79-.47a.46.46 0 0 0 -.49-.1 6.16 6.16 0 0 0 0 1.38c0 .6 0 2.93-.44 3.3l-.18-.37-.08-.14-.14-.26a8.32 8.32 0 0 0 -.54-.86c-.3-.4-1-1.35-1.24-1.33a1.77 1.77 0 0 0 -.17.45 3.88 3.88 0 0 1 -.14.44c-.05.1-.16.3-.24.43a2.4 2.4 0 0 1 -.16.27l-.14.2c-.19.46-1.23 1.09-1.76 1.4a4 4 0 0 1 -1.28.53l-.36.1-.17.08-.14.06c-.18.06-.37 0-.18-.15s.67-.41 1-.58a8 8 0 0 0 .95-.65l.88-.7.41-.35a5.93 5.93 0 0 1 .58-.53m-30.9-.26c0-.3.07-1 .28-1.07s.65.07.88.2a6.55 6.55 0 0 1 1.1.93 8.42 8.42 0 0 1 .55.64c.1.11.45.54.51.44v-.28c0-.38-.08-.84-.08-1a3.7 3.7 0 0 1 .16-1 1.92 1.92 0 0 1 .55-1.08c.55-.35 1 .41 1.12.84.09.26-.12.65-.3.64l-.53-.45a.37.37 0 0 0 -.56.09 3.27 3.27 0 0 0 .02 1.42 4.53 4.53 0 0 1 0 1c0 .29-.1 1.9-.29 1.92 0 0-.14-.24-.14-.26l-.07-.16-.07-.15a6.08 6.08 0 0 0 -.4-.66 8.93 8.93 0 0 0 -.79-.94c-.3-.3-.61-.6-.93-.43s-1.02-.32-1.01-.64m56.06-.68-.09-.13a1.19 1.19 0 0 1 -.33-.64 3.08 3.08 0 0 1 .42-1.46 1.63 1.63 0 0 1 .75-.58c.42-.1.6.43.66.77a4.81 4.81 0 0 1 0 .76c0 .3-.07 1.14 0 1.18a2.22 2.22 0 0 1 .83.75 1.09 1.09 0 0 1 0 .79c0 .08-.8-.44-1-.55-.39-.26-.67.09-1 .47a6 6 0 0 1 -1.8 1.64l-.14.08-.28.14-.26.14-.4.24a7.05 7.05 0 0 1 -1.46.61c-.42-.09 2.11-1.76 2.24-1.84.38-.29 2.3-1.74 1.86-2.37m-16.74 3c.08-.82.3-3.14.32-3.27.07-.45.4-1.92.87-1.83a5.69 5.69 0 0 1 -.2 1l-.07.32a2.11 2.11 0 0 0 -.12.43 7.41 7.41 0 0 0 -.08 2.89 2.06 2.06 0 0 0 .64 1.23.38.38 0 0 0 .65-.16s.11-.34.14-.47.11-.36.32-.31c.5.12-.48 2.21-.81 2.38a.65.65 0 0 1 -.71-.14 4.85 4.85 0 0 1 -1-2m45.14-5.95c.28 0 .45.9.48 1.18a1.86 1.86 0 0 1 0 .36v.56a2.24 2.24 0 0 0 .09.64c.23.16 1.08.87.52 1.33-.06.05-.37-.14-.51-.23s-.48-.31-.59-.28-.22.21-.28.3a4.26 4.26 0 0 1 -.37.4c-.24.23-.64.63-.73.7l-.76.68c-.1.08-.6.43-.89.62a13.1 13.1 0 0 1 -4.25 2.1c-.3.07.51-.52.51-.52a5.57 5.57 0 0 1 .78-.47c.29-.16 1-.64 1.53-1a27.16 27.16 0 0 0 2.66-1.79l.62-.52a5.31 5.31 0 0 1 .47-.45c.34-.32.14-.47-.16-.69a2.72 2.72 0 0 1 -.56-.51c-.5-.73.55-3.2 1.44-2.41m-67.44 9.15c-.49-.73.22-1.76.57-2.28.53-.77 9.11-4.21 9.2-4.18s-.08.78-.12.9l-1.12.52-.24.08a1.2 1.2 0 0 0 -.35.14c-.19.09-.43.22-.6.29l-.24.08-.32.12-.13.06-.2.08-.35.16-1.16.52c-1.24.54-4.43 1.93-4.63 2.53 0 .1.28.35.36.41s.35.28.35.48c0 .81-.79.45-1 .09m38.22-.59c-.23-.25.47-1.39.75-1.47a2.49 2.49 0 0 1 .68.38 2.7 2.7 0 0 0 .8.45c.09 0 .36-.54.41-.65a1 1 0 0 1 .46-.56c.17-.07 1.36.87 1.44 1.06a1.53 1.53 0 0 1 -.62 1.57s-.86-.59-1.07-.74a1.65 1.65 0 0 0 -.43-.28c-.06 0-.32.47-.39.61s-.35.65-.36.65c-.26.15-1.63-.84-1.67-1m14.58-.27c0-.56.55-2.68.9-2.7 0 0-.29.92-.3.95a3.78 3.78 0 0 0 -.2 1.31c0 .55.34 1.31 1 1.24.11 0 .2-.34.23-.49s.08-.48.23-.45-.14 1.82-.79 2-1.17-1.29-1.09-1.88m14.11 1.33c-.27-.76.22-3.09.74-3.37.31-.17-.22.89-.22.89a1.77 1.77 0 0 0 -.18.42v.2.43.14.18.2c0 .07.06.16.1.26s.2.42.32.43.35 0 .48-.22.28-.48.32-.45c.25.17-.4 1.4-.51 1.49-.51.45-.87-.07-1.05-.6m-64.69 4.61a5.74 5.74 0 0 1 .66-3.52c.19-.23 0 .68-.06.79a5.79 5.79 0 0 0 -.28 1c-.08.52.24 1.62.64 1.68.14 0 .2-.16.24-.3s.13-.45.23-.41-.21 1.73-.65 1.78-.68-.77-.78-1m54.82 1.56a2 2 0 0 0 -1.11-.75 2.52 2.52 0 0 0 -1 .06.77.77 0 0 0 -.49.66c0 .41 2.56.37 2.55 0m-68.78.78c-.13-.29.25-1.62.79-1.5a7.4 7.4 0 0 1 1.41 1c.22.36-.34 1.71-.67 1.55a7.19 7.19 0 0 1 -1.53-1.06m54.62.12c.25-.47-2-1.52-2.31-1.6a6.58 6.58 0 0 0 -1.13 1.92 1.06 1.06 0 0 0 .22.89.78.78 0 0 0 .68.24c.58-.08 2.53-1.05 2.54-1.45m-4.08 1.55a6.49 6.49 0 0 1 .43-2.34 7.21 7.21 0 0 1 .32-.71c.09-.17.31-.54.1-.75l-.24-.18-.31-.25-.66-.53a15.22 15.22 0 0 1 -1.2-1.26 2.94 2.94 0 0 1 .08-1.62c0-.06.3.12.37.17a1.63 1.63 0 0 0 .46.2l.8.3.43.18a4.39 4.39 0 0 1 .42.17c.12.07.23.28 0 .34l-.24.06-.31.08c-.14.07.58.6.58.6.24.17.68.5 1 .43a4 4 0 0 0 .32-.42l.08-.12.17-.23c.11-.13.27-.35.46-.62.08-.12.14-.23.25-.37s.16-.19.16-.2.21-.27.31-.4l.32-.45a1.21 1.21 0 0 0 .15-.22.62.62 0 0 1 .16-.2c.43-.24-.22 1.73-.28 1.83s-.33.47-.47.66a7.56 7.56 0 0 0 -.48.7c-.16.32-.31.61 0 .79a3.42 3.42 0 0 1 .73.48 2.73 2.73 0 0 1 1 1.62 5.19 5.19 0 0 1 -.3 1.9c-.34.75-2.93 2.6-4 1.77a1.81 1.81 0 0 1 -.59-1.41m-39.73-2.05c-.06-1.26-.9-5.46-1.48-8.35-.27-1.35-.52-2.74-.76-4.16-.06-.36-.14-.8-.22-1.11 0 0-.1-.25-.12-.29a.8.8 0 0 1 -.14-.54c0-.15.28-1 .41-1.45.06-.22 1.06 1.77 1.12 1.89l.24.39s.2.36.28.52a2.78 2.78 0 0 1 .45 1.29c0 .22-.52-.27-.52-.27-.15-.15-.39-.39-.5-.36s.48 2.73.52 2.86c.1.4.2.83.28 1.27s.19 1.19.28 1.58c.4 2 1 5 1.08 6.22a12.65 12.65 0 0 1 -.32 4 1.9 1.9 0 0 1 -.2.53c-.2.11-.2 0-.2-.17v-.48-.66c0-.72-.13-1.81-.24-2.74m21.53 3.68 1.51-.66q.89-.39 1.83-.75c.58-.22 1.17-.46 1.75-.71s1.28-.31.53.56c-.06.07-1.44.68-1.76.8-.53.2-1.47.56-1.75.7-.48.24-3.8 1.88-2.11.06m11.29-18.94a4.85 4.85 0 0 1 .45-1.29c.19-.09.21 0 .27.18a2.65 2.65 0 0 0 .22.54 1.15 1.15 0 0 1 .12.25 4.89 4.89 0 0 0 .2.48c.06.13.16.39.24.59s.26.62.39.93c.06.12.61 1.36.3 1.41l-.39-.37c-.11-.11-.4-.39-.47-.32s.76 5.45.91 6.19c.22 1.11.39 2.26.52 3.29.07.52.18 1.24.28 1.9 0 .27.05.36.08.63v.52.27c0 .07.06.42.08.52.17.92.1 4.38-.55 5-.08.08-.15-1-.16-1.24v-.51c0-.29-.08-1.31-.08-1.31-.05-.7-.23-2-.36-3-.06-.39-.25-1.62-.37-2.37l-.08-.52q-.06-.36-.12-.75v-.28l-.05-.16c0-.27-.09-.62-.11-.83-.14-1.36-.43-3.16-.68-4.67-.14-.78-.28-1.62-.37-2.38v-.47-.44c0-.28-.11-1-.12-1a2.27 2.27 0 0 1 -.15-.79m34.63 20a1.72 1.72 0 0 0 1-.82c0-.08.24-.47.31-.41v.41c0 .12 0 .18.16.2a2.29 2.29 0 0 0 .76.12 2.44 2.44 0 0 0 .23-.71c.06-.21.2-.56.36-.62s0 .62 0 .62a3.48 3.48 0 0 1 -.22.67 2.11 2.11 0 0 1 -.61.88.55.55 0 0 1 -.46.13 2.12 2.12 0 0 1 -.4-.1l-.05-.07-.18-.06a5 5 0 0 0 -.47.31 2.27 2.27 0 0 1 -.56.29 1 1 0 0 1 -.82-.1 1.21 1.21 0 0 0 -.85-.22 12.33 12.33 0 0 0 -2.45 1.41c-.61.41-1.93 1.26-2.7 1.17a11.91 11.91 0 0 1 1.23-.77l1.25-.87c.8-.57 2.27-1.57 2.59-1.71a1.16 1.16 0 0 1 1.07 0 1.22 1.22 0 0 0 .84.26m-53.55 2.3c0-.5.51-2.89.85-2.83a5.86 5.86 0 0 1 -.18.87 5.27 5.27 0 0 0 -.23 1.51 1.59 1.59 0 0 0 .47 1.08c.26.24.42-.05.48-.25s.27-.46.28.09-.25 1.21-.74 1.27-1-1.24-.93-1.74m-9.69 1.1a6.22 6.22 0 0 1 .54-3.66c.29-.25-.09 1.08-.09 1.08a3.8 3.8 0 0 0 0 1.75c.05.22.29.67.54.69s.33-.05.4-.24.22-.59.28-.57-.15 1.2-.2 1.3-.34.63-.64.54-.57-.47-.79-.89m45.25.59a4.45 4.45 0 0 1 -1.75-2.53 5.1 5.1 0 0 1 0-1.35v-.33-.18a3.1 3.1 0 0 0 0-.61c0-.13-.64.32-.67.35l-.56.38-.24.16-.45.32-.26.15-.13.09-.21.15c-.51.28-1 .57-1.51.87s-1 .56-1.51.8a18.93 18.93 0 0 1 -3.43 1.09l-2.18.44a12 12 0 0 1 -1.93.39c-.22-.07.37-.4.39-.41l.7-.3.87-.36.16-.06.2-.08.2-.07.44-.16c1-.43 1.91-.84 2.78-1.27a56 56 0 0 0 6-3.5c.93-.61 3.62-2.62 3.81-3.38a4.81 4.81 0 0 0 -.63-1.3c-.26-.43-.59-1-.77-1.34-.31-.68-1.23-2.84-1.23-2.84 0-.18.21-1.47.35-1.45a14.77 14.77 0 0 1 2.13 2.33c0 .07-.28 0-.33 0a1.58 1.58 0 0 0 -.53 0c-.17 0 .45 1 .45 1l.16.3c.07.14.16.27.24.4a4.46 4.46 0 0 1 .77 1.8 5.86 5.86 0 0 1 -.11 2.22v.12c0 .07-.08.22-.1.27a2 2 0 0 1 -.25.39c-.2.24-.42.48-.63.71s-.36.33-.62.57a9.32 9.32 0 0 0 -.69.67 4.05 4.05 0 0 0 -.22 1.54 7.79 7.79 0 0 0 .63 1.62c.68 1.46 3.3 1.14 4.69.6a11.23 11.23 0 0 0 3.63-2.51c.12-.12.41-.38.62-.55l.42-.4.15-.18.16-.18c.32-.31 1.35-1.32.69-1.78-.1-.07-.39.05-.48.09a4.07 4.07 0 0 1 -.78.18 8.11 8.11 0 0 1 -1.83.16c-.18-.1-1.11-.5-1.21-.52-.64-.14-.35-2.21-.14-2.71a2.39 2.39 0 0 1 1.87-1.52 2.32 2.32 0 0 1 1.42.5 5 5 0 0 1 .86.79l.31.42c.15.2.36.47.47.5a8.34 8.34 0 0 0 2.06-1.26l.86-.68c.13-.09.54-.32.62 0a2.76 2.76 0 0 1 0 .81 1.21 1.21 0 0 0 .1.63 1.89 1.89 0 0 0 .94.91 2.89 2.89 0 0 0 3.23-.73 5.63 5.63 0 0 0 .79-1.28c.15-.31.61-1.21.89-1.12s-.23.87-.26.92a.74.74 0 0 0 -.12.65 1.87 1.87 0 0 0 1 .73 2.78 2.78 0 0 0 .78.24c.11 0 1.3 0 1.13-.24 0 0-.55-1.17-.56-1.22a4 4 0 0 1 .35-1.53c.52-.24.86 2.91.77 3.27a2.27 2.27 0 0 1 -.72 1.23 2.63 2.63 0 0 1 -2.21 0 1.77 1.77 0 0 1 -.62-.41 3.07 3.07 0 0 1 -.37-.4l-.08-.12-.07-.13c-.17-.08-.49.48-.61.68a1.73 1.73 0 0 1 -.5.54 13.64 13.64 0 0 1 -1.45.69 2.76 2.76 0 0 1 -1.51-.08 3.85 3.85 0 0 1 -1.17-.9 1.37 1.37 0 0 1 -.24-.5 1 1 0 0 1 -.08-.28v-.2c0-.26 0-.3-.05-.34s-1.29.81-1.31.82a4.9 4.9 0 0 0 -1.11.95l-.08.81a7.18 7.18 0 0 1 -.12 1 3.78 3.78 0 0 1 -.59 1.04 5.69 5.69 0 0 1 -.61.75 7.07 7.07 0 0 0 -.68.77l-.33.32-.22.18-.2.18c-.26.22-.77.67-.8.71a8.3 8.3 0 0 1 -1.72 1.26c-1.81 1-3 1.54-5.37.75m-22.32 1a2.24 2.24 0 0 1 .53-.31l.4-.18.4-.2.14-.06.45-.2.32-.18.16-.06.18-.08c.48-.26 1-.52 1.45-.79l.6-.36c.17-.1.61-.36.71-.31s0 .63-.08.81a22.57 22.57 0 0 1 -3 1.72c-.49.25-1.11.56-1.53.74l-.44.16-.28.13-.16.08c-.37.12-.05-.84.11-.91" fill="#221e1f" fill-rule="evenodd"/></svg>