<svg viewBox="0 0 79.05 27.28" xmlns="http://www.w3.org/2000/svg"><path d="m24.23 26.84c-.46-.39-.67-.71-.98-1.26-.27-.49-.27-1.34-.21-1.91 0 0 .12-.68.16-.94.04-.25.12-.66.1-.71-.03-.05-.53.33-.6.39-.17.15-.39.3-.77.52-.1.07-.35.24-.35.24-.15.08-.38.21-.54.34-.04.03-.05.04-.23.15-.7.43-2.54 1.48-2.62 1.51l-.41.16q-.21.08-.37.14l-.16.06-.2.08-.16.06-.16.04-.21.06c-.41.14-.93.31-1.39.47-.06.02-.86.25-1.27.37-.24.07-.49.14-.69.22-.25.1-.75.31-.9.24-.17-.07.24-.45.24-.45l.12-.08.21-.08.14-.08c.3-.19.61-.35.94-.53.31-.17.67-.34 1-.49.37-.17.73-.32 1.06-.53.58-.35 1.24-.76 1.76-1.02.62-.31 1.38-.71 1.92-1.14.05-.04.19-.12.26-.16.14-.08.26-.16.39-.24.2-.14.61-.41.61-.41.43-.28.87-.59 1.29-.9.1-.07.37-.28.54-.42.18-.14.35-.27.54-.4.18-.12.36-.27.53-.41.1-.08.2-.18.3-.27.09-.09.21-.19.3-.27.76-.61 1.53-1.31 2.11-2.09.43-.58.34-.78-.42-.96-.47-.12-1.17 0-1.68.08-.29.05-1.19.17-1.35 0l-.16-.04c-.11-.04-.2-.09-.28-.15-.14-.12-.28-.26-.38-.42-.73-1.22.46-3.39 1.39-3.68.15-.05 1.03-.3 1.15-.06l.16.06.16.08c.13.07.27.16.39.24.15.11.34.27.5.42.36.31.7.78.91 1.23.52 1.11.85 3.08.17 4.29-.29.52-.79 1.08-1.23 1.47-.48.42-1.22 1.07-1.51 1.39-.72.79-1.4 4.27-.17 4.84.35.16.9.12 1.27-.02 1.16-.46 1.87-1.35 2.59-2.25.35-.44.81-1.01 1.06-1.29 0 0 .54-.54.82-.82.11-.09.27-.22.34-.33.08-.11.88-.68 1.18-.88.22-.14.49-.31.8-.49l.25-.14.16-.06s.27-.11.29-.14c0 0 1.17-.41 1.31-.45.21-.06.95-.3 1.39-.45.68-.23 2.28-.89 2.54-1.39.24-.46-.42-3.64-.64-4.62-.31-1.38-.57-2.74-.82-4.19l-.04-.2-.04-.16-.04-.24-.08-.49-.21-1.02s-.15-.76-.2-1.02c0-.03-.11-.72-.16-1.1l-.04-.28-.04-.29c-.02-.21-.04-.33-.08-.61-.02-.12-.07-.34-.1-.45l-.06-.16-.06-.17-.06-.16c-.05-.32.26-1.62.49-1.65.11-.01.22.29.25.38.05.16.16.35.27.53.11.19.33.57.33.57.08.13.19.32.29.49.25.43 1.23 2.15.99 2.49-.11.16-.43-.24-.47-.29-.13-.17-.39-.43-.56-.46-.07-.01.35 2.48.39 2.69.15.87.32 1.72.53 2.56.43 1.71 1.16 4.83 1.02 6.25-.12 1.27-.32 3.28-1.1 3.52l-.24.18s-.15.09-.27.15c-.25.13-.65.34-.78.39-.47.17-1.12.4-1.43.49-1.03.3-2.35.7-3.05 1.2-1.04.75-2.02 1.46-2.81 2.44-.78.96-1.69 2.08-2.47 2.78-.26.23-.58.43-1 .51-.31.06-1.03-.2-1.66-.43m-16.03-5.42s.78-.48.85-.52c.02-.01.29-.16.3-.17q.12-.08.74-.48c.66-.41 1.26-.86 1.83-1.35.48-.4.84-.97 1.24-1.58.02-.02.24-.81.35-1.18.1-.35.29-.98.33-1.1.28-.79.73-1.39 1.26-1.93.21-.21.67-.18.97-.11.87.2 1.92 2.2 2.19 3.09.14.48-.01 1.33-.23 1.67-.12.19-.83.21-1.19.22-.51.01-1.3-.15-1.8-.32-.22-.07-.42-.16-.61-.24-.27-.13-.57-.26-.67-.24-.03 0-.11.36-.13.46l-.04.2-.04.16-.04.2c-.09.34-.27.75-.47 1-1.04 1.26-2.27 2.12-3.7 2.99-1.44.88-2.92 1.73-4.64 2.3-.58.19-4.52 1.19-4.64 1.17-.4-.05 1.73-1.05 1.82-1.09.35-.16.69-.34 1.02-.51.05-.03.77-.37 1.13-.53 1.45-.67 2.84-1.39 4.18-2.12m47.76 3.63c-.46-.31-.88-.76-1.14-1.26-.23-.43-.36-1.02-.43-1.59-.03-.23-.02-.59 0-.88 0-.17.06-1.11-.02-1.1-.07.01-.2.1-.27.14l-.14.09q-.16.14-.19.15l-.12.08-.26.17q-.13.11-.21.15t-.25.19s-.26.17-.38.25c-.07.05-.32.21-.49.33l-.25.16c-.46.28-.98.6-1.38.87-.21.14-.45.25-.68.35-.31.13-.64.31-.92.49-.87.54-2.13.85-3.29 1.08-.72.14-1.47.3-2.17.49 0 0-2.49.65-1.82.22.86-.55 2.11-1.02 3.19-1.43.72-.27 2.05-.98 3.05-1.51 2.08-1.11 8.63-5.11 9.06-6.65.07-.26-1.32-2.52-1.62-2.99-.13-.21-.27-.51-.39-.81q-.04-.12-.1-.29c-.07-.17-.18-.48-.21-.53-.37-.82-.38-1.19-.11-2.23.02-.09 1.57 1.31 1.72 1.48.04.04.24.27.35.39.08.09.32.46 0 .42-.31-.04-.64-.08-.68-.08-.22.01.42.96.44.99l.16.29.08.14q.08.14.16.26c.34.5.67 1.06.8 1.75.09.5.1 2.01-.16 2.44-.15.25-.48.78-.48.79-.09.12-.18.25-.26.33-.13.13-.27.27-.27.28s-.38.37-.55.52c-.27.25-.44.44-.68.73-.36.42-.1 2.26.2 2.72.36.57 1.01 1.06 1.71 1.29 1.76.58 3.73-.57 4.99-1.4.83-.55 4.02-3.34 4.15-4.19.03-.18-.19-.5-.37-.51-.01 0-.29.1-.47.16-.16.06-.35.1-.53.12-.51.08-1.78.25-1.8.25-.19-.02-.91-.33-1.41-.54-.58-.25-.43-2.07-.19-2.62s.59-1.03 1.06-1.34c.76-.51 1.62-.2 2.29.24.24.16.58.51.86.79l.09.13.17.2c.15.18.4.5.46.52.25.06 1.49-.83 1.77-1.05.47-.38 1.35-1.07 1.57-1.11.29-.04.28.46.27.63-.03.33-.06.73.06.92.25.39.56.62.98.94.99.73 2.7-.15 3.22-.74.31-.35.55-.79.77-1.24.06-.11.7-1.39.88-1.1.07.12-.12.58-.16.67-.12.29-.3.69-.2.85.2.34.64.56 1.06.77.34.17 1.85.34 1.86-.16 0-.12-.2-.52-.27-.62-.19-.26-.32-.43-.3-.7.03-.34.14-1.07.36-1.26.32-.27 1.14 2.08.91 2.64l-.04.29-.04.24c-.01.05-.08.26-.12.37-.09.24-.22.45-.36.64-.41.61-1.63.61-2.33.29-.32-.14-.62-.34-1.07-.81-.1-.11-.32-.34-.35-.33-.02.01-.17.27-.26.42-.15.25-.18.3-.3.46-.17.22-.48.45-.72.63-.44.32-1.74.76-2.18.54l-.29-.04-.12-.04c-.07-.02-.24-.08-.29-.1-.17-.08-.39-.21-.51-.35-.43-.52-.81-.98-.85-1.85 0-.07-.66.35-.69.38-.17.17-.35.33-.54.48-.18.14-.35.28-.52.42-.12.1-.24.19-.38.27-.1.06-.25.15-.27.24-.06.26-.07.48-.08.85-.02.58-.07.7-.19 1.06-.13.37-.26.71-.48 1.04-.37.55-.84 1.19-1.35 1.61-.23.19-.47.42-.67.64-.22.24-.44.48-1.28 1.17l-.13.08c-.27.22-.82.63-.91.68-.75.39-1.41.73-2.29 1.08-1.08.43-2.67.27-3.48-.35m-45.39-.87.32-.23.39-.24c.24-.16.64-.39.96-.57.3-.17.59-.35.88-.53.28-.18.6-.38.86-.51.31-.15.64-.32.92-.51.24-.16.65-.39.96-.57.26-.15.98-.57.98-.57.15-.1.71-.46.85-.42.2.06-.07.73-.16.82-.79.83-2.52 1.88-3.63 2.35-.21.09-.7.37-1.02.55-.16.09-.44.25-.51.3 0 0-.35.19-.5.27-.33.17-.65.36-.94.57-.68.49-.7-.31-.36-.71m25.94.22c-.11-.41-.25-.91-.17-1.3.08-.37.85-2.48.86-2.04l-.06.16-.06.16c-.06.18-.11.38-.16.57-.13.52-.19.98 0 1.47.09.23.32.61.64.55.19-.03.24-.15.31-.31.08-.19.2-.46.27-.43.09.04-.07.65-.1.79-.06.24-.24.73-.37.87-.17.17-.43.17-.63.07-.13-.07-.24-.19-.38-.34l-.13-.23zm35.74-3.6c.29-.15.72-.17 1-.02.27.15.51.27.74.3.3.05.77-.36.93-.54.08-.08.16-.18.22-.29.1-.17.2-.36.24-.41.02-.02.04.3.04.3.01.13.08.18.18.27.18.14.55.24.76.12.16-.09.2-.34.24-.65.04-.23.18-.6.32-.68.29-.16-.08 1.11-.14 1.25-.14.36-.29.76-.57.9-.26.13-.42.21-.78.08-.22-.08-.5-.18-.6-.11-.39.28-.81.57-.99.62-.31.08-.59-.07-.78-.18-.2-.11-.35-.2-.61-.18-.25.02-1.56.86-2.66 1.57-.43.28-.84.53-1.33.77q-.18.09-.23.1c-.18.04-.33.08-.45.12-.19.06-.91.09-.45-.12.51-.24.89-.46 1.33-.75 0 0 .36-.26.36-.26q.06-.05.21-.15l.21-.17c.07-.05.23-.16.34-.23.31-.2.74-.54 1.09-.83.33-.26.94-.73 1.37-.82m-29.81-4.17c-.22-1.33-.44-2.67-.7-3.95-.24-1.21-.46-2.4-.65-3.54l-.29-1.71s0 0-.08-.37l-.08-.41c-.07-.38-.16-.89-.2-1.14l-.04-.29-.04-.2-.08-.41c-.06-.34-.09-.56-.12-.77-.05-.37-.12-.86-.16-1.1 0 0-.1-.28-.1-.31-.08-.2-.12-.32-.06-.47 0 0 .12-.5.17-.69.05-.23.17-.75.36-.75.04 0 .21.41.27.54.1.24.21.47.33.68.2.34.45.76.61 1.07l.16.35.06.14.06.16.14.24.12.24c.07.14.62 1.29.22 1.28-.04 0-.28-.22-.44-.36-.17-.15-.45-.41-.56-.38-.02 0 .13.96.16 1.17.02.13.18 1 .29 1.59.08.41.16.8.25 1.18.1.46.2.98.29 1.47.31 1.71 1.07 6.51 1.06 6.6-.07 1.22-.2 3.35-.37 3.83-.43 1.21-.4.29-.37-.45.04-1.09-.07-2.15-.2-3.26m4.3 3.18c-.31-.88-.33-1.91-.04-2.93.09-.32.22-.63.35-.94.09-.21.34-.82.27-.87-.1-.08-.19-.16-.3-.24-.1-.07-.48-.38-.61-.49l-.23-.18-.15-.1c-.19-.16-1.23-1.17-1.26-1.3-.08-.45-.08-1.17.07-1.54.04-.08 2.47.97 2.62 1.1.09.09-.08.2-.18.21-.2.03-.45.08-.48.2-.01.08 1.05.76 1.3.92s1.27-1.37 1.43-1.61.58-.83.75-.98c0-.03.13-.23.15-.26.11-.17.27-.4.42-.38.12.01-.32 1.63-.38 1.74-.04.07-.45.68-.66.99q-.11.13-.15.21c-.43.73-.45.76.18 1.18.38.25.75.5 1 .88.22.32.41.68.47 1.14.06.48-.19 1.62-.39 1.93-.31.47-1.1 1-1.74 1.43-.72.48-1.96.78-2.46-.12m3.81-2.61c.13-.5-1.9-1.5-2.31-1.57-.24-.04-1.01 1.55-1.13 1.85-.42 1.11.9 1.33 1.66.98.24-.11 1.79-1.1 1.78-1.26m-42.82-.45c-.1-.08-.27-.59-.31-.77-.02-.1-.1-.49-.14-.73 0-.18 0-.45-.02-.47-.14-.18.47-2.8.57-3.24.11-.45.57-2.26.82-2.26.21 0-.37 2.01-.4 2.13-.25.87-.37 2-.37 2.85 0 .72.44 1.82 1.05 1.89.23.03.37-.25.43-.43.1-.27.25-.69.4-.67.13.02-.04.78-.08.95-.05.24-.1.44-.19.63-.14.34-.33.78-.65.85-.51.13-.91-.45-1.11-.75m56.86-.56c.21-.35-.92-.82-1.26-.91-.45-.12-1.35.41-1.23.8.17.53 2.02.25 2.48.11m-49.01-1.5c-.63-.09-1.34.2-1.24.82.04.3 2.09.83 2.58.76.24-.04-.45-.89-.45-.89-.27-.34-.44-.51-.89-.69m9.74-.39c.09-.51-1.79-1.21-2.23-.04-.22.59 1.89.23 2.23.04m4.44-.49c-.11-.28.03-2.62.18-2.93.24-.47.23.8.22.85-.03.58-.06 1.15.07 1.42.11.22.35.32.62.35.31.04.77-.4.88-.61.21-.4.17-.78.1-1.3-.02-.18-.16-1.47.13-1.47.17 0 .29.82.32 1.05.09.6.17 1.16.29 1.33.24.32.85.6 1.3.39.03-.01-.36-.93-.4-1.03-.22-.52-.17-1.18 0-1.72.03-.1.73 1.52.81 1.72.27.7 0 1.48-.29 2.01-.13.24-.8.17-1.04.09-.17-.06-.3-.14-.44-.23-.27-.18-.49-.33-.58-.21l-.08.18c-.06.12-.17.25-.26.34-.16.16-.34.3-.54.43-.18.11-.43.12-.6.04-.24-.12-.41-.2-.42-.22-.03-.03-.13-.18-.15-.21-.03-.05-.14-.27-.14-.27m-16.74-7.03s-.09.59-.12.75q-.06.37-.08.61s-.03.9.04.9l.04.16c.02.08.11.28.15.35.09.17.2.35.41.41.25.07.37-.15.43-.35.05-.18.16-.56.25-.54.16.03-.07 1.04-.13 1.23-.08.26-.32.85-.68.75-.62-.17-.96-1.05-.96-1.79 0-.39.14-.94.25-1.36.05-.2.3-1.17.4-1.11m61.49 3.15c-.22-.73.15-3.13.7-3.38.12-.05-.08.61-.08.61l-.08.14-.14.3c-.13.31-.2.74-.16.96.08.42.21.73.4 1.03.15.24.5.08.61-.09.01-.02.1-.24.14-.35.01-.03.1-.24.16-.18.2.21-.25 1.33-.43 1.51-.42.42-.83-.17-1.1-.56m-14.14-1.1c-.06-.59.53-2.67.84-2.68.02 0-.25.87-.26.9-.1.33-.28 1.08-.17 1.38.18.49.51 1.39 1.03 1.13.09-.04.17-.29.19-.4.04-.16.14-.55.27-.53.06 0 0 .56-.02.69-.05.3-.19.65-.31.93-.07.18-.42.47-.59.39-.58-.29-1.1-1-.98-1.81m-40.82-2.38c-.32-.86-.75-1.63-1.31-2.32-.33-.41-.51-.61-1.01-.58-.46.03-1.11-.38-1.25-.75-.09-.24.05-1.01.21-1.2.33-.38 1.82.92 1.99 1.1.23.26.68.77.73.84.14.19.76 1.04.79 1.03.05-.03.05-.67.05-.74v-.37q-.02-.31 0-.59c.02-.3.06-.82.16-1.18.11-.38.33-1.11.61-1.22.22-.09.66-.03.81.19.26.39.67 1.01.18 1.47-.08.08-.33-.19-.42-.29-.11-.12-.35-.34-.54-.33-.41.02-.41.5-.41.88 0 .72-.02 1.49-.04 2.2-.05 1.17-.34 3.15-.88 3.99-.24.38-.7.76-1.15 1.13-.17.14-.49.34-.75.5l-.14.09q-.16.14-.19.15l-.12.08s-.49.06-.18-.08l.02-.17.07-.15.45-.45.23-.2.19-.19.18-.18.48-.45c.42-.46 1.33-1.5 1.24-2.23m26.23 2.79c-.06-.35.35-1.04.52-1.3.15-.22.69.11.89.24.27.17.72.44.89.4.01 0 .28-.51.38-.68.08-.15.29-.49.45-.51.26-.04 1.23.88 1.49 1.13.24.24-.48 1.24-.64 1.46-.04.05-.74-.44-.82-.5-.26-.18-.68-.48-.81-.44-.04.02-.26.51-.31.64-.15.34-.31.71-.68.57-.22-.08-1.27-.83-1.35-1.02m-14.18-5.12c-.34-.18-.84-.47-.98-.84-.31-.83.89-3.02 1.55-2.36.31.31.4.47.49 1.02.04.23.03.34 0 .83 0 .14-.05.81.08.81.21 0 .85.68.91.92.04.15-.04 1.02-.21.87-.37-.34-.82-.75-1.08-.81-.09-.02-.56.56-.67.7l-.08.13-.33.41-.25.28q-.17.22-.18.23-.15.15-.21.2-.07.05-.18.18l-.16.16-.18.18-.23.21-.24.2c-.18.27-1.77 1.36-2.43 1.8-.07.04-1.33.88-1.04.29 0 0 .76-.68 1.02-.9t.18-.18c.35-.35.78-.71 1.16-1.02.13-.11.8-.7 1.19-1.06.15-.14.45-.41.5-.44.19-.16.38-.34.55-.51.16-.15 1-1.13.82-1.29m41.78-1.57c-.08-.83.2-1.93.88-2.3.22-.12.6 0 .71.17.14.21.26.41.33.7.02.06.06.77.08 1.06.02.25.05.78.34 1.03.12.1.21.17.29.3.1.16.07.54.04.91 0 .08-.55-.28-.55-.28-.2-.13-.52-.35-.71-.1-.29.36-.59.74-.9 1-.57.47-1.76 1.46-1.9 1.59-.62.55-3.35 2.09-4.24 2.1-.29 0 .82-.71.84-.72l.29-.16q.2-.11.29-.16c.21-.14.42-.27.63-.41.74-.45 1.47-.96 2.17-1.47.27-.19 1.22-.98 1.89-1.54.3-.25.75-.62.3-.9-.32-.2-.61-.45-.78-.81m-21.82 3.3c1.34-.89 2.98-1.97 4.1-2.61l2.15-1.3c.2-.11.57-.33 1.06-.65.14-.08.34-.21.51-.33.14-.1.28-.19.47-.2.15-.01-.15.87-.21.93-.2.17-1.38.9-2.12 1.35-.77.47-1.54.95-2.29 1.42-.66.42-2.23 1.39-2.29 1.43-.39.21-.82.47-1.16.75-.08.07-.33.27-.4.19-.09-.11.02-.9.17-.97m-27.85-1.68c.09-.78.34-1.54.58-2.21.11-.3-.04.8-.05.87-.11.61-.23 1.37-.04 1.83.16.4.35.85.63.98.33.14.45-.16.51-.41.05-.19.16-.64.28-.56.18.12-.17 1.42-.26 1.61-.08.18-.36.52-.61.47-.97-.2-1.04-1.75-1.04-2.58m39.4-2.39c.67-.15 1.57.68 1.94 1.04.11.11.23.25.33.37l.25.32.08.13c.1.13.29.36.32.42.05.08.28.47.34.42.05-.04.05-1.46.05-1.72 0-.45 0-1.06.12-1.3.46-.91 1.49-2.2 2.05-.45.07.22-.04.79-.27.84-.04 0-.31-.26-.4-.36s-.3-.3-.42-.3c-.28.01-.52.12-.59.39-.07.24-.08 1.78-.08 2.57 0 .35-.09 2.25-.47 2.12 0 0-.11-.13-.12-.16l-.02-.16c-.02-.13-.05-.2-.1-.3-.04-.08-.11-.19-.16-.26-.08-.11-.17-.23-.24-.35-.13-.18-.61-.77-.92-1.13-.16-.2-.3-.3-.56-.25-.2.03-.52-.16-.69-.27-.47-.29-.89-.94-.41-1.59m-53.21 3.24c-.12-1.13-.04-2.34.57-3.19.22-.31-.04.54-.08.67-.08.23-.27.88-.21 1.02l.04.37c0 .07.09.33.1.37.06.15.14.31.23.42.19.22.44.05.52-.13.07-.14.24-.53.31-.49.19.13-.36 1.52-.5 1.68-.36.4-.91-.34-.99-.71m22.38-1.99c.12-.53-.37-1.57-.98-.95-.23.24-.26.47.04.67.18.11.88.56.94.28m15.05-1.19q-.1-.1-.36-.03c-.21.06-.32.25-.37.45-.04.15.42.53.53.61.64.46.37-.71.19-1.03m26.44 0c.09.25.86.7 1.13.77.21.05.06-.64.02-.79-.05-.2-.14-.4-.27-.52-.2-.18-.6-.05-.74.1-.05.05-.28.39-.14.45m-25.22 2.17-.04-.15s.29.16.34.3c.1.26.05.59-.06.82-.02.03-.49-.26-.59-.32l-.26-.16c-.11-.09-.27-.21-.35-.22s-.66.55-.97.86l-.18.23c-.08.07-.2.2-.3.31-.15.16-.33.33-.51.47-.57.45-1.86 1.31-2.59 1.41-.71.1 1.96-1.79 1.96-1.79.48-.34 1.82-1.38 1.9-1.81 0-.05-.22-.28-.36-.41-.17-.16-.33-.44-.38-.7-.08-.42.22-1.26.39-1.51.32-.47 1.03-1.01 1.33-.12.05.17.12.46.12.63l-.08 1.04c-.02.2-.03.42 0 .48.02.02.24.18.34.26l.29.41z" fill="#1d1d1b" fill-rule="evenodd"/></svg>