<svg viewBox="0 0 74.97 30.11" xmlns="http://www.w3.org/2000/svg"><path d="m32.29 27.61c-.16-.16.38-1.18.52-1.33.15-.16.37-.24.62-.19 1 .18-.28 2.3-.52 2.56-.3.32-1.6 1.6-1.96 1.45 0 0 .83-.93.92-1.01q.12-.1.2-.18t.31-.35c.25-.21.58-.49.71-.8.13-.32.12-.66-.29-.57-.05.01-.16.14-.21.2-.06.07-.22.25-.29.23m-17.93-1.23c.06-.21-.07-.47-.24-.53-.18-.06-.32.06-.46.18-.11.09-.26.21-.29.01-.07-.48.63-1.55 1.03-1.29.26.16.34.35.41.69.06.29-.3 1.24-.51 1.79-.03.08-.51.6-.77.86-.05.05-1.07 1.03-.66.36.23-.38.43-.71.71-1.03.32-.38.66-.78.78-1.04m37.79 2.08c-.1 0-.7-.38-.8-.45l-.23-.2-.13-.08-.16-.2c-.28-.15-.64-1.08-.78-1.52-.16-.48-.13-1.07-.08-1.59 0-.05.14-1.52.02-1.32 0 0-.7.41-.8.47-.24.14-.48.3-.7.46l-.14.07-.29.16c-.12.08-.34.21-.39.24-.12.09-.23.14-.37.2 0 0-.29.17-.43.24-1.09.62-2.9 1.61-4.05 1.77-.37.05-.84.15-1.27.24-.39.09-.92.17-1.27.22-.63.1-1.46.23-1.76.27-.2.02-.25.03-.29.04l-.2.06-.25.06c-.26.05-.85.18-.95.05-.15-.19 1.21-.63 1.45-.7s.5-.16.74-.27c.21-.09.58-.21.86-.3.5-.17 1.01-.35 1.47-.53.04-.01.29-.13.33-.14l.19-.08q.16-.08.22-.1l.37-.18.14-.04.17-.08.2-.08c2.01-.73 4.4-2.16 6.12-3.3.84-.56 3.78-2.51 3.66-3.14-.07-.42-.31-.85-.51-1.16-.23-.36-.47-.82-.63-1.2-.38-.88-1.17-2.81-1.15-3.26 0-.19.25-1.24.36-1.24.03 0 .42.46.61.68.11.13.44.45.66.65.22.21.41.43.6.67.09.11.35.44-.09.39l-.2-.04c-.22-.05-.25-.05-.37-.02-.21.06.5 1.33.61 1.51.29.47.65 1.05.76 1.67.27 1.51-.17 2.71-.85 3.61-.2.25-.6.58-.92.84-.37.29-.7.56-.91.89-.2.31-.28 1.22-.18 1.59.18.65.3 1.09.55 1.47 1.02 1.51 3.08 1.28 4.85.69 1.09-.36 2.58-1.52 3.53-2.29.49-.4.96-.84 1.41-1.29.22-.22.56-.56.65-.68.11-.15.52-1.16-.03-1.03-.91.23-1.74.33-2.67.33-.31 0-1.16-.21-1.33-.43-.26-.33-.49-.63-.53-.94-.07-.5.06-1.23.25-1.71.15-.4.41-.77.71-1.03.16-.14.33-.28.52-.4.12-.07.16-.1.31-.14l.16-.04.33-.04c0-.06.63.14.7.16.22.08.47.25.69.39.31.2.57.51.8.79 0 0 .3.45.39.58l.08.14c.04.07.11.17.16.22.28.29 2.18-1.09 2.36-1.23.19-.15.82-.6 1.02-.64.54-.11.45.43.37.9-.05.28 0 .48.1.73.17.44.58.7.96.94.3.18 1.09.37 1.5.22.63-.23 1.15-.42 1.46-.64.38-.27.92-1.21 1.32-1.91.12-.2.87-1.03.64-.2-.05.17-.17.39-.27.55-.12.22-.21.39-.16.67.05.3.83.72 1.15.88.7.35 2.05.42 1.55-.63-.3-.65-.5-1.34.09-2.07.33-.4 1.02 2.22.79 2.64l-.04.2-.04.2c-.03.14-.09.28-.14.41l-.25.49q-.12.17-.15.23c-.26.61-1.83.51-2.34.2-.3-.18-.6-.36-.75-.5-.11-.11-.2-.2-.28-.31-.07-.11-.3-.44-.37-.39-.08.06-.18.21-.24.33-.11.17-.24.39-.35.5-.23.23-.47.43-.75.6-.76.47-1.93.59-2.76.2-.36-.17-.67-.41-.89-.72-.11-.16-.22-.34-.3-.54-.03-.08-.03-.1-.08-.29-.04-.15-.19-.77-.23-.75-.12.11-.76.53-1.08.75l-.25.16-.24.16-.14.09s-.02.02-.33.2c-.09.05-.24.18-.29.28-.04.07-.09.53-.1.65-.02.2-.06.55-.08.69-.05.32-.11.62-.27.84-1.68 2.42-6.28 6.75-10.02 5.47m-29.11-1.13s-.11-.11-.16-.16l-.16-.2c-.12-.14-.22-.32-.29-.5-.23-.59-.33-1.15-.22-1.79 0-.02-.71.69-.74.72-.25.25-.49.45-.81.62-.37.19-1.02.21-1.6.22-.18 0-.67-.24-.77-.31-.18-.13-.63-.47-.64-.47-.53-.16-1.09-2.36-1.19-3.07-.14-1.01-.26-4.3-.33-6.41-.04-1.33-.1-2.78-.16-3.64q-.02-.26-.04-.61c-.04-.64-.09-1.55-.12-1.99-.02-.3-.08-1.05-.08-1.06-.05-.31-.1-.69-.12-.98q-.02-.29-.04-.41l-.04-.2c-.04-.2-.06-.31-.08-.45-.04-.27-.07-.49-.12-.73l-.04-.2-.04-.2-.04-.16c-.1-.62.15-1.52.48-1.91.34-.39.76 2.74.79 2.98.08.75.16 2.05.2 2.85l.04.47v.65c.03.64.06 1 .08 1.47.05.82.12 2.09.12 2.69 0 .53 0 1.2.04 1.63.04.42.04 1.05.04 1.42 0 .31 0 .96.04 1.3 0 .08.07 1.01.08 1.3.01.22.11 1.14.12 1.18l.04.29q.04.28.08.45c.04.15.08.33.16.57l.08.29q.03.07.15.28c.04.09.08.17.12.27.14.36.55.61.92.84.3.18.86.18 1.33.18.2 0 1.01-.44 1.49-.7.12-.07.48-.67.6-.89.15-.28.36-.56.59-.77.04-.04.55.51.65.62.22.23.49.44.77.62.71.46 1.57.71 2.58.87.73.12 4.39.1 5.2-.51l-.02-.37-.04-.27.04-.83c.02-.23.09-.5.16-.69.27-.67 1.73-3.37 2.65-2.23.29.36.49.61.66 1.13.19.56.05 1.21-.08 1.79-.06.28-.29 1.32-.27 1.32.67.07 2.66.16 2.76-.59.06-.46-.21-2.93-.37-4.32-.04-.31-.07-.59-.12-.9-.07-.43-.07-.46-.08-.61v-.31l-.04-.22c-.02-.1-.07-.44-.08-.53v-.22l-.04-.35-.04-.32-.04-.24-.04-.53-.04-.33v-.14c-.04-.36-.12-1.2-.16-1.65l-.04-.45q-.02-.38-.04-.49-.04-.27-.04-.37 0-.28-.04-.65l-.04-.28v-.43l-.04-.18-.04-.49v-.29l-.04-.28-.04-1.02-.04-.28c-.02-.25-.06-.79-.16-.9-.15-.15.34-1.65.46-1.82.15-.21.99 1.73 1.06 1.9.15.36.29.69.43 1.06.07.17.48 1.28.03 1.15l-.31-.34c-.12-.14-.28-.34-.41-.37-.17-.04-.11.36-.1.41.06.41.13 1.07.16 1.51.04.62.14 1.7.24 2.5.02.2.13 1.24.21 2.02.1.97.2 1.96.33 2.93.23 1.84.82 7.07-.71 7.62-.8.29-1.5.5-2.57.5-.26 0-1.21-.29-1.74-.45-.13-.04-1.25.33-1.72.49-.68.23-1.35.38-2.09.49-.55.08-1.54.08-2.41.08-.27 0-.59-.04-.86-.08-.13-.02-.96-.17-.92-.02.11.4-.08 1.63-.35 2.04-.19.3-.63.12-.94 0-.19-.08-.32-.15-.49-.24l-.28-.17c-.06-.05-.19-.14-.19-.14m45.52-2.72s.26.14.41.22c.18.1.33.19.51.22.58.11 1.31-.74 1.46-1.16l.14.16c-.02.15-.04.29 0 .35.11.17.66.36.85.22.09-.07.17-.35.25-.61.06-.22.26-.73.44-.64.19.1-.07.84-.12.96-.11.29-.24.57-.39.81-.29.47-.83.63-1.39.28-.22-.13-.38 0-.6.18-.17.14-.42.25-.67.29-.45.07-.62-.03-.94-.22-.15-.09-.52-.32-.7-.18l-.33.08c-.1.03-.21.07-.29.1-.24.1-.48.23-.7.37l-.61.41-.27.16-.18.16c-.65.39-2.07 1.17-2.85 1.07-.3-.04.48-.38.48-.38s.63-.35.88-.49c.49-.28.96-.59 1.43-.89.2-.14.49-.33.61-.33l.37-.33.14-.09c.49-.36 1.22-.81 2.05-.74m-66.46 2.15c-.31-.12-1.26-1.01-1.45-1.41l-.22-.35c-.1-.19-.18-.52-.25-.77-.22-.88-.25-1.63-.25-2.4 0-1.18.63-2.66 1.04-3.58.12-.26 0-.48-.14-.77-.12-.24-.2-.51-.25-.81-.05-.39-.08-.83-.08-1.02 0-.15 0-.18.04-.49l.04-.24q.05-.21.04-.27c-.08-.63.98-3.31 1.37-3.32.01 0-.2.61-.2.63-.1.23-.29.65-.31.71q-.04.12-.1.26-.06.14-.1.26c-.04.13-.06.18-.08.29-.04.21-.12.61-.12.61-.25.86.17 2.34.7 2.69.29.19.59-.22.68-.39.09-.18.16-.38.22-.59.04-.14.12-.39.2-.39.21 0-.04.74-.07.84-.14.42-.31.93-.45 1.22-.15.32-.36.51-.72.63-.37.13-.51.64-.63 1.08-.52 1.85-.56 3.63.48 5.08.19.26.81.62 1.38.94.51.29 1.47.35 2.05.35 2.3 0 8.05-2.98 8.63-4.32.15-.35-.18-1.11-.37-1.52-.21-.48-.42-.99-.59-1.51-.23-.68-.8-2.5-.82-2.73-.03-.3.22-1.14.38-1.36.08-.1.5.48.56.56.17.23.36.49.52.67.23.25.98 1.07.79 1.41-.07.12-.34-.07-.38-.09-.14-.1-.26-.16-.4-.11-.2.06.52 1.73.57 1.82.23.52.38 1.06.47 1.73.03.24-.03 1.83-.23 2.1-.64.85-1.1 1.37-1.96 2-.8.6-1.72 1.27-2.63 1.68-.93.42-2.31 1.04-2.95 1.18-.79.17-1.71.34-2.37.24-.42-.06-.8-.12-1.15-.2-.18-.05-.33-.1-.49-.16l-.24-.12-.14-.06zm20.71-2.37c-.45.35.91 1.9 1.51 1.79.24-.04-.68-1.12-.68-1.12-.12-.12-.76-.7-.83-.67m11.9-2.02c.3-.4-.42-1.48-1.01-1.41-.6.08-1.06.79-1.21 1.32-.08.28.7.83.96.88.25.04 1.24-.56 1.25-.79m-31.12-1.22c.02-.57.36-1.54.6-2.21.03-.09-.04.65-.09.87-.07.3-.23 1.19-.04 1.43l.06.16.12.27c.08.15.19.24.35.28.18.05.29-.17.35-.28.05-.1.23-.46.26-.44.19.14-.35 1.49-.41 1.57-.13.18-.36.25-.59.15-.37-.17-.86-1.47-.61-1.79m38.96 1.38c-.18-.33-.4-.75-.36-1.23.07-.74.17-1.55.41-2.18.09-.24.2-.45.31-.67l.16-.31c.11-.19.21-.36.23-.45.01-.06-1.05-1.04-1.17-1.13-.14-.12-1.16-1.16-1.22-1.27-.18-.34-.03-1.36.2-1.67.04-.05.28.13.28.13.12.1.25.15.42.22 0 0 .28.12.43.18.14.06.42.18.43.18.21.09.85.37.87.44.06.22-.22.27-.38.29-.13.02-.34.09-.25.22.16.22.81.66 1.23.94.27.18 1.32-1.3 1.47-1.51s1.31-1.6 1.39-1.6c.35-.02-.68 2.12-.74 2.19l-.09.13-.14.18q-.11.11-.18.22c-.26.39-.59.88-.58.97 0 0 .31.24.32.26q.23.14.28.18c.18.15.34.28.51.45.39.38.66.87.77 1.49.08.43-.29 1.72-.47 1.99-.68 1.02-2.9 2.26-4.12 1.34m-35.75-2.27c.02-.4.37-1.02.61-1.28.28-.3 1.58.87 1.74 1.11.1.15-.52 1.44-1.01 1.21-.22-.1-1.34-.86-1.34-1.05m39.53-.45c-.02-.44-1.95-1.71-2.31-1.59-.2.07-1.09 1.6-1.17 1.95-.26 1.17 1.14 1.09 1.82.77.36-.17 1.61-.84 1.66-1.14m-19.79-3.64s-.04.34-.1.51c-.05.15-.09.29-.12.45-.12.55-.29 1.3-.21 1.75.08.43.42 1.41.93 1.05.03-.02.09-.29.13-.43.05-.19.1-.38.17-.54.23-.52.11.95.07 1.07-.07.25-.23.77-.38.87-.14.1-.4.26-.63.15-1.55-.78-.25-4.83.12-4.86m33.86 3.53c.2-.4-.99-.9-1.36-.97-.42-.08-1.39.46-1.08.81.34.37 1.94.36 2.44.16m-27.71-2.86c-.1 0-.34.33-.45.49-.12.17-.26.33-.45.43-.16.09-1.38-.92-1.47-1.06-.21-.32.49-1.23.78-1.36.1-.05.96.58 1.24.79.34.25.47.14.69-.13.18-.21.44-.52.55-.58.31-.17 1.42.96 1.47 1.3.04.25-.84 1.19-1 1.14-.06-.02-.49-.42-.65-.58-.11-.11-.57-.54-.7-.44m-14.19-.71c.97-.86 10.62-5.1 10.87-5.04.4.11-.15 1.12-.45 1.2-1.39.39-4.19 1.77-6.08 2.71-.42.21-.86.43-1.29.61-.49.21-1 .44-1.47.69l-.24.14-.27.14-.18.08q-.15.08-.24.12c-.16.07-.36.16-.49.24-.24.16-.58.38-.53-.08.02-.15.28-.78.38-.83m52.14-2.11c-.5-.76.45-3.02.86-3.42.2-.19-.29.9-.29.9-.23.42-.33.97-.2 1.59.08.39.28.79.7.61.13-.05.21-.18.27-.3.08-.16.16-.34.24-.29.2.12-.44 1.29-.5 1.4-.35.63-.96-.13-1.08-.48m-14.04-2.24c.09-.53.22-.99.39-1.42.09-.21.45-1.13.63-1.01.04.03-.16.52-.18.56-.07.12-.17.3-.18.36-.12.36-.28.83-.25 1.22.05.56.27 1.43.95 1.29.1-.02.2-.32.23-.44.05-.19.15-.51.28-.43.2.11-.27 1.94-.95 1.96-.73.02-.96-1.32-.92-2.09m-36.25-1.18c.07-.49.38-2.09.62-2.29.26-.22.17.22.11.38-.1.31-.17.65-.24 1.02-.1.53-.1 1.52.36 1.84.18.13.42.11.5-.14.09-.28.22-.67.27-.71.34-.21-.22 1.67-.47 1.9-.17.16-.48.08-.63-.06-.46-.43-.49-1.24-.52-1.95m22.57-.46s.45.31.67.46.57.4.72.43c.1.02.37-.45.45-.59.14-.24.23-.39.45-.55.24-.18 1.39.97 1.49 1.24.12.34-.47 1.22-.72 1.36-.07.04-.54-.34-.72-.48-.24-.19-.69-.54-.76-.59-.04-.02-.4.59-.44.66-.13.22-.32.56-.45.61-.2.08-1.26-.82-1.42-.98-.47-.48.38-1.34.72-1.58m28.04-2.45c.07-.18-.1-.31-.26-.42-.16-.12-.3-.23-.43-.38-.31-.38-.36-.58-.21-1.17.17-.67.72-1.95 1.53-1.42.22.14.33.44.39.73.04.18.04.64.04.83 0 .16 0 1.26.07 1.19 0 0 .45.41.48.48.14.23.18.87-.12.93-.02 0-.33-.25-.42-.32-.11-.09-.32-.26-.44-.25-.08 0-.51.41-.89.76t-.32.29l-.21.16-.13.08c-.59.48-1.26 1.01-1.87 1.34-.83.44-3.73 1.98-4.22 1.74-.07-.03.63-.48.7-.52.15-.08.41-.22.43-.22.09-.03.39-.2.57-.31.65-.37 1.31-.75 1.95-1.14.58-.36 1.62-1 1.82-1.14s.55-.43.84-.65l.21-.18.31-.22.17-.2zm-45.37.96c.1-1.04.22-2.28.33-2.6.43-1.29 1.13-3.29 1.52-3.8.21-.29-.29 1.37-.32 1.44-.14.39-.46 1.28-.47 1.3-.17.68-.36 1.44-.41 2.22-.02.33.06.9.18 1.24.06.17.16.34.43.66.09.26.54-.2.59-.34.1-.25.31-.82.38-.83.24-.04.05.73 0 .91-.08.31-.15.62-.27.86-.09.2-.72 1.05-.98.79l-.17-.06c-.05-.03-.2-.13-.24-.17-.06-.05-.12-.16-.21-.36-.19-.38-.32-.73-.39-1.26m7.84-.04c-.6-.06-1.34-.13-1.64-.06-.19.04-.36.09-.48.19-.18.14-.39.31-.46.3-.19-.04.6-1.21.77-1.29.33-.15.99-.42.99-.42.68-.12 1.49.1 2.12.29.74.23-.91 1.75-1.09 1.85-.21.11-1.88.62-1.96.51-.11-.14.66-.58.82-.67.14-.08 1-.57.94-.69m10.13-2.3s-.25-.31-.36-.45c-.13-.16-.22-.37-.29-.59-.13-.4.26-1.32.43-1.53.23-.28.45-.52.84-.61.55-.13.59.96.57 1.32-.01.26-.04.42-.08.65-.05.27-.09.53-.05.68l.18.18.13.08.25.2c.14.13.3.31.36.52.04.15-.07.65-.17.71-.03.02-.42-.27-.58-.39-.21-.16-.54-.39-.7-.42-.07-.01-.42.36-.49.45-.01.01-.43.43-.62.62-.19.18-.37.36-.69.58l-.53.39c-.24.21-2.45 1.24-2.69 1.15-.29-.11.88-.77.93-.81.22-.13.61-.39.98-.65l.25-.16c.83-.55 2.09-1.38 2.35-1.93m16.25.17c-.39-.11-.16-1.11-.03-1.37.14-.27 1.02.36 1.09.42.27.23.63.53.8.75.03.03.26.35.39.54 0 0 0 0 .17.23l.16.24c.16.28.17.29.17.29.09.14.26.4.3.4s.12-1.31.13-1.52c.03-.45.06-.97.17-1.26.14-.39.6-1.18.94-1.34.21-.1.54-.18.71 0 .21.24.95 1.36.26 1.6-.09.03-.42-.31-.55-.44-.14-.14-.26-.27-.48-.25-.28.02-.41.3-.51.51 0 0-.04.57-.04.67l-.04.35v.37c-.02.38-.07.85-.12 1.34-.04.41-.24 1.73-.53 1.77-.07.01-.13-.27-.17-.42-.05-.21-.19-.45-.31-.63-.21-.35-.43-.69-.67-1.01-.23-.32-.5-.68-.8-.74-.28-.06-.71-.15-1.04-.48m-56.68-.55c-.03-.33.05-1.07.25-1.24.25-.21 1.54.9 1.68 1.04.18.18.44.59.62.89.13.21.53.85.59.83.04-.01.12-1.24.13-1.32.03-.48.09-.9.2-1.3.13-.44.29-.97.61-1.22.37-.3.82.29.96.51.32.52.3.61.06 1.15-.1.2-.53-.22-.58-.28-.14-.14-.39-.39-.5-.38-.25.01-.33.91-.35 1.16l-.04.33q-.04.27-.04.53c0 .45-.02.99-.08 1.51-.03.28-.19 1.15-.32 1.29-.08.09-.15-.14-.18-.24-.06-.2-.13-.39-.23-.57-.3-.6-.67-1.26-1.11-1.74-.09-.1-.23-.25-.3-.29-.08-.05-.16-.11-.47.06-.27-.05-.9-.42-.92-.71m45.15 2.4.29-.16.12-.08.29-.16c.37-.2.74-.4 1.1-.61.74-.42 1.33-.75 2.11-1.14.66-.33 1.85-.93 2.15-1.14.57-.4 1.55-1 2.21-1.16.24-.06.01.61-.04.75-.07.19-1.73 1.07-2.25 1.34-.79.42-2.04 1.08-2.41 1.3-.32.19-.66.38-1 .53-.03.01-.79.44-1.16.65l-1.1.61-.17.08-.35.24c-.5.13.16-1.04.22-1.06m-36.95.3c-.22-.5-.28-1.12-.27-1.61.02-.79.86-4.03 1.47-3.96.13.02-.19.62-.22.67-.08.14-.17.3-.23.45-.16.48-.3.96-.37 1.51-.13.99 0 1.77.57 2.21.26.2.5-.06.58-.26.1-.27.24-.62.32-.63.53-.07-.5 2.03-.52 2.04-.48.57-1.09-.01-1.34-.42m8.42-4.33c-.31-.13-1.2-.48-1.3-.72-.13-.29-.16-1.27.25-1.3.24-.02.84.48 1.08.69.21.18.49.56.72.88.12.16.23.33.33.51.11.18.33.57.46.56.05 0 .05-.62.05-.65 0-.25 0-.4.04-.85.02-.24.08-.72.13-.96.05-.25.42-1.15.63-1.2.25-.06.51-.02.67.16.28.31.49 1.71-.04 1.53l-.23-.35c-.1-.15-.89-.53-.7-.23 0 0-.13 2.37-.18 2.73-.04.29-.32 1.77-.53 1.68-.02-.01-.08-.2-.09-.22q-.09-.29-.14-.41l-.12-.26-.08-.14q-.05-.07-.12-.22c-.11-.22-.27-.45-.41-.65-.11-.16-.42-.58-.42-.58m51.62.99c-.34-.49-.96.21-.92.52.03.19.62.56.86.71.73.46.21-1.07.05-1.24m-35.44-2.41c.05-.12-.24-.32-.36-.41-.13-.1-.25-.21-.29-.39-.07-.33.05-1.18.26-1.42.8-.88 1.41-.76 1.41.61 0 .11 0 .16-.04.41l-.04.16-.04.16c-.01.2.12.35.25.5.34.39.4.47.19 1.06-.07.2-.38-.12-.43-.17-.12-.13-.28-.27-.48-.21-.07.02-.32.31-.38.39-.12.15-.25.29-.39.43-.26.26-.55.48-.87.68-.3.2-2.21 1.25-2.31 1.23-.16-.03.68-.67.73-.71 0 0 .31-.25.44-.36l.46-.33.13-.09.2-.16q.12-.11.19-.16l.21-.18.2-.16c.15-.12.42-.33.43-.34q.17-.16.31-.3l.19-.25zm7.45 1.72c.08.27.2.44.48.68l.14.09.31-.04s.04-.32.02-.65c0-.15-.1-.39-.2-.46-.21-.16-.73.17-.74.38m-6.98-3.45c-.18-.17-.47-.04-.62.06-.24.16.34.52.44.58.58.36.39-.45.18-.64m-27.65 11.24c.06-.02.11-.04.15-.06.25-.1.74-.28.74-.28.78-.34 1.58-.66 2.37-.96.16-.06.29-.11.45-.18.15-.07.34-.12.53-.18.15-.05.16-.05.29-.14q.08-.06.2-.1c.3-.11.5-.18.71-.13.15.03-.21.84-.27.89l-.15.05-.14.06q-.08.04-.31.12l-.41.16q-.15.07-.24.1c-.39.15-.88.36-1.31.55-.18.08-.37.15-.57.23-.21.07-.42.16-.61.24-.14.06-.38.14-.57.2-.09.03-.5.19-.74.28l-1.19.49c-.25.1-.49.19-.74.29t-.33.14c-.17.08-.32.14-.49.2-.23.09-.49.19-.7.28-.19.09-.55.26-.57.26-.64.25-.11-.72-.01-.89.09-.06.75-.34 1.08-.47.41-.17.98-.4 1.27-.53.22-.09 1.57-.63 1.57-.63" fill="#1d1d1b" fill-rule="evenodd"/></svg>