<svg viewBox="0 0 79.6 26.27" xmlns="http://www.w3.org/2000/svg"><path d="m16.28 23.41c.35.8-.37 2.35-.85 2.8-.31.29.07-.57.13-.67.16-.25.31-.56.39-.85.06-.24-.12-.44-.31-.45-.15 0-.26.15-.34.26-.09.12-.16.23-.32.25-.05 0 .1-.72.1-.73.05-.22.18-.4.31-.57.29-.4.57-.32.88-.04m9.9 1.5c-.19-.29.47-1.48.84-1.44.23.03 1.57 1.18 1.58 1.38.02.22-.47 1.04-.62 1.12-.39.24-1.8-.92-1.8-1.06m30.57.73c-.26-.16-.6-.37-.73-.5-.09-.09-.21-.22-.35-.41-.08-.12-.12-.18-.18-.21-.19-.11-.49-1.11-.54-1.4-.04-.26-.08-.52-.08-.94v-.37l.04-.61c.02-.26.04-.46.03-.51-.03-.21-1.45.83-1.52.89-.2.17-.46.34-.68.48l-.39.24c-.15.08-.29.17-.41.25-.56.37-1.07.66-1.64.93-.5.25-1.03.53-1.51.79-.47.26-6.24 1.67-6.82 1.62-.39-.03 1.04-.67 1.13-.7.6-.22 1.26-.47 1.78-.69 1.16-.5 2.25-.99 3.29-1.59.98-.55 2.5-1.42 2.97-1.71.23-.14.53-.31.84-.49l.37-.25.29-.16c.21-.13.4-.27.59-.42.21-.18.48-.34.71-.48.65-.4 3.68-2.74 3.38-3.33-.39-.77-.89-1.65-1.37-2.48-.25-.44-1.24-2.56-1.21-2.88 0-.12.23-1.41.35-1.33.02.01 1.06 1 1.41 1.33.24.24.56.55.68.74.08.12.1.29-.08.29l-.29-.08c-.08-.01-.47-.07-.45-.02.27.66.49 1.13.86 1.67.31.45.59.95.76 1.54.36 1.32-.1 2.66-.67 3.52-.08.13-.53.55-.87.86-.33.32-.71.7-.87.91-.56.72.02 2.41.4 2.96.24.36.77.86 1.26.97.21.04 1.23.12 1.88.16.6.04 1.79-.55 2.31-.83.78-.41 1.92-1.36 2.85-2.12.43-.35.94-.89 1.45-1.41l.08-.13.17-.18c.08-.08.19-.19.24-.26l.17-.23.16-.24c.18-.16-.06-.56-.19-.65-.09-.06-.45.06-.6.12 0 0-.59.11-.86.16-.58.11-1.05.16-1.64.16-1.65 0-1.75-1.68-1.45-2.99.23-1 1.01-1.44 1.92-1.77.38-.14 1.21.35 1.45.51.3.19 1.53 1.34 1.51 1.67-.01.19.78-.29.78-.29q.12-.08.27-.16t.25-.16c.34-.25.85-.62.99-.76.09-.09.94-.72 1.04-.72.48-.03.43.35.37.79-.03.2-.05.43.08.69.58 1.15 1.87 1.51 3.3.94.59-.24 1-.76 1.33-1.26 0 0 .3-.59.45-.89.15-.31.35-.7.59-.86.41-.26.06.66.02.75-.12.24-.24.51-.22.71.01.18.24.37.36.46.04.03.2.12.25.15.06.04.19.11.23.14.29.29 2.23.45 2.07-.06-.08-.25-.14-.44-.28-.62-.16-.22-.32-.43-.29-.62.05-.35.17-1.09.4-1.33.18-.19.61.84.66.99.1.29.43 1.44.24 1.67l-.04.28-.04.2c-.03.13-.04.18-.08.29-.09.25-.2.49-.35.69-.2.28-.5.48-.9.55-.43.08-.98.04-1.39-.14-.35-.15-.58-.3-.85-.5-.11-.08-.19-.17-.29-.28-.21-.23-.35-.38-.43-.37l-.07.14q-.05.11-.16.28c-.1.17-.31.49-.31.5-.24.24-.51.46-.81.64-.63.39-1.73.63-2.43.35-.27-.11-.49-.2-1.16-.78-.06-.05-.28-.49-.31-.58l-.1-.33c-.03-.16-.14-.62-.2-.61-.09.01-.39.27-.52.38-.18.15-.36.3-.55.44-.18.13-.36.27-.53.41-.16.13-.63.49-.63.49-.03.02-.09.58-.09.58v.14l-.04.61c-.03.42-.13.68-.27 1.02-.56 1.4-3 3.34-4.79 4.76-1.49 1.19-3.54 1.48-5.42.9m-20.6-3.71c.34-.12.61-.66.86-1.14.06-.12.11-.23.23-.03q.02.34.07.41c.11.14.52.3.65.14q.09-.11.13-.31.04-.21.08-.33c.07-.21.18-.53.32-.5.21.04-.22 2.21-.83 2.19q-.31-.01-.45-.06c-.19-.07-.4-.14-.52 0-.18.22-.46.56-.66.62-.15.04-.58-.1-1.02-.24-.36-.12-.65-.08-1.02.04-.49.16-1.01.59-1.44.95-.05.05-.92.62-1.47.99-.2.13-1.44.87-1.6.71-.06-.06 1.22-1.07 1.34-1.17.48-.38 1.14-.91 1.47-1.14.16-.11.43-.33.64-.49.24-.2.48-.38.74-.56.3-.2.71-.47 1.17-.43.2.02.38.07.53.14.26.13.55.27.78.2m-29.17 2.88c-.4-.55-.81-1.11-.85-1.26-.24-.87-.21-1.77-.04-2.77.07-.44.15-.8.25-1.22.04-.17.08-.34.14-.49.08-.2.14-.37.16-.65 0-.04-.55.13-.57.14-.37.12-.81.21-1.19.1-.32-.09-.49-.31-.65-.55-.39-.55-.04-2.21.18-2.87.12-.37.26-.68.43-.98.21-.36.57-.99.55-1.13 0 0-.7-.47-.88-.58-.14-.09-.62-.47-.91-.71-.14-.12-.27-.25-.4-.39-.11-.12-.23-.23-.36-.33-.11-.09-.37-.29-.42-.38-.06-.1-.12-1.62-.01-1.71.03-.03.4.12.63.21l.16.06.21.08.16.08q.12.06.29.12c.22.08.69.27.72.28.07.05.17.12.16.22l-.07.17-.28.07-.16.08c-.07.06.4.37.43.39.16.11.49.33.49.33l.29.16.24.16c.18.11.59.36.68.33.15-.06 1.03-1.38 1.39-1.91l.18-.26c.11-.19.2-.34.31-.52.18-.26.58-.86.71-.87.05 0-.14 1.02-.16 1.16-.04.24-.33.71-.51 1l-.08.14-.17.28q-.14.21-.16.23-.11.22-.17.3c-.17.23-.58.81-.5 1.09 0 0 .27.22.32.26.13.09.24.2.36.3.21.18.46.41.6.64.46.77.63 2.59.04 3.4-.2.27-.43.49-.71.68-.3.21-.44.34-.66.64-.21.28-.6 2.84-.57 3.24.03.41.11.92.36 1.31.18.29.54.48.93.57.47.1 1.05-.05 1.51-.22 1.71-.66 6.29-3.78 6.61-5.42.06-.29-.97-4.04-1.17-4.56-.43-1.13-1.29-3.54-1.29-4.11 0-.19.06-1.57.28-1.4.26.21 1.68 3.18 1.8 3.72l.06.16s.15.48.23.73l.04.16.16.57c.2.72.38 1.49.53 2.24.04.19.09.44.12.65l.04.24.04.29.04.24.04.16.04.28.04.16c.02.07.03.17.08.53l.04.24.04.16c.17.86.35 1.76.63 2.44.2.48.45.83.8 1.14.36.32.88.48 1.49.55 1.36.15 4.14-.94 5.01-1.51.04-.02-2.58-.55-2.88-.6-.53-.1-1.07-.21-1.6-.28l-.33-.04-.29-.04-.21-.04-.29-.04c-.51-.03-.96-.05-1.06-.11-.3-.19.47-1.22.61-1.38.06-.07.86-.47 1.27-.67.43-.21.92-.46 1.27-.67.17-.1.48-.32.85-.58q.15-.14.2-.16s.48-.53.61-.69q.12-.18.17-.26l.08-.12s.17-.26.17-.26c.08-.11.17-.24.24-.36 0 0 .16-.24.24-.37.16-.24.32-.44.52-.64.36-.36 1.08-.87 1.4-.09.06.15.1.3.14.47l.04.16.04.16.04.16c.1.36.25.65.42.92.21.35.78.76 1.2.91.37.13.79.07 1.14-.08.26-.11.87-.77 1.53-1.49.09-.1.32-.21.29.03 0 .07-.06.21-.08.29-.04.11-.09.26-.08.36.02.37.49.74.84.84.38.11.84-.11 1.06-.28.26-.2.45-.59.62-.93.08-.16.47-.93.57-.85.04.03.04.28.04.36 0 .35 0 .56.16.73.32.35.57.57 1.1.71.55.14 1.31.01 1.61-.32.12-.13-.33-3.3-.44-4.06l-.04-.24-.04-.21-.04-.2c-.05-.32-.08-.56-.12-.9-.03-.24-.08-.46-.12-.65q-.03-.13-.04-.28l-.04-.37-.04-.24c-.13-.88-.45-3.32-.45-3.32-.06-.71-.12-1.42-.2-2.22-.03-.26-.07-.44-.12-.65-.08-.3-.16-.56-.04-.82l.08-.24c.08-.3.08-.33.08-.33.06-.18.2-.57.32-.6.02 0 .39.85.45 1.01l.06.16.06.12.06.16.08.16.14.33.06.14c.16.37.33.76.51 1.12.05.09.62 1.41.14 1.28-.04 0-.18-.15-.3-.27-.13-.13-.34-.34-.45-.3-.06.03.1 1.04.12 1.17.05.35.14.9.16 1.14 0 .08.06.44.08.53q.06.27.08.49c.02.15.06.47.08.57.03.16.05.27.08.45.04.26.25 1.69.37 2.52.08.56.17 1.17.2 1.59q.01.15.04.61l.04.55v.18s0 .14 0 .14c.18 1.07-.67 2.93-1.34 3.2-.6.24-1.17.26-1.8.1-.26-.07-.42-.24-.6-.44-.12-.13-.44-.49-.47-.5 0 0-1.05 1.07-1.1 1.14-.14.17-.85.29-1.06.2-.54-.22-.78-.41-1.08-.85-.1-.15-.35.1-.43.18-.16.16-.36.36-.54.42-1.42.48-1.9.19-2.88-.56-.2-.16-.49-.78-.58-1.05 0 0-.11-.49-.16-.73-.04-.2-.1-.4-.18-.57-.08-.15-.51.15-.55.18-.19.14-.35.28-.49.46l-.17.2-.07.14q-.06.11-.24.39l-.17.24-.16.26c-.24.35-.47.69-.74 1.02-.04.05-.32.31-.46.44-.08.07-.44.4-.32.46.67.31 3.34.59 4.67.71.54.05 1.34.12 1.53.12.36 0 1.04.05 1.41.08q.16.01.37 0h.24l.53-.04c.33 0 .88 0 1.08.13.09.05-.57 1.54-.91 1.5-.97-.12-1.88-.05-2.86.08-.92.12-2.19.79-3.14 1.29s-2.25 1.19-3.2 1.4c-.55.12-1.89.42-2.09.29l-.2-.04-.21-.04c-.16-.04-.33-.11-.47-.18-.23-.11-.42-.24-.63-.37-.62-.41-.99-1.23-1.22-2.03-.12-.43-.22-.89-.33-1.34-.05-.21-.3-1.31-.37-1.02-.58 2.32-7.67 7.69-9.3 5.73m67.51-3.27c.37-.11.63-.25.87-.48.08-.08.16-.21.21-.31.08-.14.26-.47.36-.39v.19s.03.25.03.25c0 .03.16.14.2.17.06.05.57.22.72.05q.06-.07.13-.42c.04-.21.05-.27.08-.37.05-.16.18-.55.39-.53.22.02-.17 1.25-.2 1.34-.09.23-.18.45-.33.63q-.1.13-.16.16c-.06.04-.18.11-.19.16-.02.15-.75-.02-.83-.06-.21-.09-.38-.16-.54-.01-.34.3-.58.51-1.15.56-.05 0-.43-.18-.72-.33-.31-.15-.61-.07-.94.06-.24.1-1.05.63-1.57.98-.5.33-2.73 1.81-3.21 1.51-.16-.1.17-.26.2-.27.16-.04.36-.12.55-.26q.24-.15.39-.24l.14-.08.25-.16c.28-.18.56-.38.81-.59.24-.19.52-.4.79-.55.23-.14.52-.37.77-.56.27-.22.57-.43.91-.58.33-.15.75-.33 1.12-.22.15.04.29.14.41.22.13.09.35.18.53.14m-34.68-21.17s.15.19.21.3q.1.18.12.23.03.1.11.23s.24.5.34.72c.08.17.24.55.24.55.2.39 1.04 2.16.79 2.49-.13.17-.45-.22-.52-.3-.15-.18-.38-.46-.44-.5-.12-.06-.02.82-.02.82l.04.24q.02.1.04.33c.05.56.14 1.17.24 1.71.01.06.14 1.1.2 1.67.03.22.08.62.1.73 0 0 .11.82.15 1.1.3 2.38.88 8.37.85 8.51v.13s0 .15 0 .15v.74c0 .4-.01 1.17-.12 1.72-.07.38-.36 1.39-.68 1.46-.08.02-.07-.25-.06-.31 0-.2.02-.52 0-.87v-.16c0-1 0-1.32-.04-1.79-.13-1.58-.26-3.07-.41-4.24-.05-.4-.13-1.04-.16-1.4-.05-.51-.12-1.01-.21-1.61-.06-.46-.11-.82-.16-1.22l-.04-.36-.04-.45-.04-.37c-.03-.25-.08-.69-.1-.81-.25-1.77-.52-4.29-.7-6.07-.05-.47-.11-1.07-.2-1.26-.15-.29-.16-.32-.06-.65.09-.31.41-1.44.55-1.45m7.65 19.99c-.24-.35-.42-.8-.39-1.32.04-.64.1-1.43.29-2 .08-.23.17-.45.27-.65.16-.34.35-.74.32-.93 0-.02-.25-.22-.3-.25-.12-.08-.23-.16-.34-.25-.16-.13-.43-.37-.64-.56-.19-.17-.37-.35-.54-.54-.08-.09-.28-.29-.28-.29-.21-.16-.37-.28-.4-.39-.1-.35-.1-1.2.05-1.6.06-.16.36.09.41.14.08.07.24.12.38.18.32.11.63.23.94.35.26.1.8.32.83.35.19.18-.38.39-.56.45-.2.07.51.55.57.58.32.21.67.44.98.39.03 0 .19-.25.23-.31.09-.16.22-.33.34-.48.14-.19.43-.59.64-.88.09-.12.17-.23.26-.34.11-.14.23-.29.33-.43.21-.29.55-.75.72-.76.06 0-.1.56-.1.57-.04.13-.12.43-.12.45-.09.51-.2.76-.43 1.1-.16.24-.37.55-.5.72-.15.2-.53.72-.48.9.01.05.21.17.35.24.17.1.35.21.51.32.24.17.58.44.7.71.18.42.44 1.02.43 1.16-.06.66-.15 1.61-.35 1.87-.53.71-3.1 2.77-4.09 1.49m3.64-2.77c.15-.32-.62-.78-.86-.92-.19-.11-1.39-.79-1.5-.62-.43.61-.75 1.21-1.06 1.97-.09.22.18.65.32.87.47.75 3.03-1.05 3.1-1.29m-39.67-2.06c0-.47.51-2.54.65-2.61.17-.08-.05 1.01-.08 1.14-.11.58-.2 1-.12 1.51.05.35.31.95.59 1.06.25.1.34-.12.39-.37.04-.22.13-.62.29-.58.27.07-.17 1.91-.48 1.99-.98.24-1.27-1.22-1.24-2.14m-3.13.14c.19-.5-1.7-1.99-2.13-1.89-.16.03-1.42 2.15-1.49 2.48-.05.25.13.64.31.73.76.41 3.32-.97 3.31-1.32m56.92 1c.06-.66-2.09-1.39-2.52-.33-.27.67 2.1.38 2.52.33m-46.09-1.18c-.14-.64.1-3.16.67-3.31.19-.05-.22 1.07-.22 1.07-.14.4-.19 1.01-.02 1.42.09.23.38.65.69.4.09-.08.15-.27.19-.4.05-.18.11-.38.24-.31.16.08-.29 1.53-.35 1.65-.33.67-1.07-.24-1.2-.52m10.45-6.47c.22-.07.19.26.18.36 0 .14-.04.29-.08.53-.04.22-.08.49-.08.71 0 .53.39.85.84.69.3-.1.55-.37.7-.63.18-.33.18-.77.18-1.46 0-.29.04-.64.14-.9.2-.52.27.56.27.59 0 .4 0 1.04.18 1.26.23.28.69.81 1.14.47.04-.03-.19-.53-.2-.57-.05-.11-.11-.25-.14-.37-.14-.47-.13-1.02-.03-1.53.08-.43.91 1.9.85 2.37-.03.24-.15.99-.43 1.12-.35.16-.59.2-.96 0-.11-.06-.26-.16-.34-.25-.18-.2-.24-.26-.39-.25-.01 0-.08.21-.09.22-.04.1-.1.26-.14.35-.05.08-.24.39-.33.41l-.33.2c-.17.08-.4.1-.61.08-.61-.04-.72-.95-.72-1.41 0-.16.1-.68.16-.98.04-.2.1-.48.12-.57.04-.14.09-.32.1-.45m45.4.08c.03-.46.6-2.02.82-2.13.13-.06-.14.74-.16.79-.21.44-.31.68-.29 1.34.01.32.22.88.43 1 .2.11.39-.02.51-.16.03-.03.11-.18.13-.23.03-.09.11-.32.16-.31.43.08-.34 1.56-.57 1.66-.87.38-1.13-1.11-1.02-1.95m-13.14-2.62c.04.08-.15.58-.22.75-.13.35-.23.77-.27 1.18-.03.32.08.61.17.85.04.13.08.23.15.32.09.12.14.18.14.18.03.11.47.23.6.12.06-.05.15-.28.17-.38.04-.18.15-.59.26-.52.35.21-.33 1.82-.63 1.95-.15.06-.42-.04-.67-.13-.25-.1-.52-.92-.56-1.29-.06-.67.07-1.28.25-1.83.07-.21.42-1.32.61-1.19m-41.37 4.18c0-.06.62-.44.96-.64.38-.23 1.11-.68 1.16-.75.21-.29-1.74-.18-1.98-.12-.33.07-.61.15-.84.31-.12.08-.48.32-.5.26-.05-.26.62-1.29.8-1.4.5-.3.96-.43 1.6-.51s2.57-.1 2.08 1c-.32.73-2.28 2.36-3.29 1.86m25.9-1.31c.07-.29.45-.9.71-1.32.07-.11.84.41.9.45.25.16.57.37.75.31.04-.02.24-.41.27-.48.14-.28.27-.54.45-.65.29-.18 1.53.9 1.62 1.26.08.33-.59 1.28-.8 1.32-.05 0-.56-.37-.69-.47-.28-.22-.63-.5-.84-.49l-.27.54c-.1.22-.3.67-.39.69-.32.08-1.71-.87-1.72-1.16m28.7-5.4s-.13-.11-.2-.16c-.12-.08-.25-.16-.36-.25-.15-.12-.34-.28-.42-.46-.46-1.04.92-3.45 1.68-2.1.14.25.24.55.27.9.02.23.04.54.04.73 0 .24 0 .64.06.77t.2.17c.1.08.22.19.31.29.21.24.21.65.06.96-.04.08-.44-.18-.52-.24-.21-.14-.44-.29-.78-.06l-.09.13c-.09.11-.35.4-.35.4l-.21.2-.2.19-.33.28c-.51.47-1.03.92-1.65 1.29-1.12.69-3.37 2.05-4.21 2.07-.15 0 1.62-1.17 1.74-1.25l1.86-1.22.37-.25c.16-.11.47-.31.5-.34.24-.19.49-.38.74-.56.24-.17 1.62-1.3 1.49-1.51m-49.51 3.34c.14-.14 1.47-.69 1.99-.88.65-.24 1.75-.66 2.03-.77 1.34-.57 4.33-1.77 4.68-1.85.16-.03 0 .63-.02.75-.09.4-1.54.92-2.02 1.08-.61.2-1.67.63-2.46.96-.25.1-.92.35-1.39.53-.39.14-.95.35-1.17.45q-.1.04-.26.1l-.33.12-.14.06-.14.08-.2.08-.18.08c-1.16.52-.46-.75-.37-.78m22.06-3.12c0-.05-.1-.14-.18-.21l-.2-.2c-.17-.2-.32-.47-.36-.77-.09-.68.59-1.86 1.12-1.97.37-.08.62.31.68.63.05.3.07.42.04.73 0 .11-.11 1.32 0 1.32.18 0 .85.66.89.84.07.26-.02.56-.11.72 0 .02-.83-.49-.95-.56-.39-.24-.69.13-.97.48-.21.25-.51.58-.77.78-.31.23-.68.51-.95.79-.22.22-2.72 1.46-2.89 1.37-.15-.07.45-.53.46-.54.11-.08.25-.16.37-.23.15-.09.43-.24.43-.24.28-.17.83-.61 1.2-.91 0-.01.41-.28.58-.39.23-.15.43-.32.63-.5.36-.33.88-.82.97-1.13m-44.31 2.26c-.11-.36.47-1.55.78-1.49.04 0 .62.35.82.47.14.09.66.41.75.3.11-.13.21-.34.29-.5.12-.24.21-.42.4-.58.29-.26 1.61 1.05 1.64 1.36.03.25-.61 1.14-.92 1.08-.11-.02-.55-.33-.64-.4-.26-.22-.51-.43-.82-.41-.03 0-.32.61-.38.75-.15.32-.28.45-.59.29-.24-.13-.6-.36-1.02-.65-.07-.05-.31-.21-.31-.21m48.88-.34c1.23-.88 7.89-4.94 8.24-5.01.32-.07.1.58.04.71-.08.16-.36.35-.59.5-.38.25-.75.49-1.15.72-.64.36-1.59.94-2.37 1.43 0 0-.26.17-.26.17-.15.11-.2.15-.21.15-.23.13-.61.34-.65.37-.3.19-1.43.9-1.43.9q-.19.11-.27.16l-.24.16c-.16.08-.28.15-.41.25l-.14.08-.46.34c-.45.28-.21-.78-.08-.92m-41.24-.44c.45-.38 1.89-1.1 2.85-1.58.5-.25 1.27-.63 1.52-.79.14-.09.47-.21.67-.29.26-.1.62-.28.92-.43 1.09-.54 2.24-1.05 3.38-1.55.58-.25 1.19-.5 1.8-.71.55-.19.34.22.2.47-.07.14-.36.65-.45.66-.37.04-2.3.95-2.99 1.29l-1.47.69-.16.08-.29.14-.16.06-.17.08-.37.18-.16.06q-.09.04-.33.16c-.31.17-2.03 1.02-3.17 1.59-.49.24-.97.51-1.43.77t-.25.16s-.3.21-.32.18c-.13-.25.23-1.19.37-1.24m9.67.37c-.18-.47-.3-1.08-.18-1.59.11-.49.23-.84.37-1.26.08-.23.17-.41.27-.61q.1-.19.17-.28c.08-.09.35-.1.26.08-.27.49-.53 1.03-.61 1.63-.07.48.05 1.25.45 1.43.24.1.39-.07.45-.29.04-.14.19-.67.3-.56.2.21-.28 1.43-.36 1.58-.36.62-.79.31-1.1-.12m5.55-3.51c-.3-.22-.11-1.01 0-1.32.17-.48 1.56.88 1.62.94.21.21.41.44.64.76q.13.24.16.29c.08.12.32.47.34.46.06-.02.11-.74.11-.75l.02-.61v-.16c.02-.31.03-.38.08-.57.1-.34.25-.87.41-1.03.67-.67 1.67.85 1.13 1.47-.1.11-.47-.2-.57-.29-.17-.14-.38-.31-.58-.18-.1.06-.13.67-.15.93-.02.37-.07 1.05-.12 1.34-.06.33-.13.73-.2.98-.03.11-.22.65-.37.37-.03-.14-.05-.2-.1-.32-.06-.16-.13-.29-.2-.45-.16-.31-.37-.63-.58-.89-.07-.08-.58-.59-.59-.59h-.18q-.22.01-.33-.03c-.2-.08-.4-.19-.55-.34m-16.9.83c-.05-.88.14-2.48.58-3.23.31-.53-.04 1.12-.05 1.15-.1.41-.27 1.11-.12 1.38.47.86.78.87 1.07-.18.12-.43.15.74.12.91-.08.36-.17.67-.4.87-.63.54-1.12-.48-1.19-.91m38.12-.96c-.13.32.52.88.8.85.23-.03.06-1.07-.15-1.17-.17-.09-.65.14-.65.32m28-.62c-.25-.51-.95.18-.97.43-.02.19.66.63.83.71.85.42.34-.86.13-1.15m-8.91 3.78s-.04-.03-.06-.04c-.09-.14-.22-.32-.34-.48-.22-.32-.52-.69-.93-1.07l-.29.05-.17-.03c-.25-.06-.49-.22-.69-.36-.46-.31-.54-.86-.25-1.45.24-.49 1.95 1.01 2.05 1.12l.16.2q.15.18.18.23l.19.22c.09.12.22.32.31.48.05.08.27.46.34.4.05-.04.05-1.55.05-1.81 0-.34.02-.86.16-1.22.15-.36.87-1.66 1.45-1.22.32.24.55.55.64 1 .02.13-.18.55-.24.65-.02.04-.43-.32-.47-.35-.18-.15-.37-.32-.58-.3-.46.06-.49 1.46-.51 2.26-.02.76-.22 2.72-.4 2.78-.21.08-.25-.15-.25-.34.08 0-.36-.73-.36-.73m-66.35 17.75s-.04.02-.05.02c-.05.01-.04-.37.05-.65l1.74-1.03c.38-.19.77-.39 1.1-.57.34-.18.68-.36 1.02-.53.17-.08.4-.21.59-.32.21-.12.47-.27.62-.3.25-.06-.04.68-.08.79-.1.26-2.09 1.24-3.02 1.66l-.6.27s-1.28.68-1.35.67" fill="#1d1d1b" fill-rule="evenodd"/></svg>