<svg viewBox="0 0 86.08 31.76" xmlns="http://www.w3.org/2000/svg"><path d="m2.86 30.95.2-.09q.15-.07.24-.1c.11-.04.42-.15.61-.22.37-.14.73-.27 1.11-.39.37-.11.75-.24 1.1-.37.21-.08.77-.25 1.15-.37.64-.2 1.31-.41 1.92-.61l.9-.29c.27-.09.98-.32 1.08-.24.14.12-.21.8-.38.85-1.27.37-2.99.94-4.46 1.42l-.98.28c-.41.14-.86.29-1.23.43-.16.06-.32.12-.49.19-.24.08-.7.25-.74.26-.53.22-.26-.61-.03-.76m10.24-3.59c.02-1.53 1.46-5.14 2.49-5.31.33-.06-.38 1.1-.38 1.1-.26.42-.52.84-.74 1.3-.43.91-.8 2.21-.8 3.28 0 .46.27.94.48 1.25.16.24.57.36.94.39 1.47.16 3-1.49 3.99-2.57.76-.82 2.54-2.6 3.39-2.95 0 0 .5-.32.63-.41.18-.12.55-.3.84-.45l.15-.08.16-.08.16-.08c.22-.13.29-.16.29-.16l.21-.08.2-.1.37-.18c.12-.04-.55-.65-.57-.66-.21-.19-.49-.42-.74-.61-.33-.26-1.22-1.01-1.26-1.25-.11-.67-.13-.83-.04-1.43.04-.27.24-.55.44-.76l.22-.27.23-.18c.62-.89 3.97-.92 4.94-.92s7.01.48 7.79 1.02c.17.12-.74 1.83-.83 1.99q-.18.08-.31.14l-.16.08-.14.08-.18.08-.16.08c-.31.15-.97.49-1.04.53-.14.08-.3.16-.45.24l-.61.29s-.35.16-.5.24c-.14.06-.21.11-.41.22l-.16.06c-.26.13-1 .49-1 .49-.31.12-.75.33-1.12.51l-.2.06-.41.18-.25.12c-.22.11-.93.46-.96.55v.82c0 .1-.04.25-.14.26-.13.02-.3-.21-.41-.37-.14-.19-.24-.33-.45-.32-.36 0-2.34 1.06-3.46 1.65-1.09.58-2.05 1.53-2.9 2.37-.42.42-.84.86-1.23 1.32-.17.21-.54.64-.62.71-.1.09-.22.19-.49.41-.11.08-.21.15-.24.18-.62.61-2.14.68-2.97.31-.2-.09-.39-.2-.55-.33t-.19-.19c-.09-.1-.24-.25-.24-.25-.3-.04-.58-2.15-.59-2.32m11.13.45c-.07-.19-.12-.29-.35-.31-.16 0-.31.17-.4.27-.07.08-.25.3-.27.29-.26-.11.41-1.26.48-1.34.42-.55 1.03-.29 1.03.48 0 .52-.34 1.2-.55 1.55 0 0-.29.43-.41.61-.08.11-.37.55-.37.57h-.16l.02-.12s.05-.12.14-.31c.11-.23.21-.4.33-.61.19-.34.54-.93.51-1.08m4.48.81c-.22-.41.32-1.57.51-2 .11-.24.24-.44.39-.65.16-.22.37-.52.37-.61 0-.12-.82.14-.82.14-.2.07-.59.21-.6.17-.06-.26.42-.92.59-1.01.14-.07 1.79-.8 1.75-.16-.04.61-.78 1.49-1.25 2.07-1 1.2-.14 1.6 1.15 1.09.51-.21.97-.41 1.36-.72.22-.18.89-.71.95-.67.12.07-.6 1.11-.63 1.14-.31.33-.59.63-.95.85-.55.34-2.31 1.11-2.82.36m11.01-2.12s.16-.09.22-.12q.18-.08.31-.16c.06-.04.41-.29.59-.42.3-.22.7-.54 1.04-.81.44-.35 1.6-1.39 1.71-1.87.11-.5-.24-1.38-.43-1.83-.58-1.41-1.83-2.67-2.87-3.74-1.08-1.09-2.25-2.28-3.2-3.32-.99-1.08-2.15-2.35-2.9-3.36q-.11-.15-.33-.4s-.21-.3-.31-.44q-.11-.15-.18-.24t-.15-.21s-.22-.3-.33-.45l-.33-.41c-.11-.15-.21-.3-.33-.45-.08-.11-.09-.12-.31-.26l-.14-.09c-.23-.23-.28-1.44-.19-1.8.02-.09.99.55 1.04.58.36.24.85.57 1.08.73.16.11.31.22.47.33s.32.22.46.34c.14.11.3.24.28.39-.01.11-.5.09-.91.08-.16 0 .38.67.38.67.07.08.23.29.23.29.09.13.16.22.26.32.01.01.65.76 1.02 1.2.68.8 1.67 1.83 2.67 2.83 0 0 .34.34.51.5.18.18.55.56.6.61.17.21.35.41.54.6.34.33.7.7 1 1.06.24.3 1.09 1.3 1.09 1.3.3.24.92 1.33 1.1 1.74.14.32.25.65.33 1.02 0 0 .09.36.12.49l.08.41s.08.7.12.69c.63-.13.09-3.63-.04-4.48-.08-.53-.25-1.54-.36-2.21 0-.02-.11-.74-.17-1.08l-.2-1.06-.04-.33-.04-.25-.04-.16-.04-.24-.04-.24-.04-.33-.04-.24q-.04-.26-.08-.53l-.04-.28v-.18l-.04-.22-.04-.16-.04-.2c-.09-.43-.15-.87-.2-1.34-.1-.84-.26-1.79-.41-2.69l-.04-.28-.04-.41c-.03-.18-.08-.51-.12-.65-.03-.09-.26-.85-.12-.9l.04-.16.04-.16c.04-.17.06-.25.1-.37.05-.15.17-.49.23-.54.14-.12.48.66.55.81.18.41.4.94.57 1.2.03.04 1.35 3.01.74 2.44-.13-.12-.77-.71-.79-.7-.17.1.28 2.58.36 3.03l.04.24.04.33.04.24.04.21.04.16.04.16s.08.56.12.82c.05.32.1.67.16.98.32 1.62 1.09 6.33 1.02 6.72v.88l.04.45c0 .23-.04.49-.08.71l-.04.2v.2c-.01.09-.05.32-.08.41l-.04.16-.04.16-.08.29c-.05.17-.12.36-.18.53-.12.31-.46 1.15-.61 1.23 0 0-.23.35-.25.38-.11.16-.21.31-.34.45-.14.15-.3.33-.41.44l-.21.16c-.09.07-.15.12-.19.17-.47.6-1.21 1.05-1.92 1.4-.54.27-5.25 1.57-5.65 1.43-.3-.11.61-.5.69-.53.17-.07.5-.21.53-.22.33-.11.64-.24.94-.39q.27-.13.33-.16.11-.07.21-.1c.22-.08.47-.18.65-.31.35-.24.81-.53 1.23-.65m-32.99.97c-.19-.23.42-1.21.56-1.4.28-.4 1.79.84 1.98 1.01.18.17-.65 1.27-.76 1.28-.23.02-1.68-.72-1.77-.89m56.89.61c-1.08-.37-1.68-1.22-2.09-2.26-.15-.39-.18-1.04-.18-1.39 0-.08.03-.51.04-.69.02-.25.06-.9.06-.9-.03-.06-.98.57-1.04.61-.13.08-.25.16-.37.24-.42.31-.88.61-1.35.86l-.25.16c-.14.09-.28.17-.43.25s-.29.16-.43.25c-.13.08-.23.13-.37.2l-.14.08q-.12.08-.23.12l-.43.22c-.16.07-.36.17-.47.22-.15.08-.47.25-.47.25-.72.28-6.55 1.85-7.12 1.67-.28-.09.49-.47.49-.47.22-.1.46-.2.69-.28 0 0 .25-.08.25-.08l.17-.06.16-.08.16-.06.16-.06.21-.08.16-.06c.15-.06.33-.12.45-.16.47-.16.99-.33 1.51-.61l.14-.06.14-.08.29-.14c.15-.06.27-.12.39-.18.14-.08.27-.15.42-.21 1.89-.76 4.39-2.41 6.27-3.65.72-.48 3.57-2.56 3.5-3.22-.03-.27-.22-.64-.35-.85l-.16-.25c-.09-.14-.17-.29-.25-.45q-.08-.16-.16-.28c-.08-.12-.13-.21-.2-.35l-.08-.12-.08-.18-.08-.16-.08-.12-.14-.24c-.11-.22-.2-.45-.29-.69-.11-.29-.21-.58-.33-.86-.14-.32-.33-.76-.33-.86 0-.21.07-.57.12-.81l.04-.12q.05-.17.09-.42c.03-.19 1.31 1.09 1.42 1.21.21.21.54.55.64.68.09.11.32.48-.08.43l-.12-.04c-.22-.03-.52-.06-.49-.02l-.02.16s.07.15.11.23c.08.14.16.3.31.52l.08.16.14.22q.1.2.14.26c.32.48.65 1.05.8 1.69.17.76.09 1.67-.08 2.36-.2.85-1.22 1.79-1.84 2.27-1.16.89-.89 2.55-.14 3.67 1.27 1.9 4.94 1.04 6.39-.37.02-.02.37-.27.54-.39.19-.14.36-.27.54-.42.4-.32.86-.69 1.17-1 .67-.67 1.73-1.74 1.93-2.17.09-.19-.13-.58-.29-.59-.02 0-.35.1-.55.16-.08.03-.29.07-.37.08l-.29.04-.25.04c-.25.05-1 .1-1.47.12-.04 0-.53-.13-.61-.16q-.11-.04-.29-.12l-.34-.21c-.61-.19-.45-1.94-.27-2.5.32-1.01 1.33-2.11 2.74-1.61.54.19.96.54 1.3.93.13.15.43.51.43.51.12.17.47.62.5.64.23.09 1.67-.91 1.89-1.09.39-.31 1.29-1.03 1.52-1.03.19 0 .26.3.26.45l-.04.31-.04.24c-.01.12 0 .42.1.57.28.44.49.63.9.94.35.26 1.04.26 1.51.26.41 0 1.07-.41 1.51-.68.4-.25.68-.76.91-1.19l.08-.18.23-.41.06-.16.08-.14c.08-.12.43-.69.59-.42.09.16-.11.57-.18.7-.14.28-.26.51-.2.79.11.6 2.45 1.46 2.84.76.08-.14-.13-.58-.19-.67-.12-.2-.34-.57-.34-.58-.04-.25.3-1.41.47-1.45.62-.12.84 2.52.76 3.07-.05.33-.38.86-.65 1.27-.15.24-.83.32-1.25.38-.51.06-1.15-.29-1.45-.51-.19-.14-.33-.27-.48-.44-.14-.16-.37-.44-.48-.41l-.09.16-.08.12-.08.14c-.08.12-.19.3-.26.38-.18.2-.36.41-.6.54-.46.24-1.02.53-1.43.59-.56.08-1.12.01-1.55-.18-.31-.14-.73-.48-.9-.75-.11-.18-.21-.34-.29-.55q-.07-.18-.1-.41c-.04-.23-.07-.43-.14-.5s-1.1.76-1.24.88q-.06.05-.21.15c-.12.08-.23.16-.34.25-.24.19-.53.42-.56.56l-.04.45q-.06.74-.08.9c-.04.3-.1.52-.23.73-.34.6-1.14 1.53-1.81 2.31-.42.49-1.16 1.09-1.85 1.61-.12.1-.36.28-.4.31l-.24.17q-.18.14-.21.16l-.25.16-.28.16c-.18.14-1.33.6-2.33 1-.73.29-1.81.13-2.54-.08m18.79-5.25.05.18q.06.36.12.41c.18.13.54.26.76.12.07-.04.12-.12.14-.2l.04-.24c.04-.2.04-.2.08-.33.06-.15.2-.55.34-.55.21 0 0 .88-.05 1.03-.1.29-.25.76-.42.96-.16.19-.48.36-.71.36-.13 0-.28-.03-.41-.08-.28-.11-.41-.16-.49-.14 0 0-.42.32-.48.38-.13.11-.33.19-.54.22-.44.06-.65-.06-.9-.23-.22-.15-.39-.22-.7-.14-.49.12-1.57.85-2.39 1.4-.73.49-1.64 1.11-2.76 1.14l.25-.31.2-.06s.4-.23.55-.32c.35-.21.69-.44 1.02-.67t.33-.23l.13-.09q.19-.14.22-.15l.24-.16c.15-.11.44-.32.45-.33l.43-.32c.59-.41 1.6-1.12 2.33-.73.44.24.77.41 1.31.08.18-.11.33-.25.43-.43.07-.13.33-.6.42-.56m-44.65 3.13c-.76-.1-1.19-1.16-1.29-1.97-.08-.72.44-5.17 1.14-5.14.12 0-.11 1.48-.16 1.68l-.06.29-.06.2-.06.14c-.08.31-.14.63-.18.96-.1.71.03 1.75.62 2.33.34.34.58 0 .69-.34.09-.28.52-1.11.45-.25-.07.9-.34 1.87-1.08 2.1m8.65-22.06c.04-.31.26-1.3.47-1.31.05 0 .22.32.25.37l.08.2.08.2q.06.14.16.3c.13.2.35.71.49 1.02.19.43.98 2.23.79 2.44-.12.14-.46-.27-.52-.33-.1-.12-.37-.44-.48-.38-.03.02.16 1.58.18 1.75.08.55.18 1.12.29 1.67l.04.2q.04.27.06.41l.02.2.04.25.04.2.04.24.12.9c.06.35.11.66.16 1.02.38 2.45.81 5.21.98 7.16.16 1.78.05 3.56-.59 5.17 0 0-.13.16-.14-.12v-1.75c0-.75-.19-2.54-.33-3.87-.18-1.68-.39-3.06-.7-4.72-.43-2.33-1.58-11.18-1.56-11.24m-45.45 20.36s-.12-.15-.19-.23c-.1-.1-.18-.24-.26-.36-.15-.24-.27-.53-.35-.85-.15-.67-.17-1.06-.08-1.75.05-.36.25-.92.39-1.3.09-.25.2-.46.33-.69.12-.22.25-.47.16-.59-.31-.41-.52-.84-.63-1.44-.17-.94-.11-1.42 0-2.36.05-.44.73-3.1.92-3.16.36-.11-.05 1.19-.1 1.36-.19.62-.33 1.52-.33 2.08 0 .72.1 1.49.4 1.99.17.29.76.81.99.21.11-.29.51-1.31.45-.45-.04.49-.21 1.39-.47 1.71-.09.12-.19.22-.33.29-.18.09-.57.28-.57.28l-.08.16q-.06.12-.12.28c-.05.13-.12.33-.19.53l-.12.37-.04.24-.04.19c-.12.45.42 1.46.59 1.73.55.82 1.64 1.09 2.87 1.24.74.09 2.39-.16 3.48-.33 1.37-.21 6.27-2.03 6.44-2.71.09-.38-.73-1.43-.98-1.63-.81-.64-.96-.87-.53-2.09.1-.27 1.06.56 1.13.65.3.39.56.76.84 1.2.37.56.29 2.77-.17 3.17-.39.34-1.44.97-2.32 1.49-1.81 1.08-4.31 1.65-6.86 1.91-1 .1-3.98-.35-4.23-1.14m13.53-21.04c.18-.08 1.04 1.61 1.12 1.8.07.19.15.34.25.49.1.16.25.4.31.53 0 0 .59 1.28.18 1.16-.15-.04-.27-.14-.38-.26-.13-.15-.29-.33-.44-.27s.45 2.99.47 3.07c.07.27.22 1.22.27 1.5l.02.2.04.24.04.29.04.24.04.2.04.2.04.41.04.25c.49 2.42.92 4.74 1.15 7.49.03.42-.02 3.64-.64 3.77-.05.01-.13-1.59-.14-1.91-.03-.58-.08-1.23-.16-1.81-.13-.98-.32-2.35-.45-3.01-.26-1.28-.59-3.46-.86-5.17l-.04-.32-.04-.21c-.04-.19-.11-.47-.12-.61l-.04-.41-.04-.2c-.04-.2-.09-.45-.12-.65-.07-.49-.12-.76-.21-1.18-.1-.51-.18-1.07-.24-1.63-.08-.68-.31-2.25-.39-2.44-.16-.35-.11-1.36.27-1.76m39.4 19.13c-.09-.14-.15-.3-.21-.48-.02-.08-.07-.21-.08-.28l-.05-.48s.08-.6.13-.99c.05-.43.1-.73.2-1.06.03-.09.08-.22.1-.28l.08-.16q.08-.13.1-.21c.06-.16.06-.18.14-.33.09-.17.19-.35.22-.49.01-.05-.46-.43-.6-.54-.24-.2-.49-.4-.71-.61-.29-.27-1.15-1.13-1.21-1.29-.1-.26-.04-1.34.11-1.58.06-.09.22.04.27.08.08.06.16.13.21.15l.29.1.16.06.41.16c.24.09 1.23.47 1.25.57 0 0-.01.22-.06.25l-.16.02c-.18.03-.32.05-.4.11-.24.19 1.19 1.06 1.49 1.01.07-.01.21-.22.27-.31.11-.17.24-.35.34-.48.09-.11.18-.22.26-.32 0 0 .17-.25.17-.26 0 0 .17-.26.17-.26.18-.25.51-.68.97-1.27.02-.04.16-.24.18-.26.54-.61-.25 1.77-.34 1.9-.18.27-.46.68-.58.83-.2.24-.47.6-.54.9-.02.06.44.36.57.45.21.14.51.34.65.47.39.38.68.94.78 1.58.07.43-.17 1.47-.39 1.85-.55.95-3.09 2.55-4.19 1.41m-34.25-1.86c-.07-.21.47-1.21.58-1.36.15-.2 1.56.92 1.66 1 .4.33-.59 1.51-.98 1.37l-.13-.09q-.14-.1-.43-.33c-.13-.09-.72-.52-.7-.6m-12.6.29c-.15-.51-.18-.98-.12-1.55.04-.4.57-2.01.76-2.15.25-.18-.04.67-.07.76-.17.5-.26.97-.25 1.63 0 .27.34.99.53 1.02.31.05.33 0 .41-.24.06-.19.17-.5.24-.52.53-.09-.29 1.66-.31 1.69-.48.59-.99-.28-1.2-.64m26.76-2.42c-1.61-.75-8.15-.71-9.52-.11-.68.29-.48.51-.05.9.03.03.82.68 1.29 1.06q.07.05.2.18c.1.1.21.2.32.29.11.1.32.35.46.52.15.19.3.38.56.35.14-.01.55-.21.78-.32.3-.15.6-.28.9-.41l.12-.04.16-.06c.15-.06.32-.14.47-.2l.18-.08.22-.08.18-.08.2-.08s0 0 .29-.12q.18-.08.25-.1l.14-.06q.15-.08.27-.12l.18-.08.29-.16.51-.25c.25-.12 1.72-.8 1.58-.95m23.85 1.24c-.28-.52-1.67-1.49-2.31-1.51-.18 0-1.05 1.62-1.13 1.88-.09.31.01.64.18.85.08.09.55.45.74.26l.29-.04.2-.06c.19-.07.23-.08.39-.16.23-.12.5-.26.7-.41.19-.14.96-.7.94-.81m14.1-.77c-.35-.28-.79-.63-1.03-.71-.64-.22-1.42.13-1.49.63-.04.23.68.38.92.39.27.01 1.69 0 1.6-.31m-66.12-4.27c-.26-1.29-.01-2.85.62-3.94.3-.51-.09.88-.09.88-.16.49-.25 1.07-.25 1.55 0 .53.25 1.33.87 1.28.07 0 .18-.29.2-.38.02-.08.14-.49.14-.49.49 0-.14 1.64-.29 1.78-.42.4-1.18-.2-1.2-.68m12.44-.82c-.17-.43-.05-1.12.1-1.55.03-.1.55-.6 1-1.03.37-.36 3.54-1.81 5.02-2.47.88-.39 2.53-1.13 2.8-1.26.22-.11.49-.24.67-.33.19-.08.6-.27.64-.28.22-.11.44-.21.41.16-.02.28-.09.66-.35.77-2.86 1.25-9.44 4.24-9.86 4.99-.1.17.09.27.21.35l.14.08.14.08.14.07c.16.16.06.86-.24.85-.18-.01-.8-.14-.82-.43m63.59-1.1c-.15-.73.45-3.22.89-3.15.14.02-.33.94-.34.97-.14.25-.23.6-.18.85.09.49.19 1.07.4 1.26.19.16.44-.03.53-.16.04-.05.1-.21.13-.3.05-.13.08-.22.16-.22.45 0-.46 1.54-.48 1.56-.6.47-1.03-.27-1.1-.82m-52.55-.54c-.23-.18-1.55-.1-1.94.03-.18.06-.35.18-.46.32-.16.2-.33.42-.45.41-.28-.03.63-1.49.68-1.55.24-.29.6-.39 1.05-.52.44-.12 1.85-.11 2.21.1.2.12.25.25.23.53-.04.4-.63 1-.95 1.32-.07.07-.74.4-1.08.56-.09.04-1.07.5-.95.12.04-.11.55-.45.85-.65.12-.08.88-.58.81-.67m38.51-.54c.02-.57.84-3.22.95-2.74 0 .03-.07.27-.09.31l-.06.16q-.09.21-.1.24c-.11.32-.19.62-.25 1.02-.1.72.25 1.64.84 1.68.13.01.37-.67.48-.97.14-.38.1.87.04 1.07-.1.29-.27.74-.51.87-.83.46-1.17-1.12-1.29-1.67m-13.89-1.38c.13-.11.53.16.7.26l.49.33.2.16c.24.13.44-.23.53-.41.16-.3.33-.61.51-.73.22-.15 1.32.82 1.47.99.4.46-.24 1.23-.55 1.57-.12.13-.79-.43-.94-.55l-.22-.18c-.09-.07-.2-.16-.3-.21-.12-.07-.31.28-.37.39l-.14.24-.06.16c-.02.06-.12.25-.16.31-.21.3-.8-.12-1.06-.31-.29-.21-.82-.58-.72-.9.09-.25.44-1.04.63-1.12m-43.21.81c-.28-.49-.36-.96-.43-1.67-.04-.39.28-2 .45-2.87.08-.41.41-2.07.63-2.04.15.02-.14 1.46-.18 1.67-.18.88-.29 1.61-.29 2.52 0 .75.49 1.74 1.09 1.8.19.02.27-.35.31-.54.06-.28.17-.85.31-.87.35-.06.03 1.2-.02 1.4-.1.39-.19.73-.39 1.02-.16.23-.48.41-.82.25-.09-.05-.27-.16-.34-.23l-.31-.44zm71.29-4.37c.01-.05-.39-.39-.52-.5-.22-.19-.38-.37-.52-.64-.37-.72.49-1.95.92-2.3.24-.2.61.07.75.17.1.07.26.55.29.71.07.35.08.97.08 1.22 0 .28 0 .62.05.68l.21.19c.1.08.31.26.31.26.17.21.18.69.04.96-.04.08-.48-.22-.52-.26-.18-.13-.42-.29-.62-.26 0 0-.23.28-.26.32-.11.15-.25.31-.52.56q-.07.07-.2.17l-.21.2s-.02.02-.29.26q-.13.14-.18.18c-.15.11-.38.27-.46.33-.3.24-.61.47-.93.68-1.16.77-2.69 1.79-4.24 2-.27.04.71-.61.71-.61.31-.17.72-.41.96-.57.62-.41 1.27-.84 1.9-1.22.59-.36 1.18-.74 1.71-1.17.26-.21.51-.42.77-.62.15-.11.3-.24.44-.37l.19-.18s.14-.18.15-.18m-27.55-.4c-.21-.08-.62-.71-.67-.99-.05-.3.28-1.1.5-1.61.08-.2.53-.44.75-.48.23-.04.41.24.49.39.14.27.09.9.06 1.28-.02.29-.07.91-.01.99.04.05.14.12.22.17t.21.18c.19.16.43.36.49.56.07.25-.02.53-.09.72-.04.1-.59-.3-.67-.35-.21-.15-.46-.33-.7-.38-.08-.02-.42.41-.51.52-.18.23-.38.45-.59.65-.29.29-.9.87-1.22 1.01-.73.31-1.53.73-2.23 1.14-.17.1-1.13.43-.67-.01.07-.07.74-.49 1.12-.72.23-.14.63-.43.93-.66.3-.22.64-.47.93-.64.3-.18 1.88-1.42 1.65-1.74m-51.81-.14c-.26-.2-.01-1.42.22-1.43.42-.01 1.28.9 1.51 1.22l.08.12.08.12.25.35s0 0 .16.22l.16.24c.13.21.16.26.16.26.12.16.27.39.34.38.03 0 .08-.66.09-.75l.04-.69q.02-.34.04-.49c.07-.47.2-.84.35-1.22.46-1.14 1.34-.1 1.53.57.05.18-.16.54-.28.62-.11.08-.46-.19-.53-.27-.17-.19-.31-.35-.57-.32-.11.01-.21 1.51-.21 1.66 0 .43-.11 1.01-.21 1.45-.07.32-.15.63-.24.94-.04.13-.11.33-.24.18-.02-.02-.07-.16-.09-.22s-.12-.33-.14-.37c-.27-.54-.6-1.01-.94-1.49-.12-.18-.43-.61-.53-.63-.41-.11-.79-.21-1.04-.46m56.45 2.24c.21-.12.67-.43.97-.64t.35-.2l.14-.08.51-.33c.69-.42 1.47-.9 2.11-1.26.34-.19 1.01-.57 1.11-.61.16-.08.39-.22.57-.32.15-.1.37-.22.55-.33.33-.19.94-.55 1.04-.61.13-.08 1.01-.62 1.06-.53.12.18-.09.79-.21.89-.37.32-2.91 1.8-4.7 2.84l-.41.22q-.08.05-.29.16l-.14.08-.14.08q-.14.08-.27.16l-.26.16-.27.16-.12.08-.22.14q-.2.11-.26.16s-.06.03-.21.11c-.08.04-.17.1-.27.16-.13.08-.25.17-.39.24-.17.1-.36.21-.43.18-.15-.06.06-.9.18-.93m11.42-2.84c.08-1.15.24-1.29 1.28-.6.43.28.81.68 1.13 1.08.17.21.33.43.48.64.08.12.43.65.49.63l.02-.45q0-.42.04-1.3c.01-.32.03-.7.04-.77.05-.38.34-.77.65-1.14q.03-.26.11-.34c.17-.16.62-.39.88-.18.25.2 1.01 1.57.25 1.64-.05 0-.3-.28-.42-.41-.12-.14-.29-.25-.5-.28-.27-.04-.48.32-.53.55-.04.15-.04.69-.05.87 0 .52-.02 1.28-.03 1.49-.03.53-.15 2.14-.49 2.18-.08 0-.16-.29-.2-.43-.07-.22-.22-.45-.36-.67-.05-.07-.5-.71-.72-1.03-.11-.16-.27-.35-.56-.6h-.18q-.22.01-.33-.03c-.51-.2-.75-.4-1-.86m-31.47-2.44c-.31.94-.65 2.04-.49 2.97.04.25.41.96.6 1.01.29.08.38-.04.46-.28.07-.2.21-.62.32-.56.12.07-.09.82-.12.92-.07.24-.2.67-.31.77-.14.14-.36.35-.55.21-.35-.26-.63-.6-.78-1.06-.2-.63-.06-1.49.12-2.32.09-.43.21-.92.31-1.18l.06-.16c.03-.07.1-.29.1-.29l.1-.13s.26-.01.17.09m-20.37-.42c.2-.18 1.46.83 1.72 1.04s.49.51.68.78c.17.22.56.76.6.78.04.01.09-.71.1-.83.03-.42.06-.82.16-1.22.1-.42.35-1.18.76-1.28.43-.11.75.21.9.57.11.25.43 1.38-.16 1.2-.05-.02-.25-.26-.37-.4-.06-.07-.68-.58-.75-.16-.02.13-.09.92-.13 1.29v.51c0 .07-.07.85-.08.96-.05.36-.17 1.11-.37 1.34-.05.06-.18-.28-.18-.28-.08-.2-.11-.28-.23-.45l-.06-.18c-.02-.05-.17-.28-.24-.39-.26-.39-.54-.76-.87-1.09-.15-.15-.33-.33-.55-.29-.26.05-.52-.01-.75-.21-.35-.31-.69-1.22-.19-1.68m12.17 1.3c.26-.34.89-.9 1.35-1.02.3-.08.65.1.76.39.08.21-.34.68-.61.56-.11-.09-.3-.15-.48-.13-.17.03-.61.31-.68.43-.16.29.59.51.8.55.31.06.4.05.77 0 .34-.05.98-.13 1.09-.07.19.1-.16.56-.22.64-.02.02-.64.16-.87.21-.25.06-.74.16-.74.16-.27.08-1.24.35-1.24.34-.02-.03.11-.38.14-.46.07-.19-.06-.3-.26-.48-.31-.28-.04-.9.18-1.11m51.74 1.32c-.06-.9-.97-1.64-1.23-.61-.06.24.3.48.49.61.24.16.77.51.73 0m-27.41-.04c.07-.61-.16-1.4-.81-.79-.23.22.02.57.2.7.13.1.57.45.61.08m-28.29-1.93c.56-.25 1.29-.57 1.72-.75.32-.14.66-.28.98-.41.33-.13.64-.26.98-.41.55-.23 2.05-.86 2.05-.86.4-.14.75-.28 1.13-.45.27-.12.89-.39 1.08-.32s-.21.71-.25.76c-.01.01-1.62.68-1.96.8-.8.3-1.6.62-2.37.98-.78.36-1.58.7-2.38 1l-.28.1-.16.06q-.1.04-.33.16c-.08.04-.2.1-.28.12-.4.1-.05-.74.08-.8" fill="#1d1d1b" fill-rule="evenodd"/></svg>