<svg viewBox="0 0 63.31 28.53" xmlns="http://www.w3.org/2000/svg"><path d="m3.67 27.95c.15-.05 1.33-.73 1.95-1.09.1-.06.67-.36.98-.52q.19-.1.25-.13l.25-.15c.28-.12.52.08.25.43-.03.04-1.99 1.13-2.12 1.18-.38.15-.67.3-1.01.5-.15.09-.38.22-.47.27 0 0-.2.1-.22.09-.1-.1-.04-.58.12-.59m.18-1.47c.15-.05 1.33-.73 1.95-1.08.1-.06.67-.36.98-.52q.19-.1.25-.13l.25-.15c.28-.12.53.08.26.43-.03.04-1.99 1.13-2.12 1.18-.38.15-.67.3-1.01.5-.15.09-.38.22-.47.27 0 0-.2.1-.22.09-.1-.1-.04-.58.12-.59m29.04-25.13c-.16-.4-.8.04-.78.3.03.25.54.74.74.73.36-.02.12-.85.04-1.03m26.5-.01c-.09-.47-.81.16-.88.29-.17.32.7.8.9.89.65.29.14-1.06-.02-1.18m-53.7 21.59c-.12.06-.26-.08-.33-.18-.11-.16-.14-.2-.38-.19-.83.01-.44.78.38.87.29.03.71-.07 1.05-.18.27-.09.79-.26.91-.23.19.05-.27.71-.32.76-.03.03-3.17 1.4-3.17 1.4-.17.01.22-.67.26-.71.19-.18.03-.34-.2-.57-.37-.37.28-1.24.5-1.51.26-.32.81-1 1.34-.63.3.21.49 1.14-.03 1.18m3.25-20.44h-.12l-.14.02c-.06 0-.22-.06-.28-.08-.23-.08-.46-.16-.61-.31-.26-.25-.27-1.24.07-1.43.28-.15.68.12.89.26.39.26.71.69 1.01 1.09.17.23.32.47.47.72l.08.14.14.22.06.14.08.14.04.12c.14.09.21-1.14.22-1.25.03-.48.11-1.01.24-1.41.3-.89.38-1.01 1.19-.61.35.17.73 1.45.19 1.57 0 0-.31-.28-.41-.38-.17-.15-.37-.34-.55-.36-.16-.03-.21.65-.22.79l-.06.53-.02.55-.04.36v.16c-.03.5-.1.97-.2 1.42-.03.12-.2.84-.31.73l-.05-.25q-.01-.07-.08-.28l-.06-.2-.08-.16-.06-.16c-.05-.15-.14-.29-.26-.49l-.14-.22c-.18-.34-.78-1.33-1-1.39m39 .05c-.04-.2.02-.91.18-1 .48-.28 1.94 1.17 2.28 1.58l.17.21c.11.15.61.83.62.82.06-.06.06-1.19.06-1.49 0-.42 0-1 .18-1.35.38-.77 1.6-2.24 2.01-.48.04.18-.02.78-.22.85-.13.05-.26-.11-.32-.2-.09-.13-.23-.3-.38-.38-.33-.17-.68.06-.76.4q-.04.17-.04 1.01v.24s-.04.28-.04.28v.22s0 .12 0 .12c-.02.34-.07.87-.08 1.01-.02.24-.17 1.69-.48 1.58-.01 0-.14-.39-.17-.49-.07-.19-.21-.41-.32-.58-.24-.35-.47-.7-.73-1.02-.33-.41-.45-.45-.94-.54-.46-.09-.81-.45-1.04-.79m-11.16 2.69s.64-.41.85-.54c.33-.22.69-.44 1.04-.63.18-.1.35-.21.52-.32.04-.03.33-.19.48-.28l.28-.16.14-.08.14-.08.26-.16.26-.16c.38-.21.84-.48 1.14-.63.14-.08.68-.41.7-.42q.15-.08.26-.14l.16-.08.26-.16.16-.08c.15-.09.32-.18.46-.28.32-.22.7-.46 1.03-.62.24-.11.07.62.02.71-.07.13-.61.49-.97.73-.12.08-.35.21-.54.32s-.47.27-.61.37t-.21.11l-.26.16c-.17.1-.62.36-.62.36q-.06.04-.3.16l-.28.16c-.21.13-.41.26-.62.4-.25.17-.71.41-1.05.6-.1.05-.76.46-1.11.67-.26.16-.26.16-.26.16-.05.03-.18.12-.22.14-.24.12-.44.25-.65.39s-.45.3-.6.25c-.06-.02.03-.8.16-.87m-4.47-1.89c.04-.12-.05-.2-.13-.28-.1-.1-.21-.21-.25-.27-.11-.17-.27-.42-.3-.59-.1-.66.4-1.56.8-1.82.49-.33.82-.2.95.35.04.16.09.37.08.52-.04.49-.1 1.45-.09 1.5 0 .02.24.21.29.25.1.07.32.23.35.26.3.29.31.67.16 1.1-.02.05-.61-.34-.65-.37-.2-.13-.49-.32-.56-.34-.12-.02-.35.22-.53.41-.15.17-.43.46-.46.49l-.29.29s-.04.05-.19.19c-.16.15-.34.3-.51.44-.34.27-2.3 1.39-2.8 1.42-.15 0 .13-.35.13-.35.07-.09.2-.19.3-.26l.13-.07.12-.08c.13-.08.35-.22.39-.25.29-.21 1.07-.8 1.07-.8.73-.59 1.84-1.5 1.98-1.73m26.76.26c.05-.14-.33-.41-.48-.52-.19-.14-.4-.33-.48-.59-.12-.45.09-1.29.34-1.66.4-.6.61-.77 1.29-.41.33.18.37 1.87.37 2.23 0 .31.12.41.36.59.17.13.6.77.23 1.06-.07.06-.35-.12-.51-.22-.2-.13-.44-.29-.62-.24-.03 0-.36.42-.49.58-.15.19-.4.38-.6.54-.43.34-1.21.97-1.39 1.15-1.1 1.07-2.97 1.79-4.58 2.26-.42.12 1.44-1.09 1.57-1.17.66-.38 1.29-.78 1.91-1.19.5-.33 1.56-1.06 1.77-1.23l.13-.09c.14-.11.29-.24.44-.35.14-.11.74-.66.74-.75m-27.94 4.88c-.21-.4.43-1.29.69-1.47.1-.08.56.24.63.3.22.18.49.37.75.49.16.07.86-.98.86-1.13 0-.17.44.12.44.12.15.1.3.2.43.32.28.26.68.62.71.74.08.38-.52 1.43-.84 1.35 0 0-.55-.41-.69-.52-.23-.19-.54-.45-.7-.44 0 0-.34.64-.37.69-.13.31-.27.62-.6.52 0 0-.59-.41-.81-.56-.08-.06-.18-.14-.19-.15l-.31-.25zm14.25.68c-.32-.63.22-3.13.71-3.45.14-.09-.14.72-.16.79-.15.45-.26.88-.24 1.47.01.46.49 1.3.94 1.07.09-.05.15-.16.18-.28.06-.24.15-.59.24-.63.15-.07.09.57.08.63-.02.2-.1.43-.18.6-.1.23-.3.64-.54.71-.48.14-.81-.49-1.04-.91m13.54.31c-.12-.55.4-3.13.89-3.05.16.03-.31.9-.32.91-.11.21-.27.67-.22.84v.27s.05.28.05.28q.02.1.1.3c.07.18.18.43.36.48.19.05.36-.12.44-.26.05-.08.28-.49.32-.44.26.35-.44 1.45-.65 1.59-.58.37-.84-.51-.96-.91m-53.04 2.58c-.14-.21-.13-1.2.02-1.43.18-.26.54-.63.87-.96.03-.03.47-.26.66-.36l.14-.06c.13-.07.35-.19.44-.24l.16-.08.26-.14.14-.06.3-.16.18-.08c.08-.04.48-.24.48-.24.19-.1.62-.32.65-.34.27-.11.58-.28.9-.46l.14-.08.14-.08.18-.08.16-.08c.26-.13.51-.25.76-.4.91-.52 1.85-1.03 2.83-1.47.92-.41 2.44-1.09 2.9-1.37.67-.4 7.43-3.22 7.75-3.21.2.01-.03.74-.11.88-.04.09-2.17.97-2.55 1.11-1.07.4-2.12.85-3.12 1.35-.18.09-.4.17-.62.26-.1.04-.26.12-.4.2l-.16.06-.2.08c-.49.22-.99.45-1.47.67-.95.45-2.51 1.18-2.95 1.43-1.24.69-3.31 1.84-4.02 2.12s-1.44.67-2.11 1.05l-.24.14-.32.2s0 0-.26.14l-.14.06-.28.14-.12.08c-.08.05-.18.12-.23.17q-.15.13-.2.16c-.26.12.16.53.26.63.25.25.2.49.08.86-.12.34-.87-.38-.91-.43m6.62-.08c1.56-1.57 16.1-8.06 16.11-8.06.32.06-.09 1-.17 1.1-.06.07-.33.2-.47.27-.16.07-.64.3-.64.3-.39.22-.81.45-1.23.61-.38.15-.75.3-1.1.49-.35.2-.78.4-1.2.6-.22.1-.45.21-.65.32l-.32.14q-.17.07-.28.14c-.13.08-.36.18-.52.26l-.16.06-.2.08c-.09.04-.19.1-.3.16-.19.11-.43.22-.64.32-.18.08-.53.25-.58.28-.7.4-1.45.74-2.19 1.07-.78.34-1.66.75-2.35 1.23-.37.26-1.49.85-2.19 1.23 0 0-.51.31-.52.32-.18.11-.47.29-.54.3-.42.06.04-1.07.1-1.2m12.47-.97c-.11-.6.53-3.35 1.01-3.57.21-.09 0 .64-.06.83-.14.49-.27 1-.32 1.6-.05.63.35 1.92.94 2.02.19.03.32-.39.38-.57.05-.15.16-.5.2-.53.49-.28.04 1.07 0 1.2l-.06.16-.06.16-.08.24c-.03.09-.12.31-.28.53-.15.51-.95-.14-1.06-.28-.32-.39-.45-1.04-.61-1.79m-24.5 2.79c-.16-.43-.32-.88-.38-1.49-.05-.46.43-3.31.88-3.45.18-.06-.18 1.22-.2 1.29-.16.57-.25 1.2-.2 1.82.04.46.16.86.43 1.1.12.11.33.15.46.04.03-.02.08-.23.11-.31.05-.18.06-.2.23-.14.27.08-.28 1.3-.29 1.31-.21.39-.93.23-1.04-.18m17.5-2.72c.35-.41.05.82.03.88-.15.53-.2.87-.2 1.54 0 .73.71 1.69 1.03.52.22-.8.24.26.16.59-.09.36-.23.7-.48.91-.17.14-.42.05-.63-.03-.26-.09-.48-.99-.52-1.36-.07-.64.3-2.74.6-3.06m31.34 4.6c.2-.23-.78-.77-1.06-.83-.36-.07-.82-.05-1.05.17-.09.09-.53.62-.12.65l.14.06.12.04c.21.06.51.12.74.12.45 0 .89-.07 1.24-.21m-13.71.76c.19-.52-1.49-1.38-1.88-1.52-.2-.07-.37-.13-.48.02l-.08.12-.08.14c-.08.13-.17.26-.25.37-.25.34-.6.92-.56 1.45.02.34.23.52.46.65.44.27 1.53-.31 1.81-.5l.24-.16.24-.16q.12-.08.24-.16l.13-.09c.07-.06.21-.18.22-.18m-3.69 2.45-.12-.28c-.05-.11-.12-.48-.16-.69-.09-.47.19-1.81.4-2.32l.14-.34.08-.14.06-.12c.11-.26.29-.67.25-.74-.02-.04-.22-.18-.31-.24-.1-.07-.22-.16-.31-.25-.09-.08-.23-.21-.46-.42l-.14-.09c-.29-.26-1.02-.95-1.16-1.16-.13-.2-.08-1.24.02-1.63 0-.02 1.35.49 1.57.58.26.1.78.31.86.36.09.05.25.23.11.33l-.17.05c-.06.01-.43.09-.44.1-.11.16 1.27 1.28 1.55.94.07-.09.16-.22.25-.35.08-.12.21-.28.32-.42.08-.1.33-.41.33-.41q.08-.11.15-.23t.17-.23c.08-.1.21-.26.23-.3.08-.12.22-.28.32-.42.12-.16.23-.29.35-.34.12-.06.27-.13.23-.2-.02-.03-.08-.14-.06-.15.54-.36-.31 1.8-.42 1.95-.24.33-1.04 1.53-1.04 1.53-.02.06.61.56.87.77.3.24.53.55.79.9.47.64.23 2.05-.09 2.69-.21.43-1.18 1.05-1.64 1.32-1.07.61-1.31.59-2.51-.04m-26.42 1.13-.12-.07c-.09-.09-.2-.21-.27-.31-.18-.25-.3-.49-.44-.79-.57-1.21-.75-4.96-.86-7.41-.05-1.14-.12-2.55-.24-3.86l-.04-.52-.04-.4-.04-.4c-.02-.22-.06-.7-.08-.91l-.04-.28-.04-.24-.04-.24c-.05-.37-.13-1.06-.1-1.15.04-.12.61-.5.77-.45.07.02.19 1.14.21 1.28l.04.51v.22l.04.3.04.4.04.51.04.36v.3l.04.24v.42l.04.71.04.57v.34c.01.29.04.71.04.73.07.71.15 2.31.2 3.35.05 1.03.16 2.18.36 3.25.14.79.51 1.44.87 2.01.18.29.71.5 1.07.62.42.14.97.03 1.31-.08.74-.24 1.2-.76 1.55-1.39.19-.34.41-.67.7-.9.27-.21.27.2.27.39 0 .13.17.57.26.65.35.35.81.81 1.32.93.37.09.9.19 1.31.24.08 0 1.13.11 1.15.02l.44-.02.22-.03q.31-.07.46-.1l.32-.04c.19-.03.42-.07.6-.12.57-.14 1.23-.31 1.63-.5.54-.25 1.06-.53 1.55-.83.51-.31 1.3-.79 1.49-.76.1.01-.05.43-.07.49-.11.3-.09.36.02.63.24.59.98.95 1.67.81.56-.12.94-.43 1.31-.74.11-.09.24-.3.33-.45q.07-.11.16-.32s.02-.05.18-.27c.16-.24.59-.88.64-.9.26-.08.14.3.08.48-.1.29-.2.55-.18.83.02.32.44.56.68.69.26.14 1.25.34 1.39.09.09-.16-.05-.54-.13-.75-.12-.31-.23-.61-.16-.87.1-.38.2-.73.39-1 .28-.39.81 1.71.76 1.97-.09.5-.28 1.36-.57 1.62-.36.32-.65.57-.88.64-.49.15-1.03.07-1.42-.22-.13-.1-.36-.27-.42-.32-.19-.17-.37-.33-.48-.32l-.07.13-.15.23c-.08.1-.18.21-.27.3-.15.17-.36.34-.58.44-.79.36-1.32.55-2.23.1-.25-.12-.45-.34-.6-.57-.09-.14-.13-.24-.18-.41-.05-.15-.13-.44-.23-.46-.04 0-.39.23-.51.3-.2.14-.42.25-.66.36l-.3.16c-.11.06-.26.14-.38.2-.18.09-.22.11-.34.16l-.16.06-.12.04-.16.06c-.89.38-2.64.93-3.6.82h-1.13c-.33-.03-.87-.11-1.19-.24-.56-.22-1.03-.46-1.4-.87-.1-.11-.19-.21-.24-.32-.07-.14-.19-.4-.33-.35-.02 0-.19.31-.23.37-.09.18-.21.34-.32.5-.96 1.32-2.57 1.27-3.99.35m51.21.3c.29-.12.63-.14 1 .06l.12.08c.13.07.29.15.42.18.41.07.79-.27.99-.47.07-.08.15-.17.21-.26.1-.18.23-.43.34-.44 0 0 .02.28.02.34 0 .05.08.19.13.23.12.12.61.2.73.11.06-.05.15-.36.26-.71.06-.22.17-.43.31-.57.32-.32-.03 1.07-.07 1.2-.18.49-.36.77-.76 1.03-.15.1-.35.07-.54.02q-.18-.04-.34-.14c-.1-.06-.14-.08-.22-.06q-.06.02-.25.17l-.22.18c-.2.15-.51.24-.79.29-.28.04-.84-.34-.96-.47-.22-.24-2.02.91-2.47 1.25-.58.43-2.06 1.42-2.95 1.25-.21-.04.35-.3.43-.33.02 0 .54-.31.78-.46.46-.28.9-.57 1.32-.88.81-.6 1.59-1.18 2.52-1.6m-47.4 2.8c.1-.41.37-1.05.71-1.26.14-.09.86.49 1.02.61.58.49.71.6.25 1.3-.34.51-.46.69-1.17.12-.12-.08-.25-.18-.33-.25-.13-.11-.48-.41-.47-.53m31.96 1.34c-.87-.39-1.75-1.33-1.9-2.41-.08-.55-.08-1-.08-1.46 0-.21 0-.27.04-.55 0-.08.05-.43.04-.54-.03-.2-1.53.89-1.61.94q-.09.05-.36.24-.18.11-.26.16c-.14.09-.29.19-.38.24-.08.04-.25.16-.38.24-.95.63-2.14 1.27-3.22 1.7-.48.19-6.33 1.5-6.55 1.39-.23-.11.6-.47.6-.47.2-.09.41-.18.64-.26.56-.2 1.17-.44 1.75-.67 1.09-.43 2.08-.89 3.07-1.41 1.95-1.04 3.85-2.11 5.63-3.29.63-.42 1.48-.99 1.96-1.43.28-.25.56-.52.84-.75.13-.11.77-.74.7-.9-.14-.35-.46-1-.72-1.5-.1-.2-.24-.44-.38-.67-.15-.26-.31-.53-.44-.79-.11-.23-.25-.5-.3-.67-.1-.35-.23-.71-.38-1.03-.32-.71-.21-1.15 0-2.01.06-.23.31.15.31.15.08.12.17.23.27.33.2.19.57.53.59.55.17.12 1 .93 1 1.13 0 .18-.08.16-.18.14-.18-.04-.58-.14-.68-.08-.07.05.36.83.36.83l.25.45.15.27c.38.57.73 1.22.82 2.02.07.6-.01 1.75-.3 2.36-.22.48-.74 1.01-1.14 1.34-.67.57-.76.64-1.19 1.49-.15.31 0 1.25.12 1.66.08.27.22.53.42.77l.19.23.08.12.22.18c.17.24.99.53 1.38.58.58.08 1.48 0 1.99-.2.82-.33 1.94-.78 2.33-1.17l.34-.24c.12-.07.13-.08.23-.17.08-.06.18-.15.19-.15.11-.08.22-.16.33-.24.37-.3.95-.77 1.14-.96.66-.67 1.83-1.86 1.92-2.25.03-.14-.14-.38-.23-.45-.07-.05-.39.05-.5.09-.17.06-.36.11-.56.14-.67.11-1.36.22-1.79.2-.49-.03-.96-.32-1.3-.54-.5-.32-.53-2.06-.15-2.57l.06-.16.08-.16.16-.22c.13-.18.29-.35.59-.62q.11-.09.21-.15.14-.09.4-.18l.36-.06c-.2-.07.35.04.44.06q.13.03.32.1c.26.1.46.22.67.36.28.2.56.46.78.73.09.11.21.28.32.42.13.18.35.48.43.48.39.03 1.73-.97 2.14-1.3.27-.21.82-.64.96-.69.25-.09.39-.03.42.26v.47q-.04.53 0 .59c.76 1.29 2.01 1.77 3.45.95.56-.32.87-.71 1.19-1.27.3-.52.9-1.54 1.13-1.49.12.03-.12.6-.13.64-.16.36-.27.62-.24.87.01.1.8.59 1.19.83.76.47 1.99.12 1.35-.8-.35-.51-.29-1.3.07-1.92.16-.27.56.68.59.77.15.39.29.8.32 1.31.07 1.22-.43 1.75-1.01 2.36-.21.22-1.18.15-1.47.08-.36-.09-.73-.29-.99-.5-.15-.12-.25-.23-.37-.38-.12-.14-.32-.39-.35-.38-.08 0-.21.23-.28.36-.08.13-.15.26-.24.38-.19.25-.45.46-.71.64-.77.54-2.14.82-3.03.23-.29-.19-.53-.39-.72-.67-.13-.19-.22-.38-.3-.63q-.05-.17-.08-.32c-.02-.09-.08-.47-.1-.44l-.26.12c-.13.09-.25.17-.44.36l-.13.09s-.2.16-.3.24c-.14.11-.35.26-.52.38-.2.14-.61.43-.64.55-.05.25-.06.38-.08.75-.01.27-.04.74-.12.95-.16.44-.38.79-.62 1.14-.12.17-.58.71-.92 1.09-.12.12-.24.25-.35.38-.8.93-1.97 1.81-3.04 2.47-.7.43-1.45.81-2.37 1.01-.86.19-1.9.31-2.7-.14m-25.49.48c.02-.07 5.52-2.92 5.77-3.01.33-.12.8-.1 1.04-.04.14.03.3.13.46.22.11.06.31.18.38.18.42.02.75-.16.97-.4.07-.08.16-.23.21-.33s.25-.5.31-.45c.07.05.03.24 0 .33-.04.19-.05.26.03.39.11.16.39.2.62.18.05 0 .15-.32.19-.45.04-.14.22-.6.29-.65.67-.44-.34 1.71-.57 1.92-.15.14-.22.2-.49.17-.12-.02-.27-.09-.36-.14-.1-.05-.18-.1-.24-.1-.08 0-.34.18-.51.3-.13.09-.22.15-.41.21-.17.05-.68-.18-1.08-.36-.35-.16-.75-.13-1.15-.04-.64.14-1.19.43-1.67.73-.53.33-3.18 1.71-3.78 1.33" fill="#1d1d1b" fill-rule="evenodd"/></svg>