<svg viewBox="0 0 75.14 27.65" xmlns="http://www.w3.org/2000/svg"><path d="m12.17 25.23c.14.07 0 .47-.08.67-.07.17-.65.4-.98.53-.4.15-.95.37-1.23.49l-.61.27-.17.04-.17.06c-.13.05-.95.41-.98.37-.57-.84 3.95-2.38 4.21-2.42m-11.07 1.32c-.87-.42-1.11-2.4-1.11-3.32 0-.86.36-1.91.64-2.69.14-.4.41-.82.67-1.13.26-.32.72-.9.68-1.15l-.09-.14q-.14-.17-.15-.19c-.08-.13-.18-.29-.22-.39-.06-.14-.14-.36-.21-.57l-.08-.29c-.39-.97.76-7.29 1.33-6.33.08.13-.29 1.67-.39 2.02-.1.33-.16.71-.21 1.06l-.04.33-.04.49-.04.33-.04.39v.37c-.28.46.7 1.73 1.02 1.78.43.07.67-.87.74-1.23.07-.32.27.07.28.11.06.23.02.48-.04.81-.06.36-.15.61-.26.9-.11.26-.31.49-.52.66-.11.09-.15.12-.3.17-.15.06-.24.12-.33.24-.17.26-.48.73-.51.77-.05.06-.16.22-.23.33q-.04.06-.16.31c-.04.08-.11.2-.16.27-.42.57-.64 1.62-.8 2.38-.11.53-.08 1.32.14 1.83.14.31.42.53.74.67.48.22 1.19.11 1.64 0 .92-.23 2.07-1.14 2.97-1.87.85-.68 1.76-1.36 2.69-1.94.52-.32 1.11-.68 1.64-.9.63-.26 1.01-.68 1.44-1.19.19-.22.39-.42.61-.62.17-.15.37-.4.52-.58.08-.09.26-.31.26-.31l.32-.22c.2-.2.6-.6.62-.79.15-1.12.08-2.27 0-3.42-.04-.53-.32-2.13-.49-3.05-.17-.95-.33-1.86-.49-2.81l-.25-1.43c-.08-.45-.23-1.39-.24-1.51l-.04-.29-.04-.41-.04-.33-.04-.24-.04-.24-.04-.25c-.04-.34-.07-.56-.16-.81-.06-.17-.12-.36-.04-.53l.04-.16.04-.16c.03-.14.07-.27.1-.37.07-.2.21-.59.34-.67.15-.09.26.36.29.5.04.18.18.43.31.65.11.19.2.36.29.57.11.25.23.52.35.73.23.42.45.84.57 1.34.09.38-.15.45-.4.17-.15-.17-.39-.43-.54-.4-.04.01.1.98.12 1.13.06.43.12.86.2 1.26q.04.21.08.45c.03.21.07.42.12.61q.04.16.08.41c.04.22.08.45.12.65.32 1.43.82 3.79.73 4.83l.04.53v.37l-.04.22-.04.37q-.08.76-.08.77c-.02.19-.08.65-.07.67.03.11.47-.3.49-.31.14-.12.41-.37.43-.38.17-.12.3-.23.45-.37 0 0 .45-.33.58-.43.12-.09.77-.45 1.13-.64.16-.08.35-.18.53-.22l.41-.08c.22-.04 1.37-.21 1.04-.08l.22.04.17.04.16.04c.26.06.47.12.7.2.34.13.65.35.91.56.39.31 1.24 1.04.99 1.74-.25.69-.65 1.79-.93 2.01-.29.23-.58.47-.89.64-.2.11-.39.21-.61.31l-.14.06-.18.06c-.08.03-.18.07-.24.12 0 0-.81.28-1.07.37l-.24.08c-.19.06-.36.1-.53.16-.14.05-.3.09-.45.12l-.2.04-.21.04-.33.08-.12.04-.16.04q-.21.04-.37.08l-.37.08q-.26.03-.37.08c-.34.14-.81.22-1.19.29-.47.08-.97.2-1.47.32-.42.11-.83.21-1.23.33 0 0-.42.15-.57.2-.08.03-.29.1-.37.16l-.16.06c-.37.11-1.29.72-1.86 1.1-.27.18-.56.38-.81.58-.26.21-.51.38-.8.57-.12.07-.5.4-.72.58-.26.22-.52.44-.8.64-.51.36-1.76 1.19-1.8 1.2-1.08.39-1.81.42-2.76-.1m49.39-3.14c-.11-.53-.11-.9-.08-1.42.02-.31.07-1.27-.04-1.29-.03 0-1.08.69-1.25.81-.42.31-.86.63-1.32.89-.98.55-2.32 1.31-2.99 1.63-.98.46-2.23.77-3.48 1.08-.88.22-3.9.81-3.97.79-.28-.06.45-.47.45-.47.26-.13.55-.24.82-.33.33-.1.6-.21.9-.35.21-.09.46-.2.65-.26 1.03-.34 1.99-.79 2.86-1.28 1.05-.6 2.61-1.48 3.19-1.79 1.04-.56 2.38-1.28 3.05-1.87.26-.23.61-.47.9-.65s.69-.49.99-.74c.52-.42 1.63-1.34 1.75-1.82.02-.07-.24-.67-.31-.82q-.09-.2-.18-.3c-.1-.12-.16-.24-.23-.39-.11-.23-.23-.42-.37-.61-.08-.12-.24-.41-.33-.59-.24-.46-1.21-2.66-1.17-2.83l.04-.24.06-.33.02-.2c.02-.11.12-.62.23-.59.12.04 2.1 2.01 2.15 2.22.05.22-.12.18-.22.14-.16-.05-.49-.13-.61-.05-.14.1.68 1.43.77 1.58.29.47.74 1.21.8 1.79.08.73.03 1.43-.08 2.2-.08.53-.66 1.16-1.05 1.58-.22.23-.48.46-.73.66-.11.09-.21.16-.33.24-.03.02-.16.12-.19.16l-.12.24c-.67.44.13 2.68.44 3.05.35.41.67.64 1.18.9.88.47 2.86.14 3.68-.35 1.52-.9 2.79-1.82 4.04-2.96.38-.34 1.59-1.57 1.64-1.89.05-.25-.02-.66-.33-.65-.08 0-.22.06-.37.12-.14.06-.32.09-.49.12-.79.13-1.42.17-2.05.2-.22.01-.9-.33-1.24-.5-.68-.34-.44-2.03-.19-2.66.3-.76.98-1.5 1.9-1.61.49-.06 1.07.25 1.37.47.51.37.88.82 1.28 1.32.28.34.38.46.8.27.35-.16.67-.37.97-.58.22-.15.45-.32.66-.49.25-.21.51-.41.78-.61.2-.15.54-.4.74-.13.08.11.07.38.06.47-.03.36-.07.87.1 1.08.31.37.57.69.98.88 1.34.59 2.85-.16 3.48-1.18 0 0 .33-.61.47-.85.07-.14.15-.28.2-.41.08-.16.13-.27.23-.4.2-.24.56-.48.42.11-.04.16-.12.32-.18.45-.1.2-.18.37-.23.61-.14.81 2.14 1.31 2.84.97.17-.08-.05-.56-.11-.69l-.17-.24c-.1-.13-.21-.28-.22-.39-.01-.26.28-1.43.47-1.46.45-.09 1.04 2.39.8 2.87l-.06.29-.02.16s-.1.3-.1.3c-.08.18-.25.55-.4.64l-.19.2c-.11.08-.13.09-.26.14l-.25.08-.33.06s-.63-.03-.86-.1c-.31-.09-.57-.2-.82-.35-.21-.12-.39-.29-.55-.46-.15-.17-.41-.46-.49-.45l-.07.13s-.01.02-.17.29c-.07.12-.16.25-.25.36s-.2.23-.37.41l-.25.18c-.32.32-1.02.49-1.56.62-.43.1-1.12-.08-1.52-.26-.34-.16-.63-.45-.84-.76-.1-.15-.21-.32-.27-.51l-.08-.29-.04-.16-.06-.45c-.06-.12-.65.36-.67.38-.18.17-.37.33-.58.48-.36.26-1.09.79-1.15.98-.01.05-.03.39-.04.53q-.02.3-.08.75c-.04.27-.1.57-.23.82-.22.41-.47.77-.74 1.14q-.09.12-.19.23c-.07.07-.32.37-.52.6q-.16.14-.2.22c-.03.07-1.38 1.28-1.57 1.42-.53.39-1.41 1.04-1.69 1.27-.61.51-1.61.86-2.5 1.06-.68.15-1.4.22-2.05.04-.6-.17-1.12-.35-1.49-.74-.46-.5-.99-1.07-1.11-1.89m-41.99 1.74s.33-.14.43-.19l.17-.08.29-.14c.28-.13.65-.3.86-.37.33-.11.65-.24.96-.39.29-.14.91-.42 1.1-.38.1.02-.08.51-.12.62-.07.2-.34.32-.63.45-.39.17-1.18.51-1.31.55-.24.08-.49.16-.69.24l-.14.06-.14.08c-.16.07-.29.12-.45.18-.78.27-.9-.16-.31-.65m7.9-.72c.66-.29 1.41-.61 1.98-.9.63-.31 1.3-.58 1.97-.84.08-.03 1.32-.56 2.02-.87 1.18-.51 1.07.3.42.71-.73.45-6.51 2.9-6.67 2.85-.13-.04.04-.89.28-.95m52.23-3.03c.37.07.62.12.8.22.36.22.58.23.98.04.21-.1.44-.26.57-.43 0 0 .18-.32.23-.42.07-.14.15-.28.29-.24l-.02.37.07.19c.18.17.49.2.77.17.13-.01.22-.39.27-.61.06-.27.18-.62.36-.72.55-.33-.22 1.53-.22 1.53-.16.37-.36.68-.77.79-.21.06-.44 0-.66-.1-.25-.12-.37-.17-.57 0-.31.28-.6.4-1.05.54-.11.04-.45-.13-.55-.18-.26-.13-.46-.24-.65-.26-.31-.03-1.08.43-1.41.63-.13.08-.44.3-.7.49l-.18.09-.08.13-.14.07c-.68.4-2.31 1.34-2.84 1.17-.21-.07.46-.33.46-.33.08-.03.55-.33.76-.47.2-.13 1.01-.67 1.48-.99 1.07-.71 2.45-1.62 2.79-1.68m-42.49 1.13-.23-.32c-.11-.15-.2-.31-.29-.49-.2-.39-.39-.8-.55-1.24-.32-.85-.45-2.45-.51-3.34-.09-1.26-.13-2.03-.18-3.22-.04-.98-.09-2.04-.16-3.03-.13-1.93-.34-3.9-.61-5.92-.06-.45-.24-1.23-.37-1.83-.11-.49-.34-1.52-.25-1.71 0 0 .14-.38.21-.57.05-.15.25-.67.39-.67.58-.02 1.24 6.55 1.29 7.06.17 1.73.33 3.91.33 5.5 0 1.73.14 3.75.49 5.5.16.78.39 1.84.8 2.34.32.39.76.92 1.1 1.04.67.23 1.64.55 1.96.59 1.02.12 1.78.06 2.74-.04 2.67-.28 4.93-1.23 6.76-2.37.43-.27-.19-.85-.38-.93-.42-.19-1.25-.13-1.92-.08-.88.06-1.62-.15-2.13-.85-.16-.22-.23-1.41-.06-1.61l.04-.16.06-.18.16-.39c.12-.23.31-.44.48-.62.3-.31.54-.54.99-.7.32-.12.79-.1 1.09.06.28.15.62.33.71.42.09.08.16.15.24.25.07.08.19.2.27.26 1.12.77 1.73 4.37.8 5.69-.71 1.01-4.28 2.22-5.81 2.61-1 .25-2.48.41-3.4.41-.73 0-1.83-.21-2.5-.45-.27-.1-.56-.25-.83-.4-.12-.07-.24-.15-.35-.24l-.39-.35zm16.76-2.22c-.25-.25-.38-.91-.36-1.34.04-.63.1-1.44.31-1.99.09-.24.18-.47.29-.69.12-.25.34-.74.35-.77.02-.08-1.1-.99-1.26-1.11-.12-.1-1.26-1.23-1.27-1.29-.12-.43-.03-1.37.09-1.64.04-.1.28.09.29.1q.11.09.21.13c.15.07.43.16.65.24.34.12 1.37.51 1.44.65.08.13-.01.21-.09.25l-.12.04s-.43.1-.42.15c.05.25 1.1.91 1.4.99.04.01.57-.65.74-.86l.25-.34q.09-.11.16-.21l.17-.24c.18-.25.4-.56.58-.77.11-.13.24-.29.32-.39.12-.17.31-.43.37-.45.47-.13-.47 2-.49 2.04-.18.28-.37.57-.58.83-.19.23-.42.54-.5.82-.03.08.43.36.57.45.21.13.47.3.65.47.34.34.69.83.79 1.4.08.49-.13 1.7-.35 2.02-.56.8-1.77 1.67-2.87 1.91-.32.07-.41.07-.65 0-.07-.02-.24-.08-.29-.1l-.15-.07-.21-.22zm-20.99-3.32c.47-.38-1.67-1.49-1.94-1.58-.17-.05-.43-.09-.65-.12q-.31-.04-.61 0c-.11.02-.37.05-.41.04-.34-.08-1.71.69-1.88.83-1.03.84-3.68 3.09-3.81 3.58 0 .04 1.35-.26 1.35-.26l.2-.04q.3-.07.37-.08c.23-.05.74-.16.74-.16.8-.2 1.64-.41 2.45-.57 1.08-.22 2.76-.98 4.19-1.64m7.86.11c.01-.52.51-2.82.88-2.81.04 0-.1.56-.1.57l-.04.16q-.06.19-.08.33c-.09.46-.23 1.15-.2 1.4.05.51.19.96.48 1.27.19.21.45.19.56-.07.08-.17.25-.6.26-.6.23-.04.05.86 0 1.01-.08.26-.33.77-.53.89-.14.08-.3.01-.41-.04l-.14-.09q-.16-.13-.18-.14c-.3-.09-.57-1.52-.5-1.89m16.8.51c.21-.54-1.78-1.53-2.21-1.63-.24-.05-1.06 1.58-1.17 1.89-.11.32.06.68.17.87.53.89 3.21-.92 3.21-1.13m-39.91-1.81.04-.35.06-.33.02-.16c.04-.27.1-.51.17-.77.07-.27.32-1.15.54-1.17.09 0-.14.76-.17.88-.06.23-.32 1.27-.18 1.34l.02.29.04.16.08.24c.08.22.19.39.34.54.14.14.37.22.5.01.03-.05.07-.18.1-.3 0-.01.07-.27.1-.28.61-.4-.27 1.65-.27 1.65-.08.18-.39.18-.55.1-.53-.28-.69-1.09-.84-1.85m31.23 1.21c.26-.35-1.05-1-1.5-.97-.42.03-1.04.62-.57.92.43.28 1.55.24 2.07.05m22.92-.24c.03-.21-.83-.69-1.05-.77-.66-.22-1.34.14-1.45.63-.06.26.82.39 1.02.39.15 0 1.45-.03 1.48-.25m-33.51-4.98c-.32-.2.19-1.9.33-2.12.21-.35.64-.74 1.04-1.11.51-.48 1.92-1.2 2.75-1.62.51-.25 1.34-.67 1.6-.81.43-.24 1.14-.6 1.7-.88 1.68-.84 6.43-2.99 6.58-3.01.61-.11-.17 1.16-.39 1.28-.1.06-.47.22-.68.31-.3.13-.77.33-.94.41-.52.24-1.61.75-1.76.84-.55.31-1.15.6-1.74.85-.63.28-1.2.56-1.8.86-1.42.7-6.2 3.09-6.07 3.98 0 .06.44.32.58.41.22.14.34.26.47.49.12.22-.07.99-.17 1.17-.08.15-1.49-.77-1.5-1.05m7.9-.51c-.14-.38.52-1.55.94-1.36.43.19 1.2.66 1.41 1.06.16.29-.66 1.39-1 1.26-.09-.04-1.34-.92-1.35-.96m-24.27-4.01c.26-.03.07.53.02.69-.05.17-.35 1.38-.24 1.38l.04.33c.03.17.07.27.12.41.09.21.18.36.35.49.22.17.45-.38.56-.64.1-.23.24.13.24.13.01.24-.06.54-.12.76-.09.3-.2.55-.35.77-.11.16-.39.21-.56.08-.32-.25-.46-.52-.62-.93-.38-.94.26-2.66.57-3.46m59.86 3.64c-.15-.56-.3-1.14-.14-1.73.17-.66.38-1.46.77-1.9.29-.34-.07.68-.07.68-.18.39-.31.71-.37 1.24-.04.39.26.87.47 1.2.11.17.54-.3.61-.41.04-.12.12-.37.18-.34.45.31-.49 1.57-.65 1.68-.18.13-.45-.02-.63-.18l-.16-.24zm-13.97-.51c-.12-.3-.35-1.46-.16-1.59l.04-.2q.06-.3.08-.41c.04-.16.11-.35.16-.53.11-.32.3-.73.46-1.07.16-.35-.11.79-.11.79-.1.26-.33 1.14-.27 1.35.14.41.54 1.62 1 1.3.1-.07.14-.19.18-.32.06-.2.17-.59.18-.61.14-.18.16.51.14.57-.04.19-.08.37-.12.53-.1.34-.28.61-.48.85-.31.35-.98-.47-1.12-.64m-14.79-.98c0-.35.56-1.41.84-1.4.05 0 .45.26.63.39.24.16.65.43.8.47.08.02.35-.51.41-.63.09-.18.24-.46.41-.53.3-.12 1.63.9 1.64 1.27 0 .12-.4.8-.67 1.24-.1.17-.65-.26-.78-.37-.19-.15-.75-.57-.81-.57-.09 0-.4.61-.45.75-.13.33-.26.68-.67.48-.48-.23-1.05-.68-1.36-1.09m28.73-5.03c.03-.06-.41-.44-.56-.58-.17-.15-.47-.46-.48-.75-.05-.98.71-2.82 1.69-1.99.16.14.27.48.32.73.03.18.04.23.08.94.01.19.06.93.07.94.18.06.58.51.63.73.04.18.02.72-.16.72-.03 0-.34-.21-.5-.31-.19-.13-.39-.26-.57-.2-.06.02-.2.21-.27.3-.11.15-.21.27-.34.4-.23.23-.47.45-.74.65-.22.17-.49.39-.71.58-.29.26-.6.49-.93.7-.95.63-3.27 2.08-4.28 2.08-.34 0 .69-.67.69-.67.19-.1.86-.47.86-.47.29-.16 1.26-.8 1.88-1.22.8-.53 3.25-2.25 3.31-2.58m-51.5-4.14c.31-.13-.07 1.57-.13 1.85-.18.79-.41 1.83-.41 2.34 0 .94.09 1.69.57 2.23.21.24.55.31.72-.01.08-.15.14-.3.18-.49s.07-.33.16-.46c.16-.26.26.5.25.52-.02.23-.14.71-.2.96-.12.49-.43 1.04-.94 1.12-1.42.24-1.42-3.46-1.23-4.42.18-.88.86-3.49 1.03-3.64m24.03 3.8s-.17-.15-.24-.21c-.06-.05-.08-.07-.17-.22-.14-.21-.26-.42-.31-.69-.16-.81.97-2.62 1.74-1.67.11.14.19.67.19.86l-.08.83c-.01.13-.09.83.09.74 0 0 .58.46.64.51l.16.2c.14.07-.01.82-.12.88-.04.02-.16-.07-.23-.13-.1-.08-.23-.18-.34-.25-.23-.14-.53-.34-.72-.39-.09-.02-1 1.01-1.11 1.15-.33.42-.9.8-1.36 1.11-.3.2-2.63 1.39-2.79 1.29s1.09-.92 1.16-.97c.2-.14.4-.27.58-.41.2-.16.47-.37.64-.48.41-.26 2.54-1.76 2.27-2.16m4.64 2.06c1.35-.78 2.82-1.63 4.08-2.51.53-.37 4.16-2.45 4.25-2.45.25-.01 0 .67-.04.78-.05.14-.26.26-.43.37-.18.11-.37.23-.52.34l-.23.15-.29.16q-.08.05-.29.16c-.07.04-.28.16-.41.24l-.14.08-.23.14-.16.07q-.11.08-.19.11s-.26.17-.39.24c-.05.03-.77.46-1.17.69-.41.24-1.02.61-1.25.73l-.27.16-.26.16-.27.16-.14.09q-.06.05-.19.11c-.39.18-.82.48-1.16.73-.08.06-.4.29-.46.22-.1-.11-.03-.86.15-.96m11.46-2.76c-.17-.23 0-.86.11-1.05.29-.52 1.83.9 1.91.98.08.07.2.22.29.33l.35.45c.11.13.23.28.32.43.08.15.27.5.38.43.05-.03.05-.93.05-1.07 0-.64 0-1.29.08-1.61.11-.45.36-.91.64-1.21.99-1.06 1.65.34 1.34 1.38-.02.06-.48-.34-.48-.34-.16-.14-.41-.36-.59-.33-.27.04-.41.23-.49.47-.06.17-.06 1.1-.06 1.57 0 .31-.01.82-.04 1.2-.03.42-.15 1.92-.54 1.81-.02 0-.1-.28-.12-.34-.02-.09-.05-.14-.1-.27-.07-.16-.22-.37-.34-.56-.23-.34-.5-.75-.73-1-.3-.32-.42-.45-.83-.48-.43-.02-.94-.46-1.14-.79m11.7-1.4c-.29-.19-.82-.02-.89.38-.07.35.94.96 1.14.91.26-.06-.17-1.1-.25-1.29m-27.98.5c.03.24.58.84.8.73.24-.12.07-1.02-.14-1.14-.21-.11-.68.11-.65.41m-14.89-.37c-.11-.42-.02-.84.13-1.25h.14s.02.02.14-.04c.06-.03.55.24.6.27.32.21.63.5.87.8.23.28.44.56.6.91.09.2.52 1 .61 1.06 0 0 .17-1.23.18-1.41.02-.41.06-.97.16-1.28.16-.47.3-.89.68-1.12.23-.14.65.44.74.57.28.43.15.97.04 1.4-.02.1-.46-.4-.46-.4-.15-.17-.36-.41-.56-.43-.11-.01-.25 1.37-.27 1.54v.18l-.04.51c0 .06-.06.45-.09.59-.06.29-.32 1.57-.57 1.48-.01 0-.22-.58-.25-.66-.05-.14-.2-.44-.31-.65-.22-.44-.46-.81-.75-1.17-.1-.12-.21-.26-.33-.37-.1-.09-.17-.12-.27-.08-.15.06-.25.1-.38.05 0 0-.62-.41-.63-.51m-25.73 4.45c.05-.06.13-.13.23-.22.43-.4 2.05-1.89 1.79-2.4l-.16-.09q-.27-.13-.33-.16c-.2-.12-.28-.22-.41-.41-.18-.26-.04-.85.04-1.18.17-.73 1.89.83 2.01.97q.14.16.17.18s.02.02.2.22l.21.2s0 0 .16.2c.11.13.26.32.32.42.13.2.4.62.47.63.09.01.09-1.12.09-1.32 0-.42.02-.84.08-1.26.05-.37.42-1.39.72-1.47.18-.05.5-.13.63.04.39.49.68.96.28 1.64-.03.05-.27-.12-.32-.16l-.37-.42c-.59-.45-.61.46-.61.9 0 .82-.05 1.86-.2 2.73-.04.23-.21 1.16-.4 1.07l-.15-.34q-.12-.29-.16-.37c-.11-.2-.25-.46-.33-.59-.16-.25-.48-.61-.75-.89-.15-.16-.68-.73-.78-.35-.13.47-.31 1.08-.39 1.22-.41.71-.9 1.12-1.55 1.6-.32.24-1.82 1.17-2.07 1.06-.07-.03.38-.43.42-.47.18-.16.38-.33.57-.49l.61-.49z" fill="#1d1d1b" fill-rule="evenodd"/></svg>