<svg viewBox="0 0 61.1 25.43" xmlns="http://www.w3.org/2000/svg"><path d="m38.12 24.97c-.44-.33-1.01-.74-1.23-1.24-.52-1.2-.59-2.39-.39-3.64.03-.18-1.53.84-1.55.86-.12.09-.24.17-.37.24-.26.16-.51.32-.76.49-.9.59-1.9 1.15-2.9 1.61-.97.44-2.14.79-3.36 1.06l-1.06.2-.12.04c-.14.04-.22.05-.41.08-.21.03-.39.08-.57.12-.56.14-1.79.45-2.02.33-.18-.09 1.93-.99 2.06-1.05.32-.13.65-.26.98-.39.44-.16 1.08-.4 1.31-.53l.14-.06.35-.16q.15-.08.21-.1c.12-.05.17-.08.29-.14.15-.09.33-.19.49-.26.22-.1.41-.2.61-.3.38-.2.81-.43 1.11-.61.35-.21.77-.44 1.17-.65 1.42-.76 6.86-4.16 6.83-5.37 0-.1-.52-1.07-.76-1.51l-.82-1.41c-.45-.84-1.38-2.75-.71-3.82.07-.11.44.28.52.37.21.22.44.47.59.59.35.28 1.01.85 1.13 1.25.05.16-.1.15-.18.14-.28-.03-.67-.07-.67-.07-.2.02.29.76.3.77.04.06.16.28.29.51q.11.18.16.27c.3.48.7 1.14.8 1.65.23 1.2.07 2.43-.48 3.25-.23.34-.55.67-.84.96 0 0-.44.37-.55.47-.26.22-.49.41-.61.66-.16.35-.26 1.2-.14 1.55.23.69.39 1.17.59 1.45 1.15 1.59 3.17 1.24 4.95.55.6-.23 2.25-1.52 3.39-2.41.51-.4 1.93-1.79 2.18-2.37.1-.23 0-.42-.11-.64-.02-.03-.72.12-.87.16-.57.12-1.18.21-1.72.24-.74.05-1.27-.27-1.79-.58-.55-.33-.43-1.93-.18-2.5.33-.76.93-1.59 1.88-1.69.48-.05 1.11.22 1.39.43.44.32.77.67 1.11 1.09.43.54.6.75 1.22.42.49-.26.92-.58 1.34-.91.41-.32.96-.76 1.32-.9.34-.13.36.41.35.59-.04.44-.06.8.1 1.06.93 1.43 3.04 1.43 4.15.15.02-.03.32-.49.52-.8.08-.13.2-.35.29-.51l.08-.18.08-.16q.08-.16.16-.29c.13-.2.73-.85.51 0-.03.11-.17.41-.26.59-.11.21-.19.42-.08.63.18.35.88.72 1.31.84.51.14 1.03.09 1.51-.06.11-.03-.09-.53-.12-.59-.04-.08-.11-.2-.17-.27-.07-.1-.24-.35-.24-.35-.1-.2.27-1.5.45-1.57.54-.23.88 2.62.78 2.98l-.02.16c-.03.16-.09.31-.14.45-.07.18-.15.32-.24.47l-.09.13q-.14.16-.14.18c-.18.6-1.92.22-2.22.13-.31-.09-.55-.29-.77-.48-.04-.04-.16-.18-.26-.31-.13-.16-.29-.35-.41-.35 0 0-.15.27-.15.28-.07.14-.16.3-.25.42-.17.22-.36.42-.58.59-.39.32-.93.57-1.54.66-.39.06-1.2.07-1.51-.16-.49-.36-.89-.66-1.06-.92-.24-.34-.3-.78-.37-1.3-.02-.18-.68.37-.69.37-.13.15-.33.3-.53.45q-.14.1-.21.15c-.1.07-.21.15-.32.23-.19.15-.63.5-.65.54-.01.02-.04.4-.04.51 0 .07-.07.73-.08.83-.03.33-.07.55-.2.77-.28.47-.6 1-.81 1.25-.08.1-.3.35-.46.51-.15.16-.43.48-.45.51-.23.43-2.7 2.4-3.24 2.66-.14.07-.38.21-.55.32-.14.09-.31.2-.45.27 0 0-.75.26-1.07.37-1.25.41-2.36.26-3.44-.22m-37.06-1.24-.23-.34c-.08-.14-.16-.3-.22-.45-.17-.38-.33-.77-.41-1.22-.16-.92-.03-2.03.21-3.09.07-.3.17-.61.26-.9.11-.34.37-1.1.29-1.22-.33-.48-.65-.94-.84-1.51-.23-.69-.1-1.78 0-2.65s.32-1.74.57-2.48c.11-.34.22-.69.33-1.06.07-.25.28-.99.48-.95.21.05-.32 2.14-.4 2.38-.18.54-.67 2.36-.53 2.83l.04.39q.04.33.08.49c.07.24.13.45.22.65.15.32.37.67.69.82.23.1.41-.24.47-.45.05-.16.33-1.06.44-.99.28.16-.25 2.15-.43 2.4-.15.22-.25.33-.49.47-.18.1-.24.29-.35.61-.04.12-.16.53-.24.82-.03.09-.07.2-.08.28l-.04.33-.04.75v.26c0 .14 0 .33.04.57.06.35.18.72.31 1.02.15.37.6.93.94 1.1l.12.08q.12.08.29.16c.19.09.43.21.57.26.08.03.27.08.41.12.17.05.57.16.57.16.89.44 4.16-.35 5.03-.83.28-.15.57-.29.86-.43.34-.16.67-.36.98-.55.45-.28 1.6-1.05 1.75-1.24l.13-.08.08-.13.23-.18c.19-.19.43-.43.5-.74.15-.62-.3-1.66-.53-2.16l-.06-.16-.26-.53-.06-.16c-.12-.24-.38-.79-.39-.88-.03-.26.16-1.34.24-1.48.06-.12.59.63.69.77.36.52.67.95.78 1 .45.2 1.16.14 1.64 0 .52-.15 1.1-.44 1.45-.78l.46-.52c.19-.21.42-.46.56-.49.18-.04.02.38-.02.46-.1.26-.22.58-.08.88.15.31.35.57.7.67.4.12.67 0 .96-.12.36-.16.66-.63.84-.98.24-.49.66-1.32.79-1.37s.13.27.13.27l-.04.16v.2c.02.12.2.39.31.56.32.47 2.51 1.25 2.67.31.03-.17-.28-.99-.41-1.32l-.12-.24c-.06-.14-.2-.45-.2-.45l-.06-.16-.08-.2-.06-.12-.12-.28c-.37-.92-.8-2.17-.98-3.11-.05-.28.25-1.35.36-1.56.05-.09.6.6.66.67.11.13.33.41.33.41l.15.24.08.12.09.14c.2.27.59.79.63.86.14.29 0 .44-.25.32-.13-.06-.48-.22-.52-.13-.06.1.52 1.42.67 1.76.24.55.45 1.13.51 1.83.06.68-.07 1.55-.33 2.2-.1.25-.53.77-.8.84-.64.16-1.26.29-1.92.04-.1-.04-.39-.24-.59-.39-.13-.09-.24-.18-.34-.29s-.24-.26-.3-.23c-.05.02-.18.26-.24.39-.07.14-.22.4-.24.45-.1.17-.32.47-.51.55-.3.12-.74.31-1 .35-.07.01-.62-.22-1.09-.41-.13-.05-.42-.66-.42-.87 0-.08-.57.37-.57.37-.12.1-.38.31-.4.32-.17.11-.4.22-.59.31-.07.03-.29.11-.37.12-.07.02-1.84.28-1.05.09 0 0 .01 2.47-.28 2.9-.47.71-.9 1.24-1.52 1.79-.86.77-2.22 1.65-3.38 2.04-1.66.55-3.44 1.14-5.32.91-.56-.07-1.12-.25-1.56-.47-.02-.01-.45-.29-.63-.41q-.07-.05-.23-.2c-.1-.09-.3-.27-.33-.28m53.54-3.05c.29-.14.66.08.86.22.25.18.54.24.86.1.47-.21.89-.63 1.02-1.16 0 0 .14-.07.12.24l.03.27c.08.2.7.32.87.22.1-.06.17-.36.23-.61.06-.29.15-.64.38-.71.24-.08-.05 1.02-.09 1.16-.14.42-.29.85-.65 1.06-.25.14-.41.18-.68.1-.06-.02-.25-.09-.28-.1-.09-.04-.21-.1-.21-.1-.11 0-.3.15-.51.32l-.19.15-.35-.03.07.15s-.72 0-.82-.04c-.42-.19-.69-.32-.94-.31-.39.03-1.11.48-1.38.68-.31.23-.84.62-1.01.73-.63.4-2.07 1.28-2.77 1.15-.27-.05 1.3-.91 1.38-.95.16-.09.89-.59 1.36-.9.93-.63 2.3-1.56 2.71-1.64m-37.87.83c.04-.53.51-2.25.74-2.51.2-.23-.07.85-.09.92-.08.33-.37 1.67-.16 1.87l.04.12c.02.06.12.33.14.37.06.11.16.26.29.31.22.08.37-.13.43-.31.05-.16.2-.6.32-.54.35.16-.39 1.68-.53 1.82-.22.21-.43.13-.66.02-.44-.2-.67-1.58-.52-2.07m7.84.06c-.06 0-.32.33-.46.5-.1.13-.49.6-.49.6-.31.07-1.56-1.1-1.64-1.37-.07-.23.49-.97.69-1.23.17-.22.75.32.86.43.2.18.7.62.87.66.09.02.4-.43.46-.52.09-.13.24-.37.3-.45l.18-.15c.03-.21.95.67.95.67.22.22.8.81.62 1.13s-.69 1.16-1.2.77q-.09-.09-.29-.26l-.18-.22c-.16-.13-.67-.55-.68-.55m4.49-1.87c-.68-.24-.45-2.19-.37-2.84.05-.4.22-.79.37-1.1.12-.25.47-1.02.44-1.11 0 0-.29-.21-.32-.23-.13-.09-.24-.17-.36-.28-.1-.1-.22-.2-.33-.29l-.15-.1-.18-.17c-.17-.17-.34-.34-.49-.53-.08-.09-.18-.22-.26-.29-.23-.18-.42-.34-.42-.35-.1-.39-.13-1.2.03-1.66.03-.09 1.16.4 1.43.52.16.07.34.14.51.2.19.07.32.12.49.2.13.06.33.23.18.38l-.14.05c-.16.03-.42.09-.44.11-.2.18.92.83 1.1.93.34.19.51-.05.74-.37l.08-.12c.07-.1.17-.23.26-.34.14-.18.29-.36.39-.54 0 0 .31-.4.42-.54l.16-.23.25-.32c.08-.1.17-.22.25-.33.11-.17.21-.32.27-.35.47-.25-.35 1.88-.45 2.01-.31.42-1.06 1.51-1.08 1.71 0 .05.66.49.81.59.33.22.58.49.8.81.21.3.35.66.39 1.1.04.43-.17 1.48-.35 1.79-.42.75-3.03 2.66-4.02 1.65m-21.6-.26c-.68-.83-.57-2.12-.38-3.35.05-.32.1-.6.16-.89l.04-.16.04-.2.08-.29c.07-.39.32-1.74.51-1.72.25.03.02 1.25-.06 1.59-.16.64-.45 1.81-.37 2.36.09.62.23 1.48.68 1.69.38.18.48-.04.59-.39.04-.12.08-.3.12-.45.04-.14.08-.33.14-.41.16-.21.18.53.18.53-.03.26-.09.58-.16.85-.08.33-.21.82-.44 1.09-.27.34-1.16.02-1.15-.27m25.13-2.78c-.28-.44-1.78-1.49-2.36-1.38-.14.03-.96 1.6-1.03 1.86-.07.29.03.72.22.87.2.16.24.17.6.21 0 0 .41.02.29-.06l.2-.02.29-.12.16-.06c.17-.08.48-.26.72-.41.22-.13 1.04-.64.92-.89m-25.16-9.74s-.12.41-.16.52l-.06.16-.14.36c-.14.4-.36 1.31-.33 1.67.04.38.12.92.4 1.21.37.39.66-.39.77-.68.17-.45.05.79-.02.98-.12.34-.26.72-.44.87-.22.17-.53-.04-.68-.14-.3-.21-.44-.96-.52-1.4-.11-.66.96-4.17 1.18-3.55m6.47 2.1c-.14-.31.02-.9.15-1.25.1-.28.86.17.95.23.12.08.37.24.37.24q.07.05.24.22l.18.16.13.08.29.34q.18.22.2.23s.21.25.28.33c.08.09.29.35.36.33.05-.02.05-.45.05-.46 0-.28 0-.45.04-1.06.02-.28.08-.6.17-.85.1-.31.31-.99.53-1.06.88-.28 1.52 1.38.82 1.66-.02 0-.17-.16-.2-.18-.08-.09-.26-.24-.36-.29-.49-.27-.56.64-.59 1.06-.07.96-.16 2.19-.29 3.12-.03.19-.38-.55-.38-.56-.07-.13-.21-.36-.33-.53-.2-.31-.44-.65-.72-.89q-.41-.36-.88-.31c-.23.03-.9-.36-1-.55m42.72.98c-.13-.26-.18-1.74 0-1.83.01 0 .25-.66.29-.77.07-.19.33-.81.44-.87.32-.2-.2.9-.21.93-.21.39-.32.91-.19 1.45.08.3.26.83.59.79.21-.02.32-.23.39-.39.06-.13.19-.42.27-.36.09.06-.3 1.16-.37 1.36-.26.73-1.07.26-1.21-.31m-14.12-1.73.04-.22.04-.24.04-.16.04-.2c.05-.21.11-.39.18-.57.07-.17.45-1.15.57-1.02.01.02-.21.7-.27.85-.05.16-.33 1.18-.24 1.26l.04.33.04.16c.04.13.08.28.14.39.16.29.37.54.77.46.08-.01.17-.23.19-.32.07-.24.18-.62.24-.64.25-.09 0 .91-.04 1.04-.11.41-.25.68-.52.93-.33.31-.88-.26-.99-.48-.11-.21-.2-.43-.24-.69q-.04-.2-.04-.36v-.26c0-.09 0-.22 0-.25m-14.55.49c-.19-.17.45-1.4.7-1.47.17-.05.53.21.72.35.23.16.58.41.82.47.08.02.31-.43.37-.55.12-.24.25-.49.45-.61.25-.15 1.55.86 1.6 1.22.05.4-.44 1.19-.7 1.35-.08.05-.56-.28-.75-.42-.35-.25-.75-.53-.86-.51-.02 0-.25.46-.29.54-.1.19-.31.62-.34.65-.31.25-1.71-.95-1.71-1.01m27.68-6.32c-.39-.81.54-1.92 1-2.3.2-.16.65.09.74.24.27.48.31 1.31.35 2.01.02.46.02.5.29.75.16.15.43.39.4.64-.02.17-.07.59-.22.59-.04 0-.29-.18-.36-.23-.14-.1-.3-.21-.46-.3-.07-.04-.58.48-.75.64-.26.26-.53.52-.81.75-.54.44-1.27 1.02-1.65 1.27-1.28.85-2.61 1.58-4.27 2.08-.29.09.81-.72.85-.74q.22-.15.23-.15c.1-.05.28-.15.51-.3.14-.08.26-.15.39-.22.78-.48 1.52-.97 2.27-1.47.68-.45 1.37-.93 1.93-1.5.29-.29.67-.68.35-.92s-.65-.47-.78-.84m-21.86 2.94c1.45-.96 2.94-1.91 4.49-2.74.8-.42 1.61-.9 2.39-1.38.04-.02.36-.22.54-.34q.14-.09.26-.15l.29-.16c.75-.46.54.35.24.71-.33.4-3.36 2.12-4.5 2.75-.78.43-1.53.87-2.27 1.34-.16.1-.3.19-.47.28-.22.12-.45.26-.65.41-.09.07-.4.29-.44.24-.11-.13-.08-.87.12-.96m11.43-2.9c-.04-.22.05-.94.27-.96.64-.06 1.49.68 1.81 1.05.18.2.43.51.63.77.11.14.67.84.68.81.03-.08.04-1.23.04-1.57s0-.88.16-1.28c.06-.16.11-.26.2-.38.11-.16.21-.32.31-.5.08-.14.96-.74 1.18-.25.08.07.11.12.17.21.13.21.18.34.23.59.04.23-.1.71-.32.71-.04 0-.19-.16-.28-.25-.13-.14-.28-.3-.44-.38-.24-.11-.53.08-.62.24q-.1.18-.1.28v1.24l-.04.39v.88c-.03.39-.19 1.99-.53 1.99-.08 0-.11-.09-.13-.18-.06-.26-.08-.31-.1-.37-.09-.2-.21-.39-.33-.57-.23-.35-.48-.69-.74-1.01-.12-.14-.23-.29-.37-.41 0 0-.19-.15-.2-.15h-.2q-.23 0-.37-.06c-.41-.18-.78-.4-.92-.85m-40.7.42c-.08.02-.12.18-.14.29-.06.21-.11.41-.19.61-.12.32-.3.56-.5.79-.12.14-.38.34-.74.6l-.14.09s-1.18.83-.95.28c.12-.29.48-.63.71-.83.24-.21.53-.45.74-.69.2-.22.65-.77.68-.9.06-.24-.17-.37-.39-.51-.18-.11-.35-.22-.41-.41-.06-.21.12-1.21.27-1.24.31-.06.8.26 1.11.47.42.28.82.78 1.1 1.2.09.13.19.28.31.51q.1.22.14.29s.16.31.25.49c.05.1.13.27.22.33.07.04.16-.78.16-.88v-.22q0-.18.04-.53c.07-.55.16-.99.33-1.42.13-.34.31-.65.64-.75.4-.13.78.52.9.78.14.29.28.98-.16 1.05-.02 0-.31-.21-.34-.25-.14-.15-.23-.27-.42-.38-.51-.33-.59.88-.61 1.26-.04.67-.1 1.34-.24 2.08-.04.19-.22 1.1-.36 1.03 0 0-.34-.82-.4-.95-.1-.27-.26-.56-.41-.84-.09-.17-.32-.49-.49-.73-.09-.12-.56-.71-.7-.59m7.26-.37c.14.23 1.79.43 2.02.43.61 0 2.16-.01 2.78-.33l.17-.04q.16-.04.29-.08l.41-.12c.14-.05.29-.09.41-.14l.21-.08q.21-.08.37-.14c.36-.13 1.23-.6 1.82-.92l.25-.16.12-.08c.12-.08.29-.14.43-.2.52-.21.76-.08.71.57-.03.4-.43 2.54-.63 2.42-.1-.06.03-.73.06-.92.07-.36.15-.83.1-1.06-.03-.12-.53.16-.53.16-.15.08-.43.24-.43.24-.33.2-.66.39-1.02.57-.57.28-1.27.63-1.86.79l-.2.06-.25.08-.16.06-.16.04-.33.08c-.17.04-.38.08-.57.12l-.41.08-.28-.05c-.13.07-.21.1-.3.09l-.34-.08-.07.12s-.98.01-1.14 0c-.28-.02-.51-.03-.59 0 0 0-.07.59-.09.71-.02.19-.08.39-.19.46 0 0-.15-.49-.18-.59-.07-.24-.18-.51-.33-.68-.19-.2-.65-1.31-.07-1.44m45.21-1.2c.06-.22-.48-.14-.57-.1-.21.1-.34.28-.38.51-.03.17.67.61.86.72.77.45.28-.92.1-1.12m-27.15 1c.09-.56-.12-1.51-.79-.85-.28.28.03.57.23.73.1.08.51.42.56.11m16.23 13.99c.23-.15.72-.41.72-.41s-.95-.63-1.38-.7c-.36-.06-1.42.22-1.27.71.07.21.74.34 1.09.35 0 0 .77.06.84.04m-16.28-16.03c.02-.17.34.23.34.24.08.16.13.41.14.63.02.28-.02.71-.04.9-.03.32-.07.78.34 1.11.11.09.21.17.3.27.29.32.41.63.15 1.1-.02.04-.47-.26-.56-.32-.25-.17-.62-.41-.74-.43s-.46.43-.58.58c-.13.16-.39.42-.57.61-.19.19-.4.4-.59.55-.04.03-.22.16-.33.24-.1.07-.21.17-.31.25-.18.15-2.07 1.09-2.25 1.06-.41-.06.32-.56.37-.59.04-.03.37-.25.52-.36.19-.14.38-.27.56-.42.17-.14.35-.27.54-.4.4-.27 2.2-1.55 1.96-2.09l-.13-.08-.2-.24c-.13-.16-.24-.41-.27-.6-.13-.73.51-1.86 1.11-2.05.07 0 .24.04.24.04" fill="#1d1d1b" fill-rule="evenodd"/></svg>