<svg viewBox="0 0 91.8 26.54" xmlns="http://www.w3.org/2000/svg"><path d="m6.93 25.63c.05-.05 1.38-.62 1.99-.88l.16-.06q.1-.04.31-.12c.17-.07.44-.19.68-.28l1.02-.45c.12-.05.27-.11.39-.16.23-.09.69-.28.7-.29.36-.15.92-.39 1.12-.49.27-.13 1.01-.5 1.15-.39.13.11-.14.93-.24.94l-.16.06q-.18.08-.25.1l-.14.06q-.14.07-.22.1c-.14.05-.29.11-.43.18-.19.09-.39.18-.59.26l-.14.06q-.25.12-.35.16c-.21.08-.6.24-.61.24-.19.07-.38.15-.57.22l-.26.14c-.06.03-.3.13-.39.17-.74.29-1.46.58-2.17.9-.26.11-1.09.47-1.24.42-.04-.01.05-.9.28-.91m19.56-1.63c-.04-.22-.1-.46-.35-.51-.11-.02-.31.09-.38.17-.09.09-.3.31-.33.26-.1-.15.57-2.36 1.39-1.22.51.71-.37 2.44-.68 2.95-.43.71-.37.06-.18-.35s.5-1.11.53-1.31m41.63.5c-.11-.1-.22-.23-.31-.34-.17-.2-.38-.45-.46-.72-.14-.47-.27-.91-.35-1.43l-.04-.22.04-.55q0-.11.04-.49c.03-.27.05-.49.06-.77 0-.11-1.33.77-1.33.77-.4.26-.81.54-1.21.82-.85.59-1.86 1.12-2.82 1.57-1.05.48-2.22.87-3.56 1.14l-.98.2-.2.04-.16.04-.24.04-.2.04-.21.04c-.2.04-.52.13-.78.2-.43.12-.92.22-1.4.19-.27-.01.44-.43.46-.44.24-.11.48-.2.74-.29.13-.05.29-.1.41-.16l.33-.14c.09-.04.23-.09.41-.14l.14-.06.14-.06c1.13-.45 2.18-.92 3.21-1.41 1.42-.67 3.98-2.24 6.03-3.51.8-.5 3.74-2.55 3.67-3.45-.01-.15-.47-.99-.67-1.35-.24-.42-.46-.81-.7-1.24-.32-.59-1.15-2.33-1.13-2.87 0-.17.18-1.13.25-1.24s.44.32.51.41c.17.2.4.43.62.59.27.2 1.06.92 1.11 1.25.02.15-.05.14-.22.1-.24-.05-.48-.09-.67-.06-.1.02.28.66.3.7.08.13.13.23.2.37 0 0 .16.28.25.43.32.57.77 1.34.84 1.83.09.64 0 1.39-.08 2.2-.07.58-.65 1.17-1.04 1.56-.19.19-.68.66-.68.66-.31.25-.6.48-.68.68-.33.81-.36 2.31.29 2.95.93.93 1.5 1.43 3.23 1.22 1.27-.15 2.28-.75 3.15-1.32.92-.61 4.05-3.15 4.32-4.13.05-.19-.18-.55-.36-.54l-.19.05-.16.06-.16.06-.37.08-.24.04-.29.04c-.4.08-.93.18-1.23.12-.41-.09-1.15-.23-1.34-.4-.29-.25-.48-.51-.56-.97-.09-.53-.03-1.18.16-1.67.11-.26.2-.48.35-.69.07-.11.16-.21.26-.3.11-.1.23-.21.26-.29.05-.13.93-.57 1.16-.45l.33.04q.22.04.45.12c.21.08.39.19.56.31.32.23.63.49.88.79.03.03.24.32.35.48.13.18.36.49.49.45.48-.13 1.27-.69 1.76-1.04 0 0 .26-.21.36-.29.12-.1.38-.31.4-.32.29-.18.72-.45.86-.42.19.04.17.54.16.66-.02.36-.04.7.1 1 .19.4.58.66.98.92 1.09.71 2.6-.18 3.18-.78.31-.32.56-.78.74-1.21.14-.32.53-1.19.91-1.04.14.06-.2.75-.22.78-.12.2-.3.57-.16.77.25.37.66.63 1.11.79.31.11.61.15.98.18.07 0 .79-.07.76-.26-.03-.2-.07-.4-.18-.57-.18-.27-.36-.53-.35-.77.01-.4.2-.98.36-1.29.17-.34.64.79.67.85.16.38.24.84.29 1.3.05.56-.21 1.45-.48 1.86-.27.42-1.4 1.06-2.2.56l-.12-.04s-.3-.13-.33-.14c-.19-.09-.35-.2-.51-.32-.12-.09-.27-.22-.35-.35-.1-.16-.27-.43-.42-.4l-.15.24-.16.27-.08.16c-.14.22-.4.54-.66.65l-.24.16c-.16.11-.24.15-.45.22-.25.08-.62.21-.78.24-.54.13-1.14 0-1.6-.18-.41-.16-.71-.54-.95-.89-.09-.14-.16-.23-.22-.42l-.08-.24-.04-.2s-.07-.45-.09-.46c-.02-.02-.91.61-1.1.75-.36.25-1.19.88-1.26.99l-.07.43-.02.37q-.01.31-.04.53c-.05.36-.12.64-.27.9-1.14 2.01-2.98 3.4-4.81 4.72-.65.47-1.38.76-2.23 1.04-1.52.5-2.81-.03-3.98-.71m-17.36-1.97c-.17-.59.57-1.66 1.04-1.72.27-.03.48.26.55.47.36.98-1.07 3.06-1.69 3.19-.16.03.48-.93.48-.93l.09-.14q.12-.14.48-.62c.2-.32.26-.95-.33-.81-.03 0-.27.24-.3.27-.07.08-.28.34-.33.28m34.18-1.67c.23-.1.61-.13.84-.02.41.19.73.34.84.35.26.02.75-.33.89-.48.08-.08.18-.25.25-.38.05-.09.24-.41.35-.25l-.04.31c0 .09.12.16.2.2.2.11.49.21.72.08.06-.03.14-.4.18-.61.06-.26.19-.54.37-.69.35-.29-.02 1.03-.04 1.1-.12.32-.33.92-.59 1.02-.33.13-.68.26-.98.12-.31-.14-.53 0-.91.26-.31.2-.79.32-1.17.15-.4-.17-.8-.35-.94-.31-.23.07-1.33.74-2.47 1.44-.37.23-.94.57-1.13.65-.14.06-1.51.62-1.55.41-.01-.05.85-.58 1.11-.73.5-.31.98-.61 1.38-.9.84-.62 2.02-1.49 2.71-1.72m-48.82 1.78c-.27-.14-.61-.5-.82-.73-.13-.14-.29-.31-.38-.43-.13-.17-.36-.49-.43-.46 0 0-.22.43-.25.5-.07.14-.27.41-.5.7l-.08.13-.23.23c-.05.2-1.24.71-1.57.78-.43.1-1.04.15-1.43-.04-1.18-.59-1.84-1.26-2.23-2.63-.15-.53-.54-4-.82-6.49v-.41c0-.06-.03-.7-.04-1l-.04-.36-.06-.69-.02-.65-.04-.18v-.18c-.02-.37-.08-.86-.12-1.3l-.04-.33q-.05-.41-.08-.65c-.04-.38-.11-1.12-.17-1.63-.06-.6-.28-1.8-.45-2.73l-.25-1.3c-.11-.6-.2-1.08-.18-1.3 0-.13.54-1.17.63-1.24.24-.17.67 2.81.7 3.03.22 1.53.44 3.21.57 4.68.15 1.76.34 4.08.45 5.72.11 1.65.25 3.65.49 4.83.17.83.42 1.47.76 2.1.2.37.71.8 1.12.96.45.17.85.26 1.33.14.43-.11 1.05-.5 1.61-.85.33-.2.63-.8.81-1.17.08-.17.74-1.24.95-1.03l.05.18-.04.32c0 .27.09.43.18.63.1.19.24.45.39.6.25.24 1.02.87 1.46.65l2.7-3.83c.08-.19 1.22-1.13 1.95-1.74.46-.38 1.3-.54 2-.65.59-.09 1.61.1 2.17.35.94.42 1.89 1.11 1.99 2.32.05.55-.14 1.12-.29 1.55l-.08.24c-.08.28-.08.29-.08.29-.02.07-.08.24-.1.29q-.09.18-.1.28c0 .1.83-.18.92-.22.32-.11.73-.26.95-.48.35-.34.77-.76.83-.97.12-.52-.29-3.22-.53-4.8-.25-1.63-.63-4.1-.74-5.19l-.04-.31-.04-.24-.04-.25q-.06-.46-.08-.57c-.03-.17-.06-.35-.08-.53l-.04-.33-.04-.37-.04-.24-.04-.28-.04-.41-.04-.33-.04-.29-.04-.49-.04-.37c-.04-.37-.1-.76-.16-1.1-.1-.52-.19-.92-.17-1.02 0 0 .12-.4.17-.57 0-.02.14-.32.14-.32l.08-.14c.05-.07.11-.18.12-.22.04-.17.35.37.35.37l.04.16q.02.06.12.29l.06.14.14.27q.09.18.14.28t.17.32c.26.58.96 2.16.82 2.44-.1.19-.53-.36-.53-.36-.08-.11-.25-.31-.37-.29-.07.02.08 1.29.1 1.55.02.21.13.84.21 1.3l.04.33.04.28.04.28q.04.31.08.57l.24 1.67c.14.88.56 4.68.86 7.35.09.82-.31 2.16-.63 2.85-.16.34-1.2 1.13-1.6 1.26-1.47.49-3.16.99-4.75 1.34-.96.22-2.36.52-2.95.57-.71.07-1.81.16-2.31.16-.43 0-.7-.01-1.04-.08-.33-.07-.7-.14-1.02-.1-.02 0-.24.33-.33.47-.11.17-.31.47-.33.47-.27.13-.14-.42-.1-.54.08-.27.21-.74.13-.81m-17.48-.05c-.18-.16-.68-.75-1.1-1.26-.39-.47-.69-2.09-.82-2.93-.12-.77-.22-1.68-.29-2.44-.05-.64-.13-1.33-.21-2-.12-.98-.21-2.14-.29-2.99-.05-.6-.2-2.25-.2-2.3-.08-.63-.16-1.3-.23-1.87-.04-.32-.18-1.36-.27-2.04-.08-.57-.23-1.56-.26-1.69-.07-.21-.41-1.55-.23-1.73l.08-.25.04-.16.04-.16c.04-.14.18-.45.31-.51.35-.15.74 2.63.76 2.79.23 1.66.46 3.53.61 5.17.03.29.05.54.08.77l.04.32.04.33v.26l.04.43.04.21.04.53c.07 1.07.16 2.13.29 3.3.16 1.4.42 3.72.61 4.48.18.69.53 1.2.89 1.7.22.31.97.7 1.43.8.28.06 1.87.08 2.17-.12l.24-.08c.15-.05.3-.1.45-.16.2-.08.41-.21.6-.32.34-.2 1.15-.69 1.22-.92.08-.28-.29-.47-.47-.57-.19-.1-.89-.12-1.06-.12-.16 0-.35 0-.45.02-.33.04-.67.08-.98.08-.66 0-1.37-.29-1.6-.79-.17-.36-.32-.8-.21-1.31.11-.6.25-1.13.56-1.54.14-.19.29-.35.47-.5q.17-.14.19-.15c.08-.05.35-.22.35-.22.2-.19.95.03 1.15.1 1.14.44 2 1.69 2.44 2.85.24.64.5 3.17-.06 3.6l-.5.54c-.11.11-.4.29-.6.42-.39.24-.81.5-1.27.67-1.29.49-3.09.53-4.07-.22m-16.47-.18c-.97-.42-1.64-1.18-1.98-2.22-.11-.33-.26-1.61-.12-1.87 0-.01.15-.64.2-.9.06-.28.13-.56.2-.81.11-.36.53-1.63.9-1.49.05.02-.14.5-.16.56 0 0-.12.51-.17.69-.09.39-.31 1.44-.25 1.61l.04.39.04.24c.02.12.05.25.08.37.06.21.16.4.27.57.3.49.67.75 1.14 1.1 1.64 1.18 6.89.42 8.65-.53.13-.07.44-.18.68-.27.11-.04.56-.26.82-.39.46-.23 1.25-.64 1.46-.94.26-.37-.6-1.52-.87-1.84l-.16-.25c-.23-.23-.47-.49-.5-.64-.03-.22.17-1.25.35-1.34.47-.27 1.67 1.76 1.8 2.16.31.91.16 2.64-.46 3.27-.49.49-2.11 1.47-2.85 1.64-.38.08-1.22.4-1.76.61-.61.24-1.3.4-2 .53-1.54.28-4.14.48-5.36-.25m50.19-20.76c.12-.42.32-1.06.5-1.32.06-.08.48.9.55 1.03.14.32.38.83.57 1.24.11.24 1.1 2.35.65 2.4-.15.02-.32-.17-.4-.27-.14-.17-.32-.39-.42-.41-.06 0 .32 3.36.35 3.63.14 1.26.31 2.43.49 3.71.35 2.45.65 4.57.65 6.76 0 .88-.21 1.75-.41 2.53-.06.26-.16.48-.27.69-.1.22-.27.18-.27-.12l.04-.45q0-.1 0-.33c-.02-.82-.06-2.69-.12-3.21-.15-1.2-.43-3.57-.45-3.89s-.11-.89-.17-1.2c-.11-.66-.15-1.04-.2-1.71l-.04-.2-.04-.2v-.22l-.04-.14q-.01-.05-.08-.57c-.08-.57-.15-1.22-.2-1.71l-.04-.2-.04-.24c-.04-.27-.12-.88-.12-.9 0-.1-.05-.41-.08-.65l-.04-.37-.04-.41-.04-.49-.04-.36q-.03-.18-.04-.41l-.04-.45v-.39c-.02-.18-.08-.39-.14-.55-.07-.17-.1-.41-.02-.61m-8.78 19.03c.82-.21 3.37-1.36 3.54-2.06.07-.29-.52-1-.71-1.15-.78-.61-2.32-1.35-3.65-.83-.74.29-1.25.55-1.83.96s-3.12 3.19-2.86 3.71c.24.47 4.98-.38 5.51-.64m16.48-6.02c-.28-.09-2.29-1.98-2.46-2.24-.07-.12-.1-1.44.06-1.65.05-.07.32.1.44.18.05.03.53.21.75.29.42.16 1.37.51 1.43.65.03.06.05.13-.03.2l-.14.05c-.16.03-.42.09-.44.11-.27.25 1.19 1.04 1.49 1.02 0 0 .3-.39.34-.46l.16-.22.09-.13c.19-.22.39-.5.58-.75s.38-.5.57-.75c.09-.12.26-.35.4-.54l.08-.12c.1-.15.11-.16.18-.22.48-.38-.28 1.81-.39 1.96-.08.11-.16.22-.24.33-.1.16-.28.42-.33.48-.09.11-.16.21-.24.33-.1.15-.19.31-.31.45-.08.1.67.64.8.73.12.09.23.17.33.29.11.13.32.36.38.42.88.88.39 2.88-.37 3.58-.28.26-2.25 1.66-2.79 1.39l-.41-.08c-.18-.06-.18-.07-.29-.14-.16-.12-.28-.29-.37-.49-.26-.6-.18-1.28-.1-1.95.07-.62.17-1.01.37-1.47.09-.21.25-.57.26-.61.1-.2.26-.52.19-.62m-53.23 4.1c-.13-.11-.22-1.03-.25-1.43-.03-.28.18-.92.29-1.24.04-.12.12-.36.12-.37l.06-.16c.02-.06.11-.29.12-.33l.06.37c-.06.2-.13.42-.16.65-.12.76-.07 1.42.36 1.81.14.13.38.15.48-.03.1-.19.32-.61.34-.6.12.02-.04.68-.07.83-.06.21-.13.46-.23.65-.14.28-.23.42-.61.31-.09-.03-.17-.08-.34-.21l-.16-.23zm56.37-1.89c.2-.48-2.01-1.72-2.33-1.62-.16.05-1.04 1.68-1.1 1.97s.09.63.23.81c.18.23.59.25.87.2.86-.17 1.7-.84 2.33-1.35m-40 .43c.13-.18-.62-.66-.82-.74-.57-.23-1.36-.21-1.48.42-.1.53 1.92.48 2.3.32m10.97-4.86c.2-.05.05.33 0 .47-.1.28-.2.54-.27.86-.15.75-.04 1.82.61 1.93.13.02.28-.12.33-.22.06-.12.22-.48.25-.46.39.21-.39 1.62-.56 1.74-.06.04-.51-.15-.75-.25-.26-.11-.39-1.13-.42-1.46-.04-.53.49-2.41.8-2.61m43.14 3.56c-.39-.9-2.85-1.01-2.47 0 .07.18.73.28.94.31.04 0 1.6 0 1.53-.31m-72.16-2.53c-.02-.26.46-1.13.65-1.26.22-.16.64.08.92.24.31.18.79.45.86.46.05.01.36-.45.45-.59.15-.23.34-.5.49-.57.3-.13 1.69 1.05 1.62 1.55-.01.11-.66.89-.77.99-.09.08-.67-.38-.81-.49-.21-.17-.57-.45-.77-.48-.12-.01-.42.47-.49.61-.08.15-.36.65-.53.61-.02 0-.51-.31-.78-.47-.16-.1-.85-.52-.84-.61m-4.38-.53c-.22-.62-.37-1.43-.37-2.03 0-.72.32-1.85.53-2.61.08-.29.19-.73.29-1.1.06-.24.25-.98.46-.85.12.07-.25 1.48-.34 1.74-.21.64-.43 1.54-.37 2.2.05.65.45 2.3 1.11 2.22.1-.01.28-.17.35-.3.09-.18.31-.64.37-.61.44.21-.47 2.17-.78 2.24-.38.09-.77-.28-1.15-.65zm39 .23c-.14-.36-.29-.74-.29-1.21 0-.15 0-1.74.24-1.74.14 0 .22.7.22.73-.03.33-.11 1.14.21 1.26.21.08.58.22.7.17.27-.1.61-.46.67-.75q.05-.22 0-.65l-.04-.37-.04-.24-.04-.2c-.02-.3-.02-1.16.28-1.05.09.04.23.82.25 1.01.05.42.11.7.27 1 .11.2 1.06 1.07 1.36.6.02-.03-.29-.62-.42-.89-.18-.35-.33-.69-.39-1.16-.03-.24.1-.93.3-.85 0 0 .9 1.86.93 1.99.1.46.02 1.39-.21 1.78-.14.23-.58.37-.87.28-.23-.07-.52-.28-.81-.48-.05-.06-.23-.11-.26-.12-.01 0-.16.28-.2.35 0 0-.17.22-.26.33-.18.23-.3.38-.56.54-.14.1-.6-.03-.72-.08l-.32-.26zm-19.07-.88c-.16-.21.38-1.62.84-1.44.56.22 1.01.54 1.41.93.22.21-.54 1.41-.83 1.35-.13-.03-1.4-.79-1.41-.83m9.28-1.07c1.93-1.12 5.36-2.82 8.37-4.32 1.43-.71 2.9-1.41 4.38-2.04.14-.06.33-.15.51-.22l.26-.14.16-.06.2-.08c.17-.06.37-.15.49-.2l.14-.08.18-.08q.17-.08.29-.12c.15-.06.31-.12.45-.18l.16-.06.2-.08.14-.08.14-.06c.2-.07.48-.18.57-.22.08-.03.58-.21.55 0-.08.54-.19.75-.51 1.16l-.12.04-.18.06-.18.08-.16.08-.33.14c-.42.18-1.08.46-1.39.61l-.12.04-.14.06c-.2.09-.39.18-.57.29q-.15.09-.35.16l-.16.06-.16.06c-.18.08-.44.19-.55.25-1.37.68-3.15 1.51-4.73 2.24-1.21.57-3 1.45-4.58 2.24-.74.37-1.49.76-2.21 1.18-.17.09-.99.57-1.04.54-.17-.12.16-1.15.27-1.25m57.31-1.21c-.17-.52-.17-1.3.02-1.87.1-.28.59-1.6.77-1.56.15.03-.13.67-.18.77-.2.38-.3.59-.35 1.14-.04.39.2.97.4 1.17.16.16.36.05.51-.06q.06-.04.11-.19c.04-.11.16-.45.27-.41.54.21-.72 1.71-.78 1.75-.13.08-.42-.14-.46-.18-.07-.06-.11-.1-.15-.19l-.06-.16-.11-.2zm-13.79-.14c-.19-.4-.34-.83-.31-1.41.03-.54.16-1.03.31-1.46.08-.24.44-1.25.63-1.13.03.02-.11.45-.14.51-.08.2-.27.73-.27.73-.21.85-.11 1.38.32 2.03.12.18.43.22.6.12.1-.06.16-.32.19-.48.03-.13.11-.48.24-.42.44.21-.45 1.85-.67 1.99-.19.12-.71-.32-.9-.49m-62.04-.26c-.31-.44-.46-.99-.62-1.62-.23-.84.65-5.75 1.3-5.69.15.01-.09.86-.12.95-.09.33-.15.65-.21 1.02-.05.36-.11.66-.2.98-.03.12-.13 1.04-.17 1.53-.04.51.33 1.46.6 1.72.2.19.58.29.73-.01l.06-.18.04-.2.04-.12c.04-.11.12-.36.18-.35.49.07 0 1.75-.21 2.05-.32.46-1.19.6-1.43-.07m47.17-.94c-.06-.33.39-1.13.57-1.31.23-.24.51-.03.74.13.26.19.7.5.92.55.09.02.37-.5.45-.65s.27-.5.43-.51c.39-.03 1.19.7 1.43.99.36.44-.32 1.59-.67 1.64-.05 0-.52-.37-.71-.52-.23-.18-.65-.52-.87-.35l-.06.14-.17.28-.08.18-.08.2c-.12.25-.33.47-.62.21l-.13-.09-.25-.16c-.06-.04-.23-.17-.33-.26-.18-.14-.55-.43-.57-.48m-39.06.33c-.17-.25-.08-.95-.02-1.35.02-.13.12-.62.24-.54l.05.26v.12l.04.41c.03.19.11.32.24.42.41.33.91-.15.95-.48 0-.07-.05-.63-.08-.87-.03-.21.08-.61.15-.81.11-.34.29.36.3.48.04.31.12.97.24 1.01.24.08.53.19.67.12.08-.04.03-.22-.01-.36-.06-.21-.1-.4-.12-.65-.01-.14.17-1.18.33-.77.23.57.45 1.15.45 1.71 0 .26-.15.87-.34.99-.35.23-.71.18-1.14.11-.13-.02-.21.06-.52.36-.16.16-.42.26-.69.31s-.69-.22-.74-.47m67.81-5.31s-.41-.46-.6-.64c-.18-.18-.3-.33-.42-.58-.3-.59.55-2.15 1-2.26.32-.08.48.03.71.2.34.24.38 1.81.38 2.31 0 .14.22.38.52.7.19.21.26.74.06 1-.07.09-.44-.18-.54-.25-.15-.11-.33-.24-.5-.29-.05-.02-.24.2-.32.3-.11.14-.31.36-.37.43-.11.11-.46.41-.7.61s-.47.4-.79.69l-.23.18-.25.18-.25.15c-.21.23-1.69 1.11-2.09 1.3-.27.13-.77.32-1.17.47-.18.07-1.26.47-1.26.33 0-.1.51-.43.64-.52.12-.08.36-.22.37-.23.2-.1.37-.19.55-.31.62-.38 1.74-1.07 1.94-1.22 1.13-.82 3-2.21 3.29-2.57m-81.16 2.26c.07-.71-.69-1.77-1.06-2.23-.14-.18-.35-.43-.55-.45l-.08.13c-.11.04-.26-.04-.36-.1-.23-.12-.83-.44-.82-.69.02-.46.04-.95.28-1.29.14-.2.71.15.84.25.42.28.82.8 1.12 1.2.17.23.33.47.48.72.09.15.45.79.51.74.07-.06.08-1.02.08-1.14 0-.49.03-.71.13-1.17.12-.53.34-.97.69-1.27.21-.18.57.1.76.27.23.2.42.71.4 1.09-.01.2-.2.55-.38.44-.03-.02-.28-.3-.38-.43-.1-.12-.34-.29-.5-.31-.29-.04-.29.97-.29 1.16 0 .62-.09 1.46-.24 2.16-.19.86-.47 1.56-.79 2.22 0 0-.71.67-.92.86-.26.24-1.36.84-.59-.05.61-.7 1.59-1.84 1.68-2.1m53.72-2.56c.01-.07-.13-.19-.22-.27l-.19-.21c-.12-.15-.22-.33-.29-.51-.33-.91 1.14-2.97 1.57-2.07.14.31.3.7.27 1.05l-.08.9c-.02.19-.08.59.07.64.29.11.83.54.87.9.03.22-.06.47-.13.66-.01.03-.52-.31-.57-.34-.21-.14-.64-.41-.74-.43-.12-.02-.48.43-.58.56-.18.23-.37.46-.57.66-.38.37-.82.7-1.26 1-.55.38-1.25.7-1.9.92-.76.25.72-.93.72-.93.07-.06.43-.32.65-.48l.12-.08c.12-.08.38-.25.38-.25.64-.47 1.61-1.2 1.87-1.72m4.62 1.94c1.14-.71 3.67-2.24 3.97-2.4l.27-.16q.07-.05.23-.12l.14-.08.14-.08.27-.16c.35-.2.96-.54 1.08-.61.35-.19.71-.41 1.04-.61.35-.21.98-.6 1.16-.63.22-.04.09.52.03.63-.38.59-3.58 2.42-4.71 3.01-.82.43-1.82.97-2.45 1.43q-.13.1-.25.15-.07.03-.27.16c-.21.14-.57.38-.62.42-.2.16-.3-.03-.28-.19.02-.18.07-.66.25-.76m-32.5-2.04-.29.15-.16.03c-.09 0-.39-.14-.45-.18-.24-.13-.48-.32-.61-.57-.15-.29.04-1.03.19-1.29.32-.55 1.83 1.01 1.91 1.1l.16.16q.13.11.37.38l.17.2c.05.06.22.34.31.48.08.12.25.4.34.33.02-.02.02-.92 0-1.03-.03-.36-.01-.78.08-1.2.08-.35.37-1.28.65-1.38.44-.17.8.2 1 .51.28.42.21.69.08 1.2-.03.12-.88-.58-.88-.58-.5-.32-.5.72-.5.97 0 .64 0 1.46-.08 1.98-.03.22-.25 1.65-.38 1.64 0 0-.13-.33-.15-.38-.06-.16-.11-.32-.19-.45-.15-.29-.37-.69-.49-.85-.16-.21-.34-.43-.52-.62-.12-.12-.58-.6-.58-.6m43.93-.73c-.1-.27.04-.68.15-.97.11-.3.99.26 1.08.32.31.22.59.45.85.73.16.17.43.52.65.8l.24.37c.12.18.32.47.41.47 0 0 .01-.64.01-.67 0-.17 0-.34 0-.55 0-.44 0-1.28.2-1.75.19-.44.46-.94.86-1.18.18-.11.45-.15.63-.03.47.32.8 1.04.39 1.64-.06.08-.48-.34-.51-.37-.14-.13-.31-.28-.52-.27-.26 0-.46.25-.51.47-.02.11-.04.72-.04 1.14 0 .74-.06 1.46-.17 2.28-.02.19-.23 1.54-.49 1.1l-.04-.16q-.05-.2-.1-.33c-.09-.21-.21-.39-.33-.57-.33-.5-.67-1-1.08-1.41-.16-.16-.17-.17-.43-.16-.2.01-.42-.11-.64-.22-.34-.18-.44-.31-.61-.65m-36.83 1.34c-.18-.68-.09-1.47.12-2.12.08-.22.39-1.17.48-1.15.02 0-.1.66-.12.79-.06.37-.12.73-.12 1.04 0 .54.14 1.13.59 1.3.15.06.28-.09.33-.2.1-.23.25-.58.26-.58.38-.07-.29 1.7-.44 1.83-.44.39-1.03-.64-1.11-.91m-20.93-.14c.09-.02 1.24-.5 1.82-.75q.14-.06.31-.12c.18-.07.43-.16.53-.2l.18-.08q.24-.12.35-.16c.1-.04.36-.15.53-.22.14-.06.67-.27.98-.39.29-.11.65-.27.98-.41.23-.1.82-.35.76.08-.03.19-.24.68-.43.71-1.05.22-2.39.82-3.33 1.32-.36.19-2.97 1.19-3.06 1.13-.23-.15.35-.87.38-.9m69.79-1.65c.02-.69-.64-1.23-1.08-.61-.26.35.09.6.34.79.38.28.72.53.74-.18m-27.58-.83c-.07-.09-.46.11-.64.2-.35.18.33.76.44.83.71.41.29-.79.2-1.03" fill="#1d1d1b" fill-rule="evenodd"/></svg>