<svg viewBox="0 0 72.98 26.91" xmlns="http://www.w3.org/2000/svg"><path d="m7.59 26.44c-.58-.16-1.14-.34-1.68-.53-.33-.12-.81-.29-.98-.39-.25-.14-.57-.32-.86-.41-.35-.11-2.07-1.32-2.37-1.59-.36-.34-1.95-1.79-1.67-2.12.07-.09.65.37.74.43.15.12.42.32.64.48.32.23 1.39.9 1.76.96.03 0 .29.1.29.1l.29.14s.52.2.74.29c.45.17.93.33 1.43.45.8.18 3.29.69 3.31.69 2.97.2 6.21.19 9.13-.77 1.38-.46 2.88-1.02 3.97-1.81 1.06-.77 3.08-2.23 3.21-3.05.06-.36-.32-1.17-.51-1.57 0 0-.29-.55-.41-.77-.14-.27-.29-.53-.26-.75.04-.38.09-.98.25-1.19.16-.22.86 1.04.89 1.11.17.3.72 1.09 1.2.85.09-.04.88-1.44 1.07-1.81.05-.1.2-.33.33-.51l.16-.24c.08-.14.22-.33.42-.58.03-.04.04-.06.15-.23.31-.51 1.98-2.35 2.48-2.57.44-.19 1.35-.57 1.45-.59.6-.15 1.24-.02 1.8.16.37.12.66.24.96.43l.14.08.14.08q.09.05.24.16c.11.08.44.31.44.31.45.23.89.99 1.07 1.52s-.04 1.06-.25 1.55l-.1.31-.1.31q-.05.12-.16.26c-.1.12-.23.28-.23.29-.17.39-1.41 1.19-1.92 1.51-.95.57-2.12 1.1-3.35 1.34-.83.17-1.83.36-2.58.41-.58.03-.94.04-1.51-.08-.37-.08-.95-.21-1.06-.18-.1.02-.16.35-.19.49-.04.22-.1.49-.16.69-.17.51-.35.93-.6 1.33-.44.71-1.15 1.33-1.82 1.81-1.03.73-2.08 1.34-3.3 1.9-1.3.61-2.79 1.05-4.36 1.36-2.06.41-6.27.73-8.26-.04m42.43-1.34c-1.88-.64-2.01-2.95-1.83-5.08.02-.21-1.33.68-1.37.71-.27.18-1.23.79-1.23.79-.47.23-1.1.55-1.39.75-.05.04-.96.49-1.45.74-.97.48-2.14.76-3.38 1.04l-.41.08-.29.04-.2.04-.29.04c-.33.06-.92.17-1.11.21 0 0-.55.14-.82.2-.35.09-1.05.25-1.26.13-.37-.2 2.47-1.17 2.65-1.23.47-.16 1.34-.45 1.53-.55.52-.26 1.24-.61 1.64-.77 2.18-.87 4.35-2.22 6.23-3.47.88-.58 3.68-2.5 3.67-3.25 0-.3-.97-2.04-1.37-2.73-.18-.32-1.15-2.59-1.04-2.85l.04-.2.04-.29.04-.2c.03-.11.17-.65.27-.59.32.2 2.11 2.1 2.06 2.43 0 .03-.27-.03-.3-.03-.18-.04-.48-.11-.55-.03-.11.13.66 1.46.75 1.6.28.45.54.94.72 1.51.3.99.01 2.71-.52 3.33-.32.37-.63.7-1 1.01-.38.31-.72.61-1.04.99-.19.24-.27 1.35-.18 1.63.2.64.35 1.08.6 1.5.27.44.82.75 1.34.94.41.15 1.51.33 1.96.1l.24-.04.25-.08s.44-.14.65-.2c.41-.13.76-.29 1.07-.51.06-.04.3-.18.41-.25.15-.08.43-.24.43-.24.23-.15.53-.35.9-.65l.14-.09c.11-.1.27-.24.32-.28.23-.17.45-.33.66-.5.62-.5 2-1.74 2.26-2.43.04-.1-.09-.55-.29-.55-.14 0-.15 0-.29.04-.21.07-.47.15-.57.16-.68.11-1.58.26-2.17.16-.19-.03-.43-.12-.61-.18l-.56-.35c-.69-.18-.31-2.13-.14-2.66.16-.5.66-.99 1.07-1.26.36-.24.59-.26 1.06-.26.4 0 .97.36 1.34.6.27.17.54.5.76.78.11.14.21.28.32.43.09.14.28.43.33.43.56.02 1.67-.83 2.15-1.21.32-.26.68-.53 1.06-.72.2-.1.47-.12.49.16v.49l-.04.2c-.02.37.01.55.14.79.2.38.67.75 1.08.92.48.19.84.2 1.41.14.34-.04 1.04-.47 1.59-.8.16-.1.65-.94.83-1.27.13-.24.67-1.25.94-1.08.12.07-.2.76-.2.77-.13.23-.34.59-.21.81.38.63 1.98 1.37 2.8.83.15-.1-.18-.73-.22-.79-.14-.19-.29-.4-.27-.61.03-.3.25-1.25.44-1.36.42-.22 1.06 2.38.78 2.86l-.08.37q-.09.28-.12.37c-.07.18-.27.59-.49.75-.03.03-.18.13-.21.15-.2.12-.47.19-.71.22-.52.07-1.28-.19-1.7-.47-.2-.13-.37-.29-.52-.46-.11-.12-.49-.53-.49-.53s-.18.29-.2.32c-.08.14-.15.25-.23.38-.14.22-.4.48-.64.61-.8.45-1.92.94-2.89.47-.5-.25-.84-.49-1.14-.93-.12-.18-.2-.41-.27-.63-.03-.11-.07-.3-.08-.39q-.03-.29-.07-.36c-.05-.08-.62.34-.68.39-.18.16-.36.3-.56.44-.28.18-1.08.76-1.13.86-.04.07-.04.07-.06.28-.01.12-.08.69-.08.69-.06.39-.13.88-.27 1.18-.08.17-1.03 1.31-1.82 2.25-.73.87-2.11 1.8-3.18 2.51-1.2.8-3.75 1.71-5.28.79m16.51-4.07c.19.02.41.15.59.26.22.14.37.2.7.18.29-.02.67-.34.83-.52.1-.11.12-.15.2-.3.07-.13.18-.34.31-.35l.03.26.02.22s.11.15.16.16c.24.06.64.16.77.01.06-.07.06-.07.11-.32.03-.15.07-.32.1-.43.05-.15.22-.43.32-.49.35-.23-.06 1.09-.09 1.17-.15.44-.33.81-.7 1.03-.2.12-.32.19-.55.13-.12-.03-.3-.08-.57-.24-.15-.02-.33.13-.52.28-.17.13-.37.24-.63.29-.29.05-.55.04-.86-.14-.32-.19-.5-.31-.86-.23-.47.11-1.53.81-2.31 1.33-.54.36-2.03 1.24-2.79 1.11-.26-.04 1.3-.89 1.38-.93.23-.13.43-.25.63-.39.13-.09.37-.25.37-.25l.13-.09c.19-.14.19-.14.21-.15.17-.1.4-.26.59-.41.23-.16.47-.33.72-.49.52-.34 1.01-.52 1.7-.71m-35.64 1.67c-.04-.62.51-2.98.92-3.2.24-.13-.07.72-.1.82-.15.41-.22.92-.28 1.38-.06.44.1 1.62.88 1.47.09-.02.22-.29.25-.36.08-.22.15-.4.3-.38.38.05-.44 1.79-.81 1.86-.76.16-1.05-1-1.15-1.59m-24.11-6.28s-.14.75-.2.99c-.12.47-.32 1.39-.2 1.75.12.35.3.91.51 1s.4-.02.49-.2c0 0 .09-.28.1-.31.04-.13.08-.27.16-.26.26.05-.18 1.27-.22 1.36-.21.42-.51.67-.97.28-.3-.26-.42-.83-.48-1.29-.07-.55.4-3.18.82-3.31m6.18 3.92c-.01-.07-.09-.18-.14-.27-.06-.09-.1-.22-.14-.35-.11-.33-.19-.72-.24-1.1-.15-.97.39-4.57 1.05-5.2.26-.24.11.43.07.52-.09.23-.15.45-.18.73-.04.34-.16 1.26-.16 1.26-.08.49-.2 1.19-.17 1.63.06.74.3 1.91 1.09 2.1.23.06.34-.29.39-.47.04-.14.17-.63.22-.63.63-.05.09 2.22-.69 2.48-.26.09-.8-.44-1.09-.71m6.38-.12c-.18-.61-.18-1.08-.16-1.75.02-.58.6-2.31.86-2.54.08-.07-.18 1.1-.2 1.19-.14.62-.26 1.18-.2 1.63.05.38.19.67.38.91.18.25.48-.07.55-.2.06-.12.24-.49.3-.37.24.5-.74 2.61-1.51 1.13m21.37-.81c-.17-.05-.42-.97-.38-1.17v-.22l.04-.49.04-.24.04-.25c.06-.44.12-.71.25-1.06q.06-.18.1-.26l.08-.18q.08-.15.12-.25l.17-.33c.09-.15.16-.28.18-.41.02-.1-.47-.46-.61-.57-.21-.16-.47-.36-.64-.57-.18-.23-.41-.52-.63-.72-.2-.19-.61-.59-.62-.62-.09-.36-.02-1.23.13-1.6.04-.09.26.09.29.11.1.08.23.15.35.2.03.01.39.15.56.21.18.07.35.13.53.2.24.1.47.22.66.35.09.06.33.22.18.34l-.22.05c-.11.02-.35.07-.38.09-.25.16 1.13 1.02 1.28 1.05.2.04 1.16-1.24 1.4-1.56.39-.52.89-1.19 1.27-1.61.44-.48-.44 1.97-.55 2.13-.08.12-.16.24-.25.36-.11.13-.3.36-.32.4-.15.2-.5.7-.46.86 0 .02.5.35.61.42.15.1.42.36.65.58.36.35.63.87.7 1.47.04.31-.29 1.75-.48 1.91-.76.61-3.15 2.54-4.09 1.38m3.71-2.68c.17-.51-1.93-1.74-2.31-1.64-.21.06-1.11 1.75-1.17 2.06-.03.17.21.69.35.75.21.1.58.26.9.1.92-.46 1.79-.89 2.22-1.27m-7.99-2.56s-.17-.26-.17-.26c-.09-.1-.25-.26-.37-.39-.12-.12-.23-.22-.37-.31-.1-.07-.38-.26-.42-.34-.11-.2-1.48-.59-1.86-.66-1.65-.3-2.86 1.04-3.61 1.91-.39.45-.75.91-1.09 1.41-.08.12-.28.44-.49.77-.08.12-.61.92-.37.96 1.61.26 4.73.01 6.08-.96.1-.07 1.13-.63 1.64-.9.25-.13 1.19-.82 1.04-1.24m22.08 1.9q-.04-.07-.28-.29l-.15-.1c-.17-.14-.18-.15-.19-.15-.39-.2-.9-.33-1.33-.12-.21.1-.57.38-.49.63.14.44 2.14.38 2.44.03m-57.18-4.4c.32-.11 1.21.5 1.41.67.35.3.66.64.96 1 .15.19.3.37.45.57.14.2.5.67.51.68.11.04 0-1.5-.01-1.61-.03-.4-.08-1.27.12-1.63l.04-.16c.05-.15.11-.29.18-.43.16-.29.44-.49.81-.3.42.22.87 1.07.47 1.52-.05.06-.55-.31-.68-.41-.66-.48-.58.61-.54 1.09.03.33-.02 3.43-.45 3.58-.01 0-.12-.25-.14-.3l-.1-.24-.06-.14c-.11-.19-.27-.42-.41-.61-.31-.42-.64-.8-.99-1.17-.14-.15-.37-.39-.56-.35-.28.06-.49-.03-.78-.16-.49-.23-.8-1.18-.23-1.6m19.01-4.13c.05.26-.15.79-.27 1.09-.18.47-.35 1.12-.21 1.75.07.3.3.81.59.86.23.04.27-.07.35-.32.06-.18.14-.44.28-.42.24.04-.21 1.71-.67 1.82-.3.07-.66-.34-.78-.53-.23-.36-.31-1.01-.27-1.43.05-.51.18-1.04.33-1.49.11-.32.48-1.43.64-1.33m48.34 3.08c-.16-.45-.27-1.12-.16-1.59.11-.48.6-2.07.91-2.13.2-.04-.18.77-.2.79-.2.38-.3.56-.35 1.1-.03.32.14 1.08.4 1.24.22.12.46-.02.56-.2.02-.04.07-.17.1-.27.05-.13.08-.22.16-.22.19 0-.03.72-.05.79-.09.26-.21.5-.37.69-.39.47-.7.13-1-.2m-13.89-.69c-.22-.34-.28-.83-.31-1.32-.02-.44.23-1.2.37-1.57.09-.23.47-1.21.65-1.09 0 0-.13.44-.16.52l-.06.14q-.09.18-.14.35c-.1.3-.2 1.18-.2 1.18l.04.25.04.24c.04.17.15.34.24.46.16.21.28.36.6.31.14-.02.21-.25.27-.45.04-.15.17-.58.31-.49.25.17-.36 1.59-.41 1.65-.41.53-.94.4-1.23-.18m-44.82-6.03c-.09-.27.03-.93.18-1.14.14-.19 1.19.52 1.22.54.3.25.86.7.94.78.25.25.51.51.71.82.12.18.7 1.1.75 1.09s.05-.48.05-.48v-.59l.04-.96v-.25c0-.25 0-.59.04-.83.1-.58.38-1.29.73-1.6.51-.45 1.48.66 1.56.99.09.38-.1.67-.25.87-.06.08-.62-.48-.68-.53-.08-.08-.86-.63-.87-.17-.04 1.37-.09 2.93-.45 4.36-.18.71-.43 1.26-.8 1.77-.29.4-.64.75-1.04 1.04 0 0-.47.3-.66.41-.15.09-.81.43-.82.23 0-.07.19-.21.29-.27.16-.1.32-.21.46-.33 0 0 .4-.4.6-.59 0 0 0 0 .16-.16.49-.49 1.4-1.39 1.09-2.01-.35-.7-.75-1.23-1.25-1.76-.14-.15-.34-.32-.63-.54l-.2.02h-.25c-.2-.04-.88-.48-.92-.69m29.95 4.48c-.08-.23.49-1.11.65-1.28.18-.2.56.08.76.23.29.21.68.5.91.53.05 0 .35-.51.41-.62.12-.2.25-.43.45-.53.32-.16 1.59 1.06 1.54 1.55 0 .04-.41.65-.68 1.05-.11.16-.75-.37-.84-.45-.2-.17-.67-.56-.78-.51 0 0-.14.18-.15.2l-.06.14-.08.14q-.07.11-.12.24c-.07.19-.14.3-.25.44-.23.27-1.69-.86-1.73-1.13m28.85-4.36c.06-.17-.3-.43-.45-.53-.21-.15-.49-.39-.53-.69-.12-1 .37-1.77.96-2.26.19-.16.57.03.71.13.19.13.35.88.38 1.17v.71c0 .37 0 .74.05.83l.23.18.15.1c.13.1.24.33.27.5.04.19-.05.64-.23.65-.02 0-.28-.19-.45-.31-.16-.11-.34-.24-.49-.26 0 0-1.45 1.32-1.56 1.44-.5.5-1.13.89-1.75 1.27-.63.39-1.49.91-1.98 1.14-.02.01-.26.1-.39.14l-.17.06-.16.06-.2.06-.16.06c-.12.04-1.11.4-1.08.26s.55-.46.8-.61l.96-.53c.32-.2.74-.45.96-.57.33-.17.63-.37.93-.58 1.15-.79 2.59-1.76 3.22-2.44m-66.27 4.15c-.24-.52-.36-1.28-.27-1.78.12-.74.22-1.4.37-1.91.07-.24.16-.47.24-.69.05-.13.32-.8.4-.75.05.03-.21.94-.28 1.19-.05.18-.16.57-.16.57l-.04.2-.06.33-.02.29-.04.26c-.12.58.29 1.33.55 1.62.18.2.33.05.46-.08q.06-.06.11-.25c.03-.11.07-.26.18-.22.23.1-.19 1.17-.26 1.28-.42.63-.74.35-1.18-.05m22.23-2.82c.05-.22.16-.8.28-.82.01 0 .27.15.27.15q.21.13.24.14c.09.04.56.15.82.2.84.18 1.64.19 2.41 0 1.3-.32 2.48-.64 3.6-1.08.6-.23 1.11-.52 1.64-.81.07-.04 1.55-.89 1.6-.43.04.48-.12 2.68-.55 3.11-.22.22.03-1.17.04-1.22.02-.1.19-1.05.06-1-.76.31-1.35.6-2.01 1.04-.4.27-1.56.66-2.33.92-.78.26-1.72.49-2.54.61-.25.04-.98.04-1.47.04-.24 0-.46 0-.43.3.03.36.01.69-.11 1.01-.07.17-.22-.26-.26-.36-.02-.06-.26-.47-.39-.69-.08-.14-.3-.35-.46-.52-.2-.2-.3-.33-.42-.61m16.46-2.29c-.23-.18-.55-.58-.63-.9-.06-.22.2-.98.35-1.42.11-.32 1.01-1.11 1.31-.51.14.28.25.65.22.96-.02.29-.07.69-.12 1.02-.03.21-.06.39.03.52l.25.2.25.2c.15.14.36.33.39.52.04.21-.02.69-.24.73l-.13-.13-.25-.18q-.06-.05-.21-.15c-.21-.14-.54-.36-.67-.33-.03 0-.38.37-.53.53q-.12.17-.18.23c-.09.1-.23.25-.28.29t-.18.18l-.33.28c-.19.17-.42.34-.64.48-.18.11-3.68 1.95-3.09 1.26.22-.25.75-.55 1.21-.82.45-.26.92-.57 1.32-.9 0 0 .46-.3.6-.4.2-.13.4-.27.58-.42.25-.21 1.15-.96.99-1.24m16.11-.41c-.04-.22.04-.9.22-.96.57-.18 1.72.95 2.1 1.4.07.08.15.18.16.19l.08.12.09.13c.11.14.23.3.32.46.1.17.28.49.37.49l.02-.18v-.14l.04-.35v-.75c.02-.51.05-1.15.22-1.55.18-.41.51-1.01.9-1.2.89-.44 1.6 1.13.93 1.66-.05.04-.3-.2-.37-.27-.24-.23-.43-.42-.64-.41-.26.01-.42.25-.47.47-.08.35-.08.92-.08 1.22 0 .49-.04 1.15-.12 1.71-.04.29-.27 1.76-.54 1.62-.03-.02-.1-.26-.11-.32-.05-.2-.05-.22-.1-.32-.08-.18-.21-.37-.33-.55-.23-.35-.65-.96-.74-1.07-.11-.13-.27-.31-.41-.41-.02-.01-.08-.01-.38-.03-.02 0-.13-.05-.27-.12-.44-.22-.7-.35-.88-.83m-11.5 2.63c.2-.22 1.38-.88 1.87-1.15.72-.39 1.43-.79 2.15-1.2.68-.39 1.38-.77 2.07-1.14.4-.21.93-.49 1.18-.65.34-.21.98-.59 1.19-.63.14-.03.02.63-.04.75s-.28.25-.53.41c-.18.11-.53.33-.53.33-.19.12-.54.34-.59.37-.93.42-1.89.96-2.72 1.51-.77.51-1.66.99-2.47 1.42-.43.23-1.05.56-1.29.73-.1.07-.45.33-.47.08 0-.14 0-.78.2-.83m-24.01-1.41c-.16-.69.14-3.27.65-3.64.17-.12-.02.74-.03.79-.07.3-.2.88-.2.94-.06.41-.06.74.08 1.14q.06.15.21.42l.18.15c.03.24.46-.26.46-.26.07-.11.27-.42.29-.41.41.21-.58 1.59-.93 1.66-.11.02-.38-.2-.44-.28l-.13-.23-.12-.28zm46.36-1.77c.01.26.86.88 1.21.88.1 0-.04-.78-.06-.85-.06-.21-.12-.39-.28-.49-.3-.18-.92.15-.86.47m-27.09-.59c0 .25.85 1.17.9.53.03-.38 0-1.03-.41-1-.13.01-.51.28-.49.47" fill="#1d1d1b" fill-rule="evenodd"/></svg>