<svg viewBox="0 0 74.91 27.14" xmlns="http://www.w3.org/2000/svg"><path d="m11.63 24.16c.14.16-.23.82-.38.94l-.2.06q-.07.03-.33.14c-.17.08-.33.15-.51.22q-.1.04-.27.1c-.09.03-.3.11-.37.14q-.18.08-.24.1c-.08.03-.3.11-.37.14-.2.09-.46.2-.61.26-.2.08-.57.23-.66.27l-.37.16q-.29.13-.33.14c-.23.08-.81.3-.83.29-.07-.03.14-.64.19-.71s.43-.27.61-.35c.16-.08 1.06-.46 1.6-.69.51-.22.99-.42 1.52-.63.22-.09.52-.23.78-.35.17-.08.72-.33.79-.25m40.54 1.66c-.56-.14-1.42-1.12-1.64-1.63-.2-.46-.39-1.12-.39-1.71 0-.28.04-.67.08-1.02 0-.06.08-.86-.06-.75-1.53 1.2-3.43 2.43-5.28 3.22-1.05.45-2.21.85-3.52 1.14l-.16.04-.2.04c-.2.04-.61.12-.61.12-.23.05-.37.08-.61.12-.19.03-.39.08-.57.12-.6.15-1.76.44-1.97.39-.26-.07.45-.45.45-.45.13-.07.48-.22.7-.31.49-.2.97-.38 1.47-.57 1.08-.4 2.39-.9 3.32-1.51q.19-.09.41-.2c.15-.07.29-.14.43-.22l.26-.16.17-.08q.07-.04.24-.13c.23-.12.54-.29.71-.4.09-.06.58-.34.84-.49.99-.56 2.47-1.41 2.99-1.87.39-.34 1.25-.96 1.86-1.38.35-.25 1.57-1.36 1.66-1.75.05-.21-.45-1.07-.59-1.3-.24-.4-.49-.82-.7-1.22-.23-.46-.61-1.23-.67-1.42-.09-.28-.21-.56-.33-.82-.1-.22-.32-.7-.28-.77l.04-.24q.07-.52.08-.57c.04-.16.15-.58.22-.59.06 0 2.1 2.05 2.15 2.26.02.06-.66.04-.88.04-.15 0 .33.77.33.77l.49.85c.32.51.65 1.05.8 1.71.07.32.09 2.11-.12 2.32l-.04.16s-.09.26-.1.28c-.06.11-.16.25-.24.35-.2.25-.41.5-.63.72-.18.19-.41.38-.63.57-.27.23-.54.46-.7.72-.2.35-.19.99-.18 1.59.04 2.54 3.09 3.03 5.14 2.18.83-.35 1.92-1.12 2.86-1.78.32-.23.68-.52.96-.8.04-.04.2-.17.29-.24l.08-.13c.13-.15.32-.34.47-.47.5-.44 1.7-1.48 1.21-2.2 0 0-.59.12-.75.16-.51.11-.98.2-1.51.24-.55.05-.74.03-1.19-.08-.2-.05-.39-.1-.55-.18l-.13-.09q-.21-.17-.23-.18c-1.23-.53.16-4.53 1.86-4.19.88.17 1.28.42 1.83.88.12.1.43.5.62.74l.25.35c.07.11.1.15.17.22.25.23 2.14-1.28 2.31-1.41.29-.23.77-.6 1.04-.68.35-.1.37.3.35.53-.04.46-.06.75.06 1.06.15.39.6.79 1 .94.38.14 1.07.37 1.45.18l.29-.04.2-.06c.06-.02.07-.02.33-.16s.31-.17.32-.17q.2-.15.21-.15c.6-.31 1.03-1.24 1.29-1.88.07-.17.54-1.04.73-.73.09.14-.02.46-.1.61-.13.27-.27.54-.31.78-.1.66 2.4 1.56 2.9.88.09-.12-.17-.58-.22-.66-.18-.27-.38-.57-.31-.79.03-.08.11-.49.16-.73.04-.19.1-.48.27-.51.33-.06.79 1.58.84 2.02.07.67-.23 1.34-.68 2.31-.31.66-2.05.27-2.55 0-.2-.1-.4-.26-.54-.42l-.2-.22-.1-.13c-.08-.12-.13-.21-.18-.24-.05-.04-.52.7-.55.75-.14.22-.39.53-.63.63-.56.24-1.42.6-1.66.63-.52.06-1.13-.04-1.45-.27-.34-.23-.7-.48-.88-.79-.11-.18-.19-.37-.27-.59-.03-.09-.07-.21-.08-.28l-.04-.33-.02-.12s-1.02.67-1.18.78c-.18.12-.55.39-.57.41-.17.16-.38.31-.58.45-.04.03-.11.81-.15 1.21-.04.47-.12.78-.29 1.1-.91 1.81-3.13 3.66-4.79 4.76-.53.35-1.43.71-2.35 1.08-.99.39-2 .18-2.99-.14m-26.58-1.47c-.46-.56.46-2.46.7-2.9.17-.32-.11.62-.11.62-.14.37-.2.8-.18 1.3 0 .09.11.38.14.45 0 0 .14.25.15.26l.18.15c.02.15.41-.09.42-.11.02-.03.1-.25.13-.34.04-.12.07-.21.16-.23.21-.04-.03.74-.06.82-.14.38-.3.58-.57.82-.47.4-.9-.54-.96-.83m44.13-2.55c.43-.05.74-.21.97-.48.08-.09.17-.23.23-.34.06-.12.22-.44.33-.39.02 0 .01.19 0 .26 0 .12 0 .26.11.32.23.12.52.26.8.14.02 0 .17-.52.24-.75.02-.06.17-.38.26-.57.1-.21.16.57.14.65-.03.15-.07.31-.12.45-.11.31-.29.79-.48.95-.21.17-.41.33-.76.29-.1-.01-.23-.07-.31-.1-.17-.08-.29-.14-.45-.12-.03 0-.15.12-.21.19-.05.05-.16.12-.24.17-.2.13-.45.22-.71.27-.29.04-.6-.15-.84-.3-.34-.21-.76-.06-1.08.08-.23.1-1.01.62-1.49.94-.59.39-2.58 1.71-3.17 1.46-.25-.1.29-.31.29-.31.16-.04.29-.1.41-.18.29-.2.62-.41.88-.57.51-.32 1.06-.68 1.52-1.07.46-.38.96-.74 1.5-1.05.28-.16.63-.29 1-.35.14-.02.37.04.49.1.25.12.61.3.7.3m-36.1-2.33c.17-.08-.02.7-.09.97-.11.43-.2 1-.2 1.38 0 .33.17 1.03.37 1.14.3.18.47.1.57-.24.05-.18.19-.66.34-.56.43.29-.61 1.86-.97 1.93-.7.13-.81-1.58-.76-2.06.12-.99.42-1.76.74-2.55m3.84-.3c-.1-2.93-.79-7.12-1.35-10.46-.03-.17-.11-.81-.16-1.18l-.06-.37-.02-.32c-.02-.22-.05-.45-.08-.65q-.07-.44-.12-.82l-.04-.24-.04-.24-.04-.41c-.03-.22-.08-.62-.1-.73l-.06-.49c-.03-.25-.12-.87-.12-.89-.14-.39-.25-.7-.2-.94.05-.26.41-1.51.59-1.42.44.21 2.25 4.88 2.08 5.12-.08.11-.47-.36-.53-.43-.16-.19-.43-.52-.56-.56-.06-.02 0 .71 0 .71l.02.29q.03.39.08.77c.05.42.15.97.25 1.47l.04.2v.12l.04.2.16 1.1.29 1.88c.33 2.11.86 6.07.82 6.64v1.38c-.03.45-.09 1.02-.2 1.47q-.02.08-.1.32l-.1.33q-.05.15-.14.37c-.06.13-.2.49-.2.49l-.23-.16.04-.21.06-.37c.06-.76.04-1.37.02-1.95m5.27 1.17c-.24-.38-.44-.92-.4-1.44.05-.58.18-1.45.37-2.01.09-.26.15-.45.27-.67.14-.28.32-.65.18-.88l-.23-.2-.35-.26c-.22-.17-.43-.36-.63-.55s-.41-.39-.58-.6c-.09-.12-.16-.18-.28-.27-.16-.12-.26-.19-.29-.31-.14-.55-.16-1.1.03-1.62.04-.11.37.09.46.16.05.03.52.22.76.3.44.17 1.25.48 1.36.58.14.12.01.28-.14.32-.18.04-.51.12-.45.24.12.24 1.05.8 1.35.9.21.07 1.19-1.39 1.35-1.63.2-.3 1.15-1.61 1.36-1.58.07 0-.07.47-.07.5-.06.22-.12.41-.16.65-.09.44-.18.61-.4.91-.31.42-.98 1.37-1.03 1.63 0 .05.17.16.22.19.12.08.36.22.4.25.21.16.42.31.61.49.38.34.65.81.76 1.42.11.59-.12 1.47-.31 1.91-.3.74-2.15 1.84-3.11 1.97-.45.06-.74-.16-1.05-.39m3.7-2.82c-.03-.47-1.87-1.49-2.31-1.53-.34-.03-1.45 2.13-.93 2.77.22.28.65.26.93.19.57-.14 2.2-.97 2.31-1.42m14.1-.81c-.03-.2-.79-.68-1.02-.73-.56-.14-2.05.26-1.35.79.35.27 2.16.33 2.38-.06m-37.05-2.27c-.08-.15.41-1.12.53-1.34.18-.33 1.5.77 1.61.99.1.2-.46 1.22-.6 1.36-.08.08-1.3-.82-1.54-1m-4.17.29c.26-.34-1.7-1.56-2.22-1.6-.21-.02-.89.16-.76.51.07.2.17.36.29.57l.25.36s.16.19.16.19c.26.44.39.66.9.53.12-.03.87-.35 1.38-.56m-12.06-1.72c-.02-.91.15-1.76.7-2.42 1.15-1.34 3.8-2.56 6.09-3.61.58-.26 1.15-.52 1.74-.75.62-.24 1.21-.48 1.8-.73.25-.11.51-.22.76-.31.3-.11.66-.24.9-.35.43-.2 1.61-.71 1.85-.66.24.04-.36 1.01-.44 1.09-.15.15-2.48 1.09-3.42 1.45-1.18.46-2.53.98-3.6 1.55-.92.49-2.26 1.11-3.38 1.63-.6.28-2.43 1.37-2.38 2.04 0 .03.51.37.58.41.25.13.47.26.57.51.03.08-.22.83-.29 1.06-.05.15-.79-.3-.87-.35l-.61-.55zm63.12-2.59c-.28-.87.36-2.59.74-3.2.17-.27-.01.62-.07.74-.15.32-.35.73-.31 1.04.06.44.15 1.2.4 1.32.26.12.46-.02.56-.24.06-.13.26-.54.31-.41.21.52-.42 1.72-1 1.67-.33-.03-.57-.6-.63-.92m-13.74.15-.17-.39c-.06-.18-.23-1.04-.12-.88l.04-.43.04-.28q.05-.33.08-.45c.05-.19.12-.43.19-.57.15-.36.45-1.05.57-1.06.05 0-.27.86-.27.86-.16.38-.21.86-.24 1.32-.03.44.31 1.08.59 1.28s.52-.03.59-.29c.07-.23.19-.65.32-.6.14.05-.08.83-.12.96-.08.28-.16.56-.32.75-.2.23-.34.37-.7.23-.01 0-.23-.17-.32-.23l-.16-.23zm-33.05-.09c-.12-.49-.1-1-.02-1.53 0-.06.12-.91.24-.83.02.01.04.44.05.71.02.35.09.7.21.95.23.46 1.27-.03 1.34-.42.06-.3.01-.6-.04-.94q-.05-.31 0-.53c.05-.22.12-.52.27-.54.23-.02.21.9.2.98 0 .23.03.88.26 1.03.69.46.81 0 .66-.66-.07-.31-.1-.6-.04-.9.03-.14.15-.76.32-.5.1.15.47 1.75.46 2.01-.01.33-.25.87-.5.99-.25.11-.65.29-.87.26-.17-.03-.21-.06-.33-.14-.15-.11-.23-.17-.64.15-.16.15-.3.27-.55.34-.38.11-.7-.16-1.02-.43m18.25-1.02c-.2-.2.44-1.44.65-1.47.2-.03.51.18.76.35.24.15.65.43.8.46.02 0 .7-1.04.75-1.15.19-.41 1.61 1.01 1.65 1.13.15.45-.69 1.57-.84 1.47q-.24-.16-.26-.18c-.09-.08-.41-.33-.41-.33q-.17-.19-.18-.2c-.1-.09-.2-.16-.32-.24-.2-.13-.41.21-.61.53l-.06.16-.08.2c-.06.1-.17.27-.29.31-.26.08-1.56-.94-1.55-1.06m28.66-5.15c.03-.09-.31-.38-.5-.54-.21-.18-.45-.37-.52-.68-.1-.46.12-1.28.35-1.63.16-.25.42-.65.74-.67.26-.02.54.08.62.3.23.58.35 1.47.38 2.11.02.37.15.5.44.79.32.32.29.56.17 1.01-.03.1-.52-.2-.57-.23-.18-.11-.45-.28-.59-.24-.02 0-.17.19-.26.3-.12.15-.23.29-.37.42-.11.1-.25.25-.31.3-.15.12-.3.24-.44.37-.53.49-1.09.94-1.7 1.35-1.22.81-2.58 1.59-4.15 2-.45.12 1.49-1.13 1.61-1.19.66-.4 1.29-.8 1.92-1.22.98-.65 2.83-1.93 3.19-2.52m-45.27-1.1c-.05-.05-.15-.12-.24-.18-.12-.08-.37-.24-.37-.24-.2-.15-.35-.27-.45-.53-.13-.36.19-1.15.36-1.42.27-.43 1.06-.95 1.52-.44.16.18.23.65.25.96.02.29 0 .57-.04.89-.04.27-.06.39.06.55.25.34.79 1.08.34 1.46-.11.09-.42-.21-.48-.28-.14-.18-.26-.33-.51-.25l-2.24 2.33c-.04.08-1.55 1.15-1.8 1.29-.21.12-.29.17-.3.17q-.11.08-.36.24l-.27.16-.14.08c-.21.12-1.3.74-1.41.59-.07-.09 1.21-1.11 1.38-1.25.13-.1.51-.38.76-.56.3-.21.63-.47.98-.73l.21-.17.32-.23.14-.09q.16-.14.19-.16l.23-.19.25-.2.24-.2c.41-.39 1.41-1.33 1.36-1.58m17.58.78s-.14-.16-.22-.24l-.16-.18c-.13-.17-.22-.36-.29-.58-.27-.81 1.21-3.02 1.62-1.88.14.38.22.6.22 1.05 0 .25-.04.65-.08.96-.03.2-.05.34.16.53q.09.06.24.18c.11.09.32.26.32.26.18.18.48.87.11 1.11-.05.04-.23-.1-.27-.14-.11-.09-.21-.17-.32-.23-.29-.17-.7-.4-.83-.36-.01 0-.31.37-.42.51 0 0-.45.47-.62.63-.15.15-.39.39-.46.43-.22.15-.51.35-.69.54-.25.27-3.4 1.85-2.95 1.24.18-.25.81-.63 1.16-.84.45-.27.84-.56 1.26-.86.18-.14.37-.27.56-.4.23-.15.47-.32.67-.5.23-.21 1.12-1.02.99-1.23m-40.51-.77c-.06-.34.18-1.04.36-1.21.39-.37 1.54.84 1.73 1.08.23.29.43.61.64.95.09.15.58.94.63.91s.05-.54.05-.66v-.67c-.02-.25-.04-.63-.04-.65.05-.55.32-1.41.6-1.76.32-.4.88.19 1.03.41.12.18.34.53.38.72.04.24-.17.68-.35.61-.14-.05-.3-.22-.42-.35-.2-.22-.36-.39-.64-.44-.14-.03-.12.96-.12.96 0 .57 0 .75-.06 1.38-.05.54-.12 1.07-.24 1.63-.03.12-.19.86-.35.65l-.02-.16-.04-.17-.06-.16-.14-.28s-.3-.56-.43-.79c-.17-.31-.7-1.2-.94-1.26-.15-.04-.21.13-.27.27-.09.24-.18.46-.31.65-.19.28-.54.79-1.06 1.1-.22.16-.22.16-.22.16-.18.12-.39.27-.59.41-.14.1-1.5.75-1.49.45 0-.04.13-.14.16-.16l.27-.14.16-.07.28-.25.32-.23.33-.24.14-.09c.18-.15.37-.31.55-.45.34-.27.74-.6.97-.98.19-.32.09-.39-.18-.55-.23-.14-.57-.35-.57-.57m45.23 2.77c.47-.45 8.09-4.91 8.27-4.94.21-.04.04.6 0 .7-.12.31-1.48 1.09-2 1.38-.72.41-1.47.85-2.27 1.34l-.12.08-.27.16-.14.08-.43.24q-.12.08-.27.16l-.27.16-.55.33-.25.16s-.18.12-.23.14c-.2.1-.23.11-.45.28-.21.1-.36.19-.53.31-.2.13-.61.4-.71.38-.12-.03-.02-.92.22-.99m11.4-2.77c-.11-.23 0-.97.2-1.07.45-.24 1.62.83 1.88 1.09 0 0 .19.23.24.3l.33.43c.11.14.22.28.31.43.11.18.27.44.35.49.08.04.08-1.12.08-1.18v-.57c0-.48.06-.87.21-1.3.39-1.15 1.71-1.93 2.05-.28.02.12-.09.72-.24.74-.09.02-.8-.6-.81-.67-.03-.29-.6.26-.61.29-.17.28-.13.85-.1 1.16.05.67-.07 1.66-.16 2.38-.04.32-.17 1.25-.4 1.24-.05 0-.13-.26-.17-.38-.07-.24-.18-.43-.31-.61-.32-.48-.79-1.16-1.36-1.68h-.19s-.14.04-.14.04c-.05 0-.22-.09-.33-.14-.3-.15-.75-.37-.82-.69m-46.38.85c-.44-.57.4-3.47.85-3.28l-.07.17q-.09.19-.19.47l-.06.16c-.15.45-.27.98-.14 1.47.06.24.29.65.55.63.18-.01.28-.15.35-.31.06-.14.19-.46.28-.39.27.23-.43 1.36-.48 1.42-.33.41-1.02.18-1.09-.34m58.14-2.15c-.17-.16-.35-.23-.63-.1-.18.08-.37.38-.3.58.1.28.85.71 1.15.74.31.04-.14-1.13-.21-1.22m-28.02.52c.04.31.97 1.26.88 0-.01-.22-.2-.58-.39-.55-.26.04-.58.29-.49.55m-17.1-1.18c.02-.16-.42-.08-.5-.05-.27.09-.37.17-.32.46 0 .06.6.39.77.5.3.17.29-.02.27-.45 0-.15-.1-.42-.22-.46m-11.96 19.4c-.41.93-.88 2.51-.88 3.08 0 .44 0 1.24.22 1.57.33.48.71 1.06 1.15 1.28.28.29 1.38.46 1.76.39.65-.12 1.06-.22 1.49-.51.58-.38 1.15-.84 1.61-1.35.41-.46.86-.93 1.33-1.33 1.02-.84 2.15-1.78 3.39-2.33 1.21-.54 2.66-1 4.09-1.28.76-.15 3.44-1.16 3.66-1.55l.22-.19q.17-.19.26-.33c.11-.17.21-.37.27-.59.25-.99.48-2.29.41-3.09 0 0-.53-4.13-.74-5.7-.11-.82-.29-1.89-.45-2.85-.05-.33-.13-.77-.16-1.02-.03-.22-.07-.52-.08-.73l-.04-.28-.02-.2c.06-.09.48.41.54.48.12.14.64.69.58.13-.03-.28-.36-1.02-.55-1.45-.11-.25-.25-.54-.37-.73-.13-.21-.26-.45-.37-.67-.08-.17-.76-1.52-.92-1.4-.1.09-.21.42-.25.58-.05.18-.13.51-.17.57-.1.2.01.6.08.82.07.2.12.47.17.69l.33 1.91s.23 1.49.33 2.08q.04.26.08.57l.04.29.04.33c.04.29.1.67.16 1.02.39 2.35 1.15 6.96.88 7.74-.08.21-.41.42-.65.57-.14.08-.25.14-.41.22l-.27.14c-.17.12-1.29.51-1.9.71-.33.11-.66.2-1.02.28-.32.07-.61.15-.9.24-1.4.46-3.18 1.05-3.66 1.36-1.12.72-2.12 1.45-3.13 2.24q-.08.06-.22.2l-.21.2-.32.33-.13.08c-.2.22-.35.38-.45.48-.4.37-1.1 1-1.31 1.14-1.01.66-3.04 1.33-3.63-.18-.16-.4-.22-.83-.14-1.34.07-.45.33-1.23.53-1.83.04-.12.12-.3.18-.45 0 0 .04-.09.08-.17l.85-1.59c.07-.12.14-.24.22-.36.17-.25.91-1.29.91-1.29.16-.09.77-.36.96-.24.02 0 .09.25.11.32l.06.16q.07.15.24.14c.2 0 .22-.67.23-.87 0-.12 1.01-.5 1.21-.57q.08-.03.27-.12c.08-.04.14-.06.26-.1 0 0 .33-.13.53-.21.54-.21 1.06-1.55.82-2.12-.28-.65-2.55-2.55-3.36-2.69-1.18-.2-2.02.76-2.19 1.77-.1.62.02 1.04.26 1.53.11.22.25.43.4.62.04.05.37.46.27.52-.03.02-.61.22-.91.33l-.16.06-.16.06-.24.08c-.14.05-.29.09-.41.14-.72.28-1.14.44-1.88.71-.59.22-1.39.53-1.87.9-.45.35-1.01.77-1.51 1.03-.85.45-1.74 1.61-2.3 2.37-.33.45-.72.9-1.12 1.28l-.18.23-.31.28c-.18.16-.67.64-.67.65-.49.7-2.27 1.13-3.26.76-.92-.34-.95-2.42-.61-3.26.52-1.29 1.1-2.75 1.41-3.24.01-.02.23-.14.47-.27.14-.07.21-.17.31-.31.16-.21.29-.44.39-.71.08-.21.16-.47.2-.69.05-.23.25-1.24-.02-1.2-.13.03-.21.32-.26.55-.04.17-.1.39-.17.53-.16.34-.41.75-.82.42-.3-.24-.45-.56-.61-.95-.1-.25-.14-.58-.16-.89v-.88c-.04-.27.12-1.02.2-1.4l.04-.16.08-.28.04-.16.04-.16.04-.24.04-.24.04-.2.08-.33c.05-.16.12-.42.12-.45l-.02-.16h-.2s-.07.16-.12.27c-.04.08-.06.14-.1.26l-.12.37c-.09.28-.17.57-.24.85l-.24.98-.04.16-.08.28-.04.21-.04.33-.04.2c-.12.35-.06 2.12.12 2.56l.08.29c.08.2.17.42.25.56.04.06.17.19.27.28l.15.22c.05.17-.38.87-.57 1.18-.07.12-.42.84-.59 1.22-.26.56-.77 2.15-.65 2.85s.26 1.26.47 1.77c.15.35.59.68.98.96l.18.08.14.08.16.06.24.08c.29.1.64.13 1.02.16.54.05 1.1-.16 1.43-.39.65-.44 1.23-1.02 1.72-1.63.95-1.21 2.45-3.08 3.57-3.69.02 0 .41-.33.57-.45l.14-.09.14-.06.23-.14.14-.08c.2-.12.43-.26.66-.37l.2-.08.14-.08.14-.06.12-.06.16-.06c.47-.23 1.02-.49 1.39-.61.19-.06 1.38-.46 1.36-.39-.05.26-.49.94-.71 1.26 0 0-.01.02-.02.03l-.8 1.45z" fill="#1d1d1b" fill-rule="evenodd"/></svg>