<svg viewBox="0 0 72.12 27.45" xmlns="http://www.w3.org/2000/svg"><g fill="#221e1f" fill-rule="evenodd"><path d="m13.8 25.54a.31.31 0 0 0 -.33-.33c-.15 0-.22.09-.28.19s-.18.29-.28.31.16-1.44.83-1.61c.22-.06.45.23.5.41a3.35 3.35 0 0 1 -.3 1.57 3.7 3.7 0 0 1 -1.07 1.34c-.35.2.27-.74.33-.82a4.86 4.86 0 0 0 .6-1.06z"/><path d="m22.79 25.56.54-.26.67-.3c.46-.2 1-.44 1.39-.58s1-.41 1.48-.61l.16-.06.19-.08.26-.12c.13-.06.72-.33.76-.24a1 1 0 0 1 -.27.93 21.56 21.56 0 0 1 -3.09 1.31l-.28.1-.2.08-.24.1-.71.28-.18.06-.3.12-.19.08s-.23.14-.25.12.16-.87.25-.93z"/><path d="m71.26 12.57a4 4 0 0 0 -.43 1.43.81.81 0 0 0 .2.39c.12.17.47.73.33.89-.6.7-2.75-.2-2.88-.86a2.58 2.58 0 0 1 .26-.75s.41-1.07 0-.73a4.36 4.36 0 0 0 -.72 1.1l-.6 1.08a3.25 3.25 0 0 1 -2 1.11 3.71 3.71 0 0 1 -1.42-.23 2 2 0 0 1 -.92-.87 1.34 1.34 0 0 1 -.1-.83v-.52c0-.27-.26-.3-.48-.19a6.6 6.6 0 0 0 -.94.7c-.19.15-2 1.53-2.25 1.33a3.15 3.15 0 0 1 -.41-.55 3.07 3.07 0 0 0 -.41-.48 3.52 3.52 0 0 0 -1.08-.88 2.53 2.53 0 0 0 -1.3-.26c-.5.07-1.86 1.21-1.73 1.72a.76.76 0 0 1 -.08.25c0 .07-.11.59-.12.61a4.53 4.53 0 0 0 0 .81 1.33 1.33 0 0 0 .51.9 2.58 2.58 0 0 0 1.31.46 6.8 6.8 0 0 0 2.34-.32c.26-.08.56-.19.68 0s.25.41.1.58a.94.94 0 0 0 -.18.22.89.89 0 0 1 -.16.22l-.28.35-.56.6a14.78 14.78 0 0 1 -1.35 1.27c-.5.4-1.91 1.37-2.92 2.07a6 6 0 0 1 -2.24.65 3.29 3.29 0 0 1 -1.72-.22 4.16 4.16 0 0 1 -1.18-.93c-.34-.35-1-2.64-.43-3l.14-.25a.52.52 0 0 1 .18-.18l.34-.27a3.52 3.52 0 0 0 .66-.62 9.34 9.34 0 0 0 1.06-1.53 5.43 5.43 0 0 0 .08-2.41 5.83 5.83 0 0 0 -.78-1.63l-.24-.39c-.07-.13-.15-.28-.23-.4s-.55-.89-.32-.87l.67.1c.28 0 .09-.33 0-.43l-.18-.17-.21-.23a3.79 3.79 0 0 0 -.52-.44l-.21-.18-.28-.26s-.65-.66-.68-.66a4.17 4.17 0 0 0 -.27 1.6 1 1 0 0 0 .14.3 1.88 1.88 0 0 1 .14.29c.09.2.18.42.26.64a13.6 13.6 0 0 0 1.15 2.3c.35.57 1.05 1.7.65 2.19a10.55 10.55 0 0 1 -1.63 1.5 25.26 25.26 0 0 1 -3.61 2.55 5.88 5.88 0 0 0 -.56.32l-.54.32-.57.32-.14.07-.26.16c-.4.23-.78.44-1.1.64a6.74 6.74 0 0 1 -1.13.59 1.52 1.52 0 0 0 -.3.16l-.14.08-.22.12-.81.39c-.44.21-1.08.45-1.53.62l-.72.28a3.7 3.7 0 0 0 -.4.18l-.32.12-.51.19a1.28 1.28 0 0 1 -.32.14c-.09 0-.58.34-.49.41a8.78 8.78 0 0 0 2-.37l.64-.12.35-.08h.16l1-.2a13.07 13.07 0 0 0 3.32-1.09l.86-.43.74-.39a14.93 14.93 0 0 1 1.38-.84c.08 0 .52-.33.74-.48s.24-.15.33-.23a1.31 1.31 0 0 1 .25-.16c.08-.06 1.22-.76 1.24-.76s0 1 0 1.37a6.26 6.26 0 0 0 .08 1.21 3.61 3.61 0 0 0 1.82 2.47 4.16 4.16 0 0 0 3.1.19 7.71 7.71 0 0 0 2.23-1 23 23 0 0 0 3.23-2.64l1.73-2.33a2.75 2.75 0 0 0 .23-.95v-.32-.34-.12-.39a5.53 5.53 0 0 1 1.13-1c.2-.15.41-.33.61-.51 0-.05.58-.43.61-.34.37 1.07.6 1.72 1.37 2.15a2.92 2.92 0 0 0 1.6.35 8.55 8.55 0 0 0 1.62-.69 2.55 2.55 0 0 0 .67-.68s.53-.86.56-.67c.06.46.93 1 1.35 1.18 1.62.63 2.44-.14 2.8-1.66.13-.55-.35-3.17-.84-2.91zm-13.6 3.65c-.38.09-2.34.39-2.44-.1s.63-.9 1.14-.81c.35.06 1.53.54 1.3.91z"/><path d="m65.24 20.94a1.33 1.33 0 0 1 .88-.1l.39.22a.8.8 0 0 0 .56.14 1.51 1.51 0 0 0 .92-.52 3.78 3.78 0 0 0 .22-.33c.07-.15.2-.42.31-.35v.15s0 .47.14.43l.16.08.16.06a.48.48 0 0 0 .42 0s.13-.36.28-.79c.06-.18.19-.57.38-.55s-.16 1.21-.2 1.34a1.61 1.61 0 0 1 -.72 1 .92.92 0 0 1 -.71 0c-.23-.08-.47-.16-.54-.09a2.22 2.22 0 0 1 -1 .57 1.11 1.11 0 0 1 -.87-.22 1.14 1.14 0 0 0 -1-.05 5.48 5.48 0 0 0 -1.21.73l-.13.09-.21.15a.66.66 0 0 0 -.25.19 2.5 2.5 0 0 1 -.34.24c-.54.33-2.07 1.26-2.66 1.07a12 12 0 0 1 1.12-.75c.43-.26.86-.57 1.28-.87l.23-.17.12-.07a1.38 1.38 0 0 0 .32-.24 2.66 2.66 0 0 0 .32-.24 1.5 1.5 0 0 0 .23-.17 5.45 5.45 0 0 1 1.42-.86z"/><path d="m1.12 23.3a33.61 33.61 0 0 1 4.78-2.42c.12.06-.12.8-.19.88s-1.1.49-1.2.52-.74.38-1.08.56l-.14.06-.29.1-.15.06-.4.21-.24.12c-.24.12-.46.25-.68.38s-.57.36-.71.3.11-.76.27-.81z"/><path d="m23.89 20.61a1.11 1.11 0 0 0 1.53-.61 23.49 23.49 0 0 0 -.8-3.29 13.91 13.91 0 0 0 -.52-1.54 2.4 2.4 0 0 1 .21-1.68c.23-.27.76 1.11.81 1.24s.33 1 .5 1.47a14 14 0 0 1 .43 1.66 5.4 5.4 0 0 0 .58 1.78 3 3 0 0 0 1.72 1.36 3.64 3.64 0 0 0 3-.75 27.82 27.82 0 0 0 -.52-3.59c-.19-1.05-.55-3.06-.6-3.41s-.07-.46-.12-.71c0-.09-.11-.68-.16-1v-.24-.24-.23c-.05-.35-.06-.44-.08-.52a3 3 0 0 1 -.08-.43c0-.21-.38-2.46-.6-3.88a23.17 23.17 0 0 0 -.66-3.33 1.92 1.92 0 0 1 .16-1.19c.11-.3.42-1.2.58-.43 0 .18.66 1.29 1.06 2 .17.3 1 1.8.75 2s-.53-.3-.62-.38-.46-.42-.51-.4a14.67 14.67 0 0 0 .05 1.81c0 .32.1.65.15 1v.27.16.28.28c.2 1.17.46 2.71.64 3.52v.16.35.24c0 .24 0 .24.08.44l.05.19v.24.2.28l.07.43v.16l.05.2v.28.19c.06.29.12.56.16.88v.23.24a5.66 5.66 0 0 0 .08.63 16 16 0 0 1 .87 2.07v.38.33a2.18 2.18 0 0 1 -.08.44c-.05.2-.13.44-.2.67s-.54 1.18-.87 1.36l-.14.06-.14.08a3.43 3.43 0 0 1 -.59.22 3.91 3.91 0 0 1 -2.27 0 3.62 3.62 0 0 1 -1.9-1.85c-.08-.19-.23.47-.23.48a1.56 1.56 0 0 1 -.22.56 1.84 1.84 0 0 1 -1.25.65 3.29 3.29 0 0 1 -1.38-.37 3 3 0 0 1 -.37-.25c-.13-.11-.31-.25-.41-.22l-.17.27a3.41 3.41 0 0 1 -.25.37 5.11 5.11 0 0 1 -.52.52 2 2 0 0 1 -1.06.32 1.73 1.73 0 0 1 -1.1-.43.78.78 0 0 1 -.26-.28c-.07-.13-.27-.47-.31-.45s-.39.48-.49.62a1.8 1.8 0 0 1 -.65.49 2.82 2.82 0 0 1 -2.44 0 1.69 1.69 0 0 1 -.49-.43c-.12-.15-.37-.45-.43-.45s-.38.42-.45.49a1.3 1.3 0 0 1 -.31.21l-.37.22a4.31 4.31 0 0 1 -1.66.57 4.83 4.83 0 0 1 -2.26-.33 2.45 2.45 0 0 1 -.59-.4 3.31 3.31 0 0 1 -.29-.23 2.4 2.4 0 0 0 -.28-.27c-1.31-.89-1.85-6.62-1.85-8.25 0-.84-.44-4.53-.76-7.24-.06-.53-.25-1.64-.4-2.54-.06-.35-.11-.58-.2-.94a3.46 3.46 0 0 1 -.16-.8l.12-.31v-.2-.16a1.78 1.78 0 0 1 .28-.53c.6-.79 1.38 7.21 1.4 7.38v.47l.06.44c0 .35.09 1 .1 1 0 .33.1 1 .16 1.5 0 .21.11 1.38.16 2a29.34 29.34 0 0 0 .48 4.12c.66 2.29 2 4.57 5.08 3.34a3.56 3.56 0 0 0 1.83-1.48c.19-.27.52-.72.71-.7s0 .46 0 .62a1.28 1.28 0 0 0 0 .75 1.59 1.59 0 0 0 1 .77 2.59 2.59 0 0 0 2.36-.79c.06-.06.44-.55.63-.81s.45-.6.76-.53c.07 0-.16.5-.17.52a1 1 0 0 0 -.1.52c.06.62 1 .87 1.57.69a1.75 1.75 0 0 0 .92-.79l.08-.16.08-.14.14-.1.08-.2.08-.15c.09-.2.28-.57.45-.58s.09.2.08.26v.35c0 .12 0 .12.14.3a1.78 1.78 0 0 0 1.08.64z"/><path d="m32.93 2.56a3 3 0 0 1 .61-1.88l.1.21v.24.2s.19.4.26.53l.14.22.06.16.08.14.24.55c.17.34.5 1 .54 1.13s.41 1.58.18 1.25a4.4 4.4 0 0 0 -.9-.83c-.12-.07 0 .75 0 .89l.08.55v.2.24c.1.66.21 1.29.32 2l.72 3.64c.44 2.57.72 5.08 1 7.9a7.31 7.31 0 0 1 -.24 2.47 2.49 2.49 0 0 1 -.35.83c-.14.1-.26 0-.25-.21v-.18a1.67 1.67 0 0 0 0-.51c-.12-2.49-.46-4.82-.8-7.21-.23-1.62-.58-3.84-.88-5.78-.19-1.21-.34-2.32-.48-3.56a31.11 31.11 0 0 0 -.48-3.17z"/><path d="m1.07 18.93c-1.51-1-1.34-1.94 0-3.12a4 4 0 0 1 1.32-.81 1 1 0 0 1 .82.23c.18.11.43.6.32.82s-.41.81-.54.81-.21-.18-.32-.32a1 1 0 0 0 -.4-.31c-.41-.18-.89.2-1.1.42-.69.72.87 1.16 1.5 1.28a3.17 3.17 0 0 0 1.39-.24 2.74 2.74 0 0 1 1.15-.23c.43.21-.34 1.07-.59 1.16-.46.18-.94.32-1.43.46a6.3 6.3 0 0 0 -1.47.61l-.22.12-.26.19-.16.08-.35.24a.61.61 0 0 1 -.34.17c-.2 0 .11-.63.13-.69a2.86 2.86 0 0 1 .23-.41c.12-.12.37-.35.32-.43z"/><path d="m43.94 15.32a2.21 2.21 0 0 0 -.73-.73 4.9 4.9 0 0 0 -.48-.31c-.09 0-.39-.23-.39-.3a3 3 0 0 1 .53-.93l.56-.82c0-.07.81-2.07.53-2a7.82 7.82 0 0 0 -1.37 1.7 12.07 12.07 0 0 1 -1.23 1.58 4.81 4.81 0 0 1 -1.44-.89c-.05-.16.16-.21.36-.25s.3-.07.3-.22-.56-.35-.78-.44l-.48-.17-.27-.1-.64-.24a2.48 2.48 0 0 0 -.43-.25 3.2 3.2 0 0 0 -.11 1.68c0 .09.26.25.4.35a2 2 0 0 1 .29.29c.28.31.28.31.48.51a5.82 5.82 0 0 0 .71.61l.2.16.44.34a1.61 1.61 0 0 1 -.27.76c-.11.24-.2.49-.29.74a7.55 7.55 0 0 0 -.32 2.13s0 0 0 .24a1.35 1.35 0 0 0 .07.44 2.24 2.24 0 0 0 .14.39l.16.26c1 .87 2.24 0 3-.54a4.54 4.54 0 0 0 1-.83 1.94 1.94 0 0 0 .3-.63s0-.24.07-.64l.08-.55a3.74 3.74 0 0 0 -.39-1.34zm-3.08 3.17c-1.85-.56.39-3.06.44-3 .4.08 2.48 1.15 2.25 1.63 0 .1-2.08 1.56-2.69 1.37z"/><path d="m11.4 18.05a1.62 1.62 0 0 1 -.31-.58l-.09-.24v-.16l-.06-.31a10 10 0 0 1 .1-1.87v-.15l.18-.28-.05-.18c0-.11 0-.11 0-.3a5.21 5.21 0 0 1 .59-1.68c.31-.31-.09 1.3-.12 1.4a6.76 6.76 0 0 0 -.16 1.71 2.07 2.07 0 0 0 .88 1.8c.15.11.33-.24.36-.34a4.26 4.26 0 0 1 .25-.65c.51-.44-.19 1.71-.23 1.78s-.29.53-.6.52a1.63 1.63 0 0 1 -.78-.47z"/><path d="m15.72 13.66a2.17 2.17 0 0 1 .13-1.18c.18-.47 1.62.76 1.76.9l.23.19a3.26 3.26 0 0 1 .36.39c.06.07.66.8.63.49-.08-.84-.25-3 .35-3.31.21-.11.34-.07.63 0a1.27 1.27 0 0 1 .54 1.63c0 .06-.63-.43-.7-.48-.56-.47-.56 0-.53.51.08.89.13 1.55.13 2.15 0 .16-.18 1.5-.4 1.37l-.06-.16-.09-.16a3.19 3.19 0 0 0 -.32-.43c-.25-.32-.58-.72-.76-.9-.43-.42-.43-.42-1-.4-.4 0-.71-.35-.88-.61z"/><path d="m26.81 13.26a3.82 3.82 0 0 1 .66-2.71c.22-.22 0 .43 0 .57a2.75 2.75 0 0 0 -.18.63c-.07.42 0 1.4.4 1.48s.36-.14.44-.41c.16-.57.26-.18.24.24s-.28 1.13-.7 1.2-.74-.61-.81-1z"/><path d="m1.29 8s-.1.68-.16 1a6 6 0 0 0 -.13 1.43 1.6 1.6 0 0 0 .57 1.1c.25.16.33 0 .42-.23s.22-.58.23-.57c.34.12-.2 1.76-.57 1.87s-.93-.86-1-1.34a10.39 10.39 0 0 1 .16-2.14c0-.22.23-1.3.48-1.12z"/><path d="m8.54 11.08c1.38-1.05 10.64-6.14 11.18-6 .23.06-.09.78-.14.88a1.26 1.26 0 0 1 -.72.52c-.39.17-1.22.61-1.79.91-1.07.61-3.07 1.61-3.42 1.8a24.48 24.48 0 0 0 -3.54 2l-.76.44a6.26 6.26 0 0 0 -.74.48c-.14.1-.51.37-.45.07s.2-1 .38-1.08z"/><path d="m22.51 10.78c-.15-.25.49-1.39.73-1.46a4.32 4.32 0 0 1 1.4 1c.11.36-.43 1.18-.69 1.42-.11.09-.6-.29-.71-.37a6 6 0 0 0 -.54-.37z"/><path d="m67.56 9.81c-.13-.61.24-3.2.79-3.26.17 0-.26 1-.29 1.07a2.39 2.39 0 0 0 -.19 1 1.63 1.63 0 0 0 .45 1c.37.2.57-.21.67-.52s.23-.13.2.16a2.42 2.42 0 0 1 -.19.74c-.4 1-1.26 1-1.47-.16z"/><path d="m53.51 8.16a9.33 9.33 0 0 1 .74-2.16 9.31 9.31 0 0 1 -.25 1.21 2.05 2.05 0 0 0 .35 2c.17.14.35.28.57.14a.66.66 0 0 0 .18-.35c0-.2.13-.58.27-.5.35.19-.36 1.91-.8 2-.28 0-.61-.26-.72-.44a2.67 2.67 0 0 1 -.34-1.88z"/><path d="m38.88 8.91c-.12-.39.42-1.25.65-1.46s.7.32.84.42a2 2 0 0 0 .74.4c.1 0 .35-.47.4-.59a1.16 1.16 0 0 1 .49-.62c.18-.1 1.28.81 1.42 1 .43.53-.46 1.71-.69 1.64a6.17 6.17 0 0 1 -.7-.52 2.67 2.67 0 0 0 -.71-.49s-.31.53-.38.65-.33.62-.35.62c-.24 0-1.68-.77-1.68-1z"/><path d="m69.18 3.35-.12-.08-.23-.18a1.32 1.32 0 0 1 -.16-.68v-.47-.38-.41a2.23 2.23 0 0 0 -.52-.91c-.39-.51-1 .47-1.13.63a2.43 2.43 0 0 0 -.34 1.62c0 .2.29.42.47.59a1.65 1.65 0 0 0 .33.24.59.59 0 0 1 .26.26 12.88 12.88 0 0 1 -3.12 2.56c-.17.1-.48.32-.48.32s0 0-.19.15l-.27.16-.88.56s-2 1.3-1.83 1.29c1.44-.08 3.19-1.28 4.24-2a18.86 18.86 0 0 0 1.63-1.29l.79-.72c.11-.12.23-.26.33-.39a2.34 2.34 0 0 1 .25-.29c.18 0 .39.1.6.23s.44.29.55.23-.05-.92-.18-1.04zm-.93-.78c-.17.13-1.37-.55-1.25-1 .11-.22.54-.63.88-.36.04.07.63 1.17.37 1.36z"/><path d="m21.85 7.3a9.84 9.84 0 0 1 0-2.16c0-.09.22.28.22.3v.26c0 .53 0 .53.07.69.16.43.83.23 1 0s.14-.65.09-1.08c0-.22 0-1.27.24-1.16.11 0 .17.53.2.72a2.77 2.77 0 0 0 .33 1.13 1 1 0 0 0 .82.16c.08 0-.09-.37-.11-.41s-.12-.32-.18-.49-.11-1.26.15-1.26a15.52 15.52 0 0 1 .85 1.77 1.81 1.81 0 0 1 -.27 1.14.84.84 0 0 1 -.75.35l-.51-.12a2.79 2.79 0 0 0 -.47-.14l-.1.14-.16.2a1.19 1.19 0 0 1 -.51.31.82.82 0 0 1 -.91-.36z"/><path d="m8.89 3.75c-.14-.27-.28-1.22.14-1.31a1.22 1.22 0 0 1 .71.26l.14.08.13.08.19.14a4.7 4.7 0 0 1 .9 1c.14.19.27.41.4.62a3 3 0 0 0 .43.61s0-1.27 0-1.29a4.61 4.61 0 0 1 .2-1.38c.15-.46.41-1.24 1-1a1.52 1.52 0 0 1 .66 1.3c-.07.44-.21.62-.51.25s-.4-.49-.62-.54-.3 1.36-.3 1.44v.52a4.63 4.63 0 0 1 0 .53l-.08.54c0 .17-.07.4-.08.47s-.12 1.06-.33.9l-.06-.14-.06-.16-.08-.2a2 2 0 0 0 -.27-.47l-.06-.15-.48-.73a5 5 0 0 0 -.66-.77c-.06-.05-.09-.05-.38-.1a1.32 1.32 0 0 1 -.41-.14 2 2 0 0 1 -.52-.33z"/><path d="m42.1 3.94a3 3 0 0 0 -.92-.86c-.13-.08-.08-.69-.06-.89a6.86 6.86 0 0 0 .05-1.1c0-.3-.24-.76-.62-.69a2.07 2.07 0 0 0 -1.21 2 1.35 1.35 0 0 0 .3.65 1.86 1.86 0 0 0 .22.27c.35.49-1.2 1.73-1.5 1.93s-.66.45-1 .7a5.77 5.77 0 0 1 -.59.45s-.54.54-.2.57a9.31 9.31 0 0 0 1.79-.87s.42-.35.6-.48.4-.4.58-.6l.32-.32.31-.33a4.88 4.88 0 0 1 .42-.44 3.14 3.14 0 0 1 1.24.76c.17.17.32-.69.27-.75zm-1.47-1.31c-.19.07-.72-.42-.8-.63s.36-.68.64-.55.44 1.09.16 1.18z"/><path d="m44.68 5.54.92-.62.14-.08.14-.08.38-.23.14-.08.38-.24 2.37-1.43c.83-.44 1.7-1 2.58-1.51l.4-.23.67-.41c.67-.41.22.66 0 .85a46.89 46.89 0 0 1 -4.45 2.73c-.77.44-1.52.88-2.27 1.35l-1.08.71c-.83.63-.41-.64-.29-.73z"/><path d="m.57 5.83a3.06 3.06 0 0 1 -.12-1.58 6.22 6.22 0 0 1 .24-1c.05-.16.34-1 .43-1s-.12.75-.12.89a2.85 2.85 0 0 0 -.2 1.15c0 .47.28 1.21.7 1.21.18 0 .28-.18.34-.34s.18-.56.27-.4c.21.36-.32 1.43-.46 1.58-.43.48-.88-.2-1.05-.51z"/><path d="m56.17 2.66a1.58 1.58 0 0 1 .11-1c.07-.18.66 0 .84.12a5.58 5.58 0 0 1 1.37 1.22l.5.66a3.85 3.85 0 0 0 .55.66 5.62 5.62 0 0 0 .06-.56l-.05-.32v-.44a11.26 11.26 0 0 1 .16-1.54c.09-.36 1-1.78 1.47-1.35a1.87 1.87 0 0 1 .64.83c.06.21-.09.82-.3.85 0 0-.31-.31-.34-.35a1.32 1.32 0 0 0 -.45-.32c-.19-.06-.44.16-.57.28s-.16.53-.16.7v1.56s-.15 2.61-.55 2.47c0 0-.08-.3-.08-.31a1 1 0 0 0 -.14-.36c-.11-.18-.2-.33-.32-.49l-.16-.24-.17-.23-.41-.5a4.57 4.57 0 0 0 -.38-.37c-.06-.06-.13-.13-.17-.13h-.15c-.22 0-.22 0-.32 0a1.66 1.66 0 0 1 -1-.79z"/><path d="m19.91 3.92a2.77 2.77 0 0 1 -.2-1.27v-.2-.16-.16a6.55 6.55 0 0 1 .2-.67c.06-.14.45-1.1.56-.83a2.21 2.21 0 0 1 -.24.71 3.78 3.78 0 0 0 -.16 1.15c.08.32.13.52.14.53l.24.3c.12.37.52-.43.54-.49.14-.4.07.7 0 .81s-.29.66-.42.69-.56-.19-.82-.41z"/></g></svg>