<svg viewBox="0 0 77.22 26.6" xmlns="http://www.w3.org/2000/svg"><path d="m8.67 25.65c.39-.28 3.61-1.65 4.02-1.6.18.02-.18.88-.27.96-.07.06-4.09 1.59-4.09 1.59-.22-.04.19-.86.34-.95m28.88-2.55c-.18-.21-.45-.24-.71-.09-.09.05-.13.1-.19.18-.09.13-.21.3-.29.3-.19.01.19-.93.25-1.04.08-.15.61-.75.82-.65.73.36.77.47.59 1.36-.06.29-.96 1.92-1.23 2.04l-.23.19-.27.18-.21.16c-.23.18-.78.49-1.06.39-.04-.01.57-.56.63-.6.27-.21.55-.44.79-.67.3-.29 1.4-1.35 1.09-1.75m-36.28 2.41c-.3-.18-.52-.56-.72-.9-.11-.19-.17-.44-.21-.61q-.03-.16-.08-.29c-.67-.5.26-3.37.53-3.89.11-.2.22-.42.33-.63.11-.22.24-.45.37-.65.23-.37.65-1.05.48-1.27-.82-1.1-.69-2.44-.5-3.88.1-.8 1.38-4.39 1.71-4.66.6-.48-.42 1.97-.42 1.97-.29.64-.56 1.3-.68 2.12-.12.83-.21 1.58.04 2.44.08.26.17.49.32.68.08.11.63.69.78.31.09-.23.48-1.19.74-1.17.13.01-.09.78-.12.87-.1.35-.2.71-.35.98-.13.24-.3.48-.48.66-.03.03-.24.11-.38.17-.09.04-.18.13-.34.3-.63.68-1.16 2.17-1.52 3.26-.14.42-.28 1.43-.12 1.75l.04.16.06.17q.07.18.12.3c.03.07.12.28.25.46.12.13.16.17.17.18.13.2.76.22 1.05.21.67-.03 1.33-.38 1.75-.68.76-.54 1.46-1.26 2.07-1.96.5-.58 1.59-1.75 2.22-2.02l.21-.18c.1-.08.21-.16.32-.23.2-.13.43-.27.65-.41.47-.29.98-.57 1.53-.77.85-.31 1.75-.56 2.7-.75.91-.18 1.86-.41 2.64-.75.56-.24 2.03-.88 1.15-1.51-.43-.3-.88-.34-1.45-.35-.54 0-1.54-.02-1.8-.12-.2-.08-.43-.17-.51-.22q-.15-.1-.23-.2c-.1-.11-.22-.25-.24-.25-.17-.05-.18-1.12-.18-1.3 0-1.04 1.63-3.07 2.76-2.5 1.25.62 1.85 1.62 2.5 2.83.3.56.39 1.44.39 2.14 0 .91-.77 2.35-1.43 2.63-1.01.42-2.26.94-3.29 1.16-.82.17-3.74 1.02-3.98 1.38-.05.07-1.38.97-1.64 1.13-.49.29-1 .84-1.4 1.28-.42.45-.85.92-1.37 1.44q-.14.16-.47.47l-.57.52-.23.14c-.73.73-2.45.75-3.16.05m51.45-1.88c-.2-.31-.32-1.01-.37-1.36-.05-.34-.04-.74-.02-1.04l.04-.26.04-.37c.04-.32.05-.44 0-.58-.02-.05-.53.22-.62.27l-.31.27-.16.08-.14.08-.72.49-.29.16c-.12.08-.26.17-.39.24-.93.53-2.21 1.26-2.93 1.55-1 .41-2.17.79-3.44 1.04l-.9.16c-.23.05-.45.09-.7.12-.19.03-.45.08-.53.1-.6.14-1.82.42-2 .37-.25-.08.44-.4.45-.41.27-.13.56-.25.86-.35l1.56-.57c1.03-.34 2-.76 2.91-1.24 2.13-1.13 4.58-2.43 6.2-3.5.77-.51 3.78-2.67 3.72-3.18-.04-.41-.51-1.25-.8-1.75-.2-.35-.82-1.44-.82-1.44-.1-.21-.19-.45-.27-.67-.12-.35-.25-.74-.35-.98-.16-.36-.27-.64-.23-.9.02-.12.23-1.21.29-1.19.08.02 1.02.96 1.41 1.35.19.19.57.58.61.64.07.12.23.36.04.41l-.16-.04-.21-.04s-.46-.07-.43.02c.05.12.42.86.68 1.36.11.21.2.4.33.59.12.19.23.38.31.61.39 1.17.42 2.85-.27 3.82-.15.21-.62.69-.94 1.02 0 0-.38.32-.53.45-.28.23-.41.36-.63.66-.57.79-.02 2.35.4 2.96.31.46.72.69 1.22.96 1.04.57 2.68.11 3.77-.31 1.34-.52 5.02-3.48 5.65-4.68.12-.23.03-.48-.11-.66-.08-.11-.28-.04-.38 0-.25.09-.51.16-.82.2-.61.09-1.6.23-2.01.12-.44-.11-.76-.3-1.09-.49-.63-.38-.45-1.98-.18-2.62.23-.54 1.16-1.81 1.96-1.61.33.08.87.3 1.37.51.22.09.63.54.83.78l.25.34.16.25c.08.12.19.28.26.36.22.24 2.09-1.11 2.22-1.19q.09-.07.23-.2l.22-.17c.21-.15.66-.47.84-.47.23 0 .23.4.23.57 0 .43 0 .95.1 1.14.22.42.58.69 1 .92.48.26 1.03.22 1.62.14.58-.08 1.17-.57 1.59-.92.11-.09.51-.8.7-1.15.24-.44.47-.87.75-1.09.32-.25-.02.8-.05.87-.12.23-.27.5-.16.73.14.3.83.75 1.18.84.37.09 1.45.32 1.65-.07.05-.11-.09-.45-.14-.56-.03-.07-.13-.22-.17-.28-.11-.15-.18-.24-.21-.41-.05-.23.3-1.41.47-1.45.14-.03.59 1.09.71 1.41.47 1.17-.21 2.25-.65 2.94-.42.66-1.95.29-2.48-.01-.18-.1-.38-.29-.55-.45-.11-.11-.18-.18-.27-.31-.08-.13-.21-.32-.26-.33-.07-.02-.23.27-.27.33-.08.14-.15.26-.24.39-.16.21-.36.42-.56.58-.43.34-.95.5-1.57.66-.57.14-1.17-.05-1.6-.22-.83-.34-1.21-1.24-1.29-2.21 0-.03-1.3.83-1.3.83-.26.17-1.1.78-1.15.93-.01.04-.08.73-.08.78 0 .07-.07.69-.08.77-.03.2-.13.42-.23.57-1.25 1.93-2.92 3.41-4.83 4.68-.71.47-1.55.77-2.37 1.04-.63.2-1.47.25-2.17.12-.91-.17-2.21-1.02-2.42-1.83m-37.3.62c.04-.06 1.13-.51 1.23-.54.3-.08.97-.41 1.37-.61.48-.24 3.28-1.41 3.31-1.4.16.05-.06.92-.23.98-.12.04-.56.29-.79.42l-.16.06c-.13.05-.29.13-.41.18-.31.14-.59.27-.9.39-.16.06-.4.16-.49.2-.13.07-.29.14-.43.2-.57.25-1.18.51-1.74.71l-.12.04-.16.06-.2.08c-.1.04-.28.12-.29.12-.44.1-.15-.75.01-.91m-6.24-.52c.33-.23 3.54-1.69 3.78-1.64.2.04-.29 1-.42 1.05l-.16.06-.2.08-.18.08-.14.08-.33.14c-.39.17-.87.37-1.19.51-.35.15-1.05.46-1.17.53-.34.2-.33.01-.24-.36.03-.17.11-.52.26-.53m61.25-2.63c.32-.1.64 0 .85.15.31.22.65.33 1.12.11.21-.1.44-.28.56-.46.09-.13.44-.6.46-.6l.02.18q.03.36.14.43c.2.12.49.24.71.12.14-.07.17-.21.2-.41.04-.2.09-.44.14-.55.26-.52.43-.35.35.18-.1.67-.5 1.58-1.08 1.77-.18.06-.44 0-.57-.06-.29-.12-.44-.18-.55-.16-.04 0-.2.17-.23.2-.12.11-.12.12-.22.17-.16.09-.35.16-.55.22-.3.1-.6-.08-.78-.18-.24-.15-.41-.25-.78-.22-.43.03-.97.38-1.29.59l-.62.41-.26.17q-.13.12-.19.15c-.64.37-2.21 1.28-2.79 1.15-.19-.04.6-.46.6-.46.23-.12.47-.27.7-.41l1.35-.9c.11-.07.78-.55 1.16-.83.19-.14.4-.28.6-.39.15-.09.34-.17.49-.24l.16-.06.16-.04.12-.04zm-44.93 1.43c-.79-.28-1.37-.58-2-.96-.42-.26-.89-.82-1.07-1.32l-.08-.16-.08-.14-.12-.33c-.03-.08-.13-.42-.18-.61-.06-.2-.14-.48-.16-.61l-.08-.49c-.01-.08-.07-.45-.08-.49-.27-.53-.41-6.47-.41-8.22 0-.98-.06-2.41-.16-3.42-.07-.65-.15-1.47-.29-2.16-.05-.23-.11-.45-.16-.65-.07-.24-.14-.49-.12-.73l.14-.2.04-.24c.02-.1.08-.25.12-.37.06-.15.1-.28.14-.45.03-.12.11-.42.18-.43.39-.03.66 2.24.72 2.75.21 1.77.29 3.7.29 5.09 0 2.47.05 5.24.37 7.94.09.74.27 1.93.63 2.42.32.44.58.78.95 1.15.33.34 1.25.66 1.94.9.75.26 1.87.26 2.56.26 1.64 0 3.35-.5 4.79-1.04.01 0-1.01-.86-1.01-.86-.32-.26-.67-.64-.87-1.01-.31-.59-.53-1.11-.72-1.87-.07-.29.12-1.15.25-1.71.14-.64.66-1.26 1.06-1.72 1.1-1.3 3.69-2.03 5.39-1.29.78.34 1.46.7 2.08 1.19.57.45-.46.15-.69.09-.47-.13-1.07-.24-1.49-.24-.64 0-1.56 0-2.27.28-1.27.51-2.9 1.16-3.36 1.71-.18.23.14 1.26.29 1.47l.08.18.16.24c.11.16.22.32.33.47.09.12.19.26.26.32.11.1.32.28.34.33.22.66 2.51 1.15 3.25 1.15s2.51-.87 3.21-1.24c.83-.44 2.18-1.14 2.8-1.28.31-.07-.18.96-.21 1.02-.09.2-.44.93-.53.94-.35.04-2.69 1.12-4.01 1.73-1.52.71-3.2 1.45-4.79 1.89l-.21.04-.2.06-.24.08q-.14.05-.45.14l-.24.08c-.12.04-.28.09-.41.12-.25.07-.62.18-.78.2l-.29.04-.16.04-.21.04-.33.04c-.08.01-.44.06-.49.08-.4.2-2.9-.03-3.4-.24m1.21-4.54c-.19-.64-.23-1.11-.17-1.83.07-.73.93-3.92 1.37-3.91.02 0-.14.72-.14.73-.03.13-.04.17-.08.28l-.06.16q-.06.14-.1.28c-.17.6-.37 1.28-.41 1.69-.09.85.15 1.86.82 1.99.18.04.31-.27.36-.4.07-.19.22-.57.29-.57.38 0-.36 1.75-.47 1.91-.49.74-1 .14-1.41-.35m21.93-1.22c.1-.43-2.19-1.86-2.48-1.43-.29.44-.56.87-.82 1.34-.33.62-.17.92.19 1.4.52.69 3.09-1.07 3.1-1.32m14.07-.47c.16-.45-1.07-.9-1.53-.93-.41-.03-1.34.66-.78.89.6.25 1.67.33 2.31.04m-54.83-2.52c.06-.88 1-4.49 1.47-4.62.19-.05-.39 1.68-.4 1.72-.22.65-.41 1.39-.49 2.18-.08.71.36 1.6.75 1.94.28.25.49-.12.58-.31.1-.21.37-.77.38-.77.43 0-.49 2.27-.77 2.42-1.12.58-1.44-1.76-1.51-2.57m8.62-.6c.13-.49-.83-.93-1.3-1.01-.23-.04-.87.35-.92.55-.16.62 1.82.64 2.22.46m7.5-3.18-.07-.14q-.08-.14-.1-.2c-.08-.26-.03-.46.04-.77.12-.51.23-.92.47-1.28 1.13-1.69 4.77-3.32 7.02-4.26 2.41-1.01 6.74-2.78 7.98-3.03.17-.04.36.12.37.32 0 .14-.47.96-.6.94-.52-.06-5.68 2.01-6.3 2.32l-.16.06-.2.08-.18.08-.31.14-.17.06-.16.06-.14.06-.35.16c-.53.23-1.34.58-1.6.71l-.14.06-.27.14-.21.14-.16.04-.16.08-.24.14-.16.06c-.45.22-1.27.65-1.43.77l-.25.16-.14.08-.12.08c-.21.14-.63.42-.63.42-.32.24-.82.62-.99.87-.28.42.19.69.51.88.26.15.67.38.78.61.1.22-.09.84-.16 1.02-.11.28-.28.17-.53 0-.05-.03-.18-.12-.23-.14-.12-.06-.25-.14-.39-.22l-.44-.31-.16-.2zm49.54-3.07c.23.02-.12.72-.19.82-.11.15-.23.47-.26.69-.08.53-.02 1.42.47 1.67.15.08.4-.18.45-.27s.29-.54.33-.41c.1.35-.28 1.17-.46 1.4-.12.16-.38.31-.65.21-1.03-.38-.41-3.74.31-4.11m-14.85 1.79c.01-.55.13-1.04.29-1.47.09-.26.2-.52.31-.77l.06-.12.18-.37c.04-.12.06.27.04.33l-.1.29-.06.14-.06.14c-.16.41-.25.92-.25 1.3 0 .53.48 1.55 1 1.26.15-.08.2-.37.23-.49.02-.14.1-.49.24-.42.33.16-.37 1.89-.71 1.99-.25.07-.68-.15-.74-.34-.22-.6-.44-1.21-.42-1.47m-14.57-.21c-.07-.2.52-1.25.7-1.3.24-.07.54.15.79.34.21.16.69.51.86.43 0 0 .28-.46.32-.52.09-.18.26-.53.41-.57.34-.11 1.45.78 1.58 1.14.15.42-.54 1.43-.82 1.44-.03 0-.41-.31-.58-.46-.18-.15-.38-.31-.58-.47-.22-.18-.38.08-.52.3-.08.14-.14.25-.2.41-.07.17-.14.29-.26.42-.21.23-1.65-.91-1.68-1.15m-11.5.04c-.1-.41.59-1.47 1-1.32.45.16 1.13.73 1.37 1.12.22.36-.76 1.39-1.05 1.24-.13-.07-1.32-1-1.33-1.04m-18.91-.54c.05-.37.52-1.14.78-1.3.19-.12 1.4.73 1.5.91.24.45-.42 1.71-.8 1.59-.17-.05-1.49-1.09-1.48-1.19m59.2-4.01c.05-.15-.33-.41-.45-.49-.23-.14-.38-.33-.51-.57-.37-.7.46-2.09.9-2.32.23-.12.41-.05.61.05.4.2.48 1.48.52 2.01q.04.63.4.98c.22.21.39.73.16 1.1-.04.07-.43-.17-.52-.23-.18-.12-.56-.35-.67-.24-.88.98-1.86 1.89-3.01 2.6-.81.5-3.57 2.09-4.29 1.91-.07-.02.65-.52.73-.56.3-.16.64-.34.92-.53.35-.23 1.33-.84 1.97-1.22.67-.41 3.2-2.11 3.25-2.48m-27.46-.69s-.25-.3-.36-.42c-.14-.16-.28-.37-.33-.6-.25-1 .76-2.37 1.59-2.01.16.07.27.82.27.91 0 .07-.07.61-.1.94-.03.3-.07.59-.02.65q.07.09.24.21c.09.07.32.24.33.24.13.11.27.32.38.48.04.07-.04.41-.06.49-.04.14-.06.22-.06.29 0 .01-.6-.39-.63-.41-.21-.14-.61-.41-.72-.39-.1.02-.36.34-.5.5-.17.21-.35.42-.57.58-.1.08-.19.16-.28.25l-.19.2-.13.07c-.21.17-.43.35-.65.5-.42.28-2.41 1.32-2.92 1.34-.35.02.43-.53.43-.53l.23-.14c.16-.08.46-.26.49-.28l.14-.06c.13-.07.26-.17.38-.25 0 0 .45-.33.66-.48.2-.14.42-.3.59-.41.23-.14.47-.33.69-.5.24-.19 1.14-.95 1.11-1.17m-39.75-.12c-.04-.45.06-.79.21-1.21.14-.39 1.44.74 1.53.83.43.43.81.88 1.16 1.4.72 1.08.77.85.67-.46-.04-.51.13-2.65.72-2.78.35-.08.46 0 .69.19.24.21.81 1.5.38 1.78-.15.1-.43-.32-.53-.47-.17-.26-.36-.39-.72-.46-.06-.01-.08.84-.08.9 0 .37-.03.96-.07 1.37-.05.45-.14.9-.24 1.3-.11.44-.12.47-.21.78.01.06-.15.6-.24.36-.18-.47-1.19-2.7-1.82-2.79-.18-.03-.22.09-.27.26 0 0 0 0-.08.37-.01.05-.09.27-.1.29-.18.42-.36.68-.73.9-.31.18-.62.42-.9.65-.26.21-.67.56-1.03.56-.08 0 .33-.53.33-.53.14-.17.28-.35.44-.5l.44-.38c.18-.17.35-.35.53-.51.26-.24.66-.63.74-.8.14-.29-.12-.46-.35-.61-.2-.14-.31-.25-.45-.45m44.35 2.16c1.32-.87 2.72-1.73 4.16-2.44.33-.16.76-.42 1.21-.68l.3-.17c.14-.08.35-.18.55-.28.36-.18.74-.39 1.06-.61.29-.2.69-.45 1.02-.55.51-.16-.43 1.08-.61 1.2l-.27.16c-.21.13-.55.34-.61.37-.31.14-1.56.85-2.35 1.3-.76.43-1.54.89-2.29 1.34-.3.18-1.19.71-1.19.71-.14.07-.36.2-.55.3-.3.17-.6.35-.65.34-.1-.01-.04-.91.22-.99m11.44-2.6c-.08-.17.05-.93.23-1 .46-.16 1.61.78 1.8 1.06.1.13.19.25.3.38.1.12.26.32.32.4.14.2.65.91.7.9.02 0 .06-.65.06-.69v-.55c.04-.66.07-1.24.2-1.63.1-.3.99-1.77 1.45-1.26.43.47.79.87.44 1.58-.09.19-.32-.09-.39-.18-.16-.2-.35-.38-.63-.44-.21-.04-.41.19-.49.33-.02.04-.07.7-.1 1.26l-.04.21v.63l-.04.28v.37c-.02.28-.2 2.16-.55 1.95-.01 0-.12-.32-.18-.49s-.19-.38-.31-.57c-.1-.16-.21-.33-.33-.49 0 0 0 0-.25-.36-.07-.08-.15-.18-.16-.19-.1-.15-.23-.33-.35-.44l-.2-.16h-.26c-.13.02-.15.02-.33-.07-.38-.19-.72-.38-.88-.81m-45.69 1.72c-.31-.49.3-3.56.7-3.64.07-.01-.11.75-.14.92-.11.49-.29 1.28-.19 1.57.11.33.26.74.53.77.2.03.26-.17.33-.37.05-.15.13-.4.23-.44.23-.1-.03.8-.08.95-.14.41-.26.78-.51.96-.29.21-.81-.49-.86-.71m10.73-2.49c.04-.07.33-.82.45-1.14.11-.28.32-.83.63-.86.11 0-.34.83-.37.88-.16.26-.25.58-.31.96-.05.32.17.84.36.99.1.08.3.06.37-.04.1-.15.35-.52.35-.52.18.14-.37 1.43-.5 1.56-.19.2-.47.11-.66-.02-.46-.32-.44-1.26-.33-1.81m46.97.77c-.01-.26-.13-1.08-.35-1.18-.32-.16-.79.12-.88.33-.13.32.2.55.43.69.12.08.82.53.8.16m-28.32-1.06c.1.29.33.45.57.62.56.41.31-.89.14-1.11-.22-.27-.73.16-.71.48m-1.14 11.7c-.14-.28-.55-.64-.86-.88-.35-.28-.4-1.44-.1-1.89.04-.02.32.14.5.25 0 0 .54.22.72.29l.12.04.16.06q.19.07.31.12c.15.07.73.32.74.41 0 .19 0 .22-.18.26l-.29.04-.16.07c-.09.1.2.33.3.41.17.13.85.62.96.62.4-.02 1.14-1.12 1.43-1.55.16-.24 1.22-1.61 1.31-1.63.41-.12-.38 1.84-.5 1.99-.28.34-1.12 1.51-.99 1.86l.14.08c.11.07.25.16.37.24.15.11.37.26.51.39.35.35.66.79.78 1.36.11.5-.15 1.62-.31 2-.29.71-2.03 1.78-2.9 1.93-.4.07-.69.04-1-.1-.32-.15-.47-.49-.57-.86-.21-.78.02-2.07.27-2.77.1-.27.23-.53.35-.77.09-.19.37-.73.28-.8l-.5-.4c0-.06-.83-.76-.88-.78" fill="#1d1d1b" fill-rule="evenodd"/></svg>