<svg viewBox="0 0 83.87 27.67" xmlns="http://www.w3.org/2000/svg"><path d="m30.12 26.9c.16-.03.57-.16.82-.24.05-.02.69-.2.98-.28l.16-.04.25-.08.16-.04.16-.04q.16-.04.29-.08c.29-.1.61-.2.9-.29.7-.2 1.43-.41 2.09-.57.32-.08.63-.18.94-.28.32-.1.67-.2.98-.28.42-.1-.27.79-.57.91-.22.08-.47.17-.7.24l-.33.1-.29.08c-.74.25-1.53.46-2.29.65-.33.08-.78.21-1.19.33l-.24.08-.17.04-.16.04-.29.08-.12.04-.16.04c-.25.05-.33.08-.57.16-.12.04-.41.11-.61.16-.79.2-.31-.58-.04-.73m30.73-.16-.17-.06c-.13-.07-.28-.16-.4-.25-.23-.17-.41-.37-.59-.58-.35-.39-.56-.89-.74-1.45-.18-.55-.12-1.28-.04-1.95.02-.14.12-1.12.02-1-.12.13-2.31 1.37-3.19 1.85-.98.54-2.89 1.53-3.81 1.65-.5.07-.95.14-1.43.24-.06.01-1.22.2-1.8.29-.48.07-1.19.18-1.43.24-.36.09-1.28.28-1.53.13-.24-.14 1.2-.62 1.32-.66.29-.1.76-.25.9-.31.13-.05.3-.11.41-.14.15-.04.29-.08.41-.12.09-.03.54-.17.78-.24.28-.09.57-.18.82-.3.55-.27 1.13-.53 1.72-.73 1.34-.47 3.21-1.47 4.46-2.26q.23-.11.28-.14t.27-.16.27-.16.22-.12c.08-.04.15-.09.27-.16l.49-.33c.48-.32 1.83-1.23 1.83-1.23.47-.35 1.23-.93 1.48-1.35.18-.31-.66-1.87-.9-2.32-.4-.74-.69-1.51-.96-2.38-.32-1.01-.35-1.29-.03-2.42.03-.13.5.46.52.47.17.21.38.43.59.61.25.21 1.06.99.94 1.35 0 .01-.29-.07-.31-.07-.19-.05-.29-.05-.5-.03-.16.01.28.83.3.85q.1.15.14.26c.07.16.14.31.22.45.28.49.56 1.02.72 1.63.28 1.1-.11 2.56-.6 3.25-.24.33-.65.77-.99.98-.4.25-.89.58-1.12 1-.13.24-.43 1.45-.23 1.65l.04.29.04.16c.03.13.07.27.1.37.07.22.2.4.33.59.62.92 1.62 1.26 2.9 1.26.68 0 1.88-.37 2.42-.67 1.99-1.11 4.2-2.48 5.44-4.34.09-.13-.04-.53-.16-.57-.21-.07-.3-.05-.45 0-.17.05-.42.11-.57.12-.38.03-1.46.12-1.6.12-.56 0-1.33-.22-1.65-.62-1.22-1.52.34-3.96 1.91-4.1.39-.03 1.08.3 1.39.59l.14.09.2.2c.15.15.29.3.43.47.11.14.22.3.32.46.13.22.33.53.45.55.41.06 2-1.04 2.45-1.37.26-.19.87-.64 1.1-.51.15.08.12.47.11.6-.04.43-.07.79.06 1.08.56 1.2 2.36 1.55 3.56.75.55-.36.84-.7 1.19-1.26.22-.35.89-1.43 1.12-1.36.18.06-.24.79-.26.83-.11.17-.33.55-.16.75.33.38.71.74 1.27.9.72.2 2.07.41 1.31-.81-.3-.49-.22-1.36.19-1.91.15-.2.51.68.55.79.06.16.1.3.14.49l.08.41.05.68-.05.3-.04.16c-.05.19-.09.38-.15.53-.01.03-.27.52-.39.75-.14.26-.58.42-.91.5-.5.11-1.04-.06-1.43-.22-.27-.11-.51-.29-.71-.47-.1-.09-.21-.19-.29-.28l-.15-.24s-.17-.27-.18-.28c-.06-.04-.44.47-.53.6-.2.28-.41.49-.7.68-.76.5-1.86.76-2.89.37-.43-.17-.75-.55-1.08-.94-.02-.03-.15-.32-.18-.41q-.08-.2-.1-.41s-.07-.56-.09-.58c-.11-.13-.86.47-.97.56 0 0-.67.45-.95.64-.37.25-.57.38-.61.81-.05.53-.16 1.45-.39 1.71l-.08.16-.08.14-.24.33c-.15.21-.53.62-1.14 1.25-.09.09-.2.19-.28.29-.3.4-2.73 2.2-3.27 2.39-.11.04-.21.1-.33.16l-.29.16c-.11.06-.36.16-.55.24-.15.06-.32.13-.49.18q-.06.02-.37.08c-.08.02-.21.05-.29.08-.63.25-2.15.11-2.82-.2m-47.16-1.24c-.12-.39.38-2.34.65-2.54.32-.23 0 .52-.03.58-.11.26-.26.83-.21 1.06.17.66.77 1.71 1.04.49l.14.16c-.01.08-.11.37-.16.53-.11.32-.26.57-.51.75-.47.34-.82-.7-.92-1.04m64.83-1.85c.37-.09.6-.23.83-.46.1-.1.18-.23.27-.38.07-.12.19-.3.3-.26v.18s.04.42.27.49l.16.06c.16.06.35.08.48-.03.05-.04.12-.32.19-.56.06-.22.24-.61.4-.68.18-.07.04.6 0 .72-.07.24-.16.47-.27.69-.15.32-.4.8-.82.84-.26.02-.45-.01-.63-.1-.21-.1-.39-.19-.53-.11 0 0-1.09.67-1.09.5h-.2l-.21-.06c-.05-.02-.2-.12-.27-.16-.23-.15-.49-.33-.8-.22-.47.16-.83.28-1.21.51l-.55.32-.12.08-.14.08-.31.22c-.19.1-.36.2-.53.31-.21.13-.45.25-.7.35-.17.07-1.51.53-1.64.37-.03-.04.56-.36.7-.43.3-.16.68-.38 1.02-.57.57-.32 1.13-.7 1.68-1.06.54-.36 1.29-.85 1.8-1 .47-.13.67-.18 1.06.06.3.18.48.28.82.31m-48.2-.27c-.01-.05-.12-.12-.18-.16l-.24-.15c-.07-.06-.39-.35-.39-.35-.32-.3-.49-.78-.65-1.23-.06-.15-.42.4-.42.4-.13.2-.29.43-.42.58-.29.34-.59.6-.95.86-.23.16-1.26.56-1.6.47h-.51c-.18-.01-.31-.05-.57-.11q-.15-.04-.21-.05l-.21-.06-.12-.06-.16-.06c-.51-.17-1.02-.83-1.27-1.28-.15-.28-.27-.6-.39-.92-.06-.16-.24-.66-.32-.6-.01.01-.14.5-.17.64-.07.3-.13.6-.32.75-.96.77-1.68 1.27-3.06 1.27-.48 0-1.02-.26-1.38-.52-.26-.18-.48-.56-.58-.89-.06-.17-.11-.35-.14-.53-.03-.17-.11-.65-.18-.63-.19.06-.32.13-.49.22-.12.07-.27.14-.41.2-.16.07-.51.24-.52.25-.14.09-.28.16-.44.23-.69.34-1.94.96-2.23 1.06-1.57.57-3.34 1.21-5.05 1.32-.92.06-1.73.04-2.72-.08-.79-.1-1.63-.42-2.19-.79-.48-.32-1.1-.82-1.33-1.36-.21-.52-.4-1.04-.47-1.73-.09-.97.14-1.73.41-2.48q.05-.14.14-.33l.08-.16.14-.24c.08-.16.14-.28.22-.41.08-.12.15-.24.18-.39 0 0-.19-.36-.31-.57-.11-.2-.19-.49-.23-.75-.13-1.02 0-1.93.21-2.89.17-.75.71-2.84.84-2.97.37-.36-.14 1.91-.14 1.91-.17.77-.39 1.73-.37 2.36.01.65.23 1.72.93 1.85.25.05.46-.39.51-.63.03-.18.16-.82.35-.69.19.14-.01 1.33-.14 1.59-.15.31-.31.61-.44.77-.05.06-.22.22-.32.23-.21.02-.63.07-.65.18l-.08.14-.08.16c-.08.16-.18.39-.22.52-.09.28-.24.77-.25.96-.05.8.07 1.29.29 1.87.24.64.78 1.09 1.33 1.42.28.17.55.31.9.43.25.08.82.27.85.32.08.14 3.22.04 3.61-.04 1.3-.25 2.44-.48 3.52-.91.96-.39 2.09-.85 2.78-1.22.26-.14.76-.39 1.21-.61.23-.11.46-.24.68-.37.15-.09.71-.36.83-.22.08.1.03.55 0 .71-.04.34-.08.67-.04.81.06.23.18.44.31.6.03.03.17.15.21.18.05.04.14.11.15.15.05.17 1.48.26 1.68.23.35-.06.83-.27 1.17-.47l.24-.16q.09-.06.24-.18c.06-.05.13-.08.21-.12.24-.12.34-.54.38-.84.17-1.5-.27-5.54-.57-8.24-.12-1.06-.25-2.35-.33-3.32-.03-.37-.16-1.5-.24-2.2-.07-.57-.18-1.53-.08-1.75l.08-.24q.04-.12.1-.28c.09-.23.21-.57.35-.61.13-.04.57 3.02.61 3.34.2 1.41.35 2.73.49 4.36.01.15.04.41.04.45q.04.29.04.55 0 .15.04.55c.09.91.17 1.86.24 2.77.09 1.17.44 4.25.57 4.52l.08.24.04.12.12.28.12.24c.15.32.32.57.52.85.22.3.78.53 1.26.72.25.1 1.14.15 1.43-.04.31-.2 1.1-.63 1.53-.86.04-.02.44-.54.52-.64l.25-.37c.11-.17.34-.5.34-.5.07-.09.56-.67.7-.44v.27s-.03.14-.03.14v.14c.03.28.13.53.23.77.11.26.38.57.59.73.1.08 1.07.77 1.14.42l.23-.34s.22-.33.33-.49.22-.32.33-.47q.14-.19.18-.24.05-.06.15-.21c.21-.32.44-.6.7-.87.12-.12.74-.84.76-.88.27-.81 2.93-2.4 4-2.33.56.04 1.28.08 1.82.29.38.14 1.53.78 1.71 1.17l.1.14c.08.1.16.21.23.32.15.23.28.51.35.79.16.65-.16 1.51-.39 1.99-.1.2-.26.45-.41.67-.06.1-.33.5-.29.55.56.56 6.68-2.26 6.68-2.26.18-.14-.33-.59-.39-.64-.17-.14-1.3-.21-2.42-.29-.78-.05-1.59-.27-1.94-.86-.73-1.22.83-3.42 1.8-3.66.43-.11.78-.11 1.19.06.28.12.6.35.87.58t.27.25q.17.21.2.23c.4.28.86 1.37 1.07 1.95.22.59.21 2.9-.29 3.28-.94.73-1.77 1.29-3.07 1.75-.64.23-1.28.4-1.96.57-.16.04-.5.14-.74.21-.17.05-.36.09-.53.12-.28.06-.41.08-.53.12-1.32.44-4.2.69-5.67.82-.86.07-1.6.02-2.48-.04-.51-.04-1.1-.08-1.51-.16-.19-.04-.36-.07-.53-.12-.18-.05-.34-.1-.52-.08-.02 0-.3.37-.34.44-.09.13-.34.48-.45.51-.36.08-.03-.48.04-.61.1-.17.32-.56.24-.69m8.63-1.73c.74-.28 2.32-.96 2.52-1.61.02-.06-.3-.62-.39-.75l-.2-.23-.1-.15-.21-.2c-.1-.26-1.25-.77-1.58-.89-.45-.16-1.53-.29-1.92-.12-1.23.52-2.19 1.01-3.15 2.12-.04.05-.34.39-.55.62l-.16.2-.07.13c-.29.35-.99 1.23-.95 1.45.06.38 3.74.12 4.11.05.96-.19 2.05-.41 2.66-.61m12.64-.9c-.3-1.02-.4-1.37-.18-2.71.07-.42.26-.82.43-1.18l.16-.28.08-.14c.11-.2.24-.43.26-.55 0-.06-.48-.47-.62-.58-.21-.17-.42-.38-.61-.57-.33-.33-.87-.86-1.12-1.25-.12-.19-.07-1.56.14-1.72.05-.04.34.17.43.26 0 0 .47.21.66.28.28.12.72.34 1.06.51.09.05.54.27.33.43l-.16.02-.29.04c-.09.02-.21.07-.23.13-.02.08.42.42.53.52.13.1.24.18.39.28.11.07.36.24.36.24.18.14 1.31-1.25 1.47-1.44.25-.31.49-.61.93-1.12 0 0 0 0 .16-.2.12-.15.23-.29.4-.29.01 0-.27.94-.27.94-.13.43-.24.8-.4 1.01-.18.23-.36.46-.56.67-.12.13-.61.74-.62.87-.02.16.29.39.52.56.22.17.46.36.64.58.33.41.7.91.66 1.61-.03.43-.26 1.68-.55 1.91-.01.02-.17.21-.18.22 0 0-.34.24-.46.31-.3.2-.68.45-.92.57-.34.17-2.35.92-2.46.1m3.79-2.71c-.19-.54-1.63-1.49-2.23-1.61-.19-.04-2.2 2.52-.78 2.91.63.17 3.09-.84 3.01-1.3m14.05.07c.18-.27-1.33-1.47-2.24-.72-1.11.93 1.62.94 2.24.72m-58.16-1.74c.09.35-.77 1.41-.98 1.22-.36-.31-1.14-.97-1.27-1-.14-.03-.33.34-.39.45-.09.18-.25.49-.35.55-.31.18-2.61-1.15-.84-2.42.12-.08.63.33.77.44s.53.42.62.42c.17 0 .35-.27.49-.49.12-.18.29-.42.51-.45.25-.04 1.38 1.03 1.43 1.28m14.59.27c-.24-.33-.24-.87-.23-1.41.01-.53.27-1.33.45-1.87.11-.32.23-.63.35-.94.04-.1.54-1.01.39-.49-.18.6-.65 2.28-.65 2.28-.12.61.24 1.74.71 1.61.24-.07.31-.25.39-.47s.19-.51.36-.43c.09.03-.17.78-.2.88-.12.35-.28.83-.43 1.02-.42.52-.84.28-1.14-.18m20.8.24c.22-.64-1.62-1.26-2.26-.82-1.12.76 1.73 1.01 2.26.82m-30.58-2.15c-.18-.42-.27-.93-.27-1.4 0-.91.6-3.12.95-3.72.12-.2.05.75 0 .91-.12.35-.3.89-.33 1.1-.15.93-.16 2.01.59 2.42.23.13.42-.24.47-.39l.04-.16.04-.16c.03-.11.06-.18.11-.28.15-.3.19.48.17.56 0 0-.08.31-.12.45-.1.35-.26.89-.46 1.03-.61.45-.83.15-1.2-.36m15.9-.37c-.28-.1-.25-1.09-.21-1.4.03-.22.15-1.3.36-1.2v.34s-.03.33-.03.33c-.02.41-.02.63.1.9.1.23.28.38.57.43.49.08.95-.42 1-.82.01-.11-.03-.64-.04-.79l-.05-.52c.02-.22.12-.77.29-.83.14-.05.16.88.16.96 0 .27.02.74.22.9.34.26.87.67 1.21.52.12-.05-.08-.47-.11-.54-.11-.22-.25-.53-.31-.73-.12-.45-.16-.96.1-1.34.14-.21.91 1.81.88 2.12-.03.38-.11 1.02-.44 1.32-.26.23-.66.24-1.01.11-.15-.06-.32-.16-.44-.25-.16-.12-.23-.18-.39-.14l-.07.15-.08.14q-.09.15-.17.26c-.12.15-.22.24-.4.33-.35.19-.99.18-1.16-.23m47.66-3.19c.16-.51.62-1.77.9-1.95.26-.17-.31.94-.31.94-.06.1-.12.23-.16.37l-.06.24-.05.48.05.34c.02.09.05.2.08.28.05.14.18.44.31.47.21.05.29.04.44-.11.08-.08.12-.16.17-.28.05-.11.12-.27.17-.25.2.06-.16.92-.21 1.03-.12.24-.71.97-1.01.44-.34-.6-.5-1.05-.32-1.99m-36.38.31c0-.06.24-.45.39-.71l.23-.34.18-.15c.03-.2.75.38.75.38.22.18.52.42.63.57.25.32-.49 1.28-.75 1.38-.21.08-1.45-.96-1.43-1.12m22.69.3c-.13-.58-.27-1.18-.27-1.42.01-.48.2-1.03.37-1.42.08-.18.51-1.18.63-1.14.02 0-.32.84-.35.9-.13.31-.2.68-.25 1.06-.1.77.37 1.56.92 1.54.09 0 .23-.33.27-.48.03-.14.13-.51.24-.46.15.07-.03.74-.08.87-.08.24-.22.64-.33.76-.4.43-.89.38-1.16-.19m-56.78-1.55c.04-.19-1.33-.07-1.65-.02-.2.03-.43.07-.61.12-.07.02-.23.08-.28.11-.21.14-.24.17-.26.17-.22.05.3-.98.33-1.03.19-.34.35-.54.74-.69.49-.19 1.25-.26 1.68-.26.17 0 1.64.04 1.66.22.04.58-.93 1.73-1.34 2.13-.14.14-1.95.91-2.07.84-.14-.07.92-.77.92-.77.16-.11.93-.67.89-.82m41.99-.53c-.11-.33.64-1.47 1.04-1.25.21.12.46.33.65.49.17.14.52.44.68.33 0 0 .26-.41.31-.5.14-.25.29-.5.49-.59.3-.13 1.57 1.09 1.49 1.45-.07.35-.22.5-.44.72l-.16.23c-.05.07-.18.25-.23.21l-.14-.06c-.07-.04-.17-.13-.22-.18-.08-.08-.24-.26-.27-.28-.2-.16-.72-.58-.73-.58-.08-.02-.38.5-.47.65-.13.23-.31.53-.41.57-.32.12-1.43-.95-1.57-1.2m28.87-3.4c.04-.07-.36-.46-.54-.64-.2-.19-.34-.36-.42-.68-.11-.49.3-1.32.48-1.62.16-.27.43-.5.77-.56.3-.05.51.27.61.47.08.16.17.56.18.77v1.04c-.01.37-.02.6.12.71.47.36.45.62.39 1.3 0 .07-.51-.28-.51-.28-.22-.15-.46-.32-.61-.29-.05.01-.21.22-.28.3-.09.11-.19.22-.29.33-.15.15-.63.53-.98.79-.11.09-.21.18-.34.25-.12.08-.25.17-.36.26-.14.12-.3.22-.48.31-1.28.68-3.9 2.06-4.71 2.02-.35-.01 1.63-1.05 1.76-1.11.16-.07.29-.14.43-.22.17-.1.34-.2.51-.29.15-.08.29-.16.43-.24.19-.11.36-.22.55-.33.76-.43 3.12-1.92 3.27-2.3m-41.65 3.48c0-.15 1.54-1.17 1.86-1.39.62-.41 1.24-.83 1.84-1.26.56-.4 1.72-1.27 1.81-1.35.29-.27.6-.55.28-.86-.3-.29-.73-.71-.74-.84-.09-.73.62-1.93 1.21-2.05.19-.04.47.19.63.32.45.37.2 1.52.05 2.02-.08.24.03.49.16.82.11.25.1.88-.18.9-.02 0-.18-.2-.21-.24-.11-.13-.18-.22-.36-.17-.02 0-.15.16-.21.24-.08.1-.18.21-.27.3l-.2.21c-.1.1-.2.22-.28.27-.41.29-.9.64-1.26.99-.45.44-3.46 2.19-4.12 2.1m-10.21-4.33c-.05-.13-.22-.24-.39-.35-.21-.14-.39-.27-.55-.46-.14-.17.08-.85.2-.99.65-.74 2.92 2.2 3 2.67h.17s.06-.55.06-.59v-.79c0-.41.07-.86.22-1.22.17-.38.5-1.15.76-1.22.75-.23 1.39 1.06.85 1.68-.03.03-.26-.21-.31-.25-.14-.14-.27-.22-.44-.33-.65-.41-.67.49-.67 1.08 0 1.12-.15 2.35-.51 3.32 0 .02-.55-.92-.57-.96-.01-.02-.38-.54-.58-.82-.13-.19-.51-.68-.67-.73-.19-.06-.28.08-.33.22-.09.23-.22.54-.27.61-.47.7-2.52 2.36-3.66 2.17-.26-.04.42-.38.42-.38.13-.06.39-.21.57-.33.36-.22.73-.48 1.06-.74.42-.33 1.61-1.29 1.62-1.59m40.64-.57c-.26-.15-.1-1.33.26-1.31.25.01.54.2.76.35l.23.2.15.1.2.2c.16.08.58.67.74.91.13.19.27.41.41.63.07.12.38.59.38.58.01 0 .12-1.27.13-1.44.04-.53.09-1.12.21-1.43.16-.44.58-1.07.96-1.28.15-.08.63-.13.77.11l.1.15c.09.12.16.22.22.38.1.26 0 .56-.13.95-.08.23-.47-.33-.47-.33-.12-.16-.29-.31-.5-.35-.26-.05-.47.26-.57.43s-.12.81-.12 1.04c0 .58-.06 1.33-.16 1.93-.07.39-.28 1.66-.61 1.53l-.03-.15-.02-.12c-.07-.29-.18-.49-.31-.71-.2-.35-.42-.72-.67-1.03-.28-.35-.57-.71-.8-.73-.32-.03-.44-.11-.67-.26l-.12-.08-.32-.26zm-16.11-.23c-.01-.05-.17-.27-.38-.56-.14-.2-.24-.41-.29-.71-.12-.72.64-1.77 1.21-1.93.23-.07.42.15.55.31.17.2.12.86.08 1.14-.04.31-.14 1.17-.14 1.17 0 .01.2.17.21.18.04.03.21.18.31.27.15.13.36.39.39.61 0 .08-.06.73-.29.62l-.44-.39c-.1-.08-.37-.27-.56-.39-.17-.12-1.13.86-1.32 1.05-.15.16-.44.37-.68.55-.11.08-.22.16-.33.24-.1.07-.31.21-.33.22-.23.19-2.48 1.14-2.87 1.16-.36.02.57-.59.57-.59l.19-.06c.07-.03.31-.17.45-.24.44-.25.91-.55 1.39-.9l.14-.08.43-.24c.13-.08.39-.27.59-.41.17-.13.39-.29.53-.41.07-.06.21-.21.3-.31.06-.07.27-.29.28-.29m4.48 2.14c.32-.17.65-.36.97-.56.33-.2.69-.39 1.04-.57l.14-.08q.07-.05.23-.12l.29-.16.24-.12c.21-.11.66-.33.66-.33l.29-.16.27-.14.14-.06.22-.14c.2-.09.65-.3.65-.3.38-.2.77-.4 1.15-.59.42-.21.82-.41 1.21-.63.02-.01 1.32-.75 1.11-.34l-.04.3-.06.16c-.07.14-.15.25-.3.31 0 0-.37.24-.54.34-.16.1-.33.2-.49.29l-.33.16c-.13.06-.35.16-.35.16-.14.08-.36.19-.55.28l-.29.16-.14.08-.18.08-.23.14-.18.06-.17.08c-.18.09-.41.2-.53.28-.17.11-.38.24-.55.32l-.33.14q-.16.08-.26.14s-.43.21-.66.33l-1.19.65c-.35.17-.72.36-1.04.57-.09.06-.4.26-.43.08-.03-.21.08-.76.24-.83m-44.13-1.64c.14-.36.51-.79.86-.94l.27-.16.25-.14s.43-.2.61-.29c.35-.16 1.27-.57 1.27-.57l.16-.06.17-.08.22-.08.14-.06c.18-.07.34-.14.53-.2.23-.08.46-.19.65-.28.03-.01.48-.19.74-.29.92-.35 1.91-.73 2.8-1.12.62-.28 2.46-1.02 2.95-1 .17 0-.16.78-.23.84-.02.01-.51.18-.72.25-.62.21-1.23.43-1.84.67-1.33.51-2.69 1.07-4.01 1.63l-.74.28-.41.18-.16.06-.2.08-.12.06c-.55.23-1.05.45-1.57.71-.38.19-1.49.74-1.23 1.26q.15.09.25.18c.11.1.23.2.3.29.14.21.08.54-.08.75-.14.18-.94-.45-.98-.55-.15-.3.01-1.15.14-1.45m24.54.79.15-.07.2-.06c.09-.04.09-.06.14-.2.06-.18.16-.46.23-.5.2-.13-.09.89-.11.95-.11.32-.22.61-.49.73-.88.4-.98-1.69-.94-2.24.02-.41.54-2.2.8-2.2.04 0-.16.73-.18.82-.13.47-.18.88-.2 1.42-.02.49.2 1 .4 1.36m-33.38-2.79c-.21-.22.09-.95.19-1.15.25-.5 1.75.81 1.92.99.27.28.49.6.71.93.2.3.6.89.63.89.04 0 .09-.69.09-.71q.04-.59.08-1.04c.02-.19.07-.46.14-.67.13-.37.37-.92.67-1.11.25-.15.56.04.69.2.17.21.53.72.46 1.07-.03.14-.25.43-.44.3l-.18-.2c-.09-.08-.38-.32-.38-.32-.5-.23-.56.57-.59 1.04-.05.7-.11 1.48-.28 2.08-.05.18-.41 1.17-.53.98 0 0-.07-.24-.08-.28l-.08-.24q-.04-.1-.14-.33l-.14-.28c-.06-.12-.43-.65-.68-1-.31-.44-.47-.65-.94-.51-.28.09-1.09-.51-1.11-.63m75.31 1.1c.08.26 1.06 1.12 1.22.89.25-.35-.24-1.42-.41-1.47-.31-.08-.73.3-.81.58m-34.42-.07c.11-.27.03-.69-.14-.94-.16-.24-.89-.4-.98 0-.08.36.98 1.27 1.12.94m8.2-1.77c-.35-.27-1.08.24-.52.84.82.86 1.02-.14.52-.84" fill="#1d1d1b" fill-rule="evenodd"/></svg>