<svg viewBox="0 0 84.98 26.22" xmlns="http://www.w3.org/2000/svg"><path d="m34.92 22.18c.28-.08.6-.18.85-.12.03 0 .27.11.4.16.14.06.42.12.53.04l.29-.15q.05-.04.16-.17c.13-.17.29-.37.39-.37l-.02.24c0 .07.04.18.14.18.21 0 .39.01.54-.15t.09-.19c.04-.13.11-.33.2-.36.23-.07.07.57.04.64-.09.25-.2.45-.35.63-.09.11-.35.29-.52.31s-.23 0-.4-.04c-.19-.05-.26 0-.42.1-.24.16-.43.26-.83.14-.34-.11-.7-.22-1.09-.12-.6.15-1.09.46-1.54.78-.46.33-.92.66-1.41.96-.17.11-.65.38-.65.38-.29.12-.62.26-.87.42 0 0-.58.26-.79.34-.18.07-.96.22-.48-.06s.96-.57 1.41-.88c.4-.28.96-.62 1.45-.92.45-.28.88-.59 1.31-.9.48-.35.99-.63 1.56-.89m33.24.01c.11-.14.9-.74 1.2-.96.45-.33.9-.72 1.26-1.14.29-.34.66-.7.99-1.02.23-.22 1.02-1.31.19-1.35-.03 0-.29.08-.4.12-.14.04-.3.1-.41.12-.54.11-1.22.24-1.75.2-.52-.04-1.03-.11-1.38-.39-.25-.2-.44-.46-.51-.84-.08-.45-.08-1.18.12-1.69.32-.8.88-1.62 1.84-1.75.48-.06 1.07.19 1.41.42.41.27.76.61 1.06.99.14.17.27.37.39.56.16.25.53.07.79-.06.33-.16 1.16-.78 1.79-1.25q.11-.11.19-.15c.29-.18.65-.41.75-.42.31-.05.27.48.26.7-.02.41-.04.61.1.9.6 1.28 2.47 1.32 3.57.58.51-.34.78-.78 1.13-1.36l.06-.16.08-.12.08-.16.06-.16.06-.14c.06-.11.55-.94.67-.54.06.22-.1.52-.18.68-.09.17-.26.49-.22.68.12.66 2.44 1.59 2.86.83.04-.08-.09-.41-.14-.51q-.05-.1-.16-.26c-.09-.12-.18-.25-.24-.38-.1-.22.27-1.49.44-1.5.24-.01.63 1.12.75 1.46.17.5.16 1.14 0 1.61-.19.57-.38.89-.69 1.3-.45.59-2.01.13-2.48-.13-.3-.17-.78-.61-.89-.96 0-.03-.65.84-.65.84-.07.1-.18.24-.38.4l-.12.08c-.1.07-.18.12-.21.17-.08.15-1.6.64-1.83.53l-.28-.04c-.2-.03-.25-.04-.4-.08-.24-.07-.46-.16-.62-.3-.27-.21-.49-.4-.67-.7-.08-.14-.15-.26-.2-.42s-.07-.22-.1-.4c-.02-.09-.08-.47-.1-.44l-.3.12c-.1.07-.33.25-.33.25-.17.17-.42.35-.65.52-.31.23-.99.75-1.06.88l-.02.32q-.01.28-.04.6c-.04.47-.08.79-.22 1.12-.18.43-.53.86-.82 1.23l-.16.2c-.08.08-.16.18-.23.27q-.09.12-.2.23c-.11.11-.21.21-.3.35-.13.2-1.14 1.08-1.53 1.4-.26.21-.56.45-.89.71q-.06.05-.21.15l-.24.16c-.07.04-.21.13-.22.14-.35.35-1.04.63-1.53.8-.12.04-.58.18-.85.26-.13.04-1.75.29-1.69.14l-.24-.04-.24-.04c-.14-.03-.32-.09-.44-.14-.25-.1-.46-.22-.67-.36-.37-.25-1.01-.91-1.15-1.36-.14-.43-.26-.83-.34-1.37l-.04-.26.04-.58q0-.21.04-.64s.05-.51.02-.52c-.12-.05-1.14.66-1.29.77-.4.29-.89.65-1.28.88-.45.26-1.08.61-1.39.81-.41.27-.94.53-1.38.73-1.03.47-2.21.84-3.51 1.12l-.2.04-.2.04c-.19.04-.39.08-.57.12s-.34.06-.5.08c-.07 0-.33.08-.47.12-.26.07-.5.14-.77.2-.24.06-1.53.09-1.23 0 .04-.01.17-.12.23-.16.03-.02.06-.04.23-.11.23-.1.57-.24.73-.3.59-.22 1.18-.45 1.77-.7.6-.26 1.43-.61 1.76-.76.25-.12.49-.24.73-.36.23-.12.75-.39.79-.4 1.68-.64 8.62-5.22 8.92-6.3.03-.1-.43-1.07-.69-1.63-.05-.1-.27-.47-.4-.68-.17-.28-.34-.57-.48-.84-.42-.78-1.39-2.81-.68-3.75.03-.04.51.44.59.52.18.18.43.43.56.52.19.13 1.07.97 1.04 1.16-.02.14-.22.09-.38.06-.12-.03-.63-.11-.5.1.56.92 1.29 2.1 1.57 2.97.18.53.08 1.52 0 2.25-.07.62-.63 1.23-1.06 1.69-.2.22-.4.41-.64.6-.27.21-.52.41-.65.65-.22.4-.24 1.03-.18 1.55.06.49.35 1.04.58 1.49.2.37.86.79 1.29.94.21.08.71.25.83.26l.14-.06.34-.04.88-.08c.62.03 2.24-.99 2.92-1.44m10.06-1.34c.28-.11.62-.14 1.01.02q.06.04.3.16c.12.06.3.12.46.1.33-.05.63-.27.82-.47.07-.08.16-.21.21-.31.07-.15.22-.47.33-.39l.03.15v.31s.26.16.28.17c.24.12.51.16.68-.05.03-.03.07-.27.09-.39q.03-.16.08-.32c.05-.15.17-.5.38-.48.16.02-.11.99-.14 1.09-.08.23-.16.45-.26.64-.02.04-.13.24-.17.27l-.22.18c-.09.17-.6.1-.78.05-.22-.07-.5-.16-.6-.09-.4.28-.77.53-1.1.58-.2.03-.43-.1-.59-.18-.24-.13-.46-.25-.71-.22-.35.04-1.69.93-2.56 1.51-.41.27-.84.53-1.31.74-.18.08-1.9.42-1.15.05.52-.26 1.61-.96 2.53-1.55.2-.13.45-.31.79-.56l.23-.19.13-.09c.39-.26.78-.47 1.23-.7m-34.2 1.23c.05-.44.27-1.22.44-1.81.04-.15.67-1.59.65-.96 0 0-.18.52-.24.68-.13.34-.29.77-.32.96-.12.71-.14 1.88.53 2.03.13.03.24-.15.28-.26.06-.17.12-.32.26-.32.21 0-.2.91-.2.92-.18.29-.32.52-.67.58-.58.1-.81-1.33-.72-1.83m-40.82-.24c-.64-.13-1.25-.64-1.68-1.02-1.09-.93-1.43-3.05-1.24-4.72.1-.98 1.05-4.58 1.71-4.28.06.03-.46 1.37-.53 1.55-.22.55-.42 1.13-.46 1.85-.05.77-.11 1.6.08 2.25.19.66.45 1.16.79 1.64.3.42 1.07.83 1.6 1.01 1.24.41 2.82.19 4.07-.12 1.45-.36 5.8-2.89 6.52-3.89.16-.22-.72-.4-.87-.42h-.81l-.52.04h-.52c-.58-.04-1.07-.1-1.57-.28-.18-.07-.36-.14-.52-.23l-.22-.14-.19-.21c-.25-.13-.44-.68-.46-1.04-.04-.53.26-1.54.46-2.25.05-.16.79-1.31 1.38-2.24.4-.63 2.27-1.93 3.16-2.04.62-.07 1.37.73 1.49 1.27.06.29-.27 1.11-.39 1.28-.03.04-.43-.36-.51-.44-.18-.18-.42-.38-.74-.41-.91-.11-2.03.77-2.56 1.28-.33.32-.73.7-.95 1.01-.14.2-.3.41-.38.62l-.1.28c-.05.15-.03.98 0 .96l.09.15s.19.14.24.17q.25.16.4.2c.42.11.94.23 1.37.26h.56l1.05-.04c.25 0 .75.02 1.09.16.74.3 1.04.93.95 1.75-.12 1.08-.45 1.4-1.02 1.98-.77.77-1.92 1.53-2.93 2.2-.99.66-2.23 1.39-3.49 1.71-1.5.37-2.8.68-4.36.18m42.26-19.88c.11-.29.43-1.14.6-1.14.02 0 .18.33.23.42q.06.12.1.24c.04.12.06.18.1.26.2.39.46.93.58 1.23 0 .02.35.8.55 1.22 0 .02.64 1.43.24 1.29-.21-.08-.33-.22-.53-.45-.1-.12-.35-.42-.45-.38-.15.06.31 3.21.34 3.38 0 0 .15 1.06.22 1.61l.04.28.04.4v.16l.04.2q.04.18.08.44c.38 2.47.69 5.11.69 7.45 0 .85-.19 2.31-.65 2.97-.19.28-.19-1.3-.19-1.3 0-.35-.01-.67-.04-1.12-.02-.3-.05-.62-.08-.96l-.04-.4-.04-.28-.04-.6-.04-.32c-.13-1.46-.34-3.24-.56-4.82-.07-.44-.11-.88-.16-1.36-.04-.37-.1-.85-.16-1.28-.06-.42-.14-1.01-.16-1.33-.03-.32-.1-.86-.16-1.33-.12-.85-.29-2.15-.32-2.57-.03-.3-.11-1.06-.12-1.09-.08-.25-.18-.54-.08-.8m7.42 16.64.04-.58.04-.44q.03-.21.04-.36c.03-.32.11-.58.2-.84s.19-.5.3-.74c.12-.27.31-.66.28-.74l-2.46-2.13c-.12-.03-.05-1.5.05-1.72.02-.04 1.14.44 1.36.53 0 0 .3.11.45.16.17.06.33.13.48.2.55.25.05.41-.33.53-.24.07.49.56.52.58.32.21.7.46 1 .46 0 0 .21-.31.23-.34.1-.16.27-.38.5-.66l.39-.57.09-.13c.06-.08.24-.32.24-.32.11-.13.21-.27.32-.41.11-.16.58-.82.67-.78.2.1-.39 1.82-.51 1.98-.16.22-.56.77-.57.78-.14.21-.51.78-.51.86 0 .05.55.45.83.64.3.21.57.47.77.78.19.3.46.83.38 1.22-.14.72-.33 1.62-.42 1.79-.23.4-1.51 1.26-1.98 1.47-.26.12-.58.2-.87.26-.09.02-.21.04-.22.04l-.16-.02c-.08-.02-.11-.02-.12-.02-.59.18-.92-1.05-1.03-1.48m4.02-1.61c.21-.43-1.98-1.61-2.33-1.54-.19.04-1.03 1.72-1.08 2.08-.05.34.25.61.44.78.58.5 2.88-1.01 2.97-1.32m-51.06-1.32c-.22-.73-.41-1.38-.75-1.93-.17-.27-.36-.56-.57-.8-.24-.26-.51-.54-.58-.91-.04-.18.14-.76.32-.66.14.08.43.45.55.6.31.42.77 1.07.89 1.33.37.82.6 1.77.71 2.83.02.17-.16 2.05-.29 2.2-.11.13-.11-1.19-.11-1.3 0-.12-.1-.9-.16-1.36m20.49 2.54c.03-.1-.06-.85-.1-.78v.39s-.2-.18-.2-.18c-.26-.24-.58-.41-1-.47-.14-.02-.67.32-.94.49-.31.2.55.49.66.51.2.04.46.08.59.08q.17 0 .46-.04c.17-.02.45-.06.54 0m44.38-2.2c-.02-.21-.81-.62-1.09-.68-.57-.12-1.43.16-1.34.73.02.16.83.27.94.27.17 0 1.71 0 1.49-.32m-36.25-3c-.09-.32.67-1.43.98-1.33.02 0 .44.23.68.35 0 0 .29.19.37.24.12.08.24.16.37.21.12.04.38-.38.44-.48.15-.24.36-.57.61-.6.23-.03 1.26.88 1.39 1.08.16.25-.52 1.19-.72 1.31-.15.09-.9-.52-1.12-.7-.32-.25-.6.13-.85.47-.35.48-.46.62-.97.25-.14-.1-.38-.26-.57-.39-.18-.12-.58-.38-.6-.41m-11.75-3.08c-.04-.24.11-.93.28-1.02.32-.17 1.46.77 1.67.97.23.22.49.46.66.72.1.16.5.74.58.69 0 0 0-1.3 0-1.37 0-.28.03-.61.12-.9.07-.23.37-1.08.54-1.1.73-.09 1.4.9 1.05 1.59-.04.09-.54-.28-.56-.29-.23-.17-.43-.32-.68-.29-.04 0-.07.91-.08 1.22l-.04 1.08v.26c-.02.28-.16 1.64-.44 1.56-.01 0-.08-.2-.09-.21-.03-.09-.03-.09-.14-.32-.1-.22-.21-.4-.32-.58-.2-.32-.42-.61-.68-.87-.13-.13-.26-.25-.41-.35q-.12-.08-.3-.04l-.14.06h-.12c-.3-.07-.89-.45-.91-.78m12.63.42c.04-.2.54-1.16.71-1.16.25 0 1.38.91 1.45 1.1.2.51-.3 1.1-.66 1.42-.24.21-1.46-1.13-1.5-1.36m45.78-3.63c.22.01.06.4 0 .56-.17.45-.37.96-.38 1.08-.03.42.12 1.32.43 1.45.22.09.44-.06.52-.22.07-.13.25-.49.3-.45.25.19-.36 1.76-.94 1.65-.72-.13-.71-1.55-.65-2.03.06-.39.17-.71.3-1.08.04-.12.14-.38.14-.38.09-.18.28-.55.28-.58m-14.55 2.11c0-.41.14-1.12.3-1.55.09-.22.48-1.22.58-1.18.09.04-.21.76-.24.82-.12.3-.19.75-.24 1.15-.07.48.56 1.85.99 1.43.14-.14.17-.17.22-.4.05-.2.14-.54.28-.47.22.12-.2 1.83-.82 1.93-.73.11-.98-1.13-1.07-1.73m-13.62-1.24c.18-.05.49.17.67.3.19.14.35.25.56.36.35.19.47-.04.63-.36.12-.24.29-.57.48-.64.28-.1 1.49.8 1.55 1.16.07.39-.45 1.15-.68 1.34-.12.1-1.22-.79-1.35-.9-.17-.15-.44.35-.53.53-.09.17-.36.67-.44.66-.29-.02-1.41-.76-1.53-1-.15-.29.38-1.38.65-1.45m27.54-3.71c.02-.08-.33-.36-.5-.49-.2-.16-.41-.37-.51-.63-.16-.43.14-1.29.3-1.63.14-.3.38-.58.73-.68.31-.09.55.2.69.36.13.16.24.79.26 1.04v.26l.04.52c.01.25.03.59.07.63l.22.18c.13.11.26.21.31.28.14.21.13.83-.11.89-.02 0-.24-.15-.34-.22-.17-.12-.35-.25-.56-.3-.11-.03-.51.5-.61.62-.13.17-.68.66-1.07 1l-.21.17-.13.07c-.27.22-.57.46-.83.64-.79.52-3.7 2.33-4.39 2.11-.12-.04 1.55-1.06 1.63-1.11.64-.39 1.28-.79 1.87-1.22.11-.08.23-.16.35-.23l.14-.08.24-.16.14-.08c.27-.18.53-.39.77-.59.25-.21.5-.42.75-.62.17-.15.75-.64.76-.75m-77.01.63s-.22-.13-.32-.17c-.02-.01-.16-.1-.26-.16-.13-.08-.28-.2-.34-.34-.16-.39-.12-1.33.48-1.1.3.11.79.5 1.08.73s.58.49.98.95q.08.11.16.22c.11.16.34.51.44.5l-.02-.66v-.46c0-.28.03-.82.12-1.16.08-.32.35-1.15.54-1.27.63-.35 1.19.57 1.35 1.06.08.23-.08.58-.26.58l-.34-.28c-.11-.12-.25-.26-.29-.29-.27-.2-.67-.25-.73.2-.04.39 0 1.33.04 1.89.02.28 0 .57-.04.88-.04.27-.2 1.46-.38 1.41l-.06-.28c-.07-.17-.14-.34-.22-.5-.12-.23-.26-.49-.41-.69-.22-.3-.67-.87-1-.95-.12-.03-.22.24-.26.38-.09.26-.18.51-.3.74-.09.18-.3.49-.58.84-.12.12-.13.13-.16.18-.03.07-.92.77-1.14.93-.19.13-1.49.95-1.64.8-.09-.09.29-.4.33-.43.19-.16.41-.34.56-.48.34-.31.7-.62 1.05-.9.3-.24 1.87-1.7 1.59-2.15m30.07 3.52c-.16-.33-.23-2.3.1-1.95l.05.23.04.32.04.36c.02.16.09.33.19.41.38.3.88.14 1.08-.25.03-.05-.03-.53-.06-.8-.03-.24.01-.61.1-.88.13-.41.33.55.34.64.08.45.12.66.36.94.15.17.58.12.75.03.12-.07-.05-.52-.1-.68-.06-.16-.14-1.29.15-1.22 0 0 .08.24.09.25.04.13.11.33.14.4l.06.12.06.16.06.12.04.16.05.43-.05.41c0 .06-.09.34-.1.36-.08.17-.23.3-.38.4-.21.14-.51.17-.79.1-.1-.02-.21-.1-.27-.15-.14-.1-.15-.11-.42.12t-.23.18c-.15.11-.28.19-.49.25-.38.12-.69-.22-.81-.46m-17.14-1.26c.85-.93 9.47-5.13 9.64-5.07.14.04-.16.77-.2.8-.24.2-1.9.98-2.44 1.21-.97.41-1.98.94-2.87 1.51l-.36.2-.14.08-.14.08-.16.08c-.14.08-.34.18-.44.24q-.12.07-.22.12l-.14.08-.14.08-.24.16-.18.08-.29.16c-.39.22-1.08.63-1.44.89-.08.06-.26.21-.29.21-.31.04-.09-.84.06-.92m37.03-3c0-.06-.24-.33-.33-.43-.18-.2-.34-.42-.4-.72-.07-.33.28-1.23.47-1.5.18-.25.42-.43.76-.51.24-.05.46.26.5.46.07.3.09.55.08.92 0 .1-.05 1.31.04 1.28.11-.04.82.68.85.88.02.16-.06.65-.44.51-.11-.09-.2-.15-.33-.23-.19-.11-.54-.32-.59-.34-.13-.06-1.04.96-1.16 1.11-.24.3-.9.78-1.4 1.16-.66.49-1.64.96-2.48 1.2-.67.2.8-.82.85-.84.17-.11.85-.6 1.24-.89.75-.55 2.21-1.63 2.33-2.08m-19.24-1.08c-.31-.22-.91-.65-.98-.93-.1-.37.15-1.05.3-1.28.09-.15.52-.5.73-.54.45-.1.67.3.81.6.09.2.1.54.1.74 0 .14 0 .99.08.96.28-.1 1.03 1.14.78 1.6-.06.11-.51-.33-.57-.39-.16-.16-.41-.32-.62-.39-.09-.03-.49.46-.6.6-.15.19-.41.51-.72.82-.12.1-.31.27-.45.4l-.33.25c-.09.05-.17.11-.21.17-.2.37-3.74 2.22-4.13 2.18-.18-.01 1.33-1.01 1.47-1.11.02-.02.5-.39.73-.57.24-.19.49-.39.76-.55.53-.32 3.09-2.09 2.83-2.56m23.7 3.05c.17-.23 2.9-1.87 3.93-2.46.35-.19.69-.39 1.03-.6.36-.22.73-.44 1.09-.64.36-.21.85-.49 1.09-.64.3-.2.89-.58 1.1-.62.23-.04-.02.68-.05.78-.02.05-.68.49-.97.68-.16.11-.36.24-.5.32-.24.14-.71.4-.71.4l-.26.16q-.14.08-.26.16l-.28.16-.32.22-.16.06-.23.13s-.46.3-.59.39c-.15.1-.7.41-1.03.6-.38.21-.74.45-1.09.68l-.53.32q-.08.05-.28.16c-.1.05-.26.16-.38.24-.64.42-.85.53-.58-.51m11.31-2.94c-.07-.15.04-.97.18-.94.8.15 1.43.55 2.13 1.35.1.11.23.28.35.42.05.06.22.33.31.47.07.1.29.46.34.43.05-.02.05-1.03.05-1.22 0-.57.02-1.22.18-1.76.1-.36.9-1.61 1.41-1.21s.82.93.42 1.62c-.07.12-.41-.24-.44-.28-.15-.16-.36-.39-.58-.36-.26.04-.46.24-.5.5-.05.33-.06.63-.04.84.05.64.03.89 0 1.5-.03.51-.15 2.25-.54 2.1-.03-.01-.09-.24-.11-.31-.03-.11-.07-.21-.12-.32-.04-.08-.2-.32-.3-.48-.22-.33-.49-.73-.73-1-.13-.14-.27-.29-.38-.38q-.17-.13-.34-.13t-.32-.02c-.29-.12-.94-.46-.95-.84m-55.61 1.06c.03-.51.12-1.12.28-1.57.07-.19.4-1.11.58-.96.03.03-.18.63-.25.84-.13.37-.25.72-.2 1.1.06.51.12 1.05.35 1.34.11.14.33.25.5.14.1-.06.15-.21.19-.34s.11-.32.2-.29c.26.06-.24 1.5-.58 1.6-.8.24-1.08-1.13-1.07-1.87m39.59-1.73c0 .33.86 1.02.89.64.03-.41.04-1.12-.4-1.1-.09 0-.53.32-.48.46m26.68-.29c-.1.5.74.97 1.12 1.03.26.04-.11-1.11-.18-1.21-.1-.13-.26-.18-.48-.15-.07 0-.22.08-.27.13zm-45.08-.27c-.09-.85-.97-.78-1.01-.4-.03.22.27.4.46.52.23.14.6.37.55-.12m7.26 3.45.04.36v.38l.04.26.04.28c.05.37.08.63.12 1 .06.52.14 1.11.2 1.53.08.57.15 1.06.2 1.55.03.22.12 1.02.12 1.02.08.43.16.97.2 1.39.1.99.28 2.8.29 3.39 0 .42-.15 2.15-.47 2.57-.22.3-.44.59-.83.72-.46.16-.93.21-1.43.1-.31-.07-.62-.29-.84-.47-.18-.14-.6-.48-.65-.46-.02 0-.16.27-.17.29q-.08.16-.16.28c-.12.18-.26.37-.44.51-.34.27-.72.45-1.24.53-.62.1-1.16-.67-1.34-1.09-.05-.12-.45.27-.49.32-.04.04-.14.15-.18.21t-.18.16c-.28.22-.58.38-.94.53-.17.07-.37.13-.56.16-.24.04-.27.04-.44.04h-.16c-.23-.03-.35-.04-.36-.04-1.14.12-1.72-1.66-1.76-2.64 0-.04-1.19.64-1.22.66-.19.1-.69.38-.69.38-.23.11-.55.25-.6.42l-.06.32-.04.24-.04.16-.04.2-.04.2c-.08.39-.2.79-.4 1.07-1.22 1.7-2.92 3.01-4.79 4.05-.27.15-.63.28-.93.36-.09.03-.4.09-.57.12l-.24.04c-.3.03-.39.04-.4.04-.42.1-1.27-.07-1.68-.26-.46-.22-.76-.54-1.03-.94-.22-.33-.38-.81-.46-1.26-.09-.47-.1-.91-.04-1.36.03-.24.15-1.14.08-1.16-.21.08-.88.52-1.25.76l-.16.08-.13.09q-.18.14-.21.15-.13.08-.36.22l-.14.06-.38.24c-.14.08-.42.24-.42.24l-.22.14c-.12.06-.4.22-.4.22-.21.14-.44.25-.68.36l-.12.06-.16.06c-.14.06-.36.16-.44.2-.39.22-2.11.56-3.84.9-.69.14-1.6.32-2.02.5-.29.13-1.58.61-1.71.47-.04-.05.77-.55.84-.59.18-.11.36-.19.59-.28.26-.1.51-.2.75-.32.35-.18.89-.38 1.35-.56.44-.17 1.01-.39 1.35-.56.33-.16.67-.33 1.03-.48.35-.15.79-.36 1.13-.56.23-.14.75-.39 1.13-.56l.24-.14.12-.04.16-.06.14-.08.14-.08.16-.08.16-.08c1.3-.65 6.51-3.86 6.84-4.82.07-.22-.93-2.04-1.27-2.65-.31-.56-1.25-2.46-1.27-2.65-.05-.41.2-.99.34-1.28.06-.12.87.69.93.76.05.05.15.13.21.18.11.09.21.17.3.28.14.15.35.38.35.51q0 .14-.26.1s-.43-.04-.3.1c.58.64 1.2 2.16 1.5 3.05.17.5.07 1.86-.08 2.37-.15.52-.41 1.03-.92 1.48l-.13.07-.19.21c-.22.17-.47.37-.65.55-.12.12-.39.3-.57.42-.29.2-.55.37-.65.55-.26.47-.28 1.1-.28 1.69 0 .51.22.92.43 1.24.26.38.77.57 1.24.75.4.15 1.21.17 1.61.04.89-.29 1.59-.54 2.3-.94 1.21-.69 3.05-2 3.75-3.15.11-.18-.02-.54-.13-.64 0 0-.67.14-.91.19-.46.1-1.17.18-1.43.12-1.62-.39-2.35-.99-1.57-2.91.34-.85.99-1.35 1.96-1.59.37-.09.92.22 1.11.39.26.26.58.57.72.76l.15.21.16.26c.15.23.37.56.44.58.18.06 1.52-.67 1.8-.82.28-.16.6-.37.89-.56.33-.22.67-.44.96-.41.09 0-.02.78-.03.9-.05.33-.02.65.08.96.07.22.37.59.62.88.2.24.98.26 1.33.26.44 0 1.38-.41 1.59-.62.27-.27.52-.52.76-.83.22-.29.51-.69.85-.79.14-.04-.1.54-.12.58-.13.31-.11.57.03.84s.48.43.78.51c.27.07 1.04-.34 1.16-.49.21-.26.43-.64.67-1.06.17-.3.55-.96.81-.96.1 0-.07.45-.08.48-.08.2-.14.36-.04.54.2.38.58.61 1.01.76.32.11 1.5.15 1.55-.26.15-1.19-.66-6.66-1.09-9.44-.24-1.55-.48-3.49-.61-5.22-.01-.19-.05-.44-.12-.68-.09-.29-.17-.56-.12-.72.12-.43.31-1.06.45-1.3.14-.23.55.81.59.91.08.2.25.61.27.65.09.19.2.4.28.6l.06.14.06.14.08.14.08.18c.1.21.18.43.26.66.02.06.5 1.79.26 1.41l-.14-.04c-.08-.04-.13-.1-.32-.33q-.15-.19-.16-.2c-.08-.1-.25-.19-.42-.2 0 0 .19.79.17.74" fill="#1d1d1b" fill-rule="evenodd"/></svg>