<svg viewBox="0 0 85.98 27.31" xmlns="http://www.w3.org/2000/svg"><path d="m21.85 19.86.7-.48c.17-.11.35-.22.53-.32l.16-.08.28-.16.14-.08c.6-.35 1.56-.83 2.29-1.19.09-.04-.59-.61-.65-.66 0 0-.23-.17-.32-.24-.14-.1-.29-.22-.43-.33-.26-.21-.53-.4-.81-.59-.24-.16-.52-.34-.62-.62-.17-.43-.36-.93-.22-1.46.12-.49.28-.83.62-1.09.38-.31.72-.52 1.26-.7.81-.27 2.17-.28 3.09-.28 1.24 0 8.19.84 8.79 1.37.15.13-.33 1.41-.45 1.61-.09.16-.39.27-.62.35-.22.08-.5.24-.74.38-.07.04-.53.25-.79.36-.2.09-.99.44-.99.44l-.14.08-.14.08c-.15.08-.32.15-.47.22l-.16.06-.22.08s-.27.13-.4.2c-.2.1-.4.19-.63.28-.27.12-.71.3-.89.58l-.16.24c-.08.12-.24.36-.24.36s-.16.24-.24.36c-.1.15-.29.45-.32.5-.09.18-.24.48-.24.48-.08.13-.18.29-.24.42l-.08.2-.12.24c-.1.18-.28.56-.28.56-.29.76-.65 1.68-.71 2.41-.05.53.11 1.17.34 1.58.85 1.5 2.6.39 3.62-.29l.4-.36s.39-.34.56-.48c.18-.16.44-.38.53-.48.18-.21.42-.5.58-.63.56-.46 1.49-1.29 2.2-1.93.89-.8 2.85-1.37 4.22-1.71.68-.17 1.45-.36 2.06-.56.35-.12.68-.24 1.01-.38.22-.1.45-.21.67-.32l.42-.32c.14-.05-.52-4.95-.55-5.18-.12-.9-.22-1.64-.32-2.49l-.04-.4-.04-.28-.04-.32-.04-.3s0 0-.04-.47l-.04-.24-.04-.32c-.21-1.55-.33-2.89-.48-4.58-.03-.38-.09-.59-.18-.88-.07-.25-.07-.46.02-.72.11-.34.32-.91.45-1.07.12-.14.65 1.23.7 1.35l.08.2.14.36q.05.14.14.32c.04.07.14.33.2.48.24.61.63 1.56.62 1.81 0 .47-.39.06-.49-.05-.17-.19-.42-.45-.54-.47-.03 0 .08 1.05.1 1.2.05.48.11.97.16 1.37l.04.24.04.24.04.36.04.28.04.32.04.24c.04.28.08.57.12.84.28 1.97.53 3.81.65 5.78.07 1.28-.08 3.11-.86 3.87-.72.7-2.25 1.18-3.36 1.49-1.32.38-2.78.79-3.73 1.26-1.13.56-1.97 1.31-2.82 2.14-.19.18-.48.47-.58.6-.21.26-.43.51-.66.75-.39.4-.85.8-1.3 1.13-.37.27-.8.48-1.29.58-.43.09-1.22-.03-1.71-.22-.42-.16-1.01-.78-1.21-1.16-.26-.49-.35-1.09-.39-1.81-.06-1.15.43-2.34.81-3.25.2-.48.4-.94.67-1.36q.08-.13.16-.28l.16-.28c.14-.22.32-.52.32-.6 0-.27-.75.35-.77.38-.1.15-.39.61-.4.6q-.11-.03-.21-.17c-.06-.08-.11-.09-.23-.11-.27-.03-2.34 1-3.21 1.42-.53.26-1.04.53-1.51.84l-.46.32-.13.07c-.19.16-.62.52-.63.52-.2.08-1.69 1.67-2.32 2.35-.19.21-.4.43-.57.66-.16.21-.47.59-.51.63-.33.33-1.05 1.04-1.26 1.15-.86.48-1.85.81-2.86.38-.17-.07-.38-.23-.57-.38l-.15-.05-.18-.18c-.13-.16-.22-.27-.24-.28-.61-.19-.42-2.56-.33-2.99.08-.39.2-.79.32-1.16.04-.12.15-.4.22-.6.08-.22.2-.54.22-.66.02-.14-1.15.4-1.15.4l-.18.06-.18.08-.2.08-.2.08q-.24.11-.36.14t-.32.1c-.73.27-1.52.51-2.34.66-1.17.21-2.68.33-3.49.37-1.55.07-3.06-.77-3.87-1.69-.38-.43-.6-1.08-.77-1.71-.22-.8-.03-1.69.16-2.57.05-.23.15-.52.24-.76.11-.31.32-.91.26-.98-.31-.38-.56-.86-.62-1.47-.12-1.07.7-6.24 1.53-6.58.39-.16-.13 1.58-.24 1.89-.3.84-.49 1.63-.69 2.53-.13.61.09 1.27.26 1.69.55 1.34 1.22.45 1.45-.48.1-.41.2 1.04.14 1.32-.06.31-.13.66-.22.82-.09.17-.33.4-.5.48l-.19.04-.24.04c-.17.04-.26.12-.32.26-.23.49-.36 1.05-.42 1.68-.06.58.2 1.36.42 1.83.16.34.67.79 1.11 1.18.36.32 1.27.58 1.83.7 3.29.73 10.59-1.96 12.4-3.97.14-.16.07-.36-.04-.52-.24-.37-1.03-.47-1.53-.49-.93-.04-2.16-.11-2.4-.16-.19-.04-.33-.13-.46-.22q-.15-.1-.22-.2c-.1-.12-.12-.15-.18-.19-.21-.14-.12-1.36-.05-1.62.27-.95.78-1.54 1.63-1.91.4-.17.78-.09 1.13.02.34.11.63.32.88.53.06.05.63.62.63.62.86.59 2.01 4.3 1 5.31-.37.37-.85.78-1.31 1.06-.5.31-1.51.92-1.6 1.11-.44.95-1.69 3.86-1.01 4.84.23.33.5.59.89.76.37.17 1.07.01 1.41-.14 1.37-.61 2.43-1.78 3.34-2.86.85-1.02 1.93-2.24 3.26-3.12m-17.81 5.8c.28-.11.58-.23.79-.34.23-.12.64-.28.95-.4l.28-.14.12-.04.32-.12c.15-.06.42-.16.46-.18.1-.05.22-.1.34-.14 0 0 .54-.22.73-.3l.2-.08.2-.1.14-.06.26-.1.14-.06.18-.08.12-.06.16-.06.2-.08.12-.06c.34-.14.99-.39 1.03-.4.23-.03-.02.51-.06.58-.27.41-2.97 1.46-3.96 1.83-.69.26-1.41.54-2.06.84-.18.08-.99.42-1.05.3-.06-.13.29-.71.36-.74m19.43-1.79c-.03 1.17.52 1.56 1.14.51.22-.37-.06.83-.11.92-.17.34-.4.66-.89.64-.88-.04-.62-2.11-.36-2.71.07-.17.16-.4.24-.6.03-.07.28-.6.28-.6.17-.06-.05.56-.08.64-.13.37-.19.76-.22 1.2m39.47 1.15c-.38-.39-1.04-1.1-1.1-1.31l-.06-.16-.08-.2-.06-.16c-.04-.12-.12-.62-.16-.92l-.04-.24.04-.54q0-.22.04-.58c.03-.26.05-.46.04-.59-.03-.19-1.33.75-1.4.8-.19.15-1.01.66-1.48.95-.51.31-1.04.6-1.58.88l-.97.5s0 0-.28.14c-.17.08-.45.22-.46.24-.26.2-2.45.64-3.25.78-.56.1-1.28.23-1.73.36-.47.13-1.29.36-1.71.31-.38-.04 1.32-.8 1.35-.82l.16-.06.16-.06.2-.08.16-.06.16-.06q.21-.09.24-.1c.12-.04.36-.12.36-.12.99-.38 2.08-.8 2.84-1.27.34-.21 1.01-.55 1.47-.78l.26-.15.13-.07.26-.16.24-.14.16-.06.16-.08.12-.08.26-.16c1.1-.62 2.14-1.25 3.16-1.93.66-.44 3.67-2.63 3.42-3.21-.06-.14-.47-.96-.75-1.51l-.08-.14c-.16-.26-.16-.26-.16-.26-.08-.14-.16-.29-.24-.44-.13-.25-.39-.72-.5-.94l-.12-.36c-.1-.29-.21-.58-.32-.84-.29-.66-.37-1.35-.01-2.16.03-.07 1.39 1.25 1.52 1.41.07.06.14.13.2.2.12.12.35.38.37.41.08.14.07.32-.2.28l-.16-.04c-.09-.02-.37-.07-.42 0-.11.17.92 1.84 1.06 2.06.62.93.55 2 .42 3.33-.06.61-.63 1.21-1 1.58-.22.23-.53.53-.71.67-.3.23-.46.38-.69.7-.15.21-.28 1.56-.14 1.63l.04.24.04.16q.04.18.1.32c.1.24.25.48.41.71.92 1.38 3.29 1.2 4.81.49 1.45-.67 4.81-3.33 5.51-4.66.12-.23.05-.49-.11-.66-.05-.04-.58.07-.94.16-.52.11-2.24.26-2.14.2.01-.01-.27-.08-.29-.08-.08-.01-.24-.05-.36-.1-.3-.13-.51-.31-.7-.55-.43-.57-.2-1.59-.05-2.26.17-.76 1.06-1.59 1.92-1.66.43-.04.92.22 1.29.42.36.19.67.54.94.83.02.02.29.39.41.54.13.18.29.39.43.37.53-.09 1.71-.97 2.17-1.35.21-.18.9-.72 1.08-.7.25.03.26.31.24.58-.03.52-.03.69.1 1.08.06.18.22.33.36.45q.16.15.35.27c.07.04.21.13.22.14.2.2 1.06.2 1.47.2.19 0 .57-.21.83-.34l.28-.12.24-.16q.18-.13.21-.15c.15-.08.62-.89.79-1.22.19-.36.63-1.18.83-1.22.27-.07.06.53.02.62-.14.33-.32.73-.28.92.15.68 2.13 1.32 2.83.8.12-.09-.23-.69-.24-.72-.11-.16-.27-.4-.3-.5-.04-.12.3-1.34.37-1.44.2-.29.62.77.68.94.05.15.16.45.16.56 0 .08.02.52.1.52.28 0-.38 1.74-.4 1.77-.14.2-.48.71-.73.7l-.36.08c-.41.06-.77.02-1.13-.08-.38-.11-.67-.3-.94-.52-.15-.12-.24-.21-.36-.36-.1-.13-.29-.36-.32-.38-.06-.03-.23.22-.25.27-.1.18-.23.42-.31.51-.09.11-.22.27-.31.34-.05.04-.13.11-.19.15-.11.08-.2.14-.23.17-.33.32-1.18.48-1.74.53-.44.04-1.09-.19-1.42-.43-.31-.23-.54-.52-.73-.88-.08-.15-.14-.33-.18-.52-.03-.13-.14-.61-.18-.58-.43.25-2.19 1.47-2.28 1.79l-.04.4-.04.52c-.01.11-.05.48-.08.64-.03.19-.14.47-.28.64l-.14.28-.08.12c-.11.16-.24.34-.4.54l-.19.23-.08.13c-.13.13-.29.28-.38.39-.07.08-.55.55-.82.8-.26.24-.6.57-.77.74-1.01 1.04-2.46 1.83-3.98 2.33-.92.3-2.93.38-3.56-.4m-19.8-.07c-.21-.46-.2-.68-.14-1.25.05-.48.9-2.58 1.14-2.66.32-.11.11.26.05.35-.1.19-.18.37-.26.58q-.02.07-.12.24l-.12.24c-.11.23-.22.55-.21.8.02.36.08.71.32 1.1.13.21.47.03.58-.06.07-.05.15-.26.21-.39.05-.13.14-.34.25-.29.21.08-.5 1.32-.55 1.39-.36.45-.88.6-1.15-.05m36.08-3.83c.31-.13.68-.04.89.1.27.18.46.3.85.22.33-.07.6-.3.77-.53.14-.19.47-.63.47-.63l.03.38c.03.11.09.2.18.24.21.09.51.21.71.08.04-.03.14-.38.24-.72.07-.23.19-.57.38-.5.17.07-.1.94-.14 1.06l-.06.2-.14.28-.06.16c-.08.26-.49.49-.77.54-.12.02-.44-.09-.54-.14-.13-.06-.33-.16-.48-.05-.31.25-.64.51-.91.56-.34.06-.56-.06-.77-.18-.26-.16-.44-.26-.81-.18-.42.1-1.56.85-2.42 1.42-.32.21-2.27 1.37-2.66.98-.04-.03.53-.31.58-.34.23-.11.46-.26.67-.4.18-.12.61-.4.62-.41.13-.1.47-.32.69-.47.9-.6 2.48-1.61 2.68-1.67m-32.29-19.84c.03-.19.35-1.19.44-1.19.06 0 .51.9.59 1.07.03.05.11.28.14.36l.06.16.06.12.1.28.06.2.06.16c.22.51.95 2.15.72 2.52-.09.14-.39-.23-.48-.35-.1-.13-.37-.46-.48-.41-.03.02.15 1.7.18 1.93l.04.44.04.24.04.28c.04.33.11.97.12 1.08.07.93.21 2.21.45 3.21.28 1.19.61 5.28.81 7.77.05.61-.18 3.62-.75 3.84-.18.07-.15-.47-.14-.59.03-.58.06-1.03.04-1.24l-.04-.28v-.18l-.04-.48v-.34q-.03-.25-.04-.5s-.03-.44-.08-1.05c-.17-1.85-.42-3.92-.65-5.62-.16-1.23-.49-3.99-.73-5.98-.11-.92-.24-2.04-.28-2.81-.03-.64-.08-1.39-.16-1.81-.07-.35-.13-.64-.08-.84m7.2 18.59c-.52-.51-.3-1.92-.14-2.77.07-.38.21-.71.35-1.02.12-.27.41-.91.4-.94-.01-.07-.21-.23-.38-.36l-.12-.08-.13-.09c-.21-.18-.5-.42-.94-.86-.1-.11-.19-.22-.28-.34-.07-.1-.17-.18-.27-.26-.17-.14-.33-.26-.36-.39-.08-.43-.09-1.11.07-1.52.01-.03.51.18.64.23.31.13.63.25.93.36.32.12.68.25.86.36.1.06.27.21.12.33l-.17.05c-.08.01-.4.08-.42.09-.23.19 1.21 1.08 1.49 1.03.01 0 .48-.63.59-.79.08-.11.18-.24.24-.32q.05-.06.15-.21s.22-.31.25-.35q.14-.17.16-.2c.11-.13.21-.27.31-.41.16-.22.66-.88.66-.88.41-.32-.29 1.77-.34 1.85-.08.12-.33.46-.48.67-.16.23-.32.46-.48.7-.29.43-.16.52.24.76.24.15.47.3.66.49.38.4.78.84.85 1.51.04.36-.18 1.77-.38 1.95-.58.51-1.3 1.14-1.69 1.34-.51.27-2.06.95-2.38.04m3.65-2.65c.13-.52-1.77-1.5-2.2-1.59-.21-.04-1.05 1.56-1.15 1.83-.13.37.06.68.21.94.14.23.58.22.86.17.44-.09 2.26-1.04 2.28-1.34m-50.83.24c-.57-1.67-.08-3.43.38-5.06.04-.12.22-.75.26-.76.34-.1.02 1.18-.02 1.33-.19.75-.4 1.61-.4 2.23 0 1.22.89 2.75 1.42.85h.19c.06.05.01.45 0 .53-.04.32-.07.64-.16.88-.1.29-.32.74-.63.82-.32.09-.79-.5-1.05-.82m26.98-3.2c.17-.18-1.73-.53-1.86-.56-1.1-.21-2.22-.3-3.21-.36-.89-.06-4.66-.13-5.02.53-.11.21 1.52 1.36 1.83 1.58.05.04.65.5 1 .77.38.29 1 .78 1.14.73.66-.2 5.85-2.44 6.12-2.7m37.74 2.28c0-.27-.52-.64-.73-.74-.67-.36-1.55-.12-1.76.5-.1.28.91.41 1.11.42.22.02.65-.03.93-.08l.2-.04.24-.06zm-51.34-5.48c.04.1-.19.77-.28 1.02-.1.28-.28.78-.28.92-.03.66.03 1.21.35 1.56.11.12.36.16.47 0l.07-.19.04-.2c.02-.09.07-.21.13-.23.38-.11-.17 1.54-.53 1.67-.18.07-.51.02-.58-.22l-.08-.12q-.11-.17-.16-.3c-.09-.24-.12-.52-.14-.8-.05-.63.18-1.48.36-2.01.08-.25.41-1.22.64-1.1m17.74 2.4c-.16-.3.54-1.55 1.01-1.26.33.21 1.11.75 1.23 1.12.09.29-.36.9-.57 1.18-.23.31-1.65-.93-1.67-1.04m-23.26.85c-.04-.22-.74-.64-1-.69-.36-.08-1.36-.01-1.22.57.06.24.88.31 1.14.31.06 0 1.08 0 1.07-.19m66.76-3.5c-.25-.45-.24-1-.18-1.55.05-.48.6-1.93.81-2.06.14-.09-.05.57-.08.65-.03.07-.04.09-.14.28-.07.12-.15.29-.18.44-.13.71 0 1.6.58 1.74.13.03.33-.26.38-.38.03-.07.17-.43.24-.32.22.32-.36 1.33-.48 1.46-.35.39-.79.15-.95-.27m-13.98-1.65c.09-.57.51-2.77.91-2.7.04 0-.26.91-.3 1.03-.16.46-.24 1.09-.08 1.61.08.24.34.76.63.78.34.03.4-.13.46-.42.05-.22.12-.53.28-.47.33.12-.34 1.82-.84 1.93-.69.16-.98-1.21-1.05-1.77m-14.29.06c-.15-.27.48-1.51.83-1.42.02 0 .38.24.61.38.26.17.63.41.72.42.11.02.33-.41.41-.54.12-.22.27-.5.42-.6.26-.17 1.54.94 1.58 1.21.04.34-.07.57-.23.76-.15.17-.32.38-.42.58-.02.05-1.08-.7-1.08-.7-.51-.35-.53-.31-.85.32s-.39.77-.89.44c-.2-.14-.39-.27-.57-.41-.12-.09-.52-.42-.52-.43m-42.17 0c.1-.4.36-1.01.64-1.26.2-.18 1.39.74 1.52.86.31.27-.21 1.26-.52 1.41-.27.12-1.66-.7-1.63-1.01m25.32.6c-.25-.16-.19-1.3-.14-1.6.03-.16.18-1.07.3-1.04s.04.7.02.8c-.04.26-.07.45 0 .68.09.32.28.48.61.54.3.06.72-.37.83-.58.17-.33.18-.6.1-1.09-.08-.44-.06-.78.09-1.19.11-.3.3.56.31.63.06.39.11.74.2 1.08.07.25.23.47.41.62.24.19.82.11.82.11s-.4-1.05-.46-1.24c-.13-.43-.19-.89.08-1.3.06-.09.88 1.85.93 2.22.03.22-.14.92-.29 1.14-.12.17-.6.26-.86.25-.21-.01-.47-.16-.6-.27-.06-.05-.09-.09-.17-.21-.1-.15-.18-.27-.34-.23l-.07.17-.08.16-.16.22c-.06.08-.27.23-.42.34-.33.24-.94.22-1.11-.2m-13.7-5.89c.07-.13-.43-.5-.64-.65-.21-.16-.41-.32-.51-.59-.14-.38.04-.92.18-1.29.18-.45 1.06-.94 1.39-.59.17.19.26.43.33.71.06.25.11.49.12.8.03.53.04.76.31 1.11.08.1.18.23.23.33.09.18.1 1.18-.15.92-.17-.18-.48-.5-.63-.53-.09-.02-.51.54-.68.76-.02.02-.22.31-.31.43l-.17.23c-.3.38-.95.95-1.42 1.37-.74.66-4.21 3.37-4.89 3.16 0 0 .94-.82 1.06-.92l.13-.08.2-.16s.21-.17.3-.25c.28-.22.62-.5.81-.68.25-.25.63-.55.93-.79 1.29-1 2.37-2.05 3.41-3.29m3.09 4.62c-.07-.27.48-1.1.63-1.28.27-.32 1.53.84 1.63 1.12.03.09-.64 1.62-1.11 1.16-.19-.18-.39-.34-.6-.49-.16-.12-.47-.36-.55-.51m-19.25-2.05c.25-.4-.83-1.93-1.06-2.17-.27-.29-.62-.68-.88-.64-.25.04-.97-.27-1.07-.48-.1-.22-.14-1.34.3-1.35.37 0 1.46.9 1.7 1.17.22.24.5.56.62.76.11.17.6.97.66.96.05-.02.04-.79.04-.87 0-.18 0-.43 0-.67.02-.47.12-.85.24-1.21.14-.42.38-1.12 1.01-.8.48.24.64 1.06.4 1.55-.03.05-.35-.27-.4-.32-.12-.12-.36-.27-.54-.29-.2-.02-.26.23-.26.38v.9l-.04.28v.54c-.03.59-.13 1.19-.24 1.85-.05.28-.21.66-.32.92-.06.14-.14.3-.22.46-.07.13-.12.23-.17.29-.12.14-.15.18-.16.2 0 .02-.85.87-.97.97-.31.25-1.32.86-.47-.07.52-.56 1.74-1.96 1.83-2.38m74.96-2.19s-.36-.33-.59-.52c-.18-.15-.37-.34-.44-.59-.18-.64.36-2.05.95-2.23.19-.06.7.04.83.34.04.09.09.27.12.4.02.07.08.3.08.36l.04.88v.56c.02.1.25.32.48.55.25.24.29.68.09 1.03-.03.05-.42-.21-.49-.25-.25-.16-.43-.28-.63-.24-.02 0-.2.23-.26.29-.09.11-.26.32-.26.32-.1.1-.2.2-.3.29-.14.12-.31.27-.4.36-.18.19-.91.74-1.4 1.11-.54.41-3.9 2.43-4.54 2.16-.11-.04.58-.5.6-.51.08-.05.27-.16.41-.24l.24-.12.26-.16c.65-.4 1.31-.8 1.92-1.2 1.18-.78 2.58-1.71 3.29-2.59m-44.5-1.2c-.22 0-.87-.8-.92-1.07-.08-.39.21-1.1.39-1.32.22-.27.57-.47.94-.55.65-.15.65 1.51.57 1.95-.08.39.06.5.31.71.21.17.4.34.54.57.13.23-.1.67-.19.78-.02.02-.45-.33-.52-.39-.15-.12-.4-.32-.58-.28l-2.16 2.25c-.36.54-4.22 2.77-4.61 2.67-.16-.04.62-.61.68-.66l.56-.4.12-.08.25-.17c.54-.4 1.07-.81 1.59-1.23.24-.19.52-.39.78-.57.26-.19.75-.53.85-.63.42-.39 1.45-1.32 1.4-1.59m17.44.9c-.02-.1-.15-.24-.34-.42-.13-.16-.24-.34-.32-.54-.13-.35.12-1.05.24-1.36.13-.33.46-.67.81-.78.18-.06.42-.05.52.18.12.27.25.63.22 1-.02.38-.1 1.42 0 1.46.17.07.74.55.79.71.11.33.07.48-.07.85-.02.06-.52-.3-.57-.34-.2-.14-.52-.38-.71-.41-.06-.01-.96.97-1.14 1.16s-.45.42-.76.67l-.13.09q-.16.14-.19.15c-.09.05-.16.1-.24.17-.11.1-1.92 1-2.12 1.07-.69.23-.2-.37.08-.52.33-.18.67-.39.96-.62.24-.19.5-.38.76-.55.28-.18.56-.37.82-.57.53-.43 1.18-.94 1.4-1.39m-40.93 1.42c-.17-.67.16-2.04.36-2.85.08-.31.45-1.74.64-1.74.31 0-.11 1.65-.2 1.94-.21.75-.41 1.78-.02 2.51.14.27.36.52.69.56.17.02.29-.25.34-.38.06-.16.23-.59.3-.58.57.05-.31 1.87-.5 2.08-.14.16-.41.19-.63.13-.6-.17-.88-.98-.99-1.67m45.48.52c1.13-.69 3.79-2.31 3.89-2.37.15-.08.42-.24.42-.24l.14-.08.28-.16.16-.08c.38-.21.75-.43 1.13-.64.35-.2.85-.49 1.09-.64.27-.18.86-.56 1.05-.58.24-.03.01.65-.04.78-.06.16-8.25 4.99-8.25 4.99-.23.03-.09-.94.12-.98m11.22-2.73c-.02-.16.04-.97.22-.94.75.1 1.38.49 1.83 1.05l.18.22.1.14q.13.16.16.2l.16.2c.11.14.22.29.32.45.08.13.26.44.33.41.05-.01.05-1.41.05-1.46l.04-.14v-.37c.02-.72.18-1.01.46-1.5.54-.93 1.37-.98 1.72.16.06.2-.09.7-.21.78-.09.06-.36-.22-.44-.31-.14-.15-.42-.45-.62-.33-.28.17-.45.27-.47.62l-.04 1.69c-.02.3-.06 1.06-.08 1.2-.03.23-.2 1.44-.3 1.45-.19.02-.25-.2-.3-.4-.06-.22-.19-.43-.3-.6-.33-.5-.7-1.04-1.1-1.44-.07-.07-.23-.23-.32-.23-.31 0-.47-.01-.75-.18-.29-.18-.41-.35-.64-.68m-41.83 1.51c.04-.1.57-.45.95-.7.31-.21.86-.58.95-.67.48-.48-1.33-.22-1.5-.19-.32.06-.56.1-.76.27-.18.15-.43.36-.57.33-.63-.13.64-1.74.73-1.86.45-.57 3.79-.77 3.64.11-.07.44-.93 1.57-1.24 1.82-.27.22-1.87 1.35-2.21.89m53.41-2.65c-.33-.17-.82-.05-.92.31-.09.3.77.89.99.92.58.1.08-1-.07-1.24m-26.64.75c.07-.57-.19-1.24-.78-.71-.26.24-.03.54.14.7.18.18.57.55.64.01m-32.35-1.13c-.26-.16-.89.24-.64.53.13.16.85.55 1 .57.29.03-.29-1.04-.37-1.1m14.6-.43c-.09-.19-.58.08-.65.15-.2.18.09.42.25.56.94.78.82-.33.4-.7" fill="#1d1d1b" fill-rule="evenodd"/></svg>