<svg viewBox="0 0 89.35 27.52" xmlns="http://www.w3.org/2000/svg"><path d="m11.95 26.65c1.31-.76 5.7-3.08 5.76-3.1.23-.04.1.59.04.7-.09.16-1.1.75-1.43.92-.31.16-.61.32-.89.48-.16.09-.32.17-.5.24-.19.07-.31.14-.46.24-.51.31-1.11.62-1.63.88-.19.1-.37.19-.52.28l-.24.16c-.22.1-.26.08-.26-.14 0-.17 0-.62.15-.68m-10.56-1.9s-.12-.15-.18-.22l-.08-.13-.12-.08-.09-.13c-.18-.25-.32-.5-.45-.82-.1-.26-.18-.51-.26-.8-.04-.14-.1-.35-.12-.48l-.04-.34v-.2s-.02-.12-.02-.12c-.15-.35.25-2.12.38-2.59.07-.24.14-.49.22-.72.11-.34.3-.9.24-.98-.29-.41-.47-.97-.55-1.59-.12-1 .3-3.72.73-4.59.15-.3.15.71.12.86l-.04.12c-.04.12-.09.33-.12.48-.18.8-.32 1.61-.16 2.41.11.54.29.93.61 1.26.19.19.52.25.66-.03.02-.05.09-.2.1-.26l.04-.24c.05-.28.05-.32.11-.45.22-.49.18.92.17 1.02-.06.48-.11.81-.3 1.12-.06.1-.23.34-.32.38-.04.02-.26.08-.26.08-.16 0-.5-.03-.51 0-.19.79-.41 1.74-.5 2.67-.06.59.31 1.49.5 1.91.49 1.05 1.44 1.45 2.62 1.85.4.13 2.17.19 2.55 0 .01 0 .57-.14.85-.2.26-.06.5-.14.72-.22.27-.1.81-.3.81-.3.33-.14.71-.3 1.01-.42.87-.35 5.14-2.83 5.22-3.43.03-.22-.31-1.21-.44-1.54l-.12-.24c-.06-.12-.12-.29-.18-.44-.13-.32-.35-.89-.38-1-.03-.08-.14-.41-.2-.6 0 0-.11-.32-.16-.48l-.08-.28c-.03-.1-.14-.52-.2-.76-.05-.18-.1-.32-.18-.46-.11-.18-.17-.27-.14-.54.02-.27.21-1.17.37-1.3.05-.04 1.12 1.28 1.23 1.41.23.28.5.61.6.81.06.13.2.48-.08.42l-.24-.12c-.13-.06-.22-.08-.4-.1-.07 0 .1.48.1.48l.06.16q.08.2.1.24l.06.16.08.2.06.16s.16.43.24.64c.26.68.52 1.39.61 2.17.09.83-.18 2.26-.69 2.66-1 .8-2.02 1.54-3.12 2.27-.55.37-1.13.66-1.74.96-.34.17-.73.36-1.09.52l-.16.08q-.18.09-.32.14c-.17.06-.49.18-.53.2-.51.31-1.89.5-2.7.6-.71.09-1.68-.06-2.42-.32-.23-.08-.56-.27-.83-.42-.13-.07-.24-.16-.36-.25-.1-.07-.27-.21-.28-.21m63.75-1.1c-.22-.38-.24-1.23-.2-1.68.03-.4.09-1.13.05-1.38-.01-.08-.66.38-.71.41l-.25.17-.13.07-.14.08-.23.17c-.11.08-.23.16-.35.23q-.17.1-.28.17c-.11.08-.23.16-.35.23-.9.55-1.87 1.12-2.86 1.54-.98.42-2.08.77-3.31 1.04-1.19.26-3.74.78-4.07.77l.24-.41.16-.04.14-.06c.26-.11.53-.21.83-.32.47-.17 1.02-.38 1.45-.56.13-.06.89-.35 1.29-.5l.14-.06.14-.08.2-.08.16-.08.16-.08c.15-.07.36-.17.42-.2.17-.08.44-.22.51-.24.75-.27 2.2-1.14 3.09-1.68.22-.13.43-.24.67-.36.27-.14.61-.35.93-.56q.26-.16.38-.24l.24-.17.13-.07.25-.17c.11-.08.22-.16.33-.23.84-.57 3.35-2.32 3.33-3.09 0-.22-.51-1.12-.74-1.53-.26-.45-.65-1.14-.79-1.4-.55-1.08-1.16-2.41-.61-3.75.06-.14.35.26.35.26.1.13.31.37 1.02.99.21.2.49.48.63.68.08.11.28.46 0 .44l-.32-.1c-.12-.04-.28-.1-.31-.03-.12.22.42 1.15.64 1.54.27.47.73 1.28.79 1.63.17 1.05.08 2.41-.43 3.16-.32.48-.79.89-1.23 1.26-.59.49-.84.73-.99 1.65-.28 1.68 1.02 3.02 2.5 3.26 1.54.24 3.34-.62 4.34-1.34.4-.29.95-.69 1.2-.89.08-.06.46-.38.66-.55l.45-.38q.11-.13.19-.19c.61-.48 2.01-1.62 1.51-2.46-.04-.07-.54.09-.62.11-.18.06-.41.09-.61.12-.57.09-1.3.2-1.65.16-.52-.05-1.01-.28-1.35-.56-.54-.45-.5-1.79-.21-2.48.1-.23.21-.44.34-.64.08-.13.17-.22.27-.33.11-.11.24-.24.24-.25.04-.2.84-.42 1.1-.45.64-.06 1.33.49 1.79.85.18.15.39.4.57.62.23.29.6.74.67.73.32-.03 1.3-.7 1.7-.98.51-.37 1.43-1.04 1.68-1 .15.02.12.57.11.63-.05.47-.07.72.14 1.04.26.4.63.75 1.13.9.36.11 1.36.23 1.7 0 .74-.49 1.41-.94 1.63-1.34.32-.59.94-1.72 1.23-1.73.11 0-.13.7-.16.76-.11.21-.31.61-.24.76.12.28.57.72.91.76l.18.08.12.06c.17.07.47.11.68.12.38.02.64-.07.93-.18.11-.04-.2-.68-.2-.68-.21-.39-.32-.58-.3-.76.02-.25.22-1.16.4-1.26.49-.27.85 2.17.85 2.54 0 .54-.32 1.31-.59 1.6-.52.56-1.36.64-2.17.33-.31-.12-.61-.28-.84-.49-.09-.08-.2-.19-.28-.28l-.19-.25c-.07-.11-.13-.2-.17-.21-.06-.02-.22.25-.26.32-.1.17-.21.36-.33.49-.21.23-.42.44-.7.61-.42.27-1.08.53-1.69.5-.54-.03-.93-.05-1.31-.3-.3-.2-.62-.43-.79-.76-.09-.18-.19-.37-.24-.56-.03-.11-.06-.24-.08-.36 0 0-.09-.48-.13-.43 0 0-.68.5-.8.59-.13.09-.23.16-.36.24-.15.09-.32.21-.46.33-.38.32-.67.57-.71.83-.08.58-.28 1.75-.3 1.81-.16.39-.54.87-.82 1.22q-.06.08-.18.2c-.1.1-.17.19-.26.3-.02.03-.18.18-.2.2-.1.09-.18.19-.26.3-.2.3-2.96 2.53-3.24 2.56l-.4.24-.14.08c-.05.03-.4.2-.58.28-.34.16-.77.29-1.17.38-.71.16-1.4.2-2.18.04-1.05-.21-2.05-1.17-2.36-2.23m-23.16 1.37c.06-.96.13-2.2.57-2.7.21-.25.05.41.03.46-.15.51-.21 1.02-.12 1.57.03.19.2.57.36.6.27.06.29 0 .38-.28.05-.13.12-.34.26-.29.33.12-.35 1.47-.46 1.52-.64.29-.88-.43-1.03-.86m-8.17.48c-.46-.2-.81-.87-.95-1.4-.13-.52-.13-1.21-.06-1.73l.02-.24q.03-.38.08-.6c.06-.29.14-.68.14-.88 0-.15-1.37.6-1.37.6l-.24.14-.16.06-.16.08-.28.16c-.35.2-.71.37-1.07.52-.35.15-1.13.5-1.17.52-1.4.74-3.8 1.3-5.39 1.3-1.73 0-2.67-.64-3.73-1.37-.36-.25-.76-1.16-.97-1.7-.24-.59-.47-2.1-.64-3.21-.1-.66-.18-1.61-.24-2.33l-.04-.4-.04-.52-.04-.68-.04-.4c-.04-.37-.06-.63-.08-.96-.02-.32-.04-.85-.08-1.16q-.05-.39-.08-.8-.02-.24-.08-.72l-.04-.36-.04-.6-.04-.24-.04-.48c-.08-.77-.19-1.54-.32-2.29-.05-.25-.15-.78-.16-.84-.06-.24-.11-.48-.16-.72-.05-.25-.11-.52-.16-.72-.09-.33-.21-.77-.2-.92.02-.26.36-1.1.52-1.26.3-.31.76 2.16.81 2.46.3 1.66.48 2.97.65 4.74.15 1.52.48 5.52.48 5.52 0 1.38.12 3.15.52 4.56.21.73.37 1.3.67 1.85.18.33.85 1.02 1.19 1.16.55.24 1.23.53 1.67.58.92.11 1.75.13 2.82-.08 2.95-.59 5.66-1.73 7.84-3.18.19-.12-2.21-.6-2.39-.64-.99-.2-2.75-.52-2.98-.49l-.1.14c-.06.07-.12.12-.23.15-.16.04-.25.04-.63.04l-.38.04c-.39.03-.91.07-1.41.12l-.44.08q-.24.05-.38 0c-.07-.02.17-1.33.42-1.43l.44-.26s.6-.26.81-.34c.46-.19 1.1-.46 1.43-.5.32-.04 3.21.66 3.61.8.17.06 1.34.29 1.98.4l.4.08c.21.04.44.09.64.12l.28.04.2.04.2.04.36.04.24.04c.66.15 1.92.16 2.76.16l2.06-.11c.12 0-.16.72-.19.78-.11.27-.24.63-.41.84-.02.03-1.49.03-1.73.03-.51 0-1.28.07-1.81.2-.64.16-1.81.49-2.13.83-.12.12-.34 1.3-.47 1.98-.06.3.22 1.13.38 1.28.29.28.47.46.89.6 2.08.69 7.79-4.39 7.97-5.52.08-.52-.82-3.71-1.07-4.38-.05-.15-.18-.51-.26-.76-.1-.28-.28-.76-.42-1.12l-.06-.16-.08-.24-.06-.16q-.05-.1-.12-.28l-.08-.16-.08-.16-.06-.12c-.1-.22-.22-.5-.24-.66l.08-.82.04-.16q.05-.19.06-.28c.01-.2.43.27.45.3.1.15.2.31.28.46.23.4.46.81.64 1.24.35.81.69 1.63.95 2.53.28.98.54 1.95.73 3.05.11.66.24 1.45.36 2.05.06.3.28 1.19.44 1.28l.06.16.08.18c.07.14.16.26.24.38.15.21.35.48.58.6.91.48 3.17.32 3.43-.72.14-.57-.9-6.26-1.41-9.07-.12-.68-.25-1.4-.36-2.09-.07-.43-.17-1.04-.2-1.28-.05-.41-.13-.88-.2-1.33-.1-.57-.32-1.99-.32-2.01-.06-.56-.11-1-.2-1.53-.01-.08-.08-.31-.1-.36-.07-.21-.13-.39-.06-.56.08-.2.14-.38.2-.6.07-.27.15-.6.29-.74.11-.11.98 1.83 1.06 2.02.33.73 1.01 2.26.94 2.68-.04.22-.52-.31-.53-.32-.17-.18-.39-.42-.49-.43-.08-.01.11 1.31.14 1.48 0 0 .19 1.08.28 1.57l.04.2.04.32.04.32.16.88c.09.52.18 1.04.28 1.57.48 2.38.85 4.58 1.09 6.92.11 1.05.05 3.14-.68 3.89-.32.32-.84.64-1.4.97-.35.21-1.41.23-1.73.16-.52-.12-.92-.53-1.23-.88-.3-.34-.54-.82-.71-1.27-.09-.24-.25-.66-.26-.72-.04-.2-.18-.8-.28-.78l-.05.13q-.05.18-.1.32c-.08.25-.16.39-.28.58-.09.15-.48.61-.72.87-.46.53-.97 1.02-1.51 1.47-.11.09-.22.17-.35.26s-.4.28-.44.32l-.2.2-.39.31-.21.17c-.29.23-.62.45-.94.63l-.24.14q-.18.09-.26.14l-.22.14-.14.06-.12.08c-.74.61-2.08.39-2.85.08m50.56-3.59c.37-.09.57-.25.77-.49.09-.11.16-.22.23-.35.06-.1.2-.34.27-.32l.03.34.05.19.22.15c.17.08.47.14.63.02.02-.01.16-.44.24-.68.08-.23.21-.61.4-.55.55.19-.73 2.09-.86 2.15-.19.1-.43.14-.69.06-.42-.13-.58-.18-.6-.17 0 0-.19.16-.2.16q-.13.12-.24.19c-.17.11-.34.18-.58.22-.35.06-.59-.09-.81-.22-.19-.12-.33-.2-.61-.18-.46.03-1.67.83-2.44 1.35-.4.27-2.26 1.38-2.76 1.12-.24-.12.28-.3.28-.3.15-.04.33-.14.52-.26l.14-.08.14-.08.12-.08.28-.16c.52-.32 1.07-.68 1.55-1.06.45-.36.96-.73 1.48-1.01.27-.14.77-.36 1.13-.36.18 0 .39.1.52.19.21.15.4.28.77.21m-34.26-19.63c.07-.26.41-1.44.52-1.47.13-.03 1.12 2.1 1.19 2.27.11.26.21.52.32.76.09.19.18.4.26.6.13.33.47 1.16.26 1.37-.05.05-.51-.44-.56-.49-.25-.27-.52-.56-.57-.57-.07-.02.04.87.05.98.04.35.1.76.16 1.12l.28 1.89c.17 1.1.36 2.31.61 3.53.44 2.18 1.35 7.29 1.13 8.47l-.04.8-.04.36s-.08.4-.12.56c-.05.22-.24.76-.4.8s-.16-.59-.16-.84c0-.46-.12-1.47-.2-2.17l-.04-.36-.04-.32-.04-.2q-.05-.27-.08-.44c-.05-.3-.08-.57-.12-.88-.04-.29-.08-.58-.12-.88l-.24-1.53-.04-.32-.04-.2-.04-.32-.04-.28q-.06-.33-.08-.48c-.04-.3-.11-.67-.16-.96l-.04-.28-.04-.24-.04-.28-.04-.2-.04-.32-.04-.32c-.04-.25-.16-.92-.24-1.36-.09-.51-.17-.99-.24-1.53l-.04-.2-.04-.32-.04-.24-.04-.32-.04-.28-.04-.28c-.05-.35-.19-1.38-.2-1.45l-.08-.44-.04-.32-.04-.56-.08-.78c0-.06-.05-.44-.1-.55-.09-.18-.12-.25-.1-.52m7.1 16.94c-.08-.92.07-1.74.32-2.45.09-.24.19-.49.3-.72.16-.33.31-.66.27-.8 0-.02-.24-.21-.29-.25 0 0-.31-.25-.43-.35-.26-.21-.55-.5-.81-.76-.56-.55-1.36-1.34-.79-2.46.04-.08 2.57.94 2.6 1.15.02.13-.15.17-.3.2-.17.03-.43.09-.36.22.04.09.37.33.54.46.11.08.23.16.35.23l.14.08c.06.03.19.11.22.14.21.21 1.29-1.39 1.37-1.51.17-.27 1.22-1.64 1.37-1.66.14-.02-.25 1.44-.3 1.58-.14.35-.41.69-.64.98-.22.27-.63.8-.69 1.07-.01.05.38.34.53.44.26.18.51.37.68.55.25.27.83 1.01.73 1.5 0 0-.1.86-.12 1.06-.03.27-.14.57-.26.78-.26.46-2.63 2.13-3.27 1.83-.17-.02-.22-.04-.36-.1-.2-.08-.28-.13-.41-.28-.07-.1-.17-.22-.22-.32l-.08-.24-.08-.36zm-49.76-.58s.19-.51.24-.66c.08-.23.17-.48.36-.6.21-.14 1.03.39 1.21.52.53.38.33.77.06 1.3-.29.57-.43.48-.89.18-.17-.11-.34-.21-.53-.32-.23-.13-.45-.26-.46-.42m53.77-1.18c.12-.54-1.91-1.61-2.34-1.57-.15.01-1.02 1.67-1.07 1.93-.06.3.12.66.27.82.17.17.77.24 1 .09l.16-.04.12-.04.24-.12c.25-.12.47-.24.79-.46l.14-.08.2-.14s.04-.02.19-.16c.04-.04.3-.23.3-.23m13.88-.66c-.3-.8-2.31-1.28-2.48-.14-.06.4 2.14.51 2.48.14m-53.41-.78-.12-.28-.08-.4c-.03-.64.02-1.23.16-1.77.09-.37.48-1.47.71-1.47.08 0-.11.68-.14.79-.07.21-.16.48-.2.64-.13.53-.17 1.76.36 1.93.23.07.41-.16.63-.44.12-.16.05.59.02.68-.02.06-.09.25-.1.28l-.18.23-.07.12c-.22.49-.87-.1-.98-.31m13.48-1.65c-.38-.49.18-3.21.47-3.73.22-.39-.01.9-.03.96-.12.42-.12.99-.12 1.49 0 .42.26.73.5.93.19.16.37 0 .45-.17s.27-.57.32-.56c.08 0-.07.89-.1 1-.04.16-.16.4-.25.58-.36.71-1.08-.15-1.25-.49m-28.53-1.79c.11-.7.41-2.32.65-2.56.11-.11-.03.65-.05.73-.1.55-.16 1-.16 1.57 0 .47.2 1.07.52 1.34.2.17.4.1.49-.14.04-.09.23-.59.3-.48.15.21-.28 1.48-.43 1.58-.21.14-.31.18-.57.06-.5-.22-.82-1.45-.76-2.1m22.07-.26c-.1-.27.49-1.08.65-1.3.14-.18 1.59.97 1.67 1.08.2.31-.41 1.15-.62 1.36-.18.18-1.71-.98-1.7-1.14m57.05-4.71c.08.15-.22.72-.3.86-.16.27-.3.72-.26 1.04s.13.97.37 1.1c.25.13.43.1.58-.15.07-.12.3-.5.32-.5.1.02-.06.69-.1.8-.09.24-.2.54-.37.71-.5.5-.91 0-1.06-.47-.22-.66-.12-1.48.1-2.09.08-.22.52-1.39.72-1.3m-65.51 2.73s.22-.18.35-.3c.05-.04.14-.11.19-.15q.15-.1.24-.17c.16-.13.6-.42.91-.63.3-.2.91-.6.99-.64.35-.2.86-.49 1.07-.64.12-.09.92-.53 1.33-.74l.14-.06s.28-.16.42-.24l.14-.08.18-.08c.15-.07.38-.19.46-.24.13-.08.75-.41 1.11-.6l.28-.16c.14-.08.31-.17.46-.24.26-.13.51-.25.75-.4.81-.5 1.75-.94 2.62-1.34.49-.23.96-.46 1.45-.7l.16-.08.16-.08c.1-.05.24-.14.32-.18l.24-.12c.13-.07.32-.17.4-.2.25-.09.19.41.14.54-.07.19-.23.62-.38.66-.2.05-1.42.69-2.06 1.02-.62.33-1.23.65-1.86.96-.16.08-.31.16-.46.24l-.42.24-.12.06-.26.14-.14.08-.16.08-.12.08-.3.16c-.29.14-.42.21-.46.24-.17.12-.37.21-.56.3q-.13.06-.26.14l-.22.14c-.2.11-.38.21-.58.3-1.35.63-2.68 1.4-3.89 2.21-.56.37-1.12.74-1.65 1.13-.08.06-.32.24-.32.24l-.2.17q-.19.18-.2.19c-.41.12-.03-1.08.11-1.24m51.74-3.65c.13 0-.17.69-.2.75-.14.33-.34 1.07-.28 1.41.07.42.15.77.37 1.06.12.16.41.33.63.2.05-.03.14-.29.17-.37.03-.12.18-.62.27-.53.36.33-.44 1.84-.64 1.94-.15.08-.46-.08-.76-.23-.17-.08-.42-.9-.45-1.18-.07-.72.46-2.94.88-3.04m-15.18 2.7c-.22-.31.42-1.23.63-1.44.09-.09.68.31.84.41.25.17.6.4.8.38 0 0 .27-.51.31-.57.09-.18.28-.5.44-.56.31-.12 1.8 1.11 1.51 1.61-.1.17-.63 1.05-.79.98-.05-.02-.42-.32-.67-.52-.22-.18-.55-.44-.7-.49-.1-.03-.46.73-.52.86-.12.26-.25.5-.58.32-.27-.15-1.13-.75-1.27-.98m27.3-5.8c-.34-.89.98-3.1 1.65-2.1.31.47.34 1.33.37 2.1.01.35.15.5.44.82.23.26.32.62.16 1.02-.05.13-.54-.22-.57-.24-.21-.16-.33-.23-.65-.18l-.18.25c-.08.1-.26.32-.27.34-.08.08-.43.38-.63.54-.11.09-.21.17-.3.27-.06.06-.2.17-.31.26-.18.15-.58.46-.61.47-.04.01-.37.24-.48.32-.19.14-.4.28-.61.4-.41.23-1 .57-1.25.72-.27.17-2.29 1-2.5.86-.06-.04.56-.49.59-.5l.14-.06.14-.07s.68-.4 1.01-.59c.35-.2.76-.43 1.05-.64.27-.2.75-.49 1.13-.72.68-.42 1.29-.9 1.88-1.4.27-.22.83-.69.75-.92 0-.02-.22-.15-.26-.17q-.11-.07-.23-.17c-.18-.15-.37-.35-.45-.59m-72.79 4.93c-.22-.53-.28-1.45-.3-1.97-.04-.62.88-4.26 1.35-4.26.11 0-.16.9-.18.96q-.06.2-.08.28c-.04.17-.11.48-.12.52-.16.57-.35 1.22-.4 1.81-.05.5.13 1.36.35 1.68.12.18.33.38.58.39.2.01.32-.32.36-.5.04-.16.18-.73.33-.59.32.27-.23 1.81-.43 2.06-.56.69-1.05.11-1.45-.38m-9.07-4.09c-.1-.31.01-1.02.18-1.24.3-.39 2.04 1.07 2.11 1.14.13.13.44.59.63.87.1.16.6.9.65.86.03-.03-.01-.86-.02-1.06-.02-.44-.02-1.06.08-1.57.09-.44.26-.91.53-1.18.26-.25.79.17.95.37q.37.46.23 1.09s-.57-.26-.57-.26c-.13-.07-.48-.25-.61-.2-.26.1-.27.46-.27.72t.05.63c.01.19.04.65.04.84 0 .52 0 1.01-.08 1.61-.03.21-.12.98-.29.88-.02-.01-.16-.32-.21-.41-.08-.17-.15-.3-.24-.46-.07-.13-.2-.32-.32-.5l-.08-.14-.08-.14c-.24-.39-.85-1.34-1.32-1.26-.02 0-.13.36-.15.43-.05.19-.17.57-.18.6-.1.22-.37.77-.52.9-.58.51-4.08 3.42-1.77.91.1-.11.23-.24.34-.34.13-.12.37-.34.4-.37.28-.28.54-.54.79-.85.22-.27.47-.59.57-.97.05-.18-.12-.27-.36-.4-.23-.12-.35-.27-.48-.48m35.35 3.53c-.07-.38-.08-1.08-.08-1.33 0-.09.03-1 .26-.8l.02.16v.76c.01.21.08.36.15.51.09.2.45.18.63.08.31-.17.47-.48.55-.88.05-.24-.03-.47-.12-.72-.09-.26-.04-.57.02-.84.09-.45.44.62.46.76.07.41.15.8.42 1.01.44.35 1.02.15.73-.43-.08-.17-.16-.31-.24-.46l-.14-.28c-.08-.23-.06-1.07 0-1.07.16 0 .48.63.62.91.08.16.17.34.22.48.05.15.12.8.12.8l-.04.24-.04.2s-.09.26-.1.28c-.07.14-.31.35-.44.42-.43.21-1.04-.05-1.17-.42-.06-.19-.24.2-.24.2-.07.16-.14.31-.25.43-.09.1-.36.31-.51.35-.31.07-.4.02-.7-.17l-.13-.21zm20.41-3.72c.02-.14-.17-.37-.39-.64-.14-.17-.33-.55-.29-.75.15-.68.45-1.74 1.15-1.85.44-.07.63.28.71.72.01.08-.02.43-.04.66-.01.14-.13 1.33.05 1.29.07-.02.76.66.8.79.04.18 0 .75-.2.79 0 0-1.03-.74-1.05-.76-.07-.08-1.24 1.07-1.35 1.16-.37.36-.78.72-1.24.98-.56.31-2.26 1.19-2.5 1.14-.35-.07.43-.59.43-.59.24-.12.47-.25.69-.39 0 0 .26-.17.26-.17.1-.08.23-.2.3-.25.14-.1.38-.26.57-.39.38-.25.84-.56 1.14-.81.09-.08.52-.49.79-.74l.16-.2zm-20.65-2.02c-.31-.75.27-1.88.75-2.21.39-.26.69.19.79.48.1.31.08.66.06 1.17l-.04.32c-.02.16-.02.17.05.27.01.02.15.12.23.18.12.09.18.14.26.26.13.21.12.55-.05.77-.04.05-.32-.12-.32-.12-.23-.13-.32-.18-.38-.18-.04 0-.32.34-.5.55l-.2.24-.2.24-.1.14-.33.29q-.13.1-.23.19c-.11.1-.21.19-.31.3l-.31.27c-.7.62-1.74 1.37-2.6 1.77-.2.09-1.76.79-1.06.23l.28-.24c.2-.16.2-.16.2-.16l.23-.18.24-.2.13-.09.13-.09c.3-.25.79-.65 1.19-.97.17-.14.43-.35.52-.42l.22-.18.22-.18.34-.26.13-.08c.1-.08.23-.2.34-.3.1-.1.28-.26.32-.29.11-.08.21-.17.31-.27.16-.16.46-.48.14-.82l-.16-.08c-.14-.09-.2-.2-.26-.36m25.17 3.9c.77-.71 8.23-4.78 8.36-4.76 0 0 .01.39 0 .42l-.16.29-.17.23-.22.14-.15.07s-.32.21-.47.31c-.38.25-.79.47-1.19.68-.19.1-.38.21-.57.32-.17.11-.46.29-.56.34-.06.03-.75.43-1.15.66-.75.43-1.49.86-2.24 1.28-.39.22-.78.45-1.16.69-.23.15-.41.26-.43.26-.19 0-.03-.89.1-.94m11.31-2.62c-.09-.33.01-.72.15-1 .25-.5 2.09 1.26 2.18 1.38.07.08.22.3.31.43.09.14.6.89.66.8v-.17s0-.16 0-.16l.04-.38v-.7c.02-.37.07-1.23.18-1.45.22-.43.81-1.54 1.49-1.2.2.1.49.48.54.72.08.32 0 .58-.18.92-.05.1-.52-.37-.52-.37-.15-.15-.3-.3-.53-.29-.19 0-.42.24-.46.42-.08.32-.08.82-.08 1.18 0 .22-.01.55-.04 1.06-.02.39-.09.96-.16 1.53-.03.25-.34 1.17-.49.56-.07-.31-.27-.65-.48-1-.28-.48-.62-.93-1-1.32-.15-.15-.15-.15-.44-.15-.18 0-.27-.06-.42-.14-.35-.2-.57-.32-.77-.68m-53.91-.32c-.1-.18.12-.87.22-1.16.08-.24.86.24.93.28.34.21.64.46.9.75.27.3 1.12 1.37 1.2 1.7l.14-.03.04-.25s0-.28 0-.52c0-.4 0-.84.08-1.29.1-.54.36-1.32.79-1.55.32-.17.71.32.85.54.16.25.48.91.04 1.1-.08.04-.35-.18-.47-.27-.21-.16-.43-.34-.7-.31-.04 0-.14 1.3-.16 1.51-.04.48-.08.94-.18 1.47-.06.32-.2.94-.3 1.12-.09.17-.16 0-.2-.12-.08-.21-.21-.42-.32-.6-.35-.56-.72-1.15-1.18-1.6-.07-.07-.25-.23-.55-.11-.13.05-.14.05-.28 0-.24-.08-.79-.41-.83-.66m65.53-.78-.13-.07q-.12-.1-.41-.05c-.14.02-.26.16-.34.25-.26.32.17.63.39.79.98.71.91-.15.49-.91m-26.9-.34c-.21-.2-.61.09-.72.25-.12.17.18.53.3.62.82.64.81-.45.42-.88m-20.9-.77c-.03.4.72.68.98.63.36-.07-.3-.9-.32-.91-.15-.09-.26-.03-.52.11l-.15.17z" fill="#1d1d1b" fill-rule="evenodd"/></svg>