<svg viewBox="0 0 82.67 26.08" xmlns="http://www.w3.org/2000/svg"><path d="m5.81 25.13c.07-.03.19-.1.28-.15l.14-.08.18-.08.14-.08.14-.08c.15-.08.31-.17.46-.24.27-.12.5-.23.73-.36.1-.06.48-.25.71-.36.47-.23 1.15-.57 1.41-.72.3-.17 1.35-.71 1.49-.7.19.02-.12.77-.16.83-.05.07-1.2.66-1.59.85l-.16.06-.32.16c-.13.07-.31.16-.38.2-.19.1-.87.44-.87.44-.34.22-.98.51-1.43.72l-.16.08-.28.16-.16.08-.21.19c-.38.21-.03-.82.05-.92m52.46-4.51c-.1-.07-1.06.57-1.28.71-.46.31-.92.6-1.41.88l-.14.08-.12.08c-.12.07-.38.23-.4.24-.16.08-.32.16-.46.24-.15.09-.33.19-.44.24-.58.27-1.54.73-1.79.88-.5.31-2.28.62-3.25.78-.61.1-1.51.25-1.9.36-.43.12-1.77.49-1.69.11.01-.04.61-.35.72-.39 0 0 .32-.12.44-.16l.12-.04c.09-.03.21-.07.28-.1.48-.21 1.11-.43 1.66-.62.61-.22 1.15-.45 1.69-.7l.16-.06.14-.06.14-.08q.1-.05.32-.16l.16-.08.36-.16c.16-.09.32-.18.49-.24 1.95-.71 9.01-5.29 8.76-6.14-.07-.24-.19-.52-.3-.72s-.34-.63-.34-.64c-.09-.21-.21-.4-.32-.58-.11-.17-.28-.51-.4-.76-.27-.55-1.05-2.32-1.03-2.75 0-.1.08-.47.12-.64.02-.09.18-.64.18-.64.37.25 2.14 1.96 2.14 2.37 0 .02-.43-.06-.44-.06-.09-.01-.37-.07-.42 0-.1.15.59 1.34.7 1.5.28.42.6.94.73 1.49.27 1.17.02 2.55-.49 3.36-.24.39-.83.88-1.24 1.22-.21.17-.64.53-.65.56-.1.17-.17.37-.26.68l-.06.28c-.08-.05 0 .69.02.8.07.33.15.68.22.88.4 1.03 1.36 1.51 2.38 1.71 2.46.47 7.91-3.67 8.43-5.2.06-.17-.04-.54-.24-.58-.1-.02-.22 0-.32.04-.18.06-.45.14-.57.16-.67.12-1.43.25-2.1.16-.46-.06-.94-.32-1.2-.59-1.08-1.13.06-3.04.78-3.69.28-.25.63-.37 1.09-.42.47-.05 1.17.43 1.5.67.26.19.48.44.69.69.12.14.23.31.33.47.07.11.26.42.32.42.34.03 1.46-.69 1.77-.92.57-.42 1.45-1.07 1.64-1.09.17-.02.24.34.24.48l-.04.34-.04.24c-.02.14.03.4.1.52.84 1.42 2.82 1.63 4.05.39.23-.24.43-.51.59-.83.18-.35.36-.71.57-1.04.13-.21.78-.83.58-.16-.06.2-.12.37-.22.52-.1.16-.19.35-.22.56-.05.37.69.77.99.92.44.24 1.19.17 1.82.12.15-.01-.13-.66-.16-.72q-.06-.12-.18-.25t-.15-.27c-.06-.17.3-1.43.42-1.5.49-.29.87 2.05.85 2.54-.02.62-.33 1.16-.59 1.56-.15.22-.45.42-.76.47-.56.1-1.04.03-1.57-.18-.2-.08-.46-.29-.69-.47-.12-.1-.2-.19-.31-.3-.13-.14-.37-.4-.4-.39 0 0-.2.31-.25.4-.08.12-.16.25-.25.35-.06.07-.4.38-.62.57-.59.52-2.39.88-3.11.24-.31-.28-.67-.6-.75-.72-.09-.16-.22-.38-.26-.52-.04-.16-.26-.89-.3-.84-.19.2-.76.58-1.05.76-.27.17-1.06.72-1.13.82-.06.08-.14.91-.18 1.3-.04.38-.11.66-.26.92-.5.88-1.31 1.68-2.07 2.44-.38.38-.82.77-1.34 1.15q-.06.05-.21.15l-.23.19-.13.09-.32.24-.24.16c-.11.06-.25.14-.28.17-.24.31-1.7.81-2.45 1.05-.56.18-1.53.17-2.1.04-.32-.07-.62-.2-.89-.34-.14-.07-.26-.16-.38-.25-.11-.08-.26-.21-.28-.21-.17-.05-.76-1.06-.85-1.34-.12-.35-.18-.72-.24-1.16-.03-.21-.01-.51 0-.72l.08-.84c.02-.16.05-.38.01-.43m-19.64 4.1c-.07-.16.14-.6.24-.82.05-.1.08-.14.18-.25.07-.09.16-.2.19-.31.04-.17.67.29.69.31l.25.18c.27.21.74.6.77.71.1.36-.27 1.36-.71 1.43-.28.04-1.47-1.02-1.61-1.24m-25.08-.12c.02-.37.65-1.33 1.07-1.15.11.05.49.34.68.49.17.14.49.38.67.42.07.01.36-.43.46-.58.13-.2.37-.55.51-.6.34-.13 1.68 1.1 1.74 1.45.02.1-.73 1-.85 1.04-.16.05-.59-.29-.8-.46s-.65-.5-.79-.53c-.07-.01-.95 1.06-.97 1.14-.03.2-.51-.15-.52-.16-.15-.11-.44-.32-.44-.32-.17-.12-.77-.57-.75-.74m7.27-.04c.31-.25 4.52-2 4.64-1.97.19.06-.05.65-.11.77-.02.05-1.02.56-1.21.64-.24.11-.45.18-.73.26-.16.04-.52.2-.77.3l-.28.12-.16.08-.16.06-.14.06-.14.06-.16.06q-.2.08-.24.1c-.57.2-1.15.41-.54-.56m49.85.42c-.02-.06 1.04-.67 1.21-.76.11-.06.83-.54 1.23-.8t.6-.4l.12-.08.23-.17q.06-.05.21-.15c.38-.25 1.25-.79 1.39-.82.36-.08.75-.16 1.03-.02.31.15.67.33.73.34.3.05.76-.27.92-.43.09-.09.17-.2.23-.31.07-.13.27-.49.35-.43l.03.23q.03.28.16.36c.21.13.45.24.7.12.04-.02.14-.35.22-.64.06-.22.18-.54.36-.64.32-.17-.22 1.82-.77 2.17-.18.12-.36.16-.58.1l-.24-.08-.14-.06c-.09-.05-.22-.11-.26-.1-.08.01-.15.09-.25.17l-.21.17c-.2.13-.38.21-.67.26-.3.05-.54-.07-.73-.18-.25-.15-.4-.25-.76-.22-.39.03-.9.35-1.19.54l-.12.08-.14.08s-.24.16-.36.24c-.18.12-.59.38-.63.38-.03 0-.33.24-.48.36-.09.07-.44.23-.63.31-.32.14-1.26.51-1.57.4m-68.62-.67c-.25-.22-.45-.41-.66-.67-.08-.1-.18-.22-.23-.31 0 0-.01-.02-.12-.24-.03-.05-.1-.18-.14-.22-.31-.31-.65-2.25-.73-2.89-.09-.83-.1-1.57.04-2.29.06-.3.22-.73.28-.12.12 1.18.22 2.15.45 3.13.14.62.55 1.36.98 1.73.33.29.58.5 1.1.61.95.22 1.6-1.59 1.92-2.47.31-.88.9-2.35 1.55-2.78l.2-.2.1-.13s.29-.25.4-.34c.28-.24.67-.56 1-.67.29-.1.66-.06.85.1.18.16.31.31.44.52.08.14.16.27.24.42.07.14.16.25.25.37.13.17.27.35.4.52.09.11.24.27.38.42l.2.16c.49.89 3.1.89 4.01.53.81-.32 1.56-.71 2.11-1.3.25-.27.46-.54.69-.84.16-.22.5-.67.73-.68.08 0 .12.15.12.19l-.04.16c-.02.09-.08.32-.08.38 0 .33.17.93.34 1.12.29.33.57.54 1.01.72.75.32 2.22-.14 2.54-.66.11-.17-.12-.74-.2-.92-.16-.37-.26-.61-.26-.92 0-.26.19-1.1.4-1.1.16 0 .49.88.61 1.18.36.98-.03 2.68-.53 3.32-.44.56-2.07 1.06-2.92.74-.47-.18-.81-.38-1.1-.74-.12-.16-.28-.37-.37-.55-.02-.04-.07-.22-.08-.28-.05-.18-.09-.36-.22-.32-.04.01-.19.22-.24.3 0 0-.27.32-.38.45-.23.26-.44.46-.73.66-.59.39-1.28.73-2.08.9-.46.1-1.66.28-2.02.08l-.16-.04c-.11-.03-.29-.07-.36-.1s-.35-.17-.5-.24c-.27-.13-.56-.3-.76-.51-.36-.38-.78-.84-1.01-1.15-.14-.18-.27-.45-.39-.69-.13-.26-.25-.5-.52-.6-.76-.28-2.36 1.8-2.66 2.25-.41.62-.73 1.58-.95 2.35-.23.83-.6 1.75-1.39 2.03-.35.12-1.02-.17-1.48-.39m26.34-.79-.16-.06-.28-.12c-.15-.06-.3-.13-.71-.42q-.1-.07-.23-.19c-.05-.05-.15-.12-.22-.16-.38-.2-.96-1.15-1.1-1.62-.66-2.2-.98-6.37-1.27-10.1-.14-1.86-.34-4.33-.61-5.8 0 0 0 0-.08-.52l-.08-.48c-.06-.37-.12-.73-.2-1.08 0 0-.08-.32-.08-.32l-.08-.32c-.04-.19-.19-.85-.08-.92.02 0 .17-.5.2-.6.06-.2.21-.59.38-.62.24-.05.66 2.18.71 2.47.24 1.58.42 3.39.56 5.02.17 1.91.31 3.74.4 5.32.08 1.35.35 4.71.6 5.36l.04.16.04.16c.02.06.07.21.1.28.09.24.2.53.29.68.17.32.55 1.02.58 1.03l.07.13.15.1.1.13s.24.2.3.24c0 0 .27.16.4.23.12.07.36.2.39.22.43.27 1.61.46 2.22.44 1.72-.05 3.78-.57 5.53-1.05 1.17-.32 4.13-1.33 4.65-1.81.07-.06-.55-.19-.62-.2l-.49-.08q-.24-.04-.4-.08-.2-.05-.4-.08c-.52-.08-.52-.08-.52-.08l-.2-.04-.28-.04-.4-.08c-.65-.14-1.6-.24-2.26-.29-.49-.04-.83-.06-1.25.04-.16.04-.48.12-.51-.06-.17-1.09.84-1.57 1.8-1.71l1.25-.16.28-.04.2-.04.52-.08c.33-.05.7-.11.97-.16.65-.13.66-.13.62-.7-.09-1.64-.77-5.41-1.29-8.23-.12-.69-.23-1.39-.32-2.13-.09-.71-.26-1.99-.28-2.09q-.01-.08-.08-.56c-.02-.17-.05-.3-.1-.44-.11-.27-.19-.48-.18-.52.01-.1.34-1.02.51-1.45.04-.11.57.86.57.86.19.35.37.72.52 1.1.08.19.16.4.24.56.11.21.21.47.32.72 0 0 .61 1.44.2 1.34-.06-.02-.32-.25-.42-.35-.16-.16-.37-.36-.39-.36-.13 0 .01.91.06 1.17.08.45.16.92.24 1.37l.04.24.04.28.04.24.04.24.04.2c.08.46.16.92.24 1.36.34 1.84.74 4.07.77 5.58 0 .5-.05 1.16-.2 1.61-.08.25-.31.94-.21 1.01.11.09 1.89.36 2.49.45.5.07.99.14 1.53.2.04 0 1.96.22 1.75.02v-.28q0-.18-.04-.44-.05-.3-.08-.64l-.04-.36-.04-.28-.04-.36q-.06-.58-.08-.72l-.16-1.21-.04-.28-.04-.24-.04-.36-.04-.24-.04-.24-.04-.32-.04-.32-.28-2.09c-.15-1.15-.52-3.97-.52-3.97-.09-.77-.22-1.85-.28-2.29-.05-.32-.14-.95-.16-1.04-.03-.12-.15-.65-.04-.68l.04-.24.04-.16q.04-.16.08-.28c.06-.18.22-.66.26-.68.14-.07 1.03 1.9 1.13 2.13.15.34.31.68.48 1 .11.2.51 1.02.3 1.26-.12.14-.49-.31-.55-.39-.11-.14-.35-.43-.44-.4-.05.02.01.69.03.9.04.37.07.69.12 1.04.04.27.12.84.12.84l.04.32.04.2.04.32.04.28c.15 1.07.31 2.08.48 3.21.18 1.19.38 2.45.53 3.61l.04.28q.03.21.08.64l.04.32q.03.19.04.36c.03.36.18 1.98.36 2.01.5.08 1.18.1 1.68.06.31-.02.74-.02 1.12.06.21.04-.65 1.49-.71 1.57-.03.05-.55.05-.58.05-.62-.04-.66-.04-.73-.04q-.86 0-1.03 1.14c-.06.42-.38 2.01-.72 1.83 0 0 0-.94 0-1.17 0-.79-.05-1.22-.13-1.8-.02-.18-1.95.15-2.11.24l-.12.04-.2.06-.2.06-.16.06-.2.08s-.04.01-.28.1c-.41.15-.84.31-1.21.48-.74.34-1.55.71-2.26.96-1.42.5-3.4 1.21-4.36 1.53-1.33.44-4.98.93-6.09.14m22.57-3.38c-.25-.19-.38-.64-.43-1.04-.11-.8.13-1.84.37-2.45.08-.21.19-.45.3-.68l.08-.14.08-.14c.09-.17.17-.31.18-.4 0-.06-.46-.45-.59-.55-.22-.18-.54-.45-.67-.58-.05-.04-.37-.42-.54-.62-.09-.1-.15-.18-.27-.26-.11-.08-.31-.22-.35-.31-.14-.33-.04-1.35.1-1.73.03-.08.29.15.29.15s.18.14.19.15l.12.04.16.06.2.08.2.08c.4.16 1.26.51 1.34.61.16.2-.08.26-.18.29-.18.05-.46.12-.47.19-.03.16 1.22.93 1.4.97.04 0 .83-.95 1-1.15l.18-.25.24-.34.16-.2.32-.4c.17-.21.66-.82.7-.83.2-.04-.04.68-.08.78-.17.51-.36 1.08-.54 1.34q-.1.15-.16.24l-.19.23-.18.25c-.17.23-.47.64-.48.83 0 .05.27.22.37.28.16.1.32.21.46.32.24.2.45.41.63.68.5.7.55 2.13.07 2.98-.29.51-1.09 1.02-1.61 1.31-.9.49-1.45.7-2.41.21m-20.65-2.44c.14-.91.35-1.74.71-2.48.14-.28.01.45-.03.63l-.04.16-.08.28c-.04.2-.11.48-.12.6-.07.57.09 1.33.55 1.66.16.12.34-.09.38-.18.09-.19.21-.45.23-.46.18-.09 0 .72-.07.9-.09.26-.39.78-.65.79-.72.04-.86-1.42-.88-1.91m24.23-.32c.24-.39-2.03-1.69-2.29-1.56-.25.13-1.05 1.65-1.12 2.02-.05.26.17.64.32.74.79.55 3.11-.93 3.09-1.2m13.88-.44c.07-.26-.7-.73-.89-.82-.52-.26-1.81.12-1.52.7.17.33 1.83.18 2.41.13m-41.01-1.42c-.49-.44.11-1.8.35-2.15.71-1.06 9.53-5.03 9.6-5 .36.12.02.88-.24.96-.22.07-.41.16-.61.26-.16.09-.33.16-.52.24-.42.18-.86.4-1.27.6-.38.19-.94.47-1.19.58-.78.36-1.58.72-2.34 1.1l-.32.16q-.22.1-.32.16c-.13.08-.41.21-.65.32-.17.08-.39.21-.56.32-.19.12-.39.23-.6.33-.39.19-.83.62-1.04 1-.12.21.27.38.4.44.21.09.55.26.62.48.04.12-.04.52-.17.58-.35.13-.94-.21-1.13-.39m-27.12-2.05c-.56-.61-.36-2.27-.22-3.11.08-.46.44-1.99.8-1.88 0 0-.17.54-.2.64-.01.04-.14.59-.2.88-.18.8-.23 1.72.06 2.45.1.25.31.4.57.46.14.03.27-.14.3-.26.06-.2.18-.59.26-.54.17.1-.17 1.24-.24 1.37-.32.6-.78.44-1.13 0m12.59-.34c-.24-.45-.2-1.11-.14-1.65.07-.56.55-2.66.95-2.69.12 0-.28.92-.28.92-.16.39-.24.93-.3 1.4-.08.62.24 1.72.79 1.71 0 0 .2-.24.3-.35.03-.04.11-.17.13-.23.05-.12.08-.19.16-.17.33.08-.39 1.66-.74 1.76-.16.04-.59-.43-.85-.7m-6.01-.9c-.14-.02-.37.44-.44.58-.09.17-.27.53-.36.54-.24.03-.69-.32-.88-.47-.23-.19-.77-.61-.83-.65-.27-.17.42-1.39.66-1.45.16-.04.6.29.8.43.25.19.65.48.89.53.11.03.39-.46.48-.62.12-.2.26-.38.46-.46.22-.09 1.49 1.16 1.61 1.39.15.27-.05.55-.2.74-.08.11-.17.24-.24.32s-.2.26-.21.28c-.1.19-.8-.44-.81-.46-.26-.24-.71-.65-.94-.69m11.08-.02c-.08-.44.59-1.57.98-1.35q.22.13.26.15l.33.25c.23.15.57.38.75.41.07.01.28-.36.36-.5.09-.15.31-.49.46-.56.34-.16 1.46.93 1.53 1.26.03.15-.69 1.14-.83 1.17-.13.03-.6-.35-.75-.47-.18-.15-.63-.5-.73-.46-.05.02-.27.36-.33.47-.13.23-.3.53-.44.6-.22.11-1.56-.81-1.59-.96m60.25-2.13c.25-.82.66-2.06.81-2.23.24-.27-.02.58-.07.67l-.08.14-.14.26c-.03.06-.07.22-.08.28l-.06.32c-.07-.13.07.71.1.8.05.14.13.39.24.46.2.13.37.2.55-.03.07-.09.1-.14.14-.26.04-.11.13-.33.2-.29.27.13-.26 1.59-.82 1.68-.61.09-.74-1.24-.79-1.79m-13.76-.4c.01-1.08.37-2.07.81-2.8.18-.29.04.37 0 .46-.14.31-.25.64-.33 1.02-.12.6.13 2.09.79 1.91.21-.06.24-.18.3-.38s.15-.55.24-.58c.25-.08-.03 1.01-.1 1.18-.12.27-.31.72-.57.78-.3.07-.67-.15-.82-.41-.08-.14-.17-.36-.27-.62l-.02-.2-.04-.36zm-45.85-.01c.03-.23.42-.84.65-1.2.2-.32 1.37.85 1.46 1.02.11.2-.65 1.41-.95 1.28-.19-.08-1.18-.94-1.16-1.1m31.56-.31c-.17-.31.49-1.49.83-1.43.02 0 .37.24.58.38.26.17.65.43.79.46 0 0 .81-1.11.85-1.18.07-.13.74.43.76.45.24.22.62.58.71.67.31.34-.57 1.49-.75 1.51-.04 0-.51-.38-.69-.54-.19-.15-.62-.49-.68-.51-.11-.03-.38.52-.44.64-.11.22-.29.57-.4.6-.24.06-1.47-.86-1.55-1.06m28.35-4.48s-.35-.33-.55-.52c-.18-.17-.31-.34-.46-.55-.38-.56.56-2.07.93-2.27.24-.13.61 0 .74.15.24.31.29 1.06.33 1.61.03.45.06.98.25 1.15.18.17.37.34.43.59.03.12 0 .69-.22.66 0 0-.29-.21-.42-.3-.15-.1-.33-.23-.48-.26 0 0-.46.43-.48.45-.2.21-.39.42-.91.82-.11.1-.28.25-.32.29-.19.16-.43.35-.64.52-.81.64-1.95 1.41-2.98 1.75l-.14.06-.16.06q-.16.06-.28.1-.12.04-.36.12l-.12.04c-.18.06-1.01.33-.95.18.05-.12 1.26-.81 1.73-1.08l.14-.08.26-.16q.17-.1.28-.17s.15-.08.27-.15c.1-.06.26-.16.38-.24l.24-.17.13-.07.12-.08c1.13-.69 2.57-1.58 3.25-2.47m-73.32 3.63c-.2-.2-.34-.84-.46-1.39-.17-.82.54-4.12 1.06-4.85.34-.48 0 1.07 0 1.1-.08.34-.18.65-.28.96-.3.89-.4 1.89-.02 2.81.12.29.42.58.73.66.22.06.3-.29.34-.46.04-.19.13-.6.26-.57.65.14-.36 2.08-.45 2.21-.28.39-1.08-.21-1.17-.47m24.54-2.68c.17-.12-.74-1.59-.81-1.69-.18-.27-.42-.62-.66-.88h-.25s-.22-.07-.22-.07l-.54-.31c-.44-.22-.21-1.15.02-1.45.12-.15.81.35.95.44.35.24.72.81.98 1.2.11.17.37.57.38.6.11.2.37.67.48.66.09 0 .12-1.02.13-1.12.01-.41.07-.97.16-1.39.07-.32.43-1.25.66-1.31.27-.07.43.04.64.19.28.2.61 1.6.13 1.62-.05 0-.13-.15-.16-.22-.08-.15-.17-.25-.29-.35-.14-.13-.57-.42-.64-.05-.07.35-.11 1.07-.14 1.51-.02.33-.06.64-.12 1.03-.09.6-.18 1.14-.34 1.64-.4 1.26-1.63 2.42-2.92 2.75-.29.07 1.12-1.17 1.24-1.27.25-.22 1.29-1.27 1.32-1.53m3.81-.02c.09-.44.66-2.27.88-2.31.09-.02-.02.31-.03.32-.08.23-.18.54-.21.67-.13.59-.25 1.14-.24 1.53.01.34.2.78.41.92.17.12.37-.05.42-.18.05-.11.24-.55.3-.51.31.21-.46 1.66-.78 1.72-.26.05-.44-.22-.57-.4-.3-.44-.26-1.16-.18-1.75m17.86-1.77s-.12-.12-.17-.17l-.16-.18c-.17-.2-.3-.46-.33-.75-.03-.38.33-1.09.57-1.56.1-.2.51-.39.78-.37.26.02.42.37.46.62.05.32.04.47 0 .88-.04.38-.1 1.06-.05 1.12l.21.17q.09.07.23.19c.15.14.34.31.42.45.11.2 0 .56-.09.82-.01.03-.56-.34-.62-.38-.23-.15-.62-.41-.77-.36-.04.01-.33.36-.49.55-.17.2-.38.41-.58.58l-.2.17-.13.1c-.09.08-.19.18-.28.25-.03.03-.22.16-.32.23-.11.08-.3.21-.3.24l-.16.04-.16.08q-.16.08-.3.16c-.2.12-.42.24-.63.34-.22.11-1.16.53-1.25.44-.2-.2.08-.39.24-.46.28-.13.53-.25 1.07-.64l.24-.17.45-.31.24-.17c.4-.27 1.09-.74 1.26-.91l.13-.09c.05-.05.3-.26.3-.26.11-.12.49-.51.39-.66m15.84-.36c-.01-.38-.02-.61.13-1.02.08-.21.87.18.98.25.31.23.6.47.86.76.07.08.29.32.29.32l.32.45c.11.14.22.29.31.45l.14.24.1.24c.1.14.14-.24.14-.24.04-.5.05-.78.08-1.53.02-.37.06-.91.26-1.34.22-.48.79-1.3 1.43-.98.29.14.49.64.57.98.06.3-.23.82-.52.53s-.55-.54-.7-.57c-.23-.04-.43.27-.52.42l-.04.24-.04.94v.34c-.03.62-.05 1.15-.16 1.68-.09.43-.23 1.12-.3 1.33-.07.19-.36-.56-.36-.56-.08-.2-.1-.25-.17-.35q-.14-.2-.15-.23c-.05-.09-.48-.7-.74-1.06-.1-.14-.23-.3-.36-.4-.08-.06-.18-.12-.27-.11q-.26.02-.32 0c-.31-.09-.86-.46-.95-.78m-11.28 2.45c.11-.16 3.38-2.02 4.34-2.53.39-.21.91-.49 1.19-.64.38-.21.85-.48 1.15-.64.39-.2.76-.42 1.13-.64.13-.08.55-.33.53-.03-.01.26-.12.75-.35.79 0 0-.36.21-.46.28q-.26.16-.51.32c-.25.15-.79.44-1.17.64l-.29.16-.24.14q-.12.06-.26.14l-.16.08-.12.08c-.2.11-.45.24-.58.32l-.26.16-.24.16-.14.08c-.52.28-1.49.83-2.22 1.24-.3.17-1.12.65-1.12.65-.14.1-.34.23-.42.18-.16-.1.03-.89.21-.95m-37.63-1.44c-.15-.66.44-3.55 1.03-3.65.09-.01-.16.6-.16.6l-.08.2-.08.14-.06.14c-.12.35-.2.78-.24 1.12-.08.65.2 1.56.75 1.71.14.04.26-.15.3-.26.07-.17.17-.43.27-.42.16.03-.2 1.04-.21 1.08-.16.32-.28.55-.73.52-.37-.02-.72-.81-.79-1.18m-7.89-2.05c-.2-.25.03-.84.12-1.08.22-.56 1.58.78 1.68.9.21.23.42.47.58.71.11.17.23.38.32.56.04.08.26.52.34.45s.09-.8.09-1v-.78c.06-.68.33-1.35.76-1.7.37-.3.84.59.9.85.16.73-.07.9-.49.47-.04-.04-.34-.24-.42-.25-.27 0-.32.77-.34 1.14-.04.67-.11 1.6-.32 2.25l-.04.2-.14.4c-.08.22-.29-.29-.32-.36-.19-.46-.43-.93-.68-1.34-.13-.21-.56-.73-.81-.8-.48-.14-1.07-.31-1.21-.62m68.37-.01c-.51-.31-1.15.32-.94.5.28.25.8.71 1.11.78.32.08-.08-1.15-.17-1.28m-26.83-.52c-.25-.13-.78.01-.76.37.02.26.52.67.75.74.32.1.14-.93.01-1.12" fill="#1d1d1b" fill-rule="evenodd"/></svg>