<svg viewBox="0 0 92.7 27.73" xmlns="http://www.w3.org/2000/svg"><path d="m10.97 26.73c.36-.1 2.36-1.08 3.41-1.61.94-.47 3.09-1.46 3.35-1.51.38-.07.11.82-.08.9-.66.27-1.26.52-1.86.8-.64.3-1.45.68-1.98.9-.68.29-1.3.57-1.94.88-.29.14-.59.29-.87.42-.23.11-.36.17-.32-.16.03-.22.08-.61.28-.64m59.38.64c-.81-.31-1.24-.87-1.69-1.52-.18-.26-.34-.78-.38-1.16-.06-.48-.06-.92-.02-1.32l.02-.32c.01-.13.07-.8.06-.8-.07-.06-1.32.77-1.43.84-.11.08-.92.57-1.43.89-.42.26-1 .57-1.51.84-.11.06-.32.17-.34.18l-.32.18c-.25.1-.59.23-.73.34-.76.57-4.67 1.25-6.36 1.53-.04 0 .29-.59.3-.6l.3-.09q.13-.05.34-.14t.34-.14c.13-.05.28-.1.28-.1.42-.18.9-.36 1.33-.5.84-.28 1.67-.68 2.42-1.1 2.01-1.12 4.81-2.7 5.95-3.45.75-.5 3.4-2.37 3.35-3.05-.03-.36-.37-.9-.54-1.16-.29-.44-.56-.94-.79-1.41-.24-.48-1.21-2.64-1.09-2.93l.04-.24q.05-.35.08-.44c.05-.19.16-.54.26-.54.04 0 .45.5.53.62.05.06.21.21.31.3s.42.38.42.38c.21.21.53.52.64.67.04.06.21.29.13.37-.06.06-.23.02-.34 0q-.22-.05-.52-.06c-.18 0 .28.74.28.74.08.12.16.27.24.44.07.14.16.29.24.42.26.43.67 1.09.75 1.57.12.72.03 1.42-.08 2.33-.07.59-.66 1.19-1.04 1.56-.22.21-.45.43-.69.62-.29.23-.56.44-.67.65-.2.37-.29 1.21-.18 1.63.17.61.31 1.12.55 1.39 2.11 2.36 5.17.62 7.13-.83.91-.67 1.83-1.45 2.57-2.29.37-.42.87-1 .63-1.47-.04-.08-.61.04-.89.1-.7.14-1.27.23-1.96.2-.36-.01-1.01-.15-1.26-.37-.23-.2-.46-.46-.52-.82-.09-.5-.12-1.14.08-1.64.1-.26.21-.53.3-.66.04-.06.17-.22.26-.33l.07-.13c.18-.18.18-.18.18-.18.1-.67 2.45-.3 2.91.22.18.17.34.35.5.55.13.15.24.3.36.47.07.1.32.48.4.44.65-.32 1.17-.62 1.73-.98.08-.06.51-.39.74-.58.24-.19.62-.49.97-.44.05 0 .05.94.05 1.12 0 .22.15.55.26.7.24.34.58.55.97.74.44.22 1.38.23 1.86.02.21-.09.46-.25.71-.4l.27-.19c.07-.07.11-.11.21-.16.06-.02.44-.69.55-.9.17-.31.58-1.04.61-1.08.16-.23.65-.56.46.04-.03.1-.19.42-.28.6-.05.1-.25.53-.1.56l.15.26c.09.09.12.11.21.19.21.15.43.3.69.4.34.13 1.67.36 1.75-.08.04-.2-.18-.58-.26-.7-.13-.2-.25-.37-.26-.46-.03-.17.29-1.28.37-1.42.2-.34.62.81.64.86.14.39.36 1.05.28 1.45-.23 1.13-.39 1.97-1.39 2.27-.39.12-1.04.02-1.41-.14-.36-.16-.66-.34-.9-.62-.12-.14-.55-.62-.62-.58 0 0-.16.26-.25.39-.08.13-.17.26-.26.38-.18.23-.38.39-.62.56-.41.28-.86.47-1.46.57-.59.11-1.1-.06-1.49-.22-.82-.33-1.06-1.17-1.34-2.16-.02-.05-1.1.71-1.16.75-.32.23-1.08.78-1.12.81-.05.04-.12.71-.15.96-.06.52-.11 1.05-.3 1.3-1.14 1.57-2.28 2.73-3.79 3.92-1.04.83-4.6 2.82-6.06 1.64m-26.97.1c-.06-.17.83-.59 1.06-.7.45-.21 1.1-.52 1.39-.68.35-.2.86-.49 1.09-.6.22-.11.43-.26.63-.4s.46-.33.6-.41c.77-.43 1.54-1.14 2.16-1.75.87-.86 1.44-1.66.58-3.1-.72-1.2-1.61-2.25-2.67-3.11-.4-.33-1.96-1.75-3.19-2.88-1.07-.98-2.09-2.08-3.01-3.22-.31-.38-.8-1.05-1.21-1.59-.22-.29-.43-.6-.64-.91-.11-.16-.23-.29-.37-.41-.18-.17-.29-.27-.33-.49-.07-.36-.1-1.85-.02-1.73l.23.05.07.13.13.07.28.25.2.16.23.16c.17.14.36.27.55.39.24.15.46.32.68.49.39.32.82.66 1.16.96.23.2.26.44-.14.34-.16-.04-.3-.09-.44-.14-.16-.06-.32-.11-.48-.14-.25-.04.76 1.21.86 1.33l.18.22.2.24.2.24.1.14c.09.1.19.22.29.32.35.38.78.84 1.38 1.39q.12.1.54.52l.22.18c.69.69 1.46 1.38 2.23 1.99.37.3.74.64 1.08.98.2.2.38.39.56.6.16.18.52.59.53.6.32.22 1.07 1.62 1.18 2.06.06.23.16.63.16.76.01.27.02.67.06.88h.16l.02-.16q.08-.4.08-.52c.02-.53-.07-1.2-.16-1.85-.06-.38-.11-.71-.16-1.08q-.05-.35-.08-.56c-.04-.29-.07-.58-.12-.84-.26-1.41-.5-2.88-.73-4.34-.26-1.71-.47-3.17-.69-4.94-.04-.33-.16-1.25-.16-1.25q-.04-.25-.08-.36l-.06-.16-.06-.16-.06-.16c-.05-.32.23-1.61.45-1.8.09-.08 1.02 1.96 1.12 2.2l.14.28.12.32q.06.16.14.32.05.1.12.28s.68 1.74.28 1.46c-.21-.14-.44-.3-.53-.41-.14-.17-.37-.46-.47-.45-.06 0 .35 2.49.38 2.69l.04.24.04.2.04.28q.05.4.08.56c.06.38.13.75.2 1.13.16.79.3 1.59.4 2.41.13 1.06.33 2.62.44 3.29.19 1.12 0 2.48-.16 3.57-.07.47-.55 1.53-.87 2.25-.26.57-.95 1.48-1.49 1.76 0 0-.39.3-.52.41-.21.17-.45.33-.69.45-.58.29-1.11.5-1.78.74-.14.05-.28.1-.44.14s-.48.12-.48.12l-.16.06q-.16.06-.4.14-.17.06-.36.12c-.13.04-.27.09-.4.14-.16.06-.48.18-.48.18-.22.07-.78.22-.94.07m42.93-4.29c.23.01.4.08.57.18.26.16.4.24.83.22.44-.02 1.06-.74 1.13-1.14 0 0 .23-.3.18.12q-.03.31.03.39c.15.19.5.24.75.2.13-.02.24-.42.31-.67.05-.17.22-.65.42-.64.1 0-.04.79-.06.88-.07.29-.21.6-.34.84-.25.47-.73.74-1.27.48-.22-.1-.42-.19-.62-.03-.2.17-.4.34-.61.42-.28.1-.64.14-.92-.03-.27-.16-.53-.32-.78-.29-.66.07-1.76.87-2.43 1.36-.37.27-2.23 1.3-2.77 1.11-.12-.04.54-.4.54-.4.14-.07.33-.2.51-.32q.19-.1.28-.16c.22-.13.42-.26.62-.4.07-.05.3-.21.46-.32l.26-.17c.94-.62 2.27-1.51 2.91-1.61m-64.67 2.59c-.42-.08-1.21-.84-1.63-1.26-.18-.17-.62-1.28-.97-2.15-.26-.64-.51-3.58-.69-5.7-.18-2.22-.45-5.35-.68-6.74-.22-1.29-.77-4.38-.77-4.38-.05-.21-.11-.41-.16-.6-.07-.25-.18-.64-.16-.8.04-.32.36-1.26.59-1.25.61.02 1.41 6.31 1.47 6.95.18 1.82.5 5.22.48 5.94 0 .2.07.89.12 1.28.06.47.1.85.12 1.29.03.61.13 1.43.32 2.01l.04.24.08.28.08.32.04.2.06.2c.12.34.33.91.48 1.1.35.42.69.84 1.03 1.07 1.15.76 3.02.58 4.46.26.79-.18 3.63-1.16 3.69-1.63 0 0-.22-.66-.32-.96-.12-.37-.31-.94-.28-1.29.06-.71.12-1.35.34-1.93.17-.43 1.15-1.78 1.77-1.42.41.23.72.41.89.68.36.58.74 1.33.87 2.11.1.61.04 1.39-.18 2.01-.08.24-.33.53-.5.71-.23.25-.6.65-.61.74-.03.24.87.63 1.1.72.48.18 1.22.18 2.02.18 1.09 0 2.64-.64 3.59-1.06.27-.12 1.13-.49 1.65-.72l.32-.16c.09-.05.28-.16.32-.18l.69-.36c.29-.13.65-.3.04-.4q-.1-.01-.32-.08c-.17-.05-.42-.1-.52-.12-.53-.1-1.17-.23-1.7-.4-.25-.08-.59-.19-.83-.06-.35.19-.55.21-1.15.26-.54.04-1.06.1-1.53.2-.32.07-.88.19-1.04.09-.19-.12.2-1.24.32-1.36.57-.57 2.25-1.3 3.35-1.22.41.03.83.19 1.17.34.37.16.68.26 1.05.34l1.05.28c.21.04.45.1.65.16l.32.08.24.04.2.04c.81.18 2.1.3 3.11.4.42.04.62.04 1.05.04h.22q.35.02.77 0c.08 0 .71-.04.69.14-.02.16-.48 1.01-.77 1.54 0 .01-1-.03-1.06-.04h-.5c-.51-.03-.99-.01-1.55.08-1.07.18-1.79.53-2.62.94l-1.13.6-.18.08-.14.08-.32.16-.14.08-.12.08-.32.16c-.76.35-1.56.69-2.36 1.02-.32.13-.76.28-1.13.4-.18.06-.37.11-.56.16q-.16.04-.45.08c-.11.01-.38.05-.44.08-.34.13-1.6-.02-1.98-.18-.5-.22-1.01-.51-1.81-1.29-.16-.17-.39-.42-.45-.41-.07 0-.59.28-.93.46l-.18.08q-.2.09-.3.16c-.12.09-.31.2-.45.26-.67.31-1.32.56-2.06.8-1.39.46-3.42.73-4.84.14m-17.76-.38c-.64-.22-1.09-.49-1.57-.83-.24-.17-.49-.49-.7-.79-.02-.02-.13-.16-.13-.17l-.12-.24-.12-.28c-.25-.25-.28-1.39-.28-1.77 0-1 .82-3 1.24-3.58.2-.27.06.52.03.6l-.08.14-.08.16c-.07.14-.13.28-.18.44-.16.55-.41 2.2 0 2.61l.14.26.08.18.08.14c.14.24.3.38.5.56.4.35.81.61 1.36.83 1.64.65 3.87.33 5.53-.14 1.17-.33 2.36-.77 3.43-1.3.67-.33 1.31-.65 1.65-.88.24-.16.71-.47.74-.49.15-.12.57-.46.63-.47.26-.04-.23-.65-.23-.65-.16-.18-.29-.3-.57-.37-.34-.09-.66-.08-.89-.06-.69.06-1.71.13-2.18-.1-.36-.18-.69-.34-.87-.66-.46-.83-.06-2.09.39-2.76.25-.38.62-.68 1-.93.26-.18.98-.2 1.25-.06.38.19.8.51 1.26.85.42.31 1.04 1.57 1.26 2.14.33.89.43 3.01-.15 3.85-.7 1.02-3.68 2.4-5.04 2.94-.89.35-1.83.63-2.87.86-1.59.35-2.84.2-4.52 0m50.54-22.87c.41.77.78 1.63 1.1 2.44.08.21.17.44.24.6l.06.12.06.14q.06.14.12.3c.08.21.5 1.33.04 1.16-.09-.03-.26-.25-.33-.35-.1-.14-.32-.45-.45-.42-.06.01.05.83.07.98.05.29.09.48.12.72.08.51.16 1.05.24 1.52.17 1.04.34 2.1.48 3.21.05.38.16 1.03.24 1.52.07.42.22 1.33.24 1.53.04.32.07.58.12.88.02.11.09.61.12.89l.04.32.04.4.04.36c.01.12.08 1.17.08 1.17l.04.62v.56l-.04.3c-.03.32-.09.97-.12 1.12-.09.36-.27.85-.42 1.25-.04.1-.2-.09-.2-.12l.02-.2v-.56c0-.49-.04-1.21-.08-1.77-.03-.35-.23-1.86-.36-2.85-.28-2.12-.6-4.47-.89-6.34-.28-1.82-.58-3.72-.81-5.46l-.04-.4-.04-.24-.04-.32-.04-.24-.04-.36c-.03-.21-.08-.43-.14-.6-.05-.12-.14-.38-.14-.4.01-.19.13-.57.2-.8.05-.15.32-.83.46-.67m6.53 19.29s-.12-.15-.16-.2t-.11-.23c-.09-.23-.16-.43-.18-.68-.06-.57.1-1.68.34-2.33.11-.29.23-.55.37-.82.13-.26.27-.55.24-.66 0-.03-.47-.4-.58-.48-.13-.09-.23-.18-.33-.29-.07-.07-.2-.18-.32-.28-.07-.06-1.13-1.16-1.14-1.18-.16-.41-.13-1.25.05-1.66.05-.12.18-.03.24.02.12.09.26.19.48.27q.11.04.34.14l.14.06.12.04.16.06c.29.11.79.31.93.4s.23.32 0 .38c-.18.05-.54.15-.5.25.04.11.92.69 1.14.82.32.18.47-.05.61-.26.12-.2.26-.4.41-.57.29-.35.58-.71.85-1.08.19-.26.83-1.13.98-1.15.18-.02-.16 1.3-.24 1.42l-.06.16-.24.4c-.11.16-.22.32-.33.47-.24.33-.49.66-.72 1.01-.1.15.35.46.52.57.22.15.43.32.62.51.35.34.56.77.74 1.29.13.39-.16 1.68-.3 1.99-.39.84-2.98 2.55-4.05 1.61m-28.74-1.28c.18-.6-.95-1.92-1.43-2.05-.49-.15-1.16.71-1.15 1.14.01.42.77 1.96 1 2.14.05.04.65-.39.81-.51s.4-.3.43-.33c.05-.06.34-.39.34-.39m-10.89-3.04c-.12-.25.07-.85.18-1.08.09-.17.8.25.85.28.28.2.53.44.77.67.19.19.45.45.57.6.18.22.58.71.59.72.12.04.03-.59.03-.62s-.07-.67-.09-.84c-.04-.39-.09-.91.08-1.24.23-.46.41-.82.59-.94.41-.29.86.52.95.7.12.25.46.99.1 1.16-.15.07-.49-.36-.62-.54-.04-.05-.65-.59-.69-.19 0 .02.05.95.08 1.32.05.64.03 1.04-.04 1.61-.04.37-.15 1.16-.36 1.31-.05.04-.13-.19-.13-.19-.06-.15-.08-.21-.14-.32-.09-.16-.22-.39-.33-.51q-.12-.14-.16-.2l-.16-.2-.3-.38c-.11-.11-.31-.31-.43-.38q-.14-.08-.3 0-.11.06-.26-.01c-.21-.1-.77-.48-.79-.72m43.21 1.45c-.4-.46-1.6-1.56-2.35-1.44-.17.03-1.03 1.74-1.08 2.02-.12.7.69.97 1.19.84.67-.17 2.04-.88 2.24-1.43m-58.35-1.91c.09-1.24.17-2.22.4-3.27.05-.21.56-2.3.77-1.61 0 .03-.25 1.06-.32 1.33-.17.58-.3 1.29-.36 1.91-.07.74.24 1.5.56 1.92.13.18.42.33.59.09.08-.12.13-.3.18-.5.04-.18.08-.31.24-.34.64-.1-.45 2.17-.47 2.2-.17.18-.47.13-.66.02-.47-.27-.94-1.05-.92-1.74m72.23 1.41c.15-.42-1.37-.98-1.91-.77-.3.12-.52.34-.57.62-.07.41 2.17.46 2.48.15m-63.83-1.12c-.14-.38-.67-.66-1.04-.83-.51-.23-1.55.07-1.43.68.06.31.61.34.93.34.2 0 1.52-.08 1.54-.2m-12.32-2.89c0 .33.23.73.38.92.11.14.34.14.45-.02l.08-.18c.04-.09.12-.31.17-.29.21.11-.07.86-.13 1.01s-.4.77-.57.66c-1.13-.75-.82-2.33-.54-3.67.04-.22.71-1.87.6-1.17-.03.17-.1.4-.16.6-.04.14-.08.32-.12.52-.11.53-.23 1.17-.16 1.61m38.56.76c.02-.37-1.23-.22-1.49-.18-.22.03-.44.12-.6.27-.17.16-.34.32-.45.32-.26.01.28-.9.32-.97.21-.33.43-.57.81-.74.56-.26 1.81-.19 2.46-.04.69.16.27.78.04 1.12-.28.42-1.75 1.62-2.33 1.42-.19-.06 1.12-1.16 1.24-1.2m-12.89-.6c-.07-.27.47-1.21.66-1.29.24-.11.53.05.83.21.33.18.79.42.95.4.07-.01.27-.37.36-.54.1-.19.25-.41.48-.44.24-.03 1.46.91 1.59 1.12.09.14-.16.48-.26.61-.11.16-.38.52-.39.55-.07.22-.72-.17-.8-.21-.35-.21-.82-.49-.91-.5-.1-.01-.38.4-.44.5-.14.23-.36.6-.61.5-.15-.06-1.45-.83-1.47-.9m60.37-1.89c-.16-.59-.18-1.01-.08-1.65.05-.31.63-1.8.81-1.85.15-.04 0 .42-.04.52-.02.08-.11.24-.14.3-.08.15-.19.36-.22.46-.15.52-.1 1.45.32 1.78.14.11.38.03.48-.08.04-.04.13-.26.15-.29.04-.09.12-.32.18-.29.5.2-.54 1.59-.7 1.68-.29.16-.71-.36-.75-.58m-13.68-.56-.06-.16c-.07-.19-.08-.22-.1-.32-.05-.26-.02-.92-.02-.92l.02-.28.04-.2.04-.16c.05-.21.1-.38.16-.56.1-.27.45-1.13.53-1.18.23-.12-.09.65-.13.74-.11.27-.36 1.19-.28 1.4.14.41.52 1.54.98 1.24.09-.06.16-.23.19-.35.05-.2.15-.58.28-.51.28.15-.33 1.86-.74 1.94-.29.05-.47-.1-.62-.25 0 0-.16-.17-.17-.17l-.12-.24zm-62.43-1.93c.35-.14 1.5.76 1.61 1.08.06.19-.51 1.26-.62 1.31-.14.05-.55-.24-.69-.34-.21-.16-.6-.43-.69-.48-.39-.23 0-1.42.39-1.57m47.9.76c-.13-.21.46-1.36.65-1.41.24-.06 1.24.6 1.43.78.12.12.56-.65.61-.72.13-.24.32-.55.62-.38.31.17 1.08.82 1.25 1.12.17.32-.51 1.41-.75 1.43-.15.01-.49-.31-.65-.45-.21-.2-.51-.47-.77-.55-.08-.02-.35.51-.41.62-.12.24-.28.55-.36.6-.24.15-1.57-.9-1.61-1.04m-24.86-1.2c.02-.41.35-2.05.57-2.3.12-.14-.02.7-.05.86-.1.62-.16 1.33.04 1.89.41 1.14.79.49 1.06-.25.09-.24.17.48.15.58-.04.23-.13.44-.2.64-.1.26-.42.79-.75.62-.75-.4-.79-1.14-.83-2.03m-8.01 1.26-.14-.22-.08-.24c-.07-.26-.12-.96-.12-.96l.04-.48.04-.2.04-.24.04-.24c.04-.23.09-.43.16-.64.06-.19.13-.38.2-.56l.1-.24s.31.04.12.12c-.14.06-.31 2.1-.31 2.27 0 .33.26.8.51.99.19.15.37.12.49-.1.03-.05.05-.14.1-.3.03-.11.09-.31.2-.25.23.11-.23 1.2-.3 1.34-.25.5-.91.56-1.09-.02m-20.37-3.58c.15.05.1-.71.1-.73-.03-.53-.08-1.26-.04-1.65.05-.48.35-1.27.6-1.54.33-.36 1.54.7 1.08 1.62-.07.14-.66-.41-.7-.46-.62-.64-.65.51-.61.98.01.15-.22 2.45-.34 3.65-.01.11-.31-.58-.32-.6 0 0-.34-.65-.49-.92-.15-.29-.77-1.29-1.1-1.22-.02 0-.14.36-.17.45-.06.2-.14.37-.22.54-.17.36-.42.68-.65.98-.23.28-.48.57-.73.82-.03.03-.29.25-.4.34l-.25.18c-.13.1-.29.24-.3.24-.14.25-2.19 1.2-2.35 1.19-.22 0 2.14-1.85 2.34-2.01.8-.63 1.7-1.52 2.22-2.41.25-.42.09-.54-.28-.68-.28-.11-.55-.25-.67-.52-.46-1 .36-1.34.91-1 .5.3.89.72 1.26 1.15.18.21.37.45.51.7.09.16.54.91.6.89m12.87 3.14c-.2-.28-.16-.91-.06-1.3.12-.49.47-.96.85-1.21 1.92-1.24 10.17-5.92 10.82-5.79.18.03.01.76-.11.85-.16.1-1.22.61-1.81.89s-1.17.56-1.73.88c-1.08.61-2.2 1.21-3.31 1.77-.46.23-2.07 1.21-3.17 1.89-.3.18-1.24.82-1.21 1.17 0 .11.16.21.26.26.15.07.27.13.4.23.25.2.43.59.26 1.02-.11.27-1.14-.5-1.18-.65m68.67-4.39-.97-.88c-.06 0-.04-.66-.02-.76.04-.2.12-.45.18-.64.12-.35.39-.78.69-.94.17-.09.62-.09.78.13l.15.23c.06.11.12.29.14.42.08.38.08.81.08 1.12v.68c.02.1.14.2.25.29.09.07.23.19.29.29.12.22.28.89-.08.96-.04 0-.34-.23-.44-.31-.11-.09-.35-.27-.49-.25-.08 0-.19.15-.3.27-.08.1-.23.28-.28.33-.22.22-.49.46-.74.66-.4.32-1.51 1.17-1.51 1.17-.7.47-3.83 2.34-4.5 2.08-.18-.07.74-.59.82-.63l.14-.08.22-.14c.21-.1.38-.2.57-.3.65-.36 1.26-.75 1.86-1.17.17-.12.55-.35.83-.52s.57-.36.82-.57c.11-.1.25-.21.35-.27.07-.05.29-.22.41-.33.14-.12.83-.7.73-.83m-27.04-.36c.02-.09-.26-.44-.42-.63-.13-.16-.21-.44-.29-.68-.09-.28.4-1.28.51-1.46.1-.15.57-.55.8-.47.37.12.52.38.55.82.02.3-.02.71-.04.96-.01.18-.08.88 0 .9.25.05.71.52.82.73.12.22.03.64-.11.84 0 0-.82-.54-.94-.62-.33-.22-.62.09-.9.39-.25.27-.52.56-.75.78l-.45.36s-.04.03-.21.15c-.11.08-.28.2-.34.25-.05.05-.31.17-.47.25-.13.06-.46.25-.68.38-.17.1-1.36.64-1.45.56-.25-.21.31-.51.4-.56.24-.13.53-.28.91-.56l.13-.09q.13-.1.31-.23l.12-.08.34-.24c.38-.25.96-.63 1.67-1.29q.06-.05.19-.19c.06-.07.27-.29.27-.29m-14.23-1.94s-.29.7-.44 1.06c-.13.32-.21.67-.28 1.05-.14.68.09 1.84.62 2.11.21.11.33-.09.38-.22.06-.15.18-.46.24-.46.28 0-.05.8-.1.94-.06.15-.12.3-.21.43l-.14.18-.17.15c-.02.15-.5-.19-.5-.19-.08-.1-.16-.2-.23-.31-.19-.3-.38-.74-.34-1.16.07-.77.15-1.55.36-2.19.09-.27.22-.67.3-.82.06-.12.38-.76.5-.56m18.79 3.79c1.29-.79 2.6-1.57 3.93-2.33l.95-.52c.18-.1.57-.32.57-.32l.14-.08.16-.08.26-.16.16-.08.14-.08q.15-.08.28-.16l.14-.08.14-.08q.14-.08.26-.16c.32-.21.74-.48 1.09-.57.19-.05-.05.77-.15.9-.15.19-3.86 2.3-4.61 2.68-.78.39-1.57.85-2.28 1.32l-.56.32s-.24.16-.24.16q-.13.08-.24.16c-.11.08-.39.29-.4.02 0-.21.04-.79.26-.86m11.36-3.52c.48-.33 1.55.64 1.82.92.12.12.43.53.62.79.11.14.21.3.32.45.12.18.32.48.36.48.08 0 .1-1.01.1-1.16 0-.45.08-1.33.23-1.81.12-.42.54-.89.89-1.1.77-.46 1.51 1.05.93 1.62-.11.11-.45-.29-.48-.33-.09-.11-.24-.3-.37-.33-.25-.07-.53.12-.6.3-.07.19-.08.56-.1 1.11-.02.58-.03.86-.08 1.51-.04.53-.11 1.36-.26 1.77-.18.48-.36.03-.48-.28-.09-.23-.36-.64-.57-.94-.33-.5-.76-1.14-1.29-1.17-.85-.05-1.38-.92-1.02-1.81m-65.94 3.58c-.31-.79-.02-3.32.59-3.78.06-.05-.14.76-.14.76-.1.39-.23.94-.21 1.34.04.53.25 1.6.87 1.47.14-.03.25-.48.28-.64 0 0 .2-.23.18.16 0 .18-.07.42-.12.6-.08.28-.19.59-.35.79-.44.55-.96-.44-1.1-.71m20.49-1.82h.14c-.2-.46.26-1.12.57-1.56.34-.49 3.27-1.91 4.29-2.36l2.5-1.12c.72-.32 2.25-.95 2.4-.98.44-.08-.14.74-.46.86-.15.06-.89.37-1.33.56-.46.2-.91.41-1.35.64-.38.21-.83.41-1.23.58-1.08.46-4.89 2.26-5.04 2.81-.04.13.2.38.42.6.25.26.17.52.07.87-.03.08-.62-.24-.63-.24-.14-.09-.53-.47-.33-.66m57.23-.79c.22-.78-.61-1.73-1.12-.93-.19.3 0 .44.24.62.17.13.8.59.88.31m-50.53-.67-.14-.1-.16-.08-.14-.08c-.09-.06-.26-.16-.25-.27.07-.52 1.16-1.61 1.64-1.72.5-.11.75.43.62.74-.09.22-.17.45-.6.15-.1-.09-.18-.09-.35-.09-.21 0-.54.32-.5.51.01.07.58.23.7.25.32.05.71 0 .97-.04.27-.04.42-.06.62 0 .15.05-.12.54-.26.56-.34.04-.96.31-1.37.48-.28.12-.83.35-.89.36-.11.02-.07-.1-.04-.22l.06-.16c.04-.11.09-.24.07-.31m23.39-.81c-.18-.2-.46.05-.58.17-.27.24-.02.5.16.68.8.8.79-.44.42-.85" fill="#1d1d1b" fill-rule="evenodd"/></svg>