<svg viewBox="0 0 77.62 27.72" xmlns="http://www.w3.org/2000/svg"><path d="m7.52 26.93c.3-.31 4.5-2.05 4.69-1.99.21.07-.13.66-.2.75-.03.03-.83.36-1.24.53-.42.17-.92.38-1.33.58l-.36.14-.16.06-.16.06c-.14.05-.25.1-.38.16l-.16.08q-.06.03-.27.12l-.48.24-.15.06c-.14-.12.1-.72.22-.79m.07-1.99c.55-.3 4.06-1.85 4.35-1.75.14.05-.18.78-.3.81-.04.01-.4.14-.56.2q-.16.06-.32.14l-.16.08q-.22.12-.28.14c-.33.12-.87.36-1.33.56l-.16.06-.32.14-.28.12-.16.06q-.11.04-.32.14c-.14.06-.49.22-.47-.03.01-.2.15-.64.33-.67m47.28.24c-.33-.04-1.08-1.03-1.25-1.31-.22-.36-.32-.84-.38-1.35-.06-.45-.04-.88 0-1.36l.06-.4c.01-.15.03-.35 0-.48-.02-.07-.81.44-.81.44-.25.16-.51.33-.74.5-.48.35-1.08.75-1.6 1.03-1.11.6-3.26 1.69-3.92 1.79-.85.12-1.87.37-2.78.6-.8.2-2.66.61-3.07.54-.39-.07.6-.48.6-.48.21-.08.76-.3.77-.3.22-.08.46-.17.68-.26.25-.1.49-.19.77-.28.51-.17 1.08-.36 1.53-.6.47-.25 1.02-.54 1.51-.72 0 0 .52-.26.7-.36.15-.08.31-.17.61-.34l.14-.06s.35-.2.51-.28l.28-.16s.25-.12.4-.2l.34-.2c.48-.24 1.04-.58 1.54-.89.26-.16.52-.32.76-.48.13-.08.37-.24.37-.24l.13-.09q.2-.15.21-.15c.63-.33 3.63-2.6 3.53-3.13-.08-.42-.34-.85-.54-1.18-.22-.35-.44-.74-.62-1.1-.39-.77-1.24-2.56-1.29-3.05-.02-.2.22-1.47.38-1.43 0 0 1.35 1.33 1.55 1.53l.08.12c.12.12.33.34.36.37.07.1.18.31 0 .34l-.2-.04-.2-.04s-.57 0-.38.14c.23.18 1.38 2.55 1.53 3.01.19.58.03 1.66-.08 2.33-.09.53-1.45 1.89-2.42 2.85-.18.18-.23 1.39-.16 1.57l.04.24.04.2c.02.08.12.38.14.44.08.2.19.39.33.54.38.39.75.77 1.16.91 1.43.5 2.4.16 3.73-.32 1.22-.43 2.9-1.92 3.93-2.86.58-.53 1.12-1.1 1.58-1.76.32-.45-.17-.76-.57-.62-.6.21-1.8.4-2.44.36-.48-.03-1.03-.29-1.34-.56-.63-.54-.45-1.75-.17-2.58.1-.31.3-.55.5-.77.07-.07.23-.24.37-.38.09-.07.2-.15.21-.17.13-.24.94-.25 1.18-.21.61.11 1.07.49 1.49.83.13.11.39.42.55.62l.16.23.08.14c.07.11.19.29.27.33.25.12 1.71-.9 2.08-1.16.08-.06.32-.25.48-.37.04-.03.31-.21.45-.31.15-.1.49-.3.58 0q.07.21.02.64c-.03.28-.05.5.06.72.24.45.48.73.93.96.42.22 1 .31 1.49.22.35-.07.88-.35 1.41-.62.31-.16.7-.83.97-1.3.08-.15.81-1.41.98-1.2.1.13-.17.71-.24.86-.11.25-.24.51-.14.68.32.57 1.36.99 2.1.99.48 0 .8-.17.63-.62-.06-.15-.13-.28-.22-.4-.14-.18-.25-.34-.22-.56.05-.41.18-.98.37-1.3.15-.25.5.58.54.66.1.23.2.49.26.76.22.99.05 1.81-.39 2.56-.16.28-.44.48-.8.57-.49.12-.87.08-1.41-.08-.49-.14-1.35-.74-1.45-1.24-.04-.18-.32.27-.32.28-.1.16-.31.49-.33.51-.11.13-.24.27-.37.38-.04.03-.12.09-.21.15-.14.09-.18.12-.24.17-.05.05-1.6.7-1.6.45h-.28l-.24-.04c-.12-.02-.25-.05-.36-.08-.21-.06-.38-.15-.53-.26-.27-.2-.51-.39-.69-.68-.1-.18-.19-.39-.26-.6l-.04-.16-.04-.28s-.08-.42-.14-.3c0 0-1 .72-1.15.82-.32.21-.89.6-1.08.82-.05.05-.11.82-.13 1.03-.04.43-.08.89-.28 1.16l-.06.14-.08.14c-.08.12-.16.25-.24.36-.11.16-.5.63-.66.79l-.18.22c-.18.2-.54.58-.56.61-.7.93-2.05 1.85-3.08 2.43-1.65.94-3.48 1.64-5.45.68m-18.7-.13c-.12-.45.4-1.18.63-1.49.14-.2.33-.45.44-.56.12-.12.53-.53.53-.56-.02-.09-.83-.03-1.02.03-.16.05-.38.12-.39 0-.04-.32.38-.73.56-.88.7-.61 2.82-.27 1.02 1.47-.12.09-.23.18-.34.28-.18.15-.47.39-.53.47-.64.81.93.76 1.57.5.5-.2.89-.4 1.29-.66.2-.13 1.04-.69 1.08-.59.21.68-2.19 2.04-2.69 2.23-.76.29-1.67.2-2.15-.25m-24.82-6.8q-.1.19-.13.35c-.02.12-.15.38-.24.56l-.06.16q-.03.07-.16.28c-.05.09-.17.27-.17.27-.15.18-.2.24-.2.24-.8 1.45-7.23 5.82-8.85 4.38-.39-.34-.94-.85-.99-.92-.18-.27-.58-1.47-.5-1.82l-.04-.38v-.2s.04-.76.04-.76c.02-.27.04-.48.08-.72l.04-.2q.07-.29.08-.4c.03-.21.32-.92.49-1.29.17-.4.5-1.17.37-1.38l-.15-.25q-.1-.15-.16-.26c-.11-.21-.17-.49-.22-.76-.1-.57-.14-1.84.12-2.49l.04-.2.04-.16c.04-.14.08-.29.12-.44.07-.29.16-.6.24-.88.1-.35.52-1.8.76-1.67.08.04-.05.44-.08.51-.07.21-.11.4-.16.64-.07.33-.16.78-.3 1.08-.3.64-.4 2.48-.08 3.21.12.28.29.65.6.7.29.05.43-.31.5-.54s.2-.64.28-.66c.42-.1-.05 1.53-.14 1.73q-.06.13-.16.28l-.28.34s-.17.09-.33.14c-.18.06-.2.08-.26.26-.32.95-.92 2.79-.89 3.26.03.5.14 1.16.35 1.67.17.42 1.4 1.32 2.06.94l.32-.04c.1-.02.24-.05.36-.08q.16-.04.28-.08t.28-.08c.17-.04.74-.3 1.13-.48.75-.34 1.44-.78 2.07-1.24 1.19-.86 2.26-1.76 3.2-2.88.22-.26.28-.63.28-.98 0-.68-.74-2.87-1.11-3.91-.26-.74-.55-1.43-.85-2.13-.16-.38-.37-.85-.52-1.17-.19-.37-.3-.68-.43-1.04-.09-.26.04-1.28.21-1.42.19-.16 1.38 1.92 1.47 2.06.47.82.97 1.82 1.23 2.77.38 1.37.82 3.01 1.01 4.21.28 1.79.54 3.47 1.41 4.35.26.26.87.42 1.32.45.43.03 1.14-.15 1.47-.38.56-.39.99-.74 1.35-1.32.31-.5.95-1.53 1.21-1.63.1-.04.17.37.18.42.04.21.04.22.14.38.12.19.29.47.48.59l.26.27.5.46c.34.27.74.51 1.12.71.7.37 1.56.67 2.48.83.46.08 1.04.16 1.45.16h1.01l.52-.04h.16c-.08.08 2.04-.27 2.5-.4.55-.16 1.24-.33 1.86-.48.68-.17 4.55-1.61 4.69-1.88.04-.08-1.02-.2-1.12-.21h-.18l-.44-.04h-.54s-.9-.07-1.07-.08c-.52-.04-1.28-.1-1.98-.16-.38-.03-1.49-.12-1.49-.12s-1.28-.04-1.25-.22c-.01-.16.02-.24.08-.4.08-.2.15-.37.24-.56.14-.28.36-.6.58-.83.24-.26 1.22-.88 1.76-1.21 1.27-.78 2.86-1.65 4.4-2.09.07-.02-.16-.48-.16-.48-.04-.07-.12-.19-.14-.28-.07-.22-.2-.9-.12-1.04l.04-.32.04-.16.08-.24c.08-.2.19-.38.31-.55.22-.32.54-.59.92-.75 1.23-.51 3.49 1.54 3.9 2.43.14.3-.21.97-.35 1.24-.09.17-1.1.58-1.65.79-.2.08-.54.19-.81.28-.16.05-.33.11-.44.19-.07.05-.07.08-.11.23-.01.06-.09.37-.15.37-.15 0-.16 0-.24-.11-.1-.12-.17-.21-.27-.21-.73.03-4.78 1.85-5 2.25-.05.09 1.06.23 1.13.24.08 0 1.48.12 1.98.16l.32.04q.3.04.52.04h.18l.18.04.44.04c.73.06 1.86.16 2.38.16l1.61.08h.83l.12.04h.37s.16 0 .16 0h.85c.3 0 1.97 0 1.98.11.02.24-.85 1.58-1.05 1.71-.02.01-.16 0-.34-.02-.39-.04-.99-.06-1.29-.04-.27.01-1.04.11-1.49.16-1.1.13-2.36.67-3.39 1.11-.5.21-1.14.49-1.49.64-.46.2-.93.41-1.42.58-.97.35-1.98.71-2.94 1.02-.23.07-1.18.29-1.78.42-.39.08-.85.17-1.29.2-.21.01-.97.1-.97.1s-.67.03-.87.02c-.42-.02-.67-.04-.83-.04-.43 0-1.06-.1-1.53-.2-.31-.07-.83-.19-1.01-.24-.22-.07-.98-.3-1.01-.24-.02.04-.04.43-.06.66-.02.28-.08.56-.16.8-.19.56-.45.72-1.15.54-.58-.15-1.34-.9-1.55-1.44-.1-.26-.2-.52-.25-.83-.07-.38-.1-.77-.12-1.16 0-.09-.04-.78-.17-.47-.14.32-.82 1-1.35 1.53-.23.22-1.4.61-1.74.57-.54-.07-1.11-.15-1.46-.39-.15-.1-.39-.27-.46-.33q-.13-.1-.28-.28s-.14-.26-.16-.26c-.03 0-.32-.65-.35-.73-.09-.23-.16-.47-.22-.72-.08-.35-.15-.72-.2-1.08-.02-.16-.12-.84-.2-.87m61.23 3.34c.38-.14.63-.27.93-.62l.08-.14.08-.14c.07-.11.18-.29.28-.28l.02.16c0 .19-.02.34.03.39.25.3.88.32.98-.11.09-.38.23-.96.46-1.02.22-.06-.08 1.08-.11 1.18-.14.41-.31.8-.67 1-.32.18-.57.19-.93 0-.28-.15-.53.04-.8.25-.25.19-.72.29-1.08.21l-.26-.15-.13-.07c-.19-.1-.41-.22-.62-.14-.93.37-1.65.85-2.46 1.39-.64.43-1.75 1.14-2.68 1.06-.18-.01.26-.27.26-.27.15-.05.28-.1.4-.18s.26-.16.4-.24l.26-.16q.1-.06.26-.16c.52-.32 1.04-.68 1.53-1.04.53-.38 1.07-.77 1.61-1.04.28-.14.75-.37 1.13-.22.67.26.97.37 1.01.36m-53.89-.88c-.23.19.43 1.26.54 1.4.13.18.26.33.44.47.06.05.65.47.65.23 0-.59-1.28-2.28-1.63-2.1m27.22-.84c-.24-.37-.4-.79-.4-1.31 0-.73.12-1.41.32-2.01q.05-.16.1-.28l.18-.4q.03-.09.14-.28c.09-.15.18-.31.22-.48.03-.13-.44-.48-.57-.56-.03-.02-.53-.47-.75-.67-.24-.22-1.12-1.14-1.14-1.21-.09-.37-.07-1.18.09-1.55.02-.03 1.1.44 1.27.51.35.15 1.3.57 1.31.68.02.13-.07.16-.18.18-.05.01-.45.1-.46.13-.05.12.18.31.28.39.17.13.96.69 1.1.65.04-.01.55-.64.78-.92.14-.17.27-.33.39-.53.11-.18.26-.37.41-.53.07-.07.52-.69.81-1.08.27-.36.29.12.21.35-.09.26-.14.49-.2.8-.08.45-.48.96-.76 1.3-.19.24-.83 1.02-.52 1.24.82.58 1.64 1.15 1.8 2.26.05.37-.23 1.72-.42 1.91-.68.68-2.87 2.6-4.02 1.43m3.64-2.78c-.1-.36-1.7-1.56-2.12-1.53-.46.03-1.23 1.56-1.31 2.09-.03.21.19.62.34.71.36.19.61.17 1.01.06.47-.13 1.99-.99 2.08-1.32m-26.6-.62c-.27-.53.08-3.18.57-3.43.04-.02-.06.47-.08.58-.08.41-.16.82-.2 1.26-.05.54.21 1.07.55 1.38.23.22.51-.44.58-.61.15-.36.06.69.03.78-.07.26-.21.62-.4.76-.38.26-1.08-.21-1.05-.72m-16.26-4.27c.13-.16-.07.69-.11.84-.13.54-.22 1.19-.12 1.69.07.33.23.78.52.89.15.06.26-.04.31-.17.07-.18.21-.55.3-.51.23.12-.23 1.68-.64 1.73-.67.09-.99-1.29-.97-1.87.02-.64.41-2.23.72-2.6m56.69 4.29c.07-.27-.76-.76-.97-.82-.32-.1-.65-.12-.95.02q-.14.07-.38.25l-.17.19c-.45 0 .68.49.77.5.39.06.59.05 1.01 0q.14-.02.36-.08c.1-.03.2-.05.32-.06m-48.06-2.27c-.24-.38-.27-2.25-.05-2.68.14-.28.28.63.28.64 0 .52 0 1.1.06 1.18.14.2.24.29.57.26.32-.03.6-.4.7-.66.13-.3.04-.7-.04-1.04-.05-.24-.06-.37 0-.6.04-.14.1-.41.1-.44.02-.37.38 1.04.38 1.04.03.3.07.71.26.94.37.46 1.2.58.83-.38-.21-.56-.41-1.18-.13-1.8.07-.14.78 1.67.82 2.02.03.31-.18 1-.36 1.16-.24.21-.29.26-.67.33-.2.04-.51-.1-.63-.21-.14-.13-.31-.29-.46-.15-.09.16-.11.19-.16.26-.11.16-.3.29-.46.4-.36.23-.71-.03-1.03-.26m11.9-1.42c-.2-.12-.39-1.29-.34-1.53l.04-.52.04-.32c.03-.23.08-.46.12-.68.07-.36.15-.69.24-1 .07-.24.44-1.56.56-1.5.08.04-.14 1.18-.2 1.42-.14.66-.3 1.34-.28 2 .02.6.43 1.52 1.03 1.41.11-.02.16-.25.18-.36.04-.21.09-.44.13-.55.11-.32.28.25.28.27l-.04.28-.04.2-.04.16c-.08.4-.14.74-.3 1.04-.36.64-1.06-.02-1.37-.32m10.72-.87c.24-.39-1.42-1.15-1.8-1.24-.34-.08-.7.13-.86.31-.06.07.81 1.41.88 1.45.02.01 1.35-.39 1.79-.52m35.18-2.46c.06-.87.47-1.63.81-2.26.23-.42-.05.71-.07.74-.18.39-.31.65-.34 1.04-.04.46.11 1.12.4 1.3.2.12.42-.03.51-.19.07-.12.29-.5.34-.48.1.05-.09.7-.11.78-.07.2-.19.42-.31.63-.11.19-.38.31-.6.23-.55-.19-.68-1.05-.62-1.79m-13.7-.64.02-.32.04-.2.04-.2c.04-.2.1-.37.16-.56.09-.26.42-1.26.64-1.16.02.01-.1.37-.12.43-.02.07-.08.24-.1.28q-.07.15-.1.24c-.12.42-.2.82-.2 1.25 0 .6.35 1.27.91 1.2.14-.02.22-.32.26-.48.05-.2.12-.48.3-.48.15 0-.2 1.93-.89 2.03-.06.01-.23-.06-.3-.1l-.23-.15-.16-.2c-.24-.13-.33-1.38-.27-1.58m-13.7-1.2c.21-.07.63.23.88.42.23.17.55.4.77.33.02 0 .25-.44.31-.55.08-.17.27-.48.42-.56.3-.15 1.35.91 1.53 1.12.21.24-.11.73-.23.88-.15.18-.3.37-.42.58-.07.13-1.04-.67-1.09-.71l-.12-.07-.19-.19c-.19-.05-.36.27-.46.46-.14.26-.39.72-.42.76-.19.21-1.33-.74-1.43-.83-.42-.38.02-1.35.45-1.63m-34.81 1.26c-.38-.38.24-2.26.76-2.68.2-.18.42-.33.65-.47.53-.32 1.09-.64 1.65-.96 1.11-.63 2.28-1.25 3.51-1.87q.29-.13.3-.14c.15-.08.32-.17.48-.24.32-.15.72-.34.83-.4s.28-.14.4-.2c.09-.04.55-.28.55-.28l.32-.16c.17-.08.48-.24.48-.24.07-.05 1.1-.56 1.71-.86.3-.15.7-.34 1.01-.42.34-.08.12.8-.05.92-.12.08-.55.26-.8.37-.34.14-.64.29-.95.44l-.18.08-.14.08s-.32.16-.4.2l-.26.14-.28.14q-.05.04-.22.12c-.54.27-1.42.71-1.67.84-.14.08-.28.15-.36.18-.01 0-.27.15-.4.22-.05.03-.37.17-.53.24-.18.08-.32.15-.48.24-.52.28-1.03.55-1.53.83-.14.07-.27.14-.4.2-.15.07-.32.16-.5.27q-.14.12-.19.15l-.39.22c-.66.33-2.77 1.46-2.68 2.15 0 .02.34.29.39.33.21.19.43.39.45.45.07.16.18.65.01.92-.15.26-1.03-.71-1.1-.8m62.45-4.56c.04-.13-.37-.45-.53-.58-.3-.24-.52-.5-.48-1.03.07-.87.43-1.35.95-1.79.24-.19.6.06.74.17.34.25.37 1.69.37 2.2 0 .29.18.47.45.73.28.28.25.59.13 1.01-.03.12-.5-.21-.54-.23-.17-.12-.47-.33-.75-.1l-.09.13c-.08.1-.18.23-.33.38q-.13.11-.29.27-.13.1-.23.19c-.39.36-.94.86-1.32 1.09-1.06.65-4.12 2.51-4.84 2.31-.11-.03 1.57-1.06 1.65-1.1.65-.4 1.6-.98 1.94-1.2.56-.37 1.35-.89 1.68-1.12.26-.19 1.48-1.17 1.49-1.32m-53.38 3.07c.42-.5 5.85-3.19 7.05-3.7.98-.42 2.56-1.21 3.81-1.83.59-.29 1.57-.78 1.88-.92 1.06-.5.92.14.46.9 0 0-1.58.78-1.87.91-.71.31-1.45.67-2.14 1.04-.07.04-.28.13-.4.18-.14.06-.31.14-.48.22-.38.18-.75.36-1.13.56-.28.15-1.17.59-1.76.89-1.19.59-2.79 1.39-3.58 1.82-.51.28-1.76.98-1.78.99-.92.61-.3-.84-.05-1.06m15.8-4.66c-.44-.61.78-2.56 1.57-2.14.33.17.39.66.43 1.12.02.21.02.31 0 .6-.01.18-.05.85.05.85.18 0 .54.6.61.78.09.22 0 .79-.18.85l-.27-.3c-.12-.13-.27-.23-.42-.33-.25-.17-.56.17-.82.45-.48.51-.98 1.01-1.53 1.45-.24.19-.48.38-.74.55-.32.21-.64.42-.95.64-.07.05-2.12 1.27-1.72.72.08-.11 1.02-.89 1.61-1.37.24-.19.47-.38.73-.56.25-.18.5-.39.74-.59.51-.42 1.11-.92 1.47-1.28.33-.33.49-.49.06-.78-.1-.07-.23-.16-.32-.24l-.33-.41zm10.3.73-.17-.21c-.16-.21-.26-.39-.3-.7-.11-.78 1.25-2.79 1.64-1.69.1.27.18.51.21.81 0 .07-.05.68-.08.92-.03.31-.06.58-.01.64.03.04.28.23.43.34.17.13.36.31.45.51.1.22 0 .78-.18.82 0 0-1.02-.72-1.07-.76-.09-.07-1.15.99-1.28 1.12-.38.38-.84.82-1.35 1.07l-.18.08-.16.08q-.16.08-.3.16c-.19.11-.48.27-.57.3-.24.09-.47.18-.68.3-.23.13-.47.27-.77.28-.2 0 .15-.33.15-.33.08-.08.23-.17.38-.27q.07-.05.22-.12c.14-.07.29-.16.42-.24.06-.04 1.03-.72 1.6-1.12l.24-.16c.07-.05.43-.33.64-.5.22-.17 1.05-.85.72-1.32m4.66 2.35c1.33-.87 2.73-1.71 4.13-2.5.39-.22.85-.48 1.17-.64.16-.08.68-.39.99-.58.37-.22.74-.43 1.11-.63q.1-.05.26-.16l.28-.16c.09-.05.41-.23.47-.16.15.18-.12.76-.21.88s-1.52.93-2.23 1.33c-.76.43-1.64.93-2.26 1.32 0 0-.02 0-.24.12l-.26.16s-.38.21-.56.32c-.41.24-.82.47-1.23.72-.16.1-.35.21-.48.28-.19.09-.37.21-.54.33-.62.42-.64.08-.39-.64m11.37-2.66c-.1-.34-.01-.68.13-1.02.09-.22.81.12.88.17.44.32.92.67 1.23 1.11l.09.13q.12.14.25.3.05.06.15.21c.07.1.53.8.56.74 0-.02.06-1.2.06-1.57 0-.49.06-1.03.22-1.45.17-.44.52-.87.91-1.1.53-.31.94.38 1.08.82.09.27-.1.69-.24.82-.01.01-.51-.45-.6-.53-.32-.29-.67-.11-.84.23-.07.13-.13 1.89-.14 2.42 0 .36-.12 1.13-.21 1.63-.03.17-.3.84-.42.44-.14-.46-.24-.69-.45-1.02-.3-.49-.64-.96-1.02-1.38-.13-.15-.24-.18-.44-.17-.16 0-.29-.04-.46-.12-.31-.15-.63-.35-.77-.68m-56.48-1.11c-.04-.31.06-.71.21-.98.27-.46 1.96 1.04 2.01 1.08.22.22.41.48.59.74.11.16.59.83.66.79v-.33s0-.52 0-.52q.01-.39.08-.82c.04-.28.09-.54.16-.76.07-.2.13-.38.22-.56 0-.02.14-.23.23-.37l.18-.15c.02-.17.6.21.6.21.13.12.24.3.31.47.1.27.04.55-.06 1-.02.11-.47-.34-.47-.34-.17-.17-.28-.28-.5-.32-.19-.04-.26.34-.26.54v.96c0 .68 0 .85-.04 1.24-.03.28-.29 1.64-.52 1.54l-.07-.13-.08-.2s-.16-.29-.24-.42c-.15-.26-.32-.51-.49-.76-.14-.22-.84-1.08-1.08-.98l-1.25 2.09c-.08.19-1.72 1.43-1.99 1.49-.47.1 1.64-2 1.74-2.1.35-.35.73-.75.92-1.25.12-.31-.06-.43-.32-.6-.2-.14-.47-.31-.54-.56m68-.09c-.26-.28-.69.11-.79.26-.22.28.15.55.34.68.1.07.83.58.81.21-.01-.39-.12-.98-.36-1.15m-26.81-.24c-.24-.17-.76.2-.72.41.05.31.53.7.79.73.31.04.03-1.01-.07-1.14m-9.63-.02c-.33-.26-.8.05-.86.4-.01.08.59.47.73.56.59.38.23-.77.13-.96" fill="#1d1d1b" fill-rule="evenodd"/></svg>