<svg viewBox="0 0 71.68 29.05" xmlns="http://www.w3.org/2000/svg"><path d="m6.08 28.78c-1.63-.48-3.44-1.05-4.24-2.3-.4-.63-.88-1.37-1.06-1.86-.49-1.3-.56-5.08.08-6.34l.04-.16.04-.16s.08-.24.12-.36c.07-.22.16-.45.24-.64.22-.51.55-1.27.75-1.51l.32-.46c.11-.15.25-.34.47-.61l.13-.08.1-.14.2-.24.19-.19c.08-.3-1.16-1.06-1.49-1.27-.63-.39-1.26-.77-1.65-1.18-.17-.18-.33-.82-.3-1.14.04-.51.16-.94.44-1.22.31-.32.69-.71 1.12-.81 1.84-.46 4.04-.76 5.91-.56.85.09 2.11.2 3.21.2.7 0 2.07.01 2.84.33.37.15-.24 1.53-.46 1.64l-.26.15-.13.07-.14.08q-.13.08-.28.16c-.28.15-.59.3-.87.44l-.3.14s-.28.14-.44.22l-.14.08-.26.16c-.19.1-.38.19-.4.2-.41.17-1.31.56-1.59.9-.26.32-.46 1.5-.57 2.23-.07.48-.05 1.79.16 2.21.3.6.56 1.11.94 1.45.19.17.46.41.61.49l.36.2.28.12c.14.06.19.08.24.12 0 0 .63.16.81.2.21.05.32.07.46.08h.32q.43-.03.57 0c.45.1 1.95-.39 2.44-.58.76-.29 1.98-.95 2.63-1.6.32-.32.66-.63.99-.94.05-.05.56-.52.59-.19.04.47.11 1.19.18 1.35.08.17.64.64 1.09 1 .81.67 3.19.41 4.17.03.04-.02.01-.32 0-.38-.02-.17-.05-.59-.04-.72.03-.38.11-.75.2-1.09.31-1.08 1.04-2.22 2.08-2.59.23-.08.55.15.72.27.31.22.61.99.67 1.48.07.5 0 1.07-.16 1.61-.09.31-.3 1.06-.29 1.1.12.3 1.86.02 2.13-.07.7-.25.66-.69.59-1.55-.15-1.76-.35-3.19-.6-4.98-.32-2.22-1.17-10.31-1.17-10.32.07-.34.33-1.16.6-1.23.03 0 .39.82.47.99l.08.16.08.2s0 0 .12.28q.06.14.1.28c.01.05.08.25.1.28.21.41.92 1.99.7 2.3-.12.17-.42-.29-.46-.35-.1-.15-.33-.49-.46-.52-.12-.02.2 2.53.24 2.83.12.91.33 2.55.4 2.93.33 1.66.54 4.48.69 6.6.08 1.18-.23 2.7-1.07 3.41-.36.3-.85.49-1.4.57-.44.07-1.38-.07-1.99-.2-.6-.13-1.16-.26-1.33-.18-.83.36-1.72.73-2.78.86-.66.08-1.3.03-2.1-.08-.67-.1-1.17-.54-1.51-1-.19-.26-.34-.52-.47-.83l-.1-.24-.06-.18s-.04-.05-.16-.06c-.14-.01-.13-.12-.12-.16l-.08.2c-.04.09-.05.1-.33.35-.05.05-.15.13-.21.18-.11.09-.2.18-.3.28s-.21.2-.32.29c-.47.38-1.1.75-1.67.99-1.55.66-2.85.99-4.84.78-.66-.07-1.23-.41-1.68-.71-.93-.62-1.57-1.62-1.8-2.92-.14-.79-.02-1.87.12-2.77.02-.15.05-.3.08-.44.06-.28.08-.36.08-.36.05-.27.17-.91.08-.96-.12-.07-2.07 1.26-2.1 1.33l-.04.16-.04.56c-.02.13-.08.26-.18.26-.06 0-.16-.16-.2-.22-.1-.15-.11-.16-.18-.21-.53-.42-2.54 2.29-2.63 2.58l-.06.16-.08.16-.06.12c-.07.18-.13.34-.2.52-.07.2-.18.51-.2.6-.06.28-.14.64-.2.84-.21.74-.14 1.7-.08 2.37.02.25.39 1.3.67 2.07.09.25.33.55.5.76.1.12.18.21.3.32.1.09.33.3.34.31.25.38 1.49.93 2.01 1.11.35.12.71.23 1.09.32.22.05.55.11.81.16.19.03.94.17.87.12l.63.04q.51.04.61.04l.93.04h.2s.14 0 .14 0h.75c1.17-.07 2.76-.16 3.53-.16.32 0 .43 0 .75-.04l.2-.04.2-.04.2-.04c.16-.02 1.41-.16 1.47-.09.19.26-.45.44-.62.49-.33.09-.83.24-.99.3-3.14 1.25-6.06 1.65-9.59 1.07m41.34-5.68c-.13-.51-.15-1.07-.12-1.57.02-.29.07-1.26.02-1.29s-.5.29-.62.38c-.1.08-.41.26-.61.39 0 0-.25.17-.25.17-.11.08-.22.16-.33.23-.2.13-.49.33-.63.4-.95.54-2.41 1.37-2.96 1.6-.48.21-1.62.66-1.62.66l-.2.04-.24.04c-.15.03-.34.08-.48.12l-1.05.24c-.59.17-3.58.82-3.81.72-.18-.08.42-.4.5-.43.28-.12.59-.25.85-.34q.14-.05.36-.16l.16-.06s.04-.01.26-.1c.32-.12.73-.28.95-.36.57-.21 1.16-.42 1.61-.68.43-.25.93-.51 1.39-.68 1.44-.53 4.02-2.22 5.7-3.34.76-.51 3.56-2.52 3.5-3.24-.02-.23-.54-1.18-.79-1.61l-.16-.26c-.08-.13-.16-.27-.24-.4-.14-.24-.33-.57-.42-.78-.31-.73-1.29-2.99-.57-3.63.03-.03.57.51.69.63.24.23.47.47.73.68.25.21.47.45.67.71.15.19.08.38-.16.3-.12-.04-.59-.15-.65-.02-.04.09.65 1.31.78 1.52.3.49.63 1.03.78 1.54.12.41.11 2.06-.08 2.45-.33.66-.58 1.03-1.04 1.52 0 0-.38.34-.59.54-.27.24-.58.53-.69.67-.21.27-.22 1.1-.22 1.48 0 .45.3 1.27.54 1.51.35.35.64.6 1.05.9.37.27 1.15.33 1.55.3.79-.05 1.63-.29 2.32-.58.43-.18 1.21-.72 1.71-1.08.02-.02.52-.4.73-.58q.19-.15.22-.18l.13-.09.21-.17.34-.27c.45-.3 2.01-1.9 2.19-2.38.03-.08-.08-.36-.18-.59-.03-.08-.37.04-.44.06-.2.07-.38.13-.61.16-.69.1-1.31.2-1.9.2-.47 0-.97-.33-1.29-.54-.6-.4-.42-1.68-.26-2.37.05-.21.57-.87.96-1.36.21-.26.67-.39 1.06-.43.48-.05 1.12.35 1.43.55.56.37 1.01 1 1.37 1.59.14.23 1.73-.83 1.85-.91s.26-.2.43-.35l.22-.18c.24-.2.55-.44.86-.53.33-.09.36.29.35.5-.02.29-.05.77.06 1.04.07.18.36.48.65.76l.23.15c.81.85 2.67-.17 3.17-.63.26-.24.52-.72.74-1.13.25-.46.54-1.02.81-1.21.38-.27.04.61.02.66-.12.28-.28.66-.28.8 0 .32.77.74 1.03.86.66.3 1.27.16 1.82-.02.11-.04-.18-.56-.18-.56l-.06-.14-.09-.13c-.06-.07-.2-.25-.21-.29-.07-.23.29-1.54.46-1.55.24-.01.6 1.02.71 1.35.35 1.03-.03 2.57-.7 3.02-.38.26-.81.29-1.24.29s-1.12-.34-1.39-.54c-.16-.11-.29-.24-.41-.39-.1-.13-.36-.45-.45-.42l-.15.24-.08.16c-.05.09-.1.18-.16.26-.08.12-.21.26-.37.43l-.22.18c-.12.24-1.17.59-1.55.65-.51.08-1.07-.02-1.49-.18-.37-.14-.67-.45-.89-.76-.11-.15-.2-.3-.27-.49q-.07-.19-.1-.32c-.05-.22-.14-.61-.15-.62-.03-.02-1.08.75-1.23.87-.35.26-1.04.77-1.08.92l-.04.44-.08.76c-.03.31-.09.63-.22.84-1.22 1.89-2.77 3.42-4.64 4.66-.61.41-1.63.99-2.3 1.06l-.24.08c-.18.05-.4.1-.61.12-.39.04-.84.09-1.21 0-.73-.17-1.13-.35-1.64-.67-.53-.33-.98-1.15-1.2-1.8m-30.04.96c-.21-.7.22-3.85.93-3.7.04 0-.26.77-.28.82-.1.26-.28.72-.3.78-.22.65.15 1.65.63 1.75.16.03.36-.09.42-.22.09-.19.31-.65.34-.66.22-.04-.16 1.02-.2 1.1-.14.35-.25.6-.58.76-.4.2-.87-.34-.95-.64m14.22-.28c-.17-.65-.1-1.29.14-1.93.12-.3.24-.6.37-.88.06-.12.39-.88.42-.86.1.08-.35 1.36-.42 1.54-.19.55-.21 1.83.48 1.79.15 0 .26-.14.32-.24.02-.04.07-.16.1-.26 0 0 .09-.24.1-.24.35-.04-.05.97-.08 1.04-.31.79-1.2 1.03-1.43.04m33.27-2.67c.32-.12.63-.16.93-.02.44.21.66.31.93.3.26 0 .58-.3.74-.45.1-.1.16-.2.23-.33.07-.12.22-.42.34-.38v.29s.03.16.03.16c.01.03.15.14.18.16.15.09.58.23.68.07s.15-.33.21-.59c.06-.29.18-.55.35-.7s.03.89-.03 1.06c-.09.28-.28.84-.5.97-.23.14-.47.29-.63.29 0 0-.3-.07-.34-.08l-.26-.14c-.22-.04-.36.08-.59.27-.19.16-.47.27-.76.31-.34.05-.55-.09-.76-.23-.12-.08-.35-.23-.53-.17-.63.2-1.01.39-1.51.66-.02.01-.43.3-.58.41l-.2.16c-.11.08-.23.18-.31.23-.41.25-.79.48-1.23.7-.25.13-1.59.6-1.4.17l5.03-3.14zm-62.24 1.04s.41-.18.62-.27q.2-.08.24-.1c.13-.05.21-.07.32-.14.16-.09.38-.17.56-.24.22-.08.42-.17.61-.26l.24-.08.14-.06.14-.06q.29-.11.34-.14l.16-.08.18-.08c.22-.1.68-.3.73-.32.12-.08.39-.24.39-.23.21.14.11.65 0 .84-.18.35-2.11 1.1-2.7 1.31-.2.07-.42.15-.59.22-.28.12-.57.23-.87.34-.71.27-1.1.22-.54-.64m30.82-20.91c.06-.28.36-1.1.56-1.26.05-.04.99 2.14 1.04 2.24.16.37 1.03 2.39.73 2.59-.08.05-.4-.26-.47-.34-.07-.07-.4-.39-.44-.35-.09.11.24 2.68.32 3.33.15 1.1.26 1.98.4 3.09.25 2.01.71 6.24.69 6.56v.71c0 .42-.02.91-.08 1.44-.04.32-.32 1.48-.54 1.51-.11.02-.21-1.49-.22-1.77-.06-.97-.14-2.23-.28-3.23-.2-1.47-.42-3.16-.57-4.66-.18-1.76-.36-3.23-.6-5.06q-.04-.27-.08-.8l-.04-.48-.04-.48-.08-.8-.04-.36-.04-.4c-.03-.37-.07-.7-.16-.96-.08-.23-.11-.31-.04-.52m6.53 18.66c-.11-.17-.63-1.12-.43-1.32l.04-.56v-.12l.04-.2.04-.32c.04-.36.11-.64.22-.92.09-.24.18-.46.28-.68.16-.36.3-.69.28-.8 0-.03-.24-.19-.3-.24-.1-.07-.56-.46-.75-.63-.16-.14-.2-.17-.21-.18-.18-.19-.52-.56-.52-.56-.09-.11-.17-.19-.28-.28-.19-.15-.34-.27-.37-.39-.1-.36-.08-1.3.11-1.6.05-.08.3.14.36.18.05.04.26.12.4.17l.16.06.16.06.16.06.28.12.16.06c.26.1.77.29.85.42.1.17-.15.24-.32.28-.16.04-.35.09-.3.25.06.17 1.2.84 1.43.86.09.01 1.04-1.32 1.17-1.51.35-.52.75-1.03 1.14-1.52.64-.8-.1 1.55-.22 1.72-.18.28-.41.61-.57.82-.2.26-.58.74-.57 1.04 0 0 .24.17.26.17.13.08.36.22.39.25.17.13.35.26.51.41.37.34.69.82.77 1.43.08.59-.09 1.42-.3 1.87-.48 1.01-2.95 2.45-4.07 1.62m3.56-2.75c.2-.52-1.75-1.49-2.15-1.6-.15-.04-.81 1.09-.97 1.34-.32.54-.41 1.4.36 1.59.86.2 2.31-.92 2.76-1.33m-17.04-1.72c-1.16.13-1.92 1.93-.4 2.25.43.09 1.32-.53 1.27-.98-.05-.41-.46-1.3-.87-1.27m-14.34-.18c.06-.54.21-.97.38-1.4.08-.21.47-1.17.63-1.03 0 0-.22.76-.25.83-.14.39-.32.88-.28 1.36.02.34.2.72.4.88.13.1.35.15.48.01.04-.04.11-.24.13-.29.05-.15.07-.2.22-.2.12 0-.14.8-.14.8-.08.23-.18.41-.29.59-.12.2-.42.22-.64.13-.43-.16-.56-1.11-.64-1.69m45.28 1.07c-.26-.87-2.23-1.15-2.46-.11-.04.21.71.36.9.38s1.57-.03 1.56-.27m-47.2-6.86c-.09-.14-2.61-.22-2.98-.22l-1.86-.04c-1.21 0-3.76.05-4.61.69-.2.15.91.76.98.8.44.24.93.51 1.28.79.09.07.26.22.39.32t.2.18s.22.19.32.28c.14.12.52.45.52.45.04.02.27.07.27.07l.09-.15c.04-.05.1-.09.22-.16.29-.17.8-.48 1.19-.72.43-.26 1.07-.65 1.33-.8.23-.13.46-.27.69-.4.21-.13.41-.25.64-.34.19-.07 1.25-.62 1.33-.74m5.62 1.72c-.23-.28.5-1.49.83-1.5l.46.31s.04.03.24.16c.26.18.61.4.77.41.04 0 .28-.37.37-.52.08-.12.27-.39.41-.45.34-.14 2.58 1.2 1.03 2.31-.23.17-1.51-.53-1.53-.74-.03-.29-.49.44-.49.44-.12.19-.25.39-.42.53-.19.17-.98-.42-1.13-.53l-.13-.09-.2-.16c-.06-.05-.2-.16-.2-.16m8.77-.59s.47-.92.65-1.26c.17-.32 1.46.89 1.55 1 .18.22-.52 1.4-.93 1.27-.24-.08-1.29-.77-1.27-1m42.53-1.69c.03-.33.64-1.84.8-1.87.22-.04-.15.77-.18.83-.18.38-.27.58-.3 1.16-.02.33.22 1 .46 1.1.22.09.41-.09.48-.22.06-.11.27-.51.3-.49.39.19-.46 1.55-.7 1.68s-.54-.11-.61-.24c-.28-.53-.47-1.18-.26-1.95m-13.84.06c.09-.54.2-1.22.38-1.71.08-.21.38-1.01.57-.96.06.02-.22.68-.22.68-.11.25-.18.55-.24.84-.17.81.11 1.91.83 1.93.17 0 .27-.3.3-.45.04-.17.14-.56.28-.5.2.09-.12 1.07-.18 1.22-.14.37-.23.53-.52.74-.21.15-.65-.22-.74-.31-.22-.24-.33-.89-.45-1.49m-12.09-.48c.14-.14.3-.46.44-.74.08-.16.27-.44.46-.46.21-.03 1.39.98 1.45 1.22.09.35-.53 1.44-.79 1.39-.08-.02-.51-.34-.72-.51-.27-.22-.6-.48-.65-.49-.06-.02-.37.52-.44.64-.2.35-.37.62-.44.64-.09.02-.41-.22-.55-.31-.19-.14-.38-.28-.56-.39-.58-.36-.52-.49-.22-1.12.2-.42.4-.86.89-.56l.46.33c.17.11.56.37.67.36m-1.04-4.74c-.22-.14-.57-.61-.64-.9-.09-.36.21-1.31.39-1.48.32-.32.58-.58.81-.62.29-.05.45.22.52.42.12.31.14.63.1.96-.04.34-.13 1.16-.05 1.22.11.07.59.55.89.84.13.13-.04.63-.1.78-.02.04-.53-.3-.62-.35-.2-.14-.51-.34-.67-.38-.09-.03-.43.37-.52.47-.2.24-.46.54-.73.76l-.08.12-.13.08-.34.3-.34.26-.23.16c-.16.17-1.98 1.03-2.14 1.01-.5-.1 1.94-1.72 1.97-1.74.35-.23 2.21-1.55 1.89-1.91m4.6 2.06c1.34-.73 2.73-1.58 4.02-2.44.89-.59 3.6-2.24 4.14-2.39.33-.09.02.85-.2.98q-.15.09-.26.16l-.24.16-.26.16c-.12.08-.25.16-.38.24l-2.3 1.32c-.17.1-.4.24-.51.32-.17.12-.34.23-.54.32-.43.2-.86.46-1.25.72-.42.28-2.32 1.42-2.32 1.42-.28.05-.03-.93.11-1m-24.84 0c.29-.21 1.31-.65 1.99-.95.34-.15 1.01-.44 1.13-.5 0 0 .42-.16.61-.24l.14-.06.18-.08.2-.08c.73-.32 1.54-.67 2.22-.92.17-.06.33-.13.48-.2.04-.02.37-.16.52-.22.23-.09.48-.19.51.12.01.17-.15.65-.28.7-.24.09-.72.29-1.07.42-.15.06-.4.16-.4.16q-.11.04-.34.14c-.07.03-.07.03-.3.12-.16.06-.37.16-.57.24-.18.08-.42.18-.61.26-.17.07-.43.19-.5.22-.19.1-.4.2-.59.26l-.2.06-.14.08-.14.06c-.2.08-.61.24-.61.24l-.16.06-.24.14c-.16.07-.37.14-.57.2-.15.05-.26.11-.38.18-.17.11-.33.19-.53.28-.74.37-.62-.19-.35-.7m36.22-3.66c.49-.36 1.7.8 1.96 1.08.21.23.4.48.59.73.11.15.22.31.31.47.07.13.22.39.32.36l.02-.52v-.44l.04-.82v-.18c0-.24.09-.67.16-.96.11-.48.86-1.49 1.47-1.2.2.1.49.51.55.76.06.22-.02.85-.24.9-.08.02-.24-.19-.32-.28-.1-.12-.23-.27-.37-.35-.36-.2-.67.13-.77.44-.04.12-.04.73-.04.98 0 .35-.02 1.19-.04 1.47-.03.46-.17 1.98-.48 2.03-.03 0-.21-.45-.26-.58 0-.02-.28-.48-.41-.68-.25-.4-.55-.81-.88-1.13-.18-.18-.29-.29-.53-.25-.19.03-.5-.16-.67-.26-.54-.34-.78-.79-.42-1.56m-49.93.97c-.3-.22-.06-1.28.5-1.13.46.13.86.47 1.18.76.3.27.56.54.8.86.13.18.73.98.75.96.03-.02.03-.48.03-.51l-.04-.78c0-.6.09-1.03.2-1.51.09-.39.32-.68.61-.88.37-.26.8.36.91.56.08.16.24 1.36-.12 1.09q-1.12-.85-1.11 1.01c0 .74-.04 1.89-.37 2.82-.05.15-.43-.52-.46-.58-.15-.28-.3-.55-.48-.8-.14-.19-.27-.37-.42-.55l-.36-.45-.24-.2s-.23-.02-.35-.03c-.16 0-.36-.11-.5-.18-.03-.02-.32-.27-.52-.46m-4.51 2.55c-.13-.13-.15-.36-.18-.64-.04-.35-.05-.51-.04-.64l.04-.18v-.18c-.06-.52.5-1.62.71-1.96.16-.26 0 .43-.03.52-.09.26-.21.62-.24.8-.1.52-.04 1.84.75 1.73.18-.02.3-.49.35-.7l.15.03v.27c0 .19-.06.37-.12.52-.1.29-.25.57-.38.82-.24.45-.88-.12-1.01-.38m12.81-1.99c-.41-.2.8-1.81 1.31-1.8.11-.03.24-.06.36-.08.14-.02.46-.02.64-.02.45 0 1.7.02 1.89.17.12.09-.35 1.02-.48 1.28-.08.17-.29.45-.52.7l-.09.13-.25.18c-.13.2-1.46.82-1.69.8-.19-.02.69-.75.69-.75.21-.17.83-.72.83-.72.64-.75-2.32-.15-2.69.11m53.07-1.73c-.18-.27-.59-.12-.77.06-.35.35 0 .65.3.82.1.06.69.4.74.31.1-.19-.09-1.07-.26-1.18m-27.57.19c-.05.32.52.88.84.82.22-.04-.06-1-.14-1.09-.16-.18-.69.09-.7.27m27.81-1.2c.36.2.41 1.05.43 1.6.02.59.04 1.03.33 1.26.23.18.3.32.4.61.07.21-.08.55-.24.56 0 0-.32-.21-.45-.3-.16-.11-.4-.27-.67-.1l-.19.23-.1.14-.18.19-.22.21c-.54.55-1.18 1.06-1.83 1.49-.88.58-3.78 2.34-4.51 2.22-.23-.04.7-.66.7-.66.13-.09.25-.17.4-.24.2-.1.39-.21.59-.32.59-.36 1.18-.74 1.75-1.12 1.11-.73 2.57-1.71 3.19-2.47.05-.07-.37-.45-.48-.55-.21-.19-.43-.39-.51-.67-.14-.47.24-1.45.47-1.77.14-.19.28-.38.52-.46.18-.06.45-.08.4.14.07-.08.19 0 .19 0" fill="#1d1d1b" fill-rule="evenodd"/></svg>