<svg viewBox="0 0 86.18 26.79" xmlns="http://www.w3.org/2000/svg"><path d="m14.73 26.26c-.6-.19-1.25-1.62-1.25-2.43 0-.86.08-1.77.28-2.59.05-.19.27-1.09.14-1.06-.09.01-.35.15-.48.22-.11.06-.28.13-.44.2-.28.12-1 .42-1.01.42-.63.22-1.62.57-2.02.64-.04 0-.31.08-.44.12l-.16.04-.2.04-.16.04-.16.04c-.62.15-1.33.24-2.02.32-1.44.17-2.3.06-3.75-.2-.6-.11-1.23-.5-1.77-.83-.78-.48-1.21-1.4-1.28-2.56-.06-.86.33-2.05.61-2.69.16-.38.32-.74.03-.97-.22-.17-.48-.57-.55-.87-.23-.92.08-4.7.75-5.58.36-.48-.05 1.64-.06 1.69-.16.7-.37 1.68-.32 2.31.04.44.27.9.49 1.2.11.14.45.25.61.1.1-.1.18-.25.23-.39.06-.17.13-.34.28-.29.22.06-.04 1.16-.14 1.34-.05.1-.14.28-.35.54l-.21.17c-.2.25-.4.57-.46.94-.12.69-.23 1.29-.12 1.89.09.47.28 1.03.66 1.29 2.42 1.67 4.92 1.63 8.2.81 1.54-.38 5.1-1.54 5.69-2.47.19-.3-.8-1.59-1.06-1.94-.1-.1-.19-.2-.21-.35-.04-.32.07-1.23.28-1.38.18-.13.86.71.96.85.15.2.28.39.4.63q.06.14.18.5l.04.24.04.14c.15.34-.15 1.94-.3 2.37-.05.14-.33.39-.6.63-.03.02-.29.45-.47.75-.69 1.14-.99 4.51.28 5.06.82.35 1.71-.04 2.47-.37.12-.05 1.03-.97 1.39-1.34l.07-.13s.32-.37.48-.55l.2-.23.2-.24.1-.14c.41-.45.96-1.07 1.22-1.32.17-.17.6-.59.6-.59.24-.19.62-.49.77-.64.35-.35.93-.69 1.36-.93 0 0 .61-.33.87-.46.24-.13.82-.45.82-.45.2-.14-.49-.69-.58-.77l-.23-.16q-.19-.15-.29-.23l-.23-.19-.15-.1c-.46-.42-.95-.98-1.08-1.72-.08-.47.17-1 .34-1.36.21-.43.64-.69 1.05-.92.53-.3 1.22-.43 1.98-.5 2.85-.26 6.9.13 9.87 1.05.11.04-.16.81-.21.94-.11.29-.25.7-.43.82-.06.04-1.05.58-1.45.8l-.14.06-.24.12c-.15.07-.32.17-.46.24-.24.12-.68.37-.77.5-.24.38-.28.85-.26 1.47.01.57.33 1.11.59 1.46.9 1.23 3.69 1.55 5.36.88l.2-.04.16-.04q.16-.04.32-.1t.44-.14l.24-.08c.58-.19 1.15-.42 1.72-.66.18-.08.39-.16.59-.24.28-.11.54-.23.8-.36l.32-.16.2-.08q.18-.07.28-.12c.14-.07.57-.28.54-.37-.01-.05-1.15-.27-1.3-.29-.09-.01-.37-.05-.52-.08q-.33-.06-.49-.08-.3-.04-.57-.08c-.72-.11-1.61-.24-2.18-.28-.38-.02-1.03 0-1.41.04-.29.04-.74.09-.78.07-.21-.1.27-1.15.34-1.22.42-.42 1.01-.58 1.78-.66 1.02-.11 2.95-.33 3.19-.5.04-.04-.04-.79-.06-1.04-.04-.37-.09-.73-.16-1.08-.09-.46-.19-.94-.28-1.4l-.61-3.41c-.21-1.07-.41-2.21-.56-3.29-.08-.58-.17-1.14-.28-1.69-.05-.25-.11-.53-.16-.68-.07-.21-.2-.56-.08-.76l.08-.24.04-.16.06-.2c.08-.2.21-.55.36-.57.06 0 .23.32.26.41.09.24.19.46.3.68q.11.2.16.32l.08.16.08.2c.09.18.21.39.32.56.1.15.19.32.26.48.09.2.25.53.26.56.04.08.68 1.35.32 1.34-.24 0-.39-.21-.53-.41-.13-.19-.3-.42-.47-.47-.11-.03.03.93.05 1.06.02.16.1.51.16.76.1.45.17.9.24 1.36.11.71.34 1.73.52 2.57.23 1.04.36 1.96.44 3.19.02.33.03.77 0 1.1-.03.34-.06.7-.12 1.04 0 .04-.12.74.02.66l.12.04.24.04.2.04.16.04c.41.08.88.15 1.29.2.65.08 3.53.44 3.53.06.01-.6-.49-3.43-.76-4.94-.26-1.44-.5-2.93-.73-4.5-.07-.47-.17-1.18-.2-1.4-.07-.44-.2-1.37-.2-1.45-.05-.47-.13-.95-.2-1.4-.02-.14-.17-1.03-.04-1.28l.04-.2c.05-.19.18-.6.32-.68.09-.05.52.74.58.86l.14.26c.14.28.14.28.14.28l.06.12.12.24.06.14c.37.69.98 1.87.94 2.66-.01.22-.55-.4-.55-.4-.12-.14-.42-.48-.52-.44-.07.03.16 1.5.2 1.7l.04.2.04.2v.2s.08.2.08.2l.08.48.49 2.89c.03.24.08.48.12.72.04.21.12.66.12.68.04.28.07.5.12.76.04.23.08.47.12.72l.04.28.04.2.04.24c.04.24.08.53.12.8l.04.28.04.32.04.28c.05.36.17 1.12.19 1.15.05.11 1.2.11 1.42.11.47 0 1.04 0 1.2.07.2.09-.39 1.09-.46 1.19-.1.15-.19.3-.36.34q-.11.03-.4 0s-1.19-.11-1.22.05q-.03.14 0 .64v.44l-.04.64c-.02.39-.04.81-.12 1.27-.07.38-.3 1.17-.59 1.26-.13.05-.11-.62-.1-.72 0 0 0-.6 0-.77 0-.52-.11-2.34-.28-2.68-.12-.24-2.76.56-2.88.62-2.31 1.01-5.87 2.54-7.1 2.95-.81.27-2.05.44-2.91.44-.69 0-1.4-.18-2.02-.38-.26-.09-.69-.41-1.08-.75l-.13-.1c-.31-.2-.64-1.06-.71-1.52-.08-.5-.11-.99-.04-1.49.04-.29.07-.55.12-.76.05-.23.1-.44.1-.56 0-.05-1.21.48-1.21.48-.14.06-.32.14-.45.2-.18.09-.43.21-.56.26-.64.22-1.43.62-1.95 1.01-.05.04-.05.33-.05.41 0 .12-.01.42-.1.48-.17.11-.3-.08-.36-.18-.14-.21-.21-.31-.52-.28-.2.02-.97.4-1.13.5-.18.11-.4.21-.61.3q-.14.06-.28.14l-.32.16c-.06.03-.7.41-1.06.63-.97.58-1.92 1.61-2.62 2.49-.73.91-2.17 2.62-2.48 2.83-.86.57-2.46 1.13-3.34.15m-10.71-.44s.5-.24.68-.32l.16-.08.32-.14.12-.04s.03-.01.32-.14l.2-.08q.26-.1.4-.16c.1-.04.36-.15.52-.22l.16-.06.2-.08.16-.06c.18-.07.35-.14.52-.22q.23-.1.28-.12c.15-.06.57-.22.57-.22.16-.07.33-.14.48-.2.18-.07.54-.22.55-.22.32-.16 1.66-.78 1.85-.67.16.09-.04.84-.19.92-.02.01-.31.09-.47.13-.04.01-.41.15-.6.22-.35.13-.7.27-1.01.42-.03.01-.38.16-.53.22l-.32.12q-.16.06-.3.12c-.11.05-.77.32-1.11.46l-.12.04-.24.08c-.25.09-.49.18-.71.3-.13.07-.34.18-.34.18l-.16.06-.16.06-.16.04-.16.06c-.14.06-.4.19-.44.2l-.16.06-.16.06-.14.08-.14.08c-.15.05-.2-.03-.18-.16.03-.23.11-.67.3-.72m20.81-4.23c.09-.07-.13.58-.17.7-.05.15-.28.88-.2.96l.04.4c.01.08.06.21.08.28.06.17.18.42.3.52.15.13.42.04.52-.09 0 0 .12-.27.13-.29.05-.13.1-.27.18-.21.24.19-.43 1.42-.48 1.43l-.12.08c-.11.07-.27.1-.42.04-1.3-.49-.21-3.05.15-3.83m17.16 3.34c-.05-.39.23-.94.44-1.36.11-.23.25-.45.41-.63.2-.24.43-.51.45-.59.05-.19-.87.06-.95.09-.13.06-.45.21-.47.07-.04-.35.46-.85.69-.99.21-.12.47-.21.79-.22.06 0 1.13-.04 1.07.18-.11.43-.21.69-.48.99-.12.14-.28.27-.43.38-.13.09-.25.23-.36.36-.94 1.06-.64 1.38.97.99.42-.11.79-.33 1.11-.54.37-.24 1.02-.67 1.17-.7.46-.09-1.46 1.71-1.71 1.84-.95.51-1.79.56-2.7.14m21.79-.26c-.83-.21-1.66-1.44-1.88-2.31-.06-.25-.1-.55-.12-.8-.02-.22.02-.79.04-1.04.02-.37.05-.71.03-.86 0-.07-.6.31-.64.33-.26.17-.72.47-.76.49-.15.12-.92.61-1.36.87-.5.31-1.02.61-1.55.88-.51.25-1.13.56-1.55.8-.53.3-6.39 1.71-6.97 1.6-.49-.1 2.54-1.24 2.7-1.3.49-.18 1.32-.48 1.66-.66l.18-.08.16-.08q.15-.08.3-.14c.07-.03.09-.04.28-.14.15-.08.44-.23.47-.24 1.83-.81 3.65-1.94 5.28-3.02 1.1-.73 3.96-2.77 4.22-3.4.15-.37-.76-1.96-1.13-2.61-.25-.43-1.37-2.79-1.31-3.09.04-.2.28-1.38.38-1.35.15.05 2.06 2.12 2.06 2.35l-.2-.02-.16-.04c-.07-.01-.48-.07-.5.03-.01.09.38.82.58 1.19q.08.16.16.28c.09.14.22.35.24.4.11.22.36.71.38.76.33.77.28 3.12-.48 3.84q-.16.21-.17.23c-.18.2-.37.38-.57.56-.43.38-.86.75-1.08 1.12-.73 1.22.48 3.7 1.55 3.82l.2.08.16.06c.12.04.26.06.4.08.21.03.36.05.46.04.26-.03.34-.04.36-.04.66.06 1.71-.35 2.22-.58 2.24-1.06 3.98-2.89 5.49-4.7.03-.03-.06-.37-.13-.61 0-.01-1.32.23-1.59.27-.49.09-1.07.18-1.57.08-1.56-.31-2.06-2-1.13-3.39.21-.31.75-1.01 1.13-1.1 1.02-.25 1.51 0 2.2.55.28.23.49.45.71.72.23.28.63.78.71.77.33-.04 1.45-.79 1.75-1.04.42-.34 1.21-.98 1.52-1.01.24-.03.24.43.23.58-.02.24-.05.74.01.88.2.45.5.7.89.96.17.11 1.25.47 1.43.26h.18c.07 0 .29-.06.36-.08.19-.05.41-.18.62-.3.36-.2.64-.43.88-.75.23-.31.44-.7.62-1.05l.06-.14.08-.18q.06-.14.16-.28c.05-.08.12-.18.17-.23.04-.04.15-.16.15-.17 0-.03.24-.03.23.17 0 .1-.08.32-.13.43q-.02.06-.14.28c-.09.17-.15.32-.18.52-.1.77 2.07 1.31 2.8.96.17-.08-.04-.56-.11-.7l-.17-.25c-.09-.11-.16-.22-.17-.29-.05-.33.21-1.12.33-1.46.09-.24.37.24.38.25.08.14.16.3.22.44.16.35.27.76.32 1.21.13 1.13-.37 2.52-1.43 2.67-.7.1-1.44-.1-1.89-.43-.1-.07-.34-.31-.5-.46-.15-.14-.43-.42-.47-.4-.02 0-.31.47-.41.63-.15.25-.36.44-.6.61-.51.36-1.09.64-1.88.7-.68.05-1.47-.31-1.85-.74-.16-.19-.32-.4-.42-.65-.06-.18-.13-.36-.16-.56 0-.05-.08-.55-.18-.46-.15.14-.82.61-1.17.86-.3.21-1.07.75-1.11.96l-.04.3-.04.62c-.04.41-.09.74-.22 1.04-.19.42-.46.79-.74 1.14-.03.04-.3.35-.44.5-.12.13-.42.49-.42.5-.13.31-2.63 2.32-3.08 2.56-1.34.71-3.71 1.97-5.33.98m-35.85-1.37c-.08-.27.35-1.17.55-1.39.23-.26 1.77 1.05 1.82 1.26.08.33-.52 1.55-1.1 1.12-.43-.32-.86-.65-1.27-.98m51.51-2.8c.4-.08.62-.13.95.06.31.18.54.31.95.2.28-.07.49-.25.65-.43.09-.1.17-.2.23-.33.08-.15.16-.3.26-.37l.04.33.07.19.23.15c.2.08.42.12.59.02.11-.07.18-.37.24-.64.05-.22.18-.64.4-.61.17.02-.05.81-.08.9-.09.27-.18.53-.3.76-.3.56-.75.76-1.39.44q-.26-.13-.48.05c-.19.17-.36.31-.63.41-.3.11-.59.13-.87-.02-.29-.15-.6-.32-.79-.3-.28.03-1.52.81-2.44 1.38-.49.31-2.19 1.34-2.72 1.12-.05-.02 1.06-.71 1.14-.75.17-.1.66-.41.66-.41.22-.16.44-.32.67-.47.38-.25.84-.56 1.14-.81.43-.36.91-.62 1.46-.86m-63.85-19.48c.15-.08 1.44 2.4 1.55 2.62.22.46.63 1.37.63 1.61 0 .4-.45-.04-.54-.13-.21-.21-.48-.48-.52-.49-.1-.02.19 1.59.21 1.7.09.49.18.99.28 1.45.09.39.26 1.18.28 1.28.1.53.24 1.19.32 1.57.48 2.14.86 4.13 1.13 6.43.09.78.05 3.43-.35 3.93-.16.2-.25-.24-.25-.33 0-.34 0-.62-.04-.98-.05-.47-.13-1.12-.18-1.53-.13-.94-.29-1.85-.46-2.73l-.24-1.24-.04-.16-.04-.24-.04-.2-.04-.2s-.08-.4-.08-.4c-.04-.18-.07-.34-.08-.48l-.04-.2q-.04-.19-.08-.4c-.05-.22-.08-.41-.12-.64-.04-.2-.08-.4-.12-.6-.37-1.67-.7-3.37-.97-5.1-.13-.85-.39-2.35-.49-2.61-.21-.55 0-1.46.33-1.9m38.9 18.21c-.2-.21-.42-.91-.38-1.2.11-.84.22-1.79.4-2.29.05-.13.21-.46.32-.68.12-.23.28-.55.2-.69l-.33-.24c-.07-.06-.29-.24-.42-.35-.28-.23-.62-.51-.83-.74-.23-.25-.44-.49-.68-.67-.32-.24-.31-1.43-.12-1.82.05-.1.3.08.38.13.11.08.31.16.48.22.3.11.71.27.89.34.19.08.76.33.78.35.14.21 0 .28-.22.32-.21.04-.43.08-.41.22.01.13 1.13.85 1.34.9.18.05 1.17-1.32 1.41-1.65l.09-.13.19-.23.17-.21.16-.23c.15-.21.56-.76.69-.72.07.02-.1.59-.12.65-.05.18-.08.31-.12.52-.07.37-.24.63-.42.9-.16.23-.37.55-.49.69-.07.08-.16.22-.23.35-.01.02-.19.28-.28.42-.05.07.79.68.91.76.32.23.52.51.75.82.44.62.38 2.33-.12 2.89-.51.57-3.28 2.73-3.99 1.35m3.65-2.77c-.07-.47-1.73-1.41-2.22-1.51-.23-.05-1.09 1.56-1.17 1.87-.21.79.37 1.21 1.15 1.06.43-.08 2.27-1.11 2.24-1.42m-24.95-2.27c.1-.2-1.65-.44-1.87-.48-1.03-.14-2.08-.22-3.19-.28-.56-.03-4.15-.09-4.36.76-.07.28 2.85 2.83 3.07 2.93.35.16 6.33-2.91 6.35-2.94m-27.03 1.23c.04-.33.46-1.02.73-1.16.12-.07.57.19.73.28.3.17.63.36.85.34.04 0 .25-.44.29-.54.12-.25.24-.43.43-.61.11-.11 1.3.78 1.4.88.41.39-.1 1.49-.44 1.7-.09.06-.61-.33-.78-.45-.26-.19-.68-.5-.77-.53-.07-.02-.4.5-.46.59-.15.25-.35.56-.47.57-.21.01-1.54-.9-1.51-1.06m65.84.26c-.36-.67-2.32-1.2-2.48-.08-.03.24.61.39.87.4.15 0 1.85.02 1.62-.32m-65.4-4.94c.04-.44.78-3.07.93-2.54 0 0-.22.72-.27.86-.11.34-.21.77-.26 1.17-.04.36.27.88.48 1.06.12.11.35.04.47-.11q.04-.05.1-.22c.04-.13.08-.21.15-.21.21 0-.08 1.48-.7 1.64-.5.14-1.04-1.23-.91-1.63m5.45-.72v-1.12l.04-.2q.04-.28.08-.52c.06-.38.12-.68.2-1 .1-.39.34-1.36.57-1.45.14-.05-.07.62-.08.64-.06.16-.09.33-.12.52-.1.68-.23 1.63-.2 2.13.03.46.58 2.01 1.06 1.52.09-.09.19-.29.23-.43.07-.23.16-.58.34-.51s-.18 1.4-.26 1.6c-.25.69-.55.82-1.19.48-.33-.17-.63-1.13-.66-1.64m70.5-3.53c.13.18-.09.6-.18.76-.18.35-.27.67-.3 1.17-.03.38.21.81.37 1.1.11.2.45.03.55-.07.06-.06.12-.24.15-.31.03-.09.1-.3.17-.25.3.17-.36 1.62-.74 1.64-.6.04-.99-.85-.87-1.43.15-.74.48-2.39.85-2.61m-44.84.19c.02-.06-.38-.4-.57-.56-.18-.15-.36-.3-.43-.55-.1-.36.07-1.08.26-1.35.19-.25.48-.63.85-.68.3-.05.46.14.58.34.22.37.17 1 .12 1.49q-.05.52.26.77c.39.33.71.79.41 1.4-.01.03-.47-.33-.47-.33-.18-.14-.32-.25-.54-.23 0 0-.78.89-.9 1.04-.11.13-.76.66-1.11.94-.21.17-2.83 1.93-2.64 1.33.01-.05.73-.65.98-.85l.13-.09.32-.28.13-.09q.07-.06.32-.29.18-.15.22-.18l.13-.09.13-.09c.08-.06.32-.24.32-.24.14-.11.5-.42.5-.42s.48-.48.66-.66l.13-.08.18-.25zm31.01-.88c.14-.05-.12.72-.17.86-.16.48-.31 1.18-.14 1.75.05.18.4.75.58.78.33.05.42-.03.51-.28.06-.16.23-.66.26-.66.39.07-.31 1.63-.43 1.77-.46.54-1.1-.16-1.22-.63-.27-1.07 0-2.87.61-3.59m-36.89-1.39c.02-.1-.08-.15-.16-.2-.14-.08-.26-.15-.37-.25-.23-.2-.34-.49-.44-.83-.23-.82.03-1.67.39-2.2.18-.26.5-.54.86-.59.29-.04.68.29.79.48.2.34.34.88.34 1.28 0 .08-.08.5-.12.7-.07.36-.12.6.09.93.08.08.2.22.28.32.16.19.33.39.39.67s-.02.79-.2.98c-.01.01-.51-.48-.58-.55-.15-.15-.42-.36-.64-.41-.05-.01-.19.18-.24.26q-.11.2-.15.25c-.14.18-.28.33-.44.5-.29.31-.64.6-.98.85-.29.21-.74.57-1.1.86-.03.02-.39.26-.58.39l-.12.08q-.26.16-.38.24l-.24.16c-.71.47-2.49 1.65-2.82 1.62-.46-.05.52-.7.52-.7.22-.14.81-.57 1.25-.88l.13-.09q.13-.1.21-.15l.23-.17c.27-.22.55-.44.84-.63.72-.48 3.11-2.33 3.23-2.93m21.75 3.98c.02-.24.48-1.09.65-1.21.19-.13.52.11.71.24.16.11.71.48.72.48.26.04.42-.27.55-.52.11-.22.27-.53.46-.62.19-.1 1.39.92 1.45 1.08.2.55-.28 1.2-.62 1.48-.08.06-.61-.37-.74-.47-.19-.15-.67-.51-.74-.52-.08-.01-.34.48-.4.6-.15.27-.34.63-.41.66-.27.12-1.6-.93-1.63-1.2m-34.43-.26c.7-.41 1.44-.86 2.12-1.31.72-.47 1.53-.93 2.34-1.28.39-.17.88-.45 1.29-.68.2-.11.81-.45 1.21-.66.47-.26.91-.48 1.39-.7.21-.1.44-.21.65-.32.11-.06.67-.31.71-.3.29.1.2.81 0 .98 0 0-.26.09-.32.11-.04.01-.3.14-.46.22-.49.24-.98.48-1.47.7-.45.2-1.01.46-1.37.71-.39.27-1.02.57-1.5.79-.94.44-1.85.99-2.72 1.53-.37.22-1.1.68-1.22.78l-.18.15-.16.04-.24.16c-.48.34-.27-.75-.07-.9m62.78-4.54c.02-.12-.34-.4-.51-.52-.23-.18-.43-.37-.53-.68-.21-.7.41-1.96.95-2.17.31-.12.47 0 .68.17.32.27.37 1.52.39 2.12.01.37.14.49.42.73.25.22.36.62.18 1.02-.05.11-.49-.18-.56-.23-.11-.07-.41-.27-.46-.26-.12.02-.44.4-.6.59-.19.22-.56.54-.9.82q-.06.08-.29.29l-.25.18c-.26.21-.52.4-.79.59-.67.45-3.83 2.39-4.45 2.12-.05-.02.67-.52.74-.56.31-.21.69-.43 1.01-.61.14-.08.26-.14.39-.22l.48-.32.16-.08.14-.08.22-.16c.16-.1.48-.32.48-.32l.42-.08-.06-.12s.17-.15.22-.18c.32-.19.62-.41.92-.63.13-.1.28-.21.4-.32.11-.1.39-.35.39-.35q.17-.13.23-.19c.05-.05.15-.14.21-.18q.11-.09.19-.19s.11-.15.16-.16m-78-.38c-.03-.22.08-.93.23-1 .27-.13 1.32.74 1.51.97l.29.33.34.41c.13.17.53.66.59.65 0 0 .06-.81.06-.81.03-.44.07-.93.16-1.24.1-.36.3-1.02.66-1.07.8-.1 1.21 1.1.93 1.67-.02.05-.53-.26-.57-.28-.22-.14-.46-.29-.54-.3-.28-.06-.28 1.9-.28 2.23 0 .55-.1 1.24-.29 1.7-.08.18-.32-.38-.32-.38-.12-.27-.23-.48-.38-.7-.22-.33-.47-.64-.73-.94-.51-.55-.61-.61-1 .13-.2.38-.49.77-.82 1.04-.45.36-2 1.59-2.45 1.43-.08-.03.41-.44.43-.46l.33-.23.2-.16c.36-.28.72-.58 1.05-.88.33-.31.64-.61.9-1 .2-.3.19-.35-.01-.59 0 0-.18-.33-.29-.53m50.9-.07c-.21-.11-.61-.68-.66-.97-.13-.81.53-1.85 1.15-2.02.37-.11.57.35.63.62s.03.65 0 .96c-.03.3-.09.98 0 1.06.32.28.59.53.88.83.06.06-.04.56-.09.67-.04.08-.46-.19-.58-.27-.26-.17-.64-.41-.73-.42-.11-.02-.47.44-.61.61-.08.1-.17.21-.27.29-.04.03-.19.18-.29.29-.35.36-.79.76-1.24 1.01-.63.35-1.81.99-2.22 1.08-.32.07.16-.48.26-.54.2-.11.44-.26.65-.4 0 0 .38-.29.53-.41.13-.1.37-.27.56-.39.39-.26 2.25-1.55 2.03-2m4.58 2.07c.64-.37 1.3-.78 1.92-1.19.34-.22.69-.44 1.05-.64.38-.21.74-.44 1.1-.66.55-.33 1.29-.74 1.98-1.11.3-.16.74-.43 1.09-.64.3-.18.98-.6 1.1-.55l.03.31q.02.23.04.34c.01.06-.9.61-1.05.71l-.24.16q-.16.11-.26.16c-.19.1-.37.21-.54.32l-.14.08-.16.08-.12.08-.36.22-.14.06-.17.09c-.17.11-.35.21-.53.31s-.36.21-.52.32c-.64.43-4.15 2.51-4.15 2.51-.3.04 0-.9.1-.95m11.26-2.76c-.1-.2.03-.63.11-.88.17-.57 1.72.76 1.8.84.44.44.83.97 1.14 1.54 0 0 .2.37.25.2.03-.1.06-.71.05-.79q0-.14 0-.24c.02-.4.1-1.61.16-1.79.12-.37.89-1.71 1.43-1.28.42.33.88 1 .42 1.58-.05.05-.35-.26-.41-.31-.11-.11-.27-.26-.42-.33-.21-.1-.5.09-.57.22-.08.16-.14 1.26-.18 2.07-.04.69-.11 2.06-.39 2.62-.07.15-.25 0-.28-.11-.08-.34-.14-.52-.36-.84l-.08-.14-.17-.25q-.1-.14-.31-.43l-.09-.13c-.37-.44-.5-.57-1.04-.67-.51-.1-.85-.45-1.07-.86m-32.63 2.06c-.29-.27-1.01.22-.77.53.04.05.63.42.7.45.48.15.25-.77.07-.98m-17.2-1.98c.12-.57.35-1.68.64-1.89 0 0-.2 1.01-.24 1.2-.13.64-.04 1.14.29 1.58.1.13.43 0 .51-.08.04-.04.09-.21.13-.34.04-.12.06-.19.18-.2.08 0-.04.7-.06.8-.04.18-.12.39-.21.54-.07.12-.44.26-.58.29-.57.1-.76-1.44-.66-1.91m11.86.48c.28-.9-.54-1.85-1.28-1.13-.34.33.05.64.31.81.18.12.89.59.97.32m49.57-1.72c-.27-.2-.58-.21-.81.06-.28.31-.07.56.19.75 1.08.78 1.26-.02.62-.81m-27.61.16c-.11.37.61 1.03.82.85s.07-.86-.07-1.05c-.22-.29-.6.04-.75.2" fill="#1d1d1b" fill-rule="evenodd"/></svg>