<svg viewBox="0 0 77.44 25.53" xmlns="http://www.w3.org/2000/svg"><path d="m54.14 24.94-.24-.18a4.62 4.62 0 0 1 -.35-.37 4.31 4.31 0 0 1 -.57-.76 4.58 4.58 0 0 1 -.36-1.35 8.45 8.45 0 0 1 0-1.26 2.56 2.56 0 0 1 0-.56 1.3 1.3 0 0 0 0-.39 14.59 14.59 0 0 0 -1.31.75l-.24.16c-.11.08-.28.2-.34.23l-.14.08-.26.16a2.9 2.9 0 0 1 -.38.24l-2.86 1.57a11.08 11.08 0 0 1 -3.22 1.07c-.73.13-1.47.28-2.19.44h-.2-.16l-.2.06-.36.1a4.05 4.05 0 0 1 -1.24.15c-.29-.14 1.05-.66 1.12-.69l.16-.06h.12l.44-.18.75-.29c.9-.32 2.23-.95 3.31-1.45a47.22 47.22 0 0 0 5.98-3.41c.76-.5 3.89-2.77 3.76-3.37a7 7 0 0 0 -.74-1.55l-.24-.39c-.07-.11-.15-.24-.21-.36-.16-.28-.37-.66-.46-.85-.4-.79-1.34-2.86-.64-3.7.05-.06.5.4.63.52s.35.35.55.52a3.15 3.15 0 0 1 1.06 1.18c0 .13-.17.09-.21.08s-.66-.13-.69 0a6.33 6.33 0 0 0 .85 1.68 4.5 4.5 0 0 1 .74 1.54 6.6 6.6 0 0 1 -.08 2.38 3.69 3.69 0 0 1 -1 1.59 7 7 0 0 1 -.94.82l-.13.09-.18.21-.13.22c-.22.18-.18 1.51-.11 1.74a4.54 4.54 0 0 0 .62 1.42 2.59 2.59 0 0 0 1.31.88 3.87 3.87 0 0 0 1.87.1 6.81 6.81 0 0 0 2.29-.86l.14-.08.25-.16.29-.25c.24-.16.47-.34.69-.51l.63-.52c.11-.08.22-.17.33-.24l.34-.28a8.45 8.45 0 0 0 2.27-2.42.51.51 0 0 0 -.08-.59 5.66 5.66 0 0 0 -1.16.14 7.57 7.57 0 0 1 -2.07.16 1.93 1.93 0 0 1 -1.41-2.91 2.63 2.63 0 0 1 1.73-1.8 2.06 2.06 0 0 1 1.31.21 4.72 4.72 0 0 1 1.08.85l.44.58c.13.18.41.58.5.58a7.77 7.77 0 0 0 1.68-1l.33-.27.49-.38a3.86 3.86 0 0 1 .9-.5c.27-.07.28.5.26.69a1.9 1.9 0 0 0 .07.91 2.43 2.43 0 0 0 3.52.79 2.94 2.94 0 0 0 1.15-1.25c.17-.3.33-.6.48-.93.08-.17.35-.61.52-.67.38-.15.15.45.07.61-.14.33-.36.82-.27 1a2.55 2.55 0 0 0 2.73.87c.3-.13 0-.71-.11-.86a1.18 1.18 0 0 1 -.3-.64 4.14 4.14 0 0 1 .37-1.32c.21-.36.72 1.06.75 1.16a3.35 3.35 0 0 1 .08 2 1.86 1.86 0 0 1 -2.88 1.34 3.74 3.74 0 0 1 -1.24-1.1c-.08-.1-.42.41-.52.55a7.89 7.89 0 0 1 -.65.69 3.33 3.33 0 0 1 -1.57.68 2.71 2.71 0 0 1 -1.42-.14 4.17 4.17 0 0 1 -1-.77 2.5 2.5 0 0 1 -.3-.53 1.36 1.36 0 0 1 -.08-.28v-.16a3.74 3.74 0 0 0 -.11-.53c-.05-.08-.56.28-.62.34a6.91 6.91 0 0 1 -.62.52l-.2.15a2.35 2.35 0 0 0 -.41.33l-.25.14c-.12.09-.25.19-.26.28a7.17 7.17 0 0 1 -.37 2.18 10.52 10.52 0 0 1 -2 2.48l-.1.12c-.13.12-.29.25-.48.4l-.18.22-.24.2-.2.16a9.07 9.07 0 0 1 -1.65 1.22 4.94 4.94 0 0 0 -.54.31l-.22.12-.25.13a9.45 9.45 0 0 1 -1.2.45c-1 .33-2.81.36-3.56-.37m18.24-3.68a1.76 1.76 0 0 0 .77-.43 1.94 1.94 0 0 0 .23-.33c.07-.13.26-.49.37-.4v.14.22a.27.27 0 0 0 .16.22.86.86 0 0 0 .74.12 2.34 2.34 0 0 0 .26-.71 1.9 1.9 0 0 1 .28-.61c.32-.48-.14 1.54-.26 1.75a1.2 1.2 0 0 1 -.72.58.91.91 0 0 1 -.52-.08c-.14-.06-.5-.19-.54-.12a1.8 1.8 0 0 1 -.89.56 1.06 1.06 0 0 1 -.81-.1 1.51 1.51 0 0 0 -.86-.26 3.15 3.15 0 0 0 -1.21.58l-.6.39-.24.16-.13.09-.23.19c-.47.29-2.29 1.36-2.8 1.15-.15-.06.18-.31.2-.32a1.59 1.59 0 0 0 .57-.23l.26-.16.54-.32c.51-.32 1.1-.74 1.62-1.12a15.65 15.65 0 0 1 1.64-1.1 1.72 1.72 0 0 1 1.18-.22l.37.22c.14.08.49.27.66.14m-34.48-21.31a14 14 0 0 1 1.18 2.34l.16.31a2.38 2.38 0 0 1 .16.32l.14.28.06.15.08.18c.11.25.54 1.21.34 1.38s-.49-.28-.55-.35a6.17 6.17 0 0 0 -.46-.51 5.27 5.27 0 0 0 .09 1.21c.09.6.19 1.27.28 1.82 0 0 .14 1.06.2 1.58s.19 1.21.28 1.78c.33 1.92 1 7.33 1 7.65v.59.87.2a12.83 12.83 0 0 1 0 1.35 9.25 9.25 0 0 1 -.34 1.38c-.16.55-.3-1.15-.3-1.15a16.44 16.44 0 0 0 -.08-1.82c-.09-.91-.23-2-.36-2.89-.29-2-.74-5.07-.88-6-.29-1.88-.69-4.42-.88-6.14a9.46 9.46 0 0 0 -.56-2.75 3.85 3.85 0 0 1 .44-1.78m-32.53 21.12a8.06 8.06 0 0 1 -.3-1.69c0-.07.51-2.94.49-3a4.2 4.2 0 0 0 -.63.05 1 1 0 0 1 -.79-.13 1.22 1.22 0 0 1 -.58-.68 5.65 5.65 0 0 1 .34-2.73c0-.06.33-.83.49-1.19s-.22-.53-.49-.75a4.13 4.13 0 0 1 -.6-.53c-.1-.07-.31-.25-.31-.25a3 3 0 0 0 -.32-.37 3.94 3.94 0 0 1 -.77-.55 4.35 4.35 0 0 1 .08-1c0-.18.12-.85.44-.67a2.2 2.2 0 0 0 .26.15l.22.09.13.13.38.2.12.06.28.12c.21.09.61.25.62.41s0 .11-.22.14-.37 0-.4.12 1.19.93 1.39 1 .92-1.27 1.08-1.55l.48-.77a4.36 4.36 0 0 0 .23-.42 2.13 2.13 0 0 1 .34-.51c.3-.21-.25 1.42-.31 1.62a5.4 5.4 0 0 1 -.42.83 4.54 4.54 0 0 0 -.54 1.15c0 .1.31.31.44.4a3.5 3.5 0 0 1 .43.33 3 3 0 0 1 .75.88c.25.86.65 2.18.13 2.92a5.37 5.37 0 0 1 -.78.63l-.84.64-.28 1c-.1.36-.22.79-.32 1.17a2 2 0 0 0 1.14 2.14 4.86 4.86 0 0 0 3.48-1c1.39-1 3.91-2.84 4.13-3.65a5.53 5.53 0 0 0 -.28-2.69v-.18c0-.22 0-.22 0-.26-.07-.21-.15-.48-.31-1a1.86 1.86 0 0 0 -.1-.35.93.93 0 0 1 -.1-.32 9.52 9.52 0 0 0 -.34-1c-.12-.32-.28-.74-.34-.95-.17-.59-.59-2.05 0-2.56a8.53 8.53 0 0 1 .74 1.33c.2.44.48 1.09.58 1.39s.36 1.08.44 1.34l.08.28c0 .12.09.27.12.4v.19.16.16a2.33 2.33 0 0 0 .08.36s.15.68.2 1v.16.19.2a3.68 3.68 0 0 0 .08.44l.08.35.12.91a5.84 5.84 0 0 0 .2.8 8.2 8.2 0 0 0 1.48 2.54 2.09 2.09 0 0 0 1.13.52 2.06 2.06 0 0 0 1.75-.61c.15-.29-.4-1.05-.57-1.28a3.83 3.83 0 0 0 -.36-.44 1.28 1.28 0 0 1 -.33-.42 3.07 3.07 0 0 1 .36-1.52c.12-.27.86.76.93.87a9.9 9.9 0 0 1 .69 1.52 4.94 4.94 0 0 1 .09 2 2.07 2.07 0 0 1 -.63 1.1l-.25.17a1.44 1.44 0 0 1 -.77.25 3.35 3.35 0 0 1 -1.63-.11l-.66-.4c-.1-.12-.48-.54-.51-.56a8.41 8.41 0 0 1 -.93-1.67c-.09-.28-.16-.48-.24-.76a3.65 3.65 0 0 0 -.36-1 6.61 6.61 0 0 0 -.23.91 1.44 1.44 0 0 1 -.4.74l-.25.34c-.08.09-.19.21-.34.35l-.32.27-.1.12-.24.2a16.63 16.63 0 0 1 -1.36 1.09l-.84.54-.24.16-.24.16-.2.12-.28.16a4.78 4.78 0 0 1 -2.56.69c-.58 0-1.71-.55-1.8-1.14m17.45-2.42-.12-.27-.06-.24-.06-.19v-.16-.19l-.08-.28a18.92 18.92 0 0 1 -.36-1.9c-.09-.54-.21-1.67-.28-2.38-.06-.55-.1-.94-.13-1.4s-.07-1.31-.08-1.35c-.17-1.55-.41-3.5-.6-4.85-.08-.59-.19-1.22-.32-1.78-.05-.22-.1-.45-.16-.67a8.94 8.94 0 0 1 -.32-1.04s.11-.47.16-.68c0 0 .25-.52.25-.52.22-.76 1 2.84 1 2.94v.35.24.32.31.28.44s.08.61.12.87.15 1.08.16 1.23c0 .44.09 1 .16 1.58 0 .39.1.78.12 1.15s.08 1.13.12 1.58c.1 1 .19 2.09.36 3.17a6.15 6.15 0 0 0 1.06 2.87 5.09 5.09 0 0 0 1.25 1.05 4.89 4.89 0 0 0 1.95.57 9.71 9.71 0 0 0 2.93-.28 13.65 13.65 0 0 0 4.47-1.87 4.93 4.93 0 0 0 -.19-1.12s-.2-1-.28-1.47c-.2-1-.34-1.9-.48-3l-.24-1.54v-.28c0-.26-.06-.41-.08-.59s-.2-.8-.2-1.2c-.16-1.25-.34-2.61-.48-3.76-.06-.6-.13-1.18-.24-1.74a6.4 6.4 0 0 0 -.13-.64c-.23-.53-.23-.53-.22-.63.05-.76.31-2.1.89-.95.28.56.81 1.58.92 1.78.3.52 1.05 1.86.85 2.4-.08.21-.5-.31-.55-.37a3.32 3.32 0 0 0 -.57-.62 35 35 0 0 0 .37 3.54s.22 1.53.28 2l.24 1.47c.1.56.2 1.22.26 1.7a12 12 0 0 0 .3 1.7l.12.59c.06.31.1.47.16.76a4.62 4.62 0 0 0 .39 1.25 2.94 2.94 0 0 0 .63-.09 3.45 3.45 0 0 1 1.39 0 1.9 1.9 0 0 1 1.12.53 4 4 0 0 1 .5 1.59c.11.66-.34 2.16-1 2.3a2.6 2.6 0 0 1 -1.33-.21 4 4 0 0 1 -1.1-.85 4.39 4.39 0 0 0 -.93-.95 5.08 5.08 0 0 0 -.76.34l-.7.37c-.5.25-1 .49-1.55.7a15.35 15.35 0 0 1 -4.2.89 5 5 0 0 1 -4.73-2.79m-22.76.91a7.4 7.4 0 0 1 .92-.5l.24-.12.28-.14.32-.14.25-.07a8.38 8.38 0 0 1 2.39-1.15c.19 0 .11.51 0 .65a11.69 11.69 0 0 1 -2.57 1.41l-.28.11-.16.06-.28.12-.19.15-.43.22c-.14.07-.6.3-.63.25a1.12 1.12 0 0 1 .14-.8m36.43-1c.22.38 1.21 1 1.67.66.24-.17-.34-.6-.46-.66s-1.65-.57-1.21 0m12.23-1.83a4.22 4.22 0 0 0 -2.42-1.51 11.89 11.89 0 0 0 -1.08 2 1.09 1.09 0 0 0 .31.8 1.25 1.25 0 0 0 .91.13 4.92 4.92 0 0 0 2.28-1.45m-19.22-1a5.27 5.27 0 0 1 .75-2.11c.19-.21.1.4.06.48s-.26.53-.29.64a1.94 1.94 0 0 0 .22 1.73c.11.17.4 0 .49 0a1.71 1.71 0 0 0 .08-.23c0-.14.08-.2.18-.2.26 0 0 1.48-.71 1.61s-.93-1.35-.78-1.88m33.39.34c.06-.2-.57-.65-.73-.75-.58-.31-2-.07-1.75.65.15.45 2 .17 2.48.1m-52.78-2.07a5.16 5.16 0 0 1 .16-1.86c0-.2.27-1 .43-1s0 .17 0 .21-.11.35-.12.39a4.35 4.35 0 0 0 0 1.43c0 .29.34.88.62.93a.31.31 0 0 0 .34-.22 3.48 3.48 0 0 1 .24-.55c.38-.13-.2 1.55-.66 1.8s-.87-.88-.94-1.17m-2.83-.41c.14-.47-1.32-1.39-1.68-1.6-.2-.12-.48-.27-.64-.06a1.29 1.29 0 0 0 -.16.28c-.1.19-.11.21-.16.29a3.35 3.35 0 0 0 -.6 1.42c0 .34.27.62.47.78.52.45 2.53-.83 2.7-1m17.51-.26a33.3 33.3 0 0 1 4.25-2.17l.16-.07.3-.11.37-.18.14-.06.14-.08.12-.06.24-.12.16-.06.18-.08.24-.12.14-.08.31-.16.54-.23c.59-.14.4.69.12.88l-.35.16-.49.22-.13.08-.32.16-.36.16-.36.16-2.3 1.02c-.73.34-1.82.84-2.18 1.05l-.16.08-.28.16-.28.16-.24.19c-.37.21 0-.87.09-1m-8.27-2.3c.08-.56 1.09-2 1.57-2.12 1-.19.86.73.64 1.32 0 .07-.35-.25-.35-.25a1 1 0 0 0 -.33-.24c-.3-.11-.91.56-.93.77s1.08.68 1.41.73c0 0 .75-.15 1.47-.31.22-.05.69-.16.7.07s-.21.61-.34.64a7.17 7.17 0 0 0 -.91.24l-.16.05a2.23 2.23 0 0 1 -.4.14l-.24.08a5.2 5.2 0 0 0 -.79.32c-.27.13-.78.39-.83.39s.11-.58.15-.63a2.29 2.29 0 0 0 .25-.4l-.25-.17-.34-.13c-.17-.11-.4-.26-.4-.47m56.4-.9a3.6 3.6 0 0 1 -.14-1.57 6.62 6.62 0 0 1 .8-2.07c.24-.33-.12.75-.13.76a6.75 6.75 0 0 0 -.32 1.11c-.09.43.27 1.34.62 1.33a.6.6 0 0 0 .42-.34c0-.13.17-.45.26-.43s-.09.77-.12.87a1.86 1.86 0 0 1 -.29.58.61.61 0 0 1 -1.1-.24m-13.88-.37a2.62 2.62 0 0 1 -.3-1.31v-.39-.28a2.1 2.1 0 0 1 .18-.35 6.41 6.41 0 0 1 .21-.7c0-.06.51-1.3.54-.89 0 0-.21.61-.3.83a4.21 4.21 0 0 0 -.24 1.21v.18.24a2.33 2.33 0 0 1 .1.27 1.56 1.56 0 0 0 .34.56.59.59 0 0 0 .53.11c.1 0 .2-.32.23-.43s.18-.64.28-.47c.21.35-.27 2.9-1.61 1.42m-14.87-1.17c-.2-.29.48-1.51.92-1.43 0 0 .48.3.61.4s.61.43.84.29l.16-.26.08-.17.08-.14c.12-.23.26-.47.49-.54s1.36 1 1.5 1.25-.7 1.4-.8 1.41a6.68 6.68 0 0 1 -.74-.52c-.18-.14-.64-.51-.76-.45a3.61 3.61 0 0 0 -.37.66c-.09.21-.23.55-.4.6s-.59-.27-.83-.44-.79-.55-.78-.63m-19.38-3.74c.22-.15.87.27 1.08.41a5 5 0 0 1 .4.4l.2.2.09.13a1.12 1.12 0 0 0 .19.22 4.11 4.11 0 0 1 .4.55c.08.11.36.52.42.49a9.91 9.91 0 0 0 0-1 7 7 0 0 1 .08-1.16c.06-.34.37-1.13.64-1.23.82-.32 1.62 1.22 1.08 1.89-.06.08-.33-.25-.43-.38a1.25 1.25 0 0 0 -.69-.5c-.14 0-.28.28-.28.39v.86 1.58c0 .28-.19 1.8-.43 1.61v-.18l-.05-.12-.14-.36a6.1 6.1 0 0 0 -.39-.71 11.67 11.67 0 0 0 -.89-1.09c-.2-.23-.23-.27-.55-.27a1.35 1.35 0 0 1 -.56-.3c-.56-.45-.47-.69-.21-1.4m48.21-1.38c0-.07-.37-.37-.52-.49a1.18 1.18 0 0 1 -.48-.65 2.88 2.88 0 0 1 .32-1.59 1.19 1.19 0 0 1 .76-.69.69.69 0 0 1 .61.23 2.48 2.48 0 0 1 .31.94v1.13a2.2 2.2 0 0 0 0 .54l.22.18.31.28a1 1 0 0 1 .06.9c0 .1-.5-.19-.55-.22a.71.71 0 0 0 -.74-.14l-.17.23a2.85 2.85 0 0 1 -.42.43l-.71.71a13 13 0 0 1 -1.66 1.27c-.63.4-3.59 2.12-4.16 1.88a6.21 6.21 0 0 1 .74-.59l.13-.07.14-.08.16-.08.54-.32 1.89-1.19c.57-.34 3.28-2.26 3.22-2.61m-27.56-.17a4.38 4.38 0 0 0 -.38-.58 1.67 1.67 0 0 1 -.34-.79 2.06 2.06 0 0 1 1.28-1.94c.19 0 .45.25.48.42a6.71 6.71 0 0 1 .12.87l-.08.87c0 .14-.06.57.08.57a3.82 3.82 0 0 1 .82.75 1.08 1.08 0 0 1 0 .81c0 .11-.47-.2-.58-.28a3.64 3.64 0 0 0 -.84-.44c-.1 0-.5.44-.61.58s-.35.36-.54.56a6.11 6.11 0 0 1 -1.26 1c-.17.1-.41.22-.54.28l-.26.16-.43.24a5.77 5.77 0 0 1 -1.29.53c-.34-.11.3-.53.37-.57a4.18 4.18 0 0 0 .68-.4l.55-.4.52-.39a7.46 7.46 0 0 0 2.21-1.9m-35.86 2.14a47.18 47.18 0 0 1 4.08-2.5l.28-.16.49-.27c.37-.19.74-.4 1.1-.6s.76-.43 1.15-.63c.12-.07 1.12-.6 1.16-.44s-.15.89-.28.89l-.66.3-.26.16-.28.15-.15.08-.46.24c-.16.1-.34.19-.5.28-.79.42-1.8 1-2.35 1.27l-2.18 1.27-1 .63c-.08 0-.4.25-.42.16a1.22 1.22 0 0 1 .26-.83m40.55-.21.66-.44.27-.14.52-.32a1.13 1.13 0 0 0 .26-.16l.38-.23c.77-.48 1.62-1 2.44-1.43l1.2-.64 1.2-.71 1.07-.67c.87-.53.33.52.18.8 0 .05-3.9 2.36-4.51 2.69-.19.09-.52.28-.58.31a5.52 5.52 0 0 1 -.54.32l-.26.16-.25.16-.26.15-.34.22a8.31 8.31 0 0 0 -1.19.71c-.09.07-.34.26-.41.2s0-.9.18-1m11.47-2.74a1.47 1.47 0 0 1 .16-1c.46-.26 1.59.75 1.86 1a10.29 10.29 0 0 1 .66.82c.15.21.61.86.68.83a8.74 8.74 0 0 0 .08-1.18 5.24 5.24 0 0 1 .18-1.75 3 3 0 0 1 .75-1.12.82.82 0 0 1 .73-.1c.6.27.6 1.07.38 1.63 0 .11-.46-.29-.47-.3a1.34 1.34 0 0 0 -.57-.37c-.22 0-.43.28-.55.46v.16 1.32.33a4.85 4.85 0 0 0 0 .72c0 .05-.11 1-.16 1.42s-.29 1-.51.24a5.59 5.59 0 0 0 -.54-.93 5.84 5.84 0 0 0 -1-1.26h-.49l-.37-.17c-.22-.12-.73-.42-.72-.71m-59.02-.11c.15-.2.6.14.74.24a3.3 3.3 0 0 0 .81.49c.11 0 .38-.45.47-.62a1.67 1.67 0 0 1 .46-.55c.25-.11 1.55 1 1.63 1.22a8.5 8.5 0 0 1 -.68 1.4c-.05.1-.69-.41-.8-.5s-.76-.58-.89-.54a2.1 2.1 0 0 0 -.37.6c-.12.26-.25.57-.42.65s-.51-.21-.65-.31-.57-.41-.63-.44c-.39-.21-.43-.36-.19-.77.07-.13.12-.22.18-.36a1.23 1.23 0 0 1 .12-.26l.13-.1zm23 .89c-.21-.72-.1-2.76.44-3.3.32-.33 0 .53 0 .6a3.84 3.84 0 0 0 -.08 1.43c.05.3.15.64.44.69a.25.25 0 0 0 .32-.16c.06-.09.24-.39.25-.39.2.1-.22 1.18-.29 1.3-.27.51-.82.22-1-.17m47.71-2c-.15-.43-1.07 0-1 .46.06.24.62.55.86.67.78.39.31-.92.11-1.13m-27.4-.11c-.18-.36-.73.21-.77.37s.46.6.6.69c.58.37.35-.85.17-1.06m-2.76 9.6a.28.28 0 0 1 0-.13c0-.13.49.24.6.33h.14l.32.12.32.12.52.2.69.3c.18.1 0 .29-.13.31a2.08 2.08 0 0 0 -.52.14c-.13.1.53.56.58.59s.74.51 1 .45l.24-.34.32-.49c.1-.11.43-.55.63-.84 0 0 .49-.6.69-.85a4.75 4.75 0 0 1 .68-.74s-.17.87-.19 1a2.81 2.81 0 0 1 -.47 1.12c-.29.43-1 1.39-1 1.45s.65.63.77.72a3.08 3.08 0 0 1 .8.81 2.42 2.42 0 0 1 .42 1.19 4.52 4.52 0 0 1 -.38 1.78 5.18 5.18 0 0 1 -3.1 1.9 1.15 1.15 0 0 1 -.9-.26 2.2 2.2 0 0 1 -.47-.87 5.71 5.71 0 0 1 .15-2.25 6.9 6.9 0 0 1 .34-.91l.24-.52a1.61 1.61 0 0 0 .21-.44s-.49-.43-.64-.56a5.17 5.17 0 0 1 -.62-.56l-.07-.13-.25-.18a4.12 4.12 0 0 1 -.3-.32 1.56 1.56 0 0 0 -.32-.31c-.14-.1-.33-.25-.34-.35zm-25.38 13.14a7.45 7.45 0 0 1 -1.49.57c-.07 0 .09-.77.33-.84l.32-.14.48-.2a.9.9 0 0 0 .25-.1l.38-.14.36-.14.48-.17.16-.06a1.9 1.9 0 0 1 .28-.1l.71-.24.16-.06.2-.08.16-.06.28-.1.18-.08.3-.12.79-.31a6.08 6.08 0 0 1 .92-.34c.2 0 0 .58 0 .67a8.56 8.56 0 0 1 -2.43 1.07l-1 .36-.66.22z" fill="#221e1f" fill-rule="evenodd"/></svg>