<svg viewBox="0 0 63.99 25.12" xmlns="http://www.w3.org/2000/svg"><path d="m41.68 24.78c-.68-.23-1.3-.98-1.53-1.47-.21-.45-.38-1-.42-1.61-.02-.32-.02-.61 0-.84.03-.3.08-.93.07-1.02-.02-.19-1.39.81-1.42.82-.42.31-.85.61-1.32.88-.25.15-.4.23-.54.36 0 0-.62.37-.75.44-.59.34-1.22.69-1.83.96-.71.32-6.37 1.84-6.85 1.66-.37-.14 2.83-1.38 2.93-1.42 1.07-.42 2.02-.89 2.99-1.41 1.22-.65 3.79-2.28 5.84-3.58.66-.42 3.64-2.72 3.3-3.25-.11-.16-.87-1.59-1.31-2.41-.4-.75-1.1-2.08-1.23-2.79-.03-.15.22-1.4.36-1.37.09.02 2.05 2.02 2.09 2.11.07.19-.1.17-.24.14-.15-.03-.55-.11-.6-.06-.15.13.8 1.62.8 1.62.32.48.7 1.04.79 1.71.08.64.19 1.53-.08 2.21-.26.65-.58 1.11-1.18 1.74-.12.12-.28.26-.4.36-.27.21-.68.54-.7.67-.1.52-.24 1.31-.18 1.69.1.61.34 1.03.63 1.44.29.4.71.65 1.2.85.59.24 1.13.19 1.78.14.93-.08 1.73-.49 2.38-.86 1.18-.67 5.74-4.19 4.82-5.11-.02-.02-.89.15-1.3.23-.49.1-1.58.29-1.82.16l-.16-.04-.16-.04-.32-.1c-.19-.07-.43-.2-.53-.35-.91-1.31-.06-3.91 1.54-4.08.56-.06 1 .16 1.37.34.34.17.75.54.98.83.18.23.79.98.87.94.5-.28 1.19-.67 1.61-.96.11-.07.22-.16.32-.25.15-.14.31-.27.48-.4.22-.16.69-.51.89-.43.17.06.15.52.14.68-.03.4-.05.67.14.94.25.36.6.76 1.09.88s1.27.2 1.78 0c.53-.21 1.01-.54 1.35-.96.04-.05.33-.57.47-.83.08-.15.22-.42.24-.46.08-.18.18-.36.28-.52.15-.22.63-.58.46-.06-.07.21-.14.42-.22.58-.1.19-.26.49-.12.7.16.24.62.5 1.09.76.26.15 1.64.24 1.71-.08.05-.25-.08-.5-.18-.66-.19-.3-.34-.54-.34-.58-.03-.2.24-1.09.33-1.35.1-.29.57.59.6.67.15.38.27.76.32 1.24.07.6-.04 1.19-.26 1.67-.18.38-.41.57-.73.84-.44.37-1.57.02-2.02-.16-.28-.11-.5-.3-.69-.49-.13-.13-.53-.53-.55-.52l-.18.25-.07.17-.16.26c-.14.21-.34.42-.54.58-.44.35-.99.64-1.68.73-.51.07-1.15-.05-1.53-.26-.77-.43-1.04-1.04-1.24-2.06-.03-.13-1.2.82-1.2.82l-.13.09c-.08.06-.32.24-.32.24-.11.09-.33.28-.34.29-.17.11-.29.19-.31.25q-.06.19-.1.74c-.02.27-.06.78-.08.92-.01.06-.17.5-.2.56-.26 1.2-3.55 3.99-4.56 4.66-.68.45-1.38.82-2.24 1.1-.88.29-2.34.41-3.15-.08m-34.1-.64c-1.03-.04-2.31-.71-3.07-1.14-.94-.53-1.88-1.07-2.64-1.61-.19-.13-.38-.27-.56-.41-.16-.13-.48-.38-.49-.39-.12-.07-1.18-.88-.69-.94.04 0 .52.27.79.42.13.07.24.13.38.2l.14.08.12.08.24.14c.7.35 1.45.67 2.22.92 1.44.48 2.68.75 4.36 1.12 2.58.57 5.05.22 7.75-.16 1.07-.15 2.81-.77 4.16-1.24 1.69-.6 6.73-3.34 6.96-4.88.04-.23-.47-.58-.66-.66-.08-.03-1.05-.04-1.71-.04-.26 0-.73-.09-1.03-.18-.34-.1-.67-.43-.83-.72-.42-.75.09-2.18.52-2.66.26-.29.64-.7 1.08-.81.35-.09.7-.11 1.03.02.55.22.93.68 1.27 1.1.35.43.84 1.38.95 2.03.09.56-.09 1.92-.2 2.77-.05.4-.49 1.01-.8 1.44-.88 1.23-5.07 3.85-6.77 4.24-.26.06-.64.22-.93.34-.21.09-.64.23-.97.34-.27.09-.53.17-.81.24-.16.04-.49.12-.49.12l-.2.04-.12.04-.28.04-.2.04c-1.5.37-3.16.44-4.6.44l-1.92-.08c-.26 0-.78-.08-1.11-.12q-.28-.04-.45-.08c-.15-.04-.29-.07-.44-.08m50.04-3.77c.27-.12.67.11.93.26.27.16.55.12.83 0 .21-.09.44-.28.58-.45l.09-.15.08-.16.08-.14s.16-.29.24-.18l-.02.24c0 .11 0 .26.11.29.23.07.68.21.77.15.12-.08.18-.35.24-.68.04-.19.23-.69.38-.59.54.37-.68 2.12-.88 2.2-.22.08-.32.07-.53.02-.38-.1-.65-.17-.82-.05q-.17.18-.19.19c-.2.14-.4.25-.69.3s-.5-.05-.73-.18c-.26-.15-.34-.19-.69-.21-.32-.02-1.17.52-1.4.7-.39.29-.98.72-1.24.88 0 0-.25.17-.25.17-.1.09-.22.18-.35.23q-.12.05-.24.12c-.14.08-.27.14-.42.2q-.1.04-.32.1c-.13.04-.28.08-.4.12-.51.17-.69-.04-.2-.2.46-.15 1.67-1.03 2.44-1.59.75-.55 2.11-1.52 2.6-1.59m-30.45 2.51c-.3-.76-.21-1.63 0-2.49.07-.3.4-1.51.68-1.35.1.06-.31 1.23-.36 1.35-.21.6-.12 1.97.5 2.03.21.02.29-.21.35-.38.04-.13.16-.49.24-.46.25.12-.24 1.34-.3 1.46-.32.64-.78.17-1.11-.16m5.25-3.28s-.1-.15-.16-.23q-.04-.05-.09-.19c-.07-.2-.13-.4-.16-.6-.1-.75.07-1.74.28-2.37.08-.23.17-.45.26-.66.11-.26.33-.75.34-.78.01-.08-.48-.43-.62-.52 0 0-.43-.37-.62-.54-.25-.22-1.22-1.16-1.24-1.19-.2-.37-.07-1.27.03-1.66.02-.1.27.1.28.11.01 0 .26.15.26.15l.16.06.2.06.32.12c.22.09.46.17.68.26.21.08.53.2.62.29.15.15-.05.25-.14.27-.05.01-.45.11-.46.13-.12.21.88.78 1.08.9.37.21.4.16.71-.26q.11-.16.16-.24c.08-.12.16-.22.25-.33.14-.18.28-.35.39-.55 0 0 .29-.38.42-.53.09-.11.27-.38.39-.55.16-.24.4-.6.58-.6.08 0-.2.99-.22 1.06-.09.31-.2.7-.36.94-.19.28-.37.56-.58.81-.13.17-.42.62-.45.82 0 0 .71.52.88.64.26.19.61.48.74.78.21.47.32.74.34 1.3s-.15 1.35-.42 1.69c-.52.65-1.36 1.14-2.14 1.53-.24.12-.61.22-.91.22-.06 0-.4-.08-.46-.1l-.38-.23zm-18.99-1.86-.18-.4-.08-.24c-.08-.24-.26-1.1-.2-1.28l.02-.8.02-.2c.03-.25.04-.34.08-.56 0 0 .16-.71.24-1.08.08-.39.37-1.65.54-1.65.2-.01-.09 1.32-.14 1.53-.06.26-.12.54-.16.8 0 .06-.08.64-.08.66v.26l.04.42v.14c-.11 0 .25.98.26 1.01.16.36.33.68.73.78.19.05.37-.25.42-.4l.05-.19.04-.28c.03-.17.1-.5.29-.41.52.23-.44 2.36-.7 2.51-.42.23-.89-.29-1.18-.61m22.57-1.04c-.22-.37-1.93-1.66-2.39-1.44-.12.06-.99 1.63-1.04 1.88-.06.34.11.65.25.9.1.18.73.22.94.13.43-.18 2.3-1.09 2.23-1.47m-32.47-2.11c.07-.48-1.15-2.31-1.49-2.45l-.28.08-.14.02c-.19-.02-.37-.13-.51-.22-.18-.12-.51-.36-.57-.56-.06-.25.12-.94.21-1.1.48-.82 2.88 2.38 2.92 2.7h.16l.02-.2c0-.1 0-.74 0-.94 0-.43-.01-.98 0-1.39.01-.29.16-.64.28-.92l.06-.16.24-.32c.03-.08.51.01.57.04.16.08.27.23.36.38.19.3.28.91.05 1.24-.04.06-.24-.19-.27-.23-.12-.16-.21-.24-.39-.35-.14-.09-.47-.19-.54.04-.05.16-.05.24 0 .88q0 .12 0 .34c-.01.8-.05 2.6-.46 3.55-.33.76-.71 1.27-1.3 1.76-.3.25-.56.4-.96.57q-.16.07-.36.22l-.14.06c-.1.05-.67.19-.4.03.75-.45 2.7-2.19 2.94-3.08m4.38 2.01c-.4-.67.09-3.13.53-3.65.11-.12-.06.64-.11.84-.08.38-.28 1.24-.16 1.44l.04.28.04.16c.01.06.08.24.1.28.05.12.23.43.34.48.28.13.44.02.53-.24.05-.16.19-.58.23-.58.24.05-.19 1.34-.26 1.48-.36.78-1.19.15-1.29-.5m41.9-.78c.1-.24-.86-.75-1.14-.81-.57-.12-1.28.15-1.35.66-.07.49 2.18.47 2.49.15m-31.43-2.23c-.08-.44.43-1.98.63-2.33.28-.5.05.6.02.72-.03.15-.08.3-.12.44-.06.19-.16.48-.12.68.1.61.27 1.58.86 1.5.08-.01.16-.32.19-.45.04-.14.11-.45.24-.35.3.23-.36 1.77-.62 1.81-.76.12-1.18-1.29-1.07-2.03m7.55.17c.17-.19-.57-.64-.75-.72-.27-.1-.64-.11-.91.02l-.24.15-.15.17c-.17.02.31.4.34.4.39.12 1.31.15 1.7-.03m33.61-4.03c-.07-.18-.11-.41-.12-.6 0-.1.08-1.08.08-1.08l.04-.16c.02-.05.07-.21.1-.28l.14-.4c.06-.16.33-.89.48-.82.08.04-.18.67-.22.74-.14.28-.27.67-.33.98-.07.34.29.99.44 1.28.1.19.42.04.51-.07.05-.06.11-.15.15-.23s.18-.39.24-.36c.12.05-.15.89-.16.92-.1.22-.21.46-.38.61-.42.38-.88-.14-.97-.53m-13.88-1.57c.09-.62.43-2.01.76-2.32.17-.16-.19.83-.19.83-.13.38-.23.87-.2 1.33.03.42.59 1.67 1.02 1.2.11-.12.15-.16.19-.35.04-.17.13-.56.24-.53.59.14-.6 1.9-.61 1.91-.12.12-.54-.11-.71-.2-.35-.19-.55-1.31-.49-1.86m-23.77.96c-.07-.24.5-1 .69-1.26.09-.12.56.17.7.25.23.14.71.43.83.41 0 0 .74-.96.77-.99.17-.24 1.53.78 1.49 1.38-.01.2-.74.91-.89.94-.08.02-.57-.34-.75-.46-.23-.16-.56-.4-.68-.36-.1.03-.35.37-.45.51-.13.19-.34.49-.52.47-.17-.01-1.2-.78-1.19-.9m9.4-.46c.11-.44.35-1.05.72-1.28.12-.07.6.28.73.38.19.14.56.39.75.42.12.02.33-.39.38-.5.16-.33.33-.65.58-.7.19-.04 1.18.91 1.39 1.12.29.29-.56 1.45-.7 1.45-.1 0-.52-.34-.7-.48-.26-.2-.63-.5-.83-.46 0 0-.24.47-.29.57-.1.2-.32.63-.4.64-.28.04-1.68-.93-1.64-1.16m28.26-5.21c-.41-.39-1-.93-1.05-1.11-.21-.76.49-1.96.87-2.17.22-.12.52-.06.68.09.2.18.27.41.35.71.04.14.07.65.08.84.01.22.07 1.03.11 1.08.3.28.58.56.64.73.04.11 0 .63-.18.63-.02 0-.26-.16-.37-.23-.2-.14-.39-.26-.6-.3-.02 0-.51.56-.64.71l-.36.32c-.07.07-.25.24-.38.36-.53.48-1.09.9-1.68 1.33-.49.36-3.65 2.25-4.09 1.94-.08-.06.62-.52.67-.55.32-.18.63-.37.95-.56.14-.08.26-.16.65-.4l.24-.18c.17-.1.5-.32.5-.32.13-.11.29-.22.43-.31.82-.55 3.07-2.09 3.18-2.63m-50.13 3.62c-.12.33-1.66 1.11-2.07 1.02 0 0 .73-.61.76-.63t.2-.16l.2-.16c.16-.13.33-.27.48-.4.27-.24 1.26-1.25.96-1.72q-.18-.11-.26-.16c-.16-.11-.26-.18-.34-.32-.24-.4.05-1.37.52-1.16.25.11.91.54 1.07.74.14.18.3.37.47.53.21.21.42.43.61.66.15.18.29.39.41.59.11.17.45.72.54.67.04-.02.04-.88.04-.96v-.23s0-.66 0-.66c0-.38-.02-1.24.06-1.34 0-.01.19-.49.26-.68.07-.18.19-.41.37-.48.71-.3 1.49.33 1.29 1.2-.02.1-.14.4-.24.4-.01 0-.17-.17-.19-.19-.04-.04-.16-.15-.21-.18-.19-.15-.69-.53-.91-.13-.06.11-.06.73-.06 1.08v1.12c-.02.75-.05 1.97-.36 2.7-.04.09-.34-.46-.38-.53-.12-.23-.28-.52-.4-.7-.27-.4-.54-.8-.88-1.13-.11-.11-.34-.34-.5-.51-.26-.26-.44.17-.56.43-.13.29-.64 1.17-.88 1.29m-7.69-1.17c0-.54.17-1.11.32-1.57.07-.21.35-1.03.45-.63l-.05.15q-.07.27-.08.28c-.13.39-.22.66-.24 1.16-.02.48.26 1.46.87 1.32.11-.02.19-.29.22-.4.04-.14.14-.49.26-.4.3.2-.37 1.73-.68 1.79-.75.14-1.14-1.11-1.07-1.71m30.77-2.13c-.01-.18-.17-.35-.38-.58-.15-.16-.26-.39-.33-.63-.11-.36.26-1.33.42-1.53.22-.27.4-.43.75-.54.15-.05.37.21.48.34s.13.83.12.96c0 .08-.06 1.38.04 1.36.12-.02.81.67.85.84.05.2 0 .5-.08.65-.03.06-.48-.23-.58-.29-.26-.17-.64-.41-.85-.36-.02 0-.38.45-.49.59t-.29.33-.19.19c-.18.2-.41.41-.62.57-.11.09-.21.16-.33.25-.1.07-.21.16-.3.24-.1.09-.85.49-1.14.63-.16.08-1.11.55-1.15.48-.15-.29 1.85-1.63 2.06-1.77.41-.26.79-.56 1.14-.88.17-.15.33-.3.49-.46l.23-.25s.12-.17.16-.18m-14.59.22c.04-.23.14-.78.34-.8l.16.06.16.08.2.08c.17.07.39.11.61.14.68.11.92.09 1.65.04.18-.01 1.68-.34 2.66-.56.51-.11 1.11-.41 1.57-.64.23-.12.43-.24.64-.38.29-.19.68-.45 1-.33.39.15-.01 2.49-.3 2.81-.27.31-.09-.58-.07-.67.08-.38.18-.88.07-1.11-.04-.08-1.29.54-1.47.63-.5.25-1.04.5-1.62.66-.56.16-1.31.37-1.69.44-.49.09-.98.13-1.39.16-.22.02-.7.05-.77.04-.3-.03-.42-.04-.5.04-.05.05-.05.07-.06.4v.48c-.02.31-.09.66-.28.89l-.05-.63-.04-.2c-.06-.25-.15-.46-.26-.64-.11-.17-.21-.32-.32-.48-.09-.13-.28-.39-.26-.5m19.05 1.64c1.27-.83 3.48-2.26 4.05-2.58l2.16-1.28c.34-.19.67-.4.99-.6.25-.16.94-.6 1.06-.58.25.04-.14.83-.18.89-.07.09-1.69 1.1-2.05 1.29-.77.41-1.54.89-2.26 1.36-.7.47-1.49.99-2.2 1.36-.03.02-.65.4-.99.6-.65.4-.68.42-.58-.47m11.51-2.66c-.21-.21-.35-1.34 0-1.35.74-.02 1.57.75 1.97 1.23.07.07.17.19.51.61.1.13.62.84.65.75 0-.01.04-1.1.04-1.61 0-.34.01-.85.14-1.24.14-.43.8-1.6 1.43-1.24.53.3.7.97.42 1.56-.06.12-.43-.25-.46-.29-.14-.14-.28-.28-.5-.33-.11-.02-.26.08-.39.19l-.17.19c-.06 0-.06.96-.06 1 .03.49.02 1.3 0 1.61-.03.39-.16 2.07-.51 1.97-.03 0-.08-.24-.09-.25q-.05-.2-.1-.3c-.09-.17-.18-.34-.29-.49-.19-.28-.46-.69-.65-.88-.23-.25-.64-.68-.84-.67-.36.02-.75-.24-1.09-.46m-16.24-1c-.07.33.62.76.88.71.28-.06-.07-1.05-.19-1.12-.3-.2-.57.23-.69.41m27.57-.72c-.12-.37-1 .14-.94.43.06.28.56.57.83.72.92.52.27-.9.11-1.16" fill="#1d1d1b" fill-rule="evenodd"/></svg>