<svg viewBox="0 0 93.28 28.27" xmlns="http://www.w3.org/2000/svg"><path d="m6.27 27.44c.58-.43 7.56-3.22 7.76-3.18.17.03-.08.74-.19.83 0 0-.71.3-.95.39-.35.14-.71.28-1.05.44-.11.05-.24.1-.36.14-.17.06-.33.12-.48.18-.18.07-.49.2-.57.22-.19.07-.35.13-.52.22-.56.28-3.84 1.62-3.91 1.59-.1-.04.07-.76.28-.82m24.43-.08.18-.08q.22-.1.26-.12c.23-.1.48-.21.71-.3.35-.14.67-.27 1.01-.4.12-.04.35-.14.52-.22.22-.09.65-.28.65-.28.17-.07.42-.18.63-.28.15-.07.6-.27.71-.2.12.08-.17.73-.3.76 0 0-.47.22-.63.3-.02.01-.38.15-.57.22-.43.17-.97.4-1.45.6-.41.18-.84.35-1.25.5l-.32.12-.16.06-.16.06c-.38.11.01-.69.18-.74m.48-3.81c1.28-.38 4.11-2.35 5.69-3.45.36-.25.95-.67.81-1.16-.12-.41-.54-1.09-.83-1.57-.28-.46-1.67-3.05-1.67-3.05-.01-.14.28-1.15.41-1.55.04-.11.95.85 1.06.96.29.3 1.02 1.07.91 1.3-.03.06-.21.01-.29 0-.13-.03-.22-.05-.26.03-.03.06.58 1.12.7 1.34.26.46.54.95.67 1.54.13.61.12 1.33-.08 1.93-.17.49-.33.9-.64 1.23-.3.33-.71.77-.73.98-.1.82-.09 2.33.66 2.58.4.13.94.31 1 .29h.35c.07 0 .4-.09.44-.1l.48-.16s.55-.22.91-.36c1-.4 4.98-3.19 5.24-4.05.15-.49-.36-2.88-.57-3.57q-.04-.14-.08-.32c-.02-.1-.03-.12-.1-.36s-.19-.61-.22-.72l-.08-.24c-.05-.18-.1-.36-.16-.52-.09-.26-.25-.71-.28-.8-.11-.37-.44-1.1-.66-1.61-.14-.32-.43-1.83.08-1.9.24-.04 1.65 2.97 1.78 3.27.44 1.07.71 2.37.91 3.65.22 1.45.78 4.55.81 4.62.15.39.46.94.81 1.12.38.2.94.5 1.37.42 1.02-.18 1.91-.44 2.45-1.12.21-.26-.44-4.1-.58-4.8l-.02-.16-.04-.24-.04-.28-.04-.24c-.03-.17-.04-.25-.08-.6-.02-.15-.08-.5-.12-.76l-.04-.24-.04-.32-.04-.2-.04-.36c-.06-.39-.17-1.09-.2-1.28-.28-1.66-.55-3.29-.73-4.98-.08-.75-.18-1.61-.28-2.17q-.05-.27-.08-.52c-.03-.24-.06-.42-.12-.6-.09-.28-.19-.56-.12-.76l.08-.28.04-.16.04-.12c.07-.24.2-.69.32-.71.08-.02.39.64.47.81.17.37.4.84.62 1.17.25.37.95 1.82.83 2.33-.04.17-.43-.25-.44-.27-.1-.11-.43-.46-.51-.4-.09.07.93 6.85.98 7.06.2.77.4 2.4.51 3.25.03.26.1.8.1.8.05.33.16 1.03.16 1.08.04.38.08.69.12 1.08q.04.35.04.48t.04.58c.09.69 0 2.11-.34 2.87-.38.85-1.36 1.25-2.42 1.67-1 .4-2.21-.19-2.59-.77-.27-.41-.46-.79-.68-1.29-.07-.16-.15-.54-.22-.84-.07-.32-.21-.95-.23-1-.08-.21-.24.29-.26.35-.06.27-.1.43-.22.62-.05.07-.55.64-.81.93-.13.14-1.17.99-1.82 1.51-.02.01-.64.43-.94.63 0 0-.42.27-.64.4l-.12.08-.38.2c-.37.23-.82.42-1.29.54-.14.03-1.5.37-1.41.22l-.32-.02-.16-.04-.24-.08c-.2-.07-.37-.19-.56-.31-.31-.2-.49-.65-.65-1.04-.14-.34-.14-.78-.14-1.18 0 0 0-1.72-.1-1.49-.14.33-5.29 3.05-6.25 3.53-1.19.59-2.71.86-4.36 1.16-.6.11-1.19.3-1.73.48-.52.17-1.46.47-1.88.43-.53-.04 2-1.12 2-1.12l2.34-1.02c1.46-.62 4.38-1.93 4.82-2.25m39.69 3.71c-.17-.02-.47-.26-.63-.4-.13-.11-.27-.22-.3-.26-.08-.09-.19-.24-.25-.28-.3-.21-.68-1.12-.73-1.58-.04-.4-.1-.87-.08-1 .03-.38.1-1.29.07-1.5-.01-.07-.65.33-.67.35-.24.15-.5.32-.71.47-.42.3-.94.62-1.43.92-.95.58-1.96 1.15-3.01 1.65-.88.41-5.96 1.74-7.01 1.66-.57-.05 2.59-1.28 2.81-1.36.5-.18 1.32-.48 1.61-.66.46-.29 1.04-.56 1.55-.76.27-.11.94-.51 1.35-.76.23-.14.48-.28.73-.4.14-.06.28-.15.42-.24 0 0 .29-.17.42-.24.93-.53 2.59-1.5 2.96-1.86.05-.06.74-.56 1.05-.79l.24-.17c.17-.13.48-.35.54-.4.35-.26 1.63-1.33 1.56-1.8-.02-.12-.44-.9-.65-1.28-.09-.18-.35-.63-.35-.63-.12-.2-.24-.41-.35-.63-.3-.6-1.29-2.61-1.15-2.95l.04-.32q.03-.19.08-.4c.04-.17.12-.46.22-.46.08 0 2.06 2.08 2.06 2.3 0 0-.4-.06-.4-.06-.15-.03-.37-.06-.46 0-.13.1.65 1.36.74 1.5.32.51.75 1.22.83 1.77.09.7.17 1.6-.08 2.25-.25.66-.54 1.01-.96 1.47-.09.09-.17.18-.26.26-.14.13-.4.37-.51.47l-.26.17c-.15.12-.26.22-.33.41-.8 2.19.6 4.01 2.73 4.18.54.04 1.75-.21 2.24-.48l.16-.04c.08-.03.29-.15.42-.22 0 0 0 0 .26-.16.14-.08.26-.16.4-.24s.84-.58 1.28-.89c.72-.51 4.15-3.34 3.14-3.94-.08-.05-.41.06-.59.11 0 0-.58.11-.85.16-.43.08-1.39.23-1.62.12l-.28-.08c-.2-.05-.35-.09-.46-.14-.2-.09-.35-.25-.55-.47-.41-.44-.37-1.59-.13-2.18.34-.85.8-1.47 1.71-1.75.42-.12 1 .11 1.32.27.35.17.74.51.98.79.14.17.31.38.41.51.13.18.31.44.41.54.18.2 1.73-.86 1.83-.94.44-.37 1.24-1.03 1.56-1.1.24-.05.24.37.24.52 0 .45 0 .87.1 1.08.18.39.54.66.91.86.4.22.91.22 1.51.22.72 0 1.58-.73 1.9-1.18.13-.17.38-.64.56-.97.2-.37.5-.94.71-1.04.31-.16.08.49.02.62-.15.31-.34.72-.24.92.15.31.79.71 1.17.8.36.09 1.73.35 1.67-.22-.02-.21-.17-.49-.27-.63-.21-.3-.26-.38-.25-.65 0-.27.23-1.13.4-1.24.15-.1.6.97.65 1.12.18.63.35 1.33.08 2.01l-.04.16-.06.16c-.08.2-.09.22-.16.36t-.23.38l-.2.16c-.15.28-1.25.29-1.25.29l-.18-.04-.2-.04-.32-.1c-.24-.09-.47-.24-.71-.4-.15-.1-.27-.25-.39-.39-.14-.17-.34-.41-.45-.38l-.15.25-.08.16-.16.26c-.09.14-.39.43-.62.63-.33.31-1.1.6-1.68.65-.51.04-1.04-.08-1.45-.26-.31-.14-.63-.46-.81-.74-.12-.19-.24-.39-.3-.62l-.08-.4c-.01-.12-.03-.3-.06-.32-.14-.13-.57.27-.65.36-.15.15-.33.29-.52.41s-.39.26-.56.41c-.16.15-.38.32-.59.42-.04.02-.09.37-.09.37l-.04.56-.04.52c-.02.2-.12.72-.24.8l-.06.16-.16.26c-.08.13-.16.24-.24.36-.17.23-.34.45-.53.65-.08.09-.18.19-.25.28-.12.15-.2.24-.24.28-.12.1-.22.2-.32.33-.08.09-.19.2-.28.28-.22.19-.41.38-.61.58-.08.09-.4.34-.58.49-.2.16-.4.32-.6.48-.04.03-.18.12-.31.2s-.3.21-.41.31c-1 .89-3.86 1.81-5.35.98m17.11-3.05c-.28.05-.51-.08-.69-.18-.26-.15-.34-.2-.76-.18-.24 0-1.58.87-2.38 1.39-.37.24-.73.45-1.13.68-.15.08-1.56.68-1.55.35 0-.07.09-.1.18-.12.16-.05.33-.12.81-.42l.14-.08.14-.08s.6-.41.83-.56c.11-.08.26-.19.34-.24.16-.1.37-.27.55-.42l.56-.39c.47-.34.98-.7 1.48-.88.3-.11.67-.17.97 0 .28.16.65.37.93.26s.56-.23.73-.44c.09-.12.17-.25.24-.38.08-.14.16-.3.24-.36l.06.16-.04.18c.01.15.06.18.18.26.19.13.52.24.75.13.07-.03.17-.44.23-.7.04-.17.21-.67.36-.61s.03.55 0 .65l-.05.13-.09.1q.06.07 0 .25c-.06.15-.12.31-.18.44-.13.29-.33.58-.67.66-.22.05-.39.02-.61-.06-.23-.09-.46-.18-.64-.03-.26.22-.54.45-.94.49m-86.77-.96c-.39-.45-.8-.91-.96-1.4-.17-.54-.41-1.38-.29-1.86.2-.77.69-2.71 1.13-2.82.24-.06.06.31.02.38-.07.13-.15.27-.18.36-.13.45-.27.96-.24 1.49.03.45.35 1.5.58 1.71.51.45 1.11.96 1.37 1.1.57.3 1.32.42 2.1.5 1.01.1 2.61-.04 3.87-.32 1.52-.34 2.93-.66 4.24-1.14.66-.25 2.17-.92 2.51-1.34.24-.29-.31-1.07-.5-1.33q-.12-.18-.44-.52s-.01-.02-.22-.21c-.03-.02-.19-.25-.21-.29-.09-.28.18-1.06.3-1.44.06-.17.65.41.66.42.17.17.35.39.48.6.19.28.42.86.65 1.43.21.51-.02 2.47-.52 2.73 0 0-.25.17-.25.17q-.17.14-.19.15c-.17.1-.44.27-.66.4-.48.29-1.02.55-1.57.76-2.29.86-5.33 1.77-7.99 1.62-.66-.04-1.54-.1-2.18-.32-.3-.11-.57-.23-.85-.36l-.34-.22-.13-.09c-.07-.06-.19-.16-.2-.16m53-19.55c.1-.39.28-1.1.52-1.19.09-.03.91 1.74.97 1.91.06.18.14.37.22.54.1.21.27.55.32.66.09.21.25.59.26.64.03.14.18.82-.03.75-.14-.04-.32-.26-.44-.42-.12-.14-.34-.42-.51-.41-.1 0 .28 2.38.3 2.53q.02.12.08.6.02.13.08.48.03.16.08.56.01.11.06.36c.06.35.18 1.44.26 2.21.09.85.22 1.82.32 2.57.23 1.7 1.02 8.26-.12 8.65-.14.05-.2-1.7-.21-1.92l-.04-.26-.04-.38v-.3l-.04-.56-.04-.44v-.18l-.04-.18-.04-.32c-.07-.77-.18-1.72-.28-2.57l-.16-1.12-.04-.36-.04-.44-.04-.28-.04-.36-.04-.32c-.05-.41-.1-.8-.16-1.2-.06-.38-.11-.82-.16-1.25-.04-.39-.1-.82-.16-1.2-.06-.4-.14-.97-.2-1.45-.08-.56-.21-1.8-.32-2.77l-.04-.36-.04-.48-.08-.76c-.02-.2-.04-.26-.1-.42-.08-.2-.07-.3-.02-.54m-37.34-.63c.28-.28.65 2.17.7 2.44.23 1.49.36 2.83.48 4.29.23 2.64.76 8.05.89 8.63.16.72.38 1.67.75 2.11.35.42.64.66 1.09.98.44.32 1.72.45 2.34.5 1.5.13 3.66-.66 4.86-1.23.82-.38 1.36-.64.79-1.57-.18-.29-.38-.56-.61-.79-.16-.16-.65-.68-.66-.77-.02-.4.02-1.18.27-1.39s1.41 1.38 1.54 1.61c.35.63.59 2.9-.01 3.5-.46.46-1.24.85-2.16 1.3-.41.21-.92.37-1.39.5-.13.04-.45.11-.69.16-.21.04-.8.2-.81.2-.46.23-1.73.09-2.38 0-.76-.11-1.29-.37-1.83-.66-1.91-1.01-2.21-5.81-2.42-9.09-.15-2.31-.36-4.31-.77-6.57-.03-.19-.07-.4-.08-.58-.01-.16-.04-.36-.08-.54-.01-.06-.09-.45-.12-.64l-.04-.24-.04-.16-.04-.2c-.08-.4.07-1.54.43-1.8m45.11 13.96s-.43-.37-.59-.49c-.24-.19-.67-.54-.71-.58-.13-.13-.35-.4-.52-.61-.08-.1-.19-.18-.31-.26-.15-.11-.3-.21-.35-.39-.13-.45-.06-1.18.09-1.54.04-.09.26.09.28.11.14.11.15.12.34.17 0 0 .68.26.89.34.26.1.87.35.89.36.12.07.26.27.04.34l-.16.04s-.38.08-.38.13c0 .24.77.71 1.02.86.31.18.48.23.69-.07.16-.22.35-.49.49-.66s.27-.34.39-.53c.06-.09.28-.36.42-.53l.4-.57c.08-.1.16-.2.23-.31.09-.14.2-.3.28-.35.45-.28-.41 1.88-.45 1.93-.19.29-.37.57-.57.84-.19.25-.51.69-.25 1.09l.17.09c.16.1.32.23.46.35.27.23.51.43.72.73.41.61.6 2.23 0 2.89-.52.57-2.75 2.58-3.85 1.61-.24-.21-.51-.59-.52-1-.04-.82.03-1.69.28-2.45.09-.27.19-.51.3-.74.1-.21.33-.71.28-.78m-24.04-13.4s.14-.47.2-.68c.08-.27.16-.58.31-.71.11-.11.92 1.7 1 1.88.12.27.98 2.18.67 2.27-.01 0-.25-.2-.32-.26-.17-.14-.37-.32-.44-.33 0 0 .2 1.72.2 1.73.04.28.14.93.22 1.4.16.98.42 2.47.52 3.01.39 1.93 1 5.3.89 6.38v1.21c-.01.26-.1.73-.16 1.08-.05.29-.23 1.23-.48 1.18-.09-.02-.13-.78-.13-.84v-1.31c0-.35-.17-1.57-.28-2.37-.11-.78-.5-3.09-.77-4.7-.24-1.43-.67-4.07-.73-4.58-.09-.83-.21-1.59-.36-2.41l-.04-.2-.04-.2c-.04-.29-.1-.73-.12-.8-.09-.28-.21-.65-.16-.76m27.16 15.42c-.03-.43-2-1.61-2.36-1.49-.19.07-1.01 1.62-1.07 1.93-.07.38.1.66.28.86.18.19.57.21.87.13.53-.14 2.2-1 2.28-1.42m13.9-.68c.05-.48-1.27-1.06-1.82-.86-.38.14-.48.25-.68.56-.21.31.65.46.93.48.35.02.54 0 .97-.04.12-.01.21-.04.33-.08.11-.04.19-.06.28-.06m-55.91-.8c-.11-.76-.21-1.51-.08-2.17.06-.31.31-1.52.47-1.48.02 0-.09.68-.11.84-.07.45-.14.88-.08 1.25.07.47.16.88.46 1.1.18.14.51.02.59-.14.06-.12.24-.52.28-.44.13.29-.29 1.24-.43 1.44-.34.47-.97-.1-1.1-.39m-16.87-1.12c.06-.24.51-1.13.7-1.18.22-.06.56.15.81.3.26.16.74.45.87.41.02 0 .26-.36.34-.47.14-.2.29-.43.52-.48.22-.05 1.37.87 1.47 1.06.17.31-.61 1.39-.87 1.33-.1-.02-1.21-.85-1.21-.88-.03-.33-.52.36-.52.36-.17.29-.36.6-.42.64-.26.17-1.65-.86-1.69-1.08m-5.58-1.88c-.67-.7.17-6.44.82-6.84.44-.27-.12 1.94-.19 2.14-.23.68-.4 1.51-.36 2.33.04.78.14 1.36.62 1.78.28.24.47.02.61-.19t.06-.26c.02-.11.08-.27.14-.36.23-.31.18.6.18.6-.01.23-.09.47-.16.68-.12.35-.35.73-.79.78-.24.03-.55-.29-.93-.66m29.48-2.17c-.03-.23.24-1.57.4-2.29.07-.32.41-1.64.66-1.52.13.06-.2 1.21-.25 1.4-.18.63-.25 1.36-.32 2.09-.05.48.31 1.08.53 1.38.08.1.51.21.55.04.03-.12.33-1.09.41-1.1.31-.05.02 1.46-.06 1.69-.14.42-.4.75-.87.82-.24.04-.67-.53-.75-.72-.23-.57-.3-1.22-.3-1.79m-16.91-.76c-.04-1.18.2-2.19.44-3.17.07-.29.16-.64.24-.88.05-.16.29-.88.46-.6 0 0-.12.61-.14.72l-.08.28-.04.2-.08.36c-.14.62-.28 1.35-.28 1.95 0 .54.4 1.79.97 1.67.12-.03.21-.21.26-.32.02-.05.08-.22.1-.28.02-.08.08-.27.13-.3.41-.24 0 1.19-.07 1.34-.15.38-.36.8-.79.86-.55.09-1.04-1.28-1.13-1.83m-5.43 1.15c-.24-.43-.25-.98-.19-1.46.04-.36.44-2.03.67-1.96.02 0-.08.38-.1.47q-.04.16-.08.32c-.09.4-.12.76-.12 1.12 0 .32.22.79.44.96.16.13.36.06.46-.08q.05-.07.1-.2c.04-.11.08-.21.14-.24.28-.12-.28 1.27-.35 1.35-.4.45-.75.02-.98-.29m81.01-.46c-.22-.43-.14-1.1-.06-1.57.04-.22.57-1.82.81-1.81.09 0-.24.74-.24.74-.15.3-.24.64-.3 1.02-.05.32.27 1.22.48 1.3.24.09.47-.09.55-.26.03-.06.23-.49.28-.4.19.33-.43 1.37-.55 1.46-.37.3-.89-.02-.96-.5m-13.08-4.03s-.17.54-.28.9c-.11.34-.17.72-.2 1.1-.05.51.44 1.56.95 1.39.16-.06.21-.16.26-.32s.19-.63.24-.61c.61.22-.62 1.92-.62 1.92-.12.11-.53-.12-.7-.21-.58-.31-.5-1.86-.37-2.46.07-.3.15-.58.26-.84.07-.16.38-.89.46-.85m-15.2 2.77c-.08-.33.41-1.15.6-1.32.18-.17.65.18.81.3.18.13.73.54.88.41 0 0 .28-.51.34-.62.11-.2.2-.38.34-.49.26-.23 1.41.85 1.56 1.08.22.34-.47 1.41-.73 1.44-.06 0-.54-.36-.68-.47-.18-.14-.7-.56-.78-.51s-.32.5-.38.64c-.14.31-.33.71-.65.56-.24-.11-1.2-.82-1.32-1.02m-40.12-.47.24-.17c.1-.07.24-.15.39-.23.11-.06.59-.36.89-.54l.14-.06.12-.08.16-.08.14-.08c.14-.08.29-.16.42-.24l.16-.08.14-.08.16-.08c.98-.56 2.39-1.35 3.07-1.67.57-.26 1.12-.55 1.65-.84.56-.3 1.15-.57 1.73-.84l.57-.3.18-.08.14-.08.16-.08.28-.14.14-.06.14-.08c.48-.22 1.84-.82 1.86-.82.29-.06-.08.77-.12.86-.11.23-.6.45-.89.58-.3.13-.7.32-.89.42-.34.18-.96.51-1.07.56-.55.27-1.68.84-1.82.92-.64.37-1.33.73-2 1.04-.29.14-.58.29-.85.44s-1.01.56-1.01.56c-.34.16-.68.34-1.01.52-.31.18-.64.36-.95.52-.62.33-1.24.66-1.85 1.02-.09.06-.84.49-.88.43-.11-.21.32-1.12.42-1.16m68.51-4.61c0-.07-.35-.32-.52-.44-.2-.15-.41-.33-.48-.6-.22-.8.49-2.64 1.41-2.21.37.18.48 1.15.56 1.93.05.48.08.78.28.95.16.15.37.34.41.54.04.18.03.69-.18.66 0 0-.33-.22-.44-.3-.17-.12-.35-.25-.56-.2-.03 0-.21.22-.3.33-.08.1-.34.4-.34.4l-.13.07-.24.2-.28.29-.12.08c-.34.34-1.07.87-1.64 1.28-.44.32-3.65 2.17-4.08 1.91-.13-.08.63-.51.7-.55.29-.16.64-.38.95-.56.64-.39 1.26-.79 1.88-1.21.47-.31 1.64-1.12 1.65-1.13.1-.09.2-.18.3-.26l.24-.2.25-.2c.16-.16.71-.7.69-.78m-27.23-.31-.29-.26-.07-.13-.16-.26-.08-.32c-.12.47.12-.68.14-.76.05-.19.14-.4.23-.55.17-.28.49-.58.86-.63.23-.03.44.26.48.46.09.41.1.7.05 1.16-.02.16-.1.88-.02.94.3.25.88.71.93.96q.03.16-.08.66c0 .05-.63-.36-.63-.36-.21-.14-.51-.34-.71-.38-.08-.02-.4.38-.49.49-.16.2-.34.38-.52.56-.33.33-.67.66-1.06.93-.13.09-3.19 1.9-2.83 1.26.05-.1.78-.58 1.26-.9l.23-.19c.1-.09.22-.17.33-.25l.18-.16.33-.2c.38-.27.82-.58 1.12-.82.18-.14 1.04-.94.81-1.26m-18.86 2.04c.01-.23.59-1 .76-1.14.24-.19 1.43 1.06 1.42 1.34 0 .12-.73 1.1-.79 1.1-.33.04-1.37-1.01-1.39-1.31m23.57.08c.3-.33 2.97-1.87 4.34-2.65l.16-.08.14-.08.26-.16.28-.16.28-.16c.33-.22.84-.5 1.25-.72q.23-.13.28-.16.12-.08.26-.16.14-.08.26-.16l.24-.16c.11-.07.48-.28.47-.01-.02.28-.17.75-.39.82-.04 0-.71.45-1.01.64q-.16.11-.26.16l-.14.08-.4.24c-.15.08-.29.16-.42.24-.71.43-1.68 1.03-2.2 1.29-.72.36-1.49.87-2.18 1.32l-.24.16-.32.16c-.2.13-.41.27-.6.41-.17.12-.31.17-.31-.09 0-.13.05-.72.24-.76m11.41-3.73c.51-.23 1.53.74 1.84 1.04.22.21.43.5.63.77.11.15.21.3.31.47.08.13.27.43.34.41.05-.01.05-.31.05-.33 0-.55 0-.99.04-1.39.03-.38.09-1.04.16-1.26.14-.43.49-.97.87-1.18.14-.08.62-.12.67.05l.19.2c.09.11.18.27.23.41.1.32 0 .6-.13.88-.04.09-.41-.25-.45-.29-.21-.2-.38-.35-.63-.33-.24.02-.41.28-.46.5-.04.15-.04.51-.04.8 0 .52-.01.85-.04 1.53-.01.31-.09 2.25-.52 2.1-.02 0-.08-.24-.09-.25q-.04-.15-.12-.32s-.26-.44-.38-.64c-.06-.09-.54-.69-.8-1.01-.1-.12-.27-.34-.41-.37h-.4c-.1-.01-.32-.15-.45-.22-.36-.22-1.05-1.2-.39-1.56m-72.96.78c-.17-.28-.05-1.24.32-1.24.45 0 1.15.73 1.4 1.03.19.22.34.47.49.72.13.21.47.77.52.78 0 0 .11-1.26.11-1.26.02-.24.08-.56.16-.8.11-.32.3-.84.6-.9.31-.07.87.49.79.77.04 0 .07.07.12.19.08.19-.06.45-.17.57-.12.14-.49-.13-.57-.22-.12-.12-.33-.34-.48-.23-.08.06-.09 1-.09 1.18 0 .38-.03.98-.12 1.44-.05.22-.25 1.23-.44 1.14 0 0-.14-.4-.17-.5-.08-.25-.19-.48-.3-.7-.16-.32-.33-.62-.53-.9-.15-.2-.41-.3-.68-.41-.36-.15-.79-.34-.97-.66m30.04.66c.06-.56.19-1.06.32-1.53.06-.21.38-1.23.46-1.22.05 0-.19.99-.22 1.11-.14.56-.24 1.05-.16 1.61.08.49.26.85.54 1.13.19.2.36.18.49-.09.09-.2.31-.64.36-.64.16 0-.17 1.05-.18 1.08-.16.29-.35.63-.52.72-.83.42-1.07-1.75-1.09-2.17m-12.9-.47c-.21-.19-1.13-.59-1.42-.68-.39-.12-.15-1.05-.02-1.3.1-.2 1 .4 1.01.4.09.06.46.38.68.57.19.17.38.38.54.59.16.2.45.56.56.57.02 0 .02-.5.02-.5v-.3l-.04-.42c0-.26.05-.71.12-1.02.08-.36.33-1.1.61-1.25.18-.1.53-.09.64.09.23.38.59.99.47 1.27s-.31.1-.48-.05c-.2-.18-.42-.39-.63-.41-.32-.04-.32 1.49-.32 1.79 0 .32-.13 2.32-.29 2.42-.05.03-.31-.39-.38-.49-.1-.16-.21-.33-.32-.48-.12-.16-.24-.31-.38-.46l-.16-.16c-.07-.06-.19-.16-.2-.18m20.32-1.19s.05.31.05.32c.02.18.09.5.24.58.24.13.53.07.71-.08.22-.19.29-.28.26-.68-.02-.29-.05-.67.09-.93.14-.28.24.33.24.33.05.4.08.64.23.84.15.19.71.19.7-.09l-.06-.26-.06-.16-.04-.18c0-.12.06-.61.13-.71.3-.48.34 1.66.28 1.9-.17.59-.65.57-1.15.44-.13-.03-.3.14-.46.29-.13.13-.29.2-.51.29-.28.12-.59-.09-.68-.24-.16-.25-.17-1.47.05-1.64m46.83-.1c-.36-.15-.82-.05-.9.39-.05.3.89.96 1.2.9.3-.06-.26-1.23-.3-1.29m-26.88.1c-.05-.32-.62.12-.69.19-.18.2.08.52.2.64.1.1.46.4.63.26.17-.15-.01-1-.15-1.08m-21.39-1.67c.13-.12 2.2-.9 3.29-1.3.04-.02 1.08-.44 1.65-.68.19-.08.61-.24.73-.24.41 0 .03.65-.16.74-.23.11-1.84.71-3.07 1.17l-.32.12-.16.06c-.11.04-.28.1-.28.1-.32.14-.69.3-1.01.4-.27.09-.28.09-.36.12-.11.04-.48.18-.48.18-.35.09.09-.62.18-.66m-20.52 22.76c.13.08.29.18.42.22.06.02.37-.48.44-.6.12-.18.25-.36.48-.4.17-.03 1.26.91 1.33 1.1.12.33-.42 1.07-.71 1.24-.19.12-.57-.19-.74-.33-.21-.18-.49-.41-.69-.46-.14-.03-.35.38-.4.5-.08.16-.29.6-.49.54-.33-.1-1.46-.91-1.47-1.22.15-.45.37-.91.69-1.22.09-.08.28 0 .44.12.09.03.64.45.68.49" fill="#1d1d1b" fill-rule="evenodd"/></svg>