<svg viewBox="0 0 78.64 26.42" xmlns="http://www.w3.org/2000/svg"><path d="m12.81 26.14-.16-.06c-.13-.06-.23-.15-.34-.24-.21-.18-.38-.33-.56-.54-.32-.35-.49-.98-.61-1.51-.21-.92-.05-1.79.12-2.73.05-.27.13-.56.2-.8.06-.22.18-.66.18-.72 0-.14-1.24.61-1.24.61-.17.11-.26.16-.45.27q-.19.11-.3.16t-.3.16c-.56.32-1.9 1.04-2.3 1.04-.17 0-2.7.48-3.83.71l-.16.04-.2.04-.28.04-.24.04-.32.08q-.16.04-.36.08-.2.04-.32.08-.12.04-.28.08c-.32.08-.79.2-.94.17-.52-.11 1.63-.91 1.63-.91l.28-.1.12-.04.28-.12.16-.06c.39-.13.73-.26 1.09-.4s.73-.29 1.09-.42l.16-.06q.14-.06.32-.12c.22-.07.44-.16.64-.24.4-.16.93-.37 1.21-.52.3-.16.71-.38.97-.48 1.57-.62 7.78-4.3 7.65-5.46-.03-.23-.91-1.76-1.39-2.61-.43-.74-1.25-2.22-1.39-2.85-.04-.14.33-1.26.41-1.39.05-.09.81.62.95.74.06.07.2.17.31.26.2.16.43.37.59.57.09.11.2.26.15.39-.03.1-.12.11-.2.1q-.43-.04-.5-.03c-.12.01.2.6.21.64.08.15.21.37.32.54.23.37.43.75.65 1.15.48.9.87 2.58.24 3.73-.46.85-.98 1.39-1.67 2-.28.24-.75.61-1.14.91l-.12.08-.32.24c-.25.18-.46.33-.55.52-.13.32-.26.66-.34 1.04-.08.37-.12.82-.16 1.29l-.04.42.02.46-.16.1c.11.02.23.31.36.62 0 .02.32.52.49.79.2.33.8.61 1.2.75.48.17 1.33.14 1.9 0 .51-.13 1.32-.34 1.41-.38l.14-.08s.24-.1.38-.16l.36-.16q.2-.09.28-.12c.47-.16 2.09-1.3 3.16-2.06.3-.21 1.14-.94 1.26-1.27.06-.18.07-.29-.03-.43-.04-.07-1.02-.07-1.24-.07-.43 0-1.17 0-1.57-.16-.48-.19-.92-.37-1.14-.68-.41-.58-.3-1.54.02-2.19.12-.25.32-.5.51-.7.06-.07.2-.18.3-.27l.13-.09s.18-.12.18-.16c.01-.14 1.09-.17 1.17-.14.68.29 1.2.9 1.59 1.48.08.12.16.25.23.37l.08.18.14.24.06.14c.2.33 1.09.09 1.3-.17.06-.08.6-.63.83-.86l.23-.18s0 0 .2-.24q.15-.17.31-.49c.19-.14.16-2.37.15-2.85-.04-1.8-.56-4.03-.95-5.74l-.02-.2-.04-.16-.04-.2c-.02-.08-.08-.38-.08-.42v-.18l-.04-.24c-.08-.48-.27-1.6-.28-1.65-.1-.49-.2-1.01-.28-1.45-.03-.16-.12-.64-.12-.64-.06-.21-.19-.66-.08-.8l.04-.2c.03-.13.05-.21.1-.32.08-.17.24-.49.25-.51.11-.14.98 1.55 1.06 1.72.38.75.96 1.91.89 2.42-.03.21-.43-.29-.44-.31-.13-.16-.26-.32-.41-.26-.02 0 .14 1.03.17 1.2.04.23.07.47.12.68.02.12.07.46.08.6.07.63.31 1.7.49 2.49.21.93.4 2.05.44 2.93v.76.52c0 .21 0 .37-.04.64-.05.42-.1.78-.05 1.26 0 .06.45-.32.49-.35.13-.12.39-.35.39-.35.09-.07.31-.29.46-.44l.44-.38c.26-.23.73-.65.8-.7.14-.12.3-.24.45-.34l.37-.23c.07-.04.21-.13.22-.14.2-.2 1.36-.56 1.71-.52 1.2.14 2.8.33 3.29 1.1.18.28.38.6.34 1.04-.02.23-.23.9-.36 1.29l-.16.48c-.03.09-.07.22-.1.28-.05.12-.19.43-.18.45.06.13 1.5-.47 1.55-.49.27-.11.99-.48 1.03-.8.08-.75-.39-3.41-.65-4.82-.1-.58-.25-1.58-.36-2.37l-.32-2.49c-.11-.77-.25-1.73-.28-2.21-.03-.37-.06-.72-.16-1.13-.09-.37-.15-.6-.08-.76 0 0 .11-.32.16-.48.07-.21.21-.64.34-.66.03 0 .47.85.63 1.15l.12.24c.11.26.2.5.3.7.19.37 1 2.16.76 2.46-.14.17-.47-.27-.53-.34-.09-.12-.25-.34-.35-.34-.14 0-.01.87.02 1.1l.04.2.04.24.04.32.04.2.04.28c.07.65.18 1.54.32 2.25.27 1.32.83 4.37.65 5.24v.38l-.04.36-.08.32-.16.44-.06.16c-.18.54-.65 1.09-1.08 1.41-.58.43-1.29.72-2.07.98-1.55.51-3.25.75-5.08 1-.37.05-.76.12-1.21.2-.44.08-1.14.17-1.74.24-.54.07-1.64.21-1.82.24l-.16.04s-.48.08-.48.08c-.21.03-.82.11-.86.23-.02.06-.14.68-.21.99-.08.4-.17.64-.35.92-.58.86-1.58 1.67-2.47 2.22-1.89 1.16-5.14 3.15-7.52 2.15m-9.24-1.04c.94-.44 1.95-.91 2.9-1.26.16-.06 1.13-.48 1.65-.7l.16-.06.16-.08q.13-.06.28-.12c.28-.1.88-.32.92-.31.21.06-.14.81-.21.85-.47.26-1.05.49-1.56.69-.65.25-1.3.51-1.94.78l-.16.06-.16.06-.16.08-.16.06-.14.06c-.11.05-.25.11-.38.16-.15.06-.3.12-.44.18-.2.08-.93.36-.93.36-.33.03-.07-.72.16-.8m68.2-3.25c.27-.14.65-.1.87.02.29.15.6.32.76.34.31.04.75-.33.92-.49.06-.06.14-.18.23-.33.1-.15.24-.37.32-.36l.02.18-.04.18c0 .1.07.25.18.28.28.08.63.17.76.07q.07-.05.15-.43l.08-.32c.05-.15.21-.48.33-.5.29-.05-.15 1.19-.19 1.3-.15.37-.34.72-.69.88-.26.12-.33.12-.61.02-.31-.11-.56-.2-.63-.18l-.23.19-.25.17c-.2.11-.44.18-.68.22-.22.03-.47-.13-.63-.22-.2-.12-.41-.25-.68-.22-.72.08-1.76.8-2.36 1.24-.38.28-2.22 1.3-2.82 1.12-.04-.01.59-.37.6-.38.13-.08.52-.31.79-.48l.14-.08c.14-.08.35-.2.42-.25.18-.13.44-.33.55-.4.41-.25.87-.54 1.22-.79.43-.32.89-.66 1.47-.8m-44.71-.82c.22-.19 1.31.71 1.46.88.21.22.41.44.61.68.12.15.59.71.61.71.04-.01.04-.49.04-.5v-.13s-.04-.23-.04-.23v-.36c.01-.4.09-.86.2-1.2.14-.43.66-1.33 1.16-.71.25.31.82 1.4.17 1.57-.02 0-.16-.17-.18-.2q-.05-.07-.18-.2c-.17-.17-.32-.31-.51-.33-.21-.02-.22.83-.22 1.04 0 .38-.02.98-.12 1.47-.06.31-.31 1.52-.5 1.43 0 0-.04-.19-.06-.26l-.12-.24c-.1-.22-.18-.38-.3-.56-.21-.32-.45-.63-.71-.9-.09-.09-.28-.28-.4-.29-.36-.02-.52-.06-.83-.26-.34-.23-.55-1.36-.08-1.41m11.45-1.94c.08-.03-.05.58-.09.78-.12.6-.18 1.14-.08 1.77.04.26.2.64.37.78.1.08.26.14.39.04.02-.02.11-.28.13-.33 0-.03.07-.2.1-.24.13-.17.05.71.02.8-.09.27-.2.6-.34.7-.56.4-.99-.46-1.07-.9-.25-1.31.13-2.47.57-3.39m8.24.82c-.44-.61-.31-1.51-.17-2.46.07-.49.2-.86.38-1.24.07-.15.16-.32.24-.46.09-.15.28-.49.24-.58-.01-.03-.42-.36-.64-.53-.16-.13-.43-.4-.62-.59-.26-.26-1.16-1.24-1.18-1.35-.07-.36-.03-1.17.15-1.5.05-.09.22.04.27.08q.15.12.29.19c.21.1.46.21.69.3.43.18 1.14.47 1.26.59.15.15-.16.23-.22.25-.2.05-.42.11-.43.19-.02.13.7.63.83.71.6.36.73.18 1.1-.31.4-.54.98-1.23 1.48-1.82.07-.08.71-.85.71-.57 0 .08-.41 1.4-.46 1.5-.18.34-.42.65-.66.94-.16.2-.65.86-.66 1 0 .06.32.29.46.4q.14.1.21.15l.24.17c.14.12.27.23.38.39.07.09.27.36.32.37.26.02.27 1.44.22 1.69-.14.71-.25 1.25-.66 1.57-.64.51-1.64 1.22-2.59 1.38-.44.07-1.06-.14-1.18-.46m3.74-2.66c-.08-.45-1.76-1.48-2.22-1.55-.2-.03-2.18 2.58-.62 2.93.71.16 2.91-1.03 2.85-1.39m-31.19.36c-.24.58 1.8.62 2.1.62.38 0-.73-.86-.79-.9-.43-.23-1.08-.03-1.31.28m12.67-1.12s.21-.08.3-.12q.18-.07.36-.16l.79-.36c.28-.14 1.03-.55 1.12-.74.54-1.08-1.41-1.67-2.31-1.85-1.59-.32-3.38 1.11-4.35 2.04l-.13.08c-.05.04-.54.49-.8.73l-.12.07-.2.2c-.37.34-1.33 1.21-1.31 1.41 0 .12 2.06-.26 2.15-.28.54-.11 1.22-.24 1.57-.32 1.04-.23 2.61-.59 2.93-.7m32.41.49c.33-.36-1.16-.93-1.64-.92-.59.02-1.23.71-.4.96.68.21 1.28.1 2.04-.05m-55.47-9.56s-.09.52-.14.72l-.04.2-.04.16-.04.16-.04.16-.04.16c-.18.8-.28 1.62-.36 2.53-.06.67.52 3.07 1.29 2.48.12-.1.17-.31.21-.51s.12-.58.27-.54c.18.05-.03 2.65-1.1 2.38-1.23-.31-1.17-2.81-1.07-3.88.07-.77.26-1.56.44-2.31l.04-.16.04-.24.04-.16.04-.16q.05-.24.08-.32c.05-.15.27-.81.42-.68m12.03 1.28c0 .11-.08.34-.14.52-.05.14-.09.29-.12.44-.07.33-.2 1.64-.1 1.33l.02.2c.01.08.06.29.08.36.07.22.16.45.34.57.2.14.47.13.55-.13.05-.17.19-.58.24-.58.5.09-.39 1.65-.58 1.76-.94.57-1.1-1.91-1.03-2.43.05-.38.54-2.05.75-2.05m53.43 2.73c-.23-.68-.24-1.25-.02-2.01.03-.09.05-.14.1-.26s.18-.42.18-.42c.06-.18.13-.33.22-.48.09-.16.2-.32.3-.31.02.02-.02.14-.04.19-.06.19-.12.37-.22.52-.23.37-.3.68-.3 1.23 0 .36.12.91.4 1.08.24.15.44-.06.55-.23q.05-.08.1-.22c.04-.11.08-.21.14-.22.18-.02-.08.76-.12.86-.08.19-.18.38-.3.54-.38.5-.77.15-.99-.25m-13.86-1.12c-.3-.95.3-3.02.79-3.47.08-.07-.25.86-.25.86-.13.36-.2.78-.26 1.19-.1.61.41 1.43.99 1.35.09-.01.2-.28.22-.36.06-.18.17-.54.24-.54.25 0-.18 1.82-.74 1.92-.49.09-.93-.55-.99-.94m-14.44-1.1c-.17-.24.55-1.49.82-1.41.11.03.48.3.71.46.24.17.56.4.76.37.01 0 .34-.56.39-.65.09-.17.28-.48.46-.5.21-.02 1.27.99 1.41 1.18.27.37-.61 1.47-.86 1.41-.05-.01-.23-.18-.33-.28-.09-.08-.2-.18-.3-.26-.23-.18-.57-.46-.7-.48-.03 0-.26.4-.32.51-.09.16-.39.68-.4.68-.42.14-1.36-.75-1.63-1.04m28.46-4.22s-.4-.45-.53-.57c-.21-.21-.36-.36-.46-.69-.22-.73.59-1.95 1.07-2.11.27-.09.61.16.69.34.07.19.21.57.22.68v.46l.04.62c.01.33.03.63.25.85.08.08.2.19.25.25.21.29.16.57.05.92-.03.09-.5-.24-.53-.26-.23-.16-.4-.28-.77-.05l-.09.13c-.09.11-.19.2-.31.3-.2.17-.5.44-.61.52-.1.08-.21.17-.3.27-.06.06-.2.17-.31.26-.21.17-.41.32-.63.48-.84.59-3.83 2.39-4.86 2.28-.36-.04 1.74-1.15 1.82-1.2.35-.18.66-.36.99-.56.13-.08.26-.16.38-.24.17-.11.37-.24.51-.32 1.09-.62 2.38-1.38 3.13-2.35m-44.53 3.96c-.13-.33-.03-1.69.13-2.08.13-.31.16.91.16.91 0 .12 0 .45.12.59.16.2.31.25.66.24.26-.02.54-.35.61-.58.08-.27.06-.47.02-.96-.03-.34.04-.67.14-1 .11-.36.26.6.26.64.04.38.08.8.26 1 .19.21 1.24.9.89-.04-.18-.49-.42-1.22-.1-1.74.03-.04.59 1.45.64 1.58.12.33-.04 1.08-.23 1.32s-.4.27-.8.27c-.13 0-.29-.13-.38-.19-.16-.13-.36-.3-.5-.28 0 0-.16.27-.17.29l-.15.23c-.13.13-.32.26-.5.38-.45.3-.99-.22-1.07-.56m-9.77-8.13c.12.16-.17 1.03-.27 1.25-.15.35-.31.72-.42 1.1-.2.69-.29 1.57-.1 2.25.05.19.14.49.23.63l.18.21c.13.13.18.18.18.18.13.23.49-.09.54-.19q.04-.09.1-.34c.04-.18.11-.47.2-.53.45-.32-.12 1.94-.55 2.31-.7.6-1.37-.85-1.46-1.5-.14-.99.04-2.04.36-3.01.13-.4.27-.82.42-1.16.09-.21.18-.43.26-.64.07-.17.2-.53.33-.55m26.51 1.95c.05-.49.22-1.01.46-1.34.16-.22.95-.92 1.18-.31.11.29.22.57.22.89l-.04.28-.04.44-.04.32c-.03.18-.05.29-.04.32.02.1.31.34.47.47.16.14.43.35.46.53.04.21-.01.62-.14.74-.05.05-.19-.09-.23-.13-.1-.1-.22-.18-.34-.25-.27-.18-.63-.41-.81-.36 0 0-.31.36-.41.47-.11.13-.31.31-.47.46-.37.34-.75.69-1.16.96-.37.24-2.6 1.44-2.91 1.38-.28-.06.21-.45.29-.49l.14-.08.16-.08.16-.08c.19-.1.39-.21.56-.33.35-.26 1.01-.69 1.52-1.04.5-.33.98-.7 1.4-1.11.25-.24.4-.42.12-.7-.21-.21-.51-.59-.51-.96m16.69-.11c.41-.34 1.67.81 1.88 1.08.1.12.17.22.26.35.1.14.26.36.32.44.1.12.21.3.32.49.1.17.22.37.36.36l-.02-.18.04-.3.04-.84v-.16l.04-.44c.02-.3.05-.71.18-1q.06-.14.17-.29l.15-.23.08-.14.15-.23.2-.16c.06-.11.62-.2.72-.07.43.55.63.81.34 1.57-.04.09-.44-.33-.44-.33-.16-.17-.32-.34-.49-.37-.21-.04-.49.17-.55.34-.12.38-.12.67-.12 1.06s-.05 1.27-.1 1.62c-.04.28-.31 2.14-.61 1.91t-.06-.18q-.04-.2-.12-.4c-.11-.27-.21-.45-.34-.68-.22-.38-.52-.79-.82-1.12-.23-.25-.32-.26-.72-.31-.18-.02-.48-.23-.63-.35-.39-.29-.62-.9-.24-1.43m-54.5-.29c-.11-.22.05-1.04.24-1.18.32-.23 1.51.83 1.73 1.05.23.22.42.45.6.73.07.11.16.26.24.4.09.16.19.31.3.44.12.14.08-.56.08-.56-.04-.63-.06-1.01 0-1.32.1-.52.3-1.08.64-1.38.28-.25.73.38.79.54.14.33.24.74-.07.95l-.28-.28c-.11-.1-.33-.22-.48-.25-.24-.04-.24 1.57-.24 1.79 0 .45-.17 1.77-.39 2.1-.03.05-.56-1-.6-1.08-.18-.35-.46-.77-.75-1.02-.57-.51-.58-.51-.81.16-.19.57-.42.99-.71 1.44-.36.54-.95.98-1.51 1.33-.31.19-.59.34-.95.52-.04.02-1.44.55-.95.24.16-.1.39-.28.56-.41.21-.16.52-.42.92-.74l.15-.1s0 0 .28-.25l.52-.43c.43-.34.85-.76 1.15-1.23.15-.23.46-.71.12-.94-.22-.15-.46-.31-.59-.52m22.25.68c.06-.12-.27-.42-.41-.55-.28-.25-.49-.44-.54-.69-.09-.44.21-1.18.39-1.44.16-.22.48-.43.84-.39.3.03.46.44.54.7.1.29.06.75.04 1.05-.02.33-.05.62-.01.67l.25.26.16.17c.23.28.18.63.08.99-.02.06-.53-.35-.57-.38-.23-.18-.54.17-.73.38-.34.38-.68.74-1.02 1.11-.72.75-1.67 1.34-2.58 1.9-1.43.87 1.17-1.41 1.4-1.61.78-.68 1.48-1.36 2.15-2.16m20.81 2.96c.11-.15 3.01-1.77 4.04-2.32 0 0 .65-.35.92-.5.16-.09.33-.18.5-.27l.16-.08.28-.16.14-.08.16-.08.18-.08.28-.16.16-.08.28-.16c.31-.18 1.02-.57 1.13-.57.25-.02-.08.71-.12.77-.17.27-8.35 4.74-8.35 4.74-.21 0-.01-.95.23-.98m21.94-2.92c.07.29.9.91 1.2.86.11-.02.01-1.32-.46-1.4-.29-.05-.87.28-.75.54m-26.71-.76c.02.25.66.9.83.74.21-.19.1-.93-.07-1.09-.23-.23-.78.04-.76.35m-15.73-1.32c-.2-.35-.84-.03-.76.33.02.1.52.49.67.58.55.38.28-.77.09-.92m10.96 3.58c.08.1.11.59-.05.61-.21.03-.35-.16-.46-.29-.17-.22-.36-.44-.46-.47-.08-.02.04 1.02.05 1.14l.04.4v.18l.04.38c.03.2.08.49.12.72.05.27.12.68.14.84.04.28.06.47.1.72.05.27.08.52.12.8l.28 1.77c.33 2.48.64 4.93.85 7.13.05.53-.1 1.38-.2 1.95-.05.3-.29 1.21-.53 1.15-.15-.04-.13-.53-.11-.75.04-.86-.06-1.74-.16-2.61-.06-.51-.13-1.08-.2-1.58-.03-.22-.12-.98-.17-1.43-.21-1.92-.43-3.65-.77-5.5-.13-.72-.47-3.74-.68-5.66l-.04-.44-.04-.44c-.03-.25-.09-.73-.12-.84-.12-.39-.24-.76-.2-.88.06-.22.46-1.3.55-1.34.12-.01.36.65.44.86.07.2.15.41.24.6.1.22.22.51.32.76.07.16.12.32.18.48.06.17.18.49.18.5.07.14.2.42.31.66zm26.36 10.1s.07-.05.07-.05c.15-.09.4-.24.57-.12.11.09.1.48.09.62-.02.36-.04.73.06.96.18.41.54.65.89.88.39.26.9.26 1.49.26.69 0 1.7-.69 1.98-1.12.11-.17.26-.4.33-.52l.08-.14.08-.14.08-.16.08-.14c.22-.35.54-.87.78-.86.19.01-.17.73-.17.73-.11.22-.31.62-.22.76.26.4.58.6 1.03.8.2.09 1.78.47 1.8 0 0-.25-.11-.51-.22-.7-.18-.28-.33-.52-.26-.7.05-.14.11-.42.16-.64.05-.21.11-.44.23-.58.18-.19.52.7.57.86.14.43.38 1.25.24 1.73-.15.52-.39 1.36-.6 1.47l-.07.13c-.04.06-.11.1-.22.17-.16.11-.37.17-.58.22-1.23.27-2.26-.62-2.69-1.4-.07-.12-.6.67-.66.75-.19.29-.53.55-.85.7-.5.25-1.11.42-1.67.42-.43 0-.95-.19-1.33-.42-.26-.16-.47-.38-.62-.64-.03-.05-.13-.21-.14-.28v-.16l-.16-.28-.04-.2s-.1-.57-.18-.46l-.28.14c-.08.05-.2.16-.31.26l-.32.23c-.06.04-.08.05-.3.22l-.27.17-.23.19c-.29.23-.59.48-.61.55-.03.1-.08.57-.1.76-.05.52-.17.9-.28 1.28-.04.14-.61.87-.89 1.23l-.09.13c-.08.07-.31.3-.31.3q-.07.09-.2.2c-.1.09-.23.21-.3.33-.15.24-1.95 1.54-3.13 2.4-.65.47-1.52.78-2.42.98-.79.17-1.39.17-2.26 0-.3-.06-.61-.24-.85-.38l-.47-.41-.13-.07c-.22-.08-.68-1.14-.88-1.6-.08-.2-.13-.93-.12-1.16.02-.31.05-.67.08-.96q.05-.46.04-.7c0-.1-.49.22-.54.25-.2.13-.42.27-.62.4-.21.13-.42.26-.62.4-.11.07-.44.28-.65.4-.88.54-1.82 1.02-2.78 1.44-.98.44-1.99.77-3.27 1.03l-2.26.4-.24.04-.16.04c-.19.05-.38.09-.53.12-.34.06-1.1.19-1.24.15-.36-.09 2.82-1.28 2.93-1.32 1.16-.43 2.2-.86 3.25-1.39 1.94-.96 3.96-2.01 5.77-3.21.95-.63 3.39-2.32 3.55-3.01.05-.19-.57-1.33-.74-1.64-.27-.47-.65-1.14-.81-1.48-.11-.26-.21-.51-.3-.8-.12-.35-.29-.85-.42-1.06-.16-.25-.12-.52-.06-.86.03-.17.17-1.04.32-.98.18.07 2.03 2.12 2.04 2.39 0 .01-.36-.06-.36-.06-.18-.04-.35-.07-.48-.01-.17.07.65 1.47.72 1.58.33.49.67 1.08.75 1.79.07.64.06 1.75-.18 2.29-.27.62-1.34 1.62-2.36 2.57-.26.24-.26 1.22-.24 1.68.06 1.26 1.08 2.24 2.16 2.51 1.57.39 3.11-.31 4.3-.99.98-.55 1.99-1.31 2.84-2.13l.2-.16c.1-.09.2-.19.3-.29.17-.16.5-.49.5-.49.15-.17.53-.58.53-.58.11-.14.52-1.07 0-1.02q-.27.03-.38.06c-.18.05-.35.1-.59.14-.59.09-1.37.16-1.9.16-2.7 0-1.85-4.43.48-4.66.34-.03.94.27 1.33.46.34.17.77.68 1.02.99.12.15.28.41.39.6.16.27.27.24.56.1.47-.22.92-.52 1.35-.8.19-.13.39-.26.56-.42.16.01.62-.49.62-.43" fill="#1d1d1b" fill-rule="evenodd"/></svg>