<svg viewBox="0 0 82.29 26.05" xmlns="http://www.w3.org/2000/svg"><path d="m30.64 20.97s-.04-.01-.06-.02c-.23-.07-.7-.38-1.08-.63-.11-.07-.41-.57-.47-.71-.05-.12-.16-.43-.16-.56q-.02-.29.04-1.04c.01-.15.01-.25-.07-.35-.36-.45-3.5 1.12-3.66 1.2-1.08.54-2.15 1.05-3.39 1.46-.5.17-1.07.29-1.65.36-.5.07-.9.05-1.53-.04-.32-.04-.7-.1-.81 0-.02.02-.04.73-.06 1.22 0 .26-.07.5-.17.67-.34.58-1.86-.66-2.02-.8-.27-.22-.46-.65-.55-1.04-.06-.23-.14-.59-.16-.68-.04-.25-.12-.71-.22-.74-.57-.18-1.49-.17-2.02 0-.89.3-1.82.61-2.4 1.03-.48.35-1.46 1.06-1.54 1.13-.26.2-.52.42-.77.64-.13.12-.26.24-.38.39-.08.1-.24.25-.34.34-.47.39-.97.87-1.35 1.34-.4.49-.97.94-1.51 1.29-.63.42-1.92.94-2.72.36-.46-.33-.88-.72-1.15-1.24-.22-.44-.48-1.11-.4-1.69.11-.88.21-1.66.42-2.21.33-.85.76-1.53 1.25-2.21.28-.39.41-.56.11-.96-.21-.28-.37-.61-.46-1.01-.3-1.33.57-4.74 1.26-5.87.32-.54-.18 1.46-.21 1.54-.21.58-.42 1.17-.48 1.89-.06.63-.08 1.32.14 1.81.14.31.54 1.06 1.01.88.13-.05.25-.36.3-.52.06-.19.2-.59.36-.54.19.06-.3 1.58-.38 1.74-.09.18-.28.45-.5.64l-.14.06-.12.04c-.13.06-.19.15-.28.28-.61.91-1.24 1.85-1.55 2.79-.21.62-.34 1.57-.2 2.13.12.49.31.72.6 1.02.14.15.89.35 1.06.29l.22-.04.2-.04s.37-.13.52-.18c.07-.03.51-.27.75-.4.79-.45 2.01-1.71 2.73-2.48.82-.87 1.78-1.68 2.76-2.38 1.05-.76 2.28-1.4 3.73-1.65.03 0 .4-.04.59-.06h.36l.34.04.28.04.34-.28c.18-.06.45.17.6.29.49.41 1.13.85 1.81 1.03 3.13.85 5.3-.23 7.92-1.53.18-.09-.67-.37-.74-.4l-1.01-.32-.24-.08c-.2-.05-.53-.13-.61-.16-.31-.11-1.15-.41-1.3-.32l-.13.24c-.08.09-.15.1-.3.11 0 0-.6 0-.71 0-.07 0-.62.04-.7.05q-.53.04-.85.04c-.13 0-1.26 0-1.26 0v-.13c0-.12.07-.33.15-.56l.04-.12c.04-.13.1-.25.16-.36l.24-.39c.11-.22 2.42-.81 2.93-.88.43-.05 1.32.31 1.75.5.57.25 1.15.44 1.8.62.93.27 2.73.76 3.07.8 1.7.24 3.46.43 5.02.45.03 0-.28.7-.3.74-.12.27-.33.72-.5.85 0 0-.78-.06-.91-.07-.38-.03-.88-.07-1.09-.04-.63.09-.08.86.09 1.1.23.32.75.57 1.2.67.54.12 1.1.11 1.61-.04.76-.21 1.44-.58 1.97-1.03.2-.17.73-.9 1.11-1.41.12-.16.52-.7.67-.23l-.02.24c-.01.21.09.48.18.72.14.37.53.71.89.87.45.19.87.33 1.45.24.43-.06 1.07-.3 1.26-.57.28-.41-.16-3.5-.35-4.83l-.73-5.06c-.12-.83-.24-1.68-.32-2.41-.08-.7-.21-1.68-.32-2.53-.05-.39-.11-.84-.18-1-.14-.32-.17-.39-.06-.76.1-.34.36-1.26.52-1.26.02 0 1.06 2.05 1.11 2.18.19.42.43.97.58 1.28.09.18.49 1.31.1 1.13-.11-.05-.35-.34-.49-.51-.16-.19-.36-.43-.52-.45-.03 0 .16 1.36.18 1.49l.04.24q.06.32.08.52l.04.32.04.24.04.28c.08.63.26 1.72.4 2.57.37 2.22.58 4 .81 6.28.07.69.02 1.92-.28 2.67-.19.47-.45 1.12-.7 1.24-.49.23-1.19.56-1.41.58-.69.08-1.56-.03-2.09-.47-.18-.15-.37-.32-.49-.53-.09-.16-.2-.34-.24-.44-.07-.14-.16-.36-.22-.37-.07-.01-.37.46-.43.55 0 0-.29.37-.44.56-.27.35-.7.6-1.11.8-.45.22-1.15.57-1.55.57t-.31.05l-.22.02-.16.03c-.09.06-.81-.13-.95-.14m46.56-19.14c-.22.32.89.96 1.21.98.1 0-.04-.71-.06-.76-.07-.24-.11-.38-.26-.53-.2-.22-.67.14-.9.31m-25.97-.12c-.22-.37-.77.11-.76.39 0 .25.55.66.77.7.35.07.05-.96 0-1.09m-33.96 3.35c-.04-.21.61-.64.79-.76.17-.11.94-.68.91-.81-.07-.28-1.7-.12-2.02-.02-.26.08-.41.16-.57.33-.12.12-.39.41-.53.31-.24-.15.81-1.54.96-1.63.85-.52 2.16-.52 3.21-.22 1 .28-.07 1.46-.43 1.76-.25.2-2 1.15-2.31 1.03m49.25-2.25c-.06-.34.02-.73.15-.95.27-.48 1.82.93 1.94 1.07.19.22.39.45.57.68.11.14.21.3.31.45.09.14.27.44.36.38.04-.03.06-1.83.06-1.83 0-.33.04-.77.16-1.08.39-.99 1.65-2.04 2.02-.32.04.21-.1.66-.24.74-.05.03-.32-.24-.42-.34-.13-.13-.31-.3-.49-.33-.23-.04-.45.29-.57.46-.03.04-.01.91-.01 1.03 0 .38-.02 1.17-.05 1.62-.02.38-.17 1.69-.37 1.86-.07.06-.29-.44-.34-.53-.04-.1-.27-.44-.4-.64-.21-.32-.48-.67-.73-.99-.11-.14-.27-.28-.41-.38-.06-.04-.14-.09-.19-.09-.15.01-.32.03-.4 0-.3-.12-.88-.44-.95-.78m-11.29 2.84c.08-.03 1.29-.8 1.81-1.15.67-.44 1.38-.85 2.08-1.25.73-.41 1.47-.85 2.18-1.28.53-.33 2.13-1.22 2.15-1.22.2-.04-.05.72-.12.85-.13.21-3.83 2.42-4.59 2.82-.75.4-1.54.88-2.4 1.44l-.16.08-.14.08c-.21.13-.41.27-.6.42-.06.04-.37.29-.39.03-.01-.12.08-.76.19-.82m-4.74-2.2s-.03-.03-.18-.22c-.12-.16-.25-.34-.3-.49-.26-.91.46-1.75.99-2.13.18-.13.58.1.64.3l.06.14c.06.16.07.22.08.48.01.23 0 .47-.04.84-.03.31-.07.75-.01.8l.21.17q.08.06.21.17c.17.15.36.32.46.45.15.19.03.67-.09.83 0 0-.49-.32-.57-.37-.19-.13-.61-.4-.75-.36-.03 0-.37.38-.52.53-.09.1-.2.22-.28.32-.05.07-.24.29-.24.29-.15.16-.34.32-.51.46l-.15.1-.28.25-.23.16s-.83.48-1.12.63c-.16.08-1.24.59-1.25.56-.17-.29.08-.43.24-.52.22-.13.44-.26.64-.4.15-.11.56-.41.56-.41.16-.14.33-.27.51-.39.39-.26 2.25-1.63 1.89-2.18m-45.49 1.41c-.07-.04-.49.63-.59.79-.13.21-.4.47-.65.7-.36.33-1.28 1.15-1.57 1.16-.31.02.77-1.05.92-1.2.43-.43 1.18-1.17 1.24-1.44.01-.05-.2-.17-.26-.2l-.27-.17c-.1-.08-.24-.28-.27-.43-.06-.26.1-1 .28-1.1.42-.23 1.68 1.01 1.94 1.31.22.26.44.52.65.8.08.11.21.34.31.51.05.09.37.65.42.62.09-.08.09-1.18.09-1.5 0-.34.04-.84.12-1.2.06-.26.4-1.13.62-1.18.41-.1.79.36 1.06.69.37.46.34.51.07 1.05-.03.06-.9-.57-.9-.57-.14-.11-.25-.18-.46-.1-.11.04-.14.33-.15.39l-.04.92v.36c-.02.31-.24 2.74-.56 2.74 0 0-.18-.4-.21-.46l-.06-.16-.08-.2c-.09-.19-.3-.52-.44-.76-.2-.32-.75-.92-1.18-1.38m72.81-1.03c.03-.06-.43-.48-.58-.62-.31-.28-.48-.56-.45-.99.06-.74.4-1.45.93-1.81.2-.13.56-.02.68.15.39.58.42 1.48.45 2.2.02.41.14.51.41.72.1.07.21.15.24.27s-.02.84-.09.78c-.16-.14-.85-.55-1.2-.4q-.14.17-.6.7l-.43.38c-.35.32-1.23 1.08-1.32 1.11-.05.02-.14.08-.24.16l-.24.16-.34.24-.12.08c-.38.25-.79.49-1.19.72-.31.18-2.16 1.01-2.49.98-.27-.03.75-.65.76-.66.14-.09.26-.16.42-.24s.36-.21.53-.32l.32-.22c.13-.07.33-.2.5-.32l.13-.07.36-.24c.16-.1.48-.32.61-.4.26-.16.26-.16.26-.16.16-.11.35-.24.58-.4l.12-.08.13-.09c.14-.1.35-.28.6-.49l.2-.16.33-.27c.11-.09.72-.64.73-.72m-59.42 4.76c.7-.28 2.32-1.21 3.26-1.75q.13-.06.28-.14l.16-.08.26-.12.14-.08q.19-.11.3-.16c.17-.08.35-.16.5-.24.3-.15.63-.29.93-.42l.28-.12.16-.06c.13-.06.47-.21.49-.22.61-.38 3.65-1.57 5.67-2.35.11-.04.35-.15.5-.22.18-.08.35-.14.53-.2s.42-.15.65-.24l.12-.04.16-.06.28-.1.4-.16.12-.04c.27-.1.57-.2.81-.28 0 0 1.36-.45 1.27-.2-.12.36-.26.76-.48 1l-.27.09-.2.06s-.43.16-.65.24c-.38.14-.8.3-1.17.42l-.97.36c-.24.08-.46.16-.69.26-.22.1-.46.19-.69.28-1.64.63-3.26 1.3-4.84 2.03-1.35.62-4.49 2.11-4.56 2.15-.11.06-1.32.67-2.08 1.04-.17.08-.48.24-.48.24-.18.1-.55.29-.55.29-.25-.03.24-1.07.33-1.17m31.73-1.05c.14-.17.56.15.7.25.16.12.68.47.71.47.27.04.42-.28.54-.54.08-.18.3-.61.53-.6.29 0 1.22.85 1.41 1.08.29.35-.47 1.43-.68 1.49-.07.02-.56-.36-.7-.47-.26-.2-.63-.5-.83-.46-.04 0-.32.57-.35.63-.12.25-.27.53-.34.58-.18.13-2.71-1.11-.99-2.43m-18.76 2.02c-.09-.55-.2-1.27-.17-1.54.04-.31.06-.67.08-.92 0-.12.08-.45.13-.62.11-.34.2.28.2.28.02.11-.02.42-.04.62-.03.28-.09 1.01.02 1.12.21.21.43.43.57.46.49.12.89-.41 1.05-.72q.08-.17.06-.86l-.04-.52-.04-.24-.04-.24c0-.19.14-.78.33-.68.08.04.18.92.19 1.14.01.28.05.63.22.84.24.29 1.55 1.04 1.01-.04-.16-.32-.59-2.13-.05-2.16.03 0 .13.44.15.54.05.21.13.45.2.64 0 0 .53 1.4.3 1.28l-.02.32c-.02.16-.05.24-.1.36-.07.17-.14.31-.27.41-.25.18-.41.25-.78.17-.16-.04-.27-.11-.38-.19-.18-.14-.31-.25-.52-.24l-.15.26q-.08.14-.16.26c-.13.19-.28.33-.46.46-.49.35-.87.09-1.28-.19m33.35-3.51s-.17.56-.26.84c-.14.41-.22.86-.2 1.37.02.54.42 1.31.98 1.22.05 0 .24-.34.26-.42.05-.19.13-.56.21-.54.2.05-.15 1.24-.21 1.38-.24.57-.52.74-1.09.36-.25-.17-.44-.76-.5-1.12-.12-.68.46-3.16.83-3.09m13.84.64c.01.22-.19.65-.28.84-.21.42-.23.47-.26 1.1-.01.28.23.97.42 1.06.27.14.36.11.57-.16q.07-.09.1-.2c.03-.11.11-.38.2-.25.28.39-.49 1.75-.9 1.64-.62-.17-.83-1.19-.7-1.9.09-.53.21-.86.36-1.29.06-.16.37-.98.5-.84m-55.64 3.61c-.5-1.49.58-1.26 1.34-.71.33.24.59.53.83.86.17.24.79 1.11.86 1.09.05-.01 0-1.27 0-1.27-.11-.32-.06-.9 0-1.28.09-.56.36-1.54 1.06-1.19.36.18 1.05 1.18.55 1.61-.07.06-.6-.39-.69-.47-.6-.49-.6.52-.6 1.09 0 .11-.1 3.83-.48 3.09l-.08-.24c-.03-.09-.2-.38-.3-.56-.2-.34-.42-.68-.65-1-.36-.48-1.15-.77-1.84-1.02m10.85 1.99c-.17-.25.54-1.55.96-1.3.37.22 1.02.67 1.16 1.12.11.35-.73 1.22-.91 1.16-.24-.07-1.1-.79-1.21-.98m-27.18.1c.04-.28.21-.88.32-1.28.04-.15.32-1.11.44-1.06.02 0-.06.31-.07.38-.04.16-.12.48-.12.48-.09.42-.26 1.17-.24 1.31.11 1.16.53 2.4 1.18.85.08-.19.08.61.03.78-.09.31-.2.57-.38.78-.16.17-.32.22-.56.09-.62-.33-.66-1.57-.59-2.32m5.13 1.73c-.18-.5-.3-1.1-.36-1.73-.07-.67.67-4.53 1.1-4.95.23-.22.14.68.12.82l-.08.4-.06.2q-.09.27-.1.32c-.17.86-.3 1.51-.32 2.39-.02.86.29 1.89 1.03 2 .15.03.37-.41.42-.54.08-.18.32-.75.36-.74.26.07-.43 2.03-.46 2.08-.14.27-.35.46-.66.52-.13.03-.69-.51-.97-.78m56.31 1.91c-.1-.27-.8-.7-1.13-.76-.68-.14-1.01.18-1.39.55-.31.31.88.48 1.02.49.24.02 1.31-.02 1.49-.28m-13.94.9c.12-.45-1.5-1.26-1.96-1.49-.62-.31-1.24 1.28-1.43 1.85-.07.22.13.61.25.86.09.19.72.2.94.13.37-.11 2.21-1.07 2.2-1.34m-3.61 2.71-.08-.14q-.07-.11-.12-.24c-.13-.36-.15-.46-.18-.96-.04-.62.15-1.53.34-2.09.09-.24.17-.46.28-.68.13-.26.29-.56.3-.66 0-.02-.46-.39-.61-.52-.19-.15-.38-.31-.56-.48-.21-.19-.46-.42-.61-.61-.09-.11-.22-.28-.27-.32l-.23-.15c-.13-.08-.15-.1-.18-.18-.13-.41-.13-1.27.03-1.65.04-.09.45.18.52.23t.18.06s.33.12.44.16q.16.06.36.14t.36.14c.17.06.68.25.71.34.06.18-.05.23-.18.26-.24.07-.44.12-.45.22-.02.16 1.21.89 1.42.94.09.02.3-.28.36-.38.13-.19.32-.47.42-.59.15-.18.3-.37.43-.57.13-.19.27-.38.41-.56q.16-.2.47-.63c.08-.12.17-.24.26-.35.25-.34.28.01.21.25-.08.29-.14.55-.2.88-.07.38-.42.86-.67 1.2-.22.3-.79 1.08-.68 1.28l.15.09.14.08s.24.16.36.24c.21.14.38.29.55.47.35.39.67.83.74 1.47.04.4-.21 1.7-.42 1.91-.45.44-1.41 1.34-1.98 1.46l-.14.06q-.16.08-.22.1c-.2.07-.46.15-.67.16-.27.01-.88-.14-.99-.4m-6.73-19.66c.37.33 2.09 4.55 2.03 5.2-.01.13-.53-.43-.55-.44-.13-.15-.51-.55-.57-.52-.09.05.3 3.19.36 3.64l.08.76c.04.28.1.76.12.92.04.25.1.61.12.82v.14l.04.32.04.32c.13 1.03.26 2.17.36 3.13q.04.3.08.56c.06.35.1.83.12 1.2v.12l.04.28.04.4c0 .14.04.62.04.62v1.06l-.06.56-.02.36-.04.44q-.04.46-.08.6c-.08.33-.32 1.29-.46 1.31-.17.02-.12-.91-.11-1.1.02-.28-.04-1.07-.08-1.59-.07-1.02-.18-2.23-.28-3.07l-.08-.64c-.04-.36-.1-.88-.12-1.04-.06-.49-.19-1.46-.2-1.6-.03-.36-.1-.87-.16-1.29-.1-.62-.19-1.31-.24-1.93-.15-1.74-.43-5.01-.71-6.28l-.02-.26c-.02-.21-.07-.45-.12-.64-.11-.46-.2-.82-.2-.84.03-.24.51-1.56.62-1.54m31.68 20.77c.33-.14.7-.12.97.02.28.15.64.35.93.24.32-.12.56-.28.76-.51.09-.11.14-.19.21-.33.06-.14.16-.35.3-.32v.26s.03.2.03.2c.02.05.15.12.22.16.18.1.44.19.63.08.1-.06.17-.36.26-.72.04-.17.17-.43.27-.56.48-.6-.31 1.76-.37 1.86-.12.2-.4.37-.69.4-.1.01-.27-.04-.4-.08-.33-.1-.47-.14-.5-.14l-.23.19c-.11.09-.23.18-.36.25-.42.23-.79.2-1.19 0-.74-.37-1.22-.13-1.84.28-1.09.72-2.53 1.68-3.27 1.91-.18.05-.71.22-.76.08-.03-.07.19-.2.24-.22.19-.07.36-.13.57-.27q.26-.16.4-.25l.26-.16c.24-.15.61-.4.72-.49.61-.49 2.37-1.8 2.85-1.87m-51.15 1.98.07-.16.08-.22s.01-.02.16-.28c.13-.22.3-.51.42-.56.21-.09 1.6 1.11 1.65 1.42.04.22-.67 1.14-.85 1.16-.18.03-1.55-1.19-1.54-1.37m10.78.91c-.16-.54.14-1.42.32-1.85l.06-.16.06-.16c.02-.07.09-.24.12-.32.04-.11.32-.86.26-.32l-.06.16-.06.16s-.1.34-.14.48c-.05.17-.19.88-.16.88l.04.44.1.32c.06.15.15.28.25.39.17.19.44.02.52-.15.07-.15.21-.48.3-.45.08.02-.09.57-.11.66-.09.28-.2.5-.35.71-.51.76-1.03-.32-1.14-.8m25.81 1.67c-.43-.04-1.35-.34-1.55-.58l-.55-.51c-.22-.24-.43-.5-.58-.81-.19-.42-.28-.87-.36-1.41-.04-.28-.02-.66 0-.92l.06-.44c.02-.16.03-.46.01-.59-.03-.2-1.47.82-1.54.88-.38.28-.98.65-1.48.96-1.02.62-2.43 1.48-3.45 1.85-.55.2-2.05.5-3.07.7-.59.12-1.22.26-1.77.4-.35.09-1.44.36-1.55.23-.15-.18 1.08-.65 1.26-.72q.27-.1.37-.14c.16-.08.37-.16.56-.24.29-.12.61-.24.89-.34.63-.23 2.11-.96 3.21-1.51 1.91-.95 3.79-2.12 5.51-3.29.75-.51 3.79-2.63 3.41-3.45-.4-.89-.89-1.68-1.39-2.49-.4-.64-.96-1.87-1.11-2.57-.04-.19.23-1.46.4-1.42.1.03 2.05 2.13 2.06 2.22.02.15-.04.13-.18.1-.2-.04-.44-.1-.63-.07-.22.02.25.72.27.76.08.12.16.27.24.42.08.14.16.27.24.4.32.47.65 1.01.79 1.64.12.53.12 1.84-.08 2.33-.26.64-.58 1.02-1 1.5-.19.22-.43.46-.66.64-.29.23-.6.48-.66.65-.18.51-.18.84-.18 1.55 0 .37.33.99.54 1.4.15.29.86.87 1.21.94.65.14 1.2.25 1.62.2.82-.1 1.54-.25 2.14-.58 1.44-.81 2.61-1.79 3.81-2.82.57-.49 1.21-1.12 1.61-1.77.53-.87-.39-.73-.94-.61-.62.14-1.97.38-2.22.24l-.2-.04-.16-.04c-.13-.04-.28-.08-.4-.14-.23-.11-.42-.28-.57-.46-.34-.42-.38-1.51-.14-2.11.34-.85.78-1.62 1.76-1.83.8-.17 1.49.35 1.95.73.24.2.44.41.64.65.17.21.58.73.63.74.32.1 1.87-1.11 2.22-1.38.25-.2.91-.7 1.05-.7.25 0 .32.26.32.48 0 .55 0 1.01.06 1.14.06.14.55.55.95.88.28.23 1.12.24 1.51.18.53-.08.94-.35 1.36-.63.38-.25.61-.67.84-1.07.32-.58.77-1.4.92-1.5.3-.19.1.49.07.58-.17.4-.32.76-.28 1 .06.32.94.73 1.28.83.33.1 1.6.19 1.55-.22-.03-.24-.15-.46-.26-.62-.11-.17-.29-.44-.3-.5-.02-.14.28-1.14.38-1.44.05-.16.32.28.32.28.11.18.2.35.28.56.2.51.32 1 .34 1.58.02.56-.3 1.24-.54 1.61-.2.3-.45.46-.85.56-.44.12-1.04.03-1.49-.16-.29-.12-.54-.27-.76-.47-.1-.09-.2-.19-.26-.26-.08-.12-.3-.41-.32-.43-.07-.06-.28.27-.32.34l-.08.14-.08.14-.16.24c-.22.27-.5.48-.79.68-.72.52-2.08.61-2.88.16-.32-.18-.62-.45-.81-.76-.1-.17-.21-.35-.26-.56-.03-.14-.2-.8-.26-.74l-.14.06-.12.08s-.23.19-.34.29c-.09.08-.35.27-.53.4-.41.3-.91.67-1.14.95l-.02.4c-.02.26-.05.7-.08.96-.04.29-.11.52-.22.72-.86 1.53-2.13 2.72-3.46 3.78-.3.24-.89.7-.98.76-.17.11-.35.22-.53.32-.29.17-.57.33-.58.34-.29.37-2.87 1-3.38.77m-41.34-1.26c-.06-.53.48-2.41.77-2.62 0 0-.18.75-.2.82-.12.49-.21 1.09-.12 1.49.05.2.21.62.38.66.34.07.44.04.55-.26.05-.16.18-.54.3-.52.09.01-.11.72-.14.8-.1.31-.22.58-.38.82-.13.2-.33.2-.56.12-.41-.14-.62-.81-.59-1.31m-10.29.84c.09-.03.4-.2.54-.28.25-.14.51-.28.77-.4.01 0 .46-.25.65-.36.23-.13.47-.27.69-.36.44-.19.91-.44 1.33-.68.31-.18 1.19-.64 1.33-.64.11 0-.13.83-.35.88 0 0-.43.23-.61.32l-.22.14-.14.06s-.1.05-.3.16c-.43.23-.89.46-1.33.66-.2.09-.38.19-.57.3-.21.13-.44.25-.67.36-.22.11-.65.32-.65.32-.19.1-.65.34-.71.34-.32 0 0-.77.22-.82" fill="#1d1d1b" fill-rule="evenodd"/></svg>