<svg viewBox="0 0 78.03 25.25" xmlns="http://www.w3.org/2000/svg"><path d="m73 1.85c.02.28.92.89 1.25.82.08-.02-.08-.78-.12-.9-.06-.17-.12-.36-.26-.42-.29-.14-.9.04-.87.5m-26.71.12c.02.28.46.64.65.68.54.12.24-.96 0-1.18-.11-.1-.7.18-.65.49m16.26 1.06c-.25-.2-.31-1.23.11-1.32s1.05.43 1.34.7c.31.29.58.57.85.9.17.2.82 1.02.83 1.01 0 0 .02-.4.02-.4 0-.29.04-1.16.04-1.18 0-.38 0-.97.2-1.37.21-.42.45-.86.87-1.08.62-.33 1.02.48 1.11.94.03.18-.23.58-.44.49q-.11-.13-.18-.2c-.12-.12-.26-.25-.41-.33-.22-.12-.48.14-.58.25-.13.13-.13.96-.13 1.3 0 .43-.01 1.07-.04 1.48-.03.4-.15 2.11-.54 1.92l-.07-.19c-.07-.22-.1-.3-.1-.32-.08-.17-.2-.37-.32-.54-.21-.32-.43-.63-.67-.92-.19-.22-.57-.68-.78-.65-.24.03-.45-.05-.68-.19l-.44-.3zm-60.2-1.34c.28-.27 1.66 1.01 1.84 1.21.23.26.44.54.65.82.07.1.57.78.59.75l.06-.58v-.42c.03-.47.11-.8.2-1.16.08-.32.42-1.16.65-1.29.55-.31 1.56.82.9 1.6-.05.05-.36-.25-.49-.38q-.09-.1-.23-.17c-.65-.35-.61.68-.59 1.02.02.36-.15 3.5-.62 3.34-.02 0-.05-.13-.06-.18-.04-.16-.11-.31-.18-.44l-.06-.12-.06-.16c-.06-.13-.13-.28-.2-.4-.28-.45-.6-.87-.93-1.28-.12-.14-.34-.37-.56-.35-.3.03-.52-.1-.75-.29-.45-.37-.52-.94-.15-1.51m48.67 3.92c.61-.62 8.13-4.95 8.33-4.95.18 0-.21.86-.23.9-.05.08-1.55.97-2.02 1.24-.71.4-1.45.83-2.12 1.28-.33.22-.71.46-1.05.64-.43.23-.83.46-1.21.74-.01 0-.37.22-.52.32l-.27.15q-.19.11-.38.24l-.14.08-.23.17c-.41.3-.25-.54-.14-.8m-4.51-2.09c-.32-.29-.62-.6-.7-1.09-.05-.3.26-1.1.38-1.31.09-.15.59-.62.73-.42l.07-.15h.21c.23.03.33.36.39.59.04.19.02.57 0 .86-.02.34-.06 1-.02 1.07.05.09.37.31.5.4.16.1.45.31.44.56 0 .24-.02.69-.22.69-.09 0-.97-.73-.96-.8.07-.23-1.23 1.06-1.23 1.06-.27.27-.98.93-1.1.97-.03.01-.18.13-.24.17-.02.02-.29.16-.43.23l-.28.16-.26.16-.14.08c-.4.21-.82.44-1.25.58-.35.12-.04-.42.16-.52.24-.12.43-.24.64-.38.18-.12.38-.27.55-.41.21-.17.43-.32.66-.47.38-.25 2.32-1.63 2.09-2.04m-39.18 3.3s.4-.24.5-.31l.16-.08.24-.14.14-.06.26-.14.14-.06.16-.08c.25-.13 1.11-.54 1.68-.8.35-.17.73-.32 1.09-.46l.16-.06.4-.16.16-.08.24-.06.22-.06c.12-.04.3-.14.42-.21s.3-.16.53-.25c.09-.03.35-.14.48-.2q.14-.06.32-.14c1.35-.6 2.72-1.17 4.11-1.67.64-.23 1.36-.48 1.94-.72 0 0 .32-.12.44-.16l.24-.08.2-.06c.05-.02 1.12-.39 1.07-.12-.06.28-.25.86-.58 1.02l-.24.04-.12.04-.16.06-.28.1c-.42.15-.82.3-1.23.46-.26.1-.73.28-.79.3-.33.11-.63.23-.93.36-1.45.62-2.89 1.22-4.36 1.79-.67.26-1.36.55-2.04.84-.14.06-.42.18-.43.18l-.12.04-.14.06-.18.08-.2.08c-.12.05-.3.12-.38.16-.17.08-.36.18-.5.24-.68.29-1.33.62-1.98.96-.12.07-.97.51-.98.49-.12-.13.19-1.04.32-1.15m10.74.2.12-.07q.17-.12.23-.15c.15-.08.31-.17.46-.24s.7-.33 1.03-.48.65-.29.99-.44c.26-.11.54-.24.81-.36.57-.26 1.17-.53 1.78-.74.67-.24 1.36-.5 2.02-.78.28-.12.58-.24.89-.34.34-.11.68-.24 1.01-.38.29-.13.58-.25.89-.36.35-.13.9-.34 1.05-.4.63-.27 1.27-.53 1.93-.76.33-.11.77-.27.97-.36.26-.12.95-.44 1.1-.33.17.12-.2.81-.28.95-.05.09-1.46.65-1.79.77-.69.25-1.36.49-2.02.78l-4.4 1.77c-.18.08-.37.15-.57.22-.11.04-.27.11-.4.16l-.12.04c-.09.03-.16.06-.36.14l-.2.08-.2.08-.2.08-.2.08c-.68.3-1.31.57-1.98.88-.27.13-.56.27-.8.4l-.28.1-.14.06c-.24.1-.56.24-.71.32-.18.1-1.01.53-.99.24 0-.16.28-.83.37-.94m55.56-3.28s-.37-.39-.6-.59c-.16-.14-.35-.35-.41-.58-.18-.7.4-2.1.99-2.23.24-.05.51.04.66.24.11.13.26.57.29.79l.04.48v.16l.04.58c0 .09.03.46.03.46 0 .02.19.17.21.18.12.1.21.17.27.26.1.14.36.97.02.99-.03 0-.29-.19-.46-.31-.18-.13-.4-.2-.78 0l-.09.13c-.09.11-.22.26-.51.5l-.38.37c-.1.09-.2.18-.3.27-.1.1-.21.2-.32.29l-.13.08-.2.16c-.1.08-.31.25-.35.29-.4.4-1.48 1-2.06 1.31-.77.41-1.65.72-2.55 1.03-.27.09.66-.6.71-.63.31-.19.64-.39.95-.56.31-.18.61-.37.91-.56.16-.1.32-.21.47-.32s.36-.26.46-.32c1.14-.67 2.22-1.5 3.08-2.45m-44.86 4.51c.01-.1.05-.21.1-.3l.08-.14.14-.24q.14-.29.37-.57c.05-.14.82.37.87.41.19.12.73.49.85.38.02-.02.28-.44.39-.62.12-.2.25-.4.48-.48.2-.07 1.18.8 1.31 1.04.24.43-.29 1.44-.73 1.51-.02 0-.46-.34-.67-.5-.26-.2-.6-.47-.72-.49-.04 0-.14.15-.16.19-.08.13-.19.26-.3.35-.1.1-.19.18-.28.28-.12.13-.22.25-.23.25-.27.03-1.55-.89-1.51-1.06m16.61.58c-.2-.22.42-1.38.65-1.45.18-.05.56.23.72.35.21.15.56.4.78.45.09.02.37-.48.42-.58.12-.24.29-.58.52-.62.08-.01.51.33.69.47l.22.18.15.1.37.35c.26.09-.19.84-.21.88l-.25.3q-.15.25-.16.26c-.12.1-.62-.27-.79-.4-.23-.17-.71-.53-.73-.53-.1-.04-.39.56-.45.68-.13.3-.31.69-.62.54-.16-.07-1.31-.89-1.31-.98m15.68.5c.15-.08.2-.22.24-.4.05-.19.13-.53.22-.54.22-.02-.12 1.87-.69 1.97-.26.05-.51-.16-.7-.31-.04-.03-.22-.41-.29-.55-.04-.08-.06-.22-.08-.32l-.04-.28s-.02-.24-.02-.24c-.01 0 .04-.46.06-.6.04-.27.08-.53.16-.76.05-.16.47-1.26.55-1.12 0 0-.17.6-.22.8-.1.34-.18.76-.16 1.04.03.42.45 1.66.97 1.32m12.51.36c-.27-.66.33-2.87.77-3.14.25-.16-.3 1.02-.3 1.02-.13.27-.21.81-.18 1.02.05.31.23.9.47 1.02.25.13.39 0 .53-.2.05-.08.31-.46.32-.44.17.23-.37 1.29-.43 1.39-.49.73-1.07-.16-1.16-.67m-52.53.79c.35-.47 1.57.98 1.68 1.11.13.16.37.52.55.79.07.11.6.9.65.84 0 0 .01-.7.02-.88.02-.73.08-1.98.12-2.09.15-.38.44-1.08.67-1.19.26-.11.51.07.65.25.11.14.21.26.27.41l.06.16.06.32c.09 0-.08.48-.08.48-.05.14-.13.3-.3.2l-.06-.14c-.03-.05-.1-.14-.18-.23-.1-.13-.25-.31-.35-.39-.31-.24-.42.09-.42.32v.24s0 .13 0 .13v.15s0 .56 0 .56c0 1.09-.19 2.29-.53 3.44-.07.22-.28-.36-.3-.39-.1-.28-.22-.51-.36-.74-.25-.43-.49-.83-.8-1.19-.15-.18-.28-.33-.41-.37-.29-.1-.52-.19-.74-.34-.52-.35-.54-.9-.2-1.46m12.18 3.43c.16-.49-.88-1.83-1.43-1.79-1.44.12-.98 2.42-.19 3.05.17.13 1.59-1.04 1.62-1.26m-21.63-5.33c.38-.18-.18 1.57-.18 1.59-.18.57-.37 1.19-.4 1.64-.05.82.18 1.9.79 2.11.23.07.36-.23.42-.38 0 0 .05-.16.08-.28.04-.14.11-.38.19-.41.42-.15.07 1.07 0 1.3-.12.42-.31.67-.55.96-.5.62-1.19-.51-1.35-.92-.4-1.06-.21-2.34.12-3.33.11-.34.28-.85.34-1.04.08-.28.37-1.22.52-1.22m52.25 7.31c-.03-.67-2.02-1.18-2.51-.13-.1.22.69.39.91.4.25.01 1.61-.01 1.6-.28m-13.95.94c.2-.5-1.97-1.69-2.3-1.57-.19.07-.99 1.59-1.07 1.93-.15.68.45 1.11 1.03.98.61-.13 2.15-.91 2.34-1.35m-32.94.82c-.08.56.92 1.56 1.44 1.46.12-.02-.37-.87-.42-.93-.14-.21-.69-.74-1.02-.53m29.23 1.69c-.42-.42-.22-1.88-.1-2.59.07-.39.2-.72.34-1.05l.08-.16.14-.28c.09-.17.16-.34.2-.52 0-.04-.41-.36-.52-.44l-.13-.09c-.19-.16-.43-.4-.64-.61l-.13-.08-.18-.18-.08-.13-.2-.2c-.14-.14-.26-.26-.31-.29-.12-.07-.24-.14-.28-.28-.07-.23-.13-1.54.08-1.69.07-.05.24.11.25.13.04.04.11.11.15.13l.32.12c.12.04.34.13.53.2l.12.04.16.06.16.06.16.06q.18.07.3.12l.38.2c.27.09-.1.26-.12.26-.23.06-.49.11-.54.19-.11.17 1.23.94 1.43.98.1.02.52-.58.64-.76.18-.26.43-.6.65-.9.18-.25.39-.52.57-.74.11-.14.21-.28.31-.43.09-.14.24-.37.36-.38.23-.02-.29 1.66-.4 1.83-.19.27-.45.66-.57.83-.08.11-.16.22-.23.33 0 0 0 0-.16.26l-.16.24c-.14.2.24.42.38.5.18.1.35.21.5.33.23.19.59.48.69.74.36.83.57 2.03 0 2.91-.37.57-1.06.98-1.65 1.32-.37.21-.83.47-1.29.5-.36.02-.75-.1-1.21-.56m-6.02-19.18c.25.41.78 1.89 1.14 2.88l.12.32.06.14q.04.08.12.3c.09.22.27.69.26.8-.03.36-.31.11-.43-.03-.1-.12-.38-.47-.49-.39-.07.04.12 1.19.15 1.39.08.45.17 1.16.24 1.73.15 1.21.3 2.38.48 3.57.17 1.11.33 2.26.48 3.37.07.49.16 1.17.2 1.61.07.68.08.82.08.86v.22l.04.52v1.07c-.01.39-.03 1-.12 1.46-.05.27-.3 1.42-.52 1.34-.01 0-.08-.92-.09-1v-1.06l-.04-.44-.04-.5c-.04-.6-.21-1.95-.33-2.87-.06-.5-.26-2-.4-3.05-.05-.4-.2-1.49-.2-1.49l-.04-.24-.04-.16c-.05-.31-.08-.55-.12-.84-.24-1.95-.52-4.11-.8-6.16q-.03-.24-.04-.39c-.02-.31-.05-.69-.12-.92-.1-.36-.21-.72-.16-.88.07-.23.46-1.33.6-1.15m-1.45 21.11-.04-.16-.22-.36c-.12-.37-.7.5-.72.6-.03.12-.07-.31-.06-.36.01-.09.1-.3.14-.4.13-.32.3-.64.58-.8 1.04-.59.65 1.99.26 2.43l-.34.37-.08.13-.17.18s-.96.89-.66.24c.03-.07.32-.42.43-.54l.29-.35c.21-.26.58-.73.58-.96m32.87-.7c.38-.13.69.05.93.22.21.15.45.17.72.1.26-.06.53-.26.69-.44.09-.1.18-.24.24-.36.08-.14.19-.36.28-.36l.03.34q.03.16.22.28c.17.11.49.21.66.08.04-.03.13-.34.24-.72.04-.15.2-.61.38-.6.25.01-.18 2.01-1.05 2.27-.19.06-.33.03-.52-.04-.28-.1-.45-.16-.56-.09-.4.26-.86.55-1.02.57-.24.04-.46-.07-.73-.2-.26-.13-.36-.18-.77-.16-.29 0-1.61.88-2.36 1.38-.48.32-2.16 1.38-2.7 1.11-.05-.03.53-.36.58-.39.28-.16.57-.32.81-.48.2-.13.42-.28.6-.41.22-.16.44-.32.67-.47.2-.13.48-.34.79-.56l.21-.17.2-.16c.4-.29.87-.62 1.44-.73m-47.9 1.2c-.16-.34-.07-1.3.45-1.12.35.12.66.4.92.63s.51.51.69.82c.09.15.57.92.58.92.04-.02.15-.82.17-.98.06-.43.11-.9.2-1.17.08-.25.17-.51.3-.72.16-.27.9-.31 1.13.16.07.14.13.28.2.44.12.27.34.95-.08 1.02-.05 0-.17-.15-.21-.21-.05-.08-.16-.17-.25-.26-.23-.22-.42-.41-.61-.45-.26-.05-.33.49-.36.74-.07.51-.14 1.03-.24 1.45-.06.26-.47 1.88-.64 1.08-.12-.55-.45-1.06-.78-1.41-.24-.25-.37-.4-.67-.45-.16-.03-.75-.31-.79-.48m-22.38 2.24c-.29-.1-.81-.86-.93-1.15-.26-.62-.32-1.38-.32-1.97 0-.99.47-2.24.87-3.03.09-.19.21-.37.33-.53 0 0 .27-.43.37-.6t.31-.43c.12-.18.36-.56.38-.62 0 0-.38-.58-.51-.76-.16-.24-.27-.56-.34-.88-.26-1.18.14-2.67.44-3.73.05-.17.83-2.89.98-2.26 0 0-.4 1.3-.51 1.62-.12.35-.42 1.48-.38 1.73l-.04.4v.56c.02.29.07.77.16.96.22.43.44.88.69 1.04.28.19.5-.25.58-.42.1-.19.36-.71.42-.72.3-.05-.38 1.62-.4 1.66-.1.23-.26.59-.4.7-.18.14-.33.4-.47.65-.52.91-1.02 1.8-1.51 2.79-.36.71-.45 1.76-.45 2.39 0 .35.11.84.34 1.04.32.28.5.44 1.01.56.48.12 1.42-.19 1.84-.38.59-.28 1.17-.77 1.67-1.21.23-.2.49-.43.7-.63.26-.25.56-.53.82-.73 1.11-.86 2.21-1.69 3.37-2.53.88-.63 2.14-1.21 3.31-1.46l.12-.04.33-.08q.3-.05.35-.07t.34-.09c.32-.06.77-.12 1.05-.12.1 0 .64 0 .64-.12.01-.23.18-.5.29-.65.04-.06.45.32.52.39.17.16.35.32.54.45.42.3.85.57 1.35.82.62.31 1.7.56 2.74.68 2.05.24 4.06.02 5.93-.44.57-.14 2.77-.83 2.81-1.16 0 0-.1-.34-.1-.34-.06-.16-.17-.49-.18-.52-.09-.31-.16-.61-.16-.92 0-.76.15-1.48.38-2.05.3-.73.96-1.42 1.82-1.42.62 0 1.56 1.76 1.64 2.43.07.65-.1 1.58-.35 2.11-.08.18-.45.58-.64.79-.1.11-.2.22-.28.28-.12.1-.31.25-.35.36-.22.54 1.43 1.11 1.96 1.18.82.11 3.08-.4 3.25-1.07.05-.2-.14-1.61-.22-2.09-.12-.72-.23-1.42-.34-2.13-.23-1.48-.47-2.99-.73-4.5-.04-.24-.11-.73-.16-1.08q-.04-.28-.08-.52l-.04-.24-.04-.2c-.05-.3-.11-.63-.12-.8-.05-.54-.12-1.07-.2-1.61l-.04-.16-.04-.32c-.01-.08-.07-.54-.08-.61l-.08-.24c-.05-.15-.16-.48-.16-.48-.04-.28.34-1.32.47-1.52.14-.2 1.06 1.94 1.12 2.08.05.11.14.26.2.38.01.02.12.26.12.26l.06.16.06.16s.67 1.66.13 1.15c-.11-.1-.2-.19-.3-.3-.12-.14-.27-.3-.39-.35-.04-.02.02.93.02.99l.04.16.04.24.04.32.04.16.04.28.04.24.04.36.04.32.04.2q.05.27.08.44c.04.29.08.58.12.88.07.52.1.81.2 1.32.33 1.81.81 4.42.81 5.94 0 .82-.23 1.82-.5 2.49-.14.35-.81.74-1.17.91-1.01.45-2.53.68-3.59.18-.44-.2-.71-.47-1.02-.79-.16-.18-.31-.36-.44-.56-.13-.19-.3-.44-.44-.43-.06 0-.32.13-.48.2-.17.08-.3.14-.48.2-.2.07-.41.15-.61.24-.15.07-.52.22-.52.22-.13.05-.27.1-.4.14l-.12.04-.16.04-.24.08c-.17.06-.35.11-.52.16l-.28.08c-.07.02-.36.08-.36.08-.2.13-2.45.34-3.57.44-.28.03-1.5-.11-2.34-.2-.21-.02-.66-.07-.83-.12-.26-.08-.63-.18-.82-.15-.05 0-.05.39-.05.41v.14q.04.69 0 1.1c-.04.36-.14.71-.51.78-.39.07-1.24-.38-1.48-.55-.35-.25-.66-.58-.86-.97-.12-.24-.19-.5-.26-.78-.05-.21-.06-.23-.08-.4-.02-.12-.13-.95-.2-.9l-.23-.05h-.3c-.27 0-.69.05-.99.12-.36.08-.75.18-1.09.28-.8.23-1.61.53-2.24.95l-.38.24q-.21.12-.29.17c-.1.08-.26.19-.33.23-.15.08-.25.15-.38.25-.21.17-.43.32-.67.47-.2.12-.56.41-.85.65-.05.04-.36.31-.55.46-.12.1-.24.2-.35.29 0 0 0 0-.21.19-.1.09-.22.2-.32.28q-.15.12-.25.22c-.1.09-.2.18-.31.27q-.09.07-.3.28-.17.14-.23.19c-.18.16-.36.3-.55.46-.28.23-.7.5-1.08.75-.74.49-2.19.61-2.78-.13m8.38.16c.51-.33 5.47-2.57 5.77-2.53.15.02-.09.67-.14.77-.06.12-2.62 1.24-2.98 1.35-.09.03-.5.19-.73.28l-.14.06q-.12.06-.26.12c-.15.07-.33.14-.48.2q-.2.08-.36.14c-.18.07-.46.17-.56.22-.53.25-.33-.4-.11-.62m44.61-.58c-.24-.19-.47-1.05-.54-1.45-.04-.24-.04-.73-.04-1.08 0-.13 0-1.24-.02-1.23-.43.25-.85.49-1.24.79-.41.31-.85.6-1.3.88-.82.5-2.05 1.16-3.13 1.73-.91.49-2.22.76-3.37.98-.72.15-1.3.27-2.02.42 0 0-2.04.45-1.69.17.13-.1.92-.44 1.51-.69l1.49-.6c.98-.42 2.95-1.32 3.17-1.49t.24-.12q.07-.03.28-.16l.14-.08.22-.14.14-.06.14-.08c.24-.15.94-.55 1.39-.8.9-.51 1.76-1.05 2.6-1.61.91-.6 3.83-2.74 3.93-3.45 0-.06-.23-.65-.3-.8-.03-.06-.17-.27-.25-.39-.07-.11-.13-.21-.19-.33q-.08-.16-.16-.28c-.09-.13-.17-.26-.24-.4-.08-.15-.16-.3-.24-.44s-.24-.42-.24-.42c-.11-.22-.26-.62-.38-.94-.11-.27-.22-.57-.34-.82-.14-.28-.23-.45-.18-.78.02-.18.16-1.19.32-1.16.05 0 2.08 2.09 2.1 2.17.04.16-.04.16-.22.14-.19-.02-.61-.06-.62-.03-.04.1.67 1.33.9 1.74.36.63.65 1.16.75 2.09.08.76-.12 1.65-.34 2.21-.13.33-1.22 1.32-1.95 1.98-.85.77-.23 2.8.35 3.47.34.39.77.65 1.32.83.65.22 1.51.14 2.14 0 .8-.18 1.56-.61 2.22-.98 1.17-.67 4.09-3.14 4.62-4.3.09-.2-.09-.52-.22-.58-.1-.04-.4.06-.52.1-.16.05-.33.11-.52.14-.51.09-1.34.23-1.86.2-.35-.02-.9-.31-1.3-.53-.62-.33-.42-1.76-.25-2.42.18-.73 1.03-1.61 1.88-1.7.73-.08 1.44.49 1.94.9.02.02.38.42.57.64.21.25.53.63.64.62.25-.03 1.26-.72 1.61-.98.02-.02.46-.37.71-.57.24-.19.59-.47.83-.53.19-.04.29.11.3.3v.44l-.04.36c0 .1.05.31.1.4.22.38.46.69.85.9.44.24.96.28 1.41.28 1.2 0 2.11-1.05 2.52-1.87.23-.44.62-1.23.77-1.32.32-.2.25.26.16.48-.17.45-.33.84-.3 1.02.03.26.84.7 1.09.78 1.37.45 2.41.05 1.24-1.14-.12-.12.22-1.36.28-1.53.23-.64.89 1.57.92 1.78.08.55-.02 1.1-.18 1.65-.1.35-.42.83-.75.96-.46.19-.84.24-1.39.14-.66-.12-1.59-.7-1.76-1.28-.06-.22-.34.25-.34.25-.09.16-.23.43-.31.51-.26.28-.51.53-.84.73-.32.2-1.19.53-1.64.46-.85-.12-1.32-.24-1.82-.73-.15-.15-.29-.37-.38-.57-.08-.17-.12-.27-.16-.48l-.04-.16c-.01-.07-.07-.4-.09-.42-.08-.1-.56.3-.63.37-.15.15-.32.29-.5.41-.36.26-1.14.81-1.21 1 0 .02-.06.71-.08.96-.03.36-.09.97-.32 1.24l-.06.14-.24.36c-.13.19-.29.42-.5.65l-.07.12c-.1.11-.26.29-.53.56-.09.1-.18.2-.25.31-1.27 1.68-4.53 3.9-7.08 3.74-.62-.04-1.24-.29-1.65-.58-.2-.14-.47-.43-.94-1" fill="#1d1d1b" fill-rule="evenodd"/></svg>