<svg viewBox="0 0 80.87 26" xmlns="http://www.w3.org/2000/svg"><path d="m50.34 2.09c-.04-.43-.74.01-.79.28-.04.23.39.56.56.7.52.4.33-.76.23-.98m26.82.63c-.29-.33-1.08.19-.83.6.14.23.78.69 1.06.72.3.03-.08-1.15-.23-1.31m-44.56.93c-.35-.75.25-2.34.57-3.18.15-.4-.03.67-.05.74-.13.52-.23 1.06-.12 1.57.05.22.28.64.55.62.18-.01.25-.09.3-.26.05-.16.14-.5.25-.43.29.18-.38 1.48-.45 1.53-.47.38-.9-.12-1.05-.58m-20.68 1.01c-.12-.36-.3-1.02-.14-1.45l.04-.28.08-.32.04-.16c.04-.18.11-.41.16-.6.09-.31.3-1.06.44-1.12.11-.05-.11.89-.16 1.04-.15.47-.24.99-.24 1.4 0 .3.36 1.08.55 1.18.2.11.38.02.48-.14.04-.06.06-.12.1-.28s.1-.37.26-.36c.11 0-.11.87-.14.97-.11.3-.2.55-.43.72-.47.36-.86-.21-1.05-.6m42.31 1.45c.55-.45 8.13-4.57 8.33-4.59.25-.02-.05.7-.08.75-.11.2-1.65 1.04-2.14 1.3-.81.43-1.62.88-2.4 1.33-.28.16-.79.43-1.19.64 0 0-.38.21-.57.32q-.14.08-.26.16l-.12.08c-.3.16-.3.16-.3.16-.39.22-.99.56-1.16.69-.11.08-.28.2-.35 0-.04-.12.12-.81.24-.84m11.6-3.43c.61-.1 1.49.78 1.78 1.14.2.25.4.5.6.77.09.13.27.39.3.44.11.2.23.42.35.44.01 0 .06-.76.06-.8 0-.25.01-.61.04-.84.03-.22.17-1.22.2-1.28 0-.01.26-.44.38-.64q.09-.14.23-.33l.18-.15s.63-.18.75 0c.37.59.56.88.3 1.57-.08.2-.81-.68-.81-.68-.06-.2-.56.18-.58.19-.13.09-.21 1.48-.25 2.06-.05.83-.14 2.04-.43 2.64-.12.25-.32-.33-.35-.43-.07-.21-.23-.46-.36-.68-.28-.45-.58-.86-.9-1.26-.18-.22-.29-.23-.57-.25-.21-.01-.54-.25-.73-.38-.45-.33-.58-1.53-.18-1.51m-16.13 1.24c-.25-.19-.57-.61-.64-.98-.08-.44.26-1.13.46-1.47.22-.36.91-.83 1.21-.28.12.22.21.71.19.89-.03.23-.2 1.48-.06 1.53.17.07.78.65.82.85.04.23-.03.75-.22.73-.04 0-.18-.13-.25-.2-.1-.09-.22-.17-.33-.25-.21-.14-.57-.38-.69-.32 0 0-2.08 1.85-2.33 2.1-.1.1-1.98.97-2.14.92-.52-.15 1.95-1.62 2.01-1.66.38-.22 2.12-1.39 1.97-1.87m-49.18 3.42 3.51-2.74c.24-.16.13-.57-.07-.7-.28-.16-.47-.31-.62-.6-.17-.32-.04-.72.07-1.07.11-.36.91.27.97.32.27.21.51.42.75.66 0 0 .43.51.65.76.11.13.64.77.69.74.05-.02.05-1.25.05-1.38 0-.3.06-.75.16-1.08.14-.48.37-.84.61-1.22.11-.17.5-.03.6.05.3.27.92 1.27.5 1.73-.12.13-.32-.14-.44-.3l-.1-.13-.2-.2c-.62-.57-.67.37-.7.9-.04.75-.08 1.64-.12 2.19-.01.16-.11 1.52-.36 1.42-.04-.02-.24-.53-.29-.65-.08-.21-.3-.54-.47-.78-.15-.23-.8-1.12-1.04-1.02-.04.02-.18.39-.23.51-.06.17-.15.34-.38.62l-.19.23c-.07.07-.12.13-.18.21-.3.38-2.7 1.88-3.16 1.54m13.24-.95c.86-.71 2.23-1.32 3.29-1.77.88-.37 2.42-1.14 3.61-1.73 1.14-.57 2.39-1.12 3.59-1.57l.18-.06c.09-.03.21-.07.28-.1l.4-.16c.35-.15.7-.27 1.09-.4.3-.1.61-.21.91-.32.24-.09.72-.27.83-.14.16.18-.24.8-.33.89-.11.12-1.36.56-2.01.79-.67.24-1.32.5-1.98.78-1.37.59-2.82 1.2-4.12 1.85-.1.05-.4.2-.4.2-.15.08-.27.14-.4.2-.35.15-.69.33-1.01.5-.27.14-.63.32-.89.42 0 0-.64.31-.91.44-.32.16-.78.39-.99.52-.27.17-.56.32-.85.46-.15.08-.82.41-.79.18.03-.22.31-.98.48-1.01m11.65.88c.18-.3-2.02-.18-2.39-.1-.24.05-.44.12-.56.28s-.28.37-.36.36c-.17-.02.22-.74.24-.78.13-.24.29-.54.41-.67.09-.1.94-.32 1.51-.47.42-.11 2.68-.12 2.2.76-.23.43-.86 1.48-1.19 1.63-.56.24-1.26.52-1.83.66-.47.11.81-.82.81-.82.19-.14.39-.28.58-.4.18-.11.55-.34.59-.44m51.4-2.23c.08-.15-.27-.43-.43-.56-.23-.18-.38-.35-.52-.63-.39-.77.99-3.1 1.71-1.99.15.23.21.49.26.82l.04.22-.04.36c0 .37 0 .69.06 1.06 0 .06.09.13.19.21.11.09.22.17.29.29.13.2.25.91-.05.97-.03 0-.38-.26-.46-.32-.19-.14-.38-.28-.57-.23 0 0-.39.44-.49.55-.08.09-.41.36-.63.54-.04.03-.24.21-.34.3-.09.09-.2.18-.3.26-.25.2-.5.39-.78.55-1.31.74-3.96 2.22-4.74 2.18-.22-.01 1.4-.96 1.55-1.04.34-.17 1.34-.78 2-1.19.96-.59 2.93-1.85 3.25-2.39m-28.47 3.99c.02-.18.44-.84.68-1.22.08-.13.64.25.77.33.27.18.72.48.85.46l.78-1.14c.08-.23.89.55.89.55.33.33.64.64.66.89.02.2-.58 1.04-.72 1.14-.08.05-.58-.34-.77-.5-.22-.17-.68-.53-.8-.5 0 0-.29.5-.31.54-.13.24-.33.61-.4.66-.28.2-1.6-1.03-1.63-1.22m-20.49 1.15c-.56-.47.21-1.77.45-2.09.51-.68 3.48-1.74 5.06-2.3l1.45-.52.16-.06.24-.08.16-.06.68-.24s0 0 .36-.14q.12-.05.28-.1t.28-.1c.16-.06.37-.14.48-.18.76-.25.46.67.22.78-.07.03-.23.07-.34.1q-.16.04-.28.08c-.24.08-.48.17-.73.26l-.32.14-.12.04-.16.06-.2.08q-.12.05-.28.1c-.13.04-.26.09-.38.14 0 0-.94.32-1.35.46-.45.15-.87.32-1.29.48l-.32.12-.2.06-.16.06c-.24.09-.48.17-.69.26-.25.11-.77.33-.85.36-.23.09-.47.17-.67.28-.39.21-.82.45-1.08.78-.22.27.1.48.32.63.23.15.46.3.49.48.1.83-.94.38-1.21.11m35.2.6c-.24-.24-.28-1.07-.3-1.43-.03-.49.66-2.59.95-2.57.06 0-.14.51-.16.56-.05.13-.18.43-.18.44-.06.17-.29 1.11-.2 1.06v.22l.04.2c.03.16.08.29.14.42.15.31.34.58.73.54.11-.01.23-.29.26-.4.05-.18.15-.54.23-.53.62.05-.62 1.89-.65 1.91-.29.2-.75-.23-.85-.44m13.46-.5c.11-.57.2-1.04.38-1.45.09-.18.47-1 .58-.94s-.26.82-.3.89c-.21.36-.38.92-.21 1.49.08.3.18.63.44.74.21.09.35-.08.44-.25.06-.12.25-.48.27-.49.16-.05-.17 1.01-.2 1.08-.11.23-.35.6-.65.58-.67-.04-.76-1.08-.75-1.66m-42.43-1.21c.05.24.03.51.02.7-.03.4-.06.89.15 1.1.3.3.77-.09.99-.28.2-.17.17-.56.15-.88-.03-.48-.06-.95.1-1.32.13-.3.26.34.26.4.05.5.12 1.24.21 1.39.23.39 1.3.76.9-.15-.14-.31-.3-.7-.3-1.06 0-.16.17-.79.32-.76.06.02.64 1.93.65 2.04.01.1-.27.75-.41 1.08-.09.2-.67.26-.9.17-.15-.06-.27-.14-.4-.23-.15-.11-.2-.15-.36-.1 0 0-.25.28-.26.3-.12.15-.17.21-.31.3-.27.17-.63.3-.92.03-.3-.28-.33-.81-.27-1.2.02-.1.26-1.61.38-1.53m-28.68 3.69c-.04-1.21-.09-2.5.49-3.27.07-.09-.06.49-.09.62-.1.43-.17.98-.08 1.53.05.3.27.88.52.96.15.05.26-.02.32-.16.08-.19.19-.46.24-.48.4-.14-.35 1.41-.37 1.43-.46.52-.87-.28-1.04-.63m4.04-.76c0-1.14.28-3.58.98-4.51.18-.24-.13 1.3-.13 1.3q-.04.2-.08.32c-.03.1-.06.19-.08.28-.05.28-.14.81-.12.95l.02.66.02.32.04.2c.06.24.14.47.22.68.11.28.32.51.6.58.18.05.29-.39.34-.58.04-.17.1-.42.26-.41.38 0-.03 2.07-.78 2.32-.73.24-1.24-1.48-1.3-2.1m6.94 1.81c-.16-.66-.34-1.27-.59-1.83-.15-.34-.3-.67-.48-.98s-.47-.82-.51-.98c-.03-.15.18-1.04.38-1.05.72-.01 1.91 4.23 1.88 5.08-.01.29-.26 1.99-.46 2.05-.26.08-.16-.68-.14-.84.04-.32.07-1.08-.08-1.44m50.23 3.14s-.15-.13-.22-.21c-.09-.09-.2-.18-.3-.26-.18-.14-.39-.23-.66-.29-.43-.09-1.43.17-1.29.7.06.24.89.34 1.15.34.14 0 1.52 0 1.32-.29m-13.96.47c.09-.48-1.78-1.56-2.2-1.62-.19-.03-1.13 1.58-1.19 1.83-.07.28-.03.75.2.9.22.15.33.22.69.25.5.04 2.43-1.01 2.5-1.34m-32.14.16c-.41.71 1.5 1.79 2.23 1.74.17-.01-.29-.62-.3-.63-.1-.13-.32-.33-.52-.51-.14-.13-1.2-.9-1.42-.59m-13.9.64c0-.21.4-1.06.61-1.21.24-.17 2.22.82 1.42 1.8-.35.43-.58.71-.99.36-.17-.14-.34-.27-.52-.4-.16-.11-.53-.37-.51-.55m42.34 1.83c-.45-.82-.39-1.94-.09-3 .1-.33.24-.64.38-.92.15-.3.4-.79.36-.92 0-.02-.3-.25-.38-.32q-.19-.14-.32-.25-.11-.13-.19-.19s-.19-.17-.28-.26c-.25-.23-1.2-1.24-1.23-1.4-.05-.27-.03-1.07.13-1.45.01-.04 1.21.48 1.45.59q.2.09.34.14c.15.06.28.11.42.18.18.08.36.17.28.46l-.34.05-.19.07c-.33.21 1.19 1.07 1.4 1.08 0 0 .72-.87.97-1.17q.08-.11.24-.34l.09-.13c.06-.07.17-.19.25-.27.06-.06.22-.26.32-.39.11-.14.21-.27.32-.42.08-.12.26-.36.32-.39.51-.27-.41 1.84-.5 1.96-.19.26-.38.52-.58.76-.13.15-.51.71-.55.88 0 .04.65.54.79.64.29.22.53.43.73.74.21.33.41.73.38 1.23-.04.67-.2 1.35-.46 1.81-.22.39-1.17.95-1.69 1.24-.34.19-.76.37-1.21.42-.21.02-.39.03-.65-.06-.03 0-.37-.21-.5-.34m-5.74-19.51c.46.3 2.05 4.12 1.91 4.66-.03.12-.45-.35-.48-.39-.06-.07-.17-.2-.24-.29-.11-.13-.19-.23-.29-.31-.07-.05.05.98.06 1.02l.02.28c.01.13.05.43.08.6l.04.28.04.32.04.32c.09.71.29 2 .44 2.97.27 1.75.53 4.41.77 6.81.06.6-.16 3.38-.71 3.91-.09.09-.09-1.45-.09-1.62 0-.63-.02-1.24-.08-1.87q-.03-.35-.08-.76c-.02-.13-.07-.64-.08-.76q-.02-.24-.04-.4c-.04-.32-.09-.64-.12-.96-.02-.24-.11-.94-.16-1.41q-.04-.34-.08-.6c-.04-.29-.08-.58-.12-.88q-.04-.32-.08-.56-.05-.32-.08-.52c-.07-.5-.17-1.27-.2-1.53-.2-1.61-.4-3.13-.65-4.82l-.04-.24-.04-.36q-.05-.59-.08-.68-.04-.14-.14-.38c-.08-.19-.11-.27-.06-.46.08-.31.39-1.35.56-1.35m-11.45 16.97c-.28.8-.52 1.48-.44 2.29.02.25.21.71.44.7.14 0 .26-.14.32-.26.07-.14.23-.47.28-.43.12.1-.17.86-.22.95-.06.13-.15.25-.24.38l-.24.3c-.11.32-.65-.4-.65-.4q-.05-.15-.1-.32l-.04-.16v-.96l.04-.2.04-.2c.03-.11.07-.26.1-.36l.12-.32.14-.28c.02-.06.55-1.22.44-.72m-27.24 3.29c.06-.39.42-1.95.64-2.03.1-.04-.17.83-.19.91-.13.4-.13.9.04 1.37.09.25.26.66.57.66.15 0 .29-.11.34-.24.07-.15.22-.5.28-.5.13 0-.13 1.01-.16 1.09-.12.29-.27.57-.6.62-.57.09-.99-1.08-.91-1.87m36.28 2.09c-.31-1.21.37-2.63.81-3.52.11-.22.16.02.15.07 0 .03-.1.22-.14.3-.11.21-.19.43-.26.66-.13.39-.19.93-.16 1.4l.08.32.06.16q.08.16.08.24c0 .2.61-.08.62-.09.07-.06.11-.1.15-.19.07-.15.22-.45.27-.46.24-.02-.16.96-.19 1.02-.15.28-.39.51-.64.68-.41.28-.75-.36-.83-.6m33.23-1.03c.49-.11.75.04 1.05.22.17.1.4.12.69.14.31.02.77-.44.9-.64l.07-.13.08-.14.12-.24c.14-.07.14.25.14.32 0 .12.01.2.11.27.19.14.55.29.79.12.04-.03.13-.34.19-.55.07-.24.21-.64.4-.71.29-.12-.09 1.05-.11 1.11-.1.3-.39.69-.64 1.02-.12.16-.46.17-.63.13-.16-.04-.19-.04-.3-.1-.07-.03-.28-.14-.3-.14 0 0-.3.2-.54.35-.21.14-.46.22-.75.25-.19.02-.46-.11-.63-.22-.27-.18-.4-.22-.71-.22-.29 0-1.65.84-2.48 1.34-.65.4-1.87 1.12-2.7 1.02-.09-.01 1.23-.76 1.33-.82.27-.16.84-.53 1.25-.8.84-.55 2.22-1.45 2.68-1.59m-52.42 2.87c-.43-.38.21-2.75.57-2.95.24-.13.02.42 0 .46-.15.38-.28.7-.26 1.16.02.38.14.79.41.98.16.11.38.18.53-.02l.11-.27c.04-.09.08-.21.15-.17.17.08-.29 1.21-.39 1.27-.43.28-1.01.07-1.11-.46m-5.35.16c-.32-.88.19-2.71.76-3.24.12-.11-.19.95-.27 1.24-.18.65-.17 2.02.67 1.85.12-.03.22-.22.28-.36.05-.11.2-.43.32-.4.05.01-.09.73-.1.76-.02.08-.1.25-.16.36-.18.35-.32.56-.75.62-.14.02-.49-.47-.75-.82m41.87.76s-.16-.09-.22-.12c0 0-.22-.17-.33-.25-.23-.19-.4-.37-.59-.6-.34-.42-.61-.96-.69-1.63-.05-.44-.07-.74-.04-1.12l.04-.54c.03-.25.08-.76.07-.77-.02-.12-.59.26-.63.28 0 0-.3.18-.37.23l-.14.08c-.14.08-.2.11-.27.17-.47.34-1 .63-1.52.91-.22.12-.52.28-.69.36l-.74.42-.89.42-.2.08-.34.16c-.13.06-.41.19-.42.22-.11.18-6.64 1.35-6.78 1.3-.23-.08.45-.4.45-.4.3-.14.59-.23.93-.34q.07-.02.28-.12s.31-.11.44-.16c.22-.08.58-.21.69-.24.23-.07 1.89-.77 3.07-1.26.37-.15.99-.49 1.45-.74.55-.3 1.27-.69 1.7-.88.39-.18.99-.52 1.45-.78.27-.15.53-.31.79-.48.25-.17.55-.37.78-.49.69-.38 3.84-2.64 3.54-3.16-.56-.97-1.08-2.03-1.49-3.01-.11-.26-.19-.51-.28-.8-.09-.28-.21-.58-.32-.84-.14-.32-.25-.57-.2-.8.04-.23.24-1.24.36-1.24.1 0 2.02 2.15 2.05 2.29.02.06-.7 0-.8-.02-.22-.02.05.52.1.62l.16.24q.04.06.12.24c.09.21.2.42.33.6.14.21.29.47.38.72.27.71.57 3.22-.18 3.83l-.36.44c-.08.1-.31.33-.46.47-.14.14-.3.28-.46.4-.12.1-.24.18-.38.27-.09.06-.29.19-.34.25-.83 1.1-.17 2.72.43 3.55.24.33.97.72 1.44.83.37.08 1.73.16 2.1-.08l.24-.08.28-.08q.17-.06.36-.12c.1-.03.17-.06.26-.1.38-.19.85-.42 1.15-.64 1.51-1.09 3.9-2.84 4.48-3.93.37-.7-.7-.51-.97-.46-.7.13-1.43.2-2.1.2-.06 0-.79-.3-1.24-.49-.26-.11-.44-.72-.48-1.04-.07-.57.09-1.19.3-1.71.16-.4.66-1 1.04-1.17.33-.15.59-.27 1.06-.25.62.02 1.24.57 1.67.94.2.17.36.38.51.6.07.11.49.76.68.66.12-.04.24-.09.35-.14l.14-.08.14-.08.16-.08c.19-.1.6-.37.89-.56.12-.08.22-.16.33-.25.13-.11.32-.25.41-.31.3-.19.71-.46.92-.39.15.05.12.54.11.67-.04.48-.06.69.14 1.04.23.41.64.7 1.09.88.5.2 1.09.16 1.61.06.33-.07 1.41-.71 1.5-.98.11-.35 1.15-2.02 1.46-2.07.23-.04-.05.63-.1.72-.13.24-.27.49-.3.68-.12.61 2.26 1.65 2.82 1 .12-.14-.16-.69-.3-.92-.07-.1-.18-.27-.18-.36 0-.26.3-1.25.45-1.4.38-.38.82 2.05.84 2.38.03.61-.32 1.26-.58 1.65-.2.3-.5.47-.93.54-.31.05-1.31-.02-1.45-.24l-.14-.06q-.14-.06-.28-.16c-.11-.07-.21-.17-.31-.27-.18-.18-.48-.48-.48-.69 0-.3-.44.42-.44.42-.11.17-.21.34-.35.47-.12.12-.31.3-.38.35-.15.09-.37.24-.44.3-.34.28-1.39.36-1.74.36-.51 0-1.02-.25-1.32-.51-.22-.18-.43-.39-.57-.65-.1-.18-.16-.37-.22-.58l-.04-.16s-.08-.53-.09-.53c-.27 0-2.37 1.58-2.37 1.62-.08.67-.25 1.93-.45 2.17l-.06.14-.16.24-.16.24c-.09.13-.27.36-.41.53l-.17.18c-.11.1-.15.15-.28.3-.03.04-.18.18-.27.26-.1.09-.21.2-.3.3-.39.46-1.05.95-1.58 1.35l-.24.16c-.14.12-.36.28-.45.35l-.13.09q-.18.13-.21.15-.15.1-.26.16c-.06.03-.19.11-.22.14-.43.43-1.71.81-2.42.97-1.05.23-1.93.08-2.83-.22m-57.06-1.26-.18-.24c-.04-.06-.15-.23-.23-.35-.14-.22-.25-.5-.34-.76-.25-.7-.36-1.52-.36-2.37 0-.72.29-1.76.49-2.45.1-.34.19-.66.32-.92.11-.22.43-.94.29-1.06-.33-.28-.52-.89-.61-1.39-.16-.89.26-2.68.54-3.53.06-.19.12-.39.18-.6.05-.19.12-.39.18-.56.09-.24.48-1.28.66-1.15.02.01-.49 1.57-.54 1.71-.24.65-.41 1.44-.5 2.21-.08.68.2 2.2.87 2.31.44.07.76-1.05.83-1.45l.19-.03.05.15c0 .09-.08.41-.12.54-.08.28-.08.28-.08.28-.04.16-.07.29-.12.44-.13.43-.38 1.14-.73 1.33-.65.35-1.08 2.09-1.17 3.05-.06.57-.07 1.3.16 1.77.32.63.61 1.2.92 1.64.28.38 1.29.86 1.81 1.03 1.58.53 3.31.25 4.96-.16 1.12-.28 2.16-.74 3.07-1.26.2-.11.41-.24.61-.34.22-.12.42-.25.62-.38.15-.1.37-.28.55-.43q.1-.08.24-.24c.07-.08.2-.21.29-.28.34-.23-.18-1.9-.32-2.3-.1-.3-.22-.6-.34-.88-.18-.42-.36-.83-.34-1.25.02-.36.13-.94.32-1.14.09-.1.55.92.59 1.02.13.3.44.64.69.92.49.55 1.52.95 2.46.78.76-.13 1.31-.49 1.87-.96.1-.08.2-.17.28-.26l.38-.43c.23-.23.59-.59.74-.61 0 0 .48-.11.56-.13l.16-.07.12-.04.32-.08c.45-.1 1.26-.25 1.9-.36.48-.09 1.82-.32 1.82-.32.33-.05 2.14-.3 2.05-.45 0 0-.37-.16-.48-.21l-.16-.08-.16-.06q-.17-.06-.26-.1c-.4-.18-.86-.38-1.23-.52-.32-.13-.41-.16-.67-.04-.08.04-.64-.02-.99-.06h-.13s-.44-.04-.44-.04c-.06 0-.83-.07-.93-.08-.3-.03-1.31-.15-1.35-.2-.06-.07.37-.94.48-1.16.1-.2 1.47-.66 1.83-.73.69-.13.98-.02 1.49.16.22.08.43.17.62.26.18.09.36.17.55.24.89.34 1.76.71 2.64 1.08.27.12.64.24.95.34.17.06.35.11.52.16.21.06.54.16.61.18.5.19 1.24.38 1.9.54.42.11 1.09.27 1.37.32.41.07 1.48.29 1.48.29.16.05-.23.58-.27.64-.17.23-.35.51-.47.76-.08.16-.82 0-1.14-.07-.36-.08-.93-.2-1.13-.24-.88-.16-2.08-.28-3.17.02-.82.22-2.27 5.72-1.58 6.42l.06.16c.06.13.15.3.28.5l.43.47c.13.17 1.33.64 1.59.57l.42.04h.22c.26-.02.56-.05.77-.08.27-.04.6-.1.85-.2l.16-.04.16-.04.18-.06.14-.06.12-.04s.68-.29.89-.38l.32-.16c.14-.08.28-.16.44-.24l.14-.08.26-.16.28-.08h.14s0-.12 0-.12l.13-.11c.12-.09.23-.17.36-.26.12-.08.33-.25.61-.48.35-.25.76-.58.97-.96.23-.41-.09-1.45-.24-1.93-.09-.29-.19-.59-.3-.86-.12-.3-.25-.64-.22-1.02.02-.3.26-1.19.46-1.21.02 0 .15.24.16.29.07.25.13.46.2.6.14.27.44.41.77.5.57.16 2.44.08 2.56-.58.14-.78-.81-7-1.21-9.2-.13-.7-.23-1.45-.32-2.17-.09-.75-.19-1.54-.32-2.25-.2-1.1-.12-1.53.26-2.49.13-.32.3.4.3.4.05.22.13.39.22.56.16.3.39.8.57 1.21.36.81.92 2.05.9 2.36-.02.33-.59-.38-.59-.38-.11-.14-.34-.42-.45-.38-.09.03.13 1.14.16 1.26l.04.2.06.32.02.32.04.2c.06.28.3 1.87.44 2.77.26 1.69.76 5.47.72 5.78v.23q-.01 1-.04 1.22c-.03.24-.09.51-.16.72-.15.45-.27.82-.62 1.05-.28.19-.58.34-.94.47-.22.08-.57.15-.81.18-.03 0-.87.11-.85.14.14.22-.32 2.52-.48 2.75-.23.33-.46.67-.8.99q-.17.2-.21.23c-.12.09-.38.31-.41.35-.28.4-2.76 1.78-3.38 1.99-1.62.57-4.34 1.02-5.46-.37-.72-.9-1-2.29-.78-3.54.17-.97.32-1.85.57-2.69.11-.4.23-.73.36-1.08.05-.14.09-.25.14-.36l.08-.18.06-.14c.1-.26.2-.5.19-.7 0-.04-1.47.14-1.57.15-.11.01-.38.05-.54.08l-.16.04q-.11.03-.4.08c-.7.13-1.42.27-2.03.49-.07.03.46.69.51.75.31.39.4.93.33 1.55-.08.7-.35 1.49-.83 1.79-.76.48-2-.32-2.49-.67-.52-.37-.95-1.54-1.25-2.38-.08-.23-.3.26-.3.26-.08.2-.17.4-.29.55-.08.11-.55.61-.66.65l-.26.16s-.29.13-.32.14c-.19.07-.42.12-.65.16-.43.08-.84.09-1.29 0-.27-.05-.63-.13-.7-.11-.04 0-.12.49-.13.58-.04.24-.08.52-.12.68-.04.15-.27.76-.43 1.16-.17.44-1.35 1.31-1.86 1.65-2.11 1.4-5.25 2.6-8.39 2.19-.57-.08-1.11-.32-1.53-.54-.24-.13-.47-.26-.79-.48q-.16-.11-.32-.26c-.06-.07-.16-.18-.18-.2" fill="#1d1d1b" fill-rule="evenodd"/></svg>