<svg viewBox="0 0 87.87 26.02" xmlns="http://www.w3.org/2000/svg"><path d="m83.67 1.22c-.21-.31-.64-.09-.81.09-.23.23-.09.52.09.71.02.01.75.42.81.42.5.06 0-1.1-.09-1.22m-27.04.26c-.26-.09-.54.18-.63.35-.15.29.6.95.9.8.28-.14-.19-1.06-.27-1.15m-24.3 1.7c.02-.41.49-1.77.71-1.93.07-.06-.1.56-.1.56-.05.18-.15.55-.16.6-.11.66.1 1.19.39 1.6.15.2.4 0 .48-.13.06-.1.28-.47.29-.47.36.15-.41 1.47-.59 1.56-.81.42-.96-1.2-1.02-1.79m-13.36-1.98c.29-.11-.11.64-.18.76-.18.35-.29.7-.26 1.23.01.26.2.86.4.9.29.04.36-.06.49-.23.07-.1.28-.39.31-.33.17.42-.58 1.74-1.01 1.55-1.25-.58-.31-3.1.26-3.87m22.71-.03s-.04.17-.06.24c0 0-.08.32-.12.48-.12.47-.14.89-.12 1.36.02.43.2.84.44 1.06.13.11.33.12.43-.04.03-.05.09-.23.14-.38.04-.12.08-.26.17-.26.17 0-.09 1.06-.15 1.22-.11.26-.38.51-.64.5-.77-.01-.87-1.7-.75-2.43.06-.35.14-.63.24-.92.06-.19.29-.87.42-.84m30.4 1.4c-.08-.16 0-.97.2-1 .6-.1 1.57.72 1.91 1.13.06.06.13.14.18.21.1.12.28.35.31.39.1.14.32.45.32.46.09.15.22.36.34.46.06.05.08-.94.07-1.02 0-.67.04-1.53.23-2.09.15-.45.84-1.43 1.44-1.02.32.22.91 1.47.23 1.57-.03 0-.19-.15-.22-.19-.1-.1-.19-.2-.28-.28-.22-.2-.6-.27-.77.03-.22.38-.21.86-.18 1.29.05.76 0 1.44-.08 2.15-.02.14-.17 1.61-.46 1.32l-.07-.19-.08-.28c-.06-.17-.19-.36-.3-.52-.33-.49-.69-.98-1.1-1.4-.08-.08-.23-.22-.36-.23-.21-.02-.52-.05-.62-.1-.24-.12-.69-.36-.73-.68m-11.26 2.92c.09-.08.29-.22.43-.31.16-.1.33-.21.48-.32.12-.08.27-.16.44-.25.18-.09.42-.26.59-.39.05-.04.76-.47 1.17-.72.16-.1.46-.28.58-.36l.26-.16q.25-.15.26-.16c.37-.22 1.59-.92 2.44-1.41.39-.22.78-.47 1.15-.72.12-.08.42-.28.44.02.02.2-.1.68-.32.78-.06.03-.19.11-.26.16l-.24.16-.48.32c-.18.11-.4.24-.55.32-.24.13-.47.26-.71.4-.38.23-.75.46-1.15.69-.17.1-.35.21-.5.33s-.38.26-.55.35c-.76.42-1.53.86-2.25 1.35-.16.11-.34.23-.52.33-.13.08-.6.39-.6.39-.09.1-.23.24-.32.04-.03-.07.04-.82.19-.84m-4.61-1.77c.04-.09-.25-.47-.41-.69-.15-.2-.25-.38-.29-.67-.12-.82 1.31-2.76 1.63-1.67.08.29.22.75.22.84 0 .3-.05.7-.08.96s-.07.54.09.61c.32.15.66.48.84.8.06.11.04.75-.15.79-.02 0-.24-.17-.31-.23l-.24-.16c-.23-.15-.52-.35-.69-.38-.08-.01-.39.36-.49.49-.18.22-.37.45-.58.62-.41.33-.9.74-1.28 1.13-.07.07-.92.53-1.16.65-.2.1-1.11.55-1.18.44-.14-.22.23-.45.38-.54.21-.13.56-.34.64-.41.16-.13.41-.33.51-.39.03-.02.37-.29.53-.41.77-.62 1.9-1.54 2.03-1.77m27.13-.2c.08-.18-.31-.44-.48-.55-.24-.16-.43-.38-.52-.68-.08-.26.01-.61.08-.88 0-.02.08-.33.09-.33q.13-.19.14-.31c0-.24.49-.63.73-.7.2-.06.45.07.58.17.02.02.32.7.33.78t.04.54c.03.39.1 1.24.1 1.26 0 .03.15.14.18.16.12.09.24.17.33.29.1.12.26.85.06.93-.1.04-.38-.14-.56-.26-.19-.12-.36-.23-.59-.2 0 0-.79.83-1.08 1.13-.1.09-.21.19-.3.29-.09.09-.2.19-.25.23-.27.17-.58.43-.8.66-.56.55-3.79 2.4-4.63 2.34-.13 0 1.44-1.05 1.55-1.12l.13-.07q.11-.06.26-.16l.5-.32.95-.64c1.13-.75 2.14-1.64 3.16-2.54m-72.15 4.72c-.21-.13-.4-1.21-.42-1.57-.05-.84.68-4.76 1.31-4.82 0 0-.22.8-.22.8l-.04.16-.08.28-.04.24-.04.16c-.13.53-.41 1.62-.36 1.82l.04.54.04.28.08.32c.03.11.17.44.26.64.07.16.42.57.65.5.24-.08.28-.21.34-.46.05-.2.15-.6.36-.53.27.08-.28 1.62-.38 1.8-.48.9-1.07.33-1.49-.18m-8.55-3.95c-.09-.29.02-1.23.36-1.19.26.03.87.49 1.15.72.34.27.67.61.94.95.15.2.72.91.78.9 0 0 0-.96 0-1.16 0-.38 0-.78.08-1.22.07-.38.29-1.28.63-1.35.43-.08.7.44.85.72.11.21.52 1.24-.04 1.11-.08-.02-.49-.49-.61-.64-.53-.65-.53.58-.5.96.06.7.07 1.49-.04 2.21-.05.3-.19 1.23-.32 1.23-.06 0-.14-.2-.15-.23-.07-.18-.14-.3-.24-.48-.15-.26-.31-.51-.49-.74-.17-.23-.77-1.02-1.06-.96-.03 0-.11.49-.13.58-.03.19-.08.34-.14.5-.11.29-.23.55-.4.78-.58.79-1.21 1.28-2.02 1.85-.9.63-2.03.99-.6-.19.72-.6 1.66-1.38 2.06-1.85.31-.36.63-.77.82-1.25.15-.39-.1-.53-.36-.68-.21-.12-.38-.33-.56-.56m26.49 4.5c-.01-.28.56-1.15.75-1.24.14-.07.64.2.87.32 0 0 .07.04.26.16.11.07.37.22.42.22.13 0 .35-.37.44-.52.13-.22.29-.4.52-.48.21-.08 1.26.82 1.39.99.18.26-.64 1.39-.94 1.31-.17-.05-.46-.27-.64-.41-.2-.16-.55-.44-.74-.39-.08.02-.65.89-.71 1.02-.07.15-.87-.38-.93-.42-.24-.16-.58-.39-.69-.56m25.97.03c-.18-.22.48-1.45.76-1.45.09 0 .47.27.64.4.19.14.54.38.79.41.08.01.29-.41.36-.56.11-.23.24-.44.42-.6.22-.19 1.29.75 1.41.87.44.42-.1 1.49-.5 1.67-.13.06-.67-.39-.84-.53-.15-.12-.62-.52-.75-.41 0 0-.3.59-.35.7-.15.35-.3.7-.69.44-.45-.3-1.01-.66-1.27-.94m14.36-.49c.04-.46.14-.98.28-1.38.08-.21.43-1.19.56-1.14.04.02-.25.94-.28 1.02-.13.43-.16.86-.16 1.33 0 .34.41 1.01.68 1.1.28.09.42-.12.49-.33.05-.16.21-.66.3-.64.16.02-.11 1.06-.14 1.17-.09.32-.29.75-.63.82-.84.19-1.17-1.46-1.11-1.93m-29.78 1.11c.05-.03.32-.17.46-.24l.16-.08.18-.08.14-.08.2-.08c.16-.08.43-.22.65-.32q.1-.05.26-.12l.18-.08.14-.08c.74-.37 2.23-1.08 2.48-1.14.24-.06.01.66-.04.76-.09.16-.36.25-.57.32-.27.09-.51.21-.75.34-.05.03-1.01.47-1.63.76-.2.09-.46.21-.64.32t-.28.12l-.29.14-.14.06c-.08.04-.76.35-.8.29-.12-.2.1-.79.27-.82m-25.68-.35c1.11-.68 2.28-1.4 3.36-2.02.58-.33 1.17-.65 1.76-.96.3-.16.8-.42.93-.48.2-.09.88-.45.93-.5.07-.08 4.3-2.05 5.04-2.35.22-.09.74-.29.77-.3.2-.07.43-.15.61-.22.36-.14.9-.37 1.33-.56.4-.18.9-.39 1.21-.5.9-.32.49.76.15 1.04-.04.04-.29.11-.47.17-.02 0-.46.2-.69.3l-.32.14-.16.06-.16.08-.16.08-.28.12c-.34.15-.69.29-1.05.42-.47.17-.99.36-1.43.58-1.41.7-4 1.98-4.5 2.19-1.05.45-2.82 1.45-4.12 2.19-.13.07-.26.16-.38.24-.16.11-.3.19-.49.28-.08.04-.15.09-.26.16 0 0 0 0-.38.24l-.12.08-.24.16c-.96.59-1.63.88-.86-.63m70.09-2.76c.15.1-.12.71-.2.86-.06.12-.15.3-.18.4-.06.21-.08.76-.08.76l.04.24.1.32c.07.2.17.39.32.5.2.14.4-.03.48-.16.1-.15.32-.49.32-.48.25.15-.36 1.33-.39 1.37-.43.52-.84.16-1.06-.31-.3-.64.13-3.49.64-3.51m-62.45 1.71c.3-.29 2.05 1.42 2.21 1.58.08.08.27.34.39.51.42.58.32-.21.26-.64s-.21-2.49.38-2.51c1-.03 1.13 1.08.93 1.87-.02.07-.36-.4-.36-.4-.11-.15-.31-.39-.52-.38-.09 0-.03 1-.02 1.18.05.86.05.87 0 1.37-.03.32-.15 1.4-.32 1.43 0 0-.27-.42-.31-.49-.13-.21-.3-.48-.41-.62-.27-.31-.54-.61-.83-.9-.08-.08-.36-.34-.43-.35h-.26l-.2.02s-.39-.13-.4-.14c-.53-.27-.39-1.48-.1-1.53m-15.49 3.64c-.1-.35.52-1.44.8-1.41.07 0 .54.24.73.34.29.16.81.43.93.4.08-.02.14-.14.18-.22.08-.15.19-.36.25-.45.1-.15.28-.4.48-.39.28 0 1.49.95 1.66 1.21.18.29-.51 1.32-.79 1.36-.07.01-.59-.33-.79-.46-.26-.17-.65-.43-.83-.41-.05 0-.16.24-.17.27q-.11.23-.16.32c-.09.16-.22.32-.35.48-.17.2-1.83-.93-1.92-1.03m27.33 2.26c.04-.45-1.15-1.07-1.61-.86-.21.09-1.05.71-.53.92.36.15 1.28.04 2.14-.06m-30.83.46c-.5-1.1-.22-2.68.27-3.65.1-.19-.03.5-.05.61l-.08.48c0 .09-.1 1.12.04 1.12l.04.16c.03.12.06.24.1.32.07.15.2.32.34.4.21.12.34.16.4-.16.05-.24.14-.68.25-.7.2-.03 0 1.01-.05 1.14-.1.3-.2.6-.4.78-.27.24-.74-.34-.87-.52m12.95.12c-.27-.48-.31-.7-.34-1.44-.02-.4.36-1.91.57-2.12.12-.12-.03.55-.05.62-.1.45-.19.87-.12 1.4.06.41.29.77.56.98.2.15.4.08.51-.11.04-.08.22-.41.24-.38.23.28-.21 1.19-.32 1.34-.25.37-.96.11-1.05-.28m58.02 1.36c.28-.33-1.12-.91-1.56-.88-.54.04-1.33.75-.55.98.62.18 1.49.13 2.11-.11m-47.23-.39c-.42-.28-2.16-.26-2.66-.08-.15.05.85 1.02.99 1.06.15.04.61-.21.89-.36.15-.08.87-.47.78-.62m17.42 1.52c-.24-.26-.59-.64-.89-.7-.43-.09-1.21.06-1.24.55-.02.41 2.06.53 2.13.15m15.96-.28c.02-.43-2.14-1.63-2.42-1.44-.19.13-.96 1.62-1.02 1.98-.1.63.43 1.04 1.15.9.92-.17 1.78-.85 2.28-1.45m-3.55 2.9c-.54-.91-.48-1.42-.37-2.56.04-.44.16-.82.3-1.16.08-.18.18-.39.26-.56.09-.17.23-.46.24-.56 0-.08-.49-.43-.62-.52-.22-.15-.44-.35-.64-.53-.19-.18-.45-.41-.57-.57-.1-.12-.18-.23-.3-.32-.16-.12-.37-.27-.39-.35-.11-.42-.15-1.09 0-1.57.03-.1 2.34.79 2.58.97.25.2-.06.27-.15.29-.15.03-.39.09-.39.09-.32.16 1.14 1.07 1.46 1.02.05 0 1-1.32 1.15-1.55.22-.33 1.17-1.62 1.29-1.65.36-.07-.47 1.95-.54 2.04-.27.37-1.01 1.43-.97 1.73l.13.07.26.16.12.08.36.24c.07.04.19.15.3.25l.18.18c.1.13.13.17.16.19.18.09.42.92.45 1.15.04.32-.12 1.56-.34 1.81-.7.78-1.58 1.7-2.82 1.91-.41.07-.99-.02-1.14-.27m-18-3.44c-.07-.18-.1-.44-.12-.64-.03-.26-.09-.62-.16-1.04l-.04-.24-.04-.24-.04-.32c-.05-.31-.1-.65-.16-.96l-.04-.2-.04-.36-.04-.2-.04-.24-.04-.28s-.08-.4-.08-.4c-.02-.09-.11-.7-.16-1-.04-.26-.11-.62-.16-.92-.22-1.19-.49-2.69-.61-3.61-.12-.99-.3-2.29-.6-3.21-.08-.23.23-1.63.43-1.66.11-.02.75 1.11.84 1.3.22.46.46.93.73 1.37.15.24.81 1.42.32 1.46-.07 0-.29-.24-.41-.37-.1-.11-.26-.3-.44-.29-.05 0 .04.69.06.88.03.28.07.5.12.76.08.39.16.89.2 1.21.11.94.32 1.99.52 2.93.03.14.08.49.12.76.03.19.08.39.12.56.05.2.09.52.12.76.03.27.07.49.12.72.05.28.09.54.12.84.04.31.08.63.12.92.03.19.08.65.12 1l.04.28.04.36v.24l.04.32c.17 1.03-.09 3.1-.53 4.15-.1.24-.24-.56-.24-.56.06-.45.11-.8.09-1.08-.07-.83-.22-2.67-.28-2.99m10.81-14.73c.03-.16.38-1.11.48-1.14.18-.05 1.14 2.13 1.22 2.34l.08.28c.04.11.06.18.1.26.09.18.18.36.24.54.14.41.41 1.22.34 1.35-.14.25-.49-.26-.54-.33-.11-.17-.29-.42-.5-.4-.11.02.16 1.93.2 2.14.08.48.21 1.21.32 1.81l.28 1.97c.06.32.12.66.16.96.06.44.18 1.28.2 1.41.32 1.57.53 3.49.53 5.14 0 .48-.11 3.68-.75 3.7-.02 0-.02-1.04-.02-1.04l-.04-1.17c0-.43-.14-1.71-.24-2.61-.21-1.86-.48-3.82-.77-5.7l-.16-1.16c-.02-.15-.08-.52-.08-.52-.02-.23-.03-.36-.08-.56l-.08-.56-.04-.28-.04-.28-.06-.4-.02-.2-.04-.24q-.06-.53-.08-.64c-.18-.82-.7-4.18-.61-4.66m-1.61 20.27c.1-.75.51-1.72.89-2.22.28-.37-.15.76-.15.76-.23.42-.34 1.13-.22 1.71.06.29.17.79.48.78.17 0 .26-.2.34-.38.06-.12.21-.47.34-.42.35.15-.59 1.63-1.02 1.72-.66.15-.7-1.52-.67-1.95m35.49-1.02c.32-.12.7-.25.86-.43.08-.09.18-.24.23-.35.06-.11.26-.52.34-.41v.17c.01.11.03.35.12.38.3.09.66.2.77.11.05-.04.14-.35.24-.72.07-.25.18-.45.32-.59.32-.31-.06 1.11-.07 1.15-.12.36-.26.75-.52.96-.36.29-.68.24-1.09.04-.2-.1-.5.13-.78.33-.23.17-.61.29-.92.25-.14-.02-.29-.11-.4-.18-.2-.13-.47-.29-.74-.18-.65.27-1.63.92-2.52 1.51-.41.27-2.01 1.25-2.52 1.04-.09-.04.56-.41.6-.43.29-.17.66-.4 1.11-.72l.13-.09c.11-.08.29-.21.43-.31.26-.19.56-.4.77-.57.45-.36 1.08-.86 1.57-1.07.35-.15.87-.38 1.26-.19.22.1.75.35.82.33m-55.12 3.31s.45-.23.55-.28c.19-.1.42-.21.63-.3.44-.2.88-.41 1.31-.62.42-.21 1.13-.56 1.31-.66.32-.17 1.18-.62 1.32-.6.21.04-.07.69-.13.79-.04.06-.4.24-.46.27l-.18.04-.18.08c-.23.11-.33.15-.45.24q-.05.04-.24.12c-.14.06-.38.17-.52.26l-.24.12-.14.06-.18.08q-.11.06-.24.12l-.14.08-.22.14-.16.06-.24.08-.36.18c-.33.17-1.26.63-1.39.57-.16-.08.22-.77.38-.83m37.89.8c-.99-.34-1.62-1.21-1.96-2.21-.14-.42-.16-.98-.16-1.41 0-.24 0-.49.04-.8.03-.34.05-.45.04-.52-.01-.12-1.19.62-1.29.68-.07.04-.22.14-.32.24l-.23.17c-.23.17-.47.33-.71.47-.97.55-1.95 1.1-2.97 1.65-.95.51-2.18.83-3.41 1.11q-.13.03-.36.08l-.2.04-.16.04-.2.04c-.2.04-.38.08-.61.12-.17.03-.36.07-.52.12-.45.13-1.62.46-1.83.35-.15-.08.42-.42.5-.45.27-.11.53-.22.81-.32l.16-.06.16-.06c.12-.06.27-.12.41-.18l.14-.06.22-.08c.1-.05.25-.12.33-.14.48-.16.99-.38 1.45-.58l.28-.16.28-.14.14-.06c.19-.1.75-.36.75-.36.43-.14 2.23-1.23 3.23-1.85.28-.17.53-.33.83-.48.1-.05.26-.16.38-.24s.25-.16.38-.24c.22-.14.46-.29.65-.46.18-.16.47-.38.69-.47.62-.29 3.3-2.54 3.42-3.1.05-.23-.68-1.46-.87-1.75-.3-.46-.63-1.07-.93-1.63-.02-.05-.18-.46-.26-.66-.11-.29-.23-.62-.34-.82-.22-.39-.21-.44-.14-.94.02-.11.07-.46.08-.52.04-.19.08-.41.09-.43.01-.08.77.64.77.64l.4.36c.34.27 1.02.84 1.06 1.28 0 .01-.44-.06-.44-.06-.08-.01-.36-.06-.44-.02-.14.07.37.81.38.82.07.1.15.24.21.35.08.14.14.25.22.38.32.52.71 1.14.83 1.71.06.27.09 2.2-.12 2.45l-.06.2c-.04.11-.15.25-.24.38-.14.18-.32.43-.43.55-.34.36-.71.76-1.12 1.03-1.17.77-.37 2.59.03 3.48.14.32.8.78 1.16.89 1.19.36 2.75.22 3.77-.4 2.07-1.27 4.09-2.77 5.43-4.76.12-.18.04-.42-.08-.58-.05-.07-.7.06-1.09.14-.65.13-1.34.27-1.9.24-1.59-.07-2.16-1.54-1.59-2.95.36-.89.86-1.51 1.85-1.75.36-.08 1.2.24 1.41.46l.12.08.13.09s.23.21.32.29c.19.17.35.36.51.56.51.63.6.73 1.28.35.46-.26.91-.58 1.3-.91.32-.28 1.05-.91 1.39-.87.19.02.13.89.11 1.06-.01.21.06.41.18.6.26.4.58.67 1.05.86 1.2.51 2.34-.13 3.02-.79.24-.23.49-.73.69-1.14.18-.36.57-1.13.77-1.18.3-.08.08.57 0 .72-.13.27-.31.62-.2.84.2.4.87.68 1.29.85.28.11 1.55.18 1.55-.27 0-.12-.16-.45-.22-.54-.15-.23-.33-.49-.34-.56-.03-.17.25-1.32.34-1.45.17-.23.63.86.64.88.16.36.26.77.3 1.25.04.46-.07 1.04-.26 1.48-.08.2-.2.37-.32.54q-.11.15-.18.18t-.26.16c-.24.41-1.8-.02-2.14-.2-.2-.1-.43-.27-.57-.43-.15-.17-.48-.54-.55-.52-.04 0-.16.23-.17.25-.08.15-.16.3-.24.42-.15.23-.37.44-.6.61-.48.35-1.01.63-1.78.69-.5.04-1.05-.06-1.37-.26-.78-.5-1.05-.95-1.26-2.04-.04-.18-.6.31-.62.33-.16.13-.35.3-.48.39-.27.19-1.19.9-1.19.9-.05.06-.11.74-.12.9-.04.52-.09 1.12-.24 1.28l-.06.16-.06.14-.24.36-.18.23q-.05.07-.15.21c-.12.18-.28.37-.43.53-.16.16-.38.38-.48.56-.32.53-2.51 2.3-3.12 2.62-1.5.79-3.31 1.76-5.13 1m-45.54-1.17c.03-.53.35-2.38.79-2.45.03 0-.2.72-.2.72-.12.39-.15.92-.1 1.32.07.53.3 1.24.87 1 .16-.07.21-.17.28-.32.05-.12.21-.46.21-.46.36.13-.45 1.62-.7 1.72-.83.35-1.13-.78-1.15-1.55m15.52 1.61c-.78-.32-1.26-1.11-1.55-1.92-.18-.51-.24-1.38-.24-1.77 0-.16.02-.48.08-.76.07-.36.13-.75.14-1.21 0-.14-.76.36-.77.36-.18.13-.43.23-.65.32-.55.23-1.3.54-1.78.62l-.2.04-.24.04-.28.04-.24.04h-.55l-.28-.04h-.3c-.51.03-1.66-.55-2.05-.79-.05-.03-.45-.34-.63-.49-.11-.09-.32-.26-.32-.26-.12-.12-.27-.23-.42-.33 0 0-.17-.18-.28-.29-.1-.11-.26-.28-.37-.35-.28-.17-.71.1-.94.25-1.16.73-2.43 1.39-3.84 1.86-.9.3-2.4.76-3.35.64-.64-.08-1.61-.21-2.18-.4-.37-.12-.75-.37-1.05-.58-.14-.1-.29-.22-.42-.33l-.16-.16q-.11-.11-.18-.15c-.21-.14-.67-.79-.94-1.19-.31-.45-.78-1.13-.92-1.23-.76-.55-2.76 1.97-2.98 2.39-.35.63-.64 1.35-.87 2.09-.24.78-.45 1.44-.83 2.03-.21.33-.47.59-.89.72-.4.13-.69.04-1.05-.08-.49-.17-1.06-.7-1.34-1.1-.44-.62-.75-1.33-1.02-2.13-.34-.99-.65-3.95-.12-4.71.1-.14.12.81.12.88 0 .32 0 .8.04 1.06.08.51.2 1.26.32 1.57.31.78.62 1.38 1.04 2 .29.44 1.29 1.11 1.89.85.61-.26 1.11-1.53 1.45-2.41.4-1.04.83-2.1 1.41-2.97.57-.84 2.15-2.59 3.38-1.86.1.06.68.99.94 1.42.15.25.94 1.28 1.18 1.4l.25.18c.1.08.22.17.32.24.26.17.66.32.99.45.75.28 1.48.28 2.36.28 1.03 0 2.32-.42 3.17-.78.49-.21 1.14-.49 1.43-.64.25-.13.63-.33.75-.4l.12-.08.28-.16s.16-.11.2-.12c.13-.04-.67-.63-.68-.64-.22-.16-.22-.16-.22-.16-.49-.33-.95-.63-1.57-.7-.25-.03-.73.12-.93.22-.26.13-.74.37-.8.33-.27-.15.49-1.61.59-1.71 1.25-1.28 9.08-1.47 9.47-.15.1.33-.08.85-.22 1.28-.08.23-1.07.72-1.47.92-.32.16-1.39.75-1.43.96-.04.23 1.44 1.14 1.71 1.24 1.18.46 2.26.45 3.67.14.99-.22 3.14-1.32 3.49-2.11.34-.75-1.26-1.14-1.68-1.14-1.06 0-2.57 0-2.87-.68-.13-.3-.37-1.22-.18-1.5l.04-.2s.09-.26.1-.28c.06-.13.2-.45.2-.46.07-.14.15-.29.24-.42l.17-.24q.13-.15.14-.18c.05-.14.79-.61 1.02-.65.48-.08.88.08 1.23.26.42.22 1.09.95 1.31 1.37.38.72.74 1.51.91 2.45.12.67.03 1.9-.16 2.57-.08.27-.25.53-.42.8-.18.28-.29.59-.38.96-.15.57-.17 1.56.04 2.09l.08.28c.06.18.14.36.22.52.08.15.15.26.24.38.07.1.23.32.23.32.07.23.91.53 1.26.65.56.18 1.48.14 2.02-.04.88-.29 2.09-.69 2.46-1.02l.14-.08.35-.23c.21-.14.41-.28.61-.42.37-.27.76-.55 1.08-.82.56-.46 1.71-1.43 1.79-1.99.1-.72-.49-.65-.99-.52-.46.11-1.57.36-1.9.2l-.16-.04c-.14-.03-.26-.06-.36-.1-.21-.07-.43-.19-.58-.34-.26-.26-.38-.67-.45-1.09-.08-.51.18-1.36.42-1.67.26-.32.93-1.15 1.29-1.19q.14-.04.3-.04c.25 0 .52.05.75.14.28.11.8.61 1.17.98l.09.13s.17.22.24.32c.14.19.14.19.15.21.07.12.18.31.24.34.15.08.58-.16.68-.22l.26-.16.13-.09q.18-.13.24-.16c.26-.11-.22-3.24-.33-3.97q-.03-.18-.08-.44l-.04-.24-.04-.32-.16-1.04-.08-.52-.04-.24-.04-.24q-.04-.24-.08-.52l-.04-.28-.04-.2-.04-.24c-.21-1.56-.42-2.89-.68-4.46-.05-.31-.11-.56-.22-.8-.11-.25-.19-.44-.14-.68.06-.28.34-1.28.52-1.31.01 0 .22.37.27.47.09.17.28.52.28.52.22.39.42.79.61 1.2.23.53.99 2.21.84 2.44-.08.12-.38-.17-.45-.25-.13-.14-.4-.43-.52-.38-.02 0 .13 1.03.15 1.19.02.14.04.25.08.44.05.26.08.46.12.72 0 .07.11.7.16 1l.04.24.04.32.04.24.04.16.04.16.04.32.04.24.04.24.04.32.04.24.04.2.04.2.04.24.04.24.04.24c.08.44.14.92.2 1.41l.04.28.06.48.03.79v.23s.02.13.02.13c-.02.22-.09 1.02-.1 1.1-.01.09-.06.28-.08.36l-.06.2q-.09.27-.1.32c-.05.3-.39.61-.62.81-.15.14-.29.24-.47.35-.16.1-.33.21-.36.36q-.02.12-.04.54c-.02.34-.04.75-.12 1.06-.06.24-.16.49-.24.72-.11.27-.48.74-.71 1.04l-.31.34q-.15.12-.21.19-.11.14-.19.21c-.12.11-.27.24-.3.29-.33.48-2.12 1.58-3.13 2.2-.63.38-1.46.63-2.3.78-.8.15-1.91.07-2.58-.34m-28.19-.01c.24-.06 2.26-1.17 3.05-1.63.91-.53 2.51-1.43 3.31-1.62.28-.07 0 .7-.04.78-.01.02-1.4.72-1.69.86l-.89.44c-.16.08-.29.13-.45.2-.18.07-.36.16-.52.26-.5.32-1.1.69-1.65.9 0 0-.58.3-.81.42-.76.4-.64-.42-.31-.62" fill="#1d1d1b" fill-rule="evenodd"/></svg>