<svg viewBox="0 0 83.64 26.33" xmlns="http://www.w3.org/2000/svg"><path d="m21.33 15.09s-.03-.05-.05-.08l-.16-.24s0 0-.16-.24l-.36-.42c-.17-.21-.31-.39-.34-.66-.04-.32.07-1.07.28-1.26.12-.11 1.05 1.15 1.15 1.3.57.78 1.09 2.86.65 3.85-.17.37-.88.95-1.31 1.29l-.36.24-.26.16c-.34.22-.85.56-.87.64-.17.68-.24 1.29-.24 1.82 0 .39.35.88.59 1.22.43.59 1.71.37 2.29.13.54-.22 1.01-.51 1.49-.8l.24-.16c.11-.08.23-.16.34-.24.06-.04.22-.17.33-.26.09-.07.27-.21.33-.23.7-.32 3.62-3.4 3.66-4.13.04-.93-.85-3.19-1.23-4.03-.3-.67-.74-1.66-.93-2.03-.31-.62-.92-1.91-.95-2.09-.05-.31.05-1.02.13-1.5.04-.22.9 1.12.94 1.2q.1.17.24.38l.08.16.08.14.08.14s.19.32.22.36l.06.14.08.14c.91 1.4 1.54 3.38 1.84 5.3.22 1.41.74 3.93 1.67 4.67.46.37.89.71 1.46.9.6.2 1.64.2 2.28.2 1.31 0 2.85-.59 3.85-.98 1.25-.48 2.7-1.07 3.73-1.83.2-.15-2.35-.58-2.44-.6-.25-.03-.56-.07-.77-.08 0 0-.71-.08-.73-.08l-.24-.04-.24-.04c-.51-.07-.98-.07-1.49-.04-.19 0-.71.03-.73-.04-.04-.31.34-1.03.53-1.26.15-.18 1.63-.43 2.25-.53.02 0 .63-.06.63-.06.14-.01.54-.05.63-.06.3-.04.99-.14 1.06-.27.16-.27-.92-6.23-1.12-7.12-.06-.25-.09-.53-.12-.8-.02-.21-.1-.68-.16-1.05-.06-.34-.11-.66-.16-1-.05-.29-.1-.62-.16-.92-.05-.27-.15-.51-.24-.72-.15-.34-.14-.37-.04-.76.11-.42.22-.88.37-1.22.07-.16.33.32.34.33q.04.07.12.28t.16.32c.09.15.24.42.24.42q.1.16.16.3l.08.18.08.18c.33.62.95 1.77.9 2.24-.02.22-.47-.3-.47-.3-.15-.17-.36-.43-.51-.46-.1-.03.27 2 .29 2.14.14.78.28 1.63.4 2.41.1.68.19 1.22.32 1.89.08.41.15.81.2 1.24q.04.35.08.72c.01.15.03.36.04.4.12.5-.04 1.11-.16 1.48-.01.04-.3.91-.1.82l.2.04.2.04q.2.04.44.08l.24.04.16.04c.08.01.33.05.57.08.9.12 2.1.27 2.66.2.19-.02-.05-1.58-.1-1.91-.05-.32-.15-.93-.16-1-.05-.25-.1-.53-.12-.72-.09-.77-.45-2.71-.68-4.01-.19-1.05-.46-2.97-.69-4.5-.04-.32-.09-.48-.18-.72-.07-.18-.16-.42-.14-.54.04-.34.28-1.25.45-1.48.1-.14.49.78.54.9.06.14.09.21.16.32 0 0 0 0 .12.24l.08.12.08.16.08.14.08.14c.35.74 1.03 2.17.98 2.5-.03.18-.46-.22-.5-.28-.09-.11-.46-.58-.54-.47-.14.19 1.68 10.57 1.83 11.05.05.17 1.2.18 1.33.18l.4-.02.28.04.16-.02.52-.04s.75-.01.79 0c.15.07-.38 1.45-.54 1.65-.04.05-.98-.02-1.39-.05-.18-.01-.61.02-1.21.08-.14.01-.14 1.01-.14 1.3 0 .56 0 1.03-.04 1.49-.04.44-.31 1.44-.58 1.58-.18.1-.18-.63-.18-.74v-.96c-.04-.92-.07-1.57-.24-2.45-.08-.42-1.9.34-2.08.42-.19.09-.38.18-.56.24-.03.01-.38.17-.61.26 0 0-.46.22-.69.32l-.24.14-.14.06-.16.08c-1.55.73-3.35 1.56-4.74 2.03-.92.31-1.93.5-2.93.6-.62.07-1.81-.16-2.4-.42-.35-.16-.9-.61-1.39-1.02-.22-.18-.58-.98-.79-1.47-.13-.29-.25-.59-.34-.92-.06-.21-.28-.98-.31-.97-.07.02-.11.25-.14.37-.03.19-.08.43-.14.6-.11.31-.27.54-.44.78-.19.25-.39.52-.61.74-.18.18-.59.58-.63.62l-.1.18-.18.18c-.14.13-.27.26-.4.4 0 0-.28.22-.34.27-.09.07-.38.32-.39.33-.07.12-1.71 1.26-2.01 1.43-.49.28-1.03.54-1.59.72-.75.24-1.45-.03-2.21-.33-.32-.39-.65-.84-.75-1.44s-.07-1.36 0-2.06c.01-.17.09-1.01.04-1.01 0 0-1.01.33-1.35.44-.6.2-1.23.35-1.96.4-.66.05-1.67-.07-2.28-.34-.35-.16-.7-.32-.96-.49-.1-.07-.24-.16-.32-.24-.11-.11-.3-.27-.4-.32-.16-.07-.72-1.13-.9-1.48-.13-.26-.26-.58-.34-.88-.02-.06-.23-.79-.32-.64 0 0-.24.7-.32.92-.09.27-.39.85-.63 1.08l-.15.23-.13.1-.2.2c-.23.25-.44.47-.79.78-.05.05-.15.13-.21.18q-.08.06-.4.38c-.27.22-.55.45-.83.66-1.02.75-2.22 1.63-3.66 1.86-.38.06-1.01-.03-1.35-.24-.44-.27-.74-.49-.99-.94-.64-1.14-.4-3.1-.04-4.38.14-.47.29-1.02.51-1.39.18-.32.69-1.2.6-1.42l-.17-.23c-.08-.09-.17-.2-.21-.29-.11-.22-.2-.45-.24-.72-.06-.34-.12-.72-.12-.94q0-.48.04-.9l.04-.36c.01-.09.05-.34.04-.36-.04-.13.36-1.6.49-2.05 0-.04.23-.63.32-.88.07-.19.36-.96.49-.9.11.05-.33 1.57-.41 1.86-.22.76-.41 1.66-.48 2.53-.06.75.19 1.56.55 1.96.19.21.51.28.64-.03.08-.19.31-.74.32-.74.32 0 0 1.36-.12 1.62-.1.22-.26.43-.45.55-.31.2-.48.3-.6.53-.44.81-.74 2.01-1.03 3.17-.13.52-.07 1.11.08 1.56.15.46.4.76.77 1 .19.13.94.41 1.15.3l.24-.04.4-.08c.16-.04.29-.08.42-.14.31-.13.8-.35.95-.44.69-.43 2.02-1.46 3.14-2.34.62-.49 1.18-1.23 1.62-1.9.62-.93.19-2.43-.14-3.59-.24-.84-.52-1.7-.85-2.57l-.04-.12s0 0-.12-.28l-.06-.16-.08-.18-.08-.16q-.1-.19-.14-.3c-.1-.27-.19-.51-.3-.76-.1-.23-.28-.64-.26-.72l.04-.4.04-.32c.03-.26.06-.49.1-.72.01-.08.38.37.38.38l.15.23c.08.14.16.28.24.4.11.16.22.37.32.56l.14.24.06.14s.11.24.14.26c.12.07 1.15 3.08 1.25 3.53.16.73.41 1.85.48 2.29.16.95.32 1.9.58 2.61.23.61.64 1.06 1.04 1.5.34.36 1.14.76 1.71.89.66.14 1.69.32 2.34.12.12-.04 1.27-.33 1.9-.48.25-.06.35-.11.59-.22.09-.04.38-.18.38-.18l.28-.14.36-.16q.15-.08.24-.12c.54-.23 1.05-.62 1.46-.99.28-.26.35-.32.17-.85l-.06-.16s-.23-.48-.27-.52m57.04-13.64c-.03.44.82 1.02 1.24.9.05-.01-.05-.61-.08-.71-.07-.23-.15-.38-.29-.53-.17-.19-.68.2-.87.34m-26.72.83c0 .29.61.85.88.71.22-.11-.09-1.03-.18-1.1-.21-.16-.73.1-.7.39m16.24-.58c.69-.12 1.55.69 1.95 1.08.24.23.45.51.64.78.13.19.5.71.6.67.02 0 .02-.92.02-1.1 0-.66 0-1.18.12-1.73.09-.42.52-1.04.85-1.24.16-.1.45-.17.62-.03.47.37.77.91.4 1.55-.07.12-.42-.23-.47-.28-.14-.14-.29-.29-.51-.33-.15-.03-.46.22-.5.36-.06.2-.06.73-.06 1.09v1.72c-.02.28-.15 1.94-.46 1.83 0 0-.12-.13-.12-.16l-.02-.2-.06-.16s-.28-.45-.4-.62c-.26-.39-.56-.74-.86-1.1-.1-.11-.38-.36-.52-.35-.37.02-.6-.08-.89-.26-.21-.13-.38-.23-.46-.48-.06-.18-.06-.97.14-1.02m-11.39 4.1s.15-.11.23-.16l.21-.15q.24-.16.36-.24l.14-.08c.32-.21.73-.48.99-.64l.24-.16.24-.16c.17-.11.33-.21.5-.32.07-.05.36-.22.52-.32l.24-.16s.19-.13.22-.14c.36-.16 1.38-.83 1.98-1.22.55-.37 2.08-1.31 2.23-1.34.18-.04-.06.8-.14.91-.29.38-7.72 4.85-7.72 4.85-.02 0-.18-.45-.16-.5-.07-.01-.21-.04-.1-.15m-52.42.26c-.14-.78-.25-1.41-.04-2.05.04-.12.08-.26.12-.4.03-.12.08-.24.12-.36.07-.2.29-.82.46-.8.04 0-.08.32-.08.32l-.08.2q-.1.21-.14.36c-.12.39-.16.78-.16 1.08 0 .41.31 1.13.57 1.24.24.11.4.02.5-.2l.06-.16.04-.16c.04-.13.07-.21.15-.21.17.01-.04.67-.07.77-.1.32-.22.55-.4.78-.36.47-.87-.06-1.06-.42m24.42-2.24c-.17-.24.12-1.02.22-1.29.1-.26 1.19.6 1.22.63l.2.2c.13.12.31.27.33.3t.44.52c.15.18.27.39.39.59.07.13.31.54.42.49.05-.02.05-.99.05-1.1 0-.33.01-.93.12-1.37.1-.41.4-1.32.69-1.45.18-.08.43-.09.58.05.3.29.51.75.59 1.22.04.19-.18.46-.32.42-.04-.01-.25-.27-.35-.4-.07-.09-.22-.26-.32-.33-.58-.45-.58 1.33-.58 1.44 0 .48 0 1.44-.16 2.01-.05.18-.35 1.24-.44 1.19l-.05-.15-.06-.16-.12-.26c-.06-.12-.19-.34-.28-.5-.2-.35-.43-.68-.68-.97-.13-.15-.32-.38-.39-.43-.02-.02-.22-.15-.24-.15l-.19.15c-.38.05-.93-.42-1.07-.68m-17.15 0c-.11-.17.11-1.01.28-1.1.32-.17 1.66.88 1.86 1.07.24.24.48.54.67.83.11.17.22.34.32.52.11.2.26.45.4.44.03 0 .02-.58.02-.58l-.04-.74v-.16c0-.41.02-.76.12-1.16.06-.22.13-.45.22-.64.02-.04.14-.24.17-.27l.22-.18c.09-.18.58.09.65.14.3.21.83 1.44.36 1.74-.05.03-.23-.2-.29-.27-.11-.13-.22-.28-.34-.39-.47-.47-.79-.17-.75.45.03.49.04 1.36 0 1.95-.02.3-.17 1.99-.44 1.88l-.05-.14-.06-.16-.14-.28s-.2-.38-.28-.52c-.22-.4-.45-.7-.72-1.03-.14-.17-.29-.35-.38-.43-.06-.05-.23-.19-.23-.19h-.24q-.27.04-.34.02c-.44-.12-.81-.39-.99-.78m40.57.04c-.05-.08-.12-.15-.18-.2q-.09-.07-.19-.19c-.14-.17-.27-.34-.33-.57-.12-.43.18-1.12.35-1.52.1-.23.49-.54.76-.59s.46.18.52.38q.04.12-.03.39l.08.13q.09.1.09.21s-.03.57-.04.84c-.02.41-.03.57.04.66.01.02.19.13.21.15.12.08.22.16.33.25.15.12.29.26.39.43.13.24-.03.6-.11.76-.01.02-.5-.29-.6-.35-.23-.15-.58-.38-.81-.32l-2.05 2.1s-.46.27-.62.35c-.22.11-.45.26-.64.4-.17.12-1.21.63-1.29.54-.18-.18.1-.36.24-.46l.12-.08.16-.08s.24-.16.36-.24c.09-.06.37-.28.54-.41.21-.17.54-.43.66-.52.37-.26 2.22-1.65 2.03-2.04m-30.28 3.17c-.22-.49-.28-1.22-.2-1.85.08-.6.21-1.08.38-1.57l.08-.2.08-.2.14-.32.06-.18.08-.18q.1-.2.12-.28c.09-.28.13.13.1.24-.05.2-.13.39-.2.56-.18.43-.29.9-.36 1.44-.11.79.12 1.65.57 2.06.18.17.52.05.62-.13l.02-.12.04-.2c.02-.1.11-.46.23-.37.39.26-.56 1.9-.7 2-.37.26-.97-.5-1.07-.7m57.42-3.67c0-.08-.38-.34-.55-.46-.21-.15-.41-.34-.5-.6-.28-.76.38-2.03.87-2.27.23-.11.56 0 .7.15.17.18.27.47.33.75.04.19.09.77.12 1.16v.16c0 .2 0 .38.05.47 0 0 .26.22.32.25.14.1.24.24.34.4.1.14-.01.84-.2.72-.29-.18-.85-.53-1-.47 0 0-.23.29-.34.43l-.16.2c-.18.2-.39.4-.59.58-.35.32-1.32 1.14-1.34 1.16-.11.05-.33.23-.46.34-.04.04-.31.21-.45.31-.37.24-.74.49-1.13.72-.26.16-2.31 1.19-2.58 1.04-.06-.04.6-.5.68-.55.33-.2.7-.42 1.03-.64.59-.39 1.18-.79 1.76-1.2.95-.69 2.88-2.13 3.11-2.63m-28.21 5.8c-.04-.15.12-.52.22-.76l.12-.26.09-.13q.13-.16.14-.18c.07-.23.64.15.74.21.23.15.59.39.77.46.13.05.41-.43.52-.62.12-.2.25-.42.38-.54.26-.23 1.5.91 1.62 1.18.16.35-.62 1.39-.79 1.34-.11-.03-.51-.34-.68-.47-.18-.15-.63-.52-.76-.46-.05.02-.24.42-.33.61-.1.21-.29.61-.4.64-.27.08-1.54-.83-1.63-1.02m28.25.28c-.23-.63-.02-1.47.16-2.01.07-.22.44-1.31.58-1.14.09.1-.15.61-.2.72-.15.3-.23.5-.26.94-.04.59.16 1.48.77 1.37.12-.03.21-.2.26-.3.07-.14.2-.4.26-.37.18.11-.3 1.31-.47 1.48-.58.58-.93-.26-1.09-.69m-13.76 0c-.43-.82.19-2.7.59-3.49.03-.05-.1.7-.14.84-.12.39-.27 1.07-.16 1.49s.27.93.67 1.06c.29.1.41-.04.5-.3.05-.14.24-.68.28-.66.48.23-.48 1.9-.63 1.99-.43.27-1.07-.65-1.1-.94m-35.28 1.71c.82-.53 8.15-4.3 8.6-4.38.25-.04.09.54.04.66-.16.41-3.73 2.08-4.7 2.53-.28.13-1.52.75-2.36 1.16-.4.2-.81.41-1.19.64-.11.07-.51.31-.58.25-.12-.09.04-.8.19-.87m-24.47 3.1c-.18-.49-.27-.99-.18-1.53.08-.49.38-1.75.67-1.93.11-.07-.13.67-.14.68-.12.36-.18.74-.16 1.2.01.42.21.85.45 1.06.16.14.39.21.5-.03.09-.21.26-.58.32-.58.01 0-.2.84-.2.84-.05.2-.16.64-.25.76-.29.38-.84-.28-1-.48m9.38-1.3c.09-1.03.33-2.03.77-2.83.1-.17-.12.81-.16.92-.16.48-.19.91-.2 1.37-.01.63.32 1.55.8 1.62.19.03.27-.2.32-.34s.19-.55.22-.54c.35.04-.34 1.77-.52 1.85-.21.09-.44-.05-.63-.17-.4-.24-.65-1.36-.6-1.88m18.16 2.47c-.22-.61-.24-.97-.24-1.73 0-.26.15-.73.24-1.01.06-.18.32-.95.42-.92.03 0-.06.28-.06.28q-.04.12-.08.32c-.1.49-.18.92-.08 1.41.09.44.23 1.03.51 1.24.2.15.38.05.46-.15.06-.16.17-.45.27-.41.39.13-.46 1.52-.46 1.53-.39.4-.83-.28-.98-.55m36.4.45c-.26-.7-1.76-1.08-2.29-.42-.44.55.02.66.69.71.15.01 1.54-.06 1.6-.29m-13.92 1.26c.31-.56-2.17-1.62-2.25-1.58-.39.19-.96 1.42-1.11 1.91-.1.35.09.75.28.9.21.17.43.25.75.17.48-.13.85-.3 1.21-.54l.24-.16c.11-.08.23-.16.34-.24q.1-.07.54-.45m-3.62 2.64c-.28-.31-.36-1.06-.35-1.53.02-.5.15-1.35.32-1.87.03-.09.07-.22.1-.28l.08-.16.06-.16c.09-.22.29-.73.24-.78l-.34-.22c-.16-.11-.31-.24-.45-.36-.23-.19-.77-.66-.77-.66-.22-.25-.5-.58-.73-.67-.41-.16-.29-1.51-.2-1.86.05-.16.33.12.33.12.04.04.35.15.54.22.17.06.41.14.52.18l.16.06c.17.07.22.09.24.1.22.06.6.18.72.27.11.08.19.28 0 .34-.24.07-.54.16-.56.2-.08.16 1.23.87 1.37.92.26.09 1.18-1.38 1.33-1.62.17-.27 1.13-1.64 1.3-1.62.07 0-.06.53-.07.58-.04.17-.1.4-.12.52-.06.34-.21.63-.36.92-.14.26-.3.49-.46.72-.18.25-.46.66-.54.9-.01.04.71.52.87.62.28.18.6.45.77.74.2.36.46.8.42 1.26-.03.4-.13 1.52-.32 1.65l-.06.14-.09.13-.21.2q-.18.15-.24.21-.08.08-.21.17-.11.07-.24.17-.06.05-.21.15c-.14.09-.41.27-.45.29-.46.27-2.17.97-2.39 0m25.14.6c.32-.07.58-.13.81-.04.43.16.86.33 1.01.28.32-.1.6-.27.77-.52.09-.13.46-.69.5-.68v.22s0 .16 0 .16c.03.12.09.2.2.24.17.06.59.2.74.03q.07-.08.15-.51l.08-.32c.04-.12.17-.5.34-.44.14.04-.1 1.03-.14 1.16-.14.41-.28.76-.59 1-.23.17-.49.2-.8.09-.26-.1-.48-.18-.65 0-.24.24-.51.39-.88.51-.33.11-.69-.1-.89-.22-.23-.14-.39-.17-.73-.1-.26.05-.93.49-1.31.74-.2.13-.39.27-.58.41l-.2.16c-.1.09-.2.16-.31.23-.39.26-.76.5-1.21.72-.06.03-.49.18-.75.26-.23.08-.9.09-.44-.12.92-.43 1.67-1 2.43-1.6.79-.62 1.53-1.15 2.45-1.65m-61.38 3.49c-.12 0-.31.25-.42.39-.17.24-.33.45-.47.49-.17.05-1.48-.77-1.51-.9-.08-.34.23-1.07.39-1.4.09-.18.71.15.86.23.29.15.83.44.97.4.01 0 .66-.92.66-.92.02-.12.71.38.75.4l.13.09c.19.16.76.64.77.68.12.46-.46 1.67-.8 1.48-.02 0-.43-.33-.64-.49-.23-.18-.5-.4-.7-.45m24.52 1.21c-.11-.29.78-1.55 1.03-1.83.12-.12.45-.49.45-.49.01-.13-.54 0-.62.02-.18.06-.49.16-.58.15-.11-.01.15-.55.18-.6.12-.19.24-.27.44-.38.24-.13 1.58-.52 1.59.06 0 .42-.49.93-.8 1.24q-.12.12-.21.19c-.1.07-.2.17-.29.25-.14.13-.45.41-.42.56.06.29 1.36-.1 1.58-.21.11-.05.48-.27.69-.4.24-.15.59-.36.79-.31.07.02-.4.61-.42.64-.14.15-.31.28-.48.4-.47.33-.88.62-1.3.77-.3.11-1.54.23-1.63-.07m-35.72-.63s.6-.37.85-.52l.22-.08.26-.16.26-.16c.13-.07 1.1-.6 1.72-.92.27-.14.79-.42.83-.44.08-.04.26-.14.36-.2.14-.08.39-.22.44-.24.04-.02.18-.1.34-.2l.14-.08.28-.16c.31-.18.82-.46.98-.46.14 0-.07.78-.16.83-.99.57-2.45 1.34-3.68 1.99-.6.32-1.68.9-1.9 1.04l-.12.08c-.08.06-.18.13-.2.14-.2.09-.49.22-.54.26-.1.07-.34.18-.33-.03 0-.19.11-.64.25-.7m57.27-8.66c.02-.11-.44-1-.68-1.48 0 0-.26-.43-.38-.62-.16-.26-.33-.54-.48-.82-.08-.15-.49-1.06-.73-1.61-.36-.82-.32-1.12-.18-2.24.03-.19 1.42 1.17 1.58 1.33 0 0 0 0 .32.32l.22.17c.1.12.27.47 0 .42-.29-.05-.63-.09-.63-.09-.3.04.64 1.44.71 1.54.34.47.76 1.06.87 1.73.05.28.09.66.08.8-.01.18-.1 1.49-.12 1.49l-.04.16s-.1.3-.1.3c-.04.09-.17.27-.25.38-.06.08-.49.56-.49.56l-.07.13c-.18.24-.46.51-.7.69l-.32.24c-.1.08-.14.11-.16.16-.04.07-.11.24-.12.24-.17.12-.14 1.25-.12 1.61.02.55.37 1.03.62 1.39.63.87 1.81 1.2 3.02 1 .68-.11 1.9-.49 2.26-.84l.48-.3.24-.16.26-.16c.15-.12.29-.23.45-.35.17-.12.36-.3.51-.45.13-.13.29-.26.44-.37.2-.14.37-.3.54-.47.12-.12.24-.24.36-.37l.45-.4c.32-.32 1.49-1.57 1.27-1.99-.13-.24-.18-.34-.47-.25-.26.08-.77.23-.81.24-.65.11-1.45.24-1.9.24-1.41 0-2.11-1.49-1.55-2.87.32-.82.77-1.59 1.71-1.79.42-.09 1.12.11 1.35.3l.29.16q.1.07.23.17c.18.14.38.32.68.66.04.05.12.14.15.19.11.16.37.51.42.54.32.23 2.08-1.18 2.29-1.4.14-.14.83-.69 1.04-.71.35-.03.29.6.26.86-.02.22.05.49.14.72.5 1.29 2.46 1.22 3.47.6.5-.31.82-.67 1.09-1.21.28-.55.72-1.43.96-1.66.25-.25.14.46.11.53-.17.47-.28.77-.26 1.02.02.27.88.68 1.13.77.36.12 1.62.3 1.72-.14.05-.22-.2-.61-.31-.76-.14-.19-.29-.39-.25-.53.06-.24.14-.58.16-.76.02-.16.06-.51.19-.58.43-.24 1.08 2.26.89 2.86-.31 1.03-.51 1.7-1.67 1.79-.35.02-1.35-.15-1.51-.38l-.97-.92s-.42.64-.46.7c-.15.24-.35.45-.57.62-.47.36-1.01.68-1.78.74-.43.04-1.01-.01-1.45-.26-.75-.42-1.03-1.07-1.26-2.02-.03-.11-.58.3-.62.34-.18.18-.35.33-.55.49-.17.14-.51.41-.52.42q-.08.08-.21.17c-.13.09-.27.18-.34.28-.04.06-.08.74-.1 1.02-.03.44-.06.85-.22 1.16-.32.6-1.24 2.09-1.73 2.36-.22.12-.51.45-.67.65-.2.24-.44.46-.68.66-.51.42-1.31 1.08-1.62 1.25-.72.39-1.67.92-2.16 1.06-1.21.36-2.85.34-3.65-.43-.38-.37-.93-.9-1.04-1.23-.15-.47-.36-1.11-.38-1.49v-.72c0-.15 0-1.23-.1-1.12-.7.74-3.52 2.36-5.37 3.41-.89.5-6.21 2.06-7.24 1.98-.19-.01.24-.29.24-.29.06-.04.21-.14.26-.16q.26-.1.31-.13s.95-.42 1.3-.57c.37-.16.89-.38 1.13-.46.46-.16.91-.37 1.29-.6l.14-.08.14-.06.14-.06c.06-.03.35-.19.5-.28.23-.13.74-.4 1.11-.6.64-.34 1.31-.76 1.92-1.17 2.02-1.34 6.38-4.23 6.56-5.22m-36.8 9.59c.72-.44 1.52-.88 2.3-1.22.21-.09.42-.21.62-.32.23-.13.71-.4.71-.4.19-.1.36-.19.54-.28.22-.11.68-.33.75-.28.1.07-.15.81-.3.84-.22.05-.97.48-1.35.72-.23.14-.5.28-.75.4-.24.12-.47.24-.71.36-.45.24-.9.48-1.33.72q-.14.08-.57.4c-.4.04-.09-.88.08-.94" fill="#1d1d1b" fill-rule="evenodd"/></svg>