<svg viewBox="0 0 89.03 28.38" xmlns="http://www.w3.org/2000/svg"><path d="m73.96 23.88s-.3.24-.34.27c-.25.2-.51.4-.76.61-.53.44-1.13.86-1.76 1.2-.35.19-1.93.87-2.38.74l-.46.06c-.33 0-.64-.04-.93-.1-.23-.05-.64-.19-.79-.3-.8-.29-1.64-1.46-1.77-2.41-.07-.45-.08-.88-.08-1.22v-.68c.01-.15.04-.58 0-.6s-.43.25-.65.39l-.35.23c-.14.1-.4.28-.46.32l-.13.09q-.2.14-.21.15t-.49.32c-.12.08-.31.2-.5.32l-.12.08-.18.16-.28.12-.16.08-.26.16-.14.08-.14.08c-.3.17-.8.45-.97.52-.61.26-1.41.59-1.96.86 0 0-1 .25-1.33.32l-.2.04-.16.04q-.16.04-.36.08c-.24.05-.54.11-.73.16q-.07.02-.4.08-.15.03-.36.08c-.2.05-.42.11-.61.16-.1.03-1.67.46-1.59.27.16-.35 1.91-1.03 2.68-1.32 1.04-.4 2.08-.83 2.99-1.39.27-.16.55-.31.85-.44.27-.12.57-.31.81-.48.07-.05.27-.17.4-.24l.16-.08q.1-.05.38-.24c.28-.16.28-.16.28-.16l.42-.24c.27-.16.53-.32.8-.48.26-.15.52-.32.77-.48.23-.15.67-.44.67-.44l.13-.09q.12-.1.2-.15l.13-.09c.15-.12.18-.15.2-.16.62-.29 3.36-2.57 3.3-3.16-.02-.24-1.09-2.06-1.63-2.99-.12-.21-.22-.45-.3-.7-.11-.32-.23-.66-.38-.96-.16-.32-.39-1.69 0-2.01.06-.05.67.62.74.7q.13.11.2.18c.06.06.27.25.46.42l.23.18s.16.17.18.18c.14.12.14.12.17.17.11.16.23.33.21.42-.02.08-.17.05-.29.02-.23-.05-.25-.05-.54-.03-.13 0 .54 1.18.54 1.18l.65 1.04c.53.92.71 2.47.26 3.57-.21.52-.6.97-.98 1.34 0 0-.43.39-.58.54 0 0-.23.17-.35.26s-.21.15-.25.29c-.15.51-.26.98-.26 1.51 0 1.24.9 2.08 1.76 2.51.14.07.31.13.49.16.11.02.58.08.64.08l.4-.04h.16c.3.15 2.15-.62 2.32-.74.24-.18.53-.34.79-.48.09-.05.56-.39.82-.58.29-.21.56-.43.81-.68.21-.21.51-.43.74-.6l.18-.18c.09-.1.18-.2.28-.29l.3-.28.1-.12.29-.28.27-.32q.16-.2.19-.23c.09-.1.21-.28.33-.45.04-.06.13-.21.14-.22.02-.02-.13-.45-.18-.6-.02-.07-.54.11-.65.14-.15.05-.53.11-.8.16-.51.08-1.02.16-1.45.16-.19 0-.53-.1-.73-.16-.08-.03-.28-.11-.34-.14l-.13-.09q-.16-.13-.18-.14c-.64-.19-.32-2.22-.11-2.74.22-.53.7-.94 1.15-1.24.27-.18.96-.22 1.27-.06.54.27 1.09.54 1.38.88.16.19.47.54.53.61.16.21.41.54.55.52.38-.06 1.35-.75 1.71-1.04.26-.21 1.48-1.18 1.65-1 .17.17.12.55.09.77-.05.36.01.61.18.88.23.38.63.69 1.09.84.17.06 1.43.28 1.53.06l.12-.04c.08-.03.23-.08.28-.1.14-.06.28-.16.4-.24.22-.15.51-.34.64-.5.28-.34.49-.74.69-1.16.12-.25.23-.48.36-.72.06-.11.47-.67.54-.34.05.19-.1.55-.18.68-.13.22-.25.47-.2.76.03.16.59.51.93.72.31.19 1.75.4 1.91.03.09-.21-.17-.65-.27-.78-.15-.21-.34-.46-.25-.65.01-.02.1-.48.16-.76.03-.12.12-.4.18-.48.17-.23.65.87.67.92.14.4.33 1.08.28 1.46-.08.64-.22 1.13-.51 1.66-.16.3-.53.43-.88.55-.48.16-1.05 0-1.41-.14-.32-.12-.62-.27-.84-.49-.13-.13-.64-.64-.65-.64-.05.03-.13.17-.2.3-.09.17-.21.36-.34.52-.08.1-.16.19-.24.28l-.18.16-.23.16c-.27.27-1.37.63-1.72.57-1.82-.3-2.05-.61-2.52-2.32-.01-.05-.8.51-.85.53-.3.21-.61.43-.87.68-.36.32-.65.6-.66.73-.05.66-.11 1.56-.3 1.97-.22.47-1.57 2.24-2.24 2.8 0 0-.43.41-.41.39m10.84-21.11c-.31-.16-1.11-.07-.94.49.05.18.77.69.97.72.54.08.16-.97-.03-1.22m-26.94.38c-.14-.25-.6.09-.68.21-.16.24.07.51.25.65.82.69.74-.4.43-.87m-23.58 3.45-.06-.18-.06-.14-.08-.32c-.03-.19-.09-.74 0-.92 0 0 .03-.32.04-.4 0-.04.06-.44.08-.52 0 0 .11-.38.16-.56.1-.34.36-1.26.64-1.22.09.01-.06.45-.08.49-.04.12-.16.35-.24.52-.16.33-.26 1.25-.24 1.45.05.47.18 1.11.52 1.3.19.11.42 0 .49-.17.07-.18.27-.69.3-.66.18.15-.21 1.24-.33 1.43-.35.6-.83.5-1.15-.08m-27.43.27c-.18-.2-.1-.81-.05-1.23.04-.27.57-1 .89-1.14l.23-.16s.39-.23.53-.31l.18-.1.14-.06.14-.08.16-.08.34-.17.15-.07c.18-.1.37-.2.57-.28.22-.09.4-.17.58-.28.15-.08.39-.2.57-.28l.18-.08.18-.08.38-.24c.23-.12.82-.37 1.21-.54q.14-.06.3-.14l.3-.14.28-.12.24-.12.12-.04.16-.06.32-.16.28-.12.26-.12c.2-.11.42-.22.62-.32.16-.08.7-.35.73-.34.6.12-.34.92-.54 1.02-.24.12-.73.36-.73.36-.22.12-.43.22-.67.32-.92.37-1.96.9-2.91 1.36-.21.1-.44.22-.66.32-.27.13-.6.28-.81.4q-.11.07-.24.12c-.13.06-.26.12-.38.18l-.62.3c-.59.29-2.06 1.06-2.18 1.53-.04.16.36.45.53.56.3.22.28.42.1.76-.14.28-.85-.32-.9-.37m66.49-3.67c.7-.75 2.88 2.19 3.08 2.6.07.13.18-.76.18-.8v-1.14q0-.17 0-.23c.08-.69.26-1.13.58-1.57.82-1.12 1.85-.04 1.42 1.14-.03.09-.5-.33-.5-.33-.16-.14-.3-.26-.5-.31-.19-.05-.45.29-.53.42-.04.07-.08.62-.08.62l.04.86q0 .23-.04.72v.12q0 .2 0 .24c-.01.41-.08 2.08-.49 2.02 0 0-.12-.33-.15-.41-.08-.23-.24-.48-.39-.72-.24-.37-.53-.74-.83-1.06-.2-.22-.38-.41-.65-.41-.3 0-.51-.12-.73-.26-.55-.36-.71-.71-.42-1.51m-11.33 3.88c.24-.23 2.42-1.56 4-2.53.64-.39 1.72-1.05 2.04-1.2.32-.16.72-.43 1.05-.64.3-.2.73-.48.99-.58.25-.1.04.66 0 .74-.06.13-.68.54-.91.68-.33.21-.79.49-1.03.64q-.08.05-.28.16l-.14.08-.12.08-.54.32c-.18.11-.32.19-.51.28-.17.08-.38.22-.54.33-.92.66-3.63 2.46-4.08 2.58-.18.05-.15-.26-.14-.34.02-.15.07-.59.22-.6m-61.92-2.44c-.04-.19.16-.96.3-.98.64-.1 1.49.73 1.82 1.1.09.1.38.48.56.73.14.19.59.81.6.81.1.02.1-.55.1-.65 0-.34.04-.87.12-1.24.09-.41.22-.84.42-1.14.31-.46.73-.07.93.22.12.18.55 1.41-.02 1.2-.05-.02-.43-.29-.48-.33-.08-.09-.34-.35-.44-.2-.1.14-.11.62-.13.94v.64c-.03.61-.08 1.33-.24 1.97-.07.26-.19.76-.36.28-.14-.39-.33-.8-.55-1.12-.32-.48-.82-1.23-1.41-1.39h-.16s-.32-.14-.4-.18c-.19-.1-.65-.38-.66-.64m57.32.68c.02-.06-.27-.42-.44-.64-.14-.18-.26-.41-.3-.66-.14-.75.67-1.84 1.21-1.97.23-.06.45.3.52.46.13.25.11.61.08.88-.02.19-.14 1.26.03 1.34.33.15.65.45.84.75.15.24.03.55-.07.78-.01.03-.54-.3-.6-.33-.23-.14-.56-.35-.71-.38-.1-.02-.48.44-.58.57-.17.21-.32.36-.5.54-.38.38-.83.83-1.24 1.08-.56.34-1.86 1.09-2.24 1.12-.13.01.03-.38.05-.39l.15-.09.14-.08c.21-.13.48-.29.62-.41s.48-.39.51-.41c.2-.12.39-.27.56-.42 0 0 .25-.17.25-.17.01 0 .26-.17.26-.17.17-.13.33-.26.48-.4.18-.17.4-.36.54-.51q.13-.13.19-.21c.09-.11.22-.28.24-.28m27.1-.24c.03-.1-.35-.4-.52-.54-.19-.15-.35-.33-.49-.55-.42-.65.51-2.08.85-2.29.21-.13.51-.06.67.08.18.16.34.46.4.72l.02.2.04.72.04.46c.03.23.05.5.3.71.12.11.26.24.29.29.07.11.07.95 0 .9-.29-.19-.82-.54-1.38-.17-.11.13-.25.3-.34.4-.1.1-.41.37-.73.64-.5.5-1.08.95-1.68 1.35-.23.15-.83.55-.83.55-.16.1-.31.19-.48.28-.18.1-.37.21-.54.32-.15.09-.72.31-1.07.44-.15.06-1.16.43-1.16.34 0-.12 1.32-.93 1.6-1.1.27-.16 1.21-.79 1.84-1.21 1.01-.67 2.77-1.87 3.19-2.57m-42.09 5.1c-.02-.58-.52-1.1-1-.58-.23.26.09.43.32.54.18.09.7.35.68.04m-19.92-2.23c.35-.52-1.08-2.22-1.43-2.52-.04-.03-.14 0-.25.03-.17.04-.41-.06-.56-.13-.28-.13-.55-.29-.66-.58-.12-.3.01-.74.12-1.1.17-.57 1.73.82 1.79.9.2.22.69.8.69.8.11.16.21.32.31.49s.31.54.36.54c.1 0 .1-.76.1-.9 0-.35 0-.9.08-1.43.07-.48.3-1.27.65-1.45.45-.22.76.25.95.54.16.24.15 1.38-.19 1.24 0 0-.23-.27-.27-.32l-.08-.13-.16-.2c-.38-.42-.58-.03-.58.37 0 1.2-.1 2.17-.32 3.35-.06.3-.18.6-.3.84-.06.13-.15.29-.24.44l-.17.23-.08.12c-.08.18-.43.46-.58.58-.12.1-.24.19-.36.27-.15.1-.32.21-.46.33-.22.18-1.81 1.04-.94.27.91-.8 1.9-1.67 2.58-2.59m33.78 2.51c-.09-.11.18-1.89 1.27-1.16 1.01.67 1.12.5 1.64-.64.16-.35 1.62.93 1.67 1.24.06.43-.63 1.26-1.01 1.15l-.2-.16-.2-.16-.13-.08c-.25-.2-.53-.42-.75-.41 0 0-.57 1.13-.59 1.22-.06.25-.96-.41-.96-.41-.25-.19-.7-.52-.74-.59m14.68.93c-.24-.28-.35-.89-.33-1.33.02-.55.12-1.05.28-1.53.08-.25.4-1.18.56-1.08.03.02-.21.67-.24.76-.13.36-.25.89-.25 1.28 0 .44.39 1.6 1.03 1.32.07-.03.17-.23.19-.31.05-.19.17-.61.23-.61.53.04-.41 1.87-.61 1.96-.16.06-.61-.27-.86-.46m13.55-.21c-.18-.51-.05-1.22.04-1.73.05-.27.55-1.57.75-1.53.06.01-.13.54-.14.56q-.03.07-.14.28c-.08.14-.14.31-.18.48-.17.68 0 1.66.57 1.79.17.04.35-.21.4-.34.05-.12.2-.43.24-.42.47.22-.53 1.62-.8 1.72-.36.13-.64-.59-.73-.82m-73.93.32c-.14-.6-.1-1.41.08-2.05.06-.2.15-.48.24-.72l.14-.12c-.21.15-.12 2.14.04 2.39.12.2.34.53.6.33.08-.06.12-.2.15-.31.03-.13.13-.5.13-.5.38-.42-.12 1.44-.28 1.65-.39.52-.9-.35-1.1-.67m21.33.8c-.2-.26-.09-.9-.02-1.2.12-.52.51-.89.85-1.21.06-.06.79-.53 1.11-.72.31-.19 1.17-.72 1.17-.72.75-.5 1.65-1.03 2.54-1.47l.31-.19.22-.13.14-.06.22-.14 1.33-.7c.39-.19.94-.47 1.24-.69.16-.11 1.1-.58 1.16-.43.09.24-.07.62-.15.79 0 0-.62.31-.82.41-.14.07-.59.33-.87.48-.28.16-.57.33-.85.46-.31.15-.61.3-.89.46-.36.21-1.47.84-1.47.84-.55.33-1.1.66-1.68.96-.98.52-1.99 1.2-2.83 1.88-.5.4-.21.78.14 1.24.17.22.31.91-.17.67-.29-.14-.56-.28-.69-.54m-6.42-2.85c0 .26-.13.61-.24.88-.15.39-.21.8-.18 1.33.02.4.32 1.25.74 1.1.18-.06.23-.15.3-.3.08-.16.22-.49.23-.49.27.02-.16 1.58-.61 1.73-.96.33-1.11-1.25-1.07-1.9 0 0 .24-.99.33-1.35.05-.21.27-1.05.51-1m-19.81 5.93c.03-.28.45-1.16.67-1.26.06-.03.56.22.81.34.26.13.84.39.89.4.11.02.3-.4.36-.52.11-.23.26-.54.48-.6.16-.04 1.47.81 1.53.96.14.35-.4 1.35-.66 1.45-.04.01-.47-.26-.55-.31q-.12-.08-.26-.16c-.23-.13-.74-.42-.79-.4-.11.03-.38.43-.44.54-.11.19-.29.52-.36.56-.19.11-1.68-.8-1.68-1m36.03-4.05c-.43-.28-.91-.59-1-.79-.1-.24.12-1.12.3-1.38.22-.31.47-.54.81-.72.88-.49.98 1.34.91 1.95-.04.32.08.49.26.76.15.22.17.94-.12.97-.02 0-.18-.16-.2-.19-.14-.15-.2-.19-.4-.24-.02 0-.38.48-.46.59-.15.2-.33.44-.44.54-.17.15-.99.94-.99.94-.21.42-4.27 2.92-4.78 2.96-.2.02.62-.71.66-.73.35-.2.64-.4.94-.64.24-.19.49-.37.74-.55s.68-.54 1.02-.83l.22-.18.45-.32c.08-.06.18-.15.19-.15q.15-.1.41-.33l.23-.16c.21-.17 1.52-1.24 1.25-1.49m5.22 4.42c-.12.45 1.23 1.06 1.79 1.04.54-.02-.14-.65-.23-.72-.24-.19-1.25-.54-1.56-.32m27.83 1.75c.23-.59-1.58-1.02-2.09-.66-1.42 1.02 1.45.86 2.09.66m-17.52 3.63c-.11-.13-.17-.32-.23-.51-.04-.12-.07-.22-.08-.32v-.18l-.04-.2c-.07-.26.18-1.63.28-1.95.08-.26.18-.5.28-.72.14-.31.32-.7.3-.88 0-.05-.29-.26-.38-.32-.15-.11-.31-.23-.54-.41l-.1-.13-.24-.16q-.16-.18-.36-.33l-.16-.23q-.1-.13-.18-.19s-.13-.12-.19-.15l-.24-.15c-.21-.21-.15-1.53-.02-1.77.04-.08.22.04.27.08.14.1.19.14.29.17.24.08.59.21.89.32l.16.06.16.06c.16.06.49.18.49.18.12.05.48.21.27.41l-.27.05s-.26.08-.32.1c-.19.07.61.6.61.6.24.16.6.4.81.42.16.02 1.13-1.4 1.29-1.65.2-.29 1.1-1.61 1.3-1.56.1.02-.06.48-.07.53-.05.16-.09.28-.12.48-.08.48-.25.76-.46 1.1-.16.25-.32.5-.49.73-.14.2-.5.66-.44.85l1.55 1.23s.21.37.23.4l.14.34v.2s.08.22.08.22c.08.19-.21 1.56-.34 1.79-.43.76-1.86 1.69-2.82 1.91-.34.07-.58.02-.85-.08-.05-.02-.22-.09-.26-.13l-.18-.22zm-37.15-1.36c.06-.39.47-1.89.67-1.85.09.02-.11.61-.15.73-.05.15-.09.31-.12.48l-.04.2v.64l.04.32c.01.08.05.19.08.28.07.21.15.45.27.59.35.42.55-.13.66-.45.07-.18.2.2.15.33l-.06.16c-.04.1-.08.19-.08.2-.04.22-.07.38-.16.54l-.09.13q-.13.16-.14.18c-.12.39-.8-.43-.82-.46-.28-.57-.38-1.34-.22-2.05m30.23-16.92c.04-.2.44-1.24.56-1.28.06-.02.52.97.59 1.14q.04.09.16.34l.14.32q.11.28.14.34.05.1.1.22l.2.48.06.14.08.14.16.36c.08.19.56 1.32.23 1.42-.12.04-.31-.19-.4-.31-.1-.12-.37-.44-.47-.44-.13 0 .21 2.07.26 2.34.11.66.34 1.94.4 2.13.09.27.26 1.24.36 1.85l.04.32.04.28.04.24.04.24.04.24c.07.42.13.87.2 1.2.32 1.59.52 3.38.72 5.22.07.6 0 1.4-.04 1.97-.03.36-.09.81-.2 1.12-.03.1-.22.65-.34.48-.03-.04-.1-.98-.1-1.2 0-.34-.07-.93-.12-1.41-.11-.96-.27-1.99-.45-2.97-.07-.38-.14-.9-.2-1.36-.04-.28-.16-.94-.24-1.4-.02-.11-.13-.84-.16-1.09l-.04-.16q-.03-.15-.08-.48l-.04-.28-.08-.4c-.14-.83-.32-1.91-.4-2.45-.06-.39-.16-1-.2-1.2-.1-.47-.17-.99-.24-1.49-.11-.84-.27-1.71-.4-2.45l-.04-.28-.04-.32c-.03-.2-.07-.41-.12-.6-.09-.37-.21-.83-.16-.96m31.94 19.25c.32-.13.63-.16.91-.06.34.13.92.34.99.3l.17-.06.18-.08c.12-.06.28-.19.37-.29.04-.04.22-.33.25-.4.09-.17.15-.28.34-.26l-.04.26c0 .05.13.2.19.23.23.15.51.2.72.09.1-.05.16-.35.22-.64.03-.16.26-.73.36-.66.5.38-.55 2.08-.82 2.22-.25.12-.43.11-.73 0-.18-.07-.49-.18-.62-.05-.26.28-.54.47-.97.56-.25.05-.53-.1-.75-.22-.19-.11-.44-.25-.69-.14-.97.43-1.61.87-2.39 1.44-.5.36-1.86 1.22-2.67 1.12-.21-.02.44-.33.46-.33.12-.05.45-.27.65-.4.43-.29.85-.58 1.27-.88.77-.55 2.53-1.72 2.61-1.75m-48.89 3.83c-.53-.31-1.26-.74-1.42-.87-.34-.27-.92-1.34-1.04-1.82-.31-1.23-.56-2.55-.77-4.01-.14-.94-.29-2.05-.36-3.09-.06-.86-.15-2.1-.24-2.79-.18-1.42-.73-5.72-.73-5.72-.11-.76-.26-1.56-.45-2.37l-.04-.24c-.03-.17-.08-.4-.12-.56-.02-.08-.23-.92-.04-1.04l.04-.16.1-.32c.09-.24.24-.62.48-.36.12.13.35 1.19.43 1.57.29 1.6.58 3.21.76 4.74.25 2.14.48 4.14.61 6.18.12 1.95.35 3.82.73 5.66.16.82.43 1.54.8 2.16.25.42.85.78 1.32 1.07 1.34.8 3.6.39 5.17.08.72-.14 1.93-.62 2.74-.94.4-.16 1.02-.42 1.54-.64.19-.08.67-.3.73-.34l.14-.06c.15-.08.39-.19.42-.2.58-.12-1.33-.34-1.33-.34-.74-.09-1.83-.22-2.26-.28-.56-.09-1.05-.16-1.49-.2l-.32-.04q-.09-.01-.44-.04c-.35-.03-1.2-.1-1.22-.11-.18-.16.74-1.51.82-1.61.65-.9 2-1.8 3.07-2.51.32-.21 1.33-.75 2.02-1.12.31-.16.66-.35.97-.5.41-.21 1.05-.52 1.07-.66 0-.02-.09-.61-.12-.76-.04-.22-.09-.44-.12-.64-.08-.51-.19-1.12-.24-1.54l-.02-.12q-.04-.1-.06-.3l-.04-.24-.04-.24-.04-.24-.04-.28-.04-.36-.04-.32-.04-.32-.04-.24-.04-.24-.04-.32-.04-.24-.04-.28-.04-.32-.04-.28-.04-.32c-.07-.44-.19-1.22-.21-1.36-.06-.59-.13-1.11-.24-1.65-.1-.48-.17-.85-.14-.92.09-.25.54-1.44.6-1.41.24.11 1.8 4.5 1.75 4.63-.06.16-.55-.33-.55-.33-.06-.06-.54-.37-.42-.1 0 0 .25 1.84.33 2.5.03.21.11.74.16 1.08.07.47.14.91.2 1.36.1.72.61 3.4.83 3.61 0 0 .6-.08.77-.1.42-.06.98-.13 1.41.04.23.09.6.25.62.26.04.03.23.14.24.15q.18.19.2.2c.16.07.51 1.29.41 1.5l-.04.52-.08.36-.04.16s-.18.41-.26.58c-.15.32-.53.55-.93.64-.52.11-.99-.12-1.29-.3-.69-.42-1.08-.9-1.49-1.61-.24-.42-.33-.57-.81-.4-.03.01-.85.38-1.21.54-1.28.59-3.13 1.47-3.95 2.37-.22.24 1.87.51 2.04.52l.26.04q.27.05.52.08c.3.04.78.1.93.12.29.03.43.05.61.08.21.03.62.09.87.12.8.09 1.59.14 2.6.2.47.03.94.06 1.43.04.94-.03 2.16-.04 2.42.03.06.02-.24.67-.28.75-.11.24-.35.76-.46.76-1.13.04-2.52.12-3.87.42-1.03.23-2.87 1.14-4.1 1.75-.68.34-1.46.68-2.2.96-.31.12-.64.23-.97.34-.31.1-.73.25-.93.32-1.05.42-4.33.82-5.22.26m16.88-3.23s-.12.54-.21.86c-.14.47-.17 1.08 0 1.57.1.27.34.66.66.31.04-.04.14-.27.21-.43.02-.05.17-.38.24-.24.29.5-.56 1.61-.83 1.8-.2.14-.49-.16-.6-.27-.08-.08-.21-.48-.25-.61-.05-.2-.05-.22-.05-.6v-.2c-.04-.08.19-.89.25-1.08.08-.25.39-1.1.58-1.1m-22.89 3.87c-.36-.61.14-2.69.51-3.16.18-.23-.02.55-.03.59-.14.54-.19.89-.12 1.49.04.32.36.93.67.9.09 0 .34-.27.38-.38.06-.14.2-.43.25-.39.29.18-.64 1.66-.72 1.8-.25.39-.93-.78-.95-.84m-11.04 1.24c-.38-.28-.77-.59-.93-1.09-.15-.48-.22-1.04-.22-1.48 0-.28.05-.79.12-1.08.06-.25.2-.86.14-1.01-.03-.06-.67.1-.85.14-.6.15-1.16.19-1.65.08-.7-.16-1.15-.34-1.65-.67-.38-.25-.81-.71-1.02-1.12-.24-.46-.74-1.44-1.21-1.3-.89.26-1.84 1.32-2.48 2.04-.38.42-.75 1.48-.97 2.15-.16.47-.63 1.49-.96 2.2-.17.38-1.05.47-1.49.31-.53-.2-.89-.49-1.22-.89-.53-.63-1.02-1.53-1.18-2.5-.18-1.08-.29-1.98-.16-3.13.08-.74.13-1.15-.14-1.62-.22-.39-.36-.82-.42-1.39-.15-1.4.11-3.02.57-4.38.07-.21.16-.49.2-.64l.04-.2.04-.16.04-.16.08-.32c.06-.21.41-1.42.55-1.2.08.13-.15 1.16-.22 1.41l-.04.16c-.05.24-.06.26-.08.32q-.04.1-.12.28s-.02.05-.08.28c-.18.71-.38 1.69-.52 2.67-.11.73.15 1.63.38 2.15.12.27.76 1.1 1.06.53.06-.11.16-.3.17-.37.04-.19.16-.87.18-.88.39-.26.09 1.53.02 1.77-.08.29-.2.5-.38.69q-.2.22-.23.23l-.26.06-.38.02c-.08.82-.11 1.57.04 2.57.2 1.28.95 2.38 1.92 2.93.26.15.77.23 1.07.08.58-.29.93-1.21 1.23-2.01s.83-2.19 1.02-2.34c.02-.02.14-.19.15-.21 0-.01.31-.44.39-.56l.21-.19c.11-.13.27-.33.35-.42l.32-.27.23-.17c.32-.31.88-.59 1.4-.65.6-.07 1.61 2.03 1.73 2.35.04.12 1.55.67 1.94.78s1.78-.01 2.1-.2c1.71-1.03 1.8-1.08 1.39-3.11-.31-1.53-.8-4.03-.93-4.7l-.93-4.5c-.04-.21-.08-.41-.12-.6l-.04-.2-.04-.24-.04-.28c-.07-.43-.15-.89-.24-1.32l-.04-.16s0 0-.08-.44l-.04-.2q-.04-.18-.08-.4c-.03-.19-.09-.31-.16-.44-.08-.16-.1-.29-.04-.48.15-.47.42-1.37.52-1.38.05 0 .96 1.95 1.07 2.18.28.6.86 1.86.78 2.38-.03.24-.4-.22-.42-.24-.08-.1-.41-.51-.47-.45-.09.08.45 2.53.5 2.73l.04.16.04.24.04.16.04.2.08.36c.04.17.08.37.12.52q.04.16.08.36l.04.2.04.2c.42 1.88.98 4.37 1.09 5.82.08.95.19 2.38-.14 3.41-.11.33-.36.67-.57.92-.29.34-.6.71-.64.81-.23.67-.31 1.48-.22 2.13.19 1.32 1.76 1.51 2.94.96 1.72-.8 9.24-5.11 9.36-5.66.15-.69-2.23-1.78-2.82-2.01-1.19-.46-2.54-.98-3.67-1.49-.35-.15-2.51-1.94-2.58-2.21-.07-.23-.15-1.38 0-1.5.08-.06.64.15.9.25.24.09.51.19.77.26.32.09.64.2.93.34.1.05.39.24.19.41l-.31.05s-.38.06-.42.09c-.18.15 1.09.83 1.21.9.51.27 1.11.5 1.67.7l1.58.48c.28.1.55.21.81.34.07.04.26.14.36.2.15.09.33.19.46.24.43.17.87.69 1.21 1.08.22.26.35 1.06.4 1.51.05.38-.33 1.64-.49 1.88-.42.6-3 2.22-4.27 3-.82.51-1.8 1.11-2.52 1.49-.19.1-.41.22-.6.32-.23.12-.68.36-.75.4q-.11.07-.24.12c-.14.06-.3.14-.42.2l-.16.06-.14.06c-.13.06-.37.16-.38.18-.34.51-2.06.31-2.46.1m-4.02-3.27c.08.25-.17.84-.36.94-1.25.64-5.34 2.55-5.69 2.59-.18.02 0-.63.06-.74.05-.09.49-.3.77-.44.53-.26 1.11-.55 1.66-.76.54-.21 1.17-.53 1.73-.8q.09-.04.36-.14c.12-.04.35-.14.52-.22.16-.07.33-.15.48-.24.18-.1.36-.21.46-.17m29.29 2.74c-.04-.31.59-1.22.78-1.32.26-.13 1.73.91 1.82 1.24.13.51-.67 1.53-1.23 1.12-.24-.17-.46-.33-.73-.48-.23-.13-.5-.34-.64-.56" fill="#1d1d1b" fill-rule="evenodd"/></svg>