<svg viewBox="0 0 81.78 25.67" xmlns="http://www.w3.org/2000/svg"><path d="m61.71 23.3.24-.07.28-.08.16-.04c.2-.06.43-.14.64-.22.41-.15.76-.33 1.09-.56 1.8-1.3 3.8-2.75 4.8-4.23.12-.19 0-.46-.11-.64-.07-.11-.39 0-.5.03-.19.06-.39.13-.6.16l-.36.04-.2.04-.2.04c-.31.04-1.15.13-1.25.04l-.28-.08-.12-.04-.2-.06c-.3-.1-.44-.23-.62-.43-.44-.47-.4-1.54-.19-2.22.27-.85.96-1.7 1.92-1.83.57-.07 1.1.28 1.43.5.42.28.89.86 1.37 1.51l.09.13c.19.17.7-.15.9-.27.45-.29.93-.6 1.26-.86.38-.3.97-.78 1.32-.85.24-.05.26.46.25.53-.03.38-.06.76.03 1.02.09.24.56.62.99.98 1.19.98 3.13-.54 3.59-1.28.1-.16.3-.53.44-.8.15-.27.4-.72.47-.79.37-.38.28.23.2.45-.15.38-.33.85-.3.96.17.78 2.11 1.22 2.82.83.18-.1-.15-.73-.19-.79-.13-.18-.3-.41-.3-.54 0-.25.3-1.34.46-1.36.62-.12 1.3 3.57-.02 4.32-.33.18-.78.34-1.21.3-.52-.05-1.04-.29-1.39-.54-.16-.11-.29-.24-.41-.39-.13-.16-.39-.47-.47-.44-.01 0-.21.28-.23.31-.08.15-.17.32-.23.39-.2.26-.42.47-.7.65-.45.3-.99.53-1.67.58-.32.02-1.11-.04-1.37-.3l-.14-.08s-.03-.02-.23-.19c-.16-.14-.32-.28-.41-.42-.12-.19-.22-.4-.29-.63-.03-.08-.07-.28-.08-.36-.02-.12-.06-.38-.12-.41-.09-.06-2.29 1.65-2.31 1.7 0 .01-.07.39-.1.6l-.02.52c-.03.29-.09.67-.22.94-.22.47-.55.95-.96 1.44l-.12.07-.18.22q-.17.21-.18.22c-.11.1-.21.2-.3.33-.62.82-2.1 1.84-3.05 2.48-.68.45-1.4.74-2.26 1.02-.61.2-1.43.31-2.06.16s-1.19-.3-1.59-.68c-.47-.45-1.27-1.29-1.26-2.15-.07-.21-.09-.62-.08-.88q.02-.53.08-1.08s.06-.54.02-.52c-.4.16-.95.52-1.43.84-.36.24-.93.59-1.41.88-.95.58-2.04 1.25-3.09 1.65-.81.31-6.63 1.79-7 1.55-.23-.15 1.94-.97 2.15-1.05.54-.2 2.15-.82 2.16-.82 1.43-.67 3.29-1.55 4.33-2.26.1-.07.21-.12.35-.19.17-.09.37-.21.55-.32q.07-.05.22-.12s0 0 .26-.16l.14-.08.12-.08c.28-.16.28-.16.28-.16.34-.21.67-.41.99-.64.3-.22.67-.48.91-.64.59-.39 3.05-2.19 2.95-2.77-.04-.22-.37-.84-.56-1.19-.11-.2-.26-.49-.35-.62-.15-.23-.28-.47-.4-.72-.25-.5-1.26-2.71-1.15-2.97l.04-.2c.05-.34.06-.43.08-.48.08-.27.15-.51.19-.54.01 0 .84.83.97.96.19.19.41.4.61.58s.46.4.52.68c.04.17-.13.13-.18.12-.22-.06-.42-.12-.66-.09-.25.02.39.92.4.94l.06.14.08.16c.08.13.24.42.24.42.13.21.35.57.4.68.02.05.17.42.24.6l.06.16.06.32c.11 0 0 1.12-.02 1.24-.06.41-.13.91-.2 1.12-.04.11-.56.76-1.03 1.34-.14.18-.4.38-.61.54-.28.22-.52.41-.61.58-.22.46-.26.99-.26 1.55 0 .45.32 1.28.56 1.5.41.37.98.87 1.11.93.28.12.87.35 1.17.32.09 0 .27-.02.45-.03m-10.9-21.84c-.09.38.52.84.84.82.29-.02-.08-1.08-.19-1.15-.15-.1-.65.15-.65.33m27.63-.13c-.16-.25-.63-.03-.75.11-.13.15-.27.36-.08.56.23.25.75.59 1.07.64.17.03.04-.6.02-.73-.01-.06-.18-.46-.25-.58m-60.09 1.77c-.13-.48.06-1.14.2-1.57.02-.06.56-1.3.4-.68-.21.84-.37 1.76.32 2.3.18.15.29-.14.33-.25.05-.15.14-.42.28-.37.23.08-.27 1.26-.32 1.36-.4.81-1.1-.37-1.2-.79m5.53-.64c-.02-.25.08-1.16.25-1.26.18-.1.84.26 1.14.42.74.4 1.43 1.44 1.86 2.16.26.44.26-.3.26-.48 0-.58 0-1.15.12-1.69s.47-1.56 1.19-1.24c.39.18.7.82.56 1.24-.07.21-.15.46-.38.21-.12-.13-.52-.51-.68-.51-.36 0-.36.79-.36 1.14 0 .46-.01.9-.08 1.49-.03.2-.13.69-.2 1-.04.17-.18.81-.34.76l-.04-.2-.06-.16c-.03-.07-.12-.32-.14-.36-.09-.18-.21-.39-.32-.56-.2-.33-.48-.68-.75-.95q-.08-.08-.18-.21l-.18-.18-.17-.15-.31.17c-.23.08-1.16-.4-1.16-.66m43 .12c-.07-.15-.03-1.1.16-1.06.93.18 1.32.56 1.89 1.11.14.14.43.53.61.79 0 0 .26.38.38.56l.1.24c.11.15.14-.27.14-.27.02-.35.05-1.03.05-1.1 0-.39 0-1.14.2-1.61.81-1.88 2.43-1.36 1.85.38-.06.19-.41-.19-.44-.23-.15-.17-.32-.32-.52-.41-.17-.08-.52.29-.56.46-.08.32-.08.81-.08 1.17s-.01.92-.04 1.34c-.03.34-.17 2.18-.56 2-.02 0-.08-.23-.09-.25l-.08-.24c-.07-.19-.18-.36-.3-.54-.24-.35-.53-.79-.74-1.04-.31-.36-.43-.5-.9-.53-.22-.01-1.03-.54-1.07-.78m-61.62 2.9c-.36-.82-.24-1.45-.06-2.35.06-.3.45-1.59.71-1.57.06 0-.16.52-.16.52-.05.11-.1.32-.14.48-.12.48-.16.89-.16 1.35 0 .28.34 1.07.55 1.12s.42.07.5-.14c.07-.18.21-.52.24-.52.43-.07-.45 1.54-.5 1.57-.42.35-.81-.2-.97-.47m50.3-.3c1.23-.82 2.62-1.61 3.95-2.37l2.12-1.2c.38-.21.85-.48 1.11-.64.16-.1.98-.6 1.07-.52.63.54-1.58 1.73-1.69 1.79-.27.13-1.48.82-2.26 1.26-.7.4-1.53.91-2.28 1.37-.27.17-1.03.62-1.03.62-.19.1-.35.2-.52.3q-.19.11-.26.16c-.17.11-.33.22-.34.22-.19.03-.13-.35-.1-.5.03-.16.08-.47.24-.48m-44.51-1.58-.44.16c-.09-.01-.34-.15-.46-.22-.3-.17-.43-.31-.65-.56-.2-.24.03-.83.14-1.07.32-.68 1.89.83 2.07 1.01.28.29.53.63.75.98.11.17.59.93.62.91.08-.05.06-1.04.05-1.23-.03-.66-.05-1 .08-1.45.14-.47.35-.89.68-1.18.17-.14.68.16.79.36.09.14.16.27.22.46.07.25.16 1-.21.9l-.26-.33c-.09-.1-.19-.21-.3-.29-.55-.43-.6.05-.6.56 0 1.07-.05 2.53-.4 3.57-.17.5-.2.42-.34 0-.14-.4-.35-.85-.57-1.2-.29-.47-.7-1.09-1.17-1.38m39.86-.45c-.25-.28-.61-.67-.66-.97-.08-.47.25-1.26.45-1.55.17-.25.46-.45.78-.52.24-.05.46.26.5.46.09.4.08.7.04 1.16-.01.18-.07.98-.01 1 .19.04.86.71.9.93.04.24-.04.61-.19.7-.02.01-.2-.13-.24-.17-.11-.09-.22-.18-.34-.25-.26-.15-.58-.33-.67-.34s-.43.36-.5.45c-.19.23-.37.42-.58.63-.37.37-.86.85-1.31 1.07-.32.16-.65.34-.95.52-.15.09-.98.49-1.11.4-.26-.17.42-.56.42-.56.19-.11.39-.27.57-.41.35-.29.75-.55 1.14-.79.32-.2 1.93-1.4 1.73-1.76m27.14.55c.03-.06-.39-.43-.58-.61-.18-.17-.35-.36-.43-.64-.22-.74.47-2.01 1.07-2.19.28-.08.59.15.68.34.1.21.2.48.22.76l.04.62c.02.41.05 1.03.16 1.14l.13.09c.08.07.19.16.25.25.17.26.21.61.04.94-.02.04-.49-.26-.53-.28-.18-.12-.43-.27-.56-.24 0 0-.74.77-.94.98q-.06.06-.18.15l-.2.16c-.5.46-1.02.85-1.6 1.24-.76.5-3.54 2.2-4.31 2-.2-.05.71-.54.74-.55.3-.16.63-.35.92-.53.63-.39 1.25-.79 1.86-1.2 1.1-.73 2.7-1.8 3.21-2.45m-56.87 3.23c-.78-.07-1.61-.14-2.3-.02-.25.04-.53.09-.73.18-.1.05-.14.09-.2.18s-.14.21-.16.22c-.13.08.38-1 .46-1.14l.07-.15c.03-.05.13-.19.17-.23.12-.13.16-.17.17-.18.38-.59 3.1-.47 3.77-.18.45.2-1.04 2.18-1.19 2.37-.09.12-1.99.97-2.12.92-.35-.11.79-.76.88-.82.17-.1 1.24-.97 1.19-1.16m30.82.91c.16-.19.26-.4.37-.63.08-.18.26-.49.48-.5.24-.02 1.29.91 1.41 1.12.18.32-.36 1.07-.61 1.42-.09.13-.65-.32-.75-.4-.24-.2-.68-.54-.77-.57-.07-.02-.38.58-.44.7-.15.29-.33.66-.63.52-.23-.11-1.21-.82-1.33-1.02s.46-1.38.66-1.41c.15-.02.57.24.85.42.17.11.66.43.76.35m-27.43.89c1.71-1.14 13.38-6.15 13.8-6.02.29.09-.16.86-.2.92-.09.15-.57.34-.97.5-.17.07-.33.13-.46.22-.06.04-.33.15-.46.2l-.2.08q-.3.13-.32.14c-.09.03-.24.09-.27.11q-.09.06-.25.11c-.11.04-.29.11-.4.16-.2.09-.57.25-.61.26l-.16.06-.2.08-.24.1-.12.04q-.12.04-.29.1c-.36.14-.71.28-1.07.44-.14.06-.84.35-1.23.5-.41.16-2.52 1.14-4.08 1.85-.69.32-1.37.65-2.02 1.02-.23.13-.8.46-.67 0 .06-.19.26-.9.42-.88m39.93-.72c.02.34.46 1.41.87 1.2.21-.11.23-.19.3-.44.05-.18.15-.53.28-.5.21.06-.19 1.21-.24 1.34-.07.18-.41.7-.62.62-1.2-.46-1.11-1.9-.75-3.15.06-.22.69-1.56.65-1.2 0 .03-.17.46-.26.72-.15.4-.26.94-.22 1.41m13.56.08.04-.2.12-.28.04-.12.06-.16c.05-.12.35-.81.48-.76.09.03-.28.83-.28.84-.12.23-.22.45-.26.76-.08.59.11 1.45.63 1.51.17.01.32-.22.38-.34.04-.07.22-.43.26-.36.25.44-.55 1.73-.93 1.63-.87-.24-.69-1.72-.54-2.51m-48.63 2.81c.08-.58.33-1.66.65-1.98.14-.14-.12.86-.17 1.02-.17.6-.04 1.47.31 1.84.16.17.37-.07.5-.23.05-.12.1-.22.16-.24.18-.06-.1.85-.14.94-.09.18-.35.59-.56.56-.6-.07-.69-1.24-.75-1.91m-9.28 1c-.07-.26.53-1.17.71-1.31.19-.14 1.41.92 1.43 1.14.02.27-.55 1.13-.72 1.34-.19.23-1.36-1.07-1.42-1.18m-12.39.36c-.4-.89.44-2.77.79-3.53.12-.27-.1.75-.17.92-.17.39-.34.88-.3 1.24.04.43.21 1.39.83 1.28.12-.02.21-.32.26-.52.04-.14.13-.45.26-.36.21.14-.31 1.81-.93 1.87-.35.03-.62-.6-.75-.9m29.16-5.86c0 .07-.05.23-.08.32-.05.15-.1.3-.14.44l-.04.16-.04.16-.12.36-.08.28c-.05.13-.1.3-.12.4q-.06.28-.1.38c-.06.15-.11.32-.14.5-.14.75-.09 2.51.67 2.79.24.09.36-.19.42-.34.09-.21.22-.54.23-.54.41-.18-.2 1.85-.51 2.06-.14.09-.43.04-.7 0-.2-.04-.5-.79-.63-1.11-.17-.43-.1-2.06.04-2.49 0 0 .13-.47.2-.72l.04-.16c.03-.11.09-.27.14-.4l.06-.16.08-.28c.13-.39.57-1.71.83-1.65m-24.27 8.08c-.21-.39-.33-1.33-.22-1.75.41-1.63.87-3.44 1.62-4.44.24-.32.09.71.01.85-.07.13-.16.32-.18.38-.07.18-.17.41-.26.6-.14.3-.31.76-.5 1.33l-.08.32-.06.4c-.19-.42.08.85.14 1.04.08.25.18.48.35.63.23.21.46.08.6-.13q.07-.12.16-.34c.05-.12.15-.39.16-.4.21-.28.14.56.14.56-.03.17-.07.39-.12.56-.09.32-.24.57-.43.8-.51.6-1.05.23-1.32-.41m9-.32c-.15-.06-.45.32-.57.46-.15.2-.34.43-.44.5-.28.2-1.65-1.02-1.68-1.14-.05-.2.59-1.13.77-1.2.25-.11.66.19.9.37.3.22.74.55.9.57.02 0 .31-.42.41-.57.09-.13.27-.39.43-.43.31-.08 1.49 1.08 1.59 1.39.12.34-.69 1.49-1.1 1.15 0 0-.31-.28-.42-.39l-.21-.19c-.12-.11-.55-.51-.6-.51m46.43 1.76c.27-.36-1.1-.95-1.56-.92-.25.02-.47.11-.62.25-.1.09-.51.55-.17.62.66.13 1.8.35 2.35.05m-13.91.67c.21-.53-1.75-1.52-2.18-1.63-.25-.06-1.04 1.48-1.15 1.75-.11.25-.1.75.1.92.23.2.38.33.81.3.55-.03 2.27-.99 2.42-1.35m-3.63 2.65c-.21-.12-.36-.88-.38-1.18-.06-.68.16-1.63.36-2.19.1-.29.21-.54.34-.8.15-.3.27-.53.14-.76l-.23-.17c-.11-.09-.21-.18-.32-.26-.22-.18-.54-.45-.67-.58-.19-.19-.38-.4-.55-.61-.08-.09-.18-.18-.3-.27-.11-.09-.24-.19-.27-.27-.13-.31-.05-1.34.09-1.62.05-.09.29.11.3.13.11.09.3.16.48.23l.32.12.16.06q.2.08.24.1c.28.1.59.21.85.34.08.04.34.21.15.35l-.31.07c-.12.03-.26.06-.3.15-.07.16 1.09.88 1.27.95.23.1 1.2-1.23 1.41-1.53.17-.23.43-.56.65-.84.15-.19.62-.77.67-.78.21 0-.3 1.57-.36 1.69-.12.22-.27.43-.42.62-.14.17-.27.36-.39.55-.42.65-.53.81.12 1.2.19.12.48.38.78.67.16.2.16.2.16.2.18.1.42.92.45 1.2.04.39-.21 1.59-.42 1.85-.51.62-3.29 2.75-4.04 1.39m-5.99-19.13c.08-.04 1.1 2.08 1.17 2.25.27.63 1.05 2.45.89 2.69-.14.21-.56-.41-.65-.54-.12-.18-.46-.68-.62-.64-.07.02.1 1.23.11 1.34l.24 1.89c.19 1.14.32 2.48.41 3.49l.04.24.04.32c.04.31.09.66.12.96.07.56.15 1.33.2 1.85.12 1.19.33 3.91.32 3.95v.26q0 .29-.05.71t-.03.7c-.04.55-.14 1.11-.28 1.57-.07.22-.25.72-.37.78-.22.1-.17-.33-.16-.49.04-.36.04-.62.04-.86 0-1.59-.39-5.3-.69-8.09-.23-2.21-.6-5.6-.77-6.7l-.04-.32q-.05-.53-.08-.76l-.04-.4-.04-.52v-.14c-.05-.49-.14-1.39-.26-1.63-.19-.37.16-1.82.48-1.89m-1.75 22.41c-.19-.86.43-2.76.97-3.13.23-.16-.16.62-.18.66-.19.38-.29.89-.34 1.41-.03.26.26.78.39.94.14.16.31.01.4-.11.1-.14.34-.51.36-.5.2.15-.5 1.32-.58 1.42-.45.6-.91-.24-1.02-.67m32.74-1.91c.24-.11.62-.13.87-.02.34.16.72.33.81.34.28.02.7-.25.86-.39.07-.06.17-.23.25-.35.07-.12.28-.46.38-.32l-.04.22c0 .09.09.16.21.27.11.1.4.16.57.13.21-.04.27-.31.35-.58.07-.28.18-.49.31-.71.2-.36.03.87-.03 1.04-.1.3-.27.77-.48.92-.24.17-.47.33-.75.26-.05-.01-.28-.11-.44-.18-.19-.08-.36.03-.56.17-.28.2-.58.37-.9.41-.15.02-.41-.09-.64-.22l-.16-.08q-.21-.12-.3-.14c-.41-.1-2.04.99-2.7 1.43-.2.13-.89.5-1.37.76-.11.06-1.71.59-1.29.15.03-.03.17-.07.22-.09.2-.06.36-.14.61-.3l.14-.08c.13-.08.28-.17.4-.26l.25-.15s.24-.16.36-.24l.47-.32.15-.09c.79-.54 2.23-1.48 2.47-1.58m-44.42 4.15c-.22-.15.36-1.13.48-1.32.13-.2.26-.41.41-.59.19-.22.44-.52.45-.57.04-.18-.59-.05-.7-.02-.13.03-.72.16-.54-.02l.06-.16c.05-.13.08-.17.16-.28.1-.15.24-.27.4-.36.32-.17 1.64-.38 1.64.13 0 .34-.64.96-.89 1.18-.32.28-.81.72-.89 1.11-.09.42 1.69-.03 1.95-.14.14-.06.29-.13.41-.2.14-.09.29-.16.44-.24.07-.03.75-.37.67-.16-.29.75-3.18 2.67-4.05 1.64m-8.08-3.08c.02.2-.14.47-.24.64-.12.2-.2.4-.22.68-.02.27.21.93.43.98.16.04.27.07.39-.03.06-.04.12-.16.15-.23.06-.13.09-.21.15-.21.21 0-.35 1.12-.43 1.21-.38.45-.9.16-1.06-.31-.19-.58.32-2.79.83-2.73m-12.91 2.93.16-.06.14-.06q.16-.08.22-.1c.11-.04.18-.06.26-.1q.18-.09.26-.12c.22-.08.44-.17.65-.26.27-.11.53-.22.81-.32.48-.18.95-.38 1.41-.58.34-.15 1.23-.54 1.36-.47.11.05-.12.73-.25.8 0 0-.49.2-.63.26l-.24.08c-.13.04-.35.12-.4.14l-.16.08-.16.06-.14.06-.43.18q-.09.03-.28.1c-.19.07-.35.14-.52.22-.51.24-1.08.48-1.62.64-.19.06-.86.27-.86.25-.09-.16.25-.78.42-.8m-9.26-.57c-.16-.49-.44-1.33-.32-1.87.2-.92.39-1.75.62-2.25.28-.59.63-1.16.97-1.71.15-.24.32-.46.49-.67s.39-.48.41-.67c0-.01-.23-.29-.27-.34q-.15-.12-.19-.21c-.11-.19-.19-.38-.28-.6-.19-.48-.23-1.24-.14-1.77.33-1.91.79-3.4 1.38-5.03.1-.26.21.37.2.45-.03.17-.07.3-.12.44-.11.29-.23.59-.34.88-.1.25-.34 1.32-.55 2.25-.13.59 0 1.37.18 1.85.16.4.37.67.71.88.32.19.52-.11.67-.32.09-.12.13-.27.18-.44.04-.14.11-.41.25-.34s-.23 1.73-.37 1.78l-.88.87c-.29.36-.54.73-.79 1.14-.56.89-1.03 1.83-1.43 2.89-.07.19-.1.41-.12.64 0 0-.05 1.31.12 1.44.05.13.07.17.14.28.09.15.21.33.38.4.37.16.73.31 1.15.22.62-.14 1.22-.3 1.65-.63.71-.55 1.38-1.1 2.06-1.69.6-.52 1.91-1.65 2.01-1.73 1.43-1.14 3.39-2.58 5.68-2.58.63 0 1.41.31 1.82.64.2.16.38.31.55.5.21.23.49.44.79.57s.96.32 1.29.14c.98-.53 1.67-.9 2.06-1.49.13-.19.59-.82.66-.84.28-.06.06.54 0 .7-.06.18-.24.69-.06.83l.09.13s.18.19.2.2c.12.1.27.18.43.23.39.11.93.06 1.2-.11.39-.23.75-.8.94-1.24.06-.15.33-.69.45-.7.18-.03.16.26.14.46-.02.29 0 .42.14.58.52.63 1.33.92 2.24.92 1.64 0 4.54-1.27 5.64-1.93.18-.11-1.05-.41-1.14-.44-.48-.12-1.34-.34-1.53-.4-.27-.09-.78-.25-.93-.24l-.24.14s-.63.08-.85.1c-.67.06-2.81.19-2.9.13-.21-.14.25-1.16.35-1.3.43-.57 2.35-1.1 3.31-1.04.13 0 1 .28 1.37.4.49.16.99.31 1.53.44 1.17.29 2.38.57 3.63.85.56.12 1.42.19 2.08.24h.14l.36.04h.35l.36.04h.16l.48-.04c.14 0 .63.04.6.09l.05.13-.06.2c-.05.13-.16.35-.24.52-.13.27-.39.75-.42.77-.09.09-.64.01-.99-.03-.73-.1-1.44-.19-2.05-.01-.41.12.18 1.51.33 1.69.29.37.82.54 1.38.61.82.1 3.15-.77 3.19-1.31.02-.3-.37-3.8-.61-5.9-.05-.43-.12-1.02-.16-1.32-.06-.41-.11-.78-.16-1.29-.04-.37-.11-.82-.16-1.2-.02-.12-.11-.95-.16-1.44l-.04-.44-.04-.32-.04-.44-.04-.28v-.2l-.04-.32c-.03-.26-.07-.54-.08-.74-.03-.51-.13-1.28-.2-1.83-.04-.31-.11-.83-.18-1.04-.12-.34-.19-.54-.1-.84.12-.43.31-1.09.52-1.25 0 0 .51 1.02.55 1.09.19.39.39.8.58 1.2.18.38 1.19 2.57.93 2.77-.11.08-.49-.39-.59-.51-.11-.14-.43-.53-.53-.5-.15.04.04 1.57.07 1.86l.04.28.04.36.04.28c.04.35.08.66.12 1 .1.91.27 2.42.4 3.13.05.26.07.37.08.52.02.19.05.58.08.8 0 0 .17 1.42.24 2.01.06.53.13 1.33.16 1.81.02.25.04.55.04.64 0 .27 0 .64.04.78.11.39-.21 2.05-.42 2.51-.06.12-.59.66-.98 1.06-.19.2-2.01.82-2.29.73l-.32.04c-.21.01-.35 0-.61-.04-.23-.04-.42-.11-.6-.18-.29-.12-.54-.4-.85-.74-.27-.3-.32-.87-.34-1.39-.01-.24-.01-.31.04-.6.03-.18.13-.8.04-.98-.07-.14-.89.15-1.06.21l-.16.06c-.24.08-.28.1-.28.1l-.28.14-.32.12c-.39.14-1.41.64-2.06.96-.98.49-3.73 1.64-5.04 1.36-.85-.18-1.49-.46-1.86-1.17-.27-.53-.34-.37-.57.12-.16.36-.39.71-.71.9-.36.22-.78.41-1.35.38-.32-.02-.67-.3-.86-.48-.03-.02-.21-.34-.31-.51q-.05-.09-.1-.24c-.03-.11-.06-.21-.16-.24-.02 0-.45.52-.53.62-.15.19-.39.36-.6.51-.34.25-1.29.5-1.71.46-.57-.05-1.2-.58-1.78-1.06-.47-.39-1.24-.85-1.99-.79-.51.04-2.18.38-2.4.64l-.14.06-.14.08-.18.08c-.18.09-.38.21-.54.33-.12.09-.23.15-.37.23-.17.1-.42.26-.71.48l-.13.09c-.14.11-.29.23-.42.35-.15.14-.31.26-.47.38-.15.11-.28.23-.4.36-.93.94-1.96 1.94-3.08 2.68-.8.53-1.86.67-2.85.28-.51-.2-1-.89-1.25-1.37" fill="#1d1d1b" fill-rule="evenodd"/></svg>