<svg viewBox="0 0 84.35 29.63" xmlns="http://www.w3.org/2000/svg"><path d="m11.17 26.1c.2.06 0 .68-.07.8a21.6 21.6 0 0 1 -2.7 1.39c-.43.2-.87.41-1.27.64a7 7 0 0 1 -1.6.69c-.17-.05.14-.75.24-.81l.6-.34.72-.37.17-.1.16-.08.18-.08.14-.08.18-.08.32-.16.18-.08.48-.24.1-.06.13-.07.26-.14.14-.06.7-.36a8.66 8.66 0 0 1 .9-.41m13.25 2.1c-.13-.45.27-3.07.73-3.17.25-.06-.11.86-.12.87a3.07 3.07 0 0 0 -.21.79c-.05.43.05 1.33.5 1.53.23.1.35 0 .48-.21l.32-.39c.35.13-.57 1.52-.67 1.58-.57.35-.9-.62-1-1m9.15.32c-.15-.24.88-.76 1.14-.88l.75-.38.6-.28.14-.06c1-.52 1.93-1.11 2.84-1.71a7.86 7.86 0 0 0 2-1.91c.38-.54-.29-2.51-.64-2.86 0 0-.18-.27-.24-.37a3.93 3.93 0 0 0 -.24-.39l-.46-.53-.19-.21a17.15 17.15 0 0 0 -1.26-1.42c-.23-.22-1.15-1-1.77-1.49-.14-.12-.28-.24-.4-.36a4.25 4.25 0 0 0 -.39-.35l-.22-.19-.22-.13c-.14-.11-.14-.11-.19-.18a.44.44 0 0 0 -.17-.14 18.53 18.53 0 0 1 -3.25-2.93 8.33 8.33 0 0 0 -1.07-1.17c-.07-.08-.34-.42-.48-.61a2.58 2.58 0 0 0 -.34-.4l-.07-.13a6.62 6.62 0 0 0 -1.1-1.08c-.12-.09-.17-.77-.19-1s-.09-1.19-.06-1.17c.26.2.67.45 1 .65s.36.22.55.32a7.5 7.5 0 0 1 .71.4c.36.24 1.79 1.22 1.56 1.57-.06.09-.54-.09-.67-.13a4.71 4.71 0 0 0 -.56-.15c-.36-.08 1.64 2 1.82 2.12.73.66 1.72 1.56 2.24 2a34 34 0 0 1 4.42 4 7.49 7.49 0 0 1 1.7 2.51l.06.16.08.2.06.16.14.36.14.35a5.59 5.59 0 0 1 .12.56 4.65 4.65 0 0 0 .23 1c.3-.16.19-1.26.13-1.87 0-.38-.25-1.79-.36-2.62-.22-1.5-.48-3.19-.75-4.49s-.51-3-.73-4.57l-.37-2.59a5.64 5.64 0 0 0 -.22-1c-.08-.26-.23-.69-.14-.87a4.92 4.92 0 0 0 .24-.63c.07-.21.19-.55.36-.58a2.5 2.5 0 0 1 .22.46 5.68 5.68 0 0 0 .28.55l.08.16a1.91 1.91 0 0 0 .16.32l.12.21.16.32a9.2 9.2 0 0 1 .93 2.17c0 .29-.38-.06-.44-.1a6.71 6.71 0 0 0 -.55-.44c-.06 0 .37 2.91.4 3.14.15 1 .29 1.83.48 2.85.4 2.16.75 4.37 1 6.56a10.34 10.34 0 0 1 -.24 3 3.8 3.8 0 0 0 -.23.59c-.09.26-.21.65-.26.75a7.6 7.6 0 0 1 -.69 1.18 5.27 5.27 0 0 1 -.83.87l-.56.46c-.16.12-.52.38-.53.4-.29.43-5.36 2.21-5.77 2m-21.09-5 .09.15.09.13a1.68 1.68 0 0 0 .34.22 4.24 4.24 0 0 0 .78.48 10.09 10.09 0 0 0 5.89.21c.92-.2 4.6-1.56 4.58-2 0-.23-1.38-1.1-1.72-1.21a1.92 1.92 0 0 0 -1.21 0c-.31.16-.53.27-.69.23s.17-1.34.27-1.48a3.12 3.12 0 0 1 1.47-.87 19.19 19.19 0 0 1 3.6-.56c.72-.06 4.24.69 4.32 1.15a2.51 2.51 0 0 1 -.26 1.5 4.67 4.67 0 0 1 -.65.28 1.12 1.12 0 0 0 -.26.14l-.5.24a9 9 0 0 0 -1.52.86c-.28.38 1.49 1.21 1.88 1.3a4.54 4.54 0 0 0 1.87 0c1.05-.21 2.54-.75 3-1.52.1-.18-.45-1-.62-1.25l-.17-.2-.15-.24-.16-.25-.24-.36c-.17-.28-1.19-2.32-1.17-2.37v-.32c.06-.63.06-.63.07-.71a1.14 1.14 0 0 1 .17-.45s.64.51.76.61l.3.26s0 0 .22.18l.2.16c.22.19.72.63.73.65.3.37-.45.32-.84.29-.16 0 .36.7.36.7l.24.31.17.23a5.78 5.78 0 0 1 .72 1.45 4.65 4.65 0 0 1 -.07 2.34 3.18 3.18 0 0 1 -.46.69c-.06.07-.25.25-.38.38a.59.59 0 0 0 -.2.17 8.67 8.67 0 0 1 -2.33.98 5.08 5.08 0 0 1 -2.23 0 6.35 6.35 0 0 1 -3.11-2c-.15-.15-.79.22-.94.31a9 9 0 0 1 -.88.44l-.42.23a4.18 4.18 0 0 1 -.42.2l-.53.24a3.34 3.34 0 0 1 -.46.2 17.48 17.48 0 0 1 -4.42 1.25 7.41 7.41 0 0 1 -5.05-1.13 4.81 4.81 0 0 1 -1.3-1.58s-.9-3-.9-3c-.14-.2-1.82 1.2-1.94 1.31-.51.48-1.05 1.06-1.56 1.61a3.12 3.12 0 0 0 -.32.4 6.1 6.1 0 0 1 -.4.59 3.52 3.52 0 0 0 -.31.5l-.27.35-.18.22a4.79 4.79 0 0 1 -1.9 1.63 2.39 2.39 0 0 1 -1.77-.11c-.15-.08-.4-.26-.6-.4a1.94 1.94 0 0 1 -.33-.28l-.22-.25a3.35 3.35 0 0 1 -.54-1.64 8.19 8.19 0 0 1 .51-3.24c.08-.2.32-.73.48-1.07a5 5 0 0 1 .3-.56 2 2 0 0 0 .26-.51s-.27-.49-.38-.68a2.67 2.67 0 0 1 -.34-1c-.17-1 .3-6.09 1.16-5.93.24 0-.13 1-.23 1.3s-.29 1.27-.42 1.94a3.27 3.27 0 0 0 .92 3.09c.2.13.45-.17.52-.32s.08-.31.12-.43a1.87 1.87 0 0 1 .16-.49c.39-.55.16 1 .12 1.24a2.22 2.22 0 0 1 -.26.71 2.58 2.58 0 0 1 -.6.65 1.84 1.84 0 0 0 -.67.71 8.22 8.22 0 0 0 -1.11 4.5 3.54 3.54 0 0 0 .46 1c.46.83 2.09.09 2.56-.22a8.4 8.4 0 0 0 2-2.18l.88-1.22c.16-.19.34-.37.52-.55l.56-.6.71-.63.21-.17.13-.08.22-.15c.07-.06.47-.33.71-.48s.67-.47.68-.49-.52-7.5-.67-8.34c0 0-.08-.66-.12-1 0 0-.08-.45-.12-.71-.08-.47-.18-1-.28-1.43a8.31 8.31 0 0 0 -.28-1 2.64 2.64 0 0 1 -.24-1.15s.12-.49.2-.79c0-.11.2-.8.26-.77.92.42 1.54 7.7 1.65 9.05.08.83.18 2 .27 2.85v.35.52.31.28.44c0 .29.09.93.34.89a13.15 13.15 0 0 0 1.23-.56l.14-.06.16-.08.28-.03a2.35 2.35 0 0 0 .34-.16l.13-.07.3-.16a1.06 1.06 0 0 1 .2-.12c.08 0-.21-.39-.21-.39a2.88 2.88 0 0 1 -.23-.34 3.13 3.13 0 0 1 -.16-1.37 7.41 7.41 0 0 1 .82-1.72 2.17 2.17 0 0 1 1.33-.36l.32.08a3 3 0 0 1 .52.2 3.92 3.92 0 0 1 .86.54c.24.18.66.52.7.57a8.93 8.93 0 0 0 .72.75c.18.1-.24 1.45-.34 1.55s-.53.34-.87.55l-.15.06a1.17 1.17 0 0 0 -.32.15c-.16.1-.49.25-.72.36a3.57 3.57 0 0 0 -.61.34s0 .36 0 .39 0 .44-.15.47-.22-.12-.3-.25-.16-.24-.28-.25l-.24.11-.16.06-.36.22-.4.2-.59.28c-.26.13-.57.28-.8.37s-.93.42-.93.56a4.86 4.86 0 0 0 1.12 2.88m66.88.68a2 2 0 0 0 .75-.42 1.45 1.45 0 0 0 .24-.35c.09-.16.26-.48.38-.42v.34a.37.37 0 0 0 .16.25c.1.08.84.13.78.05a5.46 5.46 0 0 1 .54-1.3c.14-.1.06.67 0 .76s-.07.29-.12.44a2 2 0 0 1 -.6 1 .86.86 0 0 1 -.94.08c-.31-.12-.47 0-.85.24a1.27 1.27 0 0 1 -1.21.2 1.86 1.86 0 0 0 -1.12-.26 4.66 4.66 0 0 0 -1.21.65l-.35.25-.21.15-.2.17-.34.23a7 7 0 0 1 -2.67 1.12c-.28 0 .33-.33.33-.33a4.14 4.14 0 0 0 .67-.4l.14-.08.14-.07c.13-.08.31-.21.46-.32l.36-.24.53-.4a.84.84 0 0 0 .25-.17l.42-.31a11.71 11.71 0 0 1 1.48-1 1.56 1.56 0 0 1 1.08-.2 2 2 0 0 1 .39.17 1 1 0 0 0 .68.18m-35.13-20.69s1 1.67 1.14 1.91c.24.41 1.08 2 .92 2.38 0 .11-.52-.33-.53-.34-.19-.2-.53-.53-.64-.48s.2 1.4.24 1.61c.08.52.17 1 .28 1.7l.52 3.41c.44 2.65.93 5.54 1.12 8.23a10.6 10.6 0 0 1 -.48 4.08c-.07.22-.67 1.48-.55.4 0-.48.13-1.12.12-1.43a1 1 0 0 1 0-.34v-.8-.16-.22-.24-.37c0-.22-.13-1.32-.18-1.71s-.16-1.35-.18-1.46c-.07-.43-.13-1-.2-1.51v-.23-.28-.28-.24c-.07-.47-.14-.95-.2-1.42s-.12-.91-.2-1.43-.14-1-.2-1.46c-.23-1.8-.5-3.69-.76-5.51 0-.11-.07-.64-.08-.75a3.55 3.55 0 0 0 -.06-.47 6.84 6.84 0 0 0 -.2-1c-.1-.32.08-1.53.37-1.64m-26.99 16.12a8.14 8.14 0 0 1 -.22 1.07 2.93 2.93 0 0 0 -.12 1.36 1.86 1.86 0 0 0 .37.84.29.29 0 0 0 .42-.06l.26-.46c.12 0-.11.94-.13 1s-.34.89-.72.51a1.76 1.76 0 0 1 -.52-1 4.56 4.56 0 0 1 .08-1.83c.06-.28.34-1.51.58-1.39m19.28 2.88c-.18-.65.15-3.41.67-3.78.24-.16 0 .45 0 .53a5.28 5.28 0 0 0 -.24.95 2.94 2.94 0 0 0 0 1.64c.1.21.44.76.71.49a1.38 1.38 0 0 0 .11-.27c0-.11.12-.42.19-.37.34.23-.26 1.66-.49 1.7-.47.07-.76-.48-1-.89m15.21.3-.06-.14a1 1 0 0 1 -.1-.21 1.87 1.87 0 0 1 -.12-.52 7.28 7.28 0 0 1 .15-1.94 5.94 5.94 0 0 1 .3-.87c.07-.17.16-.36.24-.52a1.23 1.23 0 0 0 .2-.55 2.18 2.18 0 0 0 -.35-.28c-.08-.07-.32-.24-.32-.24-.21-.18-.42-.36-.61-.54a5.3 5.3 0 0 1 -.56-.6 2.46 2.46 0 0 0 -.34-.29 1.23 1.23 0 0 1 -.35-.31 2.79 2.79 0 0 1 0-1.62c.07-.16.29 0 .41.09a5.77 5.77 0 0 0 .54.23l.6.21.68.26c.22.09.48.19.39.43 0 0-.22.08-.35.11s-.25 0-.26.13 1.08.88 1.33 1 1.13-1.24 1.28-1.46c.36-.55.77-1.13 1.19-1.65.64-.79-.09 1.6-.25 1.82a11.87 11.87 0 0 0 -1.05 1.67c0 .07.41.36.56.45s.48.37.72.56a2.46 2.46 0 0 1 .75 1.38 4.54 4.54 0 0 1 -.34 2 5.38 5.38 0 0 1 -1.75 1.45c-.45.25-2.37 1-2.48-.06m-24.51-1.84c0-.28-2.56-.37-2.83-.2s1.06 1.14 1.09 1.14a5.64 5.64 0 0 0 1.74-.94m28.29-.89c0-.47-1.94-1.6-2.41-1.49a7.4 7.4 0 0 0 -1.06 2.05 1.76 1.76 0 0 0 .29.77c.1.19.66.18.89.12a5 5 0 0 0 2.29-1.45m14.09-.83c.19-.27-.79-.81-1.14-.86s-1.55.17-1.31.78c.16.4 2 .15 2.45.08m-53-3.14c.13-.32-1.62-1.25-2.16-1-.32.13-.65.26-.74.56a5.58 5.58 0 0 0 1.08 1.34 8.41 8.41 0 0 0 1.82-.86m4.88-3.44c.22-.46 0 .45 0 .48a6.37 6.37 0 0 0 -.16 1.62 1.63 1.63 0 0 0 .56 1.15c.24.1.35 0 .44-.2a1.7 1.7 0 0 1 .23-.53c.35-.11-.19 1.57-.57 1.74a.59.59 0 0 1 -.64-.24 5.68 5.68 0 0 1 -.38-.81v-.2-.47c-.18.78 0-.76 0-.76l.16-.75a10.29 10.29 0 0 1 .38-1m6.53 2.65c-.08 0 .22-.61.28-.72s.43-.65.43-.65c.19-.05 1 .55 1.13.69.52.48.4.67 0 1.27-.27.44-.43.7-.82.38a4.88 4.88 0 0 1 -1.05-1m-22.43-.5a4.53 4.53 0 0 1 -.28-1.62 15.63 15.63 0 0 1 .36-1.7 5.15 5.15 0 0 1 .16-.56 1 1 0 0 1 .13-.32c.07-.09.3-.21.22 0a8 8 0 0 0 -.43 2.37 1.9 1.9 0 0 0 .52 1.24c.25.12.38-.05.47-.25s.19-.42.24-.41c.27.07-.35 1.43-.41 1.52-.32.43-.76.08-.94-.28m74.05-1.57a3.15 3.15 0 0 1 -.18-1.66 9.55 9.55 0 0 1 .72-2c.09-.2 0 .46 0 .6l-.06.14-.15.3a1.33 1.33 0 0 0 -.1.32l-.1.27c-.14.34.28 1.24.44 1.42s.47 0 .57-.12a1.83 1.83 0 0 0 .12-.31c0-.12.1-.29.19-.22.32.24-.39 1.41-.48 1.5-.35.35-.78.18-1-.25m-14-.34c-.1-.57-.24-1.48-.24-1.55a5.31 5.31 0 0 1 .65-2.17c.29-.58.13.26 0 .51s-.39 1.51-.27 1.27v.28.23a1.78 1.78 0 0 0 .18.52.73.73 0 0 0 .75.47c.14 0 .22-.35.26-.51s.1-.41.19-.47c.5-.27-.35 1.78-.37 1.81-.41.57-1 0-1.21-.39m-39.07-.74a2.12 2.12 0 0 0 -1.35-.16 1.38 1.38 0 0 0 -.51.27c-.13.11-.32.27-.4.27s.14-.65.15-.67a2.15 2.15 0 0 1 .34-.47c.15-.28.67-.4 1-.49a16.31 16.31 0 0 1 2.08.31c.2.09-.13.71-.2.85a2.5 2.5 0 0 1 -1.15.92l-.75.3c-.17.06-1 .28-1 .13s.48-.48.81-.66a10.22 10.22 0 0 0 1-.62m24.3-.14c-.24-.25.49-1.38.74-1.47a3 3 0 0 1 .67.38 2.06 2.06 0 0 0 .85.41 3.55 3.55 0 0 0 .35-.57 1.28 1.28 0 0 1 .41-.59c.29-.18 1.55.94 1.62 1.22s-.39.93-.67 1.34c-.08.13-.73-.39-.84-.48s-.61-.48-.77-.47a3.65 3.65 0 0 0 -.33.59 4 4 0 0 1 -.37.66c-.22.18-1.64-.89-1.66-1m-33-1a29.05 29.05 0 0 1 4.65-2l.54-.22c.22-.1.52-.23.67-.28l1.39-.52.59-.23c.13-.06.53-.22.56-.22.37-.06.29.27.22.53s-.14.45-.26.46-3.73 1.38-4.61 1.77-1.56.67-2.35 1c-.44.16-.82.34-1.22.53-.18.09-.42.21-.39-.12s.12-.72.24-.72m60.65-5.54c-.1-.69.27-2.11 1-2.29a.76.76 0 0 1 .65.14 2.36 2.36 0 0 1 .37.88s0 .41 0 .6v.51.24a1.22 1.22 0 0 0 0 .45l.23.16.28.23a.88.88 0 0 1 .06 1c0 .07-.4-.16-.51-.23a2.15 2.15 0 0 0 -.56-.29l-.5.58-.72.67a13.06 13.06 0 0 1 -1.48 1.23 1.25 1.25 0 0 0 -.24.16.63.63 0 0 1 -.2.15l-.15.14a3 3 0 0 1 -.35.23l-.24.17-.22.13-.63.37c-.19.12-.86.39-1.32.58h-.12l-.15.06-.16.06-.67.24a8.16 8.16 0 0 1 1-.9l.15-.08.28-.16.5-.31c.75-.46 1.47-.94 2.2-1.44.18-.12 1.16-.9 1.82-1.43.22-.17.93-.74.57-1s-.79-.54-.89-.91m-63.44 2a5.46 5.46 0 0 0 -1.33-1.95 2.58 2.58 0 0 0 -.82-.7c-.4-.12-.94-.28-1.1-.62a1.87 1.87 0 0 1 .24-1c.25-.21 1.39.74 1.64.94a8.13 8.13 0 0 1 .62.65c.15.17.53.6.63.6l-.06-.59a3.08 3.08 0 0 1 .07-1.31 2.44 2.44 0 0 1 .63-1.24c.34-.27.88.4 1 .57l.3.43a.62.62 0 0 1 -.15.48c-.07 0-.07 0-.12.14s-.56-.3-.57-.31c-.17-.15-.32-.29-.49-.29-.36 0-.23.75-.18 1.09a8.43 8.43 0 0 1 .12 2.18 4.89 4.89 0 0 1 -2.88 4.53c-1.07.5 1.12-1.49 1.12-1.49a4.14 4.14 0 0 0 1.33-2.11m36.91-.81a1.07 1.07 0 0 0 -.18-.19 3.71 3.71 0 0 1 -.27-.29 1 1 0 0 1 -.25-.54 2.75 2.75 0 0 1 .46-1.48c.15-.18.92-1 1.18-.37a2.33 2.33 0 0 1 .22.81l-.08 1c0 .27 0 .53.05.61l.44.31a3.59 3.59 0 0 1 .46.48c.16.18-.06.79-.18.81l-.2-.16a3.81 3.81 0 0 0 -.32-.24 2.58 2.58 0 0 0 -.7-.36c-.12 0-.44.37-.53.48a6.66 6.66 0 0 1 -.56.62 10.68 10.68 0 0 1 -1.07 1 15.21 15.21 0 0 1 -3.14 1.59c-.27-.05 1.06-.87 1.08-.88a13.08 13.08 0 0 0 1.35-.99l.57-.38c.15-.1.43-.32.63-.49s1.18-1 1.08-1.34m4.57 2.07c.89-.9 8.44-5.08 8.44-5.08.21.07-.07.72-.12.79-.16.25-3.08 2-4.39 2.77-.74.44-1.67 1-2.21 1.35l-.5.32-.65.39-.42.33c-.34.21-.27-.6-.14-.87m-56.49-3.74c.38-.24 1.53.81 1.79 1a5.06 5.06 0 0 1 .65.73l.32.45c0 .07 0 .07.14.28a.51.51 0 0 0 .16.24c.19.13.16-.49.15-.58 0-.32 0-1 0-1a7.79 7.79 0 0 1 .16-1.04c.16-.62.46-1.36 1.13-.78a1.35 1.35 0 0 1 .46.74c.07.33-.07 1.1-.45.64-1-1.2-1-.05-.94 1 0 .3-.16 3.26-.51 2.78 0 0-.13-.32-.18-.47a3.45 3.45 0 0 0 -.25-.49 6.26 6.26 0 0 0 -.57-.82c-.37-.45-.76-.94-1.32-.94a1.08 1.08 0 0 1 -.74-1.74m68 .79a1.4 1.4 0 0 1 .1-1c.35-.65 2 1 2.15 1.17s.52.66.72.94.35.53.26.67 0 .34.17.21v-.36-.5c0-.08 0-.59 0-.85a5.84 5.84 0 0 1 .12-1.54 2.89 2.89 0 0 1 .87-1.32.66.66 0 0 1 .62-.07 1.38 1.38 0 0 1 .62.94 1.79 1.79 0 0 1 -.18.79c0 .13-.83-.62-.85-.64-.2-.2-.57.18-.62.29s-.07.9-.1 1.54c0 .49-.09 1.25-.16 2 0 .22-.12 1.34-.47 1.11l-.08-.31a2.87 2.87 0 0 0 -.3-.58 18.33 18.33 0 0 0 -1.17-1.47.55.55 0 0 0 -.39-.23h-.16a1.28 1.28 0 0 1 -.37-.14 1.41 1.41 0 0 1 -.8-.67m-32.35-2.02c.16-.08-.08.89-.13 1.08l-.12.47c0 .11-.07.37-.08.48v.83.24l.08.23a1.59 1.59 0 0 0 .31.59c.38.23.55-.23.7-.64s.09.67 0 .89a2.14 2.14 0 0 1 -.35.78c-.06.08-.63.19-.66 0 0 0-.17-.16-.18-.18a1.75 1.75 0 0 1 -.28-.6 4.21 4.21 0 0 1 -.05-2 9.06 9.06 0 0 1 .76-2.17m-16.18 3.07a4 4 0 0 1 0-2 5.36 5.36 0 0 1 .43-1.29s-.13 1-.15 1.21a2.51 2.51 0 0 0 .12 1.34c.09.25.34.77.62.81s.25-.1.3-.3.11-.46.23-.41-.22 1.66-.45 1.72c-.59.16-1-.57-1.1-1m7.06-1.5-.13-.09-.14-.08a.57.57 0 0 1 -.26-.31c-.14-.54.92-1.49 1.26-1.76s.74-.39 1.08 0 0 1-.4 1l-.1-.14a.79.79 0 0 0 -.36-.19 1.41 1.41 0 0 0 -.73.5c0 .38.76.54 1 .54a2.92 2.92 0 0 0 .81-.09c.13 0 1.08-.27 1-.05a2.66 2.66 0 0 1 -.37.68 17.32 17.32 0 0 0 -2.18.7c-.25.11-.71.31-.79.26s.1-.28.1-.3c.09-.25.22-.61.21-.62m25.12-.58c-.4.25.52 1 .81 1s.07-.85 0-1-.71-.21-.8.08m28.09-.45a.58.58 0 0 0 -1 .37c0 .24.63.62.86.75.78.44.31-1 .11-1.12m-56.63-1.29c.47-.23 2.22-1 3.44-1.6.55-.26 1.12-.53 1.67-.74l.32-.14.13-.05.48-.22 1-.38c.21.1-.07.73-.14.85s-3.71 1.61-4 1.71-1.33.59-2 .91l-.18.06-.16.08-.14.08a5.45 5.45 0 0 1 -.64.28c-.39.1 0-.7.18-.84m27.19 24.55h-.2-.2-.2l-1.15.32a9.56 9.56 0 0 1 -2.25.41c-.1-.07.42-.37.5-.41l.83-.34.16-.05.16-.06.16-.08.28-.12.16-.06.13-.06.19-.08.31-.12.2-.08a26.91 26.91 0 0 0 3.06-1.43c1.92-1 3.81-2.16 5.58-3.33.71-.47 4-2.92 3.79-3.49a11.48 11.48 0 0 0 -.66-1.34c-.09-.18-.21-.36-.31-.52a5.64 5.64 0 0 1 -.4-.67 14.53 14.53 0 0 1 -1.26-2.83c0-.14.17-1.49.38-1.47l.79.82a8.07 8.07 0 0 0 .67.64c.25.22.64.56.69.8s-.21.1-.28.08-.61-.12-.64-.06a7 7 0 0 0 .92 1.72 4.38 4.38 0 0 1 .78 1.64 4 4 0 0 1 -.88 3.64l-.78.75a4.85 4.85 0 0 0 -.8.88 3.38 3.38 0 0 0 .38 2.89 3.68 3.68 0 0 0 1.23 1 3.17 3.17 0 0 0 1.51.24c2.22 0 4.29-1.76 5.56-2.92a15.29 15.29 0 0 0 2-2.16c.42-.56.53-1.28-.49-1l-1.07.22-.6.08h-.32-.24c0 .07-.8-.17-.83-.17a2.21 2.21 0 0 1 -.64-.38 2.34 2.34 0 0 1 -.34-2.26 12.43 12.43 0 0 0 .72-1.32c.13-.31.71-.56 1.09-.64a2.73 2.73 0 0 1 1.37.3 3.32 3.32 0 0 1 1.07.9c.15.17.3.35.44.53s.33.45.41.45a6.76 6.76 0 0 0 1.75-1.07c.37-.29 1.44-1.14 1.68-1.06.06 0 .13.14.15.2v.34.26.55a1.5 1.5 0 0 0 .49.76 2.24 2.24 0 0 0 .56.39 2.08 2.08 0 0 0 .48.18 6.62 6.62 0 0 0 1 0h.2.2l.28-.12a4.14 4.14 0 0 0 .55-.31 2.87 2.87 0 0 0 .84-.86 10.6 10.6 0 0 0 .58-1.11c.06-.14.62-1.19.77-.76.06.15-.13.57-.19.72a1.52 1.52 0 0 0 -.2.79c0 .26.86.7 1.11.79s1.57.34 1.77-.05c.06-.12-.12-.52-.17-.62a2.29 2.29 0 0 0 -.17-.23.74.74 0 0 1 -.25-.33 5.52 5.52 0 0 1 .36-1.44c.14-.23.55.64.57.69a4.51 4.51 0 0 1 .34 1.11 3.41 3.41 0 0 1 -.16 1.7c-.13.34-.4.87-.73 1a2.31 2.31 0 0 1 -1.16.22c-.81-.16-2-.61-2.11-1.36 0-.14-.44.47-.44.47-.12.18-.23.35-.36.51a3 3 0 0 1 -.75.62l-.6.24a2.44 2.44 0 0 1 -.35.12h-.2l-.4.06c.13.06-.64-.06-.8-.1a2.11 2.11 0 0 1 -.59-.26 2.21 2.21 0 0 1 -.76-.73 2.61 2.61 0 0 1 -.26-.53l-.08-.28c0-.05-.13-.63-.18-.54l-1.17.9a5.68 5.68 0 0 0 -1.12.95 9.34 9.34 0 0 1 -.29 2.08 10.46 10.46 0 0 1 -.8 1.23 1.51 1.51 0 0 1 -.19.22 3.47 3.47 0 0 0 -.25.29l-.18.23a1.08 1.08 0 0 0 -.24.28 24.37 24.37 0 0 1 -3.21 2.68 5.46 5.46 0 0 0 -.5.32l-.5.28a3.49 3.49 0 0 1 -.62.25l-.35.12-.28.08a4.13 4.13 0 0 1 -3.13-.13 3.45 3.45 0 0 1 -1.51-1.48 3.93 3.93 0 0 1 -.38-1.42 5.1 5.1 0 0 1 0-1.05v-.26-.26c0-.18 0-.55 0-.56s-1.05.58-1.09.6c-.3.23-.59.43-.91.64-.7.46-1.43 1-2.19 1.35l-1 .53c-.37.21-.89.49-1.16.6-.12.05-.87.25-1.31.36l-.6.15a1.18 1.18 0 0 1 -.31.08c-.14.06-.41.06-.52.12" fill="#221e1f" fill-rule="evenodd"/></svg>