<svg viewBox="0 0 97.92 25.54" xmlns="http://www.w3.org/2000/svg"><path d="m42.99 21.11c-.06.07-.13.12-.2.15-.15.08-.37.18-.46.22l-.16.06c-.17.03-.21.04-.23.06-.04.03-.29.11-.46.17l-.24.06c-.09.2-1.2-.04-1.24-.05-.04.01-.42-.13-.46-.15-.48-.21-.85-.42-1.17-.78-.34-.38-.53-.89-.65-1.51-.03-.15-.87.95-.9.99-.24.32-.63.72-1.09.95l-.23.15c-.15.09-.24.13-.42.2-.26.1-.6.22-.83.26-.52.09-1.64.17-2.06-.04-.46-.23-.89-.51-1.32-.79-.26-.17-.55-.92-.67-1.28-.04-.12-.04-.49-.04-.78v-.32q.04-.65.01-.85c-.03-.24-1.83.43-1.83.43-.29.11-.85.33-.99.4-.29.14-.61.29-.93.42-.99.4-2.28.9-3.23 1.04-.82.13-1.26.19-2.02.08-.53-.08-1.07-.39-1.38-.69-.18-.17-.34-.32-.48-.52-.12-.16-.48-.66-.51-.64 0 0-.2.31-.25.39-.08.13-.21.33-.24.38-.21.29-.44.51-.71.74-.7.62-2.97 1.27-4.1.82-.34-.14-.92-.38-.99-.42-.26-.17-.78-.52-.85-.55-.11-.04-.69-.83-.98-1.24-.39-.54-.85-1.17-1.45-.92-.26.1-.66.43-.96.67-.12.09-.28.23-.39.34l-.17.23c-.06.06-.12.12-.19.17-.39.32-.86 1.38-1.2 2.12-.39.88-.92 2.06-1.3 2.5-.24.28-.64.6-1.08.67-.36.06-.81-.1-1.08-.31-.51-.41-.94-.94-1.26-1.54-.14-.26-.44-1.31-.71-2.23-.22-.76-.08-3.37.29-4.24.23-.54.04 1.53.04 1.59-.04.37-.03.99.08 1.41.22.88.44 1.75.63 2.2.17.4.79 1.06 1.18 1.25.29.14.53.23.91.14.37-.08.63-.38.9-.69.19-.22.7-1.38 1.04-2.14.31-.71.64-1.28 1.02-1.88.5-.8 2.48-2.82 3.61-1.85.06.05.55.77.82 1.18.26.39.6.89 1 1.11.53.29 1.17.64 1.58.77.85.28 2.82-.07 3.41-.66.36-.36.95-.97.99-1.02.38-.57.87-1.3 1.03-1.36.11-.05.16.14.16.2 0 .25.01.58.04.66.07.2.26.55.41.82.21.38.9.66 1.35.81.58.19 1.32.14 1.98 0 .97-.21 3.81-1.09 4.45-1.53.15-.1-.54-.32-.66-.35-.27-.08-.57-.19-.83-.3 0 0-.51-.18-.71-.24l-.2-.06q-.24-.07-.28-.08c-.17-.06-.33-.12-.48-.18-.22-.09-.63-.24-.81-.26h-.21s-.07.13-.07.13l-.15.07h-.16q-.1 0-.24 0c-.67.02-1.35.04-1.71.04-.18 0-.54.04-.83.08-.15.02-.37-.05-.5-.11-.15-.08.5-1.3.55-1.34.32-.27 3.11-1.22 3.58-.75 0 0 .65.28.81.34.3.11.59.22.89.34q.25.1.32.12c.14.04.36.11.4.12l.24.08c.12.04.36.12.36.12s.56.19.85.28l.16.04c.14.04.29.09.44.14.24.08.48.16.73.22.19.05.89.24.89.24.39.19 1.53.37 2.1.44.24.03.87.08 1.31.12.37.03.77.07 1.26.15.12.02-.28.74-.32.81-.13.24-.31.57-.44.7s-1.16.03-1.65-.02c-.09-.01-.6-.07-.66-.08q-.26-.04-.29-.04c-.12 0-.61-.02-.68.05-.55.55.65 1.81.83 1.99.29.29.96.51 1.48.57 1.25.15 2.22-.37 3.15-1.02.36-.26.72-.63.97-1 .25-.38.69-1.06 1.09-1.08 0 0-.05.51-.06.56-.02.21.07.51.14.72.17.52.46.82.82 1.14.14.12 1.14.63 1.28.53l.32.04h.52c.2-.02.75-.1.85-.2l.16-.06.36-.22.36-.22c.3-.18.64-.5.86-.75.2-.23.46-.53.59-.72.22-.31.56-.78.91-.74l.04.28.06.24c.05.15.16.28.28.37 1.54 1.2 3.83 2.01 6.34 1.3.67-.19 2.21-.68 2.43-1 .01-.02-.2-1.17-.27-1.59-.08-.41-.22-1.28-.32-1.89-.11-.64-.24-1.44-.32-1.97-.06-.39-.11-.76-.16-1.16-.05-.38-.1-.78-.16-1.17-.06-.41-.38-3.27-.61-5.26-.1-.87-.2-1.83-.28-2.49-.04-.34-.08-.64-.16-.92-.07-.24-.16-.55-.08-.72l.08-.32.04-.16.04-.16c.06-.2.22-.56.36-.66.07-.05.95 1.99 1.03 2.18.37.86.88 2.05.86 2.4-.02.27-.55-.3-.55-.3-.11-.12-.38-.4-.45-.36-.07.05.08 1.22.11 1.51 0 .04.06.73.08 1.02l.04.34.04.2.08.64q.04.36.08.6c0 .05.02.11.08.6.18 1.36.42 3.25.65 4.46.22 1.19.56 3.07.68 3.61.11.51.26 1.16.71 1.06.56-.12 1.92-.39 2.38-.08.41.28.77.51.89.72.53.94.14 3.68-.93 3.86-.49.08-.88-.07-1.29-.22-.79-.29-1.54-1.42-2.08-2.24-.07-.11-1.76.61-1.99.71-.6.26-1.33.49-2.06.58-.63.08-1.01.1-1.53.08q-.56-.02-.85-.08c-.16-.03-.57-.11-.6-.06l-.02.34v.86c0 .06-.05.36-.08.48-.04.15-.08.3-.12.44-.06.18-.08.26-.13.31l-.17.18c-.03.18-1.47-.16-1.6-.28l-.23-.17c-.14-.09-.22-.17-.34-.28-.1-.09-.18-.17-.26-.27-.06-.08-.25-.3-.25-.3-.02-.02-.35-.75-.49-1.07-.08-.18-.15-.37-.2-.56-.06-.2-.12-.42-.2-.54-.06-.1-.41.25-.46.3 0 0-.39.35-.6.4m47.27.74s-.09-.14-.09-.14c.08.34-1.37 1.24-1.68 1.41-.3.16-2.23 1.22-2.44.92 0 0 1.09-.67 1.17-.72.16-.1.66-.41.66-.41.2-.15.6-.44.65-.47.2-.13.43-.29.7-.5q.06-.05.21-.15l.13-.09q.17-.14.19-.15c.1-.05.86-.49 1.35-.78.35-.2.77-.1 1.05.06.29.16.53.3.89.18.32-.11.56-.27.74-.52.08-.11.46-.63.47-.63l-.02.3.07.21s.17.14.19.15c.23.11.43.22.58.1.19-.14.22-.27.28-.6.04-.19.21-.79.4-.7.11.26 0 .63-.08.9l-.2.42c.29.02-.55.83-.7.89-.21.08-.44 0-.65-.08-.17-.07-.21-.08-.05-.43 0 0-.56.43-.69.54-.21.17-.39.3-.71.37-.3.07-.53 0-.76-.15-.27-.19-.36-.24-.82-.21-.11 0-.53.17-.62.22 0 0-.1-.19-.23.06m-16.16-4.19c.08-.06.15-.12.15-.12.19-.16.37-.31.52-.46l.07-.13.32-.19.05-.14c.15-.1.38-.35.61-.6.11-.12.11-.4.11-.74.05-.17-.17-.51-.26-.53-.19-.33-.43-.77-.49-.88-.04-.08-.09-.15-.16-.26 0 0 0 0-.16-.3l-.08-.12-.08-.14-.08-.16-.08-.14-.08-.14c-.22-.41-1.06-2.3-.95-2.57l.04-.24q.05-.35.08-.44c.05-.13.19-.56.24-.54.14.07 2.03 2.07 2.06 2.22.02.12-.18.08-.3.06-.11-.02-.73 0-.58.06.07.03 1.55 2.89 1.57 3.09.04.27.08.65.08.9q0 .3-.04.62c-.02.17-.2 1.12-.2 1.12q-.05.15-.14.28s-.23.3-.34.43c-.24.3-.52.6-.94.98q-.09.06-.23.19l-.21.17c-.12.09-.25.18-.3.26-.14.21-.51 1.66-.26 1.83l.04.2.06.28c.03.12.11.33.16.44.06.14.21.34.33.51 1.61 2.25 5.02.56 6.62-.61.18-.13.35-.26.53-.4.22-.18.45-.36.66-.52.16-.12.32-.26.47-.41.18-.18.37-.37.56-.52.3-.23 2.46-2.32 1.26-2.46-.05 0-.38.11-.55.16l-.12.04-.28.04-.28.04c-.5.09-1.15.16-1.61.16-1.53 0-2.07-1.67-1.45-3.07.25-.57 1.18-1.82 2-1.58.58.17.97.28 1.38.55.28.19.58.48.79.74l.31.44c.14.19.31.42.4.44.21.04 1.69-.99 2.2-1.35.08-.05.33-.25.48-.38.12-.1.29-.21.43-.29.35-.18.46.07.46.38l-.04.4-.04.3c0 .1.09.34.14.46.15.39.57.69.93.88.39.21.95.22 1.37.22.28 0 .89-.3 1.37-.54.49-.25.79-.8 1.05-1.29.22-.42.75-1.4 1.02-1.38.16.01-.13.66-.13.68-.15.29-.29.57-.24.82.12.69 2.24 1.33 2.84.79.14-.13-.17-.66-.22-.73-.18-.27-.35-.53-.26-.78.14-.39.24-.77.33-1.14.1-.39.61.84.62.86.15.39.23.88.3 1.34.06.38-.22 1.32-.42 1.63-.21.32-.43.59-.85.7-.4.11-.89.09-1.33-.04-.34-.1-.68-.27-.92-.47-.13-.11-.23-.22-.34-.35-.14-.17-.35-.41-.39-.43-.07-.02-.22.24-.28.34-.1.18-.21.34-.34.49-.19.23-.39.43-.65.59-.31.2-1.25.64-1.71.54-.61-.12-1.21-.24-1.37-.34-.73-.44-.9-1.12-1.12-1.99 0-.04-1.2.75-1.2.75-.21.14-1.12.83-1.15.9 0 .02-.1.84-.14 1.23-.04.36-.07.57-.18.82-.18.41-.41.72-.66 1.04-.16.2-.59.71-.96 1.14-.07.07-.15.16-.17.18q-.16.14-.17.16c-.66.95-2.04 1.86-3.06 2.44-.7.39-1.45.77-2.24.98-1.21.33-2.48.06-3.33-.5-.28-.05-1.02-1.12-1.13-1.44-.15-.43-.27-.9-.32-1.45 0-.06.02-.54.04-.8.03-.5.06-.96.02-1.02-.02-.03-.87.53-1.07.66l-.24.16-.13.09q-.18.14-.33.23l-.26.16-.13.09c-.19.14-.19.14-.21.15-.94.56-2.29 1.35-2.97 1.65-1.02.44-2.19.85-3.49 1.1q-.2.04-.44.08c-.2.03-.4.07-.61.12-.11.03-.35.06-.5.08-.08 0-.33.08-.46.12-.53.15-1.61.44-1.95.4-.27-.04.36-.38.36-.38.26-.14.55-.24.83-.34.11-.04.99-.38 1.51-.58l.18-.08.12-.06.16-.06.24-.08c.29-.1.77-.28.92-.37.45-.25.93-.5 1.42-.71 1.99-.88 4.09-2.27 5.93-3.49.48-.32.99-.66 1.45-1.01-.04 0 .25-.19.25-.19m-7.41-16.12c-.19.02-.48.3-.52.48-.04.17.51.66.67.72.39.15.31-.44.26-.74-.04-.23-.16-.46-.4-.46m27.17.07c-.27-.42-1.07.1-.92.52.11.31.61.54.91.68.65.3.22-1.06.01-1.2m-45.18 2.07c.06-.54.46-1.72.79-2.69h.12l-.02.2-.06.16-.06.12c-.1.24-.17.52-.24.8-.18.71-.12 1.96.63 2.1.12.02.19-.2.22-.3.05-.15.15-.45.18-.48.15-.2.14.32.14.32-.02.17-.07.34-.12.48-.12.33-.27.76-.53.9-.73.39-1.02-1.15-1.04-1.62m-19.8-2.41c.38-.07 1.22.93 1.42 1.22.17.24.33.49.48.75.09.16.54.94.6.9 0 0 .11-.95.14-1.16.05-.39.09-.76.2-1.08.19-.58.38-.89.76-1.26s1.21 1.01 1.17 1.38c-.02.19-.2.43-.38.36-.07-.03-.33-.24-.43-.33-.25-.22-.43-.38-.61-.37-.21 0-.42 1.81-.46 2.19-.05.39-.28 2.26-.61 2.12l-.08-.28-.08-.24s-.24-.59-.34-.82c-.18-.43-.47-.93-.78-1.26-.11-.12-.35-.23-.62-.37-.21-.11-.46-.25-.62-.41-.33-.33-.38-1.42.24-1.34m53.37 1.62c-.01-.19-.05-.89.17-1.02.49-.28 1.62.81 1.84 1.05.2.22.47.51.6.71.14.23.56.88.73.9.02 0 .02-.58.02-.6 0-.31.02-.73.04-1.06.03-.44.07-1.08.16-1.31.36-.89 1.49-2.02 1.96-.48.1.34.01.59-.13.88-.06.13-.4-.24-.45-.29-.08-.09-.27-.28-.39-.31-.64-.15-.75.56-.75 1.03 0 .63 0 1.31-.04 1.91-.03.46-.14 2.1-.63 1.93l-.02-.24-.02-.14c-.05-.15-.18-.35-.28-.5-.22-.33-.67-.98-.74-1.06-.39-.43-.47-.51-1.04-.61-.36-.06-.76-.49-1.03-.78m-11.26 2.73c1.55-1.03 8.04-4.82 8.17-4.83.22-.02.02.6-.04.73-.08.19-1.61 1.07-2.12 1.36-.78.45-1.6.91-2.34 1.41-.59.39-1.55.94-2.3 1.36-.38.22-.77.44-1.13.68-.16.11-.36.23-.46.18-.12-.06.08-.85.22-.91m-4.56-1.97c-.31-.43-.7-.98-.72-1.17-.07-.67.48-1.55.89-1.81.51-.31.8.07.89.52.06.32.04.55 0 1.04-.03.42-.07.88.03.98.02.02.29.22.42.32.17.13.37.28.44.51.05.19-.12.62-.37.59-.1-.08-.21-.16-.32-.23-.22-.14-.54-.35-.71-.38-.06-.01-.98.96-1.13 1.12-.4.43-.84.77-1.33 1.11-.29.2-2.4 1.27-2.54 1.16-.22-.16.43-.54.44-.54.22-.12.68-.38.69-.38.12-.08.37-.28.54-.42.21-.17.43-.32.65-.47.45-.29 2.19-1.55 2.13-1.97m-56.82-2.48c0 .07-.33.97-.52 1.51-.17.46-.3.99-.4 1.52-.12.61.07 2.33.72 2.36.21 0 .31-.27.37-.43.07-.19.21-.59.22-.6.22-.29.11.68.1.72-.06.23-.17.6-.2.68-.08.21-.17.44-.3.6-.09.11-.67.49-.79.2l-.21-.17q-.12-.11-.18-.19s-.15-.33-.22-.48c-.24-.56-.14-1.41-.04-2.13.11-.75.3-1.39.55-2.01.07-.17.2-.53.26-.68.03-.09.11-.29.14-.36.05-.1.42-.93.51-.54m83.92 2.67s-.35-.3-.53-.45c-.2-.16-.38-.33-.47-.6-.13-.36.09-1.23.3-1.61.18-.32.36-.54.73-.68.75-.28.89 1.64.93 2.13q.04.63.29.83c.14.11.26.21.33.3.15.19.19.85-.07.9-.02 0-.37-.23-.49-.31-.19-.13-.38-.25-.6-.18-.02 0-.36.44-.43.53-.15.19-.32.36-.5.5q-.17.13-.23.19c-.05.05-.19.16-.31.26-.09.07-.6.48-.6.53-.04.5-4.4 2.52-5.02 2.54-.21 0 1.5-1.01 1.68-1.12.27-.16 1.23-.79 1.85-1.2.58-.38 1.54-1.03 1.75-1.2.24-.19.48-.38.7-.58.23-.22.72-.66.69-.77m-82.38 4.48c1.2-1.4 14.03-7.24 14.59-7.19.34.03-.36 1.06-.37 1.07-.04.05-.25.12-.38.17-.2.07-.38.14-.56.22-.4.17-1.54.71-2.26 1.04-1.4.66-3.52 1.65-4.24 2.01-.14.07-.35.17-.44.24-.06.04-.37.21-.51.28-.33.18-.99.51-1.17.56l-.15.03-.23.19q-.15.05-.28.14l-.16.08-.16.08c-.21.1-.4.21-.61.32-.07.04-.37.19-.54.28-.41.2-1.35.78-1.98 1.17-.21.13-.88.54-.96.47-.12-.1.27-1.12.41-1.16m34.39-7.17c.66.67-1.03 1.31-1.45 1.47l-.52.2-.16.06-.2.08c-.06.02-.21.08-.28.1-.39.11-.73.24-1.09.38-1.49.57-3.04 1.19-4.4 1.93-.7.38-1.46.69-2.18.96-.72.28-1.61.72-2.38 1.11-.72.36-1.44.73-2.14 1.1l-.29.17-.15.07c-.18.09-.39.19-.52.28-.23.16-.8.55-1.04.54-.25-.02.29-1.14.32-1.17.18-.23 2.61-1.5 3.48-1.94 1.44-.72 2.91-1.42 4.42-2.05 1.39-.58 3.72-1.56 4.38-1.85.68-.3 1.4-.55 2.16-.78.07-.02.3-.11.44-.16l.16-.06.24-.1.16-.06c.27-.1.93-.35 1.05-.28m19.65 7.81c-.15-.38.43-1.2.63-1.4.13-.13.64.28.73.35.05.04.63.41.7.41.23 0 .4-.34.53-.58.1-.2.32-.58.55-.59s1.24.97 1.39 1.17c.2.28-.41 1.1-.61 1.38-.13.18-.77-.39-.87-.48-.19-.18-.52-.48-.75-.44 0 0-.14.27-.15.29l-.16.28q-.06.1-.1.2c-.06.17-.12.3-.24.42-.21.21-1.62-.83-1.64-1m-15.26.76c.01.15.9.71 1 .65.28-.15.06-.99-.13-1.13-.29-.21-.98.29-.87.47m29.72-.02c-.22-.52-.11-1.25 0-1.93.04-.3.58-1.68.72-1.62.04.02-.06.32-.07.38-.04.12-.06.18-.1.26q-.06.12-.1.26c-.11.36-.26.98-.2 1.22.14.55.25.82.53 1.2.09.12.63.03.62-.13l.06-.16.04-.16s.09-.35.09-.35c.08-.31.16.33.15.35-.02.2-.07.4-.12.56-.12.38-.28.6-.48.87-.33.45-1-.55-1.14-.75m13.72.24c-.23-.64.43-3.1.83-3.09.08 0-.24.74-.24.74-.09.18-.25.51-.26.7-.03.61.05 1.56.58 1.63.21.03.37-.21.45-.36.05-.1.19-.38.24-.34.18.16-.38 1.31-.41 1.36-.54.69-1.07-.03-1.18-.63m-48.19-.76c-.12-.23-1.71-.2-1.71-.2-.47.04-.88.08-1.15.2-.09.04-.23.11-.3.17-.17.15-.25.23-.34.21-.06-.02.19-.69.21-.74.01-.03.17-.28.24-.4l.23-.35c.11-.25.73-.5 1.06-.56.51-.09 2.83-.11 3.03.32.29.64-.87 2.01-1.29 2.23-.29.16-.69.36-.89.42q-.25.08-.38.14l-.34.16c-.13.05-.47.19-.54.09-.1-.15.97-.78 1.12-.85.17-.08 1.07-.74 1.04-.84m-22.31-.12c.04-.82.08-1.58.34-2.41.24-.76.64-1.58 1.06-2.2.23-.34-.19 1.02-.23 1.12-.19.54-.4 1.12-.52 1.73-.14.7-.01 1.77.41 2.18.22.21.48.35.71.07.1-.12.13-.23.17-.41.05-.18.09-.34.2-.46.2-.22.17.46.17.46s-.14.5-.18.64c-.02.08-.32.63-.51.98-.08.14-.51.22-.66.17-.67-.26-.89-1.03-.95-1.87m-19.05-2.22c-.31-.79-.75-1.34-1.26-1.98-.11-.13-.26-.32-.34-.4q-.1-.1-.37-.07t-.22-.04c-.4-.2-.82-.43-.97-.88-.07-.21.09-.84.21-.94.21-.18.81.18.9.25.39.29.8.75 1.18 1.18.17.19.33.41.47.63.13.2.41.64.54.62.06 0 0-1.08 0-1.08v-.44c.02-.38.05-.87.16-1.26.1-.36.28-.92.57-1.04.3-.13.32-.13.66.05.46.25.63 1.05.35 1.53-.03.04-.39-.28-.43-.31-.12-.11-.28-.24-.43-.29-.24-.07-.43 0-.46.26v2.09c0 .57-.3 3.37-.99 3.96l-.09.13c-.05.07-.22.26-.33.39-.25.29-.53.55-.87.75-.61.33-2.15 1.24-2.15 1.24-.24.12.74-.89.91-1.02.17-.14.36-.29.63-.52q.08-.06.52-.41c.37-.29 2.11-1.84 1.82-2.4m33.17 5.73c-.14.12-.27.24-.36.38-.15.23-.33.5-.46.54-.1.03-1.49-.94-1.55-1.04-.17-.27.65-1.38.89-1.37.08 0 .57.32.79.46.25.17.62.41.69.42.1.02.31-.31.38-.42.08-.13.3-.4.44-.46.29-.12 1.94 1.09 1.7 1.51-.13.23-.8 1.03-1.11.87l-.32-.23-.21-.17c-.21-.16-.69-.51-.86-.48m-20.4.13s.31-.75.59-1.36c.14-.31 1.59.92 1.65 1.22.06.32-.41.94-.63 1.24-.19.26-1.53-.95-1.61-1.1m-8.15.22c-.08 0-.35.44-.46.62-.05.07-.14.19-.24.3-.15.05-.2.06-.2.18 0 .11-.87-.52-.87-.52-.14-.1-.72-.52-.73-.56-.04-.31.26-.87.49-1.3.11-.2.82.24.98.33.28.17.91.56 1.02.49.02-.01.24-.44.31-.58.06-.12.25-.38.36-.44.26-.14 1.72 1.04 1.82 1.28.18.48-.65 1.56-1.08 1.2-.21-.17-.43-.36-.64-.53-.1-.08-.66-.53-.76-.49m41.87-1.51c0-.25-.38-.49-.61-.64-.21-.14-.42-.36-.42-.64 0-.52.26-.99.47-1.32.15-.22.78-.6 1.08-.63.82-.1.62 1.63.5 2.11-.07.29.14.59.42.98.24.33.32.66.08 1.1-.06.11-.41-.24-.46-.3-.18-.18-.36-.36-.58-.33-.01 0-.79.86-.85.94s-.32.29-.5.44c-.18.14-.4.32-.63.51q-.23.13-.4.24l-.14.08-.12.08c-.12.08-.31.2-.5.32l-.14.08-.14.08c-.11.07-2.07.96-1.76.64.23-.23.81-.62 1.21-.88.43-.28.85-.59 1.26-.89.38-.28.77-.58 1.12-.89l.31-.24c.1-.08.19-.17.28-.26.1-.1.22-.22.29-.3.1-.13.21-.26.23-.27m33.26 4.79c.17-.5-1.18-.9-1.67-.88-.07 0-.51.28-.62.35-.19.07-.2.19-.27.57l.2-.06c.64.31 1.48.16 2.35.01m-13.88.75c.06-.48-1.9-1.61-2.36-1.53-.18.03-1.01 1.63-1.07 1.89-.09.37.12.67.27.88s.6.2.88.15c.53-.1 2.1-1.01 2.28-1.38m-3.58 2.82-.23-.33c-.14-.29-.2-.64-.22-1-.04-.72.13-1.48.32-2.09.06-.18.2-.48.3-.7.11-.25.33-.71.34-.74 0-.04-.38-.33-.52-.44l-.13-.09c-.25-.21-.58-.5-1.01-.92-.12-.14-.4-.44-.4-.44-.37-.34-.47-.47-.47-1.04 0-.23 0-1.16.28-.96s.62.33.99.46c.4.14.81.3 1.19.46.13.06.31.18.15.33l-.14.05-.24.04s-.2.07-.24.1c-.11.08.44.46.46.48.2.14.42.27.62.4.36.22.47.12.81-.34l.17-.25c.06-.08.15-.18.15-.19.28-.39.56-.79.93-1.25l.24-.32.09-.13c.13-.18.43-.58.5-.59.39-.06-.46 1.9-.5 1.97-.18.28-.37.55-.57.82-.18.25-.52.73-.48.95l.13.09.14.08.12.08c.16.11.39.26.48.33.06.05.3.25.3.25l.16.18.16.2c.18.1.42.91.45 1.18.05.41-.17 1.57-.38 1.83-.45.55-1.11.99-1.78 1.43-.73.49-1.44.44-2.19.13m-7.73.09-.14-.06-.14-.08c-.14-.06-.22-.08-.4-.1-.2-.03-1.11-.12-1.09.12.03.34 1.01.91 1.33 1.04 1.36.56.82-.5.44-.92m-13.19-.16c-.36-.17 0 .88.02.94.11.25.24.45.39.67.24.37 2 1.64 1.22.21-.2-.38-1.24-1.82-1.63-1.83m13.83-19.6s1.02 2.19 1.09 2.35c.17.38.33.75.5 1.12.13.28.6 1.29.44 1.5-.09.12-.54-.33-.59-.39-.09-.08-.45-.45-.51-.31-.03.07.05.94.1 1.45.02.16.06.6.08.72.04.25.09.56.12.84.17 1.31.52 3.78.77 5.5.28 1.96.66 4.6.69 6 .03 1.46.05 2.5-.08 3.35-.19 1.22-.66 1.41-.65.1.02-2.58-.78-7.94-1.33-11.62-.07-.48-.44-3.8-.73-6.34-.1-.89-.22-1.82-.44-2.53-.1-.3.31-1.67.54-1.75m-33.09 20.95c.17-.08-.01.41-.02.44-.1.27-.2.54-.24.8-.1.56-.15 1.81.34 2.03.34.15.55-.42.65-.66.05-.13.11.31.1.36-.04.16-.08.31-.14.44-.06.11-.15.29-.2.38-.04.07-.12.18-.17.23-.06.06-.15.15-.15.15-.06.19-.61-.04-.68-.09-.24-.17-.34-.81-.39-1.2-.07-.48.24-1.42.44-1.93.05-.15.1-.29.18-.4.04-.06.29-.52.28-.56m27.04 2.57c.03-.65.47-1.46 1.17-1.43.25.01.34.35.38.54.11.48-.38 1.35-.57 1.67-.06.1-1.12 1.01-1.26 1.02-.1 0 .2-.42.2-.42.08-.11.16-.21.24-.32.08-.1.16-.2.25-.29s.18-.2.27-.3c.18-.22.46-.58.18-.85-.13-.13-.44.04-.58.15l-.09.13c-.04.05-.13.14-.19.09m-39.26-1.65c.24.03.05.52 0 .65-.04.11-.93.52-1.37.72-.23.11-.47.22-.69.3l-.14.06-.14.08-.18.08-.26.14-.14.06-.26.14c-.15.07-.37.17-.4.18-.2.08-.54.24-.81.36s-.61.28-.81.36c-.22.08-.92.35-.92.35-.13-.06.15-.69.27-.76.25-.15.52-.31.82-.41l.24-.12.16-.06.2-.08.24-.14c.25-.12.73-.33.81-.36l.14-.06.26-.14.4-.2c.28-.14.54-.26.83-.38.12-.05.49-.24.74-.36.29-.15.79-.39 1.01-.41m23.34 1.69c-.14-.21-.26-.37-.36-.42-.16-.07-.33.16-.38.26-.08.15-.23.43-.38.35-.07-.03.27-.86.32-.95.18-.34.46-.8.95-.6.65.27.15 1.5-.04 1.93-.14.3-.48.63-.76.89-.12.11-1.2.86-.78.39.07-.08.24-.29.35-.42 0 0 .25-.28.36-.4.24-.26.74-.81.73-1.02" fill="#1d1d1b" fill-rule="evenodd"/></svg>