<svg viewBox="0 0 75.02 25.34" xmlns="http://www.w3.org/2000/svg"><path d="m23.12 13.72c-.06.26-.87-.07-1.06-.37-.08-.16-.13-.38-.13-.38-.22-.56-.13-1.92.03-2.28.21-.49.2.94.2.94 0 .3 0 .63.19.92.29.41 1.14.31 1.33-.13.1-.23.03-.63-.02-.98-.06-.4-.16-1.06 0-1.39.06-.13.21.31.23.39q.05.15.08.36c.03.24.09.64.12.72.09.29.24.41.46.57.11.08 1.07.26.95.06l.04-.15s-.11-.19-.14-.24l-.16-.28-.08-.18-.08-.14c-.1-.17-.18-.4-.18-.64 0-.11.1-.82.24-.7.06.05.71 1.38.77 1.58.1.34-.03 1.12-.19 1.4-.14.26-.38.4-.72.43-.14.01-.39-.01-.55-.1-.19-.1-.44-.24-.52-.17l-.07.13-.17.27s-.13.14-.21.2c0 0-.4.24-.37.18m18.85 9.38-.11-.03s.7-.38.97-.48c.12-.05.26-.11.42-.2l.14-.08.3-.16c.57-.29 1.09-.58 1.63-.88.97-.55 3.29-1.9 3.33-1.93 1.05-.7 4.59-3.12 4.56-3.94 0-.15-.53-1.12-.79-1.61-.13-.24-.26-.46-.4-.68-.15-.24-.3-.5-.42-.76-.48-1.03-1.18-2.55-.64-3.63.02-.04.68.61.73.66.09.08.3.3.3.3.15.13.28.23.5.44l.23.23c.11.12.24.25.31.37.07.11.12.31-.08.28-.24-.04-.68-.1-.7-.07-.08.08.35.82.46 1.02l.08.14q.11.22.16.3l.16.26.16.26c.56.98.66 1.88.51 3.23-.09.76-.49 1.27-.96 1.74-.23.23-.63.62-.69.68-.3.25-.49.42-.73.74s-.22 1.39-.12 1.73c.16.56.32 1.11.64 1.38.38.32.68.54 1.16.81.44.24 1.03.21 1.69.16.61-.04 1.92-.47 2.26-.74l.14-.08.26-.16.14-.08q.14-.08.26-.16c.24-.16.59-.39.72-.49.43-.33.89-.68 1.29-1.04.1-.09.33-.3.34-.31.11-.09.2-.17.3-.27.18-.19.41-.42.57-.55.21-.17.47-.5.68-.77q.17-.18.33-.41c.04-.06.13-.21.14-.22.14-.14-.05-.51-.13-.62-.1-.14-.33-.05-.5.02-.23.08-.43.14-.73.18q-.19.03-.49.08c-.08.01-.45.07-.5.08-.2.02-.79.08-.91 0l-.32-.08c-.19-.05-.37-.1-.52-.18-.19-.1-.37-.28-.48-.46-.39-.6-.29-1.69 0-2.35.32-.74.91-1.46 1.86-1.55.48-.05 1.13.27 1.39.5.38.34.76.68 1.04 1.02.14.17.27.36.39.55.12.21.65-.09.85-.2.46-.26.9-.57 1.31-.9.39-.31 1-.79 1.32-.85.25-.04.23.45.22.58-.02.4-.05.75.1 1.02.7 1.32 2.23 1.23 3.53.62.51-.24.83-.78 1.11-1.26.31-.54.86-1.51 1.09-1.51.13 0-.12.59-.14.64-.1.24-.31.72-.28.8.09.25.42.48.81.76.37.27 1.58.48 2.01.15.18-.14-.06-.6-.13-.73l-.18-.21c-.1-.12-.19-.24-.17-.41.06-.43.18-.96.35-1.32.15-.31.59.74.64.88.21.55.26 1.09.26 1.65 0 .5-.33 1.34-.6 1.58-.28.25-.5.39-.99.45-.43.05-1.01-.14-1.49-.3-.2-.07-.43-.3-.58-.43-.1-.1-.19-.2-.27-.31-.11-.15-.22-.3-.28-.31-.05 0-.23.3-.28.39-.08.13-.15.26-.24.38-.19.26-.44.46-.72.65-.36.24-.85.49-1.38.53-.48.04-1.18.05-1.51-.22-.87-.71-.89-.77-1.32-2.12-.04-.12-1.1.72-1.15.76t-.21.15c-.11.08-.23.17-.34.25-.18.14-.63.5-.63.51-.04.08-.09.75-.1.84q-.05.7-.08.85c-.02.13-.12.47-.2.52l-.06.16-.17.27c-.06.09-.17.24-.25.34-.17.23-.34.43-.52.64-.36.4-.85.96-1.12 1.18-.12.1-.24.2-.44.39q-.09.12-.34.33l-.21.19-.2.16-.13.08c-.42.33-1.01.8-1.3.96-.72.39-1.37.73-2.26 1.02-1.05.35-2.03.21-2.99-.14-.6-.22-1.13-.88-1.45-1.39-.19-.29-.33-.71-.38-1.1-.06-.43-.1-.87-.08-1.27.01-.21.07-1.25.02-1.24-.1 0-.94.56-1.27.78q-.11.07-.32.24l-.26.16c-.24.16-.62.41-.75.48-.93.53-1.87 1.05-2.85 1.57-.9.48-2.21.79-3.27 1.02l-.2.04-.16.04-.28.04-.18.03h-.18s-.16.09-.16.09l-.2.04-.24.04c-.19.03-.39.07-.56.12-.45.13-1.65.46-1.87.33-.19-.11 1.88-.96 1.91-.97l.32-.12.16-.06.24-.08q.24-.11.28-.12l.12-.06.28-.1.32-.08c-.05-.11.35-.09.35-.09m3.85-3.85c-1.09.67-2.55.85-2.76-.68-.15-.72.04-1.74.24-2.37.1-.33.23-.63.36-.92.12-.27.3-.66.12-.84l-.21-.17-.13-.08-.28-.24q-.22-.17-.32-.27t-.24-.21c-.16-.16-.48-.49-.51-.53-.08-.11-.18-.2-.29-.29-.19-.16-.31-.26-.32-.27-.14-.45-.17-1.05-.02-1.55.06-.21.17-.12.29-.03s.3.17.46.23l.16.06q.16.06.32.12l.16.06q.22.09.24.1c.2.07.94.31.95.46 0 .16 0 .16-.26.22-.21.05-.42.1-.36.26.05.15 1.18.87 1.37.9.1.02.62-.67.85-.96l.17-.21.16-.23.07-.13.09-.13c.21-.25.41-.5.61-.76s.58-.77.72-.77c.02 0-.22.96-.22.96-.13.51-.23.77-.46 1.12-.16.24-.32.48-.5.7s-.42.55-.49.83c0 .03.42.34.56.44.25.18.58.42.69.55.33.37.62.74.72 1.34.22 1.32-1.03 3.13-1.63 3.02 0 0-.47.31-.33.27m-2.41-17.46c0 .21.46.7.67.74.52.11.16-.98.08-1.21-.05-.16-.77.17-.75.46m26.63-.1c-.11.36.92.94 1.27.96.32.02-.32-1.32-.34-1.34-.33-.38-.8.17-.93.37m-53.34.79c-.15-.48.05-1.39.56-1.19.42.16.86.43 1.15.74s.55.63.82.96c.14.17.27.36.39.55.07.12.34.53.42.5.06-.03.08-.57.09-.72v-.42c0-.18 0-.26.04-.68.03-.34.12-.62.22-.88s.37-.88.64-.9c.92-.07 1.13 1.04.94 1.68-.03.12-.47-.27-.48-.28-.17-.15-.4-.35-.54-.4-.25-.08-.38.09-.43.26-.04.14-.04.59-.04.85s-.05.99-.08 1.44c-.02.29-.22 1.71-.48 1.53l-.06-.14c-.04-.08-.1-.17-.16-.26q-.08-.12-.16-.26c-.1-.16-.11-.19-.16-.26-.26-.36-.51-.7-.78-1.03-.18-.23-.57-.72-.82-.57-.32.19-.89-.2-1.07-.5m42.92-.82c.55-.2 1.57.7 1.84 1 .22.25.43.5.63.77.11.15.21.3.31.47.12.21.24.42.4.44l.02-1.26c0-.61.01-1.17.18-1.75.09-.32.89-1.62 1.39-1.16.54.49.69.71.44 1.51-.06.17-.35-.15-.38-.18-.1-.11-.3-.32-.42-.37-.34-.16-.72.11-.77.48-.04.3-.04.45-.04.72 0 .57 0 1.36-.04 1.97-.02.41-.12 1.84-.5 1.72 0 0-.09-.27-.11-.31q-.08-.24-.14-.36c-.04-.07-.27-.43-.4-.62-.24-.36-.54-.81-.83-1.08-.13-.12-.27-.25-.46-.25-.39 0-.59-.13-.85-.3-.5-.33-.59-.84-.27-1.44m-11.37 3.73.12-.08s0 0 .48-.32l.26-.16c.05-.03.68-.41 1.05-.64.66-.41 1.64-1.01 2.06-1.24.32-.18.7-.4.97-.56.18-.11.38-.22.56-.32 0 0 .37-.21.57-.32.33-.19.87-.5 1.03-.6.21-.14.93-.59 1.04-.57.17.04-.04.71-.18.84-.23.22-1.48.94-2.17 1.33-.74.42-1.48.86-2.18 1.33 0 0-.79.46-1.09.64-.39.23-.81.47-1.13.68-.17.12-.35.22-.54.32-.22.11-.47.25-.66.41-.06.05-.33.27-.37.19-.05-.11-.02-.91.18-.92m-4.52-1.97c-.3-.41-.69-.96-.72-1.17-.06-.38.33-1.31.52-1.5.13-.13.48-.48.71-.41.57.17.5 1.26.46 1.91-.03.56-.04.68.32.92.2.13.38.34.56.54.12.13.01.62-.04.76-.03.08-.26-.08-.28-.09l-.13-.09q-.1-.11-.31-.23l-.14-.08c-.18-.11-.32-.19-.45-.22-.1-.02-.46.42-.58.57-.11.13-.36.38-.54.56-.39.39-.81.74-1.29 1.06-.39.26-2.43 1.36-2.74 1.34-.35-.03.62-.64.62-.64l.14-.06.14-.08c.13-.08.26-.16.38-.24l1.25-.88c.47-.31 2.14-1.5 2.1-1.97m-33.02 4.45c-.25-.26-.22-.84-.18-1.24.02-.15.17-1.56.3-1.18.01.03 0 .7 0 .82 0 .27.03.57.17.8.13.21.61.22.84.13.53-.21.49-.63.42-1.32-.02-.18.02-1.35.24-1.18.07.05.13.6.13.7 0 .22 0 .9.22 1.06.08.06 1.21.84 1.15.28l-.16-.42c-.02-.06-.11-.33-.16-.48-.19-.56-.14-.94.05-1.46.06-.16.77 1.84.8 2.1.04.3-.16.94-.29 1.15-.12.21-.7.29-.94.23-.16-.04-.33-.1-.44-.18-.14-.1-.26-.19-.42-.17l-.16.23c-.07.09-.12.15-.17.19-.15.12-.27.22-.5.26-.33.07-.7-.05-.89-.3m60.01-4.32c-.04-.08-.34-.3-.53-.45-.17-.12-.35-.3-.45-.49-.25-.48.11-1.5.36-1.87.34-.51.94-.81 1.33-.08.17.31.24 1.54.27 1.99.02.23.21.42.47.68.23.23.26.64.12.99-.02.05-.48-.23-.52-.25-.18-.11-.4-.24-.51-.26s-.26.19-.32.28c-.1.14-.3.36-.58.64t-.42.36c-.49.45-.98.86-1.54 1.24-.72.48-3.71 2.35-4.34 2.08-.02 0 .65-.5.73-.55.28-.16.82-.47.91-.52.3-.18.7-.43.9-.58.3-.22.64-.44.95-.63.82-.49 2.85-1.87 3.16-2.57m-65.14 3.42.08-.14q.05-.08.12-.24c.07-.16.17-.39.06-.56-.48-.79-1.13-1.85-1.32-2.04-.2-.2-.3-.3-.6-.29-.16 0-.43-.12-.68-.24-.56-.26-.58-.92-.26-1.46.28-.48 1.66.84 1.8 1.01l.19.19q.06.09.19.23s.29.42.49.71c.12.22.29.54.34.56.11.04.13-.57.13-.63 0-.35.03-.87.07-1.26.06-.54.24-1.1.5-1.51.63-.94 1.57.51 1.23 1.36-.04.11-.22-.1-.23-.11q-.08-.09-.17-.15c-.26-.16-.57-.35-.71-.38-.38-.06-.4 1.46-.4 1.58-.01.89-.08 1.94-.31 2.81-.14.57-.32 1.18-.67 1.56s-.75.69-1.2.97c-.24.15-1.61.95-1.18.43.19-.23.36-.39.59-.58s.66-.55.99-.82c.11-.1.24-.24.39-.39t.17-.17c.14-.15.26-.28.38-.45m36.9 1.59c0-.16.37-.85.61-1.3.07-.13.69.26.82.33.3.18.7.43.86.39 0 0 .27-.43.29-.47.1-.21.26-.56.4-.6.37-.12 1.45.76 1.57 1.16.1.34-.57 1.28-.75 1.3-.08 0-.52-.34-.68-.47-.21-.17-.64-.51-.75-.53-.1-.02-.45.76-.51.9-.11.24-.28.53-.58.31-.11-.08-.21-.15-.33-.23s-.37-.25-.37-.25c-.14-.1-.6-.44-.59-.55m14.55.96c-.26-.37-.25-1.14-.18-1.57.07-.46.52-1.98.76-2.12.17-.09-.21.79-.21.79-.15.33-.26.95-.22 1.36.05.5.44 1.4.97 1.24.09-.03.21-.23.24-.32.04-.13.21-.69.26-.54.15.49-.24 1.33-.46 1.61-.34.44-1.14.07-1.16-.47m13.54-.12c-.18-.47.13-1.42.28-1.85.05-.13.5-1.31.57-.95 0 .03-.16.49-.19.55l-.08.16q-.11.19-.14.28c-.16.46-.17.89-.04 1.33.07.24.27.7.53.7.11 0 .33-.15.38-.24l.08-.18c.05-.14.11-.29.14-.32.09-.08-.1.88-.14 1-.1.24-.27.55-.52.62-.51.15-.85-.67-.87-1.11m-53.4.25s.54-.39.67-.5c.1-.08.22-.16.35-.23l.24-.16.17-.09c.53-.33 1.11-.66 1.66-.96.58-.31 1.16-.64 1.74-.96.57-.32 1.17-.62 1.78-.92l3.55-1.67.16-.06.32-.14c.09-.04.3-.14.44-.2.31-.14.65-.3.93-.42.32-.14.73-.32.97-.42.16-.06.91-.38.99-.22.14.29-.1.86-.27 1.04l-.19.07-.2.1-.12.02c-.12.03-.2.06-.36.12-.18.07-.35.13-.52.22-.15.07-.35.17-.5.24-.63.28-1.7.75-1.96.88-.24.12-1.37.62-2.06.92-.51.22-1.33.66-1.98 1-1.3.69-2.43 1.32-3.71 2.05-.56.32-1.14.65-1.67 1-.18.12-.68.45-.76.39-.1-.08.28-1.02.35-1.1m-5.27 1.16c.05-.24.46-1.09.69-1.17.33-.1 1.46.73 1.57 1.05 0 .02-.46.96-.61 1.26-.1.21-1.64-.87-1.65-1.14m17.88.9c-.2-.42-.47-1-.41-1.48.08-.65.47-3.79.99-3.89.23-.05-.08 1-.12 1.1-.14.41-.28.82-.3 1.36-.04.7.25 2.34 1.03 2.17.1-.02.15-.25.18-.36.05-.2.12-.47.26-.5.48-.1-.32 1.79-.36 1.85-.15.21-.34.42-.64.32-.14-.05-.32-.21-.44-.36-.05-.08-.11-.15-.18-.21m31.12 4.15c.24-.35-1.24-1-1.77-.85-.49.13-1.09.69-.32.96.55.2 1.53.16 2.09-.11m-54.35.13c-.27-.28-.23-1.36-.18-1.65.09-.53.22-1.25.37-1.69.07-.22.39-1.17.54-1.12.05.01-.12.55-.12.56-.07.22-.13.42-.18.68-.11.57-.26 1.29-.24 1.69.02.45.3 1.06.62 1.21.29.13.36.01.48-.22.05-.09.05-.12.1-.3.02-.07.09-.37.18-.24.23.34-.43 1.59-.53 1.68-.4.36-.88-.3-1.04-.6m8.78.78c-.07-.65-.78-1.71-1.41-1.8-.57-.09-1.07.86-.89 1.38 0 0 .21.56.32.84.06.15.38.87.51.78.48-.33 1.46-1 1.47-1.21m31.76-.22c-.15-.42-2.09-1.7-2.42-1.46-.16.12-.97 1.57-1.01 1.86-.07.42.08.7.27.92.13.15.73.22.96.11l.26-.06.27-.12c.23-.1.52-.29.79-.48l.14-.08c.1-.06.24-.16.35-.25.09-.07.44-.34.39-.43m-14.89 1.45c.05-.15-.19-.49-.3-.64-.04-.06-.18-.22-.26-.31q-.22-.2-.24-.23c-.19-.31-1.32-.78-1.76-.93-.43-.14-1.19-.09-1.57.1-1.57.78-2.6 2-3.64 3.3-.08.11-.63.78-.54.84.22.16 1.69.07 2.29 0 .92-.1 2.42-.47 3.59-.76.44-.11 2.48-1.08 2.44-1.38m5.02-17.99c.3.49.84 1.99 1.18 2.94l.06.16.06.16.08.24c.08.28.08.28.08.28.07.21.47 1.41.1 1.33-.09-.02-.21-.22-.28-.35-.11-.18-.22-.39-.36-.47-.26-.15.13 2.85.18 3.22.18 1.25.33 2.42.48 3.61.04.29.14 1.07.2 1.61l.04.24q.02.11.08.56l.04.24.08.8c.16 1.3.42 3.51.4 3.95-.03.76-.07 1.5-.24 2.35-.05.24-.34 1.13-.52.92l.04-.26c.02-.18 0-.37 0-.56-.03-.68-.05-1-.1-1.54-.1-1.05-.18-1.74-.3-2.61-.31-2.3-.51-4.01-.77-6.34-.23-2.06-.47-4-.72-5.9-.14-1.02-.32-2.4-.43-2.93-.04-.2.07-.49.2-.84.05-.14.33-.88.42-.82m-15.12 21.5c-.05-.08-.31-.25-.45-.33-.2-.12-.38-.29-.54-.45s-.32-.34-.45-.53c-.11-.16-.34-.51-.41-.51-.03 0-.19.34-.24.45-.08.17-.15.31-.24.46-.07.12-.16.23-.25.33l-.18.18c-.06.06-.16.14-.16.16-.06.17-1.15.63-1.43.69-.57.12-1.42.17-1.94-.04-.57-.23-.96-.46-1.36-.83l-.28-.3-.18-.21s-.24-.29-.32-.39c-.04-.06-.13-.18-.16-.2-.1-.06-1.05.42-1.33.56l-.18.06-.26.13c-.13.09-.29.17-.45.23-.82.32-1.7.61-2.58.9-.93.31-2.01.42-3.07.52-.74.07-1.74.01-2.5-.24-.73-.24-1.36-.47-1.87-.92-.7-.61-1.34-1.71-1.26-2.92.06-.84.29-1.74.56-2.49.16-.43.27-.76.05-1.04-.21-.26-.39-.63-.46-1.01-.15-.9.28-5.81 1.09-5.75.15.01-.28 1.26-.34 1.45-.1.28-.16.54-.2.88-.03.27-.18 1.27-.18 1.27-.11-.14.06.93.18 1.3.15.49.37.71.68 1.02.19.19.56-.07.63-.21.12-.21.19-.38.26-.68.17-.78.42-.52.28.16-.1.48-.27 1.2-.51 1.57-.09.14-.22.28-.35.37-.04.03-.16.07-.22.09-.19.05-.35.1-.4.22-.27.58-.43 1.58-.34 2.21.07.5.4 1.16.69 1.74.19.37 1.18.8 1.67.99.21.08.5.15.77.22q.23.06.56.08h.16l.89.04h.48c.44-.04.93-.09 1.33-.16.48-.08.98-.2 1.45-.32.8-.2 4.05-1.26 4.01-1.73 0-.01-.19-.54-.26-.74-.11-.28-.19-.58-.22-.92-.07-.69.19-1.65.42-2.17.12-.26.25-.5.41-.71l.25-.29c.09-.07.2-.15.21-.17.08-.15.61-.17.78-.13.76.19 1.45 1.46 1.55 2.35.1.84-.15 1.7-.39 2.36-.01.03-.3.35-.42.46-.15.15-.36.36-.46.53-.2.35.78.92 1.05 1.04.73.33 1.69.28 2.38.08.48-.14 1-.58 1.44-.95.11-.1.4-.75.57-1.13.16-.37.34-.71.62-.96.14-.12.2.65.21.7.02.24.12.46.22.68.16.35 1.51 1.7 1.95 1.38.14-.1.58-.74.71-.96l.19-.23c.09-.1.25-.32.41-.53.09-.12.17-.24.26-.36.18-.25 1.1-1.26 1.78-2.01.88-.97 2.11-1.4 3.46-1.53.18-.02.82.19.97.26.07.04.36.18.36.18q.14.07.26.14c.1.06.13.08.25.13.35.14 1.22 1.13 1.32 1.52.11.43.02.86-.12 1.28-.12.36-.25.82-.32 1.16-.05.22.96-.32 1.02-.35.38-.21.81-.46.87-.86.12-.89-.35-3.61-.6-4.93-.23-1.21-.46-2.93-.65-4.36-.26-1.91-.65-4.99-.65-5.86 0-.14-.05-.28-.16-.56-.08-.21-.11-.34-.04-.56.12-.43.36-1.27.51-1.35.02-.01.42 1.01.48 1.17.11.29.23.59.36.88l.08.14.08.2.08.2q.08.19.14.36l.04.16.06.14q.06.12.18.5c.05.13.1.28.12.4.1.45-.09.45-.32.17-.18-.23-.36-.45-.53-.43-.06 0 .1 1.2.11 1.34l.04.36.04.36.04.36.04.28.04.16.04.28q.07.44.08.56c.04.37.07.7.12 1.01.02.12.08.46.12.68l.04.2q.03.12.08.44c.35 2.08.59 4.39.77 6.32.06.69-.18 1.61-.42 2.23-.09.23-.23.49-.37.68-.08.11-.15.17-.26.26-.1.08-.21.18-.28.28-.78 1.04-5.32 1.75-7.52 2.09-.95.15-1.73.11-2.54.04-.33-.03-.64-.09-.93-.16-.3-.07-.43.09-.58.31-.09.13-.55.87-.65.77-.05-.05.13-.51.18-.63.07-.17.26-.67.19-.75m46.21-.93c.38-.08.64-.14 1.13.12.19.13.28.16.56.18.22.02.67-.27.8-.39.11-.1.18-.18.25-.31.09-.17.26-.49.4-.48l-.02.24c0 .13 0 .15.07.27.12.2.84.24.98-.03l.04-.24.04-.16c.07-.26.14-.48.29-.66.3-.35-.02 1.06-.07 1.18-.16.37-.3.65-.58.9-.24.21-.54.2-.83.09-.45-.17-.52-.11-.86.15-.29.23-.65.4-1.12.29-.06-.01-.29-.14-.43-.22-.18-.11-.49-.23-.75-.1-.4.2-1.54.9-2.46 1.47-.46.28-.98.6-1.45.78 0 0-.09.02-.32.08l-.12.04-.16.04-.16.04c-.57.15-.21-.15.04-.24.2-.07 1.42-.88 2.3-1.46.22-.15.75-.54 1.12-.81.41-.3.8-.51 1.3-.76m-32.56 2.03c.09-.34-.07-.82-.44-.72-.02 0-.34.35-.59.62-.2.21.22-.96.22-.96.14-.28.35-.51.61-.68.14-.09.52.28.62.38.65.63-.99 2.63-1.2 2.82-.71.66-.12-.32.12-.61.08-.1.24-.27.27-.31.07-.08.26-.35.39-.53m-27.8 1.93s.53-.22.81-.34c.2-.08.81-.34.81-.34.22-.1.46-.2.68-.28.21-.08.6-.24.89-.36.58-.24 1.13-.48 1.69-.74.1-.05.65-.3.63-.05-.01.18-.2.7-.35.72-.05 0-.56.25-.73.34-.2.11-.43.21-.65.3-.44.18-1.42.58-1.49.6-.54.18-1.12.43-1.67.66-.21.09-.72.29-.75.3-.48.12.06-.74.12-.8" fill="#1d1d1b" fill-rule="evenodd"/></svg>