<svg viewBox="0 0 81.72 25.11" xmlns="http://www.w3.org/2000/svg"><path d="m68.06 19.1.18-.2.23-.16c.07-.08.42-.65.41-.74-.05-.19-.16-.56-.38-.5-1.15.27-3.28.76-4.07-.2-.55-.66-.37-1.68-.12-2.51.04-.14.26-.46.4-.68.05-.07.23-.24.36-.36.13-.1.15-.12.21-.19.18-.23.67-.33 1.02-.31.43.03.86.2 1.25.46.44.29.76.69 1.08 1.12.44.59.54.71 1.26.33.29-.15.91-.59 1.34-.89.42-.29 1.14-.8 1.37-.77.18.02.13.58.12.74-.05.43-.03.74.18 1.03.25.34.59.72 1.05.84 1.2.33 1.84.06 2.7-.51.41-.27.7-.78.93-1.22.07-.12.22-.42.22-.42.07-.15.14-.28.22-.42.07-.12.44-.61.57-.38.08.15-.15.59-.2.68-.1.18-.29.55-.26.72.13.8 2.76 1.58 2.86.8.02-.15-.16-.51-.22-.62-.04-.07-.09-.13-.17-.23q-.09-.11-.13-.27c-.04-.16.29-1.18.38-1.44.14-.36.61.84.61.84.14.36.23.77.26 1.24.03.46-.1 1.25-.38 1.68-.21.33-.4.6-.81.74-1 .36-2.66-.38-2.99-1.34-.04-.13-.32.32-.32.32-.11.17-.22.36-.35.49-.25.27-.49.46-.8.67-1.9 1.26-3.78 0-4.04-1.98-.02-.16-.9.53-.9.53s-.69.5-.9.66c-.01.01-.23.13-.32.09l-.17.03-.13.41s0 .02-.02.5l-.08.76c-.04.35-.12.6-.26.84-.33.57-.5.87-.97 1.22-.13.1-.77.78-.99 1.12-.35.52-2.41 2.05-3.04 2.34-.33.15-1.49.61-2.38.96-.53.21-1.49.08-2.14-.04-.37-.07-1.29-.59-1.43-.88-.04-.07-.18-.28-.24-.34-.09-.11-.27-.33-.27-.33-.14-.2-.22-.42-.3-.68-.16-.48-.29-1.15-.2-1.62 0-.06.23-1.61.02-1.45-1.47 1.15-3.43 2.13-5.24 3.03-1 .5-2.05.79-3.35 1.02l-.28.04-.16.04-.24.04-.24.04-.2.04-.24.04-.12.04-.32.04-.44.08-.32.08c-.15.04-.31.09-.48.12-.27.05-1.02.19-1.13.14-.3-.15 2.63-1.25 2.78-1.3.23-.09.67-.25.77-.28.28-.1.53-.18.79-.3l.77-.36c.17-.08.33-.15.51-.24.13-.06.29-.14.44-.2 1.9-.77 9.5-5.27 9.34-6.46-.03-.22-.56-1.22-.83-1.71l-.14-.22-.24-.48q-.04-.11-.14-.28c-.07-.12-.21-.36-.22-.4l-.12-.32-.04-.12-.08-.24c-.12-.33-.29-.82-.38-1.01-.16-.33-.21-.45-.14-.84.04-.23.21-1.14.36-1.1.09.02 1.98 2.13 2.02 2.3.02.11-.27.04-.34.02-.22-.05-.43-.11-.54 0-.09.08.7 1.44.78 1.59.19.33.77 1.4.71 1.67l.04.18c.05.5.05.51 0 .96-.04.3-.14 1.08-.16 1.12-.28.84-.89 1.44-1.51 1.93-.74.58-1.41 1.26-1.07 2.49.17.63.34.98.58 1.45.15.29.85.78 1.21.88.59.17 1.21.18 1.7.18.35 0 .79-.14 1.13-.24.21-.07.41-.13.61-.2.19-.07.22-.08.32-.14q.22-.13.38-.17s.77-.48.99-.63c.16-.11.34-.23.67-.48l.18-.16c.26-.18.79-.56.87-.63.2-.19.75-.68.91-.78.07.02.61-.79.69-.75m-17.75-17.56c0 .16.42.51.56.62.11.09.32.11.33-.09.02-.34.05-.87-.2-1-.25-.14-.74.15-.69.48m27.5.06c-.42-.1-.93.05-.85.58.03.16.68.58.85.66.75.37.2-1.11 0-1.24m-43.63-1.21s-.08.54-.14.78c-.12.54-.21.97-.2 1.53.02.73.64 1.37.93.41.08-.26.21.04.2.12-.01.15-.05.26-.09.39-.1.29-.2.59-.3.74-.39.56-.88 0-1.03-.46-.2-.59.09-3.57.62-3.51m-17.86 2.91c-.25.02-.89-.38-1.26-.61s-.08-1.2.34-1.17c.15 0 .81.42.92.51.26.22.5.48.71.74.11.14.22.3.31.45.12.2.28.48.36.49.04 0 .14-1.03.14-1.09.03-.33.09-.62.18-.88.13-.4.26-.76.69-.82.49-.07.95 1.08.73 1.58-.05.12-.45-.17-.56-.25-.23-.17-.39-.29-.57-.23-.16.05-.17.33-.18.52-.03.48-.05 1-.08 1.25-.05.41-.11.98-.16 1.24-.07.38-.13.41-.3.06-.06-.14-.16-.29-.24-.42-.17-.27-.17-.27-.17-.27q-.08-.11-.15-.23c-.1-.16-.21-.35-.33-.49l-.36-.37zm38.74 1.85c.84-.55 2.59-1.55 3.96-2.33.62-.35 1.96-1.1 2.12-1.16.37-.16.71-.35 1.03-.56.2-.14 1-.61 1.16-.55.15.05-.1.72-.14.78-.02.03-.18.12-.28.17-.13.07-.26.16-.38.24q-.12.08-.26.16t-.26.16-.26.16l-.14.08q-.27.13-.44.24l-.32.16-.14.08c-.21.12-.43.24-.62.36l-.24.14q-.18.09-.28.14c-.23.13-.58.33-.68.4-.72.48-1.59 1-2.36 1.36-.1.05-.78.43-1.21.68-.12.07-.41.24-.44.21-.13-.12.04-.9.22-.94m11.28-2.45c-.1-.35 0-.76.14-1.04.1-.21.98.34 1.07.4.26.19.5.4.71.64.19.2.41.49.61.76.11.14.21.3.31.45.08.12.34.51.35.51.04.01.14-1.55.15-1.75.02-.36.06-.95.22-1.31.11-.24.92-1.56 1.37-1.06.27.29.51.55.59.84.04.16-.11.89-.3.76-.07-.04-.2-.2-.35-.38-.1-.11-.26-.24-.42-.29-.35-.12-.64.31-.67.62-.05.48-.05.56-.04.98 0 0-.02.45-.04.82-.02.33-.15 2.63-.54 2.49-.06-.02-.12-.26-.16-.4-.01-.05-.1-.26-.12-.3-.08-.16-.21-.36-.32-.52-.19-.27-.62-.9-.65-.93-.32-.34-.39-.42-.88-.51-.27-.05-.73-.49-1.03-.78m-36.31 2.88c-.3-.13-.8-.2-.85.31 0 .09.57.45.69.52.69.39.27-.57.15-.84m20.44-2.47c-.26-.25-.64-.64-.68-1.11-.07-.74.49-1.66 1.03-1.91.53-.24.71.29.79.7.05.25.01.56-.04 1.04-.04.32-.09.79.03.88.33.24.6.46.82.81.12.2-.07.73-.19.75-.04 0-.21-.15-.24-.18-.09-.09-.21-.17-.34-.25-.19-.13-.48-.32-.62-.34-.13-.02-.5.45-.61.58-.08.11-.18.23-.29.31-.07.06-.29.24-.29.24-.35.34-.75.74-1.2.97-.47.25-1.97 1.03-2.17.96-.35-.13.39-.55.4-.55.23-.13.43-.26.64-.41.33-.24.67-.49 1.02-.71.45-.29 1.98-1.36 1.95-1.78m-14.87 3.99c-.31-.06-.75.16-.69.44.04.2.83.55 1.01.56.16.01.01-.5-.02-.6-.02-.05-.09-.22-.13-.25l-.18-.15zm-25.66.48c-.54-.75-.4-2.95-.1-3.85q.04-.12.08-.28l.08-.28c.08-.27.15-.51.24-.76.1-.26.47-1.31.71-1.16.04.02-.22.99-.26 1.12l-.08.24c-.18.54-.36 1.08-.4 1.77-.04.64-.05 1.35.18 1.89.12.28.31.58.62.62.22.03.35-.3.42-.46.07-.17.23-.54.3-.54.44-.01-.22 1.73-.35 1.9-.53.68-.96.26-1.44-.19m67.57-3.71c-.11-.13-.32-.3-.51-.46-.2-.16-.4-.35-.49-.63-.26-.77.82-2.9 1.51-2.13.42.47.46 1.18.5 2.13.02.39.14.54.44.91.18.22.36.7.12.99-.08.09-.45-.2-.52-.26q-.19-.15-.42-.26s-.55.47-.74.65l-.56.48-.24.2-.13.1c-.5.44-1.05.83-1.64 1.19-.64.39-3.57 2.03-4.12 1.79-.02 0 .7-.53.79-.58.35-.18.69-.37 1.03-.56.64-.36 1.24-.73 1.84-1.12.06-.04.63-.39.91-.56s.57-.37.82-.58c.25-.2.5-.4.75-.6.17-.14.68-.57.67-.71m-28.36 4.42c-.03-.12.12-.46.22-.68.1-.24.11-.26.25-.43q.12-.13.14-.18c.08-.27.73.24.81.31.16.12.66.49.85.44.02 0 .34-.51.4-.62.1-.18.26-.46.42-.52.19-.08 1.18.75 1.33.94.38.48-.19 1.52-.62 1.65-.04.01-.62-.44-.72-.53-.18-.16-.6-.52-.73-.51 0 0-.27.46-.31.53-.17.29-.37.65-.43.68-.22.14-1.59-.91-1.61-1.08m-35.74.55c.02-.07.92-.59 1.2-.76.14-.08.37-.21.47-.26l.28-.14.14-.08.18-.08.16-.08c.12-.07.3-.16.46-.24.2-.1.42-.22.63-.32.21-.11.42-.22.65-.32.23-.11.72-.34.73-.34l.18-.06.16-.08s.37-.16.55-.24l.2-.08.16-.08.44-.18.16-.06c.54-.23 1.32-.57 1.57-.7.89-.44 2.48-1.11 3.71-1.63.56-.23 1.32-.55 1.7-.68.55-.19 1.3-.51 1.94-.78.52-.22 1.03-.42 1.57-.6.5-.16.61-.05.4.42-.1.24-.26.61-.48.66-.71.18-2.92 1.12-4.58 1.83-.8.34-1.95.83-2.4 1.04l-.4.16-.28.14-.12.04-.14.06-.18.08-.2.08c-.4.18-1.11.49-1.23.56-.57.34-2.91 1.38-4.6 2.13-.8.36-1.59.76-2.32 1.2-1 .61-1.64.72-.69-.61m-8.98-2.55c.26-.62-1.2-2.16-1.57-2.47l-.16-.04-.24.04s-.27-.09-.28-.1c-.21-.1-.44-.22-.58-.38-.21-.24-.1-1.11.2-1.27.32-.18 1.45.84 1.67 1.05.18.18.43.48.63.73.04.05.21.3.3.44.13.19.28.42.36.45.01 0 .07-1.17.07-1.24.02-.37.06-.75.16-1.07.12-.38.29-.9.58-1.08.56-.36 1.54 1.04 1.11 1.58-.1.12-.6-.29-.67-.35-.14-.11-.35-.28-.55-.25-.22.04-.22.78-.22 1.06 0 .63-.05 1.34-.2 2.01-.23 1.04-.5 1.8-1.12 2.42-.51.51-1.11.97-1.76 1.33t-.26.15l-.23.13-.36.16-.16.06c-.15.07-1.57.5-1.21.28 1.63-.98 3.47-2.09 4.52-3.65m59.18 3.21c-.07-.25-.37-1.53-.08-1.61l.04-.2.08-.32c.03-.14.11-.34.18-.52.12-.3.33-.85.5-.98.01-.01-.26.82-.3.94-.12.36-.24.9-.18 1.24.09.54.33 1.34.95 1.21.14-.03.22-.32.26-.48.02-.09.14-.57.26-.4.33.45-.49 1.85-.89 1.91-.38.05-.68-.5-.83-.78m13.76.92c-.52-1.24.11-2.5.63-3.53.1-.2.14.08.1.2-.06.21-.13.35-.22.52-.13.26-.24.49-.3.84-.09.49.08 1.16.35 1.4.2.18.49.02.6-.15.03-.05.06-.13.1-.24.04-.13.08-.21.15-.21.15 0-.02.59-.05.7-.09.25-.19.45-.32.66-.28.46-.85.24-1.03-.18m-56.96 1.14c-.43-.6-.29-4.33.43-4.35.05 0-.15.92-.17 1-.17.59-.2 1.11-.2 1.77 0 .39.29.84.54 1.01.22.15.4.12.51-.13.07-.17.23-.52.26-.52.09 0-.07.86-.1.96-.06.22-.13.43-.26.58-.32.4-.75-.04-1.01-.32m9.24-4.11c-.07-.11-.41-.33-.59-.44s-.41-.31-.48-.52c-.12-.33.06-1.07.22-1.3.19-.28.53-.66.89-.76.39-.11.64.25.75.5.05.13.1.33.12.48.05.33.05.34 0 .88-.02.2-.04.43 0 .51l.2.19q.21.17.22.18c.22.21.39.36.46.53.09.22-.05.83-.22.81 0 0-.17-.16-.21-.2-.05-.05-.15-.13-.21-.18-.16-.12-.28-.22-.43-.25-.18-.03-.57.49-.69.65-.11.15-.46.54-.69.78-.42.46-1 1.02-1.56 1.31-.19.1-1.01.64-1.49.96-.12.08-.3.2-.4.24l-.2.06c-.15.05-.18.07-.3.14-.06.04-.99.42-.55.06.61-.49 2.7-2.16 2.7-2.16.45-.32 2.67-2.08 2.47-2.48m-23.58 4.32c-.13-.17.53-1.29.74-1.34.2-.04.62.27.81.4.24.17.6.43.86.41.02 0 .35-.49.39-.55.14-.21.28-.41.52-.48.1-.03.63.43.73.53s.19.2.29.3c.06.06.32.35.35.35.13 0-.04.46-.04.46-.03.08-.16.25-.23.31l-.13.08s-.11.13-.18.22-.18.24-.23.27c-.03.01-.98-.75-1.18-.92-.22-.18-.41.11-.55.32-.15.23-.44.66-.52.7-.2.1-1.37-.86-1.63-1.07m28.3-3.49c-.48-.66.83-2.99 1.61-2.01.12.15.22.32.26.54.05.25.08.43.08.66l-.04.38c-.02.21-.05.47.15.75.08.1.23.27.27.35.1.23.01.9-.31.84l-.2-.21c-.19-.15-.33-.26-.54 0-.19.24-.39.49-.58.73-.18.23-.99.89-1.47 1.28-.1.08-.21.17-.43.31l-.12.08s-.26.17-.26.17c-.12.09-.17.12-.31.19l-.44.32c-.25.18-.64.45-.87.54-.23.1-1.04.4-1.03.22 0-.02 1.22-.99 1.46-1.18l.2-.16.13-.08c.11-.09.44-.36.44-.36.14-.13.29-.25.44-.36.14-.1.29-.22.42-.33.5-.4 1.33-1.07 1.53-1.26.16-.16.58-.58.34-.81l-.14-.08-.24-.16c-.08-.06-.34-.28-.36-.38m-31.87 2.62c.03.37-.15.92-.26 1.24-.16.46-.24.96-.24 1.36 0 .35.29.87.52 1 .27.15.4.03.49-.24.04-.12.15-.49.24-.37.21.3-.35 1.52-.54 1.6-.45.19-.84-.41-.95-.78-.21-.77-.09-1.72.12-2.45.07-.25.44-1.53.62-1.36m64.79 5.15c.16-.27-.6-.78-.85-.86-.5-.15-1.77.04-1.55.64.18.49 2.03.35 2.41.21m-43.54-.17c-.39-.24-2.02-.27-2.7-.25-.07 0 .43.61.47.66l.4.36.23.16c.09.09.81-.32.97-.41.13-.07.72-.41.62-.51m29.73.47c-.15-.4-1.92-1.61-2.31-1.5-.21.06-1.05 1.67-1.12 2.02-.06.29.15.6.29.78.33.44 1.51-.07 1.83-.26.24-.14 1.41-.8 1.31-1.04m-3.02-2.01c-.02-.13-.44-.44-.57-.52-.17-.11-.51-.45-.72-.65-.2-.2-.38-.4-.56-.62-.08-.1-.15-.18-.26-.25-.17-.12-.33-.24-.36-.4-.03-.21.04-.89.1-1.57 0-.01.47.24.47.24.13.07.28.13.42.18l.28.12.12.04.14.06q.12.06.28.12c.22.08.77.3.83.44.06.17-.04.19-.24.22-.19.03-.44.07-.41.22.04.18.97.77 1.23.92.25.14 1.24-1.23 1.43-1.49.21-.29 1.27-1.6 1.37-1.6.3-.03-.55 1.9-.58 1.94-.35.47-1.1 1.5-1.09 1.74 0 .02.23.16.26.18.12.07.35.22.4.25.22.16.45.35.63.57.3.38.57.81.65 1.37.06.38-.27 1.72-.47 1.95-.51.57-2.81 2.38-3.86 1.5-.68-.57-.6-2.04-.32-3.02.11-.36.21-.71.38-1 .15-.26.4-.69.43-.92m-19.82 4.6c-.26-.13-.02.74 0 .82.06.22.16.43.26.6.16.25.58.92.89.84.47-.12-.97-2.31-1.15-2.27m44.09 1.89c.31-.17.67-.08.93.06.31.18.49.28.93.26.16 0 .6-.35.7-.45.09-.1.17-.22.24-.33.07-.13.22-.39.32-.36l-.02.4c.04.15.08.18.2.24.2.11.49.21.71.08 0 0 .5-1.22.52-1.28.09-.26.14.46.14.46-.01.17-.1.41-.16.58-.11.32-.33.88-.56 1-.26.14-.46.24-.67.22-.06 0-.23-.06-.28-.08-.29-.11-.4-.16-.51-.14 0 0-.19.16-.23.19 0 0-.17.14-.19.15-.15.08-.31.14-.48.2-.37.12-.72-.06-.97-.22-.35-.23-.4-.22-.89-.1-.43.11-1.06.52-1.51.82-.81.54-2.26 1.49-3.09 1.51-.58.01-.2-.2.04-.28.16-.05.6-.3.89-.46.13-.08.43-.27.62-.4l.24-.18.47-.31c.84-.55 2.24-1.46 2.62-1.58m-71.9 2.67c-.31-.16-1.13-1.75-1.26-2.18-.22-.74-.88-4.01-.2-4.38.06-.03.11.91.12 1.16 0 .06.07.38.08.44l.04.16.04.16c.1.48.21 1.02.32 1.33.3.79.81 1.43 1.37 1.98.13.12.85.43 1.04.29.78-.62 1.13-1.31 1.45-2.39.3-1.01.69-1.96 1.17-2.79.39-.68 1.49-1.91 2.38-1.85.58.04.97.84 1.21 1.34.32.66.69 1.22 1.14 1.74.53.61 2.54 1.54 3.48 1.21h.22l.32-.04.24-.04.2-.04c.27-.04.56-.09.77-.16.17-.06.36-.11.52-.16.24-.07.51-.14.69-.22.88-.38 1.9-.81 2.52-1.27.21-.15-.93-.91-.99-.95-.39-.26-.93-.61-1.46-.65-.31-.02-.71.13-.95.24-.23.11-.78.36-.82.35-.08 0 .08-.58.12-.7.08-.29.28-.68.43-1 .17-.34 1.01-.62 1.53-.79.3-.1.6-.17.93-.24.26-.05 1.61-.25 1.61-.2l.73-.04.57.04c.41.03.68.06.85.08l.28.04.32.04.2.04q.29.06.4.08c.43.06 1.88.58 2.07.8.08.08-.11.83-.19 1.15-.11.42-.35.51-.79.66-.31.11-2.05.98-2.12 1.15-.2.49 1.66 1.38 2.2 1.46.62.1 1.35.07 1.94-.16.35-.14.69-.28.95-.42.12-.07.25-.16.36-.24l.12-.08.13-.09q.21-.17.22-.18s.56-.71.68-.87c.2-.27.57-.77.74-.83.09-.04.21.35.28.56.05.15.17.35.26.5.1.16.26.42.33.49l.18.18c.09.08.17.15.17.17.17.33 1.05.72 1.45.84.52.16 1.49.16 2.3.16.93 0 2.05-.37 2.86-.64.04-.01.75-.28 1.09-.4.21-.08 1.08-.42 1.02-.59 0 0-.32-.08-.34-.09l-.2-.04-.16-.04-.32-.08-.16-.04q-.18-.04-.32-.08c-.1-.03-.16-.04-.36-.08l-.32-.08-.36-.08-.16-.04-.24-.04-.2-.04c-.63-.14-1.67-.25-2.36-.32-.38-.04-.92-.1-1.35 0-.21.05-.62.14-.69.06-.12-.16.41-1.12.49-1.28.23-.41 1.66-.52 2.01-.53.84-.01 2.02-.08 2.99-.32.31-.08-.62-6.06-.67-6.38-.18-1.13-.34-2.31-.44-3.49-.08-.86-.18-2-.24-2.33 0-.02-.11-.36-.16-.52-.05-.17-.07-.36 0-.52l.08-.28.12-.36c.08-.24.24-.71.27-.74.07-.06.49.91.54 1.02q.12.28.14.32l.18.4.06.14.14.26c.23.56.92 2.22.76 2.54-.05.09-.4-.32-.43-.36-.15-.17-.3-.36-.42-.39-.1-.03.04 1.21.05 1.38l.04.32v.14l.04.16c.04.36.08.75.12 1.1.1.96.31 2.18.49 3.25s.35 2.11.37 3.02c0 .31-.01.71-.09 1.19-.03.19-.08.33-.14.48-.07.16-.25.6-.12.64.35.12.84.24 1.25.34.06.01.59.11.85.16.33.06.78.14 1.05.2 1.41.31 1.41.3 1.23-1.3-.02-.2-.07-.63-.08-.76q-.03-.4-.04-.48c-.06-.52-.1-.86-.16-1.33-.25-1.95-.43-3.8-.61-5.86-.11-1.36-.48-4.52-.52-4.62-.12-.28.21-1.11.36-1.49.15-.37.24-.33.38 0l.1.24.06.2c.04.11.11.27.16.38.36.71 1.41 3.17 1.28 3.79-.04.17-.45-.36-.49-.41-.09-.12-.43-.59-.53-.48-.11.13.17 2.63.24 3.07.18 1.06.28 2.27.36 3.27.14 1.73.45 5.12.65 5.99.03.13 1.17.22 1.42.24.49.04 1.54.12 1.63.23.12.17-.62 1.37-.74 1.44l-.61-.07q-.27-.03-.36-.04c-.08 0-1.32-.04-1.27.05.11.19-.57 2.3-.71 2.66-.11.29-.26-.54-.26-.54l.04-.5v-.38c0-.31 0-1.04-.14-1.23-.27-.36-3.26 1.03-3.37 1.08-.49.25-1.05.49-1.59.7l-.28.1-.32.1-.24.08-.24.08-.16.04c-.16.04-.21.05-.28.08-.63.25-2 .38-2.62.36h-.75c-.15 0-.44-.03-.67-.08-.11-.02-.44-.1-.46-.03-.49 2.16-.61 2.64-2.26 1.36-.24-.18-.43-.68-.53-.99-.07-.21-.11-.43-.16-.68q-.04-.22-.04-.44v-.28c.01-.19.04-.57.03-.58-.02-.1-.43.35-.43.35-.11.12-.24.25-.38.35-.15.11-.3.22-.57.39l-.28.16-.28.14c-.34.28-1.72.44-2.2.44-.91 0-1.71-.5-2.27-.91-.25-.18-.48-.41-.7-.63-.27-.27-.61-.61-.81-.78-.1-.09-1.5.72-1.72.86-.24.14-.49.28-.74.4-.17.08-.34.17-.62.3l-.16.06-.18.08c-1.02.54-2.77.94-4.02.94-.43 0-1.46-.34-2.18-.58-.35-.11-1.47-1.09-1.61-1.42-.04-.1-.22-.37-.32-.52-.12-.18-.19-.32-.28-.54-.1-.22-.25-.51-.41-.8l-.08-.14-.07-.13-.18-.17c-.03-.17-.69.11-.71.12-.22.12-.41.26-.6.42-.33.28-.67.63-.88 1.03-.38.76-.76 1.53-1.03 2.45-.26.91-.58 1.87-1.08 2.56-.43.6-2.14.36-2.3-.27m36.14-.49c-.07-.31.51-1.04.69-1.22.3-.29 1.48.9 1.63 1.12.18.26-.66 1.62-1.02 1.25-.2-.21-.42-.38-.64-.56-.24-.19-.45-.37-.65-.59m-17.87 1.38-.13-.25-.08-.24c-.08-.28-.08-.67-.08-.98 0-.53.2-1.1.36-1.55.07-.2.52-1.46.68-1.15.04.09-.23.84-.3.95-.19.32-.32.79-.3 1.21.03.54.06 1.21.5 1.39.24.1.43.04.53-.18.07-.15.21-.49.25-.49.21 0-.26 1.13-.29 1.2-.12.23-.24.48-.54.48-.06 0-.35-.13-.44-.19-.05-.06-.15-.17-.16-.17m-8.46-2.16c.25-.04 0 .61-.04.7-.06.16-5.03 2.19-5.21 2.21-.15.01.18-.7.22-.74 0 0 .56-.28.71-.35.23-.1.65-.29.68-.3.18-.07.61-.26.93-.4l.28-.12.12-.04.16-.06c.25-.11.53-.23.77-.34.37-.17 1.25-.55 1.37-.56" fill="#1d1d1b" fill-rule="evenodd"/></svg>