<svg viewBox="0 0 92.56 26.52" xmlns="http://www.w3.org/2000/svg"><path d="m21.13.98c.15-.05.25.04.35.14.19.17.26.25.32.57.04.26.05.39.04.64-.02.42-.05.9.19 1.15.09.09.17.2.25.3.16.21.21.73.04 1.01-.05.08-.33-.19-.37-.22-.17-.16-.32-.31-.55-.27-.03 0-.4.46-.52.61-.17.21-.36.39-.57.58-.4.37-.9.77-1.37 1.15-.42.34-2.83 1.96-3.19 1.85-.19-.06 1.28-1.2 1.36-1.26.25-.18.51-.36.74-.57.25-.23.53-.45.81-.64.51-.36 1-.85 1.45-1.29l.2-.17.23-.21c.07-.07.32-.35.33-.41.02-.13-.19-.3-.37-.46-.15-.13-.3-.26-.38-.47-.14-.35.12-1.53.44-1.72 0 0 .38-.39.57-.31m40.57.42c-.26-.16-.82.04-.77.39.05.29.53.69.79.72.11.01-.01-1-.02-1.11m26.79-.08c-.36-.12-1.11.06-.9.55.12.29.84.72 1.13.75.34.04-.16-1.21-.23-1.31m-67.29.72c-.13-.09-.43.01-.52.12-.2.23.47.71.66.76.44.1-.02-.78-.14-.88m17.49 1.26-.06-.28c-.03-.18-.05-.36-.04-.46.01-.17.1-.6.16-.9.11-.54.26-1.27.49-1.58.19-.26.09.33.07.38-.1.31-.17.58-.24.96-.09.51-.2 1.36.38 1.51.19.05.38-.08.45-.22.05-.12.22-.47.26-.46.41.2-.39 1.51-.47 1.59-.38.39-.84-.3-.99-.53m-35.62-1.94c.21-.08-.01.7-.08.92-.05.2-.14.42-.22.58s-.24.74-.14.86c.34.42.5.62.5.62.2.08.27.02.34-.18.03-.09.18-.52.26-.4.18.24-.19 1.33-.36 1.55-.29.35-.76-.17-.93-.4-.37-.53.1-3.34.62-3.55m23.31 1.52c-.17-.21.09-.95.23-1.14.27-.38 1.55.82 1.68.95.22.22.45.48.63.73.15.21.56.77.65.78.02 0 .02-.98.02-1.1 0-.34 0-.93.08-1.31.06-.31.25-.91.54-.98.68-.17 1.17 1.02.84 1.62-.02.05-.39-.22-.47-.28-.17-.13-.43-.32-.55-.29-.08.02-.08.62-.09.78 0 .32-.04.87-.08 1.29-.02.24-.24 2.01-.52 1.83l-.05-.15c-.03-.08-.07-.21-.1-.28-.08-.17-.21-.37-.32-.54-.2-.31-.47-.6-.74-.89l-.34-.34q-.1-.1-.28-.02c-.17.07-.21.08-.25.07-.13-.05-.89-.62-.89-.72m50.69-1.24c.42-.36 1.7.73 1.9.98.19.24.53.67.59.76.11.16.61.92.69.84.02-.02.02-.84.02-1.12 0-.55.02-1.43.2-1.79.22-.43.77-1.53 1.43-1.21.3.15.47.5.59.84.06.19-.11.69-.21.78-.08.07-.77-.57-.74-.65.07-.21-.5.12-.5.12-.11.06-.15.09-.18.2-.13.5-.14 1.69-.14 2.49q0 .16-.04.48l-.04.28q-.03.16-.08.64c-.02.15-.22 1.17-.42.72-.45-.99-.8-1.72-1.51-2.42-.05-.05-.32-.11-.59-.17-.19-.04-.58-.28-.73-.38-.43-.31-.5-.84-.23-1.4m-11.33 3.69c1.68-1.11 7.98-4.8 8.21-4.82.14-.01-.14.81-.15.83-.02.07-4.08 2.51-4.51 2.74-.48.26-1.51.88-2.27 1.33-.32.19-.85.52-1.02.64-.15.11-.36.26-.48.18-.1-.06.05-.87.22-.9m-4.57-1.97c-.03-.11-.11-.17-.21-.24q-.09-.07-.16-.18c-.13-.2-.27-.43-.3-.54-.11-.4.16-1.16.34-1.49.12-.21.48-.54.73-.62.26-.09.44.13.57.28.15.19.15.74.14 1.02 0 .1-.07.76-.08.89q-.04.28.03.39s.15.13.22.17l.23.19c.14.12.42.35.46.49.04.13.03.73-.13.78-.03 0-.37-.23-.53-.34-.21-.15-.55-.39-.74-.41-.08 0-.35.32-.45.45-.16.2-.35.4-.53.58-.34.33-.91.89-1.23 1.04-.28.13-.68.37-.98.55-.33.2-.8.46-1.19.54-.28.06.08-.45.16-.5q.26-.16.58-.34c.36-.27.71-.55 1.09-.82.43-.31 2.07-1.51 1.98-1.89m-23.61 3.45c.08-.07.82-.49 1.25-.72l.16-.08q.19-.1.28-.14c.25-.11.49-.25.73-.38.05-.03.71-.38 1.13-.6.16-.09.35-.18.5-.28l.14-.08.52-.28c.41-.22 1.62-.83 2.46-1.24.18-.09.57-.28.57-.28.18-.11.43-.22.65-.32.06-.03.41-.22.58-.32.07-.04.81-.34.61-.08-.19.25-.5.82-.65 1.1-.05.09-4.6 2.44-5.36 2.8q-.21.1-.3.16l-.32.16-.28.16c-.15.08-.28.16-.44.24l-.14.08-.26.14-.14.06-.16.08-.14.08c-.14.07-.31.16-.38.2-.18.09-.4.2-.59.3-.17.09-.66.36-.68.36-.36.04.07-1.03.28-1.11m50.62-3.12c.05-.14-.26-.38-.45-.54-.22-.18-.42-.34-.53-.63-.24-.63.4-2.14.93-2.27.29-.07.46.03.7.17.09.06.26.59.29.74.01.05.08.56.08.58v.38s0 .8.05.87l.2.19.13.08c.14.11.28.25.31.47.02.13.06.67-.16.66-.09 0-.36-.22-.48-.32-.15-.12-.34-.23-.55-.19-.04.01-.24.23-.29.31-.12.15-.32.39-.36.43-.24.21-.49.43-.73.64-.48.43-1.03.84-1.58 1.23-1.3.94-2.52 1.44-4.12 1.99-.28.1.69-.63.75-.67.28-.17.83-.51.93-.56.15-.08.28-.16.4-.24.16-.1.43-.29.5-.32.15-.08.25-.15.38-.24.14-.1.42-.29.46-.32.57-.35 1.14-.73 1.66-1.14l.22-.18.24-.2.45-.36q.1-.12.18-.18zm-41.9 4.72c-.04.14.16.25.28.32.09.05.53.3.56.16.05-.24-.15-.68-.28-.74-.12-.06-.15-.04-.26.02zm-17.74-.04c-.2-.25.46-1.47.91-1.37.24.05 1.38.8 1.43 1 .12.44-.47 1.53-.97 1.32-.15-.06-1.37-.9-1.37-.96m-8.19.04c-.09-.29.49-1.23.71-1.32.08-.04.46.18.64.28.29.17.64.36.81.42.11.04.3-.36.36-.48.11-.23.25-.39.42-.56.29-.29 1.62.99 1.58 1.42-.02.18-.68 1.08-.79 1.02-.21-.1-.44-.29-.67-.48-.22-.18-.61-.48-.88-.44-.03 0-.29.52-.33.62-.12.27-.26.59-.57.44l-.4-.24q-.11-.08-.24-.16c-.1-.06-.67-.42-.65-.52m39.65.22c-.21-.26.41-1.3.65-1.42.17-.09.67.29.84.41.22.16.55.41.77.34l.74-1.16c.05-.15.78.45.81.48l.24.2.35.3c.43.37-.26 1.46-.56 1.62-.07.04-.6-.38-.71-.48-.19-.15-.68-.54-.81-.5-.07.02-.35.61-.41.75-.11.26-.3.67-.97.2-.11-.08-.28-.19-.36-.25-.13-.11-.57-.48-.57-.49m-58.93 0s1.07-.68 1.51-.95c.4-.24 1.06-.62 1.59-.92l.75-.46c.29-.16.55-.3.83-.46.26-.14.62-.35.79-.44l.12-.06q.21-.1.4-.22l.14-.08.16-.08.14-.08c1.76-1.08 5.76-3.38 6.98-3.67.51-.12-.12 1.76-.18 1.95-.03.1-.16.52-.24.8l-.08.28-.04.2v.26l-.04.22c-.11.37.19.84.35 1.07.1.16.45.3.62.17.11-.08.16-.18.2-.32.06-.2.13-.44.16-.49.02-.03 0 .94 0 .94 0 .12-.26.76-.33.83-.57.64-1.15-.51-1.25-.79-.21-.61-.09-1.72.12-2.37.1-.31.48-1.43.38-1.52-.06-.06-.76.31-.85.36-.15.08-.31.16-.46.24-.21.1-.49.24-.63.32-.13.08-.25.14-.38.2-.15.07-.36.16-.46.21-.3.16-.79.43-.94.51-1.18.72-2.42 1.39-3.64 2.06-.54.29-1.43.78-1.66.95-.21.15-1.27.76-1.92 1.12-.58.33-1.34.77-1.73 1.01-.16.1-.78.48-.79.26 0-.22.22-.95.37-1.04m73.24-.51c.06-.63.45-1.94.76-2.3.22-.26-.17.86-.17.86-.16.46-.28 1.01-.18 1.49.09.41.27.89.62 1.02.25.09.42-.03.51-.26l.04-.16.04-.2c.04-.15.07-.26.15-.31.17-.09 0 .94-.03 1.03-.07.25-.3.81-.52.88-.28.09-.47 0-.72-.15-.37-.2-.61-1.46-.49-1.9m13.72.76c.06-.52.52-2.27.85-2.41.28-.12-.18.8-.18.8-.18.32-.28.66-.3 1.12-.01.2.06.43.12.6.05.14.09.27.29.53.06.2.49-.07.55-.16.04-.06.1-.21.13-.29.05-.15.09-.26.2-.19.12.08-.24 1.94-1.08 1.59-.48-.2-.59-1.17-.56-1.61m-42.11-1.15c0-.2.65-.59.89-.64.57-.13.67 1.1.67 1.39 0 .51.09.72.26 1.06.08.17.13 1.12-.14 1.02 0 0-.04-.04-.17-.17-.09-.1-.19-.17-.34-.15-.02 0-.14.24-.2.37-.07.13-.22.3-.33.43-.07.08-.21.19-.3.26l-.32.23-.13.09c-.21.18-1.65 1.35-1.77.94-.04-.14.87-.8 1.03-.92.17-.12.37-.3.49-.45.14-.17.4-.42.61-.61.56-.53.42-.63-.16-1.06-.46-.34-.52-1.29-.09-1.78m-14.92 6.06c.1-.55-1.24-.92-1.75-.78-.51.15-.64.5-.14.76.51.27 1.29.21 1.89.01m10.17-.54c.01-.15.2-.53.3-.74l.12-.24.24-.3c.05-.15.71.32.71.32l.12.08s.36.26.36.26c.05.04.17.12.21.16.27.2.18.58.05.83l-.08.14-.17.21c-.08.11-.16.27-.21.4-.1.26-1.66-.94-1.65-1.11m-2.32-3.33c.33-.11.02.87-.02.96-.14.36-.2.94-.28 1.61-.04.37.27.91.48 1.1.2.18.46 0 .53-.18.06-.15.26-.68.32-.63.18.17-.22 2.2-.98 1.88-1.42-.61-.45-3.51-.04-4.74m-34.85.27c.11.22-.02.68-.11 1.02-.14.5-.23 1.03-.12 1.52.1.46.26.67.49.98.15.19.47-.04.54-.15.04-.06.07-.19.1-.3.02-.06.15-.53.21-.29.15.61-.16 1.72-.75 1.84-.67.14-1-1.42-.95-1.97.04-.43.2-1.74.2-1.75.04-.15.28-.98.4-.9m20.75 4.11c.14-.6-.74-1.81-1.31-1.87-.49-.04-1 .61-1.11 1.03-.08.28.15.91.28 1.24.08.21.4 1.03.59.98.16-.04 1.02-.87 1.55-1.39m-18.06.48c-.15-.1.41-1.22.47-1.34.1-.18 1.21.44 1.36.53.63.36.66.46.26 1.1-.24.39-.44.71-.83.5-.38-.21-1.2-.66-1.27-.8m71.62 1.08c.22-.37-1.05-.85-1.46-.89s-1.05.44-.94.82c.13.43 2.05.24 2.4.08m-59.67 1.78c-.17-.29-.61-.58-1.02-.66-.44-.1-1.41.43-.98.67.36.2 2.12.36 1.99 0m43.61-2.59c-.23 0-1.03 1.49-1.11 1.79s-.05.71.13.91c.73.82 2.5-.51 3.03-.92.78-.6-1.61-1.61-2.05-1.78m-9.97 3.23c.01.5 1.3 1.2 1.86.92.4-.2-.09-.68-.3-.8-.42-.24-1.04-.24-1.55-.12m8.58 1.07c-.49-.66-.42-1.92-.21-2.88.07-.33.19-.64.32-.92.17-.37.41-.88.38-1.08 0 0-.29-.25-.3-.26l-.14-.07-.28-.25q-.21-.17-.55-.46c-.16-.15-.37-.41-.56-.63-.09-.12-.18-.18-.3-.26-.14-.09-.28-.18-.28-.28-.03-.33-.11-1.37.05-1.62.07-.1.21 0 .26.04.13.1.23.17.4.23l.32.12.16.06.18.08.18.08c.31.11.83.3.93.36.13.07.25.26.04.34l-.2.04s-.32.07-.34.13c-.06.2.82.73 1.04.86.41.24.83-.35 1.12-.75.35-.5 1.73-2.28 1.73-2.28.47-.34-.44 1.96-.5 2.04-.34.46-.81 1.11-1.02 1.47-.09.16.18.33.3.4.17.1.35.21.5.33.22.17.49.47.75.77.29.32.38.93.38 1.28 0 .46-.09 1.3-.34 1.61-.68.83-1.65 1.58-2.87 1.85-.26.06-.45.04-.68-.04-.13-.05-.23-.08-.5-.32m-6.84-17.94c.03-.35.22-1.06.39-1.28.04-.05 1.41 2.68 1.48 2.82.2.39.54 1.1.59 1.46.08.61-.28.27-.45.11l-.18-.17c-.08-.13-.16-.24-.3-.3-.09-.04.29 3.14.32 3.37.04.31.33 2.05.49 3.01l.21 1.65.07.12s.08.57.08.6c.03.24.08.55.12.8.06.34.16 1.18.24 1.81l.04.4.04.32q.04.33.04.6t.04.38c.19.67-.22 4.21-.76 4.09 0 0 0-.9 0-1.1 0-.32 0-.57-.02-.84-.08-1.2-.16-2.05-.3-3.21-.06-.47-.24-1.56-.36-2.29l-.08-.56c-.02-.22-.04-.44-.08-.68-.05-.28-.14-.87-.2-1.32-.12-.86-.24-1.7-.36-2.41-.17-1.04-.29-1.77-.4-2.81-.08-.73-.2-1.8-.32-2.49-.06-.35-.07-.41-.08-.48-.03-.26-.11-.8-.12-.84-.09-.32-.17-.62-.12-.76m-17.8 16.98c-.01-.09-.05-.2-.1-.32q-.03-.08-.1-.36c-.04-.15-.11-.51-.16-.76-.11-.56-.23-1.39-.32-2.13-.07-.55-.13-1.16-.16-1.73-.02-.32-.04-.7-.08-1.08l-.04-.4-.04-.4-.04-.36-.04-.32-.04-.36v-.14s-.09-.79-.12-1.1c-.15-1.36-.33-2.98-.6-4.34-.11-.54-.24-1.2-.32-1.57 0 0-.12-.43-.16-.56-.1-.36-.17-.6-.16-.88.01-.42.25-1.05.45-1.34.48-.69 1.42 5.96 1.45 6.2.22 1.74.39 3.62.53 5.18.14 1.59.27 3.16.52 4.42.15.76.36 1.64.75 2.17.81 1.11 2 1.78 3.67 1.23.83-.27 1.47-.86 1.91-1.52l.07-.13.16-.26.08-.14c.13-.2.26-.39.42-.57.25-.27.32-.27.33.27 0 .3.07.61.22.88.22.39.59.72 1.03.88.43.16 1.04.33 1.47.26.99-.15 3.31-.85 3.53-1.59.03-.1-.19-1.28-.28-1.81-.11-.58-.24-1.34-.32-1.81-.2-1.19-.4-2.42-.61-3.73-.08-.49-.43-3.32-.65-5.02-.08-.65-.21-1.48-.32-2.17-.04-.26-.09-.48-.18-.68-.11-.26-.26-.6-.18-.76l.08-.28c.05-.16.11-.35.14-.42.06-.14.3-.6.37-.64.02-.02.37.67.44.8.09.18.32.62.32.62.09.13.17.32.24.48 0 0 .21.45.28.6.11.23.11.23.18.44l.06.16c.14.28.49.98.38 1.22-.08.15-.47-.24-.5-.27-.14-.18-.33-.41-.48-.36-.07.02.46 3.57.48 3.71.22 1.28.38 2.37.55 3.65.2 1.47.81 5.09 1.14 5.55.02.02.73-.15.9-.19.2-.05.43-.11.64-.12h.36l.14.04h.14c.28-.04.83.37 1.1.57.93.69.04 3.39-.68 3.87-.57.38-1.7-.21-2.03-.49-.24-.2-.46-.43-.65-.67-.06-.08-.57-.7-.57-.7-.12.13-1.04.68-1.37.86q-.17.1-.22.12c-.1.05-.4.2-.4.2-.05.03-.25.11-.36.16-.14.06-.42.18-.42.18-.31.19-1.27.31-1.65.28-.73-.06-1.28-.27-1.77-.55-.21-.12-.44-.32-.59-.5-.09-.11-.22-.27-.27-.35-.11-.2-.3-.53-.42-.51-.04 0-.16.26-.19.33l-.17.24q-.1.14-.15.21c-.2.28-.42.54-.72.73-.53.33-1.08.67-1.74.82-.52.12-.92.1-1.41-.04-.35-.1-1.58-.75-1.73-1.07l-.18-.25c-.1-.13-.25-.31-.31-.41-.21-.33-.38-.74-.5-1.15m51.27 2.47c.37-.1.58-.23.82-.45.1-.1.16-.2.23-.33.04-.08.26-.48.34-.42v.34s.07.29.17.28l.14.06.12.04c.17.05.42.08.54-.05 0 0 .11-.42.17-.65.06-.25.18-.61.4-.55.21.06-.14 1.08-.2 1.23-.18.49-.33.7-.73.96-.18.12-.46.05-.67-.02-.24-.08-.5-.16-.63-.06-.26.21-.57.46-.91.5-.4.05-.56-.04-.85-.22-.42-.26-.77-.14-1.17.04-.18.08-.96.6-1.51.96-.6.4-2.46 1.57-3.05 1.36-.07-.02.66-.47.74-.52.3-.18.6-.37.89-.56l.13-.09q.18-.14.33-.23.22-.16.34-.24l.24-.17.24-.16q.06-.05.2-.14c.22-.15.45-.32.66-.49.26-.21.58-.41.9-.55.22-.1.66-.3.93-.26s.37.11.55.22c.15.1.37.24.62.18m-38.84 2.27c.09-.56.47-2.62.81-2.54.11.02-.08.58-.13.74-.13.39-.35 1.18-.2 1.61.1.3.24.72.54.74.13.01.29-.02.34-.14.11-.23.22-.47.24-.48.13-.09-.05.84-.08.92-.06.17-.13.29-.22.42l-.09.13-.19.17c0 .11-.43-.06-.46-.08-.13-.07-.22-.18-.3-.3-.23-.34-.26-.66-.26-1.18m-10.82.96c-.14-.47.11-2.95.56-2.72.09.04-.09.65-.11.75-.09.31-.18.61-.16.88.01.25.27.77.46.84.14.05.29.06.42-.09.02-.03.07-.19.09-.23.05-.16.07-.25.2-.21.12.03-.03.66-.07.81-.08.29-.2.52-.4.68-.5.39-.84-.41-.97-.72m-9.77-.09c.56-.44 6.78-3.55 6.87-3.53.18.03 0 .71-.05.87 0 0-.69.39-.76.43-.34.16-.7.33-1.03.52-.08.05-.77.4-1.13.58l-.14.06-.16.08q-.2.11-.32.16-.19.09-.32.16c-.23.13-.53.27-.81.4-.11.05-.3.16-.44.24l-.14.08-.14.08-.16.08-.16.08c-.33.17-.96.51-1.06.57-.11.06-.25.14-.23-.13.01-.15.05-.67.2-.74m41.66.52c-.44-.19-1.08-1.03-1.26-1.51-.15-.41-.26-.88-.32-1.4 0 0 .03-.71.04-.92l.04-.44s.04-.45.02-.48c-.07-.12-1.28.75-1.29.76-.43.32-.89.62-1.37.88-.13.07-.89.53-1.27.76-.21.13-.44.25-.67.36-.16.08-.48.24-.48.24l-.48.24c-.73.39-6.54 1.99-7.26 1.81-.14-.04.48-.46.48-.46.15-.08.49-.2.73-.28l.12-.04.12-.04.14-.06q.18-.09.26-.12l.32-.12c.14-.06.32-.14.44-.18.92-.31 2.54-.89 3.17-1.43.35-.3 1.09-.63 1.55-.84l.28-.16q.2-.11.28-.16l.16-.08.14-.08.14-.08.45-.24c.9-.51 2.48-1.43 2.88-1.82.06-.06.73-.55 1.02-.75.34-.24.66-.48.97-.74.29-.23 1.84-1.47 1.57-1.83-.06-.09-.88-1.68-1.27-2.45-.17-.33-.54-1.1-.54-1.12-.17-.48-.35-.96-.59-1.37-.14-.25.05-1.4.19-1.67.06-.11.56.46.63.54.09.1.21.21.3.3 0 0 .06.04.2.16l.2.16c.22.2.47.44.67.66.08.09.22.35.14.45-.01.02-.3-.04-.4-.05 0 0-.43-.08-.42 0 .12.54.44 1.07.74 1.52.31.47.66 1.1.79 1.67.09.4.12 2.02-.06 2.31-.42.71-.81 1.34-1.1 1.64-.21.21-.43.42-.66.6-.3.24-.44.39-.66.71-.08.12-.07 1.09-.06 1.69.01.87 1.04 1.91 1.76 2.13.18.05.63.18.64.18.22.03.43.05.57.04l.48-.04.32-.04c.1-.01.27-.05.37-.08.17-.05.36-.1.52-.16.41-.15.79-.3 1.13-.5 1.11-.63 4.91-3.5 5.15-4.58.15-.71-.49-.53-.87-.42-.58.17-1.65.34-2.22.28-1.42-.16-2.21-1.34-1.59-2.87.34-.83.8-1.58 1.76-1.79.37-.08 1.01.08 1.33.3.35.23.67.48.96.77.09.09.29.37.41.53.14.2.35.49.4.52.2.11 1.51-.75 1.81-.95.11-.07.22-.16.32-.24.14-.12.34-.3.43-.37.23-.18.56-.44.83-.49.24-.04.26.44.26.6l-.04.22-.04.16c-.01.1 0 .22.04.36.11.38.33.65.6.88.64.53 1.86.71 2.68.25.62-.35 1.07-.7 1.39-1.34l.08-.14.12-.24.18-.32.06-.14c.08-.18.56-.97.74-.76.12.14-.13.61-.22.77-.12.23-.28.54-.16.78.1.22.45.44.77.64l.12.04c.08.03.18.07.24.12.33.24 1.2.12 1.53.02.34-.1.01-.68-.09-.83-.12-.17-.32-.47-.29-.57l.08-.36.04-.16.04-.24c.03-.12.17-.53.22-.6.11-.15.36.32.36.32.12.23.17.34.26.6.12.34.36 1.17.29 1.48-.15.58-.35 1.4-.51 1.58-.35.42-1.34 1.03-2.1.52l-.16-.06-.4-.16s-.32-.25-.45-.35c-.12-.1-.21-.18-.31-.3-.09-.11-.33-.39-.45-.25l-.16.26c-.07.12-.25.39-.25.39-.18.21-.36.4-.58.57-.41.33-1.03.54-1.65.62-.51.07-1.11-.1-1.49-.3-.69-.37-1.09-1.06-1.18-2.03 0-.05-1.2.74-1.2.75-.26.17-1.13.81-1.17.96-.02.08-.07.79-.08.88q-.04.54-.08.72c-.04.19-.1.39-.2.52-.77 1.02-1.58 2.1-2.19 2.66-.89.81-1.8 1.48-2.79 2.2-1.1.79-4.18 1.73-5.38.51m-47.13.2c-.31-.87-.2-3.03.38-3.75.24-.29.04.64.01.76-.11.48-.21.97-.2 1.53.01.4.49 1.24.89.98.12-.08.17-.17.2-.33.02-.15.09-.54.19-.49.56.26-.44 1.76-.57 1.87-.14.12-.49-.09-.56-.15l-.18-.18-.16-.23zm-11.69 1.42c-.41-.34-.84-.76-1.27-1.18-.13-.13-.68-1.86-.61-1.95 0 0 .26-2.51.22-2.69-.01-.06-1.59.5-1.82.58-.55.19-1.04.36-1.65.42l.02.24v.28c-.01.09-.08.32-.12.48-.08.29-.27.96-.12 1.2s.39.65.51.68c.23.06.39 0 .48-.18.06-.1.24-.44.32-.42.27.07-.36 1.45-.36 1.45-.19.35-.72.05-.98-.1-.36-.2-.36-1.18-.33-1.55.04-.51.09-1.04.16-1.29.08-.29.17-.58.02-.74l-.44.04h-.65c-.38 0-.88-.05-1.25-.16-.42-.12-1.39-.49-1.56-.79l-.13-.08-.2-.2c-.09-.11-.23-.32-.33-.48-.18-.27-.4-.61-.48-.88-.17-.53-.41-1.29-.34-1.91.11-.99.4-3.79.95-3.99.16-.06.02.32-.02.44-.08.23-.15.46-.2.72l-.04.22v.22l-.04.28-.04.24-.04.2c-.03.2-.05.39-.05.54 0 .05.05.67.05.67-.04-.08.13.69.22.94.09.26.25.52.4.76.19.31.75.71 1.23 1.06.16.12.64.27.91.34l.16.04.2.04.16.04c.16.04.27.07.4.08l.2.02c.28.18 2.18-.29 2.71-.42.4-.1 1.3-.55 1.89-.84.25-.12.83-.43.84-.43.2-.13.51-.33.69-.4.56-.21 3.18-2.38 3.1-2.88-.05-.27-.72-1.61-1.19-2.55-.17-.33-1.13-2.77-1.11-2.83l.04-.32c.04-.3.05-.43.08-.56.02-.13.09-.46.18-.46.3 0 2.13 2.05 1.97 2.34-.04.07-.28-.02-.36-.05q-.21-.08-.42-.07c-.14 0 .21.68.21.7.03.06.16.28.22.4l.06.14.16.28c.26.46.65 1.17.66 1.67.04.89-.05 1.71-.2 2.49-.13.68-1.37 1.77-1.93 2.22-.34.27-.69.54-1.05.79-.43.29-.8.57-1.13.96-.14.17-.28 1.77-.2 1.93l.04.32.04.16c.04.15.12.48.12.48.1.28.2.54.35.76.32.45.69.67 1.18.97.3.18.92.24 1.35.22.47-.02 1.65-.41 2.42-.66.61-.2 1.34-.79 1.84-1.22l.23-.17.13-.09.13-.09s.18-.16.2-.17c.19-.17.61-.54.73-.6.24-.11 1.39-1.53 1.56-1.84.13-.23-.23-.71-.36-.74-.04 0-.43.09-.54.12-.15.04-.31.09-.48.12-.27.05-.6.1-.85.12h-.45s-.2 0-.2 0c-.71.32-1.52-.9-1.55-1.49-.04-.77.28-1.97.89-2.39.27-.18.84-.58 1.15-.5.79.2 1.17.51 1.65.99.19.19.37.43.54.67.18.24.39.53.68.43.41-.14 1.75-.67 1.67-1.1 0 0-.08-.25-.12-.36-.04-.12-.08-.28-.12-.4-.11-.39-.29-1.07-.2-1.33 0 0 .07-.74.08-.84.01-.13.04-.32.08-.52.05-.3.15-.63.27-.88.21-.44.49-.75.88-1.01.8-.54 1.55.33 1.86.9.59 1.1.74 2.12.32 3.55-.17.58-.69 1.06-1.1 1.42-.51.44.68 1.15 1.06 1.35.39.2 1.47.59 2.06.46h.16q.12-.01.52-.04c.37-.02.75-.12 1.09-.2.55-.14 1.1-.28 1.57-.5.43-.2 2.19-1.12 2.08-1.61-.07-.3-.52-.5-.83-.58-.44-.12-.93-.06-1.45 0-.31.04-.81.06-1.21-.04-.53-.13-.83-.37-1.09-.76-.19-.29-.19-1.19-.06-1.58.18-.55.39-.95.67-1.36.04-.05.56-.31 1.12-.59.28-.14 1.04.19 1.23.34.29.23.65.52.84.74.12.14.32.37.36.42.14.19.14.19.15.21.08.14.17.29.26.38.28.29.57 1.32.61 1.83.04.49.08 1.6-.14 2.05l-.08.22-.16.3-.08.16s-.05.07-.23.3c-.07.07-.16.16-.16.16s-.78.57-.88.63c-.19.12-.42.22-.62.32-.05.02-.28.11-.36.14-.2.07-.22.08-.32.14-.73.41-2.07.6-2.99.66-.59.04-1.35-.04-1.86-.26-.52-.23-1.01-.52-1.38-.9-.19-.19-.54-.55-.57-.57-.14-.18-.57-.71-.59-.72-.08 0-1.45.72-1.77.9-.3.17-.38.83-.44 1.4-.05.43-.11.68-.24 1-.13.33-.55.86-.86 1.24-.05.06-.11.13-.17.18-.1.09-.19.18-.28.28s-.18.2-.28.3c-.11.11-.22.22-.28.32-.35.58-2.34 1.85-3.12 2.3-.68.38-1.57.62-2.48.74-.47.06-.65.06-1.13-.04q-.22-.04-.37-.1l-.2-.08c-.1-.04-.27-.12-.28-.12" fill="#1d1d1b" fill-rule="evenodd"/></svg>