<svg viewBox="0 0 83.42 26.47" xmlns="http://www.w3.org/2000/svg"><path d="m52.74 1.21c-.3-.22-.85.23-.66.58.14.25.44.55.73.57.31.02.05-.98-.07-1.14m26.76.42c-.33-.29-1.04.29-.78.63.14.19.88.77 1.15.64.07-.03-.1-1.25-.37-1.28m-57.45-1.5c-.17.83-.43 2.08-.43 2.25 0 .33.2.65.39.96.17.26.51-.03.58-.19.03-.08.06-.19.08-.28.03-.15.06-.27.12-.32.21-.17-.01.96-.04 1.04-.12.35-.24.71-.54.82-.62.23-1.15-1.03-1.03-1.57l.04-.38.04-.28q.06-.46.08-.56c.04-.2.1-.38.16-.56.07-.2.35-1.05.55-.92m46.12 1.57c.7-.06 1.6.77 1.9 1.16.19.23.44.55.56.71s.64.89.64.89c.01 0 .07-.78.07-.87 0-.34.01-.82.04-1.18.02-.3.1-.66.23-.99.15-.4.51-.75.82-1.06.14-.14.7-.02.8.16q.07.07.15.21c.11.18.2.35.22.6.02.19-.19.7-.36.6-.04-.02-.26-.26-.38-.4-.11-.12-.25-.23-.42-.26-.21-.04-.42.22-.51.36-.08.15-.12.53-.12.62l.02.2v.16q0 .62-.04 1.08c-.05.51-.08.88-.16 1.4-.04.29-.32 1.72-.52.84-.1-.43-.39-.86-.67-1.23-.16-.24-.16-.24-.16-.24-.11-.15-.33-.45-.33-.45-.12-.14-.26-.28-.4-.4q-.08-.07-.27-.07t-.36-.06c-.62-.29-1.32-1-.73-1.81m-11.42 3.57c1.39-.93 8-4.7 8.31-4.7.14 0-.04.5-.06.56-.06.16-.11.28-.23.37-.19.15-1.38.83-2.08 1.23-.38.22-.85.49-1.15.64-.39.21-.74.41-1.11.64-.73.44-1.48.89-2.22 1.28-.39.21-.76.42-1.13.64-.04.03-.51.31-.54.26-.09-.18.07-.95.21-.94m-42.79 0c-.21-.15-.36-.1-.57.04-.13.09-.29.36-.03.54l.23.16c.13.09.32.2.47.25.54.18.07-.86-.1-.98m38.22-2.05s-.12-.14-.2-.21c-.04-.04-.15-.16-.18-.21-.14-.19-.25-.38-.29-.67-.06-.41.3-1.23.5-1.46.21-.23.42-.47.81-.48.27 0 .4.31.46.54.07.27.07.57.04.84-.04.39-.11 1.18.06 1.32l.23.17q.07.06.2.17c.13.11.31.32.36.51.04.16-.25.56-.55.44-.14-.12-.3-.22-.46-.32-.48-.3-.7-.03-.99.34-.12.15-.95.88-1.59 1.44-.26.23-2.61 1.42-2.91 1.37-.36-.07 2.12-1.67 2.23-1.74.45-.29 2.42-1.6 2.26-2.05m-23.11 3.88c.92-.79 9.53-4.6 10.13-4.47.1.02-.14.75-.18.82s-.4.18-.56.23q-.27.08-.38.14c-.14.07-.35.17-.47.22-.15.06-.46.17-.68.24-.96.32-2 .83-2.91 1.28l-1.49.72-.75.34q-.22.11-.3.14c-.15.06-.28.11-.42.18l-.3.16c-.1.06-.24.13-.36.18q-.26.12-.3.14c-.14.07-.4.2-.4.2q-.14.06-.32.18c-.07.04-.33.2-.35.21-.36.08-.08-.85.05-.92m50.15-3.24c-.01-.06-.12-.12-.18-.16-.1-.06-.27-.17-.33-.23-.2-.18-.4-.4-.48-.7-.2-.73.71-2.84 1.6-2.05.19.17.26.39.34.68.07.24.08.55.08.74 0 .36 0 .87.07 1.22l.18.18c.12.1.24.19.31.28.17.22.18.66.02.9-.05.08-.42-.17-.5-.23-.21-.15-.39-.27-.66-.23 0 0-.23.26-.26.3-.09.11-.28.34-.28.35-.2.18-.53.48-.9.8-.04.03-.41.31-.63.48-.12.09-.28.22-.29.23-.01 0-.36.22-.5.32-.16.11-.34.22-.51.32-.35.21-.68.4-1.05.6-.39.21-.8.43-1.23.58-.14.05-1.59.56-1.55.4 0-.03 1.32-.84 1.75-1.1.29-.18.82-.5.95-.56.15-.07.26-.15.4-.25.14-.11.3-.22.45-.31.6-.37 1.32-.81 1.82-1.2q.14-.1.41-.33.17-.14.22-.18c.19-.15.84-.7.76-.85m-59.08 3.71c1.13-1.04 4.87-2.92 7.42-4.19 1.33-.66 3.32-1.65 4.12-1.99.17-.07.74-.34 1.09-.5s.76-.36 1.05-.48c1.48-.65.71.71.16.96-1.26.58-3.33 1.56-3.89 1.89-.29.17-.64.33-.95.46-.33.14-.65.29-.97.46-.65.34-1.3.68-1.96 1l-.14.08-.16.06-.14.06-.26.16q-.09.06-.2.1c-.16.06-.3.14-.44.22 0 0-.31.16-.48.24-.03.01-.29.17-.4.24-.18.11-.38.21-.56.3-.15.07-.27.14-.4.22l-.14.08-.14.08-.24.16c-.34.18-.66.36-.97.56-.28.19-.7.46-.89.56-1.08.57-1 .36-.48-.75m30.72.79c.07-.41.49-1.35.97-1.25l.36.25q.06.05.21.15c.19.13.66.43.75.4.08-.03.33-.49.4-.64.12-.25.27-.44.5-.55.17-.08 1.36 1.11 1.44 1.23.17.26-.5 1.15-.67 1.38-.08.11-.67-.37-.75-.43-.21-.17-.7-.56-.77-.57-.05 0-.31.45-.39.58-.17.29-.37.64-.44.66-.26.08-1.58-.97-1.59-1.22m-15.86 1.2c-.17-.37.02-1.23.12-1.73.06-.29.18-.08.2.12.04.31.11.94.19 1 .4.26 1.17.1 1.3-.35.02-.07-.01-.59-.04-1-.02-.4.04-.69.14-1 .09-.29.28.37.3.48l.04.28v.44c.01.25.06.41.15.59.13.26 1.3.56.96-.35-.1-.26-.52-1.92.05-1.82.36.06.77 2.69.17 3.11-.3.21-.51.35-.87.34-.12 0-.27-.06-.36-.1-.15-.06-.27-.12-.4-.08 0 0-.13.13-.19.19-.05.05-.17.14-.23.17-.23.13-.44.25-.67.3-.4.09-.77-.29-.87-.58m-27.84-3.42c-.06-.47-.87-1.49-1.27-2.01-.1-.12-.26-.31-.38-.4-.11-.08-.19-.12-.29-.07-.22.09-.24.1-.29.09-.2-.03-.47-.2-.63-.3q-.16-.11-.38-.48c-.14-.1.22-1.06.27-1.1.17-.14.84.23 1.05.34.2.11.77.71 1.07 1.03.09.09.29.37.43.57.12.17.46.63.53.64.02 0 .06-1.18.06-1.21 0-.25.07-.7.12-1 .05-.26.37-1.2.59-1.22.3-.04.52.06.76.23.16.11.43.77.47.97.02.12-.18.59-.35.52-.19-.08-.28-.18-.49-.41-.13-.14-.3-.24-.52-.27-.18-.02-.21.61-.22.8l-.04.48v.4c.03.33.04.39.04.4-.04.7-.16 1.62-.28 2.51-.16 1.22-1.96 3.57-3.17 3.57-.19 0 .71-.9.71-.9.12-.12.36-.36.36-.36l.13-.08.1-.12s.2-.21.26-.28c.28-.3 1.65-1.88 1.36-2.36m58.19 3.53c-.14-.43-.24-1.02-.12-1.57.11-.51.53-1.99.84-2.11.08-.03-.2.75-.24.83-.13.32-.29.97-.24 1.37.05.46.32 1.18.75 1.22.29.03.37-.2.42-.46.03-.16.12-.61.3-.48.32.22-.39 1.92-.91 1.99-.4.06-.67-.5-.81-.78m13.6-.68c.11-.54.52-1.88.85-2.09.26-.16-.23.9-.23.9-.16.34-.31.74-.25 1.15.04.22.07.4.12.56q.05.15.14.28s.11.16.12.2c.08.23.52-.18.57-.24q.05-.07.1-.24c.04-.12.07-.21.15-.23.23-.04-.05.8-.09.91-.1.25-.34.73-.64.76-.8.09-.91-1.2-.83-1.96m-65.31-1.68s-.16-.11-.24-.16c-.03-.02-.25-.17-.36-.24-.14-.1-.31-.33-.42-.48-.18-.25.12-1.25.23-1.48.24-.49.97-1 1.46-.5.18.18.24.64.29 1.01.02.15 0 .38-.02.56-.03.32-.05.52.05.68l.24.2.23.19c.14.17.27.35.34.58.03.12-.07.95-.25.76-.29-.31-.56-.6-.81-.7-.09-.03-.48.5-.58.64-.18.24-.49.67-.54.72-.34.4-.82.84-1.24 1.15-.13.1-.25.19-.38.29-.13.11-.3.24-.51.39l-.12.08q-.26.16-.48.32s-.25.17-.25.17c-.33.24-1.79 1.22-2.03 1.08-.17-.1.57-.69.58-.7.23-.19.66-.53.71-.56.24-.16.47-.37.69-.56.24-.22.5-.44.76-.65.57-.45 2.87-2.29 2.68-2.8m13.5 4.31c-.18-.27.52-1.46.9-1.4.35.05 1.14.89 1.39 1.19.15.18-.74 1.26-.99 1.22-.04 0-.62-.46-.99-.76zm10.99.93c-.09-.03-.35.25-.49.41-.19.21-.47.51-.68.47-.12-.02-1.31-.86-1.35-.94-.23-.4.58-1.21.83-1.39.16-.11.77.34.88.43.2.16.54.44.74.39.03 0 .32-.39.41-.51.14-.18.32-.33.56-.39s1.19.97 1.33 1.18c.15.22-.29.71-.35.77-.15.15-.46.46-.48.49-.11.16-.67-.37-.71-.41-.13-.13-.51-.48-.68-.51m-37.85 1.09c-.22-.42-.22-1.44-.22-2.01 0-.86 1.1-4.76 1.53-4.84.16-.03-.36 1.81-.4 1.95-.21.74-.43 1.51-.56 2.29-.08.48.08 1.33.3 1.72.11.19.4.53.65.58.26.06.4-.22.46-.42.05-.16.26-.79.42-.56s-.34 1.76-.49 1.93c-.17.19-.39.43-.69.38-.44-.08-.77-.63-1.01-1.02m22.22.64-.12-.28c-.07-.16-.11-.32-.1-.48l-.02-.8c-.12-.17.61-2.23.69-2.4.24-.47-.03.78-.05.83-.13.39-.32.97-.24 1.31.23.93.65 2.3 1.18.61h.15l.05.23c0 .12-.08.45-.12.62-.04.16-.1.3-.16.44l-.14.28-.07.15c-.19.5-.92-.37-1.04-.51m46.59 1.72c-.39-.56-1.46-1.09-2.16-.52-.46.37-.36.6.22.74.41.1.96.11 1.41.04.14-.02.67-.1.53-.26m-37.49.4c0-.2-2.67-.5-2.77-.13-.02.06 1.19.98 1.28 1.02.26.1 1.54-.77 1.49-.88m23.61.3c.22-.53-1.96-1.74-2.26-1.63-.22.08-1.01 1.57-1.11 1.89-.08.25.05.67.23.83.2.19.48.19.8.19.44 0 2.24-1.02 2.34-1.29m-49.33.66c-.06-.18.44-1.22.63-1.31.16-.07.91.49 1.08.63.5.41.44.56.13 1.1-.3.52-.45.79-.92.41-.24-.19-.95-.75-.92-.83m45.77 2.03c-.21-.38-.41-.76-.45-1.23-.05-.55.14-1.54.32-2.09.1-.28.21-.55.34-.8s.34-.68.32-.76c-.01-.05-.44-.39-.62-.53-.2-.16-.44-.4-.65-.6-.19-.19-.4-.4-.55-.59-.09-.11-.18-.21-.3-.29-.17-.12-.3-.22-.33-.43-.07-.49-.07-1.09.1-1.49 0 0 2.49.92 2.56 1.12.06.17-.05.23-.18.26l-.28.04-.15.05c-.31.19 1.17 1.03 1.32 1.08.13.04 1.12-1.31 1.29-1.54.3-.41 1.18-1.54 1.29-1.61.47-.32-.45 1.92-.5 1.99-.33.44-1.06 1.5-1.09 1.63 0 0 .64.48.81.61.29.22.52.48.73.78.24.33.41.76.38 1.3-.02.59-.12 1.2-.38 1.61-.46.7-3.08 2.61-4.01 1.51m-48.11.54c-.17-.55 0-3.16.6-3.4.2-.08-.12.95-.16 1.03-.22.48-.23.79-.12 1.33.07.37.21.72.48.9.2.14.38.02.45-.17.06-.17.19-.55.24-.55.26 0-.05 1.64-.64 1.85-.28.1-.77-.74-.85-.98m43.1-3.13c-.12-.74-.22-1.46-.32-2.21-.05-.34-.1-.76-.16-1.08-.06-.34-.14-.84-.2-1.24-.06-.36-.14-.89-.16-1.08-.04-.32-.1-.7-.16-1.04l-.04-.28-.04-.28-.04-.24-.04-.24c-.07-.41-.14-.84-.2-1.24l-.08-.48-.04-.28-.04-.32c-.04-.29-.14-.91-.16-1 0 0-.12-.81-.16-1.08l-.04-.32-.04-.28-.04-.2-.04-.28-.04-.32-.04-.2-.04-.32c-.01-.08-.07-.54-.08-.6-.07-.35-.14-.69-.12-.76.09-.37.3-1.16.48-1.3.08-.06 1 1.89 1.08 2.06l.16.3.08.14.08.16c.09.18.16.36.24.56s.48 1.22.2 1.22c-.12 0-.31-.24-.42-.37-.14-.17-.37-.46-.53-.4-.07.02.4 2.94.44 3.16.08.43.17.94.24 1.4.08.5.27 1.58.28 1.65.42 2.07 1.06 5.5.97 6.76l.04.58v.8c-.03.49-.08.95-.16 1.41-.07.41-.17.96-.34 1.27-.16.29-.38.46-.34-.18.02-.4.04-.76.04-1.08 0-.84-.08-1.74-.2-2.73m-26.01 4.38-.28-.12c-.15-.1-.29-.21-.42-.33-.22-.22-.62-.62-.69-.71-.5-.6-.79-2.01-.97-3.01-.14-.77-.24-1.79-.32-2.77-.09-1-.24-2.58-.32-3.17-.06-.44-.12-.84-.16-1.33-.05-.56-.12-1.08-.2-1.61-.13-.82-.3-1.95-.4-2.45-.11-.55-.29-1.44-.36-1.69-.18-.62-.46-1.58-.4-1.81.1-.45.32-1.38.44-1.46.09-.07.43.92.49 1.1.15.44.25.91.36 1.4.3 1.33.54 2.66.65 4.02.05.72.19 1.61.32 2.45.05.3.06.51.08.96.01.29.02.3.04.48q.08.55.08.6v.12c.02.35.05.6.08.92.16 1.5.34 2.92.69 4.3.16.62.41 1.27.79 1.68.79.84 1.74 1.15 3.22 1.15 1.09 0 4.97-1.11 5.14-1.76.02-.08-.57-.48-.7-.57l-.28-.14-.24-.16-.28-.16c-.31-.22-.84-.28-1.23-.12-.36.15-.9.37-.96.33-.32-.18.3-1.5.4-1.59.33-.28.87-.51 1.3-.69.68-.28 4.09-1.07 4.56-.6l.57.08.16.04.16.04.24.04c.28.06.57.13.81.22.46.17 1.16.44 1.23.8.06.34-.26 1.24-.51 1.37-.75.39-2.01 1.04-2.15 1.24-.23.33 1.45 1.01 1.82 1.15.5.2 1.16.08 1.7-.04.34-.08 1.24-.65 1.85-1.03l1.42-1.88c.09-.28.18.4.18.4-.03.47.02.6.14.92.16.41.48.7.85.9.14.08.31.12.48.16.08.02.4.08.46.08l.28-.04h.14c.29.08 1.2-.42 1.53-.59.49-.27-.88-7.25-1.06-8.14-.11-.55-.48-2.96-.73-4.54l-.04-.24-.04-.24-.04-.44-.04-.28-.2-1.29-.08-.54c-.01-.12-.04-.35-.08-.46-.07-.22-.2-.6-.08-.8l.04-.16c.04-.17.06-.24.1-.36.08-.23.17-.46.27-.67.14-.28 1.03 1.77 1.1 1.93.33.76.89 2.06.86 2.29-.03.24-.52-.25-.55-.28-.11-.14-.3-.37-.45-.29-.02.01.17 1.31.19 1.51l.24 1.49c.09.62.35 2.03.52 3.01.38 2.08.83 4.54.97 6.34.05.6.03 3.3-.66 3.5l-.2.16c-.1.09-.21.16-.33.23-.19.11-.39.23-.61.3-.58.19-1.4.45-1.98.16-.48-.24-.97-.48-1.1-.64-.12-.14-.21-.27-.31-.43q-.12-.2-.14-.24c-.07-.17-.15-.35-.19-.38-.03-.01-.44.55-.52.66-.19.26-.41.51-.65.72-.52.43-1.03.67-1.73.95-.45.18-1.38.12-1.78 0-.69-.21-1.26-.4-1.75-.8-.33-.26-1.46-1.08-1.5-1.09-.03 0-.76.36-1.05.5-.14.07-.29.15-.42.24q-.12.08-.22.12-.11.05-.32.16c-.62.33-1.29.59-2 .82-1.28.43-4.13.96-5.24.06m-5.47.16c.03-.26.44-1.07.65-1.2.28-.18 1.62.76 1.69 1.1.05.26-.62 1.02-.8 1.16-.16.12-1.56-.84-1.54-1.06m28.06.6c.03.34.16.85.36 1 .15.11.28.06.4-.05t.13-.23c.05-.11.11-.26.19-.26.24 0-.39 1.24-.42 1.31-.1.2-.45.28-.64.18-.15-.07-.24-.26-.34-.46q-.09-.18-.1-.22l-.06-.28s.11-.71.14-.84c.05-.21.17-.64.18-.68.18-.46.39-.86.64-1.22.42-.61.19.32.04.56-.11.18-.25.39-.32.54l-.14.28-.06.36zm35.11-.7c.32-.15.59-.28.77-.54.09-.13.46-.64.49-.62v.36c.02.08.08.22.17.26.2.09.56.25.71.12.05-.04.15-.33.26-.68.07-.23.19-.57.37-.62.2-.05 0 .72-.01.78-.1.32-.22.65-.34.88-.24.45-.67.79-1.29.52-.23-.1-.42-.18-.6-.03-.21.17-.38.31-.65.41-.41.15-.65.07-.94-.11-.24-.15-.5-.31-.83-.21-.48.15-1.43.76-2.28 1.31-.3.2-2.47 1.43-2.8 1.1-.05-.05.51-.37.6-.42.32-.18.71-.4.95-.56.55-.36 1.39-.92 1.67-1.12.46-.33 1.49-1.02 1.69-1.06l.24-.02q.08.01.14-.08c.07-.12.41-.05.51-.02.2.06.3.12.46.22.18.11.47.25.71.14m-77.22 1.99c-.96-.33-1.19-2.84-1.19-3.88 0-.73.48-3.47.91-3.69.27-.15-.02 1.04-.06 1.18-.18.72-.32 1.36-.28 2.33.04 1.14.6 1.92 1.16 2.56.35.41 1.19.72 1.77.91.94.31 2.24.15 3.19-.12.29-.08.61-.19.87-.3.26-.12.79-.35.83-.36 1.18-.35 3.86-2.45 4.4-3.45.25-.46-.11-1.59-.33-2-.14-.26-.29-.54-.44-.79-.17-.29-.41-.72-.42-.82-.04-.36-.05-1.21.19-1.38.11-.08.48.51.55.64.16.25.35.56.57.6.41.08.96.08 1.45-.08.18-.06 1.06-.49.95-.66-.24-.37-.49-.92-.67-1.33-.18-.4.03-1.18.19-1.46.3-.5 1.03 1.48 1.08 1.7.23.93.06 2.39-.58 2.86-.24.17-.51.32-.8.47-.12.07-.31.11-.46.14-.23.05-.68.14-.69.2q0 .1 0 .18c.04.49.04.79.02 1.17-.02.43-.07 1.43-.16 1.56l-.14.26-.17.23c-.11.16-.28.41-.32.46-.12.14-.23.28-.36.4-.12.12-.44.43-.44.44 0 0-.55.46-.67.54-.09.06-.53.38-.77.56-.17.13-.6.41-.93.63-.28.16-.28.16-.28.16l-.26.16-.28.16c-.44.35-1.99.76-2.88.98-.87.22-1.96.1-2.75-.16-.36-.12-.67-.25-.97-.42-.14-.08-.27-.16-.4-.25l-.41-.35zm27.42.96c-.2-.73-.14-1.37.12-2.13.09-.28.75-1.71 1-1.62.08.03-.38 1.09-.4 1.14-.16.37-.36.84-.44 1.18-.07.27.38 1.05.55 1.1.25.09.38-.05.46-.24.08-.17.19-.43.27-.42.38.07-.48 1.49-.55 1.55-.34.3-.96-.1-1.01-.58m31.17-.24c-.7-.72-.91-1.99-.79-3.25.03-.29.1-.97-.14-.88-.07.03-.17.11-.26.18-.05.04-.15.12-.21.15-.13.07-.32.2-.51.32-.14.1-.29.19-.42.28-.32.2-.89.57-1.03.64-.36.19-1.07.57-1.17.64-.17.11-.32.19-.52.28-.18.08-.39.18-.57.28-.15.09-.37.19-.56.28-.21.1-.43.2-.63.32-.6.36-2.42.66-3.31.78-.57.08-1.34.26-1.92.4-.22.06-1.84.43-1.61.11.19-.26 2.54-1.11 3.26-1.35.57-.19 1.06-.42 1.55-.66.53-.26 1.64-.79 1.8-.84 1.21-.38 4.15-2.3 5.61-3.29.64-.44 3.53-2.44 3.15-3.01l-.06-.16-.06-.2c-.05-.15-.15-.32-.24-.48-.14-.24-.27-.47-.4-.72-.21-.38-.85-1.61-.85-1.61-.03-.06-.08-.23-.16-.44l-.14-.4c-.1-.29-.21-.56-.34-.82-.11-.22-.05-1.84.28-1.81.11.01 2.04 2.22 2.05 2.28 0 .13-.25.07-.35.05-.11-.02-.69-.04-.55.09.19.18 1.47 2.73 1.54 3.15.25 1.5-.13 2.61-.84 3.44-.24.28-.52.56-.81.79-.36.29-.7.55-.89.91-1.01 1.79.87 4.05 2.36 4.08 2.18.03 3.3-.71 4.75-1.67.79-.53 1.52-1.18 2.21-1.81.36-.33.72-.68 1.04-1.04.14-.16.27-.35.39-.53.24-.36-.08-.85-.2-.76-.09.06-1.04.27-1.15.28h-.18l-.2.04-.18.04-.75.04h-.39c-.1.09-1.22-.5-1.28-.57-.42-.49-.47-1.42-.27-2.14.23-.83.91-1.8 1.82-1.95.51-.08.93.1 1.27.26.42.2.79.58 1.08.92.15.18.3.37.44.57.1.15.31.49.45.46.56-.1 1.74-.96 2.17-1.31.24-.2.8-.65 1.02-.66.34 0 .34.15.34.5s0 .94.1 1.16c.18.39.64.66 1.05.88.01 0 .25.09.28.1l.24.04h.85l.2-.04.24-.06.18-.08c.12-.06.26-.13.36-.2.13-.08.24-.15.36-.24l.32-.25c.1-.06.49-.73.67-1.05.25-.43.64-1.12.81-1.2.33-.16.13.45.08.58 0 0-.16.32-.24.46-.1.19-.11.21-.1.42.02.32.81.76 1.09.89.28.12 1.72.34 1.73-.04 0-.26-.1-.51-.22-.7-.19-.31-.26-.42-.26-.66 0-.37.19-1 .37-1.26.19-.28.56.71.6.82.14.39.24.83.28 1.32.07.81-.39 2.08-1.09 2.33-.53.19-.86.16-1.39.06-.4-.07-.75-.34-1.04-.56-.18-.13-.29-.24-.43-.42-.07-.1-.27-.37-.34-.34-.05.02-.2.26-.26.35-.07.12-.16.25-.24.36-.09.12-.18.24-.38.42-.23.17-.24.17-.24.17-.32.31-1.2.57-1.76.61-.47.04-1.03-.12-1.39-.34-.69-.42-.89-1.13-1.15-2.09-.06-.21-.69.39-.69.39s-.39.29-.56.41c-.2.14-.39.28-.57.43l-.13.09-.14.08c-.08.06-.26.17-.26.24-.08.61-.27 1.95-.38 2.13-.43.66-1.1 1.45-1.74 2.2-.8.94-2.04 1.91-3.14 2.52-.72.4-1.39.74-2.3.97-.35.09-.65.16-1.05.16-.1 0-.93-.06-.93-.06l-.16-.02c-.17-.03-.19-.04-.4-.12-.23-.09-.48-.18-.67-.3-.29-.19-.59-.44-.79-.72m-45.45-.94c.16.12-.05.82-.23.9-.23.09-.88.42-1.29.62-.51.25-1.04.5-1.57.74-.24.11-.73.32-.73.32-.22.11-.48.22-.73.32l-.18.08-.2.08-.21.09q-.09.06-.25.11l-.2.1c-.26.09-.4.14-.44.14-.15 0 .15-.75.32-.85.25-.14.53-.28.81-.38q.09-.03.32-.14c.16-.08.34-.16.48-.22l.83-.38c.22-.09.5-.21.65-.28.16-.07.32-.16.46-.24 0 0 .29-.14.42-.2l.16-.08.22-.14.14-.06.3-.14c.21-.1.88-.4.92-.4" fill="#1d1d1b" fill-rule="evenodd"/></svg>