<svg viewBox="0 0 83.38 27.3" xmlns="http://www.w3.org/2000/svg"><path d="m71.38 19.12c-.02.1-.06.18-.11.29-.05.1-.1.51-.12.72-.03.28-.11.93-.12.96-.12.43-.25.62-.46.94-.1.15-.21.31-.33.45-.09.11-.33.4-.33.4-.2.38-1.07 1.08-1.51 1.43-.24.18-1.49 1.25-1.49 1.25-.15.27-2.18 1.29-2.64 1.41-.64.18-1.42.32-2.1.32-.64 0-1.05-.16-1.53-.4-.36-.18-.79-.65-1.21-1.13-.3-.33-.51-1.07-.56-1.5-.07-.56-.06-.8-.02-1.31.01-.2.08-1.08.03-1.09-.08.02-.34.18-.54.31-.22.14-.46.29-.64.4l-.24.16c-.12.08-.25.16-.38.24q-.14.08-.26.16c-.12.08-.36.24-.36.24-.89.5-1.79.99-2.75 1.42-.99.46-2.1.81-3.39 1.05l-.2.04-.2.04-.24.04-.28.04-.24.04-.16.04-.16.04-.32.04c-.14.02-.25.04-.45.08-.67.14-1.86.37-2.02.34-.7-.11 2.69-1.26 2.82-1.31 1.13-.37 2.21-.8 3.19-1.35l.24-.14.12-.04c.09-.03.12-.05.3-.14l.28-.16.12-.08.18-.08.28-.16.18-.08.14-.08.14-.08.18-.08.14-.08.14-.08.16-.08.24-.14.14-.06.14-.08c.21-.13.44-.25.67-.36.15-.07.3-.16.45-.24l.12-.08.28-.16c.28-.16.93-.59 1.37-.88.75-.5 3.44-2.4 3.43-2.97 0-.19-.45-1.08-.71-1.58l-.14-.22-.06-.14-.08-.12-.08-.16c-.15-.28-.3-.57-.44-.86-.45-.96-1.22-2.66-.56-3.69.05-.08.53.45.61.54.17.19.46.5.58.59.07.06 1.54 1.49.7 1.21-.38-.13-.82-.27-.56.3.04.1.16.28.24.42q.08.13.16.3s.05.08.16.3c.3.57.76 1.42.83 1.83.24 1.43-.14 2.7-.83 3.49-.05.06-.53.5-.81.76-.13.12-.27.24-.53.42l-.22.18-.14.22c-.19.19-.32 1.47-.2 1.65l.04.24.04.2.1.32c.08.24.22.45.37.67.26.39.75.66 1.28.95 1.14.63 3.29-.19 4.2-.7 1.85-1.05 3.8-2.46 4.96-4.19.09-.14-.02-.41-.12-.66-.03-.07-.41.04-.49.06-.22.07-.41.12-.68.16-.31.04-.8.11-.93.12-.17.01-.89.06-.93 0l-.28-.08c-.13-.04-.36-.1-.4-.12-.22-.08-.43-.23-.57-.4-.43-.54-.45-1.52-.18-2.23.31-.83.8-1.53 1.67-1.78.24-.07 1.13 0 1.21.2l.16.06.14.08.32.24c.23.16.42.36.6.57q.15.19.23.29l.08.12.09.13c.08.11.4.54.48.51.71-.31 1.25-.61 1.84-1.02.38-.27 1.42-1 1.58-.92.12.06.15.31.15.43l-.04.4q-.04.31-.04.32c.03.3.3.84.62 1.05q.11.09.21.15c.22.14.46.28.77.34.53.1 1.07.06 1.57-.14.57-.22 1.17-.69 1.45-1.2l.08-.16.16-.28q.07-.12.12-.22l.16-.3c.13-.22.43-.72.6-.76.34-.08.08.53 0 .7-.14.28-.34.68-.24.86.2.36.82.72 1.25.86 1.02.34 2 .15 1.21-.92-.25-.35-.14-1.44.2-1.79.42-.43.88 1.98.91 2.27.09 1-.66 2.21-1.59 2.29-.63.05-1.31-.11-1.74-.42-.18-.13-.35-.26-.49-.43-.1-.12-.44-.55-.46-.55-.06-.02-.22.23-.26.3-.07.12-.25.39-.25.39-.16.19-.35.4-.54.54s-2.31 1.13-1.83.65h-.48c-.19-.02-.42-.08-.56-.14-.26-.11-.55-.24-.74-.43-.46-.46-.69-.96-.78-1.81-.02-.18-.57.21-.61.24-.17.14-.49.41-.55.45-.11.08-.34.25-.55.38 0 0-.55.26-.56.2m-38.16-11.17s.74-.3.98-.39l.16-.06.24-.08.16-.06q.21-.09.24-.1c.28-.09.57-.19.85-.3.63-.24 1.67-.65 2.06-.82l.16-.06.16-.08.16-.06.28-.12c.22-.09.8-.31.9-.27.09.03 0 .36-.03.45-.05.15-.07.25-.22.48l-.24.02-.14.06-.22.08-.16.08-.2.08c-.31.13-.83.33-.97.4-.42.21-1.2.47-1.78.66-.2.07-.6.2-.6.2l-.28.12-.32.12-.24.08c-.3.11-.6.21-.89.34-.28.12-.72.31-.89.32-.06 0 .1-.59.1-.6.01-.04.09-.23.13-.25zm19.62-4.59c-.15-.3-.6.1-.69.21-.15.18.07.45.18.58.74.84.82-.2.51-.79m26.83.72c-.28-.43-1.03.02-.92.47.04.18.6.52.81.64.68.38.31-.93.11-1.12m-43.73-2.08c.38-.24-.04.56-.09.63-.09.18-.34.78-.3.97.05.24.29.67.5.74.18.06.3 0 .39-.15.02-.04.13-.29.15-.35.03-.12.05-.21.18-.16.1.04-.22.95-.24 1-.11.29-.36.82-.77.68-1.07-.37-.52-2.93.17-3.36m-18.81 3.87c-.22-.15-.02-1.06.04-1.35.08-.36.66-.84.97-1 1.12-.59 2.82-1.47 3.59-1.77.31-.12.62-.26.91-.4.32-.16.81-.35 1.23-.52l1.13-.44c.15-.06.43-.17.48-.2.18-.09.41-.21.54-.17.16.04-.1.77-.16.87-.04.06-4.44 2.03-5.06 2.28-.88.34-1.75.78-2.53 1.25-.35.21-.86.52-.4.85.38.27.59.44.37.98-.13.31-1.01-.23-1.1-.37m-13.01-1.71c-.04-.33.08-.99.27-1.16.33-.28 1.49.77 1.68.96.22.22.43.46.63.7.08.1.55.68.56.67.06-.05.05-.33.05-.36-.02-.43-.04-1.13-.04-1.14.02-.35.1-.71.2-1.01.09-.27.2-.59.31-.75l.14-.18.17-.15c.02-.18.55.12.56.13.14.11.25.22.33.39.07.14.12.38.14.56 0 .1.01.33-.05.42q-.12.17-.12.24c0 .15-.47-.45-.47-.45-.18-.23-.64-.38-.78 0 0 .02-.04 1.04-.04 1.28 0 .45 0 1.12-.04 1.45-.03.27-.23 1.58-.48 1.39l-.05-.19c-.04-.16-.06-.23-.1-.32 0 0-.22-.35-.32-.52-.21-.34-.43-.62-.7-.9-.14-.15-.37-.38-.41-.39-.04 0-.09.01-.33.09-.11.04-.2 0-.3-.03-.33-.13-.75-.38-.83-.74m53 3.05c.18-.11.36-.22.54-.32l.28-.16.14-.08.14-.08.26-.16.14-.08.14-.08c.14-.08.27-.16.4-.24s.39-.22.58-.32c.17-.09.5-.27.53-.28.17-.11.37-.23.54-.32l.18-.08.26-.16.18-.08.14-.08q.17-.11.28-.16c.21-.11.44-.23.73-.4l.16-.08.24-.14c.36-.18.67-.35 1.01-.54.31-.18.96-.54 1.08-.53.17.01-.06.7-.11.78-.1.15-.3.26-.49.36l-1.19.68c-.86.45-1.71.93-2.54 1.4-.74.42-2.51 1.42-2.56 1.44-.4.21-.82.44-1.19.68-.08.05-.42.28-.46.2-.11-.17.33-1.05.56-1.17m11.18-3.23c.54-.09 1.61.87 1.99 1.33.09.12.22.29.32.43.11.15.22.31.31.47s.31.53.36.52c.05 0 .1-.89.1-.98.03-.67.07-1.45.2-1.83.18-.5.52-1 .95-1.26.19-.12.54-.1.67.06.37.48.66.88.27 1.54-.07.11-.45-.31-.47-.33-.09-.1-.38-.37-.5-.36-.61.06-.64.74-.64 1.23 0 .65 0 1.53-.16 2.37-.04.23-.27 1.44-.5 1.36-.04-.01-.09-.24-.11-.31q-.03-.15-.1-.3c-.12-.26-.26-.48-.4-.7-.26-.39-.53-.76-.82-1.12l-.2-.2-.19-.07h-.32c-.19-.07-.42-.24-.63-.38-.23-.17-.4-.31-.4-.68 0-.12.13-.8.26-.78m-16.68.33c0-.41.14-1.23.47-1.53.24-.22.53-.48.77-.53.19-.04.39.26.5.42.12.18.08.77.06.96-.05.42-.14 1.22 0 1.32.34.25.59.49.83.85.11.16-.14.75-.22.75-.04 0-.18-.13-.24-.18-.1-.09-.22-.19-.33-.26-.2-.13-.5-.33-.63-.37-.07-.02-.47.41-.6.55-.2.22-.45.49-.63.65-.38.35-.8.7-1.28.95-.45.24-.89.47-1.37.68-.23.1-.46.21-.67.32-.09.05-.8.33-.83.24-.05-.16.42-.48.55-.56l.93-.52.69-.48c.12-.08.38-.25.38-.25.15-.11.31-.21.47-.31.53-.32.99-.71 1.42-1.14.16-.16.51-.51.24-.72-.28-.22-.42-.55-.52-.84m27.66 2.02c.06-.09-.33-.39-.46-.5-.22-.17-.47-.42-.53-.75-.13-.73.5-2.02 1.03-2.15.27-.07.43.03.66.17.08.05.25.57.29.74q.04.18.04.62c0 .29.01 1.08.05 1.25l.2.19c.15.12.24.21.3.29.12.18.24.79 0 .94-.04.02-.38-.23-.47-.29-.15-.11-.52-.37-.67-.24l-.16.2c-.09.12-.18.22-.28.33-.18.2-.39.39-.61.56-.39.32-1.02.84-1.23.98-1.42.92-3.12 2.02-4.93 2.36-.29.05.77-.64.77-.64.28-.15.59-.32.87-.48.29-.17 1.24-.74 1.86-1.12.8-.49 3.17-2.06 3.29-2.45m-72.55 3.92c-.16-.2.48-1.18.62-1.34.09-.11.71.24.89.33.19.11.93.51 1 .39l.13-.23.06-.14.16-.3c.07-.13.3-.49.44-.5.36-.04 1.73 1.02 1.68 1.31-.06.28-.62 1.05-.91 1.1-.08.02-.46-.25-.72-.43-.2-.14-.6-.42-.72-.41-.02 0-.16.22-.17.24-.08.13-.16.25-.25.37-.18.24-.4.54-.46.57-.19.11-.73-.25-.91-.36-.15-.1-.85-.56-.85-.6m44.25.24c-.05-.18.42-.94.63-1.28.14-.22.68.22.81.33.18.15.63.49.83.43.05-.01.31-.47.38-.6.09-.17.3-.53.46-.54.23-.02 1.11.85 1.43 1.16.31.31-.67 1.47-.94 1.33l-.27-.19-.32-.27c-.23-.18-.55-.43-.7-.39 0 0-.26.42-.3.5-.14.25-.35.63-.43.66-.29.07-1.55-.85-1.59-1.12m14.61 1.63c-.24-.15-.29-1.11-.29-1.29 0-.51.13-1.03.28-1.47 0 0 0 0 .12-.28l.06-.16.08-.2q.06-.16.16-.34s.1-.19.12-.26l.14.05s-.09.33-.1.35l-.08.18q-.1.21-.14.34c-.05.13-.09.26-.12.4l-.04.16-.04.16-.05.43.05.38.04.2c.05.19.05.2.14.34s.24.37.38.43c.26.12.44-.03.53-.25.07-.17.26-.68.32-.66.28.12-.3 1.49-.38 1.6-.1.14-.25.37-.47.36-.18 0-.28-.06-.4-.14l-.13-.09-.18-.25zm13.59.65s-.05-.17-.08-.28c-.03-.1-.07-.28-.08-.4v-.64l.04-.14v-.14c-.04-.29.67-1.78.81-1.98.2-.28-.29 1.06-.31 1.12-.25.58-.16 1.28.09 1.78.09.18.33.28.51.16 0 0 .2-.19.2-.2.04-.08.27-.48.29-.47.45.18-.57 1.57-.8 1.67-.24.09-.56-.25-.67-.46m-43.88.4c-.11-.45-.08-.73-.02-1.32.02-.19.12-1.15.26-1.1.06.02.06 1.13.06 1.31 0 .04.01.38.14.42.62.2.92.29 1.31-.34.04-.06.02-.68 0-1.17-.01-.26.08-.62.15-.91.04-.17.25.67.25.79 0 .32 0 .81.18 1 .29.32 1.19.81.87-.16-.1-.3-.38-1.85.08-1.78.22.03.8 2.67.29 3.12-.28.25-1.43.34-1.48-.13-.02-.22-.33.19-.33.19-.09.12-.14.17-.27.26-.21.15-.41.24-.69.33-.42.14-.67-.27-.81-.5m-34.79.56c-.1-.23-.18-.48-.22-.76l-.04-.32-.06-.48.02-.18-.04-.28c-.08-.37.34-2.08.52-2.83.09-.34.52-2.08.74-1.96.23.13-.21 1.65-.3 1.96-.19.66-.38 1.46-.37 2.06.02.64.05 1.47.47 1.99.2.25.58.27.77-.02.07-.1.14-.26.18-.38.07-.18.15-.42.22-.42.59-.03-.36 1.98-.46 2.08-.57.58-1.13-.08-1.44-.46m26.95.24c-.2-.48-.31-1.11-.18-1.68.12-.57.56-2.39.79-2.47.16-.06-.1.82-.14.98-.12.41-.37 1.29-.32 1.49.13.51.38 1.5.91 1.4.15-.03.19-.24.22-.44.02-.1.12-.59.26-.4.22.3-.26 1.69-.43 1.82-.25.2-.51.01-.7-.13-.04-.03-.14-.16-.26-.29l-.07-.15-.08-.12zm-15.06 1.06c.28-.38-1.15-.98-1.64-.96-.22.01-.61.27-.69.44-.36.87 2.12.55 2.33.51m56.83 3.14c-.24-.33-.57-.63-1.01-.76-.57-.17-1.4.02-1.47.58-.06.48 2.31.55 2.48.18m-46.49-1.22c-.86-1.17-1.83-2.26-2.97-3.43l-.22-.18-.24-.2-.37-.38s-.26-.25-.36-.36c-.25-.26-.51-.51-.77-.76s-.51-.51-.77-.76c-.78-.79-1.91-2-2.86-3.03-.03-.03-.46-.55-.65-.8-.06-.08-.21-.31-.31-.46s-.21-.29-.33-.43-.33-.37-.58-.61q-.17-.13-.22-.2c-.19-.25-.28-1.71-.17-1.86.07-.1.91.51 1.01.58.34.25.67.49 1.04.71.43.26 1.88 1.18 1.74 1.66-.01.03-.59-.13-.67-.15-.17-.05-.71-.2-.73-.12s.4.55.49.65c.1.11.2.2.3.3.1.09.22.2.29.29.28.35.79.87 1.21 1.27.1.1.21.21.5.51l.13.07c.17.18.37.38.52.56.13.15 1 1 1.55 1.55 0 0 .51.48.73.68l.3.31s.17.17.2.2c.11.11.33.34.57.6.01.02.28.28.42.42.16.15.71.83 1.07 1.27.15.19.41.51.48.63.08.15.1.4.11.52l.07.11c.04-.07.09-.16.15-.03.25.52.58 2.3.31 2.84-.16.32-.3-.36-.3-.36-.04-.2-.06-.32-.12-.48-.07-.18-.14-.39-.23-.53-.1-.17-.26-.42-.31-.59m32.57 1.49c-.21-.32-2.02-1.67-2.32-1.38-.23.23-.98 1.53-1.05 1.9-.07.35.1.62.25.82.18.24.73.21.98.13.4-.13 2.4-1.04 2.14-1.47m-49.65 1.03c-.08-.1-.23-.76-.33-1.21-.09-.42.37-2.72.59-3.11.2-.36.09.4.06.52-.15.67-.26 1.26-.24 2.09 0 .46.47 1.42.93 1.24.1-.04.15-.23.2-.4.04-.13.11-.39.21-.31.32.25-.21 1.54-.41 1.69-.18.14-.72-.28-1.01-.51m12.48.96-.08-.14q-.07-.1-.1-.2c-.07-.18-.14-.39-.16-.6-.07-.63-.02-1.2.12-1.85.09-.4.54-1.91.87-1.89.07 0-.23 1.2-.26 1.33-.14.55-.33 1.36-.32 1.64.02.55.44 1.2 1.02 1.08.1-.02.16-.27.19-.39.04-.16.09-.37.19-.39.59-.11-.34 1.74-.47 1.85-.3.24-.88-.22-.99-.43m33.56.92-.08-.13q-.11-.16-.13-.21c-.06-.16-.13-.34-.16-.52-.1-.53.02-1.29.16-1.97.08-.37.21-.68.35-.98.07-.16.12-.27.2-.42l.08-.12.08-.16q.12-.22.14-.3c.02-.07-1.17-1.09-1.3-1.19-.08-.06-1.12-1.2-1.12-1.2-.06-.53-.1-1.06.11-1.64.04-.1.26.08.28.1.12.1.22.17.4.23l.24.08.14.06q.25.11.38.16c.26.1.5.21.77.32.14.06.42.18.3.41l-.17.05c-.23.05-.37.08-.44.11-.31.15 1.16 1.02 1.32 1.06.14.03 2.35-2.8 2.46-2.97.36-.57.16.49.1.66-.16.52-.29.94-.44 1.11-.24.3-1.15 1.54-1.12 1.74 0 .03.44.32.56.4.2.14.4.28.56.45.34.37.65.8.76 1.4.08.5-.19 1.66-.38 2.01-.23.41-1.03.9-1.59 1.24-.36.22-.73.41-1.23.5-.25.05-.46.08-.73 0-.07-.02-.26-.11-.37-.21l-.13-.08zm-16.09.21c.82-.27 1.63-.55 2.32-.94.33-.19.63-.36.93-.56.16-.11.31-.21.6-.47l.18-.22c.71-.48-1.76-1.75-1.89-1.8-1.23-.47-2.41.04-3.42.49-.71.31-3.72 3.61-3.69 4.18 0 .13 1.02.03 1.18 0l.34-.04h.22l.28-.04.28-.04q.36-.06.52-.08c.74-.09 1.54-.2 2.14-.48m9.2-19.72c.08 0 .39.65.52.92q.05.12.16.3s.1.21.16.34c.11.22.32.68.32.68l.08.2.08.2.14.28c.06.12.17.35.24.52s.53 1.27.18 1.27c-.04 0-.26-.22-.42-.37-.13-.13-.43-.42-.53-.39-.07.02.37 3.3.4 3.51.12.92.32 2.17.48 3.25l.04.2.04.24.04.32.04.2.04.28.04.28.24 1.57c.08.54.23 1.64.24 1.77l.04.72c.03.44.04.67.08.92.1.64-.06 4.14-.68 4.39-.13.05-.13-1.29-.13-1.48v-1.12c-.01-.22-.24-2.31-.36-3.39-.21-1.86-.52-3.77-.81-5.5-.15-.89-.29-1.77-.4-2.65-.07-.56-.16-1.28-.2-1.65-.05-.51-.16-1.44-.24-1.85-.07-.35-.37-2.45-.37-2.45.14-.51.29-1.07.51-1.53m-42.2 22.58c-.34-.15-.61-.36-.88-.57-.13-.11-.25-.2-.36-.34-.07-.09-.27-.3-.37-.36-.26-.14-.75-1.51-.81-1.98-.27-1.88.17-3.71.75-5.14.05-.13.27-.66.46-.47.04.04-.14.84-.2 1.11l-.08.28c-.04.16-.08.39-.12.6-.07.4-.25 1.56-.2 1.69l.04.4.04.28c.03.19.07.4.12.56.09.27.19.5.3.75.04.09.44.54.64.75.12.12.24.22.51.43l.22.14c.72.72 3.1.66 4.12.4.53-.13 1.02-.26 1.47-.46l.3-.14.16-.06q.12-.05.36-.16c.15-.07.35-.17.42-.2l.14-.08q.14-.09.24-.12c.62-.18 3.12-2.1 3.61-2.58.96-.96 1.11-1.18.03-2.09-.24-.2-1.31-.2-1.9-.2s-1.11 0-1.54-.12c-.48-.14-1.43-1.39-.95-2.11l.04-.28.04-.16c.05-.16.11-.32.18-.46.11-.23.26-.47.41-.65.1-.12.36-.33.5-.41l.16-.08.22-.14c.13-.04.24-.07.24-.1.02-.17.93.09 1.01.12.24.1.47.26.69.4.17.11.37.33.59.57.07.08.18.2.27.26.3.21.99 1.64 1.14 2.1.36 1.14.47 2.72-.14 3.78-.71 1.23-3.4 3.41-4.8 3.89-.1.03-1.04.5-1.49.72-.11.06-.96.34-1.45.5-.99.33-3.35.34-4.13-.26m75.72-.99c.34-.08.56-.24.78-.43.08-.07.15-.18.21-.27.1-.18.24-.43.34-.44.02 0 .02.31.02.36 0 .15.04.17.16.24.2.12.47.25.7.12.09-.05.17-.35.26-.68.04-.15.25-.64.4-.57.18.08-.09.96-.15 1.14-.17.44-.34.68-.64.98-.16.16-.48.17-.71.09-.31-.1-.59-.19-1.11.19-.16.1-.41.17-.59.21-.21.05-.55-.11-.73-.22-.1-.07-.64-.35-.71-.22l-.18.04-.12.04q-.09.03-.28.12c-.26.12-.49.24-.73.38 0 0-.4.27-.6.4l-.26.17s-.05.04-.23.15c-.48.29-2.23 1.32-2.78 1.08-.12-.05.58-.4.58-.4.3-.15.66-.37 1.01-.6l.26-.16.48-.32c.29-.19.79-.53.86-.58.51-.37 1.04-.75 1.64-1.03.3-.14.81-.27 1.05-.18.06.02.25.14.38.22.21.13.34.21.67.18m-35.05.62c-.1-.31-.12-.39-.38-.45-.07-.01-.24.22-.28.29-.09.12-.27.38-.32.38-.52.06.49-1.5.55-1.56.94-.91.89 1.05.72 1.58-.25.8-.61 1.1-1.18 1.58-.82.67-.75.2.07-.73l.29-.25c.19-.22.54-.61.53-.83m-23.35-.77s2.56-2.1 2.56-2.1c.25-.08 1.25-1.84 1.38-2.22.24-.71.28-1.69.28-2.29 0-1.71-.4-4.17-.71-5.98l-.02-.2-.04-.32-.04-.32-.04-.36-.04-.32c-.07-.55-.19-1.42-.24-1.73-.12-.75-.41-3.1-.36-3.21t.08-.4c.03-.18.1-.45.2-.76l.04-.16c.04-.15.07-.3.09-.35.17-.41.48 1.27.48 1.27.11.61.25 1.36.32 1.81l.6 4.18c.12.69.38 3.18.57 4.94.14 1.27.43 3.69.6 4.14.28.7.68 1.69 1.04 2.02.09.09.22.21.29.27.16.13.37.28.56.42.4.29 1.19.61 1.82.55.25-.03 1.72-1.85 1.9-2.17.21-.38.22-2.47.12-2.91-.01-.04-.06-.71-.08-.96-.02-.33-.07-.86-.12-1.27-.08-.72-.17-1.44-.29-2.17l-.04-.24q-.04-.24-.08-.52l-.08-.56-.04-.28-.04-.2c-.04-.27-.1-.69-.12-.8-.05-.38-.1-.68-.16-1.04-.18-1.09-.51-3.05-.57-3.5-.08-.57-.15-1.12-.2-1.36-.05-.25-.12-.61-.16-.72-.08-.24-.15-.44-.08-.68.12-.41.25-.84.39-1.2.07-.18 1.11 1.9 1.18 2.04.12.22 1.18 2.34.79 2.39-.04 0-.42-.35-.51-.45-.2-.19-.4-.38-.46-.37-.07 0 .3 1.95.34 2.17.02.1.22 1.25.32 1.89.28 1.69.62 3.68.77 5.26.08.84.08 1.6.08 2.43 0 .35 0 .5-.04.94q-.02.24-.04.4s-.07.49-.04.47c.21-.14.45-.31.7-.55.08-.08.18-.18.25-.27.13-.16.25-.31.38-.43.29-.27.98-.77 1.51-1.15.4-.29 1.15-.52 1.82-.62 1.44-.22 2.6.61 3.46 1.27.26.2.35.71.39 1.1.03.22-.17 1.07-.28 1.5 0 .04-.14.35-.14.36q-.09.2-.1.24-.07.21-.14.32c-.07.11-.11.16-.09.23.04.23 1.49-.53 1.55-.57l.16-.06c.11-.05.24-.14.34-.2.17-.12.45-.3.5-.42.33-.8-.75-7.13-1.11-8.93-.02-.08-.05-.32-.08-.56q-.03-.21-.08-.52l-.04-.24-.04-.28q-.02-.12-.04-.28l-.04-.2-.04-.2q-.04-.2-.08-.52c-.05-.38-.11-.79-.16-1.16l-.06-.36-.02-.28-.04-.24-.04-.24-.04-.32-.08-.48c-.05-.25-.11-.62-.16-.76-.09-.26-.19-.55-.12-.72l.06-.16.06-.2.04-.16c.07-.23.17-.51.31-.67.16-.19.93 1.59 1.02 1.8l.14.28.08.18.08.18.08.14.08.18.08.2c.15.33.42.97.38 1.27-.04.23-.48-.23-.51-.26-.11-.14-.22-.24-.37-.33-.17-.1-.02.67 0 .8.04.22.08.45.12.68l.04.24.04.24.04.24c.04.26.08.53.12.72.1.48.17.96.24 1.45.08.51.16 1.06.24 1.56.35 2.09.91 5.6.77 6.73-.08.64-.31 1.29-.54 1.95-.16.45-.74.94-1.11 1.2-.37.27-.99.55-1.47.74l-.12.04-.16.06-.32.14-.24.08-.24.08-.2.04-.12.04c-.47.23-5.11 1.27-5.53 1.21l-.28.04q-.4.06-.61.08c-.44.04-.64.05-1.19.08s-1.02 0-1.59-.04c-.67-.06-1.43-.29-2.05-.55-.49-.21-1.41-.97-1.66-1.42-.22-.39-.55-.96-.65-1.22-.08-.22-.16-.44-.22-.68l-.04-.16-.04-.16c-.04-.16-.12-.54-.13-.55-.03-.06-.52 1.26-.56 1.35-.11.31-.26.58-.42.84-.08.13-.16.26-.24.38l-.09.13q-.15.2-.15.21c-.52.99-2.46 2.09-4.07 3.01-.34.19-4.16 1.25-4.44 1.16-.47-.15 1.01-.76 1.01-.76.51-.21 1.03-.48 1.49-.76l.24-.14c.12-.06.27-.14.4-.22l.16-.08.24-.14q.24-.12.3-.15l.27-.15c.15-.08.29-.16.42-.25.04-.03.05-.04.23-.15.11-.07.4-.25.4-.25m-3.99-.79c0 .37-.03.76-.21.96 0 0-2.95 1.39-3.38 1.55-.58.22-1.24.52-1.77.82-.39.22-1.37.74-1.66.76-.08 0 .03-.56.06-.64.06-.17.14-.22.3-.32.24-.15.53-.3.81-.4.18-.07.33-.15.49-.24.09-.05.34-.16.52-.24s.76-.35 1.13-.52c.29-.14 1.33-.66 1.96-.97l.72-.36c.32-.16.82-.41 1.03-.4m8.72 2.05c-.13-.11-.41.17-.5.26q-.11.11-.15.17c-.07.11-.11.18-.19.2-.14.04.25-1.08.28-1.12.13-.21.41-.61.71-.6.63.02.45 1.13.28 1.55-.2.5-1.09 1.9-1.58 1.94-.29.03.63-1.12.65-1.13.05-.07.96-1.2.52-1.25" fill="#1d1d1b" fill-rule="evenodd"/></svg>