<svg viewBox="0 0 83.99 27.23" xmlns="http://www.w3.org/2000/svg"><path d="m79.71 1.2c-.04-.59-.89.2-.97.32-.13.2.77.74.89.8.71.35.24-.97.08-1.12m-27.58.92c.06.31.93 1.21.93.3 0-.29-.1-.79-.42-.76-.17.01-.52.26-.5.46m-30.41 1.69c0-.64.93-1.94 1.43-2.01.44-.06 3.35-.34 3.39.2.04.53-.28.93-.59 1.32-.13.17-.3.34-.5.54l-.13.07c-.08.06-.3.26-.32.29-.04.07-.6.42-.7.47-.15.07-.32.12-.48.18-.22.07-.4.16-.59.26-.5.28-.24-.23 0-.42.25-.2.51-.37.8-.55.55-.34 1.35-.83.32-.94-.53-.06-1.18-.08-1.73.08-.12.03-.29.14-.4.22-.2.13-.43.28-.48.28m46.39-1.32c-.05-.22.07-.83.24-.88.45-.15 1.42.68 1.77.98.04.03.47.53.66.76l.17.25.17.23c.07.1.3.41.32.4.07-.04.05-.73.05-.86 0-.23 0-.5.04-.87l-.05-.17v-.24c.02-.34.08-.59.16-.84.32-.97 1.55-1.99 1.98-.44.07.25.01.7-.17.85-.07.06-.38-.24-.45-.31-.15-.15-.3-.28-.52-.33-.34-.08-.54.42-.57.74v.28l.02.28-.02.2v1c0 .2-.05 2.68-.47 2.5-.01 0-.14-.34-.19-.49-.07-.19-.18-.36-.29-.51-.26-.35-.52-.7-.79-1.02-.37-.44-.43-.47-1.06-.59-.39-.08-.97-.49-1.03-.92m-53.78-.49c.31-.33 1.58.88 1.76 1.07.22.23.44.45.64.7.14.17.66.82.69.8v-.37s0-.46 0-.46l-.04-.7c0-.28.09-.68.16-.94.09-.32.26-.89.54-.94.27-.05.62.25.73.41.15.21.36 1.39-.09 1.13-.19-.11-.73-.42-.73-.42-.2.02-.19 1.29-.18 1.63 0 .39 0 .83-.08 1.32-.03.21-.21 1.25-.36 1.18l-.05-.13-.06-.16-.16-.32c-.12-.23-.26-.45-.4-.66-.13-.19-.3-.41-.51-.65l-.13-.1c-.09-.09-.18-.19-.26-.29-.06-.07-.36-.35-.43-.37l-.16.02-.2.02c-.08 0-.27-.11-.36-.16-.57-.31-.8-.91-.33-1.6m42.64 3.63c1.26-.84 2.98-1.99 3.88-2.5.71-.4 1.44-.83 2.12-1.28.45-.3 1.93-1.24 2.15-1.19.28.07-.25.91-.27.92-.76.6-2.8 1.82-4.18 2.64l-.28.16c-.12.06-.3.16-.32.17-.16.11-.31.21-.49.32l-.48.32c-.21.13-.61.39-.63.4-.37.21-.73.44-1.08.67t-.22.18l-.23.16c-.28.08-.15-.9.02-.97m-46.16-3.91s-.21.7-.3.96c-.12.35-.22.66-.2.76q-.05.61-.04.76c.01.21.06.4.12.56.12.34.26.72.62.78.11.02.24-.17.29-.25.09-.14.22-.35.29-.34.41.07-.38 1.55-.54 1.62-.3.14-.77-.37-.85-.62-.18-.6-.28-.92-.27-1.71 0-.45.17-1.12.29-1.61.05-.19.36-1.07.58-.92m-8.26 2.5c-.16-.27-.01-.9.12-1.18.23-.49 1.58.87 1.71 1.01.23.28.52.62.68.87.12.2.6.97.68.93.05-.02.05-.83.05-.88 0-.65.02-1.78.02-1.81.05-.3.3-1.16.54-1.22.42-.1.73.15.93.44.15.22.36 1.26-.1 1.06-.08-.03-.26-.17-.36-.25-.16-.13-.35-.25-.59-.19-.1.03-.1.87-.1 1.04v.8c0 .43-.06 1.1-.16 1.56-.05.21-.24 1.08-.34.98 0 0-.05-.13-.08-.22q-.02-.05-.16-.3c-.11-.19-.32-.56-.32-.56-.02-.04-.45-.65-.65-.92-.24-.34-.46-.65-.82-.49-.24.11-.91-.52-1.04-.7m49.77-.62-.13-.07-.2-.24c-.1-.12-.24-.33-.27-.51-.06-.43.1-1.04.31-1.48.14-.3.52-.6.86-.67.22-.04.45.27.49.46.08.37.17.77.08 1.2-.02.1-.11.75.14 1.04l.22.16.13.09c.16.13.33.29.43.48.09.15 0 .83-.15.83l-.14-.08-.08-.13-.38-.23c-.21-.13-.53-.32-.62-.34-.1-.02-.39.33-.48.45-.19.24-.37.45-.58.66-.34.34-.93.92-1.16 1.04 0 0-.49.29-.67.4-.22.13-.54.33-.69.4-.53.26-1.44.71-1.65.72-.26.02.43-.53.43-.53s.47-.3.69-.43c.05-.03.24-.16.35-.24l.13-.09q.22-.19.63-.51l.12-.08.13-.09c.41-.3.82-.61 1.2-.93.19-.16 1.04-.95.84-1.28m27.12-.29c-.05-.05-.15-.12-.23-.17-.12-.08-.33-.25-.6-.47l-.16-.23c-.52-.51.48-2.33 1.02-2.42.46-.08.67.35.79.7.09.27.12.66.16 1.24.03.36.06.76.11.83.02.02.14.12.23.18l.2.16c.2.22.28.64.12.99-.04.09-.47-.19-.54-.23-.22-.14-.36-.24-.79.02-.08.12-.17.25-.27.36-.15.17-.32.33-.5.47-.13.1-1.03.94-1.03.94-.28.57-4.58 2.92-5.07 2.75-.15-.05.78-.67.78-.67.12-.08.26-.16.4-.24s.34-.21.5-.32c.17-.11.59-.38.87-.56.17-.11.42-.27.5-.33.14-.11.28-.21.43-.31.59-.38 1.14-.79 1.68-1.22.26-.21.52-.42.77-.64.13-.11.72-.65.63-.82m-53.9 4.26.22-.14c.11-.06.38-.2.4-.2.15-.04.18-.06.34-.2.05-.04.26-.14.35-.19.31-.15 1.15-.56 1.72-.84.56-.28 1.12-.55 1.71-.78.21-.08 1.24-.57 1.88-.86 1.34-.63 6.96-2.85 7.18-2.82.21.03-.14.74-.18.8-.18.36-.49.47-.89.6-.74.24-1.44.54-2.12.86-.63.29-1.5.63-2.26.92-.34.13-1.41.6-2.16.92-1.38.6-2.76 1.22-4.1 1.89-.65.33-1.32.68-1.96 1.02-.3.16-.69.38-.59-.06.07-.27.24-.82.44-.92m8.96.96c-.1-.36-.09-.76-.08-1.26 0 0 .02-1.25.24-1.16.06.02.13.39.13.46.03.5.06 1.18.13 1.26.43.49 1.17-.28 1.29-.65.05-.15-.03-.72-.08-1.04-.03-.17.07-.88.31-.79.08.03.15.95.17 1.15.02.22.11.52.22.64.32.35.49.32 1.01.24.05 0-.16-.56-.16-.56l-.06-.16-.04-.24-.02-.14c-.03-.13-.11-1.38.19-1.14 0 0 .61 1.59.63 1.72.06.38-.15 1.17-.36 1.34-.23.18-.57.32-.88.25-.15-.04-.3-.08-.42-.14-.23-.12-.34-.18-.4-.16-.07.02-.15.13-.23.23-.09.12-.14.17-.27.26-.17.12-.31.22-.53.29-.3.1-.57-.16-.79-.38m16.83.54c-.2-.24.45-1.34.66-1.46.11-.06.55.24.7.33.24.16.62.41.83.43.09.01.31-.46.36-.59.08-.18.25-.53.44-.58.27-.07 1.31.76 1.46 1 .26.4-.27 1.49-.63 1.55-.03 0-.5-.33-.7-.47-.27-.19-.71-.5-.81-.47-.04.01-.32.59-.35.67-.08.24-.25.7-.71.46l-.14-.06-.13-.09q-.11-.08-.23-.15l-.13-.09q-.16-.14-.31-.23l-.13-.07-.19-.2zm28.08.15c-.14-.53.43-2.87.8-2.9.18-.02-.15.73-.18.78-.17.35-.29.61-.26 1.1.02.44.11.91.41 1.16.23.18.44-.01.54-.17.07-.12.32-.52.32-.52.16.03-.12.9-.16 1-.09.24-.28.67-.57.7-.62.08-.83-.62-.91-1.15m-13.5.54c-.11-.46-.26-1.09-.26-1.51 0-.55.48-2.05.71-2.32.2-.23 0 .45-.03.55-.16.45-.28.9-.32 1.47-.04.52.52 1.66 1.02 1.34.11-.07.15-.24.19-.39.04-.17.15-.58.25-.52.36.22-.33 1.68-.45 1.81-.36.39-1-.03-1.12-.43m-27.74 2.31c-.09.02-.4.33-.46.4-.08.1-.36.46-.4.46-.34.04-1.73-.94-1.51-1.27.24-.36.65-.98.81-1.04.12-.05.6.27.81.4.26.17.64.43.83.4.07-.01.26-.3.32-.4.12-.19.27-.41.51-.48.38-.11 1.61 1.01 1.55 1.39-.03.15-.83 1.01-.99 1-.17-.01-.59-.35-.78-.51-.13-.11-.54-.45-.67-.35m-20.9.95c-.23-.56-.44-1.07-.49-1.61-.07-.76.36-4.01.88-4.57.2-.22.1.46.09.49-.07.26-.11.57-.16.88-.09.55-.26 1.65-.24 2.09.02.69.44 2.04 1.07 2.03.21 0 .29-.19.34-.38.05-.17.22-.76.22-.76.29-.19.13.96.1 1.08-.08.33-.18.73-.3.98-.12.26-.44.52-.76.4-.15-.05-.29-.14-.4-.23l-.18-.18-.16-.23zm-10.14 1.22c-.14-.49-.05-3.41.44-3.66.07-.03-.07.67-.08.72-.13.66-.21 1.22-.12 1.77.07.38.27.8.52 1.02.11.1.35.19.46.06.05-.06.09-.3.11-.4.04-.19.06-.36.09-.43.15-.47.14.83.12.95-.06.28-.12.57-.27.76-.54.67-1.08-.42-1.27-.79m62.73 1.69c.16-.72-1.78-1.03-2.32-.46-.43.47.39.61.78.67.16.03.61-.02.81-.04.07 0 .29-.06.36-.08.12-.03.35-.1.36-.1m-38.2-1.91c.08-.11-.49-.21-.62-.23l-.2-.04-.24-.04c-.18-.03-.48-.08-.68-.12-.77-.17-2.32-.28-3.23-.34-.77-.05-4.11-.02-4.34.64-.02.07.8.68.98.81.33.24.71.52.97.76.11.1.29.24.44.36.16.13.34.33.46.49.41.51.48.6 1.16.27.37-.18.96-.48 1.17-.56.46-.19.91-.39 1.35-.6l.14-.08.16-.08.16-.08.14-.08c.26-.13.5-.25.77-.36.26-.11.48-.23.73-.36.15-.08.68-.35.68-.35m24.36 2.96c.22-.42-1.97-1.58-2.37-1.48-.13.03-.93 1.63-1 1.92-.06.29.09.63.23.8.16.18.45.2.76.19.5-.02 2.4-1.18 2.38-1.43m-3.52 2.84c-.26-.31-.41-.75-.45-1.25-.05-.54.09-1.62.28-2.15.09-.25.2-.5.3-.74.15-.34.27-.6.23-.77 0 0-.21-.16-.21-.17l-.12-.08s-.25-.17-.25-.17c-.2-.18-.41-.37-.62-.55-.31-.26-1.12-.97-1.24-1.19-.15-.27-.13-1.28 0-1.59.04-.09 1.37.45 1.69.58l.32.12c.18.07.48.18.51.21.2.18.05.3-.19.35-.17.04-.32.08-.4.2-.02.03.45.38.5.42.24.17.53.37.83.46.25.07 2.11-2.63 2.35-2.98.73-1.06.02 1.44-.13 1.66-.39.59-1.07 1.6-1.11 1.8-.01.08.24.23.32.27.2.1.37.2.53.33.3.24.6.47.78.77.45.73.53 2.12.04 2.91-.53.86-2.82 2.49-3.97 1.55m-6.64-19.69c.11-.01.57 1.02.69 1.29.09.21.5 1.23.77 1.89.2.49.5 1.26.58 1.57.14.5-.2.4-.39.13-.1-.14-.45-.56-.56-.58s.08 1.17.1 1.33l.04.28.08.56c.04.27.08.57.12.8.08.5.33 2.07.48 3.09l.24 1.36.04.24q.06.36.08.48c.05.37.1.77.12.92.09.61.17 1.13.24 1.81l.04.4.04.36.04.44c.02.2.11 1.06.08 1.2l.04.62c0 .11 0 .33-.04.86q0 .13 0 .36t-.04.44c-.06.39-.21 1.38-.54 1.28-.02 0-.13-1.67-.15-1.96-.04-.57-.06-.83-.12-1.29l-.04-.44-.04-.28-.04-.36q-.04-.36-.08-.68c-.07-.51-.15-1.11-.24-1.69-.15-.88-.29-1.86-.4-2.69-.05-.38-.13-.88-.2-1.29-.08-.43-.16-.95-.24-1.48-.08-.48-.24-1.64-.36-2.49l-.04-.24-.04-.24-.04-.28-.04-.2-.04-.24c-.05-.31-.08-.64-.12-.96-.04-.33-.05-.41-.08-.6l-.04-.32-.04-.2c-.03-.19-.12-.67-.12-.68l-.08-.32-.08-.28-.06-.16c-.04-.27.29-1.21.48-1.77m-33.36 21.69c.1-.38.49-1.1.87-1.24.13-.05.46.15.61.24.27.17.64.39.75.37.02 0 .32-.44.42-.6.1-.15.3-.45.48-.44.23.01 1.19.72 1.27.9.15.35-.49 1.29-.83 1.35-.15.03-.56-.27-.72-.39-.15-.11-.44-.33-.57-.27-.11.05-.29.33-.37.46-.14.22-.31.5-.42.59-.15.14-1.53-.81-1.5-.98m32.32.44c-.23-.97.23-2.48.67-3.12.21-.31 0 .67-.05.77-.07.16-.21 1.11-.2 1.1l.02.32c0 .07.06.22.08.28.06.16.11.28.24.38.2.16.44.06.53-.17.05-.13.28-.72.34-.56.15.37-.38 1.42-.49 1.6-.43.69-.98-.21-1.14-.59m32.59-1.85c.29-.14.64-.17.93-.04.3.14.7.32.85.3.35-.05.59-.26.78-.48.09-.1.19-.21.23-.29l.08-.18c.03-.07.1-.2.15-.25.16-.16.16.1.15.13-.02.21-.03.29.03.35.16.17.63.28.84.17.05-.03.14-.42.22-.72.01-.04.14-.33.16-.36.01-.02.08-.2.1-.24.13-.34.11.83.06 1-.11.39-.27.72-.45 1.03-.11.17-.52.33-.68.31-.19-.02-.27-.03-.42-.1-.16-.07-.37-.17-.46-.11-.37.27-.79.57-.95.61-.37.08-.66-.08-.91-.22-.2-.11-.54-.22-.79-.06l-.16.06-.22.08-.53.32-.23.17c-.35.25-.7.5-1.03.75-.53.38-1.98 1.32-2.7 1.16-.1-.02 1.08-.74 1.16-.79.1-.06.39-.27.58-.4l.32-.24.13-.09q.14-.1.21-.15c.4-.28.87-.62 1.2-.89.38-.31.82-.68 1.34-.84m-39.33 3.09c-.24-.86.39-2.26.75-2.97.23-.45-.03.66-.04.68-.14.32-.25.61-.3 1.01-.05.43.15.77.37.98.1.1.31.04.41-.02.04-.02.11-.14.17-.23.05-.09.08-.13.18-.09.29.11-.42 1.23-.51 1.31-.51.43-.86-.26-1.02-.66m44.29-8.32-.04-.15.45-.02.16-.04c.15-.04.31-.09.36-.22.06-.15-.15-.52-.24-.66-.19-.3-.32-.51-.3-.72.02-.22.22-1.06.35-1.22.2-.26.62.83.64.88.14.36.25.75.3 1.2.07.58-.12 1.33-.34 1.73-.41.73-1.47 1.16-2.36.68-.33-.17-.73-.39-.83-.47-.12-.1-.2-.18-.31-.3-.15-.18-.34-.38-.43-.37l-.15.26c-.08.15-.16.28-.24.42l-.07.13-.31.33-.22.18c-.11.22-1.15.61-1.59.69-.48.09-1.22-.03-1.57-.26-.31-.2-.63-.4-.81-.7-.09-.16-.22-.39-.26-.5l-.08-.24-.04-.2c-.02-.15-.07-.38-.11-.42-.08-.06-.53.34-.61.41-.15.14-.34.31-.49.41-.22.14-1.03.73-1.15.92-.03.04-.08.87-.1 1.24-.02.41-.1.67-.22.96-.47 1.22-3.6 4.39-4.74 4.86l-.14.08-.12.08-.14.08-.12.08c-.19.12-.37.23-.58.32-.3.14-.77.29-1.17.42-.15.05-.35.1-.53.12-.3.04-.34.04-.52.04-.02 0-1.08 0-1.05-.04l-.32-.08c-.17-.05-.34-.11-.49-.18-.14-.07-.29-.17-.42-.26-.1-.07-.24-.17-.32-.21-1.22-.61-1.19-2.89-1.16-4.47 0-.13-.34.12-.34.12l-.32.24c-.12.08-.34.24-.34.24-.12.08-.27.17-.36.24-.41.29-1.04.74-1.29.88l-.3.17c-.1.07-.27.21-.31.23l-.16.08-.4.24q-.17.12-.24.16c-.49.26-1.45.78-1.58.84-.68.39-6.73 2.04-7.1 1.89-.05-.02.39-.41.39-.41q.07-.07.17-.09c.14-.04.29-.11.42-.18.1-.05 1.01-.44 1.43-.62.71-.3 2.08-.94 3.11-1.43 1.92-.9 9.38-5.59 9.54-6.95.02-.15-.44-.99-.66-1.39-.13-.23-.29-.49-.48-.78l-.14-.24-.06-.14-.08-.14c-.24-.41-1.23-2.49-1.19-2.73.05-.26.23-1.36.34-1.34.09.01.2.17.28.28.12.16.25.3.39.43.15.13.47.41.71.61.22.19.45.4.63.63.11.14.18.4-.04.36-.3-.05-.63-.1-.73-.08-.14.03.28.66.28.66l.22.34c.18.33.34.62.54.92.58.86.7 1.82.59 3.07-.09.97-.43 1.38-1.02 2.04l-.18.18q-.15.18-.21.23l-.21.2c-.12.12-.26.22-.4.32-.18.13-.21.21-.29.43-.1.27-.32 1.41-.14 1.53l.04.16.04.2c.05.19.11.36.18.52.1.24.25.45.41.64.79.91 1.83 1.12 3.34.87 1.33-.22 3.14-1.46 3.95-2.28.08-.08.18-.18.27-.25.19-.13.29-.22.45-.36.03-.03.5-.49.75-.73.26-.25.51-.52.74-.8.14-.16.4-.48.4-.48s.16-.25.17-.25c.04-.07.13-.21.14-.22.17-.17-.09-.56-.19-.66-.06-.05-.35.06-.43.09-.22.09-.4.13-.68.18-.55.09-1.57.25-1.78.24-1.41-.07-2.17-1.29-1.67-2.75.41-1.22 1.22-2.24 2.72-1.81.52.15 1.12.72 1.61 1.21l.09.13.09.13c.15.18.45.53.56.49.65-.24 1.22-.69 1.73-1.09.3-.24 1.42-1.13 1.58-.99.14.12.15.24.14.52-.01.4-.02.74 0 .8.09.29.28.57.49.74.32.26 1.77.9 2.17.51l.18-.06.16-.04c.16-.05.3-.14.42-.22.25-.16.47-.33.68-.52.26-.22.55-.82.79-1.29.17-.35.6-1.19.9-1.07.11.04-.11.58-.13.63-.1.24-.29.67-.26.8.11.49 1.9 1.17 1.92 1.16m-56.5 10.1c-.25-.37.17-1.33.34-1.71.05-.12.27-.48.4-.7.05-.09.38-.63.36-.64-.12-.08-.69.09-.79.14-.15.08-.41.22-.45.12-.07-.22.45-.93.62-1.01.35-.18 1.89-.55 1.89-.09 0 .55-.75 1.26-1.1 1.55-.21.17-.42.39-.57.61 0 0-.61.95-.2.88l.12.04q.22.04.63.04c.22 0 .58-.08.83-.14.54-.13 1.08-.46 1.56-.85q.16-.15.23-.19.16-.11.23-.17c.15-.13.22-.2.27-.21.15-.02-.43 1.03-.43 1.04-.15.27-1.17.92-1.71 1.27-.43.27-2.01.4-2.23.03m-6.7-.11s2.13-1.18 2.48-1.35c.45-.21.9-.43 1.33-.66l.16-.08.16-.08.24-.14.14-.06c.2-.11.62-.33.66-.31.14.07-.12.82-.29.88-.59.19-2.25 1.1-3.07 1.57-.46.26-1.17.66-1.43.78-.21.1-.67.31-.7.29-.05-.04.11-.81.32-.83m-7.97-.24c-.24-.41-.37-1.11-.34-1.67.04-.68.16-1.52.36-2.23.08-.28.18-.58.28-.84.11-.29.36-.96.36-1.02-.02-.19-1.09.55-1.12.58-.32.23-.92.67-1 .74-.58.47-1.53 1.24-1.77 1.51-.8.88-2.73 2.87-3.58 3.12-1.72.5-1.92.46-3.3-.39-.37-.23-.76-.92-.88-1.4-.17-.66-.14-1.37 0-2.09.13-.67.5-1.39.79-1.97.05-.1.43-.8.65-1.18l.16-.28c.1-.18.27-.48.28-.5.03-.1-.24-.58-.41-.86-.2-.34-.31-.76-.38-1.22-.15-.95-.08-1.47.04-2.41.06-.47.8-3.24.97-3.39.26-.22.05.68.04.78-.07.29-.13.56-.2.84-.16.64-.38 1.49-.38 2.13 0 .75.37 3.4 1.43 2.66.06-.04.21-.32.25-.41.05-.16.24-.72.29-.7.31.12-.17 1.79-.31 2.04-.18.33-.29.39-.61.58-.23.15-.38.41-.52.68-.56 1.05-1.43 2.7-1.59 3.41-.12.55-.15 1.08.04 1.57.17.43.44.68.81.93.28.19.95.17 1.27.06.75-.27 1.3-.48 1.88-.86.86-.57 1.74-1.48 2.42-2.26.71-.82 1.7-1.56 2.59-2.2 1-.71 2.01-1.26 3.2-1.82.02 0-.26-.6-.31-.71-.11-.23-.22-.46-.3-.72-.14-.42-.32-.96-.4-1.33-.26-1.18-.74-3.46-.73-4.09 0-.22.26-1.15.4-1.22.11-.06.91 1.25 1.04 1.44.32.52.82 1.32.71 1.72-.02.08-.28-.11-.33-.15-.13-.11-.34-.27-.44-.29-.18-.02 0 1 .04 1.14.06.33.13.63.2.92.14.57.34 1.04.63 1.47.36.54 1.05.96 1.62 1.31.08.05.7.39 1.03.56.33.18.7.37.89.68.15.25.07 1.3 0 1.66 0 .03-.86-.4-.86-.4-.37-.19-.76-.28-1.25-.36-.46-.08-1.53 0-1.81.23-.43.34-.92 1.65-1.16 2.36-.32.95-.58 2.76-.06 3.57.19.29.46.54.85.62.39.09.99.05 1.37-.1.2-.08 1.13-.68 1.89-1.17.45-.29 1.47-1.48 2-2.11.11-.13.29-.32.44-.49.15-.16.44-.48.44-.48s.47-.42.64-.57q.07-.05.3-.28l.24-.17c.39-.38 1.28-.86 1.98-1.23.19-.1.38-.2.59-.28.12-.05.39-.18.59-.28l.14-.08.22-.08.34-.16c.2-.1.55-.28.66-.35.27-.18-1.26-1.21-1.33-1.26-.42-.28-1.19-.81-1.35-1.12-.43-.87-.23-1.59.16-2.31.18-.34.85-.77 1.25-.9 1.77-.59 9.74-.09 11.41.87.22.13-.14 1.06-.23 1.24-.2.43-1.09.88-1.61 1.14l-.44.22-.14.06-.14.08-.12.06-.14.06c-.18.09-.87.47-.89.52-.26.64-.49 1.57-.14 2.31 1.14 2.43 4.52 1.51 6.32.44.4-.24 1.1-1.39 1.55-2.13.06-.09.24-.33.41-.22.06.04.05.28.05.33l-.04.24c-.03.16-.06.3-.04.4.07.49.44.97.79 1.2.31.21.72.31 1.15.38.59.1 2.12-.4 2.28-.86s-.86-6.19-1.27-8.47c-.26-1.45-.49-2.89-.68-4.38-.1-.75-.22-1.61-.32-2.25-.05-.3-.1-.58-.18-.8-.09-.24-.18-.48-.1-.72l.12-.4c.08-.28.08-.28.08-.28.07-.2.19-.57.28-.62.04-.02.66 1.22.75 1.4.01.03.22.47.32.68l.08.16c.09.17.11.22.14.3.05.14.13.32.16.4.11.25.83 1.78.18 1.45-.07-.04-.2-.2-.26-.27-.07-.09-.25-.31-.26-.31-.19-.04-.07.95-.03 1.26.1.8.55 3.3.89 5.14.38 2.04.66 4.11.89 6.14.15 1.3-.26 2.27-.65 3.2-.07.17-.83.59-1.06.68-.23.08-.49.14-.77.2-.2.04-.33.07-.42.08h-.22l-.22-.04h-.14c-.34.07-1.06-.38-1.33-.55-.23-.16-.42-.46-.55-.71-.26-.52-.28-.55-.58-.1-.41.61-.79 1.06-1.43 1.43-1.35.77-3.98 1.44-5.3.31-.48-.41-.95-.8-1.16-1.4s-.17-1.41-.1-1.97c0 0 .07-.39.1-.56.02-.09.14-.87-.02-.74l-.28.12-.24.12-.14.06-.34.18-.16.06-.28.14-.14.06-.24.12-.14.08-.28.14-.28.12q-.28.12-.32.14c-.29.14-.8.4-.87.52l-.04.2v.32c-.02.14-.08.34-.19.43-.09.08-.33-.35-.4-.47-.1-.18-.73.1-.87.16-.52.23-1.03.47-1.53.72-.97.48-1.95.97-2.82 1.52-.78.49-1.46 1.23-2.05 1.92-.58.68-1.3 1.53-1.82 2.05-.68.68-1.64 1.51-2.86 1.59-1.19.09-2-.99-2.62-1.83m-1.41-.56c.01.3-.12.82-.34.88-.04.01-.48.21-.7.32l-.28.13q-.19.11-.27.15c-.33.16-.69.31-1.03.44-.38.15-.78.33-1.13.5-.19.09-1.13.48-1.18.48-.12-.02.11-.64.14-.69.04-.06.49-.29.74-.41t.47-.22l.14-.06c.1-.05.29-.13.34-.13q.19.03.24-.07c.07-.13 2.64-1.32 2.87-1.32" fill="#1d1d1b" fill-rule="evenodd"/></svg>