<svg viewBox="0 0 70.97 29.33" xmlns="http://www.w3.org/2000/svg"><path d="m4.85 24.77c.14.01.25.03.29.03 1 .04 2.2-.35 3.09-.64 1.4-.47 4.5-2.09 5.17-3.14.54-.84-.34-6.31-.67-8.28-.1-.61-.19-1.21-.28-1.84-.1-.69-.2-1.39-.32-2.05-.2-1.12-.57-3.31-.49-3.85s.17-1.16.34-1.41c.14-.21.37.71.38.76.07.26.2.79.2.8.16.73.38 1.71.45 2.21l.85 5.78c.38 3.04 1.13 8.98 1.93 9.91.64.75 1.51.98 2.73.71.42-.09.98-.36 1.21-.64.44-.54-.76-7.97-1.03-9.54-.06-.38-.13-.78-.16-1.12-.04-.43-.06-.54-.12-.96-.12-.79-.25-1.66-.36-2.43l-.05-.23c-.01-.07-.02-.12-.08-.47l-.04-.24-.04-.2c-.04-.2-.08-.49-.1-.6l-.02-.2-.04-.2-.04-.32-.04-.24c-.06-.32-.18-1.08-.16-1.21l.04-.64.08-.6c.01-.09.11-.41.17-.59.21-.68.94 3.16.96 3.28.21 1.23.73 4.52.73 4.52.29 2.88.84 5.87 1.45 8.61.11.48.57 1.39.9 1.61 1.2.83 2.08 1.44 4 1.02 1.12-.25 2.07-.69 2.94-1.18.17-.1-.06-1.36-.14-1.81q-.03-.15-.08-.36l-.08-.32-.08-.4-.04-.28q-.03-.19-.08-.48c-.24-1.3-.52-3.26-.77-4.98-.28-1.92-.68-4.79-.77-5.98-.02-.26-.05-.64-.12-.96-.01-.07-.08-.21-.1-.26-.08-.15-.17-.33-.14-.5.03-.2.5-1.36.61-1.46.07-.06.53.99.58 1.1.03.06.07.19.1.28q.04.12.1.28c.09.23.18.41.28.62.19.38.39.78.54 1.18.06.17.53 1.4.06 1.25-.06-.02-.26-.28-.37-.43-.1-.14-.21-.28-.38-.37-.14-.07-.05.72-.04.8 0 0 .12.94.16 1.28.08.62.18 1.24.28 1.85.04.24.08.55.12.8l.04.32.04.24.04.32.04.28c.08.47.19 1.11.28 1.61l.04.28.04.32.04.32c.02.17.1.57.14.76l.02.24.08.4c.05.31.1.58.16.8.04.16.09.35.12.52.05.28.1.55.16.8.07.32.26 1.15.4 1.18.02 0 .28-.09.3-.1.14-.05.3-.11.44-.14.22-.04 1.08-.15 1.11-.12l.26.04.16.04q.16.04.32.1c.26.1.48.2.67.36.29.26.48.57.57 1.04.14.76-.26 2.71-.81 2.89-.86.28-1.54.06-2.23-.45-.25-.18-.47-.38-.67-.61-.11-.13-.21-.26-.31-.41-.13-.19-.3-.44-.34-.47-.14-.11-1.79.72-1.96.82-.59.33-1.35.58-2.1.74-.53.12-1.44.16-2.06-.04-.69-.23-1.23-.44-1.73-.83-.21-.17-.41-.37-.59-.58-.12-.15-.44-.55-.51-.54l-.02.2q-.06.73-.08.88c-.03.22-.07.38-.12.56-.12.4-.23.72-.49.98-.47.47-1.21.81-2.03.89-.43.04-1.14-.05-1.68-.3-.47-.22-.79-.66-1.07-1.08-.26-.38-.43-.85-.58-1.32-.03-.09-.13-.54-.2-.84-.04-.18-.17-.75-.29-.67l-.09.19q-.11.25-.26.56l-.06.14s-.35.45-.51.65l-.1.12c-.03.05-1.03.77-1.34.97-.22.15-.71.46-.74.48l-.16.08-.24.14c-.18.09-.46.21-.48.24-.04.05-1.41.65-1.78.78-.24.09-.51.19-.77.26l-.16.04-.16.04-.2.04c-.12.03-.29.07-.4.12-.73.29-1.71.29-2.3.16-.81-.18-1.41-.35-2.04-.62-.49-.22-1.03-.74-1.31-1.19-.33-.53-.61-1.03-.79-1.75-.17-.69-.09-1.19.04-1.93.1-.54.28-1.11.48-1.65.1-.26.21-.52.34-.76s.27-.51.09-.69c-.79-.79-.88-1.91-.88-3.17 0-.8.6-2.95 1.11-4.78.29-.09.14.59.1.76l-.04.16-.08.28c-.02.11-.12.48-.12.48-.14.54-.29 1.32-.44 2.15-.15.76.16 2.5.87 2.93.32.2.65-.2.75-.42 0-.01.09-.4.12-.56.03-.15.1-.51.26-.4.3.21-.1 1.58-.24 1.91-.09.2-.24.44-.39.59 0 0-.29.17-.4.23-.08.04-.16.17-.26.34-.37.6-.55 1.67-.71 2.63-.09.54.11 1.03.26 1.4.25.61.74 1.11 1.22 1.5.1.08.23.17.35.23.05.06.35.68 2.31.6m11.49-22.08c.23-.21.68-.51 1.03-.74.19-.13 1.03-.68 1-.77-.04-.13-1.32-.06-1.51 0-.2.06-.4.13-.56.22-.05.03-.19.13-.23.17-.11.11-.13.12-.21.09-.19-.07.39-1 .46-1.08.11-.13.31-.24.47-.31.12-.05.19-.07.32-.1l.2-.04s.32-.06.32-.06c0-.15 1.53.13 1.67.19.4.17-.76 1.67-.88 1.74-.31.18-1.89 1.03-2.08.7m23.06 2.75c0 .18.44.52.57.6.55.35.32-.83.15-1.06-.18-.26-.82.2-.72.45m27.57-.43c-.26-.38-1.01.08-.94.43.04.22.61.55.91.72.62.36.23-.9.03-1.16m-44.61 2.63c-.42-.54-.32-1.71-.18-2.51.05-.32.32-1.47.58-1.36.03.01-.13.68-.17.83-.14.56-.24 1.25-.04 1.81.27.77 1.06 1.17 1.15-.04 0 0 .19-.07.2.12.01.28-.04.57-.1.8-.06.26-.18.47-.32.66-.18.25-.39.28-1.11-.32m33.03-1.54c-.28-1.74 1.4-.38 1.77-.07.27.24.52.54.77.84.11.13.22.28.31.43.14.22.37.58.42.6.06.03.12-1.82.12-1.85.02-.47.07-.86.22-1.24s.83-1.43 1.4-1.04c.32.21.98 1.52.28 1.61 0 0-.29-.28-.33-.35-.13-.14-.34-.28-.52-.33-.64-.17-.64 2.21-.64 2.63 0 .3-.1 2.46-.53 2.34-.03-.01-.1-.23-.11-.29q-.04-.16-.14-.36c-.07-.14-.2-.34-.32-.52-.2-.3-.43-.59-.66-.87-.13-.16-.24-.29-.38-.42-.09-.08-.18-.17-.25-.17l-.2.04-.24-.06c-.44-.15-.82-.45-.95-.92m-11.22 2.88s1.68-1.03 1.86-1.16c.32-.23 1.42-.86 2.14-1.27.14-.08.33-.19.54-.32l.16-.08.12-.08.14-.08c.2-.11.39-.21.59-.32l.26-.16c.19-.12.26-.16.26-.16.38-.2.75-.42 1.1-.66.23-.15.89-.55 1.08-.55s-.13.84-.21.92c-.03.02-.74.48-1.02.65-.18.11-.39.24-.54.32-.2.11-.38.21-.56.32-.16.1-.42.25-.65.38l-.25.15-.13.07c-.41.24-.94.56-1.19.72-.23.15-.74.44-1.09.64-.19.11-.57.32-.57.32l-.24.16-.26.17-.27.15-.12.06-.13.05q-.23.16-.25.17l-.25.17q-.11.08-.23.15l-.23.19c-.51.15-.2-.86-.06-.93m-4.75-2.18-.18-.22c-.17-.2-.34-.53-.31-.78.04-.37.26-1.17.47-1.38.23-.21.48-.46.76-.51.25-.04.46.29.5.5.11.45.09.74.04 1.2-.02.23-.08.83-.02.91 0 0 .35.27.45.34.17.13.36.3.45.51.1.23-.03.61-.11.76-.04.07-.2-.07-.24-.1-.11-.09-.22-.18-.33-.25-.28-.16-.64-.37-.71-.38-.09-.02-.45.42-.57.57-.09.11-.19.24-.31.33-.09.07-.19.17-.27.25-.34.34-.92.91-1.24 1.04l-.3.16q-.12.07-.22.12l-.28.16-.14.08q-.21.13-.28.16s-1.78.78-1.51.48c.18-.2.66-.52 1.15-.84.36-.24.83-.59 1.24-.89q.13-.1.31-.23l.26-.16c.23-.17.48-.35.68-.53.23-.21 1.02-.94.72-1.3m-14.16 3.89c-.12-.31-.91-.03-.84.48 0 .05.56.41.64.46.72.39.39-.69.2-.94m-18.66-2.24c-.13-.43-1.27-2.17-1.68-2.11-1.13.19-1.68-.88-1.2-1.86.26-.53 1.99 1.13 2.14 1.3t.32.41.15.21c.08.13.59.9.66.86v-.19s.05-.9.05-.9l.08-.6c.04-.23.1-.45.18-.64.17-.4.3-.7.62-.92.44-.3 1.1.85 1.01 1.28-.04.21-.2.41-.34.45 0 0-.63-.63-.7-.7-.48-.49-.46 1.13-.45 1.26.01.38.02.89-.08 1.53-.14.91-.43 1.47-.83 2.07-.43.65-2.36 2.21-3.23 2.27-.22.01.77-.87.8-.89q.16-.13.39-.31s.41-.32.58-.45c.36-.29 1.87-1.48 1.52-2.04m59.97-1.32c-.63-.42-1.15-.77-.94-1.73.12-.56.65-1.84 1.33-1.49.33.17.4.4.52.76.08.25.1.55.12.98.01.24.05 1 .07 1.02.42.32.84.64.53 1.39-.02.06-.44-.22-.5-.25-.23-.15-.44-.29-.73-.14q-.11.14-.28.34c-.05.07-.13.17-.17.21-.17.19-.38.35-.58.52-.43.34-1.08.86-1.35 1.13-.47.46-4.05 2.47-4.64 2.27-.21-.07.74-.61.78-.63.27-.16.72-.41.89-.52.29-.19.61-.4.89-.56.19-.11.35-.22.51-.34.14-.1.32-.22.47-.32l.25-.15.14-.08s.32-.22.47-.32c0 0 .24-.16.36-.24.15-.1.31-.21.46-.33.33-.27 1.54-1.28 1.41-1.51m-28.2 5.13c-.11-.24.36-1.01.53-1.28.15-.24.67.11.86.23.27.18.65.43.79.46.11.03.38-.53.44-.66.09-.19.3-.53.51-.55.16-.01 1.32.97 1.39 1.13.18.42-.41 1.44-.73 1.49-.07 0-.54-.36-.68-.47-.21-.17-.67-.54-.77-.51-.02 0-.3.52-.36.64-.08.15-.31.58-.36.58-.3.04-1.57-.83-1.61-1.06m14.39-.8c.09-.64.42-1.57.73-1.98.24-.32-.21.94-.21.94-.16.44-.26 1.12-.16 1.53.09.36.3.82.63.94.27.11.42-.06.51-.3.05-.16.22-.65.3-.64.18.03-.13 1.12-.16 1.2-.11.31-.27.69-.6.78-.13.04-.25-.02-.34-.07l-.24-.13-.16-.2c-.39-.21-.35-1.62-.29-2.06m13.72 1.85c-.17-.6.36-3.07.82-3.15.17-.03-.24.88-.26.9-.15.33-.27.74-.24 1.12.03.4.17.85.44 1.06.21.17.42-.09.52-.23t.11-.27c.04-.11.08-.25.17-.22.49.21-.59 1.6-.67 1.67-.4.35-.85-.64-.89-.9m-41.69-.46c.06-.18-.17-.33-.32-.43-.17-.11-.38-.25-.52-.39-.39-.38-.1-1.42.13-1.78.24-.36.86-1 1.32-.59.26.22.32.68.35 1.1.01.19-.04.46-.08.7-.05.27-.09.49.08.68q.14.12.18.18c.13.19.24.35.26.42.02.11-.2.66-.48.51-.13-.11-.22-.19-.42-.16-.03 0-.16.23-.17.25-.08.14-.16.27-.25.39-.12.16-.26.32-.41.46-.23.22-.86.85-.92.94 0 0-.54.45-.71.58l-.2.16-.23.16q-.08.06-.23.13-.17.07-.28.15c-.11.08-1.03.73-.81.32 0 0 .36-.36.41-.4.11-.09.31-.28.5-.46l.2-.2.38-.34c.25-.25.5-.49.74-.75l.39-.38s.43-.47.65-.72l.23-.31c.05-.08.11-.17.18-.23m-17.78 4.21c-.75-.35-.02-2.36.22-2.97.21-.54.64-1.01 1.13-1.29.22-.12.67-.23.81.06.08.17-.08 1.49-.26 1.56h-.19c-.23-.07-.29-.08-.36-.07-.16.03-.32.15-.44.23-.22.16-.46.35-.55.63-.14.43.82.43 1.07.43.22 0 .61.04.88.22.22.15.29.63.31.96.04.57-.28 1.36-.5 1.75-.21.36-.47.6-.89.76-.68.26-1.58-.12-2.14-.36-.19-.08-.54-.46-.12-.52h.2l.2.04.24.04c.23.03.61-.04.81-.08.48-.1 1.31-.38 1.43-.8.09-.33-.67-.33-.9-.33-.29 0-.74-.08-.95-.26m49.77 2.39c-.14-.25-.68-.66-1.01-.72-.58-.11-1.39 0-1.47.6-.07.51 2.39.51 2.48.12m-13.86.78c.04-.44-1.58-1.26-1.99-1.45-.51-.22-1.26 1.33-1.39 1.81-.08.31.05.79.25.9.28.15.34.18.82.17.46-.01 2.33-1.16 2.32-1.43m-9.93 2.68c.35-.23-.48-.79-.62-.87-.23-.12-1.58-.4-1.41.02.13.33 1.56 1.16 2.03.85m6.2-.05c-.45-.58-.27-2.12-.06-2.87.08-.3.2-.59.32-.84.09-.2.4-.87.4-.88-.02-.08-.41-.41-.63-.59-.21-.17-.41-.34-.6-.52-.29-.27-1.24-1.22-1.26-1.33-.12-.56-.06-1.03.06-1.48.01-.04 1.25.45 1.53.56.29.11.83.33.89.36.12.07.26.23.12.34-.02.01-.26.07-.28.08-.17.04-.22.05-.3.09-.17.07.47.54.52.58.17.12.84.58 1 .41 0 0 .19-.26.23-.31.11-.15.22-.3.34-.45.04-.04.16-.22.23-.31l.18-.23.16-.24s.5-.65.71-.93l.32-.46c.09-.13.11-.16.17-.21.39-.31-.14 1.45-.17 1.54-.09.21-.26.46-.4.68-.08.11-.17.23-.26.33-.05.06-.15.22-.23.33-.36.53-.53.79-.02 1.11.22.14.75.65 1.16 1.06.51.5.47 2.26.02 2.86-.65.89-1.68 1.58-2.9 1.89-.48.12-1.15-.2-1.25-.52m-6.11-19.48c.14-.08.48.65.56.82.06.13.17.39.26.58l.18.42.06.14c.33.65.91 1.86.99 2.47.03.19-.13.4-.3.32-.08-.03-.26-.25-.37-.39-.11-.13-.28-.34-.4-.33-.02 0 .02.51.02.56.02.27.07.69.12 1.04.09.65.16 1.21.24 1.73.17 1.11.37 2.58.52 3.65.14 1.01.32 2.23.49 3.33.13.86.5 4.35.44 4.44v.28l-.04.74-.04.44v.16c-.01.12-.1.54-.16.8-.07.31-.28 1.13-.54 1.14-.06 0-.06-1.58-.06-1.66 0-.46 0-.71-.04-1.36s-.23-2.16-.36-3.25c-.11-.92-.28-2.19-.4-2.89-.15-.81-.31-2.04-.44-3.01-.26-1.96-.69-5.21-.77-6.06-.07-.81-.27-1.76-.42-2.45-.09-.38.28-1.42.47-1.66m31.21 20.73c.22-.1.56-.09.77 0 .45.19.73.32 1.01.3.24-.01.61-.33.74-.49s.52-.64.52-.64v.23c.01.08.03.31.13.32l.14.08.2.06c.2.05.25.06.44-.02.04-.02.16-.48.22-.72.04-.15.25-.63.36-.58.54.28-.61 2.05-.8 2.18-.18.12-.36.15-.58.1-.04 0-.37-.16-.4-.18l-.14-.06c-.1 0-.3.18-.44.32-.2.18-.52.29-.79.33-.14.02-.44-.02-.65-.14-.28-.17-.48-.29-.85-.22-.33.07-1.56.88-2.5 1.51-.41.27-.87.57-1.37.74-.14.04-1.96.39-1.01 0 .54-.22 1.63-.94 2.5-1.51.18-.12.37-.27.55-.41.01-.01.38-.28.53-.39.43-.31.87-.62 1.43-.8m-36.17-.1s-.23 1.09-.29 1.38c-.1.46-.14 1.29.3 1.53.17.09.32-.05.42-.15q.09-.08.19-.27c.06-.1.09-.16.16-.08.26.25-.43 1.59-.97 1.53-.24-.03-.49-.37-.55-.58-.18-.7-.07-1.46.12-2.13.06-.2.44-1.26.62-1.22m20.33 4.27c-.25-.12-.56-.34-.79-.59 0 0 0 0-.16-.2-.06-.07-.21-.26-.25-.28-.15-.08-.48-.97-.53-1.22-.1-.53-.15-1.03-.12-1.59 0-.17.06-1.09.02-1.08-.08 0-.88.54-1.19.74q-.11.07-.24.17c-.06.05-.22.15-.33.23-.22.15-.71.46-.75.48-.46.24-.94.52-1.37.8-.27.18-1.06.56-1.57.8-.93.44-2.2.76-3.43 1.06l-.16.04-.24.04-.16.04-.24.04-.2.04-.16.04-.28.04-.12.04-.36.08q-.18.04-.32.08c-.15.04-.36.1-.44.12-.33.08-1.04.23-1.18.15-.3-.16 1.3-.76 1.34-.78.3-.11.59-.23.89-.36q.18-.08.24-.1c.16-.06.32-.12.48-.18.54-.21 1.09-.42 1.58-.66l.4-.2q.25-.1.32-.14c.22-.12.5-.29.71-.36.46-.17 1.08-.51 1.46-.81q.07-.06.21-.11c.07-.03.3-.17.42-.24.06-.03.36-.21.57-.32l.28-.16c.93-.53 2.52-1.46 2.94-1.86.06-.06.29-.22.41-.31.19-.13.51-.36 1.09-.8l.21-.18.2-.16c.27-.21 1.76-1.42 1.49-1.75l-.06-.2-.08-.2c-.06-.16-.12-.29-.2-.42-.13-.22-.27-.44-.44-.74l-.08-.16-.08-.14c-.16-.26-.16-.26-.16-.26-.17-.29-.33-.58-.48-.88-.1-.2-.18-.42-.26-.64-.09-.29-.22-.6-.34-.88-.16-.37-.3-.73-.3-.74 0-.02.12-.65.16-.86.05-.16.06-.25.09-.47.03-.21 1.55 1.34 1.62 1.4l.19.17.2.2.16.2c.09.14.07.32-.09.31l-.12-.04-.16-.04c-.08-.02-.35-.07-.44-.02-.13.06.31.76.32.78l.16.26.08.18.08.14.17.26.07.13.08.14c.13.22.3.53.36.68.39 1.01.49 3.03-.32 3.88l-.09.13s-.19.2-.29.3c0 0 0 0-.17.17l-.27.31c-.13.13-.36.31-.53.44-.23.18-.39.3-.52.53-.17.3-.27 1.31-.17 1.62.37 1.11.68 2 1.8 2.33 1.1.33 2.87.2 3.82-.48.13-.1.54-.33.81-.48.18-.1.48-.32.72-.49.47-.34.93-.7 1.37-1.08s1.11-.98 1.32-1.21c.1-.12.2-.23.58-.61.09-.11.21-.25.43-.55l.14-.22c.17-.17-.13-.57-.22-.62s-.38.06-.49.1c-.14.05-.54.13-.81.18-.5.09-1.17.16-1.61.16-.38 0-1.1-.31-1.26-.53-.49-.7-.63-1.53-.23-2.54.41-1.06 1.45-2.04 2.89-1.36.46.22 1.17 1.04 1.88 1.88.19.22 1.63-.79 1.81-.92.01 0 .47-.37.72-.57.26-.21.57-.45.88-.53.24-.06.3.38.28.54-.04.42-.07.86.1 1.12.27.42.55.64 1.01.88.48.25 1.18.22 1.77.06.18-.05.38-.17.53-.26.17-.11.42-.28.47-.29.2-.03.76-.99.92-1.28.27-.49.68-1.24.92-1.3.22-.06-.1.76-.14.84-.11.21-.28.57-.16.74.38.54 1.28 1.05 2.22.94.54-.06.71-.19.48-.7-.03-.06-.15-.24-.24-.38-.11-.17-.19-.28-.18-.46.02-.29.23-1.21.4-1.34.4-.29.87 1.95.89 2.34.04.64-.28 1.26-.51 1.68-.15.27-.55.43-.96.59-.64.25-1.58-.23-1.98-.5-.15-.1-.34-.29-.46-.43-.08-.09-.36-.45-.43-.36-.44.56-.93 1.2-1.04 1.27-.45.3-.93.54-1.58.65-.39.07-1.08-.05-1.47-.26-.81-.43-1.04-1.07-1.28-2.08-.02-.07-1.23.78-1.24.79-.26.19-1.09.79-1.11.96-.08.62-.29 1.96-.34 2.09-.41 1-1.39 1.91-2.15 2.6-.41.38-.84.77-1.26 1.11-.11.09-.36.29-.65.52-.1.08-.21.16-.33.23-.12.08-.46.3-.46.3-.16.16-1.3.61-2.18.96-1.09.43-2.09.13-3.09-.18m-41.1.12c1.06-.27 2.34-.87 3.33-1.36.21-.11.45-.21.67-.3.14-.06.25-.11.4-.16.16-.06.29-.11.44-.18l.28-.14.56-.24c.18-.08.9-.37.95-.26.07.15-.05.84-.22.9-1.12.39-2.48.87-3.29 1.3-.7.37-2.6 1.24-3.35 1.34-.17.02-.06-.82.22-.9" fill="#1d1d1b" fill-rule="evenodd"/></svg>