<svg viewBox="0 0 73.85 29.21" xmlns="http://www.w3.org/2000/svg"><path d="m43.66 3.44c-.27-.37-.74.29-.7.52.04.25.5.61.73.63.28.02.09-1.01-.03-1.15m26.84 1.29c-.62-.43-1.35.2-.51.9 1.01.84 1.02-.37.51-.9m-51.85.7c-.33-.64.28-3.04.63-3.49.14-.18-.1.99-.1 1-.09.45-.26 1.33-.12 1.61.11.22.32.64.42.66.24.06.33-.01.44-.22.08-.14.27-.48.28-.48.12 0-.11.8-.14.88-.08.23-.18.44-.3.62-.45.67-.94-.16-1.11-.58m-13.54 1.2c-.17-.27 0-1.05.1-1.32.2-.5.44-.72.81-1.04.92-.84 8.45-4.18 9.66-4.27.13-.01-.16.79-.38.88l-.16.08q-.13.07-.26.12l-.2.08q-.12.05-.24.1l-.38.19c-.09.04-.13.06-.23.09-.24.07-.28.08-.28.08-.63.22-1.76.64-2.06.78-1.24.62-3.32 1.64-4.2 1.93-.52.17-1.14.62-1.53.97-.44.41-.27.52.15.8.33.22.33.68.1 1.01-.16.23-.81-.38-.9-.5m42.41 1c1.02-.45 2.81-1.49 4.11-2.25.89-.51 4-2.14 4.28-2.17.26-.03-.08.77-.12.81-.37.33-1.54.93-2.22 1.26-.76.38-1.75.87-2.26 1.18-.71.44-1.63 1-2.38 1.26-.06.02-.79.43-1.19.66-.1.05-.45.25-.48.15-.06-.24.06-.85.26-.91m-4.46-2.09c.02-.05-.26-.43-.4-.62-.07-.09-.4-.81-.25-.71l.08-.36q.08-.24.12-.36t.14-.34l.19-.27.07-.12c.05-.11.63-.43.78-.37.38.14.46.54.46.96 0 .34-.03.58-.08.94-.04.32-.09.65.42 1.09.14.13.29.3.39.48.11.2-.11.74-.34.75l-.08-.13-.33-.23c-.17-.13-.34-.27-.53-.38-.09-.05-.77.6-.96.77-.34.32-.69.63-1.08.91-.35.25-2.63 1.47-2.95 1.41-.35-.08.24-.51.3-.54.24-.11.56-.3.91-.52.11-.08.26-.19.34-.24.21-.13.6-.39.63-.4.83-.49 1.53-1.02 2.14-1.73m15.86-.04c-.03-.43-.02-.6.13-1.02.11-.32.96.28.99.31.31.25.59.48.84.78.2.24.38.49.56.75.11.16.62.93.66.92s.11-1.26.13-1.58c.03-.56.08-1 .26-1.38.19-.41.82-1.42 1.43-1.11.57.3.63 1.02.38 1.6-.05.12-.45-.3-.48-.34-.15-.16-.25-.25-.47-.31s-.47.2-.53.36c-.11.29-.14.86-.14 1.1 0 .38-.05.96-.12 1.53-.02.12-.1.49-.12.6-.02.1-.08.44-.12.68-.02.14-.23.95-.44.62l-.05-.21-.04-.2c-.02-.07-.11-.28-.14-.34l-.16-.26-.16-.28c-.2-.35-.42-.72-.62-.98-.11-.14-.24-.28-.36-.4-.06-.07-.11-.07-.23-.05q-.2.03-.3-.02c-.27-.12-.82-.45-.89-.77m11.12 1.53c.06-.12-.25-.4-.41-.55-.25-.23-.47-.43-.54-.73-.14-.66.56-1.98 1.03-2.11.58-.15.77.2.91.66.08.26.08.93.08 1.27 0 .52 0 .57.07.89 0 0 .28.26.31.29.16.14.23.32.26.54.01.1-.15.56-.24.56-.04 0-.4-.29-.48-.35-.18-.16-.3-.28-.51-.23-.04.01-.18.15-.2.18q-.14.17-.55.6c-.58.51-1.23 1.05-1.91 1.43-1.11.63-3.81 2.13-4.68 2.03-.14-.02 1.59-1 1.63-1.03.65-.37 1.41-.8 1.94-1.12.89-.55 3.16-2.01 3.29-2.33m-28.47 3.53c-.06-.22.53-1.13.69-1.24.18-.13.55.17.76.33.22.18.64.51.87.46.02 0 .26-.39.33-.52.11-.18.31-.49.47-.56.3-.13 1.55 1.03 1.49 1.49-.06.41-.47.85-.72 1.1-.12.12-.62-.38-.7-.46-.2-.2-.59-.58-.92-.47l-.22.38c-.13.21-.42.69-.46.7-.25.09-1.56-.95-1.57-1.2m-17.11-.06s.22-.4.36-.66q.11-.2.23-.35l.22-.18c.04-.09.68.34.8.42.26.18.84.55.94.51.01 0 .28-.36.41-.55.14-.19.28-.36.48-.48.08-.05.61.36.81.52.14.11.37.31.62.54q.14.16.16.17c.32.21-.68 1.27-.78 1.32-.14.07-.65-.33-.78-.43-.11-.09-.23-.18-.44-.38-.08-.08-.11-.11-.21-.17-.15-.08-.64.43-.78.57-.21.21-.51.53-.69.38-.1-.08-.21-.17-.48-.41l-.23-.16c-.2-.17-.67-.54-.65-.65m31.47.26c.03-.5.7-2.14.95-2.16 0 0-.07.35-.12.45-.08.16-.16.32-.22.5-.05.14-.1.29-.14.44-.02.07-.14.72-.1.68l.04.32c.03.17.05.24.16.48l.21.38c.09.18.44.18.57.1.07-.04.15-.28.19-.39.06-.19.16-.47.27-.45.21.04-.17 1.05-.21 1.18-.13.35-.3.67-.68.74-.74.14-1.1-1.57-.91-2.27m-40.7 1.73c-.55-.63.53-2.6.82-2.9.45-.48 1.39-.94 2.17-1.33.39-.19.79-.38 1.21-.54.51-.2 1.13-.46 1.7-.7l.16-.06.16-.06.28-.12c.32-.13.62-.25.93-.38q.18-.08.24-.1c.07-.02.39-.15.57-.22l.32-.14.12-.04q.12-.04.26-.1c1.65-.71 5.2-2.15 5.95-2.27.46-.08-.08 1.1-.34 1.18-.1.03-.41.17-.59.24-.3.13-.59.25-.89.36-.27.11-.56.22-.81.34-.22.11-.44.19-.69.28-1.02.36-2.21.79-3.13 1.18-.88.38-1.99.85-3.01 1.27-.96.4-3.26 1.45-3.39 1.55l-.15.05s-.32.21-.47.31c-.24.16-.55.36-.67.6-.24.48-.07.64.23.89.23.19.54.44.59.67.14.66-.46 1.06-1.01.64l-.13-.09c-.11-.1-.45-.4-.45-.51m54.42.72c-.09-.48-.16-1.16.08-1.65l.06-.16.06-.16.06-.16c.06-.14.14-.31.2-.44.07-.14.4-.85.5-.7.02.03-.18.58-.26.7-.27.44-.48 1-.3 1.73.09.34.28.81.67.6.12-.06.2-.2.26-.32s.18-.4.26-.28c.19.28-.44 1.32-.54 1.42-.52.51-.89-.16-1.06-.57m-64.37-1.32c-.01-.19.09-.92.26-.98s.86.38 1.14.56c.57.36 1.26 1.5 1.52 2.2.2.52.22-1.06.22-1.06 0-.4.02-.85.12-1.3.07-.32.38-.87.64-1.34.09-.16.5-.05.61.01.5.27.82 1.24.42 1.72-.06.07-.4-.27-.48-.37-.14-.2-.27-.36-.55-.4-.4-.06-.4.71-.4.98 0 .6-.05 1.28-.16 1.89-.09.47-.2 1.06-.3 1.27-.11.21-.14.18-.22-.02-.1-.24-.19-.45-.3-.68-.27-.57-.65-1.15-1.07-1.58-.09-.09-.18-.18-.34-.11-.21.11-.28.14-.44 0-.3-.28-.65-.6-.67-.76m23.73 4.32c-.02-.15-.46-.97-.78-1.57-.1-.19-.42-.19-.7-.17s-.78.45-.87.7c-.12.35.34 2.42.71 2.43.25 0 1.66-1.19 1.64-1.4m-11.1-.93c.02-.28.12-.89.38-.92.28-.04 1.25.88 1.45 1.11.04.04.05.06.33.42l.18.23c.08.11.17.25.24.36.12.2.3.49.34.49.05 0 .11-.78.11-.81l.04-.42v-.38c.02-.29.03-.49.08-.86.07-.54.34-1.16.75-1.39.22-.12.48.05.63.18.51.45.45 1.08.26 1.65-.04.12-.33-.27-.33-.27-.12-.15-.23-.26-.38-.38-.1-.08-.45-.26-.51-.01-.01.05-.03.47-.05.71l-.04.56-.04.24c-.06.53-.14 1.25-.28 1.81-.06.23-.26 1.04-.44.98l-.05-.13c-.03-.07-.12-.31-.14-.36-.09-.18-.32-.65-.32-.66-.13-.22-.38-.52-.58-.77-.15-.18-.46-.57-.59-.6-.58-.12-.92-.18-1.03-.76m41.72 3.49c.07-.21-.62-.69-.82-.78-.56-.23-1.42-.15-1.61.4-.26.72 2.09.53 2.43.38m-13.88.11c.1-.5-1.74-1.6-2.16-1.66-.14-.03-1.02 1.44-1.23 1.79-.2.34.1.91.32 1.04.4.24 1.08.05 1.43-.12.3-.15.59-.31.87-.48.16-.1.76-.47.77-.56m-36.68-2.37c.18.11-.08.89-.16 1.13-.19.56-.22 1.14-.16 1.73.03.27.31.63.53.94.14.19.43-.12.46-.19.06-.14.21-.49.25-.47.19.05-.17 1.07-.21 1.18-.08.2-.33.58-.61.5-.35-.1-.57-.43-.69-.74-.26-.67-.13-1.41.02-2.33.05-.32.37-1.69.57-1.73m32.6 3.7c.1-.73.22-1.6.38-2.01.12-.31.26-.66.41-.92.15-.25.31-.53.27-.69 0 0-.24-.23-.27-.26l-.13-.08-.18-.14c-.21-.21-.53-.53-.64-.65-.18-.19-.39-.42-.53-.6-.11-.14-.16-.19-.3-.3-.13-.11-.23-.19-.27-.36-.04-.16-.06-1.48.19-1.62.04-.02.27.15.37.25l.3.14.16.06.36.16c.36.17 1.23.62 1.25.66.09.16-.05.22-.24.24-.09.01-.51.07-.4.22.15.21 1.01.88 1.29.94.23.05 1.19-1.24 1.37-1.48.36-.51.84-1.14 1.3-1.56.44-.39-.43 1.81-.55 1.97-.36.44-1.02 1.28-1.14 1.56 0 .01.7.59.86.71.12.1.24.21.34.33.04.04.09.12.15.21.1.15.12.18.17.23.13.13.37.87.33 1.11-.1.6-.26 1.57-.42 1.75-.72.81-1.75 1.63-3.11 1.77-.36.04-.71-.13-.92-.31-.34-.29-.41-.93-.43-1.36m-4.78-17.35c.14-.43.35-1.06.56-1.22.12-.1.26.46.29.57.06.25.15.47.24.68.24.57.49 1.17.68 1.77l.08.24.06.16q.06.16.1.28c.09.26.21.62.24.8.11.57-.18.54-.42.2-.1-.14-.41-.57-.54-.54-.03 0-.01.73 0 .96 0 .2.1 1.42.16 2.15.05.64.11 1.33.2 1.92.08.55.12 1.31.16 1.93 0 .11.25 2.67.36 3.89.09.96.12 2.06.12 3.19 0 .76-.28 3.25-.99 3.27-.04 0 .02-.74.02-.77.03-.35.06-.71.04-.89-.08-.88-.09-1.74-.09-2.64 0-.21-.19-2.33-.28-3.33-.1-1-.17-1.78-.24-2.85-.05-.77-.15-1.76-.24-2.61-.11-.94-.2-1.82-.2-2.49 0 0-.13-2.3-.16-2.91-.02-.3-.06-.81-.16-1.1-.04-.11-.08-.24-.08-.34l.04-.14.04-.2zm-1.73 21.3c-.05-.24-.1-.46-.35-.48-.17-.02-.34.25-.44.42-.06.1-.26.43-.34.27-.13-.29.5-1.4.67-1.57.15-.15.35-.28.57-.15.82.47 0 2.19-.34 2.77-.03.05-.47.59-.7.87s-1.02.9-.39-.02c.49-.71 1.26-1.84 1.3-2.12m31.62-.36c.42-.1.66-.15.93-.02.35.17.8.4.87.38.32-.07.58-.21.81-.39.08-.06.17-.2.26-.33.1-.15.28-.41.38-.26l-.04.2q0 .1.17.25c.17.14.43.2.69.15.1-.02.2-.38.26-.6.06-.21.21-.64.38-.65.2-.02.03.66-.02.81-.11.35-.26.65-.42.94-.12.2-.5.47-.77.48-.1 0-.39-.09-.48-.14-.25-.12-.33-.17-.36-.17 0 0-.26.16-.28.17q-.17.14-.19.15c-.21.12-.42.21-.71.26-.26.05-.48-.09-.68-.22-.24-.16-.38-.25-.77-.22-.37.03-1.54.74-2.36 1.24-.41.25-.81.47-1.28.67-.18.08-1.47.5-1.55.33 0-.01 1.08-.63 1.26-.74.22-.13.45-.26.67-.4.19-.12.56-.36.56-.36.15-.08.85-.53 1.25-.8.44-.29.85-.52 1.39-.74m-15.37 3.59-.16-.08-.2-.08c-.14-.07-.27-.16-.38-.24-.18-.13-.39-.28-.51-.47-.32-.49-.63-.97-.82-1.54-.18-.52-.1-1.28-.04-1.89.02-.17.11-1.01.02-.98-.08.03-.98.58-1.51.9s-1.14.7-1.63.94c-1.26.63-2.99 1.48-4.03 1.69-1.61.32-5.29.96-5.8.9-.54-.07 2.53-1.1 2.77-1.18 1.22-.4 2.3-.85 3.39-1.34.39-.18 1.87-.91 3.03-1.49l.28-.16c.12-.07.33-.19.4-.22s.61-.32.89-.46c0 0 .48-.29.66-.4l.55-.32q.18-.13.24-.16c.68-.34 1.43-.9 2.01-1.37.08-.06.18-.15.19-.15l.23-.19q.13-.11.38-.34l.13-.07c.36-.28.66-.55.47-1.12-.29-.87-.74-1.68-1.19-2.45-.37-.62-.8-1.77-.95-2.49-.07-.34.16-1.12.29-1.54.07-.21.38.25.38.25.1.14.21.31.62.74l.18.16q.12.1.33.32l.2.2c.11.13.32.39.35.47.12.31.04.31-.22.22-.12-.04-.74-.18-.63.06.21.43.71 1.44.71 1.44.26.49.62 1.16.71 1.61.14.73-.04 1.71-.16 2.37-.09.49-.71 1.1-1.14 1.54-.22.22-.47.42-.73.6-.3.21-.48.36-.67.68-.53.84-.14 2.3.31 2.96.5.75 1.26 1.14 2.39 1.23 1.93.16 3.9-1.25 5.16-2.16.66-.48 1.26-.99 1.86-1.53.29-.26.62-.55.85-.84.14-.18.69-1.12.05-1.09-.12 0-.31.07-.46.12-.14.05-.51.09-.77.12-.61.07-1.06.08-1.61.08-1.42 0-1.89-1.54-1.45-2.79.33-.94.91-1.61 1.94-1.87.38-.1 1.08.23 1.36.43.33.23.61.52.86.83.14.17.27.36.4.55s.34.51.42.52c.2.03 1.62-.86 2.14-1.18.12-.08.33-.22.49-.33.14-.1.44-.3.46-.31.33-.15.55-.04.55.34 0 .52 0 1.2.06 1.26.39.43.69.76.97.92.37.22 1.1.26 1.49.18.46-.09.99-.42 1.52-.75.23-.14.58-.74.77-1.08.21-.37.65-1.13.85-1.18.35-.09.11.46.04.6-.13.26-.37.73-.35.86.15.79 2.01 1.36 2.81.96.1-.05-.09-.53-.12-.6s-.13-.25-.17-.31c-.11-.17-.16-.23-.17-.33-.04-.26.33-1.37.47-1.46.3-.21.78 1.82.78 2.21 0 .77-.37 1.43-.71 1.98-.79 1.27-3.19-.21-3.49-1.05-.06-.16-.34.26-.34.26-.1.15-.31.45-.33.47-.22.24-.5.51-.8.67-.81.45-2.03.59-2.82.14s-1.13-1.09-1.26-2.2c-.01-.08-.84.47-.9.51-.32.21-.64.44-.94.65-.42.31-.6.43-.64.71-.11.72-.25 1.62-.42 1.89-.27.41-.53.8-.86 1.16-.14.16-.3.31-.45.46-.06.06-.36.36-.36.36q-.16.14-.17.16c-.27.38-2.75 2.21-3.24 2.36l-.14.08-.26.16s-.56.25-.73.32c-.02 0-.63.18-1.05.3-.83.23-1.8.19-2.58-.1m-26.37-2.17c.24-.46-.37-.83-.75-.56-.11.08-.2.19-.3.31-.13.16-.28.34-.35.34-.06 0 .19-.65.2-.68.09-.21.26-.46.4-.68.3-.45.88-.62 1.21-.06.41.68-.4 2-.66 2.36-.4.55-1.05 1-1.9 1.47-.2.04-.03-.15.05-.25l.35-.39.33-.29c.51-.51 1.21-1.2 1.4-1.56m-15.78 3.01c.31-.38 5.86-2.3 6.09-2.24.14.04-.22.74-.3.77-.48.19-.95.38-1.45.52-.61.17-1.18.37-1.74.6l-.24.08-.12.04-.24.08c-.07.03-.39.15-.57.22l-.2.08-.16.06-.16.06c-.19.07-.37.14-.56.22l-.14.06-.22.08-.16.08c-.19.05-.11-.19-.06-.36.05-.14.11-.34.24-.36m5.67-10.2c.48.76 1.19 1.17 2.04 1.57.5.23 1.14.39 1.8.46.28.03.88.04 1.08.05.16 0 .94-.07.94-.07l.36-.02.48-.08c.25-.04.79-.15.85-.16.08-.02.89-.25 1.29-.36.55-.16 2.25-.83 2.52-1.16.06-.08-.15-.86-.2-.99-.11-.31-.26-.9-.12-1.52.01-.19.08-.56.12-.76.08-.41.22-.87.35-1.25.23-.69.9-1.17 1.81-1.14.73.02 1.51 1.82 1.6 2.55.06.54-.18 1.78-.38 2.23-.13.27-.41.53-.64.71-.19.15-.67.56-.74.69-.24.48 1.07 1.08 1.49 1.12.92.1 1.6-.05 2.38-.24.33-.08 1.36-.6 1.45-.88.17-.5-.57-5.97-.87-8.21-.22-1.61-.73-7.87-.73-7.87.13-.4.4-1.25.58-1.3.08-.02.16.19.18.26l.04.12.04.16c.02.06.08.25.1.28.2.42.56 1.2.63 1.36.2.49.88 2.18.72 2.42-.11.17-.54-.37-.58-.41-.12-.15-.31-.39-.48-.4-.06 0 .24 3.07.26 3.21.05.41.12.98.16 1.24l.04.24.04.28.04.36.04.28.04.24.04.4.04.28.04.32.04.36.04.28.04.32.04.36.04.24.04.32c.02.19.06.73.08 1.06l.04.42.04.28c.02.27.04 1.32.04 1.32v.68l-.04.44-.04.34c-.03.35-.08.9-.2 1.26-.16.49-.6.98-1.03 1.2-.29.15-.6.3-.93.44-.13.05-.29.11-.53.18l-.16.04-.32.06s-.78.06-.83.06h-.46c-.14 0-.46-.07-.65-.12-.53-.15-1.02-.48-1.35-.84-.14-.15-.27-.35-.39-.53s-.38-.56-.44-.56c-.04 0-.98.46-1.45.7-.53.26-1.11.48-1.7.68-1.31.45-2.63.73-4.22.82-1.06.06-3.85-.66-4.35-1.38l-.2-.2q-.09-.07-.2-.2c-.14-.15-.43-.49-.44-.51-.12-.18-.22-.37-.32-.58-.04-.08-.27-.57-.36-.44-.18.24.15 1.97.26 2.25.11.26.26.55.46.84l.17.23.18.18c.07.06.15.14.16.16s1.18.77 1.37.87c.47.25 1.41.78 1.45.82.07.06 0 1.84-.23 1.93-.05.02-.32-.2-.45-.3-.14-.11-.29-.23-.44-.32-.31-.19-.65-.33-1.03-.46-1.38-.45-3.53-.13-4.84.38-1.27.49-2.44 1.11-3.49 1.81-1 .66-2.36 1.55-3.33 1.89-.38.13-1.27.41-1.61.26-.51-.23-1.14-.5-1.26-.65-.32-.41-.64-.9-.82-1.46-.2-.64-.12-1.43 0-2.21.16-1.05 1.84-3.58 2.59-4.1.03-.02-.32-.82-.39-1-.15-.34-.23-.7-.26-1.16-.09-1.11.27-2.64.61-3.65.04-.11.11-.4.16-.6s.13-.45.2-.68c.07-.22.17-.47.26-.68.04-.09.1-.21.16-.28.11-.14.35-.12.24.04-.11.15-.19.49-.26.76s-.22.87-.24.92c-.1.3-.19.62-.28.92l-.04.16-.04.24-.04.2-.04.16v.22l-.04.22c-.11.41-.1 1.52.08 1.89.21.42.64 1.28 1.07 1.08.21-.1.36-.4.42-.64.05-.18.24-.85.33-.82.34.13-.31 2.02-.47 2.26-.14.21-.31.46-.52.54-.44.17-.58.22-.81.56l-.09.13q-.14.16-.15.19l-.09.13-.44.51c-.08.11-.18.25-.24.36-.3.53-.62 1.07-.95 1.59-.51.81-.44 1.92-.03 2.66.08.14.76.45.98.49.52.1 1.29.04 1.78-.2 1.31-.65 2.63-1.31 3.59-1.95 1.13-.75 2.48-1.53 3.87-1.95.14-.04.33-.1.44-.14.14-.05.32-.11.48-.14l.77-.12c.17-.04.58-.12.59-.13.09-.05-.05-.49-.09-.62-.07-.22-.12-.46-.16-.72-.13-.93-.17-1.8-.2-2.67-.08-2.46-.16-5.21-.28-6.61-.03-.33-.06-.67-.08-1-.05-.83-.11-1.68-.16-2.45-.02-.21-.08-1.2-.08-1.2 0-.41-.04-.95-.08-1.41-.11-1.13-.29-3.15.44-3.61.09-.06.23.83.24.92.09.67.17 1.31.24 1.98.11 1.08.15 1.5.21 2.64.05 1.12.12 2.53.24 3.73l.04.48.04.68.04.24v.18l.04.26.04.48q.04.4.08.64c.04.22.08.45.08.48.04.52.21 1.12.38 1.57.07.18.14.36.22.52.1.21.34.68.34.68" fill="#1d1d1b" fill-rule="evenodd"/></svg>