<svg viewBox="0 0 81.29 25.93" xmlns="http://www.w3.org/2000/svg"><path d="m50.64 1.11c-.3-.14-.96.15-.7.53.73 1.08 1.2.41.7-.53m27.12 1.48c.02-.78-.42-1.74-1.16-.87-.25.29.19.57.37.69.11.07.78.5.79.18m-11.72-.98c.2-.2.72.06.88.19.45.36.86.69 1.22 1.14.16.2.36.44.47.63.13.22.42.71.57.72l.06-.74v-.78c.03-.51.07-.99.2-1.4.13-.4.84-1.57 1.41-1.2.3.2.48.47.6.84.05.15-.09.81-.22.78-.16-.04-.34-.21-.5-.37-.32-.32-.39-.36-.85-.11-.18.1-.2 1.09-.2 1.38 0 .61-.07 1.68-.2 2.39-.04.21-.2 1.09-.42.98-.05-.02-.09-.2-.11-.27-.03-.13-.07-.25-.1-.34-.07-.16-.21-.38-.32-.54-.28-.41-.99-1.48-1.35-1.51-.95-.08-1.69-.73-1.15-1.77m-11.52 3.59s.34-.22.48-.31c.17-.11.35-.22.53-.32.19-.11.77-.46 1.13-.68.38-.23.75-.43 1.15-.64 0 0 .45-.26.69-.4l.14-.08.14-.08.28-.16 1.09-.6c.15-.08.5-.28.5-.28.25-.11.52-.26.75-.4.17-.11.35-.21.52-.32l.28-.16.28-.16c.13-.08.49-.27.47.01-.02.32-.13.69-.37.79 0 0-.48.29-.67.4l-.26.16-.12.08-.14.08-.12.08-.18.08-.14.08s-.37.21-.57.32c-.35.2-1.06.6-1.15.64-.1.05-.38.22-.54.32-.19.12-.61.36-.65.38-.13.06-.77.42-1.13.62l-.24.16q-.05.04-.22.12c-.09.04-.18.11-.26.16t-.22.12c-.36.19-.76.42-1.1.65-.6.41-.6-.07-.34-.66m-53.05-2.07c-.12-.11.06-1.02.19-1.13.51-.43 1.85.91 2.21 1.32.11.13.21.28.31.43.12.18.65.99.7.98.06-.02.05-.31.05-.32l-.04-.5c-.01-.16-.05-.56-.05-.61.03-.32.08-.94.17-1.29.08-.3.35-.73.61-1.14.11-.17.56.01.63.11.31.38.8.98.38 1.58-.11.16-.42-.23-.49-.31-.13-.16-.29-.29-.47-.41-.2-.13-.39.27-.42.36-.01.03 0 .55 0 .68.03.54.04 1.02.02 1.32-.04.61-.08 1.21-.18 1.65-.04.16-.19.83-.29.71-.07-.07-.11-.21-.15-.35-.01-.04-.19-.44-.28-.64-.2-.43-.43-.81-.71-1.15-.31-.38-.53-.66-.89-.56-.21.06-1.15-.56-1.28-.76m48.63.1c.03-.12-.21-.41-.33-.55-.14-.16-.28-.33-.33-.57-.12-.47.23-1.22.39-1.52.14-.25.44-.51.76-.59.86-.2.63 1.67.54 2.23-.04.24.21.49.47.76.19.19.42.43.46.57.05.2-.06.49-.13.69-.02.05-.55-.34-.61-.38-.15-.11-.51-.36-.58-.37-.16-.04-.42.27-.57.45-.17.2-.34.38-.54.54l-.51.5c-.17.14-.36.28-.54.41-.47.33-2.34 1.35-2.89 1.41s2.2-1.76 2.28-1.81c.39-.26.79-.53 1.33-.98 0 0 .18-.16.28-.24.09-.08.18-.18.28-.3.05-.06.22-.25.23-.25m-36.43 4.52c-.14-.41-.14-.88-.04-1.44.02-.11.2-1.1.32-.98v.84c0 .19 0 .61.1.74.43.55 1.09.04 1.35-.32 0 0-.02-.45-.04-.88s.02-.72.15-1.04c.12-.31.3 1.04.3 1.04.05.38.14.52.31.76.13.19.45.26.76.23.35-.04.14-.56.04-.82s-.43-1.75.01-1.75c0 0 .71 1.76.73 1.91.04.26-.15 1.24-.36 1.38l-.27.21-.2.04-.2.06c-.29.1-.66-.14-.82-.31-.11-.12-.46.23-.62.4-.52.54-1.09.34-1.53-.06m-6.52.14c-.39-.73.17-2.04.68-2.32 1.77-.97 4.62-2.51 5.63-2.98.52-.24 1.12-.52 1.56-.71.49-.22 1.1-.48 1.53-.7l.32-.14c.17-.07.32-.14.46-.2l.16-.08.18-.08c.17-.07.57-.24.57-.24.79-.39.62.46.27.76-.02.02-1.44.63-1.57.67-.35.12-.99.42-1.45.64l-.14.06c-.09.04-.29.15-.43.22l-.32.14c-.16.07-.3.13-.44.2l-.32.16-.14.08-.18.08-.2.08c-.16.08-.46.24-.69.36q-.16.08-.24.12c-.13.06-.29.13-.4.2q-.08.05-.24.12c-.14.06-.33.14-.44.2-.22.11-.53.26-.67.32l-.24.12-.14.08-.16.08-.14.08c-.73.36-2.1 1.08-2.44 1.59-.13.19.4.63.55.75.28.23.4.5.23.92-.03.06-.5-.12-.58-.15-.14-.05-.35-.24-.57-.44m69-5.24c-.09-.75.47-2.74 1.45-2.21.46.25.52 1.57.56 2.43.01.19.16.36.44.68.19.21.33.68.1.98-.07.09-.32-.1-.39-.16-.08-.07-.41-.31-.45-.31-.19-.03-.65.42-.96.73 0 0-.59.52-.83.73-.13.13-.28.25-.42.36l-.2.16-.2.16c-.24.44-4.3 2.44-4.87 2.31-.03 0 .72-.58.82-.63.19-.11.36-.21.52-.28.23-.11.53-.3.81-.48l.4-.24s0 0 .22-.12l.23-.17c.15-.11.31-.21.47-.31.21-.13.58-.36.66-.42.6-.44 1.8-1.31 1.91-1.4.2-.16.86-.69.56-.91-.35-.26-.68-.5-.85-.88m-47.3 3.46c.24-.58-.57-1.92-.95-2.55-.09-.15-.21-.28-.34-.41-.06-.06-.13-.13-.19-.15l-.24.08-.14.02c-.45-.03-.95-.41-1.13-.74-.12-.24.04-1.04.17-1.28.26-.47 1.82 1.04 1.9 1.14.24.3.46.6.67.93.12.19.23.43.3.6.04.09.19.45.32.41.07-.02.12-1.25.13-1.52s.08-.7.16-.98c.15-.53.29-1.05.73-1.28.63-.35 1.14 1.1.8 1.66-.07.11-.41-.23-.44-.27-.14-.14-.42-.39-.66-.31-.09.03-.25 1.5-.3 2.05-.06.56-.34 2.54-.45 2.69l-.06.16q-.04.08-.16.32c-.08.15-.15.28-.24.42-.06.11-.22.28-.36.43l-.28.33c-.2.27-1.72 1.3-1.97 1.22-.17-.05.65-.8.65-.8.13-.12.37-.34.4-.36.12-.1.27-.23.38-.34.47-.47.88-.93 1.28-1.48m19.96 2.15c-.06-.29.54-1.36.81-1.34.08 0 .5.3.73.46.17.12.67.47.8.31.08-.1.21-.36.29-.51.11-.22.22-.44.42-.56.2-.13.29.06.34.2q.04.09.18.07s.15.08.22.13c.26.19.62.44.75.72.13.29-.33.98-.61 1.4-.11.17-.75-.42-.85-.51-.18-.17-.56-.51-.75-.44 0 0-.28.48-.33.57-.1.2-.31.62-.4.64-.37.09-1.38-.89-1.59-1.15m14.33.2c.09-.79.41-2.3.84-2.68.26-.23-.14.73-.15.76-.06.15-.12.33-.16.48l-.08.36-.05.43.05.37.04.2c.01.05.07.16.12.28.09.2.21.42.42.5.24.09.39.04.48-.18.11-.25.32-.73.36-.72.12 0-.14.99-.18 1.12-.12.35-.29.78-.67.82-.75.09-.99-1.2-1.03-1.75m13.8 1.33c-.22-.54.02-1.41.2-1.89.08-.23.5-1.31.68-1.22.1.05-.24.76-.3.86-.21.39-.26.74-.26 1.12 0 .44.18.82.4 1.06.14.15.4-.01.48-.11.06-.06.11-.15.15-.23.06-.13.16-.35.22-.33.14.03-.06.72-.12.86-.1.26-.23.47-.42.65-.53.49-.97-.29-1.04-.77m-62.53.72c-.12-.28.43-1.33.64-1.39.16-.04.56.2.73.3.27.17.69.42.87.46.16.04.42-.45.51-.6.1-.19.25-.45.48-.44.16 0 1.14.74 1.26.88.31.35-.07 1.33-.46 1.53-.14.08-.62-.26-.85-.42-.29-.2-.68-.48-.88-.46-.03 0-.38.47-.42.54-.12.25-.28.56-.52.5-.17-.04-1.33-.79-1.37-.9m10.63 2.13c.69-.57 3.86-2.06 5.73-2.93.24-.11.49-.24.73-.36.2-.11.45-.24.62-.3.51-.18 1.11-.43 1.55-.7.4-.24.89-.47 1.31-.66.79-.36.05.97-.14 1.1-.37.26-1.9.94-2.87 1.37-.22.1-.47.21-.67.32-.22.13-.46.25-.7.36l-.26.14-.24.12-.14.06-.14.08-.14.08-.16.08-.18.08-.18.08c-.96.45-1.92.92-2.85 1.43-.23.12-.44.22-.69.34-.23.11-.52.26-.73.4-.4.28-.25-.23-.18-.44.06-.17.21-.64.32-.64m-19.29.42c.08-.33.4-1.12.66-1.27.14-.07.75.28.97.4.29.16.66.38.74.33 0 0 .12-.21.13-.21l.06-.14.08-.14c.12-.21.27-.47.49-.5.17-.03 1.16.78 1.35.96.44.42-.29 1.14-.59 1.41-.08.07-.97-.5-1.16-.62-.27-.17-.43-.23-.61.1-.14.25-.38.71-.42.74-.23.16-1.7-.9-1.69-1.06m12.35 1.92c.29-.44-1.12-.88-1.44-.88-.29 0-.61.29-.73.48-.12.2 0 .36.2.46.37.17 1.5.11 1.96-.07m-17.73-.23c-.13-.31-.42-1.64-.26-1.71v-.21s.03-.4.03-.4c.02-.21.08-.53.12-.8.04-.24.07-.42.12-.64l.04-.16.08-.32c.07-.36.32-1.59.6-1.54.01 0-.25 1.18-.27 1.3-.1.44-.28 1.35-.28 1.4 0 .85.13 1.43.3 2.05.08.29.41.68.67.78.14.06.29-.21.32-.3l.04-.16.04-.2c.02-.08.09-.36.18-.34.36.09-.29 1.98-.41 2.1-.48.48-1.24-.38-1.32-.84m66.79 1.07c-.36-.5-1.14-1.07-1.98-.7-.24.1-.45.29-.5.56-.06.32 1.02.41 1.21.42.09 0 1.23-.03 1.27-.28m-13.93.69c.12-.42-.49-.8-.82-.99-.18-.11-.4-.24-.59-.34l-.14-.06-.22-.14-.28-.12c-.33-.2-1.26 1.66-1.31 1.95-.05.27.08.6.25.82.13.17.7.25.94.13.85-.42 1.46-.77 2.17-1.23m-24.86-1.62c.29-.12.1.43.03.63-.13.38-.21.75-.24 1.22-.03.44.22 1.03.48 1.24.19.15.45.09.55-.11.07-.13.23-.46.3-.43.48.21-.5 1.63-.76 1.68-.78.14-.95-1.66-.89-2.31.02-.16.07-.35.12-.52l.04-.16.05-.27.24-.18c-.1-.15-.11-.35.09-.78m21.33 4.31q-.13-.11-.18-.19c-.1-.16-.17-.35-.22-.56-.15-.61-.02-1.44.12-2.09.09-.39.23-.75.38-1.08.17-.36.42-.88.4-1 0 0-.65-.53-.8-.65-.03-.02-.55-.53-.79-.77-.63-.63-1.24-1.27-.73-2.49.05-.12.29.11.3.13.07.06.1.08.23.15q.08.04.2.08t.28.1c.42.16 1.4.55 1.51.7.12.17-.08.22-.18.25-.22.05-.46.12-.46.22 0 .16 1.07.83 1.27.92.25.12 1.27-1.33 1.45-1.59.21-.29.42-.58.65-.85.2-.24.58-.69.69-.66.09.02-.16.76-.19.86-.14.4-.33.95-.42 1.08 0 0 0 0-.24.34q-.07.11-.18.23c-.06.08-.2.28-.31.43q-.05.09-.17.25c-.24.33-.15.56.17.75.26.15.5.3.68.45.44.38.78.95.88 1.64.05.35-.24 1.75-.42 1.91-.63.55-2.86 2.48-3.94 1.45m24.72 1.52c.4-.06.8-.11.97-.02.35.19.59.32.89.3.37-.02.64-.27.82-.5.1-.13.53-.65.56-.65l-.02.32c0 .16.02.16.18.28.19.13.38.16.65.12.15-.02.24-.4.3-.64.04-.17.19-.71.42-.64.37.1-.49 2.04-1.05 2.23-.21.07-.4 0-.61-.08-.25-.1-.42-.16-.52-.1-.38.22-.93.52-1.01.54-.32.07-.63-.13-.91-.3-.24-.15-.67-.12-.95.02-.41.21-.76.4-1.13.62-.12.07-.31.21-.46.32-.2.15-.38.27-.6.4-.68.39-1.85 1.05-2.54.98-.18-.02 1.05-.69 1.1-.72.23-.13.43-.24.64-.38.11-.07.23-.16.34-.24s.26-.19.34-.24c.87-.56 1.78-1.14 2.58-1.63m-47.38 2.97c-.78-.26-1.45-.6-2.01-1.07-.44-.37-.8-.79-1.05-1.34-.83-1.76-1.29-6.03-1.76-10.5-.13-1.21-.46-3.56-.73-5.38-.09-.65-.22-1.33-.36-2.13-.05-.29-.12-.57-.2-.88s-.21-.86-.12-1.04l.12-.36.06-.24c.05-.15.19-.46.36-.46.23 0 .69 2.5.75 2.83.25 1.36.54 2.98.67 4.18.38 3.7.82 7.85 1.19 10.44.13.92.53 1.79.91 2.48.19.34.95.89 1.51 1.29s1.57.61 2.44.78c.58.12 2.68.01 3.43-.2 2.9-.82 6.16-1.76 8.17-3.1.18-.12-.69-.23-.7-.23-.34-.05-.71-.1-1.05-.16-.37-.07-.77-.11-1.17-.16-.13-.02-.75-.11-1.09-.16-.91-.14-1.76-.27-2.54-.32-.24-.01-.51 0-1.01.04l-.32.08c-.18.06-.45.15-.54.07-.38-.35.47-1.55.74-1.7.32-.17 1.8-.29 2.52-.34.48-.04 1.64-.13 2.04-.3.26-.11-.31-3.2-.42-3.86-.11-.61-.27-1.45-.36-1.89-.14-.63-.28-1.55-.4-2.33-.04-.24-.11-.79-.16-1.17-.07-.48-.13-.92-.2-1.4-.11-.68-.21-1.31-.32-1.93-.04-.19-.09-.5-.16-.72l-.12-.24s-.16-.44-.16-.44c-.05-.35.35-1.58.54-1.63.14-.03 1.21 2.1 1.33 2.35.18.35 1 2.01.85 2.25-.08.13-.52-.3-.53-.31-.16-.16-.4-.4-.49-.38-.1.02.09 1.18.12 1.38.06.36.24 1.53.24 1.53.14.69.41 2.06.44 2.29.07.43.14.92.2 1.25.02.14.08.34.12.52l.04.16.04.28v.14l.04.14q.04.14.08.4l.04.24.04.2.04.2c.12.71.2 1.24.24 1.99.02.28-.07.7-.16 1.1-.06.26-.19.84-.12.88.27.16 1.72.32 2.4.38.57.05 1.07.09 1.61.12h.3l.26.04s.85-.1.75-.2l-.05-.38q0-.06-.04-.28l-.04-.32-.04-.32-.04-.32-.04-.32c-.06-.43-.24-1.62-.36-2.41-.03-.21-.24-1.7-.36-2.65-.09-.68-.23-1.47-.36-2.17-.07-.4-.43-3.09-.65-4.66-.05-.36-.15-1.05-.16-1.08-.13-.4-.22-.71-.12-.96.08-.2.44-1.1.55-1.09.07 0 1.07 2.06 1.17 2.3l.06.16.04.12.12.28.06.16.08.14.08.22c.04.1.11.29.16.38.14.28.48 1.15.32 1.35-.08.1-.49-.34-.52-.38-.12-.15-.47-.6-.52-.6-.15 0 .1 1.67.11 1.78.07.49.14.9.22 1.36.05.27.17 1.1.24 1.61 0 0 .1.58.12.72l.08.48.04.2.04.24c.17.99.39 2.32.45 2.81.03.26.12 1.01.12 1.01l.04.24q.02.12.08.6l.04.28q.06.61.08.72.02.11.08.6s.05.43.09.46c.12.1.97.13 1.2.13h1.12q.11 0 .25 0h.5q.26 0 .3 0h.49c.12 0-.53 1.29-.55 1.34-.16.32-.24.47-.57.42-.71-.11-1.48-.22-2.18-.12-.39.05-.43.3-.54 1.02-.06.38-.12.71-.2 1.04-.09.37-.35 1.23-.62 1.3-.1.03-.07-.45-.07-.48.02-.33.04-.75.04-1.06 0-.03-.02-1.69-.17-1.58h-.17s-.2.03-.2.03c-.04 0-.3.09-.44.14l-.2.06-.16.04-.16.06-.16.06-.16.06c-.21.08-.7.28-.72.29-.06.04-.44.21-.67.31-.44.19-1.15.5-1.43.64-.5.25-1.09.54-1.53.74-2.06.93-4.28 1.83-6.9 2.05-.89.07-1.29.11-1.96.04-.22-.02-.74-.08-.95-.12l-.4-.08c-.13-.03-.32-.08-.32-.08m-5.41-3.59c.11-.03-.35 1.07-.36 1.08-.1.23-.49 1.16-.39 1.36l.04.2s.07.16.12.28c.1.21.17.35.35.48.17.13.37.12.51-.05.02-.02.13-.23.15-.27.04-.1.1-.26.14-.26.19.02-.07.93-.12 1.06-.08.21-.28.63-.57.62-.97-.03-1.13-1.53-.95-2.43.03-.16.27-.8.4-1.16.07-.19.53-1.02.66-.92m-19.21 3.97q-.14-.13-.18-.18s-.15-.18-.17-.2q-.12-.12-.19-.23c-.2-.3-.35-.64-.51-.98-.27-.62-.51-1.31-.6-2.09-.08-.66-.12-1.22-.08-1.66.01-.19.14-1.78.34-1.66.11.07.05.88.03 1.12 0 .09-.02.23 0 .35.02.43.13.94.25 1.34.22.76.53 1.82.92 2.22.42.42 1.28 1.3 2.07.91.61-.3.95-1.32 1.25-2.21.24-.71.74-2.12 1.04-2.44.09-.09.16-.2.23-.31.1-.16.23-.3.36-.43.26-.27.53-.57.83-.77.48-.31 1.66-1.1 2.21-.75.18.11.55.82.85 1.36.25.46.55.97.95 1.29.45.36.93.68 1.59.82 1.41.31 3.09.07 4.4-.46.4-.16 1.67-.79 1.78-1.1.05-.16-.11-.46-.27-.76-.06-.12-.59-.37-.78-.41-.17-.04-.66-.04-1.01-.04l-.89.08c-.79 0-1.47-.2-1.82-.86-.24-.46-.16-1.2-.06-1.69.04-.2.1-.39.18-.56q.03-.07.16-.28l.18-.23.07-.13c.1-.21.87-.67 1.12-.77.83-.33 1.73.48 2.37 1.05.89.79 1.48 2.87 1.48 4.21 0 .52-.23 1.36-.5 1.71-.43.54-.93.94-1.62 1.22-.34.14-.7.3-1.01.38l-.4.12q-.19.05-.32.08c-.1.02-.27.05-.32.08-.25.12-2.54.29-2.62.12l-.28-.04c-.09-.02-.19-.05-.28-.08-.12-.04-.36-.12-.36-.12-.32-.11-.64-.26-.87-.46-.43-.38-.8-.72-1.11-1.23-.17-.27-.31-.56-.44-.86-.14-.31-.32-.71-.48-.78-.42-.18-1.21.32-1.63.58 0 0-.44.36-.63.52-.15.12-.2.18-.32.32-.06.08-.22.26-.25.28-.41.31-.82 1.48-1.06 2.18-.16.47-.32.94-.5 1.41-.08.21-.25.61-.29.68-.1.14-.24.36-.34.58-.04.08-.61.44-.78.45-.35.02-1.01-.34-1.64-.68m55.46-.13s-.33-.46-.42-.58c-.19-.27-.33-.63-.43-.99-.12-.44-.15-.87-.12-1.29 0-.08.1-1.59.02-1.51-.39.38-1.86 1.23-2.5 1.59-.92.5-2.46 1.33-2.89 1.52-.93.41-2.01.77-3.21.98-.71.13-1.8.33-2.18.4q-.14.03-.32.08c-.17.05-.3.08-.48.12-.36.08-1.07.24-1.26.16-.23-.09.86-.56.9-.58.12-.05.32-.12.49-.18l.28-.12.12-.04.16-.06.2-.08c.21-.08.27-.11.49-.18l.12-.04q.12-.04.28-.1c.21-.08.64-.24.64-.24.18-.07.6-.23.61-.24.37-.22 1.45-.72 2.14-1.04.15-.07.31-.15.44-.24l.28-.16.24-.16.24-.1.14-.06.14-.08s.4-.21.6-.32c.99-.53 2.58-1.55 3.85-2.37.58-.37 1.18-.77 1.71-1.21.28-.24.56-.52.82-.79.05-.05.69-.71.52-.77l-.06-.28c-.04-.1-.11-.27-.14-.36q-.07-.15-.16-.32l-.08-.14-.16-.24c-.13-.23-.25-.44-.36-.66q-.11-.2-.16-.3l-.14-.26-.07-.15c-.21-.39-1.1-2.41-1.06-2.78.02-.22.22-1.29.38-1.27.05 0 2 2.09 2.04 2.23.05.19-.15.13-.27.1-.15-.04-.57-.16-.62 0-.04.13.62 1.32.78 1.57.3.48.63 1.03.75 1.65.21 1.13-.1 2.56-.74 3.32-.04.05-.58.58-.94.95-.04.04-.29.22-.44.33-.2.15-.31.28-.42.52-.13.28-.33 1.38-.16 1.61l.04.2.04.24s.09.26.1.28c.06.15.26.47.41.71.26.41.78.72 1.28.89.16.06.33.11.52.14.23.04.35.05.51.04.25-.02.66-.04.71-.04.55.05 1.93-.56 2.36-.82.67-.41 1.36-.83 1.89-1.3.51-.45 1.29-1.12 1.71-1.4.28-.18 1.43-1.47 1.48-1.8l-.06-.22-.12-.26c-.03-.09-.48.07-.57.1-.22.08-.52.12-.85.16-.61.08-1 .12-1.65.12-1.63 0-1.68-1.69-1.39-2.99.06-.25.25-.52.4-.7.08-.1.17-.21.32-.38l.24-.2c.13-.2.86-.48 1.1-.39.57.23 1.32.55 1.38.59.31.22.55.49.78.79.11.14.21.28.31.43.1.14.26.39.33.4.38.08 1.99-1.07 2.33-1.35.22-.18.83-.66 1.04-.65.35 0 .24.76.2 1.04-.03.2.04.44.14.65.14.29.55.59.93.86.33.24 1.14.25 1.49.18.48-.09.97-.39 1.48-.71.26-.16.56-.68.77-1.06.3-.51.67-1.16.89-1.36.27-.25.09.59.04.68-.13.24-.3.56-.3.74 0 .85 2.85 1.52 2.87.82 0-.24-.15-.51-.26-.68-.15-.22-.28-.42-.26-.58.03-.27.24-1.12.37-1.27.19-.22.54.61.6.75.05.11.11.38.16.56.04.17.06.25.08.4 0 0 .06.5.06.48l-.02.28-.04.2q-.06.33-.08.4s-.23.56-.34.8c-.14.31-.46.51-.81.62-.71.24-1.41-.07-1.96-.34-.22-.11-.36-.25-.51-.43-.09-.11-.5-.61-.55-.56-.02.02-.17.22-.23.32l-.14.26c-.11.16-.41.57-.57.62l-.23.17-.13.08c-.09.06-.27.16-.29.17 0 0-.24.08-.36.12 0 0 0 0-.28.08l-.24.08c-.51.17-1.29-.02-1.65-.22-.32-.18-.61-.4-.81-.7-.11-.17-.25-.39-.3-.58-.02-.09-.12-.55-.12-.6q-.03-.22-.05-.25c-.06-.13-.87.51-.9.53-.11.08-.23.16-.34.24-.15.1-.32.23-.47.35-.33.26-.68.54-.7.69-.1.85-.2 1.76-.43 2.09-1.1 1.65-2.56 3.08-4.21 4.18-.9.6-1.77 1.05-2.97 1.38-.67.19-1.72.21-2.42-.04-.25-.09-.52-.2-.73-.34-.11-.08-.31-.24-.62-.51m-17.12.35c-.08-.79-.09-1.34.16-2.09.1-.32.58-1.47.88-1.42.07.01-.29.84-.34.94-.15.35-.38.87-.42 1.14-.05.33.2.73.35.98.16.25.51.09.6-.11.04-.1.22-.52.26-.49.31.21-.36 1.55-.47 1.67-.36.4-.94-.33-1.01-.61m-33.97.79c.59-.33 6.21-2.57 6.42-2.51.14.04-.09.78-.14.86s-.48.28-.62.32c-.41.1-.75.21-1.09.36-.65.28-1.27.53-1.94.78l-1.53.6-.2.08q-.2.08-.36.14l-.16.06-.2.08-.12.06c-.46.14-.2-.66-.05-.84" fill="#1d1d1b" fill-rule="evenodd"/></svg>