<svg viewBox="0 0 85.35 29.24" xmlns="http://www.w3.org/2000/svg"><path d="m62.15 28.71a3.57 3.57 0 0 1 -1.22-1.28 3.71 3.71 0 0 1 -.41-1.43 5 5 0 0 1 -.05-1l.08-.65a2 2 0 0 0 0-.55c0-.14-1.27.73-1.4.83a10.58 10.58 0 0 1 -1.41.91.92.92 0 0 0 -.26.16l-.36.2a3.13 3.13 0 0 0 -.36.19l-.37.24c-.53.28-1.51.79-1.73.87a20.94 20.94 0 0 1 -3.48 1c-.64.11-1.56.28-1.95.39s-.57.16-.76.2-1.23 0-.78-.17l.12-.08a2.76 2.76 0 0 1 .34-.14l.32-.14a3 3 0 0 1 .36-.14l.25-.1.48-.2.14-.06.16-.06.16-.06.16-.06.24-.08.16-.07c.6-.24 1.37-.54 1.71-.72a16.52 16.52 0 0 1 1.59-.79 42.91 42.91 0 0 0 5.8-3.46c.72-.48 3.4-2.44 3.37-3.13a7.12 7.12 0 0 0 -.61-1.33c-.27-.47-.54-.95-.8-1.43a10.36 10.36 0 0 1 -1.13-2.73 8.88 8.88 0 0 1 .28-1.4c.08-.13.33.23.34.25s.18.2.26.29a5.37 5.37 0 0 0 .56.51c.18.15 1.12 1 1.06 1.22s-.14.11-.3.06-.62-.12-.57 0a9 9 0 0 0 .74 1.53 6.11 6.11 0 0 1 .81 1.64 4.69 4.69 0 0 1 -.5 3.32 4.75 4.75 0 0 1 -.89 1 4.25 4.25 0 0 0 -1 1 4.45 4.45 0 0 0 -.22 1.6 2.64 2.64 0 0 0 .58 1.45 3.77 3.77 0 0 0 1.16.95 5.31 5.31 0 0 0 3.89-.38 6.34 6.34 0 0 1 1-.56c.1-.05.55-.38.8-.57.52-.39 1.23-.92 1.56-1.22s.92-.89 1.37-1.33 1-1 .72-1.73c0-.1-.5 0-.57.08a2.86 2.86 0 0 1 -.64.15 13.82 13.82 0 0 1 -1.91.17c-1.52 0-2-1.67-1.46-3a2.56 2.56 0 0 1 1.93-1.77 2.44 2.44 0 0 1 1.4.46 5.81 5.81 0 0 1 1.09 1.18l.09.13c.15.2.33.45.47.46a9 9 0 0 0 1.82-1.09c.39-.32 1.28-1.07 1.63-1 .14 0 .09.72.07.95a1.86 1.86 0 0 0 .19.78 1.77 1.77 0 0 0 .46.49 2.35 2.35 0 0 0 .33.23l.28.14a2.84 2.84 0 0 0 3.06-.8 4.61 4.61 0 0 0 .5-.73l.06-.14.2-.41c.22-.35.66-1.08.88-1.05s-.17.81-.17.81a1.33 1.33 0 0 0 -.2.77c0 .33.77.66.94.73s1.88.48 1.91 0a1.1 1.1 0 0 0 -.22-.71 1.16 1.16 0 0 1 -.3-.72 4.85 4.85 0 0 1 .36-1.28c.15-.34.62.82.63.85a5.17 5.17 0 0 1 .33 1.5 3.53 3.53 0 0 1 -.46 1.61 1.39 1.39 0 0 1 -.84.67 2.77 2.77 0 0 1 -1.31 0 2.32 2.32 0 0 1 -1-.5 2.87 2.87 0 0 1 -.43-.41c-.12-.16-.28-.38-.41-.37l-.23.39c-.08.13-.15.26-.24.38a2.53 2.53 0 0 1 -.58.55 6.45 6.45 0 0 1 -1.37.62 2.94 2.94 0 0 1 -1.61-.14 2.91 2.91 0 0 1 -1.08-.91 1.71 1.71 0 0 1 -.24-.51l-.07-.32c0-.05-.08-.48-.09-.49a13.78 13.78 0 0 0 -2.29 1.78 3.47 3.47 0 0 0 -.12.61v.14a1.8 1.8 0 0 1 0 .44 3.16 3.16 0 0 1 -.22.95 8.25 8.25 0 0 1 -1.78 2.31c-.1.07-.49.44-.71.65s-.5.47-.78.7a19.21 19.21 0 0 1 -1.74 1.2 4 4 0 0 0 -.54.32l-.51.28a11.31 11.31 0 0 1 -1.28.42 3.9 3.9 0 0 1 -3.24-.34m-55.15-.28.62-.27.86-.36c.57-.25 1.15-.48 1.75-.72s1.07-.43 1.59-.65l.7-.3c.19-.09.74-.35.89-.28s-.13.86-.25.93a32.74 32.74 0 0 1 -3.33 1.31l-1.71.68c-.19.07-.43.15-.58.22a2.92 2.92 0 0 1 -.49.19c-.29.09-.32 0-.26-.23s.1-.49.21-.52m-3.82-4.57a9.41 9.41 0 0 0 5 .24c1.29-.37 2.87-.87 4.21-1.3.72-.22 3.66-1.68 3.88-2.18.08-.18-.28-.69-.42-.73a5.46 5.46 0 0 0 -1.21-.24 9.34 9.34 0 0 1 -2 0c-.54-.27-.87-.43-1.06-1a3.48 3.48 0 0 1 .38-2.34 2.19 2.19 0 0 1 1.91-1.09 2.83 2.83 0 0 1 1.22.62 3.78 3.78 0 0 1 1.25 1.66l.08.17a2 2 0 0 1 .12.26l.06.16.06.16.06.16a6.21 6.21 0 0 1 .28 1.3 5.36 5.36 0 0 1 -.52 2.66 8.33 8.33 0 0 0 -.67 2.17 2.77 2.77 0 0 0 .14 1.61 1.8 1.8 0 0 0 .33.45l.21.16.24.15c.15.25 1.42 0 1.69-.09a3.61 3.61 0 0 0 .94-.54 12.46 12.46 0 0 0 1.34-1.25 15.81 15.81 0 0 1 2.69-2.67 40.2 40.2 0 0 1 4.61-2.58c.12-.06-.41-.47-.42-.49l-.23-.15-.35-.24a7 7 0 0 1 -.94-1.14 4.52 4.52 0 0 1 -.58-1.9 4.06 4.06 0 0 1 .26-1.74 4.14 4.14 0 0 1 .83-1.09l.2-.23a.66.66 0 0 0 .19-.17c.41-.61 2.45-1.1 3.27-1s2.88.53 3.11 1.11c.15.38-.43.16-.6.1a4 4 0 0 0 -1.43-.18 23.05 23.05 0 0 0 -2.55.56 5.77 5.77 0 0 0 -2.28 1.22.64.64 0 0 0 -.2.7 5.11 5.11 0 0 0 3.8 3.34c.79.18 2.59-.67 3.4-1.05l.76-.36.26-.15a3.91 3.91 0 0 1 .41-.2c.17-.08.5-.26.74-.4s.68-.38.85-.31a5.3 5.3 0 0 1 -.27.9c-.08.22-.29.83-.41.84s-.91.46-1.14.59a11.7 11.7 0 0 1 -1.37.69c-1 .41-1.9.82-2.83 1.25l-.28.16-.36.16c-.3.13-.66.28-.91.4l-.78.36-.73.31a28.37 28.37 0 0 0 -2.79 1.36 20.29 20.29 0 0 0 -2.5 2.19 14.57 14.57 0 0 0 -1.13 1.28 4.18 4.18 0 0 1 -1.27 1.17 15.37 15.37 0 0 1 -1.51.69 2 2 0 0 1 -1.32-.09 2.81 2.81 0 0 1 -1.53-1.75 6.18 6.18 0 0 1 -.08-2.13 5.43 5.43 0 0 1 .16-.84 1.67 1.67 0 0 0 .12-.67 2.14 2.14 0 0 0 -.44.24 3.93 3.93 0 0 1 -.5.26 6.67 6.67 0 0 0 -.6.3 4.37 4.37 0 0 1 -.65.31c-.81.35-2 .84-2.49 1a18.24 18.24 0 0 1 -4.06 1 9.11 9.11 0 0 1 -2.66 0 6.31 6.31 0 0 1 -2.17-.84 4.22 4.22 0 0 1 -1.91-4.43 8.26 8.26 0 0 1 .66-2c.23-.46.33-.67.06-1a3 3 0 0 1 -.48-1.13 5.84 5.84 0 0 1 .08-2.56c.34-1 .85-2.58 1-3.14 0-.13.06.48 0 .61s-.18.58-.28.87a6.33 6.33 0 0 0 -.33 1.95c.09 1 .18 2.13.94 2.54.29.15.55-.28.6-.46a4.92 4.92 0 0 1 .37-1.09c.29 0 0 1.11-.07 1.33a3.59 3.59 0 0 1 -.5 1.24 1 1 0 0 1 -.4.32c-.25.09-.46.16-.51.34a4.4 4.4 0 0 0 0 3.62 2.51 2.51 0 0 0 .76 1 4.29 4.29 0 0 0 1.23.74m78.46-.07v.18s0 .42.22.46l.16.06c.2.06.33.1.49 0a2.75 2.75 0 0 0 .24-.68 1.34 1.34 0 0 1 .35-.66c.14-.09.1.54.09.62a2.59 2.59 0 0 1 -.18.6 1.81 1.81 0 0 1 -.69 1 .65.65 0 0 1 -.54.1 1.54 1.54 0 0 1 -.4-.14.73.73 0 0 0 -.28-.1.37.37 0 0 0 -.24.16s0 0-.28.2a1.88 1.88 0 0 1 -.55.27 1.16 1.16 0 0 1 -1-.25 1 1 0 0 0 -1 0 8.2 8.2 0 0 0 -1.59 1c-.32.24-2.85 1.88-3.19 1.44a9.63 9.63 0 0 1 .88-.58c.38-.23.75-.47 1.11-.71.65-.43 1.28-.9 1.9-1.36s1.56-1.11 2.3-.66a1 1 0 0 0 1.36 0 2 2 0 0 0 .37-.39c.08-.13.39-.6.45-.54m-55.53 2.51a3.91 3.91 0 0 1 0-2.06l.12-.36.05-.2c.05-.13.34-.95.41-.88a8.67 8.67 0 0 1 -.15 1c-.05.32-.09 1-.11 1.55 0 .32.38.88.65.85s.25-.26.3-.46.13-.52.23-.54c.42-.07-.2 1.84-.48 2-.54.34-.91-.46-1.06-.88m16.23-4.35c.16 0-.09-1.5-.18-1.75-.83-2.36-3.33-4.58-5.75-6.74a32.91 32.91 0 0 1 -3.13-3l-.69-.82c-.22-.26-.44-.54-.64-.81s-.65-.88-.68-.88c-.32-.23-.7-1.6-.38-2a17.46 17.46 0 0 1 1.87 1c.47.29 1.83 1.11 1.74 1.39a3 3 0 0 1 -.75-.07c-.19 0-.6-.1-.63 0a43.71 43.71 0 0 0 3.61 3.59c.34.27 1.51 1.33 2.29 2l.2.2.2.2.3.25a6.41 6.41 0 0 1 .49.55 3.26 3.26 0 0 0 .45.5 11.53 11.53 0 0 1 1.66 2.7 7.41 7.41 0 0 1 .3.95 8.62 8.62 0 0 1 .12 1 11 11 0 0 0 .11 1.14c.21 0 .42-1 .49-1.26s-.35-3.32-.53-4.51c-.09-.68-.22-1.57-.28-2.1s-.17-1.38-.28-2.1c-.19-1.33-.33-2.75-.48-4.17v-.19a2.23 2.23 0 0 0 0-.36l-.06-.43v-.28-.45a1 1 0 0 0 -.07-.24 2.2 2.2 0 0 1 -.06-.22 1.43 1.43 0 0 1 0-.67c.08-.36.3-1.35.51-1.42a6.71 6.71 0 0 1 .57 1.14c.08.2.24.57.26.59.1.18.19.4.28.59s.15.39.21.6c0 0 .17.45.26.67s.4 1.08.26 1.2-.47-.33-.55-.42a2 2 0 0 0 -.42-.44 6.09 6.09 0 0 0 .06 1.36c0 .35.13 1 .2 1.55s.2 1.58.32 2.49c.21 1.69.72 6.4.72 6.44a9.67 9.67 0 0 1 -.45 2.85 19.14 19.14 0 0 1 -1.12 2.15 6.71 6.71 0 0 1 -1.92 1.67 16 16 0 0 1 -2.25 1 35.73 35.73 0 0 1 -4.3.82c-.19-.07.36-.44.36-.44l.71-.25c.47-.17.89-.34 1.32-.52a23.73 23.73 0 0 0 2.32-1.13c.72-.41 3.54-2.27 3.54-2.93m5.58.84a6.63 6.63 0 0 1 -.08-1.09c0-.27-.07-1-.13-1.54v-.4l-.06-.59v-.2c0-.44-.11-.92-.16-1.46-.17-1.94-.4-3.91-.68-5.7-.07-.47-.22-1.82-.32-2.78 0-.46-.09-1-.12-1.4s-.09-.91-.16-1.45a7.23 7.23 0 0 0 -.32-.9 1.51 1.51 0 0 1 0-.87 6.32 6.32 0 0 1 .42-1.22c.06 0 1.11 2 1.23 2.27s1 2.29.85 2.53-.53-.39-.58-.44a1.78 1.78 0 0 0 -.5-.46c-.13 0-.05.85 0 .92 0 .36.06.61.1.91.08.65.16 1.2.2 1.79a11.15 11.15 0 0 0 .2 1.34c0 .12.06.54.08.72v.27.32.28c.16 1.2.27 2.18.4 3.48.06.59.18 1.77.2 1.9v.34.14.43c0 .18.09 1.27.08 1.27v.76a3.77 3.77 0 0 0 0 .38 2.37 2.37 0 0 1 0 .41 10.09 10.09 0 0 1 -.41 1.83c-.08.22-.77 1.31-.6.51a23.16 23.16 0 0 0 .2-2.32m-14.45 1.5a6.24 6.24 0 0 1 -.28-1.78 14.65 14.65 0 0 1 .95-3.42c.17-.25.23.24.2.33s-.13.4-.16.51c-.08.35-.1.49-.16.8s-.12 1.25-.12 1.25v.44.2a2 2 0 0 0 .13.47c.11.27.32.63.64.62s.31-.32.38-.54.19-.57.34-.56c.51.05-.5 2.11-.58 2.2a.81.81 0 0 1 -1.35-.49m-13.74-3.91-.08-.71v-.28-.2c0-.28-.2-1.26-.2-1.26-.13-.72-.32-1.75-.4-2.22-.05-.32-.12-.73-.16-.91-.07-.34-.14-.72-.2-1.07-.11-.73-.36-2.21-.4-2.34-.1-.36-.51-2.94-.76-4.55a9.5 9.5 0 0 0 -.45-1.82 3.59 3.59 0 0 1 .34-1.81c.09-.16 1.17 1.71 1.25 1.85l.16.28.23.39v.12l.17.28s.72 1.37.2 1.17a3.47 3.47 0 0 1 -.43-.35 3.78 3.78 0 0 0 -.49-.41c-.09 0 .39 2.75.42 2.95.18 1.06.48 2.83.6 3.29a42.29 42.29 0 0 1 1.16 7.09 10.12 10.12 0 0 1 -.43 3.92c0 .07-.22.76-.4.42 0 0 0-.53 0-.7v-.36a26.71 26.71 0 0 0 -.17-2.77m33.39 3a2.46 2.46 0 0 1 -.43-1.22 6.56 6.56 0 0 1 .41-2.32c0-.14.18-.43.27-.64a2 2 0 0 0 .29-.86 1.94 1.94 0 0 0 -.29-.24 3.66 3.66 0 0 1 -.4-.33l-.52-.43c-.23-.21-1.26-1.28-1.27-1.34a4.51 4.51 0 0 1 .06-1.55 15.34 15.34 0 0 1 1.64.62l.31.12.52.21c.13.07.28.26.1.36l-.22.06-.37.09c-.16.09.46.52.51.56.29.2.73.52 1 .48 0 0 1-1.34 1.2-1.6s.43-.55.64-.81l.3-.45c.12-.16.27-.36.38-.37s-.17 1.34-.26 1.52a7.17 7.17 0 0 1 -.67 1.07l-.17.23-.15.21-.38.59c0 .16.24.33.42.44a2.48 2.48 0 0 1 .45.33 3.88 3.88 0 0 1 .7.72 3.18 3.18 0 0 1 .09 2.93 4.81 4.81 0 0 1 -1.71 1.4 6 6 0 0 1 -1.16.5 1.42 1.42 0 0 1 -.71 0 3.55 3.55 0 0 1 -.43-.23zm3.66-2.81c.21-.45-2-1.63-2.39-1.59a4.12 4.12 0 0 0 -1 2.43c.13.3.19.46.53.54.81.19 2.15-.83 2.88-1.38m-50.16-1.13v-.49a3.49 3.49 0 0 1 0-.66c0-.32.07-.64.12-.95s.18-.8.27-1.18.5-2 .77-1.86a15.45 15.45 0 0 1 -.33 1.94 6.64 6.64 0 0 0 -.15 2.57 2 2 0 0 0 .63 1.31c.29.16.44.08.58-.2a3.46 3.46 0 0 0 .14-.4c0-.17.11-.37.23-.37s0 1-.07 1.24a4.56 4.56 0 0 1 -.18.52 5 5 0 0 1 -.3.5c-.24.56-1.11-.19-1.23-.4a5 5 0 0 1 -.48-1.61m64.29.4c.19-.32-.84-.84-1.19-.91s-1.47.27-1.27.78 2 .33 2.46.13m-56.21-2.01c.28-.45-1.08-.86-1.52-.91s-1 .57-.35.85a2.61 2.61 0 0 0 1.87.06m7.38-1.73c-.07-.6.15-3.44.69-3.48 0 0-.06.4-.06.4v.27.16.2a10.39 10.39 0 0 0 -.12 1.46 2.49 2.49 0 0 0 .46 1.15c.22.19.46 0 .53-.24s.2-.55.27-.52c.32.08-.27 1.58-.51 1.75-.6.43-1.14-.62-1.15-1.15m45.55-6.54a1.82 1.82 0 0 1 -.19.64 4.33 4.33 0 0 0 -.32 1.11 1.85 1.85 0 0 0 .53 1.68.38.38 0 0 0 .61-.17c0-.06.07-.26.09-.36s.1-.36.2-.38 0 .83 0 1c-.08.33-.33.89-.61 1a.65.65 0 0 1 -.69-.21 2.23 2.23 0 0 1 -.53-1.27 4.12 4.12 0 0 1 .36-1.92c.08-.19.5-1.19.59-1.12m-56 3.4c-.15-.25.31-1.18.47-1.49s1.62.73 1.71.88-.27 1.11-.42 1.46c-.08.19-.72-.17-.87-.25a3.7 3.7 0 0 1 -.51-.31l-.44-.26m40.45-.64c-.16-.19.55-1.22.7-1.36s.7.32.83.4.64.46.77.4a2.14 2.14 0 0 0 .4-.65 1.44 1.44 0 0 1 .45-.55c.09-.07.74.46.93.62l.13.07.23.2.19.22c.39.28-.53 1.51-.73 1.53a4.15 4.15 0 0 1 -.71-.5 5.51 5.51 0 0 0 -.73-.52c-.08 0-.46.77-.51.89-.18.37-.3.55-.8.2l-.46-.31-.13-.09c-.18-.15-.56-.46-.56-.54m22 0a9.91 9.91 0 0 1 1.91-1.37c.61-.38 1.21-.76 1.8-1.15.8-.53 3.12-2.13 3.2-2.58a5.24 5.24 0 0 0 -.56-.44 1.79 1.79 0 0 1 -.44-.51c-.42-.69.52-2.1.88-2.34s.87.28 1 .64a5.64 5.64 0 0 1 .12 1v.41.28a.77.77 0 0 0 0 .38l.2.19a1.68 1.68 0 0 1 .3.27c.12.18.28.82 0 1 0 0-.41-.22-.5-.28s-.52-.34-.67-.25l-.07.13-.16.2a5.25 5.25 0 0 1 -.36.41l-.42.36a3.41 3.41 0 0 0 -.39.37 12.67 12.67 0 0 1 -1.74 1.3c-.6.4-3.5 2.08-4.12 1.92m-67.07-3.39v-.16a1.72 1.72 0 0 0 0-.28v-.15a1.32 1.32 0 0 1 -.1-.4 12.33 12.33 0 0 0 -1.4-1.82 5 5 0 0 0 -.5-.18c-.23-.06-.57-.16-.63-.35a1.52 1.52 0 0 1 0-1.25c.14-.49 1.7 1 1.7 1s.39.53.57.79.16.24.24.38a2.66 2.66 0 0 0 .32.5 9.31 9.31 0 0 0 0-1.59 3.87 3.87 0 0 1 0-.72 2.9 2.9 0 0 1 .45-1.09c.44-.31 1.33.68 1.35 1s-.26.81-.57.6a6.5 6.5 0 0 0 -.76-.46c-.07 0 0 .42 0 .55s0 1 0 1.3a15.07 15.07 0 0 1 -.15 1.55 5.43 5.43 0 0 1 -.79 2 5.77 5.77 0 0 1 -1.18 1.12c-.31.24-1.62.94-.82.13.36-.36.72-.74 1.06-1.11l.84-.92a1.11 1.11 0 0 0 .15-.22c0-.07.1-.16.16-.18m46.23-2.17-.17-.19a1.49 1.49 0 0 1 -.32-.71 4 4 0 0 1 .8-1.81.82.82 0 0 1 .52-.21c.38-.07.55.56.58.89a8.31 8.31 0 0 1 0 .87c0 .2-.08.93 0 1a2.58 2.58 0 0 1 .84.77c.06.22 0 .73-.14.81a3.13 3.13 0 0 1 -.58-.38 1.35 1.35 0 0 0 -.79-.36l-.19.2-.41.54-.7.69c-.26.26-1.67 1.33-1.79 1v.21a1.78 1.78 0 0 1 -.27.17c-.11.06-.34.15-.53.24a2.51 2.51 0 0 0 -.46.24 1.51 1.51 0 0 1 -.48.16c-.33 0 .16-.45.28-.52l.36-.22a2.26 2.26 0 0 0 .28-.27c.2-.13.46-.33.76-.55l.43-.36 1.22-.9c.22-.19 1.1-.92.76-1.35m-25.31 2.69a2.4 2.4 0 0 0 -1.33 0 2.1 2.1 0 0 0 -.42.22c-.06 0-.26.17-.3.11s.4-.95.46-1a1.77 1.77 0 0 1 .9-.43 5 5 0 0 1 1.83.31c.07 0-.07.6-.1.73-.12.49-1.27 1.06-1.87 1.17s-.18-.25.06-.42.81-.59.75-.69m30.08-.32c.76-.7 8.37-5 8.48-5s-.1.82-.16.9-1.59 1-2.12 1.3l-.56.31a6.87 6.87 0 0 1 -.67.4 4.3 4.3 0 0 0 -.56.32c-.22.13-.49.3-.66.39l-.53.32c-.17.1-.32.19-.5.28s-.2.12-.38.24l-.14.08-.38.23-.25.16c-.39.22-.79.45-1.15.69a2 2 0 0 1 -.49.28 1.47 1.47 0 0 1 .07-.92m11.57-2.81c-.07-.17 0-.91.17-1 .5-.29 1.65.78 1.89 1.07l.28.32.32.39a3.58 3.58 0 0 1 .31.45c.11.17.3.47.36.47a8.92 8.92 0 0 0 .1-1.7 4.73 4.73 0 0 1 .17-1.29c.1-.34.94-1.66 1.46-1.23.25.21 1.09 1.42.38 1.65-.14 0-.33-.2-.42-.31a1 1 0 0 0 -.51-.35c-.25 0-.49.25-.54.46a4.1 4.1 0 0 0 -.08.61 5.2 5.2 0 0 1 0 1.17v.2.37.43c0 .36-.1.84-.16 1.27s-.31.92-.48.32a3 3 0 0 0 -.46-.93 8 8 0 0 0 -1.1-1.42.43.43 0 0 0 -.37-.09.87.87 0 0 1 -.62-.15c-.33-.21-.63-.41-.7-.67m-49.18 2.49c.15-.11 1.12-.66 1.76-1l1.06-.56.14-.08.15-.08.16-.1.22-.11.3-.16a3.75 3.75 0 0 1 .44-.24l.6-.3.43-.19.56-.27a7 7 0 0 1 1-.46c.53 0 .13.81-.11.93-1.24.55-3.32 1.55-3.75 1.8l-.16.07-.32.16a1.45 1.45 0 0 1 -.32.16l-.32.16c-.31.17-.34.19-.61.36l-.14.09-.14.08-.9.51c-.5.34-.18-.56-.05-.76m-7.49-.66c-.34-.59 0-4.11.6-4.13 0 0-.21 1.21-.25 1.4a3.87 3.87 0 0 0 -.07 1.56 1.75 1.75 0 0 0 .5 1c.19.22.47 0 .53-.23s.23-.65.3-.64a3.62 3.62 0 0 1 -.13.87 3.11 3.11 0 0 1 -.27.86c-.41.56-1.16-.18-1.21-.66m23.68-1.96c-.87-.09-1.58-.77-.91-1.71.11-.17.79.29.84.33a4.5 4.5 0 0 1 .65.66c.19.24.4.5.55.72s.44.65.53.61.05-.48.05-.51v-1-.19-.26c0-.11-.05-.59 0-.75a3 3 0 0 1 .39-1.64c.34-.37.81 0 1 .27s.52 1.07.06 1.41c0 0-.24-.2-.27-.23a1.77 1.77 0 0 0 -.39-.36c-.12-.09-.46-.31-.47 0s0 1.24 0 1.62a10.25 10.25 0 0 1 -.07 1.82c0 .15-.18 1.51-.36 1.51a1.36 1.36 0 0 1 -.1-.28 2.73 2.73 0 0 0 -.22-.4c-.12-.2-.31-.49-.4-.62a6 6 0 0 0 -.85-1m44.68-1.24c-.46-.3-.9.27-.83.64a1.78 1.78 0 0 0 1.19.67c.18-.07-.17-1.18-.36-1.31m-27.12.84c.09-.82-.74-1.28-.9-.61a.75.75 0 0 0 .38.73c.24.19.47.33.52-.12m-32.26-3.76a1.69 1.69 0 0 1 0 .49 3.39 3.39 0 0 0 0 .63 7.91 7.91 0 0 0 0 1.07.64.64 0 0 0 .47.47s.14-.1.17-.15.14-.31.23-.29-.22 1.23-.28 1.33-.53.14-.6 0a3 3 0 0 1 -.51-1.07c.05-.48.11-1 .2-1.45 0-.23.19-1.06.34-1m8.22 2.65a.67.67 0 0 1 -.4-.54c0-.58 1.31-1.73 1.81-1.8.18 0 .52.32.58.49s-.21.65-.31.74-.29-.09-.38-.17a.47.47 0 0 0 -.37-.22c-.18 0-.62.35-.65.49s.59.44.81.46h.72a2.05 2.05 0 0 0 .4 0c.13 0 .34-.06.41 0s-.23.7-.33.75l-.26.04h-.4l-.44.12c-.25.07-.72.25-1.07.39s-.56.23-.44-.08c.05-.13.14-.33.16-.37s.18-.33.14-.37m-2.91-2.2a8.47 8.47 0 0 1 .86-.36l.77-.32 1.71-.73c.52-.23 1.03-.44 1.57-.66l.21-.07.11-.06.4-.16c.08 0 .8-.27.66 0s-.38.71-.46.72a36 36 0 0 0 -3.48 1.41l-.14.06-.35.15-.36.13-.15.08-.36.16-.2.08-.17.08h-.16l-.42.2c-.09 0-.4.2-.43.17s.24-.9.39-.92m53.74 11.4a2.66 2.66 0 0 1 -.12-1.31c.06-.46.62-2.21.88-2.25s-.24.89-.26.94a2.28 2.28 0 0 0 -.26 1.15 1.56 1.56 0 0 0 .46 1.07c.24.13.41 0 .53-.21a1.23 1.23 0 0 0 .08-.23c0-.11.1-.29.22-.27s0 .6 0 .71a3.92 3.92 0 0 1 -.22.51c-.15.28-.38.55-.68.5s-.58-.61-.58-.61" fill="#221e1f" fill-rule="evenodd"/></svg>