<svg viewBox="0 0 80.17 26.78" xmlns="http://www.w3.org/2000/svg"><path d="m49.43 1.95c-.69-.29-.92.42-.41.89.75.69.73-.4.41-.89m25.91.5c-.1.47 1.09 1.1 1.21.94.17-.25-.17-1.13-.31-1.25-.26-.23-.87.02-.9.31m-60.52.96c-.26-.29.37-2.81.75-2.86.08-.01-.11.65-.14.77-.13.45-.29.99-.2 1.36.07.31.24.76.54.78.14.01.26-.2.3-.34.05-.16.15-.52.23-.5s-.1 1.05-.16 1.22c-.1.29-.21.44-.41.61-.43.36-.82-.76-.92-1.05m7.1-1.09c-.05-.33.07-.87.23-1.05.27-.29 1.47.71 1.69.93.23.22.45.47.65.72.08.1.16.22.23.33.1.17.29.49.35.5.03 0 .03-.74.03-.76 0-.47.06-.94.16-1.34.1-.41.22-.88.63-.98.82-.2.96 1.14.78 1.64-.06.18-.45-.26-.47-.29-.13-.16-.29-.25-.5-.31-.19-.05-.22 1.77-.22 1.87 0 .32-.11 2.15-.44 1.96 0 0-.13-.3-.15-.35-.02-.04-.13-.3-.14-.32q-.08-.15-.12-.24c-.04-.08-.11-.22-.16-.3-.16-.25-.45-.58-.7-.88-.11-.13-.24-.25-.38-.36-.09-.07-.17-.06-.27-.01-.17.09-.18.09-.27.07-.24-.07-.89-.54-.95-.8m42.77.92c-.03-.16.05-.97.22-.94.86.12 1.35.58 1.83 1.12.2.22.38.46.56.7.11.15.22.3.31.47.1.17.26.44.38.43 0 0 .05-.87.05-.9 0-.23.01-.58.04-.92.02-.3.07-.91.16-1.16.14-.35.87-1.56 1.41-1.16.32.23.47.47.61.88.07.21-.13.63-.24.73-.05.05-.33-.24-.38-.3-.15-.17-.31-.33-.53-.37-.25-.04-.48.27-.54.46-.08.23-.08.72-.08 1.01 0 .44-.01 1.12-.04 1.52-.02.36-.16 2.18-.61 1.85l-.04-.16c-.04-.14-.09-.3-.22-.52l-.24-.38c-.21-.34-.44-.67-.69-.98-.08-.09-.26-.26-.39-.38-.09-.08-.14-.13-.23-.13l-.18.04-.24-.06c-.28-.1-.9-.49-.91-.85m-11.04 2.57.14-.08.38-.24.26-.16.12-.08.22-.14c.19-.1.35-.19.52-.3.69-.43 1.4-.84 2.12-1.24l1.98-1.12 1.13-.64c.18-.1.43-.24.55-.32.17-.11.39-.26.57-.29.19-.03.05.54 0 .65-.08.2-.3.33-.54.48-.17.1-.4.24-.51.32-.18.13-.4.28-.6.38-.83.42-1.67.88-2.44 1.39-.16.11-.35.23-.62.38l-.26.14-.24.16c-.09.05-.13.07-.3.16-.16.08-.4.23-.68.4l-.38.24c-.39.24-.94.57-1.21.72-.11.06-.55.3-.57.27-.09-.1.17-.96.39-1.08m-4.74-1.8c.01-.08-.1-.18-.17-.25l-.18-.18c-.13-.16-.27-.4-.33-.61-.1-.41.22-1.28.38-1.51.2-.28.43-.52.81-.6.24-.05.39.22.48.38.16.28.14.71.1 1.04-.04.4-.11 1.08-.06 1.16.01.02.36.31.5.42.12.09.37.35.41.51.06.23-.02.72-.2.75 0 0-.17-.14-.2-.17-.02-.02-.25-.18-.37-.26-.2-.13-.48-.32-.63-.34-.05 0-.95.94-1.14 1.13-.37.4-.83.8-1.32 1.07-.39.22-.92.51-1.21.62l-.28.14-.24.12c-.16.08-.71.35-.81.26-.22-.22.26-.46.38-.52.24-.12.51-.28.81-.48l.12-.08.32-.24q.15-.11.24-.17c.06-.05.22-.15.33-.23.56-.37 2.2-1.54 2.26-1.97m-48.14 2.4c-.06.25.6.63.91.8l1.09.6c.26.15.65.43.95.64.4.29.91.65 1.06.63.03 0 .93-.65 1.18-.84.47-.34.97-.66 1.47-.96l.14-.08.12-.08c.14-.08.27-.16.4-.24s.26-.16.38-.24l.42-.24c.24-.16.56-.33.85-.48.17-.09.72-.38.68-.52 0 0-.79-.06-.85-.06h-.68c-.46-.03-1.44-.08-1.49-.08-.7 0-2.18.09-3.33.16-.85.05-3.01.43-3.31.98m75.18-2.05c0-.07-.22-.23-.4-.36l-.13-.09c-.18-.16-.43-.38-.47-.67-.13-.84.32-1.79.95-2.21.23-.16.64.14.74.25.09.1.17.35.21.51.01.07.08.38.08.44v.42l.07 1.14s.3.28.37.34c.12.1.55.85.18 1.02-.12.06-.34-.12-.5-.25-.19-.15-.39-.26-.65-.22 0 0-.19.24-.26.33-.09.11-.18.23-.28.32-.2.18-.4.37-.6.54-.31.26-1.34 1.09-1.34 1.09-1.41.93-2.83 1.74-4.66 2.29-.26.08.71-.63.81-.68.3-.17.61-.36.9-.54.61-.37 1.34-.82 1.78-1.11.79-.53 3.19-2.14 3.23-2.57m-40.4-3.27c.33-.07-.14.9-.16.95-.14.22-.56.45-.89.62-.56.3-1.74.93-1.86 1.01-.6.36-1.24.72-1.86 1.04-.63.34-1.33.72-1.91 1.14-.76.55-7.18 4.23-7.18 4.23-.09-.03.17-.93.21-1.03.08-.18.5-.46.73-.6.51-.33 1.44-.93 1.64-1.04 1.22-.75 2.48-1.49 3.75-2.17 1.16-.62 2.76-1.47 3.63-2.1.4-.29 3.83-2.06 3.9-2.03m12.04 8.03c-.09-.23.52-1.21.71-1.33.11-.07.55.25.71.36.23.17.68.49.88.46.04 0 .32-.53.37-.62.13-.24.22-.39.42-.54.21-.15 1.35 1 1.47 1.14.23.27-.49 1.35-.67 1.43-.12.05-.62-.36-.76-.47-.24-.19-.67-.55-.81-.5-.01 0-.25.46-.29.55-.13.27-.28.58-.46.7-.17.1-1.58-.99-1.58-1.18m-19.77.8c.95-.63 7.93-4.1 8.39-3.95.17.06-.07.86-.14.93-.15.16-3.75 1.73-4.43 1.99-.79.3-1.52.67-2.32 1.06-.16.08-.39.21-.59.32l-.24.16s-.03.02-.24.12c-.07.03-.61.28-.62.26-.1-.2 0-.81.2-.9m34.34.4c-.15-.49-.31-1-.2-1.45.21-.89.42-1.74.75-2.28.16-.25-.02.49-.07.6-.09.22-.19.47-.24.72-.18.83 0 1.25.33 1.86.06.11.52.31.59.13.06-.13.39-.89.44-.88.22.05-.16 1.89-.78 1.96-.24.03-.57-.36-.83-.66m13.54-.64c.05-.53.58-2.42.9-2.3.09.03-.29.84-.34.94-.18.34-.29.93-.14 1.45.07.23.21.63.46.66.13.02.27-.02.38-.13.04-.04.13-.26.15-.3.06-.16.11-.29.2-.22.37.27-.52 1.57-.85 1.61-.64.08-.93-1.62-.77-1.71m-62.67-1.78c-.23.88-.45 1.71-.28 2.21.07.19.3.61.5.58.14-.02.18-.12.22-.26.06-.17.15-.44.26-.44.08 0-.07.85-.1.96-.07.31-.16.58-.4.72-.37.21-.69-.37-.81-.68-.25-.69-.16-1.48.04-2.17.06-.21.62-1.31.57-.92m21.11 4.94c-.13-.58-.19-1.03-.12-1.65.05-.44.56-1.93.79-2.14.07-.06-.16.95-.19 1.1-.12.55-.25 1.14-.2 1.33.12.44.24.87.53 1.01.17.08.32.06.42-.1s.28-.44.3-.43c.11.02-.04.92-.09 1.04-.09.2-.27.49-.47.58-.4.2-.84-.46-.97-.72m-26.35.4c-.05-.22.38-1.38.55-1.39.11 0 .56.27.87.46.13.08.31.19.38.25.1.09.36.33.38.34.34.11.05.7-.03.86-.15.29-.39.77-.67.64-.22-.1-1.46-.96-1.47-1.16m15.83 1.94c-.06-.07-.13-.31-.17-.45-.04-.15-.06-.26-.08-.44 0 0-.08-.79-.04-.64l.04-.28q.06-.46.08-.56l.04-.16.04-.28.04-.16c.1-.41.22-.85.39-1.2.13-.26.17.14.13.23-.11.28-.12.3-.16.6l-.04.16-.04.16-.04.16c-.06.26-.14.65-.12.78.11.58.2 1.1.44 1.36.1.11.38.15.5.08.07-.04.13-.17.15-.25.04-.11.14-.42.2-.37.22.15-.19 1.32-.3 1.48-.13.2-.24.27-.48.2q-.23-.07-.42-.23c-.05-.06-.15-.17-.16-.18m-19.09.35c-.16-.49.16-2.64.54-2.61.11.01-.09.69-.14.89-.11.39-.12.67 0 1.04.08.25.27.67.58.62.17-.02.25-.16.3-.3.05-.12.18-.44.24-.41.25.12-.31 1.38-.34 1.45-.37.84-1.04-.27-1.18-.67m61.43 1.08c.2-.29-1.29-1.26-2.08-.71-1.37.95 1.43 1.01 2.08.71m-33.29.09c-.1-.35-2.9-.39-3.07-.26-.12.09.5.57.56.63.21.17.71.56.73.6.06.11.97-.37.98-.38.12-.07.92-.49.8-.6m17.12-1.01c-.25.15-1.04 1.66-1.11 2.05-.04.23.18.71.36.76.81.25 3.2-.73 3.05-1.45-.07-.33-2-1.48-2.3-1.37m-6.52 4.31c.06-.34-.33-.6-.58-.72-.15-.07-.35-.13-.53-.16-.11-.02-1.01-.12-.98.03.08.48 1.48 1.11 2.09.85m5.22-.03c-.2-.38-.39-.77-.37-1.25.03-.66.09-1.43.3-2.07.1-.3.23-.59.36-.86q.06-.12.16-.28c.05-.09.15-.23.14-.3 0-.13-.44-.43-.63-.56-.15-.11-.4-.36-.58-.54-.2-.21-.41-.42-.58-.62-.03-.04-.19-.18-.29-.26-.12-.1-.38-.33-.39-.35-.17-.39-.04-1.16.05-1.62.01-.06 1.53.6 1.67.66l.16.06.12.04c.13.05.31.12.42.18.39.21-.14.4-.44.51-.23.08.47.55.52.57.26.16.8.5.95.44.1-.04.97-1.21 1.17-1.51.17-.25 1.23-1.61 1.29-1.63.31-.09-.66 2.2-.81 2.44l-.09.13q-.12.15-.4.53c-.25.37-.37.55.04.8.17.11.46.32.68.49.49.37.84.99.96 1.7.04.26-.2 1.55-.38 1.81-.55.79-2.96 2.61-4.05 1.49m-34.03-5.84c.19.04.09.42.04.62-.06.22-.4.38-.73.52-.11.05-.94.46-1.35.66-.44.22-.99.49-1.33.7-.43.27-.95.53-1.41.74-.89.41-1.85.97-2.65 1.51-.17.11-.52.35-.57.37-.24.12-.46.24-.67.38-.21.15-1.11.72-1.19.72-.1 0 .06-.83.08-.86.05-.11.39-.32.56-.42l.26-.16.38-.24c.25-.13.47-.26.71-.4.82-.5 1.94-1.18 2.54-1.48.9-.45 1.84-.94 2.72-1.45.82-.47 1.7-.88 2.6-1.23m8.74 7.59c-.34-.1-.63-.25-.91-.42-.12-.08-.27-.18-.48-.34-.13-.14-.15-.15-.16-.16-.26-.15-.48-.53-.63-.79-.09-.15-.16-.29-.24-.44l-.14-.28-.12-.28c-.41-.68-1.01-6.74-1.29-9.72-.15-1.56-.39-2.9-.68-4.38-.11-.53-.27-1.34-.36-1.61-.1-.28-.47-1.41-.32-1.57l.08-.24.04-.2.06-.22c.04-.1.24-.44.32-.48.2-.11.77 2.16.83 2.39.22.86.5 2.82.69 4.13.26 1.82.6 4.26.6 5.62 0 1.25.26 3.18.61 4.54.13.5.57 1.43.9 1.69 1.08.86 1.9 1.46 3.84 1.14.8-.13 3.3-1.03 3.57-1.51.13-.23-1.93-1.45-2.2-1.47-.54-.03-.79 0-1.13.18-.29.14-.63.31-.65.3-.12-.06.26-1.57.39-1.69.32-.32 1.09-.62 1.83-.92.78-.31 2.02-.43 2.96-.4.88.03 1.85.14 2.85.36 1.64.36 2.31.88 1.48 2.54-.02.04-.23.09-.32.11q-.13.03-.32.1s-.36.15-.4.18l-.16.06c-.16.06-.98.49-1.41.73-.45.25 1.14.95 1.36 1.01.93.29 1.67.21 2.66-.04.65-.16 2.81-1.12 2.89-1.65 0-.03-.12-.79-.16-.94-.08-.34-.16-.72-.2-1.04-.09-.66-.23-1.5-.36-2.21-.02-.13-.24-1.66-.36-2.49l-.04-.24-.04-.28-.04-.28-.04-.24-.04-.24-.04-.28-.04-.32c-.04-.29-.08-.62-.12-.88-.05-.39-.11-.78-.16-1.16l-.04-.32v-.18l-.04-.18-.08-.56c-.04-.26-.06-.42-.08-.6l-.04-.4q-.02-.24-.04-.4l-.04-.32-.04-.24c-.04-.34-.07-.58-.12-.88-.04-.27-.13-.79-.16-.88-.08-.22-.25-.69-.24-.72.07-.49.23-1.12.45-1.5.06-.1 1.2 2.03 1.3 2.22.32.6.98 1.83.82 2.38-.03.1-.55-.45-.55-.45-.1-.1-.48-.51-.49-.5-.06.03.01.7.03.94.03.35.08.7.12 1.04l.04.32.04.32.04.36.04.24.04.2.08.56c.17 1.25.36 2.5.57 3.73l.04.24q.04.26.08.48c.05.25.09.5.12.72.08.59.16 1.15.28 1.68l.04.24q.03.23.08.44l.04.24.04.28.08.44c.08.39.18.89.31 1.15.05.1.36.03.52-.01.51-.13 1.24-.2 1.82-.08.42.08.97.34 1.14.65.76 1.43.06 4.52-1.96 3.58-.47-.22-.87-.44-1.21-.78-.14-.14-.29-.37-.43-.57-.15-.22-.44-.65-.56-.64-.13.01-.55.3-.66.39-.21.17-.46.33-.69.47-.47.29-.96.51-1.51.72-.2.08-1.38.3-2.26.46-.41.07-1.67-.47-1.94-.62-.34-.2-.66-.45-.95-.7-.13-.11-.31-.26-.41-.35-.15-.15-.38-.38-.49-.37-.17 0-.75.34-1.01.5-.33.2-.68.39-1.03.56-.7.35-1.39.68-2.2.94-.87.29-2.51.4-3.27.04m19.21-20.59.04-.16c.02-.07.08-.22.1-.28.08-.2.21-.54.27-.62.17-.23.81 1.48.84 1.58.18.51.45 1.17.69 1.53.08.12.71 1.62.52 1.74-.08.05-.45-.32-.56-.44-.14-.14-.52-.52-.55-.51-.07.02.13 1.59.15 1.78l.04.2.04.4.04.24.04.28.04.28.04.16.04.2c.19 1.2.38 2.46.53 3.53.16 1.2.36 2.65.48 3.41.23 1.38.44 2.84.44 4.01 0 1.25 0 3.67-.49 4.24-.23.26-.24-.58-.24-.63 0-.43 0-.96-.04-1.49-.04-.63-.23-2.48-.36-3.69-.05-.43-.11-.9-.16-1.33q-.06-.45-.08-.56c-.04-.24-.09-.49-.12-.76l-.4-2.85c-.2-1.63-.51-3.58-.77-5.26-.16-1.01-.21-1.64-.28-2.45-.04-.53-.1-1.14-.16-1.57 0-.02-.1-.28-.1-.28-.08-.2-.14-.38-.02-.72m-28.24 21.7c.72-.33 1.88-.98 2.77-1.48l1.29-.72c.45-.25 1.28-.72 1.39-.73.22-.03-.06.77-.17.83-.04.02-.43.28-.65.43l-.12.08c-.15.08-.4.21-.45.24-.17.1-.89.49-1.33.72-.46.24-1.07.57-1.41.76-.39.22-1.28.7-1.47.73-.09.01-.07-.18-.06-.29.02-.2.06-.55.22-.56m60.98-1.1c.36-.1.62-.27.84-.51.03-.03.17-.28.25-.41.06-.11.14-.24.26-.19v.13s.03.43.12.42l.13.07.14.06c.16.05.38.08.51-.02.15-.12.2-.39.22-.52.05-.3.13-.68.36-.74.45-.12-.43 1.93-.74 2.11-.3.16-.37.17-.71.1-.08-.02-.23-.08-.27-.11-.07-.04-.19-.1-.22-.1-.12.02-.31.19-.46.32-.2.18-.53.3-.84.33-.21.02-.48-.13-.63-.22-.18-.11-.3-.18-.52-.22-.54-.09-1.95.93-2.48 1.32-.28.2-2.55 1.52-2.81 1.17-.03-.05.51-.35.62-.42.3-.17.63-.36.91-.56.11-.08.23-.17.58-.4l.13-.09c.11-.08.22-.16.33-.23.16-.1.31-.21.46-.32.48-.35 1.28-.92 1.53-1.04.21-.1.8-.34 1.07-.3.18.03.32.1.44.18.23.14.45.27.77.22m-36.68 2.53c-.35-.6.22-3.52.81-3.43.08.01-.28.92-.28.92-.12.29-.27.68-.27.94 0 .42.18.7.36.94.2.29.48.02.6-.15.05-.08.3-.46.3-.46.19.16-.31 1.23-.43 1.37-.43.53-.69.26-1.08-.13m-8.77.68c-.2-.21-.22-1.38-.17-1.74.08-.54.67-2.47 1.06-2.32.09.03-.24.91-.32 1.07-.18.41-.34.82-.38 1.35-.04.45.28 1.12.63 1.22.21.06.33-.13.44-.3.09-.14.25-.39.3-.37.09.05-.09.69-.12.79-.08.28-.23.51-.38.72-.38.52-.86-.07-1.06-.43m28.06.59c-.91-.6-1.53-1.08-1.88-2.25-.11-.35-.18-.95-.16-1.23.02-.29.06-.57.08-.82.02-.16.06-.56.03-.78-.01-.1-.59.32-.63.35-.11.08-.23.16-.35.23-.15.08-.33.19-.4.24-.43.32-.89.61-1.37.89-.99.56-2.09 1.19-3.07 1.64-.73.34-2.11.65-3.27.9-.87.19-3.71.72-3.74.71-.62-.06 2.51-1.26 2.69-1.32.86-.29 2.51-.88 2.99-1.31.12-.11 1.15-.62 1.53-.8.23-.11 1.15-.62 1.67-.92.96-.55 1.9-1.13 2.8-1.73s3.51-2.48 3.65-3.19c.04-.23-1.26-2.51-1.59-3.09-.12-.21-.22-.49-.3-.74-.1-.3-.23-.68-.34-.92-.19-.4-.26-.56-.18-1.08.04-.25.15-.92.32-.95.08-.01.15.13.19.19.08.14.19.28.3.39.07.07.36.34.54.5.27.25 1.03.98 1.04 1.18 0 .11-.06.1-.23.07-.31-.05-.52-.09-.66-.05-.16.05.27.72.3.75.07.11.16.25.22.36.08.17.22.44.22.44.29.5.73 1.27.79 1.69.09.67.15 1.65-.12 2.33-.31.77-.8 1.26-1.36 1.82-.05.05-.25.21-.38.32q-.12.09-.21.15s-.2.13-.21.15c-.33.37-.44 1.18-.41 1.76.12 2.55 2.77 3.16 4.98 2.33.45-.17 1.01-.49 1.53-.78.22-.12.42-.27.62-.41.15-.11.66-.45.66-.45.37-.15 1.55-1.28 2.01-1.73.22-.21 2.02-2.01.96-2.16l-.24.06-.2.08-.2.06-.24.04q-.35.05-.48.08c-.57.11-.94.12-1.45.12-.34 0-1.02-.3-1.18-.49-.25-.32-.43-.55-.5-1.03-.07-.56.09-1.19.28-1.71.14-.37.68-.98 1.01-1.16.37-.21.51-.29 1.03-.26.43.02.89.31 1.28.55.28.18.53.48.74.75.11.15.22.28.32.44.07.11.26.38.33.42.3.21 2.06-1.12 2.3-1.31.27-.21.66-.52.88-.63.29-.14.5 0 .5.32l-.04.44-.04.24c-.01.12.05.33.1.48.14.45 1.44 1.48 2.06 1.18h.18l.3-.04c.13-.02.29-.06.4-.1.19-.08.4-.18.55-.29.31-.24.71-.54.82-.69.21-.3.42-.64.59-.98.18-.37.48-.96.73-1.08.3-.16.1.45.06.56-.14.36-.35.89-.28 1 .24.41.77.68 1.25.84.39.13 1.66.28 1.55-.32-.04-.22-.17-.43-.27-.58-.15-.21-.3-.41-.21-.67.02-.06.11-.46.16-.72.03-.17.12-.43.26-.46.12-.02.57 1.09.71 1.43.18.45.08 1.08 0 1.61-.08.51-.36.98-.68 1.26-.59.52-1.88.29-2.48-.1-.36-.24-.72-.57-.9-1-.04-.09-.54.69-.57.72-.13.2-.35.42-.54.56-.5.35-1.07.62-1.82.7-.77.09-1.58-.3-1.96-.77-.18-.22-.36-.44-.46-.73-.04-.11-.08-.35-.12-.54 0-.04-.07-.39-.16-.37-.28.04-2.25 1.59-2.31 1.79 0 .04-.08.5-.08.5v.3l-.04.44c-.04.34-.11.61-.26.84-1.25 1.94-2.85 3.28-4.7 4.62-1.35.98-3.42 1.55-5.23.92m-51.77.9c-.97-.28-2.02-.6-2.72-1.1-.61-.44-1.13-.92-1.55-1.55-.34-.51-.67-1.1-.83-1.79-.12-.55-.21-1.14-.28-1.72-.03-.24-.08-.6-.08-.74l-.04-.56.04-.5s.12-1.68.16-1.97c.06-.43.17-.93.28-1.32.18-.65.49-1.68.62-1.95.29-.57.62-1.24 1.02-1.76l.16-.24c.08-.11.17-.23.24-.32.22-.27.54-.67.56-.75.01-.07-.57-.47-.67-.53l-.13-.07-.14-.08-.2-.16-.32-.12c-.12-.08-.28-.16-.44-.24-.03-.02-.28-.17-.4-.24-.27-.16-.74-.46-.81-.58-.2-.39-.38-.79-.46-1.35-.07-.46.26-1.21.46-1.48.26-.35.91-.81 1.37-.95 1.5-.45 3.24-.55 4.9-.64 1.37-.08 2.7.02 4.18.12.7.05 2.58.23 2.64.25.17.05-.26 1.43-.36 1.51-.63.54-2.49 1.52-3.91 2.27-1.29.68-2.52 1.51-3.68 2.34-.23.16-.23.24-.23.6 0 .16 0 .77-.2.74-.09 0-.2-.13-.31-.25-.14-.15-.49.01-.79.29-.07.06-.27.23-.41.36-.21.19-.47.48-.7.77 0 0-.16.23-.16.24-.1.15-.3.44-.34.48-.29.29-1.04 2.32-1.1 2.8-.19 1.57-.45 3.77.32 5.1.05.14.08.2.14.34.06.13.16.28.24.42.15.25.33.47.53.67.47.47.86.86 1.61.63.61-.19 1.27-.45 1.86-.7.47-.2 1.92-.8 1.92-.8l.26-.16s.36-.17.51-.24l.18-.08.14-.08c.15-.07.3-.15.38-.18.23-.09.58-.29.87-.46l.14-.08.28-.16.14-.08c.9-.45 1.79-.98 2.62-1.53.41-.27.85-.55 1.27-.8.22-.13.49-.3.64-.41.18-.13.36-.27.55-.39.39-.26.76-.53 1.12-.82 0 0 .34-.32.48-.46.07-.07.2-.2.3-.32.05-.05.26-.25.26-.25.16-.02-.18-.88-.18-.88-.1-.24-.22-.47-.34-.68l-.08-.16-.24-.4-.16-.3-.14-.26-.06-.14c-.41-.76-1.2-2.26-1.31-2.71-.1-.4.13-1.39.29-1.66.11-.18.26.17.28.21.08.19.27.39.57.65l.2.16q.17.14.22.18l.14.1.41.35c.12.09.15.12.2.18.19.24.13.44-.2.36-.22-.05-.52-.13-.6-.1s.31.76.32.78c0 0 .32.55.48.84.28.48.51.93.67 1.55.29 1.17.17 2.57-.39 3.4-.52.77-1.36 1.42-2.13 1.93-.08.05-.18.12-.23.17-.11.1-.22.19-.35.27l-.13.09c-.19.14-.19.14-.21.15-.13.08-.26.16-.38.24-.48.32-1.02.65-1.53.96l-1.47.88c-.26.16-.57.32-.87.48-.22.12-.73.4-.79.46-.26.26-1.86.55-2.83.72-.87.16-2.46.45-2.89.61-.66.24 3.17 1.13 3.42 1.16 1.62.2 2.95.21 4.32.08 1.74-.17 3.22-.37 4.74-.6.11-.02.45-.08.63-.12.36-.08.81-.14 1.21-.2.28-.04.6-.1.89-.16.14-.03.98-.2.98-.11 0 .48-4.8 2.16-5.38 2.32-3.13.89-6.09.79-9.2.24" fill="#1d1d1b" fill-rule="evenodd"/></svg>