<svg viewBox="0 0 58.42 26.38" xmlns="http://www.w3.org/2000/svg"><path d="m20.43 1.83c.1-.43-.41-1.16-.9-.67-.27.27.04.46.25.59.24.15.58.36.65.08m7-.1c-.16.18.04.48.17.61.09.09.52.47.6.29.13-.29.14-.72-.01-.99-.14-.27-.69-.2-.76.09m26.61 1.35c.12.32.79.98 1.2.9.18-.04-.15-1.17-.31-1.31-.29-.25-.93.11-.9.42m-39.96.71c-.16-.37-.22-.95-.1-1.37.19-.65.65-2.08 1.1-2.23.24-.09-.38.99-.39 1.01-.18.32-.33.7-.38 1.11-.07.51.32 1.03.82.98.07 0 .16-.28.19-.38.04-.11.11-.33.19-.29.2.09-.39 1.44-.42 1.49-.29.36-.74-.07-1-.31m17.98 1.89c.65-.32 1.36-.74 1.99-1.13.48-.3 1.39-.79 2.08-1.16.73-.39 1.46-.76 2.2-1.12.34-.17.67-.34.99-.52.3-.17.93-.51 1.1-.54s-.06.67-.1.79c0 0-.36.25-.46.31l-.28.16-.16.08-.14.08c-.18.11-.38.22-.56.32-.17.09-.48.25-.64.34l-.15.07-.3.16c-.16.09-.47.27-.54.32q-.08.06-.2.1c-.14.05-.2.07-.44.22l-.16.08-.14.08-.14.08c-.63.34-1.46.78-2.18 1.16l-.2.16-.16.04-.16.08s-.35.19-.52.28-.35.19-.52.29l-.2.14c-.06.05-.16.13-.2.11-.18-.11 0-.95.21-.98m-4.54-2.23s-.11-.13-.18-.21l-.19-.23c-.12-.18-.21-.43-.25-.65-.11-.71.7-1.8 1.25-1.88.4-.06.57.41.61.86 0 .09-.05.57-.08.84-.04.28-.11.86-.05.9.28.18.74.57.85.91.07.21-.04.59-.14.72-.02.02-.55-.36-.6-.4-.17-.12-.51-.37-.52-.38-.05-.05-1.11.92-1.26 1.05-.2.19-.45.39-.86.69l-.13.09c-.14.11-.2.15-.21.15-.05.03-.23.13-.24.14l-.28.12-.14.06c-.16.07-.27.12-.43.2-.14.07-1.17.58-1.21.4-.05-.24 1.9-1.43 2.18-1.61.34-.21 2.13-1.39 1.89-1.79m16.12-.99c.56-.17 1.48.77 1.73 1.09.17.22.51.65.56.71.11.17.22.34.32.5.13.21.33.53.36.54.04 0 .14-1.38.15-1.58.04-.53.07-.9.2-1.28.13-.39.58-1.09.95-1.23.21-.08.5-.13.66.05.32.37.7 1.07.21 1.55-.03.03-.41-.34-.48-.41-.12-.12-.3-.31-.52-.27-.24.04-.45.23-.5.46-.02.09-.07.76-.08 1.04-.03.59-.06 1.07-.12 1.57-.05.45-.25 1.67-.42 1.85-.15.14-.26-.32-.26-.32-.05-.19-.1-.33-.18-.48-.12-.23-.26-.47-.4-.68q-.12-.17-.4-.58s0-.01-.26-.35c-.13-.14-.15-.16-.16-.18-.02-.04-.24-.14-.27-.15l-.36-.02-.16-.08c-.09-.05-.2-.11-.27-.17-.11-.08-.28-.21-.3-.22-.3-.15-.26-1.22.03-1.35m-23.74.51s-.36-.29-.54-.42c-.17-.12-.35-.26-.4-.48-.1-.46.12-1.08.3-1.47.11-.23.51-.59.81-.6.25-.01.44.27.56.44.1.14.16.46.18.66q.04.32.04.48v.28c-.01.24-.03.55-.02.6l.17.23c.12.13.23.25.27.33.09.15.2.67.01.86-.11.11-.37-.15-.43-.21-.15-.15-.28-.28-.52-.25-.04 0-.4.51-.48.64-.02.02-.37.38-.56.57-.42.42-.86.8-1.33 1.17-.89.71-1.95 1.41-3.15 1.78-.3.09.53-.56.53-.56.08-.07.29-.23.29-.23.14-.1.42-.3.45-.33.1-.08.35-.28.61-.48.02-.02.21-.17.3-.25q.2-.15.29-.23l.21-.17q.08-.06.19-.16s.22-.18.3-.24l.34-.23c.12-.09.32-.25.47-.38.24-.2 1.23-1.09 1.1-1.37m-.08 4.58c-.14-.32.31-1.44.57-1.44.32 0 1.23.72 1.39.98.14.23-.07.54-.18.7-.14.21-.39.59-.4.62-.04.14-.67-.28-.72-.32-.24-.17-.44-.35-.65-.54m-9.81-1.9c-1.51-.19-8.87-.58-8.98.72-.01.13.78.65 1.01.8.36.24.72.47 1.06.73.33.24.63.5.92.78.22.21.81-.12 1.2-.35.82-.47 1.65-.91 2.5-1.36l.12-.08.16-.08q.14-.08.3-.16l.28-.16.18-.08.22-.14c.17-.09 1.03-.51 1.01-.62m43.64-1.85c-.28-.61.55-2.07 1.07-2.19.23-.05.56 0 .65.25.24.68.35 1.34.29 2.02-.03.39.12.56.44.9.23.24.24.71.06.98-.05.08-.39-.19-.46-.25-.13-.11-.53-.28-1.16.27-.22.21-.48.43-.74.64-.48.39-.97.76-1.5 1.12-1.25.83-2.79 1.7-4.5 1.98-.56.09 1.96-1.25 2.13-1.34.55-.3 1.51-.88 2.24-1.33.28-.17 1.28-.91 1.97-1.41.29-.22.65-.48.26-.76-.24-.18-.71-.55-.76-.87m-27.52 4.86c-.08-.28.47-1.1.65-1.24.16-.13.54.14.74.28.29.21.72.51.9.49.03 0 .32-.53.39-.65.07-.13.3-.42.45-.46.23-.07 1.21.9 1.37 1.12.3.42-.57 1.56-.81 1.47-.08-.03-1.21-1.04-1.21-1.04-.05-.35-.52.6-.52.6-.1.19-.31.61-.4.62-.4.05-1.35-.87-1.55-1.18m14.33.72c.02-.54.16-1.09.34-1.57.1-.25.49-1.26.66-1.16 0 0-.17.46-.2.51l-.14.32c-.12.34-.22.72-.26 1.1-.06.6.37 1.56.95 1.42.09-.02.19-.26.22-.36.08-.23.18-.51.24-.53.25-.12-.17 1.63-.67 1.88-.24.12-.55-.08-.7-.23-.25-.25-.5-.93-.45-1.39m13.94 2.15c-.2-.47-.26-.93-.18-1.43.14-.9.45-1.57.85-2.18.2-.29-.08.63-.11.68-.22.38-.38.67-.38 1.26 0 .3.18 1.03.42 1.08.27.06.4 0 .52-.18q.05-.07.12-.26c.03-.08.09-.23.18-.17.24.16-.41 1.29-.46 1.36-.32.43-.73.17-.97-.16m-38.56.82c-.14-.94-.05-1.57.2-2.33.07-.21.14-.41.2-.64.04-.14.23-.7.38-.68.08 0-.25 1.04-.26 1.08-.13.39-.2.71-.2 1.04 0 .66.16 1.51.81 1.44.11 0 .17-.18.2-.28.05-.15.13-.38.22-.36.16.03-.12 1.61-.77 1.7-.38.06-.68-.67-.79-.98m3.87 4.39c.1-.43-1.08-.82-1.53-.57-.14.07-.59.43-.26.58.32.15 1.5.17 1.79 0m24.49.04c.08-.22-.7-.77-.94-.84-.34-.1-.75-.13-1.07.02q-.06.03-.21.18s-.24.22-.25.23c-.3.1.32.4.32.4.14.05.32.11.48.14.47.08 1.18.08 1.67-.13m-13.89.11c.08-.47-1.74-1.48-2.17-1.63-.19-.07-1.16 1.48-1.21 1.71-.24 1.12.51 1.54 1.55 1.08.33-.14 1.81-.9 1.82-1.16m-20.55-1.93c.01.21-.17.82-.28.86-1.07.38-2.04.71-2.99 1.18l-.4.18-.24.12-.28.12-.16.06-.24.14c-.25.12-1.32.66-1.37.5-.34-.95 5.77-3.24 5.97-3.17m-5.48 3.96.23-.13.28-.12.16-.06.16-.08.16-.08c.08-.04.29-.14.42-.2.56-.26 1.13-.49 1.72-.72.19-.07 1.08-.46 1.59-.68.11-.05.84-.36.81-.1-.01.17-.2.64-.35.68-.26.06-.51.19-.73.3-.21.11-.42.21-.65.3-.27.11-.68.27-.81.34-.22.12-.57.25-.85.36-.29.11-.95.38-1 .41-.23.13-.5.25-.77.36-.13.05-.66.26-.69.2-.05-.12.23-.73.3-.78m22.3.61c-.26-.28-.35-.78-.38-1.24-.04-.51.2-1.52.36-1.97.1-.28.25-.57.38-.84.17-.33.34-.68.32-.82 0-.02-.22-.19-.32-.27s-.3-.24-.3-.24c-.18-.17-.38-.36-.56-.54-.13-.13-1.14-1.29-1.14-1.29-.08-.4-.03-1.34.17-1.62.05-.08.22.08.25.1.11.1.18.15.33.21.31.13.63.28.93.42l.2.08.2.08c.1.04.44.2.47.23.07.05.17.3.05.34-.2.06-.63.2-.62.2.02.15 1.2 1.05 1.35 1.02.08-.01.43-.43.65-.69q.17-.2.39-.43l.36-.43c.21-.26.43-.51.62-.79.14-.2.54-.73.68-.75.25-.04-.39 1.67-.44 1.75-.19.29-.43.6-.66.86s-.44.56-.63.85c-.08.11.66.67.82.8.26.19.54.48.68.78.17.39.36.81.33 1.17-.03.43-.2 1.47-.42 1.68-.51.51-3.38 2.78-4.08 1.37m-15.25-5.68s-.53-.13-.81-.2c-.35-.09-.75-.17-1.13-.2-1-.09-1.78-.15-2.89-.08-.6.04-1.48.04-2.04.04-.33 0-.94-.05-1.37-.12-.27-.04-1.13-.17-1.16-.15-.33.29-.9 1.68-1 2.26-.15.93-.3 1.77-.28 2.85 0 .6.34 1.43.58 2.03.04.1.34.56.49.77.07.1.23.26.36.4l.22.18c.15.29 1.59.82 2.03.93.85.21 1.68.11 2.66 0 .82-.1 1.95-.62 2.5-1.02l.26-.16c.12-.08.25-.16.36-.25.22-.18.5-.4 1.1-.92l.43-.38c.08-.08.26-.26.29-.27.6-.45 1.6-2.32 1.54-3.27-.02-.35-.04-.48-.12-.72-.04-.11-.12-.36-.12-.36q-.05-.39-.28-.46s-.27-.2-.36-.27c0 0-.24-.16-.35-.23-.26-.16-.61-.29-.93-.38m-9.66 9.21c-.05-.09-.18-.21-.28-.3-.13-.13-.26-.27-.35-.43-.16-.24-.49-.81-.55-1.03l-.08-.24c-.04-.12-.08-.27-.12-.44-.08-.31-.3-2.01-.24-2.01v-.21c0-.22.02-.83.04-1.17.04-.65.17-1.38.32-1.99.1-.38.21-.78.32-1.12l.08-.28c.04-.13.13-.41.14-.44.12-.3.24-.58.21-.71 0-.03-.31-.21-.4-.26-.18-.1-.47-.27-.47-.4 0 0 .14-.12.17-.12s1.3-.03 1.26-.07c-.03-.03.66-1.02.71-1.08l.25-.33c.14-.17.3-.38.43-.5.26-.26-1.06-1.06-1.22-1.16-.47-.28-1.02-.64-1.31-1.1-.59-.94-.22-1.84.19-2.65.65-1.29 4.55-1.29 5.92-1.29 1.65 0 3.13.14 4.86.32.39.04.83.09 1.21.16.32.06.27.24.18.54-.1.36-.28.97-.49 1.09-2.36 1.34-5.64 3.22-7.37 4.07-.06.03-.09.4-.09.46 0 .19 0 .52-.11.72-.09.16-.29.04-.37-.05-.11-.13-.25-.28-.38-.29-.33-.03-1.39 1-1.13 1.12.23.1 3.67-.07 3.98-.12.93-.13 2.32-.15 3.35.04.94.17 1.63.31 2.34.66.51.25.9.73 1.17 1.22.08.14.16.36.22.54.1.28.16 1.04.16 1.04s-.04.53-.05.71c0 .17-.06.43-.11.7-.04.18-.07.31-.12.48l-.06.2-.06.12c-.02.07-.07.3-.08.36-.17.94-.79 1.92-1.28 2.6-.18.25-.57.7-.85 1.04-.14.16-.28.32-.44.47-.1.09-.2.18-.31.27-.12.1-.3.23-.31.26-.02.04-.82.59-1 .71-.22.14-.47.27-.71.38l-.4.16c-.11.04-.2.07-.28.12-.1.06-.59.21-.85.28-.08.02-.38.08-.57.12l-.2.04-.16.04-.52.06-.61-.02h-.16c-.23 0-.52-.04-.81-.08-.44-.07-.78-.14-1.11-.3-.47-.24-1.42-.72-1.53-.94m49.73-1.29c.29-.07.65-.15.93-.02t.26.17c.15.11.31.17.51.21.62.11 1.08-.6 1.33-.98.07-.11.1-.16.23-.01-.01.18-.02.35 0 .39.12.18.65.32.89.2.08-.04.13-.26.16-.37.04-.19.08-.35.14-.48.13-.28.39-.79.34.12-.02.4-.49 1.41-.78 1.53-.29.13-.53.23-.82.13-.46-.16-.56-.2-.94.07-.28.2-.7.35-1.12.25-.15-.03-.29-.14-.4-.22-.24-.17-.27-.2-.69-.18-.33.01-.94.36-1.33.58-.19.11-.36.21-.54.32l-.24.16c-.13.08-.37.24-.37.24-.46.25-1.04.57-1.39.72-.09.04-.61.16-.89.22-.27.06-.68-.04-.28-.2.3-.12 1.57-.85 2.52-1.39.14-.08.34-.21.5-.32l.24-.16c.11-.08.23-.17.34-.24.44-.29.87-.51 1.39-.74m-15.88 3.43c-.54-.27-.91-.8-1.23-1.29-.59-.88-.43-2.45-.31-3.69 0-.09-1.16.53-1.23.56-.43.23-.89.52-1.29.8-.79.55-1.84 1.01-2.74 1.39-1.1.46-2.29.79-3.71 1.04-.44.08-.44.08-.44.08l-.32.04q-.19.02-.28.04c-.16.04-.26.07-.4.08s-.46.05-.6.08c-.67.13-1.78.33-1.98.3-.68-.11 2.58-1.17 2.78-1.22 1.08-.31 2.05-.74 3.01-1.18 1.87-.86 3.88-1.79 5.55-2.89q.12-.08.26-.16c.14-.08.42-.27.73-.48l.26-.16c.4-.27.8-.54 1.18-.82s2.08-1.51 1.82-1.95c-.59-1.04-1.08-2.12-1.53-3.21-.51-1.21-.78-2.06-.4-3.42.03-.09.53.46.55.48.17.19.52.56.53.58.21.17.95.9 1.01 1.16.04.2-.17.14-.3.1-.31-.09-.67-.19-.55.18.06.17.13.34.22.48.09.15.18.31.26.48.17.36.35.73.54 1.08.14.27.27.6.34.92.27 1.24-.2 2.4-.61 3.23-.09.18-.76.76-1.02.96-.41.33-.87.7-1.04.96-.54.86-.13 2.3.3 2.95.27.4.66.8 1.15.98.56.21 1.1.26 1.64.26.73 0 1.68-.26 2.28-.58.63-.33 1.33-.74 2.35-1.45.08-.07.18-.15.31-.23l.12-.08.13-.09.2-.16q.15-.13.2-.16c.2-.09.92-.78 1.13-1 .09-.1.39-.4.58-.59.1-.1.22-.25.35-.43.05-.09.11-.17.18-.24.11-.11-.12-.58-.26-.61-.11-.02-.21 0-.32.04-.2.06-.36.1-.53.12-.57.06-1.45.16-1.84.16-.25 0-.48-.08-.71-.16-.07-.02-.32-.12-.36-.14l-.15-.09c-.12-.09-.18-.14-.18-.14-.64-.2-.37-2.02-.19-2.54.27-.78 1.01-1.48 1.94-1.59.46-.05 1.1.28 1.35.5.4.35.71.65 1.03 1.09.47.64.57.78 1.21.46.5-.25.97-.5 1.39-.84.32-.26 1.09-.85 1.47-.8.14.02.12.43.11.54-.02.38-.05.81-.04.84.07.3.27.61.47.79.52.46 1.16.63 1.89.63.41 0 .99-.31 1.43-.54.34-.18.77-.81 1.15-1.38l.08-.14.08-.16c.06-.1.25-.43.25-.43.08-.11.44-.59.56-.37.1.18-.19.69-.24.76-.14.2-.25.44-.2.72.07.41 1.16.95 1.65 1.02.53.07 1.3.14 1.11-.5-.06-.19-.13-.31-.22-.46-.13-.21-.27-.43-.18-.62l.08-.28.04-.16.06-.28c.04-.16.13-.47.28-.5.23-.05.61 1.19.67 1.51.07.39.13 1.36-.16 1.89-.02.06-.11.24-.18.38-.11.21-.26.43-.46.54-.32.18-.63.28-1.07.26-1-.04-1.88-.68-2.23-1.42-.09-.19-.33.2-.36.23-.08.14-.25.4-.31.47-.21.25-.52.46-.82.66-.41.27-1.07.44-1.67.42-.46-.02-.96-.1-1.27-.34-.64-.5-1.12-1.06-1.09-2.13 0-.15-.72.34-.76.37q-.08.08-.2.16c-.11.08-.23.15-.35.23-.27.16-1.14.73-1.17.92-.14.76-.38 1.94-.42 2.05-.15.34-1.13 1.4-1.84 2.18-.84.92-2.05 1.72-3.16 2.36-.7.4-1.37.65-2.26.9-1.12.32-2.16 0-3.09-.3m-22.13-1.69c1.59-.7 3.03-1.47 4.48-2.29.67-.38 1.39-.81 1.96-1.3.27-.23.57-.46.84-.67.22-.17.72-.85.18-1.06-.04-.02-.79.13-1.13.2-.39.08-1.31.25-1.55-.02l-.14.14c-.17-.03-.37-.1-.52-.18-.29-.15-.53-.34-.7-.6-.23-.35-.12-1.34-.02-1.81.09-.45.42-.89.74-1.14.39-.31.75-.54 1.28-.61.92-.12 2 1.38 2.48 2.04.16.23 1.68-.74 1.7-.98.01-.14-.34-.86-.5-1.18-.05-.1-.35-.78-.5-1.14-.27-.63-.65-1.51-.77-2.15-.06-.35.27-1.33.45-1.45 0 0 .52.61.57.68.21.25.42.51.62.78l.28.32c.08.1.19.24.24.34.07.13.24.47-.04.46l-.32-.12c-.13-.04-.21-.06-.23.08 0 .04.2.49.27.63.09.19.28.55.28.56.13.29.29.75.34 1.21.09.75-.1 1.98-.5 2.47-.08.1-.41.37-.59.52-.04.03-.27.17-.38.23-.18.1-.35.2-.38.36-.19 1.06-.36 1.97-.71 2.49-.19.28-.56.63-.95.98q-.18.14-.23.18l-.25.18c-.96.96-6.31 3.62-7.94 3.98-.42.09-.83.17-1.29.2-.47.04-1.11.08-1.33.08-.2 0-.61.05-.89.08-.35.04-.87.12-1.21.2-.24.05-.92.19-1.14.16-.26-.03.26-.44.38-.47.16-.05.29-.08.45-.12.26-.07.52-.14.77-.22.63-.2 1.32-.4 1.98-.58 1-.29 3.53-1.11 3.96-1.43" fill="#1d1d1b" fill-rule="evenodd"/></svg>