<svg viewBox="0 0 67.09 29.08" xmlns="http://www.w3.org/2000/svg"><path d="m35.47 3.2c.14.32.4.62.75.7.26.06.16-.58.14-.7-.04-.24-.14-.48-.36-.5-.18-.02-.57.31-.53.5m27.57-.33c-.23-.36-.91.16-.83.59.04.19.92.73 1.14.68.25-.05-.15-1.17-.31-1.27m-51.28 2.18c-.12-.53.04-3.76.69-3.6 0 0-.23.91-.26 1.07-.06.25-.21.82-.2.84.06.34.29 1.72.81 1.2.21-.21.25-.38.33-.75 0 0 .22-.17.2.12l-.05.27q-.07.29-.08.32c-.05.36-.15.64-.35.88-.43.5-.87.09-1.08-.35m39.97-1.97c.34-.29 1.9 1.16 2.07 1.37.12.14.24.3.35.45.13.18.64.87.67.85.01 0 .04-.33.04-.34 0-.37.01-1.26.02-1.28.03-.32.1-1.08.18-1.29.17-.38.82-1.6 1.41-1.2.54.36.81.96.42 1.62-.06.1-.44-.27-.47-.31-.19-.19-.36-.36-.59-.33s-.43.27-.46.5c-.04.25-.04.59-.04 1.04 0 .4-.01.59-.04 1-.04.54-.09 1.24-.2 1.89-.14.79-.36.4-.56-.08-.14-.32-.35-.61-.55-.88-.53-.72-.71-.96-1.45-1.18-.27-.08-.75-.38-.89-.58-.13-.19-.24-1.16.1-1.24m-3.23-1.1c.15.23-.05.72-.18.89-.27.34-8.24 4.88-8.24 4.88-.3-.02.17-.97.36-1.1.05-.03.7-.43 1.11-.68l.14-.08.5-.32.26-.16.28-.17.13-.07s.29-.17.3-.17q.08-.07.19-.11c.14-.06.3-.16.42-.24.65-.43 4.7-2.67 4.74-2.66m-45.49 3.56c.22-.27.93-1.18.84-1.48-.04-.12-.34-.32-.53-.44-.17-.12-.53-.36-.52-.6 0-.24.03-1.1.34-1.16.55-.11 1.63.92 1.94 1.26.25.28.56.63.74.88l.15.21.16.26s.03.03.12.24c.05.11.15.3.27.35 0 0 .07-.73.07-.81l.04-.24-.04-.16v-.28c.02-.63.05-1.29.2-1.67.14-.34.34-.83.62-.96.39-.18.74.33.89.64.08.18.37 1.43-.11 1.16-.06-.04-.48-.45-.7-.67-.08-.08-.38-.17-.44-.05-.02.05-.04.78-.06 1.71v.66c-.02.37-.33 2.41-.62 2.43-.02 0-.09-.24-.11-.3-.05-.16-.11-.31-.18-.44-.12-.23-.23-.45-.36-.66s-.25-.37-.4-.55c-.13-.16-.49-.59-.49-.59-.4-.54-.58-.62-.79.12-.17.61-.4 1.09-.71 1.55-.36.53-.83.92-1.37 1.26-.29.19-.77.49-.93.56-.15.07-1.11.49-1.07.24 0 0 .62-.45.73-.52.26-.18.55-.4.85-.64q.15-.1.24-.18c.14-.11.27-.22.4-.34.13-.11.34-.31.42-.37q.21-.16.22-.18c.06-.08.17-.22.19-.23m31.99-1.68c-.28-.81.79-2.75 1.55-2.04.14.14.27.66.27.9l-.04.3-.04.48c-.02.24-.07.74 0 .78.27.13.75.55.88.83.11.24.03.57-.09.8-.03.05-.45-.25-.54-.31-.22-.15-.56-.39-.75-.42 0 0-.69.68-.88.87-.34.33-.73.73-1.01.92-.06.04-.71.44-1.16.71-.02.01-1.67.99-1.35.44.19-.32 1.67-1.37 2.52-1.97.39-.27.73-.6 1.06-.93.27-.27.34-.41.06-.66-.19-.17-.37-.45-.48-.7m-19.21 2.88c-.3-.84.94-4.77 1.38-5.35.26-.35-.2 1.33-.25 1.46-.25.7-.48 1.48-.57 2.25-.1.81.82 3.5 1.33 1.73.32-1.12.39-.19.24.4-.15.6-.33.97-.57 1.42-.19.35-.92-.24-1.02-.39-.27-.42-.52-.82-.55-1.5m46.97-1.65s-.3-.26-.53-.45c-.18-.16-.39-.34-.47-.59-.25-.73.42-2.1.95-2.27.28-.08.47.03.7.17.32.19.37 1.91.37 2.3 0 .23.19.39.42.6.24.21.38.68.15 1.04-.05.08-.41-.17-.49-.23-.18-.13-.42-.3-.62-.24-.02 0-.17.19-.26.29-.09.12-.18.22-.28.32-.17.18-.4.38-.62.56-.1.08-.21.18-.3.27-.11.1-.18.17-.31.26 0 0-.19.17-.28.26-.06.06-.24.17-.36.25-.73.48-1.71 1.13-2.26 1.41-.4.2-.85.42-1.27.56-.19.06-1.24.41-1.25.4-.11-.12.66-.59.74-.64.09-.05.63-.36.91-.52.29-.16.59-.34.86-.54s.65-.43.98-.63c.57-.35 1.17-.77 1.74-1.16.21-.15 1.53-1.23 1.49-1.4m-28.32 4.9c-.17-.21.41-1.09.54-1.27.19-.26.65.08.86.23s.6.43.81.44c.07 0 .35-.51.41-.62.1-.19.23-.45.4-.52.26-.11 1.42.83 1.53 1.16.11.31-.46 1.33-.71 1.39-.06.02-.46-.28-.72-.47-.24-.17-.7-.52-.75-.53-.03 0-.28.42-.35.54 0 0-.14.27-.14.28-.07.17-.14.32-.24.41-.24.24-1.67-.97-1.66-1.06m14.69 1.31c-.28-.77-.45-1.39-.21-2.35.09-.35.54-1.79.76-1.64 0 0-.25.75-.28.83-.11.34-.19.71-.24 1.08-.06.48.21 1.02.43 1.28.11.13.4.32.56.17.11-.11.13-.13.18-.28q.03-.08.08-.32c.02-.11.05-.2.09-.29.1-.24.14.57.11.7-.06.28-.14.57-.26.8-.36.66-.78.39-1.23.03m13.43-1.03c.1-.45.19-.91.3-1.16l.06-.12.06-.18.08-.18q.08-.18.16-.32c.09-.16.11-.19.12-.28l.14.05s-.05.24-.08.31c-.05.13-.1.26-.16.36-.2.36-.29.67-.32 1.18-.02.27.18 1.09.46 1.19.22.07.44-.07.54-.23 0-.01.08-.23.09-.26.04-.13.07-.2.18-.2.13 0-.1.77-.14.88-.15.39-.31.7-.75.78-.25.05-.48-.33-.56-.5-.07-.14-.1-.28-.14-.44l-.04-.16zm-57.59 1.57c-.18-.38-.15-.86-.09-1.27.02-.15.22-1.54.32-1.5.12.06.06.63.05.73-.03.3-.07.62-.04.84.05.41.35.65.75.7.32.04.56-.24.69-.44.05-.08.02-.46.02-.58l-.04-.6-.05-.47c.02-.14.21-.99.36-.71 0 .01.09.76.12 1.02.02.15.07.56.14.72.21.45.53.62 1.16.55.11-.01-.09-.55-.11-.6-.08-.21-.14-.43-.18-.68-.09-.48-.15-1.27.2-1.51 0 0 .81 2.23.65 2.56l-.04.2s-.01.05-.08.28c-.07.26-.12.42-.27.59-.22.26-.61.3-.96.19-.16-.05-.27-.14-.39-.23s-.25-.2-.37-.14l-.09.13-.09.13-.18.2c-.13.13-.26.22-.42.31-.29.17-.77-.21-1.06-.43m7.58.13c.2-.88.43-1.86.88-2.52.35-.52-.11 1-.11 1-.17.44-.34.9-.32 1.22.02.5.06 1.24.51 1.39.14.05.24-.04.32-.18.09-.16.26-.44.3-.43.06.01-.13.85-.15.94-.08.3-.29.69-.59.74-.68.13-.79-1.61-.83-2.15m-5.14 2.75c.43-.09 1.75 1.1 1.84 1.45.06.25-.43 1.08-.61 1.18-.24.15-1.31-.74-1.56-.96-.45-.38-.17-1.38.33-1.67m45.47 2.54c-.1-.61-1.57-1.01-2.15-.59-.32.24-.57.58.02.74.38.11 2.14.19 2.13-.15m-13.89.7c-.04-.45-1.87-1.55-2.34-1.49-.13.02-.96 1.59-1.05 1.85-.42 1.25 1.14 1.13 1.75.84.27-.13 1.64-.96 1.64-1.2m-3.6 2.84c-.21-.44-.39-.81-.43-1.26-.06-.66.15-1.63.36-2.23.09-.24.19-.47.3-.7.1-.22.32-.68.26-.76-.27-.3-.87-.75-1.25-1.04 0 0-.37-.39-.55-.58-.1-.11-.2-.21-.31-.29-.08-.05-.3-.19-.3-.24-.04-.57-.09-1.36.07-1.72.03-.07.19.04.23.07.14.1.29.21.44.26q.16.05.28.1l.2.08q.2.08.37.14c.3.11.8.31.93.38.12.07.17.29 0 .34-.22.07-.54.16-.54.22-.01.17 1.16.91 1.39.95.04 0 .55-.62.73-.84l.18-.21.08-.12q.1-.12.15-.21l.42-.51.23-.32.09-.13c.18-.24.6-.81.73-.83.33-.05-.52 1.95-.54 1.98-.18.28-.37.54-.57.8-.17.21-.52.66-.49.92 0 .02.31.21.38.25.13.08.27.16.38.24.11.07.22.15.48.42q.14.16.16.17c.29.2.5.86.57 1.24.08.43-.25 1.58-.38 1.91-.13.31-1.08.94-1.6 1.28-.85.56-1.5.7-2.43.23m-27.35.81c.09-.52.55-2.32.95-2.33.08 0-.1.6-.1.6l-.12.28-.08.24c-.13.39-.24.72-.24 1s.33 1 .54 1.06c.17.05.29-.09.34-.22s.25-.63.34-.6c.04 0-.11.76-.14.88-.07.37-.18.61-.4.83-.71.71-1.13-1.07-1.1-1.75m52.32.42c.32-.16.77-.08 1.01.1s.48.28.89.18c.28-.07.52-.28.68-.47 0 0 .18-.28.25-.39.06-.1.18-.29.3-.14l-.04.24c0 .09.08.17.16.22.22.12.47.24.73.12.04-.02.16-.42.26-.76.05-.17.18-.47.3-.53.44-.24-.17 1.38-.2 1.46-.21.49-.51.99-1.23.78-.32-.09-.58-.16-.63-.13t-.22.18c-.08.07-.23.19-.32.23-.33.15-.65.21-.97.1l-.42-.24c-.11-.05-.63-.18-.83-.02l-.12.04-.24.12c-.25.12-.45.24-.67.38l-.24.16-.12.08-.24.16q-.11.07-.23.17c-.1.08-.21.17-.32.24-.45.29-.92.57-1.44.79-.02 0-.63.16-.86.22-.11.02-.25.06-.36.01-.19-.08.3-.23.3-.23.25-.02 1.9-1.16 2.41-1.53.72-.53 1.88-1.38 2.43-1.54m-34.52 2.07c.05.54-.72 1.44-1.12 1.15-.32-.23-1.25-.99-1.36-1.21-.18-.34.44-1.74 1.2-1.18.22.17 1.2.95 1.28 1.24m18.76 2.09c-.89-.55-1.65-1.27-1.86-2.49-.07-.43-.11-.93-.08-1.34.01-.15.08-1.2.08-1.2-.09-.06-2.26 1.39-2.42 1.51-.17.13-1.74.97-2.9 1.59-.93.5-2.05.8-3.25 1.06-1.25.28-3.83.81-4.16.83-.59.04.95-.7 1.09-.75.09-.03.22-.07.28-.1.15-.07.32-.14.48-.2l1.05-.4c.57-.22 1.11-.46 1.63-.68.26-.11.51-.23.75-.36.23-.13.53-.29.86-.44l.18-.08.14-.08.22-.14c.15-.08.34-.19.65-.36l.14-.06.22-.14.14-.06.26-.16c.14-.08.44-.24.44-.24.12-.08.28-.16.45-.24l.26-.16c.15-.09.28-.16.44-.24.08-.04.26-.16.38-.24.11-.07.27-.16.4-.24.12-.07.24-.16.36-.24.1-.07.34-.24.34-.24l.12-.08.14-.08.12-.08c.15-.11.33-.24.36-.25.66-.29 3.53-2.65 3.22-3.17-.8-1.32-2.29-3.94-2.46-5.22-.02-.19.22-1.42.38-1.39.1.03.19.17.28.32.08.12.25.3.39.44.09.09.28.28.28.28.15.12.25.21.39.34.22.22.6.6.64.65.09.13.18.38-.08.34-.21-.03-.67-.11-.7-.05-.06.13.62 1.28.78 1.53.31.5.69 1.11.79 1.7.12.7.11 1.41-.08 2.17-.22.86-.8 1.4-1.38 1.93-.11.1-.48.41-.51.43l-.33.23c-.36.43-.36 1.31-.36 1.74 0 .57.31 1.16.55 1.52.17.26 1.12 1.09 1.28.99l.24.08.12.04c.47.1.77.08 1.37.04.67-.05 1.92-.46 2.32-.78l.16-.08.38-.24.14-.08.48-.32.32-.24c.46-.32.91-.69 1.34-1.05.81-.67 1.8-1.53 2.31-2.48.08-.15-.08-.56-.22-.6-.16-.04-.34.03-.5.1-.14.06-.51.11-.81.16-.56.09-1.15.16-1.59.16-.27 0-.92-.35-1.3-.55-.7-.38-.33-2.14-.1-2.76.12-.31.76-1.03 1.07-1.16 1.02-.44 1.74-.04 2.41.51.26.22.48.44.69.7.14.17.62.78.67.77.35-.05 1.38-.74 1.77-1.03.5-.37 1.43-1.06 1.62-1 .14.04.14.36.14.46 0 .44 0 .96.1 1.16.09.17.2.35.35.46q.21.16.34.28l.28.14c.08.19 1.35.17 1.49.16 1.13-.09 1.73-1.04 2.26-1.87q.05-.07.12-.22l.08-.14.08-.18.08-.18c.11-.2.25-.39.42-.54.32-.28.22.36.15.52-.11.25-.35.81-.34.86.05.68 2.24 1.54 2.86.87.08-.09-.17-.62-.21-.69-.15-.24-.32-.52-.3-.62.06-.36.23-1.25.4-1.34.41-.22 1.06 2.26.83 2.62l-.02.2-.04.28c-.02.09-.11.36-.14.42-.08.17-.18.39-.29.54-.21.27-.45.42-.84.51-.42.09-.97.07-1.45-.14-.3-.13-.6-.28-.82-.49-.09-.09-.19-.19-.27-.29-.11-.14-.32-.41-.39-.39-.02 0-.16.25-.17.27-.08.15-.16.3-.24.42-.07.1-.46.54-.57.56 0 0-.19.14-.22.16-.11.09-.25.16-.38.22-.26.11-.55.21-.85.28-.35.08-1.08.06-1.45-.1-.3-.13-.94-.52-1.05-.8-.2-.53-.44-1.15-.47-1.42-.02-.2-.79.45-.79.45-.04.04-.45.34-.62.47-.74.54-.99.72-1.04 1.55-.07 1.11-1.24 3.3-2.03 3.58 0 0-.6.54-.72.66-.23.22-.47.47-.67.63-.1.08-.46.38-.87.71l-.25.15s-.25.17-.25.17l-.26.16c-.63.45-1.32.71-2.14.98-.54.18-1.1.24-1.74.24-.23 0-.55-.06-.81-.12-.04 0-.26-.09-.28-.1-.11-.05-.27-.12-.3-.12m-43.23.35-.25-.33c-.08-.12-.24-.34-.24-.34-.19-.34-.35-.74-.47-1.12-.35-1.15-.04-2.59.2-3.65.08-.35.16-.72.24-.96.14-.41.36-1.09.29-1.2-.64-.98-.94-1.59-.7-3.14.08-.52.41-1.84.65-2.77.11-.45.24-.98.34-1.24.34-.93.34.34.22.76-.28.96-.5 1.99-.68 3.07-.11.65.2 1.69.56 2.04.23.23.51.24.72 0 .09-.1.13-.18.17-.33.06-.21.11-.36.2-.54.14-.31.25.22.25.22.03.14-.02.44-.08.64-.08.28-.17.6-.26.8-.11.25-.26.39-.45.55-.3.25-.46.38-.54.53-.06.11-.23.76-.32 1.12-.06.22-.11.46-.16.68l-.08.32v.46l-.04.2c-.21.24.32 1.67.43 1.89.16.35.81 1.08 1.15 1.22.69.3 1.65.71 2.12.86.57.19 2.38.07 2.87-.04 1.45-.32 2.71-.74 3.95-1.18.7-.25 3.46-1.75 3.61-2.33.11-.4-.38-2.27-.54-2.61-.28-.56-.77-1.57-.83-2.01-.02-.18.25-1.16.37-1.26.18-.16.6.8.7 1.02.14.31.39.85.63.99.43.24.83.46 1.35.71.34.17 2.44.06 2.86-.08l.37-.08q.27-.05.36-.08l.16-.04.16-.04q.12-.03.28-.08c.21-.06.4-.13.61-.2l.16-.06.16-.06.16-.04.12-.04c.81-.27 1.58-.55 2.35-.85.16-.06-1.44-.46-1.51-.48-.14-.03-.61-.14-.89-.2s-.64-.14-.85-.2c-.57-.16-1.22-.29-1.82-.4-.49-.09-.83-.12-1.29-.12q-.52 0-.73.04c-.23.05-.44.09-.54.03-.22-.12.41-1.27.51-1.41.17-.25 1.39-.39 1.81-.43l.58-.04h.22l.56-.04h.28c.43-.03.99-.09 1.37-.22.29-.1-.18-3.14-.26-3.69-.08-.5-.16-1.04-.24-1.49-.08-.46-.17-.91-.24-1.4-.17-1.11-.34-2.27-.49-3.41-.04-.29-.12-1-.12-1-.02-.27-.04-.48-.08-.8-.05-.43-.15-1.2-.16-1.24-.04-.18.41-1.27.49-1.39.11-.17.24-.04.28.11.06.27.17.74.18.76.15.35.31.67.49 1 .33.61.95 1.9.9 2.64-.01.22-.52-.33-.55-.36-.08-.1-.37-.43-.47-.27-.05.09.33 2.67.42 3.17l.24 1.36.04.24.04.28.04.24c.04.24.08.45.12.68.17.94.31 2.28.36 3.01.05.66.01 1.15-.18 1.73-.05.14-.1.3-.16.44-.07.17-.18.44-.16.48.03.07.85.27 1.13.34.23.06.49.12.69.16.26.05.52.11.76.16.53.12 1.08.22 1.61.32.29.05.88.16.89.16.19.03 1.16.18 1.2.09.09-.19-.33-3.95-.46-4.61-.08-.43-.39-2.88-.56-4.29-.2-1.61-.49-3.9-.56-4.86-.03-.33-.06-.75-.18-1-.15-.31-.17-.38-.04-.72.1-.26.44-1.17.59-1.14.08.02.25.44.3.58.09.24.21.57.28.7.08.16.16.32.22.5.07.21.14.42.22.6 0 0 .16.32.16.32l.08.16.08.2c.09.19.2.46.26.6 0 0 .13.37.2.56.04.11.19.83-.02.7-.3-.18-.52-.47-.73-.74-.35-.47-.14 1.03-.1 1.28l.48 3.89s.17 1.33.24 1.85c.04.27.08.71.12 1.08.02.24.1.74.16 1.12.09.58.16 1.03.2 1.65.02.31.12 1.64.3 1.71.69.24 2.14.22 2.88.16.21-.01-.4 1.54-.51 1.7-.05.07-.77 0-.88-.01-.24-.03-1.32-.17-1.41-.05-.05.08-.11.62-.15.91-.03.32-.1.62-.16.92-.11.48-.22.98-.38 1.37-.05.12-.34.45-.35.14l.04-.3v-.6c-.03-.38-.04-.84-.04-1.23s-.07-.85-.15-1.3c-.02-.12-.62-.02-.8.01-.35.06-.7.11-1.05.16-.17.02-.92.21-1.37.32-.77.19-1.57.44-2.26.72-1.47.61-2.96 1.03-4.64 1.4-.52.11-1.07.12-1.49.12-.34 0-.65 0-.89-.04-.33-.05-.72-.12-.84-.09l-.07.37v.26l-.04.36c-.02.15-.08.4-.12.6-.09.42-.2.76-.34 1.1-.39.9-2.65 2.08-3.75 2.63-.69.34-1.46.6-2.26.86-.36.12-.77.22-1.17.32-.03 0-.53.1-.69.12-.23.04-.83.14-.89.16-.54.15-2.31-.01-2.79-.2-.46-.18-1.06-.42-1.27-.54-.18-.1-.43-.27-.74-.49-.13-.12-.29-.26-.32-.28m21.15.82c.47-.25 5.93-2.39 5.98-2.39.14.01-.18.89-.32.94 0 0-.6.29-.74.36-.03.01-.55.21-.89.34-.57.21-1.11.42-1.69.64-.2.08-.54.21-.64.24-.32.11-.63.22-.93.34-.25.1-.77.3-.85.32-.32.09-.04-.7.09-.79m-9.47.79c.24-.3 6.89-2.8 6.89-2.8.21.04-.3.92-.36.95 0 0-.66.28-.86.36-.31.12-.95.38-.99.4-.06.04-.51.2-.75.28 0 0-.73.3-1.01.42-.64.27-1.26.53-1.89.78-.13.05-.48.2-.48.2-.29.16-.46.25-.65.26-.34.02-.05-.84.1-.86" fill="#1d1d1b" fill-rule="evenodd"/></svg>