<svg viewBox="0 0 76.51 29.14" xmlns="http://www.w3.org/2000/svg"><path d="m22.95 3.2c.54-.16 2.65-1.2 3.89-1.81.64-.32 1.39-.65 2.12-.94.05-.02.3-.13.32-.14l.12-.06q.29-.11.36-.14c.13-.06.46-.2.42.04-.02.13-.19.59-.28.6 0 0-.72.32-.95.42-.32.14-.63.28-.95.42l-.18.08-.24.14-.2.06-.16.08-.2.08-.16.08q-.11.07-.24.12l-.65.3-.16.06-.18.08c-.17.08-.35.16-.52.24l-.18.08-.2.08-.2.08c-.22.1-.68.32-.68.32-.29.12-.6.25-.87.4-.54.29-.11-.58-.01-.67m22.85.88c.2-.65-.37-1.61-.83-.78-.14.26.09.5.26.67.13.14.48.39.57.11m25.81-.56c0 .4.86 1.07 1.22.98.25-.06-.18-1.17-.24-1.23-.16-.16-.42-.22-.65-.1l-.18.18zm-56.42 1.43c-.17-.74.54-3.67 1.07-3.57.04 0-.32 1.1-.34 1.16-.18.53-.39 1.15-.36 1.65.01.24.28.57.46.66.24.11.38-.17.42-.34.04-.18.15-.59.24-.59.42 0-.49 1.74-.66 1.85-.4.26-.79-.59-.83-.82m15.83.09c-.2-.19-.48.03-.61.17-.17.19.43.6.6.71.39.26.33-.04.28-.28-.04-.19-.06-.32-.19-.47zm30.1-1.62c.92-.24 2.82 2.02 2.99 2.68.12.48.19-1.67.19-1.84 0-.63.16-1.1.46-1.55.65-.95 1.26-1.16 1.76.08.09.21-.09.62-.23.78-.04.04-.38-.29-.44-.35-.12-.11-.22-.21-.35-.29s-.47.18-.62.29c-.13.1-.13.95-.13 1.22 0 .72-.12 1.86-.2 2.51-.01.1-.16 1.24-.45.82l-.04-.2s-.09-.26-.1-.28c-.05-.11-.21-.35-.32-.52-.27-.41-1.02-1.52-1.37-1.55-.43-.03-.69-.19-1.08-.43-.3-.18-.38-1.15-.06-1.37m-41.98 2.56c-.06-.97.99-5.05 1.47-5.22.18-.06-.06.7-.1.82-.09.28-.16.52-.24.8-.19.66-.38 1.32-.53 2.05-.22 1.1.77 3.45 1.33 1.49.31-1.06.31.41.2.84-.13.51-.31 1.11-.83 1.22-.27.06-.64-.17-.73-.37-.26-.58-.6-1.34-.58-1.64m30.61 1.07c1.56-1.04 7.69-4.65 8.15-4.75.2-.04-.03.68-.07.78-.03.09-1.86 1.21-2.11 1.33-.73.37-1.63.91-2.4 1.39-.68.42-1.88 1.14-2.2 1.3-.4.2-.8.46-1.17.7-.14.09-.39.26-.49.18-.2-.15.14-.86.29-.94m-4.67-2.04c-.29-.16-.61-.66-.68-1.06-.11-.66.57-1.7 1.03-1.91.48-.22.7.22.79.58.05.2.03.36 0 .68-.01.12-.13 1.27-.05 1.27.09 0 .86.78.89.94.04.17-.03.45-.09.67-.02.09-.55-.29-.59-.32-.16-.12-.62-.44-.76-.39-.09.04-.34.33-.49.52-.09.11-.38.4-.57.6-.36.36-.75.68-1.18.98-.11.08-.26.16-.38.22-.21.1-.6.3-.6.3-.15.09-1.01.57-1.11.42-.17-.28 1.82-1.57 2.03-1.7.32-.21 1.93-1.37 1.75-1.79m-20.64 3.25c-.38-.41-.42-2.08-.17-2.67.09-.22.16.86.16.94-.02.28.06.55.18.74.26.42.76.45 1.1.08.35-.39.38-.69.29-1.3-.03-.22-.15-1.45.21-1.3.06.03.14.72.15.9.03.32.08.77.28.9.36.24.76.51.91.49.18-.02.15-.17.08-.33q-.05-.11-.16-.28c-.07-.11-.07-.11-.12-.26-.14-.41-.25-1.08 0-1.48.08-.12.86 1.64.9 2 .03.25-.18.92-.31 1.08-.21.26-.8.29-1.1.13-.11-.06-.25-.17-.36-.25-.12-.09-.24-.19-.34-.14l-.09.13-.16.3c-.11.15-.23.31-.37.43-.26.24-.9.26-1.09-.1m47.77-2.74c.02-.09-.41-.43-.58-.57-.14-.12-.44-.43-.43-.67.02-.8.58-2.83 1.63-2 .22.18.32.66.35 1.04v.54l.04.38c.02.45.03.61.16.76l.14.09c.08.07.19.16.25.25.16.24.21.58.05.89-.04.08-.44-.18-.52-.23-.13-.08-.41-.26-.46-.26-.1 0-.69.6-.9.81-.52.52-1.12 1.11-1.76 1.5q-.09.05-.48.32c-.16.1-.48.32-.48.32-.36.19-.78.45-1.17.68-.26.16-2.34 1.04-2.53.91-.09-.06.95-.71.95-.71l.16-.08c.15-.09.48-.28.48-.28.63-.38 1.32-.81 1.86-1.16 1.2-.79 2.21-1.6 3.25-2.53m-41.49 1.38c-.14-.03-.83-.86-.88-1.06-.08-.32.16-1.08.38-1.3.23-.23.42-.42.77-.48.21-.04.5.39.54.58.04.2.12.56.12.7q0 .3-.04.54c-.04.23-.07.42 0 .54.11.2.28.49.29.55.02.15-.08.9-.26.71-.14-.15-.35-.37-.53-.3-.04.01-.15.18-.17.21-.08.12-.16.24-.35.43l-.39.42c-.24.28-.72.8-1.03.95-.13.06-.87.57-1.33.89-.07.05-1.88 1.03-1.55.59 0 0 .89-.69 1.11-.84.31-.22.86-.66 1.29-1l.21-.17.33-.23.47-.45c.22-.18 1.13-.95 1-1.26m13.16 3.4c-.08-.31.42-1.15.6-1.3.13-.11.92.4 1.26.62.36.23.47.03.62-.26.14-.27.32-.59.5-.74.29-.24 1.48.99 1.59 1.16.2.31-.68 1.41-.79 1.39-.17-.02-.52-.43-.66-.59l-.37-.2c-.18-.13-.33-.23-.48-.19 0 0-.36.69-.41.79-.15.33-.26.55-.62.32-.42-.27-1.05-.67-1.25-1m-38.71-4.61c-.03-.09-.18-.09-.29-.09q-.22 0-.36-.06c-.21-.08-.58-.22-.66-.35-.17-.26-.47-1.26.05-1.46.44-.16 1.48.85 1.81 1.17.1.09.4.51.57.75.09.12.61.85.66.82s.05-1.09.05-1.3c0-.41 0-.9.12-1.33.12-.44.33-1 .69-1.2.54-.31 1.27.88 1.07 1.4-.15.4-.39.19-.65-.03-.2-.18-.65-.55-.84-.17 0 0-.02 1.49-.02 1.79 0 .24-.09 1-.16 1.55-.09.73-.22 1.79-.47 2.2-.46.76-1.35 2.05-2.27 2.23-.33.06.97-1.31 1.01-1.35.4-.4.78-.81 1.06-1.33.44-.81.23-1.13-.24-1.83-.26-.39-.92-1.32-1.12-1.41m53.45 5.94c-.18-.51-.34-.94-.37-1.39-.04-.53.6-2.58.91-2.61.06 0-.12.47-.12.48l-.08.18c-.08.16-.09.17-.1.22-.1.36-.23.84-.2 1.24.05.53.46 1.57 1.02 1.24.11-.06.15-.25.19-.39.05-.19.13-.52.26-.52.1 0-.05.78-.06.84-.07.29-.13.53-.27.76-.33.54-.84.47-1.18-.05m13.61.29c-.24-.48-.2-1.01-.14-1.52.05-.45.59-1.84.79-2.02.25-.23-.17.78-.17.78-.19.38-.27.55-.3 1.12-.03.45.17.89.4 1.14.15.16.36.05.5-.06t.13-.23c.07-.16.15-.35.24-.3.21.13-.33 1.23-.4 1.33-.42.56-.76.17-1.05-.22m-61.92-3.28c.04.09-.15.86-.25 1.26-.14.56-.26 1.01-.24 1.6 0 .24.36.74.54.82.17.08.37.07.44-.12.11-.3.24-.63.25-.64.17-.1-.05.86-.07.94-.08.34-.23.74-.55.82-.1.03-.39-.13-.66-.29-.23-.13-.37-1.03-.41-1.32-.02-.11.26-1.4.36-1.83.07-.25.35-1.36.57-1.26m8.12 5.01c-.31-.27-.17-1.98 0-2.42.08-.2.17.49.17.51v.18l-.04.38c0 .17.07.41.18.5.24.18 1.02.42 1.15-.1.04-.16-.02-.83-.04-1q-.04-.37 0-.52c.04-.18.13-.58.25-.51.08.04.14.71.15.88.03.37.09.59.27.84.15.2.47.25.79.22.16-.02 0-.42-.02-.5-.09-.22-.17-.47-.22-.72-.04-.22-.06-.36-.04-.52q.01-.13.08-.36c.03-.11.05-.19.06-.32.01-.17.25.37.26.4.04.16.09.3.14.44.17.46.4 1.07.42 1.27.03.24-.19.94-.36 1.04-.16.09-.48.28-.51.29-.22.02-.45.02-.62-.06-.22-.1-.37-.17-.55-.06q-.05.08-.2.19c-.14.11-.3.24-.49.29-.32.09-.74-.03-.85-.32m8.85 0c.16-.4.48-1.17.67-1.28.24-.13 1.89.99 1.68 1.42l-.06.16q-.06.15-.21.39c-.13.28-.14.3-.15.31-.23.37-.28.33-.59.09-.09-.07-.44-.32-.64-.47-.23-.17-.57-.41-.7-.63m35.04 3.95c-.46-.55-1.59-1.28-2.3-.46-.4.47-.02.6.46.69.28.05 1.84.07 1.84-.23m-41.07.33c.15.26 2 .93 2.26.6.13-.16-.67-1.15-.79-1.2-.31-.13-.6-.25-.95-.08-.17.08-.66.45-.53.68m-15.63-.52c.06-.4.85-3.82 1.07-3.03.02.07-.21.76-.28.94-.17.46-.26 1.02-.3 1.59-.02.29.29.86.49 1.24.1.18.4.19.59.12.03-.01.19-.28.21-.34.05-.16.18-.6.22-.6.18 0-.16 1.15-.18 1.2-.1.3-.24.68-.54.78-1.03.34-1.2-1.2-1.27-1.91m42.81.84c-.21-.5-1.68-1.39-2.25-1.51-.19-.04-1.06 1.58-1.13 1.83-.06.21-.05.73.14.88.26.21.37.28.85.26.56-.02 2.47-1.18 2.4-1.47m-9.18 2.28c.38-.41-1.2-1.43-2-.95-.27.16.54.73.64.8.29.2 1.06.57 1.36.15m5.52.52c-.21-.15-.33-.81-.41-1.21-.09-.45.25-1.82.4-2.23.07-.18.19-.43.28-.64.17-.36.28-.6.25-.8 0 0-.34-.28-.35-.29-.12-.08-.23-.17-.34-.25-.08-.06-.41-.37-.6-.54 0 0-.35-.4-.54-.62-.03-.03-.2-.16-.29-.23-.09-.06-.26-.18-.26-.24-.07-.53-.12-1.16.05-1.63.06-.17.28.05.31.08.09.09.2.13.35.19.28.11.56.22.85.32.24.09.57.22.73.28.13.06.43.19.3.41l-.18.05c-.14.03-.37.08-.39.09-.37.19 1.22 1.05 1.34 1.08.05.01.55-.6.71-.8l.09-.13s.15-.18.17-.19q.08-.09.15-.2s.17-.25.17-.25c.18-.24.37-.49.57-.72.11-.13.21-.27.31-.41s.29-.4.36-.44c.43-.23-.32 1.74-.4 1.87-.34.51-.9 1.33-1.11 1.59-.14.17.41.5.51.56.23.14.47.31.66.5.39.4.72.9.77 1.59.12 1.49-.63 2.21-1.53 2.81-.8.53-1.92 1.24-2.9.43m-6.42-17.54c.06-.37.35-1.15.55-1.4.17-.21.28.47.3.55.04.23.11.42.18.58q.06.14.16.32c.1.17.1.18.14.26l.06.14.14.26.12.24c.3.59.93 1.93.88 2.48-.04.39-.6-.3-.63-.34-.13-.17-.32-.43-.48-.45s.21 2.59.26 2.93c.04.3.08.57.12.88l.04.28q.07.35.08.48c.08.65.16 1.29.28 1.89.38 1.9 1.03 5.34.89 6.87v.14l.04.36c0 .34-.05 1-.08 1.47-.03.41-.06.7-.16 1.04-.06.22-.4 1.39-.66 1.12-.02-.02.01-.68.02-.84v-.34c0-.79 0-1.19-.04-1.63l-.08-.96q-.01-.26-.02-.28c-.09-.48-.15-1.03-.18-1.48-.04-.51-.38-3.03-.6-4.74-.21-1.53-.7-5.12-.73-5.26-.15-.86-.28-1.84-.36-2.69-.04-.34-.09-.84-.16-1.16-.07-.3-.13-.58-.08-.72m-23.47 15.46c.25.8.97 1.54 1.86 1.71.53.1 1.14.03 1.59-.18s.95-.48 1.19-.9c.26-.45.49-1.05.67-1.55.18-.49.59-1.16.92-1.68.22-.36.66-.79 1.12-.91.8-.22 1.35.51 1.78 1.09.41.55.61 1.45.71 2.25.26 2.14-2.04 1.66-3.21 1.24-.21-.08-.51-.21-.68-.35-.35-.29-.43-.36-.61.13-.21.56-.44 1.16-.75 1.58-.32.42-.88.71-1.43.89s-.97.19-1.53.12c-.44-.05-1.25-.49-1.49-.83l-.1-.14c-.1-.12-.18-.23-.27-.37-.15-.23-.29-.44-.4-.72s-.22-.56-.3-.88c-.04-.16-.23-.91-.34-.88l-.02.2-.04.24c-.04.18-.07.26-.14.4-.11.23-.26.47-.41.67-.23.31-.5.63-.77.9-.59.6-1.22 1.23-1.91 1.72-1.57 1.1-3.14 1.99-5.3 2.42-.51.1-1.43-.1-2.06-.24-.62-.14-1.26-.58-1.65-.96-.47-.44-.74-1.04-.99-1.71-.08-.22-.12-.51-.16-.8l-.08-.56-.04-.22.04-.4v-.22c-.1-.62.41-2.29.64-2.93.18-.51.31-.86.06-1.24s-.42-.81-.5-1.36c-.14-.91 0-2.01.24-2.85.32-1.13.7-2.44 1.08-3.2.23-.47-.27 1.92-.31 2.12-.07.31-.15.61-.24.88-.12.35-.31 1.23-.24 1.54.18.81.47 2.09 1.01 2.17.21.03.31-.25.36-.42.06-.2.16-.53.19-.59.18-.32.2.76.17.92-.06.35-.13.67-.26.94-.16.35-.47.41-.85.49-.18.04-.39.76-.48 1.06-.33 1.08-.4 2.35-.08 3.45.08.28.25.58.41.8.03.04.29.33.45.5q.13.11.16.16c.57.94 2.71 1.04 3.86.81.48-.09.93-.25 1.37-.4.23-.08.48-.18.69-.28.15-.07.32-.15.38-.18.17-.1.32-.18.42-.21.49-.14 3.1-2.23 3.48-2.67.64-.75 1.35-1.57 1.3-2.34-.05-.9-.46-3.56-.72-5.3l-.04-.24-.04-.28-.04-.24-.04-.28q-.05-.34-.08-.48t-.08-.52l-.04-.2-.04-.2-.06-.28-.02-.24-.04-.28-.04-.32-.04-.16-.04-.2-.04-.36-.04-.24-.04-.28-.04-.2q-.06-.45-.08-.52c-.05-.22-.09-.46-.12-.68-.12-.84-.28-1.97-.28-2.41 0-.3.32-1.63.48-1.71.06-.03.3 1.05.33 1.19.1.46.2.92.28 1.41.17 1.02.35 2.08.57 3.13.22 1.13.4 2.41.56 3.65.04.26.08.54.12.8.05.29.12.86.14 1.04 0 0 .08.64.1.8s.07.52.05.71c.01-.01.2 1.15.23 1.42.05.47.12 1.06.2 1.53.11.64.22 1.2.46 1.77m18.62 5.82c-.21-.54-.13-1.31 0-1.85.05-.22.13-.47.2-.68.01-.02.01-.03.14-.32.05-.12.2-.48.2-.48.01-.07.18.17.14.36-.02.13-.05.21-.1.32q-.09.21-.1.24c-.12.36-.2.68-.2 1.04 0 .38.22.82.49.96.22.12.39.01.48-.2.06-.13.23-.51.27-.49.1.04-.25 1.39-.38 1.53-.35.37-1.08.11-1.14-.43m36.22-2.39c.32-.13.61-.17.91-.02.38.19.71.35.95.3.33-.08.59-.26.78-.48.08-.09.15-.2.21-.31s.24-.48.32-.2l.02.3s.11.15.16.16c.25.06.6.15.71.06.04-.03.13-.34.24-.68.08-.26.17-.43.32-.6.17-.19-.05 1.02-.1 1.14-.13.34-.35.89-.61.98-.23.09-.53.2-.81.08-.25-.11-.47-.2-.64-.07-.32.25-.56.42-1.02.53-.21.05-.48-.1-.63-.18-.27-.16-.43-.24-.75-.22-.45.03-1.04.42-1.41.66-.2.13-.61.4-.61.4-.19.14-.53.38-.56.4-.15.08-.2.11-.28.17-.11.08-.24.18-.35.23-.24.12-.49.24-.71.34-.05.03-.21.06-.28.08-.15.04-.3.08-.44.12-.26.07-.78 0-.37-.16.58-.23 1.62-.92 2.44-1.47.75-.5 2.46-1.57 2.48-1.59m-52.32 2.47c.8-.48 7.72-3.36 7.72-3.36.19.06-.2.9-.32.96-1.35.61-2.92 1.31-4.2 1.77-.37.13-.77.3-1.13.48 0 0-.67.3-1.01.44l-.12.06-.16.06-.12.06q-.09.04-.24.12l-.28.12c-.3.12-.34.14-.35-.2 0-.1.05-.47.2-.51m36.7 1.65c-.92-.65-1.44-1.05-1.87-2.21-.17-.44-.16-1.08-.13-1.49.03-.32.1-1.08.08-1.31-.02-.22-1.49.84-1.53.87 0 0-.24.16-.36.24l-.38.24-.79.48c-.53.35-3.02 1.71-3.61 1.83-.43.08-.94.2-1.37.32-.49.14-1.03.23-1.57.32-.5.08-1.06.18-1.53.32-.35.1-1.5.37-1.68.32-.48-.14 2.77-1.35 2.89-1.4.38-.14 1.15-.47 1.7-.7.23-.1.47-.21.69-.32.29-.16.62-.33.89-.44 1.7-.71 3.86-2.13 5.49-3.21.71-.48 1.44-1 2.11-1.54.29-.23 1.76-1.47 1.42-2.07l-.06-.16-.06-.12q-.07-.17-.14-.28l-.24-.38c-.11-.21-.28-.52-.34-.6 0 0-.29-.52-.39-.71-.41-.77-.96-1.86-1.15-2.73-.02-.12.26-1.43.3-1.4.42.28 2.06 1.8 2.15 2.25.03.15-.37.04-.46.02-.19-.05-.28-.07-.44.04-.07.05.76 1.47.77 1.48.29.46.65 1.06.79 1.54.3 1.1 0 2.39-.46 3.25-.17.33-.58.7-.86.94-.35.29-.96.81-1.08.97-.18.26-.3 1.18-.26 1.49.12 1.1.79 2.22 1.84 2.55.53.17.98.18 1.65.18.58 0 1.87-.41 2.22-.66.15-.1.58-.34.85-.48.1-.05.25-.16.38-.25.11-.08.22-.15.33-.23.49-.32.97-.72 1.42-1.09.86-.72 1.62-1.62 2.37-2.52.15-.18-.07-.56-.2-.64-.08-.05-.29.02-.42.06-.2.07-.42.11-.65.16-.52.1-1.71.28-1.98.16-.62-.29-1.18-.54-1.28-.67-.45-.55-.27-1.52-.11-2.24.16-.7 1-1.55 1.72-1.71.43-.1 1.21.14 1.43.34l.46.33c.18.16.34.33.5.51.05.06.27.35.4.52.12.16.35.46.44.47.27.02 1.46-.78 1.81-1.03.54-.4 1.29-.95 1.52-1.02.18-.05.24.35.24.48l-.08.62c0 .1.05.32.1.4.71 1.21 2.21 1.68 3.59.76.42-.28.79-.61 1.02-1.07.28-.55.69-1.38 1.01-1.63.26-.2.1.49.07.58-.15.36-.32.77-.28.94.03.17.42.42.61.54l.14.08.14.08c.08.04.28.14.28.14.21.17 1.22.13 1.45.04.35-.14.19-.51.03-.78-.18-.3-.34-.57-.33-.69 0-.22.25-1.2.37-1.3.45-.38.9 2.08.88 2.5-.02.61-.28 1.17-.55 1.56-.48.66-1.42.6-2.21.37-.32-.09-.64-.34-.87-.53-.07-.06-.19-.2-.27-.3-.14-.18-.28-.35-.43-.32l-.09.13-.08.14-.08.14c-.07.11-.22.33-.35.45t-.24.27l-.23.16c-.27.28-1.1.55-1.58.61-.33.04-1.22-.04-1.51-.3-.31-.28-.79-.73-.81-.76-.1-.17-.2-.35-.26-.56l-.08-.32s-.08-.51-.16-.46c-.23.13-2.23 1.59-2.26 1.71-.01.03-.1.92-.12 1.16-.03.35-.07.69-.22.92l-.08.18-.24.4c-.04.05-.31.42-.45.61l-.27.3c-.05.05-.14.15-.18.21q-.07.08-.18.2c-.1.1-.25.24-.29.31 0 0-.23.22-.29.27l-.18.18-.22.18s-.47.43-.67.62c-.11.1-.22.2-.34.29-.16.11-.33.24-.44.34l-.21.17q-.18.13-.24.17s-.05.04-.23.15c-.08.05-.15.1-.22.16-.23.2-1.45.69-2.4 1.06-.9.36-2.05.18-2.87-.14m-46.87.97c.24-.1 1.4-.71 2.04-1.04.7-.37 1.58-.84 2.16-1.08.14-.06 1.15-.56 1.84-.9.06-.03.26-.12.4-.18.16-.07.52-.23.6-.29.09-.06.37-.2.35 0-.02.25-.07.67-.28.72-.35.08-1.58.75-2.1 1.04-.3.17-.65.34-.99.48-.32.14-.73.34-1.09.52-.11.06-.27.14-.38.2-.17.1-.4.22-.5.28-.12.07-.27.13-.4.18q-.07.03-.28.14l-.32.16c-.15.08-.27.14-.42.2 0 0-.39.2-.56.28-.14.07-.3.12-.28-.08.02-.17.07-.64.24-.64m15.07-.97c.1-.06.23-.11.36-.16l.32-.12c.23-.1.46-.21.69-.32l1.17-.58c.41-.21.93-.46 1.21-.62.19-.11.57-.32.57-.32.26-.16.26-.16.26-.16l.14-.08c.19-.13.24-.16.24-.16.43-.21.95-.62 1.39-.96l.13-.1c.05-.04.42-.38.42-.38l.24-.2c.08-.09.24-.27.25-.28.35-.24-.13-1.74-.28-2.14-.06-.17-.14-.38-.18-.48l-.08-.16s-.02-.05-.1-.24l-.15-.26-.07-.15c-.07-.15-.14-.35-.18-.5-.09-.35.14-1.11.27-1.38.15-.31.66.87.68.9.17.39.43.97.68 1.11.39.22.78.41 1.34.49.89.13 3.01-.27 3.62-.75.09-.07-.49-3.78-.58-4.09-.32-1.19-.53-2.94-.69-4.3-.17-1.48-.44-3.76-.65-5.1-.3-1.96-.33-2.16.18-3.69.03-.09.44.84.44.84.14.31.43.89.65 1.33.34.68.85 1.69.93 2.27.05.37-.47 0-.53-.09-.13-.17-.4-.49-.61-.46 0 0 .04.33.04.33l.08.64.04.48.06.36.02.2c.04.48.06.68.2 1.44s.23 1.5.32 2.29c.02.13.18 1.17.28 1.77.04.25.05.32.08.44q.05.22.08.48c.04.32.14 1.08.14 1.08l.07.16.04.2.04.2.04.24q.05.24.08.48l.04.28v.18c.06.28.28 1.14.36 1.34.09.23.36.17.62.1.49-.12 1-.2 1.53-.12.3.04.92.31 1.02.54.18.4.4.88.42 1.05.11.94-.29 2.74-.99 2.95-.83.25-1.6-.21-2.13-.67-.18-.15-.4-.45-.57-.7 0 0-.19-.35-.28-.54-.08-.17-.2-.4-.36-.42-.08-.01-.77.26-1.09.38-.28.11-.59.22-.89.3-.44.12-.9.19-1.33.24-.34.04-.62.06-.81.04-.45-.03-.98-.07-1.02-.05s-.11.75-.13.87c-.02.18-.07.46-.12.68-.03.14-.07.27-.12.4l-.12.24-.06.14c-.19.52-1.57 1.56-2.16 1.99-.56.4-1.18.82-1.8 1.12-.15.08-.32.16-.44.24-.19.13-.38.22-.61.32-.39.17-.88.37-1.23.6-.54.35-2.02.69-2.89.88-.33.07-.78.15-1.11.18h-.14l-.4.04-.38.04q-.26 0-.51.04l-.32.04-.24.04-.2.04-.16.04-.2.04c-.39.06-1.08.17-1.22.16-.34-.04.28-.39.38-.42.31-.07.65-.15.87-.24q.2-.08.38-.14l.16-.04.2-.06c.11-.04.66-.25.95-.36 0 0 .27-.09.3-.1l.12-.04q.24-.07.32-.1c.28-.11.58-.23.85-.34.41-.18 1.82-.74 1.82-.74" fill="#1d1d1b" fill-rule="evenodd"/></svg>