<svg viewBox="0 0 79.64 25.8" xmlns="http://www.w3.org/2000/svg"><path d="m17.93 17.05s.05-.02.05-.02l.18-.08.14-.06.24-.12.26-.14.18-.08c.29-.12.65-.31.97-.48.2-.1.84-.43.92-.42.12.03-.25.9-.43 1q-.07.03-.28.14l-.12.06-.37.2c-.2.1-.39.19-.6.28-.2.09-.56.24-.6.4-.23.73-.46 1.7-.43 2.55.02.49.12 1.01.38 1.27.32.32.57.57.97.74.41.18.96.11 1.41-.02.41-.12 1.67-.78 2.72-1.35.78-.41 4.13-3.4 3.99-4.02-.36-1.67-.79-3.64-1.37-5.06q-.04-.12-.1-.28t-.1-.28c-.03-.1-.07-.21-.1-.28l-.12-.28-.08-.16-.08-.2c-.09-.22-.22-.55-.28-.66-.17-.31-1.02-2.4-.2-2.48.45-.04 2.24 4.13 2.36 4.62.24.97.47 1.98.69 3.05.21 1.07.5 2.51.79 3.11.11.24.65.98 1.1 1.62.16.23.95.54 1.49.75 2.06.82 4.87-.94 6.31-1.84.04-.02-.18-1.18-.24-1.51l-.32-1.77c-.26-1.44-.45-2.55-.68-3.93-.11-.67-.24-1.44-.32-2.05-.09-.68-.32-2.37-.32-2.37-.13-.83-.23-1.67-.32-2.53-.04-.36-.08-.68-.18-.96-.11-.29-.24-.64-.18-.8l.08-.24.08-.28c.06-.19.25-.68.37-.78.07-.06.34.56.38.65.1.24.21.49.33.7.24.45.48.95.7 1.42.18.39.57 1.28.56 1.51 0 .35-.42.05-.5-.06-.13-.16-.4-.51-.56-.48-.03 0 .05.68.06.8.05.41.1.82.16 1.2.04.24.11.69.12.76l.04.24.04.36.04.24.04.2.04.32q.02.23.04.32c.02.1.07.34.08.44q.05.38.08.52l.04.24.04.28.04.28.04.2.04.28q.06.45.08.56c.3 1.64.88 4.62 1.24 5.37.02.03 2.14-.14 2.25-.17.14-.05.85.36 1.14.53.23.13.34.83.37 1.18.08 1.07-.25 2.25-.97 2.73-.28.19-.78.06-1.11-.02-.45-.11-1-.48-1.31-.77-.18-.17-.33-.37-.48-.57-.08-.11-.4-.54-.48-.51-.23.11-.44.24-.65.38-.21.15-.5.36-.68.46-.55.3-1.39.75-1.74.86-.75.25-1.6.45-2.52.54-.72.07-1.63-.23-2.22-.46-.34-.14-1.25-.82-1.39-1.14l-.18-.23c-.08-.11-.15-.23-.23-.35-.14-.22-.26-.48-.36-.72-.13-.28-.23-.57-.34-.88-.05-.14-.24-.66-.32-.62-.03.01-.18.64-.21.78-.03.12-.08.24-.14.34l-.09.13c-.12.15-.15.18-.16.2-.63 1.36-3.64 3.2-5.32 4.2-.63.37-2.42.77-2.99.22-.43-.26-.77-.59-1.01-1.04-.21-.39-.31-1.03-.42-1.71-.03-.19.12-1.2.2-1.63l.04-.24.08-.32c.05-.26.15-.78.15-.79-.01-.17-.86.18-.98.23 0 0-.34.15-.48.22-.17.08-.36.16-.52.18-.1 0 .14-.73.19-.78.08-.09.33-.2.55-.26 0 0 1.28-.56 1.31-.62m15.79-5.34s-.37.52-.38.53c-.33.43-.69.85-1.09 1.2-.44.39-2.28 1.9-2.63 1.84-.06-.05 1.82-1.92 1.98-2.08.71-.71 1.36-1.42 2.01-2.2.12-.14-.44-.56-.61-.68-.24-.18-.48-.42-.61-.72-.16-.38.12-1.21.31-1.56.07-.13.69-.62.8-.51l.2.02c.08.02.16.1.25.19.12.12.2.26.25.45.09.32.12.79.12 1.06 0 .22 0 .8.07.86.49.42.97.85.67 1.68-.03.07-.36-.26-.4-.3-.15-.15-.38-.34-.56-.38-.05.15-.37.58-.4.59m41.81-9.85c-.36-.38-.93-.04-.99.4-.02.21.76.69.96.76.6.22.26-.91.02-1.17m-26.78 1.37c.05-.8-.18-1.42-.8-.81-.26.26.03.54.2.7.1.09.57.47.59.11m-27.53-.52s.36-.17.44-.21.36-.18.36-.18c.27-.12.54-.25.81-.36l1.69-.72.16-.06.2-.08.16-.08.2-.08.4-.16.85-.36c.21-.1.87-.36.89-.36.46-.05.19.55.04.84l-.16.02-.2.04-.14.06q-.11.05-.34.14l-.14.06q-.17.09-.26.12c-.16.06-.32.12-.48.18 0 0-.72.3-1.01.42-.27.11-.75.32-.81.34-.58.22-1.19.48-1.78.74-.41.18-1.77.78-.88-.31m-5.7 1.58c-.15-.21-.2-.51-.18-.76 0-.13.09-1.44.19-1.39.1.04.1.6.1.65 0 .27.02.47.19.67.1.13.51.32.68.19.25-.2.55-.44.54-.58 0-.25-.05-.56-.12-.8-.05-.2.01-.72.15-.9.1-.12.29.66.3.78.02.26.06.71.33.81.29.1.93.29.71-.29-.07-.21-.41-1.59-.02-1.55.27.03.69 2.2.3 2.54-.21.18-.42.36-.66.39-.08.01-.37-.02-.44-.04l-.14-.06q-.15-.08-.42.14l-.09.13c-.11.13-.26.23-.42.33-.27.18-.85.11-.99-.26m16.2-2.78c.26 0 .04.65-.02.84-.15.45-.24 1.05-.24 1.49 0 .33.37.9.63.96.3.07.35-.1.42-.36.04-.13.15-.53.24-.36.14.26-.27 1.4-.39 1.56-.13.17-.22.21-.5.17-.74-.12-.78-1.5-.73-2.21 0-.02.28-1.02.58-2.09m32.22 1.77c-.06-.19-.02-.99.18-1.02.68-.1 1.75.85 2.06 1.24.22.28.44.56.65.84.39.53.46.64.46-.08 0-1.23 0-2.71.82-3.36.92-.73 1.54.51 1.19 1.39-.04.09-.46-.3-.47-.31-.15-.14-.3-.28-.49-.33-.36-.09-.58.43-.61.74-.02.15-.01.34 0 .48.01.15.04.7.04.7 0 .51-.09 2.68-.38 3.07-.14.19-.26-.28-.26-.28-.05-.2-.13-.35-.22-.5-.12-.19-.3-.48-.41-.61-.28-.34-.64-.76-.85-1.02-.07-.09-.21-.2-.33-.21-.25-.02-.47-.03-.54-.06-.34-.15-.68-.34-.83-.68m-54.42 1.22s-.54-.37-.85-.5c-.16-.07-.18-.08-.3.02-.17.14-.18.14-.43.02-.25-.11-.66-.29-.73-.42-.25-.48-.05-1.53.56-1.32.46.15.91.47 1.27.76.35.29.68.55.99.88.14.15.32.34.41.47.1.15.32.45.44.44.05 0 0-.47-.02-.64-.06-.49-.05-.8 0-1.12.1-.65.32-1.08.57-1.58.07-.14.5-.12.62-.07.61.29.83 1.18.58 1.83-.03.08-.45-.39-.51-.46-.18-.21-.45-.46-.74-.33-.25.11-.09 1.48-.04 1.9.06.56 0 1.14-.12 1.71-.04.2-.18.89-.32.55-.13-.32-.33-.66-.63-1.05l-.34-.41c-.1-.12-.49-.61-.43-.67m13.52-.18c0-.26.22.32.22.44.03.67.04.85.21 1.02.36.36.77-.05 1.04-.31.16-.16.06-.64 0-.87-.07-.32.01-.67.1-1 .09-.35.29.51.3.6.06.39.21.7.37 1.02.09.18 1.1.65.7-.42-.18-.49-.42-1.15-.07-1.68.13-.2.68 1.57.74 1.9.06.37-.24.91-.38 1.15-.02.04-.44.26-.52.26-.28.01-.46-.05-.64-.19s-.28-.22-.39-.21c0 0-.3.42-.31.44-.12.18-.29.29-.5.38-1.24.5-1.02-1.84-.87-2.53m29.68 1.85c1.02-.77 7.96-4.97 8.14-4.95.21.02-.11.82-.18.89-.45.39-1.47.98-2.17 1.37-.73.41-1.45.87-2.14 1.33-.72.48-1.48.95-2.22 1.37-.35.2-.7.42-1.03.64-.13.09-.52.35-.59.32-.06-.02-.02-.89.18-.96m-34.72.06c-.14-.38.46-1.6.81-1.47.24.09.94.74 1.09.96.26.39-.37 1.22-.55 1.46-.18.23-1.34-.93-1.35-.96m30.12-1.91c0-.11-.08-.17-.16-.24q-.1-.08-.19-.19c-.11-.14-.22-.3-.32-.47-.19-.35.07-1.09.2-1.42s.43-.62.73-.78c.21-.12.54 0 .6.2.12.38.22.78.18 1.22-.01.14-.08 1.02-.02 1.12.03.05.13.11.2.16.09.06.23.17.34.26.17.13.33.28.41.51.07.19-.05.69-.2.71 0 0-1.05-.7-1.07-.73-.06-.07-1.42 1.34-1.52 1.44l-.43.36q-.1.07-.29.23c-.11.08-.2.14-.23.17-.19.19-2.61 1.43-2.87 1.41-.13-.01.41-.52.45-.54.09-.07.24-.15.39-.23l.38-.24c.13-.08.37-.27.55-.42.2-.17.43-.32.65-.48.47-.33 2.23-1.66 2.21-2.04m27.12-.24s-.37-.36-.53-.49c-.2-.17-.48-.41-.52-.63-.13-.79.34-2.02.99-2.23.28-.09.55.09.66.24.2.25.3 1.17.37 1.87q.07.67.28.82c.12.08.19.15.28.26.16.2.25 1.12-.05.93-.27-.17-.54-.34-.81-.52-.04-.02-.61.55-.72.65-.24.24-.61.6-.76.72-.24.18-.51.43-.72.65-.03.03-.28.22-.41.32q-.19.14-.21.15-.15.09-.26.17c-.53.43-3.54 2.25-4.21 2.06-.13-.04.61-.52.65-.55.35-.2.72-.43 1.07-.64.62-.38 1.26-.82 1.92-1.29l.14-.08.14-.08.44-.32c.31-.2.59-.43.88-.66s1.39-1.16 1.38-1.35m-41.39 4.86c-.33-.19-.7-.4-.94 0-.13.21.47.57.61.66.63.38.57-.16.33-.65m-16.91-.14c-.17-.5.81-1.42 1.41-1.03l.13.09q.17.14.49.39c.15.1.26.19.42.17 0 0 .31-.55.35-.64.09-.2.25-.47.46-.52.06-.01 1.06.74 1.34.96.45.34-.14 1.53-.51 1.65-.06.02-.69-.45-.88-.59-.28-.2-.64-.47-.98-.21-.05.08-.13.2-.18.25q-.12.14-.15.2c-.09.17-.18.34-.26.38-.24.13-1.48-.91-1.65-1.1m30.04.68c-.16-.12.5-1.21.62-1.32.13-.12 1.11.5 1.36.65.25.16.44-.18.57-.42.12-.23.31-.59.51-.66.32-.13 1.72 1.03 1.53 1.53-.08.21-.57 1.01-.75 1.03-.01 0-.43-.3-.67-.46-.26-.18-.74-.52-.84-.49-.05.01-.29.57-.33.65-.08.19-.26.59-.38.58-.23-.01-.6-.26-.91-.46l-.24-.17-.14-.08-.33-.37zm15.15-2.95c.07.04-.12.6-.16.72-.13.4-.28.91-.24 1.4.04.56.45 1.45 1.01 1.26.11-.04.2-.38.24-.54.04-.17.1-.41.24-.37l.04.27s-.05.37-.07.47c-.09.42-.24.73-.43 1.04-.12.19-.37.21-.58.13-1.18-.45-.82-3.89-.04-4.38m13.04 2.69c0-.08.35-1.1.71-2.17.06-.19.14.04.1.2-.05.17-.14.38-.22.56-.1.23-.33.74-.26 1 .12.5.27 1.08.41 1.18.3.22.43.06.59-.15q.04-.05.09-.19c.02-.08.12-.37.2-.29.4.41-.51 1.62-.82 1.68-.64.12-.75-1.35-.79-1.83m-66.48 6.66c-.25-.63-.4-1.28-.49-2.14-.05-.45.49-4.19.81-4.3.13-.04.04.77.04.77-.04.39-.11.97-.16 1.2-.07.3-.15.66-.16.92v.56q.04.42.04.44c-.05.59.38 1.79.87 1.83.27.02.34-.2.42-.42.02-.07.03-.08.08-.32.03-.15.07-.32.13-.46.13-.33.28.29.28.29.02.17-.03.55-.08.8-.06.32-.22.85-.38 1.07s-.42.46-.77.32c-.14-.06-.3-.2-.45-.36-.05-.07-.11-.15-.17-.21m15.19.13c-.25-.29-.06-3.15.43-3.57.21-.18-.04.85-.05.86-.12.49-.29 1.34-.1 1.77.11.25.25.42.51.5.18.06.25-.23.28-.38.04-.19.11-.51.3-.4.2.11-.27 1.45-.36 1.59-.4.58-.79 0-1.01-.36m41.7.51c.06-.17-.65-.7-.86-.75-.81-.2-2.21.45-1.41.82.61.29 1.67.22 2.27-.07m-13.88.91c.07-.43-1.99-1.53-2.38-1.44-.1.02-.97 1.61-1.01 1.85-.07.41.03.6.21.9.53.88 3.01-.94 3.18-1.3m-11.77 2.09c.17.39 1.5 1.04 1.98.63.35-.3-.54-.77-.72-.81s-.45-.04-.67-.04c-.05 0-.72 0-.59.22m8.25.83c-.66-.4-.47-2.24-.31-2.98.05-.26.16-.57.26-.82.07-.18.15-.37.24-.54.08-.16.24-.47.2-.54 0-.02-.45-.37-.66-.54-.24-.19-.47-.39-.69-.6-.19-.19-.43-.42-.57-.57-.09-.1-.17-.19-.28-.27-.18-.13-.3-.21-.33-.35-.1-.4-.06-1.23.05-1.55 0-.02.42.17.5.21 0 0 .64.23.85.3.38.13 1.12.4 1.27.57.03.04-.02.17-.07.2l-.23.05s-.35.08-.36.1c-.14.21 1.01.86 1.15.92.36.17.43.07.62-.24.15-.25.32-.47.5-.7l.81-1.1c.14-.17.27-.37.39-.56.08-.12.39-.62.51-.55 0 0-.13.81-.17 1.02-.08.49-.22.73-.42 1.08l-.48.7c-.17.25-.48.73-.5.88 0 .07.25.22.34.27.18.1.49.34 1.16.93.21.17.47.85.51 1.2.06.57-.11 1.47-.34 1.89-.24.43-.98.92-1.53 1.28-.88.59-1.39.68-2.41.31m-7.39-18.03c.05-.37.25-1.1.48-1.3.12-.11.22.31.25.42.07.27.18.5.3.72.19.35.36.7.52 1.08l.08.16q.06.12.12.26l.12.28.14.26c.09.22.24.6.24.6.04.12.12.92-.12.68-.21-.21-.73-.73-.78-.74-.11-.03.14 1.6.17 1.78.09.59.24 1.52.32 1.81.23.79.42 2.04.57 3.01.2 1.33.35 2.21.61 3.45.03.17.23 1.39.32 2.01.07.44.13.94.16 1.38.01.17.04.53.04.54.1.3-.04 3.75-.56 3.75-.12 0-.12-1.14-.12-1.26 0 0-.06-.77-.08-1.08-.07-.96-.15-1.65-.32-2.57-.31-1.68-.59-3.33-.85-5.02-.07-.48-.27-1.53-.4-2.29-.16-.9-.31-1.85-.44-2.77q-.04-.28-.08-.48c-.04-.2-.09-.54-.12-.8l-.2-1.52c-.02-.14-.15-.92-.2-1.25-.04-.22-.07-.34-.14-.5-.07-.17-.1-.43-.02-.62m-40.77 22c-.11-.23 1.27-.63 1.63-.73.6-.17 1.53-.44 1.85-.58 1.11-.49 2.33-.99 3.47-1.37 1.7-.56 3.45-1.7 4.82-2.69l.44-.32.12-.08.13-.09c.22-.16.56-.41.96-.77l.13-.07.2-.16c.11-.09.31-.28.53-.49q.16-.21.19-.23c.28-.2.32-.69.31-1-.03-.7-.38-1.39-.67-1.97-.49-.98-.53-1.06-.16-2.29.06-.2.36.4.36.4.1.2.25.48.41.63.37.37 1.02.53 1.73.51.79-.02 1.6-.63 2.18-1.06.62-.46 1.47-1.09 1.7-1.14.79-.17.91 1.19.87 1.83-.03.42-.15 2.33-.64 2.22 0 0 .06-.81.07-1 .02-.28.02-.82-.14-1.12-.1-.19-.33-.26-.52-.14-.17.1-.84.63-1.32 1.02-.21.17-.45.33-.68.47l-.36.24-.14.06c-.13.05-.24.1-.28.12-.17.1-.43.16-.65.2-.11.02-.55.08-.62.08-.12 0-.42.03-.46.07q-.04.06-.07.62c-.02.4-.04.95-.08 1.14-.06.28-.13.52-.22.76-.15.38-.37.66-.62.94q-.11.12-.32.38l-.2.2-.24.2c-.75 1.12-5.35 3.7-6.89 4.16-.86.26-6.45 1.27-6.83 1.05m73.5-3.34c.22-.05.54.13.76.26.32.18.54.16.89 0 .21-.1.41-.27.54-.45.1-.14.45-.62.48-.6v.17s0 .16 0 .16c.03.13.07.23.22.24.08 0 .76.06.76 0 0-.2.27-.9.41-1.24.05-.14.14.58.14.6-.04.29-.15.58-.26.84-.2.5-.53 1.02-1.25.82-.32-.09-.59-.16-.72-.05-.18.16-.36.33-.57.41-.36.15-.65.16-.99-.02-.29-.16-.6-.32-.87-.22-.53.19-.88.4-1.29.66l-.36.25q-.13.11-.21.15-.11.07-.25.19c-.1.09-.23.17-.35.25-.56.35-1.96 1.2-2.56 1.03-.02 0 .54-.35.6-.39.26-.16.53-.32.77-.48.43-.29.85-.58 1.26-.89.83-.62 2.27-1.68 2.84-1.7m-57.77.48c.08.18-.18.7-.32.79-.57.36-4.98 2.25-5.55 2.3-.23.02.07-.7.2-.77.15-.09.5-.24.77-.36s.71-.31.85-.36c.15-.06.31-.12.44-.18l.48-.18c.49-.21 1.14-.48 1.49-.64l.16-.08.12-.06.16-.06.28-.14c.21-.09.8-.33.9-.25m12.53 3.26c-.84.01-.95-1.35-.87-2.15.05-.46.36-1.76.71-1.67.06.02-.15.64-.18.74-.12.35-.24.7-.16 1.04.08.37.18.81.41.94.17.09.35.15.46-.03q.04-.07.1-.26c.05-.15.09-.23.16-.33.15-.22-.11.89-.12.94-.06.17-.33.81-.51.78m35.47-6.22c-.54-.18-.95-.31-1.2-.47-.67-.42-.49-1.7-.31-2.48.25-1.11 2.02-2.37 3.25-1.29l.34.27c.19.16.42.35.69.67q.15.19.16.2.05.06.15.21c.08.12.15.23.26.32.2.18 1.65-.82 1.79-.95.48-.4 1.3-1.09 1.58-1.13.26-.04.27.5.26.62-.03.35-.07.81.1.98.42.42.83.82 1.05.92.54.24 1.36.22 1.92-.02.27-.12.59-.33 1.02-.65.2-.2.21-.2.21-.2.08-.04.6-1.03.73-1.32.07-.15.58-1.21.78-.9.1.15-.12.59-.2.74-.11.23-.27.56-.14.8.19.35.76.65 1.17.78.43.14 1.19.21 1.56-.03.2-.12-.06-.68-.16-.83-.14-.21-.32-.46-.3-.55l.04-.26.04-.16.04-.2.04-.28c.03-.17.12-.44.26-.46.67-.13 1.25 3.3.15 4.29-.9.8-3.18.07-3.42-.98-.03-.15-.57.7-.57.7-.16.26-.39.45-.62.64-.45.36-1.05.63-1.8.69-.43.04-1.23-.12-1.45-.34-.63-.63-.84-.91-1.14-1.96-.04-.14-1.3.88-1.3.88l-.13.09c-.07.05-.32.24-.32.24-.11.1-.22.18-.35.27-.12.08-.16.15-.24.28l-.04.52q-.04.64-.04.64c-.03.32-.05.61-.18.82-1.16 1.93-2.62 3.43-4.42 4.72-1.15.83-2.38 1.39-4.24 1.51-.55.04-1.23-.23-1.59-.46-.53-.34-.89-.76-1.25-1.27-.23-.33-.35-.84-.42-1.3-.04-.26-.04-.84-.04-1.22 0-.16 0-1.05-.02-1.05-.15.02-.95.57-1.25.78-.41.3-.99.71-1.29.88q-.14.08-.26.16c-.12.08-.25.16-.39.24l-.12.08-.16.08-.12.08-.14.08-.24.16c-.52.28-1.03.54-1.55.8-.82.4-6.57 2.03-7 1.83-.35-.16.84-.62 1.15-.74.54-.21 1.11-.43 1.65-.68q.13-.06.24-.1c.07-.03.39-.15.56-.22.29-.12.55-.26.81-.4.46-.26.93-.51 1.41-.72 1.78-.8 9.24-5.6 9.14-6.67-.04-.4-.94-1.88-1.39-2.61-.43-.69-1.1-1.93-1.23-2.75-.01-.08.19-1.27.25-1.36s.51.36.59.44c.17.16.49.49.49.49.25.18 1.13.93 1.14 1.22 0 .12-.05.11-.19.09-.12-.02-.69-.09-.66-.03v.17s.05.16.05.16c.03.06.16.26.24.38l.48.83c.31.46.59.95.79 1.53.28.84.12 2.16-.18 2.93-.17.43-.81 1.05-1.16 1.37-.61.56-.84.79-1.16 1.66-.13.35.08 1.26.22 1.63.1.27.21.45.38.65.08.1.2.24.33.39q.23.19.23.19c.13.19.88.43 1.2.51.6.15 1.51 0 2.1-.18 1.93-.61 5.94-3.71 6.6-5.4.25-.63-.78-.35-1.03-.28-.68.19-1.66.28-2.22.28" fill="#1d1d1b" fill-rule="evenodd"/></svg>