<svg viewBox="0 0 84.21 26.83" xmlns="http://www.w3.org/2000/svg"><path d="m78.97 1.62c-.04.33.93.87 1.24.81.28-.06-.3-1.23-.32-1.24-.35-.3-.87.11-.92.44m-26.65.66c.18.24.41.53.73.58.33.06.13-.83.04-1-.26-.47-.96.05-.77.42m-23.1-1.64s-.13.59-.21.91c-.08.3-.22.89-.21.95.05.36.24 1.54.77 1.34.13-.05.17-.17.2-.32.03-.12.13-.53.18-.5.26.15-.2 1.79-.62 1.89-.21.04-.53-.43-.67-.62-.1-.15-.18-.64-.18-.76v-.2l-.04-.22v-.3l.04-.2v-.12c-.07-.29.55-1.85.73-1.83m39.14 1.99c-.1-.24.02-.65.11-.92.16-.51 1.72.77 1.8.84.2.18.48.52.69.76l.33.47q.11.15.16.24c.09.15.11.19.18.24.08.06.08-.28.08-.28v-1.77c.01-.33.09-.72.2-1 .16-.4.46-.9.83-1.11.42-.23.75.08.93.36.12.2.44 1.21-.04 1.2-.1 0-.18-.1-.25-.17-.09-.1-.17-.18-.25-.25-.34-.24-.44-.19-.8-.01-.16.08-.17.72-.17.84l.02.34c0 .37 0 .83-.02 1.29-.02.39-.09 2.29-.43 2.35-.06.01-.18-.33-.22-.46-.07-.19-.27-.48-.46-.74l-.08-.12-.09-.13c-.14-.19-.29-.38-.45-.56-.1-.11-.37-.41-.37-.41l-.21-.18h-.26q-.11.03-.2 0c-.28-.1-1.04-.47-1.03-.82m-11.23 3.02c.97-.73 7.87-4.98 8.12-5 .28-.03-.07.8-.15.89l-.27.17-.24.16c-.15.11-.31.22-.46.32-.16.11-.37.24-.51.32-.23.14-.46.26-.68.4-.62.38-2.19 1.38-2.19 1.38-.59.47-1.39.92-2.04 1.27-.4.22-.79.48-1.17.72-.95.63-.72-.38-.4-.64m-40.13 1.02-.13-.23-.12-.32c-.09-.32-.1-.61-.1-.9 0-.7 0-1.6.22-2.35l.04-.16.04-.16.04-.12.04-.16q.05-.18.08-.28l.08-.28c.05-.17.1-.35.16-.52l.12-.36q.09-.24.1-.28h.2l.02.16c0 .1-.04.22-.08.32-.08.23-.13.5-.2.89-.15.82-.32 1.77-.32 2.35 0 .65.15 1.16.54 1.51.17.15.45.29.57 0 .08-.2.31-.74.32-.74.6-.04-.27 1.93-.32 2-.44.59-.98 0-1.3-.35m-5.09-1.15c.03-.57.64-2.7.88-3 .36-.44-.16 1.35-.19 1.44-.07.22-.46 1.63-.32 1.57l.04.16q.05.19.08.28c.08.23.18.35.33.5.24.23.47-.08.54-.26.04-.11.23-.6.28-.46.11.27-.38 1.4-.51 1.64-.08.15-.48.16-.61.06-.41-.33-.73-1.2-.51-1.92m40.64-1.73c0-.09-.1-.17-.17-.25-.03-.02-.18-.17-.2-.2-.15-.19-.3-.39-.35-.67-.14-.82.56-1.91 1.19-2.03.07-.01.29.06.34.13l.15.21s.14.7.14.72c0 .04-.03.49-.04.6 0 .04-.08 1.01.05.98.18-.04.84.71.88.89.04.2-.01.48-.11.68 0 0-1.07-.63-1.16-.72-.04-.04-1.2 1.12-1.3 1.22-.39.39-.8.74-1.26 1.05-.36.24-2.04 1.16-2.32 1.17-.65.03 2-1.75 2.04-1.77.65-.43 1.9-1.34 2.14-2.01m-13.74.61s-.14.68-.22 1.03c-.03.13-.12.56-.12.56v.32c0 .14.02.32 0 .34-.04.05.53.64.66.69.18.07.26-.19.3-.34.07-.23.16-.52.2-.58.12-.17-.04 1.01-.08 1.14-.06.19-.28.8-.42.83-.58.1-1.09-.94-1.03-1.49s.13-1.19.24-1.63c.06-.23.32-.96.46-.87m40.86-.98c.02-.08-.17-.21-.28-.28-.12-.08-.28-.19-.36-.25-.23-.21-.45-.47-.45-.89 0-.63.44-1.67.91-1.87.95-.39 1.06 1.13 1.11 1.79.05.78.07.83.52 1.24.15.13.49.96.1 1.05-.04 0-.29-.16-.37-.22-.18-.12-.39-.26-.58-.3 0 0-.59.61-.82.86l-.13.1q-.08.07-.22.19l-.22.21c-.52.49-1.05.89-1.63 1.32-.53.39-1.22.81-1.85 1.2-.28.17-2.38 1.09-2.29.79.01-.04.64-.49.74-.55.31-.18.77-.46 1.13-.7l.15-.07c.15-.09.35-.24.53-.37l.34-.22.12-.08.13-.09q.13-.1.21-.15c.85-.6 3.12-2.25 3.21-2.69m-53.26 4.64.23-.16.13-.07.26-.16c.28-.17.58-.34.87-.48t.26-.14s.27-.14.4-.2l.14-.06.26-.16s.4-.2.48-.24c.37-.19 1.55-.76 1.55-.76.58-.25 1.23-.54 1.73-.8 1.32-.7 6.3-3.01 6.76-3.06.25-.03-.06 1.2-.45 1.27-.23.04-2.65 1.18-3.55 1.63-1.02.51-2.48 1.18-3.73 1.77-1.24.58-2.47 1.19-3.65 1.83l-.14.06-.22.14c-.13.04-.25.11-.45.22-.14.08-.29.16-.45.24-.14.07-.28.15-.4.24-.76.55-.24-.83-.06-1.1m24.97.9c-.09-.33.41-1.17.6-1.34.16-.15.52.09.73.23.26.17.72.48.97.44 0 0 .26-.49.31-.58.09-.17.28-.51.42-.56.25-.08 1.22.7 1.4.9.14.15.28.52.11.75l-.08.14-.24.32c-.17.23-.31.44-.4.44-.03 0-.28-.18-.34-.23-.1-.08-.2-.15-.31-.23-.29-.21-.71-.5-.82-.49-.01 0-.33.61-.37.69-.14.31-.3.65-.64.48-.23-.11-1.24-.78-1.33-.96m-47.51-5.51c-.11-.19.09-1.2.28-1.3.74-.4 2.82 2.21 2.93 2.74.06.28.18-1.33.18-1.41 0-.35.03-.86.16-1.32.1-.35.29-.88.61-1.04.95-.49 1.43 1.07 1.12 1.74-.08.18-.47-.28-.5-.31-.13-.16-.29-.35-.49-.42s-.46-.07-.5.2c-.04.21-.04 1.11-.04 1.43 0 1.21-.18 2.37-.65 3.35-.5 1.06-2.08 2.11-3.51 3.05-.16.11.53-.74.65-.86l.2-.17.43-.41.14-.1.1-.13.13-.08c.61-.56 1.2-1.11 1.67-1.81.38-.56-.67-1.84-1-2.2-.41-.45-.51-.55-.91-.3-.12.07-1.01-.47-1.02-.65m61.94 4.74c.07-.64.41-1.55.69-2.3.09-.23.08.22.08.26 0 0-.15.41-.2.56-.15.42-.2.75-.2 1.18 0 .51.16.83.39 1.18.12.18.36.26.6.21.11-.02.2-.26.22-.36.04-.13.17-.62.24-.58.39.27-.35 1.86-.7 1.96-.82.23-1.19-1.34-1.11-2.11m13.98 1.66c-.19-.27-.28-1.13-.18-1.5l.04-.28.08-.32c.04-.12.08-.24.12-.36.08-.23.4-1.06.52-1.08.13-.02-.06.5-.08.56q-.04.11-.14.3c-.08.15-.15.31-.18.5-.09.51 0 1.48.42 1.71.23.13.42-.08.52-.24q.07-.1.14-.34c.04-.13.05-.18.15-.11.19.15-.31 1.25-.4 1.42-.32.55-.8.02-1.02-.25m-41.12 2.07c-.15-.08-.36.26-.45.4-.12.21-.36.58-.41.64-.27.32-1.65-1.02-1.67-1.2-.03-.2.57-1.11.77-1.16.28-.08.56.14.8.33.23.18.57.46.75.48.03 0 .34-.42.45-.57.13-.17.29-.34.48-.44.24-.12 1.35.95 1.43 1.33.1.44-.54 1.1-.81 1.24-.08.04-.47-.27-.65-.41-.12-.1-.26-.21-.33-.28-.1-.1-.35-.35-.37-.35m-32.31 1.6c.09-.44.38-1.01.71-1.26.11-.09.7.27.85.36.29.18.73.44.92.39.02 0 .26-.42.33-.53.09-.16.2-.34.42-.51.17-.13 1.25.76 1.37.88.3.3-.51 1.51-.74 1.48-.06 0-.45-.28-.6-.39-.24-.17-.56-.42-.74-.45-.09-.02-.42.56-.52.74-.17.29-.29.49-.61.32-.21-.11-1.42-.86-1.39-1.02m6.52 1.69c-.21-.22-.12-.83-.06-1.23.05-.32.52-.89.78-1.01 0 0 .25-.17.35-.23.16-.11.36-.24.5-.32.39-.22.77-.43 1.17-.64.3-.16.7-.37.95-.48.36-.16.84-.4 1.25-.6 1.49-.74 3.66-1.82 4.66-2.19.44-.17-.06.85-.49 1.06-.42.21-.89.44-1.25.6-1.05.46-1.91.84-2.8 1.32-.41.22-.86.46-1.27.62-.46.18-.88.39-1.29.62-.74.42-1.98 1.12-2.2 1.52-.08.15.26.34.38.4.25.13.65.34.67.5.09.74-1.24.34-1.35.04m15.23-2.79c-.03-.14.06-1.07.28-1.08.49-.04 1.3.75 1.74 1.18.26.25.6.58.75.77.06.07.21.32.31.48.05.08.26.42.33.35.08-.06.02-.74 0-.9l-.04-.32-.04-.36-.04-.28c-.03-.27-.06-.47-.04-.64.04-.34.17-.64.28-.92.06-.15.12-.28.25-.49l.18-.15c.01-.07.44-.03.51 0 .15.07.29.21.38.34.29.47.29.76.05 1.24-.01.02-.61-.44-.67-.49-.61-.47-.53.51-.49.9.1 1.17-.05 2.54-.29 3.77-.02.1-.41-.58-.46-.65-.13-.22-.26-.42-.4-.62-.28-.38-.59-.77-.94-1.08-.14-.12-.23-.11-.43-.09-.19.02-.49-.1-.64-.19-.21-.12-.55-.48-.59-.76m41.93 3.36c-.02-.23-.81-.68-1.08-.73-.36-.07-.68-.06-.95.1-.19.12-.51.38-.42.64.14.45 2.44.31 2.45-.01m-69.5-.11c-.28-.32-.38-.93-.46-1.45-.21-1.37.51-4.21 1.13-5.27.23-.38.16.54.16.58-.1.37-.16.64-.24 1l-.04.2-.06.16-.06.2s-.08.3-.12.48c-.1.42-.22.87-.2 1.34.02.55.07 1.18.34 1.57.13.18.4.55.65.48.18-.05.25-.25.3-.42.06-.19.2-.68.3-.65.48.14-.14 2.08-.44 2.26-.59.38-.92-.05-1.26-.49m55.63 1.2c.08-.4-1.46-1.17-1.94-1.4-.64-.32-1.26 1.26-1.45 1.85-.1.29.16.79.34.88.16.08.48.07.93.06.37-.01 2.09-1.15 2.12-1.39m-36.52.56c-.43-.14-1.21-.02-1.33.44-.11.42 1.25.83 1.71.9.81.12.5-.34.24-.72-.05-.07-.39-.43-.63-.62m20.6.74c.16-.68-.29-1.4-.81-1.57-.54-.17-1.65.83-1.75 1.3-.12.58.62.99 1.11 1.14.39.12 1.3-.63 1.45-.88m12.26 1.37c-.46-.5-.29-2.26-.13-2.92.06-.25.16-.53.26-.76.09-.22.44-1.03.26-1.17l-.32-.24q-.08-.05-.24-.17c-.2-.16-.39-.31-.58-.48-.16-.14-1.23-1.18-1.24-1.2-.12-.26-.09-1.36.05-1.62.06-.12.24.03.29.06q.18.15.25.17c.26.1.51.2.77.28.33.11 1.22.41 1.27.54.06.18-.1.22-.26.26-.15.04-.32.08-.34.09-.21.11.57.61.58.62.24.16.71.46.92.43 0 0 .2-.3.25-.37.1-.15.21-.31.32-.46.2-.27.38-.52.57-.8s1.22-1.62 1.25-1.63c.17-.05.05.44.02.54-.06.25-.14.56-.16.76-.04.35-.45.93-.67 1.24-.23.3-.63.85-.69 1.13-.01.05.47.35.62.44.21.13.4.27.57.43.39.36.63.77.82 1.33.13.39-.15 1.67-.26 1.97-.24.64-2.13 1.9-2.95 1.99-.61.06-.88-.12-1.22-.48m-6.17-19.57c.34-.02 2.11 4.2 1.99 4.48-.08.18-.47-.22-.53-.27l-.1-.14-.2-.24c-.27-.13-.21.39-.18.67l.04.2.04.28q.07.38.08.52c.06.5.39 2.67.56 3.85l.04.24.08.48q.02.16.08.56l.04.28.04.28c.04.28.1.66.16 1s.11.69.16 1.04c.04.29.09.69.12.98l.04.22.04.2.04.36.04.28c.02.14.07.58.08.68q.01.2.04.36c.02.15.07.57.08.72l.04.76.04.82c0 .21-.05.84-.08 1.1-.02.15-.1.59-.16.88-.08.39-.21.65-.38.92-.11.17-.14-.42-.14-.42l-.04-.5v-.56l-.04-.6c-.03-.58-.08-1.34-.12-1.61q-.07-.4-.08-.52l-.04-.32q-.02-.24-.04-.4l-.04-.4-.04-.24-.04-.24-.04-.32-.04-.4c-.09-.63-.53-3.52-.81-5.3-.27-1.75-.54-3.77-.77-5.7-.08-.67-.26-1.54-.44-2.21-.04-.14.24-1.07.46-1.81m-19.73 22.24c-.6-.32-1.02-.83-1.39-1.39-.42-.63-.66-1.59-.79-2.47-.19-1.33-.36-2.51-.49-3.73-.09-.91-.16-1.7-.24-2.53v-.16l-.04-.48-.04-.46v-.22c-.04-.49-.1-1.08-.16-1.57-.16-1.38-.52-4.27-.56-4.54-.08-.49-.17-.98-.28-1.45-.12-.49-.29-1.17-.28-1.45.02-.35.32-1.1.52-1.26.21-.17.73 2.41.77 2.62.27 1.33.47 3.04.57 4.32l.08.94q.04.44.08.96c0 .05.04.55.09.61q.09.14.08.16c-.18.38.02 2.07.11 2.76.03.22.06.44.08.8.04.54.09.89.16 1.41.11.76.25 1.72.32 2.21.14.89.51 1.68.87 2.35.16.31.85.86 1.21.96.48.13 1.05.29 1.57.2 1.24-.21 2.12-.93 2.7-1.81l.24-.34s.44-.61.47-.66l.19-.17c.11-.19.44-.46.49-.05v.16l-.04.28-.04.24c-.02.28.02.52.12.72.39.79.97 1.11 2 1.26.56.08 1.33-.13 1.82-.32.22-.08.34-.13.26-.34-.15-.4-.21-.95-.12-1.45.14-.8.43-1.46.83-2.01.24-.33.93-1.16 1.29-1.26.35-.1.65-.18.93-.12.71.16 1.05 1.23 1.11 2.03.02.28-.17 1.11-.28 1.48l-.04.12-.06.2-.06.16c-.08.23-.18.52-.13.63.09.24 3.16.57 3.16-1.04 0-.8-.44-3.89-.73-5.86l-.77-5.34q-.03-.18-.08-.64l-.04-.32-.04-.24q-.01-.1-.08-.76l-.04-.36-.04-.32-.04-.16q-.03-.24-.04-.28l-.04-.28-.04-.4-.04-.32c-.08-.57-.19-1.41-.26-1.52-.2-.32.31-1.86.58-1.75.24.1 1.85 3.97 1.82 4.39-.02.25-.56-.34-.59-.37-.16-.2-.36-.44-.48-.43-.07.01.13 1.39.15 1.58.08.55.16 1.12.24 1.61.17 1.02.31 2 .45 3.01.27 2.01.89 6.98.89 6.99.07 1-.1 3.26-.8 4.03-.27.29-.57.51-1.04.61-.76.17-1.63.17-2.5 0-.2-.04-.46-.13-.69-.2-.37-.12-.64-.21-.93-.2-.06 0-.41.18-.57.26-.24.13-.69.37-.73.38-.45.19-.92.39-1.41.48-.46.08-1.21.18-1.65-.04-.53-.26-1.13-.56-1.26-.72-.15-.17-.27-.35-.39-.55-.08-.12-.14-.29-.2-.44-.05-.12-.13-.33-.23-.29-.06.02-.25.35-.34.48-.01.03-.23.32-.33.45-.19.26-.45.57-.74.73-.54.3-1.1.62-1.51.78s-.95.15-1.37.08c-.2-.03-.38-.06-.56-.12-.09-.03-.27-.1-.34-.14l-.24-.12m51.15-1.79c.45 0 .75 0 .87.06.33.17.56.3.87.22.61-.15.87-.66 1.13-1.18.13-.25.14.16.14.16q.01.31.14.4c.09.07.36.19.48.18.36-.02.4-.25.46-.66.04-.22.2-.62.35-.69.45-.24-.24 1.57-.24 1.57-.19.49-.6.83-1.17.66-.27-.08-.59-.17-.72-.05-.17.15-.38.34-.53.41-.28.13-.54.16-.81.08-.1-.03-.24-.09-.32-.14-.26-.15-.33-.19-.68-.18-.39 0-1.62.9-2.3 1.39-.74.54-1.63 1.16-2.79 1.24l.05-.19.15-.07c.16-.06.36-.14.42-.18.13-.08.26-.16.38-.25 0 0 .24-.16.35-.23.2-.13.39-.27.57-.42 0 0 .49-.35.66-.47.85-.6 2.04-1.44 2.54-1.67m-73.31 3.95c-.21.26-.63.35-1.06.33-.22-.01-.68-.32-.95-.5l-.13-.09q-.21-.22-.22-.22c-.23-.07-1.03-1.77-1.14-2.1-.36-1.2-.68-3.31-.24-4.56.12-.34.19.38.2.51 0 .45.02 1.06.08 1.37.17.86.27 1.32.53 2.01.28.75 1.21 2.05 2.24 1.95.2-.02.34-.13.47-.23.1-.08.38-.3.42-.27 0 0 .3-.69.36-.84.15-.34.31-.71.46-1.04.29-.62.62-1.21 1-1.8.51-.79 1.85-2.05 2.9-2.28.42-.09.78-.04 1.15.14.32.15.71.93.99 1.49.21.41.65 1.22 1 1.41.4.22 1.29.65 1.3.65 1.23.27 2.65-.41 3.19-1.29.3-.49.56-1.02.81-1.55.19-.39.64-1.26.92-1.41.29-.15.59-.32.92-.37.26-.04 1.05.46 1.14.67l.09.13.08.14c.05.08.24.36.24.36.17.24.3.57.4.84.19.51.59 2.38-.06 2.69-.4.19-1.05.17-1.67.14-.47-.02-.98-.21-1.33-.38-.17-.08-.51-.26-.54-.28-.32-.21-.6-.4-.64-.39-.02 0-.15.31-.19.39-.06.14-.14.34-.2.44-.13.24-.38.7-.74.9l-.15.07c-.12.07-.45.24-.45.24-.27.13-.58.24-.93.3-.47.08-1.21.14-1.69-.1-.43-.21-.89-.44-1.06-.69-.51-.75-1.33-1.96-1.54-2.66 0 0-.28-.13-.38-.16l-.16-.04h-.57l-.24.08-.12.04-.14.06c-.13.07-.28.16-.4.24-.27.18-.52.38-.75.59-.44.4-.8.84-1.12 1.35-.38.62-.72 1.23-1.01 1.95-.19.47-.76 1.65-1.04 1.77m42.81.8c.72-.45 1.95-.94 2.94-1.33.58-.23 1.15-.49 1.67-.76l.14-.08.2-.08.14-.08.14-.08.16-.08c.13-.07.3-.16.38-.2l.14-.08q.21-.13.28-.16c1.77-.78 9.03-5.51 8.9-6.67-.03-.28-.75-1.43-1.15-2.09-.22-.36-.45-.74-.62-1.12-.1-.21-.18-.42-.26-.64-.1-.27-.24-.65-.32-.8-.28-.56-.32-.73-.14-1.52.05-.22.15-.68.36-.41.15.19.36.46.42.51.49.44 1.48 1.32 1.57 1.61.03.11-.07.1-.18.08-.19-.03-.65-.11-.69-.06-.12.15.73 1.45.81 1.57.31.46.77 1.16.83 1.73.05.43.15 2.14-.08 2.37l-.04.12c-.04.1-.15.32-.46.76l-.17.23-.36.35c-.14.19-.33.36-.52.51-.26.21-.58.47-.65.68-.18.52-.22.95-.22 1.52s.38 1.16.64 1.56c.25.39.76.74 1.24.89.14.04.45.14.48.14.2.02.57.05.73.04l.4-.04h.14c.04.09 1.06-.27 1.15-.3.44-.16.85-.32 1.19-.56 1.78-1.29 4.29-3.11 5.02-4.66.05-.1-.1-.36-.19-.53-.04-.07-.54.09-.62.11-.17.05-.34.09-.49.12-.51.1-1.2.2-1.83.24-.39.03-1.02-.27-1.26-.47-1.38-1.17-.01-4.08 1.57-4.23.42-.04 1.16.28 1.4.47.32.25.61.48.86.79.08.1.74.89.76.87l.12-.04q.15-.05.3-.14c.18-.1.46-.26.54-.32.26-.18.73-.51 1.04-.78q.21-.17.45-.35c.2-.16.57-.46.77-.5.24-.05.27.21.3.46t-.04.38v.34c.05.4.29.69.54.89.62.49 1.32.7 2.15.53.23-.05.51-.18.79-.3.09-.04.27-.17.38-.25.1-.07.31-.22.31-.22.11-.06.58-.88.75-1.2.26-.48.62-1.15.79-1.26.28-.18.13.44.08.56-.13.35-.33.86-.26.98.34.59 2.96 1.54 2.84.54-.03-.22-.16-.43-.27-.59-.1-.15-.29-.44-.29-.45-.03-.17.23-1.12.34-1.48.04-.14.4.44.4.44.09.16.19.34.26.52.23.54.33 1.23.24 1.85-.09.57-.31.99-.59 1.44-.14.22-.75.42-1.06.39-.64-.05-1.06-.08-1.51-.34-.26-.14-.86-.66-.93-.96 0-.04-.6.78-.6.78-.21.28-.49.58-.81.74-.55.28-1.09.41-1.74.54-.33.07-1.12-.22-1.31-.38-.67-.55-.91-.9-1.1-1.94-.02-.13-1.37.94-1.37.94-.11.08-.28.2-.34.25-.09.09-.2.17-.3.25-.14.1-.26.19-.31.27-.04.07-.06.32-.06.42l-.04.72c-.04.37-.09.82-.26 1.08-.51.83-1.04 1.69-1.71 2.28-.19.17-.38.35-.56.54-.21.23-.43.46-.68.65-.24.19-.48.38-.72.57-.21.17-.75.59-.75.59-.51.34-1.18.78-1.67.96s-2.38.72-2.75.46l-.28-.04-.2-.04c-.13-.03-.16-.04-.4-.14-.28-.11-.56-.22-.76-.41-.41-.39-.91-.85-1.08-1.36-.11-.34-.23-.7-.28-1-.04-.23-.08-.61-.08-.61l.05-.93c.03-.36.04-.51.01-.69-.01-.08-.71.39-.78.43q-.18.12-.24.16l-.24.16-.13.09c-.41.34-.88.63-1.34.91-.84.51-2.29 1.38-2.74 1.57l-.14.08-.14.08c-.14.08-.29.16-.44.24-.24.12-.55.2-.85.26-.29.06-.63.14-.85.2-.29.08-.59.16-.93.24-.53.13-4.27 1.06-3.91.71m-26.42.31c-1.09-.53-.17-2.96.18-3.89l.18.05s-.09.4-.12.47l-.06.16-.06.16c-.12.39-.24.77-.28 1.16-.03.3.23.78.42.88.22.11.46.09.54-.16.04-.11.17-.53.24-.43.14.21-.39 2.24-1.04 1.59m17.07-.48c.6-.3 1.99-.8 2.97-1.14.23-.08.57-.2.68-.24.25-.08.49-.17.73-.26.28-.11.75-.29.89-.34.18-.07.82-.3.86-.21.07.15-.13.73-.23.8-.09.06-1.16.45-1.6.61-.35.12-.72.26-1.05.4-.11.05-.24.09-.36.12-.14.04-.33.09-.4.12l-.16.06q-.35.14-.36.14c-.12.04-.24.08-.36.12-.32.1-.64.22-.97.34l-.16.06c-.11.04-.28.1-.28.1-.23.1-.39.17-.4.17-.19-.02.02-.83.22-.85m-32.13.87c.92-.54 2.26-1.32 2.85-1.63.51-.28 1.03-.55 1.53-.84.44-.26 1.31-.74 1.57-.76.09 0-.05.66-.08.74s-.2.17-.4.26c0 0-.29.16-.42.24-.15.08-.34.2-.47.26-.63.34-1.56.85-1.92 1.02-.56.28-1.22.61-1.74.92l-.14.08-.14.08-.14.08c-.12.07-.46.3-.47.31-.08.08-.23.14-.24-.03 0-.13.03-.66.2-.74m23.55-.23c-.14-.17.61-1.36 1.03-1.24.1.03.51.34.7.49.2.16.48.38.65.41.07.01.44-.49.53-.61.13-.17.32-.36.56-.43.26-.07 1.26 1.04 1.41 1.26.24.36-.71 1.23-.93 1.27-.1.02-.69-.52-.99-.8-.37-.3-.41-.25-.67.08l-.25.27-.16.2c-.34.42-.46.32-.94-.08l-.4-.32c-.14-.1-.53-.4-.54-.51" fill="#1d1d1b" fill-rule="evenodd"/></svg>