<svg viewBox="0 0 85.08 27.35" xmlns="http://www.w3.org/2000/svg"><path d="m54.18 1.51c-.18-.23-.53.1-.63.19-.2.19-.03.42.1.57.76.93.99-.12.54-.76m26.93.12c-.21-.41-.87.04-.93.33-.04.21.49.59.75.76.84.58.44-.91.19-1.1m-54.34 2.51c-.47-.67.34-3.13.71-3.63.17-.23-.22 1.23-.23 1.26-.13.4-.3.89-.2 1.29s.23.76.59.9c.16.07.36 0 .4-.18l.02-.2.04-.16c.04-.17.05-.21.09-.29.11-.27.2.13.2.13.02.12-.04.48-.08.68-.07.36-.18.65-.34.9-.45.68-1.04-.41-1.19-.7m8.73-2.21c-.03-.41.03-.71.15-1.06.15-.41 1.6.99 1.64 1.04.21.26.4.5.6.77.1.14.53.71.57.7.05-.01.05-1 .05-1.12 0-.31 0-.61.04-.82.07-.38.24-1.06.45-1.26.73-.71 1.64.84 1.14 1.53-.03.05-.56-.4-.65-.49-.56-.49-.68.14-.65.74.05.86.07 1.29-.04 2.01-.04.27-.19 1.22-.4 1.11 0 0-.09-.26-.13-.35-.08-.22-.19-.4-.3-.58-.05-.08-.45-.59-.66-.85-.26-.32-.56-.7-.85-.76-.09-.02-.35-.17-.57-.3l-.23-.14-.15-.18zm-16.44 1.22c-.11-.25-.5-1.53.12-1.53.59 0 1.9 1.49 2.29 1.97.14.17.27.39.39.61 0 0 .21.37.28.22l.02-.38-.04-.86.04-.44c.07-.7.28-1.3.63-1.8.06-.09.45-.06.6-.05.26.02.52.69.58.96.04.17-.05.71-.23.75-.12.02-.27-.22-.31-.29-.1-.17-.16-.23-.3-.34-.59-.47-.65.27-.65.72 0 0-.11 4.09-.49 3.41-.4-.72-.84-1.53-1.16-1.92-.27-.33-.41-.48-.82-.51-.16 0-.91-.47-.96-.53m53.71 1.35c.02-.84.06-2.22.29-3.01.09-.32.51-.85.75-1.04.19-.16.48-.17.7-.07.24.11.5.6.55.92.03.2-.12.67-.28.7-.07.01-.19-.13-.22-.18l-.17-.23c-.13-.12-.29-.24-.48-.27-.62-.11-.62 1.55-.62 1.99 0 .56-.11 2.64-.41 2.99-.12.14-.29-.37-.32-.46-.07-.21-.15-.34-.26-.5s-.32-.48-.32-.48l-.24-.34-.07-.13c-.14-.17-.61-.7-.74-.73-.6-.15-.83-.27-1.31-.53-.29-.16-.1-1.03.03-1.27.07-.14.59.06.65.1.12.06.33.21.48.32.26.19.51.4.72.63s.41.46.59.72c.11.14.65.92.68.9m-14.63 1.09.15-.1q.19-.14.21-.15s0 0 .26-.16l.12-.08.14-.08c.35-.22.7-.43 1.05-.64.67-.41 1.35-.81 2.04-1.2l.42-.24c.19-.11.37-.21.56-.32.19-.1.39-.22.69-.4l.26-.16.14-.08s.28-.16.28-.16l.16-.08.16-.08c.18-.1.38-.21.54-.33.22-.16.92-.57 1.12-.59.24-.02-.11.8-.17.88-.08.1-1.54.95-2.21 1.33-.73.41-1.45.85-2.16 1.28-.74.45-1.67 1.02-2.28 1.33l-.24.16q-.08.06-.28.16s-.35.21-.52.32c-.53.33-.99.44-.44-.59m-54.14-1.86c-.17-.01-.63-.24-.8-.35-.12-.08-.24-.17-.36-.26-.11-.08-.26-.21-.28-.21-.18-.06-.1-.57-.05-.74.03-.09.22-.64.3-.58.7.48 1.14.78 1.64 1.37l.13.1s.03.03.33.41l.18.23c.1.15.21.32.29.47.12.21.26.48.34.48.06 0 .1-.95.1-1.07.01-.42.04-.97.12-1.39.12-.61.36-.94.71-1.3.36-.38 1.37.87 1.31 1.22-.03.18-.16.5-.34.5-.17 0-.37-.19-.54-.35-.14-.14-.34-.34-.53-.37-.22-.04-.31.26-.32.46v1.87c-.02.45-.15 2.28-.48 2.34-.03 0-.11-.26-.15-.38l-.08-.14q-.11-.16-.16-.26l-.08-.14-.08-.16-.16-.28-.08-.16c-.12-.22-.26-.44-.4-.64-.08-.1-.18-.23-.27-.33-.08-.1-.28-.33-.28-.36m49.66-.07c0-.08-.18-.31-.4-.62-.15-.21-.26-.39-.3-.7-.11-.86.6-1.77 1.25-1.95.23-.06.44.31.48.5.06.25.1.68.08.88-.01.14-.11 1.39.04 1.33.08-.04.77.68.81.8.07.24 0 .47-.09.71-.02.06-.5-.26-.58-.31-.23-.15-.61-.4-.71-.42-.12-.02-.34.25-.43.37-.15.18-.32.4-.44.52-.3.3-.61.6-.95.86-.33.26-.67.48-1.06.67q-.21.11-.3.16c-.13.08-.22.14-.36.2-.08.04-.72.33-.75.24-.08-.25.5-.67.81-.88l.23-.17c.15-.13.16-.13.21-.15.08-.03.25-.16.67-.48.15-.09.2-.11.26-.16.18-.14.36-.28.53-.43.18-.16.51-.47.52-.48q.11-.1.2-.2c.06-.07.27-.29.27-.29m-42.6 4.31-.15-.27-.12-.24c-.1-.2-.16-.59-.2-.88-.21-1.33.41-3.18.83-4.42.06-.19.24-.73.38-.7.17.04-.05.78-.12.98-.24.71-.45 1.48-.57 2.29-.12.84.26 2.48.97 2.52.21.01.36-.28.42-.43.03-.07.07-.26.1-.36q.05-.21.11-.33c.08-.16.2.12.21.19 0 .06-.08.56-.12.78-.07.38-.14.72-.3 1-.15.26-.41.53-.77.42-.09-.03-.23-.14-.37-.25l-.31-.3zm69.68-4.03c.04-.09-.35-.45-.55-.63-.21-.19-.39-.37-.43-.68-.09-.71.31-1.94 1.02-2.13.26-.07.55.08.65.24.16.28.27 1.4.34 2.17.02.26.22.44.48.69.23.22.3.74.1 1.05-.03.05-.37-.19-.45-.25-.16-.12-.35-.24-.55-.29-.03 0-.52.52-.66.68-.22.24-.5.48-.77.68-.22.17-.46.37-.66.56-.02.01-.53.38-.88.63-.89.64-3.08 2-4.26 2.03-.21 0 1.6-1.11 1.67-1.15.56-.34 1.15-.73 1.76-1.12.81-.54 3.12-2.15 3.19-2.47m-28.31 4.84c-.16-.2.48-1.49.83-1.43.03 0 .51.31.73.46.06.04.34.23.34.23.12.13.25.28.28.27 0 0 .35-.57.39-.66.14-.28.27-.47.5-.66.08-.07 1.29.93 1.45 1.07.32.27-.42 1.4-.62 1.49-.12.05-.57-.32-.73-.45-.23-.19-.64-.53-.85-.48 0 0-.15.25-.15.25q-.09.18-.16.3c-.11.19-.37.64-.4.64-.24.05-1.56-.86-1.59-1.04m-12.27.52c-.13-1.08.02-2.51.51-3.41.15-.28.15.36.13.43l-.06.16q-.06.16-.1.32l-.04.16c-.07.23-.08.28-.08.28l-.04.2v.56l.04.28c.02.12.06.31.1.4.04.1.18.31.26.36.17.1.37.07.44-.12.07-.18.19-.48.26-.48.1 0-.07.79-.1.92-.05.22-.19.43-.34.66-.39.58-.9-.39-.99-.74m26.63-.76c.02-.49.15-.93.28-1.32.07-.21.15-.41.22-.6.04-.1.11-.27.12-.3.05-.1.11-.23.12-.26l.14.05-.04.19c-.02.11-.11.31-.18.48-.1.25-.25.61-.26.92-.04.83.11 1.58.75 1.79.23.08.37-.21.42-.38.06-.19.18-.58.24-.58.39 0-.31 1.8-.64 1.9-.3.1-.46-.01-.7-.17-.28-.19-.57-1.32-.47-1.72m13.9 1.69c-.21-.25-.11-1.18-.06-1.61.04-.32.18-.66.3-.92.07-.14.42-.95.52-.92.06.02-.08.44-.08.44-.06.16-.12.31-.2.44-.08.14-.14.26-.18.44l-.04.24v.22l-.04.24c-.05.2.33 1.04.46 1.05.26.02.37 0 .52-.22.06-.08.31-.46.33-.44.18.24-.43 1.33-.5 1.43-.31.46-.98.09-1.04-.39m-50.12-.24c-.14-.43.46-1.68.93-1.45.28.14 1.01.7 1.11 1 .12.35-.55 1.51-.89 1.32-.04-.02-.38-.28-.54-.41-.17-.14-.6-.47-.61-.47m-11.1.68c1.81-.92 4.4-2.22 5.61-2.73.15-.06.94-.42 1.37-.62.5-.23.98-.45 1.49-.66s1.02-.44 1.51-.68c.33-.17 1.11-.53 1.38-.5.57.08-.57 1.2-.79 1.28q-.11.04-.28.12c-.15.07-.42.2-.48.22l-.2.08-.28.14-.16.06-.28.14c-.51.21-1.14.49-1.49.66-.31.15-1.07.49-1.61.72-.49.21-1.01.44-1.49.68-.55.27-1.12.54-1.67.8-.46.22-1.14.54-1.39.68-.33.19-1.48.81-1.67.75-.1-.03.23-1.06.46-1.15m-13.4 1.91c-.25-.29-.13-1.53-.06-1.99.04-.28.61-1.76.74-1.78.1-.02-.14.74-.17.86-.17.5-.32 1.15-.28 1.73.05.68 1.02 1.42 1.02.32h.16l.02.14c0 .14-.08.46-.12.66-.06.27-.2.5-.35.67-.16.19-.48.11-.63-.04l-.18-.25-.07-.17-.08-.16zm64.72 3.55c.15-.16-.68-.71-.88-.77-.64-.21-1.45-.03-1.59.54-.14.58 2.11.49 2.47.23m-45.03-.07c-.27-.37-.34-.96-.3-1.49.04-.72.22-1.57.44-2.37l.24-.84c.03-.1.25-.89.4-.78.11.09-.2 1.23-.28 1.5-.06.23-.11.47-.16.72l-.04.2-.04.16-.04.4v.52s.08.32.08.32c.04.15.08.3.14.42.11.21.27.42.46.54.24.16.43.23.63-.04.09-.12.14-.2.18-.36.05-.24.1-.43.2-.61.11-.22.18.38.17.46-.02.11-.1.45-.16.68-.1.39-.21.82-.44 1.06-.58.59-1.09-.02-1.48-.5m-5.02.22c-.04-.22.15-1.07.24-1.51.05-.24.36-1.23.54-1.11.06.04-.16.71-.21.88-.14.43-.24.81-.2 1.28.03.35.24.66.44.86.14.14.41.14.51-.03l.14-.3c.05-.13.1-.26.15-.25.17.03-.08.95-.11 1.06-.12.33-.34.73-.67.66-.52-.11-.89-.91-.83-1.52m-11.76.2c.29.27-.35 1.4-.57 1.51-.04.02-.37-.18-.5-.26 0 0-.42-.23-.57-.31-.64-.34-.64-.36-.39-1.04.18-.47.33-.88.85-.62.28.14 1.14.59 1.17.72m47.92.22c0-.37-1.97-1.49-2.32-1.41-.2.05-1.07 1.73-1.11 2.07-.09.72.76 1.03 1.43.76.38-.15 2.15-1.06 2-1.43m-14.39-.19c-.05-.05-.11-.13-.15-.19q-.14-.19-.17-.23c-.11-.12-.14-.15-.15-.17-.07-.1-.21-.3-.23-.32-.05-.05-.57-.59-.84-.88-.13-.14-.37-.4-.56-.58-.07-.09-.24-.29-.26-.31 0 0-.38-.32-.53-.43-.1-.08-.35-.34-.5-.51-.56-.61-1.25-1.25-1.9-1.77-.05-.04-.74-.72-1.18-1.14l-.07-.13-.09-.13c-.14-.16-.35-.38-.48-.48l-.08-.13-.44-.48c-.16-.17-.46-.53-.69-.8-.07-.09-.2-.25-.32-.39q-.11-.15-.24-.32l-.18-.21-.32-.43c-.36-.44-.7-.92-1-1.43-.19-.33-.39-.54-.66-.79-.19-.17-.08-1.47-.03-1.78 0-.02.95.64.95.64.34.24.67.48 1.01.72.34.25 1.74 1.26 1.63 1.57 0 .02-.54-.09-.56-.1-.18-.04-.69-.14-.69-.14-.08 0 .45.78.45.78.12.18.34.43.52.63.39.44.85.96 1.17 1.28.7.7 1.58 1.57 2.11 2.15.19.2.39.41.61.58.2.16.43.35.6.54.37.39.75.77 1.13 1.15.17.17.41.4.62.6.15.14.42.41.63.61.12.12.97 1.11.99 1.17 0 .01.18.25.26.36.09.12.12.2.19.35l.08.16.14.24.06.16.06.16.12.24c.13.28.23.64.28.96.06.38.18 2.35-.02 1.81l-.3-.13c-.04-.05-.07-.1-.09-.19-.08-.38-.13-.65-.24-.96-.06-.18-.17-.4-.26-.58l-.08-.18-.08-.14-.16-.26-.09-.15zm-4.29 1.6c-.24-.46.19-3.01.49-3.07.05 0-.07.8-.09.94-.09.56-.09.95.02 1.45.06.29.3.56.57.66.11.04.29-.09.34-.18.1-.18.23-.4.25-.39.14.07-.18 1.22-.28 1.34-.59.74-1.12-.13-1.3-.76m14.91 1.24c-.29-.83-.27-1.84-.02-2.81.05-.18.24-.64.36-.92.11-.27.36-.84.34-.9 0 0-.43-.34-.64-.51-.21-.16-.41-.35-.61-.52 0 0-.36-.38-.52-.56-.12-.12-.22-.23-.32-.32-.13-.1-.35-.29-.35-.31-.05-.44-.14-1.3.06-1.65 0 0 2.53.97 2.56 1.12.03.14.02.2-.1.22-.23.05-.54.12-.54.22 0 .16 1.19.9 1.41.94.03 0 .48-.55.63-.74.13-.16.43-.56.64-.85.11-.15.23-.31.34-.43.12-.13.21-.26.32-.41.15-.21.55-.77.68-.78.21 0-.36 1.7-.41 1.8-.11.22-.45.66-.65.91s-.48.61-.57.93c-.01.05.6.46.73.54.29.2.49.41.71.68.52.62.52 1.26.42 2.14-.17 1.45-1.84 2.57-3.21 2.79-.63.1-.94-.24-1.25-.58m-6.25-17.35c.04-.11.14-.45.2-.68.06-.21.2-.67.31-.74.06-.04.54.92.6 1.06l.02.16.06.2c.02.07.04.11.16.34.04.07.18.45.26.66.16.43.35.92.5 1.28.08.18.51 1.18.32 1.29s-.47-.22-.57-.35c-.14-.17-.37-.44-.52-.45-.04 0 .14 1.44.14 1.44.08.51.2 1.22.24 1.61.09.88.23 2.06.4 3.09.3 1.79.89 5.8.8 6.36l.05.59v.44l-.04.8c-.01.24-.04.58-.08.92-.05.36-.33 1.4-.51 1.56-.17.15-.17-1.55-.17-1.82 0-.83-.15-2.1-.28-3.23-.22-1.84-.47-3.66-.73-5.46-.24-1.66-.47-3.32-.64-5.02 0 0-.08-.63-.08-.64l-.04-.24-.04-.24c-.07-.49-.12-.9-.16-1.38-.02-.25-.05-.62-.12-.86-.08-.27-.13-.44-.08-.68m-27.71 20.71c-.27-.03-1.04-.88-1.17-1.12-.35-.68-.61-1.31-.83-2.17-.29-1.17-.4-3.13-.48-4.66-.02-.41-.15-1.79-.24-2.73-.03-.36-.06-.71-.08-1l-.04-.4-.04-.28v-.6c-.05-.7-.13-1.49-.24-2.29-.05-.39-.11-.78-.16-1.16-.03-.23-.06-.48-.08-.56q-.07-.33-.08-.44c-.08-.6-.17-1.18-.3-1.73-.14-.57-.32-1.28-.34-1.64-.02-.4.36-1.76.7-1.6.41.2 1.15 6.45 1.2 7.1.27 3.33.81 9.68.97 10.76.11.76.43 1.48.79 2.01.27.4.67.74 1.13.94 1.04.47 2.29.11 3.09-.42.37-.24.62-.51.92-.83.13-.14.28-.34.41-.51s.3-.35.51-.41c.21-.05.07.47.04.58-.04.16-.2.73-.04.82l.17.23c.06.08.18.17.28.24.28.2.7.27.99.23.68-.11 1.27-.43 1.69-.81.14-.13.63-.81.89-1.18.07-.09.57-.69.55-.24l-.06.16-.08.2-.06.14c-.06.19-.1.55.02.7.22.27.41.5.77.6.35.1.83-.06 1.08-.23.29-.2.48-.57.65-.92.06-.12.15-.39.22-.6.07-.2.22-.62.48-.62v.33s.05.2.05.2c.05.17.21.35.33.45.49.39 2.01.92 2.59.39.25-.24-.91-2.41-1.16-2.88-.28-.52-.5-1.07-.73-1.65l-.08-.2-.06-.16c-.07-.19-.18-.47-.22-.56-.07-.14-.16-.27-.25-.39-.1-.13-.15-.2-.17-.29-.13-.53.15-1.19.31-1.56.05-.12 2.12 1.98 2.23 2.4.05.2-.14.14-.26.1-.28-.09-.52-.16-.62-.13-.06.02.26.69.3.77 0 0 .18.32.24.42l.08.16.08.14.14.22c.32.64.72 1.45.85 1.93.24.97-.01 2.62-.67 3.25-.45.42-1.31.39-1.97.23-.3-.07-.59-.18-.81-.34-.11-.08-.21-.17-.31-.25-.12-.11-.24-.22-.34-.23-.06-.01-.38.63-.44.75-.05.09-.16.24-.24.36l-.09.13-.22.18c-.12.16-1.12.4-1.35.29-.56-.28-1.01-.5-1.17-1.14-.03-.1-.49.47-.49.47-.14.18-.32.33-.52.45-.5.32-1.04.52-1.78.58-.41.03-.92-.28-1.16-.47-.07-.05-.17-.22-.25-.35s-.29-.48-.36-.44c-.05.02-.17.17-.29.31-.13.15-.26.3-.42.41-.27.18-.79.52-.83.54-.93.46-2.28.55-3.15.02m-16.87.9-.16-.06c-.13-.06-.28-.16-.4-.24s-.23-.18-.33-.27l-.29-.28c-.34-.24-.73-1.19-.93-1.74-.42-1.12-.2-2.79.04-4.1.04-.25.11-.46.18-.68.06-.18.14-.43.18-.56.14-.49.07-.68-.14-1.17-.79-1.86.06-4.54.63-6.37h.19l.05.19c.02.15 0 .28-.04.48 0 0-.14.63-.2.88-.15.68-.4 1.79-.4 2.13 0 .86.14 1.81.77 2.21.32.2.58-.27.64-.48.06-.19.3-.9.34-.89.5.16-.19 2.09-.41 2.37-.08.1-.17.19-.3.25-.19.09-.65.3-.65.32 0 0-.12.38-.16.48-.07.19-.11.35-.16.56-.12.51-.24 1.65-.24 1.65v.3l.04.18.04.2.04.2.04.2c.1.39.23.73.38 1.06.18.38.59.77.98 1.16.34.33 1.43.64 1.96.73.19.03 2.44.06 2.7-.2l.28-.08.16-.04c.17-.04.24-.06.36-.1l.32-.12.2-.08.2-.08.2-.08c.54-.21 1.05-.43 1.51-.72 1.35-.83 3.67-2.27 4.18-3.21.15-.28-.37-1.27-.52-1.57-.13-.25-.26-.48-.4-.72-.11-.18-.23-.39-.3-.6l-.12-.28c-.06-.14-.13-.35-.2-.56l-.04-.12c-.05-.16-.12-.38-.2-.6l-.06-.16-.06-.16-.04-.16-.04-.12q-.05-.12-.15-.27c-.11-.17-.13-.19-.13-.45-.01-.42.2-1 .34-1.36.02-.04.57.55.57.55.18.2.39.42.63.7l.45.53c.2.26.42.56.4.7 0 .03-.32-.06-.32-.06-.16-.05-.5-.16-.52-.13-.09.1.52 1.31.68 1.62.28.56.57 1.14.67 1.75.14.88 0 1.75-.2 2.53-.02.08-.43.55-.64.79l-.16.2c-.14.18-.3.32-.49.48-.12.11-.43.39-.46.43-.15.27-2.91 2-3.36 2.15-.21.07-.48.21-.71.32-.23.12-.56.25-.87.36-.55.21-1.12.39-1.74.54-1.29.32-2.63.18-3.83-.32m76.02-2.77c.45-.03.67-.04.99.14.22.12.48.28.87.14.27-.1.47-.23.64-.43.07-.08.16-.24.25-.39.07-.13.19-.33.29-.27v.19s.03.24.03.24c.02.08.11.13.18.16.23.11.46.19.7.07.04-.02.15-.41.23-.68.06-.2.16-.53.32-.6s.06.61.04.68c-.05.19-.1.36-.16.52-.08.23-.32.86-.5.88l-.24.14c-.1.04-.14.05-.24.04-.26-.02-.3-.03-.44-.08-.23-.09-.42-.16-.67.03l-.2.16c-.2.16-.47.25-.78.29-.21.03-.44-.08-.58-.18-.26-.17-.37-.25-.79-.22-.37.02-.96.4-1.29.62l-.61.4c-.08.05-.18.12-.23.17-.1.09-.19.17-.31.23-.69.39-1.98 1.12-2.66 1.06-.13-.01 1.1-.71 1.14-.74.13-.08.42-.27.63-.4l.68-.48c.89-.59 2.39-1.56 2.72-1.71m-38.09 1.67c.73-.32 2.41-1.71 2.91-2.31.48-.58 1.04-1.26 1.27-2.03.19-.62-.21-3.6-.44-5.34-.11-.81-.23-1.6-.36-2.37-.06-.35-.19-1.36-.28-2.13-.05-.39-.14-1.15-.16-1.24-.06-.37-.11-.78-.16-1.17-.12-.95-.24-1.95-.32-2.61-.04-.3-.08-.6-.16-.84-.1-.3-.19-.58-.12-.8.08-.26.42-1.35.6-1.3l.07.21.08.2q.1.23.12.28c.06.15.1.26.16.36q.06.1.12.24l.32.56.08.18.08.16.08.16.08.14c.13.27 1.21 2.39.72 2.35-.11 0-.38-.31-.48-.43-.15-.18-.51-.61-.53-.61-.09-.02-.06.6-.06.62l.04.36.04.28.04.32c.06.48.13.96.2 1.45l.2 1.36c.03.23.11.68.12.76.04.18.08.44.08.6 0 0 .12.95.16 1.24.05.37.19 1.33.2 1.43l.04.18.04.28c.02.13.06.52.08.68.03.31.12 1.08.12 1.08v.3q0 .27.04.66c.2 1.97-.7 3.93-1.51 5.44-.14.25-.57.69-.83.96 0 0-.48.42-.67.58l-.22.18-.23.16c-.57.58-5.9 2.13-6.7 1.99-.74-.13 2.15-1.2 2.32-1.26 0 0 .43-.18.61-.26l.28-.14s.42-.18.52-.22c.25-.11.49-.21.81-.4l.16-.08.28-.16.16-.08zm22.32 2.51c-.83-.24-1.72-1.49-1.88-2.43-.08-.46-.1-.86-.08-1.29.02-.33.07-1.23.05-1.27-.04-.13-1.25.69-1.35.76-.48.33-.97.64-1.48.96-1.06.65-2.21 1.27-3.37 1.81-.55.26-6.34 1.51-6.62 1.45-.59-.13 2.6-1.3 2.74-1.34.46-.16 1.15-.41 1.43-.54l.16-.08.12-.08.16-.08.18-.08.28-.14.14-.06.14-.08q.14-.09.24-.12c1.89-.57 9.5-5.57 9.71-6.69.02-.1-.21-.66-.26-.76-.07-.14-.16-.27-.24-.4-.08-.11-.13-.23-.2-.38 0-.01-.16-.28-.24-.42l-.09-.13s-.03-.04-.19-.33l-.08-.18-.08-.14-.08-.14-.14-.22c-.35-.68-1.35-3.02-.57-3.71.1-.08.26.15.31.22.1.15.22.29.35.41.17.15 1.32 1.3 1.32 1.3.09.13.31.43-.06.39-.07 0-.81-.09-.66.06l.06.24.08.12.08.14.08.12.16.28.08.16.08.14.08.14.08.14.14.2c.08.15.36.68.36.68.34.9.58 2.82-.11 3.69-.41.51-.81.98-1.32 1.38-.22.17-.62.51-.69.63-.1.18-.18.41-.22.64-.04.18-.19 1.06-.04 1.08l.04.2.04.2c.04.17.08.28.14.44.09.22.25.45.41.67.62.87 1.95 1.24 3.18.99.82-.16 1.52-.43 2.14-.78 1.53-.87 4.23-2.96 5.06-4.46.11-.2-.04-.51-.2-.61-.01-.01-1.24.22-1.52.27-.46.1-1 .12-1.41.12s-.97-.34-1.31-.55c-.67-.42-.35-2.08-.07-2.76.17-.4.75-1.04 1.15-1.2.22-.09 1.01-.28 1.23-.06l.32.12c.15.07.26.14.38.22.23.16.4.31.64.52.2.17.36.38.51.59.16.22.42.6.56.63.21.05 1.45-.78 1.74-.98 0 0 .51-.41.7-.56.26-.18.68-.48.85-.5.24-.03.28.32.28.52 0 .4 0 .96.06 1.08.17.38.58.73.97.9 1.27.56 2.17.03 3.02-.57.21-.15.55-.74.77-1.14.26-.46.71-1.24.89-1.28.32-.09-.01.63-.04.68-.11.21-.3.6-.26.78.15.7 2.53 1.55 2.85.8.05-.12-.09-.44-.16-.58-.23-.42-.34-.64-.34-.78 0-.22.25-1.15.37-1.26.31-.26 1.14 2.15.84 2.74l-.04.28-.04.16-.08.24c-.1.25-.23.52-.39.71-.27.32-.66.47-1.16.47s-1.07-.11-1.47-.38c-.23-.15-.42-.31-.59-.52-.14-.16-.4-.48-.46-.46 0 0-.24.31-.26.33l-.05.15-.16.24c-.2.26-.42.46-.7.65-.43.29-.94.53-1.6.58-.54.04-1.03-.14-1.47-.3-.32-.12-.62-.47-.79-.76-.11-.19-.2-.35-.26-.56q-.07-.23-.08-.32l-.04-.32-.02-.12c-.07-.14-.92.57-.92.57-.09.08-.23.19-.51.39q-.17.13-.23.17c-.1.08-.2.16-.31.23-.1.06-.36.25-.38.32-.03.11-.07.49-.08.6l-.04.56-.04.36c-.02.16-.14.64-.24.68l-1.58 2.1s-1.43 1.28-1.53 1.35c-.13.1-.6.47-.88.7-.14.11-.27.21-.43.31-.15.09-.45.27-.52.32-1.06.84-3.67 1.55-5.04.78m-19.75-.74c.2-.6.79-1.55 1.43-1.63.25-.03.57.33.67.5.08.15-.21.79-.32.84-.1.05-.23-.11-.32-.21-.16-.2-.26-.32-.35-.33-.2-.01-.44.18-.46.36-.02.16.6.5.83.52.28.02.42 0 .73-.04.31-.05.68-.1.78 0 .07.07-.19.58-.3.64l-.16.04h-.14l-.14.04-.16.04c-.23.06-.45.11-.68.16-.2.04-.39.11-.57.18-.14.05-.67.26-.67.13l.09-.25c.09-.24.17-.48-.08-.67-.05-.05-.17-.3-.17-.33m-32.85.84c.99-.37 2.13-.98 3.07-1.53.72-.42 2.73-1.49 3.25-1.53.11 0-.17.8-.21.88 0 0-3.2 1.53-3.5 1.65s-.61.26-.89.4c-.29.15-.59.3-.91.44-.27.12-.56.26-.81.4-.21.12-.33.19-.28-.16.03-.2.08-.53.28-.56m17.55.28c.05-.23-.06-.56-.26-.6-.19-.04-.32.08-.46.21-.03.03-.46.44-.33.19l.04-.16.1-.32c.05-.16.12-.3.2-.42.17-.24.44-.63.85-.5.66.2.1 1.74-.08 2.13-.03.07-.16.22-.26.35-.08.11-.16.2-.23.31-.09.15-.15.2-.27.31-.13.11-.52.2-.32-.08.06-.09.17-.23.24-.32.11-.12.36-.44.36-.44t.15-.21c.09-.12.26-.36.26-.44m15.03 1.28s.6-.23.85-.32c.1-.04.48-.18.48-.18l.24-.08q.16-.05.28-.1c.27-.1.59-.23.85-.3.07-.02 1.22-.35 1.03-.06-.32.46-.49.52-1.15.74l-1.29.44c-.23.08-.5.18-1.05.38-.14.05-.53.2-.58.17-.06-.03.09-.67.34-.7" fill="#1d1d1b" fill-rule="evenodd"/></svg>