<svg viewBox="0 0 88.07 27.6" xmlns="http://www.w3.org/2000/svg"><path d="m.48 10.15c.02-.1.05-.25.08-.34.02-.07.09-.26.11-.29.04-.06.18-.27.17-.31-.03-.18 0-1.27.5-1.24.02 0-.06.44-.06.44-.04.18-.11.5-.12.56-.05.31-.15.72-.24 1.08-.24.97-.28 2.35.06 3.21.1.26.38.57.67.62.17.04.32-.29.36-.42.08-.23.19-.53.3-.53.22 0 .02.92-.02 1.09-.08.37-.16.62-.34.86-.15.2-.36.33-.64.24-.15-.05-.32-.18-.49-.3l-.17-.23c-.35-.62-.4-1.28-.45-2.04-.02-.26-.01-.7.04-1.07.03-.2.05-.35.07-.46m77.53 6.03c.11-.08.33-.23.45-.29.07-.04.15.38.15.39.04.2.05.26.1.4.08.23.2.43.32.62.18.28.45.46.74.66.34.23.92.32 1.47.26.5-.05 1.33-.34 1.6-.61l.23-.17c.18-.19.34-.36.42-.45.09-.11.19-.27.25-.39.07-.14.17-.33.21-.35.09-.05.17.07.26.18.08.11.2.27.26.33.19.17.47.42.66.49.47.18.92.36 1.51.3.39-.04.72-.2.96-.44.26-.26.42-.86.6-1.51.14-.52-.48-2.93-.88-2.66-.14.09-.36 1.12-.37 1.42 0 .12.09.25.17.35.09.11.19.23.25.37.44.93-.96.82-1.49.62-.36-.14-1.08-.46-1.21-.78-.11-.28.03-.56.16-.82.07-.14.35-.96 0-.74-.21.13-.47.65-.67 1.04-.17.34-.37.73-.58 1.01-.39.52-1.15 1.12-1.98 1.18-.84.06-2.13-.33-2.3-1.04-.07-.31-.13-.57-.1-1.07.01-.2.03-.58-.34-.54-.24.02-.83.53-1.06.73-.22.2-1.9 1.43-2.16 1.36-.06-.02-.3-.3-.45-.48l-.09-.13c-.55-.67-.94-.96-1.31-1.22-1.29-.93-2.68.26-3.03 1.29-.26.77-.36 1.9.18 2.51.2.23.88.56 1.29.56.56 0 1.21-.1 1.82-.2.25-.04.48-.1.69-.18.13-.05.38-.14.46-.08.12.09.38.47.2.64 0 0-.17.26-.22.34-.07.11-.14.21-.23.31l-.19.21c-.15.15-.3.3-.39.42-.27.34-.74.88-1.1 1.1-.26.16-.6.44-.82.66-.2.2-.43.39-.67.57-.55.4-1.12.79-1.73 1.13-.65.37-1.45.55-2.3.66-.48.07-1.16.03-1.57-.2-.48-.26-.78-.46-1.12-.85-.3-.33-.64-.95-.64-1.54s.03-.98.18-1.5c.04-.15.55-.6.89-.9.3-.26.58-.57.83-.88.56-.69 1.06-2.27.6-3.51-.22-.58-.49-1.04-.79-1.53-.14-.22-.86-1.39-.78-1.51.1-.15.42-.05.58 0 .04.01.21.07.23.03.11-.21-.12-.44-.26-.58-.26-.25-.51-.49-.79-.71-.29-.23-.58-.53-.79-.84-.24-.37-.31-.17-.38.2l-.04.12-.04.16-.04.36-.02.24c-.16.03.2.71.24.78.03.06.22.53.3.74.18.47.36.87.58 1.26.31.54 1.54 2.67 1.37 2.93-.85 1.32-4.17 3.59-5.65 4.44l-.26.16-.14.08-.26.16-.14.08-.14.08c-.14.08-.27.16-.4.24-.12.08-.34.2-.4.24-.34.18-.71.38-.99.56-.23.15-.51.3-.77.42-.12.05-.34.18-.5.26l-.16.08-.14.08c-.32.17-1.01.52-1.01.52-.32.15-.67.29-1.01.4-.01.08-1.08.42-1.29.52l-.28.14q-.14.05-.32.12c-.15.06-1.44.57-1.26.73.14.13 1.16-.12 1.47-.21l.24-.08.12-.04.16-.04.11-.04s1-.28 1.19-.26c.2-.04.38-.07.55-.11.28-.05.54-.12.81-.2.19-.05.43-.12.61-.16 1.15-.26 1.9-.64 2.79-1.12.87-.47 1.84-1 2.54-1.5.69-.5 1.39-1 2.14-1.42.07-.04.02 1.01.02 1.14-.02.36 0 .6.04.96.04.41.15.73.28 1.12.15.43.72 1.18 1.08 1.4.44.27 1.09.67 1.69.67 1.77 0 3.27-.59 4.51-1.49.43-.31 2.67-2.16 2.73-2.37.02-.07.15-.2.24-.29t.18-.22c.08-.1.17-.21.26-.3q.1-.1.19-.23c.28-.4.7-.98.8-1.26.1-.24.16-.47.18-.8.02-.32.08-1.15.08-1.16.03-.14.43-.46.68-.66.05-.04.47-.37.6-.49.06-.12.46-.45.53-.4m6.06-14.27c-.25-.38-.89-.01-.94.35-.04.34.59.65.89.8.79.39.17-1.02.05-1.16m-26.75 1.4c.18-.68-.16-1.54-.82-.9-.23.23.02.52.19.67.07.06.56.47.63.23m-41.5-.2c.12-.49.99-.9 1.65-1.2.29-.14 1.4-.69 2.12-1.04l.12-.08s.26-.13.28-.14l.14-.06.3-.14.14-.06c.21-.1.44-.22.75-.38l.16-.06.24-.12c.1-.05.23-.11.34-.16.2-.09.4-.18.61-.28.23-.12 1.03-.51.89 0-.11.38-.21.58-.55.74l-.24.08q-.15.06-.4.2l-.16.06-.14.08-.14.08c-.36.19-.74.37-1.13.52-.2.08-.72.32-1.07.48-.71.33-1.45.69-2.16 1.04l-.16.08q-.14.08-.24.12c-.22.08-.43.18-.63.28-.26.13-.85.45-.73-.04m56.66.08c-.11-.17.06-.7.15-.88.22-.45 1.73.82 1.82.93.22.24.44.51.63.77l.18.21.16.23s.12.2.15.25c.08.14.11.19.18.22.09.04.12-.61.12-.64v-.54l-.04-.16.04-.44c0-.41.07-.94.22-1.34.66-1.68 2.32-1.19 1.79.51-.04.12-.6-.36-.65-.4-.22-.19-.59-.28-.77.03-.15.26-.18.52-.18.9 0 .81 0 1.46-.04 2.21-.01.25-.11 1.77-.45 1.66-.04-.01-.1-.2-.11-.26q-.08-.26-.1-.32s-.28-.43-.41-.62c-.22-.33-.47-.7-.87-1.16l-.22-.18c-.06-.07-.11-.11-.21-.11-.32 0-.42 0-.46-.02-.35-.15-.85-.4-.91-.84m-30.96 3.29c.11.14.69.48.88.51.24.04 0-.68-.09-.77-.29-.29-.99-.01-.79.26m-14.93-2.39c-.25-.14-.14-1.06.05-1.23.34-.29 1.48.7 1.72.91.23.2.45.44.63.69.1.14.51.7.58.68.08-.03.02-1 0-1.14-.02-.29-.06-1.23.08-1.37l.12-.32q.1-.3.14-.38c.06-.12.21-.38.32-.44.41-.21.77.28.94.52.1.14.25.34.21.55-.02.11-.21.45-.3.38-.51-.35-1.24-.83-1.19.22.06 1.23.15 3.22-.24 3.85-.03.05-.23-.36-.24-.4-.09-.2-.19-.36-.3-.54-.17-.28-.36-.57-.57-.82-.43-.51-1.23-.99-1.96-1.16m42.8-2.83c.28-.08-.09.76-.12.79-.31.38-8.11 5.1-8.11 5.1-.21.04-.05-.83.07-.95.03-.04.35-.23.48-.31.17-.1.34-.21.51-.32s.33-.22.51-.32c.71-.43 1.94-1.19 2.23-1.37.34-.22.7-.43 1.06-.64.4-.22.85-.48 1.41-.86l.16-.06.14-.08c.18-.11.53-.32.54-.33.23-.15 1.02-.68 1.14-.64m-12.94 2.77s-.16-.17-.18-.21c-.14-.2-.29-.42-.33-.69-.05-.32.32-1.27.47-1.46.19-.24.45-.45.78-.51.18-.03.45.32.49.5.08.37.07.79.04 1.17 0 .09-.07 1.03.05.98.09-.04.81.65.86.79.08.24 0 .56-.09.75-.02.05-.42-.23-.49-.29-.22-.16-.59-.4-.83-.43 0 0-1.01 1.04-1.1 1.16-.33.39-.75.75-1.19 1.03-.47.3-1.92 1.12-2.27 1.16-.79.1 2-1.77 2-1.77.36-.24 2.2-1.68 1.8-2.17m27.33.11s-.34-.31-.54-.47c-.15-.12-.44-.38-.47-.55-.17-.92.26-1.9.91-2.33.19-.13.68.1.73.26l.18.38.04.16c.05.17.07.25.08.36l.04.72.04.36.23.67c.15.13.26.22.32.32.15.23.17.56.05.87-.01.04-.47-.23-.52-.26-.19-.11-.42-.24-.55-.26-.04 0-.23.22-.3.31-.12.15-.26.33-.64.7-.12.11-.37.33-.42.37-.04.03-.52.43-.74.61-.25.21-.69.57-.85.65l-.28.2s-.36.24-.52.34c-.17.11-.33.22-.52.32l-.28.16-.24.16c-.29.18-2.16.95-2.37.87-.11-.04.6-.51.63-.53l.23-.15.14-.07c.17-.1.33-.19.5-.28.53-.27 1.26-.8 1.82-1.2.57-.41 1.16-.82 1.73-1.2.23-.15 1.6-1.33 1.57-1.51m-77.71 2.09s-.09-.16-.12-.22l-.24-.36-.08-.12-.24-.32c-.18-.26-.6-.8-.83-.9h-.26q-.13 0-.22-.04c-.12-.06-.3-.15-.38-.2-.29-.18-.46-.32-.58-.68-.08-.25.11-.96.3-1.01.41-.1 1.38.81 1.67 1.1.17.17.46.51.68.78.08.1.56.67.57.67.04-.03.05-.9.05-.98 0-.58 0-1.04.12-1.45.11-.37.3-.96.59-1.1.47-.23 1.05.54 1.15.9.09.3-.04.64-.24.82-.08.08-.34-.2-.4-.27-.1-.13-.23-.27-.37-.35-.24-.13-.45-.09-.48.2v.44l.04.98c0 1.08-.17 2.99-.71 3.85-.34.54-1.62 1.91-2.38 1.91-.09 0 .22-.38.22-.38.06-.07.25-.26.38-.4.13-.13.28-.28.46-.46l.08-.13.2-.2c.25-.24 1.4-1.63 1.04-2.1m49.47 3.35c-.2-.23.3-1.07.45-1.26.21-.26.62 0 .94.19.27.17.82.5.95.22.17-.36.38-.78.62-.99.3-.27 1.56 1.09 1.62 1.36.04.2-.66 1.19-.79 1.2-.07 0-.48-.32-.67-.47-.23-.18-.64-.51-.84-.48 0 0-.35.65-.37.7-.08.2-.22.52-.34.54-.25.06-1.56-.85-1.57-1m14.51.66c-.14-.46-.35-1.16-.12-1.68l.04-.16.04-.2.04-.2c.03-.11.13-.38.2-.56.12-.31.31-.8.42-.88.15-.11-.2.78-.2.78-.16.42-.24.93-.22 1.47.02.47.55 1.5 1.02 1.15.11-.08.16-.19.19-.35.03-.19.09-.56.26-.56.1 0-.06.88-.1 1-.06.22-.15.45-.26.62-.18.26-.34.45-.73.24-.16-.09-.25-.15-.44-.38l-.14-.28zm13.72.16c-.05-.23-.24-1.47-.04-1.57l.04-.16q.05-.19.08-.28l.06-.16.08-.2.06-.16c.04-.11.33-.86.46-.8.1.04-.27.89-.28.92-.12.28-.26.64-.22 1.04.04.36.2 1.04.48 1.12.23.07.31 0 .43-.15q.1-.12.15-.29c.05-.16.1-.3.2-.22.3.22-.45 1.4-.54 1.48-.5.44-.79-.16-.98-.58m-75.4.52c-.3-.82-.15-1.61.06-2.45.08-.32.46-1.64.71-1.61.05.01-.22.87-.22.89l-.08.24-.04.12-.04.16-.04.16-.08.24c-.23.68.07 2.02.91 1.85.11-.02.16-.21.18-.32.03-.12.13-.6.24-.4.13.24-.16 1.44-.3 1.55-.47.37-1.07.15-1.29-.42m17.46-.26.34-.23.12-.08c.22-.16.22-.16.22-.16.06-.04.63-.39.91-.56l.12-.08q.12-.08.26-.16c.14-.08.42-.24.42-.24.13-.08.34-.21.4-.24.2-.1.38-.21.56-.32.27-.16.54-.33.83-.48l.14-.08.24-.14c.24-.12.24-.12.24-.12l.14-.06.14-.08.12-.08.16-.08.14-.08.24-.16.18-.08.16-.08.4-.24.32-.16q.23-.1.32-.16c1.39-.79 7.72-3.89 7.98-3.87.34.03-.11.95-.19 1.04-.04.05-.74.4-1.19.62-.76.38-2.15 1.07-2.44 1.2-.74.35-1.51.71-2.22 1.12-.59.35-1.54.82-2.32 1.2-.68.34-1.38.72-2.03 1.13-.68.43-1.41.83-2.12 1.21-.66.36-1.41.76-2 1.2-.18.13-.89.61-.91.61-.14 0 .01-.6.04-.7.04-.19.15-.53.25-.62m15.05-3.64c-.06-.49.12-1.13.34-1.4.23-.29.49-.52.91-.58.1-.01.41.28.57.42.05.05.16.68.16.74 0 .65 0 1.2.07 1.28.12.13.32.35.35.41.09.18.09 1.01-.16.95-.02 0-.15-.15-.2-.21-.08-.09-.17-.16-.28-.22-.12-.07-.56.46-.69.61-.21.25-.45.49-.71.7 0 0-.46.41-.63.57-.03.02-.21.18-.3.24q-.17.13-.22.18l-.25.18c-.38.31-3.75 2.56-2.12.92l.54-.41.13-.09c.11-.09.38-.32.52-.45l.2-.16c.46-.36.91-.73 1.34-1.12.21-.19.42-.38.65-.56.25-.2.49-.42.69-.67.26-.32.06-.46-.28-.68-.21-.14-.59-.4-.63-.64m.93 6.22c.18-.29-1.05-.18-1.23-.14-.21.04-.39.15-.55.26-.14.1-.4.27-.42.28-.05.01.49-1.15.49-1.15.3-.66 2.15-.52 2.77-.28.26.1-.27 1.08-.36 1.22-.26.4-1.07.76-1.69 1.04-.56.25.04-.36.18-.46.11-.08.79-.67.81-.76m-9.56.95c-.24-.46-.32-1.08-.29-1.75.02-.59.95-3.38 1.06-2.92l-.15.59-.06.16q-.04.09-.08.28c-.12.48-.27 1.07-.28 1.29-.03.49.15 1.77.79 1.67.24-.04.28-.21.34-.46.04-.15.11-.42.3-.4.08 0-.13.96-.14 1-.05.23-.18.56-.31.71-.36.42-.87.15-1.18-.17m-25.3.8c-.08-.24.4-1.01.59-1.3.11-.17.7.11.88.19.14.07.3.16.43.24.15.1.25.16.42.17.07 0 .36-.54.44-.69.11-.2.24-.42.44-.52.22-.11 1.31.74 1.45.94.24.36-.32 1.36-.65 1.45-.1.03-.46-.21-.62-.32-.25-.17-.63-.42-.75-.45-.18-.04-.77 1-.87 1.2-.1.18-.88-.36-.9-.38-.09-.07-.25-.14-.36-.2-.15-.08-.47-.24-.5-.33m67.1 1.57c.08-.22-.74-.69-.98-.77-.61-.2-1.39.05-1.51.66-.08.41 2.17.44 2.49.11m-23.7 1.62c-.09-.27-.42-.45-.68-.54-.13-.04-1.3-.28-1.17-.06.61 1.01 2.19 1.2 1.86.6m9.83-.68c.1-.31-1.52-1.18-1.94-1.41-.63-.34-1.37 1.34-1.49 1.95-.23 1.11 1.29.91 1.86.62.25-.12 1.53-.95 1.57-1.17m-3.59 2.83c-.19-.38-.46-.92-.41-1.3v-.16l.04-.52.04-.36v-.22c.02-.24.12-.55.2-.78l.08-.24c.14-.32.18-.4.2-.48.01-.04.1-.2.14-.28.08-.15.16-.29.18-.44 0-.05-.52-.49-.64-.59-.24-.2-.7-.58-.76-.65-.44-.44-1.13-1.12-1.14-1.43-.01-.22-.07-1.41.32-1.23l.24.18.35.13.12.04.16.06c.34.13.92.35 1.05.4.15.06.4.17.42.21.05.11 0 .22-.09.25l-.36.06-.15.09c-.12.26 1.16.99 1.54.97 0 0 .22-.31.23-.34.1-.17.21-.32.34-.47l.24-.33q.11-.14.15-.21c.08-.13.14-.23.17-.27.06-.08.24-.32.24-.32.11-.13.21-.27.32-.41.17-.24.62-.84.67-.86.29-.14-.21 1.57-.26 1.69 0 0-.52.76-.74 1.08-.08.11-.16.24-.23.37-.21.36-.34.59.04.82.26.16.6.36.74.49.42.38.82.84.93 1.51.35 2.09-1.63 3.57-3.29 3.87-.18.03-.4 0-.57-.04-.08-.02-.3-.14-.5-.29m-7.07-17c.02-.25.4-1.17.52-1.1 0 0 1.31 2.36 1.46 2.66.18.36.71 1.42.54 1.64-.08.1-.48-.3-.56-.38-.12-.12-.37-.37-.52-.37-.07 0 .03.6.06.76l.04.2.04.4.04.2.24 1.61c.03.18.11.58.12.64.04.19.09.4.12.6l.04.28.04.2.04.28c.05.33.12.79.16 1l.04.2.04.32.04.32c.02.13.08.47.12.68l.04.24.08.56q.05.27.08.48c.05.37.05.43.08.6l.04.24-.04.35c.05.07.14.21.16.49l.06.4.02.2c.03.28.14 1.4.12 1.42v.88c-.02.41-.06.95-.16 1.35-.08.34-.33 1.19-.58 1.22-.09.01-.07-.54-.07-.54q.03-.59 0-.92l-.04-.56v-.16l-.04-.48-.04-.28c-.08-.76-.2-1.71-.32-2.69-.08-.65-.4-2.55-.65-4.02l-.68-4.46c-.13-.77-.28-1.69-.36-2.29l-.04-.28-.04-.32q-.05-.46-.08-.56c-.1-.42-.21-.85-.16-1.04m-46.68 18.76c-.2-.06-1.06-.64-1.61-1.01-.37-.25-.75-1.07-.91-1.56 0 0-.09-.38-.12-.52q-.04-.18-.04-.32c0-.13 0-1.02.04-1l.04-.24.04-.16.04-.2.04-.2c.06-.24.13-.52.2-.76.09-.32.44-1.27.76-1.22.05 0-.15.71-.2.86-.15.52-.24 1.05-.28 1.67-.03.5.37 1.35.59 1.66.32.44.76.85 1.3 1.05.57.21 1.66.63 2.04.58l.36.04h.73c.18.01.19.01.24 0t.57-.04l.32-.04.24-.02.32-.02.28-.04.28-.04c2.03-.29 8.21-2.44 8.41-3.55.03-.16-.51-.87-.63-.99s-.25-.23-.39-.34c-.21-.17-.4-.32-.43-.58-.02-.21.18-1.14.3-1.3 0 0 1.06.7 1.1.74.29.2.75 1.26.81 1.71.1.65-.23 1.49-.42 1.97-.46 1.14-3.96 2.61-5.37 3.11-2.53.9-5.8 1.55-8.68.78m43.31-2.04c.22-.19-.08.93-.11 1.04-.13.48-.24.9-.16 1.33.04.22.26.72.51.8.14.05.21-.04.26-.2.04-.1.18-.52.26-.32.1.23-.22 1.24-.35 1.42-.4.56-.88-.33-1-.7-.24-.71.18-2.93.59-3.36m38.47.23.08.16q.09.4.14.44c.2.15.41.17.71.12.13-.02.2-.41.24-.64.04-.21.19-.57.32-.68.07-.06.07.66.04.8-.03.15-.07.27-.12.4-.15.43-.29.71-.61.97-.12.1-.28.16-.46.14-.16-.01-.3-.05-.42-.1l-.14-.08-.16-.06c-.08 0-.18.1-.26.17-.05.05-.15.13-.21.17-.19.14-.39.25-.67.3-.24.04-.52-.03-.73-.14-.33-.18-.45-.24-.73-.22-.51.04-1.74.93-2.43 1.44-.49.36-1.97 1.26-2.71 1.1-.12-.03.44-.27.44-.27.11-.05.37-.22.52-.32.16-.11.48-.32.58-.38l.19-.15.14-.07c.31-.19.66-.46 1-.74l.31-.23q.15-.11.32-.24l.21-.17c.59-.43 1.64-1.19 2.43-.67.41.27.77.21 1.15-.04.17-.11.27-.22.4-.37.04-.05.05-.06.15-.25.06-.12.19-.36.26-.38m-61.02 3.87c-.02-.54.11-1.19.24-1.67 0 0 .08-.24.12-.36.05-.15.14-.42.14-.48l.14.03c.08.08.03.23 0 .33l-.05.15q-.07.12-.07.17c-.07.42-.16 1.03-.16 1.29 0 .29.24.8.39.96.15.15.42.18.52-.03.05-.12.3-.65.32-.64.1.03 0 1.76-.69 1.87-.61.1-.86-1.07-.91-1.61m9.79 2.23c-.52-.35-1.15-.78-1.25-.94-.29-.45-.48-.97-.58-1.62-.1-.63-.06-1.12 0-1.73.04-.44.11-1.1.05-1.2 0 0-.97-1.15-.97-1.15-.07-.04-.57.59-.65.68-.21.26-.43.45-.73.62-.53.29-1.18.47-1.9.54-.45.05-1.29-.31-1.55-.5-.46-.33-1.12-.83-1.33-1.35l-.08-.14-.08-.16q-.09-.18-.16-.36c-.07-.17-.15-.41-.22-.6-.07-.2-.44-1.22-.5-1.16-.01 0-.06.35-.06.4-.03.33-.09.58-.16.88-.11.46-.28.9-.46 1.29-.19.41-.48.88-.78 1.2-.28.3-.93 1.03-.97 1.08-.56.82-4.57 2.47-5.92 2.54-.43.02.97-.8.97-.8.19-.1.39-.2.56-.32.15-.1.32-.19.48-.28.36-.19.67-.38.99-.6.3-.22.8-.58.99-.68.96-.55 3.17-2.72 3.49-3.85.09-.33-.48-1.82-.63-2.01-.81-1.01-2.25-2.74-2.53-2.98-.98-.81-2.31-1.93-3.01-2.63-.23-.23-.45-.45-.68-.67-.25-.23-.51-.48-.72-.7-.19-.2-.87-.88-1.31-1.32-.52-.51-2.41-2.64-2.54-3.03-.11-.35-.2-1.01-.15-1.43.01-.08 1.24.61 1.27.63.41.23.81.48 1.21.72s.77.49 1.13.76c.12.09.32.43.04.45l-.28-.05h-.2c-.29-.05-.55-.08-.62-.06-.12.03.74.94.79.99.32.32.79.79 1.04.97q.06.04.18.19c.05.07.13.13.2.19.17.14.41.36.69.63.12.1.33.27.64.55l.17.21c.44.36 1.37 1.22 2.04 1.84.34.31.95.87 1.08.98.1.08.31.31.46.47q.08.08.2.24c.08.1.17.23.27.3.29.23.68 1.08.89 1.56.08.19.2.55.3.84.04.12.08.27.12.44.05.2.13.43.21.62.17.39.25-1.34.24-1.42l-.04-.36-.04-.28-.04-.24-.04-.28-.04-.24-.04-.36-.04-.24c-.18-1.25-.38-2.44-.61-3.65-.1-.55-.22-1.18-.28-1.65-.05-.33-.21-1.25-.32-1.85l-.04-.2-.04-.16-.04-.2c-.06-.29-.11-.58-.16-.88-.11-.65-.3-1.79-.24-1.97l.04-.24v-.16s.07-.3.08-.32c.04-.15.12-.42.24-.42.27 0 .97 3.41 1.05 3.79.36 1.79.72 3.64 1.01 5.54.28 1.82.98 5.81 1.01 5.9.41 1.22 1 2.31 2.2 2.73 1.24.43 2.27.07 3.16-.62.28-.21.57-.6.71-.93.11-.25.63-1.2.88-1.1.15.06.04.53-.01.67-.12.35-.16.56-.02.88.16.36.49.61.89.74.93.3 1.78-.33 2.12-.94.19-.34.34-.72.48-1.08.13-.35.34-.88.52-1.02.27-.21.08.44.05.54-.09.26-.17.5-.05.75.1.23.62.56.88.65.53.18 1.83.17 1.49-.6-.29-.66-.66-1.52-.17-2.34.12-.21.48.51.54.62.05.1.11.23.16.34q.06.14.1.34s.05.23.06.24c.17.07-.27 1.83-.32 2.01-.12.37-.4.82-.75.96-.35.15-.63.27-1.03.18-.34-.08-.56-.16-.81-.3-.15-.08-.25-.16-.37-.27-.06-.05-.28-.23-.34-.23-.02 0-.37.61-.46.78-.07.12-.42.61-.54.64l-.24.16q-.1.07-.3.16t-.28.12l-.2.06-.32.04h-.27c-.28.09-.11 1.72 0 1.95.23.45.54 1.08.89 1.29.12.08.25.16.39.22.14.07.3.14.44.18l.24.06c.17.04.32.07.34.08.44.16 1.95-.25 2.52-.44 2-.67 3.58-2.1 4.94-3.45.29-.29-.13-1.51-.28-1.92 0 0-.28-.61-.4-.88-.15-.31-.45-1.02-.45-1.02-.04-.36.1-1.16.32-1.34.09-.08.44.6.47.66.04.09.16.27.24.4q.07.11.18.18s.18.11.18.16c0 0 .6.2.69.22.36.08.81.08 1.05.08.55 0 1.29-.21 1.71-.42.72-.36.75-.37.52-1.16-.37-1.29-.64-2.67-.85-4.02-.05-.35-.12-.74-.2-1.08-.08-.36-.14-.73-.2-1.08l-.04-.26v-.14l-.04-.16q-.04-.14-.08-.4l-.24-1.45c-.12-.76-.26-1.58-.41-2.37-.05-.28-.13-.55-.2-.8-.1-.35-.21-.75-.16-.92.15-.51.3-.98.46-1.4.05-.12.36.6.36.6l.12.26.08.16.14.26c.12.23.23.44.34.66l.08.18.08.14.08.14.06.12.06.14c.2.4.67 1.39.67 1.55-.01.44-.45.01-.55-.1-.11-.12-.35-.39-.48-.28-.05.04.39 2.53.42 2.71.04.21.1.51.12.64.04.27.09.64.12.76 0 0 .22 1.17.28 1.53.02.11.08.39.12.56l.04.2.04.16.04.16c.08.38.2.98.28 1.36.1.52.55 2.33.79 2.43.03.01.48-.14.73-.22.29-.1.73-.22 1.01-.18 1 .12 1.64.44 1.88 1.38.2.8.05 2.57-.71 2.85-.89.34-1.49.19-2.2-.32-.27-.2-.47-.44-.68-.7-.21-.27-.53-.66-.67-.69-.07-.01-.64.21-.77.26-.25.11-.53.21-.81.3-.3.1-.63.17-.97.24-.23.04-.41.07-.61.08-.37.02-.83.06-1 .11-.1.03-.15 1.2-.15 1.3-.01.32-.05.75-.12 1.11-.05.23-.33.6-.52.86-.17.22-.35.45-.54.64l-.31.28-.18.16c-.15.12-.22.18-.22.18-.61.88-3.92 2.4-5.32 2.68-.64.13-1.44.06-2.02-.18m-28.03-.41c.54-.41 7.3-3.5 7.81-3.52.05 0-.04.86-.28.9-.92.18-2.89 1.16-3.99 1.75-.08.04-.27.12-.4.18-.23.1-.45.19-.67.3-.12.06-.36.16-.54.24-.2.08-.41.18-.61.28l-.16.08-.16.08-.18.08-.24.12-.18.16c-.22.11-.61.29-.63.02-.01-.17.1-.62.24-.68" fill="#1d1d1b" fill-rule="evenodd"/></svg>