<svg viewBox="0 0 69.6 27.3" xmlns="http://www.w3.org/2000/svg"><path d="m15.32 12.87s0-.03 0-.04c.03-.21.13-.56.2-.8.08-.26.14-.5.2-.76.06-.25.14-.48.23-.7.1-.23.11.62.09.74-.04.19-.07.36-.12.52s-.08.32-.12.48c-.2.91-.29 2.06.1 2.87.13.27.38.51.69.6.22.06.32-.18.38-.34.06-.15.29-.74.32-.74.37 0-.16 1.71-.24 1.91-.29.73-.89.34-1.42 0-.63-.76-.56-2.16-.39-3.29-.01-.13.02-.38.07-.43m50.5-10.54c-.04-.68-.55-1.32-1.1-.71-.35.37.1.68.35.84l.32.2q.45.17.42-.32m-27.23-.64c-.32-.26-.72.23-.68.54.02.2.59.66.82.59.22-.07 0-1.02-.14-1.13m-34.46 1.57c-.13-.25-.32-1.39.17-1.4.41-.01 1.38.8 1.65 1.07.22.22.45.5.66.77.07.08.17.22.24.32.14.2.3.41.33.43.09.05.09-.92.08-1.03-.03-.38-.04-.77 0-1.1.05-.41.3-1.38.56-1.53.28-.15.36-.18.65-.04.54.27.7 1.07.39 1.58-.07.11-.45-.31-.46-.33-.12-.13-.32-.28-.52-.27-.3.01-.3.44-.3.66v.16l.04.18c.01.26.02.69.02.82 0 .77-.11 1.79-.35 2.56-.04.12-.45-.64-.5-.73-.16-.29-.44-.62-.68-.91-.23-.28-.46-.54-.75-.77q-.06-.05-.27-.05t-.4-.06c-.2-.07-.46-.2-.58-.35m51.22.37c-.44.02-.79-.21-1.18-.47-.25-.16-.33-1.14-.07-1.31.2-.13.84.22 1.04.33.42.23.82.66 1.11 1.02.17.21.33.42.48.63.14.19.47.65.52.64.05 0 .05-.94.05-.94 0-.05 0-.27 0-.32 0-.61.01-1.06.16-1.65.09-.37.91-1.66 1.42-1.24.52.43.72.73.47 1.54-.06.18-.45-.18-.52-.25-.28-.26-.54-.49-.92-.12-.18.18-.21 2.08-.21 2.58 0 .22-.07.84-.12 1.3-.02.15-.15 1.23-.42.88l-.02-.16v-.16s-.08-.12-.08-.12l-.06-.14-.08-.14c-.14-.23-.32-.49-.48-.72s-.34-.44-.52-.65c-.08-.1-.47-.57-.57-.54m-12.61 2.03c1.07-.71 2.64-1.67 3.97-2.49.53-.32 1.39-.81 2.08-1.2l.57-.32q.14-.08.5-.32c.15-.08 1.01-.58 1.05-.52.13.19-.1.73-.19.86-.07.1-1.58 1-2.13 1.31-.65.37-1.47.88-2.18 1.33-.74.46-1.56.97-2.22 1.32-.4.21-.8.48-1.17.72-.05.03-.45.3-.48.25-.1-.17 0-.9.2-.94m-4.62-1.97c-.05-.08-.12-.14-.18-.2q-.14-.12-.18-.18c-.15-.21-.3-.44-.34-.72-.12-.74.6-1.9 1.23-1.97.26-.03.45.28.5.5.1.4.08.86.04 1.33-.04.45-.06.74.05.86l.32.23.14.09c.09.08.25.27.37.41.14.18.03.71-.14.82 0 0-.47-.34-.52-.38-.19-.14-.58-.42-.79-.35-.03 0-.95 1.01-1.06 1.16-.15.2-.39.39-.58.54-.11.09-.58.46-.58.47l-1.13.6-.2.08-.29.14-.12.04-.14.06c-.2.11-.62.33-.72.27-.15-.1 1.06-.91 1.06-.91q.09-.06.22-.16c.1-.08.32-.24.32-.24.1-.07.22-.16.33-.25.03-.02.22-.17.32-.24.39-.28 1.06-.79 1.19-.91.22-.2.98-.9.88-1.09m20.47 4.92c.06-.18 1.35-.92 1.76-1.15.63-.36 1.25-.78 1.84-1.2 1.01-.73 2.8-2.04 3.02-2.45.07-.12-.37-.43-.5-.52-.23-.16-.44-.41-.51-.72-.08-.39.14-1.34.38-1.61.25-.27.48-.53.73-.58.43-.09.64.41.75.7.07.18.11.38.12.58v.3l.04.52v.5c.02.14.14.23.3.35.1.08.18.16.26.27.15.21.24.66.02.9-.03.03-.4-.2-.49-.25-.16-.1-.52-.32-.64-.22l-.24.33c-.11.14-.23.27-.36.4-.12.12-.28.25-.43.38-.1.08-.29.26-.42.39-.14.13-.27.23-.43.33-.17.11-.32.29-.37.36-.12.15-.85.62-.97.54l-.07.17-.34.22-.24.16-.26.16-.14.08-.14.08-.14.08-.14.08c-.28.17-2.17.97-2.37.83m-21.64.34c-.15-.18.46-1.15.58-1.31.12-.17.68.21.85.32.2.14.67.46.85.37.03-.02.25-.45.35-.65.1-.21.26-.46.48-.52.14-.04 1.35.98 1.41 1.12.16.36-.06.7-.25.94-.11.14-.3.38-.35.53-.04.12-.76-.45-.76-.45-.21-.17-.66-.52-.73-.53-.09-.02-.36.52-.45.68-.12.24-.35.7-.6.58-.2-.09-1.32-.91-1.37-1.08m14.61.94c-.19-.73-.27-1.52-.06-2.35.09-.37.45-1.4.62-1.42.04 0-.24.83-.26.89-.12.35-.18.77-.2 1.18-.03.49.52 1.54 1.03 1.26.13-.07.18-.26.22-.44.04-.14.13-.52.26-.48.12.04-.1.96-.14 1.08-.08.25-.17.45-.31.63-.45.56-.88 0-1.16-.37m-47.4-.61s.36-.3.46-.39l.32-.23.21-.17.2-.16.23-.16c.45-.36 1.02-.71 1.54-1.03.13-.08.26-.16.38-.24.13-.08.25-.16.38-.24.09-.05.64-.39.93-.56l.14-.08q.15-.08.28-.16l.14-.08.14-.08.26-.16c.14-.08.28-.17.42-.24.2-.1.48-.26.6-.33 1.57-.99 7.04-4.09 7.43-4.15.48-.07-.24 1.15-.49 1.27-1.93.89-5.23 2.91-7.83 4.5-.12.07-.35.21-.36.22-.19.09-.35.19-.52.3-.28.17-.85.52-.91.56-.28.18-.58.39-.87.54-.29.16-.66.41-.99.62-.52.34-1.12.79-1.69 1.22q-.18.14-.2.16c-.08.06-.35.29-.39.29-.33.02.03-1.06.17-1.21m60.94-.25c.1-.55.49-2.28.87-2.37.18-.05-.32.96-.32.96-.11.23-.21.54-.18.82.05.52.08.81.31 1.18.17.27.43.11.61-.02q.1-.08.13-.21c.03-.13.09-.33.18-.34.16-.02-.07.83-.12.94-.16.33-.25.53-.56.7-.18.1-.38-.07-.54-.19-.13-.11-.23-.43-.29-.63-.03-.12-.07-.27-.08-.4v-.2c0-.09.01-.21 0-.24m-45.78 1.3c-.16-.19-.13-.8-.1-1.14.02-.21.13-1.58.28-1.5.1.06.05.54.05.62-.01.14-.06.59-.04.78.02.3.25.69.54.76.24.06.59-.11.94-.29.28-.14.29-.94.25-1.22l-.04-.28-.04-.16-.04-.22c0-.11.04-.88.24-.76.11.07.22.78.25 1.02.05.42.16.71.33.99.16.26 1.49.79 1.07-.05-.31-.61-.65-1.3-.34-2.05.11-.26.96 1.69.92 2.11-.03.29-.14 1.15-.44 1.24-.4.13-.62.2-.99.04-.14-.06-.29-.16-.39-.25-.15-.13-.25-.22-.36-.18l-.09.19-.08.14q-.04.07-.17.23c-.14.17-.27.31-.47.41-.3.15-1.38.13-1.25-.44m-9.33-.15.34-.23c.13-.08.31-.2.38-.24.14-.08.26-.16.38-.24.17-.11.35-.22.52-.32.52-.3 1.31-.75 1.98-1.12 1.26-.72 2.56-1.42 3.88-2.03.64-.29 1.26-.62 1.88-.94.28-.15 1.37-.69 2.04-1.02.14-.07.25-.12.38-.18.03-.01.31-.16.46-.24l.16-.08s.32-.16.32-.16c.23-.12.23-.12.32-.16q.23-.1.34-.16c.24-.14.91-.5 1.14-.39.32.15-.2 1.04-.29 1.13 0 0-.28.12-.39.17-.17.07-.35.15-.48.22l-.16.08-.18.08-.16.08q-.06.03-.26.12c-.08.04-.2.1-.3.16-.14.08-1.38.7-2.12 1.06-1.35.67-2.7 1.36-4.04 2.07-.13.07-.42.23-.44.24-.1.06-.22.13-.32.18-.16.08-.45.22-.45.22s-.27.16-.28.16l-.28.16c-.16.09-.31.16-.49.24q-.12.05-.32.16l-.16.08-.12.08c-.35.18-.85.45-1.03.56-.58.36-1.64 1-1.85 1.12-.14.08-.74.42-.73.2.01-.25.21-.86.33-1.06m11.55 2.98c-.15-.44.46-1.49.89-1.41.29.06 1.23.83 1.27 1.12.06.49-.58 1.39-1.01 1.16-.13-.07-1.13-.81-1.15-.88m-15.17 2.55c-.23-.84-.37-1.61-.18-2.63.07-.4.3-1.66.63-1.65.02 0-.09.59-.1.64-.03.15-.11.48-.12.52-.11.38-.26 1.16-.12 1.57.11.34.27.82.58.92.48.17.6-.41.65-.8h.16s.02.4.02.4c0 .02-.08.36-.12.52-.08.32-.23.62-.41.86-.24.32-.79-.18-.98-.35m49.06.41c.29-.41-1.22-.87-1.69-.85-.33 0-.64.35-.77.58-.35.66 2.07.44 2.45.27m-13.85.79c-.17-.39-1.88-1.62-2.36-1.46-.21.07-.95 1.58-1.07 1.93-.09.26.13.82.32.88.72.23 1.14.06 1.82-.32.25-.14 1.29-.81 1.29-1.03m-3.62 2.84c-.19-.45-.37-.9-.41-1.26-.08-.73.16-1.67.36-2.25.09-.24.19-.48.3-.7.11-.21.3-.6.21-.71 0 0-.28-.21-.32-.23-.13-.09-.28-.2-.98-.82-.25-.23-1.13-1.09-1.14-1.11-.09-.15-.11-1.41.03-1.63.07-.11.17-.04.26.03.11.09.22.17.36.22.1.04.3.11.45.16s.3.1.45.16c.28.11.97.39 1.02.45.09.12.08.24-.1.27-.15.03-.45.08-.5.17-.07.12.43.45.57.54.12.08.91.6.99.38.02-.07.84-1.16 1.21-1.65q.15-.19.16-.2c.12-.15.24-.3.35-.47.12-.19.56-.82.69-.81.16 0-.24 1.52-.36 1.75-.13.23-.32.53-.49.73-.01.01-.36.52-.52.75-.27.4-.27.47.14.7.26.15.49.32.72.49.47.38.84.97.94 1.69.05.39-.21 1.65-.42 1.89-.44.49-.93.89-1.51 1.22-.33.19-.65.37-1.03.48-.3.09-.48.13-.81.06-.11-.02-.36-.14-.49-.25l-.13-.08zm-7.23-18.42.06-.16.08-.2.08-.2q.12-.33.12-.34.08-.19.13-.33c.09-.27.32.33.34.39.06.2.14.38.22.56q.06.13.1.24l.12.28.06.16.08.16.06.16.06.16c.33.74.99 2.26.94 2.55-.04.26-.56-.33-.59-.36-.1-.11-.38-.43-.48-.4-.07.02 0 .67 0 .7.03.29.07.71.12 1.04.08.53.13.93.2 1.49.14 1.12.28 2.17.45 3.21.34 2.18.58 4.63.76 6.79.05.62-.04 1.3-.16 2.05-.05.3-.32 1.44-.57 1.38-.07-.02-.07-.55-.07-.7 0-.9 0-1.35-.08-2.17-.09-1.01-.19-1.92-.32-2.89-.22-1.65-.51-3.82-.65-5.02-.16-1.45-.36-2.88-.56-4.26-.11-.78-.19-1.57-.24-2.25-.04-.45-.08-1.01-.16-1.36-.06-.25-.13-.6-.08-.68m-26.87 20.38c-.07-.08-.19-.18-.28-.25-.11-.09-.2-.17-.31-.28-.23-.23-.43-.51-.59-.81-.43-.8-.67-2.1-.87-3.19-.18-1-.28-2.01-.33-3.01-.04-.93-.2-2.45-.32-3.57l-.28-2.77c-.1-.89-.22-2.04-.32-2.73-.11-.69-.24-1.57-.36-2.17-.12-.59-.27-1.35-.23-1.48.06-.15.18-.48.18-.48.07-.23.18-.6.31-.71.35-.3.72 2.62.75 2.87.17 1.36.46 3.75.49 4.04.26 3.1.95 9.7 1.09 10.22.23.82.49 1.52.92 2.12.56.78 1.64 1.18 2.9.87.58-.14 1.14-.49 1.49-.88.05-.06.34-.51.48-.74.16-.26.32-.51.48-.74.13-.18.4-.56.64-.51.03 0 .13.49.18.73.02.12.18.36.28.52.16.25.99.74 1.59 1.1.13.08.48.18.69.24.13.04.4.11.44.12l.28.04s.54.06.52.06c0 0 .99.05 1.31.02.38-.03 1.21-.16 1.76-.24 1.42-.22 2.74-.76 3.83-1.35.28-.15.78-.42.83-.44.11-.06.23-.15.33-.21 0 0 .34-.2.4-.23.13-.08.26-.15.38-.24.11-.08.23-.17.34-.24.25-.17.76-.5.98-.43.11.03.05.28.03.35q-.06.26-.04.52l.08.32c.07.23.08.28.08.28.06.25.43.61.72.9.25.25 1.01.26 1.4.25.55-.01 1.88-.58 1.96-1.04.07-.43-.44-3.57-.69-4.92-.07-.37-.12-.83-.16-1.16q-.03-.26-.08-.48s-.09-.57-.12-.76l-.04-.24-.04-.2-.12-.88-.04-.24-.04-.32c-.04-.26-.08-.56-.12-.8-.18-1.05-.44-3.29-.65-5.02-.05-.4-.14-1.1-.2-1.28-.11-.3-.18-.51-.12-.72.09-.32.39-1.34.59-1.34.12 0 .18.29.22.46.04.2.13.4.22.6.19.42.42.96.58 1.29.17.33 1 2.01.71 2.25-.05.04-.41-.3-.48-.37-.12-.12-.3-.29-.39-.29-.07 0 .17 1.67.2 1.86.04.29.08.56.12.8s.11.65.12.76c.13 1.18.27 2.37.48 3.53.41 2.24.69 4.45.81 6.48.04.64-.17 1.5-.38 2.07-.18.48-.51.79-.86 1.1-.36.32-1.04.57-1.6.65-.64.09-.98.01-1.45-.18-.32-.13-.81-.64-.97-.94-.11-.2-.18-.43-.26-.66s-.23-.69-.28-.71c-.05-.03-.56.31-.67.39-.24.16-.5.33-.75.48-.5.31-1.15.7-1.47.86-.97.48-1.98.83-3.15 1.12-1.68.42-3.9.54-5.45-.06-.5-.19-1.03-.48-1.46-.84-.19-.16-.36-.32-.53-.5-.09-.1-.17-.2-.23-.33l-.06-.14c-.04-.11-.09-.23-.13-.27-.13-.14-.66.71-.74.85-.25.4-.5.81-.84 1.03-.49.32-1.03.64-1.74.73-.84.11-1.41-.17-1.97-.47m58.99-.89c.42-.04.81-.08.95-.02.37.16.74.32.95.26.33-.1.59-.29.78-.53.1-.14.46-.62.49-.6v.15s0 .2 0 .2c.02.08.07.18.14.22.19.1.55.21.71.1.12-.09.2-.4.28-.72.04-.17.23-.61.36-.58.5.13-.58 2.08-.88 2.22-.19.09-.34.08-.55.02-.35-.1-.63-.17-.69-.14-.04.02-.14.12-.21.19q-.05.05-.23.17c-.17.1-.37.19-.61.22-.26.04-.51-.07-.68-.18-.24-.15-.57-.32-.85-.18-.68.34-1.52.9-2.32 1.43-.69.46-1.66 1.09-2.64 1.12l.05-.19.15-.07c.15-.06.31-.12.4-.18l.14-.08.12-.08c.13-.08.25-.16.38-.24.22-.12.41-.26.61-.4.11-.08.23-.17.33-.26.06-.05.22-.15.33-.23.39-.26.77-.53 1.12-.82.16-.13.84-.51 1.36-.81m-32.07-.6s-.18.81-.24 1.02c-.11.4-.2.87-.2 1.24 0 .32.19 1.01.42 1.06.26.06.4.03.5-.22.08-.18.21-.52.3-.52.07 0-.02.68-.06.8-.04.13-.09.28-.14.4-.14.33-.29.54-.65.62-.87.2-.84-1.81-.75-2.43.06-.38.17-.8.3-1.12.07-.16.38-.91.5-.86m15.25 3.94c-.33-.44-.6-.94-.71-1.6-.07-.4-.08-.87-.08-1.24v-.14l.04-.26c.02-.22.05-.59.01-.79-.03-.15-1.26.73-1.34.79-.42.3-.94.67-1.33.88-.09.05-.18.1-.26.16-.1.07-.29.2-.32.22-.01 0-.57.32-.83.46-.52.29-1.32.74-1.7.88-.85.32-6.5 1.87-6.78 1.66-.22-.16 2.7-1.38 2.85-1.44 1.07-.44 2-.89 2.99-1.38 1.94-.96 4-2.32 5.84-3.54.64-.42 3.54-2.6 3.3-3.2-.11-.27-.24-.59-.34-.76-.13-.21-.27-.43-.36-.62 0 0 0 0-.16-.26-.08-.14-.16-.26-.24-.4-.14-.24-.28-.48-.4-.72-.09-.16-.46-1.08-.68-1.65q-.09-.23-.16-.34c-.07-.12-.18-.31-.18-.46 0-.21.07-.59.12-.8.04-.18.13-.57.13-.57.03-.23.39.25.39.25.1.14.22.28.34.4.1.1.22.2.34.29s.37.29.4.34c.1.12.25.29.64.68.08.13.18.33-.04.32-.11 0-.84-.03-.74.02.15.08 1.58 2.97 1.61 3.21.2 1.38-.03 2.57-.76 3.4-.17.2-.51.51-.79.76-.26.23-.83.79-.84.82-.39.65-.21 2.18.15 2.76.35.57.79.89 1.4 1.21.38.2 1.03.29 1.49.22.95-.15 1.58-.3 2.3-.62.39-.17 1.15-.7 1.65-1.05.25-.18.51-.4.76-.61.24-.2.76-.63.85-.68.44-.24 1.92-1.93 2.19-2.42.11-.2-.03-.43-.11-.57-.02-.04-.76.1-1.14.17-.63.12-1.71.3-2.14.16-.2-.07-.61-.2-.61-.2-.11-.05-.21-.09-.35-.25l-.12-.08c-.64-.32-.32-2.08-.1-2.66.14-.35.77-1.1 1.11-1.24.43-.19.64-.21 1.19-.14.52.07 1.12.57 1.48.88.16.14.37.42.51.62.09.12.41.58.47.59.35.04 2.06-1.23 2.78-1.76.78-.58.8-.12.8.65 0 .63.5 1.37 1.03 1.51.54.13 1.03.26 1.57.2.5-.05 1.1-.4 1.39-.68.36-.35.57-.67.83-1.13.23-.41.82-1.43 1.02-1.4.16.02-.15.73-.18.78-.11.21-.29.58-.16.78.24.37.68.63 1.13.78.35.12 1.47.3 1.69-.12.07-.12-.12-.52-.2-.64-.12-.2-.34-.55-.34-.56-.03-.21.28-1.29.4-1.42.15-.16.55.79.61.94.23.61.28 1.32.2 2.05-.06.53-.36.97-.64 1.3-.23.28-.78.34-1.22.37-.54.04-1.16-.3-1.49-.54-.15-.11-.28-.21-.39-.35-.12-.15-.37-.46-.41-.48 0 0-.45.66-.51.75-.11.17-.48.56-.67.64l-.24.17c-.11.07-.32.15-.47.21-.22.08-.43.16-.69.2-.46.08-.98.07-1.45-.14-.4-.18-.82-.45-1.02-.82-.1-.18-.2-.35-.29-.63-.05-.14-.25-.75-.26-.74-.3.15-2.14 1.56-2.22 1.71-.03.05-.11.85-.14 1.16-.02.27-.07.79-.27 1.08-1.29 1.92-2.78 3.32-4.64 4.66-.65.47-1.38.79-2.22 1.06-.68.23-1.46.3-2.1.2-.56-.09-1.02-.25-1.4-.51-.14-.09-.28-.21-.4-.32-.04-.04-.15-.16-.18-.21-.06-.07-.14-.17-.18-.2m-44.74-.11c0-.61 1.07-1.75 1.59-1.91.26-.08.55.19.65.36.12.21-.04.54-.16.8-.1.21-.25.21-.36.02-.08-.14-.25-.28-.42-.3-.19-.03-.54.27-.61.42-.1.22.44.45.62.5.42.12.94 0 1.33-.08.08-.02 1.02-.22.97-.1-.14.36-.29.72-.36.74l-.32.08c-.07.02-.35.09-.52.14-.29.08-.81.22-.93.26-.22.08-.44.16-.65.24-.25.11-.7.3-.82.27-.18-.04.31-.68.33-.71.13-.16.02-.25-.11-.36-.11-.1-.23-.22-.23-.39m7.46.27c-.05-.17.55-1.16.65-1.23.26-.18 1.6.98 1.71 1.29.16.41-.73 1.41-1.13 1.12-.32-.23-1.24-.9-1.24-1.18m12.5.8c-.21-.41-.26-1.05-.18-1.47.06-.34.73-2.91.93-2.26.03.1-.23.79-.29.94-.15.35-.26.74-.24 1.2.02.4.21.84.46 1.02.19.14.44 0 .52-.14.03-.04.08-.18.12-.28.02-.05.11-.27.16-.28.17-.04-.07.66-.1.76-.06.18-.19.44-.3.66-.28.55-.94.37-1.09-.16m-19.56 1.44c.16-.21 3.6-1.51 4.04-1.52.13 0-.21.86-.36.9-.56.14-1.65.53-2.54.84-.4.15-1.01.36-1.21.46-.3.15-.31.15-.22-.16.05-.19.15-.52.3-.52" fill="#1d1d1b" fill-rule="evenodd"/></svg>