<svg viewBox="0 0 89.75 26.29" xmlns="http://www.w3.org/2000/svg"><path d="m82.21 7.28s.1-.06.15-.1c.26-.15.69-.44 1.33-.88l.13-.09s.87-.71 1.22-1c.11-.09.49-.42.51-.48.02-.11-.34-.41-.58-.61-.13-.11-.39-.44-.43-.63-.18-.76.54-2.12 1.05-2.16.24-.02.49-.02.63.23.21.38.28 1.43.34 2.29.01.19.19.35.41.54.31.27.31.58.19 1.02-.03.1-.49-.2-.54-.23-.19-.12-.42-.27-.58-.24-.02 0-.15.16-.28.31-.05.06-.28.33-.28.33-.16.17-.36.36-.54.5l-.62.53c-.12.08-.2.14-.31.23q-.06.04-.39.31s-.69.44-.99.64-.67.41-1.15.68c-.34.19-1.61.66-2.64 1.04-.24.09.52-.52.61-.56.09-.05.27-.16.4-.24l.14-.08.26-.14.15-.07c.21-.13.49-.3.67-.39l.36-.24c.12-.08.46-.28.46-.28v.02c.23-.09.31-.24.31-.24m-18.14-.87s-.09.05-.09.05c-.2.1-.38.21-.56.32l-.43.33c-.39.09-.17-.73-.05-.9.05.01.16-.08.21-.13l.23-.15c.18-.11.35-.21.52-.32l1.21-.72c.37-.23.73-.43 1.13-.64.06-.03.83-.48 1.25-.72.15-.09.48-.28.48-.28q.21-.12.28-.16l.16-.08.4-.24.14-.08.16-.08c.24-.13.53-.28.73-.4.35-.22.73-.44 1.09-.64.33-.19.39-.12.34.16-.06.32-.11.56-.36.68-.41.19-1.53.88-2.26 1.32-.69.42-1.41.84-2.1 1.25-.37.21-.72.4-1.09.6l-.28.16-.26.17c-.08.04-.14.08-.2.11-.06.12-.58.32-.67.39m-5.05-4.18c.02-.24-.42-.14-.51-.09-.15.09-.28.28-.28.47 0 .24.64.75.82.67.27-.1.06-.82-.03-1.06m26.93.23c-.33-.43-.82-.05-1 .27-.15.28.7.77.89.88.52.3.2-.85.11-1.15m-48.46 3.12c.22-.11.73-.38 1.07-.56.15-.08.32-.17.46-.24l.26-.14.18-.06.14-.08c.34-.17.69-.34 1.03-.48.38-.15.75-.33 1.11-.52.74-.39 4.16-1.97 4.41-1.94.12.01-.21.93-.39.99l-.27.15-.28.14-.16.06-.2.08c-.14.06-.29.12-.45.18-.03 0-.39.17-.61.26-.06.03-.33.15-.48.22-.18.08-.4.18-.6.26-.19.08-.39.16-.55.24-.21.11-.43.19-.66.28-.04.01-.73.35-1.07.52-.39.19-.75.35-1.15.52-.12.05-.32.13-.45.2l-.12.08-.14.08c-.17.09-.18.11-.26.14-.26.12-1.13.52-1.18.49s.08-.82.36-.87m-17.63.16c.43-.46 4.27-2.35 5.95-3.13l.28-.14.16-.06q.09-.03.36-.16l.2-.08.16-.08.18-.08.14-.08.2-.08c.53-.25 1.46-.69 1.68-.8.43-.23.86-.43 1.35-.58 1.05-.33.37.81.04.98-.03.02-.3.12-.36.14-.13.05-.26.1-.36.14-.25.11-.57.26-.89.42l-.16.06c-.14.06-.36.16-.52.24-.25.11-.49.24-.73.36-.39.21-1.15.55-1.74.8-.51.23-1.19.53-1.57.76l-.14.08-.18.08-.14.08-.18.08-.39.21s-.29.15-.44.23l-1.43.76-.16.08-.18.08-.12.08-.26.16c-.26.13-.58.29-.68.36-.26.18-.55.33-.42-.16.05-.2.2-.72.36-.76m54.4-2.39c0-.14.09-.8.26-.8.7-.02 1.34.61 1.79 1.05 0 0 .24.3.27.33q.09.11.16.22l.18.21c.08.1.22.34.31.49.07.12.27.48.36.38.01-.02.05-.5.06-.58v-.72c.03-.58.06-1.16.2-1.57.14-.38.88-1.64 1.41-1.24.35.25.43.45.61.88.08.2-.16.82-.3.72-.11-.08-.21-.17-.3-.27-.14-.16-.3-.35-.51-.39-.24-.05-.52.16-.58.38-.08.28-.13 1.71-.16 2.85q0 .09-.04.28l-.04.24-.04.36c-.01.1-.13 1-.37.86-.02-.01-.11-.29-.15-.42-.09-.26-.21-.46-.34-.66-.23-.35-.48-.69-.74-1.01-.11-.14-.22-.27-.49-.54l-.14-.06-.2.04-.16-.04c-.48-.16-.93-.48-1.03-1m-15.83.97c.05-.15-.2-.43-.35-.6-.17-.2-.27-.44-.33-.73-.09-.46.4-1.27.59-1.54.15-.21.48-.37.8-.35.24.02.41.58.42.78.01.24-.02.69-.04.96-.03.36-.06.79-.02.84 0 .01.37.3.56.45.15.12.32.35.35.55.02.14-.07.48-.13.62 0 .02-.54-.33-.6-.38-.23-.15-.63-.41-.79-.36-.01 0-.42.47-.57.63-.19.21-.4.41-.61.6-.38.35-2.49 1.96-3.03 1.72-.37-.16.92-.9.92-.9.03 0 .24-.18.34-.26.16-.13.37-.27.55-.39.74-.49 1.39-.98 1.93-1.66m-46.07 3.18s-.07-.19-.12-.3c-.02-.05-.08-.33-.09-.39-.06-.38-.13-.93-.04-1.32.34-1.45.73-3.08 1.26-3.83.29-.4-.23 1.17-.23 1.18-.21.55-.4 1.14-.5 1.81-.05.31.01 1.53.24 1.68l.07.15.16.2c.1.1.23.19.37.23.2.05.44-.41.49-.54.05-.16.17-.57.32-.51.37.17-.54 2.25-1 2.37-.12.03-.66-.49-.93-.74m-5.33-1.21c.14-.32-.19-1.06-.34-1.4-.15-.33-1.1-1.65-1.39-1.7-.51-.1-1.26-.25-1.37-.83-.06-.29.11-.83.21-1.1.12-.32.94.27 1.04.35.28.22.6.59.88.9.11.12.22.26.32.39l.16.24q.12.19.17.25c.12.15.22.31.32.49.1.21.34.68.4.68.1 0 .1-.66.1-.78v-.78c0-.6 0-1.31.18-1.73.15-.35.3-.68.53-.74.22-.07.47.09.7.23.34.21.58 1.48.09 1.58 0 0-.27-.31-.4-.46-.08-.09-.29-.3-.44-.31-.3-.02-.3.76-.3 1.08 0 .44-.02 1.18-.12 1.71-.19.94-.57 2.71-.83 3.03-.34.42-.67.77-1.06 1.14-.23.22-1.83 1.19-.93.24.37-.39.83-.88 1.11-1.13.16-.14.97-1.13.97-1.35m22.11 1.89c-.01-.25.56-1.05.72-1.2.22-.2 1.37.91 1.42 1.16.04.19-.39.83-.63 1.2-.28.41-1.54-.98-1.5-1.16m28.05 1.3c-.18-.29.47-1.4.78-1.44.12-.02.53.29.66.39.21.17.49.39.75.44.08.02.34-.45.38-.54.12-.26.3-.65.59-.66.13 0 1.07.81 1.27 1 .23.22-.01.78-.29 1.2-.08.11-.18.24-.24.37-.09.18-.75-.42-.8-.47-.16-.15-.62-.57-.77-.5-.05.02-.4.72-.49.91-.1.23-.27.44-.51.27-.11-.08-.24-.17-.35-.24-.13-.09-.36-.24-.36-.24-.2-.16-.55-.44-.61-.49m-32.77.31c-.07-.51.32-3.6.88-3.67.08-.01-.23.91-.27 1.06-.12.36-.2 1.09-.24 1.57-.04.36.26.73.44.94.19.22.41-.09.45-.25.04-.17.17-.67.18-.68.66-.43-.45 1.97-.46 1.98-.37.45-.94-.71-.98-.94m16.24.78c-.26-.49-.13-1.27-.02-1.91.04-.22.1-.58.08-.72-.01-.13-.09-.86.1-.82.29.05.19.87.14 1.27-.07.59-.14 1.21.26 1.51.39.28 1.23-.38 1.33-.62l.06-.3v-.28l-.04-.78-.04-.32c0-.21.1-.77.32-.73.19.03.13.91.13 1-.03.32.08.79.18 1.08.08.22.45.5.69.56.82.21.57-.33.36-.74-.35-.71-.28-1.19-.13-2.03.06-.34.8 1.85.84 2.23.04.39-.27 1.18-.45 1.42-.08.11-.66.33-.82.17l-.93-.63s-.14.15-.16.19c-.1.13-.19.26-.27.35q-.13.13-.31.27t-.23.17c-.26.26-1.03-.02-1.08-.31m30.89-1.21c.08-.48.15-.89.28-1.3.07-.23.43-1.36.61-1.19 0 0-.14.42-.15.43-.06.12-.14.3-.18.44-.04.12-.27 1.2-.2 1.2l.04.28.04.16s.13.34.14.36c.07.15.2.32.34.4.47.28.64-.35.77-.82.08-.3.16.45.11.62-.07.29-.14.57-.26.8-.26.52-.84.65-1.17.12-.28-.46-.43-1.03-.39-1.5m13.84 1.46c-.16-.73-.01-1.36.22-2.01.05-.13.55-1.46.63-1.14.02.08-.27.74-.31.82-.07.13-.14.27-.18.4l-.04.16-.05.51.05.33c.01.08.05.19.08.28.06.19.13.38.28.48.22.16.5-.07.69-.32.01-.04.11-.32.14-.32.19 0-.09.84-.16 1-.14.31-.33.54-.62.67-.36.15-.64-.62-.73-.86m-42.77 2.49c-.09-.25.54-1.17.75-1.26.28-.12 1.43.95 1.51 1.26.16.61-.65 1.48-1.11 1.24-.21-.11-1.11-1.11-1.15-1.24m-36.84.33c-.1-.38.54-1.45.94-1.34 0 0 .32.27.52.44l.12.02c.06.02.23.08.27.13l.05.13.24.04.16.06c.12.07.45-.47.52-.58.11-.17.36-.58.57-.54.39.06 1.04.71 1.25 1 .18.26-.55 1.26-.73 1.29-.21.02-.48-.19-.68-.35s-.55-.43-.65-.41c-.16.04-.43.41-.52.56-.16.26-.4.65-.63.54-.32-.15-1.01-.66-1.45-.99m69.79 3.28c-.06-.42-.66-.77-1.05-.86-.55-.14-1.72.23-1.43.76.1.17 1 .29 1.14.29.23 0 .36 0 .64-.04l.4-.08c.1-.02.25-.06.28-.06m-36.32.38c-.36-.3-.14-1.78-.06-2.19.04-.23.37-1.45.63-1.36.11.03-.14.81-.18.92-.13.37-.2.65-.2.96 0 .43.18.91.41 1.14.18.18.47.17.56-.09.04-.13.2-.58.32-.5.16.11-.27 1.28-.38 1.46-.41.71-.84.06-1.09-.34m22.42.12c-.37-.7-1.45-1.25-2.22-1.53-.22-.08-1.14 1.6-1.21 1.87-.3 1.2.78 1.26 1.55.96.37-.14 1.85-.97 1.88-1.31m-5.47-5.92c.05-.11.12-.07.19-.03l.32.24.21.06.2.08.2.08c.2.08.6.24.61.24.26.1.5.2.73.32.09.05.16.26.04.32l-.24.02c-.14.02-.25.04-.34.12-.13.12.91.81 1 .87.25.17.43.27.71-.1l.24-.34.17-.23c.24-.28.85-1.03.88-1.11.02-.05.88-1.16.91-1.19.54-.38-.46 1.95-.46 1.95-.18.28-.37.54-.58.8-.15.19-.53.69-.48.93 0 0 .29.2.38.26 0 0 .36.26.46.33.25.18.55.41.68.7.18.4.39.84.42 1.11.05.55-.16 1.4-.39 1.78-.43.7-1.96 1.74-2.98 1.87-.4.05-.74-.05-.96-.23-.12-.1-.24-.24-.31-.39l-.08-.24-.04-.12c-.02-.12-.05-.29-.08-.3-.07-.04.19-1.94.28-2.23.1-.32.23-.64.38-.92.11-.2.4-.74.31-.82-.51-.44-1.47-1.28-1.57-1.39t-.34-.42l-.41-.28c-.26-.26-.18-1.34-.05-1.76m-53.37 9.38c-.32-.06-.57-.15-.83-.26-.17-.07-.35-.18-.57-.31-.14-.13-.19-.17-.21-.18-.29-.12-.8-.78-.88-1.12-.16-.69-.34-1.48-.32-2.08 0-.29.25-1.04.4-1.49.07-.22.16-.42.26-.6.09-.16.34-.59.34-.64.01-.13-.13-.32-.29-.53-.16-.2-.28-.45-.35-.71-.21-.75-.31-1.62-.16-2.37.18-.91 1.07-4.46 1.44-4.5.29-.04-.32 1.58-.33 1.61-.17.44-.32.9-.42 1.41-.2 1-.35 3.25.59 3.71.21.11.37-.05.48-.22q.1-.16.14-.24c.07-.14.22-.47.26-.46.24.06-.04.95-.1 1.14-.12.36-.3.65-.67.98l-.16.02c-.1.05-.23.33-.32.52-.21.45-.33 1.02-.38 1.62-.1 1.07 1.02 2.77 1.96 2.89l.16.06c.12.04.33.12.4.14.39.1 1.27.28 1.53.24h.42c.54.03.69.02 1.18 0 .68-.03 1.66-.08 2.16-.2 2.28-.57 4.64-1.15 6.28-2.14.32-.19-.29-1.12-.44-1.33-.13-.18-.27-.37-.41-.54-.15-.18-.32-.4-.37-.59-.07-.29.21-1.19.4-1.38.13-.14.92.96 1 1.08.37.55.6 1.15.71 1.87.06.39-.31 1.83-.5 2.05-.91 1.01-4.56 2.21-6.38 2.47-2.06.29-4.05.57-6.01.08m49.08-19.25c.05-.38.34-.95.53-1.34.11-.21.94 2.27 1 2.46.33.98.78 2.33.76 2.63-.02.25-.46-.27-.47-.28-.15-.21-.37-.51-.47-.51-.13 0 .21 2.94.26 3.33.12 1.02.26 2.14.36 2.73.21 1.18.36 2.4.48 3.61.04.38.06.56.08.74s.06.57.08.82c.04.4.08.92.08 1.17 0 .12 0 .64.04.78.17.61-.32 3.61-.85 3.53-.1-.02-.08-.21-.08-.29.04-.46.1-1.03.08-1.35-.05-1.02-.11-2.23-.2-3.15-.14-1.41-.33-2.94-.52-4.42-.25-1.83-.42-3.34-.61-5.1-.11-1.08-.22-2.22-.32-3.25-.05-.49-.11-1.09-.16-1.36-.06-.3-.13-.65-.08-.76m-31.57 19.52c-.86-.12-1.88-1.59-2.18-2.33-.74-1.84-1.05-5.98-1.23-8.59-.05-.68-.1-1.39-.16-1.79 0-.02-.05-.64-.08-.98l-.04-.68-.06-.52-.02-.56c-.06-.76-.19-1.57-.32-2.29-.05-.25-.1-.52-.16-.76-.08-.32-.18-.7-.16-.92.04-.62.53-2.35.89-.76.16.74.43 3.01.57 4.21l.04.38v.18s0 .13 0 .13l.04.51.04.44.04.56v.14c.03.32.06.69.08.98.02.45.07 1.1.12 1.69.13 1.6.28 3.1.52 4.66.16 1.05.44 2.25.91 3.05.19.34.43.71.7.98.07.07 1.03.82.98.43-.01-.06-.07-.16-.14-.26s-.1-.18-.14-.28t-.09-.19s-.11-.31-.16-.44c-.18-.5-.36-1.04-.44-1.6-.2-1.36.47-2.24 1.1-3.07.29-.38 1.24-.8 1.75-.97.59-.2 1.52-.27 1.94-.16.95.24 2.44.78 2.83 1.53.06.11-.09.26-.21.11-.13-.16-.13-.16-.51-.32-.48-.2-1.2-.2-1.82-.2-.89 0-3.91.93-4.15 1.37-.17.3.21 1.63.36 2.03.32.83 1.64 2.23 2.62 2.35.47.06 1.13.14 1.53-.06.78-.39 1.57-.78 2.26-1.2.31-.19.61-.44.9-.68.05-.04.21-.14.25-.15q.06-.03.12-.15c.04-.08.27-.34.35-.37.41-.12-.31 1.65-.46 1.71-.04.01-.14.11-.23.19-.11.1-.26.23-.7.62l-.13.07c-.38.3-.81.59-1.24.84-.88.5-1.78.87-2.85 1.23s-2.23.34-3.23-.1m17.88.92s-.21-.12-.3-.16c-.13-.06-.25-.15-.39-.24-.2-.14-.43-.4-.57-.6-.63-.94-.91-1.93-1.15-3.25-.16-.88-.39-4.96-.53-7.39-.11-1.96-.26-4.04-.56-6.34q-.03-.2-.04-.5l-.02-.26q.03-.09 0-.14l-.06-.22-.04-.28v-.2c-.04-.16-.11-.43-.16-.6-.18-.64.03-1.37.44-1.82.18-.2.42 1.02.45 1.22.12.83.23 1.58.32 2.45.19 1.74.29 2.89.36 4.42.14 3.02.43 7.88.69 9.03.56 2.53 1.33 3.76 4.22 3.36.41-.06 1.7-.66 1.84-.92.08-.15 1.85-1.99 1.97-2.01 0 0 .14.81.17.98.04.26.12.53.26.7.42.51.87.85 1.73.92.48.04 2.02-.28 2.27-.72.26-.44-.36-5.24-.56-6.41-.41-2.43-.71-5.35-.93-7.67-.1-.99-.35-3.14-.4-3.25-.23-.49.23-1.76.6-2.06.06-.04.9 2.23.98 2.46.13.42.26.83.4 1.24.06.18.5 1.48-.06 1.22l-.24-.36-.12-.22c-.34-.07-.08 1.76-.02 2.17.18 1.23.34 2.44.48 3.73l.06.48.02.28.04.28.04.16.04.28c.1.74.23 1.73.28 2.29l.04.52q0 .07.04.4l.04.48q.02.34.04.48c.07.58.2 1.72.12 1.97v.36l-.04.22c-.02.23-.07.65-.08.7-.07.35-.25 1.17-.34 1.37-.19.38-.61.64-.99.84-.23.12-.5.25-.75.34-.06.02-.31.07-.36.08l-.24.04q-.26.03-.3.04c-.21.11-1.22-.23-1.46-.35-.35-.18-.67-.46-.88-.78-.12-.18-.21-.37-.29-.59-.07-.19-.21-.58-.28-.59-.05-.01-.37.39-.44.48-.14.17-.4.49-.4.5-.25.27-.77.82-1 .9l-.14.08-.27.17s-.39.17-.55.23c-.27.1-.59.19-.89.26-.64.14-1.58.09-2.1-.22m46.35-.06c.45-.05.74-.26 1-.52.06-.06.17-.25.23-.37.06-.11.18-.34.3-.2q0 .39.03.41c.15.21.5.25.8.21.06 0 .23-.51.3-.72.05-.16.22-.63.36-.58.28.11-.34 2.15-.98 2.22-.18.02-.39.04-.61-.04-.26-.1-.47-.18-.61-.08-.36.26-.67.48-1.13.54-.13.02-.51-.18-.64-.26q-.16-.11-.24-.14c-.66-.21-2.18.9-2.76 1.32-.53.38-2.09 1.28-2.79 1.1-.19-.05.26-.21.26-.21.15-.05.29-.1.4-.18l.91-.56s.22-.14.24-.16l.12-.08q.08-.05.24-.16l.13-.09q.19-.14.21-.15c.19-.11.53-.31.58-.37.25-.3 1.06-.78 1.5-1.03.24-.14.73-.34 1.05-.34.17 0 .34.1.47.18.19.12.38.23.62.26m-48.92.08c.06.21-.09.67-.18.82-.01.02-.9.43-1.16.53q-.18.07-.36.16-.05.03-.28.12l-.18.08-.18.08-.2.08-.2.08-.14.08c-.23.1-.57.24-.62.26-.13.04-.5.21-.77.32l-.14.06-.22.06-.18-.05-.15.03-.02.14-.24.15c-.1.07.04-.3.1-.36 0-.06 0-.32.05-.31t.12-.15c.03-.06.11-.09.19-.13.19-.08.39-.18.56-.26l.2-.08.16-.08.2-.08.2-.08.12-.06.16-.06c.12-.06.29-.14.43-.2.21-.09.4-.18.6-.28.22-.11.48-.24.67-.32l.2-.08.16-.08.2-.08.12-.06c.2-.09.7-.32.78-.25m-30.75 2.5c.3-.26 7.95-3.51 8.26-3.54s.07.94-.24.99c-.52.07-1.5.59-2.06.88-.29.15-1.63.67-2.34.94l-.14.06q-.09.04-.3.12l-.4.16s-.4.16-.4.16c-.16.06-.3.12-.43.2-.02.01-.34.14-.5.2-.34.13-.69.28-1.03.44-.11.05-.55.28-.57.25-.1-.14.03-.78.16-.87m9.87.33c-.18-.55-.13-1.08-.06-1.72.06-.55.5-1.49.79-1.84.33-.38-.24 1.21-.25 1.24-.23.59-.34 1.73.36 1.87.15.03.29-.15.34-.26.06-.12.16-.34.24-.27.21.18-.4 1.36-.47 1.42-.41.41-.79-.11-.96-.44m9.2-.06c-.93.12-1.94.32-2.87.52-.87.19-2.68.58-3.18.43-.31-.09.25-.46.31-.48l.16-.04.16-.04.24-.08.12-.04c.22-.07.43-.14.65-.22.15-.06.48-.15.72-.22 1.02-.29 2.09-.65 3.03-1.06 2.05-.9 4.79-2.12 5.93-2.77.79-.45 1.61-.92 2.33-1.45.35-.26.76-.56 1.02-.83.46-.46.51-.53.21-1.21-.32-.75-.87-1.77-1.35-2.65-.09-.18-.29-.71-.42-1.08-.17-.47-.36-.99-.57-1.32-.11-.17.18-1.45.25-1.63.06-.17.64.52.66.55.2.23.42.48.65.68.22.19.43.44.62.67.07.09.28.44-.02.4l-.4-.1s-.26-.07-.28-.04c-.09.09.43 1.07.49 1.16l.08.14.08.14q.08.14.16.3c.07.13.11.23.16.3q.07.1.12.22c.48 1.02.83 2.04.51 3.35-.09.36-.22.6-.39.88l-.25.35q-.17.18-.2.24c-.84 1.52-7.05 4.43-8.75 4.93m43.9-8.33c.07-.23-.4-1.16-.56-1.49l-.14-.28-.14-.26-.08-.12c-.03-.06-.16-.5-.16-.5.08-.07.12-.1.04-.14q-.3-.15-.4-.34c-.14-.24-.25-.49-.34-.76l-.06-.16-.1-.28q-.09-.28-.14-.4c-.13-.29-.33-.79-.34-.84-.04-.23.25-1.23.32-1.38.04-.09.59.58.65.66q.09.07.28.28l.23.19.13.08c.23.22.47.49.67.73.06.07.23.28.12.4 0 0-.27-.06-.28-.06-.24-.06-.25-.06-.54-.04-.13 0 .38.9.38.9l.08.16q.11.24.24.44l.08.14.08.14c.36.59.64 1.17.71 1.97.05.62-.06 1.8-.34 2.31-.17.3-.86.98-1.32 1.43t-.24.2q-.17.14-.19.15c-.11.07-.15.1-.24.17-.17.16-.29.53-.41.87-.08.25-.03 1.59.11 1.67l.05.13.06.16c.07.16.15.28.24.42l.19.23.28.33c.2.26.95.58 1.35.65.71.13 1.48 0 2.18-.16.33-.07 1.52-.71 2.42-1.18.76-.41 4-3.19 4.18-3.93.03-.15-.06-.61-.26-.58-.23.03-.26.03-.28.04l-.16.06-.32.1c-.44.1-.93.17-1.35.2-.6.05-1.41-.04-1.85-.37-1.01-.75-.53-2.56.07-3.4.13-.18.42-.33.75-.42.05 0 .23-.09.36-.17l.27-.14c.07-.21.13-.2.54-.13.32.06.79.26.98.47 0 0 .26.22.38.32.1.09.4.44.62.69l.17.23c.14.19.33.45.43.45.3-.02 1.32-.72 1.76-1.02.46-.32 1.51-1.07 1.69-.98.1.05.06.69.05.9-.02.32.03.51.14.74.19.4.6.64.97.86.1.06.31.12.44.14l.24.04h.81l.16-.04.16-.04c.16-.05.3-.11.42-.18.23-.13.49-.32.74-.49.25-.18.42-.46.57-.73 0 0 0 0 .16-.3 0 0 .16-.27.16-.28q.05-.09.16-.32c.05-.1.1-.2.16-.3.06-.09.65-.87.59-.3-.02.17-.16.46-.26.68-.09.19-.22.46-.16.64.27.85 1.93 1.19 2.87.84.13-.05-.24-.74-.24-.74-.16-.25-.34-.52-.26-.74.05-.14.11-.43.16-.68.04-.19.1-.47.26-.5.22-.04.23.33.12.42l.19-.02.09.18c.07.13.13.29.18.44.13.4.23.87.2 1.34-.04.92-.38 1.87-1.27 2.17-.43.14-1.09.03-1.53-.14-.3-.12-.58-.29-.8-.49-.11-.09-.21-.2-.29-.31-.11-.15-.29-.41-.48-.26l-.08.14c-.08.13-.16.26-.24.38-.15.23-.36.46-.59.62-.42.3-1.31.76-1.8.67-.68-.11-1.54-.26-1.95-.73-.16-.19-.31-.37-.41-.63-.06-.15-.12-.32-.16-.48-.01-.06-.15-.62-.18-.58-.08.1-2.34 1.67-2.34 1.67l.02.18-.04.42-.04.16-.04.4c-.05.46-.1.71-.26 1.06-.64 1.34-3.47 4-4.8 4.66-1.32.66-2.76 1.37-4.48 1.12-.15-.02-.51-.17-.73-.26-.18-.08-.33-.17-.57-.32q-.18-.13-.22-.15c-.26-.13-.81-1.05-.93-1.38-.25-.69-.2-1.9-.14-3.21 0-.17-.74.37-.74.37-.11.08-.23.16-.35.23-.14.08-.25.15-.38.24-.36.24-.93.59-1.41.88-.98.6-2.05 1.18-3.13 1.67-.64.29-6.7 1.69-6.94 1.55-.19-.12.56-.44.6-.46.24-.1.55-.21.72-.28.09-.03.29-.11.36-.14.15-.06.33-.14.49-.2.2-.08.27-.11.36-.14.15-.05.3-.1.45-.16.56-.21 1.11-.42 1.63-.66.23-.11.64-.3.75-.36.19-.11.45-.26.65-.32.22-.07 1.83-.98 2.72-1.49.82-.47 2.36-1.36 2.6-1.53.23-.17.75-.54 1.12-.79q.15-.11.23-.18c.06-.05.22-.15.33-.23l.12-.08.13-.09c.08-.06.29-.21.29-.21.46-.15 1.46-1.27 1.86-1.75m-24.94 9.78c-.01-.13.49-.89.69-1.19.26-.39.73-1.09.7-1.25-.05-.24-.18-.36-.42-.38-.05 0-.19.11-.35.23-.11.09-.34.27-.36.23-.11-.29.56-1.33.67-1.4.83-.64.95.68.83 1.2-.14.61-.44 1.03-.75 1.46l-.19.23c-.09.11-.17.22-.25.33-.08.12-.46.6-.57.53" fill="#1d1d1b" fill-rule="evenodd"/></svg>