<svg viewBox="0 0 87.46 29.57" xmlns="http://www.w3.org/2000/svg"><path d="m8.92 28.71c.43-.43 6.76-2.8 6.76-2.8.15.06-.14.76-.21.83-.25.22-6.11 2.65-6.79 2.82-.37.09.07-.76.24-.85m55.6.09a3.23 3.23 0 0 1 -1.13-.95 5.43 5.43 0 0 1 -.73-1.64 4.1 4.1 0 0 1 0-1.11v-.28-.32c0-.16.06-.6.06-.79s-.49.21-.49.21l-.2.15-.34.24-.28.15-.23.17a3.54 3.54 0 0 1 -.35.23l-.14.08-.12.08-.14.08-.13.08-.16.14a16.46 16.46 0 0 0 -1.5.85c-.39.24-1.09.57-1.65.83a15.75 15.75 0 0 1 -3.22 1l-1 .19c-.39.07-1.05.19-1.24.24a7.78 7.78 0 0 1 -2 .35c-.15-.09.5-.41.57-.45l.64-.25 1.87-.74a24.36 24.36 0 0 0 3.11-1.34c2-1.14 4.44-2.48 6-3.49.69-.46 3.84-2.72 3.5-3.29-.68-1.11-2.57-4.59-2.52-5.5 0-.16.18-1.33.38-1.29a12.16 12.16 0 0 1 2.09 2.37s-.27 0-.3 0a4 4 0 0 0 -.48-.08c-.3 0 .66 1.58.7 1.63a8.07 8.07 0 0 1 .76 1.56 4.17 4.17 0 0 1 -.7 3.63 9.49 9.49 0 0 1 -.9.89 6 6 0 0 0 -.86.87 3.23 3.23 0 0 0 .35 3 2.6 2.6 0 0 0 1.26 1l.52.18h.32.82.37a2.35 2.35 0 0 0 .4-.08l.52-.16a5.32 5.32 0 0 0 1-.42 17 17 0 0 0 5.39-4.61c.16-.24 0-.53-.14-.71s-.48.08-.57.11a2.31 2.31 0 0 1 -.56.12 14.27 14.27 0 0 1 -1.87.2c-1.6 0-1.92-1.44-1.58-3a2.16 2.16 0 0 1 3.07-1.5 4 4 0 0 1 1.11.89c.13.17.29.37.38.51s.36.56.5.56a8.43 8.43 0 0 0 2.32-1.57 5.72 5.72 0 0 1 1-.64c.31 0 .36.11.38.42a2.52 2.52 0 0 1 0 .39 1.09 1.09 0 0 0 .06.72 2.43 2.43 0 0 0 3.54.82 2.86 2.86 0 0 0 1.02-1.14l.47-.88c.16-.28.43-.79.6-.83.33-.07.12.45 0 .64a4.14 4.14 0 0 0 -.3.83c.15.8 2.66 1.53 2.89.85a1 1 0 0 0 -.16-.6 1.38 1.38 0 0 0 -.17-.25.81.81 0 0 1 -.21-.4 6.24 6.24 0 0 1 .38-1.47c.18-.24.61.81.63.87a4.14 4.14 0 0 1 .18.6 7.14 7.14 0 0 1 .13 1.07l-.09.47a2.18 2.18 0 0 1 -.11.44 2.42 2.42 0 0 1 -.31.67 1.61 1.61 0 0 1 -.87.58 2.71 2.71 0 0 1 -2.85-1.34c-.06-.18-.33.29-.33.29a4.45 4.45 0 0 1 -.33.51 4.63 4.63 0 0 1 -.68.61c-.43.35-2.48 1-2.89.37l-.28-.14-.25-.18a6 6 0 0 1 -.48-.5 3.53 3.53 0 0 1 -.41-1.36c0-.22-.61.28-.66.33a4.09 4.09 0 0 1 -.61.49c-.28.17-1.09.73-1.15 1v.31.48.48a2.3 2.3 0 0 1 -.22.85 5.46 5.46 0 0 1 -.8 1.2c-.13.14-.56.65-.56.65l-.28.28c-.09.09-.11.1-.14.16s-1.26 1.15-1.53 1.36a4.08 4.08 0 0 1 -.33.25l-.47.37a3.19 3.19 0 0 1 -.42.3l-.52.32a6.69 6.69 0 0 1 -2.35 1 4.08 4.08 0 0 1 -1.75.12 4.24 4.24 0 0 1 -.77-.19l-.27-.09-.2-.1m-35.53-4.38a2.33 2.33 0 0 1 -.13.85 3 3 0 0 0 -.11 1.23c.13.4.31.95.51 1a.4.4 0 0 0 .46-.15c0-.06.26-.4.3-.33s-.3 1.15-.39 1.26a.65.65 0 0 1 -.67.18c-1.15-.43-.56-3.89 0-4m6.13 3.36c1.68-.68 4.38-1.78 5.17-2.2s3.36-2.29 3.53-3.05a8 8 0 0 0 -.8-2.93 4.78 4.78 0 0 0 -.52-.91 6.48 6.48 0 0 1 -.58-.87s-1.14-1.16-1.19-1.2c-.43-.44-.86-.87-1.31-1.29s-.76-.74-1.14-1.12-.79-.79-1.21-1.17a50.73 50.73 0 0 1 -4.55-5.35 4.77 4.77 0 0 1 0-1.07c.05-.6.3-.37.59-.11 0 0 .54.32.78.46l.28.16.46.24a12.7 12.7 0 0 1 1.28.88c.13.09.45.32.29.47s-.34 0-.56 0a3.29 3.29 0 0 0 -.71-.1c-.16 0 .61.86.61.86s.18.2.27.32.26.28.39.41c.41.41 1.21 1.22 1.36 1.41a1.8 1.8 0 0 0 .26.29l.13.08.6.55.38.36c.46.46 1 1 1.38 1.41a37.77 37.77 0 0 1 2.59 3c.06.09 0 .16 0 .35l.23.09.08.14a4.49 4.49 0 0 1 .46 1 6.56 6.56 0 0 1 .35 1.06c0 .07.06.69.08 1s0 .61.1 1c0 .14.37-.45.38-.48.25-.85-.65-8.27-1-10.38 0-.29-.2-1.84-.28-2.77v-.44c0-.31 0-.74-.08-1v-.36l-.2-.57c0-.19-.06-.62-.08-.87a2.49 2.49 0 0 0 -.24-.91c-.09-.18.08-.57.17-.8a3.27 3.27 0 0 0 .18-.47 2.62 2.62 0 0 1 .31-.65c.16-.21.27.29.29.37.05.24.13.64.16.71l.06.16.06.12.06.16.06.16.26.63a9.91 9.91 0 0 1 .77 2.72c0 .26-.57-.35-.58-.37a4.65 4.65 0 0 0 -.4-.46c-.12 0 0 1.22 0 1.24s.07.6.08.71.07.61.1.81c0 .42.29 2.41.4 3.43v.51.28s.08.58.12 1v.4.15.18.18.28.31c0 .39.11.95.12 1.15s0 .56 0 .56a9.62 9.62 0 0 1 .08 1.69v.41.33.34.24.17a9.26 9.26 0 0 1 .02 1.31 5.6 5.6 0 0 1 -.83 1.82 7.78 7.78 0 0 1 -1.61 1.79l-.67.47a3.8 3.8 0 0 1 -.74.46 11.16 11.16 0 0 1 -1.91.55l-2.15.48c-.32.07-.66.17-1 .26s-1.2.24-1-.18m45.5-3.2a1 1 0 0 1 .94.05 1.24 1.24 0 0 0 .85.26 1.68 1.68 0 0 0 .73-.4 1.5 1.5 0 0 0 .23-.33c.09-.17.24-.47.37-.45v.24c0 .13 0 .29.11.33s.56.26.74.14.2-.33.26-.63a5.9 5.9 0 0 1 .29-.69c.23-.5.07.88 0 1a3.28 3.28 0 0 1 -.38.85.93.93 0 0 1 -.91.43 2.12 2.12 0 0 1 -.38-.13c-.14-.07-.28-.14-.4 0-.58.49-1.15.85-2 .28-.54-.38-1.69.39-2 .64-.7.52-2.91 2.07-3.72 1.81a9.07 9.07 0 0 1 1.29-.83 4.81 4.81 0 0 0 .6-.4c.22-.16.44-.32.67-.47.84-.56 2.57-1.65 2.68-1.68m-78.51 2.72a4.17 4.17 0 0 1 -1.29-1.25 7.77 7.77 0 0 1 -.62-1.88 9 9 0 0 1 .27-3.24c.07-.28.17-.65.22-.79a4 4 0 0 0 .32-1l-.09-.11-.19-.19-.09-.13a2.09 2.09 0 0 1 -.29-.6 4.43 4.43 0 0 1 -.24-2.06v-.31c.06-.51.06-.51.08-.64s.1-.56.16-.83.18-.79.27-1.15a6.38 6.38 0 0 1 .79-2.11c.2-.18-.27 1.9-.31 2s-.17.75-.24 1.07c-.07.61-.19 1.65-.19 1.65v.36.28l.08.39a1.66 1.66 0 0 0 .26.62 1.14 1.14 0 0 0 .71.59c.39.1.59-.38.7-.69v-.16-.16a1.61 1.61 0 0 1 .15-.41c.41-.54 0 1.6-.07 1.72a2 2 0 0 1 -.8 1.07c-.49.33-.55.51-.75 1.23a7.39 7.39 0 0 0 -.36 1.68 3.66 3.66 0 0 0 1.16 2.95 3.42 3.42 0 0 0 1.81.73 4.87 4.87 0 0 0 2.31 0 17.84 17.84 0 0 0 2.68-1c1-.53 3.7-2.33 4-3.34.22-.68-.76-6.63-1.12-8.59-.06-.33-.12-.71-.16-1.07l-.16-1.06-.05-.57c0-.37 0-.37-.08-.63l-.06-.4v-.28c0-.27 0-.27-.08-.63 0-.11-.2-1.64-.32-2.65a8.19 8.19 0 0 0 -.16-.91 3 3 0 0 1 -.19-.87s.17-.69.2-.83a1.92 1.92 0 0 1 .3-.74 21.41 21.41 0 0 1 1.11 2.35c.13.29 1 2.3.54 2.37 0 0-.32-.39-.43-.52s-.34-.46-.43-.33a16.37 16.37 0 0 0 .22 1.7c.09.49.17.9.2 1.27v.24.31.28c.05.36.05.36.08.52s.06.3.08.43c0 .28.08.56.12.79v.24.24a2.42 2.42 0 0 1 .08.4c.09.6.18 1.2.29 1.82 0 .17.06.41.07.49v.18l.05.28.07.47c.07.56.15 1.08.24 1.67a13.5 13.5 0 0 1 .21 2.17 9.67 9.67 0 0 1 -.28 2.78 4.73 4.73 0 0 1 -.62 1 4.31 4.31 0 0 1 -.39.46l-.47.48a21.82 21.82 0 0 1 -2.76 2 12.32 12.32 0 0 1 -3.42 1.33 5.58 5.58 0 0 1 -3.36-.45m47.46-4.52c0-.31-.1-1.07-.14-1.74s-.12-1.58-.2-2.3c-.12-1-.2-1.85-.28-2.85-.07-.74-.16-1.81-.25-2.53-.15-1.3-.3-3.21-.44-5a16.15 16.15 0 0 1 -.08-2.06c0-.13 0-.13 0-.19s.12-.13.12-.35a11.09 11.09 0 0 0 -.12-1.38l-.06-.16-.08-.14a.47.47 0 0 1 0-.42s.17-.41.2-.47a1.83 1.83 0 0 1 .06-.29c0-.12.34-.77.41-.72a29.91 29.91 0 0 1 1.75 5.22c0 .35-.73-.61-.73-.61l-.24-.32c-.15-.07-.11.79-.09 1 .08 1.57.26 3.1.48 4.91a84.76 84.76 0 0 1 .76 9 10.34 10.34 0 0 1 -.65 4c-.15.34-.67 1.1-.42.08a7.07 7.07 0 0 0 .16-1v-.56c0-.3.06-1.17.06-1.17m-29.67 2.48a6 6 0 0 1 -1.71-.9 3.7 3.7 0 0 1 -1.11-1.57 14.08 14.08 0 0 1 -.7-2.81c-.12-.8-.18-1.63-.24-2.5v-.65c0-.63 0-.63 0-.65l-.06-.93v-.5-.35a5 5 0 0 1 0-.64v-.63-.32-.28c0-.32 0-.65-.08-.95s0-.3-.06-.55l-.06-.71c-.08-1.19-.32-2.82-.48-3.88a11 11 0 0 0 -.29-1.43 3.09 3.09 0 0 1 -.19-1.42l.05-.16c0-.1.1-.25.13-.31s.33-.61.41-.62c.23 0 .64 2.38.68 2.67.22 1.48.62 5 .6 5.17 0 .53.22 3.65.32 4.93.14 1.59.31 3.17.53 4.67.17 1.22 1.12 3 2.21 3.22l.48.18.48.18a6.64 6.64 0 0 0 1.35.24c1.36.11 7.22-1.14 7.38-2.07 0 0-.09-.26-.1-.3s-.1-.26-.14-.39a4.7 4.7 0 0 1 -.24-1.27c-.08-1.3.48-3.59 1.89-3.51a1.64 1.64 0 0 1 1 .68l.16.23a4.56 4.56 0 0 1 .24.44 3.69 3.69 0 0 1 .34 1 6 6 0 0 1 -.2 2.3 1.83 1.83 0 0 1 -.42.82c-.15.18-.53.65-.4.77a2.35 2.35 0 0 0 1.32.64 4.56 4.56 0 0 0 3.18-.86c.28-.18-.27-1.14-.39-1.36a5.27 5.27 0 0 0 -.41-.6 1.36 1.36 0 0 1 -.33-.57s.07-1.56.22-1.46a4.06 4.06 0 0 1 1.61 2.29c.23.7.23 2.6-.35 3.07a6.05 6.05 0 0 1 -.74.54l-.16.08-.14.08-.22.14-.28.12-.31.11a4.3 4.3 0 0 1 -1.95.17 2.8 2.8 0 0 1 -1.64-.62 3.91 3.91 0 0 1 -.51-.46 5.53 5.53 0 0 0 -.53-.61c-.14-.13-1.14.44-1.3.53a15.11 15.11 0 0 1 -1.39.64 18.71 18.71 0 0 1 -2.43.81c-1.42.35-3.69.71-5.05.12m35.87-7a16 16 0 0 1 -2.47-2.2 2.94 2.94 0 0 1 .05-1.69l1.29.52.51.19a3.06 3.06 0 0 1 .81.39c.16.2-.11.27-.21.29h-.28-.13c-.23.31 1.3 1.19 1.48 1.19a5.72 5.72 0 0 0 .59-.74l.65-.88c.15-.2.42-.55.64-.82s.21-.26.3-.4a2.14 2.14 0 0 1 .34-.42c.4-.12-.3 1.78-.43 2a18.94 18.94 0 0 0 -1.16 1.75c0 .06.5.38.62.45a3.09 3.09 0 0 1 1.41 2 4.9 4.9 0 0 1 -.33 1.84c-.26.7-3 2.48-3.82 1.85a1.38 1.38 0 0 1 -.62-.73 4.81 4.81 0 0 1 .12-2.7c.09-.27.19-.53.3-.79l.26-.34a1.62 1.62 0 0 0 .11-.7m-16.51 4a4.59 4.59 0 0 1 0-2.3c.07-.34.48-1.53.68-1.56s-.07.48-.09.53-.14.6-.2.87a1.93 1.93 0 0 0 .32 1.87c.17.16.45-.09.5-.19s.27-.48.32-.43a7 7 0 0 1 -.58 1.53c-.22.48-.84-.09-1-.32m-31.71-1.6a6.48 6.48 0 0 1 -.52-1.77c.16-1.36.53-4.29 1.11-4.87.24-.23-.14 1.3-.16 1.36a7.39 7.39 0 0 0 -.28 3 2 2 0 0 0 .72 1.43c.26.15.43-.06.54-.28a2.83 2.83 0 0 0 .17-.56c0-.16.1-.41.19-.44.48-.18-.16 1.78-.25 2a1.39 1.39 0 0 1 -.57.69.56.56 0 0 1 -.54-.1l-.23-.23zm24.22-.72a2.53 2.53 0 0 0 -1.06-1.86c-.54-.37-1.11.46-1.24.84s.56 1.78.8 2.11c.11.16.78-.35.85-.42l.3-.3.18-.19a1.52 1.52 0 0 1 .17-.18m-8.3.51a2.13 2.13 0 0 1 -.34-.66 2 2 0 0 1 -.08-.35c0-.21-.09-.55-.1-.56-.27-.29.61-4.54 1.2-4.45.09 0-.05.35-.05.35a2 2 0 0 0 -.14.38c-.09.39-.18.76-.28 1.11a4.31 4.31 0 0 0 .1 2.61 1.07 1.07 0 0 0 .64.69c.29.08.43-.2.5-.41s.24-.73.34-.73c.39 0-.36 2.29-.7 2.43a.67.67 0 0 1 -.72 0l-.23-.14zm49.66-.75s-.65-.64-.79-.76a1.63 1.63 0 0 0 -1.21-.05c-.21.11-.55.35-.57.58 0 .53 2.16.46 2.53.2m-54.86-4.29c-.19-.16.25-1.69.35-2a3.2 3.2 0 0 1 1.12-1.19c1.75-.92 3.6-2 5.37-3 1.47-.84 4.75-2.61 5.89-2.79.57-.1-.47 1.23-.56 1.3l-.27.19-.18.08-.16.08-.11.06a9.41 9.41 0 0 0 -.9.41 1.1 1.1 0 0 1 -.34.18 3.51 3.51 0 0 0 -.48.22l-.83.42c-1.2.59-3 1.51-3.7 1.9l-.76.44-.44.23-.11.06-.28.14c-.23.15-.49.3-.72.42s-.71.39-.93.53a5.44 5.44 0 0 0 -1.34 1.07c-.09.21.3.46.46.56a1.46 1.46 0 0 1 .67.65 2.67 2.67 0 0 1 -.19 1.09c0 .09-.08.23-.23.15s-.13-.19-.19-.23a6.2 6.2 0 0 1 -1.15-1m14.91-.4c-.07-.18.57-1.15.71-1.28s1.56.85 1.6 1.16-.82 1.48-1.11 1.23a1 1 0 0 1 -.2-.17l-.3-.27c-.15-.13-.67-.56-.67-.67m-5.54-.69c.13-.33.52-1.25.79-1.32s1.22.83 1.35 1.09a7.06 7.06 0 0 1 -.63 1.42c-.08.13-.82-.49-.88-.54s-.6-.51-.6-.65m55.35-1.77c.07-.49.54-2.2.88-2.33s-.14.71-.14.71a2.68 2.68 0 0 0 -.34 1.07c0 .52.11 1.23.5 1.39.15.06.35-.08.43-.22s.3-.5.34-.48c.43.23-.57 1.64-.87 1.71-.64.15-.77-1.42-.8-1.85m-14-.62c.09-.53.53-2.44.89-2.44a6.11 6.11 0 0 1 -.29 1 3.75 3.75 0 0 0 -.2 1.27c0 .45.6 1.6 1 1.21a6.16 6.16 0 0 0 .37-.91c.12-.35.1.69.07.8a1.94 1.94 0 0 1 -.34.87c-.13.17-.35.42-.63.32-.77-.26-.86-1.4-.86-2.1m-14.58.39c-.21-.23.43-1.35.67-1.46.08-.05.58.27.8.41s.66.43.79.4.3-.46.36-.6.26-.5.42-.55c.34-.11 1.49.9 1.59 1.22s-.5 1.26-.69 1.37-.71-.41-.87-.54-.61-.49-.72-.46a6.4 6.4 0 0 0 -.38.67 2.09 2.09 0 0 1 -.36.6c-.21.2-1.55-.94-1.61-1.06m-48.84-.19c-.13-.95-.39-2.88.43-3.62.15-.14 0 .58-.07.65a3.09 3.09 0 0 0 -.16 1.46 1.72 1.72 0 0 0 .44 1c.23.17.39 0 .47-.24s.17-.44.23-.41-.25 1.37-.37 1.51c-.38.42-.83 0-1-.38m76.64-5.86a2.46 2.46 0 0 1 .87-2.38c.24-.16.59 0 .75.15s.33 1.2.37 1.75a3 3 0 0 0 .15.94 1.83 1.83 0 0 1 .57.69c0 .14 0 .75-.18.69s-.3-.2-.45-.31a.77.77 0 0 0 -.62-.22s-.21.25-.24.29a5.09 5.09 0 0 1 -.69.73l-.24.2a6.4 6.4 0 0 1 -.62.53 7 7 0 0 0 -.69.56c-.51.5-4.33 2.57-4.8 2.3a9.82 9.82 0 0 1 .87-.65c.41-.23 1-.56 1.23-.71.51-.31 1.47-.95 2.19-1.43a22.55 22.55 0 0 0 1.9-1.44c.28-.23.81-.67.43-.94a2.52 2.52 0 0 1 -.8-.75m-26.59.81c0-.09-.17-.34-.31-.5a1.52 1.52 0 0 1 -.4-.8 2.34 2.34 0 0 1 1-1.92c.51-.22.74.21.82.61a3.26 3.26 0 0 1 0 1c0 .25-.1 1 0 1a2.31 2.31 0 0 1 .85.76.88.88 0 0 1 -.14.89s-.3-.16-.3-.16l-.79-.54c-.15-.06-.2 0-.45.15-.18 0-.18 0-.18.19a5.1 5.1 0 0 1 -.32.45l-.65.67c-.42.42-3.16 2.11-3.7 2-.2-.06.4-.51.45-.54l.14-.08.18-.08.39-.24a5.61 5.61 0 0 0 .55-.41l.67-.57c.19-.13.38-.26.58-.38s.44-.32.63-.48a5.81 5.81 0 0 0 1-1m4.65 1.86c.46-.5 8.27-4.9 8.4-4.91s-.13.84-.18.9a15.55 15.55 0 0 1 -2.24 1.36 20.16 20.16 0 0 0 -2.3 1.36l-1.08.63c-.19.1-.38.22-.64.39l-.28.16-.31.16-1.08.67a2.5 2.5 0 0 1 -.52.28c-.08 0 0-.95.23-1m11.47-2.68a1.5 1.5 0 0 1 .11-1c.09-.22.81.12.89.17a6.69 6.69 0 0 1 1.26 1.11 5.26 5.26 0 0 1 .49.65 7.28 7.28 0 0 0 .57.78 14.36 14.36 0 0 0 .06-2.03 4.26 4.26 0 0 1 .22-1.15c.32-1.1 1.55-1.69 2-.28.06.19-.06.88-.26.85a3.49 3.49 0 0 1 -.4-.42c-.13-.14-.34-.34-.56-.29a.65.65 0 0 0 -.44.38 6.9 6.9 0 0 0 -.06 1.46c0 .28 0 .87-.08 1.31s-.21 1.91-.42 1.96-.18-.28-.22-.42a2.18 2.18 0 0 0 -.26-.53 10 10 0 0 0 -.74-1.06c-.36-.43-.51-.61-1-.68a1.88 1.88 0 0 1 -1.12-.81m-49-.39a5.56 5.56 0 0 0 -1.42-1.93l-.39-.36c-.12-.08-.18-.06-.29 0s-.11.07-.2 0a1.55 1.55 0 0 1 -.92-.67c-.16-.24 0-.8.12-1s.57-.1.75 0a5.35 5.35 0 0 1 1.41 1.14 3.39 3.39 0 0 1 .28.31c.06.09.24.32.24.32s.55.66.56.65a3.51 3.51 0 0 0 0-.7 11.77 11.77 0 0 1 .2-1.8c.08-.34.39-1.22.64-1.35a.74.74 0 0 1 .79.17l.18.19a2.6 2.6 0 0 1 .24.47c.13.3.17.79-.2.85a4.1 4.1 0 0 1 -.43-.36c-.14-.14-.37-.38-.6-.35s-.3 1.37-.3 1.82a11.92 11.92 0 0 1 -.16 2.12 4.9 4.9 0 0 1 -.73 2 4.38 4.38 0 0 1 -2.27 1.88c-.37.07.58-.77.58-.77a6 6 0 0 0 .74-.77l.33-.37c.11-.13.22-.28.32-.42s.58-.85.52-1.09m-20.22-1.2a1.62 1.62 0 0 1 .23-1.2c.27-.29 1.58 1.06 1.69 1.17s.41.51.61.78a3.94 3.94 0 0 1 .31.48c.09.15.28.47.36.42s0-1.13 0-1.26a7.33 7.33 0 0 1 .13-1.22c.07-.41.34-1.23.7-1.33.78-.22 1.42 1.39.77 1.69-.06 0-.33-.27-.39-.33a.82.82 0 0 0 -.52-.33c-.34 0-.29.87-.28 1.11a9.89 9.89 0 0 1 0 1.09 9.87 9.87 0 0 1 -.36 2.36 5.89 5.89 0 0 1 -.68-1.07 6.55 6.55 0 0 0 -.69-1c-.3-.36-.48-.59-.69 0a5 5 0 0 1 -.3.73l-.1.2-.22.34-.23.16-.12.07-.21.17-.22.18-.22.17s-1.43.91-1.12.48c.19-.26 1.12-1.18 1.71-1.78.27-.27.69-.68.71-1.08 0-.13-.21-.32-.45-.53a1.73 1.73 0 0 1 -.42-.47m36.38 1.29a5.41 5.41 0 0 1 .19-2.27c0-.12.08-.27.12-.39l.06-.16.1-.28c.06-.16.32-.93.43-.84s-.18.91-.23 1.12a7.42 7.42 0 0 0 -.2 1.82c0 .26.25.8.46.85a.5.5 0 0 0 .43-.24c.06-.23.14-.54.22-.55.27 0-.12 1-.17 1.11l-.08.14-.08.19-.15.25-.17.15c0 .27-.56-.23-.56-.23a1.38 1.38 0 0 1 -.37-.67m44.58-.88c-.34-.37-1 0-.94.45a2.2 2.2 0 0 0 1.15.79c.32 0-.11-1.17-.21-1.24m-28.11.15c-.1.34.58.94.81.89s.09-.83 0-1c-.16-.36-.7-.18-.82.12m-23.2-.55a4.6 4.6 0 0 0 -.37-.28c-.11-.08-.3-.24-.31-.38 0-.55 1.18-1.45 1.58-1.68.86-.49 1.83.53 1 1.12-.1.07-.28-.12-.36-.2a.81.81 0 0 0 -.49-.3 1.65 1.65 0 0 0 -1 .61c0 .17.58.41.77.46a3.7 3.7 0 0 0 .72.11l.72-.08c.18 0 .49-.06.59 0s-.11.61-.27.68l-.36.06h-.28l-.4.15h-.16-.16-.16l-.35.08-.48.16-.16.06c-.34.11-.15-.47-.07-.71m-3.53-2.09c1.57-.66 6.63-2.5 6.88-2.5s-.14.8-.28.85-.52.18-.78.25l-.83.28c-.63.21-1.33.44-1.87.64-.75.26-1.5.56-2.23.85l-.52.2-.16.06-.16.06-.13.08c-.48.16 0-.67.08-.77m27.34 17.16a.84.84 0 0 1 -.15.45 2.74 2.74 0 0 0 -.36 1.05 1.1 1.1 0 0 0 .33.66 1.24 1.24 0 0 0 1 .05l.16-.06h.16l.28-.14c.18-.11.42-.24.53-.32a6.73 6.73 0 0 0 .91-.67c.36-.45-1.06-1.16-1.45-1.35s-.83-.42-1-.1c-.07.12-.26.42-.36.32a.73.73 0 0 1 -.07.16" fill="#221e1f" fill-rule="evenodd"/></svg>