<svg viewBox="0 0 70.6 25.11" xmlns="http://www.w3.org/2000/svg"><path d="m8.56 23.78c.16.03-.95.48-1.12.54-.23.09-.84.24-1.25.34-1.08.27-2.65.26-3.59-.18-1.44-.38-2.83-2.57-2.56-4.46.11-.76.43-2.69.44-2.73.08-.25.17-.49.26-.72.12-.32.27-.7 0-1.04q-.09-.11-.16-.22c-.15-.22-.26-.44-.34-.74-.17-.63-.19-1.47 0-2.21.26-1.05.7-2.67 1.18-3.35.41-.58-.25 1.48-.29 1.58-.3.83-.62 1.88-.32 2.93.08.28.45.97.69 1.04.33.11.43-.06.58-.34.07-.12.1-.23.14-.38.06-.23.14-.51.36-.46.12.03-.11.83-.15.98-.1.36-.22.7-.38.99-.12.22-.26.42-.45.57-.2.16-.33.47-.46.77-.14.34-.52 1.68-.41 2.07v.54c.02.29.07.58.12.84.05.27.13.49.22.72.11.29.23.56.41.79.05.06.18.21.27.3l.28.29c.2.28 1.31.66 1.79.73.81.12 1.35.21 2.1.04 1.18-.26 2.15-.61 3.11-1.06 1.1-.51 3.89-2.28 4.46-3.21.24-.4-.12-1.62-.3-2.09-.12-.31-.27-.65-.44-.92-.15-.23-.31-.52-.38-.8s.08-.95.17-1.35c.07-.29.66.75.66.75.19.33.36.6.68.81.3.2.75.23 1.06.13.59-.17 1.1-.45 1.48-.83.05-.04.39-.42.57-.6.24-.26.5-.53.65-.56.06 0-.14.59-.14.6-.07.21-.19.56-.12.68.18.32.3.47.62.64.31.16.7.13 1.01 0 .43-.19.7-.49.93-.89.09-.15.25-.51.36-.76.07-.14.27-.57.4-.58.23-.03.15.25.1.42-.07.24-.03.5.13.65.28.28.64.55 1.1.65.45.1.86.05 1.19-.1.28-.13.35-.24.4-.58.09-.61-.54-2.8-.81-3.6-.16-.48-1.01-3.03-.14-3.11.26-.03 1.09 2.58 1.19 2.99.29 1.15.68 2.7 1.07 3.33.09.15 1.73 1.75 1.43 1.04-.34-.82-.68-1.67-.77-2.73-.1-1.17.5-2.53 1.18-3.14.52-.47 1.21-.8 1.95-1.05.62-.2 1.62-.26 2.3-.16.74.11 3.13.91 3.17 1.36.01.16-.68-.02-.91-.08-.48-.13-1.14-.23-1.6-.2-2.04.12-3.65.7-5.06 1.51-.58.33.36 2.63.57 2.95.28.42.73.87 1.22 1.36.32.32.86.47 1.4.57 1.26.23 2.65-.56 3.61-1.1.43-.24.92-.53 1.81-1.22.21-.17.65-.52.69-.53.13-.03-.13.75-.16.82-.13.38-.29.59-.51.88-.34.44-1.6 1.28-2.53 1.89-.82.54-1.95.95-3.03 1.19-.47.1-.95.16-1.29.16l-.46.04-.26-.04c-.18-.03-.33-.05-.42-.04-.43.06-1.41-.52-1.79-.75-.29-.18-.57-.5-.77-.78-.12-.16-.64-.88-.68-.85-.03.02-.13.32-.15.39-.02.09-.06.19-.1.26-.07.13-.23.32-.36.47-.33.39-.52.56-1.12.61-.54.06-.88-.11-1.29-.34-.17-.1-.3-.22-.43-.35-.16-.15-.32-.32-.49-.28-.02 0-.14.26-.15.27-.04.08-.09.15-.16.26-.1.16-.21.31-.35.43-.37.34-.67.52-1.3.57-.33.03-.81-.27-1-.43-.1-.08-.18-.18-.25-.3-.1-.17-.29-.5-.4-.46-.04.01-.19.16-.21.19q-.13.13-.2.19c-.17.13-.36.29-.51.37-.17.09-.33.18-.52.24-.11.03-.8.26-.79.3.15.78-.21 2.42-.63 2.99-.44.6-1 1.08-1.57 1.56-.51.43-1.12.86-1.7 1.2l-.14.08-.26.16-.14.08-.28.16c-.11.07-.26.16-.26.16-.04 0-.5.08-.66.26m31.07-22.35c-.2-.31-.74.08-.78.33s.35.56.52.66c.67.42.41-.68.26-.99m26.92-.09c-.24-.5-.92.05-.99.36-.05.22.54.58.73.68.95.54.54-.76.26-1.04m-6.25.36c-.15 0-.31-.17-.46-.34-.11-.12-.34-.33-.51-.33-.29 0-.43.23-.55.42q-.04.07-.04 1.11v.44l-.04.4v.14c0 .08-.02.45-.04.76-.02.33-.13 1.93-.54 1.69l-.02-.16-.04-.16s-.13-.34-.14-.36c0 0-.27-.4-.4-.6-.26-.38-.53-.78-.86-1.1l-.19-.18-.19-.07-.16.04-.24-.06c-.16-.06-.46-.26-.66-.4-.34-.24-.38-1.41.02-1.38.31.02.75.3 1.16.55.24.15.66.65.94.99.14.17.27.33.39.51.11.16.46.69.54.65.03-.01.05-1.46.05-1.73 0-.35.05-.84.16-1.18.13-.39.87-1.63 1.43-1.25.47.32.79.99.4 1.61m-35.21 3.71c.23-.21 1.27-.8 1.95-1.19.32-.18.65-.37.97-.54.16-.09.41-.22.48-.26.2-.1.39-.21.59-.32.6-.35 1.43-.76 2.16-1.12.21-.11.64-.32.65-.32.19-.09.39-.19.57-.28.21-.11.92-.45 1.05-.32.12.12-.17.75-.21.78 0 0-.26.08-.27.09q-.13.03-.27.12c-.16.09-.37.19-.56.27l-.26.14-.16.06-.27.14-.14.07q-.15.08-.32.16c-.79.37-1.6.83-2.4 1.29-.18.1-.36.21-.53.32-.16.11-.34.2-.52.28-.09.04-.4.21-.58.32l-.12.08-.16.08-.2.14c-.39.19-.73.4-1.09.62-.18.11-.45.28-.54.23-.05-.03.02-.72.2-.8m18.51.02c1.38-.96 7.97-4.92 8.3-4.94.17-.01-.14.81-.15.83-.04.09-1.83 1.19-2.13 1.34-.18.09-1.4.84-2.2 1.32l-.28.16-.16.08-.14.08c-.18.11-.36.21-.55.32-.17.1-.36.21-.52.32 0 0 0 0-.38.24l-.18.16c-.38.2-.84.45-1.07.6l-.24.16-.23.19c-.34.14-.23-.69-.06-.87m-42.25-1.54c-.18-.16-.04-.9.04-1.1.13-.33 1.41.66 1.53.76.21.17.49.42.65.64l.13.19.15.24.08.14c.06.12.1.2.12.22.14.12.14-1.08.14-1.18 0-.42.05-.79.16-1.17.05-.16.11-.32.16-.48.04-.1.1-.26.14-.34l.24-.3c.11-.33.86.41.89.44.2.26.2 1.04-.06 1.1-.04 0-.19-.14-.23-.17-.09-.08-.32-.29-.32-.29-.33-.22-.64-.07-.66.36v1.22c.02.37.04.77.04.82-.02.47-.11 1.48-.21 1.67-.06.12-.38-.52-.42-.59-.11-.21-.23-.43-.36-.62-.12-.17-.45-.54-.75-.86-.09-.07-.2-.16-.21-.18-.04-.07-.33-.08-.42-.09q-.14 0-.24-.04c-.2-.07-.56-.21-.6-.4m37.02-1.51c-.05-.48.13-1.03.34-1.42.13-.25.48-.63.81-.68.36-.06.51.29.59.58.08.31.07.5.04.84-.01.15-.12 1.27.04 1.24.07-.01.67.6.8.74.14.14 0 .82-.15.82-.02 0-.45-.31-.55-.39-.21-.15-.47-.34-.69-.37-.08-.01-.35.31-.42.4-.12.14-.37.45-.38.46-.29.29-.72.72-.9.87-.46.38-1.87 1.25-2.45 1.34-.32.05.05-.4.2-.49.12-.06.46-.33.66-.5l.41-.31q.09-.06.24-.18c.06-.05.22-.15.33-.22.12-.08.37-.25.37-.25.41-.31.81-.67 1.15-1.05.28-.31.36-.41.01-.72-.15-.13-.4-.49-.45-.71m21.19 6.04c-.06-.04 1.44-1.04 1.59-1.14.44-.29 1.21-.79 1.8-1.16.56-.36 1.38-.89 1.74-1.22q.17-.14.23-.18l.24-.2.7-.62.13-.08.18-.22c.13-.06-.51-.58-.56-.61-.18-.14-.38-.34-.44-.6-.16-.67.38-2.1.99-2.23.24-.05.41 0 .6.15.4.32.43 1.65.43 2.24 0 .38.13.48.37.66.26.2.45.64.23 1.04-.04.07-.5-.22-.56-.25-.16-.1-.43-.27-.57-.2-.15.07-.61.68-.62.69-.05.09-.21.23-.3.31l-.53.46-.16.16s-.17.12-.21.14l-.23.19c-.14.11-.56.42-.6.45l-.14.08-.23.06c-1.12.82-2.5 1.74-4.08 2.09m-42.66-.14c-.14-.36-.13-1.32.06-1.62.32-.5.79-1.04 1.61-1.51.17-.11.35-.22.52-.32l.14-.08.14-.08.28-.16q.14-.08.26-.16t.26-.14c.17-.08.7-.4 1.01-.58.32-.2.71-.44 1.11-.64l.14-.08.28-.16c.2-.11.56-.32.56-.32.33-.17.97-.51 1.07-.56l.24-.12q.28-.15.3-.16c.08-.04.09-.04.28-.16l.14-.08.16-.08c.15-.08.92-.49.99-.36.08.17-.14.79-.22.8-.04 0-.97.53-1.32.74l-.13.07q-.18.11-.3.16s-.41.19-.49.24q-.06.04-.24.12c-.32.14-.83.45-1.21.68-.39.24-.77.47-1.17.68-1.27.67-3.77 2.05-4.24 2.93-.05.1.33.44.47.57.31.27.35.53.29 1-.01.09-.53-.15-.55-.16-.07-.03-.28-.24-.48-.44m20.92.28c0-.28.48-1.21.65-1.31.16-.09.54.16.77.3.28.18.67.43.81.46.13.03.34-.43.4-.56.08-.17.26-.53.42-.58.33-.1 1.37.82 1.51 1.1.16.32-.06.71-.25.92-.07.08-.36.43-.35.51 0 .14-.62-.38-.62-.38l-.14-.07-.2-.16s-.23-.18-.3-.25c-.27-.22-.39 0-.55.28-.07.13-.16.29-.22.42-.09.18-.16.34-.24.41-.26.26-1.61-1-1.68-1.1m-33.26-.05c.75-.39 2.2-1.27 3.24-1.91 1.12-.68 2.33-1.37 3.53-1.93.62-.29 1.21-.59 1.79-.92.5-.28 1.14-.58 1.7-.84l.2-.08.16-.08.32-.14.24-.12c.17-.08.3-.14.46-.22s.33-.16.51-.24c.26-.12.93-.44.93-.44.29-.16.62-.31.93-.42.6-.23-.02 1.07-.2 1.2-.13.1-1.43.68-2.02.94-.65.29-1.52.68-2.1 1.02l-.26.1c-.1.05-.51.26-.51.26q-.23.11-.28.14-.1.06-.3.16-.11.05-.3.16l-.14.08-.22.14-.14.06-.16.08q-.22.1-.3.16c-.09.06-.23.13-.32.18-.17.08-.48.24-.48.24-1.29.7-2.54 1.4-3.79 2.11l-.16.08c-.19.1-.22.11-.3.16l-.12.08-.14.08q-.2.11-.28.16c-.3.2-.6.38-.93.56-.3.17-.74.42-.78.38-.12-.13.13-1.04.24-1.19m47.95 1.18c-.05-.14-.44-1.19-.3-1.26l.04-.38.08-.44c.04-.21.1-.41.16-.6s.42-1.25.59-1.21c.04.01-.26.84-.26.84-.12.33-.2.73-.24 1.1-.06.52.3 1.26.64 1.42.27.13.5 0 .6-.25v-.13s.05-.22.05-.22c.03-.13.1-.36.2-.27.26.23-.31 1.5-.42 1.65-.37.5-.81.06-1.13-.26m13.54-.2s-.02-.27-.04-.38c0 0 0-.2 0-.22.03-.42.09-.76.2-1.08.07-.19.6-1.65.69-1.3.03.11-.23.68-.27.75-.18.31-.29.69-.26 1.13.02.33.15.97.42 1.12.21.12.42-.03.53-.18q.07-.1.1-.2c.05-.13.11-.32.19-.29.18.04-.3 1.22-.34 1.33-.08.18-.37.33-.6.31-.35-.04-.54-.65-.63-.98m-54.84.66c-.06-.71.22-1.82.51-2.42.1-.2-.05.53-.07.63-.12.59-.16 1.12-.08 1.57.17.91 1.07 1.54 1.15.2l.13.03.05.31c0 .12-.1.45-.16.62-.09.27-.19.53-.35.71-.13.16-.48.06-.63-.08-.16-.15-.32-.36-.39-.59l-.08-.32-.04-.32c0-.11-.02-.31-.04-.34m45.12 5.63c-.08-.28-.7-.63-.99-.73-.66-.22-1.4.06-1.51.64-.04.19.68.35.9.36.25.01 1.61-.03 1.6-.28m-13.89.78c-.11-.44-1.74-1.38-2.24-1.47-.29-.05-1.38 1.89-1.19 2.31.15.33.23.52.5.62.65.24 2.95-1.01 2.93-1.47m-36.57.95-.2-.16-.14-.07h-.16l-.16.02c-.2-.02-.49-.22-.72-.39-.15-.11-.5-1.62.9-.88.48.26.85.7 1.2 1.12.17.2.33.42.48.65.36.58.36.22.3-.3-.09-.87-.26-2.54.46-2.87.41-.19.93.63.95 1 .01.24-.11.71-.4.41-.15-.16-.43-.44-.66-.39-.12.03-.04 1.11-.03 1.26.04.58.04 1.14-.04 1.65-.04.27-.17 1.07-.19 1.1-.05.04-.23-.31-.27-.38-.18-.33-.45-.73-.77-1.14l-.19-.23q-.1-.12-.2-.2c-.07-.05-.12-.13-.16-.21m32.99 1.95c-.25-.11-.43-.91-.45-1.25-.05-.61.09-1.56.3-2.13.1-.27.21-.54.32-.8.1-.23.31-.71.26-.78l-.13-.08-.39-.31-.21-.17c-.24-.19-.47-.39-.67-.62-.18-.21-.5-.57-.65-.67-.39-.28-.39-.29-.41-.77 0-.15-.05-1.32.33-1.14.08.06.16.13.21.15 0 0 .42.15.61.22.33.12.73.26 1.01.38.19.08.53.23.46.46-.01.03-.24.08-.26.09-.06.01-.38.08-.38.15 0 .11.33.35.56.51 0 0 .25.17.25.17.56.57.83.19 1.14-.27.42-.63.89-1.28 1.38-1.86.15-.18.65-.77.73-.72.02.01-.28 1.28-.32 1.39-.14.43-.89 1.47-1.31 2.05-.1.14.62.64.79.76.27.19.61.43.75.74.19.45.39.89.42 1.21.23 1.97-1.74 3.29-3.29 3.57-.32.06-.9-.03-1.06-.29m-14.88.09c.21-.05 1.5.87 1.6 1.06.19.38-.6 1.31-.91 1.35-.11.01-1.11-.72-1.36-.91-.37-.28.34-1.38.68-1.5m6.83 3.55c-.32-.6.06-1.5.39-2.08.01-.02.17-.24.24-.34l.18-.21.16-.23c.03-.11-.12-.23-.23-.32-.15-.12-.25-.2-.33-.37-.17-.36 1.21-1.95 1.55-1.73.29.19.44.28.47.38.04.15-.18.51-.29.7h-.26s-.21-.21-.21-.21c-.15-.06-.52 0-.54.19-.02.28.52.56.83.5.16-.03.31-.13.45-.22.18-.12.4-.27.52-.29.3-.05-.27.76-.34.81-.15.11-.33.24-.46.32-.14.09-.5.33-.5.33-.42.33-1.49 1.18-1.32 1.79.06.21.63.31.89.34 1.26.14 2.63-.89 3.31-1.47.2-.17-.46.84-.54.94-.21.27-.56.62-.87.79-.87.46-2.16 1.03-3.1.35m34.78-2.3c.36-.06.62-.29.82-.53.07-.09.5-.63.52-.61l-.02.16v.2c.02.09.09.18.18.2.29.08.62.17.76.07.08-.05.11-.17.15-.35l.04-.2.06-.24c.04-.12.19-.51.29-.46.51.27-.62 2.03-.8 2.14-.26.16-.35.17-.67.06-.3-.11-.54-.19-.64-.13-.39.25-.84.53-1.02.57-.3.07-.57-.09-.81-.22-.27-.15-.34-.19-.69-.14-.48.08-1.58.85-2.28 1.35-.72.51-1.65 1.13-2.76 1.2-.24.01.32-.3.32-.3.14-.05.28-.14.4-.22s.25-.16.38-.24c.17-.1.34-.21.51-.32.22-.14 1-.69 1.49-1.04.46-.32 1.5-1.03 1.53-1.04.23-.11.63-.31.91-.3.22 0 .42.12.58.22.21.13.39.24.73.18m-47.94.52c.25-.08.48-.13.77-.04.26.08.49.16.73.06.21-.09.33-.24.46-.42.04-.06.07-.12.15-.27.07-.13.17-.34.27-.34.01 0 .03.29.03.32 0 .15.1.24.22.3.29.14.47-.2.51-.4.02-.13.12-.66.3-.6.09.03-.06.89-.1 1-.07.2-.18.53-.22.62-.08.18-.45.32-.67.32-.47 0-.56.04-.88.27-.25.18-.47.19-.75.09-.32-.11-.65-.2-.99-.02-.31.16-.72.43-1.09.68q-.07.05-.23.19l-.21.17-.23.19s-.31.2-.38.25c-.67.45-1.74 1.11-2.62 1.22-.17.02 2.06-1.56 2.44-1.82.15-.11.42-.32.64-.49l.2-.16c.08-.08.21-.2.28-.25.21-.17.43-.32.65-.48.12-.08.64-.45.73-.42m30.1 3.23c-.52-.3-.88-.81-1.21-1.3-.19-.28-.29-.72-.34-1.1-.03-.24-.08-.61-.08-.72.03-.6.03-.66.08-1.17 0-.03.05-.53.02-.52-.51.2-.88.47-1.3.77-.42.31-.87.6-1.32.87-.93.57-1.9 1.11-2.91 1.61-1.04.51-2.28.87-3.55 1.1l-.24.04-.2.04-.2.04-.16.04-.2.04-.28.06c-.2.04-.32.06-.52.1 0 0 0 0-.28.08l-.28.08-.12.04c-.42.1-.84.21-1.29.22-.09 0 .34-.39.36-.4q.07-.04.28-.12l.2-.08q.17-.04.2-.06c.19-.14 1.01-.44 1.45-.6.49-.18 2.18-.97 3.33-1.51 1.95-.91 9.13-5.2 9.48-6.66.05-.2-.43-1.03-.55-1.2-.25-.38-.48-.79-.68-1.18-.42-.78-1.19-2.28-1.31-2.99-.03-.2.3-1.47.34-1.43.11.11.23.23.28.3.07.1.17.21.26.3 0 0 .2.18.3.28q.13.12.24.2s.19.16.2.17l.31.29c.12.13.25.27.36.4.08.1.19.27.09.39-.02.02-.18-.02-.23-.03-.23-.06-.29-.05-.58-.03-.2.01.32.79.34.81 0 0 .17.31.24.44l.24.38c.3.48.65 1.08.75 1.71.08.6.15 1.62-.12 2.29-.11.27-.6.9-1.02 1.45-.08.11-.38.36-.59.54-.27.23-.58.5-.67.65-.17.31-.2.98-.22 1.61-.02.49.37 1.12.59 1.48.25.4.7.7 1.16.89 1.15.49 2.42.13 3.47-.26.62-.23 1.51-.86 2.2-1.35.35-.25.8-.63 1.3-1.06l.42-.35c.15-.17.17-.2.18-.2.62-.42 1.23-1.17 1.64-1.81.55-.87-.58-.64-1.05-.54-.72.15-1.59.31-2.14.2-1.46-.3-1.97-1.47-1.39-2.91.43-1.08 1.33-2.06 2.64-1.61.5.18.94.51 1.28.85l.29.35.17.23c.08.1.18.22.23.31.08.12.16.26.24.28.35.08 1.87-.99 2.13-1.23.27-.25.67-.6 1-.75.29-.13.46-.05.48.28t-.04.64c-.01.21.02.42.12.56.3.41.47.62.91.9 1.06.69 2.55-.02 3.2-.65.3-.3.52-.72.72-1.11.22-.44.6-1.19.93-1.22.12-.01-.17.73-.18.76-.12.28-.27.64-.18.8.26.47 1.17.9 1.84.94.38.03 1.13-.01.97-.5-.05-.15-.11-.29-.18-.42l-.19-.23c-.08-.09-.12-.18-.15-.29-.05-.2.35-1.4.43-1.44.3-.14.78 1.59.82 1.94.12 1.05-.23 1.69-.67 2.32-.48.67-1.9.25-2.47 0-.14-.06-.34-.27-.49-.42l-.13-.08-.17-.21c-.1-.15-.21-.31-.26-.33-.02 0-.45.64-.51.73-.16.24-.36.42-.58.6-.27.21-1.16.71-1.58.65l-.3.04h-.28c-.21-.02-.43-.06-.61-.12-.32-.11-.56-.25-.77-.45-.56-.51-.66-.86-.85-1.77-.04-.17-1.16.73-1.26.81q-.06.05-.21.15c-.13.08-.25.19-.38.29-.22.18-.53.44-.55.56l-.04.4c-.02.31-.07.92-.08.96-.03.22-.08.41-.18.62-.39.82-1.04 1.73-1.73 2.28-.24.19-.51.42-.71.65s-.44.44-.67.63c-.55.43-1.08.85-1.67 1.24-.16.11-.37.25-.51.32l-.24.14-.16.06-.16.08c-.18.1-.4.19-.61.26-.08.03-.2.07-.26.08q-.2.05-.26.08c-.78.42-2.85.27-3.39-.3" fill="#1d1d1b" fill-rule="evenodd"/></svg>