<svg viewBox="0 0 94.22 29.74" xmlns="http://www.w3.org/2000/svg"><path d="m26.06 7.69c-.08.2.38.46.65.6l.26.16s.28.16.42.24c.13.08.29.16.36.2 0 0 .28.16.42.24.47.26.94.54 1.36.85.11.08.24.17.33.23.01 0 .49.38.75.58 0 .04.06.34.1.32l.05-.22c.01-.1 1.23.78 1.33.86.18.13.4.29.65.47 0 0 .25.17.25.17.05.04.21.17.3.25.76.61 1.67 1.34 2.38 1.85.36.26 1.83 1.72 2.96 2.84.5.49.97 1.09 1.38 1.66.2.28.47.66.74.93l.08.12.2.2c.11.09.4.36.4.36.52.75 2.47.98 3.5.63.22-.07.99-.59 1.65-1.02.07-.05.46-.61.64-.88.25-.37.64-.96.73-.99.11-.03.14.5.14.58.02.27.02.39.08.64.09.41.26.69.46.98.32.44 1.37.72 2.1.6 1.86-.31 1.88-.81 1.64-2.75-.2-1.59-.47-3.71-.67-5.06l-.02-.2-.04-.28-.04-.32q-.02-.12-.08-.44c-.03-.16-.05-.32-.08-.56v-.14l-.04-.22-.04-.4-.04-.32q-.03-.19-.08-.72c-.03-.25-.06-.6-.08-.72l-.08-.64q-.04-.36-.06-.48l-.06-.44-.04-.44-.08-.78c-.09-.66-.29-1.83-.41-2.55-.04-.24.21-.93.38-1.4.13-.37.3 0 .4.24.11.25.23.53.36.76.36.66 1.11 2.12 1.19 2.77.05.41-.48-.1-.53-.17-.12-.15-.38-.45-.49-.39-.02 0 .34 2.95.36 3.13l.02.28.04.16.04.44c.01.15.06.45.08.6.04.27.08.55.12.84l.04.28.04.2.04.24c.08.79.28 2.44.44 3.7.17 1.34.36 2.87.33 3.73-.06 1.43-.1 2.44-1.17 3.21-.44.32-1.01.54-1.67.62-.61.07-1.18-.07-1.6-.26-.79-.36-1.07-1.05-1.38-1.9-.01-.04-.65.75-.71.83-.25.32-.52.59-.85.83-.84.6-2.06.94-3.33.62-.68-.17-1.18-.6-1.65-.99-.12-.1-.96-1.09-1.51-1.74l-.16-.2-.18-.22-.2-.24-.46-.58q-.08-.09-.16-.2s-.24-.32-.24-.32c-.24-.24-.64-.62-.75-.74-.29-.31-.59-.62-.93-.88-.05-.04-.14-.12-.18-.17t-.18-.15l-.45-.39c-.3-.24-.86-.67-.97-.67-.05 0 .1.27.12.31l.08.16.14.24c.13.29.24.59.32.93.12.49.22 2.07.02 2.41-.15.26-.66.64-1 .89-.17.13-.38.28-.57.37-.31.16-.7.35-.71.46-.08 1.38-.35 2.01-.95 2.83-.22.3-.47.61-.73.85-.25.23-.72.67-.77.72-.8.99-3.69 2.61-5.24 2.68-.56.02-1.4.06-1.86-.14-.47-.2-.99-.43-1.25-.84-.3-.47-.61-.96-.79-1.49-.24-.72-.28-1.73-.28-2.43 0-.53.1-1.2.24-1.75l.06-.2.06-.2.08-.28c.07-.24.13-.5.16-.74.02-.16-.7.15-.76.18-.26.11-.53.23-.83.3l-.28.09c-.09.04-.35.14-.36.15l-.24.04-.16.04-.24.04c-.28.05-.32.05-.46.08-.53.1-1.51.16-2.18.12-.13 0-.68-.1-.83-.12-.32-.05-.77-.13-.83.14l-.04.68c-.02.29-.07.6-.12.88-.05.33-.14.6-.26.86-.07.16-.31.45-.52.68l-.09.13q-.15.14-.46.51l-.32.27-.13.09c-.09.07-.28.24-.3.26-.62.91-5.73 3.29-7.13 3.52-.59.1-4.88.3-5.12.22-.23-.08.44-.3.44-.3.21-.07.44-.14.65-.2 0 0 .62-.12.85-.16.31-.06.6-.12.89-.2.49-.14 1-.31 1.45-.48.39-.15 1.07-.4 1.33-.44.83-.14 3.74-1.6 4.38-2.07.08-.06.8-.51 1.15-.72.32-.19.71-.47 1.05-.72.53-.38 1.59-1.24 1.76-1.89.13-.51-.31-1.41-.52-1.81-.2-.36-.8-1.61-.81-1.73-.02-.31 0-1.16.21-1.34.04-.03.47.67.54.78.21.35.43.7.61.8.5.3 1.1.49 1.78.62 2.07.41 5.13-.34 6.51-1.48.17-.14-.3-.84-.42-1.01q-.07-.1-.33-.41c-.12-.15-.29-.35-.33-.5-.08-.25-.05-1.3.2-1.42.07-.04.47.39.6.53.4.44.69.97.86 1.61.11.44.03 1.61-.12 2.13-.06.2-.13.34-.22.5-.1.15-.14.22-.2.42-.2.59-.38 1.19-.55 1.85-.11.46-.17 1.9 0 2.41.21.61.38 1.14.64 1.52.26.4.79.67 1.28.83.59.19 1.21.17 1.82.08.71-.1 1.56-.48 2.34-.82 1.02-.45 1.96-1.24 2.76-1.94.4-.35.86-.76 1.16-1.13.09-.11.48-.61.5-.61.04 0 .05.26.05.31l-.04.13c-.03.05-.07.11 0 .15.15-.3.2-1.02-.05-1.38-.04-.05-.57-.07-.57-.07-.07.03-.46.23-.59.11l.04-.15-.23.14c-.11.16-.46.18-.79.2-.3.02-.93-.03-1.23-.18-.34-.17-.63-.34-.81-.66-.61-1.14.02-3.31 1.29-3.65.8-.22 1.68.33 2.1.82.21.25.43.52.6.76.16.22.51.72.62.75.51.13 2.13-.98 2.1-1.27-.11-1.12-3.74-4.64-4.62-5.34-.11-.08-.21-.16-.32-.25-.04-.03-.28-.25-.4-.37l-.32-.23-.32-.24q-.08-.05-.33-.25s-.04-.03-.39-.31l-.13-.09c-.2-.16-.4-.32-.61-.47-.14-.1-.46-.35-.68-.53-.28-.23-1.08-.92-1.12-.99-.44-.88.27-2.89.87-3.13l.02.2c.41-.96 5.39-2.92 6.64-3.33.26-.09.51-.18.77-.28.24-.09.53-.19.81-.28l.16-.06.12-.04.36-.12.69-.24 1.17-.4c.44-.14 1.1-.36 1.37-.44 1.98-.56 5.24-1.49 6.42-.7.21.14.33.5.38.8.22 1.29-3.15 5.73-3.87 6.14-.64.36 1.22-2.29 1.28-2.36.29-.37.61-.74.93-1.08.27-.29.68-.73.74-1.09.03-.19-.02-.76-.24-.84-.92-.35-1.69-.37-2.93-.06-.23.06-.45.11-.69.16l-.32.08-.12.04-.16.04c-.2.05-.39.1-.57.16q-.08.03-.32.08s-.32.08-.32.08c-2.31.58-4.5 1.38-6.58 2.27-.25.1-.71.3-.75.32-.1.05-.22.1-.34.14-.2.07-.24.09-.4.16l-.12.04-.16.06c-.14.06-.28.13-.41.2-.11.06-.25.13-.36.18l-.16.06-.32.12c-.57.25-1.21.53-1.69.8-.27.16-.57.32-.81.48m33.36.88c.17-.12.4-.3.48-.36.12-.08.27-.19.34-.24.41-.27 2.28-1.58 2.09-2.04-.37-.52-.68-.94-.7-1.05-.14-.69.7-1.88 1.25-1.95.41-.05.53.61.57.98v.16q-.08.53-.08.6c0 .1-.05.82-.03.83 0 0 .37.3.52.42.13.1.37.31.4.48.04.2-.02.43-.09.7-.01.06-.5-.29-.56-.34-.21-.15-.54-.39-.75-.42-.07-.01-.47.47-.56.58-.17.2-.33.39-.51.58-.34.36-.82.8-1.27 1.03-.38.2-.75.4-1.11.6-.37.21-1.15.62-1.55.64-.39.02.46-.52.46-.52.28-.24 1.09-.68 1.09-.68m3.41-4.63c-.57-.3-.97.49-.34 1.02.24.21.54.37.57-.16.01-.2-.05-.79-.22-.86m26.89.09c-.37-.24-1.03-.08-1.05.43 0 .23.65.62.88.75.83.48.33-1 .17-1.18m-67.64.41c.02-.35.38-1.07.63-1.19.79-.37 1.77-.51 2.81-.19.53.16-.94 1.69-1.16 1.78-.52.21-1.24.51-1.34.49-.03 0 .69-.58.77-.65l.21-.17.13-.08s.17-.14.18-.17c.32-.68-2.1.11-2.23.17m56.18-.11c.35-.5 1.8.96 1.94 1.11.19.21.39.43.56.67.09.13.32.46.32.46.12.2.26.44.32.46.07.02.07-.38.07-.38 0-.62 0-1.01.04-1.49.03-.34.07-.93.16-1.08.32-.53.69-1.14.91-1.26.59-.32 1.02.48 1.11.96.02.11-.2.67-.34.58q-.1-.06-.19-.18s-.13-.17-.18-.21c-.18-.15-.31-.25-.46-.27-.26-.04-.48.25-.54.46-.08.24-.11.55-.1.78.03.53.04.67 0 1.22-.05.71-.12 1.73-.24 2.17-.03.1-.14.48-.29.31l-.11-.35c-.04-.12-.06-.18-.1-.26-.1-.21-.37-.58-.56-.84-.37-.51-.8-1.1-1.33-1.12-.93-.04-1.2-.88-.96-1.74m-11.42 3.73c.23-.3 2.98-1.88 4.27-2.62l2.34-1.33c.33-.19.67-.39.99-.6.55-.37 1.2-.35.46.51-.08.1-1.5.93-2.19 1.33-.35.2-.9.52-.95.56-.02.02-.85.51-1.15.68-.79.45-1.58.93-2.36 1.4l-.36.22c-.1.05-.43.25-.65.38 0 0 0 0-.2.14-.04.03-.24.16-.26.16-.14-.05-.08-.7.07-.85m-55.12-1.87c.05-.14-.05-.29-.17-.38-.18-.12-.36-.25-.42-.33-.21-.3-.08-.93.11-1.2.27-.39 1.63.95 1.72 1.07.21.26.41.52.59.81.12.2.51.83.56.84.04.01-.01-.88-.01-.88t.04-.58c.01-.16.06-.45.12-.64.12-.35.31-.92.55-1.04.55-.29 1.23.54 1.31 1.04.02.14-.19.44-.32.46-.06 0-.27-.17-.38-.26-.14-.11-.27-.22-.42-.32-.56-.37-.45 1.2-.44 1.36.03.48.04 1.01-.04 1.69-.02.2-.21 1.04-.4.94l-.13-.38-.12-.24-.06-.16c-.13-.29-.29-.56-.44-.82-.18-.29-.78-1.17-1.09-1.16-.11 0-.24.4-.3.58-.08.25-.18.47-.28.68-.17.33-.4.66-.64.99-.54.77-1.67 1.83-2.63 2.07-.39.1.77-.96.8-.98.36-.28.71-.6 1-.96.67-.83 1.34-1.65 1.5-2.22m22.76 3.53c-.2-.98-.08-2.36.39-3.2.13-.23.02.72-.03.88-.08.28-.08.77-.08 1.16 0 .35.25.95.5 1.06.43.19.59-.29.67-.65 0 0 .21-.32.18.13 0 .08-.07.33-.1.42-.09.27-.19.53-.34.74-.53.73-1 0-1.19-.54m54.79-3.32c.05-.17-.35-.46-.56-.62-.15-.11-.39-.39-.44-.6-.18-.77.41-1.99.99-2.23.24-.1.59.07.64.24.22.69.35 1.23.35 2.03 0 .48.08.54.41.82.23.19.42.63.19 1-.03.05-.46-.23-.51-.27-.1-.07-.42-.26-.51-.25-.1.01-.21.16-.32.3-.1.13-.41.44-1.04 1.01-.45.41-.92.81-1.44 1.15-.85.56-3.59 2.26-4.35 2.11-.15-.03.73-.57.76-.58.14-.08.27-.16.42-.24.19-.1.37-.21.55-.33.58-.37 1.16-.74 1.73-1.12.07-.05.24-.16.36-.24.16-.11.33-.22.48-.32l.36-.24.21-.17.22-.03c.07-.11 1.33-1.38 1.5-1.42m-28.2 4.88c-.18-.25.5-1.5.83-1.4.08.02.5.31.64.41.16.12.6.44.74.39.06-.02.3-.44.4-.62.11-.19.34-.6.52-.56.12.02.58.38.68.47.08.08.69.64.69.64.23 0-.24.88-.24.88-.12.17-.4.55-.54.55-.04 0-.47-.36-.64-.5s-.68-.56-.81-.46c0 0-.23.44-.31.6-.11.23-.28.55-.34.59-.26.18-1.52-.77-1.62-.98m14.55 1.04c-.09-.49-.22-1.15-.22-1.43 0-.61.39-1.59.67-2.27.1-.25-.07.52-.12.66-.15.41-.24.89-.22 1.42.02.51.49 1.45 1.04 1.18.1-.05.29-.71.31-.9l.12.06s.02.21.02.26c-.02.21-.06.4-.12.6 0 .03-.27.58-.41.86-.24.49-.97-.22-1.06-.45m13.62.28c-.21-.53-.1-1.29 0-1.85.05-.27.61-1.59.72-1.48.07.06-.23.66-.26.71-.15.26-.31.74-.26 1.08.06.43.12.88.39 1.16.21.22.48 0 .6-.15q.06-.08.1-.2c.02-.07.09-.27.14-.28.15-.03-.04.69-.08.78-.09.2-.23.53-.31.61-.47.52-.84.06-1.04-.39m-44.71.28c-.15-.56-.1-1.22 0-1.76.1-.45.19.47.19.47.02.28.04.69.23.82.2.13.38.23.67.11.2-.09.26-.16.43-.4.06-.13.09-.19.07-.33l-.07-.19-.08-.42c0-.14.08-.81.25-.72.12.07.14.35.15.53.02.35.05.75.24.9.26.21.36.29.78.28.04 0-.15-.85-.17-.94-.02-.11-.06-1.07.19-.97.14.05.45 1.65.45 1.72 0 .32-.14.91-.38.99-.19.07-.42.15-.61.09-.15-.05-.17-.06-.28-.14s-.27-.19-.46-.07l-.16.24c-.11.15-.28.28-.47.35-.38.14-1.03-.15-.99-.56m-6.77.35c-.31-.2.02-1.26.17-1.57.24-.47.74-.77 1.19-1.02.89-.51 2.23-1.08 3.37-1.57.44-.19.97-.41 1.33-.54.56-.2 1.11-.41 1.65-.62.27-.11.8-.31.89-.34.32-.1.59-.2.89-.32.33-.13 1.66-.66 1.77-.52.12.15-.18.58-.32.64-.82.36-2 .8-3.03 1.18-1.06.4-2.54.95-3.13 1.24 0 0-.55.24-.75.32-.23.1-.57.24-.73.32 0 0-.6.27-.81.36-.33.15-.66.31-.97.48-.45.26-.87.51-1.22.86-.23.23.09.48.24.6.27.21.55.44.6.71.15.91-1.11-.16-1.16-.22m-18.93-.95c-.02-.65.37-4.36.92-4.39.14 0-.11 1.18-.16 1.38-.14.62-.31 1.36-.29 1.97.03.71.46 1.6 1.14 1.52.04 0 .17-.33.19-.39.04-.18.08-.36.11-.4.38-.49.13 1.13.09 1.24-.14.42-.28.83-.67.9-.73.14-1.18-1.23-1.35-1.83m-5.63 2.87c-.3-.78-.3-1.6-.02-2.59.09-.3.43-1.52.64-1.46.06.02-.2.78-.23.9-.19.56-.26 1.2-.24 1.89 0 .31.28.78.52.88.26.11.49.07.6-.17 0 0 .08-.33.09-.35.02-.08.07-.28.18-.24.1.04-.06.73-.1.84-.08.26-.19.48-.34.66-.4.49-.85-.06-1.09-.36m11.88.86c-.11-.42 0-3.39.54-3.41.02 0-.06.44-.06.44l-.06.24q-.05.17-.1.44c-.1.51-.17.81-.08 1.24.05.28.31.88.57.92.29.05.4 0 .48-.24.05-.13.17-.49.24-.46.27.13-.16 1.69-.72 1.68-.31 0-.81-.57-.81-.86m19.21.32c-.07-.25.49-1.14.66-1.25.24-.15.68.17.89.32.08.06.76.55.93.4l.2-.42.17-.21.08-.13.19-.17c0-.14.4.16.42.17t.22.15l.2.16c.24.19.64.51.7.63.14.31-.78 1.29-.97 1.24-.08-.02-.53-.35-.7-.49-.18-.15-.51-.41-.71-.35-.11.04-.34.4-.44.56-.16.27-.32.51-.75.2l-.13-.09s-.23-.17-.32-.24c-.14-.1-.63-.46-.63-.51m35.17 2.09c-.07-.23-.8-.64-1.1-.74-.57-.19-1.36.19-1.43.64-.05.34 1.11.44 1.27.44s1.38-.08 1.26-.34m-48.98 1.76c-.21-.63-1.6-1.26-2.25-.61-.48.48.13.62.58.72.26.06 1.46.13 1.67-.11m35.15-.99c-.12-.5-1.73-1.36-2.26-1.51-.2-.05-.98 1.36-1.07 1.59-.27.72.11 1.75.97 1.39.69-.29 2.28-.97 2.36-1.46m-3.6 2.82c-.24-.17-.39-.77-.44-1.12-.09-.77.15-1.75.36-2.35.01-.04.17-.39.26-.6.14-.32.3-.69.3-.81l-.63-.48c-.1-.08-.33-.27-.34-.28-.11-.1-.21-.18-.32-.28-.12-.1-1.17-1.2-1.18-1.26-.06-.3-.08-1.13.07-1.49.02-.04.36.14.47.2l.15.05.16.06.45.16c.4.15 1.19.44 1.31.6.1.13-.11.2-.18.22-.18.05-.46.13-.47.2-.03.16.96.77 1.14.87.45.26.85-.42 1.07-.78l.19-.23c.09-.11.17-.24.25-.37q.04-.07.18-.23c.08-.11.21-.26.24-.3.13-.18.29-.37.43-.54.07-.08.35-.49.37-.6l.17.03c.05.05-.01.27-.03.33-.04.13-.08.28-.12.4-.16.47-.34 1.02-.42 1.14-.19.28-.49.73-.58.84-.15.18-.51.7-.47.91 0 .02.25.19.4.3l.36.22c.31.22.54.49.78.78.46.57.55 2.13.07 2.88-.37.57-3.42 2.91-3.98 1.54m-55.42.69-.18-.34-.08-.24s-.12-.66-.16-.96c-.1-.7.15-1.89.32-2.69.05-.24.36-1.6.48-1.54.04.02-.06.67-.07.78l-.04.32-.04.28-.04.2c-.12.73-.23 1.34-.16 2.05.06.64.47 1.39.99 1.55.18.06.34-.23.38-.38.02-.07.05-.2.08-.36 0-.03.08-.38.1-.36.57.38-.02 1.78-.3 2.14-.34.45-1.21.01-1.28-.44m48.13-19.03c.04-.22.36-1.53.56-1.42.03.02 1.08 2.46 1.18 2.74.15.42.44 1.23.48 1.41.14.5-.2.3-.39.09-.12-.13-.42-.47-.57-.42s.29 3.13.36 3.63c.17 1.15.34 2.25.53 3.37.44 2.65.81 5.08.97 7.71.04.66-.08 1.59-.2 2.42-.02.16-.22 1.57-.52 1.2-.05-.06-.05-1.73-.05-2.22 0-.17-.18-1.63-.28-2.45l-.04-.4-.04-.36-.04-.24-.04-.36-.04-.32-.04-.4c-.03-.29-.08-.65-.12-1.01l-.04-.24-.04-.24-.04-.28-.04-.2c-.07-.5-.16-1.13-.2-1.44l-.04-.32-.04-.24-.08-.58v-.18l-.04-.32-.04-.24q-.06-.33-.08-.48l-.04-.32-.04-.28-.04-.24-.04-.28s-.12-.98-.16-1.26l-.04-.18-.04-.28-.04-.36-.04-.4-.08-.64-.04-.28-.04-.28-.04-.24-.04-.56-.04-.4-.04-.56s0-.04-.04-.36l-.04-.44-.04-.32-.04-.16c-.03-.11-.07-.23-.04-.32m-.31 18.17c.07.06-.08.66-.13.86-.11.41-.12.8-.12 1.25 0 .36.18.88.42 1 .24.13.48-.1.63-.44.04-.13.11-.33.18-.36.2-.09-.08.88-.1.96-.08.25-.32.51-.55.74-.18.19-.57-.08-.66-.19-.42-.53-.38-1.65-.21-2.35.05-.19.41-1.49.54-1.46m32.41 1.46c.33-.11.62-.19.93-.04.33.16.62.31.79.34.26.05.62-.26.77-.39.13-.11.2-.18.3-.33.08-.14.3-.48.38-.36l-.04.16c.01.17.06.21.18.3.2.15.53.22.76.11.04-.02.15-.39.23-.67.06-.2.18-.58.38-.6.15-.02-.1.96-.16 1.12-.18.45-.33.84-.73 1.05-.31.16-.62.02-.93-.12-.12-.06-.42.15-.75.36-.25.17-.68.28-1.03.18-.06-.02-.29-.14-.43-.22-.21-.12-.35-.17-.66-.1-.5.12-.9.37-1.27.62l-.58.4q-.14.1-.24.17c-.09.08-.17.12-.31.19l-.23.17c-.11.08-.22.16-.33.23-.23.14-.54.28-.83.4-.21.09-.47.16-.73.22-.27.07-.82.02-.28-.16.35-.12 1.69-1.01 2.62-1.63l.23-.17s.04-.03.21-.15l.23-.17c.1-.08.24-.2.3-.25.19-.14.39-.28.61-.39l.29-.17.13-.05.16-.06zm-40.82 2.89c-.16-.64.24-2 .45-2.57.19-.53.35-.42.18.12-.17.55-.28.98-.26 1.73 0 .21.29.83.51.83.48-.01.53-.15.67-.56.04-.11.17.04.16.12 0 .06-.09.3-.13.42-.11.3-.21.56-.44.74-.63.5-1.08-.26-1.14-.82m-31.29.44c-.19-.17.43-1.51.81-1.43.14.03.46.26.64.39.2.15.44.33.64.27.04-.01.16-.23.17-.25l.08-.16.08-.16c.08-.14.34-.45.48-.44.18 0 1.36 1.04 1.45 1.21.2.37-.51 1.44-.77 1.36-.22-.06-.51-.3-.71-.48-.19-.16-.43-.36-.66-.45-.09-.03-.41.48-.48.6-.17.27-.3.49-.58.38-.15-.06-1.12-.74-1.15-.84m56.62.82-.16-.06c-.12-.05-.25-.15-.38-.24-.13-.1-.29-.22-.47-.38q-.17-.21-.19-.23c-.33-.23-.67-1.08-.75-1.56-.06-.35-.11-.69-.08-1.08 0-.06.13-1.73-.06-1.49 0 0-1.64 1.1-1.83 1.2-.21.11-1.34.8-2.06 1.25-1.51.92-3.16 1.45-5.23 1.87-.43.09-1.94.42-2.95.64-1.65.37.7-.69 1.05-.82l.16-.06.28-.12.16-.06c.22-.09.46-.18.69-.26.42-.16.97-.36 1.25-.5.17-.08.53-.26.53-.26.22-.1.61-.28.64-.3.36-.22.77-.45 1.17-.6.46-.18 1.98-1.1 2.86-1.65l.14-.08.18-.08c.07-.03.28-.16.4-.24.21-.13.54-.33.65-.4l.22-.16s.24-.16.36-.24l.13-.09q.18-.14.21-.15l.12-.08c.18-.13.23-.17.23-.17.58-.36 3.28-2.4 3.18-3-.05-.3-.98-1.91-1.55-2.91-.14-.24-.24-.51-.34-.78-.08-.22-.34-.92-.34-.92-.16-.32-.28-.56-.26-.84.01-.18.19-1.24.31-1.22 0 0 2.06 1.97 2.09 2.3l-.32-.06c-.17-.04-.35-.06-.51-.03-.26.04.68 1.49.71 1.54.33.5.72 1.11.83 1.81.04.29.05 2.16-.12 2.25l-.04.2c-.04.13-.08.2-.14.3-.05.08-.17.23-.27.35l-.1.14-.16.2-.34.38c-.11.11-.41.35-.61.52-.26.21-.55.44-.61.62-.2.53-.22.96-.22 1.59 0 .47.3 1.11.54 1.38.34.38.74.83 1.13.94.47.14.93.28 1.53.27.74-.01 1.47-.25 2.14-.51 1.18-.46 3.37-2.11 4.13-3.02.1-.11.24-.25.36-.36.1-.1.32-.33.47-.51.23-.26.66-.76.71-.88.29-.74-.51-.63-.95-.5-.15.04-.27.06-.42.08-.1.01-.34.04-.42.06-.17.04-1.4.23-1.45.1l-.28-.08c-.29-.07-.3-.08-.36-.1-.19-.08-.41-.17-.51-.35-.38-.7-.54-1.67-.15-2.58.11-.26.24-.46.4-.66q.06-.08.28-.3l.24-.2c.17-.24.77-.38 1.06-.35.76.07 1.27.48 1.72.9.2.18.36.38.52.6.15.21.49.68.64.67.36-.03 1.44-.78 1.76-1.04.41-.32 1.22-.96 1.49-1.01.23-.04.25.3.24.46-.03.41-.06.81.06 1.08.33.75 1.09 1.12 2.08 1.18.59.04 1.09-.24 1.47-.46.47-.27.85-.69 1.09-1.18.26-.51.69-1.38.95-1.55.28-.18.1.42.06.52-.15.4-.31.8-.3.89.13.92 2.08 1.18 2.89.88.09-.03-.37-.88-.38-.9-.06-.08-.15-.19-.17-.31-.04-.25.28-1.47.44-1.47s.43.63.51.82c.04.1.14.38.14.4v.18s.07.14.07.14v.24c.3.77-.17 1.82-.59 2.4-.2.29-.71.36-1.14.39-.4.03-1.14-.19-1.43-.42-.35-.27-.74-.59-.89-.96l-.66.82c-.21.26-.45.51-.75.67-.75.39-1.74.72-2.66.32-.39-.17-.76-.44-.98-.78-.11-.16-.2-.31-.27-.51q-.08-.21-.1-.32c-.02-.11-.14-.7-.18-.62l-.39.22q-.11.07-.23.19c-.05.05-.15.14-.21.18l-.42.32s-.04.03-.21.15l-.23.17c-.46.38-.59.49-.67 1.13-.07.52-.15 1.21-.31 1.55-.79 1.75-3.02 3.42-4.7 4.66-.63.47-1.37.75-2.2 1.02-.89.3-1.98.28-2.95-.08m-40.62.61c.39-.3 5.59-2.55 5.95-2.53.22.01-.04.69-.09.76-.02.02-.54.25-.74.34l-.16.06-.16.06c-.14.06-.31.13-.48.2-.56.24-1.18.49-1.78.72-.4.16-1.13.48-1.7.72l-.28.14-.44.2c-.69.29-.22-.63-.11-.68m-20.84 1.41s.78-.36 1.14-.51c.48-.2.95-.41 1.41-.62.43-.2.84-.4 1.25-.6.72-.36.01.66-.08.76-.1.11-3.78 1.7-4.03 1.72-.16.01 0-.68.31-.74" fill="#1d1d1b" fill-rule="evenodd"/></svg>