<svg viewBox="0 0 93.28 25.88" xmlns="http://www.w3.org/2000/svg"><path d="m62.86 1.07c-.12-.29-.86.01-.76.49.05.25.55.59.77.63.3.05.06-.99 0-1.12m25.81 1.12c.07.36.85.95 1.2.87.32-.08-.21-1.25-.34-1.31-.39-.18-.81.09-.87.44m-59.46 1.62c-.22-.41-.22-1.03-.22-1.51 0-.36.39-1.85.6-1.93.05-.02-.05.47-.08.6-.11.52-.22 1.03-.16 1.48.02.16.08.35.14.48l.15.27.18.17c.03.21.51-.16.54-.24.05-.11.19-.45.24-.41.24.15-.38 1.34-.43 1.39-.33.36-.72-.06-.95-.31m17.31.76c-.26-.31-.31-1.04-.34-1.59-.02-.26.49-2.21.67-2.35.11-.08-.14.9-.14.9-.09.36-.23.94-.12 1.24.22.61.52 1.41.95 1.32.1-.02.15-.22.18-.32.04-.15.12-.43.19-.41.37.07-.21 1.34-.26 1.41-.4.54-.83.33-1.12-.21m28.53-3.98c.13.16-.07.67-.16.83-.19.32-8.34 4.66-8.34 4.66-.2-.03.37-.99.4-1.02l.12-.08.14-.08c.33-.21.67-.41 1.01-.6l.16-.08.14-.08.22-.14s.03-.02.26-.15l.27-.15.24-.14.26-.14.14-.08.18-.08.14-.08.12-.08c.2-.11.39-.21.61-.32.2-.1.4-.21.6-.32q.12-.07.22-.12l.22-.14.16-.06.14-.08.16-.08.14-.08.14-.08.12-.08.3-.16c.21-.11.45-.24.58-.32.22-.14 1.2-.68 1.29-.66m-55.67 3.45c-.02-.47.52-2.57.87-2.49.09.02-.15.46-.16.48-.08.14-.11.32-.14.48l-.04.16q-.03.12-.08.52c-.04.27-.12.91-.12.92.11.43.23.8.52 1.04.15.12.41.06.52-.07l.13-.21c.04-.09.16-.35.22-.32.5.21-.5 1.49-.85 1.55-.71.12-.87-1.64-.87-2.07m58.63-1.51c.01-.2.1-.76.3-.8.55-.11 1.44.78 1.7 1.1.2.24.48.58.6.75.13.19.64.96.7.93.05-.02.05-.92.05-.99v-.34l.06-.3c0-.47.05-.89.18-1.28.13-.38.9-1.53 1.41-1.21.31.2.53.46.61.88.04.25-.1.56-.21.74-.04.06-.39-.29-.42-.33-.16-.16-.39-.38-.6-.35-.52.08-.59 1.69-.63 2.47-.02.41-.17 2.46-.52 2.47-.03 0-.15-.36-.2-.5-.04-.12-.25-.47-.39-.68-.23-.37-.48-.7-.74-1.03-.13-.17-.25-.31-.34-.38q-.11-.09-.33-.09c-.14 0-.27-.04-.4-.1-.38-.19-.77-.45-.83-.94m-15.76.46s-.12-.12-.18-.17l-.16-.2c-.15-.2-.26-.41-.33-.67-.1-.4.4-1.3.59-1.6.11-.17.53-.36.76-.35.32.01.41.49.46.74.02.12.03.39 0 .56-.06.4-.15.96-.09 1.28 0 .02.32.27.41.34.17.14.33.27.43.47.12.22.05.55-.09.8-.02.04-.54-.32-.64-.39-.35-.25-.62-.44-1.05-.02q-.18.21-.28.32t-.2.22c-.11.09-.22.19-.31.29-.11.11-.24.25-.35.31-1.02.64-2.76 1.72-3.63 1.86-.49.08 1.1-.9 1.1-.9.22-.13.42-.27.63-.4l.13-.09q.18-.14.21-.15l.34-.24c.44-.29 1.14-.76 1.3-.89.19-.15 1.1-.88.94-1.12m-54.05 2.51c.39-.51.64-.97.87-1.65.05-.16-.26-.31-.4-.38-.24-.12-.41-.26-.54-.48-.12-.2.06-.97.21-1.06.45-.24 1.76.98 2.01 1.29.23.28.8 1.01.8 1.01.04.07.15.24.26.11v-.35s-.04-.84-.04-.84c0-.29-.02-.89.1-1.12.22-.45.39-.78.57-.9.31-.22.8.34.94.51.33.41.26.66.11 1.11-.04.1-.68-.49-.68-.49-.47-.43-.64-.09-.63.56v.17s0 .16 0 .16c.04 1.02.04 1.08.04 1.73 0 .2-.12 1.37-.32 1.34-.02 0-.14-.29-.19-.39-.02-.05-.16-.27-.24-.38-.16-.24-.32-.48-.48-.7-.21-.29-.87-1.13-1.2-1.06 0 0-.12.48-.15.6-.04.15-.08.32-.12.44-.13.38-.3.74-.5 1.04-.42.63-.88 1.01-1.49 1.45-.24.18-1.69 1.05-1.88.9-.04-.04.59-.5.65-.55l.2-.16q.13-.12.24-.2l.36-.32c.39-.31 1.3-1.06 1.5-1.38m81.08-1.4c.05-.13-.1-.24-.2-.31-.14-.1-.38-.27-.44-.34-.36-.41-.46-.62-.29-1.31.16-.65.7-1.84 1.51-1.33.46.3.46 1.79.42 2.27-.02.23.22.51.46.79.23.27.23.55.1.94-.03.1-.46-.22-.5-.25-.17-.13-.41-.28-.64-.22 0 0-2.42 2.1-2.52 2.21-.42.43-4.29 2.39-4.69 2.11-.06-.04.71-.51.77-.55l.14-.08q.17-.11.28-.16c.17-.08.41-.2.52-.28.3-.2.64-.4.97-.56.28-.14.65-.4.97-.62l.26-.14c.17-.11.35-.22.52-.34.29-.19.6-.4.81-.55.28-.2.57-.4.82-.61.1-.08.23-.2.39-.35l.13-.09.18-.25zm-28.36 4.11c-.07-.27.47-1.16.64-1.29.18-.13.55.15.76.31.23.17.52.39.8.47.11.03.36-.43.43-.54.14-.26.32-.57.58-.62.16-.03 1.3 1.05 1.35 1.26.1.44-.4.99-.68 1.3-.06.07-.62-.38-.74-.47s-.66-.52-.66-.55c0-.25-.44.52-.44.52-.17.29-.4.7-.48.72-.32.08-1.27-.84-1.55-1.12m-34.42 1.24c-.14-.26-.09-1.11.04-1.37.2-.39.52-.83.93-1l.5-.32c.09-.05.1-.06.3-.16l.32-.16c.14-.07.39-.19.59-.28l.24-.14.14-.06.14-.08c.8-.43 1.68-.89 2.44-1.24.09-.04.22-.11.3-.16t.24-.12l.14-.08.14-.08.28-.14c.12-.06.39-.2.58-.3.24-.13.48-.26.73-.36.36-.15.85-.37 1.11-.52.27-.15 1.06-.62 1.25-.24.02.03-.1 1.02-.14 1.28-.08.57-.16 1.14-.08 1.65.05.3.34.6.6.86.24.24.52-.1.59-.25.06-.12.26-.56.3-.48.13.24-.21 1.15-.34 1.36-.34.55-1.03.33-1.25-.18-.18-.42-.26-.83-.26-1.35 0-.34 0-.38.04-.76.01-.13.13-1.27.06-1.29-.37-.07-4.63 2.12-5.33 2.53 0 0-.74.41-1.13.62l-.16.06-.24.12c-.25.12-.52.26-.79.4-.37.2-2.29 1.22-1.97 1.63.03.04.18.14.24.17.13.09.23.17.34.29.15.17.37.52.14.77-.21.23-.96-.41-1.04-.61m48.83-.08c-.2-1.14.19-2.81.79-3.47.04-.04-.04.32-.06.38l-.06.16-.08.16s-.09.22-.1.28c-.12.43-.2.8-.2 1.24s.6 1.58 1.04 1.14c.07-.07.12-.26.17-.42.03-.11.14-.48.23-.41.27.17-.33 1.81-.82 1.88-.36.05-.95-.6-.91-.94m13.68.8c-.25-.59.05-1.51.26-2.05.06-.14.68-1.44.63-1.04-.03.22-.13.44-.22.6-.11.2-.26.45-.3.64-.14.61-.01 1.71.52 1.79.18.03.38-.2.45-.34.06-.12.18-.4.23-.31.14.25-.37 1.17-.48 1.36-.42.69-.98-.33-1.08-.66m-53.17.18c-.18-.46.42-1.68.89-1.34.31.22 1.02.77 1.13 1.04.16.4-.47 1.48-.84 1.36-.09-.03-1.15-.98-1.18-1.06m-3.94-2.01s-.14.6-.19.79c-.11.36-.23.92-.2 1.22.05.47.13.82.39 1.1.14.15.39.19.58.09.11-.06.17-.14.2-.28.03-.12.14-.56.18-.54.21.11-.15 1.26-.24 1.45-.07.14-.42.38-.61.32-.77-.26-.87-1.22-.79-2.07.05-.45.13-.86.24-1.24.05-.16.29-1.01.44-.83m9.49 3.36c-.09-.47.48-1.65.99-1.29.35.25 1.03.75 1.11 1 .15.46-.57 1.42-.93 1.24-.12-.06-1.17-.91-1.17-.96m37.7 4.33c.12-.17-.66-.74-.88-.82-.51-.17-1.82.02-1.56.66.17.43 2.04.38 2.44.16m-57.43-.39c-.29-1.05-.06-2.72.37-3.71.19-.45-.05.89-.05.9-.11.55-.16 1.11-.16 1.52 0 .37.32.99.56 1.1.19.09.43 0 .53-.17.04-.06.07-.25.08-.32.03-.16.07-.41.09-.46.09-.23.13.63.11.74-.05.34-.15.61-.3.84s-.44.42-.77.24c-.09-.05-.22-.24-.34-.4l-.06-.16zm43.55.79c.24-.55-1.75-1.58-2.19-1.7-.19-.05-1.09 1.61-1.17 1.87-.1.29 0 .63.19.88.41.51 1.33.09 1.81-.13.04-.02.45-.26.64-.38.13-.08.26-.16.38-.24l.33-.29zm-57.51-5.49c-.08.2-.32 3.05-.26 3.33.28 1.26.47 2.12 1.03 2.49.15.1.4-.27.45-.34t.06-.3c.03-.23.07-.41.13-.62.14-.5.19.93.15 1.18-.04.3-.12.52-.22.76-.11.26-.37.48-.65.54-.89.21-1.36-2.05-1.39-2.83-.02-.46.14-1.73.24-2.55.03-.21.25-1.97.46-1.67m31.88 5.94c.29-.53-.98-2.06-1.43-2.15-.56-.11-1.13.84-1.21 1.28-.05.26.74 1.98.88 2.12.26.26 1.67-1.12 1.76-1.26m11.26 0s-.32-.5-.4-.64c-.11-.18-.32-.47-.49-.7-.31-.43-.64-.85-1-1.23-.73-.79-1.49-1.57-2.25-2.33-1.39-1.38-2.69-2.82-3.98-4.3-.42-.48-2.93-3.9-2.95-4.02-.06-.35 0-.86.06-1.31.01-.1.58.28.6.29l.2.16q.13.11.24.2l.2.16q.13.1.2.16c.19.15.44.35.57.44.33.24 1.7 1.26 1.53 1.49-.03.04-.36-.07-.43-.09-.08-.03-.74-.21-.73-.16.35 1.04 3.86 4.7 4.82 5.54 1.86 1.63 3.73 3.46 4.6 6.06.16.46.19 1.26.16 1.69-.03.42-.29 1.02-.36.28-.06-.56-.34-1.16-.59-1.69m10.61 1.99c-.42-.42-.19-1.79-.08-2.43.1-.57.27-.96.48-1.39.14-.28.4-.8.32-.9-.07-.1-.18-.18-.27-.26l-.13-.07-.2-.16c-.17-.15-.63-.58-.63-.58-.18-.18-.35-.39-.52-.61-.09-.11-.17-.21-.29-.29-.13-.08-.24-.16-.32-.29-.03-.05-.04-1.41.1-1.63.06-.09.21.04.26.08.08.06.16.13.21.15l.2.08.2.08.32.14c.52.22 1.21.51 1.31.64.09.12-.51.29-.61.32-.2.06.45.57.49.61.22.18.65.51.94.47 0 0 .47-.56.65-.78.11-.12.42-.55.63-.82.04-.04.18-.2.27-.3.12-.13.23-.27.34-.43l.6-.77.13.03c.05.07-.01.26-.04.34l-.06.16-.1.32c-.16.48-.32.95-.47 1.16-.17.22-.37.49-.51.66-.19.23-.41.54-.55.79-.09.17.36.47.5.56.22.15.4.31.59.5.35.35.63.74.76 1.31.09.41-.18 1.6-.3 1.93-.25.65-2.08 1.76-2.9 1.87-.35.05-1.31-.05-1.33-.48m-6.19-18.55c.13.02.91 2.02.99 2.23.08.19.19.46.28.68s.19.48.28.72c.05.14.43 1.16.12 1.09-.09-.02-.21-.16-.3-.26q-.17-.2-.36-.42c-.19-.13-.24-.06-.21.19.03.24.05.45.08.68q.05.4.08.64c.16 1.48.35 2.78.57 4.18.16 1.04.38 2.7.56 4.05.11.79.24 1.79.28 2.43.02.36.12 1.78.1 1.79l.02.32-.04.36-.04.22c-.03.31-.06.61-.12.9-.09.41-.26 1.17-.54 1.22-.03 0-.03-1.11-.03-1.28v-.14l-.04-.34-.02-.5-.02-.68c-.01-.25-.1-.95-.16-1.44l-.04-.36-.04-.2c-.04-.27-.08-.64-.12-.96-.05-.4-.1-.78-.16-1.16-.08-.48-.14-.94-.2-1.44l-.08-.6-.04-.24q-.04-.24-.08-.52c-.04-.31-.14-.95-.2-1.41-.29-2.02-.55-4.17-.73-6.18-.03-.35-.06-.63-.12-1.12-.02-.2-.03-.22-.08-.36-.08-.21-.2-.55-.2-.62-.01-.29.43-1.4.6-1.45m-27.08 20.67.12-.04.32-.08.32-.12.24-.08c.15-.05.3-.11.45-.16l.24-.08.16-.06s0 0 .28-.1c.25-.09.5-.2.73-.3.63-.29 2.63-1.23 2.65-1.63 0-.15-.2-.4-.32-.56q-.17-.21-.26-.31l-.2-.16c-.24-.45-1.95-.93-2.52-.89-1.19.07-1.99.59-2.78 1.11-.59.39-3.24 3.41-3.24 4.05 0 .06.82-.02.85-.02.51-.05 1.07-.11 1.49-.2.56-.12 1.01-.23 1.45-.36m-6.98 2.21-.28-.08c-.16-.06-.33-.12-.48-.18-.26-.11-.66-.37-.96-.57-.25-.17-.43-.39-.62-.63-.11-.14-.28-.36-.31-.41q-.07-.12-.16-.3s-.1-.17-.14-.22c-.44-.44-.81-3.02-.9-3.81-.26-2.36-.64-5.76-.79-7.27-.17-1.67-.47-3.54-.81-5.22-.12-.61-.28-1.2-.44-1.77-.18-.61.1-1.23.36-1.69.17-.3.89 2.57.89 2.57.28 1.12.51 3.06.68 4.54.23 1.9.42 3.73.57 5.42.11 1.34.36 3.81.6 4.42l.04.16.04.16.04.16c.05.2.13.38.2.56.12.31.29.62.47.88.36.5.9.94 1.49 1.21.34.16 2.47.94 2.71.33 0 0 .19-.22.27-.3 0 0 .17-.23.26-.35.12-.17.38-.54.56-.81.16-.24.37-.55.49-.72.24-.32.45-.6.54-.93.37-1.41-.63-6.93-1.17-9.88 0 0-.08-.39-.08-.4l-.04-.2-.04-.28-.2-1c-.04-.23-.13-.73-.2-1.12-.07-.36-.14-.79-.2-1.16-.11-.64-.24-1.19-.42-1.73-.1-.3.1-1.75.35-1.6.15.09.91 1.51 1.14 1.96l.08.14.16.28c.1.18.27.51.28.54.04.08.4.93.14.9-.07 0-.27-.17-.34-.23-.14-.12-.37-.34-.48-.3-.1.03.1.94.13 1.08l.24 1.12c.18.81.35 1.59.48 2.37.08.45.16.92.24 1.37l.04.24.04.2.04.28.04.16q.07.24.08.32c.07.49.16 1.13.24 1.45.14.58.2 1.26.24 1.89.03.49.05.97 0 1.49l-.08.76q-.06.49-.06.56c0 .11.6-.49.6-.49.2-.2.4-.39.6-.56.44-.35.87-.69 1.34-1.04.53-.39 1.25-.56 2-.7.81-.15 3.18.63 3.44 1.35.06.06.13.13.17.21.12.25.21.44.26.74.1.57-.03 1.06-.2 1.57-.06.18-.17.46-.26.68-.12.29-.21.53-.19.65.02.11 1.3-.43 1.32-.43.49-.21 1.29-.56 1.51-.74.15-.13.07-.39-.02-.64-.1-.3-.23-.68-.26-.96-.12-.93.02-1.9.32-2.69.28-.74.7-1.41 1.59-1.51.76-.08 1.68 1.6 1.8 2.31.16.96-.14 1.77-.44 2.57-.11.3-.27.58-.47.79-.13.14-.61.66-.6.69.84 1.46 5.6 1.17 6.03-.26.07-.22-.58-1.18-.72-1.36-.11-.14-.23-.29-.34-.4-.16-.15-.37-.36-.43-.55-.07-.22.2-1.27.3-1.41.06-.08.58.4.62.43.17.16.3.36.43.55.31.46.65.97.75 1.63.07.48-.01 1.79-.24 2.25-.36.71-.79 1.08-1.55 1.36-.37.14-.77.24-1.21.34-.33.07-.73.14-1.07.16h-.38c-.16-.02-.38-.04-.38-.04-.38.08-1.5-.5-1.71-.67-.25-.21-.54-.46-.71-.66-.21-.25-.53-.65-.63-.64-.17.03-.36.12-.51.18-.23.11-.75.34-.79.36q-.2.09-.24.1c-.1.03-.14.05-.36.14l-.2.08-.12.06-.2.06-.32.12c-.83.32-1.71.64-2.62.86-2.08.52-4.18 1.04-6.37 1.28-1.42.16-2.97.22-4.48-.16m65.17-2.27c.31-.11.68-.16.96 0 .25.15.52.31.7.33.39.05.74-.26.94-.45.12-.11.19-.22.27-.37.11-.18.18-.31.31-.27v.13q0 .29.11.38c.22.16.4.2.73.16.07-.01.2-.4.28-.64.06-.18.22-.6.36-.63.19-.04-.11 1.09-.17 1.23-.2.46-.29.67-.71.92-.21.13-.58.06-.79-.04-.22-.1-.38-.18-.57-.04-.33.23-.6.43-1.03.5-.19.03-.48-.15-.67-.26-.24-.15-.32-.2-.69-.18-.3.01-1.6.81-2.54 1.39-.26.16-.78.42-1.23.64-.16.08-1.41.43-1.38.25l5.11-3.06zm-86.32 3.83c.02-.08 4.06-1.63 4.32-1.71.68-.21 2.57-1.15 3.85-1.79 1.58-.78 6.35-3.47 6.58-4.78.07-.4-.89-2.05-1.27-2.69-.48-.82-1.1-2-1.31-2.97-.06-.29.03-1.34.27-1.52.07-.05.69.61.83.76.31.33 1.15 1.31 1.19 1.6.03.18-.29.06-.34.04-.1-.04-.43-.17-.44-.08-.03.13.61 1.24.81 1.59.29.51.68 1.18.75 1.71.09.67.2 1.66.04 2.21-.18.61-.44 1.03-.76 1.48-.6.83-1.71 1.59-2.59 2.14-1.47.9-3.43 2.1-4.62 2.59-.96.4-1.96.75-3.15.96-.6.11-2.02.36-2.02.36l-.2.04-.24.04-.4.08-.2.04c-.17.03-1.34.18-1.09-.1m50.79-4.24s1.28-1.71 1.47-1.94c.24-.3.3-1.12.22-1.57l-.04-.52q-.02-.29-.08-.8c-.05-.44-.1-.83-.16-1.24l-.04-.24-.04-.28-.04-.28-.16-.88c-.02-.14-.19-1.26-.24-1.65l-.04-.2-.08-.56q-.04-.29-.08-.52l-.04-.24-.04-.28c-.21-1.33-.39-2.59-.56-3.93l-.04-.3q-.01-.17-.04-.34l-.04-.36-.04-.32-.04-.36-.04-.24c-.08-.59-.18-1.33-.32-1.57-.19-.32.44-2 .64-1.74.36.48 1.72 4.08 1.63 4.7-.03.21-.45-.4-.48-.43-.1-.15-.29-.43-.48-.4-.06.01.42 2.88.42 2.93.07.38.12.84.16 1.18.03.29.16 1.05.24 1.55l.44 2.85c.04.24.09.57.12.76.04.3.08.56.12.84.05.33.1.72.12 1.08v.18q0 .32.04.6c.1.68-.15 2.43-.44 3.15-.48 1.18-.91 2.14-1.79 2.9-.71.62-1.98 1.69-2.75 1.82-.02 0-.28.1-.29.1-.14.05-.32.12-.44.16l-.2.06-.12.04s-.26.08-.36.12l-1.65.4c-.29.09-1.78.48-1.18-.11.02-.02.5-.26.72-.35l.14-.08c.05-.03.28-.11.36-.14.19-.07.42-.16.56-.23.97-.51 2.05-1.09 2.75-1.52.19-.12.74-.55 1.08-.82l.2-.16.45-.36q.21-.19.32-.28s.18-.18.2-.18m19.91 4.16c-.94-.35-1.6-1.35-1.88-2.37-.1-.36-.1-.84-.08-1.12.01-.24.06-.81.08-1 .05-.46.07-.58.06-.6-.03-.13-.62.29-.62.29s-.46.28-.63.39c-.27.16-.27.17-.27.17-.11.08-.23.16-.35.23l-.26.16-.14.08-.12.08-.14.08c-.85.52-1.76 1-2.7 1.4-.96.41-2.02.83-3.27 1.03-.67.1-1.54.25-2.3.4-.61.12-2 .4-2.13.33-.29-.14 2.7-1.2 2.86-1.26 1.1-.39 2.15-.77 3.11-1.3.79-.44 2.08-1.09 3.13-1.61.08-.04.23-.14.38-.24l.32-.16.16-.08q.11-.05.28-.16l.24-.14.14-.06c.21-.11.43-.26.63-.4.21-.16.57-.41.76-.49.69-.3 3.75-2.61 3.46-3.12-.56-.99-1.08-2.02-1.51-3.03-.09-.22-.21-.5-.26-.66-.08-.26-.16-.51-.26-.76-.28-.72-.28-1.34-.01-2.18.03-.08.55.48.57.5.2.21.48.52.6.61.27.21.92.82.94 1.23l-.16-.02-.16-.04-.16-.04c-.34-.06-.48-.06-.34.3 0 0 .35.69.51.96.3.56.86 1.65.91 1.89.23 1.3-.05 2.78-.83 3.57q-.14.14-.18.18l-.2.18-.53.46c-.35.32-.73.67-.83.84-.54.85-.05 2.34.39 3 .28.42.75.73 1.25.93.54.22 1.15.24 1.82.18 2.83-.24 5.89-3.27 7.4-5.04.16-.18-.05-.54-.16-.65-.03-.04-.5.08-.63.11-.08.02-.55.09-.81.12-.51.07-1.08.14-1.39.12-.45-.03-.99-.27-1.29-.49-.6-.44-.57-1.72-.27-2.5.39-.99 1.84-2.43 3.09-1.33l.32.24.13.09c.16.13.33.29.47.45.15.16.27.34.39.53.13.18.38.55.42.59.19.21 1.71-.83 1.86-.93.5-.36 1.35-.98 1.58-1.03.19-.04.22.26.24.46l-.04.44q-.02.45.06.64c.07.16.68.99.74.99q.27.01.34.06.1.07.21.09c.43.08.79.15 1.21.08.52-.09.95-.35 1.41-.63.37-.23.65-.7.86-1.1.26-.48.69-1.28.98-1.36.26-.07-.11.7-.13.76-.11.21-.29.57-.24.74.16.59 1.35 1.01 2.08 1.07.17.01.82-.01.77-.38-.04-.24-.15-.47-.27-.63-.13-.18-.24-.32-.21-.57.03-.26.27-1.22.47-1.26.21-.04.6 1.13.67 1.42.4 1.79-.57 3.82-2.64 2.97-.61-.25-1.07-.6-1.37-1.14-.13-.23-.45.25-.57.42-.07.11-.44.48-.7.74-.19.19-1.55.7-1.88.61h-.18s-.31-.04-.31-.04c-.29-.04-.61-.15-.81-.3-.29-.23-.59-.47-.74-.7-.11-.16-.18-.35-.25-.55-.04-.11-.06-.18-.08-.32 0-.03-.07-.54-.09-.54-.17 0-1.74 1.12-2.35 1.55 0 0-.15.99-.23 1.48-.05.35-.17.58-.3.84-.56 1.11-3.76 4.12-4.94 4.54 0 0-.31.18-.42.24q-.11.06-.45.22l-.14.06c-.2.1-.77.27-1.19.38-.85.24-2.09.26-2.83-.18m-60.67-.2.22-.14.12-.04.24-.12c.27-.12.51-.23.77-.34l.28-.14.42-.18.83-.36c.23-.1 1.12-.51 1.65-.76.32-.15.9-.42 1.01-.48.29-.15.68-.36.97-.42.34-.07.12.75-.08.84-.06.03-.26.11-.4.16q-.07.03-.4.2l-.16.06c-.7.3-1.42.65-2.1.98-.15.08-.25.11-.42.18-.22.09-.46.2-.66.3l-.28.12-.16.06c-.2.09-.71.32-.73.32-.31.16-.67.32-1.01.46-.2.08-.27.12-.3-.1-.01-.09.03-.59.2-.6m22.61.83.58-.24.24-.13c.17-.06.33-.13.57-.24l.16-.06.2-.08q.24-.11.28-.12c.29-.11.58-.22.85-.34.53-.23 1.07-.45 1.61-.64.3-.1.57-.22.85-.34.31-.13.64-.28.82-.25.21.03-.14.72-.18.77 0 0-1.25.53-1.52.63-.63.24-1.31.49-1.86.74-.38.18-3.76 1.7-2.6.31" fill="#1d1d1b" fill-rule="evenodd"/></svg>