<svg viewBox="0 0 91.65 26.37" xmlns="http://www.w3.org/2000/svg"><path d="m38.97 3.16c-.1-.26-.06-.68-.02-.97.06-.43.14-.82.24-1.2.05-.22.26-1 .42-.98.04.04-.01.23-.05.38-.05.17-.09.34-.12.52-.1.57-.19 1.11-.12 1.49.04.2.25.53.42.6.18.07.35-.03.48-.13q.08-.06.15-.32c.04-.13.06-.2.16-.17.23.06-.18 1.1-.24 1.19-.06.11-.49.34-.67.25-.23-.03-.65-.56-.64-.66m16.1 8.25c.12.48.2 1.07.3 1.74l.04.36s.08.63.08.64q.04.3.08.68l.08.72c.03.19.08.55.09.63 0 .27.03.94.07 1.1.08.7-.11 4.36-.69 4.52-.12.03-.12-1.1-.12-1.1 0-.72 0-1.48-.08-2.37-.08-.92-.33-3.07-.48-4.38-.02-.16-.08-.59-.12-.92l-.04-.2s-.05-.39-.08-.6c-.02-.14-.08-.54-.12-.8-.06-.37-.11-.74-.16-1.12-.06-.43-.2-1.69-.29-2.59.14-.11-.24-1.73-.24-1.74-.11-.87-.26-2.3-.28-2.62-.02-.28-.08-.79-.16-1.12-.07-.27-.17-.66-.12-.72l.08-.24.04-.16.06-.2c.06-.18.24-.56.38-.66.12-.08.98 1.94 1.06 2.14q.04.11.12.28l.14.32.08.2.06.12.06.16.08.18c.13.32.46 1.08.34 1.32-.07.13-.56-.36-.59-.39-.15-.15-.42-.42-.53-.37-.08.03-.01.81 0 .91l.04.28.04.24.04.28c.04.44.15 1.23.24 1.85l.23 1.52c.16 0 .3 1.92.28 2.12m5.86-9.43c-.15-.29-.6.1-.69.21-.17.2.08.48.2.6.82.83.86-.26.49-.81m27.1 1.48c.14-.76-.49-1.8-1.11-1.02-.27.34-.04.51.23.71.15.11.82.61.88.31m-74.63-2.85c0 .12-.11.41-.24.74-.13.32-.26.85-.22 1.23.07.73.86 1.76.99.48h.16l.02.2c0 .13 0 .2-.06.4-.01.03-.26.5-.39.74-.08.15-.43.15-.58.07-.28-.15-.42-.56-.5-.92-.09-.4.07-1.03.2-1.57.06-.26.4-1.43.62-1.37m62.81 2.85c-.06-.14-.03-.99.18-1.02 1.13-.16 2.53 1.88 2.95 2.73.04.07.21-1.82.21-1.82.03-.36.1-.9.23-1.28.11-.35.87-1.41 1.39-1.04.3.21.44.46.57.84.06.17-.11.65-.21.74-.11.09-.37-.23-.43-.31-.12-.15-.23-.26-.43-.33-.22-.07-.48.09-.53.25-.22.6-.23 1.79-.23 2.42 0 .38-.11 2.39-.51 2.26-.03 0-.1-.26-.11-.33-.01-.05-.09-.26-.1-.28-.08-.16-.22-.36-.32-.52-.23-.34-.54-.81-.73-1.04-.28-.33-.43-.37-.92-.49-.4-.1-.83-.41-.99-.76m-11.24 2.53c1.35-.84 3.39-2.09 4.24-2.51.33-.17.65-.34.97-.54.26-.17.66-.38 1.01-.56.36-.19.71-.39 1.05-.6.3-.19.72-.45.97-.48.06 0-.03.86-.3.92-.3.07-3.25 1.85-4.32 2.53-.72.45-1.48.89-2.22 1.29-.37.2-.75.42-1.09.64-.12.08-.48.32-.55.28-.07-.03 0-.89.24-.96m-62.02-2.56c.02-.26.07-.76.26-.82.42-.14 1.55.87 1.83 1.14.21.2.42.43.6.67.09.12.6.82.67.66 0-.01-.09-1.08-.12-1.44-.03-.35-.08-1.02.04-1.21l.04-.16.1-.32c.08-.2.2-.39.38-.48.53-.27.99.51 1.13.92.07.2-.08.54-.26.54-.04 0-.24-.16-.34-.23-.13-.1-.36-.28-.43-.29-.4-.02-.27 1.18-.22 1.62.05.48.08 1.02.08 1.41 0 .21-.13 1.55-.36 1.5l-.07-.17-.08-.16c-.13-.29-.16-.36-.16-.36q-.05-.1-.16-.26c-.08-.12-.24-.36-.24-.36-.19-.33-.51-.65-.78-.92-.38-.37-.49-.39-1.03-.45-.3-.03-.94-.49-.87-.82m42.08 3.12c-.14-.09-.51-.15-.61.06-.11.23.11.39.33.55.54.39.5-.4.28-.61m-8.15.28c.29-.2.6-.37.92-.53.29-.15.84-.42.91-.46 0 0 .78-.35 1.07-.48.4-.18.81-.36 1.21-.56.33-.16.72-.36 1.03-.52.07-.04.42-.19.63-.28.16-.07.39-.18.58-.28 0 0 .68-.29 1.03-.44.67-.29.64.36.3.66-.24.21-3.26 1.55-4.45 2.05-.29.12-.64.3-.93.44-.36.18-.71.34-1.07.5-.33.15-.65.34-.95.52-.05.03-.37.23-.42.18-.13-.13-.02-.72.15-.79m23.41-3.05q-.14-.12-.18-.17l-.09-.13q-.07-.08-.15-.21c-.26-.43-.18-.7-.02-1.17.12-.35.24-.66.48-.9.09-.08.22-.18.32-.24.07-.04.24-.09.31-.09l.35.04c.04-.05.27 1.03.25 1.1-.07.27-.28 1.2-.11 1.48.02.03.26.2.33.25q.34.23.38.32c.19.46.21.49.04 1.04 0 .02-.55-.38-.59-.4-.21-.16-.47-.34-.71-.38-.06-.01-.5.47-.58.56-.18.22-.35.41-.56.59-.39.33-1.05.88-1.22.99-.74.47-1.81 1.07-2.68 1.26-.54.12 2.14-1.68 2.36-1.82.45-.3 2.31-1.55 2.05-2.14m-35.5 1.02c-.14-.52-.85-1.45-1.22-1.77-.3-.26-.53-.46-.79-.42-.37.05-.96-.34-1.06-.65-.07-.21-.02-.79.11-.96.31-.4 1.63.82 1.82.99.23.22.46.44.64.71.14.21.49.73.64.74.02 0 .02-.54.02-.54q-.04-.44-.04-.48s.04-.39.08-.74c.05-.43.21-1.01.5-1.23.11-.08.74-.06.86.13.01 0 .19.31.23.38.11.2.02.47-.08.76-.03.08-.32-.13-.32-.13-.11-.08-.25-.18-.33-.21-.48-.17-.59.26-.59.64 0 1.1-.02 2.07-.28 3.23-.03.14-.45.82-.84 1.43-.23.37-2.44 1.8-2.8 1.57-.05-.03.32-.33.37-.36.17-.14.5-.4.52-.42.31-.28.65-.57.99-.82.29-.21.78-.59.93-.76.11-.14.78-.96.63-1.08m2.52 3.49c-.14-.15-.19-.7-.22-.99-.01-.13-.07-1.55.12-1.58.2-.04.2 1.29.2 1.3 0 .27.1.53.34.64 1.15.51 1.08-1.3.99-1.88-.07-.45.13-1.21.4-.26.16.54.35 1.23.43 1.36.16.25 1.33.66.84-.25-.32-.6-.35-1.06-.28-1.83.01-.19.26.4.26.4.05.19.13.35.22.5.24.39.49.79.54 1.22.05.34-.21.77-.37.98-.19.25-.7.26-.98.17-.13-.04-.28-.12-.38-.21-.15-.13-.3-.27-.51-.07l-.16.26c-.11.15-.22.28-.37.39-.32.26-.91.26-1.08-.15m60.1-3.71c.03-.11-.33-.4-.53-.56-.2-.17-.39-.34-.47-.64-.21-.77.42-1.9.95-2.19.25-.14.57.03.7.19.11.13.27.49.29.71 0 0 .03.53.04.84.02.49.04.93.08.98 0 .01.21.21.32.3.13.12.21.2.28.37.03.09-.06.76-.43.56l-.12-.08c-.21-.14-.4-.27-.58-.3-.05 0-.23.21-.29.29-.11.14-.33.42-.34.42 0 0-.28.22-.34.27-.16.12-.31.26-.45.39-.49.49-1.12.92-1.73 1.29-.85.52-3.24 1.92-4.05 1.83-.12-.01.73-.58.74-.59.12-.08.27-.17.4-.24.21-.11.39-.21.58-.32.62-.35 1.21-.74 1.8-1.12 1.16-.77 2.18-1.49 3.16-2.42m-28.28 4.55c-.08-.29.47-1.15.64-1.3.18-.16.56.15.71.26.23.18.64.52.93.47.04 0 .07-.07.12-.18.06-.13.16-.29.24-.42.12-.19.31-.49.44-.52.36-.09 1.44.91 1.51 1.38.01.1-.25.6-.32.68-.1.11-.39.47-.39.51 0 .14-.73-.48-.73-.48-.21-.17-.64-.53-.8-.53-.03 0-.28.43-.32.51-.17.32-.35.66-.42.7-.24.15-1.37-.87-1.62-1.08m14.35-.16.02-.28.04-.2.04-.16c.05-.21.1-.38.16-.56.04-.11.58-1.51.61-1.12l-.12.36-.06.16-.08.2-.06.12c-.13.36-.23.81-.2 1.24.02.31.17.73.3.92.04.06.78.69.78.26 0-.14.25-.86.36-.83.26.06-.2 1.8-.86 1.92-.65.12-1.01-1.37-.93-2.02m-56.03 1.45c-.25-.42-.08-1.41.04-1.97.05-.22.33-1.45.48-1.38.05.03-.09.61-.11.7-.08.34-.17.78-.2 1.12-.04.47.2 1.15.54 1.41.51.4.75-.33.78-.77l.12.06c.05.04.05.12.02.34-.02.16-.06.36-.12.52-.09.27-.21.57-.39.76-.47.5-1.08-.42-1.14-.79m27.95-2.82c.38.18.83.75.48 1.21-.06.08-.39-.19-.42-.21-.18-.14-.28-.22-.46-.2-.02 0-.16.21-.17.24q-.07.1-.18.23c-.11.14-.23.28-.36.4-.29.28-.59.55-.9.8-.26.21-2.01 1.33-2.13 1.26-.09-.05.64-.71.7-.76q.13-.12.19-.15s.21-.12.23-.15t.18-.16c.11-.1.24-.22.35-.33.25-.26.58-.52.85-.74.29-.24.63-.53.81-.87.08-.16-.19-.4-.28-.48-.08-.07-.37-.4-.36-.52.01-.64.31-1.39.93-1.42.28-.02.53.11.61.46.06.26.01.54-.04.84-.04.23-.08.49-.01.55m5.14 2.02c.07-.47.48-1.76.71-1.94.11-.09-.1.62-.11.66-.15.51-.29.98-.24 1.32.02.18.15.76.27.8.29.1.39 0 .46-.23.04-.16.13-.46.24-.41.28.1-.3 1.5-.56 1.58-.74.22-.88-1.26-.77-1.77m36.8 1.32c-.12-.49-.21-.94-.12-1.49.07-.4.59-1.86.77-1.98.31-.21-.14.69-.15.7-.24.45-.3.8-.3 1.37 0 .33.27 1.04.58 1.02.18-.01.32-.14.4-.28.06-.12.23-.43.28-.42.31.05-.54 1.46-.54 1.46-.31.31-.89.06-.93-.38m-82.92-.55c1.17-.76 2.42-1.46 3.74-2.08.13-.06.28-.13.4-.2l.16-.08.2-.08.16-.08s.32-.16.44-.22l.16-.06.16-.08q.15-.08.32-.16l.24-.14.18-.06.12-.08.18-.08.28-.14c.16-.07.25-.11.4-.18l.24-.14.28-.12c.25-.07.57-.16.57-.17.13-.13.22-.2.4-.29 0 0 .65-.33.97-.48.76-.38 1.52-.74 2.32-1.09.68-.3 1.6-.7 2.08-1 .14-.09.89-.56.87-.1-.01.25-.26.92-.46.96-.5.1-3.12 1.43-4.16 1.99-.11.06-.25.13-.36.18-.21.09-.46.2-.57.26-.11.07-.38.23-.4.24l-.2.08-.2.08-.14.08-.16.08c-.13.07-.26.14-.4.2-.21.09-.43.2-.62.3l-.24.12q-.18.08-.28.14s-.28.14-.28.14l-.16.06-.18.08c-.67.33-1.77.87-2.08 1l-.19.09q-.1.07-.29.17l-.18.06-.16.08-.18.08-.31.05v.12l-.42.21-.14.06c-.68.34-1.35.74-1.98 1.12l-.29.26c-.11.09-.32.28-.28-.05.03-.23.1-.46.16-.68.02-.07.14-.29.27-.45m24.99.94c-.08-.23.42-1.19.53-1.34.18-.24 1.74 1.12 1.73 1.3 0 .03-.62 1.2-.65 1.23-.2.23-1.54-.97-1.61-1.19m-6.8 1.12c-.12-.32.31-1.13.47-1.42.19-.35 1.46 1.09 1.55 1.34.06.19-.54 1.36-.77 1.24-.15-.07-1.24-1.05-1.25-1.16m-13.94 1.57c-.17-.49-.29-3.46.22-3.51 0 0-.09.85-.1.94-.06.54-.12 1.02 0 1.37.12.38.31.61.56.86.15.15.43 0 .52-.11.05-.06.07-.1.09-.19.02-.12.11-.51.19-.46.35.24-.29 1.54-.43 1.63-.39.27-.8-.22-1.05-.54m68.76 2.6c0-.17-.71-.73-.94-.78-.6-.13-1.45-.07-1.55.54s2.12.49 2.5.23m-13.88.57c-.05-.55-1.59-1.36-2.12-1.55-.32-.11-1.19 1.57-1.27 1.91-.08.32.06.68.23.84.24.23.38.23.72.23.57 0 2.37-1.07 2.44-1.43m-31.08.75c.3-.52-.46-1.62-.9-1.73-.33-.08-.79.15-1.01.44-.09.11-.17.22-.24.34-.16.25-.37.57-.42.88-.09.53.86 1.06 1.27 1.06.24 0 .66-.37 1-.68l.13-.07.18-.25zm20.32 1.02c-.54-.49-1.18-.99-2.13-.7-.41.13.79.82.79.82.21.12 1.63.47 1.33-.12m-46.83-.66c0-.45.27-1.03.49-1.32.17-.22 1.55.77 1.61 1.02.13.52-.31 1.71-.87 1.29l-.14-.04-.13-.09c-.11-.09-.26-.21-.35-.27-.19-.14-.62-.45-.61-.58m18.92-1.24c-.13-.07-.52-.27-.68-.07l-.13.09-.2.16c-.1.08-.19.19-.3.31-.21.24-.45.51-.58.81-.27.64.45 1.13 1.07 1.26.46.1 1.4-.84 1.47-1.22.04-.2-.4-.91-.65-1.34m15.48 2.28c1.19-.35 4.1-1.39 4.65-2.08.32-.4-1.14-1.4-1.35-1.51-.19-.11-1.19-.36-2.26-.62-.23-.06-1.35.33-1.84.5-.18.06-.91.62-1.26.9-.18.15-.42.33-.55.46-.16.16-.55.55-.57.56-.23.11-1.74 2.12-1.76 2.34-.03.26 2.29-.02 2.66-.1.72-.16 1.64-.36 2.26-.44m20.15-4.2c-.13-.17-.38-.36-.59-.54-.23-.18-.44-.38-.64-.58-.21-.21-.41-.42-.6-.64-.09-.1-.19-.21-.29-.29-.16-.12-.28-.19-.32-.36-.12-.44-.05-1.1.09-1.54.02-.06.4.18.47.23 0 0 .42.16.55.21.1.04.29.11.36.14q.18.08.37.14s.1.04.32.14l.28.14.15.07v.25s-.15.05-.15.05c-.18.04-.45.1-.47.2-.03.15.95.77 1.12.87.35.2.55-.07.89-.54.08-.11.17-.23.25-.33.27-.34.56-.7.81-1.04.17-.24.85-1.1.88-1.11.38-.21-.3 1.71-.41 1.86-.33.44-.65.89-.96 1.35-.27.4-.12.5.24.74.24.16.47.33.69.52.42.37.72.94.83 1.58.06.38-.26 1.61-.42 1.87-.28.44-2.41 2.03-3.15 1.79-1.22-.4-1.37-.95-1.15-2.47.07-.52.16-1.01.34-1.49.07-.18.18-.4.28-.6.11-.23.21-.41.26-.6m-13.41 8.83-.1-.28-.04-.16c-.09-.4-.1-.67-.04-1.04.13-.77.33-1.78.67-2.4.12-.22.21.24.17.35l-.06.16-.14.28c-.16.38-.27 1.02-.25 1.48.02.36.19 1.11.47 1.17.26.05.39-.07.49-.19q.07-.08.13-.25c.05-.13.08-.21.17-.15.23.14-.36 1.15-.47 1.24-.2.19-.34.27-.65.15-.09-.03-.14-.1-.2-.18-.03-.04-.13-.18-.16-.18m40.81-3.38v.21s.03.24.03.24c.01.03.15.14.18.16.2.13.49.18.7.07.08-.04.15-.32.19-.51.06-.27.14-.52.29-.71.19-.25.11.64.07.79-.12.41-.29.74-.47 1.07-.06.1-.41.33-.56.35-.19.02-.41-.03-.56-.1-.21-.1-.34-.16-.46-.12-.03 0-.15.12-.23.19l-.21.17c-.18.11-.4.19-.67.22-.25.02-.47-.07-.64-.18-.23-.14-.4-.24-.73-.22-.63.05-1.8.9-2.44 1.36-.36.26-.76.51-1.2.69-.2.09-1.44.54-1.51.33-.03-.08.3-.21.42-.25.14-.05.37-.19.54-.3.34-.21.68-.43 1.01-.64.63-.42 1.24-.86 1.85-1.29.71-.51 1.57-.99 2.37-.55.47.26.82.24 1.25-.08.15-.11.26-.22.36-.38.06-.1.35-.57.42-.51m-18.62 4.89c-.86-.03-1.68-1.54-1.96-2.27-.11-.29-.18-.84-.16-1.12l.04-.72c.03-.31.08-.93.07-.98-.01-.12-.67.32-.7.33-.12.08-.36.24-.36.24-.13.08-.39.24-.4.25-.12.1-.98.62-1.52.96-.47.29-.97.57-1.47.82l-.14.06q-.09.04-.3.16c-.14.08-.3.15-.45.22-.28.13-.68.31-.85.42-.52.33-6.61 1.43-6.67 1.38-.2-.15.95-.58 1.1-.63.18-.06 1.27-.49 1.94-.75 1.18-.45 2.23-.95 3.31-1.49 1.91-.95 9.1-5.08 8.98-6.38-.02-.18-.21-.57-.3-.76l-.17-.25s-.18-.36-.23-.45c0 0-.28-.49-.4-.7-.18-.31-.33-.6-.48-.92-.11-.24-.21-.5-.3-.76-.1-.29-.2-.58-.32-.84-.14-.3-.24-.52-.16-.92.04-.19.2-1.11.34-1.06.17.06 2 2.1 2.02 2.34 0 .01-.36-.06-.36-.06-.26-.05-.27-.05-.48-.01-.18.04.6 1.35.68 1.48.32.52.72 1.18.83 1.81.08.48.08 1.84-.12 2.25-.3.6-.61.99-1.03 1.51-.16.2-.41.4-.61.57-.3.25-.58.48-.72.69-.19.29-.29 1.29-.18 1.6.19.59.37 1.1.55 1.4.23.37.67.73 1.1.89.47.18 1.02.26 1.55.26.81 0 1.57-.29 2.22-.54.27-.1 1.93-1.28 3.14-2.13.61-.43 2.85-2.34 2.28-3.14-.08-.12-.42 0-.54.05-.17.07-.39.11-.61.14-.67.1-1.34.16-1.9.16-.34 0-.91-.36-1.22-.56-.61-.38-.37-1.93-.11-2.56.44-1.07 1.72-2.08 3.05-1.17.33.23.63.48.9.77.15.16.29.35.41.53.08.11.35.51.4.52.39.05 1.44-.68 1.81-.95.56-.41 1.36-1 1.58-1.05s.23.37.22.44c-.04.47-.02.86.1 1.23.06.17.51.54.85.82.32.26 1 .25 1.53.24.47 0 1.01-.37 1.39-.62.39-.26.69-.78.99-1.3.27-.47.66-1.15.87-1.25.23-.1.01.55-.02.62-.16.35-.32.72-.28.92.1.54 2.22 1.48 2.8.82.11-.13-.14-.66-.18-.73-.18-.3-.31-.52-.29-.69.04-.4.21-.9.34-1.24.14-.37.6.8.6.8.18.46.27.95.3 1.57.03.6-.29 1.27-.54 1.65-.41.61-1.39.72-2.18.4-.35-.14-.66-.29-.92-.53-.1-.09-.18-.18-.25-.29-.08-.12-.24-.37-.34-.41-.06-.03-.23.22-.25.27-.1.18-.21.38-.31.51 0 0-.23.24-.3.3-.09.09-.12.12-.21.19q-.22.15-.22.16c-.31.28-1.04.46-1.51.5-1.72.14-2.26-.93-2.67-2.38-.02-.08-1.07.68-1.13.73-.14.1-.57.41-.57.41-.05.04-.17.12-.25.17-.12.08-.3.2-.35.26-.08.11-.17.98-.2 1.23-.05.41-.08.68-.21.96-.07.15-.67.95-1.03 1.42l-.2.24-.19.23q-.07.06-.28.29t-.17.16c-.52.75-2.14 1.91-2.98 2.35-.75.4-1.44.72-2.36 1.02-.77.25-1.86.16-2.66-.12m-66.34-.14c-.34-.17-.65-.34-.94-.53-.16-.11-.47-.32-.48-.33q-.06-.05-.18-.16l-.19-.2c-.35-.22-.88-1.12-.99-1.58-.33-1.38-.29-3.01.1-4.38.04-.13.32-.94.5-1.44.04-.11-.06-.36-.2-.72-.13-.34-.25-.65-.3-1.08-.08-.59.35-5.62.79-5.9.35-.23 0 1.5-.02 1.61-.14.71-.3 1.6-.36 2.47-.04.61.11 1.47.38 1.95.12.21.37.53.65.5.2-.02.26-.21.3-.38.05-.18.19-.71.24-.7.65.09-.3 1.99-.37 2.12-.03.05-.42.12-.46.13-.15.03-.2.04-.24.16-.26.85-.54 1.77-.67 2.51-.09.55.06 1.38.24 1.93.16.49.66 1.13 1.04 1.42 2.59 1.94 6.3 1.37 8.82-.45.94-.68 2.22-1.61 2.63-2.12.51-.64.28-1.34 0-2.12-.13-.34-.28-.64-.44-.94-.17-.32-.48-.92-.51-1.02-.03-.14.17-.94.26-1.3.05-.21.44.42.44.42.16.26.25.39.57.5.3.11.71.16 1.05.02.45-.18.88-.5 1.05-.94.23-.59.57-1.43.7-1.54.18-.15.37-.19.5-.02.53.66.71 1.73.87 2.76.16 1.02.34 2.05.67 2.89.21.52.57.89.95 1.24.28.27.82.42 1.27.5.58.1 1.26-.04 1.65-.22.1-.05.08-.42.06-.68-.02-.27 0-.52.04-.84.06-.37.14-.7.26-1 .26-.68.55-1.34 1.02-1.82.31-.31.66-.67 1.11-.77.86-.19 1.29 1.25 1.43 1.95.1.49-.07 1.57-.2 2.01-.03.12-.08.24-.12.36-.14.36-.24.62-.24.66.02.35 2.23.09 2.35.07.1-.02.62-.15.93-.22.48-.12.42-.55.34-1.15-.21-1.63.71-3.47 1.7-4.17.18-.13.71-.35.93-.26.76.3 1.19.89 1.29 1.87.06.62-.06 1.39-.2 1.97-.04.15-.12.38-.18.56-.03.09-.07.16-.16.3-.08.13-.11.18-.08.3.04.19 1.14.36 1.37.38.46.04 1.44-1.41 1.59-1.87.32-.95.32-2.55.32-3.51 0-.76-.38-3.2-.61-4.68-.05-.29-.09-.58-.16-.92-.04-.22-.14-.69-.11-.77q.01-.05-.04-.14s-.07-.26-.09-.33l-.04-.24-.04-.2c-.02-.12-.12-.6-.12-.6-.23-1.48-.4-2.62-.61-4.01-.04-.3-.09-.6-.18-.82-.09-.2-.05-.34.02-.58.1-.34.33-1.15.41-1.22.07-.06.43.72.48.82.19.42.41.91.58 1.23.17.31 1.01 2.19.89 2.47-.07.15-.45-.29-.46-.3-.15-.17-.4-.46-.55-.47-.06 0 .02.6.02.6l.04.24.04.32v.12c.06.33.16.78.24 1.16.16.7.28 1.38.4 2.13.29 1.73.58 3.84.77 5.52.07.65-.01 1.33-.12 1.99-.05.29-.14.87-.05.98.02.03.79-.71.87-.79q.2-.2.3-.3l.2-.2c.15-.13.57-.48.57-.48.62-.63 1.59-1.25 2.61-1.43.67-.12 1.27-.05 1.9.04 1.04.15 2.47 1 2.78 1.87.21.59.04 1.27-.14 1.81-.15.45-.38 1.11-.36 1.22.01.09 1.53-.47 1.59-.5.49-.18 1.63-.61 1.6-1-.07-.88-.26-2.03-.44-2.77-.11-.44-.33-2.07-.44-3.01-.13-1.04-.43-3.31-.44-3.37-.1-.62-.26-2.09-.37-3.09l-.04-.44-.04-.44c-.03-.37-.07-.69-.12-1.04-.03-.19-.06-.4-.12-.56l-.06-.14s-.1-.22-.1-.26c-.05-.4.37-1.68.64-1.58 0 0 .12.25.13.26l.04.12c.04.12.09.23.14.34.1.21.24.45.36.66l.16.32.08.16.08.16.08.2c.04.08.18.36.18.36.07.15.16.32.22.44.12.23.68 1.39.47 1.58-.07.07-.43-.27-.5-.34-.25-.25-.53-.52-.57-.53-.1-.01-.04.58-.02.74l.04.48.04.4.04.2.04.34s.19 1.56.28 2.27c.19 1.52.45 3.58.61 4.5.17 1.05.55 3.15.61 3.33q.17.59.75.46l.2-.04.24-.04.2-.04.12-.04c.23-.05.29-.05 1.01-.04.65-.24 1.53.86 1.67 1.3.24.72-.35 2.51-.8 2.9-.72.62-1.84.23-2.46-.31-.27-.24-.57-.49-.75-.73-.12-.15-.22-.29-.32-.46-.09-.15-.23-.37-.34-.46-.23-.18-.69.17-.69.17-.01.01-.65.26-.87.34-.4.15-1.48.56-1.49.56-.25.08-.63.21-.77.24-.29.07-.64.16-.89.24-.11.04-.46.14-.68.2-.25.07-.57.16-.81.24-1.03.34-3.55.68-5.61.96-.63.09-2.63.18-3.23-.04l-.32-.04-.2-.04-.16-.04-.16-.04c-.3-.07-.57-.13-.85-.2-.24-.06-.47-.13-.69-.2-.22-.08-.79-.28-.85-.24-.79.55-2.04.89-3.03 1.08-.92.18-1.62.13-2.46-.08-.26-.06-.5-.13-.73-.22-.32-.12-.65-.25-.85-.16-.72.33-1.5.69-2.34.78-1.29.15-1.96-.35-2.8-.97-.55-.42-.91-1.73-1.1-2.54-.03-.12-.04-.2-.08-.44l-.04-.24-.04-.24-.04-.2-.04-.24-.04-.24-.04-.24-.04-.24c-.07-.4-.28-1.38-.42-1.53-.12-.12-.39.63-.43.72-.13.37-.33.63-.56.9-.17.2-.43.38-.67.51-.13.07-.79.42-.79.44 0 .07.01.4.04.8v.32c0 .53-.06 1.13-.18 1.64-.13.54-1.12 1.6-1.51 1.93-.82.67-2.2 1.77-2.87 2.01l-.32.16q-.15.08-.24.12c-.23.1-.66.29-.71.3-.36.1-1.49.44-1.49.44-1.23.49-2.78.13-3.96-.14m27.14-.24s.44-.2.63-.28c.2-.09.4-.18.61-.26.35-.14.99-.39 1.13-.44.48-.17.95-.38 1.41-.58.32-.14 1.02-.45 1.2-.42.25.05-.04.67-.09.75 0 0-1.09.45-1.35.55 0 0-.55.23-.73.3l-.24.08s-.4.15-.48.18c-.16.06-.35.12-.52.18-.28.1-.55.2-.81.3l-.32.14c-.15.07-.32.13-.44.18-.45.16-.17-.58.02-.68m-15.13-.04c-.07-.22.49-1.25.68-1.33.14-.05.71.29.95.44.29.17.79.49.96.43.02 0 .16-.26.17-.27.08-.14.16-.27.24-.4.1-.16.29-.47.49-.46.29.02 1.42.92 1.57 1.17.08.12-.58 1.29-.73 1.36-.09.05-.69-.4-.84-.51-.25-.18-.69-.51-.93-.46-.05.01-.38.54-.49.72-.14.23-.32.52-.58.35l-.25-.15-.26-.16s0 0-.26-.16c-.22-.14-.62-.39-.73-.56m7.51.56c.19-.22 4.6-2.25 4.94-2.25.16 0-.13.69-.17.74-.21.19-1.85.87-2.57 1.15-.46.18-.94.41-1.37.64l-.18.08-.16.08-.16.08-.2.08s-.27.12-.3.08c-.05-.07.08-.66.18-.69" fill="#1d1d1b" fill-rule="evenodd"/></svg>