<svg viewBox="0 0 91.72 26.42" xmlns="http://www.w3.org/2000/svg"><path d="m61.11 1.94c-.1-.37-.75.11-.78.33-.03.18.36.54.49.64.72.54.41-.64.29-.97m26.79.4c-.12-.35-1.06 0-.92.49.06.21.66.58.89.7.7.38.17-1.04.03-1.2m-66.51 1.73c-.19-.68-.11-1.4.04-2.09.06-.28.28-1.23.45-1.15.02.01-.14.79-.17.91-.09.37-.18.86-.08 1.24.09.35.24.74.53.88.23.11.43.03.52-.2.06-.16.25-.65.3-.64.06 0 0 .62-.02.72-.03.12-.08.28-.12.4-.12.37-.31.7-.73.74-.29.03-.65-.56-.72-.82m22.52.2c-.08-.67-.12-3.28.51-3.69.05-.03-.06.56-.06.56l-.04.2-.08.32c-.05.4-.13 1.06-.08 1.33.07.34.2.91.52 1.04.26.11.38.04.44-.24.03-.14.18-.78.28-.55.29.67-.56 3.01-1.49 1.03m-8.96.04c-.14-.6.11-1.53.28-2.05.1-.29.4-1.2.49-1.11 0 0-.19.74-.21.83-.11.42-.22.92-.2 1.36.02.36.2.99.51 1.1.27.1.36-.04.42-.3.05-.19.13-.53.23-.55.29-.05-.1 1.65-.5 1.75-.62.16-.97-.44-1.03-1.04m-24.82.22c.09-.56.18-1.13.33-1.62.06-.21.35-1.11.59-.88.09.09-.21.76-.24.83-.18.36-.26.71-.3 1.24-.04.51.49 1.65.99 1.34.06-.03.13-.14.16-.2.07-.15.2-.42.23-.42.26-.02-.07.91-.11 1.02-.12.28-.21.42-.44.58-.16.11-.57-.16-.68-.23-.13-.09-.25-.37-.31-.55-.06-.16-.13-.37-.16-.52l-.04-.26v-.33zm66.22-1.1c-.12-.28.03-.71.13-.98.09-.26.96.25 1.02.29.28.18.62.45.82.71.19.23.53.67.59.76.12.19.62.93.7.89.05-.02.05-1.15.05-1.23 0-.4.01-1.23.18-1.57.24-.49.52-1.04.93-1.27.15-.08.59-.12.74.11l.16.2c.12.17.22.4.25.63.02.13-.19.68-.28.66-.02 0-.19-.17-.39-.37-.14-.14-.29-.29-.52-.31-.27-.03-.46.26-.55.46-.03.07-.04.35-.04.46l-.04 1.1-.04.52c-.02.36-.05.81-.12 1.21-.03.17-.23 1.33-.46 1.15t-.06-.22c-.01-.07-.06-.22-.08-.28-.06-.15-.17-.33-.26-.46-.25-.37-.56-.83-.76-1.07-.14-.16-.39-.46-.41-.47-.05-.04-.18-.14-.22-.14l-.22.04-.16-.04c-.39-.13-.78-.41-.95-.78m-11.31 2.58c1.29-.8 2.99-1.85 3.99-2.38.25-.13.97-.52.97-.52.37-.23.76-.44 1.15-.64.35-.18.71-.4 1.05-.6.32-.2.9-.54 1.11-.57.23-.03-.09.77-.17.84-.24.21-8.14 4.77-8.14 4.77-.27.07-.08-.79.05-.9m-4.49-2.13s-.13-.15-.19-.21c-.03-.03-.15-.17-.18-.21-.13-.17-.24-.35-.29-.59-.08-.35.27-1.29.43-1.48.26-.3.46-.49.84-.54.29-.04.45.32.51.61.06.33.04.57 0 .92-.04.4-.1 1.02.03 1.14.19.16 1.34 1.19.41 1.39-.11-.08-.28-.22-.33-.24q-.1-.06-.24-.16c-.13-.09-.25-.18-.4-.22-.05-.02-1.08 1.01-1.25 1.17-.38.38-.77.75-1.26 1.02-.45.24-2.6 1.33-2.8 1.24-.17-.08 2.29-1.67 2.49-1.8.42-.27 2.41-1.63 2.22-2.05m27.01.79s-.3-.32-.55-.58c-.19-.19-.38-.39-.45-.66-.21-.75.51-2.02 1.11-2.21.21-.07.55.16.65.36.09.2.21.46.22.72.04.64.04.98.04 1.36 0 .1 0 .29.11.42.08.08 1.08 1.16.38 1.33-.04 0-.35-.22-.46-.3-.14-.11-.32-.23-.48-.26-.1-.02-.29.21-.38.31-.14.16-.28.33-.4.44-.11.1-.29.25-.34.3-.12.12-.28.26-.42.37l-.44.36-.13.09-.2.16c-.1.09-.25.19-.43.31l-.14.08c-.08.05-.16.1-.22.16-.25.22-1.28.77-1.86 1.08-.3.16-.75.32-1.15.46-.19.07-1.17.42-1.2.32-.02-.1 1.47-.95 1.66-1.06.63-.36 1.24-.73 1.84-1.12 1.18-.78 2.2-1.58 3.24-2.46m-67.49 3.82c1.4-1.19 12.45-6.98 12.85-6.91.2.03-.2.96-.26 1.05-.05.07-.77.4-.96.47-.69.26-1.45.69-2.1 1.06-.11.06-.25.14-.36.2-.17.09-.51.27-.53.28 0 0-.32.17-.44.24-.21.11-.61.32-.61.32-.26.14-.97.56-.97.56-.09.06-.22.13-.32.18-.19.1-.38.19-.56.3-1.22.7-2.5 1.4-3.73 2.05l-.16.08h-.32c-.11.19-.16.26-.39.4-.3.18-.67.42-1.25.8-.13.1-.39.28-.34-.08.04-.27.23-.97.46-1.01m17.1.69c-.03-.16.39-.93.61-1.34.15-.28 1.38.8 1.47.98.13.29-.25 1.39-.53 1.43-.28.03-1.54-.82-1.55-1.06m22.13.06c-.22-.23.44-1.4.77-1.45 0 0 .5.31.75.46.24.15.64.4.76.34l.15-.28.08-.16.08-.14c.08-.14.29-.48.42-.52.27-.09 1.37.83 1.47 1.06.18.43-.41 1.36-.71 1.48-.05.02-.53-.37-.67-.49-.11-.09-.64-.53-.64-.53 0-.36-.57.7-.57.7-.13.28-.32.67-.64.49-.18-.1-1.19-.84-1.26-.98m-50.28.62c-.13-.22.44-1.16.59-1.3.19-.17.6.08.82.21.28.17.68.41.9.38.01 0 .23-.38.27-.46.12-.23.26-.42.46-.58.15-.11 1.41.84 1.48.98.14.27-.52 1.45-.77 1.39-.24-.07-.48-.24-.68-.39-.22-.16-.47-.34-.74-.31-.1.01-.29.38-.36.52-.09.18-.37.63-.65.48-.18-.1-1.27-.78-1.33-.92m64.54-.44.04-.3v-.14l.04-.28c.04-.23.11-.52.18-.72.12-.34.47-1.32.65-1.36.06-.01-.28.86-.28.86-.13.34-.2.78-.26 1.16-.09.61.41 1.54.99 1.42.15-.03.23-.3.26-.44.04-.14.14-.51.22-.42.41.41-.55 1.83-.89 1.89-.6.11-.92-1.14-.95-1.66m-44.42-2.34c.03.05-.11.77-.15.98-.07.29-.18 1.31-.04 1.48l.04.12q.08.28.14.38c.11.18.2.32.38.42.27.15.45-.02.52-.28.07-.25.18-.61.23-.63.35-.13.03 1.56-.58 1.89-.23.13-.47-.02-.63-.13-.26-.17-.44-.75-.52-1.1-.13-.59.03-1.33.16-1.93.05-.21.29-1.29.44-1.22m-23.94 3.85s-.03-.2-.06-.32c-.06-.25-.04-.42 0-.8.04-.4.12-.74.2-1.08.04-.18.18-.56.28-.84.12-.35.24-.68.28-1.02.06-.55-1.16-2.12-1.52-2.42-.16-.13-.31-.26-.52-.21-.25.06-.51-.04-.75-.2-.56-.37-.58-.72-.32-1.47.08-.23.82.11.92.19.43.31.81.63 1.15 1.02.18.21.43.5.61.72l.16.26c.13.19.3.45.4.44.01 0-.02-.56-.02-.66-.03-.58-.05-1.15.04-1.62.06-.31.26-1.1.5-1.17.21-.06.47-.14.59-.03.38.32.86.85.44 1.34-.13.16-.38-.13-.43-.19-.17-.19-.24-.24-.55-.29-.32-.05-.2 1.73-.18 2.09.05.74-.12 1.93-.32 2.63-.08.27-.17.52-.26.76-.08.22-.16.47-.22.72-.15.61-.21 1.59.34 1.87.17.09.43-.07.48-.18.03-.06.2-.37.22-.32.27.62-.65 2.4-1.47.8m82.18 0c-.1-1.09.1-2.65.83-3.37.11-.11-.38 1.12-.38 1.12-.24.6-.13 1.26.1 1.75.1.21.25.25.51.22.11-.01.24-.23.28-.32.06-.14.16-.35.22-.3.23.2-.44 1.35-.54 1.44-.5.44-.8-.13-1.01-.54m-54.68 1.49c0-.29.44-.92.63-1.2.18-.25 1.3.69 1.34.92.06.32-.45 1.36-.75 1.38-.2.02-1.25-.9-1.23-1.1m-19.52 2.26c-.19-.73-2.21-1.27-2.39-.21-.05.32.61.45.83.46.1 0 1.56-.07 1.56-.25m9.94-.76c-.06-.11.42-1 .59-1.32.12-.21.85.33.97.42.24.18.64.47.75.49.07.02.36-.45.46-.62.08-.13.31-.47.48-.42.29.08 1.37.9 1.43 1.18.08.36-.6 1.38-.88 1.29-.01 0-.49-.36-.66-.49-.21-.17-.62-.5-.82-.44-.08.03-.42.5-.48.6-.12.2-.32.53-.58.31-.21-.17-.43-.36-.65-.51-.16-.11-.61-.4-.63-.5m8.85 1.18c-.28-.3.48-1.43.78-1.5.05-.01.61.36.77.46l.22.12q.1.14.24.18c.38.11.47-.07.61-.36.11-.23.32-.54.55-.66.26-.15 1.34.82 1.41 1.09.1.42-.65 1.37-.99 1.2-.05-.03-.38-.28-.55-.41-.21-.17-.52-.41-.73-.4 0 0-.37.58-.42.66-.11.19-.3.51-.48.5-.22-.01-1.21-.7-1.4-.87m45.5 1.71c.21-.35-.89-.85-1.2-.92-.43-.1-1.55.43-1.18.8.44.44 1.71.28 2.38.12m-13.77.43c-.08-.47-2.14-1.71-2.37-1.5-.22.2-.99 1.52-1.05 1.86-.06.31.03.73.28.9.83.58 3.21-.94 3.15-1.26m-15.07-.22c-.67-1.48-3.86-4.84-5.16-5.85-.65-.51-1.86-1.99-2.6-2.91-.39-.48-.77-.97-1.12-1.48-.2-.29-.83-1-1.3-1.52-.13-.14-.14-1.55-.08-1.66.07-.12.83.38.96.47.3.2.6.39.91.56.52.3 1.59.91 1.71 1.28.06.18-.51.05-.62.02-.25-.06-.55-.14-.68-.09-.16.05.72 1.15.77 1.21.18.23.59.71.88 1.06.18.22 1.21 1.24 1.86 1.89.66.65 1.37 1.36 1.94 2.01.28.32.6.64.91.94.04.04.35.4.49.56l.18.22.08.13c.08.1.25.3.29.34.69.69 1.56 2.28 1.78 3.4.14.68.28 3.04-.36 1.24-.24-.66-.51-1.42-.83-1.83m-3.77 1.47c-.13-.46.04-1.2.16-1.77.05-.23.27-1.18.42-1.16.03 0-.09 1.02-.14 1.16-.13.38-.12.69-.04 1.09.05.21.28.66.44.76.25.16.42-.04.55-.22t.06-.18c.04-.19.09-.42.24-.35.44.21-.48 1.66-.7 1.71-.55.12-.8-.56-.99-1.04m-38.7-.3c.01-.4.41-2.41.57-2.18 0 0-.1.76-.13.87-.08.39-.13.82-.04 1.16.13.46.26.66.51.96.14.16.46.05.56-.07.05-.06.11-.2.14-.28.05-.13.14-.37.22-.36.14 0-.17.99-.2 1.08-.12.32-.31.59-.69.62-.56.04-1.06-1.3-.95-1.81m54.43-3.09c-.33-.06-1.37-1.18-1.67-1.54-.11-.13-.25-.28-.38-.38-.18-.15-.32-.26-.36-.47-.07-.33-.04-1.06.12-1.46.04-.1.28.09.29.1.08.06.16.13.21.15l.16.06.16.06.2.08.2.08c.44.17.88.36 1.29.56.1.05-.02.25-.04.26l-.16.04c-.13.02-.39.07-.42.11-.07.09.43.49.57.6.14.12.83.63.95.37.11-.24.9-1.18 1.27-1.63.2-.24.4-.49.58-.75.06-.08.92-.94.7-.57 0 0-.19.59-.24.76-.15.51-.24.83-.46 1.16-.16.23-.32.46-.49.68-.09.11-.15.2-.23.33-.05.08-.27.44-.32.44-.29-.02.41.44.41.44.16.1.39.26.48.33.31.26.59.55.8.92.73 1.3-.06 2.8-.84 3.43-.5.4-2.26 1.57-3.12.91-.29-.22-.39-.49-.52-.88-.2-.61.12-2.13.28-2.61.04-.13.2-.48.3-.72.11-.24.35-.8.3-.86m-34.03 4.41c.42-.39-.4-1.63-.73-1.75-.29-.1-.38-.08-.64.05-.28.13-.79.93-1.1 1.42-.39.61.47 1.17 1.01 1.35.29.09.62-.21.8-.37.11-.1.23-.22.65-.7m26.12-17.93s.06-.25.08-.36c0 0 .02-.05.08-.28.08-.26.18-.63.29-.74.11-.1 1.06 2.02 1.14 2.22.3.66.9 2.03.86 2.4-.02.15-.53-.4-.55-.42-.07-.08-.39-.43-.47-.33-.09.11-.04.7-.02.89l.04.32.04.2.04.36c.04.34.07.61.12.92.06.34.11.69.16 1.04.19 1.3.37 2.56.52 3.73.09.65.18 1.3.28 1.93.08.49.19 1.24.28 1.89.08.55.19 1.44.28 2.17.02.16.08.68.08.68 0 .39 0 .79.04.98.16.77-.34 3.29-.92 3.81-.2.18-.14-.24-.13-.29.1-.33.16-.68.16-1.01 0-1.03-.03-2.08-.16-3.25-.2-1.84-.46-3.61-.73-5.34-.28-1.84-.54-3.68-.77-5.5-.1-.82-.33-2.73-.36-3.01-.07-.66-.12-1.22-.2-1.85q-.05-.4-.1-.54c-.08-.22-.17-.5-.1-.62m-33.73 20.65c-.32-.78-.79-1.91-.87-2.47l-1.05-9.48-.16-1.2-.04-.24-.04-.16c-.02-.09-.07-.48-.08-.6-.02-.17-.06-.48-.08-.6l-.04-.2-.04-.24-.04-.36-.04-.28-.04-.24v-.32c-.11-.41-.39-1.48-.4-1.52-.02-.09-.13-.46-.2-.68s-.22-.71-.12-.84c0 0 .16-.5.2-.64.06-.2.19-.66.33-.62.21.07.71 2.07.84 2.58.12.48.23 1.11.24 1.57 0 .18.13 1.02.21 1.48.17 1.08.44 2.9.44 3.57 0 .92.24 3.13.4 4.74.14 1.31.29 2.71.48 3.49.21.82.45 1.41.79 2.04.74 1.34 2.73.94 3.99.53.02 0-.11-.37-.12-.38-.14-.38-.16-.65-.18-1.18-.05-1.06 1.21-3.3 1.87-3.74.28-.19.4-.27.86-.25.26 0 .57.36.78.6.47.53.6 1.49.49 2.24-.06.41-.12.88-.24 1.28-.04.14-.09.28-.14.4-.06.14-.19.49-.13.53.34.23 1.64.05 2.11-.07.58-.14 1-.47 1.36-.83.21-.21.4-.42.59-.65.18-.23.38-.47.56-.44.06 0-.1.54-.11.57-.09.3-.04.43.1.64.18.27.43.39.73.54.35.18.97.09 1.33 0 .57-.14 1.03-.64 1.42-1.05.19-.2.36-.44.52-.67.15-.22.39-.58.52-.59.16-.02-.09.56-.12.63-.12.27-.14.4-.04.68.09.28.41.48.69.58.63.24 1.23-.27 1.45-.7.11-.22.21-.51.3-.82.08-.26.3-.85.48-.98.19-.13.11.38.09.49-.06.3.04.45.19.67.46.69 2.2 1.02 2.93.4.25-.21-.53-1.5-.64-1.66-.3-.44-.64-.96-.85-1.36-.43-.85-1.42-2.96-1.47-3.23-.06-.33.14-1.1.27-1.35.09-.19.41.21.48.3.04.05.42.4.59.54.04.03.47.44.61.57l.08.14.18.17s.14.17.15.19c.15.3-.14.2-.26.16-.2-.07-.48-.16-.64-.13-.09.01.14.5.18.57.09.19.21.41.32.62.16.3.54.86.81 1.26.56.84 1.04 2.12.83 3.33-.11.61-.29.94-.55 1.36-.41.66-1.81.55-2.53.31-.36-.12-.6-.31-.82-.58-.31-.37-.35-.26-.56.19-.31.7-.73 1.15-1.61 1.27-.27.03-.83-.26-.98-.41-.06-.06-.17-.25-.23-.35-.05-.1-.18-.34-.28-.26-.39.3-.89.79-1.25 1.15-.18.17-1.3.4-1.53.28l-.24-.04s-.27-.09-.28-.1c-.05-.02-.46-.24-.48-.25-.07-.06-.2-.21-.25-.29-.04-.07-.11-.2-.16-.3-.09-.17-.11-.21-.18-.28-.02-.02-.32.24-.35.27-.12.14-.22.23-.37.33l-.24.18-.19.13-.16.14-.16.04-.14.08c-.19.14-1.62.36-1.92.38-.37.02-.92-.06-1.33-.16-.31-.08-.71-.18-.85-.1-.71.39-1.35.69-2.18 1.02-1.57.62-3.15-.37-3.75-1.32m-15.41 1.85c-.59-.1-1.19-.5-1.69-.83-.43-.28-.99-.87-1.18-1.38-.21-.56-.65-1.72-.59-2.13l-.04-.42v-.4l.04-.32.04-.2v-.22c.04-.39.16-.87.28-1.22.09-.26.2-.55.28-.8.06-.17.11-.33.18-.48.11-.24.21-.47-.01-.9q-.05-.06-.15-.21c-.11-.17-.2-.33-.28-.54-.1-.25-.17-.49-.22-.8-.04-.2-.08-.41-.08-.5v-.34l.04-.52c-.12.12.29-1.45.36-1.69l.04-.16.08-.32.04-.12.04-.16.04-.12.04-.16.04-.12c.15-.46.69-2.06.87-2.05.03 0-.29 1.3-.34 1.49 0 0 0 0-.08.28-.01.05-.09.37-.12.52l-.04.2-.04.16-.04.2-.04.16-.04.24-.04.2c-.24.78-.38 3.29.87 3.55.25.05.37-.24.42-.46s.17-.66.22-.72c.15-.19.22.48.22.48 0 .26-.05.62-.12.88-.11.39-.4.92-.73 1.08-.54.27-.65.54-.81 1.16-.06.24-.13.56-.16.78-.04.28-.15 1.06-.16 1.1-.12.58.29 1.67.47 2.12.39.94 1.73 1.76 2.81 2.04.83.21 1.54.2 2.34.12 1.15-.11 2.26-.42 3.15-.82 2.06-.92 3.75-2.05 5.22-3.55.19-.19.07-.61-.06-.78-.31-.39-.7-.58-1.2-.83-.21-.1-.73-.05-1.13 0-.43.05-.62.07-1.09 0-.56-.08-1.08-.37-1.31-.78-.6-1.09.36-2.56.87-3.16.28-.33.78-.46 1.26-.59.33-.09 1.09.38 1.35.55.8.53 1.34 1.63 1.68 2.6.56 1.55.4 3.04-.19 4.37-.75 1.69-5.93 4.43-8.26 4.65-1.17.1-1.98.12-3.07-.12m81.35-2.49c.31-.13.64-.16.92-.01.32.17.59.31.74.33.56.1 1.26-.76 1.37-1.18 0 0 .17-.17.14.12-.03.26-.04.37.12.48.23.16.6.24.8.1.05-.04.11-.28.13-.38.02-.13.07-.34.08-.36.06-.2.19-.42.31-.51.17-.12.06.55.05.59-.06.19-.16.54-.2.64-.11.28-.27.66-.48.8-.34.22-.46.3-.91.14-.46-.16-.5-.18-.86.12-.28.22-.67.4-1.12.28-.11-.03-.29-.14-.42-.22-.21-.13-.38-.24-.67-.14-.49.16-1.51.79-2.42 1.35-.41.25-.88.54-1.21.68 0 0-1.55.6-1.45.36.05-.13 4.88-3.13 5.08-3.19m-34.47-17.33c.07.34-.4-.09-.43-.13-.12-.14-.38-.45-.52-.45-.05 0 .04.6.06.72l.04.28.04.28.04.28.04.2q.02.1.04.28c.03.26.08.55.12.8.08.47.32 1.81.49 2.69.32 1.78.63 4.25.93 6.59.03.21-.21 2.4-.36 3.73-.14 1.29-1.92 3.38-2.86 3.98-.93.58-5.48 2.29-6.84 2.09-.49-.07 1.72-.86 1.73-.86.78-.28 1.67-.61 2.3-1.06.04-.03.39-.23.54-.32l.16-.08.14-.08.16-.08.16-.08s.65-.46.91-.64c.56-.4 1.27-.92 1.68-1.42 1.74-2.21 1.84-2.56 1.23-6.21-.44-2.61-1.11-6.65-1.29-8.03-.17-1.24-.46-3.39-.67-4.14-.32-1.17-.27-1.3.23-2.46.12-.28.31.39.32.41.06.27.11.49.22.71.07.14.11.22.1.35.14.14.21.24.31.43.35.66.83 1.57.99 2.23m18.62 21.1-.55-.37s-.38-.41-.55-.6c-.28-.31-.53-1.05-.61-1.55-.07-.42-.06-.77-.04-1.12l.04-.58.04-.26c.02-.13.05-.33.04-.39-.05-.14-1.53.85-1.57.87-.55.36-1.13.73-1.71 1.04-.57.31-1.12.59-1.72.88-.12.06-.26.14-.38.2l-.12.06q-.28.13-.3.14c-.09.05-.33.17-.34.18l-.24.08c-.1.04-.2.07-.28.12-.15.09-5.92 1.24-6.2 1.2-.37-.05 1.25-.72 1.36-.76.42-.15 1.76-.64 1.76-.64 1.03-.42 2.19-.9 3-1.35 2.65-1.48 9.09-5.09 9.26-6.32.02-.14-.21-.62-.28-.74-.15-.27-.37-.68-.42-.8q-.03-.07-.16-.28c-.04-.07-.22-.36-.22-.36-.08-.13-.14-.26-.2-.4-.03-.06-.15-.28-.22-.42-.55-1.01-1.26-2.53-.62-3.81.01-.03.62.58.69.64l.1.12.18.18.22.18c.07.06.21.18.21.18.1.13.17.24.28.34.11.11.25.24.31.35.08.13.21.36-.16.32l-.2-.04s-.4-.06-.38.02c.03.16.33.76.55 1.18.1.21.2.4.32.58.11.16.22.35.3.52.49.99.54 2.25.16 3.37-.23.7-.85 1.32-1.38 1.74q-.17.14-.22.18l-.25.18c-.16.13-.35.28-.39.35-.1.17-.17.34-.22.56-.05.19-.15.62-.22.62 0 0 .21.9.26 1.06s.1.33.14.44l.17.29.08.14c.2.46.79.77 1.24.99.2.1.46.16.73.2.22.03.37.05.52.04l.3-.04h.2c.27.04 1.38-.36 2.14-.62.61-.21 1.3-.74 1.79-1.13.48-.39 1.06-.85 1.49-1.16.74-.53 1.64-1.44 2.09-2.24.11-.19-.04-.45-.15-.59-.08-.11-.28-.04-.44.01-.22.07-.42.12-.69.16-.75.11-1.2.16-1.94.16-.3 0-1.1-.36-1.18-.57-.41-.94-.52-1.61-.07-2.7.21-.5.72-.92 1.15-1.2.27-.18.96-.22 1.27-.06.99.49 1.76 1.11 2.24 2.08.09.18 1.2-.49 1.27-.54.37-.23.71-.47 1.04-.73.27-.21.87-.67 1.1-.69.3-.03.28.38.26.7-.02.39-.02.61.1.92.14.34.49.59.79.8.39.28.93.3 1.47.3.39 0 .96-.3 1.41-.54.47-.25.77-.77 1.01-1.25.2-.39.65-1.26.93-1.37.25-.1.07.51 0 .65-.12.25-.31.62-.3.8 0 .17.23.37.33.46l.23.16.13.07c.07.04.18.1.22.14.28.27 2.16.43 1.96-.06-.1-.23-.25-.6-.26-.62-.13-.19-.26-.38-.26-.42-.04-.24.26-1.27.37-1.46.17-.29.6.8.62.86.04.08.41 1.37.27 1.36v.2l-.04.2c-.05.31-.07.38-.08.44-.07.25-.15.46-.26.66-.19.37-.44.65-.89.76-.53.14-.96.08-1.45-.08-.36-.12-.7-.33-.94-.57-.14-.14-.65-.65-.66-.65-.02.01-.15.25-.17.27-.08.14-.16.26-.24.38-.11.16-.41.5-.59.58l-.24.17c-.11.08-.25.15-.39.21-.12.05-.24.09-.36.12-.15.04-.29.08-.41.12-.44.15-1.22 0-1.61-.18-.9-.4-1.11-1.1-1.36-2.18-.04-.17-.93.54-1.01.6-.21.17-.21.17-.21.17-.34.22-1.13.74-1.19 1.04l-.04.4c-.03.33-.06.68-.08.8-.03.28-.12.49-.22.74-.14.36-.6.92-.94 1.33-.06.06-.27.29-.27.29q-.1.13-.19.22c-.1.1-.22.22-.24.28 0 0-1.31 1.17-1.56 1.37-.25.21-.61.48-.97.75l-.24.17-.25.15s-.23.13-.22.16c0 0-1.14.57-1.21.6-.15.06-.32.14-.48.18l-.32.08c-.12.03-.37.11-.4.12-.78.31-2.19.07-2.9-.34m-37.64.05c.18-.19 2.35-1.09 3.06-1.35.49-.18 1.06-.44 1.57-.66.49-.22 1.4-.61 1.63-.66.25-.05-.07.62-.1.68-.1.2-2.79 1.28-3.39 1.51-.53.2-1.31.49-1.61.64-.13.07-.29.14-.44.2-.1.04-.34.16-.51.24-.64.32-.45-.26-.21-.59m-14.25-2.72c.23-.05.06.52.02.62-.16.4-6.86 3.17-6.92 3.17-.12 0 .12-.72.12-.72.06-.09.18-.15.3-.2l.18-.08q.22-.1.26-.12c.12-.05.43-.18.43-.18l.16-.06.28-.14c.14-.06.26-.1.4-.16 0 0 .39-.18.52-.24l.28-.12.14-.06.18-.08.12-.06.16-.06.16-.08q.12-.06.32-.14l.14-.06.14-.08.18-.08.14-.06.24-.12c.32-.15.64-.29.97-.42l.44-.22c.21-.09.56-.24.61-.24" fill="#1d1d1b" fill-rule="evenodd"/></svg>