<svg viewBox="0 0 77.57 25.9" xmlns="http://www.w3.org/2000/svg"><path d="m45.92 1.8c.03.23.73.92.89.68.13-.19.06-.93-.14-1.09-.27-.23-.74.14-.74.41m27.58-.49c-.32-.49-.92.1-.98.41-.04.2.67.6.87.71.8.45.32-.88.11-1.12m-45.34 1.6c.14-.77-.59-1.83-1.24-1.1-.31.35.09.64.35.83.15.11.83.6.89.27m33.95-1.34c.36-.1.83.21 1.09.38.37.24 1.92 1.83 1.91 2.28l.12-.06s.05-.03.06-.66v-.8c0-.52 0-.93.16-1.41.15-.44.69-1.36 1.27-1.3.51.05 1.08 1.36.51 1.68-.02.01-.31-.25-.4-.33-.16-.14-.36-.32-.6-.31-.17.01-.47.25-.46.46.03 1-.02 3.38-.32 4.21-.04.1-.15.41-.32.23l-.05-.23-.06-.2c-.03-.07-.12-.24-.16-.3-.18-.29-.37-.58-.57-.85-.18-.24-.4-.53-.58-.72-.06-.06-.28-.26-.33-.27h-.36s-.28-.1-.28-.1c-.5-.25-1.32-1.06-.62-1.7m-45.29 1.45c-.21-.19-.27-1.35.03-1.4.19-.03.59.16.75.25l.24.16.14.08.13.09q.16.13.18.14s.84.88 1 1.08l.09.13c.06.08.24.32.24.32.08.1.16.19.23.31.09.14.18.3.26.34s.08-.44.08-.48l-.04-1.12c0-.46.07-.9.2-1.36.34-1.17 1.36-.63 1.65.2.21.59-.06.94-.52.54-.22-.19-.88-.77-.97.03l.04.48v.32c.03.66.06 1.34-.08 1.89-.05.21-.27 1.08-.41 1l-.07-.15q-.07-.15-.14-.28l-.08-.14-.16-.26-.08-.12c-.11-.18-.43-.59-.66-.87-.22-.27-.49-.58-.77-.78-.05-.04-.07-.04-.32-.06-.02 0-.37-.07-.42-.08-.19-.05-.44-.11-.54-.23m42.07-2.56c.13.26-.02.67-.16.87-.1.14-8.12 4.93-8.12 4.93-.21.01-.05-.64 0-.79.04-.1.27-.25.4-.34.34-.21.68-.43 1.03-.64l2.24-1.37c.76-.46 1.54-.92 2.32-1.36.37-.21.86-.49 1.11-.64.17-.11.35-.21.52-.32.18-.11.58-.35.66-.33m-49.39 2.74c-1.26-.35-8.05-.39-8.65.61-.09.15.67.65.87.78.3.2.6.43.88.66.26.21.63.51.77.64.19.19.78.77.83.77.02 0 .94-.66 1.16-.83.16-.12.83-.57 1.24-.83.45-.29.93-.58 1.39-.84.26-.14.67-.38.79-.44.18-.1.72-.39.72-.51m36.62.08c-.17-.15-.78-.81-.66-1.05v-.16l.04-.24.08-.28.04-.12c.08-.28.21-.48.35-.72.14-.22.43-.38.72-.43.29-.04.45.35.51.58l.08.46-.04.3-.08.84c-.01.35.15.48.41.69.22.17.47.38.55.64.04.11-.04.51-.09.63-.04.11-.58-.28-.63-.32-.2-.15-.43-.31-.67-.37-.07-.02-1.05 1.01-1.17 1.16-.33.41-.79.73-1.23 1.02-.53.35-1.28.8-1.92.98-.86.24.37-.66.4-.68q.11-.06.23-.15l.32-.23.13-.09c.2-.17.46-.36.74-.55l.24-.16c.16-.11.31-.22.46-.34.29-.23 1.35-1.07 1.19-1.42m-14.49 4.21c0 .17.67.51.85.54.38.06-.03-.92-.18-1.02-.27-.19-.73.27-.67.48m-17.16-.4c-.23-.76.05-2.76.49-3.51.15-.25.17.21.13.29-.07.2-.13.41-.18.64-.09.41-.2.92-.2 1.33 0 .53.24 1.23.89 1.16.14-.01.2-.23.24-.36.03-.1.16-.57.26-.44.37.5-.44 1.77-.89 1.83-.35.05-.66-.61-.75-.94m58.67-3.53c.03-.09-.31-.38-.5-.53-.2-.17-.44-.38-.51-.68-.12-.48.18-1.27.35-1.58.16-.3.38-.56.77-.64.25-.05.53.16.6.36.07.17.22.58.22.62l.06.64c.03.39.08 1.14.32 1.33.12.1.17.14.26.27.17.24.17.61.04.9 0 .02-.52-.25-.52-.25l-.24-.16c-.1-.06-.12-.08-.24-.1-.03 0-.55.56-.77.8q-.13.11-.23.2l-.17.16q-.21.17-.22.18c-.24.23-1.05.84-1.68 1.3-1.07.79-2.77 1.85-4.12 1.99-.24.03.73-.61.77-.63.12-.08.38-.23.4-.24.21-.11.4-.2.58-.34.06-.05.62-.39.87-.55.13-.08.36-.22.4-.25.14-.11.3-.21.45-.31.69-.46 3.09-2.16 3.13-2.49m-28.2 4.92c.09-.44.36-.94.64-1.24.12-.13.65.23.81.34.22.14.62.4.75.42.12.02.36-.44.43-.58.14-.29.25-.5.52-.62.13-.06 1.3.97 1.39 1.12.23.35-.37 1.14-.59 1.44-.08.11-.76-.44-.85-.51-.17-.14-.65-.51-.79-.4 0 0-.24.48-.29.58-.09.19-.28.6-.38.62-.28.07-1.62-.92-1.63-1.16m-17.37-4.09s-.58-.44-.82-.61c-.26-.19-.45-.39-.61-.68-.24-.43.11-1.48.32-1.87.11-.2.29-.39.45-.53.09-.07.3-.26.3-.26l.18-.07.32-.08.28.04.18.08q.13.06.22.18c.13.18.29.41.34.66.1.43.11.94.04 1.41-.05.35-.1.72-.08.78 0 0 .3.22.32.23.1.07.2.16.32.25.16.13.44.41.49.61.04.16-.22.87-.29 1-.02.04-.57-.39-.61-.42-.24-.19-.52-.4-.83-.45-.02 0-.45.7-.55.86-.17.28-.38.54-.58.79-.4.5-.81.98-1.29 1.41-.36.32-2.92 2.18-3.3 2.18-.22 0 .27-.41.27-.41l.22-.21q.05-.05.18-.16c.24-.2.5-.45.72-.68.41-.42.87-.84 1.33-1.21.66-.52 2.24-2.05 2.45-2.84m32.56 1.37c-.22.72-.5 1.65-.48 2.24.02.49.55 1.43 1.02 1.12.1-.06.15-.29.19-.43.04-.17.13-.5.26-.48.11.02-.06.84-.1.96-.06.2-.13.41-.22.58-.25.46-.62.53-1.04.17-.31-.26-.42-.84-.51-1.34-.07-.37.17-1.34.28-1.67.07-.2.48-1.33.6-1.16m13.7.62s-.24.79-.38 1.18c-.2.57-.06 1.31.18 1.73.11.19.25.18.5.16.07 0 .21-.22.24-.28.05-.12.19-.43.23-.41.27.12-.37 1.39-.42 1.45-.46.5-.93-.07-1.02-.31-.27-.71.15-3.52.67-3.51m-53.7 5.53c.07-.21-.61-.65-.82-.72-.52-.17-1.45.07-1.43.58.02.59 1.84.33 2.25.14m12.09-2.91c-.02-.06-.16-.15-.24-.2-.06-.04-.18-.12-.23-.17-.19-.17-.44-.4-.45-.45-.13-.4.02-.92.16-1.39.07-.23.49-.63.73-.7.23-.07.42 0 .52.2.15.28.22.56.26.98 0 .03.05.51.05.54 0 .2 0 .42.4.75l.13.09c.15.13.32.34.41.51s.07.83-.14.83c-.03 0-.29-.3-.34-.36-.16-.17-.45-.33-.7-.37-.09-.01-.35.37-.44.52-.15.22-.32.44-.5.64-.35.39-.83.92-1.1 1.11q-.14.1-.23.19s-.05.05-.39.31l-.16.02-.05.15-.15.1c-.33.24-.75.55-1.04.71-.41.23-.8.47-1.16.74-.09.07-1.86.83-1.4.43 1.01-.89 2.17-1.69 3.3-2.46.22-.15.96-.75 1.54-1.2.21-.17 1.33-1.34 1.22-1.52m-25.67 5.48c-.16-.17.36-1.22.45-1.38.16-.29 1.81.72 1.89.88.14.26-.41 1.42-.7 1.42-.14 0-1.6-.82-1.64-.92m56.8 1.32c.24-.39-1.04-.88-1.46-.92-.5-.05-1.41.85-.83.9l.2.08.28.06c.19.04.39.08.58.08.41 0 .88-.08 1.22-.21m-13.83.81c.19-.49-1.82-1.56-2.24-1.6-.18-.02-1.09 1.66-1.13 1.94-.07.39.11.71.32.9.65.58 3.06-.97 3.06-1.24m-44.26 1.37c.78-.44 5.84-2.7 6.13-2.62.28.08-.19.82-.42.89-.14.04-.35.14-.52.22-.14.07-.48.22-.48.22-.65.21-1.29.48-1.9.78-.25.12-.59.29-.77.36-.03 0-.6.27-.85.38l-.16.06q-.18.07-.6.26l-.16.06c-.85.37-.46-.5-.27-.62m40.63 1.29c-.18-.18-.43-1.03-.35-1.28l.04-.4.04-.36.04-.28v-.16c.03-.28.12-.55.2-.8.1-.3.22-.56.34-.84.13-.28.27-.59.23-.67 0-.01-1.14-.97-1.3-1.09-.2-.15-1.11-.99-1.17-1.21-.12-.44-.06-1.13.05-1.51.01-.04 1.08.39 1.3.49l.12.04.16.06.2.08.16.06c.16.06.62.23.62.34 0 .06-.01.19-.1.22-.24.07-.54.16-.54.24-.01.16 1.27.96 1.47.91.09-.02.47-.55.6-.74q.11-.15.34-.41l.15-.23q.08-.13.16-.24c.08-.12.17-.23.56-.72.19-.27.59-.82.68-.84.31-.06-.44 1.86-.48 1.93-.18.28-.37.56-.58.81-.19.23-.46.62-.53.92 0 0 .66.48.81.58.31.22.51.46.76.74.2.23.45.83.41 1.19-.05.48-.14 1.41-.35 1.77-.28.5-1 .97-1.51 1.24-1.02.55-1.5.8-2.55.19m-36.35.69.14-.08.16-.08c.13-.07.32-.18.48-.3l.35-.22.35-.27.15-.1s.01 0 .2-.16l.3-.26c.07-.07.13-.12.21-.18.54-.41 1.43-1.62 1.72-2.27.44-.98.93-2.08.16-3.13-.27-.38-.61-.74-1.07-.92-1.39-.56-3-.51-4.64-.46-.74.02-2.24.12-3.37.2-.37.02-1.28-.08-1.61-.14-.28-.05-.86-.14-.88-.11-.15.18-.28.66-.35.96-.04.16-.11.51-.16.76q-.06.28-.08.54c-.01.19-.02.2-.04.28-.18.67.01 1.81.16 2.55.16.78.52 1.51.91 2.09.33.5.75.83 1.25 1.16.55.36 1.26.61 2.02.74 1.08.2 2.82-.09 3.65-.58m31.88-3.25c-.05-.22-.11-.74-.16-1.09q-.03-.2-.08-.52l-.04-.28-.04-.2-.04-.24c-.02-.12-.24-1.31-.36-2.01-.12-.67-.25-1.39-.36-2.17-.11-.68-.25-1.57-.38-2.13l-.02-.12-.04-.24-.08-.48-.2-1.16c-.06-.35-.12-.72-.16-1.01-.06-.42-.12-.84-.2-1.24l-.12-.48-.04-.16q-.06-.27-.1-.36c-.1-.23-.16-.36-.14-.56.03-.29.31-1.56.52-1.5 0 0 .12.24.12.25q.12.28.14.32t.16.3s0 0 .12.24c.19.38.42.84.57 1.17.1.22.2.44.32.64.11.17.2.37.28.56.11.24.54 1.21.24 1.24-.12.01-.31-.23-.39-.32-.12-.14-.29-.36-.5-.37-.06 0 .04.86.06 1l.04.2q.04.18.08.4c.04.21.11.65.12.68t.04.2l.08.44.53 2.85c.08.48.16.91.24 1.36.1.53.22 1.22.28 1.61.16 1.02.45 3.28.44 3.45-.07 1.24-.2 3.26-.42 3.73-.05.1-.36.55-.34.1.02-.47.04-1.14.04-1.43 0-.72-.07-1.78-.2-2.69m-36.52 5.39c-.68-.32-1.46-.7-1.79-.89-.14-.08-.55-.56-.73-.79-.11-.14-.25-.31-.31-.41l-.14-.22c-.04-.07-.12-.24-.12-.24-.22-.15-.62-2.01-.73-2.57-.21-1.17-.14-2.13 0-3.61.02-.27.12-.82.2-1.24.08-.44.2-1.07.18-1.2 0-.05-.55-.49-.67-.58-.23-.16-.58-.41-.57-.76 0-.04.36.08.36.08l.16.06.12.04c.32.08.79.2 1.05.14.12-.03 1.34-2.34 1.33-2.41-.02-.16-1.23-1.06-1.45-1.21-.57-.36-1.21-.78-1.53-1.23-.22-.28-.29-.77-.27-1.25.01-.18.29-.75.53-1.22.45-.89 3.27-1.18 4.68-1.33.9-.09 6.95.14 7.7.37.07.02-.17.74-.2.82-.1.31-.25.75-.45.89-.64.44-1.35.8-2.07 1.16-.76.38-1.49.79-2.22 1.21-.37.21-.85.48-1.09.64l-.24.16-.26.16q-.11.07-.24.17c-.07.05-.13.1-.21.15-.35.22-.68.44-1 .7-.14.11-.24.23-.29.43-.06.24-.16.62-.18.64l-.32-.12c-.09-.03-.17.01-.27.09-.17.14-.83 1-.88 1.2-.11.51 2.93.19 3.51.1 2.16-.32 4.63-.5 6.54.22 2.01.76 1.73 3.09 1.49 5.14-.11.94-.7 1.99-1.15 2.67-.11.16-.22.33-.32.5-.13.21-.33.48-.58.79l-.27.32-.09.13-.14.1c-.07.07-.24.24-.26.29-.21.41-1.55 1.15-2.17 1.49-1.32.73-3.12.82-4.64.44m33.09-.3c-.15-.38.31-2.95.72-3.03.15-.03-.16.88-.17.94-.12.36-.24.92-.16 1.28.05.24.26.64.45.74.19.09.33.03.42-.13.08-.15.23-.43.3-.39.33.23-.51 1.34-.58 1.39-.28.22-.78-.52-.97-.8m-8.09.56c.01-.26.48-1.13.67-1.27.23-.16 1.71.99 1.75 1.28.03.18-.7 1.41-1.04 1.11-.12-.1-.48-.34-.7-.49-.16-.1-.71-.48-.68-.64m40.94-1.95c.33-.08.57-.13.73-.08.18.06.3.13.44.22.19.12.32.17.61.14.34-.03.62-.26.82-.45 0 0 .17-.29.23-.39.06-.11.2-.37.32-.34l-.02.24c0 .14 0 .22.09.3.14.13.46.25.7.2.22-.04.26-.25.3-.5.05-.32.13-.58.29-.79.18-.25.12.67.07.83-.05.19-.11.35-.18.52l-.08.2-.08.12-.09.19c-.06.15-.55.4-.72.39-.14-.01-.37-.09-.48-.14-.14-.07-.35-.17-.42-.08-.22.29-.56.45-.95.58-.18.06-.51-.02-.67-.1-.32-.16-.67-.33-.87-.26-.55.19-.92.38-1.35.66-.2.13-.39.27-.59.4l-.23.17c-.1.08-.19.16-.31.23-.16.1-.26.16-.37.25-.03.02-.15.12-.17.13l-.24.12-.16.06c-.13.06-.21.09-.32.16-.15.09-1.6.57-1.27.15.01-.01.28-.1.3-.11.2-.07.31-.14.46-.24l.23-.17.13-.07q.12-.06.26-.16c.2-.14.42-.28.6-.41s.36-.27.55-.39c.81-.54 1.59-1.04 2.44-1.59m-44.97 2.27c0-.46.44-1.9.65-2.06.13-.1-.07.59-.09.66-.11.4-.26.91-.16 1.28.1.36.24.88.52 1 .2.09.4.03.5-.18.09-.18.25-.5.32-.5.09 0-.04.51-.06.56-.06.17-.13.37-.2.52-.13.28-.3.5-.61.58-.61.16-.92-1.3-.89-1.87m31.78 2.23c-.19-.04-.69.02-.79.04-.38.06-.85-.04-1.23-.16-.52-.17-1.02-.45-1.33-.84-.35-.44-.57-.82-.83-1.39-.08-.18-.11-1.76-.13-2.9 0-.09-.59.3-.64.34l-.61.4-.12.08-.13.09c-.11.08-.24.17-.33.23-.14.08-.28.17-.5.33l-.23.15c-.97.55-1.98 1.12-2.95 1.61-.96.48-2.16.79-3.39 1.06l-.16.04-.2.04c-.23.04-.4.07-.6.12l-1.01.2-.77.2c-.27.07-1.02.24-1.14.15-.17-.11 1.22-.7 1.27-.72l.16-.06.18-.08.18-.08.2-.08.2-.08q.19-.08.24-.1c.17-.06.38-.13.5-.18 1.03-.45 2-.88 2.97-1.36 1.82-.9 3.74-1.98 5.34-3.14 1.31-.95 3.32-2.43 3.86-3.2.26-.37-.13-.99-.32-1.3-.26-.42-.53-.86-.77-1.3-.44-.82-1.19-2.25-1.35-2.97-.03-.15.18-1.08.27-1.44.03-.12.45.39.48.42.17.21.41.42.63.58.26.19 1.02.89 1.08 1.18.03.16-.18.1-.27.08-.21-.06-.67-.19-.62.1.02.13.12.3.18.4.11.19.24.39.4.66l.08.14.08.14q.08.14.16.26.06.08.16.28c.2.38.43.81.51 1.2.06.34.09 2.2-.12 2.45-.02.08-.08.23-.1.28-.06.14-.16.26-.25.38-.06.07-.23.29-.23.29t-.19.19l-.2.24c-.17.22-.44.44-.66.63-.28.23-.56.46-.64.67-.31.82-.23 1.67.1 2.47.12.29.36.61.57.82 0 0 .34.25.43.32l.19.13.24.12c.13.2 1.54.24 1.67.24.77 0 1.82-.43 2.36-.74 2.01-1.15 3.98-2.72 5.23-4.62.12-.18-.07-.47-.19-.59-.08-.08-.35 0-.44.03l-.12.06c-.06.03-.21.07-.28.08-.55.1-1.11.2-1.68.24-.61.04-1.24-.26-1.73-.56-.03-.02-.21-.27-.23-.31-.04-.08-.08-.22-.1-.32l-.06-.36c-.03.09 0-.71.06-1 .05-.28.15-.56.26-.78.19-.41.7-.95 1.09-1.17.02 0 .34-.11.36-.12.12-.02 1.01.08 1.01.08l.12.04c.15.06.29.14.42.22.24.16.46.33.68.51.25.21.83.95.95 1.26.05.12.68-.24.68-.24.18-.1.49-.28.54-.32.33-.24.87-.63 1-.74.24-.19.93-.7.99-.71.42-.06.45.13.43.48-.02.32-.06.84.1 1.08.25.39.54.68.97.88.42.2.76.19 1.41.18.47 0 1.18-.44 1.45-.67s.65-.84 1-1.4c.06-.16.1-.26.2-.4l.06-.16.08-.14c.06-.1.44-.64.57-.38.07.14-.19.68-.24.76-.13.22-.18.45-.16.72.02.28.88.7 1.17.82.37.15 1.64.25 1.68-.18.01-.15-.15-.46-.22-.56q-.14-.23-.17-.27c-.07-.08-.12-.14-.13-.17-.08-.27.22-1.35.33-1.54.16-.28.61.78.64.86.15.37.32.99.28 1.43-.08.94-.3 1.91-1.13 2.19-.46.15-1.01.09-1.39.04-.39-.05-.82-.35-1.08-.57 0 0-.2-.23-.3-.35-.12-.14-.29-.35-.39-.32 0 0-.17.25-.17.25l-.08.14q-.08.14-.16.26c-.16.24-.36.46-.6.62-.45.3-.92.54-1.58.66-.51.09-1.2-.02-1.55-.26-.38-.26-.68-.48-.91-.88-.1-.17-.16-.35-.22-.56l-.04-.16-.04-.36c-.05-.22-.2-.13-.34-.04-.22.13-2.01 1.57-2.04 1.69-.04.16-.07.65-.08.88q-.01.22-.04.44c-.04.3-.08.57-.22.76l-.08.2-.08.14-.18.23c-.13.2-.25.38-.4.56-.29.35-.58.71-.9 1.03-.79.82-1.7 1.65-2.66 2.29-.53.35-1.08.71-1.67.98-.33.15-.69.24-1.01.32q-.15.04-.57.04c.08.06.11.08 0 .12m-40.07-4.16s-.13.51-.18.68c-.13.46-.16 1.07-.16 1.49s.23.86.41 1.18c.47.86 2.08.17 2.56-.21 1.14-.91 2.12-2.01 3.03-3.15.25-.31.94-1.06 1.42-1.58q.16-.17.37-.4l.34-.38c.11-.11.24-.22.36-.32.14-.11.43-.34.43-.34.31-.45 1.66-1.23 2.23-1.45.71-.28 1.44-.47 2.36-.58.37-.04 1.59.31 1.74.54l.15.05.2.16c.17.15.37.34.49.49.28.36.53.53.93.78.47.3 1.35.27 1.89.06.83-.32 1.15-.57 1.03-1.71-.17-1.56-.54-3.25-.89-4.82-.17-.74-.31-1.47-.45-2.25-.13-.81-.28-1.7-.44-2.49-.17-.85-.3-1.7-.44-2.61-.06-.36-.13-.84-.2-1.12-.1-.39-.19-.79-.16-.88l.08-.32q.05-.19.08-.28c.08-.22.18-.51.32-.59.03-.02.62 1.12.67 1.23q.03.07.16.28c.08.13.2.34.24.4.14.25.27.49.4.72.17.29.78 1.36.55 1.62-.05.06-.47-.31-.54-.38-.13-.13-.38-.38-.47-.34-.13.06.33 2.59.4 2.92l.53 2.57c.15.83.36 1.98.48 2.53.16.72.57 3.12.48 3.43v.7c0 .27 0 .38-.04.8 0 .07-.06.3-.08.36l-.04.12q-.05.16-.08.28c-.28 1.26-2.27 2.1-3.45 1.62-.68-.27-1.04-.63-1.53-1.11-.51-.5-1.31-1.08-2.25-.97-.31.03-1.9.32-2 .56l-.16.06-.28.16-.14.08-.14.08c-.13.07-.37.27-.55.41-.35.29-.84.68-1.09.84-.09.06-.26.27-.4.45l-.22.18c-.11.11-.2.2-.49.48l-.2.2c-.48.47-.98.99-1.36 1.55-.74 1.1-1.74 2.11-2.79 2.91-.26.2-.99.42-1.29.38-.68-.1-1.1-.26-1.53-.58-.31-.22-.81-.76-.93-1.17-.11-.36-.26-.87-.26-1.08 0-.3 0-.55.04-.92.03-.32.08-.73.07-.78 0-.03-1.03.65-1.04.66l-.7.48c-.52.34-1.52.98-2.06 1.1-1.16.27-2.53.58-3.43.88q-.12.04-.28.08c-.16.04-.29.08-.44.12l-.85.24-.36.12-.12.04c-.28.08-.28.08-.28.08-.25.07-.96.3-.98.29-.46-.3 1.31-.94 1.39-.97.47-.17 1.2-.48 1.77-.72 1.15-.49 2.26-1.06 3.33-1.67.78-.45 2.95-1.88 4.65-3.02.87-.58 4.18-3.33 4.35-4.25.05-.27-.42-.71-.64-.8-.46-.2-.82-.2-1.39-.18l-.57.04-.22.04h-.2c-.14 0-.51 0-.67-.08-.36-.18-.7-.35-.89-.7-.39-.74-.19-1.98.28-2.69.18-.26.37-.55.62-.72.15-.1 1.39-.57 1.6-.26l.2.06c.1.04.2.1.28.16.15.11.29.21.44.33.24.19.48.45.65.7.41.58.74 1.2.99 1.95.7 2.08-.44 4.11-1.51 5.23-.54.56-1.02.98-1.54 1.41-.52.44-1.33 1.11-1.58 1.52" fill="#1d1d1b" fill-rule="evenodd"/></svg>