<svg viewBox="0 0 84.02 26" xmlns="http://www.w3.org/2000/svg"><path d="m32.26 19.92c0 .05-.03.1-.09.17-.21.24-.59.7-.57.82 0 .03.76-.02.94-.03.41-.03 1.13-.11 1.61-.16.36-.04 1.32-.25 1.98-.4 1.06-.28 4.68-1.6 4.86-2.37.14-.6-1.88-1.7-2.52-1.81-.5-.08-1.16-.08-1.57.08-1.24.49-2.19 1.28-3.11 2.17q-.06.09-.29.29c-.07.07-.13.12-.21.18-.1.08-.22.17-.3.28-.11.13-.28.3-.44.37 0 0-.27.4-.3.41m1.35-7.13c.03.55.08 1.43.08 1.53 0 .66 0 1.2-.08 1.77-.04.31-.18 1.37-.18 1.41 0 .16.48-.3.49-.31.16-.17.41-.44.52-.53 0 0 0 0 .19-.19.05-.05.21-.17.33-.26.19-.14.55-.42.57-.43.9-.56 1.82-1.14 2.68-1.27.51-.08 1.31.12 1.88.34.11.04.56.33.79.48.12.08.25.17.36.27l.18.18.18.22c.2.1.37.85.33 1v.34l-.04.12q-.04.12-.08.28l-.04.16-.04.12-.08.28-.04.12c-.06.2-.2.6-.26.7l-.08.12c-.11.17-.19.29-.18.36.02.08.61-.15.66-.17.29-.12.74-.32.89-.4.84-.48.81-.9.7-1.89-.11-1.09-.27-2.16-.44-3.21-.18-1.05-.34-2.17-.48-3.25-.28-2.08-.61-4.53-.89-6.06-.05-.29-.1-.61-.12-.92-.02-.23-.04-.46-.08-.72-.06-.4-.11-.72-.22-.98-.14-.32.28-1.73.5-1.77.02 0 .38.71.47.89.02.05.21.41.21.41.09.13.19.33.25.49.31.71.82 1.91.8 2.28-.01.24-.43-.21-.43-.21-.11-.13-.31-.37-.42-.39-.08-.01 0 .71.01.86.02.24.07.63.12 1 .02.17.16.88.24 1.28.11.57.35 2.24.52 3.49.05.36.18 1.24.2 1.36.09.46.19 1.01.24 1.44.05.35.09.64.12.97.05.44.07.69.08.72.05.3.08.68.08 1 0 .16.05 1.03.05 1.03.04-.04-.09 1.07-.13 1.22-.07.3-.15.66-.28.88-.3.49-.65 1.08-.89 1.21-3.56 1.89-13.24 3.92-16.48 1.32-.31-.25-1.04-.98-1.1-1.42l-.08-.18-.08-.2-.08-.2-.08-.24c-.07-.17-.14-.37-.18-.56-.11-.52-.32-1.49-.32-1.61 0 0-.15-1.24-.2-1.65-.1-.78-.19-1.71-.24-2.49-.04-.71-.31-3.52-.49-5.34-.12-1.21-.24-2.54-.48-3.61l-.24-1c-.11-.5-.25-1.12-.24-1.32 0-.17.35-1.13.45-1.31.3-.52.9 3.01.92 3.16.26 1.91.46 3.65.6 5.5.25 3.13.69 8.59 1.72 10.12.18.27.47.53.79.76q.09.05.24.17c.05.04.15.12.21.15l.3.16c.31.27 2.55.83 2.82.43.1-.15.3-.36.44-.49l.22-.17.28-.32c.15-.19.29-.36.45-.53.16-.18.47-.51.5-.69l.04-.16.04-.12c.05-.16.08-.29.12-.44.11-.45.25-1.09.2-1.5v-.82q0-.06-.04-.56l-.08-1.08c-.03-.47-.11-1.04-.2-1.6-.04-.26-.08-.51-.12-.76l-.04-.2-.04-.24-.04-.28-.04-.18c-.02-.16-.12-.82-.12-.82-.06-.33-.11-.65-.16-1 0-.03-.19-1.05-.28-1.57-.06-.35-.2-1.32-.28-1.97-.09-.67-.18-1.37-.28-2.01l-.04-.2-.04-.28c-.03-.21-.08-.6-.08-.6-.07-.45-.14-.82-.12-.84 0-.02.13-.42.16-.56.05-.21.12-.49.21-.59.19-.21 1.26 2.23 1.39 2.51l.14.24c.08.15.14.3.2.44.09.23.29.75.28.92-.03.42-.37.05-.5-.09-.15-.16-.37-.4-.55-.34-.12.04.16 1.32.2 1.47l.04.24.04.28.04.24.04.16.08.32.49 2.77c.1.52.21 1.07.24 1.55 0 .1.2 1.58.24 1.9m19.82-11.66c-.11-.39-.81.02-.79.34.01.18.47.64.62.68.46.12.33-.77.16-1.02m26.73.33c-.41-.1-.79-.1-.92.41-.06.23.73.71.91.8.73.39.19-1.11.01-1.22m-52.79 3.75c-.39-.59-.28-1.72-.18-2.49.05-.37.33-1.85.6-1.68.02 0-.06.33-.07.39 0 0-.05.36-.08.56-.09.68-.2 1.46-.16 1.69.07.43.15.84.44 1.04.22.16.45.03.54-.16.05-.1.27-.57.29-.56.18.06-.23 1.23-.29 1.32-.27.51-.96.46-1.09-.12m-11.62-3.64c.38-.06 1.45.91 1.67 1.15.2.22.42.46.67.8q.09.15.16.26c.09.13.29.43.34.42s.05-.72.05-.9c0-.37.03-.87.12-1.29.1-.43.29-1.24.67-1.3.43-.08.81.45.91.78.07.25.03.8-.28.68-.08-.03-.17-.14-.22-.2-.1-.12-.21-.19-.34-.28-.29-.19-.45.13-.48.36l-.04.42.04.28c.02.47.04.82.04 1.25 0 .2-.14 1.84-.44 1.84-.01 0-.25-.46-.29-.53-.14-.27-.28-.55-.38-.72-.23-.37-.51-.72-.83-1-.25-.22-.72-.42-1.15-.6-.49-.21-.3-.98-.2-1.41m56.14 2.7c.08-.19.1-1.39.09-1.86 0-.27.1-.74.2-1.04.11-.34.57-1.02.87-1.16.3-.15.43-.1.67.03.35.19.76 1.55.2 1.56-.02 0-.29-.27-.42-.39-.15-.15-.33-.33-.53-.29-.3.05-.44.3-.51.58-.04.18-.04.71-.04.92 0 .29-.03.87-.08 1.61-.03.43-.23 1.78-.47 1.83-.05.01-.18-.33-.22-.46-.06-.18-.16-.35-.26-.5-.22-.34-.68-1-.74-1.08-.27-.34-.49-.61-.87-.61-.24 0-1.02-.5-1.09-.7-.15-.42-.14-1.34.57-1.1.27.09.81.55 1.2.88.16.14.31.32.63.72.13.17.26.36.39.55.07.1.38.56.42.54m-14.5.83.24-.16.14-.08.5-.32.28-.16q.2-.11.28-.16t.26-.16.26-.16c.23-.16.61-.36.91-.52.36-.19.72-.39 1.07-.6.3-.18.63-.36.93-.52.41-.21.78-.42 1.17-.64.17-.1.35-.19.52-.28.1-.05.37-.21.54-.32.25-.15 1.01-.59 1.12-.58.27.05-.19.85-.2.87-.63.62-3.31 2.02-4.47 2.6-.33.16-.78.42-1.17.64l-.54.32-.24.16-.14.08-.16.08c-.36.2-.85.49-1.09.64-.02.02-.41.27-.43.21-.07-.15.02-.91.21-.94m-4.56-2.09s-.12-.14-.19-.21c-.04-.04-.15-.16-.18-.21-.13-.17-.24-.39-.29-.61-.09-.41.34-1.26.55-1.58.11-.16.48-.4.7-.43.16-.02.49.23.48.42-.01.39.09 2.27.16 2.33l.13.09s0 0 .2.16c.16.13.32.29.39.51.15.45-.01.88-.43.53-.16-.13-.85-.63-1-.57-.09.04-.4.39-.6.61-.05.05-.18.2-.26.31l-.24.2c-.17.17-.34.33-.52.48l-.15.1-.3.25-.24.16c-.18.2-2.1 1.08-2.24 1.02-.27-.1 1.02-.95 1.02-.95.19-.13.4-.27.57-.41q.11-.09.21-.15c.12-.08.24-.16.37-.24.39-.27 2.03-1.42 1.85-1.81m-18.68 2.81c.18-.27 6.19-2.46 6.19-2.46.2.05-.14.7-.29.78 0 0-.71.27-1.01.38q-.16.06-.36.14c-.18.07-.49.2-.57.22l-.12.04-.24.08c-.13.04-.3.1-.38.14-.51.25-3.49 1.46-3.5 1.46-.14-.02.05-.76.3-.78m-24.76 1.18c.04-.28.53-1.09.75-1.22.16-.1.76.26.93.36.29.18.72.44.92.42.03 0 .16-.23.17-.25.08-.14.16-.28.24-.4.12-.17.28-.34.47-.42.15-.06 1.32.84 1.43 1 .23.32-.72 1.33-.89 1.28s-.55-.29-.75-.42c-.24-.16-.55-.37-.7-.31-.04.01-.25.33-.33.45-.13.2-.36.54-.42.58-.24.17-1.81-.9-1.82-1.06m69.46-4.4c-.2-.74.35-1.87.89-2.21.23-.15.52-.03.7.09.24.16.35 1.73.39 2.44.01.17.13.28.25.38.13.11.26.22.31.28.19.25.11.53.02.86-.04.13-.42-.17-.46-.21-.05-.04-.45-.28-.5-.29-.01 0-.62.55-.88.79-.57.52-1.15 1.04-1.8 1.48-.77.51-3.96 2.44-4.69 2.22-.04-.01.41-.37.42-.38.04-.03.33-.22.49-.31.09-.06.2-.11.3-.16q.11-.05.3-.16c.28-.16.28-.16.28-.16q.12-.08.26-.16c.76-.43 1.48-.89 2.2-1.37.66-.44 1.31-.9 1.88-1.42.18-.16.74-.67.48-.83-.36-.23-.66-.49-.85-.88m-27.36 5.52c.07-.27.42-.83.68-1.24.1-.16.67.25.79.34.24.17.6.42.77.46.09.02.33-.43.38-.54.09-.18.32-.6.5-.62.33-.04 1.28.91 1.45 1.16.25.37-.63 1.46-.85 1.39 0 0-.53-.41-.68-.53-.25-.21-.55-.46-.71-.45 0 0-.31.55-.35.62-.14.25-.31.58-.4.6-.32.08-1.46-.9-1.59-1.19m-45.13 1.15c-.06-.8-.11-1.43 0-1.97s.34-1.78.2-2.05c-.2-.41-.39-.77-.63-1.12l-.16-.26-.16-.24-.18-.21-.08-.13-.24-.2c-.05-.07-.25-.07-.4-.07s-.15 0-.28-.06c-.24-.1-.52-.23-.68-.36-.31-.25-.25-.88-.02-1.22.26-.36 1.67.8 1.8.93.2.2.39.49.56.77.16.25.48.78.61.81.1.02.1-.71.1-.75 0-.42 0-.86.08-1.26.09-.46.24-1.11.67-1.22.31-.09.56.16.7.31.17.19.28.58.17.87-.08.2-.11.28-.28.15-.13-.1-.36-.28-.41-.31-.5-.27-.6.13-.6.5 0 .3-.03.83-.04 1.14-.01.24-.04.77-.08 1.04l-.04.28c-.02.31-.16 1.22-.22 1.61-.11.71-.2 1.26-.14 1.89.03.34.26.86.54.9.21.03.34-.05.4-.22.04-.12.23-.6.26-.55.25.57-.3 1.63-.74 1.69-.27.04-.67-.46-.71-.7m59.48-.9c.05-.59.57-2.68.93-2.64.01 0-.12.39-.13.42l-.06.14c-.05.13-.09.21-.12.3-.05.15-.12.36-.16.5l-.06.24-.02.38s.11.7.28 1c.13.22.36.5.69.4.15-.04.22-.31.26-.48.02-.09.14-.55.24-.45.33.34-.39 1.74-.67 1.91-.22.14-.5-.06-.67-.18-.14-.1-.22-.3-.29-.47q-.11-.29-.14-.4l-.04-.2v-.18l-.04-.28zm13.8 1.42c-.09-.77.01-1.46.26-2.09.07-.17.48-1.14.58-1.1.12.06-.19.73-.21.78-.15.28-.27.5-.3.88-.06.63.11 1.43.67 1.45.07 0 .28-.2.32-.29.05-.1.21-.44.26-.39.36.41-.55 1.53-.88 1.61-.38.09-.61-.57-.68-.86m-43.16-1.12s.11-.11.16 0c.02.05.02.59.02.8 0 .31 0 .62.17.9.27.46 1.03-.16 1.14-.5.06-.19.04-.66.02-1.08-.02-.31.06-.63.13-.94.06-.25.27.65.28.7.04.34.08.73.22.9.17.21.79.62 1.09.54.1-.03-.17-.46-.17-.46-.09-.14-.16-.34-.21-.51-.06-.19-.33-1.65.11-1.46.01 0 .69 1.73.73 1.94.06.35-.13 1.07-.3 1.24-.28.28-.41.25-.81.08-.17-.07-.32-.15-.46-.24-.15-.1-.29-.2-.37-.17-.02 0-.26.36-.34.47-.15.22-.24.35-.52.44-.36.11-.47.05-.72-.07-.35-.17-.43-2.37-.17-2.6m-22.95 3.27c.09-.34-1.11-.98-1.51-.76-.29.16-.54.3-.59.58-.08.46 1.76.36 2.09.17m15.56-1.78c.17-.04.01.83-.02 1-.11.61-.23 1.23-.17 1.82.03.31.29.75.52.96.17.15.42.02.49-.13.03-.06.07-.22.08-.28.05-.21.07-.29.11-.38.06-.13.06.74.01.9-.08.28-.24.7-.48.8-1.52.65-1.08-3.96-.55-4.7m40.66 5.67c.23-.38-1-.9-1.38-.96-.37-.05-1.28.5-1 .84.33.4 1.87.27 2.38.12m-63.38.51c-.35-1.19.02-2.69.39-3.71.05-.15.06.31.03.41-.09.41-.17.91-.2 1.33-.04.68.02 1.15.4 1.63.12.16.32.3.52.11.03-.03.07-.17.09-.21.02-.07.12-.42.2-.34.3.34-.29 1.48-.62 1.56-.39.1-.71-.51-.81-.78m49.59.04c.04-.58-1.73-1.6-2.22-1.67-.22-.03-1.13 1.58-1.19 1.91-.06.31.02.66.24.86.27.24.54.22.92.17.51-.08.91-.34 1.27-.58.16-.11.32-.22.48-.32q.1-.07.24-.17c.09-.07.23-.18.27-.19m-3.65 2.66c-.2-.46-.38-.87-.41-1.28-.05-.65.18-1.61.38-2.15.11-.28.22-.56.36-.82.12-.22.28-.51.24-.62 0 0-1.05-.93-1.26-1.1-.32-.25-.9-.8-1.12-1.13-.15-.23-.09-1.38.05-1.66.02-.05 1.14.45 1.4.57l.14.06q.15.06.35.14c.16.07.49.21.5.22.11.06.27.26.09.34l-.31.05s-.26.06-.28.1c-.17.25 1.23 1.05 1.52 1.02 0 0 .23-.28.26-.31.11-.15.27-.38.33-.45.22-.27.43-.55.64-.83.3-.4 1.09-1.43 1.24-1.53.41-.27-.78 2.33-.87 2.46l-.18.21-.16.23c-.14.18-.46.64-.4.82 0 0 .24.16.25.17l.24.16.15.09c.18.12.35.28.5.42.34.33.63.78.74 1.33.09.44-.13 1.54-.3 1.91-.35.73-2.05 1.77-2.99 1.93-.28.05-.35.03-.6-.04-.07-.02-.26-.11-.37-.21l-.13-.08zm-49.29 2.18c-.67-.24-1.27-.58-1.71-1.05-.41-.45-.68-.85-.96-1.46-.29-.65-.38-1.6-.38-2.27 0-.86.15-1.82.4-2.71.08-.29.19-.59.28-.88.08-.25.32-.96.21-1.02-.31-.17-.59-.93-.69-1.35-.31-1.25-.02-2.89.32-4.1.11-.38.67-2.35.9-2.24.05.03-.29 1.4-.37 1.72-.17.66-.54 2.2-.44 2.57v.34c0 .05.05.42.08.55.06.31.16.58.26.84.08.2.46.67.73.66.34 0 .43-.21.54-.5.07-.18.25-.66.38-.64.1.01-.07.86-.1.96-.05.2-.11.38-.18.56-.19.44-.31.68-.76.86-.45.17-1.04 2.61-.87 3.13l-.04.52.04.38q.01.09.08.4c.06.26.16.7.2.8.22.56.49.9.85 1.3 2.16 2.35 6.48.87 8.89-.21 1.05-.47 5.68-3.08 3.88-4.22-.24-.15-.5-.32-.82-.37q-.27-.05-.57 0c-.09.01-.49.08-.52.08-.41.02-.81.01-1.17-.08-.23-.06-.89-.4-1.01-.68l-.08-.18-.06-.2v-.46l-.04-.3c-.09-.33.42-1.28.58-1.46.31-.35.78-.88 1.13-.96.17-.04.91-.23 1.01-.04l.16.06q.22.09.34.16c.16.1.31.21.46.33.25.2.44.47.61.73.35.52.74 1.21.91 1.87.17.69.2 1.33.2 2.03 0 .35-.37 1.84-.67 2.09l-.09.13c-.11.13-.34.37-.78.77l-.43.35c-.45.38-1.22.89-1.83 1.29-1.31.87-3.09 1.74-4.82 2.03-1.69.28-2.46.17-4.08-.12m42.58-19.74c0-.19.25-.89.37-1.22.1-.26.45.64.46.66l.06.16.06.16.06.12.12.28.1.28c.05.15.2.56.2.56.14.32.33.76.4.96.21.55.54 1.44.5 1.65-.05.27-.35-.13-.43-.23-.14-.18-.4-.53-.51-.55-.18-.03.12 2.07.17 2.42q.03.18.08.64l.08.64.04.28.04.32q.03.22.08.6l.04.32.04.24.04.4.04.28c.06.36.13.78.16 1.04.03.24.07.52.12.84l.04.32.04.24c.03.16.1.56.1.56.17 1.69.42 4.27.42 5.12 0 .56-.35 3.22-.86 3.21-.09 0-.04-.28-.03-.34.02-.12.07-.45.08-.56.02-.47.02-.62 0-.96-.03-.5-.19-2.2-.28-3.17-.18-1.86-.4-3.89-.69-5.62-.12-.74-.41-3.08-.59-4.5l-.02-.28-.04-.4-.04-.32-.04-.24-.04-.4-.04-.32-.04-.36-.04-.36v-.16c-.04-.35-.1-.84-.16-1.24-.06-.41-.16-1.01-.12-1.08m-.84 20.86c-.17-.38-.25-.96-.13-1.39.2-.7.49-1.71.72-1.98.14-.17-.09.75-.11.86-.07.29-.25 1.05-.16 1.2l.04.24s.09.27.1.28c.06.12.17.25.28.32.19.12.36-.03.42-.16.08-.16.19-.41.3-.4.1 0-.17.66-.18.68-.12.26-.22.48-.39.67-.12.15-.34.11-.52.05 0 0-.2-.13-.21-.15l-.16-.23zm32.42-1.69c.3-.12.61-.16.89-.02.3.15.67.33.75.34.36.04.73-.26.92-.45.11-.11.19-.23.27-.38.08-.14.19-.33.26-.36l.04.24.02.2c.03.1.11.16.2.2.23.11.45.18.69.08.08-.03.16-.37.22-.6.05-.19.21-.63.36-.68.09-.03.02.66 0 .76-.06.23-.12.45-.22.64-.06.11-.16.32-.2.38q-.11.17-.18.22s-.18.14-.18.16c0 .1-.51.09-.61.06-.13-.04-.26-.07-.32-.1-.11-.05-.28-.14-.28-.14s-.3.21-.47.34c-.16.12-.33.2-.57.25-.42.08-.61-.04-.91-.22-.34-.21-.41-.21-.87-.1-.43.11-1.01.49-1.45.78-.98.64-1.97 1.3-3.07 1.54-.37.08-.58-.06-.16-.2.29-.1.54-.23.77-.38 0 0 0 0 .26-.16.13-.08.26-.16.38-.24.24-.16.49-.32.71-.48.81-.59 2.08-1.49 2.77-1.71m-15.9 3.77q-.22-.12-.26-.15-.1-.11-.17-.15c-.12-.07-.16-.1-.22-.18-.21-.27-.4-.54-.61-.82-.16-.23-.29-.69-.34-1.01-.03-.18 0-1.5.02-2.61 0-.12-.72.35-.73.36-.2.13-.6.4-.6.4q-.11.06-.26.17s-.24.15-.37.23l-.12.08-.14.08c-.11.08-.36.24-.36.24-.88.47-1.77.94-2.66 1.42-.96.52-2.06.77-3.31 1.04-.98.22-4.25.8-4.26.8-.69-.06 2.59-1.24 2.69-1.28 1.04-.37 2.23-.8 3.03-1.31.11-.07.42-.22.61-.3q.18-.08.28-.14l.14-.08.14-.08.14-.08c.43-.23 1.5-.8 1.51-.8.92-.49 1.86-1.06 2.74-1.61.8-.49 4.14-2.81 4.02-3.53-.04-.25-.48-1.06-.75-1.57 0 0-.04-.07-.16-.26-.08-.14-.16-.28-.24-.42l-.06-.12q-.08-.18-.14-.28l-.08-.14-.14-.22c-.55-1.09-1.09-2.39-.54-3.65.02-.04.52.51.58.57.17.18.37.36.57.52.27.22.97.85.98 1.24 0 .02-.38-.05-.4-.06-.09-.02-.35-.06-.43-.03-.17.06.66 1.51.71 1.6.29.5.66 1.15.74 1.67.07.41.08.76.04 1.16-.02.16-.12 1.12-.16 1.12l-.08.24-.06.2c-.05.12-.17.26-.25.35-.02.02-.17.21-.25.3q-.06.08-.28.3l-.13.1c-.2.2-.4.37-.62.56-.27.23-.49.41-.7.67-.21.28-.22 1.04-.22 1.57s.25 1.14.52 1.42c.95.97 2.18 1.72 3.98 1.01.76-.3 2.05-.83 2.28-1.1 0 0 .46-.33.57-.4.19-.13.38-.27.56-.41.39-.31.96-.77 1.17-.96.6-.57 1.93-1.82 1.98-2.28.02-.19-.2-.48-.38-.46l-.24.06-.16.06-.12.04-.2.04-.61.08c-.45.08-1.12.12-1.47.12-.49 0-1-.38-1.3-.63-.51-.44-.37-2.03-.03-2.6.23-.39.62-.77 1.08-1.22.19-.18.79-.25 1.08-.17.67.19 1.09.44 1.52.85.2.19.38.42.55.65.15.21.45.63.49.67.27.21 2.09-1.14 2.26-1.27.24-.2.88-.67 1.04-.69.38-.05.36.29.34.66-.02.41-.04.68.1.98.19.39.59.66.95.88 1.04.6 2.29-.05 3.03-.58.25-.18.6-.82.82-1.22.2-.37.51-.79.79-1.16.16-.21.02.62-.03.72-.11.21-.29.58-.26.74.1.52 1.18 1 1.8 1.06.44.05 1.2.08 1.03-.46-.05-.17-.13-.34-.22-.48-.12-.18-.24-.36-.26-.48-.04-.24.3-1.39.46-1.42.24-.05.64 1.26.71 1.51.14.56.08 1.07-.04 1.65-.07.34-.46 1.07-.73 1.2-.35.18-.68.29-1.11.26-.67-.05-1.24-.33-1.65-.67-.18-.15-.33-.35-.45-.55-.18-.29-.37.01-.52.26-.25.41-.58.73-.99.98-.12.07-1.55.69-1.55.5h-.27c-.1 0-.39-.06-.5-.08-.28-.06-.51-.17-.73-.3-.29-.18-.51-.44-.7-.71-.1-.15-.2-.35-.25-.53-.04-.15-.21-.85-.26-.82-.68.39-1.7 1.05-2.23 1.64-.05.05-.11.75-.13 1.03-.03.43-.1.83-.26 1.12-.3.53-1.33 2-1.81 2.26-.12.07-.52.45-.7.62-.25.25-.52.49-.81.71-.57.41-1.35.98-1.72 1.19-1.23.7-3.69 1.68-5.25.58m-58.85.06c.23-.28 5.92-2.52 6.21-2.5.24.01-.3.76-.35.79-.17.1-.98.39-1.4.53-.45.15-1.19.46-1.77.7-.62.26-1.25.51-1.9.76l-.2.08-.16.06-.14.06-.18.08-.14.08c-.26.12-.27.05-.2-.24.04-.17.08-.37.24-.4m15.28 0c.55-.21 2.12-.98 3.14-1.49.08-.04 1-.45 1.53-.68q.18-.08.34-.16c.17-.08.32-.16.5-.24.21-.09.68-.3.71-.29.19.03-.08.79-.19.8-.02 0-.36.14-.36.14l-.16.08q-.17.1-.22.12c-.11.04-.33.15-.5.24l-.16.08-.2.08-.2.08-.26.12c-.14.07-.32.16-.46.22l-.16.06-.16.08-.2.08-.16.08-.32.14c-.54.23-1.06.47-1.57.74-.28.15-.62.33-.89.42-.44.15-.19-.57-.03-.7m-3.64-1.85s.33-.18.44-.24l.14-.08.28-.16.14-.08.4-.24c.49-.28.95-.58 1.41-.88.18-.12.66-.44.73-.48q.19-.11.26-.16c.12-.08.24-.16.36-.26.39-.31.81-.6 1.23-.88.6-.4 1.9-1.49 2.23-2.1.24-.45-.78-2.48-1.17-3.25-.15-.29-1.2-3.08-1.19-3.19.02-.33.22-1.39.42-1.41.13-.01 1.76 2.08 1.8 2.27.03.19-.25.09-.34.06-.26-.09-.31-.11-.42-.03-.14.1.69 1.64.78 1.79.33.57.69 1.35.79 2.09.09.64 0 1.99-.3 2.65-.88 1.98-6.68 5.91-8.88 6.56l-.24.04-.28.04-.2.04-.16.04c-.25.06-.52.11-.77.16l-.4.08-.24.04-.2.04c-.26.05-.51.1-.77.16-.45.1-.91.23-1.37.36l-.24.08-.28.08c-.21.06-.78.22-.85.18-.21-.13.57-.46.57-.46l.16-.06.32-.14.16-.06.28-.12c.58-.27 1.54-.71 1.85-.82 1.19-.42 2.55-.97 3.55-1.67" fill="#1d1d1b" fill-rule="evenodd"/></svg>