<svg viewBox="0 0 77.91 28.93" xmlns="http://www.w3.org/2000/svg"><path d="m20.64 2.48c2.06-.9 4.24-1.79 6.45-2.47.38-.12-.13.66-.2.72-.05.04-.27.1-.39.13-.24.06-.44.14-.65.22-.7.29-1.42.57-2.18.78l-.28.14-.16.04-.16.08q-.1.05-.28.12l-.2.08q-.2.08-.36.14c-.23.09-.46.17-.69.26l-.16.06-.14.06-.14.06-.16.06-.16.06-.24.12c-.22.09-.25.05-.18-.18.04-.15.14-.47.28-.48m25.71 1.35c-.05.32.57 1.05.86.86.22-.15-.05-1.01-.17-1.14-.06-.07-.54.2-.69.28m27.84 1.02c.15-.85-.52-1.75-1.11-1-.25.32-.05.53.24.72.15.1.82.53.87.28m-65.46-.68c.09-.13 3.29-1.48 4.14-1.81.15-.06.38-.16.61-.26l.32-.14c.39-.16.77-.32 1.17-.46.26-.09.52-.19.79-.3.43-.18.92-.35 1-.31.09.04-.12.75-.3.77-.13.02-1.61.65-2.26.94-.16.07-.29.13-.48.18s-.37.14-.52.22l-.32.14-.16.04-.14.06c-.12.06-.19.09-.26.09q-.05 0-.17.13l-.15.05q-.07.02-.3.14s-.43.2-.63.28l-.28.14-.12.04-.16.06q-.2.09-.24.1c-.09.03-.29.11-.36.14-.36.16-.86.37-1.09.52-.3.19-.33.09-.28-.16.04-.22.11-.58.22-.6m16.52-.78s-.25-.14-.4-.23c-.13-.08-.21-.13-.37-.05-.17.09-.69.44-.69.55 0 .43 1.24.45 1.54.38.25-.06 1.11-.28 1.13-.2.05.19-.16.52-.3.58l-.14.08-.2.08c-.16.06-.37.14-.48.18l-.2.06-.4.12-.16.06-.16.06c-.09.04-1.58.65-1.43.4.18-.29.55-.9.47-1.01-.28-.39 0-.95.29-1.25.22-.22.62-.62.91-.73.3-.11.56-.08.74.13.13.15-.06.77-.14.8m5.37 2.87c-.26-.36-.32-.94-.31-1.49.01-.46.55-2.4.79-2.65.1-.1-.15.89-.18 1-.1.33-.26.92-.2 1.24.09.51.17 1.03.43 1.28.15.14.47.31.62.05.02-.03.07-.24.08-.28.05-.18.09-.36.26-.36.1 0-.03.6-.06.68-.08.24-.17.48-.3.68-.34.5-.9.37-1.13-.16m-27.68.72c-.12-.31-.05-.68.07-1.02.04-.11.36 0 .46.04q.2.07.32.14c.09.06.18.11.24.12l-.02.16-.04.12-.04.24v.4c.04.25.04.26.03.33-.01.14-.45-.02-.52-.05-.2-.08-.37-.3-.5-.48m59.36-2.05c-.03-.3.08-.69.17-.99.07-.24.79.17.84.19.19.12.39.26.56.41.35.32.64.65.94 1.03.14.17.28.36.4.55.05.09.41.67.43.32.04-.83.19-2.79.19-2.79.15-.45.8-1.49 1.41-1.2.37.18.92 1.28.42 1.61-.06.04-.38-.24-.46-.32-.18-.15-.39-.34-.52-.34-.25 0-.42.21-.51.42-.04.09-.06 1.05-.06 1.47l-.04.26-.04.46v.5c-.03.4-.16 1.92-.52 1.86-.02 0-.08-.2-.09-.21q-.1-.35-.14-.44s-.22-.35-.32-.5c-.23-.34-.54-.81-.73-1.02-.31-.34-.42-.36-.92-.49-.43-.11-.79-.43-1.01-.76m-11.16 2.61c1.5-.99 7.97-4.73 8.17-4.74.15 0-.15.8-.19.86-.17.25-8.22 4.86-8.22 4.86-.1 0-.05-.93.23-.98m-4.85-2.22-.17-.21c-.14-.2-.25-.42-.3-.68-.14-.73.64-1.8 1.19-1.93.26-.06.43.21.51.38.11.25.14.55.12.88l-.08.84c-.03.21-.06.46.07.56.25.18.82.6.86.85.04.21-.05.5-.11.68-.03.08-.56-.3-.64-.35-.22-.16-.41-.3-.66-.38-.07-.02-.44.4-.51.48-.12.15-.42.51-.43.52t-.16.16s-.23.21-.31.28c-.1.09-.27.23-.61.48-.79.63-1.95 1.19-2.97 1.53-.59.2.85-.83.91-.86.22-.13.86-.59 1.26-.89.57-.42 2.38-1.76 2.03-2.33m-27.85 3.6c-.12.02-.54.45-.57.54l-.15-.05s.11-.31.11-.31c.06-.17.13-.32.2-.48.13-.28.31-.52.54-.7.55-.44 2.84-.37 3.3-.03.31.23-.86 1.56-.93 1.64-.38.38-1.53.8-2.11.91-.18.03 1.42-1.13 1.57-1.24.81-.59-1.57-.48-1.95-.29m48.43 1.91c-.04-.17 1.31-.97 1.57-1.13.66-.39 1.29-.79 1.92-1.2.87-.57 3.05-2.15 3.19-2.49.04-.1-.33-.4-.5-.53-.22-.17-.43-.37-.51-.67-.22-.8.43-1.88.95-2.19.21-.13.54.02.66.15.31.34.36 1.27.41 2.07.03.43.13.53.48.87.16.16.32 1.04.01 1.04-.04 0-.23-.16-.34-.24-.13-.11-.31-.2-.46-.29-.11-.06-.65.49-.81.65-.22.23-.49.45-.75.66-.54.45-1.31 1.09-1.71 1.31-1.47.81-3.13 1.71-4.12 1.97m-56.35-3.4c.12-.11.01.82 0 .99-.06.55-.05.95.18 1.39.11.2.32.44.6.34.09-.03.15-.18.18-.28.04-.14.14-.48.2-.47.57.1-.4 1.63-.55 1.73-.44.28-.94-.76-.98-1.1-.08-.89.06-1.89.37-2.6m34.74 3.26c-.02-.2.55-1.21.73-1.26.17-.05.55.23.74.37.25.18.58.42.87.41.02 0 .27-.51.31-.58.04-.08.1-.17.16-.26l.24-.3c.05-.14.52.21.52.21.13.1.28.21.4.32.26.24.58.53.63.71.11.36-.67 1.42-.83 1.33-.13-.08-1.25-.98-1.25-1-.03-.34-.5.6-.5.6-.17.33-.32.63-.51.66-.22.04-1.46-.98-1.51-1.21m14.53 1.11-.04-.12q-.05-.16-.08-.28c-.08-.36-.06-1.22 0-1.2l.04-.2.08-.32c.05-.19.1-.35.16-.52.1-.28.37-.96.5-1.04.04-.02-.25.8-.26.84-.15.43-.2 1.02-.2 1.4 0 .29.17.63.3.82.04.06.78.71.78.27 0-.13.27-.87.36-.83.42.17-.46 1.82-.7 1.9-.33.12-.71-.4-.95-.72m13.68.44c-.11-.55-.16-1.17 0-1.73.08-.27.58-1.67.79-1.65.15.02-.3.9-.31.9-.1.18-.36.81-.24 1.07l.04.32c.01.08.05.21.08.28.07.19.17.38.32.49.16.13.38.01.47-.11.02-.02.12-.18.14-.22.06-.13.16-.34.18-.34.19-.02-.32 1.3-.33 1.34-.27.7-1.02.11-1.14-.35m-67.95.96c-.08-.64-.15-1.28 0-1.97.12-.55.32-1.43.26-1.56-.23-.55-.62-1.27-1.04-1.66-.22-.21-1.05-1.03-.66-1.55.03-.04.67.49.82.62.14.12.27.32.39.49.11.16.31.46.44.46l.02-.32-.04-.62v-.2c0-.39.04-.73.12-1.11.06-.27.21-.92.42-.94.32-.04.52.04.74.23.21.19.49.95.09 1.12-.04.02-.21-.12-.29-.19-.14-.11-.34-.22-.54-.25-.18-.02-.18.89-.18 1.06l.04 1.57c0 .56-.02 1.22-.2 1.85-.17.6-.31 1.49-.1 2.09.1.27.47.87.8.59.06-.05.09-.19.11-.31 0-.04.09-.47.09-.47.16-.27.16.52.15.59-.19 1.25-.88 1.7-1.45.48m4.05.4c0 .08-.06.58-.1.84-.04.21.04 1.45.04 1.45.04.11.06.18.1.26.06.12.19.36.32.4.28.1.34.03.43-.22.05-.14.15-.45.24-.39.07.06.12 1.87-1.04 1.45-.26-.1-.5-1.1-.53-1.46-.02-.21.24-2.3.54-2.33m54.09 4.56s-.18-.53-.23-.52c-.07.01-.27-.08-.55-.21-.19-.09-.77-.23-.93-.12-.39.26-.71.47-.77.58-.34.65 2.11.43 2.48.27m-13.86.71c.22-.45-1.96-1.65-2.3-1.59-.2.04-1.12 1.75-1.15 2.09s.22.68.44.8c.75.42 3.02-1.12 3.01-1.31m-14.61-.46c-.36-.82-.98-1.51-1.59-2.1-.7-.69-1.65-1.45-2.5-2.13-.88-.7-1.73-1.45-2.54-2.23-1.14-1.1-4.35-4.46-4.41-4.71-.07-.26-.09-1.22.05-1.54.02-.04.71.38.78.41 0 0 .38.2.6.32l.14.08q.19.11.28.16c.15.09.28.16.45.24l.26.16.3.16c.26.14.86.49.89.64.04.17-.32.12-.42.1-.22-.03-.98-.15-1.01 0-.06.27 7.98 7.42 7.98 7.42.98.68 2.02 3.49 1.46 4.97l-.21-.05-.05-.14-.04-.36q-.05-.46-.08-.56c-.07-.21-.25-.77-.34-.84m11.56-1.61s-.4-.36-.65-.57c-.22-.19-.46-.39-.66-.58-.2-.2-.4-.45-.61-.68-.08-.1-.2-.18-.32-.25-.14-.09-.22-.16-.26-.36-.08-.37-.11-1.06.1-1.49 0-.02 2.26.88 2.51 1.03.19.11-.02.25-.13.27-.12.03-.48.11-.48.14-.02.17.42.49.58.6.74.52.85.6 1.35-.14.3-.45.66-.9 1-1.31.33-.4.71-.85.98-1.28.12-.18.11.31.1.36-.04.14-.08.27-.12.4-.15.49-.3.97-.47 1.25-.02.03-.21.31-.32.46l-.24.32c-.17.24-.48.68-.5.86 0 .03.29.22.38.28.16.1.31.21.46.32.27.19.47.4.67.66.23.32.41.68.46 1.14.06.56-.18 1.52-.42 1.89-.51.76-2.01 1.73-3.15 1.83-1.39.12-1.3-1.82-1.11-2.95.06-.37.19-.74.32-1.04.07-.15.26-.6.26-.6.1-.19.19-.37.26-.56m-17.91 4.32.04-.24v-.36c.02-.22.1-.66.16-.98.06-.35.2-.76.32-1.12.04-.12.08-.26.12-.4.05-.17.12-.35.18-.52.11-.28.37-.98.49-1.02.13-.05-.16 1.23-.18 1.34q-.03.13-.1.32c-.05.13-.11.29-.14.4-.11.4-.25.88-.28 1.17-.08.73.2 2.08.75 2.35.3.15.65-.84.75-1.12l.19.03.05.19c.01.09-.01.24-.04.4-.05.27-.12.53-.2.76-.11.3-.56 1.13-.95 1.02-.75-.2-.98-1.34-1.15-2.21m10.27-18c.07-.22.41-1.23.53-1.18.25.11 1.68 4.1 1.81 4.67.07.3-.47-.15-.52-.21-.12-.16-.42-.52-.51-.52-.1 0 .18 2.31.22 2.7l.24 1.81.04.28.04.28.04.4.04.32q.06.38.08.52c.3 2.54.7 5.91.85 7.53.05.56-.18 4.08-.83 4.17-.09.01 0-.34.02-.41.11-.45.08-1.02.04-1.61-.07-1.1-.15-2.35-.28-3.37-.08-.59-.19-1.54-.28-2.41-.1-.91-.23-1.85-.36-2.73-.07-.42-.11-.8-.16-1.2-.05-.46-.11-.97-.16-1.36l-.04-.24-.04-.28-.04-.32-.04-.24-.04-.44-.04-.36c-.03-.3-.12-1.09-.12-1.09-.16-.99-.57-4.43-.48-4.7m33.72 20.1c.29-.04.61-.23.78-.41.07-.07.18-.23.23-.32.06-.11.28-.51.34-.48l.05.15-.04.22c0 .11.09.17.18.24.19.15.41.15.69.12.12-.02.21-.43.26-.64.05-.22.21-.63.38-.66.24-.05-.07.95-.13 1.14-.15.43-.32.77-.67 1-.18.12-.33.15-.56.08l-.2-.04-.18-.08c-.14-.07-.21-.11-.3-.08 0 0-.21.13-.21.15q-.12.14-.18.18c-.16.11-.31.18-.53.25-.38.12-.67-.04-.93-.18-.23-.13-.49-.27-.85-.14-.35.13-1.46.84-2.3 1.38-.81.52-1.66.99-2.62 1.08-.1.01.27-.28.32-.3.15-.05.28-.13.42-.22.28-.17.83-.51.91-.56.51-.34 1.03-.68 1.51-1.06.47-.37.95-.71 1.52-.99.26-.13.64-.3 1.01-.26.15.02.32.11.42.18.21.13.43.27.71.22m-37.66-1.43c.49-.5 1.01-1.07 1.26-1.8.36-1.08-.3-5.38-.71-7.99-.22-1.44-.51-3.31-.64-4.38l-.04-.44-.04-.4-.04-.32-.04-.24-.08-.64-.04-.52-.04-.24c-.04-.32-.1-.7-.16-.89-.06-.17-.17-.59-.04-.76l.08-.24.04-.16.04-.12c.08-.22.15-.44.28-.61.03-.04.4.76.45.86.12.26.54 1.17.54 1.17.1.21.24.48.32.66s.26.58.28.62c.06.12.54 1.18.16 1.14-.1 0-.29-.23-.41-.37-.13-.16-.35-.41-.52-.41l.02.36.04.56c0 .11.06.49.08.68q.04.34.08.6l.04.24.04.24.04.24.04.32.04.28c.03.17.08.48.08.48s.09.49.12.68c.02.14.08.53.12.8.28 1.92.73 5.11.73 6.08s0 2.19-.32 2.99c-.34.84-.77 1.9-.95 2.17-.83 1.24-2.03 2.29-3.55 2.83-1.56.56-3.52 1.13-5.21 1.32-.22.02.09-.31.14-.34.04-.03.38-.15.58-.22.03-.01.38-.17.57-.26.23-.1.39-.18.62-.28.81-.35 1.76-.75 2.46-1.12.66-.35 1.28-.77 1.88-1.2.32-.23.68-.49.92-.69.09-.07.24-.22.34-.33.09-.09.38-.36.38-.36m-15.8 5.34c-.34-.36-.17-.94 0-1.36.08-.22.17-.4.28-.58.17-.28.34-.55.2-.78l-.14-.08c-.19-.12-.24-.15-.28-.4-.09-.56 1.07-1.69 1.53-1.79.15-.03.51.22.59.32.15.21-.1.6-.23.8-.08.11-.33-.07-.37-.1-.11-.1-.21-.2-.33-.17-.25.05-.57.28-.52.5.03.16.57.28.73.3.06 0 .49-.23.77-.38.17-.09.55-.3.58-.29.2.05-.35.75-.39.79-.01.01-.24.17-.33.23-.15.1-.31.21-.46.32-.43.3-.96.71-1.23 1.16-.11.18-.1.56.07.66q.17.09.39.17h.77l.28-.04c.12-.02.2-.04.36-.08s.35-.1.52-.16c.24-.08.65-.29.97-.44.31-.15.58-.34.83-.55.18-.15.82-.68.83-.68.17.03-.78 1.23-.83 1.29q-.24.21-.25.22c-.35.61-3.74 1.98-4.34 1.14m35.57-.69q-.11.14-.19.14c-.22 0-.88-1.09-.99-1.37-.13-.35-.25-.8-.28-1.24-.01-.18.01-.68.04-1.12 0-.14.05-.87-.02-.86-.11 0-.38.2-.52.3s-.41.29-.46.32c0 0-.32.21-.49.32s-.33.21-.5.32c-.69.42-1.78 1.08-2.18 1.28-1.69.85-2.98 1.39-5.21 1.79-.52.1-1.19.21-1.61.32-.42.1-1.09.27-1.37.32-1.48.27 1.3-.91 1.45-.96.78-.28 1.86-.66 2.42-.95.21-.1.65-.32.65-.32l.18-.08.38-.22c.37-.18 1.08-.54 1.19-.58 1.35-.6 2.78-1.48 4-2.29.28-.19.56-.37.85-.56 0 0 .24-.16.34-.24l.23-.17q.18-.14.43-.31l.12-.08q.07-.04.24 0c.1.02.17.01.24-.1.21-.36.44-.6.8-.9 1.63-1.35 1.7-1.53.44-3.42-.43-.65-.78-1.37-1.05-2.17-.05-.14-.11-.32-.16-.44l-.24-.48-.06-.16c-.06-.18-.01-.46.04-.76q.05-.29.08-.4t.09-.41c.04-.26.38.25.38.25.07.11.17.22.27.31l.71.63c.2.2.65.67.67.71.03.04.22.3.14.38-.03.02-.22-.02-.3-.03-.24-.05-.31-.06-.54 0-.15.04.27.72.3.75.08.12.16.29.24.44.02.04.16.27.24.4.28.45.67 1.1.75 1.65.1.76.06 1.47-.1 2.29-.11.57-.64 1.1-1.04 1.49-.2.2-.54.53-.63.6-.26.18-.47.43-.71.72-.16.19-.28 1.58-.14 1.69l.04.24.04.16c.05.17.11.33.18.48.03.07.11.18.16.26.08.11.19.29.23.35.18.33 1.15.81 1.59.89q.21.04 1.05.04c.07 0 .48 0 .46.02l-.02.14c-.02.07.13-.2.13-.2.01-.02.33-.11.39-.13q.36-.08.37-.09c.06-.05.34-.14.47-.19.35-.11.63-.28.93-.46l.52-.32q.16-.11.28-.17c.81-.44 3.9-3.14 4.14-3.93.07-.23-.11-.47-.23-.58-.05-.04-.4.07-.55.11-.17.05-.38.09-.57.12-.65.11-1.33.16-1.86.16-.23 0-.88-.35-1.22-.53-.55-.29-.37-1.95-.19-2.42.1-.27.54-.83.93-1.32.15-.19.91-.5 1.12-.39l.24.04.2.04c.07.02.17.06.26.1.24.1.47.26.7.41.29.19.53.48.74.74.11.14.23.28.33.42.07.09.3.41.31.41.54.01 1.79-.95 2.29-1.35.19-.15.87-.65.98-.65.4-.01.37.31.34.6-.04.43-.06.71.1 1.04.18.38.59.69.97.86.12.05.27.11.4.14l.24.04h.81l.2-.04.2-.04c.07-.02.28-.14.4-.2.23-.12.48-.3.73-.46.22-.15.78-1.21 1.17-1.93.04-.07.62-.88.63-.38 0 .23-.16.53-.26.7-.12.21-.18.43-.16.68.04.55 1.53 1.02 2.2 1.02.52 0 .73-.18.57-.66-.02-.05-.14-.25-.22-.38-.13-.21-.24-.39-.22-.58.03-.28.22-1.09.39-1.24.33-.28 1.13 2.25.86 2.52l-.04.28-.04.24c-.01.05-.08.25-.12.36-.09.24-.22.44-.35.64-.18.27-.5.4-.84.51-.49.16-1.14 0-1.51-.18-.26-.12-.51-.32-.75-.52-.11-.1-.21-.19-.36-.42l-.12-.22c-.07-.01-.43.48-.61.72-.2.27-.46.5-.75.68-.38.25-.86.48-1.43.54-.6.07-1.12-.05-1.57-.26-.7-.33-.93-1.16-1.2-2.1-.04-.16-.89.54-.89.54s-.35.27-.51.39l-.12.08-.13.09c-.29.23-.73.58-.75.76l-.04.48c-.02.31-.06.73-.08.88-.02.17-.14.58-.24.64l-.06.14-.08.16c-.07.13-.16.26-.25.37l-.16.2c-.08.1-.16.21-.23.31-.24.33-.59.8-.93 1.02-.15.1-.95.83-1.4 1.25-.5.46-1.08.85-1.67 1.24-.73.48-1.54.76-2.46 1.06-.63.21-1.36.16-1.98.04-.35-.07-.69-.22-.97-.38-.07-.04-.31-.21-.25-.37.08-.11.14-.2 0-.09m-51.28 2.24c-1.92-.71-3.11-1.81-3.57-3.95-.16-.76-.2-2.07 0-2.77l.04-.2.04-.28c.03-.15.08-.35.12-.52.07-.29.16-.65.24-.92.08-.29.21-.56.34-.81.14-.26.36-.68.38-.8.01-.08-.1-.22-.15-.27q-.15-.16-.19-.23c-.13-.19-.23-.42-.3-.66-.09-.3-.15-.6-.2-.92l-.08-.58.04-.34q.03-.17 0-.36c-.06-.56.31-1.91.52-2.57.22-.64.48-1.44.63-2.01l.18.05.05.23c0 .23-.06.41-.12.6-.09.26-.19.56-.24.8-.18.79-.38 1.7-.44 2.37-.09.93.25 2.55 1.01 2.67.21.04.45-.27.52-.42.02-.04.06-.24.08-.36.03-.18.08-.45.19-.5.61-.26-.3 2.02-.33 2.08-.1.19-.24.31-.42.42-.26.14-.35.2-.48.44-.43.78-.62 1.61-.85 2.61-.13.59-.06 1.63.16 2.29.55 1.64 1.1 2.26 2.56 2.99.56.28 3.49.73 3.62.25.12-.45.32-1.2.35-1.44.09-.86-.15-2.01-.44-2.73-.28-.7-.73-1.79-.87-2.03-.18-.3-.37-.62-.57-.9-.17-.23-.51-.68-.54-.73-.08-.14.1-1.14.28-1.2.12-.04.63.63.71.74.11.16.21.29.28.44 0 0 .28.47.38.62.51.81.89 1.93 1.09 3.01.13.69.19 1.62.12 2.39-.02.23-.1.59-.16.86-.06.26-.19.85-.14.92.07.1 1.58-.32 1.65-.34.45-.15 1.35-.45 1.45-.5 1.13-.5 4.33-2.26 4.84-3.15.22-.38-.89-.7-1.25-.76-.3-.05-.69-.11-.93-.14-.51-.07-1.26-.17-1.49-.22-.61-.12-1.32-.28-1.9-.48-.68-.24-.37-1.3 0-1.74.04-.05.58-.29.84-.41.33-.15.68-.3.99-.48.34-.19 1.01-.62 1.51-.93.36-.23.81-.79.95-1.24.23-.67-.26-3.82-.56-5.78-.15-.97-.28-1.77-.44-2.77-.14-.85-.43-2.64-.36-2.85l.04-.2s.09-.24.1-.28c.07-.18.14-.37.19-.58.16-.62.85 3.2.88 3.35.05.27.12.68.16.84.08.35.13.63.16.94.07.6.19 1.41.32 2.15q.06.29.08.48l.04.28.04.36c.06.39.13.81.2 1.2.11.6.26 1.39.36 1.77.28.97.58 1.88 1.16 2.54.2.23.96.94 1.29.88.01 0-.46-1.03-.48-1.06-.21-.44-.4-.88-.49-1.44-.09-.66-.03-1.28.09-1.9.03-.17.29-.77.46-1.03.13-.22.16-.28.24-.38l.09-.13c.07-.09.15-.17.15-.21.02-.14 1.13-.85 1.37-.92.63-.19 1.36-.4 1.98-.38 1.12.04 2.75.48 3.54 1.15.36.3-2.16-.17-2.23-.19-.95-.33-3.84 1.24-4.76 1.73-.47.26.56 2.45.75 2.86.15.32.9 1.05 1.18 1.25.18.13.5.31.79.48.08.05.24.1.36.14.13.04.18.06.28.08l.28.06c-.07.11.81-.16.81-.16.32-.11.58-.25.85-.4.42-.24 1.35-.91 1.99-1.38.15-.11.31-.22.42-.32l.2-.18q.08-.08.59-.55.12-.1.2-.18c.11-.11.27-.27.31-.3.38-.24-.39 1.67-.68 1.86 0 0-.42.43-.56.58l-.22.21-.24.2c-.07.08-.13.13-.2.2-.09.08-.46.35-.67.5-.12.08-.67.49-.67.49-.33.36-4.17 2.11-4.67 1.45l-.32-.04-.2-.04s-.31-.08-.49-.12c-.14-.03-.59-.24-.89-.38-.56-.26-1.03-.82-1.33-1.35-.19-.33-.36-.68-.51-1.06-.07-.2-.34-.95-.44-.94-.05.01-.13.3-.17.42-.05.17-.11.33-.18.48-.11.23-.4.67-.59.82-.23.17-1.44 1.23-1.44 1.23-.02.08 1.41.28 1.59.3.52.07 1.09.16 1.57.34.9.33 1.02 1.82.75 2.77-.45 1.55-3.61 3.37-5.1 3.99-2.11.88-4.93 2.06-7.5 1.2" fill="#1d1d1b" fill-rule="evenodd"/></svg>