<svg viewBox="0 0 93.74 25.99" xmlns="http://www.w3.org/2000/svg"><path d="m62.21 1.73c.07.26.34.53.56.66.6.37.39-.78.2-1.06-.18-.25-.84.2-.76.4m27.6-.23c-.39-.27-.91-.02-.96.41-.03.23.73.71.93.8.68.32.16-1.02.03-1.22m-77.31 3.15c-.11-1.12-.05-1.93.34-2.93.19-.5.34-.74.18-.04-.12.52-.28 1.26-.28 1.65 0 .34.23.76.41 1.1.11.2.51.05.59-.07.03-.04.07-.18.09-.23.03-.1.12-.44.22-.4.15.06-.12 1.67-.79 1.75-.38.04-.67-.52-.76-.82m24.14-1.83c-.22-.2-.07-1.41.34-1.3.15.04.21.08.32.16t.24.12l.39.25q.08.07.29.19c.35.2.64.58.89.88.16.2.73.93.77.93.11.02.06-1.07.06-1.14-.01-.32-.03-.75.08-1.09.14-.4.38-1.13.61-1.2q.23-.07.46 0l.14.07c.13.13.14.14.18.14.2.02.43.7.47.92.04.21-.23.48-.38.43 0 0-.24-.21-.28-.25-.13-.11-.33-.29-.42-.33s-.41-.04-.44.06c-.02.06-.02.6-.02.64v.44c0 .39-.1 2.98-.48 2.98 0 0-.13-.27-.15-.32-.1-.2-.2-.4-.32-.58-.18-.27-.43-.56-.66-.83-.18-.21-.57-.65-.7-.71l-.22-.05h-.28l-.14-.06-.22-.08c-.22-.08-.37-.18-.54-.31m41.75-1.11c.51-.33 1.66.84 1.93 1.13.2.22.39.46.57.71.08.1.62.84.65.79.04-.06.04-1.16.04-1.4 0-.48 0-1 .16-1.41.19-.48.76-1.59 1.45-1.28.28.12.53.58.61.92.05.21-.14.67-.32.7-.02 0-.2-.16-.22-.18-.2-.24-.2-.24-.2-.24-.13-.12-.24-.22-.43-.25-.2-.04-.42.22-.5.36-.11.18-.11.79-.1 1.02 0 .31-.01 1.01-.04 1.49-.02.38-.15 2.31-.6 1.97l-.04-.16c-.03-.12-.06-.24-.1-.32-.02-.03-.29-.44-.41-.62-.25-.38-.57-.85-.84-1.11-.19-.19-.28-.27-.53-.29-.36-.03-.58-.17-.84-.35-.43-.29-.56-.92-.24-1.45m-11.47 3.72c1.3-.86 2.67-1.67 4.05-2.46l.26-.16.24-.14.14-.06.14-.08q.15-.08.28-.16c.35-.21.7-.42 1.07-.6.35-.17.71-.39 1.03-.6.18-.12.97-.62 1.08-.55.2.12-.11.75-.16.83-.07.1-1.5.94-2.05 1.25-.77.44-1.87 1.07-2.32 1.37-.42.28-1.52.9-2.26 1.32-.34.19-.68.4-1.01.6-.49.3-1.1.58-.5-.55m-5.15-3.1c-.09-.93 1.21-2.96 1.64-1.77.09.26.18.6.18.88 0 .12-.06.63-.08.84-.03.25-.07.57.01.61.32.16.7.52.88.84.08.14 0 .7-.13.78-.05.03-.16-.07-.22-.12-.1-.09-.22-.17-.34-.25-.26-.17-.61-.41-.79-.36-.03 0-.32.32-.36.38-.14.18-.38.47-.45.53-.14.12-.31.25-.41.36-.16.15-.31.3-.48.45-.32.28-.68.49-1.08.69-.18.09-1.29.64-1.27.28 0-.06.93-.74 1.18-.93q.18-.14.21-.15c.09-.06.23-.16.35-.24l.12-.08s.25-.17.25-.17c.08-.06.32-.24.32-.24.4-.33.78-.68 1.11-1.09.09-.11-.15-.42-.27-.56-.14-.18-.25-.4-.37-.67m-58.58 1.66c-.11-.2.07-.98.23-1.12.38-.33 1.57.9 1.77 1.15.22.28.71.89.72.91.11.18.56.9.66.85v-.79s.05-.62.05-.62v-.5c.02-.42.06-.78.16-1.12.05-.16.1-.33.16-.48q.04-.09.21-.37l.18-.15c.05-.37 1 .42 1.02.46.22.36.15.57.03.95-.03.09-.48-.2-.48-.2-.22-.14-.39-.25-.65-.22-.3.03-.3 2-.3 2.39 0 .32-.02.82-.08 1.24l-.04.16-.04.2-.04.2-.04.2c-.02.1-.06.26-.06.28-.03.31-.2-.2-.2-.2l-.16-.32c-.11-.19-.21-.39-.32-.58-.22-.39-.48-.74-.76-1.07-.24-.29-.55-.66-.87-.6-.33.07-1.09-.31-1.13-.64m24.7 2.93c-.15-.45-.24-1.1-.24-1.59 0-.94 1.15-4.59 1.59-4.74.22-.08-.29 1.36-.34 1.51-.06.17-.35 1.18-.57 1.93-.19.65.04 1.96.53 2.38.23.19.55.35.74 0 .03-.06.1-.25.14-.38.05-.16.1-.3.22-.29.39.04-.23 1.99-.69 2.11-.37.1-.6 0-.85-.18-.08-.06-.19-.2-.26-.29-.03-.04-.12-.19-.15-.25s-.1-.19-.14-.22m61.62-3.19c0-.12-.35-.37-.48-.46-.18-.13-.47-.37-.52-.6-.19-.73.37-2.12.95-2.27.24-.06.58-.01.7.19.22.37.31 1.33.37 2.01.04.46.11.53.43.89.12.13.43 1.01.07 1.03-.01 0-.3-.18-.48-.3-.17-.11-.38-.24-.46-.26-.12-.02-.24.16-.3.24-.1.15-.27.37-.38.46-.05.04-.54.47-.77.67-.51.45-1.04.88-1.63 1.26-.61.4-1.64 1.05-1.96 1.21-.04.02-.32.13-.46.18-.22.08-.48.18-.56.22l-.16.04-.16.06-.24.08c-.2.06-.49.16-.59.21-.17.07.6-.57.79-.67.02-.01.26-.16.39-.24.06-.04.33-.19.48-.28.56-.32 1.2-.74 1.78-1.12.86-.57 3.11-2.1 3.23-2.55m-78.81 4.63c.39-.32 1.23-.72 1.84-1 .31-.15.64-.3.97-.44.34-.15.71-.31 1.05-.48.42-.21 2.43-1.09 3.99-1.77l.12-.06.28-.12c.2-.07.36-.13.52-.2.14-.06.37-.14.57-.22.26-.1.51-.21.77-.32.39-.17.8-.34 1.21-.5l.14-.06q.2-.09.34-.14l.16-.06.2-.06c.07-.02.32-.12.36-.14.11-.05.24-.09.36-.14.16-.06.37-.13.48-.18.12-.05.27-.11.4-.16.21-.08.64-.24.64-.24.59-.25.54.03.34.48-.19.45-.44.56-.91.76l-3.75 1.49c-.25.11-.73.32-.81.34-.27.1-.76.31-1.13.46-.67.28-1.96.84-2.14.92-.29.14-.6.27-.89.4-.17.07-.31.13-.48.2-.18.07-.44.2-.65.3-.15.07-.3.14-.44.2-.21.09-.42.18-.58.26-.12.06-.26.13-.38.18-.17.07-.6.26-.6.26-.14.07-.25.12-.4.18-.12.04-.28.13-.4.2l-.14.06-.14.08-.16.08c-.2.1-.4.21-.6.32-.2.12-.72.41-.59 0 .09-.27.29-.86.44-.88m50.5.24c-.11-.28.47-1.4.68-1.43.13-.01.54.25.79.42.26.17.61.4.8.37.01 0 .29-.5.33-.58.11-.21.28-.51.42-.56.32-.12 1.74 1.05 1.51 1.57-.15.33-.6 1.2-.98.88-.32-.27-1.05-.88-1.22-.88-.03 0-.23.38-.28.47-.12.23-.37.69-.41.74-.22.23-1.58-.85-1.65-.99m15.19-2.68c-.02.09-.06.24-.1.35l-.08.2s-.13.32-.14.36c-.11.34-.17.72-.2 1.1-.04.49.41 1.45.91 1.36.21-.03.26-.23.3-.42.04-.18.13-.54.23-.53.49.04-.42 1.82-.65 1.93-.14.07-.48-.11-.7-.23-.2-.11-.43-.99-.45-1.22-.05-.46.07-1.14.24-1.65.08-.25.48-1.44.64-1.28m-27.96 3.65c-.18-.49-.01-1.33.12-1.93.05-.21.3-1.34.46-1.28 0 0-.08.91-.1 1-.06.25-.23 1.35 0 1.61q.1.21.14.28c.11.18.22.28.42.34.11.03.26-.16.3-.24.05-.1.24-.47.28-.46.29.08-.47 1.47-.5 1.5-.5.52-1.01-.45-1.14-.82m40.88.24c-.09-.72-.03-1.4.22-1.99.11-.25.3-.7.38-.82l.16-.16c-.08.06-.47 1.33-.48 1.53-.04.42.14.9.35 1.28.14.26.52.06.64-.09.05-.06.05-.08.1-.22.04-.12.1-.3.18-.22.21.21-.39 1.32-.49 1.42-.54.49-.96-.22-1.06-.71m-64.97.4c-.04-.14.38-.91.57-1.26.16-.29 1.26.56 1.32.78.12.42-.28 1.27-.63 1.42-.19.09-1.23-.71-1.27-.94m11.61-.05c1.01-.89 4.83-2.8 7.57-4.16 1.3-.65 2.66-1.26 3.99-1.85.11-.05.24-.1.36-.14q.14-.05.44-.2l.16-.06c.14-.06.31-.13.44-.2 0 0 .36-.16.57-.24.15-.06.72-.3.66 0-.04.24-.34.89-.54.94-1.35.39-2.92 1.14-4.12 1.83-.07.04-.22.1-.36.16l-.18.08-.24.12c-.31.14-.65.31-.95.46-.15.07-.25.12-.4.18l-.2.08-.24.14-.14.06q-.16.07-.34.16c-.21.1-.4.21-.61.32-.56.32-1.15.64-1.71.92-.38.19-1.29.67-1.92 1-.61.33-1.25.68-1.92 1.12l-.12.08-.22.14-.2.14c-.21.09-.08-.42-.06-.48.05-.18.15-.56.28-.62m-21.04.4c-.2-.17 0-1.01.09-1.22.16-.4 1.38.76 1.47.86.19.21.45.51.54.66.12.2.53.88.64.84.1-.04.11-.96.11-1.16l-.04-.74.04-.24v-.18c.05-.52.16-1.02.43-1.32.51-.55 1.44.35 1.51.86.02.13-.17.39-.3.4-.06 0-.36-.16-.46-.22-.25-.14-.44-.25-.67-.2-.17.04-.12.64-.1.9.02.28-.03.92-.08 1.42-.06.65-.22 1.57-.47 2.02-.02.04-.37-.6-.4-.66-.19-.35-.37-.7-.58-.98-.14-.18-.48-.61-.65-.67l-.14-.02q-.29.02-.38-.02c-.17-.07-.48-.2-.54-.34m30.47 1.83c-.04-.29.51-1.26.71-1.33.3-.09 1.54.63 1.67.95.09.22-.27.71-.42.92-.2.27-.34.46-.63.33-.27-.13-.51-.29-.75-.46-.13-.1-.52-.39-.58-.4m-21.81.26c.26-1.29.7-1.39 1.74-.9.39.18.72.34.93-.04.12-.23.44-.79.67-.78.29.01 1.27.85 1.41 1.1.1.17-.53 1.05-.67 1.22-.13.15-.62-.21-.75-.31-.2-.15-.68-.5-.75-.49-.11.01-.34.35-.49.57-.11.16-.39.57-.52.55-.22-.04-1.57-.78-1.55-.92m-18.04-.22c.03-.29.52-1.18.75-1.24.14-.04.55.23.75.36.24.16.6.39.75.46s.45-.42.57-.6c.12-.2.29-.4.5-.48.17-.07 1.46 1 1.55 1.16.12.22-.19.74-.44 1.14l-.09.15s-.11.17-.11.17c.01.16-.86-.54-.86-.54-.23-.19-.6-.47-.83-.52-.06-.01-.4.46-.46.55-.18.27-.38.56-.47.57-.29.02-1.55-.98-1.59-1.18m-5.25 2.54-.06-.18-.06-.14-.08-.32c-.04-.18-.07-.5-.08-.66v-.43c-.14-.13.37-2.45.45-2.68.05-.15.09-.29.14-.44l.06-.2q.07-.24.08-.28c.06-.18.28-.84.4-.78.13.07-.21 1.1-.28 1.3-.22.66-.31 1.45-.36 2.25-.04.58.31 2.25 1.03 2.23.26 0 .35-.21.42-.42.08-.23.24-.66.28-.67.4-.07-.36 2.05-.59 2.17-.58.29-.96-.23-1.34-.74m38.27.58c-.27-.51-.06-3.62.36-3.71.02 0-.12.97-.14 1.12-.07.47-.12.85-.04 1.2.11.47.22.75.52 1.02.17.15.39-.03.48-.15.05-.06.06-.1.09-.19.04-.16.12-.47.19-.46.4.07-.23 1.68-.7 1.76-.31.05-.7-.35-.77-.6m41 .36c-.26-.44-1.2-1.05-1.86-.76-.28.12-.59.3-.67.6-.12.49 2.3.58 2.52.16m-13.86.66c0-.43-1.84-1.44-2.24-1.51-.2-.03-1.07 1.52-1.15 1.78-.36 1.21.81 1.37 1.63.98.36-.17.69-.37 1.01-.58.13-.08.82-.56.75-.68m-16.71.83c-.08-.39-2.55-.34-2.83-.24-.21.07.95 1.13 1.04 1.2.14.12.71-.23.89-.34.17-.11.91-.56.9-.62m13.05 1.96c-.17-.4-.41-.94-.37-1.34.07-.75.16-1.57.38-2.13.1-.26.2-.5.32-.74.13-.26.28-.55.22-.68 0 0-1.09-.91-1.3-1.07-.07-.05-1.1-1.1-1.11-1.12-.1-.24-.09-1.39.07-1.6.02-.03 2.13.79 2.41.96.31.18.07.32-.2.38-.3.07-.47.11-.17.35.31.25.63.46.98.67.35.22.58-.12.81-.46.07-.1.23-.29.34-.43.11-.13.21-.27.31-.41.19-.28 1.32-1.76 1.41-1.76.25-.01-.41 1.8-.44 1.84 0 0-.34.48-.48.68-.17.24-.33.47-.48.72-.27.44-.19.49.22.74.23.14.54.34.68.47.41.41.75.93.85 1.6.07.42-.21 1.56-.38 1.87-.31.55-1.08 1-1.65 1.33-.98.56-1.4.65-2.39.13m-5.83-18.61c.11.16.23.37.32.54l.12.32q.06.16.14.32c.09.18.28.56.28.56q.1.17.12.22c.07.15.16.37.2.44.15.25 1.15 2.35.64 2.33-.06 0-.27-.24-.41-.41-.1-.12-.36-.42-.49-.38-.08.02.04 1.29.05 1.38l.07.16.04.32.06.32.02.16.04.2.48 3.17c.09.54.18 1.12.24 1.69.09.72.17 1.29.28 1.97l.04.32q.04.36.08.6l.04.28.04.36.04.32c.04.29.06.58.08.86.02.36.05.75.12 1.08.1.45-.2 3.86-.7 3.85 0 0-.06-1.2-.07-1.28-.03-.56-.1-1.38-.14-1.87-.11-1.2-.2-2.07-.34-3.21-.24-1.9-.58-4.57-.81-5.7-.1-.5-.26-1.64-.36-2.45l-.04-.24-.04-.26c-.02-.14-.06-.54-.08-.7l-.04-.32-.04-.28-.04-.32v-.16l-.04-.24q-.05-.25-.08-.52l-.04-.36c-.03-.32-.07-.69-.08-.76-.03-.17-.04-.23-.1-.36-.06-.14-.18-.42-.18-.44.02-.32.38-1.6.57-1.5m-4.35 15.72c.35.19-.34 1.48-.6 1.58-.62.25-1.29.52-1.76.78-.24.14-1.26.73-1.04.94.38.37.91.63 1.47.81.92.3 3.62-.39 3.77-1.26.12-.71-.33-3.1-.57-4.26-.27-1.36-.52-2.8-.73-4.14-.42-2.72-1.06-6.84-1.45-8.67-.07-.31.27-1.74.45-1.79.02 0 .47.83.54.95l.06.12.06.16.06.12.06.16c.1.22.21.44.32.64.21.39 1.05 2.02.86 2.32-.1.15-.43-.21-.49-.28-.16-.18-.42-.45-.47-.45-.11.02 0 .77.03.98l.04.24.04.24.04.28.04.16.04.2c.07.68.19 1.58.36 2.33.24 1.06.56 2.98.81 4.46.29 1.71.64 3.85.56 5.34-.04.8-.14 1.28-.36 1.89-.1.26-.23.48-.39.67l-.31.29c-.11.09-.15.12-.19.17-.19.28-1.43.68-1.95.81-.55.14-1.21.08-1.82-.04-.45-.09-1.02-.54-1.4-.84-.21-.17-.37-.3-.55-.5-.11-.13-.44-.52-.6-.47-.04.01-.71.35-1.11.54l-.42.22q-.22.09-.3.14l-.28.16c-.71.34-1.82.84-2.28.95-1.04.23-2.53.56-3.31.52-1.62-.07-2.65-.25-3.7-1.19-.44-.39-1-1.04-1.16-1.68-.69-2.74-1.03-6.25-1.37-9.88-.17-1.79-.38-3.93-.69-5.62l-.04-.24-.04-.2q-.04-.18-.08-.44c-.02-.15-.05-.3-.08-.44l-.04-.16q-.05-.22-.08-.36c-.11-.63-.23-1.27-.2-1.61.01-.16.12-.42.18-.56l.12-.26.12-.22c.11-.52.76 2.4.79 2.57.1.53.24 1.28.28 1.65l.04.32.04.2.08.6.08.72q.02.28.04.4c.17 1.05.43 4.24.57 5.94.15 1.79.34 3.47.61 5.1.12.71.44 1.42.79 1.92.35.48.76.89 1.3 1.17.55.29 1.19.49 1.96.54.9.06 2.31.07 3.19-.28l.2-.06.24-.06.16-.04c.12-.04.28-.08.4-.12.37-.12.7-.27 1.05-.42.31-.14.62-.28.93-.44.13-.07.36-.2.44-.24l.28-.17s.17-.11.17-.11c.25.01-.65-.75-.65-.75-.1-.09-.21-.18-.33-.26-.4-.3-.82-.58-1.42-.65-.2-.02-.56.14-.73.22-.21.1-.65.32-.72.25-.2-.18.21-1.19.3-1.36 1.03-1.93 9.08-1.39 9.72-.25m-25.46 6.68c.1-.04.19-.09.28-.14.14-.08.29-.15.44-.22l.14-.06.18-.08.2-.08.16-.08.18-.08c.19-.08.44-.2.67-.3l.28-.12c.16-.06.35-.14.45-.18l1.73-.76.24-.14c.15-.08.3-.14.45-.2.22-.09.5-.21.64-.22.25-.01-.25.81-.26.82-.4.28-2.43 1.11-3.54 1.55-.59.23-1.21.48-1.78.76-.21.1-.71.35-.78.31-.03-.02.1-.76.3-.77m60.45-2.41c.38-.1.7-.18 1.01-.02.29.15.6.32.81.3.52-.04 1.16-.71 1.25-1.19l.14.16q.02.35.12.42c.18.13.54.28.75.15.07-.04.16-.38.26-.72.04-.14.22-.66.36-.57.2.12-.11 1.06-.19 1.26-.09.22-.19.45-.26.56q-.1.16-.22.24s-.18.12-.18.16c-.01.17-.76-.03-.85-.08-.21-.11-.46.04-.85.28-.26.16-.66.29-1.01.18-.16-.05-.3-.14-.42-.22-.14-.1-.29-.17-.51-.14-.52.07-.97.34-1.39.62l-.12.08c-.12.08-.37.25-.37.25-.16.12-.49.36-.55.39-.82.47-1.97 1.13-2.77 1.16l.06-.21.15-.05c.16-.05.31-.1.44-.18.21-.12.44-.27.65-.4l.6-.4s0 0 .22-.16c.11-.08.31-.22.36-.25.4-.27.77-.52 1.15-.8.37-.27 1.04-.76 1.38-.82m-86.09-3.41c-.23 2.07.91 5.23 2.55 5.71.35.11.64-.06.88-.23.54-.39.85-1.15 1.08-1.84.33-.99.68-2.03 1.07-2.61.42-.63.95-1.29 1.6-1.7.47-.29.96-.59 1.5-.66.47-.05.96.66 1.26 1.1.33.48.69 1.01 1.04 1.25.37.26.71.49 1.25.58.64.11 1.25-.06 1.73-.26.68-.28 1.18-.75 1.59-1.3.05-.07.36-.63.51-.91.1-.19.41-.66.6-.74.29-.11.21.35.18.46-.06.23-.16.62-.08.76.32.55.55.95.86 1.17.41.29.93.49 1.54.57.62.09 1.28-.03 1.78-.22.62-.24 1.2-.7 1.78-1.44l.04-.14.08-.14c.14-.21.45-.66.65-.7.19-.04-.04.5-.08.6-.08.18-.3.84.13 1.13.04.04.16.15.21.18.17.14.36.21.59.29 1.13.38 2.13-.51 2.5-1.36.16-.36.73-1.5.75-1.52.36-.31.22.36.16.54-.1.28-.25.71-.24.8.08.66 2 1.59 2.62.91.1-.11-.21-.81-.26-.91-.16-.32-.34-.68-.26-.92l.04-.2c.04-.21.06-.27.08-.36.05-.18.11-.36.21-.49.17-.25.58.64.62.74.16.37.29.77.34 1.24.07.57-.14 1.37-.38 1.83-.19.36-.36.56-.73.74-.61.3-1.52.06-2.02-.2-.19-.1-.32-.19-.46-.33-.2-.2-.38-.38-.55-.25l-.08.14-.08.14c-.05.09-.16.21-.24.32-.14.18-.39.47-.6.54l-.28.12q-.21.09-.24.1c-.15.05-.49.16-.6.12l-.4-.04-.2-.04-.32-.08c-.22-.07-.38-.19-.54-.31-.14-.11-.25-.23-.35-.39-.09-.14-.26-.4-.35-.35l-.17.21-.23.31c-.19.2-.47.37-.72.51-.46.24-1.88.62-2.3.54-.69-.13-1.16-.26-1.69-.46-.26-.09-.51-.41-.68-.62-.1-.13-.22-.28-.29-.43-.1-.22-.25-.53-.28-.54-.08-.02-.21.21-.26.3-.1.17-.21.34-.32.5-.1.14-.24.32-.31.39l-.13.07-.3.29c-.21.28-1.19.69-1.64.77-.61.11-1.15.06-1.65-.1-.65-.2-1.16-.68-1.55-1.15-.11-.14-.33-.51-.47-.76-.12-.21-.43-.72-.61-.78-.35-.13-.67 0-.97.12-.34.14-.7.41-.96.65-.14.13-.36.35-.59.58-.16.2-.16.2-.16.2-.25.13-.82 1.46-1.12 2.14-.34.78-.9 2.05-1.14 2.3-.31.31-.57.58-1 .69-.36.09-.65.04-.99-.14-.4-.21-1-.9-1.19-1.33-.35-.8-.67-1.65-.91-2.73-.11-.5-.12-1.36-.12-1.85 0-.09 0-1.4.29-1.16m70.18 7.26s-.24-.2-.31-.26c-.1-.08-.31-.25-.31-.25-.19-.24-.44-.55-.57-.78-.22-.39-.29-.88-.36-1.4-.06-.44-.05-.57 0-1.12.02-.24.07-.99.07-.99-.01-.12-.66.31-.72.35-.13.09-.25.16-.38.24-.16.1-.33.21-.48.32-.12.08-.27.19-.48.32l-.14.08-.25.17q-.08.07-.25.15c-.06.03-.36.22-.52.32-.91.57-2.46 1.51-3.51 1.75-1.04.23-2.49.55-3.15.68-.39.08-1.2.24-1.33.28-.33.09-1.48.37-1.63.27-.28-.18 1.28-.73 1.35-.75.03-.01.03-.01.32-.14l.2-.08.16-.06.16-.06.4-.16.2-.06.32-.12c1.07-.4 2.15-.84 3.07-1.42q.08-.05.24-.12c.16-.07.3-.15.44-.24q.09-.05.3-.16c.14-.07.29-.16.42-.24.12-.07.42-.24.62-.36l.16-.08.14-.08.16-.08c.13-.08.27-.16.4-.24.85-.52 2.57-1.59 2.74-1.69.68-.45 3.78-2.69 3.46-3.25-.56-.98-1.06-1.95-1.55-2.93-.11-.23-.21-.47-.3-.72-.1-.29-.21-.58-.32-.84-.33-.78-.24-1.23-.01-2.12 0-.01 1.06.96 1.15 1.04.33.31.85.79 1 1.1.09.2-.2.14-.26.12-.16-.04-.52-.12-.58-.04-.11.17.67 1.45.82 1.68.36.58.63 1.11.75 1.95.1.68-.03 1.79-.31 2.36-.13.26-.53.7-.83 1.02-.14.16-.36.38-.47.47-.13.1-.29.23-.37.29-.08.05-.32.24-.32.24-.81.89-.29 2.6.24 3.39.94 1.4 3.45 1.29 4.96.45 1.27-.71 2.23-1.45 3.28-2.36.43-.38 2.78-2.42 1.95-2.91-.11-.07-.42.05-.55.1-.05.02-.65.13-.97.18-.43.07-1.12.18-1.41.12-.45-.09-1.08-.27-1.3-.57-.54-.77-.45-1.78-.07-2.7.38-.91 1.45-1.7 2.66-1.2.47.19.85.52 1.18.86.09.09.27.34.39.51.09.13.44.62.48.62.45.05 1.79-.93 2.21-1.27.29-.23.85-.67 1.06-.71.38-.09.36.29.34.68-.02.46-.03.51.04.76.06.16.08.22.08.28-.04.39 1.56 1.02 2.06.99.58-.04 1.96-.58 2.24-1.2q.13-.21.16-.26c.13-.22.24-.43.36-.66.1-.2.21-.43.32-.6q.04-.07.23-.36l.17-.15.14.03.05.16c0 .1-.1.36-.14.46-.13.28-.32.69-.3.84.09.66 2.65 1.55 2.85.8.05-.2-.1-.5-.21-.67-.16-.27-.31-.51-.29-.65.03-.25.23-.91.34-1.29.1-.34.61.8.61.8.16.37.25.86.3 1.28.07.59-.19 1.21-.38 1.71-.13.33-.49.62-.85.72-.61.18-1.39.03-1.92-.26-.21-.11-.39-.27-.55-.43-.26-.26-.59-.58-.61-.58l-.15.25c-.08.13-.19.33-.24.4-.15.21-.33.44-.56.57-.47.27-1.05.61-1.58.69-.5.08-1.04 0-1.43-.18-.32-.15-.64-.46-.96-.78-.26-.26-.41-.93-.43-1.43 0-.16-.82.52-.83.52-.11.09-.25.2-.32.24-.4.25-.91.57-1.2.9-.05.06-.12.86-.13 1.03-.02.41-.12.83-.26 1.17-.32.77-1.21 1.68-1.83 2.3-.61.61-2.49 2.27-3.1 2.48l-.4.24-.24.14-.14.06-.18.08c-.34.18-.77.35-1.21.42-1.15.19-2.38.34-3.27-.34m-55.99-.12c-.07-.21.54-1.08.69-1.2.17-.14.61.18.81.32.26.19.65.47.89.5.07 0 .34-.4.47-.58.12-.18.26-.39.44-.48.28-.14 1.41.9 1.55 1.12.2.33-.49 1.18-.71 1.3-.13.07-.71-.33-.95-.5-.18-.13-.68-.48-.76-.46 0 0-.38.6-.47.76-.13.22-.34.54-.62.33-.09-.07-.24-.16-.35-.23 0 0-.27-.19-.35-.25-.21-.14-.57-.41-.63-.63m-8.37.58.14-.06q.16-.07.34-.16c.19-.09.21-.11.3-.16.12-.08.3-.18.38-.22.28-.13.51-.24.77-.38 0 0 .48-.24.72-.36.48-.24 1.23-.61 1.49-.76.27-.15 1.25-.66 1.4-.59.19.08-.11.71-.21.77-.98.58-2.1 1.11-3.13 1.59-.52.24-1.07.52-1.57.8q-.09.05-.32.16c-.15.07-.3.16-.44.24-.61.35 0-.76.12-.86" fill="#1d1d1b" fill-rule="evenodd"/></svg>