<svg viewBox="0 0 74.27 25.83" xmlns="http://www.w3.org/2000/svg"><path d="m43.75 1.44c-.25-.18-.94.22-.62.66.15.2.43.55.74.49.27-.05-.03-1.01-.12-1.15m26.86.52c-.06-.23-.42-.21-.59-.14-.21.08-.42.35-.38.56.04.22.54.52.75.64.86.49.43-.77.22-1.06m-50.18 2.35c-.18-.71-.12-1.52.12-2.25.05-.15.22-.55.32-.8.06-.13.32-.78.44-.7.02.02-.26.74-.29.84-.15.39-.23.77-.3 1.26-.09.6.23 1.54.81 1.4.11-.03.17-.17.2-.28.04-.12.12-.39.24-.33.21.11-.25 1.22-.34 1.32-.44.49-1.1.1-1.19-.46m-16.82-1.71c-.11-.25 0-.67.08-1.02.13-.54 1.83 1.13 1.9 1.2 0 0 0 0 .19.21l.17.21c.06.08.11.17.16.26l.08.16.08.14c.1.17.27.47.36.46.02 0 .02-.54.02-.66v-1.01c0-.31 0-.82.14-1.16.14-.33.36-.86.56-.96.55-.27 1.03.63 1.11.96.04.18-.03.69-.41.55l-.1-.13-.2-.2c-.09-.07-.27-.22-.36-.23-.34-.04-.34.61-.34.98 0 .4 0 1.07-.04 1.49-.04.45-.31 2-.5 2.09 0 0-.1-.3-.1-.32-.02-.07-.08-.24-.1-.28l-.18-.36-.06-.16c-.15-.35-.39-.71-.63-.98-.22-.24-.57-.62-.84-.65-.37-.05-.82-.27-.99-.6m55.65-.64c.43-.19 1.53.81 1.75 1.08.2.26.4.51.6.78.11.14.24.33.31.45.08.14.26.46.36.44 0 0 .06-.77.06-.82v-.44q0-.08.02-.18l.02-.22v-.58c.02-.25.09-.45.16-.68.11-.34.61-1.07.93-1.2.48-.2.76.1.95.42.18.31.08.71-.04 1.18-.04.14-.48-.33-.48-.33-.17-.18-.34-.36-.57-.33-.29.04-.44.31-.51.58-.04.18-.04.58-.04.76v.52c-.04.73-.07 1.07-.16 1.77q-.04.31-.06.4l-.03.17-.34.15.2-.03q.14-.02.1.14c-.02.09-.14.43-.18.48-.02.02-.37-.69-.4-.74-.01-.03-.28-.44-.4-.62-.29-.43-.6-.9-.95-1.2-.03-.03-.21-.14-.24-.14l-.18.04-.2-.06c-.2-.07-.46-.26-.68-.41-.37-.26-.31-1.41 0-1.38m-11.42 3.51q.13-.09.49-.32.12-.08.26-.16c.28-.16.72-.43 1.07-.64.11-.07 1.39-.8 2.18-1.25l.97-.52.14-.08.14-.08.24-.14.14-.06.14-.08.28-.16c.43-.27 2.03-1.16 2.18-1.16.18 0-.21.84-.25.88-.49.46-3.12 1.89-4.41 2.58l-2.24 1.29c-.38.2-.75.42-1.11.64-.14.09-.47.29-.52.26-.07-.05.11-.91.29-.98m-4.6-1.85c.04-.15-.07-.25-.15-.33-.1-.09-.18-.17-.25-.29-.15-.23-.26-.41-.3-.66-.07-.43.4-1.32.6-1.55.18-.21.4-.34.71-.4.24-.04.42.26.46.46.08.36.07.5.04.88-.03.4-.11 1.23-.05 1.3l.29.23.13.09c.15.12.34.28.41.45s.08.8-.14.84c-.02 0-.18-.11-.22-.14-.11-.1-.22-.19-.35-.27-.22-.14-.52-.35-.67-.38-.01 0-.97.94-1.06 1.05-.36.42-.81.74-1.28 1.06-.34.23-2.41 1.32-2.8 1.26-.26-.04.41-.49.42-.5l.14-.08.18-.08c.14-.07.28-.16.4-.24l.12-.08.14-.08.13-.09q.16-.14.19-.15l.32-.24c.06-.04.25-.16.38-.24.4-.24.78-.53 1.14-.82.18-.14.36-.29.52-.46.07-.08.48-.53.52-.53m-27.42 2.71c.26-.46-2.35-.19-2.6-.14-.3.06-.52.13-.7.32-.19.2-.47.47-.62.42-.6-.2 1.27-2 1.38-2.08.54-.36 3.69-.38 4.13.13.29.34-.29 1.03-.52 1.31-.12.15-.26.29-.42.41-.13.1-.61.54-.61.54-.08.16-2.27.96-2.53 1.01-.26.04.36-.52.4-.54.25-.16.63-.41.75-.48.32-.18 1.31-.8 1.35-.88m54.44-2.17c.04-.07-.45-.47-.57-.57-.15-.12-.4-.44-.43-.67-.06-.41.23-1.38.44-1.59.29-.29.57-.57.75-.6.71-.11.8 1.44.83 1.95.04.69.05.82.43 1.2.25.25.33.59.17 1-.05.12-.5-.21-.55-.24-.16-.12-.39-.28-.57-.23 0 0-.21.22-.38.41l-.18.18c-.19.19-.4.39-.58.54-.1.08-.21.18-.3.26s-.3.25-.5.41l-.13.09c-.12.1-.42.35-.43.35-.04.02-.35.23-.52.34-.14.1-.32.21-.49.31-.36.22-.73.44-1.11.64-.31.16-2.32 1.04-2.6.92-.06-.03.65-.51.72-.56.13-.08.26-.17.4-.24.21-.11.41-.21.61-.32.21-.12.58-.35.87-.52.13-.08.29-.18.38-.24.17-.11.32-.21.5-.32 1.15-.71 2.41-1.47 3.25-2.49m-52.05 4c.55-.46 3.73-1.82 5.88-2.74 1.34-.57 5.77-2.3 5.77-2.3.26-.04-.04.69-.08.77-.09.18-.38.35-.69.52-.27.15-1.12.48-1.69.7-1.28.49-2.54 1-3.79 1.54q-.23.1-.28.12c-.16.06-.39.16-.57.24l-.2.08-.36.16-.14.08-.3.14-.28.12-.12.04s-.03.01-.32.14l-.2.08-.28.12c-.17.07-.36.16-.52.24l-.35.16-.14.08-.32.16c-.32.14-.61.27-.89.44-1.07.66-.42-.7-.11-.92m23.74.47c-.1-.42.62-1.48 1.08-1.23l.35.31c.21.14.54.35.77.38.09.01.37-.5.44-.64.08-.14.29-.5.44-.52.28-.03 1.3.87 1.43 1.1.21.38-.38 1.3-.66 1.47-.13.07-.61-.37-.72-.47-.22-.2-.58-.54-.83-.53 0 0-.27.51-.31.58-.1.18-.32.6-.36.62-.34.19-1.39-.82-1.63-1.06m14.32-.12c.09-.52.55-2.37.91-2.41.05 0-.12.43-.12.44l-.08.2s-.13.31-.14.36c-.15.47-.26 1.12-.08 1.65.38 1.13.93 1.01 1.22-.13.06-.22.13.54.07.78-.1.41-.25.83-.54 1.05-.35.28-.79-.1-.95-.36-.12-.19-.2-.46-.25-.7l-.08-.46.04-.2zm13.88 2.09c-.15-.51-.23-.85-.16-1.41.09-.78.44-1.69.84-2.18.11-.14-.37 1.2-.39 1.26-.17.47-.1 1.57.35 1.81.22.12.4 0 .52-.2.07-.1.27-.43.28-.42.18.23-.31 2.37-1.43 1.15m-42.13.88c-.11-.43.62-1.56 1.02-1.31.37.23 1.21.79 1.33 1.15.09.29-.68 1.15-.95 1.15-.21 0-1.38-.84-1.39-.98m-21.45.88c-.16-.47-.22-.92-.22-1.44s.18-1.2.32-1.69c.05-.17.29-1.03.42-1 .06.01-.15 1-.18 1.12-.12.56-.21 1.06-.12 1.69.03.24.27.85.55.92.22.06.36-.01.44-.18 0 0 .09-.27.1-.3.01-.04.1-.31.15-.26.24.21-.2 1.26-.35 1.45-.39.53-.89.14-1.12-.32m53.6 3.87c.11-.32-.72-.77-.98-.86-.58-.2-1.41.1-1.47.6-.08.64 2.08.33 2.46.26m-37.86-3.07c.02-.07-.84-.2-.98-.22q-.23-.04-.85-.08c-.25-.02-.83-.08-1.01-.1-1.09-.12-2.59-.2-3.37-.14h-.46c-.34 0-.66.01-1.09.04-.62.04-1.15.1-1.62.16-.42.06-1.54.39-1.41.74.03.1 1.35 1.1 1.73 1.37.28.21.55.45.81.68.1.09.25.27.36.4.21.24.42.5.47.5.18 0 1.41-.51 1.88-.71l2.02-.9c.14-.06.26-.1.4-.16.07-.03.27-.12.4-.18.29-.13.58-.27.89-.4.26-.11 1.85-.87 1.82-1m24 3.61c.23-.55-1.76-1.54-2.16-1.67-.24-.07-1.13 1.63-1.21 1.91-.08.3.02.62.19.84.16.19.48.25.8.23.49-.03 2.27-.99 2.38-1.3m-16.41.49c.25-.57-.38-1.55-.82-1.68-.67-.2-1.52 1.12-1.63 1.59-.05.22.83.71 1.07.84.23.13.55-.09.79-.24l.44-.31.16-.2zm12.74 2.05c-.17-.31-.28-.63-.34-1.04-.09-.69.27-2.03.51-2.55.06-.15.25-.49.36-.7.21-.39.23-.43-.14-.7-.22-.15-2.13-1.91-2.14-2.01-.06-.45-.15-1.19.06-1.61 0 0 .61.23.85.32.46.18 1.12.43 1.39.56.16.08.33.15.32.32 0 .09-.14.11-.3.14-.13.02-.26.05-.34.09-.21.1.49.57.56.62.28.19.72.48.91.44.07-.01.25-.29.32-.4.07-.1.26-.4.34-.37v.13c-.01.14-.02.25.01.29.07.09.42.41.28.19-.06-.09.06-.26.06-.26h-.24c-.22.04.17-.66.23-.73l.09-.21c.04-.08.1-.17.16-.26.09-.13.19-.25.29-.37q.13-.15.41-.48s.16-.22.23-.31c.1-.14.22-.31.28-.35.26-.16-.03.73-.06.81-.17.52-.38 1.14-.56 1.12 0 0-.99 1.5-.95 1.75 0 .04.25.19.36.26.16.1.31.21.46.33.23.18.56.45.67.71.18.4.39.86.43 1.14.05.4-.24 1.54-.43 1.83-.33.52-1.29 1.06-1.96 1.45-.47.26-1.94.63-2.12-.14m-6.73-19.33c.13-.05.57 1.19.66 1.46.06.16.51 1.21.75 1.77.06.14.79 2.41.06 1.38-.76-1.06-.74-.48-.59.58.27 1.91.57 3.95.85 5.62.36 2.15.74 4.43.81 6.38.04 1.14.09 3.08-.08 3.69l-.04.2-.04.16-.04.16q-.05.24-.08.32c-.08.23-.27.77-.37.82-.11.05-.11-1.07-.11-1.14 0-.45-.01-1.42-.03-1.76-.06-.96-.53-4.69-.85-7.28-.12-.97-.26-1.91-.4-2.93-.18-1.23-.34-2.4-.48-3.69l-.04-.36-.04-.48c-.03-.36-.08-.7-.12-1.04l-.04-.28-.04-.44-.04-.48c-.02-.21-.07-.42-.12-.6-.18-.6.11-1.55.45-2.06m-19.75 22.34c-.1-.33.39-1.2.59-1.38.22-.19.77.31.97.5.84.77 1.07 1.03 0 1.89-.2.16-.68-.19-.81-.32-.14-.15-.72-.69-.75-.69m51.29-1.29c.39-.09.68-.16 1.01.04.24.15.46.28.77.26.36-.03.62-.25.82-.45.11-.11.19-.23.27-.38.08-.14.18-.31.27-.34l.03.26.03.23c.02.05.18.15.23.17.2.11.46.17.68.03 0 0 .14-.46.19-.63.06-.2.22-.6.36-.62.24-.02-.09 1.02-.11 1.1-.08.2-.29.74-.37.82-.13.12-.47.37-.68.37-.11 0-.39-.09-.51-.14-.23-.11-.3-.15-.36-.14-.01 0-.09.07-.19.15l-.2.16c-.13.1-.31.21-.5.25-.31.06-.56.06-.81-.06-.41-.2-.64-.32-.89-.3-.4.03-.93.37-1.25.58-.16.11-.48.32-.48.32l-.14.08-.12.08-.13.09c-.2.16-.23.19-.23.19-.34.2-2.41 1.38-2.72 1.06-.05-.05-.03-.15.05-.19l.23-.05c.1-.03.31-.14.45-.22l.26-.16.26-.16c.22-.13.43-.26.63-.4.18-.13.51-.36.58-.4.21-.13.51-.34.83-.56l.13-.09q.18-.14.21-.15c.46-.3.88-.53 1.41-.8m-15.8 3.81-.16-.08-.21-.17c-.14-.11-.26-.21-.39-.34-.21-.23-.47-.52-.62-.81-.22-.43-.29-.93-.36-1.52-.04-.28-.01-.61 0-.8.01-.13.06-.59.08-.76 0-.02.06-.48.02-.48-.19 0-1.1.59-1.32.75-.38.28-.8.58-1.22.82-.96.55-2.01 1.15-2.97 1.57-.9.4-1.92.84-3.25.98-.55.06-1.37.22-2.02.36l-.2.04-.16.04c-.09.02-.48.12-.48.12-.31.07-1.08.23-1.21.18-.47-.19 2.41-1.19 2.58-1.24 1.03-.34 2.17-.73 2.95-1.25.17-.11 1.13-.6 1.57-.82l.14-.06.42-.24.24-.14s.62-.33.87-.46c1.05-.56 2.05-1.16 3.01-1.81.93-.63 3.45-2.42 3.57-3.13 0 0-.21-.57-.26-.68-.07-.16-.15-.31-.24-.44-.09-.12-.13-.2-.2-.36 0 0-.29-.52-.4-.72-.15-.26-.38-.67-.46-.84-.33-.72-1.33-3.04-.57-3.71 0-.01.68.64.81.76q.15.18.19.21c.14.11.31.24.49.47q.1.08.37.36.08.09.16.2c.07.1.22.31.03.35l-.16-.04-.12-.04c-.2-.04-.3-.06-.47-.01-.14.04.37.92.41.99l.12.24c.08.15.19.38.23.43.33.49.67 1.07.74 1.82.12 1.45-.16 2.56-.92 3.31-.05.05-.55.51-.83.76-.35.32-.8.73-.83.87-.07.32-.31 1.45-.12 1.61l.04.28.04.16c.02.07.08.22.1.28.1.25.24.47.41.66.36.41.72.71 1.29.92.36.13 1.67.28 2.02.08l.2-.04.32-.08.32-.12q.12-.04.36-.12c.15-.05.76-.38 1.11-.58.63-.36 1.26-.85 1.86-1.33.97-.77 2.46-1.96 2.9-2.85.09-.19-.02-.4-.13-.59-.07-.12-.46 0-.62.07-.06.02-.54.1-.81.14-.57.09-.97.12-1.61.12-.34 0-.91-.36-1.22-.56-.62-.39-.36-2.08-.07-2.69.25-.53.68-.91 1.15-1.22 1.4-.93 2.98 1.23 3.5 2 .21.32 2.17-1.11 2.28-1.2.29-.24.69-.58.98-.69.18-.08.41-.05.42.18q0 .11-.04.76c-.02.26.02.36.1.56.15.39.52.66.89.92.35.25.92.26 1.37.26 1.33 0 2-1 2.5-1.87.12-.21.25-.43.36-.66.04-.09.35-.57.42-.58.4-.09.24.38.1.58-.13.19-.35.52-.3.86.09.65 2.11 1.42 2.8.88.16-.13-.14-.68-.19-.77-.19-.3-.27-.44-.26-.66.01-.24.29-1.25.44-1.26.72-.09 1.1 3.53.07 4.24-.26.18-.77.48-1.3.38-.19-.03-.4-.07-.56-.12-.28-.09-.53-.2-.74-.36-.2-.14-.37-.27-.52-.46-.14-.17-.38-.47-.45-.46 0 0-.34.54-.39.62-.15.25-.38.5-.64.65-.44.25-.83.47-1.42.61-.42.11-1.14.03-1.59-.18-.22-.1-.62-.51-.96-.86-.13-.13-.29-.93-.38-1.32-.02-.08-.84.49-.84.49-.26.18-.72.51-.89.64l-.21.18c-.15.1-.43.28-.44.31-.04.11-.06.28-.08.52l-.04.48-.04.44c-.03.27-.1.55-.24.72-.08.09-.53.78-.71 1.06 0 0-.46.55-.63.76l-.13.07s-.13.17-.16.21c-.5.74-2.17 1.89-3.04 2.46-.69.45-1.39.75-2.26 1.04-1.14.38-2.22.17-3.29-.22m-22.36-1.53c.05-.19-.12-.55-.28-.6-.26-.08-.44.13-.59.31-.1.12-.26.3-.32.29-.05-.01.1-.47.1-.48.07-.22.15-.39.26-.56.16-.26.36-.53.71-.58.24-.03.45.27.48.5.26 1.71-.98 2.62-2 3.29-.47.31.67-.96.72-1.01.29-.29.87-.87.91-1.16m-20.78 1.69c.51-.32 5.44-2.61 5.64-2.58.12.02-.17.72-.3.78-.88.36-2.57 1.09-3.14 1.49-.06.04-.47.22-.69.31l-.18.08-.14.06-.14.06-.26.14c-.18.08-.89.38-.89.38-.23.04-.2-.11-.14-.32.04-.14.11-.39.24-.4m-7.34.12q-.15-.1-.22-.2c-.09-.11-.16-.21-.25-.31-.18-.23-.37-.46-.49-.73-.2-.44-.33-1.26-.2-1.73l.04-.24.04-.28s0 0 .08-.36c0-.02.14-.51.2-.72.11-.4.24-.84.4-1.16.22-.44.46-.91.62-1.28.12-.28.25-.51.4-.74.16-.24.32-.48.34-.58 0-.02-.11-.21-.14-.24-.06-.08-.22-.32-.22-.32-.14-.27-.21-.59-.28-.92-.04-.17-.07-.36-.08-.48v-.17q.04-.08-.03-.16c-.05-.05.03-.97.07-1.35.1-.93 1.19-4.86 1.61-4.91.2-.03-.07.89-.12 1.06-.05.18-.12.38-.18.56l-.06.16-.06.16-.08.2c-.3.86-.49 1.86-.55 2.89-.02.52.11 1.38.37 1.81.2.33.37.62.71.7.12.03.39-.37.44-.48.1-.21.37-.77.43-.73.21.11-.19 1.3-.27 1.52-.13.32-.53.86-.85.98-.25.1-.54.61-.81 1.06-.47.81-.94 1.67-1.23 2.65-.19.64-.34 1.29-.32 2.09.02.72.68 1.37 1.39 1.46.58.08 1.06-.09 1.53-.28.93-.37 1.83-1.35 2.58-2.16.69-.74 1.57-1.52 2.4-2.25.61-.54 1.42-1.01 2.21-1.35.57-.25 2.76-1.31 2.76-1.31.15-.15-1.15-1.09-1.29-1.18-.48-.3-.98-.7-1.27-1.21-.2-.35-.31-.89-.26-1.37.04-.46.24-.85.52-1.1.41-.36.87-.55 1.44-.77 1.45-.54 4.52-.42 6.5-.28 1.89.13 4.95.36 6 .77.19.07-.54 1.78-.69 1.91-.08.07-1.13.6-1.76.91-.57.28-1.65.84-1.84 1.08-.15.21-.25 1.22-.24 1.53.01.53.3 1.02.53 1.39.23.39.79.75 1.27.88.66.18 1.29.28 1.92.28s1.42-.24 2-.46c.25-.09.79-.3.75-.56-.09-.5-.22-1.23-.16-1.45.21-.83.37-1.39.75-2.01.16-.25.31-.49.49-.71.02-.02.21-.19.3-.28.07-.06.38-.33.38-.33.02-.17.82-.14.93-.08.38.21.66.56.81 1.01.24.7.25 1.37.06 2.13-.07.26-.2.8-.2.8-.03.13-.04.17-.08.28-.07.19-.14.38-.09.47.09.19 1.68.22 1.93.15.35-.1.85-.29.95-.62.22-.79-.78-6.46-1.23-8.91-.17-.92-.5-3.56-.75-5.5l-.04-.28-.04-.32c-.02-.23-.05-.61-.08-.76q-.04-.18-.12-.4c-.04-.12-.1-.27-.08-.36.08-.49.28-1.3.55-1.64.1-.12.26.43.29.55.05.16.16.38.26.56.01.02.16.36.26.6.1.22.23.52.3.64.16.24 1.02 2.12.78 2.38-.06.07-.62-.55-.71-.65-.46-.52-.29.86-.25 1.16.06.5.37 2.22.56 3.25.42 2.29 1.15 6.6 1.09 7.75-.12 2.2-.21 4.04-2.4 4.32-.54.07-1.23-.08-1.78-.2-.28-.06-.49-.13-.73-.22-.22-.09-.41-.16-.64-.12-.03 0-.58.28-.83.4-.24.12-.5.24-.75.36-.43.2-.88.4-1.37.54-1.4.4-3.01.27-4.12-.46-.42-.28-.73-.69-.97-1.14-.25-.46-.38-1.36-.38-1.97 0-.23.07-.68.12-1.02.02-.1.13-.84.02-.74-.13.11-2.07.96-2.91 1.3l-.2.08-.16.06c-.14.06-.31.12-.43.18-.21.11-.45.23-.66.3-.24.09-.29.21-.38.5-.08.24-.2.6-.24.65-.11.17-.3-.32-.31-.33-.03-.09-.13-.34-.24-.34-.64-.02-2.7.99-3.45 1.39-.52.28-1.02.55-1.49.84-.1.06-.39.27-.58.4 0 0-.23.18-.31.25-.11.09-.22.18-.32.24-.29.19-1.29 1.25-1.81 1.81-.62.67-1.25 1.27-1.92 1.89-.31.29-.85.49-1.36.57-.42.06-.79 0-1.13-.14 0 0-.25-.12-.36-.18l-.14-.06-.12-.08-.24-.16z" fill="#1d1d1b" fill-rule="evenodd"/></svg>