<svg viewBox="0 0 80.5 25.97" xmlns="http://www.w3.org/2000/svg"><g fill="#221e1f" fill-rule="evenodd"><path d="m80.41 15.22v-.35-.16-.16c0-.14-.08-.26-.13-.39a6.89 6.89 0 0 0 -.44-.93c-.54-.09-.6 1.57-.34 1.89 1 1.2-.51 1.08-1.38.88a5.68 5.68 0 0 1 -1.2-.83c-.14-.12.12-.63.2-.79s.38-1.08 0-.79a3.38 3.38 0 0 0 -.64 1c-.21.38-.41.75-.64 1.09a2.59 2.59 0 0 1 -.82.72l-.49.3-.32.1h-.24-.3c-.08.17-1.24-.22-1.37-.29a2 2 0 0 1 -.88-.91s0-.67 0-1.23c0-.14-.1-.43-.32-.35a4.32 4.32 0 0 0 -1.08.7c-.45.36-1.83 1.4-2.3 1.34 0 0-.31-.4-.4-.52l-.31-.38a4.55 4.55 0 0 0 -.35-.4l-.2-.17a3 3 0 0 0 -.89-.57l-.28-.1h-.16-.3c-.55-.33-1.64 1-1.85 1.29-.36.59-.68 2.54 0 2.92a8.54 8.54 0 0 0 1.02.47 5.43 5.43 0 0 0 1.61-.1l1.53-.27c.54.73-.71 1.79-1.22 2.22a3.59 3.59 0 0 1 -.5.47l-.28.27-.21.17c-.34.27-.69.55-1 .84a8.37 8.37 0 0 1 -1.29.88l-.34.2-.24.16-.37.2-.2.07-.2.06a4.6 4.6 0 0 1 -3.54.17 3.31 3.31 0 0 1 -1.58-2.16 2.81 2.81 0 0 1 .12-1.7 4.61 4.61 0 0 1 .82-.87c.3-.27.77-.71.9-.86a4.14 4.14 0 0 0 .78-3.74 7 7 0 0 0 -.74-1.5c-.15-.25-.87-1.42-.79-1.63s.5 0 .63.06.29.07.26-.1-.83-1-1.08-1.21a5.69 5.69 0 0 1 -.56-.54s-.54-.57-.56-.46a3.45 3.45 0 0 0 0 2 8.52 8.52 0 0 1 .32.83c.12.34.29.8.38 1l.14.23.08.14c.08.13.24.42.24.42l.36.63a7 7 0 0 1 .78 1.67c0 .5-3 2.89-3.57 3.16a9 9 0 0 0 -1.48.95c-.16.11-.92.55-1.36.8s-1.13.64-1.43.79-.59.31-.87.48-.63.38-.7.4a13.73 13.73 0 0 0 -1.67.79 12.45 12.45 0 0 1 -1.71.69c-.18.07-3.36 1.2-2.85 1.39a10.47 10.47 0 0 0 1.81-.35 3.06 3.06 0 0 1 .48-.12l.5-.13h.16a4.88 4.88 0 0 1 .55-.12h.24.24a13.73 13.73 0 0 0 3.41-1.15c1.08-.54 2.5-1.25 3.06-1.62l.41-.27.31-.22.36-.23.24-.16c.07-.05 1.26-.84 1.29-.7s0 .66-.08.89a5.71 5.71 0 0 0 0 1 5 5 0 0 0 .23 1.19 7.56 7.56 0 0 0 .83 1.39 3 3 0 0 0 1.45.85 5.12 5.12 0 0 0 2.27 0c.92-.37 2-.79 2.36-1a12.1 12.1 0 0 0 3.15-2.52l.2-.18.08-.12.28-.28a3.08 3.08 0 0 1 .24-.27l.2-.2a4.28 4.28 0 0 0 .84-1.28 4.93 4.93 0 0 0 .26-.91v-.44-.48a1.33 1.33 0 0 1 .1-.47 27.21 27.21 0 0 1 2.37-1.7c.09 0 .15.28.15.34.09.52.09.52.11.55a2.05 2.05 0 0 0 .3.59 3.16 3.16 0 0 0 .38.44l.25.16.14.08a2.79 2.79 0 0 0 1.51.3 3.62 3.62 0 0 0 1.7-.66 4.13 4.13 0 0 0 .69-.75c.24-.36.44-.66.68-.3a2.63 2.63 0 0 0 3 1 1.72 1.72 0 0 0 .74-.75c.04-.14.61-2.1.31-1.78zm-17 1.13c.7-1.26 2.58-.22 2.53.31-.16.04-2.94.48-2.5-.31z"/><path d="m5.58 24.94c.65-.54 8.28-4.09 8.32-4.09.21 0-.05.84-.11 1s-.11.08-.19.11l-.34.13-.26.16-.2.08-.16.08-1.25.56-1.17.57c-.3.15-.74.34-1.1.5-.73.32-1.44.69-2.15 1.07l-.41.24-.16.08a4.15 4.15 0 0 0 -.56.27c-.09.06-.45.26-.48.12a1.33 1.33 0 0 1 .22-.84z"/><path d="m37.82 10.59c0-.23-.22-1.51-.22-1.51v-.23-.24-.28c0-.29-.08-.61-.12-.91-.06-.57-.12-1-.2-1.5a13 13 0 0 1 -.19-2c.11 0 .37.25.48.36s.46.5.54.5 0-.89-.07-1-.13-.38-.2-.56-.38-.83-.58-1.24l-.28-.52-.06-.14-.12-.23a3.24 3.24 0 0 1 -.4-.72c0-.18-.08-.37-.26-.37s-.27.52-.33.73-.2.67-.2.67a3.28 3.28 0 0 0 .12.87.91.91 0 0 1 0 .36v.3c0 .47.18 1.53.28 2.24.22 1.65.49 3.63.56 4.43.13 1.49.36 3 .64 4.55a22.62 22.62 0 0 1 .52 3.85c-.22.51-1.95 1-2.64.9-.45-.05-1.2-.16-1.37-.48l-.25-.27a4.73 4.73 0 0 1 -.47-.75 2.24 2.24 0 0 1 -.16-.91c0-.26.09-1.27 0-1.3a3.88 3.88 0 0 0 -1.57.7 4.24 4.24 0 0 1 -1.65.74c-.13 0-.39-.37-.51-.54l-.11-.17-.16-.25-.2-.22a2.82 2.82 0 0 0 -1.64-1.11 1.75 1.75 0 0 0 -1.18.36 3.25 3.25 0 0 0 -1.18 2.83c.09.61.78 1.48 1.49 1.36h.28a4.74 4.74 0 0 0 .83 0 4 4 0 0 0 .52-.08h.2l.22-.06h.12l.34-.07h.18c.07 0 .26.35.24.43-.26 1-3.63 3.63-4.66 4.06a14.16 14.16 0 0 1 -2.45.9 3.57 3.57 0 0 1 -1.69-.18 3.16 3.16 0 0 1 -1.32-1 3.29 3.29 0 0 1 -.63-1.62 6.33 6.33 0 0 1 .32-2.27 7 7 0 0 1 1.37-.91 3.93 3.93 0 0 0 1.21-.91 5.54 5.54 0 0 0 .42-3.33c-.07-.31-.95-2.08-1.24-1.75a2.92 2.92 0 0 0 -.3 1.57 5.58 5.58 0 0 0 .51.76 2.29 2.29 0 0 1 .49 1c.06.57-2.05 1.49-2.82 1.83a8.47 8.47 0 0 1 -4.46.46 5.82 5.82 0 0 1 -2-1l-.38-.37a4 4 0 0 1 -.28-.3c-.17-.21-.33-.43-.49-.67-.31-.47-.78-1.16-1.35-1.06-1.09.18-2.21 1.54-3 2.53a7.8 7.8 0 0 0 -.84 1.92c-.22.68-.62 1.87-.71 2a3 3 0 0 1 -1 .94 1 1 0 0 1 -.81 0 4.44 4.44 0 0 1 -1.84-2.85 10.91 10.91 0 0 1 -.2-2v-.28-.39-.48c0-.15-.17-.21-.22 0a10.35 10.35 0 0 0 0 4.63 7.73 7.73 0 0 0 .9 2.14s.12.12.15.16l.27.33a2.7 2.7 0 0 0 .57.38 1.51 1.51 0 0 0 1 .1 1.76 1.76 0 0 0 .79-.6 11.84 11.84 0 0 0 1.19-2.63 9 9 0 0 1 1.18-2.43l.16-.2.24-.25a5.37 5.37 0 0 1 .86-.63s1.65-.81 1.65-.63c0 0 1.25 1.7 1.38 1.85a5 5 0 0 0 1.93 1.35 7 7 0 0 0 3.04.12c.29 0 .82-.14 1.15-.22a7.45 7.45 0 0 1 .85-.18v.31a3.81 3.81 0 0 0 -.08.55 1 1 0 0 1 0 .32l-.08.39a9.08 9.08 0 0 0 0 2 2.13 2.13 0 0 1 0 .31v.24a2.6 2.6 0 0 0 .13.36 4.91 4.91 0 0 0 .32.62 12.14 12.14 0 0 0 1.29 1.2 5.34 5.34 0 0 0 4.91-.6 12.93 12.93 0 0 0 1.4-1c.38-.31.86-.71 1.17-.92a9.71 9.71 0 0 0 1.22-1.08l.22-.18.08-.12.21-.22a3.21 3.21 0 0 0 .26-.33l.08-.12.15-.23a2.64 2.64 0 0 0 .3-.86v-.39-.28l.06-.4v-.23a13.37 13.37 0 0 1 2.24-1.21 2.36 2.36 0 0 1 .19.73 4.38 4.38 0 0 0 .12.59 6.87 6.87 0 0 0 .32.87l.14.26a2.67 2.67 0 0 0 .3.36 1.89 1.89 0 0 0 .53.41 3.87 3.87 0 0 0 1.44.26c.86.05 2.77-.57 3.1-1.41a4.34 4.34 0 0 0 .22-.83v-.16-.24-.19-.44-.49c.33-.2-.17-4.58-.42-6.26zm-12.07 6.41c0-.19-.05-.39.11-.52a1.47 1.47 0 0 1 1.14-.2c.19.06.89.58.81.76a4.09 4.09 0 0 1 -2.06-.04z"/><path d="m31.15 23.17c-.14-.15.37-1.16.45-1.28a.72.72 0 0 1 .67-.29.74.74 0 0 1 .37.62 4.74 4.74 0 0 1 -1.52 3.12c-.21.08.6-1.22.63-1.26l.16-.26.08-.14.14-.22c.13-.29.09-.92-.34-.81l-.34.26c-.08.06-.08.06-.14.2s-.1.15-.16.06z"/><path d="m75.37 21.78a1.54 1.54 0 0 0 .73-.47 1.28 1.28 0 0 0 .26-.34c.07-.12.22-.41.34-.37v.17s0 .47.26.5l.24.07c.19.06.48.05.54-.17.11-.45.29-1.11.47-1.18s-.08 1.07-.11 1.18a2.29 2.29 0 0 1 -.67 1 .74.74 0 0 1 -.67.09.82.82 0 0 1 -.31-.14.37.37 0 0 0 -.28-.1l-.42.34a2 2 0 0 1 -.66.29 1.38 1.38 0 0 1 -1-.29 1 1 0 0 0 -.92 0 7.9 7.9 0 0 0 -1.54.9c-.77.55-2.33 1.62-3.29 1.51-.18 0 .57-.42.57-.43.32-.17.63-.34.92-.53l.37-.25.68-.47.14-.08.23-.16.87-.63.85-.56a2.31 2.31 0 0 1 1.2-.33 1.51 1.51 0 0 1 .47.21 1 1 0 0 0 .76.18z"/><path d="m39.94 22c-.16-.28-.56-.08-.72.09l-.16.19c-.07.1-.19.26-.24.22-.39-.33.75-1.66 1.09-1.72s.41.22.49.38c.19.33 0 1.07-.19 1.5a4.27 4.27 0 0 1 -.76 1.23 3.21 3.21 0 0 1 -1.28.77c-.15 0 .43-.55.48-.59.19-.19.38-.4.55-.6s1-1.23.74-1.47z"/><path d="m40.64.17c.14-.08.28.37.34.56s.2.43.3.63l.3.55.12.28a3.15 3.15 0 0 0 .18.41c.09.18.35.78.52 1.15 0 .1.54 1.82.28 1.41a11.58 11.58 0 0 0 -1-.88 7.24 7.24 0 0 0 .1 1.59c0 .29.09.62.12.91s.11.78.16 1.15v.28.28.29l.14.22.07.5c0 .58.14 1.26.23 1.88.38 2.58.93 6.44.93 7.74a9.44 9.44 0 0 1 -.32 2.24c0 .19-.39 1.25-.56 1v-1.28-1.07a17.12 17.12 0 0 0 -.16-1.78c0-.32-.07-.61-.12-.91s-.07-.57-.08-.74c0-.57-.21-1.69-.36-2.63s-.29-2-.4-2.85c-.25-2.15-.54-4.57-.76-6.18a27.78 27.78 0 0 0 -.52-2.92 3.75 3.75 0 0 1 .49-1.83z"/><path d="m20.07 20.8c.06-.29.6-1.25.87-1.31a7 7 0 0 1 1.49 1.11c.1.29-.54 1.13-.73 1.33s-1.65-.93-1.63-1.13z"/><path d="m52.66 16.71a2.89 2.89 0 0 0 -.45-1.15 3.33 3.33 0 0 0 -1.15-1c-.61-.38-.29-.75.11-1.22.18-.22.35-.44.51-.68 0 0 0 0 .15-.21l.09-.13a.36.36 0 0 1 .13-.25c.09-.1.43-1.55.26-1.56s-.52.61-.66.79l-.19.26-.17.2c-.16.22-1.57 2.08-1.72 2a6.2 6.2 0 0 1 -1.34-1 5.27 5.27 0 0 1 .58-.22c.08 0 .08 0 .1-.18s-1-.56-1.29-.65-.45-.16-.68-.26a1.37 1.37 0 0 1 -.37-.23s-.21-.16-.26-.08c-.2.32-.26 1.63 0 1.86a4.06 4.06 0 0 1 .78.77 3.23 3.23 0 0 0 .37.37l.4.31.33.29a2.47 2.47 0 0 1 .49.43 4 4 0 0 1 -.43 1 3.65 3.65 0 0 0 -.34.91 3.86 3.86 0 0 0 .14 2.92 1.6 1.6 0 0 0 .41.34 1.57 1.57 0 0 0 .95.1 4.1 4.1 0 0 0 1.1-.46 5.1 5.1 0 0 0 1.73-1.34 5 5 0 0 0 .42-1.93zm-3.13 2c-.21.05-.8 0-.93-.17a1.23 1.23 0 0 1 -.24-.76 5.39 5.39 0 0 1 .69-1.41c.27-.42.45-.73.92-.5s1.75.88 1.9 1.38c.13.31-1.87 1.3-2.34 1.43z"/><path d="m0 12.8a10 10 0 0 1 .35-3.13 5.34 5.34 0 0 0 .16-.55l.08-.24v-.16-.16c.08-.26.35-1.21.47-1.21s.06.5.05.66-.11.74-.22 1.14a9.62 9.62 0 0 0 -.34 2.14 4.9 4.9 0 0 0 .38 1.83 1 1 0 0 0 .72.56c.17 0 .33-.32.38-.49s.21-.81.39-.76c.44.13-.49 2.42-.89 2.57-.22.08-.47-.07-.71-.2a1.72 1.72 0 0 1 -.54-.89c-.06-.17-.12-.36-.16-.52l-.12-.33c0-.1 0-.25 0-.26z"/><path d="m16.35 8.75a5 5 0 0 0 -.27 2.81c.08.27.32.72.62.68s.24-.25.29-.41.15-.44.23-.44c.24 0-.11 1.78-.76 1.93-.23 0-.6-.42-.68-.57a3 3 0 0 1 -.18-.6 3.4 3.4 0 0 1 -.08-.53v-.34-.12a8.41 8.41 0 0 1 .16-.91l.12-.25v-.15-.16c0-.09.49-1.32.47-.95z"/><path d="m29.21 11.74a2.79 2.79 0 0 1 .79-1.36c.18-.11.54.13.73.25a5.86 5.86 0 0 0 .76.46c.12 0 .4-.41.48-.54s.32-.47.43-.49c.39-.06 1.62 1 1.62 1.29a8.44 8.44 0 0 1 -.8 1.18c-.2.15-.67-.28-.81-.4a3.52 3.52 0 0 0 -.68-.53 2.92 2.92 0 0 0 -.48.57c-.2.26-.44.58-.67.52a12.91 12.91 0 0 1 -1.34-.95z"/><path d="m5.86 11.67c-.11-.29.55-1.48.8-1.43a7.66 7.66 0 0 1 .78.45 7.45 7.45 0 0 0 .78.46c.09 0 .35-.45.47-.65s.41-.71.56-.7a5.31 5.31 0 0 1 1.47 1.2c.14.26-.55 1.38-.79 1.4a2.61 2.61 0 0 1 -.55-.4.92.92 0 0 0 -.19-.15c-.21-.13-.79-.49-.83-.49s-.4.58-.43.64-.36.65-.47.66a5.4 5.4 0 0 1 -1.6-1z"/><path d="m25.4 10.47c0-.25-1.39-.09-1.54-.05a1.47 1.47 0 0 0 -.4.18 4.38 4.38 0 0 1 -.47.29c-.14.07.43-1.16.65-1.28l.13-.09a4.87 4.87 0 0 1 .48-.17c.36-.11 2.46-.11 2.23.42a3.24 3.24 0 0 1 -.94 1.31c-.15.14-1.92 1-1.42.42l.69-.51a3 3 0 0 0 .59-.52z"/><path d="m75.94 10.4a3.17 3.17 0 0 1 .25-2.08c.07-.16.53-1.3.64-1.13s-.22.72-.28.83a2 2 0 0 0 -.29 1.11 2.37 2.37 0 0 0 .38 1.14c.14.22.48 0 .56-.12a1.6 1.6 0 0 0 .16-.26c0-.07.16-.3.16-.3.29.14-.35 1.42-.46 1.53-.48.48-1.14-.16-1.12-.72z"/><path d="m62 10.05a2.5 2.5 0 0 1 -.1-1.54c.1-.49.55-2.14.85-2.12 0 0-.31 1-.34 1.09a2.61 2.61 0 0 0 0 1.7c.09.22.55 1 .88.69a1.23 1.23 0 0 0 .22-.49c0-.09.14-.65.26-.48.32.51-.46 1.89-.8 2s-.87-.56-.95-.85z"/><path d="m47.28 9.12c-.14-.2.48-1.4.68-1.45s.57.23.85.41a3.4 3.4 0 0 0 .73.41c.07 0 .34-.49.4-.6a1.36 1.36 0 0 1 .52-.62 5.25 5.25 0 0 1 1.48 1.25c.09.39-.49 1.39-.83 1.41l-.65-.51c-.19-.15-.69-.55-.8-.5a6.72 6.72 0 0 0 -.47.87c-.16.37-.3.55-.69.27l-.32-.23-.36-.25a3.5 3.5 0 0 1 -.54-.46z"/><path d="m11.44 9.34a3.16 3.16 0 0 1 -.06-1.54c.21-1.89 12.28-7 12.44-7s0 .93-.23 1-1.13.53-1.67.79-1.28.63-1.93.92-2.23 1.07-3.38 1.64-2.61 1.33-3.5 1.85a5.08 5.08 0 0 0 -1.31 1c-.29.36-.09.52.19.74s.58.46.62.62.07.63-.18.58-.91-.22-1-.62z"/><path d="m77.57 3.91a.92.92 0 0 1 -.41-.84 7.87 7.87 0 0 0 -.37-2 .65.65 0 0 0 -.69-.28c-.6.14-1 1.27-1 1.93a1.12 1.12 0 0 0 .41.88 3.31 3.31 0 0 0 .31.25 1.91 1.91 0 0 1 .35.29c-.13.55-2.37 2-3.29 2.66l-1.88 1.2-1 .59a2.37 2.37 0 0 0 -.73.48c-.15.35 2.24-.65 2.56-.84s1-.59 1.32-.78l.23-.16.32-.29.24-.14.24-.17.36-.33.14-.07a1.21 1.21 0 0 0 .38-.29 1.66 1.66 0 0 0 .28-.25c.3-.23.51-.43.7-.6l.29-.34.1-.13a.67.67 0 0 1 .81.1c.06 0 .46.31.49.23a.94.94 0 0 0 -.16-1.1zm-1.27-.84c-.21-.13-.85-.52-.81-.75.08-.47 1-.72 1-.36.19.21.61 1.6-.19 1.11z"/><path d="m28.34 8.41c-.33-.24-.15-2.33 0-2.7s.17.65.17.65a2.7 2.7 0 0 0 .13 1.18c.08.12.49.32.67.15l.16-.06.23-.17a2.38 2.38 0 0 0 .3-.39 2.18 2.18 0 0 0 0-.69c0-.16 0-.81 0-.81 0-.22.1-.7.31-.58 0 0 .12.94.13 1a1.37 1.37 0 0 0 .26.71c.2.26 1.19.72.92 0-.11-.26-.46-1.95-.1-1.95a6.14 6.14 0 0 1 .63 2.25 3.26 3.26 0 0 1 -.16.67.74.74 0 0 1 -.12.27l-.17.17c0 .13-.84.05-.94 0a.78.78 0 0 1 -.3-.27c-.07-.08-.18-.22-.29-.18a1.19 1.19 0 0 0 -.17.24 1.25 1.25 0 0 1 -.13.28 2 2 0 0 1 -.34.41c-.48.38-.87.09-1.23-.18z"/><path d="m50.52 4.06-.82-.72c-.17-.15-.07-.81 0-1a3.45 3.45 0 0 0 -.18-1.5c-.21-.69-1.09.14-1.23.32a2.86 2.86 0 0 0 -.42 1.54 1.46 1.46 0 0 0 .33.6l.38.47c.08.16-.8.95-1 1.1a7.3 7.3 0 0 1 -.72.52c-.2.12-.38.25-.57.39-.45.32-1.17.85-1.23.88a5.47 5.47 0 0 0 -1.06.79c-.14.37.66 0 .7-.08a4.32 4.32 0 0 1 .48-.21 3.74 3.74 0 0 0 .45-.22l1.37-.83a8.1 8.1 0 0 0 1.65-1.55c.34-.43.41-.51.88-.2.12.08.83.55.87.55a1 1 0 0 0 .12-.85zm-1.31-1.23a1 1 0 0 1 -.87-.74c0-.21.43-.54.62-.46s.2.18.26.36.07.84-.01.84z"/><path d="m21.49 6.09a65.39 65.39 0 0 1 5.86-2.94l1.65-.71.15-.08.18-.08.48-.2.42-.18.4-.18.63-.29.16-.06.16-.08.2-.08.12-.06.16-.06.2-.08c.3-.15 1.34-.63 1.52-.53s0 .61-.05.77c-.18.46-1.07.81-1.55 1a9.73 9.73 0 0 0 -1.82.75l-.42.22-.44.18-.16.06-.27.12-.14.06-.36.16c-.29.14-.61.29-.9.41l-1 .42c-.6.27-1.24.58-1.79.87s-1.15.61-1.75.87a12.52 12.52 0 0 0 -1.71.88c-.45.27-.54.15-.38-.32.08-.24.26-.8.4-.83z"/><path d="m2.86 3.49a1.58 1.58 0 0 1 .14-1.08c.31-.44 1.79 1 1.91 1.11l.43.38a4.58 4.58 0 0 1 .3.4l.36.45a2 2 0 0 0 .34.47 5.57 5.57 0 0 0 0-1.16 5.37 5.37 0 0 1 .16-1.6c.08-.28.67-1.69 1.15-1.07l.13.09.18.17a1.17 1.17 0 0 1 .25.45c.11.38-.07 1-.44.71s-.79-.55-1-.27a6.31 6.31 0 0 0 0 1.32 8.51 8.51 0 0 1 0 1c0 .31-.18 2.2-.47 2l-.08-.16-.08-.18-.08-.14-.06-.16c-.08-.16-.21-.36-.31-.53a4.12 4.12 0 0 0 -.69-.86l-.2-.2-.2-.2c-.09-.07-.19-.17-.25-.17l-.14.06h-.21a1.74 1.74 0 0 1 -1.09-.83z"/><path d="m53.21 5.78.49-.31.52-.32.5-.32.5-.29c.67-.37 1.36-.76 2-1.18.85-.54 4.07-2.36 4.34-2.43s-.11.79-.15.88-1.86 1.19-2.09 1.3c-.73.36-1.61.9-2.37 1.36s-1.63 1-2.45 1.43c-.36.21-.9.52-1.11.68s-.39.32-.39.02.06-.72.25-.82z"/><path d="m64.63 3a2 2 0 0 1 .18-.91c.44-.3 1.73.92 1.91 1.14s.49.58.64.79a7.73 7.73 0 0 0 .64.83s0-.76 0-.86v-.56a7.75 7.75 0 0 1 .2-1.58 2.59 2.59 0 0 1 .9-1.19c.16-.1.52-.18.67 0a1.51 1.51 0 0 1 .55.9c0 .17-.14.79-.26.73a2.77 2.77 0 0 1 -.41-.36 1.9 1.9 0 0 0 -.39-.31.55.55 0 0 0 -.59.26 3.33 3.33 0 0 0 -.14 1.12c0 .34 0 1.15-.08 1.74a5.48 5.48 0 0 1 -.3 1.72c-.05.14-.26.24-.32.06l-.06-.31a1.51 1.51 0 0 0 -.1-.28 8.48 8.48 0 0 0 -1.23-1.74 1.3 1.3 0 0 0 -.3-.28h-.22-.28l-.32-.16a1.27 1.27 0 0 1 -.69-.75z"/><path d="m11.27 1.94s-.27 2.25-.27 2.38.3.58.43.76.52-.16.56-.33.21-.72.3-.55-.26 2.25-1.11 1.9c-.61-.26-.68-1.56-.54-2.3a7.52 7.52 0 0 1 .61-1.86z"/></g></svg>