<svg viewBox="0 0 78.39 28.48" xmlns="http://www.w3.org/2000/svg"><path d="m25.92 12.79c-.06.04-.09.05-.21.12-.27.13-.53.26-.79.4l-.14.06-.26.15c-.06.04-.16.1-.23.13-.17.07-.29.13-.44.22-.1.06-.24.14-.32.18-.54.27-1.06.53-1.57.82l-.4.24q-.11.08-.26.16c-.14.07-.28.16-.4.24-.15.1-.28.19-.44.22-.14.02.01-.5.04-.58.06-.21.19-.66.36-.68.74-.61 2.44-1.41 3.61-1.95l.4-.2.24-.12.14-.06c.16-.07.99-.43 1-.41l.09.09.03-.19.17-.09.26-.16c.18-.11.69-.38 1.03-.56 1.49-.79 7.07-3.41 7.46-3.39.25.02-.18.95-.21.98-.35.35-3.18 1.58-4.52 2.15-.31.13-.7.3-.93.42-.17.09-.7.33-1.05.48l-.16.08-.16.08-.14.08c-.2.1-.4.19-.61.28l-.61.3s-.7.49-.97.5m20.85-9.17c.08.28.34.52.57.66.57.35.43-.76.19-1.03-.23-.27-.76.15-.77.37m27.56-.48c-.3-.28-.87.06-.92.37-.06.37.67.77.95.89.7.3.08-1.05-.03-1.26m-44.48 3.13c-.59-.68-.07-3.03.34-3.72.1-.16-.07.69-.1.8-.11.45-.19 1.19-.08 1.61.1.37.22.55.45.78.18.17.47-.01.54-.15.04-.08.06-.14.1-.26.04-.13.13-.39.18-.38.45.05-.49 1.64-.58 1.71-.2.13-.46-.02-.68-.15l-.16-.23zm-18.05-2.67c.86-.49 8.41-3.65 8.76-3.59.19.03-.18.75-.24.78-.13.07-.49.22-.71.3-.27.11-.53.22-.81.34q-.19.08-.24.1l-.12.04-.16.06-.2.03-.24.15c-.16.07-.33.14-.48.2-.93.4-1.89.79-2.83 1.17-1.01.4-2.11.88-3.01 1.43-.28.17-1.14.73-.57 1.2l.14.08c.12.07.24.16.34.24.17.14.29.25.4.44.1.16-.12.48-.22.5-.26.05-.98-.45-1.09-.64-.22-.38-.18-1.51.19-1.8.42-.33.77-.6 1.08-1.03m51.01.8c-.04-.26.1-.88.28-.98.24-.13 1.09.49 1.29.64.34.26.62.62.88.97.13.18.4.53.4.53.12.19.37.57.42.58.09.01.09-1.01.09-1.1 0-.51 0-1.26.12-1.68s.54-1.16.89-1.33c.12-.06.77-.1.9.21.08.11.18.26.23.39.1.27 0 .82-.19.94-.02.01-.29-.25-.38-.35-.13-.14-.34-.28-.52-.33-.2-.05-.53.31-.57.5-.07.46-.08 1.4-.08 2.25 0 .42-.09 2.36-.54 2.2l-.07-.19-.04-.16c-.04-.13-.08-.21-.14-.32-.05-.09-.21-.34-.32-.5-.2-.3-.49-.66-.74-.97-.2-.25-.35-.3-.92-.48-.45-.14-.8-.4-.99-.82m-11.27 2.86.15-.09q.19-.14.69-.48.08-.05.28-.16s.07-.04.26-.16l.51-.32c.35-.22.79-.48 1.07-.64.32-.18.95-.55 1.04-.62.41-.3 4.14-2.43 4.24-2.41.18.03-.08.78-.19.87-.64.52-1.46.96-2.2 1.35-.73.38-1.61.85-2.21 1.33-.02.01-.7.4-1.04.59-.1.06-.8.49-1.19.72-.33.21-.79.49-1.03.64-.56.37-.89.12-.38-.64m-49.65-2.58c-.32-.55-.16-1.58.64-1.18.37.18.75.51 1.04.79.17.17.59.67.85.99.14.18.28.37.39.57.07.12.27.5.4.46.02 0 .02-.5.02-.5v-1.26c.04-.59.16-1.13.38-1.57.27-.54.65-.5 1.06-.13.3.27.61.81.29 1.27-.1.14-.43-.18-.51-.27-.11-.11-.4-.34-.59-.29-.22.07-.22 1.69-.22 2.17 0 .43-.09 1.13-.16 1.63-.02.16-.14.99-.3.78-.02-.03-.03-.04-.06-.18-.01-.05-.09-.25-.1-.28-.09-.23-.2-.46-.32-.66-.1-.16-.27-.43-.34-.52-.14-.17-.27-.36-.39-.55-.1-.16-.6-.67-.76-.74-.01 0-.11-.02-.32-.04-.09 0-.23-.06-.32-.1q-.22-.08-.32-.16c-.11-.08-.23-.17-.34-.23m20.99 1.44c-.17-.04-1.57-.73-1.65-.85-.12-.2-.26-1.05.04-1.24.21-.14.99.36 1.12.45.38.25.75.67 1.03 1.02.16.2.89 1.11.93 1.09.03-.03-.04-.95-.07-1.35-.03-.38-.07-.86-.04-1.25.03-.43.26-1.43.52-1.58.51-.31 1.74.89 1.09 1.39-.12.09-.28-.02-.41-.1-.16-.1-.33-.22-.45-.25-.2-.06-.38-.05-.38.22l.06.68.06 1.2c.02.52-.02 1.23-.12 1.85-.14.93-.16 1-.55.32-.17-.3-.45-.7-.82-1.18q-.07-.09-.18-.2c-.07-.07-.13-.13-.18-.22m23.77-1.32c-.14-.17-.25-.34-.3-.61-.12-.69.48-1.71.95-1.93.46-.21.69.1.79.48.08.31.07.56.04.89-.01.14-.11 1.24.04 1.22s.81.73.85.91c.03.12-.07.8-.24.64-.23-.21-.93-.78-1.23-.72-.06.01-.37.4-.53.6-.05.07-.23.28-.26.3-.12.1-.26.22-.31.28-.29.31-.74.78-1.14.95-.1.04-.81.44-1.15.64-.16.09-1.15.57-1.22.46-.15-.23 2.06-1.7 2.25-1.82.34-.22 2.01-1.54 1.46-2.28m27.41.69s-.43-.44-.56-.55c-.21-.18-.41-.36-.47-.68-.17-.84.46-1.85.95-2.15.19-.11.52.07.7.17.32.17.37 1.8.37 2.1s.22.54.52.86c.14.15.31.99.02 1-.05 0-.34-.21-.44-.29-.18-.11-.39-.24-.54-.26 0 0-1.3 1.25-1.33 1.29-.44.51-1.05.92-1.62 1.3-.69.46-3.68 2.28-4.26 2.03-.02 0 .66-.53.75-.58.28-.16.96-.55.98-.57.56-.38 1.14-.77 1.72-1.12.56-.33 1.17-.72 1.67-1.13.25-.21.71-.6 1.01-.84zm-28.23 4.92c-.03-.26.52-1.32.79-1.3.16 0 .51.27.66.39.21.17.55.42.85.4.03 0 .29-.49.33-.58.11-.21.25-.48.4-.56.26-.13 1.48.93 1.53 1.2.07.35-.08.56-.27.79-.07.09-.46.56-.48.55-.26-.18-.47-.33-.7-.51s-.62-.5-.79-.46c-.02 0-.38.72-.45.87-.16.37-.29.48-.65.24-.37-.25-1.15-.77-1.23-1.05m15.15-2.69c.07.08-.08.46-.12.56-.08.19-.17.42-.22.64l-.08.36-.04.44.04.36v.2s-.08.24-.08.24l-.04.12v.17s.08-.21.08-.21c.05-.14.06-.17.11-.22 0 0 .12.22.12.23.04.09.1.19.16.26.08.09.28.28.43.27.24-.02.32-.2.38-.42.04-.13.17-.58.24-.54.46.31-.51 1.81-.66 1.92-.2.14-.63-.17-.73-.33-.23-.34-.45-.84-.42-1.35.05-.69.38-2.39.83-2.71m12.97 3.86c-.13-.58.31-3.27.8-3.18.13.02-.24.8-.26.83-.18.34-.26.7-.26 1.07 0 .41.21 1.13.55 1.18.21.04.35-.11.44-.26.07-.11.26-.43.28-.38.16.39-.36 1.36-.62 1.5-.41.22-.74-.41-.93-.76m-60.52 1.77c-.3-.37-.34-1.16-.34-1.65 0-.28.26-1.24.4-1.73.06-.23.14-.49.2-.64.23-.57.18.14.08.44-.3.83-.67 3.03.5 3.15.15.02.25-.17.3-.3.05-.14.2-.51.24-.49.22.09-.22 1.24-.3 1.37-.38.6-.75.22-1.09-.14m19.88 2.32c-.23-.81.12-2.46.47-3.16.13-.27.02.59.01.67q-.02.13-.08.48c-.06.34-.06 1.2 0 1.2l.04.16c.03.09.1.27.14.34.07.13.16.32.28.32.33 0 .39-.08.5-.34.05-.12.19-.44.24-.42.33.16-.47 1.54-.6 1.62-.56.33-.83-.41-1.01-.88m30.9 2.1c.04-.1-.49-.54-.7-.71-.1-.08-1.17-.32-1.17-.1l-.16.08-.23.17c-.09.08-.19.23-.23.33-.23.59 2.12.41 2.5.23m-58.24.21c-.24-.5-.26-.94-.26-1.58 0-.57.18-1.22.32-1.73.05-.2.32-1.11.54-1.04.01 0-.1.39-.1.4q-.02.06-.08.28l-.08.28c-.12.48-.23.94-.28 1.43-.05.42.17 1.03.38 1.24.12.12.38.38.55.17.06-.07.12-.18.15-.27.05-.16.14-.41.23-.35.27.18-.32 1.31-.43 1.45-.2.26-.67-.07-.95-.28m19.98.84c-.25-.48-.32-1.02-.34-1.65-.02-.54.18-1.37.36-1.91.08-.23.45-1.34.6-1.26.03.02-.24 1.12-.28 1.26-.11.45-.29 1.21-.24 1.53.09.56.43 1.93 1.07 1.69.18-.07.24-.25.3-.44.03-.09.18-.55.24-.49.25.26-.31 1.45-.42 1.6-.36.49-1.07.16-1.29-.32m24.45-.26c.02-.54-1.94-1.67-2.37-1.56-.19.05-1.02 1.64-1.08 1.96-.05.27.1.7.28.8.3.18.49.23.86.14.55-.14 1.12-.46 1.8-.95l.21-.17c.08-.06.28-.23.3-.23m-1.14-2.92c.06.06.14.11.21.15.15.08.27.15.4.24.18.12.39.27.53.43.35.39.66.84.74 1.45.05.4-.19 1.65-.38 1.89-.39.49-1.09.95-1.78 1.4-.35.23-.99.46-1.53.42-.39-.03-.61-.28-.82-.51-.4-.46-.24-2.1-.05-2.8.1-.34.21-.65.34-.94s.41-.87.34-1c0 0-2.39-2.13-2.44-2.16-.07-.04-.03-1.41.07-1.63.04-.1.27.07.3.1.11.08.25.14.39.19q.16.05.28.1c.17.07.37.14.53.2.28.11.79.3.89.36.09.06.25.17.11.31l-.27.07c-.12.03-.36.09-.34.2.05.19 1.03.8 1.27.91.27.12 1.47-1.58 1.74-1.95l.32-.44c.14-.19.58-.8.7-.76.26.09-.56 1.95-.62 2.04-.05.07-.26.36-.4.56l-.18.21s-.62.86-.36.95m-9.58-12.67c.12-.37.39-1.12.48-1.22.04-.04 1.01 2 1.04 2.06.23.49 1.05 2.25.84 2.6-.09.16-.39-.22-.45-.29-.08-.1-.26-.32-.38-.32-.19-.01 0 .93.01.94l.04.32.04.24.04.28c.05.3.12.79.16.96 0 0 .17.99.24 1.4l.04.24.04.2.04.2.04.28.04.32.04.2.04.24c.41 2.26.97 5.32 1.09 7.35.06 1.06.05 2.05-.12 3.01-.04.24-.3 1.3-.48 1.14-.01-.01-.05-.82-.05-.82l-.04-.48c-.04-.6-.1-1.33-.16-1.93-.1-.91-.23-1.92-.36-2.85-.22-1.51-.48-3.2-.77-4.74-.29-1.61-.53-3.2-.77-4.86l-.04-.28-.04-.24-.04-.28-.04-.16c-.08-.49-.14-.94-.2-1.41-.05-.4-.19-1.3-.2-1.32-.11-.33-.18-.54-.12-.8m32.02 19.49c.23-.1.61-.13.83-.02.38.19.64.32.95.3.3-.02.65-.29.8-.47.1-.13.17-.24.25-.4.03-.06.19-.36.26-.29v.21c.02.17.02.24.12.33.17.16.5.18.75.15.11-.01.46-1.12.52-1.32.04-.13.15.53.14.56-.02.13-.07.33-.12.48-.11.33-.3.87-.54 1-.23.12-.49.26-.51.26 0 0-.3-.07-.34-.08l-.14-.06c-.09-.05-.29-.14-.32-.14-.08 0-.31.2-.44.31-.19.17-.46.27-.75.33-.25.05-.48-.06-.68-.18-.13-.08-.45-.28-.61-.22-1.05.39-1.65.79-2.45 1.35-.63.44-1.85 1.26-2.76 1.17-.09 0 .48-.32.52-.33 0 0 .44-.29.61-.4l.14-.08.14-.08c.13-.08.26-.16.38-.25.22-.17.48-.35.67-.47.13-.08.5-.36.77-.56l.45-.32c.27-.2.86-.5 1.39-.78m-32.58 1.6c-.07-.24.29-.96.45-1.27.12-.24.58-.16.73-.02.01.01.13.2.15.23l.04.12.06.32s-.18.86-.2.9-.24.5-.36.76c-.16.34-.93 1.1-1.25 1.14-.06 0 .44-.7.44-.7.08-.12.17-.23.36-.43l.2-.24.09-.13c.21-.32.5-.8.06-1.06-.14-.08-.27-.1-.42 0l-.17.21c-.05.08-.12.18-.18.15m-38.18 1.72c-1.22-.68-1.01-3.31-.72-4.75.13-.66.27-1.28.49-1.85 0-.02.23-.53.34-.78.15-.33.33-.75.28-1.02l-.16-.24c-.09-.13-.14-.24-.2-.4-.11-.27-.22-.56-.26-.89-.12-.88.49-4.59 1.04-5.2.12-.14.07.45.05.55-.07.25-.17.67-.2.76-.1.28-.27 1.31-.4 2.13-.12.7.31 2.14.93 2.41.35.15.54-.19.63-.42.08-.21.3-.81.38-.77.22.12-.4 1.9-.46 2.01-.09.16-.2.33-.36.42-.1.05-.17.09-.28.1q-.31.04-.36.12c-.24.38-.38.86-.5 1.35-.27 1.09-.77 3.08-.44 3.89.32.8.73 1.39 1.69 1.51.33.04 1.28-.28 1.84-.46 1.63-.54 6.18-3.91 6.52-5.42.08-.37-1.05-3.7-1.27-4.22-.32-.72-.88-2-1.03-2.29-.16-.32-.35-.69-.5-.95-.21-.34-.58-.94-.55-1.28v-.66c0-.19 0-.79.08-.84.06-.04.39.41.42.46q.11.15.18.23c.06.08.17.22.24.32.28.38.54.78.79 1.19.55.89 1.01 1.79 1.41 2.85.33.89.58 1.87.83 2.85.05.2.27 1.62.4 2.49.1.67.28 1.37.51 1.93.37.91 1.45 1.61 2.58 1.79.58.09 1.33-.08 1.82-.28.5-.21.82-.52 1.18-.88.22-.22-.27-3.37-.4-4.2 0 0-.2-1.46-.28-2.09l-.04-.28-.04-.44-.08-.6-.04-.28-.04-.32-.04-.36-.04-.32c-.19-1.31-.52-3.6-.61-4.06-.22-1.23-.48-2.65-.48-3.69 0-.15.12-.51.18-.68l.08-.24.06-.16.06-.14c.02-.06.12-.25.12-.26.1-.35.42 1.39.42 1.41.12.64.24 1.32.32 1.89.1.68.22 1.5.32 2.09q.02.09.08.6l.08.52.04.16.04.16.04.48.08.64c.39 2.68.77 5.28 1.25 7.91.07.38.54 1.48.65 1.47.03 0 .24.24.31.33.09.11.21.2.31.29.25.19.55.43.85.52.77.24 2.24.7 2.58.66h.38q.7.04 1.07 0c.38-.04.83-.1 1.17-.2 1.34-.38 2.45-.82 3.59-1.3.3-.13.73-.37 1.07-.56.18-.1.57-.32.58-.33.15-.11.3-.22.47-.31.06-.04.32-.22.48-.33.14-.1.3-.21.45-.31.3-.2.9-.58 1.07-.61.15-.02.04.78.02.93-.03.24.05.64.16.92.16.4.38.6.68.86.28.25.93.35 1.4.33.44-.03 1.19-.36 1.49-.54.16-.1.53-.32.55-.48.05-.42-.1-1.23-.2-1.81q-.02-.11-.08-.56c-.03-.26-.07-.51-.12-.76-.07-.41-.16-.84-.24-1.24-.03-.15-.29-1.56-.44-2.41-.31-1.7-.64-3.52-.89-5.1-.24-1.55-.61-3.91-.89-4.74-.12-.36 0-.82.12-1.2.06-.18.28-.83.4-.78 0 0 .18.35.21.42 0 0 .05.19.08.28.03.1.06.17.1.26l.08.16.08.14.08.16.08.2.14.24.06.16.08.14c.19.39.42.84.54 1.18q.03.07.16.4l.06.16c.02.07.17.78 0 .72-.19-.06-.26-.09-.36-.22-.11-.14-.27-.34-.4-.35-.12 0 0 .6.02.77.06.3.12.65.16.92 0 .05.19 1.07.28 1.57l.56 3.05c.02.12.12.64.12.64q.05.22.08.4l.04.32.04.24.04.16.04.4.04.16c.04.16.06.24.08.36l.04.28.04.2c.13.51.21 1.06.28 1.61l.04.32q.02.19.04.36l.08.56.04.6.04.34c.26 1.38-.34 2.45-1.12 3.25-.3.3-2.65 1.29-3.13.57l-.5-.32c-.16-.12-.32-.32-.43-.49-.18-.27-.29-.53-.38-.9-.06-.23-.18-.72-.3-.74 0 0-.72.46-.97.62-.17.11-.4.26-.5.32l-.26.16-.26.18c-.35.21-.72.44-1.08.59-.35.15-.79.34-1.13.54-.8.47-2.38.98-3.47 1.08-1.03.1-1.93.18-2.83 0-.53-.1-1.52-.47-2.24-.74-.22-.08-.89-.64-1.04-.83q-.17-.21-.18-.22c-.09-.09-.2-.22-.26-.32-.16-.26-.36-.59-.4-.62-.06-.04-.13.55-.13.55q-.04.32-.08.44c-.08.24-.28.74-.38.84-.44.44-.99.77-1.65.98-1.24.41-2.41.05-3.38-.55-.24-.15-.73-.81-1.1-1.3-.19-.25-.34-.9-.42-1.28-.03-.13-.31-1.47-.44-1.4-.02.01-.09.42-.09.42-.03.19-.04.26-.08.4-.05.2-.21.43-.35.64-.86 1.28-2.31 2.42-3.6 3.27-.75.5-1.52.95-2.39 1.35-.67.31-3.17 1.05-3.52-.02m29.91-.54c-.04-.12.17-.55.28-.8q.08-.16.14-.26l.24-.3c.05-.16.87.49.92.53.23.19.8.66.85.77.14.26-.43 1.42-.64 1.45-.22.03-1.77-1.24-1.8-1.38m25.24 1.47c-.23-.1-.24-.1-.3-.14l-.44-.32c-.23-.15-.52-.54-.72-.82-.26-.36-.41-.87-.49-1.39-.07-.46-.06-.91-.04-1.32.01-.26.06-1.06-.03-1.07-.01 0-1.09.69-1.23.8s-.87.59-1.3.88c-.89.59-1.86 1.08-2.85 1.57-.96.48-2.14.79-3.37 1.06-.52.12-4.91 1.09-3.91.63.89-.4 1.86-.83 2.82-1.21 1.18-.47 2.22-.98 3.31-1.53 1.87-.93 8.84-5.11 9.06-6.46.04-.25-.41-.99-.54-1.21-.27-.42-.53-.88-.77-1.32-.24-.45-.45-.89-.65-1.41-.09-.25-.26-.69-.28-.74-.04-.09-.09-.21-.1-.3-.04-.37-.06-.6-.07-.6l-.09.43s.13-1.64.34-1.61c.15.02 2.08 2.1 2.06 2.31 0 .01-.36-.06-.36-.06-.23-.05-.3-.06-.5 0-.16.04.81 1.61.82 1.63.29.46.67 1.09.75 1.68.03.2.02 2.28-.16 2.41-.04.11-.06.18-.1.26-.06.11-.3.4-.5.65q-.12.15-.17.2s-.18.21-.2.23c-.09.1-.26.25-.42.39q-.09.07-.21.19c-.24.24-.7.73-.7.73-.25.35-.19 1.3-.12 1.69.07.42.3 1.15.6 1.31l.18.23c.1.1.21.21.31.28.21.15.44.29.71.39 1.23.44 2.58.02 3.67-.4.77-.3 1.89-1.22 2.63-1.84.37-.31 1.04-.87 1.15-.98l.2-.2c.09-.1.18-.19.28-.29.12-.12.53-.53.56-.54l.09.17.16-.2q-.1-.18-.03-.27c.17-.22.38-.47.45-.71.03-.13-.12-.54-.26-.54-.13 0-.27.04-.4.08-.19.06-.38.12-.6.16-.62.11-1.3.23-1.82.2-.49-.02-.94-.26-1.28-.47-.67-.41-.51-1.82-.27-2.52.28-.84.95-1.51 1.9-1.67.51-.08 1.09.3 1.39.5.48.32.84.76 1.18 1.22.18.25.37.5.63.39.35-.15.65-.34.94-.53l.57-.39.23-.19.24-.2s.23-.17.35-.26c.2-.15.56-.42.7-.42.26 0 .3.14.3.46 0 .51 0 1.02.1 1.16.26.4.55.71 1.01.9.33.14.67.16.99.16.22 0 .49 0 .72.09l.15-.05-.16-.06.18-.08.14-.08.14-.08c.14-.08.28-.16.4-.24.25-.16.45-.32.63-.55.26-.33.5-.75.68-1.15.15-.35.46-1.05.82-.97.14.03-.19.76-.22.81-.15.29-.24.49-.16.7.13.34.81.7 1.17.82.46.15 1.07.13 1.53.02.28-.07.05-.57-.04-.74-.21-.39-.35-.63-.34-.74.01-.42.19-.96.35-1.28.14-.27.58.79.62.88.22.53.35 1.26.24 1.85-.2 1.1-.5 1.7-1.59 1.87-.52.08-.99-.12-1.43-.3-.23-.1-.51-.3-.68-.47-.08-.08-.17-.22-.23-.32-.07-.12-.19-.3-.4-.12l-.16.26c-.08.12-.22.35-.24.38-.15.19-.38.43-.61.54-.53.26-1.17.58-1.57.62-.53.05-1.01 0-1.35-.18-.42-.22-.76-.46-.99-.88-.21-.39-.27-.73-.36-1.29-.03-.18-.68.38-.69.38-.11.14-.33.3-.5.42-.19.14-.55.39-.58.41-.08.06-.21.15-.33.23-.08.06-.25.17-.3.36l-.04.44c-.01.17-.05.68-.08.82-.02.17-.1.68-.21.75l-1.62 2.22c-.17.37-2.76 2.37-3.26 2.64-.72.38-1.42.76-2.28 1-.67.2-2.04.26-2.74-.14m-36.02-.7c.07-.2-.16-.48-.36-.46-.17.01-.29.14-.39.25-.07.08-.19.21-.22.07-.17-.64.52-1.28.99-1.22.65.08.21 1.55.05 1.88-.24.48-.61 1.02-1.07 1.29-.06.04-.8.47-.45.05q.05-.06.2-.23s.18-.21.24-.29c.34-.43.97-1.25 1.01-1.34m-13.26 1.73c1.06-.65 3.52-1.98 5.39-2.99.28-.15 0 .73-.11.82-.02.02-.33.17-.44.23-.12.06-.36.19-.54.3l-1.78.96c-.27.15-.56.3-.85.44-.05.02-.63.35-.93.52-.14.08-.42.24-.42.24l-.14.08-.23.19c-.11.07-.25.08-.21-.11.05-.26.12-.64.26-.68" fill="#1d1d1b" fill-rule="evenodd"/></svg>