<svg viewBox="0 0 81.5 26.08" xmlns="http://www.w3.org/2000/svg"><path d="m51.29 1.96c-.07-.38-.86 0-.83.3.03.25.55.79.79.78.28-.02.17-.88.04-1.08m-29.5-1.86c-.24.56-.37 1.2-.35 1.97 0 .3.22.76.4.88.16.11.36.05.46-.1.08-.12.32-.46.32-.46.07 0-.15.64-.16.68-.09.22-.23.52-.38.66-.17.15-.31.23-.57.11-.55-.26-.6-1.44-.48-1.93.04-.16.08-.34.12-.52s.11-.4.16-.6c.04-.13.09-.28.14-.4 0 0 .12-.28.15-.31.05-.05.26-.14.18.03m56.55 4.09c.03-.71-.42-1.66-1.1-.92-.3.33.08.63.3.81.25.2.77.62.8.11m-67.38 1.08c-.21-.54-.03-1.42.12-2.01.16-.62.43-1.4.83-1.81.26-.27.07.35.04.4-.1.19-.24.45-.28.56-.15.4-.25.83-.34 1.28-.1.5.07 1.04.3 1.39.13.18.39.32.57.08.02-.03.12-.21.14-.26.03-.07.11-.26.18-.24.15.03-.17.87-.2.92-.12.24-.33.57-.61.62-.37.08-.65-.64-.75-.94m19.74.84c-.18-.45-.1-1.66.05-1.94.14-.27.2.7.2.7.01.2.06.45.17.58.33.38 1.07.15 1.25-.26.06-.14.04-.33 0-.64l-.04-.24-.04-.18c0-.16.15-.81.29-.7.08.06.15.64.19.96.04.29.1.39.21.58.08.13 1.12.54.82-.26-.1-.27-.35-1.54.06-1.61.07-.01.5 1.55.48 1.77-.03.43-.25.78-.49 1.02-.14.14-.51.2-.68.17l-.18-.06-.18-.08-.14-.08c-.13-.03-.21.07-.32.2-.47.58-1.14.61-1.63.08m24.41-.01c.66-.68 8.43-4.42 8.43-4.42.19.05-.17.87-.3.88-.05 0-.26.12-.28.14q-.07.05-.22.12c-.08.04-.15.09-.26.16s-.18.12-.26.16l-.32.16c-.23.1-.3.13-.3.13-.17.12-.38.24-.57.33-.2.1-1.48.79-2.3 1.22-.05.03-.05.03-.24.1q-.09.03-.26.14l-.22.14-.16.06-.16.08c-.33.19-1.05.59-1.13.62-.07.03-.76.43-1.09.62-.08.05-.52.27-.57.24-.08-.05.07-.85.22-.9m11.57-3.2c.55-.18 1.47.73 1.77 1.05.19.2.4.52.57.77.13.19.67 1 .7 1 0 0 .04-.41.05-.46l.04-.32.04-.72.04-.52c.04-.41.1-.66.22-.96.15-.38.49-.83.83-1.04.17-.11.55-.17.68 0 .14.17.61.75.48 1.01-.11.21-.27.54-.3.54s-.27-.25-.38-.37c-.13-.14-.23-.24-.43-.32-.49-.18-.68.58-.71.98-.04.55-.04.65-.04.92q0 .09-.04.4l-.04.36v.16c-.02.23-.04.4-.08.6-.07.41-.25 1.38-.4 1.46-.09.05-.23-.37-.27-.5-.07-.21-.2-.43-.32-.62-.42-.68-.92-1.48-1.57-1.61-.73-.14-1.45-1.05-.85-1.83m-16.01.95c-.03-.05-.12-.14-.19-.21t-.16-.21c-.12-.18-.21-.34-.29-.57-.26-.76.66-1.78 1.11-2.01.23-.11.5.07.57.24.11.29.14.69.1.98-.04.3-.05 1.3.17 1.6q.22.17.22.18c.17.17.4.4.42.63 0 .13-.19.63-.45.41 0 0-.37-.28-.52-.39-.12-.07-.35-.22-.35-.22-.05-.05-1.15.96-1.3 1.1-.26.24-1.18.98-1.45 1.03-.06.01-.37.15-.52.22l-.28.16c-.14.07-.25.13-.4.18-.28.1-.54.22-.79.34-.2.1-.44.18-.71.2-.29.02.46-.5.46-.5l.13-.07.26-.14.16-.06.16-.08c.14-.08.86-.56 1.29-.84.64-.42 2.36-1.56 2.36-1.98m-18.11 4.29c.06-.28.52-1.08.77-1.18.31-.13 1.09.65 1.13 1.04.03.33-.7 1.17-.95 1.14-.14-.01-1.01-.85-.95-1m-17.76.1c-.2-.64-.32-1.33-.32-2.03 0-1.05 1.24-4.8 1.7-5.33.33-.38-.35 1.76-.37 1.82-.25.69-.43 1.33-.6 2.13-.17.73-.04 1.47.12 2.09.08.32.53 1.11.87 1.1.21 0 .36-.31.43-.5.07-.22.22-.65.38-.64.12 0-.15.93-.18 1.04-.09.32-.22.61-.35.88-.12.25-.38.43-.66.51-.29.08-.89-.83-1.01-1.06m62.89-2.77c.06-.12-.25-.38-.41-.52-.23-.19-.45-.38-.54-.69-.19-.72.55-2.1 1.07-2.19.21-.03.23-.02.55.13l.17.17s.18.61.18.72v.68c0 .25.02 1.03.02 1.04.02.06.11.14.19.21.1.08.21.19.29.29.12.16.22.79 0 .95-.06.04-.44-.27-.51-.33-.14-.11-.3-.22-.49-.25-.08-.01-.24.18-.31.27-.1.11-.25.3-.3.34-.09.09-.21.19-.3.26q-.18.14-.23.18l-.13.09-.13.09c-.39.33-1.15.94-1.41 1.03-.04.02-.21.13-.26.16q-.12.08-.26.16t-.26.16-.28.16c-.12.06-.42.22-.56.3-.17.09-.45.24-.67.34-.21.1-.44.19-.66.26l-.28.08-.23.05-.19-.09c-.03.13-.69.54-.94.37-.03-.02.71-.52.75-.55l.14-.04.14-.08.16-.04c.15-.07.41-.21.56-.32.26-.18.64-.37.95-.52.15-.07.27-.15.4-.24.12-.08.35-.21.54-.32.79-.45 3.02-1.83 3.23-2.33m-28.51 3.45c.06-.32.45-.97.68-1.18.16-.15.61.22.78.35.19.15.67.52.85.46.03-.01.35-.51.39-.59.12-.23.23-.41.46-.52.19-.09 1.23.93 1.37 1.15.16.23-.37 1.02-.61 1.38-.12.18-.68-.38-.74-.45-.14-.14-.62-.54-.8-.57-.05 0-.36.52-.43.64-.13.23-.3.52-.36.56-.27.2-1.57-1.02-1.59-1.22m-30.71.1c.08-.77.37-1.35.67-1.91.98-1.81 17.25-6.77 17.25-6.77.61.31-.47 1.15-.81 1.26l-.61.2-.12.04c-.28.08-.28.08-.28.08-.14.05-.28.09-.41.14-.5.18-1 .35-1.53.5-.39.11-1.2.4-1.78.6-2.4.85-4.76 1.7-7.18 2.67-.4.16-1.67.74-2.53 1.14-.44.2-2.13.98-1.95 1.45.04.1.44.37.65.5.16.1.75.5.75.52 0 .38.02.81-.13.98-.41.47-2.03-.79-2.01-1.36m5.9 2c.12-.14 2.17-1.26 2.19-1.26l-.03-.14-.21-.07q-.07-.02-.32-.02c-.48 0-1.05 0-1.37.08-.23.06-.39.15-.59.26-.18.1-.42.24-.5.24-.09 0 .23-.73.24-.74l.37-.53c.15-.28.92-.46 1.28-.51.56-.07 2.43-.1 2.52.54.02.16-.33.66-.44.78-.07.08-.25.28-.25.28-.12.12-.26.27-.37.4-.28.37-2.91 1.21-2.53.68m40.03-3.96c.16-.05-.13.61-.19.74-.16.36-.25.83-.3 1.26-.07.66.42 1.45.91 1.39.16-.02.24-.27.3-.44s.17-.49.26-.42c.15.11-.3 1.96-.97 1.85-.26-.04-.52-.31-.62-.5-.56-1.01.01-3.12.61-3.87m-32.73 3.47c.06-.33.51-.99.77-1.16.22-.15.62.17.82.33.24.19.57.45.71.49.09.03.32-.32.38-.42.11-.18.26-.4.46-.48.26-.11 1.5.97 1.54 1.2.04.3-.63 1.14-.85 1.2-.24.08-.53-.22-.73-.42-.15-.14-.52-.49-.7-.49-.12 0-.3.29-.4.46-.07.12-.32.48-.4.5-.11.03-.56-.28-.87-.5-.11-.08-.8-.57-.72-.72m-25.91-.6c.04-.68.15-1.29.28-1.89.03-.13.13-.46.2-.68.07-.24.17-.53.08-.76-.28-.78-1.01-2.29-1.71-2.55-.1-.04-.22.28-.26.38-.09.25-.21.56-.3.74-.03.06-.45.62-.67.92-.24.31-1.61 1.14-2.03 1.25-.18.05 1.07-1.15 1.31-1.34.38-.3 1.55-1.38 1.45-1.98 0 0-.21-.12-.21-.13l-.14-.06-.14-.08c-.14-.09-.26-.21-.34-.36-.15-.28-.04-.76.09-1.11.22-.62 1.82.92 1.95 1.09.24.3.47.61.7.92l.13.19.06.14.08.14c.09.15.31.51.38.47 0 0 .01-1.3 0-1.41-.02-.52-.04-1.02.08-1.51.1-.39.33-.82.53-1.18.18-.32.86.12 1 .28.28.35.46.88.16 1.27-.08.11-.27-.04-.35-.12l-.18-.22q-.13-.16-.19-.19c-.25-.14-.6-.27-.65.16v.9c0 1.12-.09 2.49-.44 3.55-.27.8-.66 2.63-.3 3.45.15.35.4.79.83.64.1-.03.19-.37.24-.56.02-.07.18-.64.28-.48.21.32-.43 2.14-.95 1.99-.67-.2-1.06-1-.95-1.87m71.62 1.89c-.11-.56-.13-.99-.04-1.57.05-.35.71-1.85.91-1.85.07 0-.35.86-.36.88-.12.18-.2.63-.26 1.02-.06.33.22.84.37 1.12.13.24.51-.09.58-.17q.06-.08.14-.28c.04-.09.08-.21.16-.17.09.04-.1.7-.14.77-.08.19-.24.53-.39.66-.33.29-.94.06-.96-.41m-67.14.67c-.21-.11 0-.88.06-1.06.13-.42 1.41.76 1.46.81.21.2.38.5.55.79.09.15.46.78.47.78.12-.04.22-1.54.24-1.8.02-.34.19-1.19.44-1.36.93-.61 1.3.94 1.08 1.54-.03.09-.35-.23-.35-.23-.1-.1-.38-.38-.38-.38-.23-.1-.45 0-.5.2-.02.09-.03.23-.04.38l-.04.66c-.07.48-.14.96-.28 1.44-.06.21-.28.97-.4.91l-.05-.19q-.04-.18-.1-.32l-.14-.28-.06-.16c-.12-.28-.28-.54-.45-.78-.16-.23-.42-.49-.73-.68h-.32zm57.01 4.73c.04-.14-.17-.33-.32-.47-.09-.08-.34-.31-.34-.31-.1-.3-1.7-.19-1.79.34-.13.74 1.98.64 2.45.44m-13.87.07c.13-.51-1.67-1.48-2.08-1.67-.36-.16-1.31 1.62-1.39 1.99-.07.28.17.74.36.84.34.17.53.14.95.06.4-.08 2.18-1.01 2.16-1.22m-25.13 1.67c-.33-.13-1.49-.58-1.74-.29-.23.28.95.9 1.19.99 1.18.43 1.12-.09.55-.7m21.27.72c-.23-.91-.22-1.69.03-2.72.06-.22.28-.69.42-1 .2-.42.42-.89.4-.96 0-.01-.25-.21-.35-.3-.1-.08-.24-.21-.5-.46l-.13-.08c-.09-.09-.21-.21-.3-.3l-.2-.24-.1-.14c-.09-.11-.28-.33-.46-.49l-.13-.09c-.09-.08-.16-.18-.19-.32-.06-.27.01-1.56.24-1.55l.33.23c.12.07.4.19.61.28.36.16.95.42 1.11.5l.14.06.22.12c.02.2-.07.23-.4.3 0 0-.26.07-.28.1-.13.2 1.2 1.01 1.33 1.08.19.11 1.23-1.27 1.38-1.48s1.34-1.59 1.4-1.58c.11.02-.13.74-.18.88-.14.43-.27.79-.46 1.06-.19.25-.37.49-.58.72-.13.14-.54.72-.57.89-.01.07.4.34.52.42.21.14.42.3.6.47.4.38.65.94.77 1.56.06.28-.32 1.72-.46 1.87-.49.48-1.16.91-1.88 1.37-.4.25-.93.36-1.55.34-.11 0-.33-.11-.39-.15l-.2-.16-.18-.25zm-43.26-1.33c.26-1.6.76-3.13 1.66-4.09.21-.23-.6 1.87-.79 2.24-.33.66-.38 2.09.21 2.56.23.18.55-.26.61-.38.08-.17.3-.6.32-.59.27.18-.24 2.38-1.41 1.99-.51-.16-.6-1.28-.6-1.75m36.95-17.92c.18.28.76 1.84 1.01 2.54.05.13.18.46.26.68.04.1.18.51.26.76.09.28.42 1.27.14 1.3-.03 0-.33-.35-.41-.45-.09-.11-.39-.46-.48-.33 0 0 .17 2.29.22 3.01l.04.32.04.44.04.32.04.36.08.76.04.44.08.64c.17 1.63.53 6.34.52 6.36v.24q0 .16 0 .39v.4c0 .47-.04 1.04-.08 1.72-.02.37-.28 2.41-.59 2.39-.14-.01-.14-1.58-.14-1.84 0-.82-.05-2.17-.16-3.39l-.04-.44v-.16c-.03-.45-.08-.93-.12-1.36-.08-.68-.15-1.49-.2-2.09l-.04-.44-.04-.36-.04-.2c-.05-.49-.12-1.27-.16-1.85v-.24l-.04-.16-.04-.22c-.04-.31-.06-.61-.08-.94 0-.09-.07-.64-.08-.76-.03-.28-.06-.8-.08-1.12l-.04-.36-.04-.28c-.04-.29-.09-.97-.12-1.45-.05-.69-.17-2.01-.2-2.21q-.04-.22-.12-.4c-.08-.18-.1-.4-.04-.6.08-.28.43-1.5.6-1.42m-18.91 23.42c-.18-.57 0-1.3.16-1.85.04-.16.36-1.23.45-.91 0 0-.07.26-.09.31 0 0-.09.52-.12.72-.07.48-.09.92.1 1.33.08.17.28.43.51.42.18 0 .23-.16.28-.3s.12-.35.2-.34c.12.03-.05.55-.07.62-.08.23-.17.47-.29.67-.41.68-1.01-.21-1.12-.67m10.85-2.58c.39-.09.86-.2 1.16-.07.43.19.88.38 1.05.38.35 0 .66-.35.81-.58.12-.19.6-.93.7-.9.04.01-.06.37-.08.41-.04.15-.1.4.08.46.39.12.75.23.82.2.08-.03.1-.46.11-.62.02-.25.09-.53.18-.72.22-.43.14 1.36.14 1.36-.04.24-.16.58-.26.84-.01.04-.78.02-.93 0-.07 0-.3-.12-.35-.17-.11-.09-.11-.09-.17-.09-.15 0-.27.13-.45.33-.1.11-.27.23-.43.27-.46.11-.72-.02-1.13-.2-.1-.04-1.05-.32-1.05-.12l-.12.04-.28.14-.26.16c-.21.13-.39.26-.58.41-.18.15-.37.31-.54.47-.18.17-.41.33-.64.49-.4.28-3.3 1.41-3.59 1.04-.07-.09.64-.37.73-.4l.2-.08q.27-.12.36-.14c.12-.03.25-.07.4-.14.5-.23 1-.54 1.45-.84.12-.08.78-.61 1.2-.94.39-.31 1.2-.94 1.48-1m34.13 3.92s5.19-2.92 5.2-2.92c.4-.13.72-.08.98.12.18.13.35.23.57.29.3.08.91-.3 1.04-.45.08-.1.16-.22.23-.33.04-.07.25-.42.32-.32l-.02.2s0 .31.2.4l.14.08c.19.08.28.08.52.04.11-.01.21-.41.26-.6.06-.22.21-.55.35-.66.12-.1-.02.86-.09 1.02-.12.3-.35.86-.59.96-.28.12-.54.23-.62.22-.08 0-.26-.07-.32-.1l-.15-.09c-.07-.04-.17-.11-.22-.1-.05 0-.24.1-.28.13q-.17.15-.21.17c-.18.11-.4.18-.63.26-.28.09-.69-.16-.93-.3s-.63-.21-.93-.06l-.12.04-.16.06-.18.08-.12.08c-.18.1-.35.2-.52.3l-.15.07-.12.08-.14.08-.12.08c-.13.08-.59.38-.59.38s-3.26 1.56-2.61.79m-55.91.02s.85-.37 1.14-.51c.4-.19.83-.35 1.25-.5l2.18-.84c.71-.25 1.61-.63 2.38-.97l.16-.06.32-.12c.26-.1.51-.21.77-.32.19-.09 1.01-.45 1.09-.4.09.06-.29.74-.34.82l-.19.07-.2.08-.16.08s0 0-.4.18l-.16.06-.28.14-.16.06-.2.08c-.18.08-.46.2-.56.24-.94.36-1.93.74-2.7 1.08-.38.16-.78.31-1.17.44s-.83.3-1.29.5l-.16.06c-.09.03-.24.09-.3.12q-.15.07-.22.1c-.09.03-.29.11-.36.14-.55.24-.93.22-.42-.54m-1.01-4.24c.06-.5-.21-1.61-.38-2.01s-.62-1.43-.59-1.54l.04-.26.08-.48.08-.24c.04-.12.1-.28.1-.28.09-.31.54.76.54.76.13.32.28.67.5.77.36.16.94.42 1.18.41.44-.02 1.07-.12 1.41-.42.43-.38.74-.8 1.1-1.28.09-.12.57-.76.58-.23 0 .03-.08.33-.12.46-.08.28-.14.51-.12.84.01.31.44.67.67.8.25.14.66.21.93.04.43-.27.69-.46.93-.92l.36-.82c.08-.16.29-.54.4-.6.14-.08.1.47.1.5-.02.26.05.4.15.59.16.32.94.78 1.33.87.67.17 1.2.12 1.9 0 .22-.04.43-.11.64-.18.09-.03.61-.2.59-.28-.25-.72.57-2.63.87-3.07.42-.62 1.19-1.28 2.06-1.44.61-.11.91.48 1.13.92.08.16.45.65.71 1 .22.3.79.45 1.22.53.47.09.89-.07 1.29-.22.38-.14.72-.46.93-.78.21-.34.54-.78.85-.96.11-.07-.08.58-.1.62-.09.25-.04.5.06.72.12.28.43.57.77.62.58.09 1.13-.22 1.39-.64.03-.05.1-.23.13-.31.05-.14.16-.42.18-.46.12-.24.4-.79.53-.79.11 0 .04.27.02.37-.08.3-.05.44.1.66.29.42 2 1.51 2.51.65.15-.25-.2-2.52-.32-3.2-.09-.55-.18-1.12-.24-1.68-.04-.33-.16-1.18-.24-1.77-.17-1.2-.33-2.4-.49-3.61-.04-.34-.12-1.21-.16-1.69-.02-.2-.07-.39-.12-.56-.08-.29-.08-.34 0-.64.05-.17.11-.36.18-.52.09-.21.21-.47.27-.66.02-.06.49.88.54.98.15.31.3.66.42 1 .05.14.16.36.24.52l.12.28s0 0 .12.28c.05.13.59 1.37.29 1.35-.16 0-.3-.15-.42-.27-.14-.14-.29-.29-.45-.31-.06 0 .02.8.02.8.04.49.09.86.16 1.33.09.6.32 2.29.32 2.29.18 1.5.52 4.78.52 5.02 0 .92-.46 2.37-1.15 2.73-.05.03-.45.14-.5.14-.02 0-.91.02-.91-.08l-.12-.04c-.07-.02-.24-.08-.28-.1-.08-.04-.45-.34-.68-.52-.14-.11-.35-.26-.39-.26s-.16.22-.16.22q-.09.19-.14.27c-.14.23-.27.43-.5.56-.15.09-.31.17-.39.2-.05.02-.27.1-.3.1h-.34s-.75-.27-.89-.38c-.08-.06-.15-.18-.24-.32q-.07-.11-.12-.24s-.1-.26-.12-.28c-.09-.08-.29.19-.29.19-.06.08-.21.28-.25.3-.29.18-.53.29-.87.43-.25.1-.52.15-.83.18-.06 0-.88.08-.91-.04l-.24-.08c-.17-.06-.31-.13-.43-.23-.18-.14-.32-.32-.46-.51q-.06-.07-.21-.33-.14-.29-.14-.3c-.2-.3-.47-.71-.56-.74-.35-.14-.75.11-.97.24-.16.1-.29.18-.4.14 0 0-.03.03-.23.31l-.2.2s-.17.28-.25.41c-.06.1-.38 1.21-.11 1.18.21-.03.51-.07.76-.13.41-.1.82-.12 1.13-.12.55 0 .98.26 1.32.47 1.04.64.92 3.17.02 3.9-.28.23-.63.27-1.06.25-.56-.02-1.39-.59-1.64-.94-.23-.33-1.05-1.45-1.17-1.47-.01 0-.35.09-.46.12l-.24.08-.12.04-.16.04c-.43.12-1.25.36-1.61.28h-.4l-.18-.04h-.18s-.61-.2-.89-.3c-.35-.13-.82-.61-.99-.94-.03-.05-.67.81-.67.81-.2.27-.43.46-.7.65-.47.34-1.2.16-1.57-.13-.18-.14-.3-.28-.43-.47q-.05-.07-.12-.24c-.07-.16-.14-.32-.26-.34-.02 0-.32.26-.42.35-.18.16-.35.28-.59.39-.22.1-.45.21-.71.26l-.24.04-.14.04c-.32 0-.67 0-.68 0-.06.07-.13.36-.17.54q-.07.3-.08.4-.05.38-.08.48l-.04.16-.08.36-.04.16c-.05.21-.14.52-.26.64-1.31 1.3-2.75 2.42-4.72 3.07-.96.32-2.25.44-3.01.44s-1.7-.21-2.31-.51c-.3-.15-.64-.35-.89-.56-.11-.09-.21-.18-.31-.29-.12-.13-.29-.33-.32-.33-.15-.03-.76-1.44-.83-1.7 0-.02.03-1.22.06-1.48.06-.49.14-1.06.32-1.61l.04-.16.04-.2c.02-.1.14-.37.2-.52l.04-.16.06-.16.08-.16.06-.16c.04-.09.09-.22.14-.3q.12-.21.14-.3s-.15-.29-.22-.4c-.1-.15-.17-.3-.24-.48-.12-.29-.19-.61-.26-.96-.12-.61.07-1.92.28-2.45l.04-.16.12-.4.08-.24c.11-.33.24-.66.38-.96.06-.13.98-2.2.99-1.65 0 .02-.1.28-.1.28l-.08.18q-.08.17-.12.26c-.13.32-.26.63-.4.94-.21.48-.45 1-.55 1.59-.12.71-.19 1.34 0 2.01.15.54.27.86.63 1.2.21.2.64-.19.72-.33.06-.11.12-.29.18-.46.05-.15.12-.38.22-.38.31-.01-.19 1.34-.28 1.57-.12.28-.32.5-.54.68-.12.1-.24.15-.39.23-.14.06-.19.16-.28.32-.41.71-.68 1.69-.75 2.67-.03.53.38 2.65.91 2.75.06.01.54.29.89.48.15.09.28.16.44.22q.21.08.36.12c.13.04.26.07.28.08.64.26 3.78.18 4.21-.07.16-.1.81-.37 1.22-.55.05-.02.86-.49 1.35-.76.51-.29 2.06-1.25 2.08-1.77m46.57 4.86c-.54-.27-.91-.52-1.29-.94-.35-.39-.6-.92-.73-1.51-.14-.63-.1-1.12-.04-1.77 0-.1.06-.39.08-.52.03-.2.07-.38.02-.52-.03-.09-.68.34-.71.36l-.22.14-.26.14-.14.08-.15.09q-.2.14-.23.15c-.23.13-.46.26-.69.4-.31.19-.9.54-1.11.6-.16.05-1.05.48-1.53.72-1.04.52-2.14.79-3.51 1.06-.79.16-4.38.69-4.42.68-.46-.14 2.85-1.24 2.85-1.24 1.09-.36 2.3-.77 3.11-1.22.33-.18.92-.45 1.37-.64.41-.18.89-.41 1.29-.64.2-.11.43-.23.65-.34.21-.11.69-.34.69-.34.18-.12.42-.25.6-.34.23-.11.42-.22.62-.36l.13-.07.25-.17.25-.15.24-.16c.13-.08.26-.16.99-.64.16-.1.53-.35.56-.37.37-.27.99-.73 1.2-.94l.21-.18.17-.16q.1-.07.18-.18c.04-.05.26-.29.27-.29.08 0-.16-.71-.16-.72-.08-.19-.19-.39-.28-.56l-.14-.24-.06-.16-.08-.18-.16-.28-.08-.14-.08-.18-.08-.14c-.35-.65-.79-1.88-1.11-2.77-.07-.17.16-1.07.29-1.58.03-.12 1.3 1.26 1.45 1.43q.14.13.19.2s0 0 .18.2c.02.02.11.14.17.23.2.28.03.3-.16.24-.16-.05-.71-.15-.67.06.02.07.46.96.71 1.45.25.51.62 1.23.71 1.59.3 1.18-.2 2.4-.59 3.24-.06.14-.76.79-.95.94-.43.34-.98.78-1.12 1-.49.78-.2 2.31.26 2.95.29.4.59.7 1.05.94 1.11.59 2.77.38 3.94-.16 1.28-.59 2.38-1.41 3.44-2.22.62-.48 1.87-1.54 2.23-2.24.1-.2-.06-.51-.18-.62-.05-.05-.42.04-.55.07-.21.05-.48.09-.73.12-.32.04-.61.08-.89.08l-.42.04-.38-.04s-.6-.18-.64-.2c-.29-.11-.42-.25-.61-.45-.46-.5-.42-1.59-.13-2.26.37-.86 1.66-2.46 2.93-1.45l.3.16c.13.09.25.19.38.29.14.12.34.3.45.45q.11.15.17.23c.05.06.15.22.23.33.07.11.38.56.4.56.49.02 1.52-.64 1.89-.91.48-.35 1.14-.84 1.56-.98.3-.09.23.59.2.74-.04.29-.06.59.04.84.18.45.56.78.97 1 .35.2 1.1.34 1.55.22.39-.1.92-.38 1.45-.66.26-.14.5-.52.64-.78.18-.3.65-1.1.65-1.1.03-.04.61-.84.58-.32-.01.21-.13.43-.22.6-.11.21-.24.44-.26.64-.09.69 2.45 1.73 2.86.99.04-.07-.13-.57-.18-.66-.19-.31-.31-.51-.3-.69.03-.38.24-.92.39-1.24.18-.36.55.75.58.83.15.44.21.91.24 1.47.02.44-.35 1.42-.59 1.65s-.45.44-.77.52c-.46.11-1.03.02-1.45-.14-.35-.14-.65-.35-.9-.6-.04-.04-.19-.23-.29-.34-.11-.13-.31-.38-.36-.36 0 0-.19.3-.23.35 0 0-.19.26-.24.34-.16.23-.43.48-.68.6-.46.21-1.25.58-1.61.54-.49-.06-1.09-.12-1.35-.3-.33-.23-.68-.47-.83-.74-.12-.22-.24-.44-.3-.7-.04-.16-.07-.36-.08-.52q-.02-.13-.08-.26c-.05-.1-.55.29-.62.34-.21.17-.43.33-.67.48s-1.1.69-1.13.88c-.14.76-.36 1.93-.46 2.09-1.2 1.8-3.02 3.42-4.96 4.46l-.18.08-.14.08-.14.08-.16.08q-.12.06-.22.1l-.28.14c-.08.04-.37.12-.57.18q-.14.04-.32.08c-.15.03-.32.07-.44.12-.6.24-1.96.06-2.48-.18" fill="#1d1d1b" fill-rule="evenodd"/></svg>