<svg viewBox="0 0 69.92 32.1" xmlns="http://www.w3.org/2000/svg"><path d="m20.59 5.96c-.2-.33-.11-2.03.13-1.92q.06.03.05.19v.48s.26.54.26.54c.14.43 1.11-.14 1.19-.4.03-.08 0-.83-.04-1.24-.01-.18.06-.98.28-.86.11.06.15.81.17 1.03.01.27.12.57.27.78.14.2.45.19.85.18.1 0-.18-.76-.22-.86-.15-.41-.1-.84.07-1.31.04-.12.81 1.53.68 2.03-.11.43-.26.81-.6 1.02-.22.13-.7.05-.95-.1-.17-.09-.38.12-.61.35-.24.24-1.45.72-1.53.07m-6.8-.02s.25.28.48.51c.15.15.34.34.37.53.02.15-.12.38-.26.38-.22 0-.81-.38-.89-.58-.51-1.31.53-1.95 1.41-2.49.99-.61 2.26-1.1 3.47-1.57 1.1-.42 2.24-.94 3.31-1.42.75-.32 3.11-1.28 3.31-1.28.24 0-.23.74-.25.76-.06.07-2.15.93-2.7 1.13-.52.2-1.18.45-1.57.68-.06.03-.48.22-.68.3-.27.11-.52.22-.77.32l-.16.06-.12.06-.16.06-.36.16c-.2.1-.44.21-.64.3l-.29.12-.14.06q-.15.06-.34.14l-.16.06-.12.06c-.14.07-.48.22-.48.22-.41.16-2.27 1.1-2.24 1.44m24.66.84c0 .21.48.72.67.76.49.12.25-.95.05-1.14-.21-.21-.73.17-.72.38m26.67.44c.13.23.23.35.45.48.1.06.75.47.8.34.13-.31-.11-1.15-.36-1.3-.35-.21-.93.17-.89.48m-10.47-.32c1.1-.04 2.69 1.74 3.03 2.73.09.26.21-1.75.22-2.03.02-.4.06-.79.26-1.16.21-.39.72-1.25 1.33-.95.49.24.76 1.07.38 1.58-.07.1-.38-.24-.43-.29-.14-.15-.33-.35-.54-.39-.22-.04-.51.32-.57.5q-.04.13-.04.74v.48c-.02.32-.08 1.39-.08 1.39-.05.45-.21 1.84-.51 1.85-.07 0-.08-.07-.1-.17q-.04-.22-.1-.36c-.09-.21-.26-.47-.4-.68-.26-.39-.52-.77-.82-1.11-.11-.13-.3-.35-.47-.36-.34-.02-.54-.06-.84-.27-.48-.33-.71-.87-.33-1.52m-11.45 3.56c.14-.07.27-.15.39-.23.17-.12.34-.22.52-.32.17-.1.36-.21.52-.32.15-.1.33-.22.48-.3s.33-.18.4-.22t.26-.16l.28-.16c.2-.11.45-.24.58-.32.18-.11.36-.22.55-.32l.26-.16.14-.08c.21-.1.4-.21.6-.32l.65-.36.14-.08.14-.08.14-.08c.38-.21.85-.48 1.15-.64.15-.08 1.04-.55 1.07-.52.15.17-.13.75-.23.86l-.24.15q-.19.06-.29.17l-.26.15q-.12.07-.26.18c-.12.1-.29.19-.43.25s-.47.25-.69.38c0 0-.65.37-.99.56-.41.23-1.09.63-1.23.72-.59.41-1.46.88-2.16 1.24-.43.23-.91.49-1.27.72-.09.06-.4.26-.46.19-.06-.08.05-.83.19-.88m-4.51-1.97c.01-.05-.11-.17-.2-.25l-.18-.22c-.17-.21-.27-.45-.35-.73-.01-.05.24-.89.35-1.23.01-.04.43-.62.89-.7.33-.05.46.27.54.54.08.29.07.64.04.88-.04.34-.12 1.09-.06 1.16.03.03.89.8.89.8.06 0 0 .81-.18.84-.04 0-.21-.16-.21-.17 0 0-.21-.15-.32-.24-.23-.17-.54-.4-.76-.37l-.3.33q-.07.09-.28.3l-.09.13c-.05.06-.19.16-.31.26-.35.28-.78.65-1.11.97-.18.18-2.21 1.21-2.49 1.25-.85.13 2.06-1.75 2.06-1.75.41-.26.78-.54 1.14-.84l.61-.52.08-.12.13-.08.13-.27zm27.08.51c0-.08-.39-.35-.49-.41-.19-.12-.48-.39-.52-.64-.15-.93.6-2.8 1.61-2.1.11.07.3.63.33.82l.04.38v.62l.04.26-.04.38c.04.14.15.24.28.33.11.08.2.17.28.28.21.29.13.6.02.9-.03.07-.4-.19-.46-.23-.18-.13-.37-.26-.58-.29-.04 0-.43.45-.54.58-.09.1-.5.44-.74.64-.5.4-1.23.99-1.52 1.2-.52.38-4.01 2.4-4.49 2.07-.06-.04.69-.51.75-.55l.14-.08c.2-.12.26-.16.26-.16.18-.1.53-.28.53-.28.28-.17.65-.4.87-.52.19-.11.36-.21.54-.33.15-.1.31-.22.47-.31.61-.37 3.29-2.18 3.24-2.56m-59.11-4.63c.79-.04 1.24.85.91 1.45-.03.06-.54-.35-.61-.41-.17-.14-.53-.24-.63.07-.14.4-.1.82-.06 1.25.05.59.05 1.22-.04 1.83l-.04.24v.3l-.04.26c-.05.31-.1.56-.16.84-.11.47-.32 1.51-.32 1.55-.06.61.32 1.44.87 1.38.1-.01.15-.24.18-.36.04-.19.13-.57.28-.47.47.32-.61 1.71-.69 1.81-.2.26-.69-.47-.72-.54-.17-.36-.33-.97-.28-1.45.04-.45.13-.94.24-1.36.1-.38.23-.92.12-1.08l-.04-.12-.06-.16-.16-.36c-.12-.23-.26-.49-.4-.7-.25-.38-.53-.72-.86-1.02-.03-.03-.17-.14-.23-.15l-.19.03-.17.17c-.15.04-.58-.21-.68-.31-.25-.25-.37-1.41 0-1.54.49-.17 1.6.89 1.83 1.16.2.22.39.47.55.73.09.15.58.94.66.84 0 0 0-.87 0-1.06 0-.38.01-1.23.04-1.37.11-.55.3-1.2.72-1.46m8.64 6.02c.36-.28 1.51.9 1.73 1.13.23.25.42.54.6.83.11.17.46.74.54.72.06-.02.01-.81 0-.96-.02-.39-.06-1.02 0-1.35.06-.35.3-1.25.52-1.37.18-.09.52-.25.69-.12.18.15 1.13 1.37.6 1.63-.17.09-.36-.12-.53-.31s-.39-.45-.61-.41c-.38.05-.34.57-.3.92.04.48.04.97 0 1.43-.03.35-.28 2.12-.55 2.15 0 0-.51-1.16-.52-1.18-.19-.43-.49-.82-.8-1.13-.13-.13-.37-.15-.65-.17-.25-.02-.55-.22-.71-.34-.26-.21-.4-1.32 0-1.46m22.95 1.88c.14.04.42.26.59.39.21.17.53.39.78.44.07.01.38-.49.42-.58.1-.21.26-.52.42-.56.31-.08 1.44.88 1.51 1.2s-.53 1.23-.75 1.35c-.09.05-.55-.33-.68-.43-.22-.18-.74-.6-.78-.6-.05 0-.38.52-.42.61-.16.31-.32.64-.48.66-.21.03-1.4-.95-1.45-1.14-.05-.22.51-1.44.83-1.35m13.64 2.45c-.21-.55-.13-1.06-.06-1.55.06-.44.57-2.01.8-2.07.1-.03-.22.71-.23.75-.17.4-.26.97-.24 1.48.02.54.34 1.21.83 1.22.19 0 .29-.26.34-.42.04-.13.17-.55.26-.52.09.02-.03.64-.06.76-.07.29-.18.68-.35.88-.59.7-1.01-.05-1.28-.54m15.23-.29c.11.9-.89 2.37-1.43 1.15-.2-.44-.21-.94-.18-1.41.02-.43.68-2.1.89-2.18.18-.07-.19.74-.22.8-.17.34-.3.66-.34 1.12-.04.41.22.84.39 1.1.12.18.41.1.53-.02 0 0 .15-.25.15-.25.04-.09.17-.36.21-.31m-47.42 4.28c.08-.26-1.79-.18-2.03-.1-.22.08-.32.17-.45.33-.12.14-.29.35-.47.28-.33-.12.93-1.66 1.02-1.72.48-.28 3.18-.32 3.27.28.05.39-.19.78-.35 1.04-.32.52-2.25 1.39-3.05 1.29-.21-.03.88-.65.92-.68.19-.11 1.16-.66 1.14-.72m36.03 2.53c.11-.44-1.23-1.05-1.57-.95-.35.11-1.42.59-.68.92.26.12.72.2 1.03.2.21 0 .47-.04.75-.08l.2-.04c.1-.02.25-.06.28-.06m-13.86.46c-.04-.47-1.4-1.15-1.96-1.43-.64-.32-1.3 1.2-1.47 1.77-.08.28.09.6.25.9.11.2.7.2.94.13.51-.14 2.14-.96 2.24-1.36m-35.29.88-.14-.26c-.05-.1-.09-.25-.12-.36-.02-.07-.07-.37-.08-.44v-.12c0-.21 0-.21-.04-.34-.06-.18.36-1.76.48-2.11.13-.37.25-.73.38-1.08.06-.16.34-.74.46-.69s-.33 1.3-.4 1.5c-.16.43-.29.86-.36 1.37-.08.51.04 1.12.26 1.42.21.29.51.7.89.54.12-.05.17-.23.22-.4.05-.16.17-.59.29-.54.35.15-.26 1.53-.4 1.69-.33.4-1.29.43-1.44-.17m31.21.64c-.04-.59.16-1.63.38-2.19.1-.26.2-.5.32-.74.07-.13.34-.68.26-.73-.3-.15-2.35-2.09-2.41-2.3-.13-.48-.04-1.12.09-1.58.03-.09.27.09.28.09.06.04.29.2.3.2 0 0 .66.24.93.34.29.11.65.24.89.38.09.05.24.24.1.34l-.22.05s-.38.08-.38.13c0 .28 1.01.89 1.31 1.02.16.07 1.14-1.23 1.38-1.56.1-.14.21-.28.32-.4 0 0 .21-.27.32-.4.14-.18.63-.78.68-.78.24.01-.58 2-.65 2.08l-.16.26c-.11.15-.22.29-.33.43-.09.11-.63.83-.61.86.09.15.19.33.35.24.08-.01.59.39.72.5.45.37.73.79.94 1.41.15.43-.13 1.63-.26 1.97-.27.7-2.1 1.82-2.95 1.95-1.04.16-1.57-.57-1.59-1.57m-5.6-17.5c.15-.09.52.81.6 1.02.16.39.35.81.55 1.2.2.4.41.83.58 1.25.08.2.54 1.35.1 1.29-.08 0-.27-.24-.36-.33-.12-.14-.34-.41-.41-.42-.2-.01.18 2.48.22 2.75l.04.32.04.36.04.24.04.48.04.32s.16 1.04.2 1.32c.27 1.74.85 6.52.81 6.7l.04.64v.96c0 .24-.06.79-.12 1.17-.11.69-.2 1.33-.61 1.7-.08.07-.08-.88-.08-1.04 0-.48 0-1.07-.04-1.62-.03-.47-.24-2.58-.36-3.77-.2-1.9-.45-3.77-.73-5.54-.14-.91-.25-1.7-.36-2.61-.06-.49-.17-1.33-.2-1.52q-.01-.07-.08-.72c-.03-.28-.06-.54-.08-.64-.12-.53-.24-1.31-.32-1.85-.02-.17.12-.66.2-.96l.04-.16.04-.12.06-.14c.05-.11.09-.2.11-.28m30.85 20.29c.37-.08.74-.15.97-.04.37.17.75.35.85.34.39-.03.65-.27.86-.49.09-.1.15-.2.23-.33.04-.07.26-.42.32-.32l-.02.2v.16c.02.12.03.13.16.2.31.18.53.26.85.04q.06-.04.08-.36c.01-.16.07-.31.12-.44.13-.33.37-.81.32.2-.01.29-.41 1.2-.57 1.38-.12.13-.52.33-.74.29l-.26-.08c-.35-.11-.49-.15-.57-.14 0 0-.24.2-.34.28-.18.15-.48.27-.75.3-.08 0-.51-.1-.65-.18-.26-.16-.36-.22-.75-.22-.24 0-1.65.87-2.62 1.46-.4.25-.81.48-1.27.68-.2.09-1.8.36-1.15.06.93-.43 1.64-.89 2.44-1.42.39-.26.85-.56 1.16-.82.35-.28.85-.62 1.32-.75m-59.28 3.54h-.26c-.06 0-.41-.07-.6-.11-.29-.06-.71-.2-.91-.34-.91-.66-1.65-1.38-1.9-2.69-.23-1.2-.09-2.52.24-3.69.2-.68.56-2.07.54-2.21l-.08-.16s-.12-.28-.14-.32c0 0-.08-.24-.12-.36-.05-.14-.09-.29-.12-.44q-.04-.2-.04-.38c0-.19 0-.21-.04-.3-.24-.52.37-2.79.6-3.57.17-.58.73-2.48 1.17-2.38.07.02-.25.87-.3 1q-.08.2-.14.46c-.04.16-.09.3-.14.44-.27.73-.49 1.56-.59 2.45-.08.7.05 1.39.2 1.89.07.22.18.46.31.64l.16.2.19.17c0 .16.57-.18.61-.22.11-.16.16-.32.22-.54.07-.26.15-.58.19-.67.09-.21.21.13.21.17 0 .18-.07.67-.12.94-.03.17-.18.77-.25.86q-.12.15-.18.27c-.06.13-.17.24-.28.32-.15.11-.22.16-.44.18-.08.01-.53.06-.5.1l-.08.24-.08.24c-.07.23-.13.43-.2.64-.18.53-.42 1.45-.37 2.01.05.55.16 1.3.47 1.77.27.42.6.93 1.13 1.21.44.23.92.48 1.53.54.71.08 1.43.02 2.1-.2 1.46-.48 5.83-3.21 5.99-4.56.13-1.12-.11-3.1-.33-4.78-.03-.26-.22-1.55-.32-2.25l-.06-.36-.02-.24v-.16l-.04-.16v-.24l-.04-.16-.04-.24c-.15-1.13-.46-3.34-.52-3.65-.12-.58-.55-3.63-.45-3.77.05-.07.19-.38.22-.44l.04-.24.08-.2.16-.24s.22.42.24.6q.02.18.06.28c.03.07.09.42.12.6.12.73.19 1.03.36 1.73.36 1.43.56 3 .68 4.5.07.84.19 1.64.28 2.33.07.49.37 2.57.37 2.57.21 1.79.54 4.38.76 5.18.1.35.24.68.38.98 0 .01.16.27.24.4l.15.25q.17.2.18.25c.13.35.98.7 1.37.79.56.13 1.16.14 1.61-.04.75-.3 1.18-.7 1.62-1.3.07-.1.38-.63.56-.93.16-.27.36-.52.61-.7.26-.19.19.48.18.54-.08.45-.04.78.1 1.12.13.33.57.67.91.8.48.18 1 .3 1.47.18.6-.16.99-.29 1.39-.64.21-.18.21-.89.21-1.63 0-.02-.08-.62-.12-.92-.06-.42-.09-.67-.12-1.01-.07-.8-.2-1.64-.32-2.45-.11-.69-.28-1.8-.32-2.17l-.04-.36-.04-.32c-.02-.15-.07-.58-.08-.64q-.07-.35-.08-.48v-.16l-.04-.36c-.05-.36-.16-1.16-.16-1.17-.02-.3-.07-.64-.12-.96-.18-1.19-.54-3.88-.44-4.46.04-.26.46-1.17.6-1.26.08-.05.33 1.58.36 1.78.06.37.11.77.16 1.12l.06.4v.44c.21 1.36.38 2.81.54 4.26.32 2.85.62 5.53 1.21 7.87.14.53.46 1.2.82 1.49.44.35.86.68 1.26.82.48.16.98.14 1.53 0 .25-.06.5-.19.83-.41 0 0 .17-.14.18-.13 0 0-.12-1.19-.14-1.35v-.14l-.04-.24c-.04-.23-.09-.58-.12-.88-.11-.95-.23-1.89-.4-2.81-.13-.69-.26-1.46-.36-2.25-.11-.85-.26-1.77-.4-2.61-.28-1.66-.51-3.43-.73-5.18-.09-.74-.24-1.35-.4-1.96-.09-.35.25-1.31.43-1.64.12-.22.34.41.38.52.08.24.21.51.32.76l.06.14.08.18.24.52q.13.28.16.36c.07.19.12.35.2.5.07.13.67 1.56.54 1.72-.15.19-.43-.18-.51-.29s-.32-.45-.43-.36c-.07.05.04.78.09 1.07.04.25.11.64.12.76.05.4.1.72.16 1.08l.24 1.73c.1.58.19 1.17.28 1.77.33 2.11.98 7.27.97 7.39-.05.69-.15 1.92-.44 2.41-.24.4-.39.55-.77.8-.4.27-.99.35-1.59.38-.48.03-1.26-.24-1.53-.46-.28-.22-.51-.4-.74-.67-.12-.15-.31-.37-.37-.47-.11-.18-.23-.37-.35-.35l-.06.24-.08.28-.04.16-.04.12c-.1.34-.22.55-.38.81-.25.37-.63.63-1.09.78-.52.17-1.16.31-1.7.2-.5-.1-.87-.28-1.18-.56-.37-.32-.55-.72-.74-1.24-.05-.14-.4.47-.42.5-.09.16-.21.33-.33.47-.11.13-.3.35-.38.42l-.22.18-.25.17c-.36.37-1.7.61-2.32.5-.35-.06-.75-.18-1.11-.38l-.24-.16-.13-.09q-.21-.17-.22-.18c-.25-.11-.84-1.21-1-1.56-.16-.36-.29-.73-.38-1.15-.04-.19-.11-.47-.12-.56-.05-.28-.11-.62-.17-.81-.08-.28-.23.53-.23.53-.02.12-.07.42-.14.56-.16.31-.4.65-.61.96-.4.57-1.02 1.17-1.59 1.57-.08.06-.61.48-.88.7-.14.11-.61.42-.91.63-.17.11-.34.22-.52.32s-.56.32-.56.32c-.11.08-.39.18-.57.24q-.11.04-.1.2s.02.38-.1.2l.02-.16q.02-.14-.3-.06l-.2.04-.2.04c-.5.1-1 .19-1.64.11m42.28-.78c-.17-.36-.48-1.02-.51-1.17-.06-.29-.02-1.57.02-2.69 0-.06-.92.5-.95.52 0 0-.27.16-.4.24l-.23.17c-.11.08-.23.16-.35.23l-.26.16c-.12.09-.28.19-.38.24-.92.49-1.85.98-2.79 1.49-.86.46-2.04.78-3.27 1.02-.34.07-.81.16-1.05.2-.36.06-.72.13-1.09.2q-.12.02-.32.08c-.24.07-.43.12-.68.16-.29.05-1 .17-1.09.14-.55-.15 2.47-1.2 2.66-1.26.48-.16 1.17-.39 1.47-.54.49-.25 1.7-.82 1.76-.84.5-.18 1.2-.56 1.65-.9l.16-.06c.14-.07.3-.16.44-.24.29-.16.58-.32.89-.48.9-.48 2.36-1.28 3.09-1.93l.57-.4.13-.09q.14-.1.21-.15l.23-.17c.14-.11.55-.41.55-.41.36-.29 1.61-1.32 1.54-1.71-.06-.38-.35-.84-.55-1.17-.25-.4-.48-.82-.68-1.24-.33-.71-1.21-2.74-1.23-2.87-.05-.32.24-1.24.32-1.44.02-.06.63.64.64.65.06.07.22.21.34.3.14.11.27.23.39.36.16.16.6.62.6.62.04.05.2.33.12.39-.04.03-.26-.02-.34-.03-.22-.05-.25-.06-.5-.03-.17.01.29.76.29.77.05.08.16.3.24.46.06.13.16.26.24.38.35.5.65 1.12.75 1.85.1.8-.02 1.74-.24 2.41-.11.32-.7.94-1.04 1.3-.19.2-.42.38-.63.55-.26.21-.45.36-.61.62-.21.37-.29 1.23-.18 1.54.48 1.36.68 1.73 1.8 2.39.34.2 1.34.2 1.86.2 2.61 0 5.93-3.55 7.39-5.18 0 0-.1-.42-.16-.66-.01-.06-.42.05-.44.06-.23.07-.44.14-.61.16-.57.08-1.61.22-1.84.2-.54-.05-.98-.3-1.34-.55-.62-.44-.46-1.95-.13-2.66.22-.48.62-.97 1.07-1.23.41-.23.8-.26 1.23-.18.6.11 1.09.53 1.46.89.18.17.35.41.52.64.19.26.45.6.6.63.13.02 1.53-.85 1.73-.99.23-.17.66-.48.71-.53.21-.17.54-.44.76-.49.34-.08.32.4.3.7-.02.44-.04.7.06.84.75 1.15 2.06 1.61 3.47.8.49-.28.87-.64 1.13-1.16.22-.44.77-1.47 1.05-1.61.26-.13.09.43.04.54l-.06.14-.12.24c-.07.15-.15.32-.16.4-.12.77 2.35 1.63 2.89.98.08-.1-.13-.56-.2-.68-.2-.37-.34-.61-.3-.74.11-.41.34-1.17.37-1.22.15-.26.61.86.64.98.16.55.32 1.12.2 1.65-.14.61-.27 1.16-.64 1.54-.6.61-1.57.47-2.37.15-.16-.06-.44-.3-.66-.49-.1-.08-.21-.19-.28-.29-.08-.1-.27-.36-.43-.19l-.08.14-.16.26-.17.23c-.08.11-.17.23-.26.32l-.2.16-.23.16c-.7.71-2.33.6-3.11.15-.74-.42-1.01-1.23-1.07-2.05-.01-.18-.71.36-.72.37-.17.15-.41.35-.75.59-.12.08-.23.16-.33.25-.18.15-.59.48-.59.48-.02.04-.1.86-.12 1.12-.04.42-.12.8-.3 1.08-.27.42-.52.8-.82 1.18-.15.19-.37.4-.54.58-.11.11-.45.46-.47.49-.31.45-1.01.97-1.46 1.29-.09.06-.22.17-.33.26-.12.09-.29.22-.43.32-.11.08-.31.21-.57.39l-.28.16c-.14.11-1.2.53-2.24.94-.5.2-1.61.22-2.1.08-.86-.25-1.78-.7-2.1-1.46m-25.64 2.19c-.15-.05-.57.46-.83.78-.05.07-.19.25-.24.26-.25.06-1.41-.81-1.57-1-.14-.17.58-1.38.77-1.4.1-.01 1.17.7 1.53.94.18.12.53-.38.57-.44.15-.25.34-.56.48-.62.19-.08 1.47 1.02 1.49 1.12.08.29-.37.93-.69 1.38-.14.19-1.4-.91-1.5-1.01m-13.32.37c.56-.43 6.13-3.19 6.17-3.18.16.04-.06.73-.24.82-1.14.55-2.34 1.21-3.39 1.81-.42.24-1.14.6-1.67.86-.29.15-.56.28-.83.42-.14.07-.3.11-.28-.08.01-.17.06-.64.24-.64" fill="#1d1d1b" fill-rule="evenodd"/></svg>