<svg viewBox="0 0 80.71 27.13" xmlns="http://www.w3.org/2000/svg"><path d="m29.55 1.14c-.13-.12-.47.05-.65.14-.25.12.42.66.48.71.61.49.34-.6.17-.85m20.35.33c-.02-.33-.46-.15-.58-.05-.32.26-.21.57.07.79.74.58.84-.07.51-.74m26.87.03c-.31-.36-1.03-.06-.98.39.03.27.59.59.85.72.79.42.33-.88.13-1.12m-11.63 1.12c-.03-.34.02-.82.24-.96.38-.25 1.66.91 1.84 1.12.08.11.16.21.24.32.02.02.16.2.17.21.11.12.14.15.15.17.13.19.61.86.68.86l.06-1.77c0-.29.03-.78.16-1.16.05-.14.07-.2.15-.31.09-.13.15-.23.23-.39.01-.02.12-.17.23-.32l.18-.15c.01-.1.58-.08.68-.03.55.25.62 1.03.36 1.55-.05.11-.41-.25-.45-.29-.14-.14-.26-.25-.47-.33-.2-.08-.43.19-.54.32-.13.15-.13.81-.13 1.09 0 .77 0 1.44-.12 2.27-.05.33-.2 1.35-.51 1.25l-.02-.2-.06-.24c-.05-.15-.32-.57-.52-.84q-.16-.22-.24-.34l-.09-.13c-.17-.23-.36-.48-.57-.66-.17-.14-.19-.16-.43-.17-.21 0-.36-.08-.55-.18-.33-.17-.54-.32-.68-.68m-11.2 2.73c.9-.66 7.9-4.75 8.19-4.78.14-.01-.15.8-.17.84s-.27.18-.4.25c-.16.09-.39.25-.67.44l-.14.08-.19.09q-.14.09-.26.15l-.26.16-.12.08-.14.08q-.2.11-.28.16c-.11.08-.18.12-.26.16q-.24.12-.54.32l-.18.08-.14.08s-.02.01-.22.12l-.24.16c-.2.13-1.36.82-2.08 1.24-.37.22-.9.53-1.11.64l-.26.16c-.24.16-.24.16-.24.16-.21.13-.44.27-.5.26-.1-.02-.02-.91.22-.93m-51.39-1.22s-.02-.01-.2-.18c-.14-.12-.27-.25-.34-.45-.12-.37.11-.79.24-1.02.06-.11.66.19.71.21.16.08.32.16.45.24l.12.08q.18.13.21.15c.28.14.62.59.8.85.12.18.3.43.37.57.14.27.32.62.42.64.04 0 .16-1.48.18-1.73.04-.52.16-.95.3-1.41.09-.27.26-.47.54-.5.39-.05 1.1.85 1.09 1.24-.01.46-.39.37-.61.17-.23-.21-.43-.39-.76-.45-.15-.02-.34 1.99-.36 2.21v.5c0 .2-.03.52-.08.76-.04.18-.07.32-.12.48l-.07.19q-.12.2-.13.29l-.08-.16-.04-.16-.06-.16q-.09-.21-.1-.24c-.04-.12-.06-.18-.1-.26-.18-.36-.38-.76-.57-1.01-.19-.26-.4-.52-.66-.71-.09-.06-.29-.01-.5.03-.17.04-.39-.07-.66-.19m46.12-1.67c-.13-.35.13-1.1.26-1.4.15-.33.87-1.08 1.24-.63.19.23.3.73.27 1-.03.35-.14 1.47-.01 1.52.23.09.8.6.86.85.05.18-.01.52-.09.67-.04.09-.52-.25-.6-.31-.24-.17-.58-.41-.81-.36-.02 0-.85.88-1 1.06-.35.41-.75.73-1.22 1.03-.5.32-2.09 1.19-2.56 1.26-.17.03.01-.36.1-.42 0 0 .28-.16.42-.24.32-.18.55-.33.87-.56l.67-.48.24-.16q.11-.08.24-.16l.24-.16c.46-.33.86-.73 1.26-1.11.25-.25.39-.39.12-.66-.16-.16-.51-.52-.51-.71m-27.9.32s-.07.44-.1.58l-.04.18-.04.2-.04.16c-.12.6-.21 1.06-.12 1.53.09.46.27.67.51.95.15.18.51 0 .6-.15l.06-.24c.04-.16.12-.47.2-.46.22.04-.12 1.79-.84 1.88-.67.08-.96-1.48-.93-1.95.04-.59.12-1.59.28-2.01l.08-.28.06-.2s.12-.32.12-.32.22.05.2.12m8.37.18s-.24-.23-.48-.45c-.15-.14-.33-.3-.37-.54-.2-1.13 1.36-2.62 1.74-1.33.12.41.1.67.04 1.04-.05.31-.11.68.17 1.01l.15.23.07.16s0 .8-.13.7c-.3-.22-.6-.44-.79-.42-.08 0-.43.47-.51.58-.13.2-.34.44-.52.59-.37.32-1.19 1.04-1.25 1.08-.68.54-2.35 1.75-3.19 1.84-.13.01.3-.48.3-.48q.08-.05.23-.17c.21-.16.41-.33 1.02-.79l.21-.18c.07-.06.23-.15.36-.22l.45-.32c.76-.54 2.22-1.63 2.5-2.35m47.29.77s-.44-.44-.63-.61c-.17-.15-.36-.32-.41-.59-.12-.67.42-2.09 1.03-2.19.24-.04.51.02.65.24.06.09.17.44.24.64.06.18.06.5.06.72 0 .35 0 .68.04.98.02.13.27.35.46.52.11.09.19.23.22.4.02.14-.05.64-.13.62-.17-.05-.3-.14-.47-.27-.12-.09-.37-.27-.43-.25-.3.09-.42.26-.6.52-.06.09-.18.2-.26.27l-.2.18-.25.18c-.43.4-1.09.98-1.44 1.19-.13.08-.26.16-.38.24l-.13.09q-.11.08-.23.15c-.24.14-.32.19-.44.28l-.12.08-.14.08-.16.08c-.35.2-2.02 1.15-2.26.92-.2-.19.43-.52.58-.6.23-.12.67-.38 1-.58.18-.11 1.04-.69 1.55-1.04s1.27-.86 1.53-1.08c.2-.17.41-.34.6-.52.09-.09.2-.18.3-.27l.24-.19.18-.23zm-6.1 4.36c.15.22.07.26-.14.33l-.16.06s-.32.12-.32.12c-.08-.18.56-.59.62-.51m-63.09-.59.12-.08c.14-.08.26-.16.4-.24.3-.17.68-.39.91-.5.54-.27 1.51-.76 1.74-.86.29-.12 1.26-.63 1.82-.93.62-.33 1.27-.63 1.94-.92.28-.12.76-.33.89-.4.01 0 .77-.35 1.07-.48.35-.16.69-.31 1.03-.48.32-.16.74-.33 1.13-.48 1.35-.54 4.11-1.64 4.49-1.55.03 0-.38.92-.58 1.01-1.33.59-2.73 1.12-4.07 1.57-.37.12-.73.29-1.07.46-.34.16-.92.45-1.07.52-.17.07-.34.15-.48.24-.14.08-.43.21-.65.3l-.16.06q-.18.07-.36.16c-.2.1-.56.28-.56.28s-.34.17-.49.24c-.1.05-.46.21-.68.3 0 0-.3.15-.42.22l-.26.16-.28.14c-.12.06-.28.14-.42.22-.16.09-.34.18-.51.26l-.26.14-.3.16-.16.08-.16.08-.12.06c-.53.2-1.42.7-2.06 1.06-.05.03-.91.52-.93.48-.1-.16.46-1.21.55-1.28m21.02 1.16c-.15-.34 0-1.71.1-2.09.07-.27.18.26.18.36.01.49.03.99.17 1.15.19.21.38.21.74.17.28-.03.54-.34.65-.56.12-.26 0-.79-.06-1.09-.05-.23.01-.58.09-.95.06-.31.3.51.31.59.05.4.14 1.05.26 1.14.1.08 1.13.88 1.19.26 0-.06-.14-.3-.22-.42-.09-.14-.17-.3-.22-.46-.15-.44-.09-.89-.02-1.45.02-.15.22.24.22.24.06.25.11.42.22.6.2.32.45.73.5 1 .1.53-.19 1.05-.37 1.38-.12.23-.6.26-.86.21-.23-.04-.33-.07-.48-.18-.18-.13-.27-.2-.42-.17l-.16.2q-.16.17-.17.19c-.17.15-.34.3-.54.37-.5.17-1 .01-1.11-.5m7.04-3.69c0 .1-.06.24-.1.36q-.03.09-.08.28l-.04.16-.04.16-.04.24-.08.4c-.14.64.08 1.29.37 1.82.12.21.55-.02.64-.21l.04-.12c.05-.15.08-.24.16-.28.31-.16-.17 1.42-.6 1.64-.53.26-.92-.66-1.01-1.24-.11-.72.07-1.57.26-2.21.06-.2.35-1.17.53-1.01m12.83 3.69c-.13-.3.5-1.43.73-1.42.14 0 .47.23.7.38s.61.4.75.42c.05 0 .37-.55.44-.68.05-.09.31-.46.4-.48.22-.06 1.37.86 1.45 1.04.2.42-.32 1.4-.67 1.53-.03.01-.57-.38-.74-.51-.25-.19-.66-.49-.77-.47-.03 0-.31.54-.37.66-.17.33-.36.71-.73.46-.34-.22-1.15-.79-1.21-.92m14.61 1.12c-.26-.43-.26-.98-.26-1.57 0-.73.44-1.69.71-2.24.19-.38-.07.6-.11.71-.11.32-.42 1.29-.2 1.65l.04.16s.13.34.14.36c.08.16.23.31.38.4.28.16.49.03.57-.24.04-.14.19-.67.3-.64.08.02-.02.66-.06.8-.09.3-.2.63-.3.78-.44.65-.83.23-1.21-.18m13.5-.8c-.05-.28.14-.83.24-1.12.08-.23.48-1.28.64-1.19.09.05-.18.65-.22.71-.14.26-.34.64-.3.92.06.4.2 1.39.46 1.43.3.04.37-.04.49-.22.06-.09.31-.48.32-.48.44.12-.63 1.58-.7 1.62-.73.36-.97-1.05-.94-1.66m-46.66 1.55c.31-.12 1.63.64 1.62.98-.01.38-.46 1.53-.83 1.42-.12-.03-.84-.6-1.14-.84-.44-.35-.13-1.29.35-1.57m-23.84 1.94c0-.18.08-.79.16-1.41.05-.35.13-.92.18-1.04.02-.04.26-.59.32-.55.09.06-.11.87-.15.99-.13.41-.27 1.15-.14 1.73.07.32.24.97.48 1.04.19.06.42.11.53-.08.02-.03.07-.23.08-.28.03-.13.06-.25.15-.22.12.05.11 1.68-.82 1.54-.49-.07-.86-1.04-.79-1.73m16.11-1.34c-.63-.34-4.19-.45-5.39-.47-1.15-.02-5.25 0-5.59.98-.01.04.99.75 1.15.86l.31.26q.16.13.2.16.22.17.23.18s.22.18.33.26c.37.3.75.63 1.09.96.49.49.92.22 1.48-.13.42-.27.96-.51 1.41-.7.24-.1.96-.46 1.41-.68.26-.13.53-.26.79-.38.28-.13.71-.33.85-.4q.16-.08.34-.16s.33-.16.48-.24c.18-.09.91-.45.92-.5m42.3 4.99c.05-.11.6 0 .69.02.29.06.77.03 1.13-.04.79-.16.55-.33.09-.67-.21-.15-.6-.38-.92-.37-.38.01-1.12.65-.99 1.06m-11.5.4c-.09-.43-1.92-1.5-2.37-1.4-.17.03-.96 1.58-1.04 1.88-.07.27.11.59.25.86.29.54 1.6-.11 1.87-.26.24-.13 1.44-.84 1.29-1.08m-3.64 2.82c-.21-.25-.32-.61-.38-1.01-.11-.8.14-1.88.38-2.49.09-.2.18-.43.28-.64.15-.3.27-.54.24-.68 0-.05-.24-.2-.3-.24-.12-.08-.22-.16-.33-.25-.22-.18-.44-.37-.64-.56-.28-.25-1.01-.96-1.14-1.15-.17-.27-.08-1.31.03-1.63 0-.01.61.25.7.29l.2.06.2.08.16.06c.25.09 1.31.49 1.31.62q0 .17-.18.22c-.24.07-.44.12-.46.24-.02.14 1.17.88 1.39.93.15.04 1.13-1.33 1.25-1.52.15-.24 1.17-1.62 1.35-1.64.29-.04-.48 1.85-.54 1.94-.16.23-.43.64-.49.71-.08.1-.16.22-.23.33-.11.16-.32.48-.34.5-.12.12.43.49.52.55.24.16.45.31.63.51.39.44.7.81.82 1.51.05.3-.19 1.58-.38 1.83-.48.59-1.06 1.02-1.74 1.4-.35.2-2.22.89-2.31.05m-16.05.05c.88-.15 3.71-1.36 4.01-2.09.3-.71-2.61-2.41-3.65-1.89 0 0-.25.08-.36.12-.2.06-.38.13-.55.22-.27.15-.67.39-.85.56l-.44.34c-.14.11-.33.26-.4.34-.11.13-.32.36-.36.4-.16.16-.45.45-.49.5q-.06.08-.36.38s-.03.04-.16.16c0 0-.23.29-.27.34-.21.27-.66.86-.69 1.12 0 .02.38.02.42.02h1.11l.26-.04h.26l.4-.04.28-.04c.49-.05 1.31-.18 1.82-.4m9.37-19.36c.39.33 2.19 4.26 2.02 4.56-.11.19-.49-.22-.57-.31-.09-.11-.41-.49-.49-.42-.07.05.55 4.23.62 4.53.04.18.07.28.08.4q.06.51.08.6l.04.2.04.44c.03.21.08.47.12.68l.36 2.45c.35 1.71.69 3.71.69 5.48 0 .6 0 1.67-.2 2.47-.06.23-.31 1.22-.59 1.04l.02-.48s0-.86 0-.86c-.03-.58-.07-1.12-.12-1.67-.11-1.14-.26-2.35-.44-3.53-.28-1.83-.83-5.44-.89-5.94q-.01-.11-.08-.48c-.05-.26-.09-.56-.12-.84-.08-.64-.08-.64-.08-.64-.03-.19-.12-.68-.12-.68-.04-.34-.13-.98-.2-1.49-.07-.48-.12-.9-.16-1.39-.03-.41-.11-.97-.2-1.42-.04-.17-.09-.43-.14-.56l-.08-.14c-.04-.07-.09-.15-.1-.22-.01-.06.1-.56.16-.85.05-.21.22-.98.35-.93m31.47 20.73c.27-.09.62-.19.89-.14.12.02.32.14.44.22.17.1.26.16.49.18.29.03.67-.24.84-.39.11-.1.18-.18.25-.31.1-.18.24-.44.34-.51.09-.06.02.15.02.15-.04.14-.02.24.05.36.06.11.62.37.82.21.17-.14.24-.4.31-.64.04-.14.19-.66.32-.65.37.03-.35 1.71-.45 1.86-.18.25-.53.47-.89.38l-.2-.06-.24-.14-.24-.12-.16.18.04-.26-.08.14-.06.19-.17.18c-.13.1-.31.21-.5.25-.33.07-.47.06-.79-.1-.29-.14-.56-.28-.79-.26-.25.02-1.58.85-2.44 1.39-.43.27-.88.55-1.25.72-.18.09-1.43.57-1.46.35-.01-.11.18-.18.27-.21.15-.05.28-.1.4-.18.21-.13.53-.33.65-.4.21-.13.41-.27.62-.4l.24-.17c.11-.08.22-.15.33-.23.39-.26.77-.54 1.14-.81.31-.23.99-.71 1.26-.76m-11.78 2.23c.85-.25 2.42-1.5 3.46-2.32.55-.44 1.04-.94 1.52-1.45.24-.25.47-.5.68-.78.26-.35.21-.49.03-.93-.03-.08-.53.09-.57.1-.2.07-.45.12-.69.16-.61.09-1.15.16-1.65.16-1.44 0-2.16-1.43-1.59-2.83.3-.73.55-1.1 1.13-1.52.25-.19.49-.34.91-.3.22.02.46.06.64.12.06.02.28.12.32.15.14.1.15.11.19.11.17.02.86.71.98.85s.23.3.33.45.32.47.44.48c.3.02 1.42-.73 1.78-.98 0 0 .26-.21.35-.29.09-.07.31-.25.31-.25.3-.19.89-.53.89-.53.17-.04.24.33.24.46l-.08.62c0 .1.05.33.1.42.2.3.57.89.87.92l.26.14.24.08c.31.09.64.08.85.08.43-.02 1.05-.18 1.37-.46.45-.39.87-.77 1.05-1.12.29-.58.59-1.17.99-1.62.22-.25.02.67 0 .73-.13.28-.26.57-.22.78.05.27.74.64 1.09.82.3.16 1.12.09 1.74.04.15-.01-.14-.65-.16-.7l-.17-.23-.15-.23c-.07-.26.19-1.13.32-1.57.08-.25.46.5.46.52l.18.32c.18.58.26 1.1.26 1.65 0 .58-.26 1.16-.51 1.52-.19.27-.45.48-.84.55-.51.09-.99.06-1.45-.14-.32-.14-.6-.31-.84-.53-.08-.08-.2-.19-.25-.25-.1-.14-.28-.39-.36-.39-.04 0-.18.23-.24.33-.1.16-.24.39-.34.5-.18.2-.39.44-.63.57-.86.48-1.79.76-2.87.34-.39-.15-.72-.49-.94-.82-.12-.18-.23-.4-.29-.63-.02-.09-.19-.76-.22-.74-.73.53-2.22 1.67-2.3 1.79l-.02.28-.04.4-.04.52c-.03.34-.1.6-.22.84-.42.84-1.07 1.66-1.75 2.26-.99.88-1.99 1.77-3.05 2.48-1.04.69-2.76 1.45-4.2 1.19-.58-.11-1.11-.26-1.47-.58-.29-.26-.69-.73-1.09-1.21-.11-.13-.32-.91-.36-1.16-.04-.26-.04-.81-.04-1.24q0-.06.04-.4c.04-.31.06-.51.01-.71-.02-.09-1.15.65-1.24.71l-.61.4-.48.32q-.17.12-.24.16c-.97.52-1.99 1.06-3.01 1.61-.97.52-2.3.8-3.57 1.06l-.28.06-.16.02-.4.08-.16.04-.28.04-.2.04c-.2.04-.39.08-.56.14-.39.13-1.77.42-1.63.15.11-.21 2.6-1.14 3.24-1.37.53-.19 1-.39 1.47-.62q.16-.08.34-.16s.3-.16.48-.26l.24-.12.28-.14.18-.08c1.36-.52 3.97-2.22 5.66-3.34.86-.57 3.25-2.29 3.42-3.06.02-.08-.28-.72-.34-.84-.04-.07-.16-.27-.24-.4-.05-.09-.16-.27-.28-.5l-.08-.14c-.08-.15-.24-.42-.24-.42l-.08-.16-.08-.12-.08-.16-.08-.16q-.12-.21-.16-.3c-.08-.17-.22-.55-.32-.82-.12-.3-.24-.63-.36-.86-.17-.32-.16-.49-.1-.86.03-.19.19-1.19.3-1.02.11.18.43.49.63.69.11.11.31.31.31.31.14.11.28.22.48.44.16.14.18.15.19.17.13.14.3.34.38.43.06.08.14.35-.1.29-.08-.02-.92-.14-.71.06.2.19 1.42 2.56 1.53 2.97.1.35.14 1.94-.21 2.2l.08.13q.07.08.05.17c-.05.21-.12.39-.22.54-.18.26-.37.51-.59.73s-.64.63-.72.7c-.3.24-.73.6-.79.78-.38 1.23-.18 1.95.32 2.91.07.13.34.42.45.52.11.09.22.18.34.25l.14.08s.23.12.24.14c.38.48 3.11.14 3.47-.2m-21.31-.42c-.11-.24-.44-.27-.62-.09l-.16.23c-.09.12-.19.26-.26.27-.1.01.1-.59.13-.68.08-.22.21-.52.35-.67.16-.17.44-.29.68-.17.75.38.06 1.97-.2 2.43-.34.58-.97 1.24-1.71 1.36-.22.04.94-1.12.99-1.17.28-.28 1.05-1.04.8-1.49m-11.8 2.01c.09-.14 0-.48-.18-.5-.21-.02-.37.13-.49.25-.11.1-.33.33-.36.33-.17.03.24-.9.24-.9.09-.16.25-.35.39-.47.81-.71.87.8.64 1.38-.19.48-.39.92-.85 1.29l-.21.17q-.09.07-.2.16c-.11.08-.2.16-.34.21s-.27.09-.36.16c-.19.14.5-.82.67-.96.41-.32.84-.67 1.04-1.11m-11.6-.04c.09-.48.16-.91.41-1.2.15-.17.4-.36.68-.29.85.23.18 2.11-.12 2.53-.2.27-1.38 1.53-1.74 1.3-.01 0 .44-.51.48-.55.08-.09.3-.32.55-.58.31-.38.84-1.07.89-1.22.15-.42-.33-.64-.62-.47-.09.05-.22.21-.3.3-.06.07-.18.22-.23.17m-14.57 2.15-.2-.06-.16-.08-.26-.16c-.22-.12-.52-.3-.63-.47-.37-.55-.72-1.08-1.1-1.7-.31-.5-.36-1.78-.36-2.29 0-.9.18-1.95.48-2.85.04-.12.1-.32.16-.56l.06-.16.08-.26.06-.22c.09-.28.3-.93.26-.96-.12-.11-.44-.91-.71-1.57-.07-.18-.08-.82-.08-1.12 0-.14.04-.43.08-.7 0-.05.04-.42.04-.42s.21-.92.24-1.05l.04-.12.08-.24c.05-.22.1-.39.16-.6.16-.56.58-1.93.69-2.02.28-.24-.68 3.94-.81 4.37-.24.76.45 2.33 1.03 2.49.44.12.58-.44.67-.78.22-.87.33.17.28.52-.06.42-.19.91-.39 1.2-.1.14-.22.25-.37.34-.07.05-.21.08-.29.09-.04 0-.36.04-.34.12 0 0-.22.67-.26.78l-.04.12-.08.32-.04.16q-.04.18-.08.32c-.12.41-.2.95-.2 1.3 0 .28 0 1.26-.14 1.27-.05 0 .73 1.77.9 2.04.12.2.34.45.53.6.08.06.25.17.37.26.12.08.39.26.38.32 0 0 1.19.35 1.33.38.57.13 1.91.22 2.42.02.2-.08.47-.95.5-1.24.1-.82.01-1.84-.24-2.73-.23-.79-.53-1.72-.91-2.47-.16-.32-.33-.64-.52-.92-.21-.31-.56-.85-.58-1.04-.02-.16.23-.94.36-.98.23-.08 1.18 1.6 1.29 1.81.2.36.42.99.6 1.49.07.21.14.43.2.64l.04.16.04.2c.03.14.1.44.1.44.12.13.16 2.17.1 2.57-.05.34-.11.66-.2.96-.07.26-.23.8-.2.95.04.2 2.14-.5 2.36-.57.73-.24 1.62-.69 2.38-1.06.7-.35 1.38-.78 2.02-1.2.28-.19.6-.4.91-.64l.13-.09s.14-.12.18-.17.3-.31.31-.31c.2-.03-.4-.44-.4-.44-.15-.1-.35-.16-.57-.22-.09-.03-1.09-.22-1.78-.36-1.02-.2-2.18-.46-3.15-.82-.54-.2-.07-1.55.22-1.78.4-.32 3.17-1.91 3.58-1.99.16-.03-.64-.73-.64-.73-.24-.21-.47-.4-.73-.59-.27-.2-.56-.39-.85-.56-.12-.07-.25-.16-.36-.25l-.2-.21c-.06-.07-.17-.2-.19-.21-.2-.11-.39-1.09-.37-1.3.04-.45.42-.97.68-1.34.82-1.14 4.47-1.17 5.84-1.17s2.77.07 4.4.2c.7.06 1.26.11 1.98.2.22.03 2.25.28 2.16.38v.24l-.04.2-.08.32c-.06.2-.24.7-.36.78-.77.51-1.65.97-2.53 1.37-.4.18-.91.39-1.37.58-.44.18-1.33.58-1.56.88-.02.04-.19.71-.24.96-.05.22-.09.45-.12.68-.04.25-.12 1.29-.12 1.29l.04.64c0 .06.06.28.08.36.04.15.09.35.12.44.12.35.28.67.52.91.43.43.89.85 1.6 1 1.19.26 2.4-.38 3.06-1.07.12-.13.45-.72.65-1.1.2-.37.4-.73.65-.98.16-.15.26.13.26.25 0 .3 0 .44.14.7.2.37.47.65.8.89.22.16.83.61 1.05.43.03-.02.27-.38.33-.47.16-.22.16-.22.16-.22l.17-.24c.83-1.13 1.72-2.21 2.66-3.22.55-.59 1.38-1.14 2.19-1.46.47-.19.95-.32 1.59-.3 1.13.04 2.88 1.07 3.09 1.95.15.66 0 1.31-.16 1.97-.05.19-.1.38-.16.56-.06.17-.19.58-.17.59.29.06 2.01-.91 2.26-1.1.5-.37-.79-6.77-.96-7.64-.34-1.67-1.29-8.51-1.29-8.51.11-.32.48-1.43.52-1.42.04 0 1.28 2.8 1.38 3.06q.02.07.16.4l.12.32c.08.22.28.74.24.88-.09.37-.36.04-.48-.11-.11-.13-.47-.58-.52-.55-.1.06.15 1.63.2 1.94.08.52.2 1.11.32 1.73 0 0 .11.64.16.89l.04.2.04.16.04.32.04.2.08.44.04.24.04.24c.05.28.16.88.16.88.53 2.38.76 4.38.24 6.7-.1.43-.39.9-.74 1.09-1.7.92-3.58 1.93-5.9 2.26-.98.14-2.27.31-2.95.3l-.14.02-.28-.04-.73.04c-.24 0-.6-.03-.76-.04-.24-.02-.64-.06-.85-.08-.27-.03-.67-.07-.71-.06-.04 0-.33.7-.42.92-.11.27-.33.72-.54.85-.33.2.03-.87.06-.97.13-.39.32-.96.3-1.16 0 0-.33-.27-.42-.34-.06-.04-.26-.27-.38-.4-.23-.26-.48-.55-.58-.87-.08-.28-.63.91-.64.94-.14.34-.44.61-.7.84-.42.36-1.08.65-1.72.77-.51.1-.95.13-1.53-.04-.41-.12-.92-.49-1.35-.81-.42-.32-.83-1.62-.98-2.26-.15-.68-.15-1.49-.08-2.15l.08-.62.04-.2.04-.16c.02-.17.12-1.44-.1-1.3l-.16.06c-.16.07-.33.16-.49.24-.23.12-.49.24-.75.36-.43.2-1.35.63-1.47.88l-.02.34-.06.28c-.03.11-.11.21-.22.2-.03 0-.15-.16-.18-.22-.1-.13-.11-.15-.28-.18-.13-.02-.86.39-1.13.54-.26.14-.84.48-.89.5-.55.3-.58.32.08.48.16.04.41.08.61.12.28.05.55.1.81.16.82.18 1.64.36 2.02.89.44.61.33 2.19-.08 2.83-.08.12-.49.52-.79.82l-.22.18c-.09.09-.51.39-.76.57l-.24.16c-.11.08-.3.22-.34.26-.74.72-2.62 1.54-3.74 1.99-1.16.47-2.36.88-3.79 1.02-1.3.13-2.27-.11-3.31-.44" fill="#1d1d1b" fill-rule="evenodd"/></svg>