<svg viewBox="0 0 74.85 25.94" xmlns="http://www.w3.org/2000/svg"><path d="m59.59 13.36c.35-.08 1.32.57 1.54.75.17.14.39.4.58.63.14.17.53.64.56.65.26.14 1.47-.77 1.73-.97.1-.08.21-.17.3-.26.14-.13.28-.26.43-.38.25-.2.62-.49.85-.54.27-.06.27.48.26.62-.02.39-.04.69.1.94.15.29.58.59 1.01.9.25.18 1.04.19 1.37.14.61-.1 1.06-.34 1.45-.67s.61-.71.85-1.2c.27-.53.68-1.36.91-1.49.3-.18-.04.74-.06.78-.12.27-.26.59-.16.78.19.38.7.61 1.13.76.28.1 1.57.27 1.71-.07.08-.19-.14-.58-.22-.72-.2-.32-.37-.59-.3-.78l.04-.2.04-.2.04-.28c.04-.19.11-.48.26-.5.55-.08.9 2.44.83 2.95-.16 1.11-.7 1.62-1.9 1.71-.76.05-2-.74-2.16-1.3-.06-.21-.32.32-.32.32-.1.19-.2.4-.33.55-.22.26-.45.49-.74.69-.66.47-2.01.78-2.8.3-.92-.55-1.09-.82-1.36-2.01-.05-.22-.62.28-.66.33-.13.17-.33.33-.51.47l-.2.16-.13.07-.2.16c-.17.17-.4.38-.61.51l-.02.33-.04.84c-.03.48-.04.61-.18.96-.98 2.5-5.23 5.99-7.87 6.28-2.13.24-3.29-.9-3.85-2.43l-.04-.2-.04-.16c-.04-.2-.12-.63-.12-.7l.04-1.04c.03-.47.03-.58 0-.64-.04-.05-1.45.97-1.57 1.06q-.18.12-.24.16c-.23.16-.45.33-.69.48-.93.62-1.89 1.18-2.91 1.72-.93.5-6.16 2.19-7.26 2.04-.33-.05 1.39-.79 1.39-.79l.27-.12c.07-.04.3-.14.44-.2.34-.15.72-.32 1.03-.44.26-.1 1.94-.99 3.17-1.65 1-.53 1.97-1.15 2.91-1.76.1-.07.43-.27.65-.4.25-.15.51-.32.74-.49q.13-.1.31-.24l.23-.17c.11-.08.23-.17.32-.24.13-.1.29-.23.3-.24.12-.06 1.24-.97 1.81-1.45.26-.22 1.59-1.51 1.32-1.91l-.12-.24-.06-.16c-.1-.2-.25-.4-.38-.57-.02-.02-.08-.15-.15-.27-.07-.13-.15-.26-.24-.38 0 0-.31-.49-.4-.64-.46-.74-1.16-1.9-1.31-2.79-.03-.16.18-1.27.23-1.36.06-.11.44.31.49.37.18.19.38.39.59.55.36.29 1.04.84 1.15 1.16.06.17-.18.12-.3.1-.14-.03-.57-.11-.57.08 0 .11.62 1.1.81 1.38.33.49.7 1.04.87 1.61.2.68.21 2.55-.22 3.03-.48.54-1.61 1.76-1.61 1.76-.75.68-.61 2.04-.21 3 .16.38.81.99 1.17 1.18.28.15 1.25.48 1.55.36l.34-.04q.43-.05.57-.08l.16-.04q.24-.05.32-.08c.24-.08.7-.25 1.05-.38 1.16-.43 2.8-2.04 3.85-3.07.49-.48 1.36-1.38 1.56-1.88.32-.81-.55-.6-1.01-.48-.56.14-1.43.34-1.86.3-.42-.04-1.19-.12-1.47-.44q-.07-.06-.19-.22c-.11-.14-.22-.28-.26-.49-.09-.56-.09-1.17.04-1.69.16-.64.84-1.51 1.42-1.58.07-.2.76-.25.76-.25m10.73-12.22c-.11-.24-.59.01-.68.09-.13.12-.29.35-.15.53.15.19.73.63 1.01.64.52.03.02-1.2-.18-1.26m-26.8 1.03c-.31-.15-.96.18-.7.56.15.22.52.59.82.56.29-.03-.06-1.02-.12-1.11m-26.28 1.88c-.33-.98-.06-2.05.35-3.69l.13-.04c.08.07 0 .22-.03.32-.03.08-.12.43-.18.66-.12.48-.12.74-.12 1.21 0 .32.26.83.45.96.24.16.49.1.6-.16.07-.16.26-.58.26-.58.2-.02-.06.87-.1.98-.1.27-.27.57-.48.74-.32.26-.76-.19-.87-.4m45 .34c-.07-.62-.09-2.47.1-2.93.19-.48.41-.93.81-1.21.18-.12.55-.15.7 0 .52.58.58.69.33 1.52-.02.07-.45-.32-.45-.32-.15-.14-.31-.25-.52-.31-.2-.05-.47.25-.52.4-.06.17-.04.57-.02 1 .03.54.04 1.11 0 1.61-.03.36-.15 2.02-.42 1.99-.07 0-.11-.16-.14-.29-.04-.15-.11-.29-.18-.42-.02-.04-.27-.38-.4-.56-.27-.37-.54-.72-.86-1.04-.2-.2-.31-.29-.59-.25-.19.03-.51-.15-.71-.26-.41-.24-.84-.92-.38-1.53.13-.18.98.28 1.1.35.22.12.78.65 1.12 1.01.18.19.33.39.49.6.1.14.45.64.56.61m-51.92-1.32c-.78-.19-3.61-.21-5.14-.21-1.27 0-3.26.25-4.51.77-.31.13.84.87.87.89l.36.24.14.08.16.08c.13.07.26.16.38.24.16.11.32.21.48.33q.19.14.32.22t.19.17c.16.1.28.24.4.39.05.06.48.47.53.5.16.07 2.65-1.58 2.92-1.77.44-.32.96-.62 1.42-.86.06-.03.55-.35.77-.49.16-.1.74-.49.7-.58m37.37 2.89s.35-.21.49-.31l.46-.32c.32-.21.65-.43.97-.64.65-.43 1.47-.98 1.98-1.29.66-.41 1.57-.96 2-1.25.49-.33 2.02-1.24 2.08-1.25.3-.05-.09.83-.11.87-.08.13-3.76 2.51-4.41 2.88-.4.23-.79.47-1.17.72-.16.11-.32.22-.47.33-.18.13-.35.24-.55.35-.25.14-.74.48-1.07.72-.15.11-.34.25-.38 0-.03-.19 0-.7.2-.82m-4.72-1.88-.23-.19c-.08-.08-.17-.23-.28-.4-.24-.38-.14-.8-.01-1.29.07-.27 1.05-1.81 1.35-.94.14.41.26.76.26 1.27v.24c-.02.25-.06.86-.02.88.33.18.77.51.95.84.09.17.03.61-.07.75-.02.03-.46-.25-.56-.31-.16-.1-.68-.42-.81-.36l-2.2 2.26s-1.97 1.09-2.11 1.13c-.28.07-.03-.37-.03-.37.02-.02.24-.17.36-.25.21-.14.39-.28.57-.43.28-.23.71-.55 1.07-.82.42-.31 1.84-1.47 1.76-2m-18.04 3.69c-.11-.34.02-1.84.17-2.14.11-.21.15.51.15.51 0 .46 0 .97.13 1.12.38.43 1.25.05 1.36-.37q.06-.23.04-.6c-.02-.28-.04-.79-.04-.81.04-.18.16-.8.36-.46l.05.5q.05.6.08.72c.03.14.1.31.18.4.39.43 1.34.71.89-.24-.31-.66-.46-1.07-.17-1.87.03-.07.46.86.52.99.08.18.43 1 .36 1.12l-.04.24-.06.2c-.02.05-.08.28-.1.32-.09.22-.24.43-.46.5-.28.1-.68.06-.91-.06-.08-.04-.17-.12-.24-.18-.1-.09-.2-.18-.46.08l-.13.1-.07.12c-.12.14-.27.23-.46.31-.7.28-.93-.1-1.15-.52m-9.8-.49.34-.23c.12-.08.26-.16.38-.24.26-.16.55-.32.83-.48s.58-.33.89-.46c.38-.16.75-.32 1.09-.5 1.18-.63 2.54-1.2 3.79-1.73.32-.13.67-.28.93-.4.31-.15.65-.29.97-.42.27-.11.86-.35.89-.36.4-.14.82-.29 1.21-.46.69-.29 1.88-.8 2.18-.9.14-.05.26-.12.38-.18.11-.06.26-.1.38-.14.21-.06.37-.11.57-.18.3-.11.62-.22.72-.19.24.08-.26 1.01-.32 1.11-.02.03-1.59.64-1.93.77-.72.28-1.65.64-2.14.88-.24.12-.73.29-1.09.42-.19.07-.43.15-.59.22l-.26.12-.14.08-.18.08c-.77.32-1.98.84-2.32 1-1.31.65-2.68 1.29-4.02 1.85-.7.29-1.37.64-1.98 1.04-.1.06-.86.56-.9.5-.11-.18.24-1.1.32-1.19m55-3.83c-.01-.11-.35-.34-.53-.46-.19-.12-.52-.43-.56-.68-.15-.89.57-2.85 1.54-2.08.33.26.42 1.47.47 2.14.03.33.13.42.5.75.1.09.21.23.23.39 0 0 0 .88-.14.66-.05-.08-.83-.5-.97-.52-.07-.01-.2.17-.28.28-.09.12-.18.24-.26.33-.12.13-.43.44-.64.65-.43.42-.88.88-1.38 1.21-1.44.96-2.87 1.91-4.45 2.44-.1.04 1.52-1.17 1.67-1.28.26-.19.55-.38.82-.55.31-.2.62-.43.92-.65.49-.36 1.53-1.14 1.61-1.21.24-.21.48-.41.71-.62l.2-.2.23-.19.17-.21zm-59.18 4.99c-.17-.52-.06-3.55.5-3.73.08-.03-.13.91-.16 1.04-.12.53-.17 1.08-.08 1.57.05.28.25.69.5.76.15.04.29-.03.36-.18.07-.13.22-.44.26-.44.14.04-.03.54-.07.66-.08.23-.18.52-.26.64-.35.48-.9.13-1.05-.32m59.26-.4c.06-.34.52-1.59.68-1.67.1-.06-.21.86-.24.91-.18.42-.24 1.02-.08 1.53.06.2.29.71.51.66.19-.04.32-.1.4-.24.03-.05.08-.19.1-.26.01-.04.1-.31.15-.25.43.38-.49 1.53-.66 1.68-.32.27-.73-.5-.79-.66-.19-.54-.14-1.02-.08-1.69m-28.21 1.32c-.01-.38.38-.93.59-1.24.13-.17.59.14.74.23.27.18.63.42.87.46.01 0 .52-.62.52-.62l-.05-.14c0-.05.09-.2.14-.25.1-.12.17-.21.36-.19.21.03 1.29.91 1.39 1.1.16.3-.48 1.41-.71 1.43-.06 0-.51-.32-.71-.46-.11-.08-.62-.45-.63-.48-.02-.25-.48.6-.48.6-.12.21-.38.7-.4.7-.28.08-1.67-.91-1.63-1.14m14.41-1.2c.1-.43.23-.97.28-1.13.05-.17.29-.91.44-.86.04.01-.1.42-.1.42l-.09.17q-.08.1-.09.19-.01.2-.04.32c-.06.25-.09.53-.12.78-.07.71.36 1.39.91 1.53.19.04.3-.23.34-.38.04-.14.18-.62.26-.6.24.06-.25 1.55-.29 1.64-.08.15-.33.41-.56.35-.36-.11-.56-.3-.73-.6-.29-.51-.34-1.29-.22-1.83m-28.93 2.57c-.09-.27.56-1.11.75-1.24.22-.16 1.48.93 1.47 1.2-.01.32-.59 1.33-.83 1.3-.26-.03-1.37-1.01-1.39-1.26m1.59 2.48c-.14.05-.36.34-.45.48-.12.2-.37.59-.58.6-.11 0-1.36-.93-1.43-1.06-.15-.27.62-1.4.91-1.38.08 0 .52.3.77.46.28.18.6.4.91.14l.16-.24.31-.4.18-.15c.02-.16.51.21.51.21.09.07.27.24.4.36.28.25.62.56.67.91.04.25-.84 1.19-1.03 1.12-.18-.06-.5-.39-.66-.55-.18-.18-.51-.52-.67-.51m-8.71-.13c.09-.18-.7-.29-.86-.31-.11-.02-1.31-.09-1.37.06-.04.08-.69.51-.74.5s.17-.61.21-.7c.11-.22.31-.48.47-.7.2-.27.72-.37 1.12-.41.65-.06 1.76.19 2.55.37.62.14-1.11 1.82-1.13 1.83-.29.25-2.48.95-2.02.53l.48-.31.24-.16.13-.09q.14-.1.23-.15.08-.04.24-.16l.44-.31zm40.33 3.03c.27-.36-1.19-.83-1.64-.81-.36.01-1.19.67-.65.9.5.22 1.85.26 2.29-.09m-56.21.96c.3-.41 6.77-3.4 6.96-3.38.3.03-.25.78-.42.86-.14.06-.33.15-.44.2-.07.03-.38.16-.4.17q-.12.08-.21.11l-.16.08-.36.16s-.42.18-.65.28-.48.21-.81.38l-.16.06-.24.14c-.32.14-.68.33-1.01.5-.33.18-.67.35-1.01.52-.33.17-.84.42-1.04.57-.11.08-.38.25-.31-.05.04-.18.13-.6.25-.61m42.38.33c.03-.62-1.64-1.34-2.18-1.51-.36-.11-1.08 1.49-1.19 1.87-.38 1.28 1.16 1.14 1.76.8.33-.18.64-.36 1.11-.72l.34-.29s.14-.15.17-.15m-3.67 2.59c-.36-.76-.32-1.91-.1-2.87.06-.27.16-.53.26-.76.15-.35.35-.79.31-1.04 0 0-.65-.47-.8-.57-.3-.21-.61-.48-.85-.76-.17-.21-.44-.4-.71-.6-.32-.24-.34-1.38-.16-1.82.02-.04.36.16.4.18.03.01.27.09.43.14 0 0 .32.12.48.18.15.06.34.13.41.14.15.03.81.26.86.33.14.18 0 .27-.18.31-.19.04-.4.09-.42.2-.05.18 1.15.82 1.35.9.1.04 1.19-1.46 1.41-1.77q.05-.09.33-.46l.08-.12.09-.13c.1-.14.61-.81.67-.78.25.12-.41 1.85-.51 2.02-.16.26-.32.51-.48.76-.15.23-.48.75-.5.86 0 .05.65.49.85.62.06.04.5.48.84.82.24.24.37.69.41 1.09.05.51-.13 1.41-.34 1.79-.33.59-1.09 1.07-1.67 1.4-1.14.65-1.44.72-2.44-.06m-33.21-.14.12-.08.2-.08.14-.08c.12-.07.35-.21.38-.24.09-.07.43-.34.63-.49.34-.27.81-.73 1.23-1.14.67-.65 1.93-2.13 1.87-3.18-.03-.58-.14-.87-.43-1.28-.28-.39-1.04-.87-1.57-.99-1.1-.26-2-.35-2.97-.28-.25.02-1 .08-1.05.08h-.22l-.45.04q-.36.02-.52.04c-.78.08-2.06.17-2.34.08l-.36-.04q-.21-.03-.48-.08c-.18-.04-.35-.08-.52-.12-.31-.08-.77-.26-1.15-.42-.5-.21-.83 1.65-.93 2.23-.12.7-.1 1.93.12 2.59.75 2.24 1.37 2.92 3.39 3.86 1.58.73 3.54.14 4.9-.4m25.94-18.45c.04-.21.42-1.12.52-1.18.1-.05.43.79.49.94.13.33.29.66.44.96.39.78.96 1.96.92 2.88 0 .23-.46-.27-.47-.28-.14-.15-.38-.42-.48-.37-.06.03.09 1.48.11 1.67l.04.32.08.44.16 1.04c.16 1.04.45 2.85.53 3.29.21 1.13.38 2.36.52 3.42l.04.24.08.52c.06.4.12.81.16 1.2l.04.44q.02.29.04.48.04.37.04.62 0 .4.04.68c.06.42-.2 3.18-.8 3-.04-.01.03-.7.03-.7.02-.19-.02-.82-.04-1-.02-.26-.06-.84-.06-.84 0-.07-.03-.38-.02-.44.01-.07-.01-.22-.08-.6l-.04-.26v-.18c-.02-.22-.06-.56-.08-.68-.25-1.76-.57-3.99-.77-5.14-.27-1.64-.67-4.02-.77-5 0-.1-.22-1.77-.32-2.59q-.04-.32-.08-.6l-.04-.32c-.02-.17-.08-.68-.08-.68-.03-.2-.09-.57-.12-.68-.06-.2-.12-.42-.04-.6m32.42 19.09c.31-.13.65-.17.95-.02s.63.31.91.22c.32-.11.55-.26.74-.49.1-.12.15-.2.21-.37.05-.12.16-.4.3-.36l.04.48c.01.07.13.12.2.16.24.12.5.15.72 0 .06-.04.11-.35.15-.55.04-.24.1-.44.22-.6.35-.5.1.85.06 1-.11.46-.3.8-.62 1.05-.13.1-.3.2-.49.17-.16-.02-.23-.05-.36-.1-.25-.1-.27-.11-.46-.08-.02 0-.11.11-.19.19l-.21.17c-.18.11-.37.19-.58.26-.21.06-.6-.11-.97-.28-.35-.16-.83 0-1.13.18-.47.27-.9.57-1.32.89-.86.63-1.88 1.39-2.87 1.54-.12.02-.32.05-.15-.13l.15-.07q.24-.09.32-.14l.73-.48c.2-.13.47-.31.59-.42.21-.17.44-.37.64-.51.08-.06.73-.58 1.14-.9.33-.26.96-.75 1.31-.81m-33.48 2.04s-.06-.78-.18-.89c-.16-.14-.37-.14-.53 0-.03.03-.13.19-.15.21-.07.11-.09.15-.2.14-.07 0 .28-.88.28-.88.18-.33.32-.57.77-.52 1.25.13-.41 3.58-1.65 3.61-.11 0 .39-.57.39-.57l.39-.42.08-.13.2-.2c.11-.12.22-.24.28-.32s.19-.25.32-.19l-.12.02.13.13zm-9.5 0c.28-.02.48-.25.61-.44.05-.07.33-.52.4-.42l.04.36s.13.11.16.12c.34.17.58-.16.63-.36.04-.19.14-.57.29-.51s-.19.95-.25 1.12c-.08.2-.18.38-.37.48-.06.03-.23.1-.3.1l-.36-.04-.16-.04c-.07 0-.24.11-.42.22-.2.12-.41.25-.55.26-.28.02-.47-.05-.69-.16-.27-.14-.47-.13-.8-.08-.65.11-1.66.84-2.36 1.34-.14.1-.4.29-.47.32-.22.12-.6.33-.64.36 0 0-.49.23-.71.32-.05.02-.77.34-.69.08 0 0 .24-.18.44-.33q.16-.13.2-.16c.06-.05.22-.15.33-.23.12-.08.24-.16.36-.25.06-.05.98-.66 1.54-1.03l.32-.24.36-.24c.26-.17.57-.38.81-.48.28-.13.69-.3 1.05-.3.2 0 .37.1.5.18.17.1.54.14.73.06m-17.17 3.03c-.38-.19-.68-.82-.85-1.24-.08-.19-.08-.61-.08-.72q0-.4.04-.88c0-.08.02-.24-.05-.34 0 0-.82-.08-.94-.09l-.2-.04-.16-.04-.16-.04c-.51-.1-.88-.22-1.29-.38-.35-.14-.66-.33-.95-.52q-.25-.17-.84-.65c-.3-.17-1.06-1.47-1.2-1.87-.2-.6-.64-1.93-.54-2.33.02-.07-.02-.33-.04-.44l-.04-.26.04-.46c0-.62.07-1.44.16-2.13.05-.39.14-.84.24-1.2.08-.27.23-.81.14-.92-.05-.05-.25-.16-.4-.25s-.33-.25-.27-.39c.04-.1.47.02.56.05.21.06.27.06.47-.03.03-.01.26-.47.37-.69.1-.2.42-.78.43-.8.3-.36.89-1.08.85-1.34l-3.21-2.42c-.53-.29-.29-2.05-.02-2.46.95-1.47 4.12-1.47 5.95-1.47 1.24 0 6.61.22 7.04.54.06.05-.22.78-.24.84-.1.26-.27.72-.35.76-.58.31-1.25.74-1.79 1.13-.13.1-.2.15-.37.21-.11.04-.38.19-.57.3l-.65.38-.14.06c-.08.04-.19.11-.26.16-.76.55-3.43 2.32-3.56 2.36-.02 0 .02.36.03.41.03.21.09.65 0 .78-.11.16-.4-.19-.43-.23-.15-.18-.23-.26-.51-.23-.39.04-1.91 1.63-1.56 1.9.24.18 3.27-.02 4.22-.12 1.57-.16 3.07-.32 4.24-.32 1.34 0 2.83.59 3.31 1.51.09.17.33.87.5 1.41.18.52-.08 2-.24 2.49-.27.78-.69 1.69-1.08 2.52-.41.87-1.56 1.9-2.33 2.46-.49.35-.98.65-1.53.96-.29.16-.58.27-.93.38-.37.12-.88.27-1.1.47-.21.19-.18 1.14-.13 1.39.07.33.3.55.56.82.23.23.83.26 1.2.21.09-.01.78-.35 1.07-.5.03-.01.41-.28.59-.4l.14-.09c.14-.13.16-.15.18-.15.12-.05.92-.85 1.23-1.17.09-.09.18-.19.27-.29.09-.11.27-.3.55-.6l.32-.28c.05-.05.79-.73 1.23-1.14.2-.19.41-.36.63-.54.11-.09.57-.46.57-.51.02-.49 3.43-1.81 4.4-1.59.65.15 1.18.31 1.66.62.39.26 1.21.8 1.63.74.98-.13 1.8-.29 2.32-.94.39-.5 1.15-1.44 1.34-1.55.17-.1-.05.47-.05.47-.08.16-.26.8-.08.94l.17.23c.06.07.1.09.17.15.16.11.33.2.55.26.8.24 1.41-.55 1.61-1.03.08-.19.21-.57.3-.84.08-.23.22-.67.38-.7.18-.04.09.37.06.46-.04.16-.04.51.15.59l.17.21.21.18c.21.15.5.25.78.33.38.11 1.68.22 1.67-.3-.01-.65-.17-1.71-.28-2.53l-.04-.24-.04-.16-.04-.24-.04-.24c-.05-.3-.15-.83-.16-.92-.04-.34-.24-1.54-.36-2.29-.11-.63-.35-2.13-.37-2.21l-.68-5.22c-.05-.32-.15-1.03-.16-1.08-.13-.51-.16-.65-.14-.72l.06-.16.08-.24.06-.16.1-.28.04-.12.06-.16.12-.24c.03-.13.26.24.26.24.02.05.06.2.08.28q.05.19.08.28c.08.21.16.39.26.58.13.25.13.27.16.34q.08.22.14.36c.2.47.39.93.59 1.41.08.19.21.53.22.56.03.12.17.82-.06.66-.2-.13-.31-.2-.44-.4-.12-.18-.25-.37-.45-.38-.05 0 .02.64.02.64l.04.2.04.28.04.28.04.24q.03.15.08.52l.08.48q.06.33.08.48c.05.4.18 1.16.28 1.77s.19 1.19.28 1.81c.16 1.13.36 2.35.57 3.49.24 1.32.33 2.82-.14 3.98-.19.46-.47.71-.82 1.02-.4.35-1.4.23-1.92-.01-.25-.11-.51-.32-.7-.51-.11-.1-.18-.21-.27-.34-.07-.1-.17-.24-.26-.21-.27.08-.24.46-.13.54.07.05-.12.37-.18.48-.22.39-.51.68-.97.82-1.26.39-1.87-.32-2.23-1.26-.05-.13-.35.3-.4.35-.13.19-.29.35-.45.51-.04.04-.31.27-.5.42l-.18.15-.24.1c-.15.13-.99.36-1.21.28l-.38-.04q-.17-.01-.26-.04c-.2-.06-.38-.14-.56-.22-.28-.13-.62-.38-.88-.57-.46-.34-1.84-.63-2.39-.41-.89.35-1.72.68-2.25 1.03-1.06.7-2.06 1.61-2.91 2.53-.83.9-1.91 2.07-2.71 2.6-.88.58-2.38.84-3.25.12" fill="#1d1d1b" fill-rule="evenodd"/></svg>