<svg viewBox="0 0 70.71 27.24" xmlns="http://www.w3.org/2000/svg"><path d="m63.55 21.43c.27-.19.62-.31 1.1-.28.02 0 .36.17.62.3.28.14.55.1.83-.04.21-.1.43-.27.57-.46.13-.19.41-.6.46-.6v.17s-.02.24-.02.24c0 .05.12.12.19.16.19.11.51.22.75.08.02-.01.11-.34.22-.72.05-.18.21-.59.38-.56.2.03-.18 1.23-.24 1.37-.11.25-.37.53-.73.9-.11.11-.43 0-.56-.04-.27-.09-.49-.16-.57-.14-.04 0-.4.32-.49.39-.11.09-.43.19-.54.19-.36 0-.51-.07-.93-.26-.35-.16-.57-.11-.95.04-.14.06-.7.4-1.03.6-.17.1-.34.21-.5.33-.18.13-.53.39-.53.39-.76.46-1.74 1.06-2.62 1.12l.03-.21.21-.07c.05-.02.3-.13.42-.2l.12-.08.24-.16c.34-.21.67-.41.99-.64.3-.21.83-.6.9-.65.14-.11.84-.66.89-.58 0 0 .8-.41.79-.6m-8.45 2.08-.33.23c-.1.08-.27.22-.3.25-.13.11-.27.22-.4.32-.17.12-1.16.67-1.84 1.05-1.37.76-3.01.45-4.26-.02-.43-.21-.96-.9-1.19-1.33-.22-.41-.31-.89-.38-1.45q-.03-.21 0-.7v-.34q0-.25.04-.52c.01-.09.06-.37.02-.44s-1.29.76-1.29.76q-.14.09-.44.32l-.15.09c-.08.06-.24.17-.35.25s-.23.16-.35.23c-.43.25-.87.5-1.29.76-.45.27-.98.55-1.45.78-1.05.52-2.2.84-3.47 1.12l-.16.04-.2.04-.16.04-.2.04-.2.04-.16.04-.32.08q-.26.03-.32.04l-.32.08-.24.06-.32.1c-.43.11-.86.21-1.37.22-.21 0 .42-.41.45-.42l.68-.28c.55-.23 1.18-.49 1.62-.64 1.11-.4 2.11-.9 3.11-1.42 2.12-1.12 9.15-5.28 9.38-6.73.03-.21-1.4-2.7-1.63-3.03-.51-.72-1.3-2.74-.67-3.71.07-.11.62.57.68.65.02.02.19.17.31.26l.43.39c.24.21.48.45.68.7.15.19.1.36-.13.29-.17-.05-.59-.14-.68-.02-.06.07.71 1.38.77 1.48.32.46.68 1 .82 1.61.47 2.05-.38 3.33-1.5 4.35-.57.51-.93.84-1.04 1.43-.17.91.17 1.81.59 2.48 1.63 2.61 5.95.06 7.27-1.15.84-.77 1.64-1.54 2.46-2.33.16-.15 1.22-1.32.39-1.47-.07-.01-.82.18-1.01.24-.51.16-1.32.27-1.8.24-.44-.03-1.02-.22-1.28-.47-.6-.59-.58-1.93-.25-2.68.17-.39.4-.68.67-.96.14-.14.29-.26.45-.38.11-.09.86-.3.81-.21l.38.04.16.04c.05.02.25.09.28.1.13.06.36.21.52.32.31.2.54.44.78.71.11.13.33.4.36.43.13.18.35.49.48.48.31-.02 1.42-.77 1.65-.95.46-.39 1.27-1.06 1.62-1.14.13-.03.21.21.22.34v.36l-.04.44c0 .12.08.37.14.46.14.2.34.48.43.55l.34.23s.23.13.24.14c.14.17 1.37.26 1.62.12l.16-.04.18-.06c.12-.05.27-.13.4-.2.21-.11.52-.29.84-.67.09-.1.16-.22.24-.33.04-.08.26-.46.36-.66.24-.46.64-1.19.85-1.24.22-.05 0 .56-.04.66-.16.37-.27.61-.24.92.02.24.84.68 1.09.76.42.14 1.49.35 1.73-.06.08-.13-.09-.45-.16-.58-.05-.09-.11-.19-.17-.27-.1-.13-.17-.23-.21-.39-.02-.08.28-1.24.33-1.37.16-.41.63.72.64.75.17.45.28.89.32 1.49.03.41-.27 1.53-.54 1.79q-.09.14-.19.23c-.12.11-.26.21-.45.25-.53.13-.96.11-1.41-.04-.42-.14-.68-.3-.98-.54-.12-.1-.21-.18-.31-.3-.16-.17-.33-.36-.43-.34 0 0-.16.27-.23.39-.07.13-.17.26-.26.38-.17.21-.35.39-.57.55-.2.15-.41.28-.67.38l-.28.1-.26.08s-.31.07-.3.08c.03.08-.83-.01-.89-.02-.08-.01-.46-.14-.68-.22-.78-.28-1.02-1.19-1.24-2.08-.05-.21-1.14.7-1.22.76q-.14.12-.2.16c-.1.07-.22.16-.32.24q-.15.13-.25.19c-.11.07-.27.18-.32.28-.08.15-.11.7-.14 1.12-.03.41-.12.8-.26 1.1-.36.75-.91 1.42-1.47 1.97-.27.27-.63.62-1.14 1.15-.03.12-.61.54-.61.52m-43.56-1.02c.46-.13 1.49-1.14 1.74-1.54.21-.34.36-.67.47-1.14.01-.05.08-.49.08-.5q.03-.34.04-.42l.04-.36.04-.46c0-.06.04-.27.09-.37.05-.09.24-.14.42-.2.12-.04.21-.07.29-.13l.15-.07.24-.14c.07-.04.3-.21.31-.23l.08-.12.13-.1.07-.15.14-.22c.08-.19.17-.38.22-.54.07-.2.42-1.25.5-1.16.28.48.42 1.38.5 1.96.01.08.07.66.09.96.04.4.07.71.12 1.04.05.3.12.73.2.92.28.7.49 1.22.89 1.75.27.36.89.61 1.47.84 1.13.45 2.4-.48 3.07-1.02.16-.13.36-.4.52-.61 0 0 .16-.28.25-.43l.15-.26c.06-.03.33.47.42.64.09.16.26.37.4.55.23.29.9.65 1.34.73.32.06 1.24.17 1.42-.03l.44-.11c.08-.04.17-.1.26-.16.53-.34.93-.97 1.12-1.51.24-.68.37-1.49.37-2.26 0-.6-.11-1.47-.2-2.21-.04-.33-.19-1.29-.27-1.74 0 0-.21-1.52-.23-1.51 0-.05-.02-.1-.02-.16-.14-.89-.36-2.33-.4-2.69-.03-.27-.07-.48-.12-.72-.04-.22-.09-.5-.12-.72-.04-.28-.13-.84-.2-1.24-.09-.53-.18-1.06-.24-1.61-.01-.1-.12-1.05-.06-1.04.19.02.33.19.43.33.05.06.38.48.53.35.14-.11-.21-1.02-.3-1.24-.07-.18-.15-.4-.22-.52-.1-.18-.19-.36-.26-.56-.17-.16-1.07-2.31-1.17-2.31-.14 0-.47 1.32-.5 1.46-.05.22 0 .39.08.68q.04.13.08.44c.05.38.06.41.08.72q.02.32.04.44c.05.36.15.99.16 1.12.04.33.09.82.16 1.21q.04.22.04.28t.04.4c.05.38.1.75.16 1.12.04.24.11.69.12.76l.04.24.04.36q.04.24.08.6l.04.16.04.24c.09.56.28 1.67.28 1.85.01.28.14.87.21 1.03l.04.13v.24l.08.6c.03.19.14.89.23 1.4.02.09.18.96.18.96.02.26.07.6.11.89q.04.26.04.56c.03.53.09 1.49-.03 1.6-.19.18-.47.28-.76.39-.03 0-.06.04-.08.11l-.44.02c-.22.01-.48.03-.59.04-.18.01-.57-.08-.83-.16-.5-.17-.75-.44-1.05-.8-.15-.18-.28-.62-.3-.9-.01-.14-.06-.74-.1-.74-.19.04-.81.99-1.13 1.48-.33.5-.84.88-1.37 1.18-.34.19-.98.41-1.49.34-.61-.08-.99-.3-1.43-.54-.86-.49-1.14-2.31-1.37-3.77-.13-.83-.3-1.98-.4-2.37-.07-.28-.43-1.28-.81-.94-.25.22-.39.65-.48 1.02-.03.11-.31 1.04-.34 1.04-.04 0-.14.15-.16.18q-.04.06-.18.18c-.13.12-.34.3-.43.35-.42.26-.98.22-1.44.05-.16-.06-.39-.49-.52-.74-.06-.11-.42-.78-.54-.68-.17.15-.32 1.01-.29 1.26.05.35.35.88.58 1.29.19.33.38.78.42 1.16.2 1.62.06 1.76-1 2.56-1.27.97-2.69 1.77-4.47 2.32-2.2.68-5.79.52-6.6-1.91-.08-.25-.14-.47-.2-.76-.07-.32-.18-1.53-.14-1.4 0 0 .21-.7.26-1.12q.02-.15.05-.21c.05-.08.08-.18.11-.27q.07-.22.14-.38l.08-.18c.02-.14.23-.16.4-.18.13-.02.28-.08.38-.14.22-.13.35-.38.46-.6.17-.33.58-1.66.27-1.86-.07-.04-.3.57-.35.7-.1.26-.29.76-.71.56-.74-.36-.81-2.12-.77-2.95.03-.66.3-1.74.52-2.63.05-.21.48-1.9.26-1.9-.14 0-.36.76-.42.98-.08.26-.16.51-.24.76-.1.3-.2.65-.28.96l-.04.2-.06.34-.06.14-.04.16-.08.28c-.22.44-.18 2.32-.12 2.81.05.4.13.78.26 1.09.06.13.14.32.16.36.09.17.21.38.22.48 0 .08-.37.95-.5 1.24-.18.42-.35.82-.46 1.33-.18.82-.25 1.72-.08 2.45.42 1.85 1.72 3.47 3.52 3.67 0 .06.52.09.57.08h.09c.21.02.39.03.61 0h.14l.42-.04q.3-.02.44-.04c.19-.02.23-.03.52-.08.59-.1 1.53-.41 2.22-.64.46-.15 1.18-.54 1.74-.84.21-.11.48-.3.69-.45.08-.02.47-.33.47-.33m9.74 3.45s-.01 0-.02 0c-.04-.04-.04-.63.15-.74.29-.17 2.04-.75 3.2-1.13.21-.07.49-.16.65-.22.31-.11.87-.32.93-.34l.16-.04.16-.06.2-.06.16-.04.28-.02c.08-.04.74-.37.79-.24.17.47-.58.89-.87.96 0 .01-.18.1-.17.08-.04.05-.37.13-.44.15-.12.03-.48.12-.53.14-.58.25-1.17.42-1.73.54-.3.07-.77.19-.98.27-.16.07-.64.25-.89.32-.24.07-.66.25-.77.3 0 .07-.29.13-.29.13m45.33-23.93c-.11-.39-.71 0-.82.11-.31.31-.06.52.18.71 1 .75 1.36.2.63-.82m-27.62.47c-.11.34.59 1.03.86.86.22-.15-.05-.99-.17-1.11-.18-.18-.53.12-.69.26m-17.73 1.23c.04-.22.06-.53.09-.9q.05-.72.08-.92c.04-.26.09-.5.18-.72.13-.33.38-.94.81-.8.37.12.77.57.74 1.02-.02.3-.24.38-.41.25-.2-.16-.46-.32-.78-.29-.24.03-.26.53-.26.68-.02.5-.03.99-.08 1.51-.02.23-.2 2.04-.44 1.95l-.05-.15-.08-.24-.06-.2c-.07-.17-.27-.53-.4-.76-.24-.43-.53-.79-.86-1.14q-.18-.18-.71-.21c-.21 0-.73-.47-.56-.54q-.15-.07-.14-.12c.03-.25.1-.83.3-.86.07-.01.25.02.44.06q.19.18.23.17l-.15.24.2-.13c.09-.03.36.17.4.21.19.17.38.38.55.58.17.22.33.45.47.7.07.12.39.68.5.61m33.87-1.33c.43-.4 1.69.78 1.93 1.02.16.15.4.48.59.73.14.19.64.86.65.86.03 0 .09-.74.09-.81v-.66c0-.45 0-.98.16-1.47.15-.45.47-.97.87-1.18.17-.09.51-.13.64.03.23.28.45.55.51.91.02.15-.14.62-.28.62-.08 0-.25-.19-.33-.28-.13-.13-.23-.24-.4-.35-.23-.15-.49.1-.6.21-.11.13-.11.13-.13.31q-.06.77-.04 1.35.01.41 0 .58c-.03.4-.08 1.04-.12 1.41v.16c-.01.16-.04.4-.08.56-.04.14-.29.59-.38.24-.13-.48-.32-.77-.57-1.14-.34-.52-.87-1.32-1.45-1.32-.82 0-1.48-.9-1.06-1.77m-11.4 3.85c.64-.59 7.99-4.92 8.21-4.96.2-.03-.11.82-.16.89-.04.05-1.82 1.16-2.05 1.27-.76.38-1.52.88-2.28 1.39-.7.46-1.48.98-2.12 1.33-.41.22-.74.4-1.11.64l-.46.32c-.3.11-.19-.71-.03-.88m-4.76-2.27-.17-.21c-.16-.22-.26-.38-.3-.7-.05-.35.33-1.3.53-1.46.31-.26.51-.42.74-.45.22-.03.43.29.46.5.08.42.07.61.04 1.08-.01.21-.06.95-.04.99l.32.25.13.09c.14.12.44.38.47.52.05.2.05.7-.15.78-.04.02-.16-.1-.21-.15 0 0-.23-.17-.33-.23-.26-.17-.53-.35-.81-.34 0 0-.93 1.03-1.04 1.15-.24.29-.74.82-1.1.95-.07.03-.53.29-.7.4-.21.13-.53.32-.69.38-.27.1-.48.21-.7.34-.23.13-.63.32-.84.27-.16-.03.47-.52.52-.55.2-.13.47-.27.71-.4.08-.04.37-.27.55-.42.21-.16.42-.32.64-.47.44-.29.86-.6 1.26-.93.15-.12 1.22-1.06.7-1.41m27.38.12c-.28-.03-.84-.53-.99-.77-.42-.65.29-2.21.89-2.41.58-.19.83.46.95.94q.04.17 0 .36s0 .02.04.28c.04.24.04.45.04.56 0 .27 0 .5.29.77.12.1.2.17.3.31.16.24.16.57.05.84-.04.09-.47-.18-.54-.23-.17-.11-.51-.33-.81.02-.07.11-.16.22-.26.32-.17.17-.49.48-.56.54l-.24.2c-.1.1-.25.25-.5.45l-.15.09c-.1.08-.27.22-.32.3-.38.56-4.33 2.62-4.89 2.49l.04-.13.25-.06.19-.25q.08-.06.26-.16c.19-.11.57-.32.57-.32.19-.08.21-.09.26-.13q.12-.11.19-.15c.18-.1 1.1-.71 1.78-1.16.76-.51 3.15-2.11 3.17-2.71m-51.93-2.81c-.44.95-.81 2.1-1.01 3.24-.14.76-.24 1.43-.04 2.13.12.42.57 1.58 1.12 1.26.09-.05.21-.39.25-.54.05-.17.13-.47.24-.52.29-.14 0 1.05-.04 1.17-.02.06-.08.23-.1.28q-.12.27-.12.28c-.06.16-.11.27-.17.35-.09.12-.14.18-.14.18-.03.1-.52.18-.68.07-.4-.29-.65-.65-.87-1.12-.08-.18-.17-.58-.18-.8v-.38l-.04-.2.04-.34v-.26c0-.11.05-.4.11-.49q.06-.1.05-.37c0-.08.12-.56.16-.72l.16-.56.08-.28.04-.16q.04-.16.08-.28s1.1-2.87 1.06-1.91m23.64 8.22c-.16-.2.45-1.18.6-1.34s.66.2.81.31c.25.18.59.43.89.38.03 0 .27-.47.31-.55.13-.25.22-.43.44-.58.19-.14 1.4.95 1.47 1.1.17.35-.42 1.43-.69 1.47-.02 0-.49-.33-.7-.47-.31-.21-.71-.49-.85-.47-.01 0-.26.52-.29.59-.1.21-.21.45-.31.58-.24.31-1.56-.89-1.69-1.02m-17.82.68c-.1-.29-.11-2.86.18-2.46v.82c0 .27.02.65.14.86.27.49.97.21 1.26-.09.24-.24.18-.73.13-1.14-.05-.45-.08-.78.09-1.18.1-.24.23.09.24.09.03.16.07.72.08.82.02.28.06.65.22.88.13.19 1.04.69 1.11.22 0-.02-.15-.4-.22-.56-.08-.19-.15-.4-.2-.6-.04-.18-.06-1.63.23-1.32.02.03.71 2.3.71 2.3-.09.51-.16.91-.64 1.23-.29.2-1.04-.04-1.2-.25-.15-.2-.28-.02-.43.17-.11.15-.24.32-.42.41-.3.16-.91.29-1.28-.21m32.4.2c-.11-.14-.18-1.01-.22-1.57-.03-.41.6-2.18.83-2.21.06 0-.12.43-.12.44-.08.18-.17.4-.22.6-.14.54-.19 1.19.02 1.69.13.32.42.87.85.64.13-.07.17-.26.22-.44.04-.16.13-.5.26-.48.14.02-.07.91-.1 1-.06.22-.15.45-.26.62-.46.68-.96.23-1.25-.3m-46.46-4.54-.06-.16-.14-.28-.2-.36c-.1-.2-.35-.58-.55-.86-.12-.19-.5-.62-.81-.6l-.16.04q-.06 0-.36-.06c-.16-.03-.42-.09-.55-.21-.21-.19-.45-1.45-.03-1.47.88-.04 1.56.63 1.97 1.11.21.25.43.59.63.9.1.15.25.39.3.48.12.22.29.53.39.52.02 0 .02-.46.02-.46l-.04-.74c0-.45 0-.92.08-1.28.09-.38.29-1.03.51-1.28.42-.46 1.11 0 1.22.55.05.23-.12.7-.6.4-.15-.11-.25-.16-.46-.18-.46-.04-.4 1.05-.39 1.33.04.72.08 1.42-.12 2.07-.29.91-.53 2.39-.48 3.21.04.7.24 1.52.87 1.63.2.04.29-.16.34-.3.04-.12.2-.52.24-.5.42.26-.47 1.69-.82 1.76-.56.11-1.01-1.28-.99-1.78.01-.42.03-1.18.12-1.77.08-.53.22-1.43.08-1.69m60.05 3.33c.05-.43.19-.82.34-1.16.11-.26.36-.81.36-.84h.12s-.06.32-.06.32q-.05.16-.14.36l-.16.2c-.16.29-.19 1-.14 1.29.06.33.25.95.59.94.21 0 .32-.13.4-.28.05-.1.24-.44.26-.43.42.26-.53 1.58-.78 1.64-.22.05-.43-.19-.58-.35-.25-.28-.31-1.26-.21-1.67m-44.61 4.82c0-.06.23-.5.34-.7q.1-.17.18-.27c.08-.09.19-.23.19-.27 0-.19.71.28.71.28.12.08.27.19.61.5.4.22.54.01.75-.3.16-.24.37-.56.56-.64.24-.1 1.22.86 1.47 1.1.29.28-.81 1.31-.9 1.29-.07-.01-.45-.28-.72-.47-.03-.02-.2-.18-.3-.27-.12-.11-.23-.19-.4-.23-.07-.01-.39.52-.44.62-.07.14-.29.53-.4.54-.35.05-1.65-.96-1.63-1.18m-15.37.64c-.16-.74.46-1.7 1-1.25.41.34 1.15.95 1.18 1.25 0 .05-.32.64-.42.83-.2.34-.27.46-.61.22-.38-.27-.91-.65-1.15-1.05m50.25 1.98c.29-.4-1.08-.85-1.42-.91-.41-.08-1.07.43-1 .81.08.44 2.05.23 2.42.1m-13.86.9c.12-.56-1.75-1.55-2.23-1.61-.2-.02-1.72 2.16-.87 2.83.79.62 2.74-.81 3.1-1.22m-3.69 2.6c-.5-.61-.3-1.9-.14-2.63.08-.37.17-.69.3-1l.08-.18q.05-.1.12-.26c.08-.17.26-.6.26-.6 0-.07-1.03-.88-1.25-1.06-.1-.08-1.26-1.23-1.26-1.23-.09-.33-.09-1.39.07-1.64.06-.08.21.04.27.08q.15.13.21.15s.16.06.28.1c.01 0 .33.12.49.18.35.13 1.31.49 1.31.64 0 .02-.45.21-.62.29-.19.08.47.55.54.59.16.11.86.58.98.39.38-.56.8-1.13 1.23-1.66.03-.04.16-.22.23-.32.11-.16.22-.3.33-.45.16-.21.55-.73.69-.7.06.01-.06.45-.07.5l-.04.12c-.04.13-.06.18-.08.28-.1.49-.2.79-.42 1.12 0 0-.39.53-.58.79-.14.19-.5.69-.42.89.01.03.29.2.37.25.19.1.36.21.52.34.25.2.46.43.67.69.49.6.57 2.43 0 2.99-.52.51-1.01.92-1.65 1.32-.47.29-2.15.97-2.42.02m-32.75-1.04c.07-.73.29-1.51.61-2.06.16-.28 0 .55-.05.71-.09.38-.12.82-.12 1.15 0 .38.25.86.48 1.06.21.19.46-.02.53-.2.04-.11.21-.55.3-.52.14.05-.34 1.74-.87 1.74-.57 0-.99-1.34-.89-1.89m25.1-17.52c.03-.27.3-1.49.51-1.41.07.03.31.59.38.77l.04.12.06.24.08.16.14.28c.46 1.11 1.2 2.89 1.33 3.49.07.34-.43 0-.5-.12-.1-.15-.33-.49-.41-.55-.24-.2-.19.45-.17.66.04.49.11 1.32.16 1.72.03.23.21 1.62.33 2.48.05.39.12.93.16 1.28l.04.2.04.24.04.4.04.32.04.18c.18 1.4.68 5.85.68 5.86.03.62-.03 4.26-.87 4.32-.02 0 .02-.48.02-.48v-.36c0-.51 0-1.34-.04-1.81v-.32l-.04-.36-.04-.48c-.04-.5-.06-.71-.12-1.24-.24-2.1-.43-3.71-.73-5.74-.12-.81-.25-1.83-.32-2.57-.09-.93-.2-2.09-.36-2.93-.1-.53-.51-4.26-.48-4.34m-.44 20.82c-.25-.05-.37.07-.47.23-.07.12-.15.24-.24.16-.01 0 .16-.53.18-.58.01-.04.13-.3.14-.32l.19-.26.08-.12c.08-.14.41-.08.52-.03.39.17.19.95.08 1.28-.07.21-.15.46-.22.6-.03.05-.13.23-.17.27-.11.13-.15.18-.15.19-.06.13-.57.6-.71.66-.43.21-.76.38-.37-.11.26-.32.51-.63.78-.92.16-.17.79-.85.36-1.07m-16.75 2.98c.02-.36.44-.92.69-1.26.09-.12.8.42.89.5.15.14.59.5.75.53s.43-.4.55-.58c.09-.15.38-.57.56-.54.24.04.91.63 1.16.87.43.4.04 1.14-.46 1.4-.3.15-.58-.07-.86-.29-.2-.16-.68-.52-.71-.53-.07-.02-.38.36-.48.47 0 .01-.16.27-.23.39-.08.14-.16.26-.32.3-.26.07-1.48-1.03-1.55-1.27m-6.8 1.11s.44-.2.56-.26c.19-.09.43-.19.65-.28.45-.18 1.15-.47 1.41-.54.21-.06.84-.33 1.23-.5l.26-.14.16-.06.2-.08c.3-.12.77-.3.86-.27.1.04-.23.73-.3.75-1.08.34-2.03.77-3.05 1.25-.29.13-1.03.43-1.51.62-.09.03-.73.29-.77.26 0 0 .07-.72.28-.74" fill="#1d1d1b" fill-rule="evenodd"/></svg>