<svg viewBox="0 0 77.03 27.87" xmlns="http://www.w3.org/2000/svg"><path d="m45.74 25.28c-.25.04-.52.12-.76.2-.3.1-1.1.28-1.65.4s-1.1.26-1.62.4c-.41.12-1.31.36-1.53.3-.36-.09 1.24-.78 1.25-.78l.16-.06.28-.14.16-.06.2-.08.16-.08.2-.08.16-.06c.11-.04.28-.11.36-.14.51-.22 1.02-.45 1.49-.68l.18-.08.12-.08.18-.08c.13-.05.25-.1.29-.13.2-.14.43-.29.67-.39l.14-.08.22-.14.28-.14c.13-.08.25-.16.38-.24.14-.08.27-.16.4-.24 0 0 .28-.16.42-.24.13-.08.28-.16.41-.24.11-.08.36-.24.36-.24.15-.08.42-.24.42-.24.97-.59 1.88-1.22 2.8-1.85.68-.47 3.32-2.57 3.3-3.21 0-.17-.45-.93-.71-1.38l-.16-.28-.24-.36c-.16-.27-.33-.55-.48-.82-.53-.92-1.43-2.58-.82-3.79.04-.07.52.41.57.46.2.2.44.4.69.6.31.26.99.82.92 1.17 0 .02-.26-.03-.27-.03q-.25-.06-.54 0c-.13.02.2.56.22.59.11.17.23.34.32.5.1.16.21.36.3.47 0 0 .28.45.39.63.58.94.62 2.37.34 3.45-.17.69-.86 1.36-1.34 1.77-.23.2-.77.69-.82.78-.14.27-.38 1.55-.18 1.75l.04.2.04.16.1.32c.04.13.26.47.41.72.23.37.72.69 1.16.85.53.19.97.26 1.61.18.66-.08 1.83-.36 2.26-.7l.14-.08q.09-.06.26-.16l.36-.24c.24-.16.48-.32.71-.48.48-.34.99-.74 1.4-1.16.82-.81 2.07-2.07 2.37-2.64.09-.17-.02-.66-.24-.68-.11 0-.18.02-.32.08-.16.07-.31.12-.48.16-.72.16-1.79.38-2.26.24-1.64-.49-1.72-1.22-1.37-2.99.03-.13.59-.84.98-1.32.2-.25.71-.33 1.12-.31.28.02.85.3 1.33.54.39.19 1.09 1.09 1.34 1.48.18.28 1.75-.88 1.84-.96.37-.34 1.2-1.07 1.56-1.14.22-.04.24.35.24.48 0 .34 0 .95.1 1.08.28.37.57.76.99.9.47.16 1.04.29 1.55.14.52-.15 1.17-.41 1.44-.8.26-.37.66-.96.74-1.11.19-.38.66-1.3.81-1.35.28-.08.19.26.14.42-.02.06-.08.24-.1.28l-.08.16-.14.32c-.18.52.59.89.99 1.06.54.23 1.08.23 1.61.12.34-.07.27-.27.14-.62l-.08-.24-.04-.16c-.03-.13-.09-.4-.08-.14l-.11.09c-.14-.29.02-1.67.28-1.73.49-.12.98 2.32.85 2.87-.08.37-.28 1.17-.6 1.31l-.07.12s-.25.17-.26.17c-.14.07-.33.11-.5.14-.39.07-.97-.09-1.53-.24-.2-.05-.5-.32-.67-.48-.1-.09-.19-.17-.27-.28-.1-.14-.19-.26-.27-.27-.06-.01-.21.27-.24.33-.08.14-.2.37-.25.43-.17.22-.43.55-.67.66-.55.25-1.3.6-1.58.61-.68.04-1-.07-1.48-.26-.34-.14-.65-.46-.83-.76-.11-.18-.19-.34-.26-.56-.05-.14-.24-.71-.26-.7-.22.11-2.09 1.6-2.19 1.76 0 0-.05.59-.09 1.11-.03.36-.07.7-.18.96-.14.33-.32.63-.52.9-.39.53-.78 1.05-1.24 1.51-.42.42-1.21 1.2-1.37 1.33-.11.1-.51.4-.74.59 0 0-.32.26-.42.33q-.07.05-.23.13c-.08.04-.1.04-.18.14-.34.4-1.64.91-2.24 1.08-.41.12-1.6.37-1.94.22l-.28-.04-.24-.06c-.14-.04-.31-.1-.44-.16-.17-.07-.47-.26-.72-.41-.32-.19-.9-.92-1.02-1.32s-.27-.9-.34-1.32q-.02-.15 0-.5v-.5c0-.06 0-.99-.06-.94-.98.77-2.07 1.52-3.17 2.15-.14.08-.42.24-.64.4-.05.03-.18.12-.22.14l-.14.06-.22.14c-.18.1-.48.26-.53.28-.29.13-.68.35-1.01.54.35-.05-.96.4-1.14.38m26.96-22.95c-.68-.33-1.27.29-.61.83 1.23.99 1.06.07.61-.83m-26.79.76c-.34-.08-.7-.16-.84.31-.05.17.45.61.58.68.64.33.36-.66.26-1m-18.04-1.07v.14q-.07.16-.07.2l-.04.16v.12s0 .28 0 .28c-.04.53-.09 1.24 0 1.49.1.26.26.66.58.66.12 0 .25-.12.3-.22l.06-.16s.12-.37.17-.35c.33.13-.38 1.57-.58 1.65-.29.13-.56-.15-.7-.29-.3-.3-.33-1.08-.33-1.5 0-.34.14-1.01.24-1.45.03-.14.26-.79.36-.74m-18.95 3.67c-.09-.14.06-.44.11-.5v-.19c-.03-.28-.06-.58.11-.76.88-.95 8.79-4.34 9.04-4.21.15.07-.21.78-.36.84-.82.31-3.01 1.28-4.56 1.96 0 0-.34.17-.44.22-.21.11-.43.2-.65.28-.18.07-.35.14-.52.22l-.12.06-.16.06-.14.08-.18.08c-.52.21-1.75.72-1.79 1.16l.12.21.2.16.13.07c.2.2.37.43.53.68.12.17-.05.59-.18.62-.22.05-1.05-.85-1.13-1.06m53.75-1.01c-.55-.11-.93-.19-1.29-.48-.26-.21-.39-1.15-.05-1.34.46-.25 1.64.77 1.86 1 .11.11.4.48.6.73.11.13.25.32.32.41.1.16.29.45.34.48.09.07.08-1.13.08-1.13v-.51c0-.48.04-.95.19-1.45.11-.38.81-1.43 1.33-1.12.35.21.56.56.66.98.03.13-.19.62-.28.64-.06.02-.23-.16-.31-.25-.12-.13-.26-.28-.42-.37-.24-.14-.55.09-.63.26-.14.33-.13.66-.1 1.18.02.34.02.85 0 1.18l-.04.4v.3l-.04.32q-.01.08-.04.48c-.01.13-.15 1.15-.43.8l-.02-.16-.04-.16c-.05-.17-.12-.34-.34-.62l-.24-.34-.08-.12c-.22-.3-.81-1.06-1.03-1.12m-42.55.5c-.04-.05-.38-.07-.61-.08-.3-.01-.64-.09-.79-.26-.28-.32-.38-1.2.1-1.45.54-.28 1.88 1.13 2.15 1.44.08.1.36.48.55.75l.2.34c.16.07.14-.59.14-.62v-.18l-.04-.56-.04-.22c.01-.29.03-.7.12-1.1s.22-.85.52-1.04c.64-.42 1.39.99.9 1.6-.07.08-.29-.23-.36-.31-.14-.2-.28-.32-.56-.34-.18-.02-.21.27-.22.42l-.05.31-.16.12.18-.05c.1-.06.11 1.1.11 1.23 0 .33-.04.85-.12 1.32-.06.32-.22 1.21-.48.83l-.15-.27c-.16-.3-.16-.3-.16-.3-.13-.21-.27-.42-.41-.61-.13-.18-.78-.93-.84-.95m29.88 1.73c.72-.42 2.57-1.65 3.94-2.56l2.1-1.28c.15-.1.36-.22.55-.32q.07-.04.36-.24l.12-.08c.29-.19.86-.57 1.04-.54.14.03-.21.8-.28.9l-.12.08-.24.18c-.14.1-.45.3-.69.47l-.22.14-.15.07c-.17.1-.41.25-.57.36q-.08.06-.49.31l-.24.16-.26.16-.14.08c-.34.21-1.01.65-1.06.7-.42.35-1.49 1-2.09 1.35l-.14.04-.14.08-.32.22-.15.07s-.39.27-.55.39l-.23.19c-.15.08-.2 0-.21-.19 0-.15.03-.7.2-.74m-48.45-1.59c-.37-.36-.26-1.37.52-1.18.4.09.78.43 1.02.7.25.27.49.54.72.82.12.15.21.29.32.47.1.17.33.58.48.58.01 0 .06-.44.06-.52v-.28l.04-.68c0-.09.04-.72.04-.72.04-.33.23-1.19.5-1.22.44-.06.94.64 1.09.94.11.22.02.75-.28.64l-.56-.4c-.41-.26-.44.12-.46.54-.03.42-.08 1.3-.08 1.39 0 .19-.25 2.16-.48 1.75-.37-.67-.72-1.31-1.09-1.77-.2-.24-.39-.45-.62-.65 0 0-.24-.03-.58-.08-.15-.02-.61-.22-.65-.32m43.85-.21c.01-.07-.1-.16-.18-.22-.11-.09-.21-.21-.29-.33-.14-.22-.26-.39-.3-.68-.06-.42.35-1.29.56-1.52.13-.14.46-.44.71-.37.34.1.44.41.5.78l.04.26-.04.54c0 .2 0 .23-.04.56-.02.22-.04.32.04.42l.31.23c.07.05.17.11.23.17.12.11.4.36.39.48 0 .21-.02.46-.06.72 0 .05-.62-.36-.63-.36-.24-.16-.46-.3-.62-.34-.01 0-.89.88-1.22 1.22l-.18.18-.18.19-.2.04q-.06.01-.13.23c-.06.19-2.34 1.45-2.61 1.45-.25 0 .24-.51.26-.52.21-.14.62-.41.62-.41l.2-.16c.08-.08.21-.19.28-.25.01-.01.37-.27.55-.4.3-.22 2.01-1.53 1.99-1.9m26.02-1.58c-.23-.61.3-2.07.83-2.25.27-.1.4-.07.64.05.17.08.4.63.43.88.06.48.07.55.08.9 0 .13.04.91.13.92.4.04.8.76.55 1.26-.07.13-.41-.11-.47-.16-.18-.13-.35-.24-.59-.29-.07-.01-.29.26-.4.4l-.23.32c-.21.21-.45.44-.68.63s-.47.4-.7.61c-.25.23-.58.53-.86.67-.09.05-.34.23-.48.33-.12.09-.27.2-.4.29-.33.23-.67.43-1.02.63-.18.11-2.5 1.2-2.36.84.04-.1.66-.5.89-.64.39-.24.79-.49 1.15-.72.73-.48 1.36-.91 1.95-1.34.65-.47 1.27-.92 1.85-1.46.22-.21.86-.79.56-1.01-.39-.28-.71-.51-.87-.84m-23.52 7.29.05.14c-.12-.07-.46-.34-.66-.5-.19-.15-.49-.4-.7-.36-.04 0-.29.58-.33.7-.1.22-.25.56-.43.58-.14.01-1.5-.9-1.53-1.02-.08-.33.38-1.53.83-1.43.08.02.42.24.62.38.29.2.45.3.71.38.1.03.35-.51.44-.7.11-.24.39-.59.67-.44.26.14 1.2.92 1.29 1.17.12.31-.39.99-.54 1.1-.11.08-.17.12-.3-.03l-.3-.19.18.23zm24.67.09c-.17-.51-.18-1.08-.1-1.65.07-.51.4-1.42.67-1.77.29-.39-.08.72-.08.72-.08.19-.46 1.05-.3 1.21l.04.24c.04.19.04.2.08.32.08.23.18.37.32.53.18.21.48-.06.55-.17q.07-.11.1-.2c.04-.12.1-.34.19-.29.13.07-.1.85-.13.94-.07.18-.17.38-.28.52-.36.44-.95.07-1.05-.4m-13.16-3.68s-.15.55-.26.87c-.13.4-.16.75-.16 1.12 0 .39.27 1.01.5 1.17.17.12.35.24.57.1.12-.08.23-.61.28-.86h.15l.05.25c0 .24-.06.52-.12.74-.06.23-.16.45-.27.63-.32.53-.85.29-1.13-.13-.39-.56-.43-1.33-.29-2.11.08-.42.53-2.03.7-1.8m-28.18 5.17c-.21-.41.12-2.97.5-2.99.06 0-.07.52-.1.62-.06.25-.21 1.4-.04 1.53l.04.12.06.16.05.16c.05.08.19.25.31.28.2.05.3-.1.38-.28.05-.11.19-.42.24-.32.17.3-.39 1.35-.52 1.46-.34.3-.77-.45-.93-.74m-12.43-.28c1.03-.86 4.59-2.47 6.72-3.41.8-.35 3.71-1.63 3.71-1.63.26-.1.52-.22.77-.34l.12-.06.14-.06.18-.08.12-.06.16-.06.2-.08c.49-.21 1.76-.74 1.78-.74.43-.12.02 1.11-.28 1.23-.62.23-1.23.47-1.82.76-.2.1-1.12.49-1.65.72-1.09.46-3.72 1.63-3.82 1.69-1.12.63-2.36 1.18-3.57 1.68-.12.05-1.06.56-1.68.88-.12.06-.31.17-.36.2-.11.07-.22.14-.34.2-.32.17-.74.39-.82.37-.14-.02.22-1.2.44-1.22m-14.55-2.65c.15-.01-.02.91-.06 1.13-.12.63-.23 1.23-.16 1.69.05.37.22.74.45.94.12.1.26.17.44.11.1-.03.13-.12.16-.24 0-.04.09-.32.13-.31.43.13-.16 1.45-.51 1.53-.26.07-.6-.32-.73-.52-.12-.2-.24-.46-.26-.74l.12-.16-.14-.04-.02-.2c-.06-.88.32-2.24.59-3.17m5.45 3.43c.1-.04.28-.38.4-.6.05-.09.37-.45.4-.46.23-.1 1.33.67 1.51.86.34.38-.47 1.59-.62 1.57-.06 0-.54-.31-.71-.42-.22-.15-.62-.4-.71-.42-.2-.05-.42.31-.52.48-.19.3-.32.52-.52.56-.06.01-.95-.44-1.21-.58-.67-.36-.63-.43-.28-1.12.23-.46.36-.72.97-.48.06.02.27.13.31.17q.07.07.34.15l.24.14c.11.06.33.17.4.16m53.18 4.23c.24-.35-1.04-.82-1.3-.86-.43-.06-1.57.6-1.07.86.51.26 1.86.35 2.37 0m-42.02.25c-.17-.88 0-1.7.24-2.49.05-.16.12-.35.26-.38.12-.03.04.2.02.26-.18.5-.33 1.11-.2 1.69.17.73.84 1.42 1.02.13.03-.19.17.26.15.39-.01.11-.08.32-.12.44-.1.3-.23.7-.4.8-.49.31-.86-.58-.97-.84m10.81-.3c-.1-.37-2.66-.18-3.11-.06-.15.04.5.64.57.71.24.23.63.57.8.49.35-.17 1.78-.9 1.75-1.14m-19.81 1.15c.18-.6-1.38-1.11-1.94-.65-.92.74 1.44.95 1.94.65m37.21.01c.14-.52-1.85-1.41-2.31-1.53-.18-.04-1.06 1.77-1.11 2.09-.17 1.09 1.21.95 1.84.62 0 0 .62-.4.86-.56.12-.08.26-.2.41-.33l.12-.08.18-.21zm-3.54 2.81c-.58-.4-.42-1.95-.33-2.72.02-.24.15-.59.24-.85l.12-.28.06-.16c.06-.16.1-.25.15-.29q.06-.05.07-.15c.05-.4-.03-.47-.45-.8l-.21-.17c-.12-.1-.43-.34-.43-.34-.34-.28-1.24-1.07-1.32-1.19-.14-.2-.07-1.75.34-1.57q.1.07.27.13l.24.08.32.12.24.08.12.04q.17.06.36.12t.26.1c.73.31.36.42-.17.59-.4.12 1.23 1.01 1.38 1.04.13.02 1.04-1.34 1.19-1.57.08-.12.25-.37.25-.37l.16-.2q.09-.11.15-.21c.13-.2.63-.89.65-.9.45-.25-.33 1.84-.4 1.97l-.08.14q-.08.14-.16.26l-.09.13q-.14.18-.15.21c-.21.32-.5.76-.54.96 0 .04.52.35.69.45.2.12.44.34.62.51.36.33.8 1.04.74 1.61-.07.66-.15 1.4-.34 1.69-.39.6-1.03.99-1.64 1.37-.37.22-2.11 1.03-2.33.19m-40.28.69c-.24-.7-.19-1.61-.08-2.45.04-.29.24-1.72.54-1.65l-.22 1.37c-.07.39-.19 1.02-.09 1.36.11.36.21.71.49.88.19.12.44.06.56-.09.02-.03.08-.19.09-.23.03-.11.12-.44.2-.28.16.33-.29 1.27-.41 1.46-.24.39-.93-.24-1.08-.38m33.59-15.57c-.23.11-.79-3.15-.77-3.25.12-.44.26-.89.41-1.31.1-.28 1.35 2.21 1.4 2.31l.12.32.04.16-.02.14c.12.16.3.38.46.68l.15.26c.05.08.09.17.13.29.02.06.29.8.1.8-.21 0-.51-.29-.65-.43-.19-.19-.42-.42-.49-.43-.09-.01.21 1.83.24 1.98.1.62.2 1.2.32 1.69.26 1.05.47 2.13.64 3.17.18 1.08.4 2.17.65 3.25l.04.16.04.16.04.28.04.2.04.2.04.2.04.24.04.24c.05.26.11.59.16.84.02.1.08.57.08.6 0 .02.04.72.04.72-.02 0 .04.55.04.56.03.28.05.4.04.48-.03.43-.08 1.1-.08 1.12-.02.26-.19 1.35-.4 1.5-.09.06-.73-4.29-.81-4.91-.04-.28-.11-.6-.2-1 0 0 0 0-.08-.44l-.04-.2-.04-.16-.04-.2-.08-.4c-.04-.21-.08-.41-.12-.6-.08-.33-.14-.67-.2-1.01l-.77-4.17c-.09-.49-.36-1.97-.36-1.97-.07-.34-.42-2.09-.2-2.09m34.74 14.43c.12.42.26.95.87.67.09-.04.19-.42.26-.72.05-.19.17-.61.38-.6.2 0-.18 1.29-.18 1.29-.21.54-.29.75-.77 1-.18.1-.35.05-.54-.02-.27-.1-.47-.17-.86.13-.11.09-.28.17-.44.25-.12.05-.41.15-.58 0l-.09-.11-.02.2c0 .05-.3-.13-.32-.14-.17-.1-.3-.18-.52-.22-.59-.11-1.99.99-2.5 1.39-.65.52-1.7 1.24-2.79 1.28-.15 0 .36-.3.36-.3.2-.07.36-.19.52-.31q.19-.14.21-.15c.12-.07.23-.14.38-.26l.14-.07c.09-.06.27-.18.32-.22s.58-.43.89-.66c.06-.05.66-.49 1.03-.77.33-.24.66-.49.96-.63.69-.32.9-.15 1.38.24 0 0 .88-.14 1.07-.29.14-.1.28-.21.37-.35.09-.13.44-.65.46-.63m-35.06 2.55c-.07-.21-.14-.4-.3-.42-.14-.02-.26.14-.32.24-.1.17-.25.42-.26.43-.15.11.13-.97.16-1.06.12-.3.32-.6.65-.66.71-.13.44 1.48.26 1.87-.16.34-.38.8-.53 1.02-.1.16-.53.79-.52.82h-.12l.04-.24s.08-.17.16-.34c.06-.12.28-.58.28-.58.2-.37.47-.85.5-1.08m-9.79 1c.08-.23-.04-.41-.17-.54-.18-.18-.71.23-.96.42-.18.14.34-1.08.42-1.18.31-.38.79-.47 1.04.06.37.79-.31 2.19-.74 2.58-.29.26-1.89 1.32-1.07.44.5-.54 1.42-1.55 1.48-1.78m-27.42 1.53q-.09-.09-.15-.19l-.16-.24-.08-.12c-.19-.29-.35-.62-.47-.98-.3-1.01-.35-2.52-.08-3.53.14-.51.48-2.05.46-2.17l-.08-.12s-.16-.24-.16-.24c-.1-.16-.16-.3-.24-.48-.11-.25-.19-.57-.26-.84-.25-1 .4-5.12 1-5.81.15-.18-.16 1.21-.19 1.36-.18.82-.36 1.66-.36 2.61 0 .71 0 1.02.3 1.62.14.27.64 1.22 1.04.77.13-.14.22-.29.27-.52.03-.12.15-.66.18-.68.65-.43-.37 2.27-.37 2.28-.05.12-.34.26-.48.31-.21.08-.36.14-.38.34-.12.93-.32 2.67-.32 2.89 0 .67.34 1.31.63 1.73.34.51.74.95 1.29 1.24.24.13.5.27.81.34.19.05.41.1.52.12l.24.04s.49.07.5.08c.2.26 2.83-.55 3.13-.66.85-.33 1.61-.75 2.3-1.24.72-.52 3.14-2.3 3.05-2.97-.03-.2-.1-.74-.32-.82-.02 0-.59.12-.79.16-.41.09-1.13.25-1.49.16-.93-.23-1.84-.46-2-1.34-.09-.54.02-1.06.18-1.57.25-.79.91-1.58 1.82-1.7.42-.06.95.27 1.28.47.3.18.58.58.78.87.15.21.68.96.8.95.76-.03 2.2-1.45 2.4-2.13.07-.22-.65-4.6-.89-5.92q-.05-.29-.08-.4c-.04-.17-.1-.42-.12-.6-.02-.27-.03-.3-.08-.52-.05-.21-.09-.43-.12-.64-.07-.51-.23-1.79-.24-1.85-.06-.35-.2-1.33-.08-1.53l.04-.12.06-.16s0 0 .1-.28c.04-.12.22-.62.31-.58.02 0 .14.53.17.66.05.25.13.57.16.72.05.24.14.61.16.76.07.4.13.75.2 1.12.06.28.11.55.16.84.02.12.08.44.08.48q0 .27.03.31c.04.05.13.59.17.82l.04.24.04.28.04.2.04.24.04.16s.13.86.16 1.05l.04.28.04.28.04.24.04.24.08.52.06.36.06.44.04.36q.04.36.08.6c.21 1.28.57 3.3.75 3.73.12.31.58 1.15.9 1.72.37.67 1.9 1.35 2.9 1.48.6.07 1.95.07 2.42-.16l.16-.04.12-.04.2-.04c.11-.03.47-.15.69-.22.41-.13.76-.29 1.07-.44l.26-.14.16-.06.18-.08.24-.12.14-.08.16-.08c.29-.14 1.06-.55 1.06-.55.19-.13-.71-.85-.77-.91-.27-.21-.67-.54-.94-.61-.34-.1-.76 0-1.13.12-.12.04-.27.1-.4.16-.22.09-.39.17-.54.15-.1 0-.02-.43 0-.54.06-.33.11-.58.22-.82.4-.85 2.63-1.3 3.81-1.49.5-.08 2.16-.01 3.53.04.85.03 1.72.4 2.36.69.16.07-.25 1.49-.32 1.68-.01.03-.65.29-.86.38-.29.12-.63.3-.97.52l-.14.08-.22.16-.27.13c-.14.11-.63.51-.62.55.16.78 2.26 1.13 2.99.98.8-.16 2.17-.71 2.4-1.39.14-.4-.46-3.14-.69-4.13-.07-.32-.25-1.21-.36-1.77l-.04-.24-.04-.24-.04-.16q-.05-.2-.08-.36l-.04-.32-.04-.2-.04-.16-.04-.2c-.25-1.25-.57-2.85-.73-3.77-.19-1.12-.68-3.8-.85-4.13-.14-.29.22-2.05.48-1.94l.07.17.08.2.08.12.08.14c.1.21.29.57.32.62 0 0 .22.32.32.49.11.16.19.32.28.5.1.2.21.41.32.6s.22.38.32.58c0 0 .68 1.27.24 1.14-.22-.06-.39-.23-.54-.4-.16-.18-.37-.42-.57-.37-.04.01.08.83.08.83l.04.16.08.36c.05.21.11.55.16.84.05.27.12.66.16.84.09.39.25 1.13.28 1.29.1.52.21 1.06.32 1.53.42 1.79.99 4.21 1.09 5.74.11 1.73.06 3.07-.92 4.21-.53.62-2.78 1.67-3.75 1.19-.56-.28-1.61-.83-1.61-.83-.23-.16-.46-.36-.65-.56-.17-.19-.54-.58-.69-.57-.15 0-1.6.78-2.36 1.19-.11.06-1.44.64-2.36 1.04-1.42.62-3.07.6-4.6.3-.42-.08-1.24-.66-1.82-1.06-.21-.15-.49-.53-.7-.82-.08-.09-.08-.1-.15-.23l-.16-.32c-.03-.07-.12-.26-.14-.28-.06-.07-.34-1.03-.44-1.41-.05-.19-.14-.52-.2-.76l-.04-.16-.04-.16-.04-.2c-.04-.23-.05-.27-.09-.39-.02-.08-.33.58-.38.67-.08.18-.35.45-.55.65s-.44.4-.69.55c-.23.14-.74.44-.79.64-.11.43-.12.91-.12 1.32 0 .38-.03.9-.22 1.27-.41.77-1.12 1.47-1.75 2.03-.1.09-.21.17-.32.24-.12.07-.24.16-.34.25-.11.1-.29.24-.67.51l-.13.09c-.24.2-.52.39-.8.56l-.14.08-.24.16-.24.14-.28.12c-.39.39-2.14.76-3.03.92-.54.1-1.68.09-2.18-.16l-.32-.08c-.1-.03-.18-.06-.26-.1-.17-.08-.41-.19-.54-.28-.15-.1-.32-.24-.48-.37l-.2-.18-.3-.33zm9.23 1.4c.07-.06 1.14-.6 1.76-.9l.24-.12.16-.06.34-.16c.15-.08.39-.2.46-.24l.24-.14.16-.06.2-.08 1.71-.8c.28-.14.75-.37.91-.42.2-.07.33-.09.3.18-.02.21-.1.56-.28.6-.39.1-2.36 1.06-3.49 1.63-.64.32-1.47.73-1.94.92-.31.13-.58.26-.84.43-.06.04-.21.07-.2-.07.01-.18.09-.67.25-.7" fill="#1d1d1b" fill-rule="evenodd"/></svg>