<svg viewBox="0 0 85.55 26.06" xmlns="http://www.w3.org/2000/svg"><path d="m31.13 23.41c.86-.02 2.18-.41 2.79-.59.83-.25 1.65-.6 2.36-.98.35-.18.77-.38 1.15-.56l.16-.08.4-.24c.15-.08.6-.31.65-.3.08.01.56.68.73.92.16.22.38.5.61.65.38.25.88.53 1.46.55.64.02 1.26-.06 1.83-.28 1.03-.38 1.82-.89 2.22-1.91.29-.74.28-1.92.22-2.73-.12-1.57-.67-4.63-1.09-6.9-.19-1.03-.5-2.74-.52-2.93 0 0-.21-1.29-.28-1.73-.04-.27-.11-.71-.16-1.04-.02-.15-.12-.93-.07-.94.03 0 .45.37.63.53.14.13.47.42.49.07.02-.23-.44-1.21-.69-1.75-.24-.52-.49-1.05-.73-1.52-.13-.26-.38-.77-.38-.78-.05-.16-.2-.56-.27-.6-.24-.12-.68 1.26-.64 1.58.02.11.08.27.14.4.05.12.11.27.14.4.04.16.14.9.2 1.32.27 1.98.56 3.93.89 5.86l.89 5.18.04.2.04.16.04.24q.04.28.08.48l.04.24c.03.2.08.4.12.6.03.14.06.29.08.44.11.73.34 2.19.28 2.29-.3.54-1.82 1.29-2.64 1.3-.52.01-1.36.02-1.61-.18-.36-.29-.89-.72-.91-.8 0-.06.47-.58.64-.76.13-.14.24-.27.36-.43l.32-.48c.11-.09.61-2.18.48-2.17l-.02-.12-.04-.38-.04-.16c-.03-.11-.1-.35-.14-.44-.07-.18-.26-.49-.4-.72-.25-.41-.52-.76-.97-.98-.73-.36-1.66.18-1.9.84l-.06.14-.12.24c-.05.13-.09.29-.12.44l-.04.2-.02.24-.06.28-.04.4c-.1.41.09 1.44.2 1.89.05.2.1.4.16.6.05.17.12.42.12.46-.01.54-4.05 1.98-5.14 2.29-3.02.86-5.87.39-7.92-.97-.45-.3-.81-.88-1.02-1.42-.27-.72-.41-1.63-.52-2.49-.14-1.02-.27-1.98-.48-2.93-.26-1.17-.67-2.42-1.17-3.41-.25-.49-.55-1.09-.79-1.45-.08-.12-.16-.27-.24-.42l-.08-.14c-.04-.05-.5-.79-.54-.66-.09.35-.29 1.16-.25 1.52.01.13.26.65.42 1q.07.14.12.22t.16.32c.06.16.14.33.2.48.28.65.55 1.31.75 2.01.38 1.33 1.11 3.86.97 4.42-.5 1.98-4.73 4.37-6.72 5.36-.36.18-1.02.07-1.45 0-.37-.06-.85-.46-1.01-.74-.15-.26-.27-.54-.34-.89l-.04-.24-.04-.37.08-.78s.04-.25.04-.25c.05-.26.13-.5.2-.72.19-.57.33-.79.69-1.15.6-.59 1.12-1.21 1.66-1.87.84-1.03.77-2.75.31-4.13-.08-.23-.22-.46-.34-.66-.14-.23-.28-.46-.4-.68 0 0-.67-1.26-.6-1.3.05-.03.25 0 .32.02.13.03.39.08.5.03.14-.06-.03-.33-.08-.39l-.16-.16c-.24-.19-.39-.34-.49-.43q-.43-.41-.55-.5c-.09-.09-.75-.74-.81-.67-.23.3-.3.83-.37 1.3-.02.16.14.45.3.72.03.06.24.52.34.77.2.46.4.92.62 1.36.24.47.51.95.81 1.37.24.34.4.82.59 1.36.33.98-5.5 5.14-7.22 5.82-.34.14-1.31.66-1.92.98-.34.19-.71.38-1.09.54-.4.17-.9.38-1.19.52-.02.01-.91.41-1.27.56l-.16.06-.28.12c-.19.09-.31.13-.4.16-.34.14-2.04.84-2.11 1-.15.35.83.08.98.03.32-.1.65-.19 1.01-.26.29-.06.79-.16.97-.24q.1-.04.44-.08l.2-.04.16-.04.2-.04c1.21-.27 3.27-.72 3.59-1.04.03-.03.23-.13.36-.2l.26-.14.14-.06c.13-.07.3-.16.44-.22q.14-.06.24-.12c.46-.27.9-.53 1.35-.8.28-.17.53-.33.62-.36l.18-.15.25-.17c.09-.06 1.3-.88 1.32-.79 0 .03-.05.46-.09.71 0 .01-.02.12-.04.25l-.1.78c-.04.72-.07 1.93.16 2.3.32.53.67 1.11.84 1.28.81.3 1.38.5 2.29.35 1.22-.2 3.14-1.64 4.08-2.42.58-.48 1.38-1.15 1.72-1.54.27-.31.54-.63.74-.96.11-.18.23-.37.32-.58.02-.03.26-.58.3-.43.22.8.59 2.09.75 2.32.4.55.96 1.32 1.34 1.54.35.2.67.38 1.08.53.21.08.42.16.65.22l.16.04.24.06.24.06c.4.16 1.39.2 1.7.2.27 0 .76 0 1.05-.01 0 0 .84-.06.96-.12m-20.84-19.83q.05.12.17.23s.11.16.15.23c.05.07.58.93.61.6.02-.22.02-.67.02-.96 0-.36 0-1.13.08-1.48.06-.27.31-1.11.54-1.14.7-.09 1.65 1.14.99 1.6-.11.08-.4-.21-.48-.29-.17-.16-.3-.3-.56-.35-.22-.04-.22.68-.22.78 0 .43 0 1.01-.04 1.6 0 .11-.3 2.66-.55 2.05-.33-.84-.67-1.52-1.18-2.15-.18-.22-.57-.71-.79-.68-.37.06-1.16-.14-1.23-.54-.03-.17.03-.99.21-1.1.31-.18 1.07.4 1.37.63.13.1.27.22.44.4.2.16.36.49.46.57m44.49-2.42c-.14-.34-.83.1-.82.35.01.21.52.66.71.72.44.14.26-.87.11-1.08m26.88.15c-.14-.47-.92.05-.99.38-.04.23.84.79 1.07.84.42.1.07-1.07-.08-1.23m-60.62 1.37c-.12-.26-1.76-.17-2.07-.04-.16.06-.38.17-.5.29l-.16.2c-.11.14-.22.27-.26.28-.27.07.48-1.3.48-1.3.52-.93 3.69-1.03 3.8-.39.17.96-2.06 2.63-2.93 2.63-.27 0 .76-.89.76-.89.16-.13.89-.71.87-.77m5.43-1.23c.49-.03 1.46.85 1.71 1.14.19.22.39.45.55.69.19.29.6.89.68.91.06.01.06-1.32.06-1.58 0-.19.05-.55.12-.76.13-.41.3-.97.59-1.08.26-.11.38-.13.64 0 .31.17.48.59.59.95.06.21-.08.54-.26.54-.03 0-.28-.23-.46-.4-.09-.09-.71-.43-.77-.09-.05.3-.05.81-.05 1.27v.33s0 .13 0 .13v.26c-.02.5-.19 1.77-.53 2.01-.03.02-.14-.24-.14-.24-.06-.14-.16-.37-.2-.44-.08-.13-.27-.45-.4-.66-.21-.34-.56-.72-.87-1.05-.13-.15-.31-.34-.54-.31-.33.03-.57.02-.78-.2-.28-.28-.08-.97.05-1.43m43.78.03c.56-.14 1.56.74 1.8 1.06.06.08.39.49.57.72t.24.31l.09.21c.07.11.26.42.4.41.06 0 .06-1.07.06-1.12 0-.45.04-1.02.11-1.39.07-.33.12-.6.39-.96l.23-.39.21-.19c.07-.14.57-.14.69-.08.49.24.78 1.11.35 1.58-.09.1-.68-.54-.75-.64-.07-.09-.53.16-.62.21-.2.11-.21 2.12-.21 2.4 0 .45-.15 2.04-.38 2.35-.14.19-.26-.28-.26-.28-.03-.12-.09-.3-.14-.4-.01-.02-.29-.45-.4-.62-.25-.37-.51-.74-.8-1.08-.19-.23-.36-.25-.64-.25-.18 0-.53-.23-.71-.34-.3-.2-.82-1.3-.23-1.5m-11.44 3.66c.63-.74 8.21-4.74 8.21-4.74.18.05-.12.75-.19.83-.5.55-8.23 4.85-8.23 4.85-.1 0-.05-.93.21-.94m-4.57-1.94c.01-.09-.12-.19-.21-.27-.02-.02-.1-.12-.18-.22-.16-.22-.3-.4-.33-.73-.04-.33.36-1.12.57-1.54.08-.16.54-.4.78-.37.23.03.38.37.42.58.07.33.04.74 0 1.12-.03.34-.08.84-.01.92l.54.41c.12.09.37.32.36.52q0 .3-.1.68s-.6-.38-.62-.4c-.2-.15-.46-.33-.71-.38-.07-.01-.45.46-.57.61-.08.1-.19.21-.29.3-.09.09-.19.18-.28.28-.36.38-.8.69-1.23.99-.43.29-2.16 1.2-2.71 1.24-.39.03.48-.56.48-.56.14-.09.41-.23.59-.33.09-.05.79-.56 1.24-.88.89-.65 1.84-1.34 2.27-1.97m25.49 1.91c-.02-.09.64-.64.81-.78.22-.18.73-.62.76-.79.02-.12-.4-.4-.52-.48-.18-.11-.43-.41-.49-.64-.17-.76.41-2.06 1.03-2.23.26-.07.49.09.62.23.28.31.33.99.33 1.47s0 1.03.35 1.32c.32.27.43.54.27 1.05-.04.13-.71-.31-.8-.37-.22-.15-.46.1-.66.32-.21.23-.41.44-.65.64-.44.38-1.3 1.11-1.46 1.21-.39.23-.76.48-1.14.73-.21.14-.43.27-.65.39-.21.12-.58.33-.68.4-.14.09-.62.26-.97.38-.14.04-.27.09-.4.14-.25.09-1.37.47-.65 0 .41-.27.83-.51 1.27-.76.2-.11.42-.24.61-.36.2-.14.41-.27.62-.4.22-.13.49-.3.64-.41.19-.14.19-.14.21-.15l.26-.16.38-.24c.09-.07.34-.24.34-.24.09-.06.52-.35.57-.28m-26.81 3.25c-.01-.28.35-.92.49-1.1.29-.39.61-.15.98.11.21.15.79.57.95.27.2-.36.43-.78.63-.97.25-.25 1.52 1.01 1.57 1.21.06.3-.12.6-.27.75-.14.15-.32.36-.39.57-.04.12-.74-.44-.76-.45-.28-.22-.67-.54-.85-.51 0 0-.29.52-.33.59-.1.19-.19.38-.29.55-.12.21-.78-.27-.9-.35-.11-.08-.46-.33-.46-.33l-.2-.16-.17-.19zm15.27-2.57c-.23.48-.39 1.04-.48 1.61-.12.78.22 1.65.83 1.75.23.04.33-.31.38-.5.03-.11.15-.52.24-.45.29.23-.35 1.82-.64 1.9-.26.08-.5.03-.68-.17-.57-.63-.61-1.42-.41-2.4.07-.34.8-2.2.77-1.73m12.91 2.93c.06-.64.87-2.46.89-2.13 0 .1-.18.53-.26.7-.13.27-.24.54-.3.86-.08.44.15.99.32 1.26.13.22.45.2.62.02.06-.07.11-.21.15-.31.05-.13.11-.29.2-.23.2.16-.37 1.76-.9 1.61-.54-.14-.9-1.14-.7-1.78m-56.19 1.47s.24-.15.36-.23.26-.17.38-.24c.15-.08.42-.24.42-.24l.3-.16.14-.08.18-.08c.58-.31 1.58-.84 1.85-.96l.18-.08.26-.14.14-.06q.28-.15.3-.16c.08-.04.32-.17.46-.24l.34-.16.28-.14c.18-.09 1.23-.58 1.92-.9.88-.41 2.71-1.21 4.17-1.85.33-.14.68-.3 1.03-.44.03-.01.75-.33 1.11-.48.53-.23 2.19-.86 2.27-.86.27.02-.15.95-.21 1.06-.08.12-.75.38-1.13.52h-.3s-.15.07-.15.07l-.05.15c-.06.05-.53.23-.7.29-.07.02-.32.12-.36.14q-.23.1-.28.12l-.32.14-.28.12c-1.52.63-3.39 1.49-5.04 2.25-.52.24-2.7 1.32-4.48 2.21l-.16.06-.26.12c-.08.04-.09.04-.29.16-.09.06-.11.07-.3.16-.2.1-.57.29-.62.32-.17.1-.33.18-.52.28-.15.07-1 .5-1.01.48-.07-.22.27-1.02.37-1.14m13.88.76c-.27-.1-.52.27-.63.43-.17.25-.4.6-.59.64s-1.49-.97-1.53-1.17c-.05-.22.58-1.15.79-1.22.13-.05.55.23.74.36.31.2.74.49.85.5.13.02.39-.38.5-.54.12-.19.4-.59.57-.58.29.02 1.48 1.12 1.59 1.42.14.36-.72 1.31-.95 1.25-.09-.03-1.06-.84-1.34-1.1m32.54 4.84c.15-.4-1.04-.87-1.47-.92-.38-.05-1.1.41-.97.78.17.5 1.98.26 2.43.13m-63.93.31-.06-.16-.06-.12s-.08-.28-.12-.44c-.09-.36-.22-.96-.16-1.28.19-1.15.57-3.18.64-3.41.08-.32.08-.32.08-.32l.12-.4.04-.16c.05-.17.28-.89.46-.84.03 0-.16 1.14-.18 1.24-.05.3-.18.72-.28 1.04-.08.27-.25 1.61-.32 2.19-.08.66.3 1.69.71 1.99.38.28.58.07.75-.4l.08-.4c.06-.25.1-.4.28-.35.13.04-.11 2.4-.9 2.61-.2.06-.75-.48-1.07-.78m50.06.32c.12-.51-1.84-1.46-2.24-1.58-.21-.07-1.05 1.6-1.15 1.86-.11.3.03.64.17.87.13.22.5.25.82.23.59-.03 2.24-1.01 2.4-1.38m-16.59.82c.33-.58-.84-1.9-1.2-2.14-.22-.15-.56-.13-.83 0-.24.12-.54.41-.59.72-.07.42.57 2.65.75 2.72.24.09.84-.35 1.07-.52.15-.11.36-.31.61-.56l.18-.22zm-9.94-.5c-.09-.78 0-4.12 1.23-3.57.42.18.99 1.1.63 1.57-.14.18-.46-.19-.6-.34-.12-.13-.71-.55-.8-.11-.07.39-.07.7-.04 1.1.04.59.03 1.1-.04 1.71-.04.3-.28 1.65-.5 1.52 0 0-.2-.47-.23-.55-.07-.17-.14-.34-.22-.52-.14-.31-.42-.67-.66-.99-.08-.11-.17-.19-.28-.29q-.1-.1-.36-.11-.21-.01-.32-.06c-.35-.15-.87-.38-.83-.84.06-.68.09-1.01.79-.72.25.1.66.44.96.69.24.2.44.48.63.73.09.12.6.82.63.79m22.9 2.39c-.23-.11-.37-.82-.41-1.13-.08-.58.16-1.65.37-2.19.11-.31.24-.64.34-.84.14-.28.27-.54.24-.66-.01-.04-.21-.19-.32-.27-.08-.06-.32-.24-.32-.24-.15-.13-.59-.5-.59-.5-.12-.12-.41-.46-.6-.69-.09-.11-.21-.21-.33-.29s-.22-.15-.28-.28c-.13-.29-.04-1.21.06-1.57.02-.07 2.55.87 2.56 1.12 0 .12-.07.14-.26.18-.02 0-.33.07-.35.11-.08.08.21.32.31.4.28.24.76.62 1.11.65.05 0 .46-.55.6-.73.1-.13.21-.28.32-.4 0 0 .22-.29.32-.43.18-.24.44-.56.66-.84.14-.18.63-.78.68-.76.06.01-.12.72-.15.85-.12.49-.23.82-.46 1.17-.16.24-.32.48-.5.7-.17.21-.47.61-.53.87-.02.07.59.48.77.6.29.2.56.44.75.74.45.71.62 2.15.08 2.93-.56.81-1.73 1.58-2.82 1.85-.36.09-1.13-.03-1.22-.36m-7.17-17.53c.04-.22.1-.41.16-.6.04-.11.07-.2.1-.28l.08-.18c.05-.1.12-.23.12-.26.03-.16.33.41.35.44.08.26.18.45.3.66.1.17.23.4.29.52.08.18.17.38.26.54.23.42 1.22 2.29.81 2.62-.11.09-.41-.32-.47-.41-.11-.17-.32-.49-.46-.5-.24-.01.29 2.62.36 2.99.04.2.08.47.12.72.05.33.12.79.16 1l.04.2.04.28.04.2.16.88c.43 2.16.83 4.58 1.13 6.98.08.69.11 4.16-.54 4.15-.07 0-.07-.79-.07-.84q0-.34-.04-.78c-.05-.52-.12-1.03-.2-1.48l-.4-2.53c-.28-1.55-.61-3.31-.81-4.62-.1-.65-.36-2.33-.36-2.33l-.04-.24-.04-.2c-.05-.27-.08-.49-.12-.76q-.03-.19-.08-.48c-.05-.26-.09-.5-.12-.76q-.04-.36-.08-.56c-.04-.2-.08-.54-.12-.8q-.02-.15-.08-.48l-.04-.28-.04-.28-.04-.36c-.06-.42-.14-1.07-.2-1.33-.1-.44-.18-.79-.16-.84m32.09 18.89c.41-.09.66-.15.99.06.2.12.47.29.71.26.46-.05.84-.4 1.09-.78l.2-.4c.14-.08.14.12.14.16 0 0 0 .43.22.48l.16.06c.18.06.22.05.46.02.07-.01.21-.46.28-.72.04-.15.23-.62.36-.57.65.26-.81 2.13-.9 2.2-.16.14-.38.07-.57 0-.11-.03-.18-.06-.26-.1s-.21-.1-.24-.1c-.08 0-.32.21-.47.33-.19.16-.49.27-.76.31-.28.05-.58-.15-.77-.26-.2-.13-.36-.22-.64-.14-.57.16-1.01.4-1.43.71-.39.28-.77.55-1.19.8-.39.23-.99.58-1.25.7-.14.06-.45.14-.69.2-.26.07-.83-.02-.4-.16.48-.16 1.66-.95 2.56-1.54.79-.52 2.06-1.35 2.4-1.51m-17.53 1.78c-.11-.37-.12-.73-.12-1.12q0-.29.04-.72c.02-.15.08-.87.06-.88-.1-.08-1.33.76-1.4.81-.43.32-.89.61-1.38.87-.84.45-2.9 1.57-3.03 1.65-.55.36-6.73 1.77-7.1 1.65-.26-.09.56-.46.56-.46.29-.12.54-.22.85-.32.25-.08.51-.19.77-.3.24-.1.51-.21.77-.3.54-.2 1.21-.45 1.55-.62.44-.22 1.41-.69 1.49-.72 1.74-.69 4.2-2.32 5.98-3.5.67-.45 3.68-2.63 3.38-3.16-.61-1.05-1.2-2.11-1.67-3.19-.09-.19-.11-.26-.14-.34-.06-.19-.12-.36-.18-.52-.11-.3-.25-.58-.38-.84-.08-.15.06-1.02.17-1.71.02-.15 1.3 1.11 1.39 1.21.06.06.19.2.29.29.13.12.25.26.36.4.05.07.27.43.03.39-.26-.05-.69-.12-.71-.11-.21.08.67 1.5.71 1.58.3.49.71 1.16.79 1.73.02.14-.05 1.43-.08 2.21-.02.51-.7 1.2-1.04 1.54-.24.24-.48.46-.75.68-.27.23-.55.46-.61.67-.1.32-.36 1.39-.14 1.64l.04.24.04.16c.05.19.06.22.14.4q.07.16.16.3l.09.13c.12.15.15.18.16.2.17.37.84.69 1.24.85.18.07.52.14.65.16.14.02.3.03.4.02l.5-.04h.14c-.08.04.59-.1.76-.16l.2-.06q.07-.02.52-.18l.24-.08c.12-.05.17-.07.28-.14q.21-.13.28-.16c1.87-.83 3.96-2.87 5.12-4.45.14-.19-.07-.55-.2-.62-.11-.06-.31 0-.4.04-.2.07-.4.12-.64.16-.57.1-1.28.23-1.82.2-.48-.03-1.01-.36-1.39-.6-.58-.36-.34-1.95-.11-2.55.13-.34.72-1.12 1.05-1.24.36-.13.74-.27.97-.26.49.03 1.04.29 1.35.58l.33.27c.07.06.25.25.37.38.13.15.26.33.37.49.09.14.24.36.34.43.27.22 2.12-1.17 2.3-1.33.12-.11.81-.62.96-.65.38-.06.41.14.39.46-.03.3-.06.77.05 1.07.12.3.67.87 1.01.94.58.12.98.21 1.37.2.53-.01 1.01-.33 1.39-.58.41-.27.68-.68.91-1.14.24-.48.61-1.22.93-1.45.32-.22.05.56.02.62-.12.25-.31.66-.28.8.12.65 2.32 1.61 2.86.87.09-.13-.16-.59-.22-.69-.13-.22-.29-.48-.3-.54-.02-.15.23-1.03.33-1.35.14-.43.6.7.62.73.14.35.25.74.3 1.18.14 1.08-.34 2.03-.97 2.45-.3.2-.93.22-1.27.14-.51-.12-.89-.27-1.24-.55-.16-.13-.3-.26-.42-.42s-.26-.35-.48-.23l-.08.14-.08.14c-.07.11-.18.29-.25.37-.06.07-.41.39-.62.57-.36.32-1.04.53-1.67.58-.79.06-1.44-.23-1.88-.68-.2-.2-.36-.39-.48-.67-.06-.15-.13-.32-.16-.48-.03-.21-.08-.52-.1-.54-.03-.04-1.1.72-1.19.78-.35.25-1.11.79-1.17.92-.03.06-.08.71-.08.72-.02.29-.06.69-.08.84-.03.21-.12.43-.22.58-1.3 1.88-2.77 3.33-4.68 4.6-.67.45-1.43.86-2.34 1.06-.79.17-1.37.19-2.06.16-.52-.03-1.14-.41-1.57-.67-.45-.28-1.1-1.28-1.2-1.92m-50.16.12c.08.19-.11.76-.3.8l-.28.16-.28.16q-.16.08-.3.16c-.15.09-.29.16-.44.24-.46.23-1.26.62-1.41.68-.13.05-.21.09-.32.16-.07.04-.26.13-.4.2l-.34.16-.18.09q-.08.06-.23.11c-.11.04-.53.24-.77.36-.3.15-.54.27-.44-.2.1-.46 2.12-1.34 2.72-1.61.27-.12.55-.26.81-.4 0 0 .5-.25.73-.36 0 0 .52-.3.71-.4.2-.11.6-.34.74-.32m12 1.83c.07-.3-.16-.62-.46-.57q-.11.02-.25.17c-.11.11-.26.27-.26.27-.21.09.16-.8.19-.85.17-.27.31-.49.65-.56.18-.04.37.24.45.36.59.98-.9 2.64-1.47 2.91-.73.35-.02-.38.21-.61l.24-.28q.08-.12.55-.62l.16-.23z" fill="#1d1d1b" fill-rule="evenodd"/></svg>