<svg viewBox="0 0 77.13 26.16" xmlns="http://www.w3.org/2000/svg"><path d="m46.78 2.35c.24-.32-.07-1.62-.8-.85-.2.21-.05.44.12.63.16.18.49.48.68.23m25.8.1c-.08.36 1.05 1.1 1.23.92.23-.22-.23-1.18-.31-1.26-.34-.3-.79 0-.92.33m-44.05.97c-.14-.7 0-1.43.2-1.97l.12-.28.08-.24s.09-.28.18-.2c-.33.23-.18 2.01-.06 2.29.28.69.78.41.94-.21 0 0 .18-.12.16.12-.01.18-.12.41-.19.57-.12.26-.28.49-.46.74-.42.59-.93-.54-.98-.82m-18.51.22c0-.29.61-3.27.73-2.72l-.05.17-.04.16-.04.24-.04.2-.04.28c-.08.47-.19 1.13-.12 1.4.09.37.31.96.62 1.08.23.09.4-.11.47-.32.05-.14.21-.64.3-.48.08.14-.42 1.33-.55 1.63-.08.18-.4.11-.54.06-.31-.12-.94-1.33-.7-1.71m-7.42-.98c-.11-.2.07-.94.21-1.1.15-.17.95.22 1.04.34l.21.17c.11.09.19.17.3.3.18.2.35.39.52.6s.32.42.48.65c.08.12.41.61.5.58.06-.03.09-.45.09-.48v-.6c.03-.33.08-.62.16-.98.11-.5.3-1.12.71-1.35.24-.13.52.04.76.19.32.2.52 1.4.03 1.23-.07-.02-.27-.21-.32-.27-.12-.16-.24-.29-.47-.32-.44-.05-.49 1.53-.51 1.99-.02.77-.04 1.24-.16 1.85-.02.11-.2.81-.33.52-.37-.82-.79-1.48-1.28-2.16-.23-.32-.4-.56-.84-.51-.39.05-.78-.34-1.11-.67m47.85 3.75c-.2-.06-.02-.71.07-.87.04-.07 1.57-.95 2.13-1.27.36-.2.72-.4 1.09-.6.09-.05.34-.19.48-.28l.36-.18.15-.07c.42-.28 4.03-2.24 4.18-2.26.22-.02.01.54-.08.66-.38.51-8.32 4.86-8.39 4.87m11.49-3.35c-.1-.23.04-.75.15-.96.28-.5 1.66.85 1.77.99.44.55.88 1.08 1.2 1.74.06.11.22-1.24.22-1.3.03-.44.12-1.36.16-1.46.15-.4.51-1.04.85-1.24.16-.1.5-.26.7-.07.28.26.49.53.55.99.02.12-.21.72-.36.6-.02-.01-.15-.17-.27-.31-.11-.13-.26-.28-.44-.35-.22-.08-.51.08-.56.24-.12.39-.18.87-.18 1.19 0 .6-.04 1.33-.16 2.05-.06.36-.24 1.4-.38 1.42-.08.01-.21-.31-.28-.5-.02-.05-.21-.39-.32-.58-.28-.48-.66-1.15-1.07-1.46-.13-.1-.22-.17-.36-.12s-.4-.11-.57-.2c-.24-.14-.61-.35-.65-.64m-15.88.21c-.28-.27-.48-.55-.62-.97-.1-.29.29-1.3.42-1.44.22-.25.46-.51.81-.58.26-.05.44.23.51.42.11.36.08.81.04 1.16-.04.32-.11.96-.05 1.04.04.06.17.16.29.25l.13.1c.17.14.32.3.44.51.11.2-.01.54-.09.75-.04.11-1.07-.62-1.18-.73-.02-.02-1.23 1.08-1.4 1.24-.11.1-.38.29-.57.43-.36.26-2.21 1.44-2.63 1.26-.26-.11.22-.41.24-.42.22-.13.43-.26.62-.4.39-.28.8-.55 1.2-.82.36-.24 2.08-1.38 1.84-1.78m-12.4 1.45c.05.13-.21.77-.34.77 0 0-.74.25-.81.28l-.4.16-.4.12c-.14.04-1.35.44-2.02.66-.3.1-.61.2-.93.3l-.16.06q-.07.02-.44.14s-.31.11-.48.16c-.32.11-.67.22-.97.34l-.2.08-.16.06-.16.06c-.22.08-.62.24-.65.24-.05 0 .1-.44.1-.44.1-.3.11-.33.38-.44.39-.16.77-.31 1.17-.46.31-.11.88-.32 1.01-.36.43-.12.88-.27 1.37-.44l.48-.16q.12-.04.36-.12l.24-.08.48-.16c.32-.11.88-.29 1.01-.34.41-.15 1.36-.51 1.51-.43m-24.17 3.02c1.89-1.23 5.18-2.48 7.72-3.42.72-.27 1.71-.64 2.18-.84.59-.26 1.24-.54 1.85-.74.14-.05.28-.1.4-.14.16-.06.32-.12.48-.18l1.01-.36c.78-.28 1.59-.35.84.73-.03.04-.5.22-.88.37-.17.07-.33.12-.52.18-.14.04-.3.1-.45.16l-.14.06q-.16.08-.34.14l-.32.12c-.34.12-.85.3-1.03.38-1.34.58-2.71 1.13-4.1 1.62-.19.07-.41.16-.68.28l-.28.12-.4.16c-.07.03-.39.15-.56.22-.13.05-.37.16-.57.24-.15.07-.32.14-.48.2l-.16.06-.28.12-.64.24c-.64.24-1.43.63-2.1.96-.15.07-.26.13-.38.22-.03.02-.3.2-.3.2-.33.02-.19-.35-.12-.52l.06-.16.14-.28.07-.15zm63.69-3.35c.04-.14-.32-.43-.47-.55-.22-.17-.41-.35-.5-.65-.22-.75.54-1.99 1.03-2.17.28-.1.56.05.69.22.19.27.25 1.37.3 2.19.01.17.14.34.47.79.13.18.33.9-.02.96-.03 0-.38-.26-.46-.32-.15-.11-.3-.2-.49-.25-.03 0-.45.45-.58.59-.21.23-.48.43-.72.62-.12.09-.2.16-.31.26q-.16.15-.23.19t-.24.17c-.24.19-.49.36-.76.54-1.05.69-3.08 1.97-4.47 2-.32 0 1.59-1.03 1.73-1.11.3-.16 1.25-.74 1.88-1.12.7-.43 3.08-1.99 3.15-2.37m-49.69 4.45c-.29.15-.6.17-.93.03l-.23-.15c-.11-.1-.22-.2-.47.05l-.09.13c-.09.11-.2.2-.32.29-.29.2-.67.29-.96.07-.4-.3-.37-2.11-.1-2.53.16-.25.16.65.16.65 0 .58 0 .76.11.96.31.55 1.15-.23 1.26-.55v-.64c-.03-.31-.05-.56-.04-.6.03-.13.18-.75.32-.47.09.19.11.51.13.71.02.27.05.69.18.82.36.35 1.18.8.79-.14-.26-.61-.27-1.09-.07-1.71.07-.21.68 1.39.72 1.51.23.68-.02 1.18-.44 1.58m24.96.59s-.54-.43-.68-.55c-.18-.17-.43-.4-.64-.47-.05-.01-.3.43-.36.54-.14.25-.37.65-.44.68-.27.12-1.66-.95-1.59-1.32.05-.27.5-1 .71-1.13.11-.07.61.28.79.4.24.17.65.46.82.4l.77-1.12c0-.07.43.17.48.21q.15.12.3.25l.08.12c.35.31.7.62.65.95-.01.1-.68 1.21-.89 1.05m10.73.28c-.34-.64.42-3.47.87-3.49.03 0-.29.79-.3.8-.15.33-.21.6-.24.96-.04.59.16 1.75.86 1.66.19-.02.25-.25.3-.42.04-.16.16-.5.23-.49.2.02-.03.82-.07.93-.09.29-.22.65-.43.84-.56.5-1.11-.33-1.22-.8m13.76.92c-.21-.69.38-3.41.87-3.33.15.02-.28.84-.28.84-.23.36-.28.54-.3 1.12-.01.25.21 1.09.42 1.1.27.02.37.02.52-.18q.07-.09.12-.24c.02-.06.1-.28.2-.24.08.04-.07.58-.1.68-.04.14-.28.65-.37.74-.43.43-.8-.1-1.08-.5m-67.91 1.65c-.07-.28.47-1.12.64-1.3.18-.18 1.28.55 1.5.7.34.22.54-.14.71-.42.15-.26.32-.57.54-.6.26-.04 1.48 1.07 1.62 1.3.2.36-.55 1.19-.87 1.26-.1.02-.57-.35-.72-.47-.17-.13-.65-.5-.72-.5-.02 0-.41.46-.49.56 0 0-.17.25-.17.25-.08.13-.19.33-.24.36-.21.12-1.78-1.09-1.8-1.14m10.65.76c-.12-.37.71-1.48 1.14-1.15.36.26 1.12.83 1.16 1.03.09.5-.68 1.32-1.11 1.17-.17-.06-1.19-.88-1.19-1.04m14.67 1.44s-.09-.17-.14-.28l-.08-.24c-.1-.35-.19-.84-.16-1.2.13-1.7.58-3.19 1.19-4.58.11-.24.47-.39.28.16l-.02.2s-.1.4-.1.4c-.25.7-.56 1.6-.62 2.13-.09.81-.04 1.21.08 1.89.07.37.33.67.61.84.31.19.46-.24.52-.44.06-.19.19-.56.22-.6.21-.28.18.36.18.36-.02.16-.07.38-.12.56-.08.31-.25.7-.39 1.04-.29.67-1.26.35-1.44-.23m-29.99.87c-.24-.39-.3-.99-.35-1.53-.07-.77.96-5.18 1.52-5.65.27-.23-.22 1.28-.31 1.56-.21.64-.41 1.29-.52 2.05-.09.6-.16 2.7.54 2.87.39.1.52-.09.65-.42.07-.17.27-.74.38-.7.25.09-.39 1.92-.5 2.08-.45.67-1.13.38-1.41-.26m62.51 1.02c.24-.39-1.03-.91-1.46-.96-.39-.04-1.01.39-.96.77.07.51 2.09.26 2.42.19m-13.89.38c.38-.42-1.93-1.78-2.26-1.68-.16.05-1.06 1.61-1.12 1.9-.22.97.7 1.2 1.55.9.67-.24 1.34-.67 1.83-1.12m-4.03 1.3c.05-.65.16-1.44.36-2.01.06-.18.2-.46.3-.68.13-.28.38-.79.38-.82s-.42-.39-.57-.51c-.2-.17-.42-.37-.61-.56-.2-.19-.39-.42-.61-.69q-.12-.18-.18-.22c-.11-.08-.4-.32-.4-.32-.14-.57-.05-1.16.09-1.7.04-.15.3.12.3.12q.09.09.27.17l.2.08.32.14.16.06.2.08c.14.06 1.16.5 1.07.6q-.14.16-.22.18c-.06.01-.44.1-.45.1-.17.25 1.22 1.09 1.49 1.04 0 0 .24-.25.27-.3.04-.05.12-.17.17-.25l.19-.23c.1-.12.2-.23.29-.35.11-.14.23-.28.33-.42l.08-.14.16-.2c.09-.11.36-.44.36-.44.12-.13.22-.26.32-.4.09-.13.24-.34.37-.34.36-.02-.68 2.09-.74 2.16l-.18.21c-.1.13-.32.4-.32.4-.16.22-.46.65-.49.82 0 0 .64.48.82.61.14.11.28.23.4.36l.17.21q.16.22.17.23c.25.25.35.79.33 1.23-.03.65-.15 1.3-.42 1.69-.31.45-.88.8-1.41 1.12-.27.17-.57.33-.89.46-.13.05-.3.09-.44.12-.18.04-.26.05-.4.04-.08 0-.17-.01-.17 0-.08.19-.76-.44-.79-.49-.19-.28-.34-.81-.3-1.18m-5.99-16.21c-.12-.2.07-.76.16-1 .06-.16.33-.91.48-.82.35.22 1.74 4.58 1.59 4.76-.08.1-.36-.21-.4-.27-.16-.2-.42-.5-.47-.51-.16-.02.23 3.23.26 3.53q.03.29.08.76c.03.28.04.37.08.68l.04.32.04.44.04.28.16 1.28c.32 2.36.81 6.18.73 7.68-.03.69-.1 1.5-.29 2.23-.08.3-.32 1.28-.62 1.12-.04-.03 0-.23.01-.31q.04-.2.04-.38v-.78q0-.31 0-.32-.04-.41-.04-.46 0-.28-.04-.5-.02-.12-.04-.54c-.02-.56-.03-.75-.08-1.1-.06-.42-.09-.97-.12-1.39l-.1-.7-.02-.28-.04-.52-.32-2.97-.32-2.81-.04-.4v-.14l-.04-.34v-.14l-.04-.14-.04-.24c-.04-.29-.11-.86-.12-.94-.06-.61-.2-2.39-.2-2.39 0-.9-.12-1.84-.32-2.69m-2.53 18.82c-.47.33-1.04.73-1.48.83-.57.13-1.15.23-1.61 0s-.89-.44-1.14-.69c-.15-.15-.3-.41-.39-.61-.08-.18-.3-.69-.32-.69-.04 0-.18.23-.24.33-.1.16-.44.61-.52.7l-.09.13-.18.18-.23.16c-.37.38-1.09.72-1.72.81s-1.06.13-1.73 0c-.35-.07-.66-.19-.93-.34-.13-.07-.26-.16-.38-.24l-.13-.09c-.15-.12-.18-.15-.2-.16-.18-.08-.48-.53-.62-.75-.09-.15-.62-1-.67-.98-.04.01-.09.2-.11.26-.04.12-.11.27-.16.4-.14.32-.29.49-.51.71-.39.39-.94.72-1.56.87-.63.16-1.16.18-1.74 0-.44-.14-.89-.41-1.1-.78-.11-.19-.33-.59-.36-.65 0-.02-.07-.3-.1-.44-.04-.18-.11-.5-.15-.54-.05-.05-.32.34-.35.4-.14.21-.32.47-.42.6-.26.32-.52.63-.85.88-.41.33-.89.58-1.48.73-.56.14-1.27.13-1.9 0-.42-.09-1.57-.77-1.78-1.08-.3-.45-.6-.9-.85-1.38 0 0-.29-.72-.4-1-.12-.3-.28-.71-.46-.84-.7-.49-2.46 1.14-2.8 1.46-.58.55-.95 1.39-1.29 2.17-.39.9-1.02 2.33-1.24 2.52-.15.13-.96.73-1.22.57l-.2-.04-.16-.06c-.17-.07-.27-.12-.42-.2s-.46-.3-.55-.43c-.41-.59-.68-1.14-.98-1.89-.11-.28-.17-.67-.2-.96-.04-.35-.13-.97-.2-1.4-.09-.53-.06-1.12 0-1.85.01-.13.13-1.2.38-.88 0 0 .02.7.02.76l-.04.44.04.22c.05.84.1 1.77.24 2.27.19.66.5 1.37.96 1.78.31.27.66.53 1.16.61.43.06.71-.16.94-.36.35-.29.86-1.56 1.14-2.27.17-.44.37-.92.58-1.32.08-.15.21-.36.32-.54q.08-.13.16-.24l.09-.13c.15-.18.2-.23.2-.24.29-.53 2.31-1.93 3.02-1.77.63.14.92.88 1.17 1.52.05.12.57 1.07.95 1.78.21.39 1.15.85 1.63 1.01s1.38.24 1.86.08c.32-.11.67-.22.81-.3.12-.07.26-.16.38-.24l.13-.09c.15-.12.18-.15.2-.16.29-.13.77-.81.98-1.14.3-.46.64-.8.99-1.17.15-.15.15.43.15.43l-.04.24q-.05.29-.04.38c.04.37.16.74.3 1.04.68 1.44 4.06 1.08 4.42-.34.12-.46-.25-2.56-.44-3.61-.07-.37-.16-.78-.28-1.12-.07-.19-.3-1.14-.2-1.24l.04-.16.04-.16c.02-.06.07-.21.1-.28.07-.19.26-.7.33-.69.25.02.86 2.67.94 3.14.22 1.31.51 3.02.91 3.87.39.83 1.39 1.62 2.46 1.77 1.13.15 2.02-.29 3.13-.85.21-.1.78-.95 1.06-1.38.12-.18.4-.58.6-.57.1 0 .13.65.14.81 0 .16.15.47.22.62.16.33.67.81 1.05.92.48.14 1.01.19 1.53.12.3-.04 1.2-.46 1.27-.7.13-.46-.32-3.72-.49-4.9-.09-.65-.2-1.51-.28-2.25-.08-.69-.21-1.78-.24-2.03-.19-1.54-.38-3.06-.57-4.64l-.04-.36-.04-.4-.06-.48-.02-.52-.04-.28-.04-.4c-.03-.27-.08-.58-.16-.84-.07-.23-.12-.43-.04-.68.14-.47.3-.88.49-1.27.12-.25.3.35.32.47.02.17.06.25.15.46.02.05.04.08.11.27.04.1.11.28.16.38l.2.5c.28.55.97 2.15.9 2.72-.03.28-.47-.22-.47-.22-.07-.08-.32-.39-.35-.39-.24-.03.28 4.12.34 4.6.2 1.57.58 4.46.65 4.82.07.38.13.89.16 1.24v.16l.04.24v.34l.04.18c.05.32.06.4-.09.66.24-.03.23.85.17 1.27q-.01.09 0 .24s0 .34 0 .34c-.03.35-.08.85-.16 1.18-.07.29-.31.76-.51 1.16m36.98-.03-.04.2c0 .09.07.15.17.25.21.2.48.21.74.11.07-.03.12-.08.14-.16l.04-.2q.04-.24.08-.32c.06-.15.26-.66.4-.55.47.4-.75 2.05-.98 2.15-.23.11-.41.07-.64-.02-.34-.13-.49-.18-.6-.13l-.2.16c-.13.12-.14.13-.19.15-.17.08-.55.27-.75.22-.29-.07-.42-.11-.54-.18-.19-.11-.38-.23-.56-.26-.66-.09-2.35 1.04-2.86 1.41-.4.29-.82.52-1.32.73 0 0-.66.17-.89.22-.25.06-.53-.07-.2-.2.9-.36 1.7-.9 2.5-1.42.79-.52 2.19-1.43 2.54-1.51.37-.08.65-.14.97.06.28.17.45.28.85.26.28-.01.62-.3.78-.45.09-.09.16-.19.23-.31.08-.12.25-.39.34-.22m-19.96 3.56c-.29-.49-.62-1.06-.73-1.39-.14-.42-.15-1-.12-1.4q.03-.43.04-.52c.04-.29.11-.72.08-.94-.02-.14-.61.28-.64.29 0 0-.49.3-.65.4-.48.3-1.05.64-1.47.88-1.04.59-2.16 1.16-3.21 1.65-.71.33-6.65 1.6-7.03 1.4-.27-.14 1.86-.9 1.97-.93.15-.05.34-.12.44-.16l.24-.08.24-.08.81-.28.2-.06.24-.1c1.49-.57 2.93-1.34 4.28-2.11 1.37-.78 3.05-1.74 4.03-2.37.6-.39 3.27-2.24 3.13-2.77-.04-.14-.39-.89-.67-1.46l-.4-.72-.08-.18-.14-.24-.06-.16-.14-.24c-.52-1.03-1.18-2.51-.56-3.74.06-.12.51.44.51.44.16.2.36.44.54.59.26.21 1.04.92 1.08 1.23.01.14-.22.08-.3.06-.16-.04-.52-.12-.58-.03-.1.15.58 1.33.7 1.54.27.47.69 1.22.74 1.65.18 1.46-.09 2.69-.94 3.58-.24.25-.5.51-.76.73-.24.19-.6.56-.92.87-.42.42-.14 1.94.06 2.45.2.5 1.05 1.45 1.54 1.48l.2.08c.17.06.24.08.44.1.16.02.55.03.99.04.26 0 1.49-.4 2.4-.7 1.17-.39 4.85-3.43 5.31-4.45 0 0-.1-.31-.18-.56-.03-.08-.53.08-.6.1-.2.06-.5.1-.69.12-.38.04-1.15.12-1.61.12-.28 0-.95-.36-1.36-.59-.58-.32-.35-2.11-.03-2.64.74-1.23 1.66-1.96 3.24-.91.4.26.7.65.99 1.03.14.18.27.39.39.59.15.23.64-.03.85-.14.5-.26.96-.54 1.4-.87.42-.31 1.07-.79 1.34-.83.08-.01.17.17.18.25v.48l-.04.16v.4c.02.32.28.64.46.81.51.51 1.24.8 2.15.66.57-.09 1.09-.35 1.43-.67.4-.39.67-.81.95-1.31.07-.12.84-1.45.95-.98.02.09-.18.5-.28.7-.12.23-.26.52-.14.76.17.34.86.74 1.25.86.25.08 1.62.26 1.55-.18-.04-.25-.15-.49-.26-.66-.12-.18-.32-.47-.22-.66 0 0 .12-.47.16-.64.05-.21.11-.41.21-.58.16-.27.56.77.58.82.18.47.26 1.07.26 1.57 0 .53-.26 1.22-.54 1.61-.48.66-1.49.75-2.32.36-.3-.14-.55-.28-.78-.49-.12-.1-.2-.21-.3-.34-.1-.14-.28-.38-.41-.34l-.15.23c-.08.13-.21.34-.24.38-.17.23-.36.4-.58.57-.38.31-.84.47-1.4.61-.41.1-1.12.06-1.55-.14-.41-.19-.82-.45-1.03-.84-.16-.31-.33-.67-.38-1.06-.06-.52-.39-.26-.7-.01-.26.2-.52.41-.8.59-.24.16-.91.64-.95.72l-.06.32v.14l-.04.16v.18l-.04.32c-.04.3-.2.75-.34 1.12-.47 1.28-3.32 3.34-4.96 4.53-.35.25-.82.45-1.23.6-.14.05-.37.12-.58.18l-.28.08c-.15.04-.22.06-.28.08-1.42.56-2.93-.31-3.76-1.08m-22.88-.03s.45-.85.65-1.22c.14-.27 1.36.75 1.5.86.43.36-.1 1.45-.52 1.62-.22.09-1.53-1.09-1.63-1.26m-13.78-.24c.06-.54.26-.88.49-1.24.28-.42.9-.2.94.31.05.55-.16.96-.38 1.4-.2.4-.48.71-.79.99-.62.57-.41.01-.14-.37.14-.2.31-.38.48-.55.12-.13.34-.36.39-.51.09-.26-.05-.56-.38-.5-.07.01-.24.11-.27.15-.18.18-.32.32-.33.31m5.39.96c-.07-.44.6-1.44.99-1.36 0 0 .44.33.54.42.2.17.45.38.67.45.05.01.49-.56.58-.68.15-.2.36-.46.62-.3.46.28 1 .77 1.3 1.22.25.38-.55 1.1-.81 1.28-.17.12-.72-.36-.82-.45-.16-.15-.54-.51-.75-.46-.02 0-.16.25-.17.27q-.08.14-.16.26c-.11.17-.25.37-.36.44-.35.21-1.36-.81-1.63-1.09m-16.82.48c.48-.35 1.98-1.06 2.88-1.48.17-.08.45-.24.67-.36.24-.14.5-.27.75-.4.44-.22 1.4-.68 1.49-.7.25-.07-.03.7-.07.8 0 .02-.63.35-.74.4-.16.07-.31.14-.44.22l-.12.06-.24.12c-.58.29-1.12.55-1.71.82-.55.26-1.1.52-1.63.8l-.16.08-.28.16-.18.08-.24.12c-.2.1-.24.13-.2-.16.02-.18.08-.56.24-.56" fill="#1d1d1b" fill-rule="evenodd"/></svg>