<svg viewBox="0 0 81.28 31.04" xmlns="http://www.w3.org/2000/svg"><path d="m25.55 2.14c0-.18.46-.48.64-.59.24-.15.64-.4.64-.48 0-.2-1.14-.2-1.35-.14-.15.04-.27.11-.39.18-.15.09-.31.19-.42.2-.16.02.28-.8.45-.88.46-.24.76-.41 1.05-.42.52-.03 1.36.14 1.81.39.18.1-.13.68-.25.77-.36.28-1.68 1.31-2.18.98m25.02 3.27c-.12-.33-.8.08-.78.39.02.2.58.77.79.74.23-.03.03-.94 0-1.13m26.95.35c-.11-.2-.27-.34-.56-.3-.21.02-.44.31-.51.5-.08.26.72.74.93.84.6.3.26-.74.14-1.04m-68.16.64c-.12-.33.1-1.23.26-1.49.59-.92 9.29-4.52 9.53-4.47.12.03-.15.84-.38.9-1.1.28-3.56 1.41-5.02 2.09l-2.32 1.04c-.42.19-1.82.84-1.76 1.24.01.07.3.31.5.49.21.18.39.42.29.69-.22.59-1.04-.17-1.11-.5m10.7-.11c-.07-.04-.19-.11-.23-.11q-.3.02-.36 0c-.2-.06-.39-.18-.6-.31-.33-.2-.29-1.53.07-1.54.47-.01 1.28.77 1.53 1.08.09.11.2.25.24.32.08.13.16.26.25.37.11.14.56.75.57.74.07-.02.05-.47.05-.47q-.02-.25 0-.78c.01-.33.03-.72.12-1.04.13-.46.3-.84.63-1.1.22-.18.58.1.7.23.22.25.61 1.27.11 1.37-.03 0-.36-.33-.54-.52-.41-.41-.62.06-.65.43v.44c.03.43.04.6.04.98 0 .53-.07 1.1-.22 1.57-.07.22-.23.69-.44.3l-.06-.14-.06-.16c-.07-.13-.17-.34-.24-.44t-.12-.22c-.07-.12-.16-.27-.24-.38s-.25-.31-.53-.63m9.5 2.31c1.19-.57 2.41-1.17 3.58-1.79.85-.45 3.64-1.77 3.73-1.79.24-.03-.12.72-.17.79-.01.02-.34.18-.42.21-.2.08-.37.17-.57.26-.08.04-.24.11-.36.16l-.26.12-.14.08-.14.08-.18.08q-.22.09-.32.14t-.23.15l-.46.23-.28.14c-.22.1-.44.2-.62.3-.32.17-.66.33-.99.48-.3.14-.77.38-1.15.56-.35.17-.72.37-1.05.56-.44.25-.14-.64.03-.78m36.42-2.83c.5-.2 1.62.73 1.85 1.04 0 0 .29.35.4.5l.24.32.24.36c.11.17.31.46.36.46.02 0 .08-1.25.1-1.48.02-.39.06-1.06.17-1.36.12-.33.9-1.79 1.45-1.29.3.27.5.51.61.96.04.18-.17.64-.3.66-.03 0-.33-.33-.39-.39-.13-.12-.35-.3-.5-.29-.31.02-.47.25-.55.5-.04.13-.04.52-.04.88 0 .43-.02.82-.04 1.18-.02.34-.04.55-.08.86l-.04.24-.04.24c-.03.22-.14 1.19-.37 1.06-.04-.03-.1-.19-.11-.26q-.08-.27-.14-.4c-.12-.23-.26-.47-.41-.67-.22-.29-.73-.96-.75-.98-.12-.13-.34-.36-.45-.37-.37-.03-.57-.06-.88-.27-.53-.36-.66-.82-.32-1.51m-11.36 3.6c.64-.39 1.55-.95 1.96-1.2l.12-.08s0 0 .26-.16c.18-.11.39-.24.55-.32.41-.22.78-.44 1.11-.64.96-.59 4.05-2.32 4.17-2.35.22-.05-.04.73-.11.82-.33.36-1.43.96-2 1.24-.73.37-1.46.8-2.14 1.24-.84.56-3.87 2.37-4.11 2.42-.11.03-.09-.24-.08-.28.03-.23.08-.66.28-.7m-4.6-1.97c-.23-.19-.6-.66-.68-1-.08-.36.22-1.31.38-1.49.26-.28.49-.54.85-.62.14-.03.36.28.46.42.15.21.11.69.08.96-.05.57-.11 1.17-.01 1.28l.13.09.13.09s.18.16.2.17c.17.15.33.3.4.51s-.02.58-.11.72c-.01.02-.48-.29-.58-.36-.26-.17-.61-.4-.82-.37 0 0-.45.5-.5.56-.17.21-.36.4-.55.6-.34.34-.73.62-1.12.91-.26.19-2.3 1.27-2.58 1.22-.35-.07 2.05-1.66 2.17-1.74.65-.43 1.98-1.34 2.13-1.93m-44.94 1.4c.21-.42-1.11-2.05-1.52-2.56-.05-.06-.44-.38-.52-.39l-.18.02-.16.06c-.06 0-.34-.11-.4-.14-.45-.22-.82-1.47-.2-1.47.54 0 1.98 1.24 2.39 1.73l.09.13c.12.14.6.71.65.68.04-.03-.01-.77-.03-1.01-.03-.4-.06-.87.04-1.31.08-.38.2-.88.5-1.04.59-.3 1.61 1.21 1.05 1.51-.17.09-.45-.19-.55-.29-.12-.12-.48-.47-.65-.25-.13.16-.03.86.01 1.08.04.19.06.34.04.5-.02.18-.04.48-.04.7.01 1.08-.39 2.53-.79 3.51-.04.11-.76 1.03-.87 1.11-.19.12-.4.31-.55.47-.34.35-.01-.41.09-.55.59-.83 1.42-1.99 1.59-2.49m72-.96c-.04-.09-.34-.33-.49-.45-.23-.18-.43-.35-.52-.63-.24-.77.42-1.82.85-2.17.16-.13.52-.04.76.11.29.18.39 1.8.41 2.24.02.29.18.45.43.7.14.14.42 1.12.03 1.03-.03 0-.78-.49-.81-.52-.04-.05-1.17 1.01-1.27 1.11q-.13.1-.23.19c-.54.49-1.12.92-1.75 1.33-.69.46-3.41 2.05-4.11 1.91-.18-.04.72-.59.72-.59.29-.18.6-.36.91-.52.45-.25 1.28-.8 1.9-1.2.86-.57 3.04-2.03 3.16-2.53m-28.31 4.87c-.2-.3.48-1.43.78-1.47.05 0 .64.4.72.46.16.13.56.43.77.35 0 0 .28-.46.33-.55.13-.23.25-.4.43-.57.16-.16 1.37.91 1.42 1.04.2.48-.23 1.33-.6 1.53-.09.05-.59-.35-.74-.48-.21-.17-.69-.55-.79-.51-.01 0-.33.53-.36.6-.15.3-.34.68-.6.6 0 0-.54-.36-.71-.48l-.32-.24-.32-.27zm-30.17.45c.2-.06 2.45-1.17 3.62-1.75.72-.36 3.67-1.6 3.79-1.58.23.05-.24.8-.34.86-.12.07-1.23.54-1.81.78-.31.13-.64.27-.89.38 0 0-.85.37-1.17.5-.11.05-1.23.57-1.96.9-.33.15-.66.31-.97.48-.59.34-.63-.2-.27-.58m13.31-1.89c.26-.17.2.74.2.79-.02.27-.05.66.05.89.11.24.32.32.61.36.32.05.55-.25.68-.44.18-.26.15-.59.1-.98-.05-.46 0-.76.1-1.16.09-.34.3.64.3.64.08.39.18.81.29 1.14.05.15.66.37.86.37.3 0 0-.6-.08-.76-.11-.21-.24-.53-.26-.78-.02-.2.07-1.11.27-1.02.03.01.85 2.08.81 2.22-.1.41-.2.8-.43 1.06-.45.49-1.39.01-1.61-.31-.05-.07-.37.42-.4.46-.13.19-.29.34-.52.42-.61.2-1-.17-1.15-.62-.1-.28-.01-1.95.17-2.26m32.02-1.28c.06.04-.18.71-.24.9-.15.43-.21.87-.2 1.44 0 .32.35.94.56 1.04.24.11.46.07.55-.16.07-.18.28-.73.29-.73.21.02-.02.82-.07.97-.1.34-.22.64-.44.86-.52.52-1.06-.48-1.2-.86-.25-.66.26-3.32.75-3.46m-52.05 3.37c-.18-.58-.03-1.17.12-1.77.03-.12.38-1.53.36-1 0 .09-.06.54-.08.64l-.04.16-.04.16c-.02.17-.1.88 0 1 .09.11.58.9.59.96.02.15.42-.32.42-.32.03-.05.06-.23.08-.32.04-.19.06-.3.19-.23.1.06-.12.8-.15.91-.07.21-.2.59-.3.66-.62.46-1.03-.22-1.15-.86m65.89-2.61c0 .35-.15.61-.28.84-.19.33-.26.73-.26 1.06 0 .4.17.79.37 1.16.13.23.51-.06.59-.15t.09-.19c.06-.18.11-.32.22-.26.2.1-.37 1.27-.45 1.38-.13.17-.34.27-.6.21-.62-.15-.62-1.54-.51-2.17.06-.34.63-1.91.83-1.89m-53.26 5c-.23-.45.11-2.95.52-3.1.06-.02-.09.65-.12.78-.03.14-.25 1.39-.04 1.49.05.14.07.2.14.32.05.09.23.24.38.38.14.12.34-.12.39-.21.04-.08.24-.43.26-.41.21.21-.36 1.57-.76 1.56-.39-.01-.66-.45-.77-.78m-19.38-.08c-.13-.27.39-1.11.53-1.28.16-.19.57.05.8.19.28.17.83.51 1.01.48.03 0 .21-.32.28-.44.09-.15.3-.49.48-.46.26.04 1.2.77 1.35.98.2.27-.56 1.32-.73 1.38-.08.03-.55-.29-.64-.35-.22-.16-.44-.32-.67-.45-.06-.03-.62.63-.81.86-.15.18-1.55-.78-1.61-.92m27.91 1.99c-.17-.29.65-1.72 1.16-1.26.38.35 1.16 1.08 1.24 1.32.13.4-.76 1.48-1.1 1.24-.11-.08-1.3-1.23-1.3-1.3m-11.92.44c.09-.37.48-1.07.79-1.24.09-.05.93.65 1.14.82.58.48.46.64.06 1.2-.36.52-.48.67-.96.29-.29-.22-.99-.8-1.03-1.06m-20.64 1c-.73-1.28-.45-2.81-.17-4.35.07-.4 1.02-3.46 1.07-3.49.62-.41-.15 2.03-.22 2.21-.32.73-.65 2.09-.57 3.01.05.58.14 1.31.57 1.66.36.29.64-.04.78-.3.07-.13.36-.66.42-.56.28.42-.34 1.59-.51 1.85-.13.2-.36.44-.64.42-.19-.01-.39-.13-.58-.25l-.16-.2zm66.63.96c.16-.42-1.26-1.07-1.67-.88l-.16.04c-.1.04-.19.07-.27.13l-.19.16-.16.2c-.38.2.73.5.82.51.48.07 1.13.06 1.63-.17m-13.83.55c-.13-.37-1.83-1.62-2.28-1.51-.25.06-1.04 1.55-1.15 1.91-.11.38.11.71.28.9.18.2.57.17.83.13.52-.08 2.34-1.07 2.32-1.42m-4.03 1.85c.09-.91.18-2.01.38-2.53.1-.26.2-.53.32-.74.15-.27.34-.59.1-.78-.46-.36-2.26-1.95-2.3-2.17-.07-.37-.12-1.14.11-1.6 0 0 2.33.96 2.51 1.13.17.17-.1.23-.18.25-.22.05-.45.1-.48.2-.04.1.92.75 1.05.82.31.19.44.2.73-.18 0 0 .42-.55.42-.55.14-.17.27-.34.4-.52.11-.15.32-.41.48-.62l.31-.43.09-.13c.15-.2.41-.55.53-.59.26-.07-.36 1.72-.39 1.78-.11.22-.78 1.14-1.13 1.6-.2.26.31.6.57.77.3.2.64.47.81.79.43.78.71 2.22.03 3.04-.67.81-2.03 1.77-3.31 1.77-.63 0-.99-.73-1.07-1.31m-6.43-19.09c.25-.2 1.17 1.94 1.3 2.27.04.1.11.28.16.38q.06.12.12.26l.13.27c.05.07.11.2.15.31.1.23.19.49.26.74.02.08.2.86.06.8-.25-.1-.35-.22-.54-.46-.21-.26-.47-.58-.59-.59 0 0 .05 1.17.06 1.24.04.38.2 1.77.28 2.49.06.55.15 1.28.24 1.89.1.71.2 1.41.28 2.13.06.54.15 1.1.24 1.61.12.63.21 1.28.28 1.93.2 1.68.25 2.51.16 4.33-.02.38-.29 2.43-.72 2.24v-.53q0-.42-.04-1.17v-.22l-.04-.64c-.01-.23-.04-.74-.04-.8-.07-.9-.18-1.85-.32-2.85-.31-2.17-.56-3.93-.81-6.14-.06-.54-.13-1.04-.2-1.57-.08-.53-.12-.91-.16-1.45l-.04-.4-.04-.32-.04-.4-.04-.36-.04-.24c-.03-.33-.06-.64-.08-.96-.04-.52-.08-.94-.16-1.37-.02-.1-.06-.23-.16-.52l-.06-.16c-.06-.38.05-.78.18-1.16l.04-.16.06-.16c.04-.09.1-.24.11-.27m-5.33 22.9c.02-.52.52-2.62.92-2.5.03 0-.2.55-.26.68-.09.21-.21.58-.22.78-.03.71.11 1.55.71 1.74.18.06.32-.12.4-.22q.05-.06.12-.28c.04-.11.08-.25.17-.21.33.14-.48 1.58-.86 1.64-.66.1-.93-1.03-.99-1.63m37.01-1.44c.34-.11.63-.2 1.19.12.15.1.32.16.52.18.28.04.73-.28.88-.43.09-.09.16-.2.23-.31.1-.17.26-.43.39-.3l-.05.21c0 .11.09.19.18.24.25.14.49.2.76.07.03-.01.14-.39.23-.71.06-.21.19-.45.32-.55.26-.21-.09 1.13-.11 1.19-.08.2-.16.4-.26.58-.03.05-.14.2-.18.23l-.21.16c-.08.18-.54.1-.7.05-.29-.1-.53-.19-.62-.14l-.23.19-.25.18c-.17.11-.43.18-.63.2s-.41-.05-.6-.18c-.2-.12-.56-.34-.77-.22l-.2.04-.2.06-.16.08-.16.08c-.21.1-.44.25-.67.4l-1.17.8c-.3.2-.82.45-1.27.68-.27.13-.65.23-.97.3-.37.09-.43-.11-.08-.24.45-.17.89-.45 1.33-.74l.84-.57q.13-.1.21-.15c.27-.16.71-.48 1.05-.72.43-.31.83-.6 1.37-.8m-17.37 1.97c-.09-.35-.22-.86-.2-1.24.02-.32.09-1.75.03-1.75-.07 0-1.04.64-1.32.83l-.13.09c-.11.08-.32.22-.59.39l-.24.16-.12.08c-.94.57-1.92 1.08-2.92 1.59-.95.47-2.1.78-3.31 1.04 0 0-.4.08-.4.08l-.69.12-.2.04-.16.04-.28.04-.4.08c-.5.12-1.87.46-2.06.32-.06-.05.54-.35.6-.38l.16-.08.2-.08.32-.12.26-.08.38-.18.16-.06.2-.08q.12-.05.28-.1c.12-.04.32-.12.48-.18 1.13-.43 2.13-.88 3.14-1.41 1.82-.97 3.67-1.97 5.35-3.08.38-.25.77-.53 1.12-.82.1-.08.75-.56 1.09-.8.2-.14.37-.28.54-.46.16-.17.35-.35.53-.5.48-.42.63-.55.41-1.24-.15-.48-.49-1-.76-1.41-.26-.38-.51-.86-.71-1.28-.1-.22-.2-.48-.28-.72-.09-.26-.19-.51-.28-.76-.14-.37-.29-.76-.28-.8.02-.25.07-.55.12-.76.05-.2.12-.48.13-.54.02-.13 1.28 1.13 1.42 1.27q.07.07.2.2l.18.18s.02.03.18.18c.04.04.23.33.19.4-.05.08-.2.05-.34.02-.2-.04-.29-.06-.5-.03-.1 0 .42 1.04.42 1.04.08.17.25.5.37.64l.07.13.08.14.08.14c.52.97.73 2.48.32 3.63-.08.25-.3.55-.52.86l-.09.13-.13.08-.07.12-.12.08c-.06.06-.13.13-.17.11-.1-.07-.13-.09-.07.02l-.31.41q-.13.12-.24.2c-.1.07-.26.19-.31.23-.45.36-.47 1.21-.49 1.89-.01.55.32 1.13.55 1.48.97 1.45 2.95 1.38 4.63.73 1.26-.49 2.5-1.51 3.56-2.39.47-.39.95-.82 1.36-1.28.15-.17 1.37-1.55.73-1.77 0 0-.37.08-.73.16-.43.09-.87.15-1.33.2-.75.08-1.45 0-1.99-.37-.68-.45-.6-1.57-.41-2.42.16-.73.94-1.58 1.63-1.78.42-.13.9.02 1.29.18.46.19.84.55 1.12.85.03.03.3.38.42.54q.14.19.15.21c.07.12.19.31.24.34.23.13 1.65-.76 1.81-.91.33-.31 1.23-1.05 1.62-1.1.28-.03.23.56.22.63-.03.3-.07.64.07.92.22.44.54.73.97.96.37.2.81.26 1.29.22 1.38-.1 2.08-1.01 2.58-2.01.15-.29.58-1.09.75-1.14.32-.1.15.33.08.52l-.06.14-.14.26c-.07.14-.15.32-.12.48.13.68 2.25 1.55 2.84.88.14-.16-.11-.59-.19-.71-.18-.27-.27-.4-.26-.8 0-.2.27-1.14.4-1.16.14-.02.57 1.04.69 1.33.13.33.15 1.68-.08 2.09-.05.16-.06.18-.14.32 0 0-.3.4-.45.59-.07.09-.35.19-.48.23l-.2.04-.55.05-.21-.05-.16-.04c-.19-.05-.21-.05-.28-.08-.22-.08-.44-.19-.62-.31-.34-.25-.61-.5-.82-.88-.09-.17-.33.24-.33.25-.1.17-.24.42-.33.51-.24.26-.51.5-.82.69-.46.27-1 .42-1.67.46-.49.03-1.05-.15-1.33-.38-.61-.48-.8-1.09-1.1-2.02-.04-.11-.6.3-.65.35-.16.16-.34.31-.52.44-.19.14-.54.39-.56.41q-.07.06-.25.17c-.12.08-.29.18-.34.28-.05.09-.11.78-.11.78.02.02-.03.43-.04.47-.06.53-.2.85-.39 1.24-.5 1.03-3.79 4.09-4.89 4.5l-.14.08-.12.08-.14.08c-.19.11-.42.23-.62.32-.17.08-.33.13-.52.18-.23.06-.48.13-.69.2-.6.2-1.27.13-2.1.04-.32-.04-1.04-.51-1.47-.8-.19-.13-.6-.89-.93-1.51m-52.89 2.66.16-.06.28-.16.28-.16c.17-.09.31-.16.48-.24.21-.09.44-.21.67-.32.13-.07.71-.34.71-.34.25-.08.33-.11.33-.11.13-.09.23-.15.39-.23l.24-.14c.07-.03.26-.12.4-.18.16-.07.44-.21.67-.32.26-.13.71-.35.8-.33.16.04-.12.69-.19.79-.03.04-.57.34-.63.37-.21.09-.51.22-.67.3 0 0-.6.27-.8.36l-.18.08-.36.16-.2.08-.16.08-.18.08c-.54.24-1.18.52-1.59.76t-.47.25l-.13.07c-.16.1-.24.14-.22-.12.01-.17.07-.5.38-.66m33.61-24.95c.11-.45.3-1.2.48-1.34.06-.04 1.05 2.14 1.07 2.18.08.17.26.6.26.6.03.09.18.44.26.62.07.15.14.33.18.5.03.13.24.96.05.94-.07 0-.26-.26-.4-.45-.12-.15-.31-.41-.48-.41-.06 0 .34 3 .34 3.01.08.57.15 1.12.2 1.65q.03.27.08.48c.05.19.09.38.12.56.28 1.92.51 3.53.61 5.4.07 1.32-.35 2.47-.96 3.33-.45.62-2.42 1.36-3.46 1.73-1.27.45-2.56.91-3.67 1.51-1.01.53-2.06 1.41-2.79 2.24-.61.69-2.32 2.47-2.47 2.54-.06.03-.21.12-.26.16-.1.07-.26.19-.32.22-.28.15-.57.31-.89.36-.44.07-1.02.02-1.43-.22-.4-.24-.68-.49-.95-.86-.33-.46-.51-1.18-.59-1.85-.05-.42.15-1.15.28-1.62.02-.06.07-.21.1-.28s.08-.22.1-.28c.05-.19.13-.46.11-.54 0-.02-.67.17-.74.19-.24.07-.46.14-.68.22-.23.09-.85.32-.85.32l-.16.08-.44.22-.15.07c-.55.22-1.23.71-1.76 1.15l-.13.09c-.09.08-.23.21-.34.3-.07.07-.41.38-.41.38l-.29.27c-.3.23-.83.79-1.18 1.21-.18.22-.85.82-1.32 1.23-.39.35-.96.5-1.55.58-.46.07-1.09-.21-1.43-.42-.35-.21-.74-.83-1.05-1.32-.18-.29-.25-1.02-.2-1.36.1-.72.31-1.34.54-1.93.11-.27.24-.54.36-.78.16-.29.43-.8.42-.95 0 0-.35-.19-.42-.23-.1-.05-.25-.16-.38-.26-.13-.09-.26-.19-.31-.25-.07-.08-.31-.36-.38-.37-.07 0-.64-.88-.71-1.02-.23-.45-.64-1.24-.77-1.27-.36-.07-.79.13-1.07.26-.64.3-1.21.93-1.59 1.51-.35.52-.86 1.68-1.25 2.57-.19.43-.48 1.1-.56 1.3-.1.24-.21.44-.32.64-.16.28-.16.28-.16.28l-.09.15c-.09.12-.14.18-.14.18-.04.15-.56.37-.78.41-.4.07-.78-.16-1.06-.33-.74-.44-1.22-1.51-1.54-2.38-.25-.7-.42-2.04-.36-2.77.04-.47.12-1.02.2-1.48.03-.21.24-.97.42-.68.01.01-.04.63-.06.8-.03.25-.04.62-.04.88 0 .44.03 1.15.16 1.68.17.66.46 1.19.79 1.68.25.38 1.35 1.32 1.82.77.62-.73 1.09-1.54 1.43-2.57.32-.96.76-1.97 1.31-2.73.52-.71 1.74-2.03 2.86-2.03.58 0 .97.79 1.25 1.37.13.26.24.48.4.7.08.11.17.23.26.33.1.13.25.31.26.32.13.3 1.2.71 1.59.81.59.15 1.07.07 1.65-.04.85-.17 2.21-.81 2.36-1.61.03-.15-.16-1.67-.24-2.23-.03-.18-.03-.23-.08-.6-.04-.34-.05-.43-.08-.6l-.04-.24-.04-.24q-.04-.29-.08-.56c-.09-.62-.18-1.19-.28-1.81l-.08-.48-.04-.2-.04-.28q-.03-.19-.08-.48s-.12-.68-.12-.68l-.04-.24c-.06-.35-.11-.7-.16-1.05-.11-.84-.24-1.81-.32-2.41-.04-.31-.08-.62-.12-.92l-.08-.68c-.01-.14-.05-.48-.06-.5-.09-.27-.3-1.2-.22-1.38.08-.21.51-1.27.62-1.2.36.22 1.92 3.72 1.74 4.05-.12.22-.46-.2-.54-.29-.14-.17-.37-.46-.43-.48-.12-.04.21 2.45.26 2.82.04.3.31 1.81.48 2.73.35 1.9.74 4.06.81 5.86.04.92 0 1.67-.12 2.65-.08.61-.38 1.07-.68 1.48-.82 1.12-2.45 1.36-3.96 1.52-.66.07-1.62 3-1.62 3.83 0 .42.21.9.45 1.1.87.71 1.54.45 2.5.07.44-.18 1.82-1.6 2.29-2.14.18-.21.42-.49.54-.6.2-.19.49-.46.71-.67q.2-.17.44-.39l.21-.19q.19-.15.32-.23c.09-.06.16-.1.24-.17.79-.77 2.56-1.41 3.9-1.87 1.47-.51 2.87-1.02 4.18-1.67.34-.17 1.34-.84 1.48-1.18.24-.56-.24-3.18-.48-4.49-.3-1.66-.5-2.98-.73-4.54-.05-.37-.1-.71-.16-1.08-.06-.36-.13-.83-.16-1.14l-.04-.18-.04-.24-.04-.32-.04-.28-.04-.36s-.04-.24-.08-.44c-.04-.22-.09-.6-.12-.78-.02-.15-.12-.82-.12-.82-.02-.09-.08-.29-.1-.36-.07-.21-.18-.51-.18-.58 0-.28.32-1.15.47-1.54.1-.26 1.12 2.04 1.2 2.24.07.16.21.44.32.66.07.14.19.41.28.62.03.07.6 1.37.16 1.26-.08-.02-.24-.2-.38-.36-.12-.14-.35-.41-.47-.42-.08 0 .27 2.27.3 2.5.07.42.17 1.08.2 1.28l.04.24.04.2.04.16.04.32.04.24.04.24q.04.26.08.48l.04.24.04.16.04.2.24 1.45c.09.52.2 1.21.24 1.57.05.49.08.73.08.88v.18s.06.79.05.55c0-.14 0 .45 0 .45 0 .31-.02.8-.08 1.14-.05.31-.12.67-.2.96-.17.58-.32 1-.68 1.38-.51.54-1.12.93-1.78 1.31-.18.1-.37.2-.56.28-.23.11-.46.21-.68.32-.14.07-.35.16-.51.22-.21.09-.42.18-.48.28-.38.68-.76 1.64-.83 2.47-.05.62-.04 1.06.14 1.53.8 2.05 3.51-.4 4.18-1.02.31-.28 3.31-3.21 3.31-3.21.29-.58 3.36-1.87 4.21-2.14 1-.31 4.29-1.48 4.46-2.07.18-.66-.4-4.72-.81-7.55-.19-1.32-.36-2.58-.52-3.89-.08-.67-.32-2.61-.32-2.61-.02-.24-.11-.51-.2-.76-.07-.22-.12-.44-.04-.64" fill="#1d1d1b" fill-rule="evenodd"/></svg>