<svg width="28" height="25" viewBox="0 0 28 25" fill="none" xmlns="http://www.w3.org/2000/svg">
<g clip-path="url(#clip0_608_1796)">
<path fill-rule="evenodd" clip-rule="evenodd" d="M2 0.750977C1.66848 0.750977 1.35054 0.882673 1.11611 1.11709C0.881695 1.35151 0.75 1.66945 0.75 2.00098V22.389C0.75 22.7205 0.881696 23.0384 1.11611 23.2729C1.35053 23.5073 1.66848 23.639 2 23.639H4.686C5.01752 23.639 5.33546 23.5073 5.56988 23.2729C5.8043 23.0384 5.936 22.7205 5.936 22.389V2.00098C5.936 1.66945 5.8043 1.35151 5.56988 1.11709C5.33546 0.882673 5.01752 0.750977 4.686 0.750977H2ZM0.0554549 0.0564333C0.57118 -0.459292 1.27065 -0.749023 2 -0.749023H4.686C5.41534 -0.749023 6.11482 -0.459292 6.63054 0.0564333C7.14627 0.572159 7.436 1.27163 7.436 2.00098V22.389C7.436 23.1183 7.14627 23.8178 6.63054 24.3335C6.11482 24.8492 5.41534 25.139 4.686 25.139H2C1.27066 25.139 0.571181 24.8492 0.0554549 24.3335C-0.460272 23.8178 -0.75 23.1183 -0.75 22.389V2.00098C-0.75 1.27163 -0.460271 0.572159 0.0554549 0.0564333Z" fill="#8E7F72"/>
<path fill-rule="evenodd" clip-rule="evenodd" d="M2.017 20.9469C2.0301 20.6 2.17877 20.2722 2.43104 20.0338C2.68331 19.7954 3.01904 19.6656 3.36606 19.6721C3.71308 19.6787 4.04368 19.8211 4.28677 20.0688C4.52987 20.3166 4.66605 20.6498 4.66605 20.9969C4.66605 21.344 4.52987 21.6772 4.28677 21.9249C4.04368 22.1726 3.71308 22.3151 3.36606 22.3216C3.01904 22.3282 2.68331 22.1983 2.43104 21.9599C2.17877 21.7216 2.0301 21.3937 2.017 21.0469V20.9469Z" fill="#8E7F72"/>
<path fill-rule="evenodd" clip-rule="evenodd" d="M1.709 2.67993C1.709 2.26572 2.04479 1.92993 2.459 1.92993H4.226C4.64021 1.92993 4.976 2.26572 4.976 2.67993C4.976 3.09415 4.64021 3.42993 4.226 3.42993H2.459C2.04479 3.42993 1.709 3.09415 1.709 2.67993ZM1.709 6.65493C1.709 6.24072 2.04479 5.90493 2.459 5.90493H4.226C4.64021 5.90493 4.976 6.24072 4.976 6.65493C4.976 7.06915 4.64021 7.40493 4.226 7.40493H2.459C2.04479 7.40493 1.709 7.06915 1.709 6.65493ZM1.709 10.6289C1.709 10.2147 2.04479 9.87893 2.459 9.87893H4.226C4.64021 9.87893 4.976 10.2147 4.976 10.6289C4.976 11.0431 4.64021 11.3789 4.226 11.3789H2.459C2.04479 11.3789 1.709 11.0431 1.709 10.6289Z" fill="#8E7F72"/>
<path fill-rule="evenodd" clip-rule="evenodd" d="M11.515 0.750977C11.1835 0.750977 10.8655 0.882673 10.6311 1.11709C10.3967 1.35151 10.265 1.66945 10.265 2.00098V22.389C10.265 22.7205 10.3967 23.0384 10.6311 23.2729C10.8655 23.5073 11.1835 23.639 11.515 23.639H14.2C14.5315 23.639 14.8495 23.5073 15.0839 23.2729C15.3183 23.0384 15.45 22.7205 15.45 22.389V2.00098C15.45 1.66945 15.3183 1.35151 15.0839 1.11709C14.8495 0.882673 14.5315 0.750977 14.2 0.750977H11.515ZM9.57045 0.0564333C10.0862 -0.459292 10.7857 -0.749023 11.515 -0.749023H14.2C14.9293 -0.749023 15.6288 -0.459292 16.1445 0.0564333C16.6603 0.572159 16.95 1.27163 16.95 2.00098V22.389C16.95 23.1183 16.6603 23.8178 16.1445 24.3335C15.6288 24.8492 14.9293 25.139 14.2 25.139H11.515C10.7857 25.139 10.0862 24.8492 9.57045 24.3335C9.05473 23.8178 8.765 23.1183 8.765 22.389V2.00098C8.765 1.27163 9.05473 0.572159 9.57045 0.0564333Z" fill="#8E7F72"/>
<path fill-rule="evenodd" clip-rule="evenodd" d="M11.536 20.9469C11.5491 20.6 11.6978 20.2722 11.95 20.0338C12.2023 19.7954 12.538 19.6656 12.8851 19.6721C13.2321 19.6787 13.5627 19.8211 13.8058 20.0688C14.0489 20.3166 14.1851 20.6498 14.1851 20.9969C14.1851 21.344 14.0489 21.6772 13.8058 21.9249C13.5627 22.1726 13.2321 22.3151 12.8851 22.3216C12.538 22.3282 12.2023 22.1983 11.95 21.9599C11.6978 21.7216 11.5491 21.3937 11.536 21.0469V20.9469Z" fill="#8E7F72"/>
<path fill-rule="evenodd" clip-rule="evenodd" d="M11.229 2.67993C11.229 2.26572 11.5648 1.92993 11.979 1.92993H13.746C14.1602 1.92993 14.496 2.26572 14.496 2.67993C14.496 3.09415 14.1602 3.42993 13.746 3.42993H11.979C11.5648 3.42993 11.229 3.09415 11.229 2.67993ZM11.229 6.65493C11.229 6.24072 11.5648 5.90493 11.979 5.90493H13.746C14.1602 5.90493 14.496 6.24072 14.496 6.65493C14.496 7.06915 14.1602 7.40493 13.746 7.40493H11.979C11.5648 7.40493 11.229 7.06915 11.229 6.65493ZM11.229 10.6289C11.229 10.2147 11.5648 9.87893 11.979 9.87893H13.746C14.1602 9.87893 14.496 10.2147 14.496 10.6289C14.496 11.0431 14.1602 11.3789 13.746 11.3789H11.979C11.5648 11.3789 11.229 11.0431 11.229 10.6289Z" fill="#8E7F72"/>
<path fill-rule="evenodd" clip-rule="evenodd" d="M22.2785 1.16576C22.2782 1.1658 22.2788 1.16573 22.2785 1.16576L19.6493 1.54207C19.6488 1.54214 19.6484 1.54221 19.6479 1.54227C19.3222 1.5906 19.029 1.76558 18.831 2.03012C18.6331 2.29459 18.5478 2.62662 18.5937 2.95375L18.594 2.95567L21.3075 22.6431C21.3288 22.8035 21.3817 22.958 21.463 23.0978C21.5443 23.2377 21.6526 23.36 21.7814 23.4578C21.9102 23.5556 22.0572 23.627 22.2137 23.6678C22.3701 23.7085 22.533 23.7179 22.6931 23.6954C22.6932 23.6954 22.6929 23.6955 22.6931 23.6954L25.3217 23.3191C25.3221 23.319 25.3225 23.319 25.3229 23.3189C25.6493 23.2705 25.9433 23.0952 26.141 22.831C26.3389 22.5666 26.4242 22.2345 26.3783 21.9074L26.378 21.9055L23.6645 2.21804C23.6432 2.05768 23.5903 1.90314 23.509 1.76332C23.4277 1.62349 23.3194 1.50114 23.1906 1.40333C23.0617 1.30551 22.9148 1.23416 22.7583 1.19339C22.602 1.15269 22.4384 1.14337 22.2785 1.16576ZM22.0695 -0.31961C22.4257 -0.369718 22.7883 -0.348842 23.1364 -0.258185C23.4844 -0.167526 23.8111 -0.00887881 24.0976 0.208609C24.3841 0.426099 24.6247 0.698135 24.8056 1.00904C24.9861 1.31943 25.1036 1.66242 25.1512 2.01831C25.1513 2.01891 25.1514 2.01951 25.1514 2.02012L27.8637 21.6987C27.8638 21.6991 27.8638 21.6994 27.8639 21.6998C27.9646 22.4188 27.777 23.1485 27.3419 23.7298C26.9066 24.3114 26.259 24.6972 25.5403 24.8031L25.5373 24.8035L22.9025 25.1808C22.5463 25.2309 22.1837 25.21 21.8356 25.1193C21.4876 25.0287 21.1609 24.87 20.8744 24.6525C20.5879 24.4351 20.3473 24.163 20.1664 23.8521C19.9859 23.5417 19.8684 23.1988 19.8208 22.8429C19.8207 22.8423 19.8206 22.8417 19.8206 22.841L17.1083 3.16241C17.1082 3.16207 17.1082 3.16172 17.1081 3.16138C17.0074 2.44234 17.195 1.71261 17.6301 1.13131C18.0651 0.550155 18.7115 0.164 19.4307 0.0580812L19.4337 0.0576379L22.0677 -0.319357L22.0695 -0.31961Z" fill="#8E7F72"/>
<path fill-rule="evenodd" clip-rule="evenodd" d="M23.508 19.633C23.6795 19.6083 23.8542 19.6178 24.0221 19.6609C24.1899 19.704 24.3476 19.7799 24.486 19.8842C24.6244 19.9885 24.7408 20.1191 24.8285 20.2686C24.9162 20.418 24.9734 20.5834 24.997 20.755C25.0447 21.1031 24.9527 21.4558 24.7412 21.7363C24.5296 22.0168 24.2157 22.2022 23.868 22.252C23.6965 22.2767 23.5218 22.2672 23.3539 22.2241C23.1861 22.181 23.0284 22.1051 22.89 22.0009C22.7516 21.8966 22.6352 21.7659 22.5475 21.6165C22.4598 21.467 22.4025 21.3017 22.379 21.13C22.3313 20.782 22.4233 20.4292 22.6348 20.1487C22.8464 19.8683 23.1603 19.6829 23.508 19.633Z" fill="#8E7F72"/>
<path fill-rule="evenodd" clip-rule="evenodd" d="M22.7764 2.50505C22.8351 2.9151 22.5502 3.29502 22.1401 3.35363L20.4121 3.60063C20.0021 3.65925 19.6222 3.37435 19.5635 2.96431C19.5049 2.55426 19.7898 2.17434 20.1999 2.11573L21.9279 1.86873C22.3379 1.81011 22.7178 2.09501 22.7764 2.50505ZM23.3184 6.43963C23.3772 6.84965 23.0926 7.22973 22.6825 7.28857L20.9545 7.53657C20.5445 7.59542 20.1644 7.31074 20.1056 6.90073C20.0468 6.49071 20.3314 6.11063 20.7414 6.05179L22.4694 5.80379C22.8795 5.74494 23.2595 6.02962 23.3184 6.43963ZM23.8614 10.3756C23.9202 10.7856 23.6356 11.1657 23.2255 11.2246L21.4975 11.4726C21.0875 11.5314 20.7074 11.2467 20.6486 10.8367C20.5898 10.4267 20.8744 10.0466 21.2844 9.98779L23.0125 9.73979C23.4225 9.68094 23.8025 9.96562 23.8614 10.3756Z" fill="#8E7F72"/>
</g>
<defs>
<clipPath id="clip0_608_1796">
<rect width="27.453" height="24.713" fill="white"/>
</clipPath>
</defs>
</svg>
