<svg width="28" height="25" viewBox="0 0 28 25" fill="none" xmlns="http://www.w3.org/2000/svg">
<path fill-rule="evenodd" clip-rule="evenodd" d="M4.68597 0H2C0.895447 0 0 0.895447 0 2V22.389C0 23.4936 0.895447 24.389 2 24.389H4.68597C5.79059 24.389 6.68597 23.4936 6.68597 22.389V2C6.68597 0.895447 5.79059 0 4.68597 0ZM14.201 0H11.515C10.4105 0 9.51501 0.895447 9.51501 2V22.389C9.51501 23.4936 10.4105 24.389 11.515 24.389H14.201C15.3056 24.389 16.201 23.4936 16.201 22.389V2C16.201 0.895447 15.3056 0 14.201 0ZM3.34198 22.3709C4.07379 22.3709 4.66699 21.7777 4.66699 21.046C4.66699 20.3141 4.07379 19.7209 3.34198 19.7209C2.61023 19.7209 2.01697 20.3141 2.01697 21.046C2.01697 21.7777 2.61023 22.3709 3.34198 22.3709ZM2.45898 3.42993H4.22601C4.42493 3.42993 4.61566 3.35089 4.75629 3.21027C4.89697 3.06958 4.97601 2.87885 4.97601 2.67993C4.97601 2.48102 4.89697 2.29028 4.75629 2.1496C4.61566 2.00897 4.42493 1.92993 4.22601 1.92993H2.45898C2.26007 1.92993 2.06934 2.00897 1.92865 2.1496C1.78802 2.29028 1.70898 2.48102 1.70898 2.67993C1.70898 2.87885 1.78802 3.06958 1.92865 3.21027C2.06934 3.35089 2.26007 3.42993 2.45898 3.42993ZM12.861 22.3709C13.5928 22.3709 14.186 21.7777 14.186 21.046C14.186 20.3141 13.5928 19.7209 12.861 19.7209C12.1292 19.7209 11.536 20.3141 11.536 21.046C11.536 21.7777 12.1292 22.3709 12.861 22.3709ZM11.979 3.42993H13.746C13.9449 3.42993 14.1357 3.35089 14.2763 3.21027C14.417 3.06958 14.496 2.87885 14.496 2.67993C14.496 2.48102 14.417 2.29028 14.2763 2.1496C14.1357 2.00897 13.9449 1.92993 13.746 1.92993H11.979C11.7801 1.92993 11.5893 2.00897 11.4487 2.1496C11.308 2.29028 11.229 2.48102 11.229 2.67993C11.229 2.87885 11.308 3.06958 11.4487 3.21027C11.5893 3.35089 11.7801 3.42993 11.979 3.42993Z" fill="#3A2B20"/>
<path fill-rule="evenodd" clip-rule="evenodd" d="M20.8474 6.79427L22.5764 6.55128ZM21.3904 10.73L23.1194 10.487ZM20.3053 2.85841L22.0343 2.61541Z" fill="#F4EBDC"/>
<path fill-rule="evenodd" clip-rule="evenodd" d="M22.1735 0.422567L19.5395 0.799826C19.0162 0.877096 18.5449 1.15847 18.2287 1.58236C17.9124 2.00625 17.7769 2.53817 17.8518 3.06173L20.5641 22.7418C20.5987 23 20.6839 23.2488 20.815 23.4739C20.9461 23.6991 21.1204 23.896 21.3279 24.0535C21.5354 24.211 21.772 24.3259 22.0241 24.3917C22.2761 24.4574 22.5387 24.4727 22.7967 24.4365L25.4309 24.0593C25.9534 23.9824 26.4243 23.7019 26.7408 23.279C27.0573 22.8561 27.1937 22.3252 27.1201 21.8022L24.4072 2.11819C24.3728 1.85982 24.2876 1.6108 24.1565 1.38546C24.0254 1.16018 23.851 0.963034 23.6433 0.805441C23.4358 0.647787 23.1989 0.532858 22.9467 0.467123C22.6945 0.401449 22.4317 0.386251 22.1735 0.422567ZM19.854 3.4573C20.0129 3.57705 20.2128 3.62874 20.4098 3.60103L22.144 3.35225C22.2415 3.33828 22.3353 3.30526 22.42 3.25503C22.5048 3.20485 22.5788 3.13839 22.6378 3.05959C22.663 3.02602 22.6853 2.99044 22.7044 2.95333C22.7121 2.93838 22.7193 2.92318 22.726 2.90774C22.7416 2.87154 22.7544 2.83407 22.7642 2.79568C22.7887 2.70028 22.794 2.60097 22.7801 2.5035C22.7506 2.30727 22.6447 2.1307 22.4853 2.01247C22.326 1.89425 22.1263 1.84395 21.93 1.87264L20.201 2.11562C20.0041 2.14333 19.8261 2.24813 19.7064 2.407C19.5867 2.56582 19.535 2.76577 19.5627 2.96273C19.5904 3.15969 19.6952 3.33761 19.854 3.4573ZM24.0207 19.6638C23.8532 19.6209 23.6788 19.6114 23.5075 19.636C23.1613 19.6868 22.849 19.872 22.6384 20.1515C22.4278 20.431 22.3358 20.7822 22.3824 21.1291C22.4058 21.3006 22.4629 21.4657 22.5504 21.6151C22.6378 21.7644 22.7539 21.895 22.8919 21.9994C23.03 22.1038 23.1873 22.1798 23.3548 22.2232C23.5224 22.2666 23.6968 22.2765 23.8682 22.2523C24.2158 22.2021 24.5294 22.0165 24.7406 21.7359C24.9519 21.4554 25.0436 21.1027 24.9958 20.7548C24.9718 20.5835 24.9143 20.4185 24.8264 20.2696C24.7744 20.1812 24.7123 20.0994 24.6416 20.0258C24.593 19.9753 24.5403 19.9286 24.484 19.8863C24.3457 19.7824 24.1883 19.7068 24.0207 19.6638Z" fill="#3A2B20"/>
</svg>
