<svg xmlns="http://www.w3.org/2000/svg" width="18.065" height="24.13" viewBox="0 0 18.065 24.13"><path d="M15.807,0H2.258A2.258,2.258,0,0,0,0,2.258V24.087l9.033-5.269,9.033,5.269V2.258A2.258,2.258,0,0,0,15.807,0Zm.753,21.466L9.033,17.075,1.505,21.466V2.258a.754.754,0,0,1,.753-.753H15.807a.754.754,0,0,1,.753.753Z" transform="translate(0 0.043)" fill="#3a2b20" opacity="0"/><path d="M0,24.087V2.258A2.258,2.258,0,0,1,2.258,0H15.807a2.258,2.258,0,0,1,2.258,2.258V24.087L9.033,18.818Z" fill="#3a2b20"/></svg>