<svg xmlns="http://www.w3.org/2000/svg" width="21" height="21" viewBox="0 0 21 21"><g transform="translate(-18 -195)"><circle cx="10.5" cy="10.5" r="10.5" transform="translate(18 195)" fill="#8e7f72"/><path d="M37.342,80.037l-6.414,6.414-2.357-2.357a.293.293,0,0,0-.414,0l-.69.69a.293.293,0,0,0,0,.414l3.253,3.253a.293.293,0,0,0,.414,0l7.311-7.311a.293.293,0,0,0,0-.414l-.69-.69A.293.293,0,0,0,37.342,80.037Z" transform="translate(-4.166 121.756)" fill="#fff"/><path d="M37.549,79.7a.539.539,0,0,1,.384.159l.69.69a.543.543,0,0,1,0,.767l-7.31,7.311a.539.539,0,0,1-.384.159h0a.539.539,0,0,1-.384-.159l-3.253-3.253a.543.543,0,0,1,0-.767l.69-.69a.543.543,0,0,1,.767,0l2.18,2.18,6.237-6.237A.539.539,0,0,1,37.549,79.7Zm-6.621,8.585a.042.042,0,0,0,.03-.012l7.31-7.31a.043.043,0,0,0,0-.06l-.69-.69a.043.043,0,0,0-.06,0L30.928,86.8l-2.534-2.533a.043.043,0,0,0-.06,0l-.69.69a.043.043,0,0,0,0,.06L30.9,88.274A.042.042,0,0,0,30.928,88.287Z" transform="translate(-4.166 121.756)" fill="#fff"/></g></svg>