<svg xmlns="http://www.w3.org/2000/svg" width="18" height="18" viewBox="0 0 18 18"><g transform="translate(-18 -195)"><circle cx="9" cy="9" r="9" transform="translate(18 195)" fill="#3a2b20"/><path d="M35.556,80.037l-5.263,6.414-1.934-2.357a.211.211,0,0,0-.34,0l-.566.69a.34.34,0,0,0,0,.414l2.67,3.253a.211.211,0,0,0,.34,0l6-7.311a.34.34,0,0,0,0-.414l-.566-.69A.211.211,0,0,0,35.556,80.037Z" transform="translate(-4.695 120.135)" fill="#fff"/><path d="M35.725,79.7a.471.471,0,0,1,.363.177l.566.69a.593.593,0,0,1,0,.731l-6,7.311a.461.461,0,0,1-.726,0l-2.67-3.253a.593.593,0,0,1,0-.731l.566-.69a.461.461,0,0,1,.726,0l1.741,2.121,5.07-6.178A.471.471,0,0,1,35.725,79.7Zm-5.433,8.562,5.976-7.282a.093.093,0,0,0,0-.1l-.542-.661-5.433,6.621-2.1-2.564-.543.661a.093.093,0,0,0,0,.1Z" transform="translate(-4.695 120.135)" fill="#fff"/></g></svg>