<svg xmlns="http://www.w3.org/2000/svg" width="58" height="58" viewBox="0 0 58 58"><g fill="none"><path d="M20.505,49.506H8.494V37.494L0,29l8.494-8.494V8.494H20.506L29,0l8.494,8.494H49.506V20.506L58,29l-8.494,8.494V49.506H37.494L29,58Z" stroke="none"/><path d="M 28.99980545043945 56.58581161499023 L 37.08023071289062 48.50558090209961 L 48.50629806518555 48.50558090209961 L 48.50629806518555 37.07979202270508 L 56.58626174926758 29.0000114440918 L 48.50629806518555 20.92023086547852 L 48.50629806518555 9.493551254272461 L 37.07933807373047 9.493551254272461 L 28.99980545043945 1.414210557937622 L 20.92053031921387 9.493551254272461 L 9.494199752807617 9.493551254272461 L 9.494199752807617 20.91996192932129 L 1.414204835891724 29.0000114440918 L 9.494199752807617 37.08006286621094 L 9.494199752807617 48.50558090209961 L 20.91963958740234 48.50558090209961 L 28.99980545043945 56.58581161499023 M 28.99979972839355 58.00002288818359 L 20.50542068481445 49.50558090209961 L 8.494199752807617 49.50558090209961 L 8.494199752807617 37.49427032470703 L -1.373290956507844e-07 29.0000114440918 L 8.494199752807617 20.50575065612793 L 8.494199752807617 8.493551254272461 L 20.50630950927734 8.493551254272461 L 28.99979972839355 1.444091822122573e-06 L 37.49354934692383 8.493551254272461 L 49.50629806518555 8.493551254272461 L 49.50629806518555 20.50601196289062 L 58.0004997253418 29.0000114440918 L 49.50629806518555 37.49401092529297 L 49.50629806518555 49.50558090209961 L 37.49443817138672 49.50558090209961 L 28.99979972839355 58.00002288818359 Z" stroke="none" fill="#3a2b20"/></g></svg>