<svg xmlns="http://www.w3.org/2000/svg" width="17.5" height="19.5" viewBox="0 0 17.5 19.5"><g transform="translate(-0.001 0)"><path d="M6.932.5H0" transform="translate(5.307 13.423)" fill="#8e7f72"/><path d="M6.932,1.25H0A.75.75,0,0,1-.75.5.75.75,0,0,1,0-.25H6.932a.75.75,0,0,1,0,1.5Z" transform="translate(5.307 13.423)" fill="#8e7f72"/><path d="M6.932.5H0" transform="translate(5.307 9.33)" fill="#8e7f72"/><path d="M6.932,1.25H0A.75.75,0,0,1-.75.5.75.75,0,0,1,0-.25H6.932a.75.75,0,0,1,0,1.5Z" transform="translate(5.307 9.33)" fill="#8e7f72"/><path d="M2.645.5H0" transform="translate(5.307 5.246)" fill="#8e7f72"/><path d="M2.645,1.25H0A.75.75,0,0,1-.75.5.75.75,0,0,1,0-.25H2.645a.75.75,0,0,1,0,1.5Z" transform="translate(5.307 5.246)" fill="#8e7f72"/><path d="M11.672-.75h0A4.966,4.966,0,0,1,15.382.714,5.364,5.364,0,0,1,16.75,4.5V13.5a5.364,5.364,0,0,1-1.357,3.775,4.955,4.955,0,0,1-3.68,1.476l-7.387,0A4.965,4.965,0,0,1,.617,17.285,5.365,5.365,0,0,1-.75,13.5V4.5A5.364,5.364,0,0,1,.607.73,4.954,4.954,0,0,1,4.286-.746Zm-7.346,18,7.382,0A3.492,3.492,0,0,0,14.3,16.241,3.9,3.9,0,0,0,15.25,13.5V4.5A3.9,3.9,0,0,0,14.3,1.748a3.507,3.507,0,0,0-2.622-1l-7.382,0A3.491,3.491,0,0,0,1.7,1.76,3.9,3.9,0,0,0,.75,4.5V13.5A3.9,3.9,0,0,0,1.7,16.252,3.506,3.506,0,0,0,4.326,17.25Z" transform="translate(0.751 0.75)" fill="#8e7f72"/></g></svg>