<svg xmlns="http://www.w3.org/2000/svg" width="24" height="24" viewBox="0 0 24 24"><path d="M0,0H24V24H0Z" fill="none"/><path d="M19,18.75a.75.75,0,0,1,0-1.5,2.75,2.75,0,0,0,0-5.5H18a.75.75,0,0,1-.732-.914A3.87,3.87,0,0,0,16.7,7.829a4.89,4.89,0,0,0-3.218-2.042A4.874,4.874,0,0,0,7.732,9.164a.75.75,0,0,1-.762.585,3.83,3.83,0,0,0-3.909,2.805A3.609,3.609,0,0,0,5.2,16.712a.75.75,0,0,1-.6,1.375,5.1,5.1,0,0,1-2.994-5.9A5.311,5.311,0,0,1,6.431,8.259a5.84,5.84,0,0,1,2.581-3.11,6.836,6.836,0,0,1,4.733-.837A6.4,6.4,0,0,1,17.946,7a5.39,5.39,0,0,1,.91,3.249H19a4.25,4.25,0,1,1,0,8.5Z" fill="#8e7f72"/><path d="M0,9.75A.75.75,0,0,1-.75,9V0A.75.75,0,0,1,0-.75.75.75,0,0,1,.75,0V9A.75.75,0,0,1,0,9.75Z" transform="translate(12 13)" fill="#8e7f72"/><path d="M12,22.75a.748.748,0,0,1-.53-.22l-3-3A.75.75,0,0,1,9.53,18.47L12,20.939l2.47-2.47A.75.75,0,0,1,15.53,19.53l-3,3A.748.748,0,0,1,12,22.75Z" fill="#8e7f72"/></svg>