<svg width="31" height="31" viewBox="0 0 31 31" fill="none" xmlns="http://www.w3.org/2000/svg">
<g clip-path="url(#clip0_403_199)">
<path d="M0.776123 0.866272H30.7761V30.8663H0.776123V0.866272Z" fill="#012169"/>
<path d="M30.7761 0.866272V4.61627L19.6433 15.8663L30.7761 26.8233V30.8663H26.8503L15.6589 19.8506L4.7605 30.8663H0.776123V26.8819L11.6746 15.9249L0.776123 5.20221V0.866272H4.40894L15.6589 11.8819L26.5574 0.866272H30.7761Z" fill="white"/>
<path d="M11.5574 19.8506L12.2019 21.8428L3.23706 30.8663H0.776123V30.6905L11.5574 19.8506ZM18.823 19.1475L21.9871 19.6163L30.7761 28.2296V30.8663L18.823 19.1475ZM30.7761 0.866272L19.5261 12.3506L19.2917 9.77252L28.0808 0.866272H30.7761ZM0.776123 0.924866L12.0847 11.9991L8.62769 11.5303L0.776123 3.73737V0.924866Z" fill="#C8102E"/>
<path d="M11.0886 0.866272V30.8663H20.4636V0.866272H11.0886ZM0.776123 11.1788V20.5538H30.7761V11.1788H0.776123Z" fill="white"/>
<path d="M0.776123 13.0538V18.6788H30.7761V13.0538H0.776123ZM12.9636 0.866272V30.8663H18.5886V0.866272H12.9636Z" fill="#C8102E"/>
</g>
<defs>
<clipPath id="clip0_403_199">
<rect x="0.776123" y="0.866272" width="30" height="30" rx="15" fill="white"/>
</clipPath>
</defs>
</svg>
