<svg width="31" height="31" viewBox="0 0 31 31" fill="none" xmlns="http://www.w3.org/2000/svg">
<circle cx="15.5" cy="15.5" r="15" fill="white" stroke="black"/>
<path d="M7.07599 20V9.09091H14.1712V10.7475H9.0522V13.7092H13.8036V15.3658H9.0522V18.3434H14.2138V20H7.07599ZM18.0304 15.206V20H16.1021V11.8182H17.9451V13.2085H18.041C18.2292 12.7504 18.5293 12.3864 18.9412 12.1165C19.3567 11.8466 19.8699 11.7116 20.4806 11.7116C21.0453 11.7116 21.5371 11.8324 21.9561 12.0739C22.3787 12.3153 22.7054 12.6651 22.9363 13.1232C23.1706 13.5813 23.286 14.1371 23.2825 14.7905V20H21.3542V15.0888C21.3542 14.5419 21.2122 14.114 20.9281 13.805C20.6475 13.4961 20.2587 13.3416 19.7615 13.3416C19.4242 13.3416 19.1241 13.4162 18.8613 13.5653C18.6021 13.7109 18.3979 13.9222 18.2488 14.1992C18.1032 14.4762 18.0304 14.8118 18.0304 15.206Z" fill="black"/>
</svg>
