<svg xmlns="http://www.w3.org/2000/svg" width="32.413" height="24.087" viewBox="0 0 32.413 24.087"><path d="M176.714,1197.706a.958.958,0,0,1,.9-.493,1.512,1.512,0,0,1,.743.324,9.731,9.731,0,0,0,2.325,1.158,12.757,12.757,0,0,0,3.093.565,16.157,16.157,0,0,1,2.909.237,4.994,4.994,0,0,1,2.309,1.183c.227.2.4.454.618.666.246-.238.442-.522.707-.74a5.243,5.243,0,0,1,2.778-1.206,15.866,15.866,0,0,1,2.1-.123,10.952,10.952,0,0,0,4.971-1.3c.347-.185.666-.416,1-.622a.972.972,0,0,1,1.3.3,1.563,1.563,0,0,1,.16.948c-.007,1.4,0,2.809,0,4.213,0,.324,0,.648.017.972a10.965,10.965,0,0,0,1.2-.6,1.319,1.319,0,0,1,.759-.245.945.945,0,0,1,.9.766,6.623,6.623,0,0,1,.022.887q0,5.066,0,10.132a7.449,7.449,0,0,1-.024.969.951.951,0,0,1-.492.653c-.424.246-.854.481-1.3.692.643.441,1.357.766,2.01,1.189a.966.966,0,0,1-.832,1.718,4.424,4.424,0,0,1-.691-.361c-.669-.386-1.341-.765-2.011-1.151a3.921,3.921,0,0,0-.595-.315,1.831,1.831,0,0,0-.614.193,57.124,57.124,0,0,1-8.664,2.679,11.8,11.8,0,0,1-5.253,0c-1.421-.331-2.828-.719-4.234-1.107-1.294-.374-2.569-.8-3.827-1.286-.29-.11-.569-.253-.866-.34-.132-.05-.248.056-.361.107-.782.466-1.58.905-2.364,1.367a1.442,1.442,0,0,1-.716.255.983.983,0,0,1-.93-.689.957.957,0,0,1,.331-1.04c.554-.4,1.21-.639,1.743-1.067-.513-.254-1.016-.529-1.516-.808a1.118,1.118,0,0,1-.465-.421,1.379,1.379,0,0,1-.134-.672q.007-5.27,0-10.541c0-.324-.016-.649.014-.972a.96.96,0,0,1,.954-.843,1.364,1.364,0,0,1,.737.263,11.132,11.132,0,0,0,1.14.576c.035-1.674.007-3.348.015-5.022A2.107,2.107,0,0,1,176.714,1197.706Zm1.818,2.2q0,5.751,0,11.5a.37.37,0,0,0,.152.309,7.325,7.325,0,0,0,3.259,1.849,24.07,24.07,0,0,0,2.821.414,14.241,14.241,0,0,1,2.1.5,15.912,15.912,0,0,1,1.763.728c.012-3.618,0-7.236,0-10.854a2.933,2.933,0,0,0-1.666-2.7,4.856,4.856,0,0,0-1.653-.38c-.675-.08-1.356-.021-2.031-.093A12.639,12.639,0,0,1,178.532,1199.9Zm17.737,1.245c-.958.108-1.927.048-2.883.171a3.444,3.444,0,0,0-1.648.628,3.034,3.034,0,0,0-1.156,2.408c0,3.629-.009,7.26.006,10.89.253-.1.5-.207.748-.326a13.736,13.736,0,0,1,4.383-1.04,8.713,8.713,0,0,0,2.449-.558,7.554,7.554,0,0,0,2.293-1.517c.11-.108.242-.229.223-.4q0-5.751,0-11.5A12.5,12.5,0,0,1,196.269,1201.148Zm-20.583,4.4c0,3.131-.011,6.262.007,9.393.346.166.685.349,1.025.526a48.781,48.781,0,0,0,10.978,3.684,9.475,9.475,0,0,0,2.852.157,18.9,18.9,0,0,0,2.546-.527c1.022-.274,2.047-.542,3.065-.832a36.3,36.3,0,0,0,7.365-3.014.876.876,0,0,0,.054-.37c-.007-2.567,0-5.135,0-7.7,0-.443.01-.887-.016-1.33a5.831,5.831,0,0,0-.918.358c-.019,2.027,0,4.055-.007,6.082a1.127,1.127,0,0,1-.4.787,9.816,9.816,0,0,1-2.935,2.169,10.052,10.052,0,0,1-1.957.64c-.821.194-1.671.19-2.5.332a11.146,11.146,0,0,0-4.215,1.544,6.475,6.475,0,0,1-.691.445.976.976,0,0,1-.929-.138,11.706,11.706,0,0,0-5.726-1.984,10.3,10.3,0,0,1-3.289-.834,9.878,9.878,0,0,1-3.034-2.231,1.128,1.128,0,0,1-.37-.738c-.011-2.024.011-4.049-.011-6.073A7.161,7.161,0,0,0,175.686,1205.553Z" transform="translate(-173.724 -1197.209)" fill="#3a2b20" opacity="0"/><path d="M176.714,1197.706a.958.958,0,0,1,.9-.493,1.512,1.512,0,0,1,.743.324,9.731,9.731,0,0,0,2.325,1.158,12.757,12.757,0,0,0,3.093.565,16.157,16.157,0,0,1,2.909.237,4.994,4.994,0,0,1,2.309,1.183c.227.2.4.454.618.666.246-.238.442-.522.707-.74a5.243,5.243,0,0,1,2.778-1.206,15.866,15.866,0,0,1,2.1-.123,10.952,10.952,0,0,0,4.971-1.3c.347-.185.666-.416,1-.622a.972.972,0,0,1,1.3.3,1.563,1.563,0,0,1,.16.948c-.007,1.4,0,2.809,0,4.213,0,.324,0,.648.017.972a10.965,10.965,0,0,0,1.2-.6,1.319,1.319,0,0,1,.759-.245.945.945,0,0,1,.9.766,6.623,6.623,0,0,1,.022.887q0,5.066,0,10.132a7.449,7.449,0,0,1-.024.969.951.951,0,0,1-.492.653c-.424.246-.854.481-1.3.692.643.441,1.357.766,2.01,1.189a.966.966,0,0,1-.832,1.718,4.424,4.424,0,0,1-.691-.361c-.669-.386-1.341-.765-2.011-1.151a3.921,3.921,0,0,0-.595-.315,1.831,1.831,0,0,0-.614.193,57.124,57.124,0,0,1-8.664,2.679,11.8,11.8,0,0,1-5.253,0c-1.421-.331-2.828-.719-4.234-1.107-1.294-.374-2.569-.8-3.827-1.286-.29-.11-.569-.253-.866-.34-.132-.05-.248.056-.361.107-.782.466-1.58.905-2.364,1.367a1.442,1.442,0,0,1-.716.255.983.983,0,0,1-.93-.689.957.957,0,0,1,.331-1.04c.554-.4,1.21-.639,1.743-1.067-.513-.254-1.016-.529-1.516-.808a1.118,1.118,0,0,1-.465-.421,1.379,1.379,0,0,1-.134-.672q.007-5.27,0-10.541c0-.324-.016-.649.014-.972a.96.96,0,0,1,.954-.843,1.364,1.364,0,0,1,.737.263,11.132,11.132,0,0,0,1.14.576c.035-1.674.007-3.348.015-5.022A2.107,2.107,0,0,1,176.714,1197.706Zm12.273,4.679c0,3.629-.009,10.26.006,13.89a5.546,5.546,0,0,1,1.3,0v-13.89Zm-13.3,3.167c0,3.131-.011,6.262.007,9.393.346.166.685.349,1.025.526a48.781,48.781,0,0,0,10.978,3.684,9.475,9.475,0,0,0,2.852.157,18.9,18.9,0,0,0,2.546-.527c1.022-.274,2.047-.542,3.065-.832a36.3,36.3,0,0,0,7.365-3.014.876.876,0,0,0,.054-.37c-.007-2.567,0-5.135,0-7.7,0-.443.01-.887-.016-1.33a5.831,5.831,0,0,0-.918.358c-.019,2.027,0,4.055-.007,6.082a1.127,1.127,0,0,1-.4.787,9.816,9.816,0,0,1-2.935,2.169,10.052,10.052,0,0,1-1.957.64c-.821.194-1.671.19-2.5.332a11.146,11.146,0,0,0-4.215,1.544,6.475,6.475,0,0,1-.691.445.976.976,0,0,1-.929-.138,11.706,11.706,0,0,0-5.726-1.984,10.3,10.3,0,0,1-3.289-.834,9.878,9.878,0,0,1-3.034-2.231,1.128,1.128,0,0,1-.37-.738c-.011-2.024.011-4.049-.011-6.073A7.161,7.161,0,0,0,175.686,1205.553Z" transform="translate(-173.724 -1197.21)" fill="#3a2b20"/></svg>