<svg xmlns="http://www.w3.org/2000/svg" width="143" height="42" viewBox="0 0 143 42">
  <g id="Group_1654" data-name="Group 1654" transform="translate(-291.105 -780.837)">
    <path id="Path_5466" data-name="Path 5466" d="M358.546,793.485c.414-.982.806-1.909,1.2-2.834a.167.167,0,0,1,.121-.085.173.173,0,0,1,.14.064c.086.168.163.344.234.519q.766,1.888,1.529,3.777c.294.731.58,1.465.877,2.2a1.609,1.609,0,0,1,.157.787.3.3,0,0,1-.372.233,1.1,1.1,0,0,1-.484-.315c-.26-.283-.522-.564-.777-.838-.08.028-.148.031-.177.066a.8.8,0,0,0-.183.606c.134,1.535.26,3.069.4,4.6.211,2.342.441,4.682.6,7.029a46.3,46.3,0,0,1,.047,5.023,6.808,6.808,0,0,1-.5,2.371c-.293.7-.561,1.415-.9,2.1a5.33,5.33,0,0,1-3.719,2.827,4.768,4.768,0,0,1-2.589-.136,7.072,7.072,0,0,1-2.542-1.424c-.65-.562-1.281-1.144-1.923-1.714a1.173,1.173,0,0,0-.276-.177c-.031-.014-.1.027-.139.051a.109.109,0,0,0-.031.074,4.853,4.853,0,0,0,1.463,4.081,6.638,6.638,0,0,0,1.615,1.17,11.261,11.261,0,0,0,2.923,1.06,20.115,20.115,0,0,0,5.3.5q1.778-.087,3.544-.335c1.509-.216,3.015-.447,4.507-.762a63.759,63.759,0,0,0,9.738-2.765c.628-.24,1.231-.542,1.845-.82a3.632,3.632,0,0,0,.367-.2.454.454,0,0,0,.222-.488,2.132,2.132,0,0,0-.042-.24,7.218,7.218,0,0,0-1.067-2.456,3.679,3.679,0,0,1-.228-.342.846.846,0,0,1-.1-.626c.16-.683.315-1.369.469-2.043.086-.009.157-.039.188-.017a.875.875,0,0,1,.243.219,7.749,7.749,0,0,1,1.376,4.6,9.1,9.1,0,0,1-.259,1.763,3.445,3.445,0,0,1-1.491,2.1,8.427,8.427,0,0,1-.87.5,23.409,23.409,0,0,1-3.181,1.33,66.967,66.967,0,0,1-10.142,2.594c-1.418.251-2.846.445-4.281.571a23.307,23.307,0,0,1-4.657-.051,20.691,20.691,0,0,1-2.509-.393,10.4,10.4,0,0,1-2.587-1,7.077,7.077,0,0,1-2.318-1.989,5.7,5.7,0,0,1-1.151-3.17,11.746,11.746,0,0,1,.11-2.426.573.573,0,0,0-.008-.234c-.009-.033-.1-.085-.122-.073a4,4,0,0,0-.528.245c-1.257.729-2.575,1.352-3.9,1.965a9.952,9.952,0,0,1-2.49.784,4.921,4.921,0,0,1-3.057-.368,3.525,3.525,0,0,1-1.9-2.076c-.07-.205-.116-.417-.19-.62-.026-.068-.1-.118-.182-.2a5.472,5.472,0,0,0-.391.438c-.241.332-.465.678-.7,1.014a6.956,6.956,0,0,1-.969,1.124,3.749,3.749,0,0,1-2.431,1.022,2.429,2.429,0,0,1-2.225-1.1,2.354,2.354,0,0,1-.363-.817c-.061-.257-.13-.512-.192-.751a.317.317,0,0,0-.331.11c-.258.287-.506.582-.77.864-.3.322-.606.642-.927.945a4.334,4.334,0,0,1-5.307.332,6.385,6.385,0,0,1-.884-.753c-.335-.329-.649-.679-.95-1.036a2.145,2.145,0,0,0-2.031-.746,6.828,6.828,0,0,0-2.345.666c-.672.342-1.339.7-1.983,1.089a24.2,24.2,0,0,0-2.843,2.046c-1.349,1.115-2.652,2.275-3.92,3.472-.7.664-1.406,1.332-2.138,1.969-.542.471-1.119.912-1.7,1.334a4.425,4.425,0,0,1-1.683.735,3.532,3.532,0,0,1-1.915-.143,4.209,4.209,0,0,1-1.918-1.289,5.732,5.732,0,0,1-1.4-3.415,8.88,8.88,0,0,1,.427-3.28,28.842,28.842,0,0,1,1.4-3.56,15.635,15.635,0,0,1,1.163-2.067c.185-.27.353-.55.528-.829a1.019,1.019,0,0,0-.146-.218,4.039,4.039,0,0,1-1.313-2.4,9.457,9.457,0,0,1-.1-3.066,64.184,64.184,0,0,1,1.345-6.927c.294-1.209.615-2.414.945-3.615.136-.5.322-.978.493-1.462.025-.071.1-.15.192-.092a.445.445,0,0,1,.142.18.309.309,0,0,1,.008.16,2.933,2.933,0,0,1-.049.32q-.869,4.088-1.738,8.177a14.961,14.961,0,0,0-.462,2.961c0,.486.007.972.041,1.456a3.085,3.085,0,0,0,.6,1.582,1.638,1.638,0,0,0,.407.4,1.2,1.2,0,0,0,1.207.1,1.74,1.74,0,0,0,.993-1.149c.079-.259.116-.529.176-.793a1.065,1.065,0,0,1,.1-.305.337.337,0,0,1,.2-.113c.027-.007.086.062.114.107a.3.3,0,0,1,.049.151,8.364,8.364,0,0,1-.5,3.187,3.127,3.127,0,0,1-.609.968,1.394,1.394,0,0,1-1.095.53,2.923,2.923,0,0,0-.292.03,4.11,4.11,0,0,0-.271.371,46.078,46.078,0,0,0-2.52,5.132,11.635,11.635,0,0,0-.633,1.931,6.083,6.083,0,0,0-.118,2.015,2.961,2.961,0,0,0,3,2.658,3.577,3.577,0,0,0,1.489-.265,7.98,7.98,0,0,0,.975-.485,18.512,18.512,0,0,0,2.81-2.083q1.922-1.715,3.862-3.414a42.111,42.111,0,0,1,3.524-2.793,16.706,16.706,0,0,1,3.521-1.932,7.892,7.892,0,0,1,2.281-.595,7.05,7.05,0,0,1,1.439.047,2.107,2.107,0,0,1,1.38.72,12.1,12.1,0,0,1,.773.965,3.749,3.749,0,0,0,3.092,1.574,4.2,4.2,0,0,0,3.36-1.254c.329-.335.632-.692.943-1.042.33-.371.65-.75.983-1.118a.67.67,0,0,1,.276-.176.3.3,0,0,1,.235.038.241.241,0,0,1,.088.2c-.066.206-.164.4-.245.6a1.6,1.6,0,0,0,.543,1.9,2.54,2.54,0,0,0,2.236.45,3.06,3.06,0,0,0,1.148-.5,6.145,6.145,0,0,0,1.353-1.332c.363-.483.723-.968,1.088-1.45a1.22,1.22,0,0,1,.484-.441c.05-.021.131-.045.158-.022.056.045.123.12.119.18a2.282,2.282,0,0,1-.083.476,1.33,1.33,0,0,0,.3,1.217,2.977,2.977,0,0,0,.478.457,4.661,4.661,0,0,0,3.9.921,11.707,11.707,0,0,0,2.261-.678c.86-.346,1.709-.715,2.561-1.078a3.049,3.049,0,0,0,.3-.174c-.033-.082-.038-.179-.091-.219a16.228,16.228,0,0,0-2.6-1.661c-.075-.036-.156-.062-.234-.1a.944.944,0,0,0-.819.013c-.325.164-.636.348-.951.529-.118.066-.218.171-.375.14-.014-.051-.049-.1-.04-.152a23.753,23.753,0,0,1,.706-2.686c.147-.072.29-.158.442-.218a15.767,15.767,0,0,1,3.995-1.048,11.979,11.979,0,0,1,4.05.144,28.057,28.057,0,0,1,4.585,1.437c.179.073.343.176.492.254.008.09.032.149.015.192-.308.753-.635,1.5-.982,2.2-.667.18-1.294.333-1.91.522a10.2,10.2,0,0,0-1.665.72.222.222,0,0,0,.081.309,11.934,11.934,0,0,0,2.313,1.5,5.4,5.4,0,0,0,6.194-1.185,1.705,1.705,0,0,0,.475-1.255c-.055-1.729-.111-3.459-.274-5.181-.071-.754-.133-1.509-.192-2.262q-.207-2.587-.405-5.175-.217-2.789-.432-5.576c-.067-.864-.146-1.725-.189-2.587a3.374,3.374,0,0,0-.526-1.819m-7.031,20.88a.417.417,0,0,0-.342-.207,15.567,15.567,0,0,0-3.513-.353.316.316,0,0,0-.208.081c-.067.075,0,.154.065.205.491.4.985.8,1.475,1.2a.54.54,0,0,0,.625.07c.576-.277,1.155-.554,1.729-.839a.755.755,0,0,0,.169-.16" transform="translate(-4.447 -9.164)"/>
    <path id="Path_5467" data-name="Path 5467" d="M391.269,820.9c-.273-.119-.529-.227-.784-.341a2.346,2.346,0,0,1-1.019-.833,1.028,1.028,0,0,1-.144-.927,4.065,4.065,0,0,1,.469-1.04c.374-.573.746-1.151,1.163-1.7a6.732,6.732,0,0,1,1.969-1.765c.434-.252.888-.473,1.33-.716a2.807,2.807,0,0,1,1.305-.294.957.957,0,0,1,.923.47,15.4,15.4,0,0,1,.67,1.4.527.527,0,0,1-.013.392,4.186,4.186,0,0,1-1.02,1.459.53.53,0,0,1-.345-.237c-.18-.21-.353-.424-.538-.627a1.217,1.217,0,0,0-1.068-.386,1.715,1.715,0,0,0-.335.051,6.858,6.858,0,0,0-2.534,1.271.908.908,0,0,0-.216.244.278.278,0,0,0-.012.228,1.168,1.168,0,0,0,.509.526,5.754,5.754,0,0,0,3.984.759,4.586,4.586,0,0,0,.8-.247c.875-.307,1.749-.62,2.624-.926a1.869,1.869,0,0,1,.328-.069c.093-.016.232.129.2.209a1.6,1.6,0,0,1-.12.3c-.238.43-.481.857-.727,1.285a1.3,1.3,0,0,1-.771.6c-.133.044-.267.087-.4.124a21.223,21.223,0,0,0-3.89,1.6,1.23,1.23,0,0,0-.642.713,9.481,9.481,0,0,0-.51,2.214c-.048.43-.08.864-.106,1.3a3.519,3.519,0,0,0,.183,1.44,3.477,3.477,0,0,0,4.072,2.121,5.521,5.521,0,0,0,2.243-1.1,18.491,18.491,0,0,0,2.718-2.672c.3-.359.592-.722.893-1.083a14.787,14.787,0,0,1,3.668-3.107,16.88,16.88,0,0,1,2.575-1.232c1.673-.666,3.391-1.21,5.111-1.74,1.1-.341,2.213-.657,3.32-.987.212-.064.418-.142.655-.223a2.416,2.416,0,0,0-.038-.334q-.226-.864-.465-1.728a8.053,8.053,0,0,1-.279-2.331,5.332,5.332,0,0,1,.4-1.981c.245-.574.547-1.128.848-1.678a2.617,2.617,0,0,1,.76-.863,3.485,3.485,0,0,1,.576-.333.935.935,0,0,1,.742-.014,2.383,2.383,0,0,1,1.129.826,6.91,6.91,0,0,1,1.413,5.444,7.907,7.907,0,0,1-.565,1.947,3.875,3.875,0,0,1-1.14,1.494c-.325.259-.664.5-.995.757-.132.1-.253.209-.4.329a4.858,4.858,0,0,0,.74,1.552,3.7,3.7,0,0,0,2.842,1.556,7.376,7.376,0,0,0,2.021-.174,13.931,13.931,0,0,0,1.787-.505A4.834,4.834,0,0,0,428.8,820.3a.935.935,0,0,0,.332-.72c0-.216.009-.434,0-.65-.049-1.325-.09-2.65-.153-3.974-.069-1.46-.152-2.919-.239-4.378-.078-1.3-.17-2.593-.257-3.889-.065-.945-.135-1.889-.2-2.834-.08-1.188-.15-2.377-.231-3.565-.092-1.35-.186-2.7-.293-4.048a5.984,5.984,0,0,1,.249-2.486,9.732,9.732,0,0,0,.238-1.11,1.67,1.67,0,0,1,.113-.385.329.329,0,0,1,.189-.136.147.147,0,0,1,.181.125,7.061,7.061,0,0,1,.136.718c.157,1.318.334,2.633.418,3.956.061.973.177,1.941.26,2.912q.1,1.254.194,2.509c.057.81.108,1.621.158,2.43.079,1.323.154,2.648.233,3.971.07,1.163.131,2.324.211,3.485.089,1.3.11,2.6.279,3.886.084.644.193,1.285.3,1.926a5.681,5.681,0,0,0,.58,1.605,3.807,3.807,0,0,0,1.1,1.322,3.131,3.131,0,0,0,1.855.71,7.3,7.3,0,0,0,2.188-.178,2.711,2.711,0,0,0,1.213-.71.752.752,0,0,0,.249-.583c-.029-.758-.038-1.517-.087-2.272-.067-1-.164-2-.248-2.993q-.13-1.619-.259-3.237c-.039-.513-.064-1.026-.1-1.539q-.129-1.863-.263-3.726c-.017-.243-.043-.485-.056-.728-.067-1.432-.125-2.866-.2-4.3-.077-1.377-.176-2.753-.263-4.131-.017-.3-.047-.6-.043-.893a4.254,4.254,0,0,0-.542-2.267c.376-1,.8-1.972,1.209-2.924a.224.224,0,0,1,.281.154c.073.146.133.3.193.451q1.158,2.875,2.313,5.753c.081.2.158.407.222.613a1.316,1.316,0,0,1,.032.321.3.3,0,0,1-.414.267,1.1,1.1,0,0,1-.361-.2c-.2-.188-.376-.4-.566-.6a2.942,2.942,0,0,0-.3-.281c-.034-.027-.106-.011-.159-.013a.8.8,0,0,0-.189.525c.009.244.017.486.027.73.02.432.056.865.061,1.3.017,1.76.164,3.512.329,5.265.1,1.077.162,2.159.235,3.239.09,1.349.185,2.7.254,4.05a52.415,52.415,0,0,1,.09,5.517,6.645,6.645,0,0,1-.34,1.832c-.223.641-.449,1.282-.714,1.908a5.3,5.3,0,0,1-.569.993,3.192,3.192,0,0,1-1.85,1.214,5.945,5.945,0,0,1-2.187.133,3.528,3.528,0,0,1-2.373-1.291,4.892,4.892,0,0,1-1.17-2.569,4.81,4.81,0,0,0-.194-.91c-.088.077-.17.116-.186.171a2.731,2.731,0,0,0-.083.477,4.966,4.966,0,0,1-.313,1.26,4.312,4.312,0,0,1-2.217,2.454,8.549,8.549,0,0,1-2.554.837,5.66,5.66,0,0,1-2.268-.137,3.612,3.612,0,0,1-1.528-.843,5.587,5.587,0,0,1-1.476-2.059c-.207-.5-.379-1.018-.564-1.528l-.257-.7a1.819,1.819,0,0,0-.355.035c-2.9.9-5.815,1.769-8.666,2.82a18.618,18.618,0,0,0-3.776,2,7.672,7.672,0,0,0-.9.743,25.138,25.138,0,0,0-2.479,2.667c-.4.49-.8.984-1.2,1.471a8.436,8.436,0,0,1-1.552,1.495,7.84,7.84,0,0,1-1.137.7,3.918,3.918,0,0,1-3.28.116,5.374,5.374,0,0,1-3.358-3.821,7.123,7.123,0,0,1-.1-2.9c.064-.427.155-.852.221-1.279a5.61,5.61,0,0,0,.062-.646.157.157,0,0,0-.082-.121.328.328,0,0,0-.162.009.232.232,0,0,0-.077.034,15.7,15.7,0,0,0-2.314,1.637.883.883,0,0,1-.291.156.178.178,0,0,1-.156-.026c-.055-.052-.13-.142-.116-.194a4.311,4.311,0,0,1,.25-.687c.168-.343.374-.669.541-1.012a3.045,3.045,0,0,1,1.039-1.155c.207-.143.414-.282.61-.44.051-.041.053-.138.083-.227m27.915-4.073a7.7,7.7,0,0,0,2.571-1.617.459.459,0,0,0,.143-.445,6.284,6.284,0,0,0-.452-1.475,11.437,11.437,0,0,0-1.3-2.083,2.037,2.037,0,0,0-.224-.245.858.858,0,0,0-1.085-.106,3.63,3.63,0,0,0-.459.358,1.173,1.173,0,0,0-.392,1.247c.283,1.1.523,2.216.807,3.318a2.606,2.606,0,0,0,.4,1.048" transform="translate(-6.305 -9.165)"/>
    <path id="Path_5469" data-name="Path 5469" d="M305.835,811.9a1.52,1.52,0,0,1-.833-.437,1.877,1.877,0,0,1-.536-.65,1.6,1.6,0,0,1-.15-1.073,6.8,6.8,0,0,1,.581-1.587,1.715,1.715,0,0,1,.938-.821,21.261,21.261,0,0,1,2.065-.763c3.921-1.087,7.858-2.107,11.846-2.933,3.264-.677,6.529-1.346,9.806-1.954,2.111-.393,4.233-.737,6.35-1.091q2.424-.4,4.856-.777c1.369-.209,2.742-.391,4.113-.582q2.226-.31,4.45-.614c1.429-.193,2.858-.378,4.287-.568.447-.059.895-.141,1.344-.176.231-.018.469-.219.705-.007-.022.247-.223.382-.358.556-.207.268-.434.52-.658.776a.684.684,0,0,1-.435.239c-.558.085-1.116.178-1.675.259-1.372.2-2.742.382-4.114.578q-2.1.3-4.2.6c-1.285.188-2.572.373-3.858.572-1.563.243-3.126.485-4.685.751q-2.633.451-5.256.947c-2.194.411-4.388.825-6.577,1.262-2.05.411-4.1.831-6.138,1.287-3.419.767-6.811,1.643-10.183,2.6a13.126,13.126,0,0,0-2.208.861.217.217,0,0,0-.032.354c.222.175.446.346.673.514.493.368.5.372.3.987a6.73,6.73,0,0,1-.235.635,1.266,1.266,0,0,1-.19.255" transform="translate(-4.457 -9.51)"/>
    <path id="Path_5473" data-name="Path 5473" d="M368.52,824.589c-.048-.064-.128-.125-.138-.2a4.9,4.9,0,0,1-.041-.673c.011-1.951-.016-3.9-.157-5.847-.083-1.154-.133-2.313-.217-3.468-.08-1.1-.186-2.2-.28-3.295q-.1-1.181-.2-2.364c-.135-1.607-.266-3.211-.4-4.814-.141-1.662-.294-3.322-.431-4.983-.086-1.042-.151-2.085-.227-3.128-.023-.31-.057-.619-.075-.929a2.277,2.277,0,0,0-.415-1.327,19.088,19.088,0,0,1,1.112-2.973c.069.04.166.061.2.121a3.589,3.589,0,0,1,.208.46q1.112,2.752,2.217,5.5.142.353.251.719a1.066,1.066,0,0,1,.023.335c0,.125-.139.3-.251.3a.474.474,0,0,1-.314-.074c-.262-.255-.5-.536-.752-.8a1.112,1.112,0,0,0-.259-.2.145.145,0,0,0-.142.045.709.709,0,0,0-.1.312c.013.481.034.961.072,1.438.088,1.071.185,2.14.28,3.209.085.957.176,1.914.264,2.871.065.73.136,1.462.194,2.194.081,1.014.151,2.028.225,3.043.086,1.155.187,2.31.253,3.466.13,2.285.3,4.57.227,6.861a9.833,9.833,0,0,1-.823,3.784.717.717,0,0,1-.3.411" transform="translate(-5.384 -9.164)"/>
    <path id="Path_5474" data-name="Path 5474" d="M385.238,790.558c.213.091.235.31.307.485q.911,2.238,1.81,4.48c.179.445.365.889.533,1.338a4.1,4.1,0,0,1,.186.65.928.928,0,0,1-.03.332.309.309,0,0,1-.409.184,2.789,2.789,0,0,1-.385-.326c-.236-.241-.459-.493-.69-.739-.046-.048-.194,0-.214.068a1.041,1.041,0,0,0-.067.243,3.907,3.907,0,0,0,.007.507q.145,1.819.3,3.635c.062.732.135,1.463.2,2.2.139,1.663.279,3.325.407,4.987.148,1.917.311,3.834.417,5.753s.24,3.839.188,5.765a10.288,10.288,0,0,1-.79,3.964c-.058.129-.123.254-.189.381-.045.089-.168.135-.208.079s-.083-.085-.085-.13c-.018-.226-.032-.451-.03-.677.01-1.7,0-3.393-.126-5.088-.09-1.24-.13-2.484-.214-3.724-.074-1.072-.178-2.141-.269-3.212-.067-.788-.138-1.577-.2-2.365-.135-1.607-.265-3.213-.4-4.818-.14-1.634-.29-3.267-.427-4.9-.081-.958-.147-1.917-.22-2.876-.056-.733-.12-1.464-.168-2.2a1.676,1.676,0,0,0-.274-.792.528.528,0,0,1-.063-.485q.517-1.344,1.049-2.681c.007-.016.041-.023.064-.034" transform="translate(-5.646 -9.164)"/>
    <path id="Path_5475" data-name="Path 5475" d="M400.93,793.38c.363-.91.714-1.8,1.077-2.691.024-.058.123-.086.184-.126a1.419,1.419,0,0,1,.293.532q1.113,2.706,2.227,5.408c.075.183.147.368.206.556a1.173,1.173,0,0,1,.053.333.375.375,0,0,1-.192.353.362.362,0,0,1-.395-.045,2.839,2.839,0,0,1-.247-.233c-.136-.144-.257-.3-.4-.437s-.214-.393-.458-.264c-.2.109-.147.349-.14.538.011.367.036.735.064,1.1.037.479.08.958.121,1.437q.219,2.449.434,4.9c.064.732.131,1.463.186,2.2.082,1.1.155,2.2.23,3.3.088,1.3.187,2.594.257,3.893a53.1,53.1,0,0,1,.066,5.764,7.946,7.946,0,0,1-.951,3.4c-.026.046-.11.109-.123.1a.351.351,0,0,1-.143-.159,1.435,1.435,0,0,1-.047-.335c-.006-.112,0-.226,0-.339-.01-1.018,0-2.036-.038-3.052q-.085-2.416-.221-4.829c-.065-1.13-.174-2.255-.266-3.382-.067-.818-.139-1.634-.206-2.45-.137-1.662-.268-3.326-.406-4.987-.141-1.691-.29-3.379-.427-5.069-.084-1.043-.152-2.085-.225-3.129-.013-.17-.016-.339-.028-.508a3.007,3.007,0,0,0-.489-1.776" transform="translate(-5.89 -9.164)"/>
    <path id="Path_5483" data-name="Path 5483" d="M336.6,828.86c-.212.025-.28.2-.378.33a2.63,2.63,0,0,1-1.046.841,1.258,1.258,0,0,1-1.428-.146,3.353,3.353,0,0,0-.333-.264,1.334,1.334,0,0,0-1.052-.2,3.31,3.31,0,0,0-1.024.4c-.287.181-.574.363-.845.565a10.776,10.776,0,0,1-3.563,1.731,15.86,15.86,0,0,1-3.333.593c-.873.056-1.743.177-2.615.269-.083.01-.168.026-.253.034-.635.07-.894.026-.822-.125.145-.3.455-.278.72-.341,1.815-.427,3.641-.809,5.435-1.324.3-.086.6-.172.9-.259a12.435,12.435,0,0,0,3.882-1.856c.367-.266.757-.5,1.143-.734A3.041,3.041,0,0,1,333,827.96a1.591,1.591,0,0,1,1.293.25c.137.1.274.2.417.292a1.07,1.07,0,0,0,.978.082,2.06,2.06,0,0,0,1.1-.893c.214-.367.418-.737.638-1.1.071-.117.147-.246.306-.272a.14.14,0,0,1,.077,0,.1.1,0,0,1,.045.068.837.837,0,0,1-.028.247c-.061.188-.132.374-.211.555-.166.383-.1.585.315.834a1.088,1.088,0,0,0,.854.143c.185-.186.156-.4.21-.584a4.882,4.882,0,0,1,.5-1.162.174.174,0,0,1,.141-.059.155.155,0,0,1,.1.1,2.093,2.093,0,0,1-.071,1.171c-.2.529-.434,1.043-.658,1.561a1.137,1.137,0,0,1-.138.215,1.019,1.019,0,0,1-1.128.384,1.637,1.637,0,0,1-.907-.59c-.082-.114-.159-.23-.235-.34" transform="translate(-4.765 -11.048)"/>
    <path id="Path_5485" data-name="Path 5485" d="M351.329,829.529c-.121.224-.238.449-.363.669a3.728,3.728,0,0,1-1.154,1.219,10.1,10.1,0,0,1-4.366,1.736,5.293,5.293,0,0,1-1.852-.1.787.787,0,0,1-.082-.021c-1.027-.382-1.242-.9-.951-1.827a7.276,7.276,0,0,1,.889-1.824.678.678,0,0,0,.2-.493c-.124-.067-.272-.14-.413-.225-.244-.144-.491-.281-.721-.442a.53.53,0,0,1-.2-.738,8.074,8.074,0,0,1,1.006-1.663,3.726,3.726,0,0,1,1.491-1.087.446.446,0,0,1,.6.16c.118.156.223.321.345.5a7.16,7.16,0,0,1-.823,1.146c-.227.061-.26-.117-.35-.207-.2-.195-.314-.228-.523-.13a1.22,1.22,0,0,0-.679.493,1.71,1.71,0,0,0,1.576.632,6.1,6.1,0,0,0,1.4-.321,4.384,4.384,0,0,1,.483-.146c.039-.008.1.042.135.075a.081.081,0,0,1,.01.081c-.18.317-.355.638-.553.944a1.186,1.186,0,0,1-.545.387,9.354,9.354,0,0,0-1.793,1.119,2.7,2.7,0,0,0-.679.75.622.622,0,0,0,.088.777,1.737,1.737,0,0,0,.86.516,4.457,4.457,0,0,0,1.764.13,9.343,9.343,0,0,0,4.795-1.968,1.134,1.134,0,0,1,.288-.17c.039-.017.1.024.153.037Z" transform="translate(-5.065 -11.046)"/>
    <path id="Path_5487" data-name="Path 5487" d="M304.792,833.135c.1-.288.211-.58.318-.872a.559.559,0,0,1,.353-.344c.212-.075.428-.139.644-.208,2.531-.8,5.1-1.485,7.652-2.2q3.592-1,7.187-1.977c.244-.067.493-.116.742-.162.028-.005.106.074.1.1a3.337,3.337,0,0,1-.44,1.089.512.512,0,0,1-.268.195c-.267.09-.541.159-.813.236q-5.421,1.525-10.843,3.055c-1.357.385-2.707.8-4.061,1.2-.108.032-.214.074-.324.1-.081.019-.176.034-.227-.056a.459.459,0,0,1-.021-.163" transform="translate(-4.424 -11.049)"/>
    <path id="Path_5488" data-name="Path 5488" d="M367.136,833.263c.077-.232.169-.468.234-.712a.925.925,0,0,1,.73-.726c.683-.178,1.346-.425,2.025-.617q4.238-1.194,8.482-2.375c1.55-.431,3.1-.852,4.656-1.275.245-.067.492-.127.738-.186.088-.021.192.067.163.139-.134.34-.267.68-.414,1.015a.568.568,0,0,1-.406.278l-2.2.618c-4.455,1.259-8.924,2.471-13.355,3.819a3.771,3.771,0,0,1-.491.118c-.039.006-.089-.052-.16-.095" transform="translate(-5.497 -11.049)"/>
    <path id="Path_5495" data-name="Path 5495" d="M422.563,807.738a6.849,6.849,0,0,1-1.035-.6c-.337-.206-.67-.419-1.007-.627a9.967,9.967,0,0,0-1.014-.605,5.064,5.064,0,0,0-.684.9,4.437,4.437,0,0,1-.649.866.834.834,0,0,1-.182-.05q-1.4-.793-2.8-1.59a.614.614,0,0,1-.068-.049.342.342,0,0,1-.113-.449c.341-.585.69-1.165,1.042-1.745a.292.292,0,0,1,.37-.107c.174.093.346.193.513.295q1.049.643,2.093,1.286a1.344,1.344,0,0,0,.484.218c.118-.158.239-.309.348-.469.268-.4.526-.8.794-1.2.114-.171.248-.192.433-.07q1.278.833,2.553,1.67a1.751,1.751,0,0,1,.2.161.307.307,0,0,1,.055.313,2.083,2.083,0,0,1-.122.223c-.321.464-.641.93-.968,1.39a2.074,2.074,0,0,1-.244.245" transform="translate(-6.308 -9.654)"/>
    <path id="Path_5496" data-name="Path 5496" d="M374.033,809.647c.54.267,1.046.628,1.58.943s1.036.661,1.592.953c.551-.612.836-1.343,1.358-1.887.347.188,2.673,1.673,2.943,1.888a1.157,1.157,0,0,1,.161.2.949.949,0,0,1-.077.238q-.545.806-1.1,1.6a1.139,1.139,0,0,1-.213.177c-1.054-.529-1.978-1.28-3.041-1.808a4.4,4.4,0,0,0-.687.889,3.729,3.729,0,0,1-.648.843.5.5,0,0,1-.119-.015q-1.436-.81-2.87-1.628a.356.356,0,0,1-.159-.506c.362-.6.734-1.2,1.109-1.8.026-.041.1-.054.176-.094" transform="translate(-5.519 -9.976)"/>
    <path id="Path_5497" data-name="Path 5497" d="M329.678,810.156a5.31,5.31,0,0,1,1.082.6c.342.2.675.411,1.015.615a8.681,8.681,0,0,0,1.107.635,3.845,3.845,0,0,0,.71-.946,10.537,10.537,0,0,1,.632-.9,1.069,1.069,0,0,1,.254.084q1.314.854,2.621,1.716a.559.559,0,0,1,.183.171.316.316,0,0,1,.038.235,1.813,1.813,0,0,1-.207.365q-.473.7-.955,1.4a.266.266,0,0,1-.306.072c-.148-.082-.3-.164-.438-.254-.671-.417-1.341-.837-2.012-1.251a1.815,1.815,0,0,0-.371-.2.257.257,0,0,0-.229.05c-.225.29-.432.591-.645.89a5.393,5.393,0,0,1-.551.745,1.472,1.472,0,0,1-.259-.077q-1.29-.728-2.577-1.461a2.93,2.93,0,0,1-.279-.191.325.325,0,0,1-.077-.385c.363-.6.731-1.2,1.1-1.8.026-.043.089-.063.164-.114" transform="translate(-4.858 -10.002)"/>
    <path id="Path_5498" data-name="Path 5498" d="M331.135,791.875c.508.018,1.017.034,1.525.053a2.91,2.91,0,0,1,1.142.294.554.554,0,0,1,.307.706,2.836,2.836,0,0,1-.162.389,13.085,13.085,0,0,1-1.579,2.4,3.6,3.6,0,0,1-1.72,1.18c-.754.237-1.5.505-2.248.756a.814.814,0,0,1-.248.048c-.043,0-.089-.043-.127-.074-.01-.01,0-.065.017-.08a5.641,5.641,0,0,1,.524-.419c.758-.492,1.526-.971,2.285-1.461.356-.229.7-.474,1.045-.723.062-.045.136-.17.116-.208a.429.429,0,0,0-.236-.208,5.83,5.83,0,0,0-1-.158c-.706-.026-1.412,0-2.119-.021a3.573,3.573,0,0,0-.989.207.078.078,0,0,1-.07-.02c-.027-.045-.073-.1-.06-.143a2.965,2.965,0,0,1,.178-.472c.216-.428.44-.853.666-1.276a1.316,1.316,0,0,1,1.229-.759c.508,0,1.017,0,1.525,0Z" transform="translate(-4.837 -8.934)"/>
    <path id="Path_5502" data-name="Path 5502" d="M422.067,795.813c-.112-.212-.21-.413-.322-.6a6.479,6.479,0,0,0-.5-.785,2.5,2.5,0,0,0-.568-.5.956.956,0,0,0-1.237.15,1.688,1.688,0,0,0-.507,1.047c-.038.422-.091.843-.123,1.265q-.117,1.565-.221,3.131a2.868,2.868,0,0,1-.16.915,2.055,2.055,0,0,1-.219.356.209.209,0,0,1-.3,0,1.312,1.312,0,0,1-.185-.278c-.157-.395-.316-.788-.446-1.19a8.5,8.5,0,0,0-1.2-2.325c-.139-.194-.2-.195-.373-.008-.137.152-.218.168-.343.056-.378-.341-.755-.683-1.126-1.031a.493.493,0,0,1-.187-.454,11.532,11.532,0,0,1,.313-1.714.251.251,0,0,1,.337.027c.221.174.445.348.648.543a8.962,8.962,0,0,1,2.23,3.462c.134.372.248.752.379,1.126a.143.143,0,0,0,.122.068.166.166,0,0,0,.112-.106c.033-.336.069-.673.072-1.011a13.4,13.4,0,0,1,.172-2.366c.114-.609.26-1.214.411-1.817a2.138,2.138,0,0,1,.72-1.125,1.234,1.234,0,0,1,1.633-.077,3.081,3.081,0,0,1,1.294,2.107,1.239,1.239,0,0,1-.206.97,1.039,1.039,0,0,1-.222.171" transform="translate(-6.302 -8.949)"/>
    <path id="Path_5503" data-name="Path 5503" d="M350.005,808.563a.85.85,0,0,0,.238-.634c.013-.453.026-.9.029-1.355a13.226,13.226,0,0,1,.51-3.341,2.383,2.383,0,0,1,.607-1.1,1.914,1.914,0,0,1,.256-.221,1.1,1.1,0,0,1,1.271-.058,2.781,2.781,0,0,1,.748.68,3.384,3.384,0,0,1,.66,1.631,1.185,1.185,0,0,1-.278.946.144.144,0,0,1-.214-.013c-.1-.2-.2-.4-.3-.605a2.982,2.982,0,0,0-.626-.9,2.128,2.128,0,0,0-.472-.352.8.8,0,0,0-.879.072,1.493,1.493,0,0,0-.6.894,6.676,6.676,0,0,0-.132.922c-.086,1.126-.156,2.253-.238,3.38-.028.366-.073.731-.115,1.1a1.127,1.127,0,0,1-.274.608.226.226,0,0,1-.3-.018,2.085,2.085,0,0,1-.211-.36c-.149-.4-.284-.8-.416-1.2a8.783,8.783,0,0,0-1.256-2.423l-.415.332c-.125-.1-.259-.207-.38-.322-.287-.272-.568-.549-.851-.825a.527.527,0,0,1-.154-.466c.076-.529.162-1.059.252-1.586a.2.2,0,0,1,.331-.1,7.4,7.4,0,0,1,.58.492,9.042,9.042,0,0,1,2.243,3.643c.123.371.245.745.388,1.179" transform="translate(-5.12 -9.639)"/>
    <path id="Path_5506" data-name="Path 5506" d="M318.414,797.611a.576.576,0,0,0,.211-.526q.031-.719.037-1.441a13.147,13.147,0,0,1,.513-3.342,2.363,2.363,0,0,1,.615-1.095,1.845,1.845,0,0,1,.257-.221,1.1,1.1,0,0,1,1.274-.038,2.857,2.857,0,0,1,.935.966,3.623,3.623,0,0,1,.45,1.271,1.2,1.2,0,0,1-.355,1.1c-.069-.067-.143-.11-.177-.175-.131-.25-.239-.513-.374-.761a2.539,2.539,0,0,0-.831-.945.911.911,0,0,0-1.166.106,1.559,1.559,0,0,0-.483.876c-.053.335-.1.671-.121,1.009-.083,1.127-.157,2.257-.237,3.384-.018.254-.048.507-.083.76a2.875,2.875,0,0,1-.087.412c-.065.222-.273.443-.374.409a.536.536,0,0,1-.316-.374q-.231-.637-.448-1.279a7.973,7.973,0,0,0-1.239-2.367c-.2.009-.24.174-.347.259-.052-.01-.119,0-.151-.03q-.563-.515-1.118-1.038a.524.524,0,0,1-.2-.449c.078-.558.17-1.116.261-1.671a.19.19,0,0,1,.271-.109,6.652,6.652,0,0,1,.588.48A9.149,9.149,0,0,1,318,796.415a6.456,6.456,0,0,0,.417,1.2" transform="translate(-4.467 -8.937)"/>
    <path id="Path_5508" data-name="Path 5508" d="M375.164,803.552l-.316.424a12.494,12.494,0,0,1-1.316-1.132.514.514,0,0,1-.159-.464c.071-.5.152-1,.234-1.506a.2.2,0,0,1,.325-.128,8.061,8.061,0,0,1,.662.527,8.812,8.812,0,0,1,2.344,3.676c.09.267.194.525.295.786a.08.08,0,0,0,.065.038c.046-.019.122-.045.124-.077.032-.307.068-.615.07-.925a16.664,16.664,0,0,1,.151-2.2,12.311,12.311,0,0,1,.46-1.975,2.1,2.1,0,0,1,.65-.976,1.24,1.24,0,0,1,1.632-.106,3.011,3.011,0,0,1,1.305,2.185,1.064,1.064,0,0,1-.289.857.147.147,0,0,1-.215-.006c-.107-.2-.212-.4-.317-.6a2.878,2.878,0,0,0-.785-.988,1,1,0,0,0-1.6.217,1.573,1.573,0,0,0-.331.857c-.052.646-.113,1.294-.165,1.941-.066.846-.127,1.691-.189,2.537a1.554,1.554,0,0,1-.341.938.22.22,0,0,1-.3,0,1.211,1.211,0,0,1-.189-.278c-.158-.391-.314-.786-.45-1.185a8.542,8.542,0,0,0-1.352-2.446" transform="translate(-5.524 -9.489)"/>
    <path id="Path_5510" data-name="Path 5510" d="M389.164,807.606a3.388,3.388,0,0,1,.373-1.249.767.767,0,0,1,.294-.288,3.38,3.38,0,0,1,.46-.211q4.849-2.12,9.7-4.235c.2-.087.386-.248.631-.164.015.053.053.11.039.149-.079.212-.182.413-.253.628a1,1,0,0,1-.621.646c-.262.1-.51.239-.768.354q-4.485,2-8.971,4c-.255.113-.513.218-.882.375" transform="translate(-5.787 -9.575)"/>
    <path id="Path_5511" data-name="Path 5511" d="M429.121,833.642a5.356,5.356,0,0,0,.183-.538,1.1,1.1,0,0,1,.789-.8q4.944-1.889,9.877-3.8a2.779,2.779,0,0,1,.322-.106.192.192,0,0,1,.148.029.173.173,0,0,1,.053.146c-.293.959-.368,1.056-1.274,1.414q-4.8,1.9-9.613,3.783c-.078.031-.157.067-.236.094s-.171.046-.224-.04a.54.54,0,0,1-.025-.182" transform="translate(-6.39 -11.05)"/>
    <path id="Path_5512" data-name="Path 5512" d="M425.517,829.627c-.439.187-.8.349-1.167.494q-4.455,1.759-8.915,3.506c-.234.093-.474.171-.715.252-.073.024-.16-.08-.141-.161.007-.028,0-.057.014-.083.441-1.249.234-1.034,1.4-1.485q4.546-1.759,9.1-3.506c.237-.091.475-.177.716-.255a.172.172,0,0,1,.145.051.182.182,0,0,1,.014.153c-.139.339-.289.671-.447,1.034" transform="translate(-6.314 -11.05)"/>
    <path id="Path_5515" data-name="Path 5515" d="M332.395,810.508c-1.1-.669-2.15-1.311-3.16-1.95.009-.131-.007-.2.019-.24q.587-.975,1.185-1.942a.3.3,0,0,1,.442-.091c.311.193.616.392.921.592.588.386,1.176.77,1.76,1.163a2.248,2.248,0,0,1,.295.292c-.367.7-.817,1.312-1.226,1.949a1.652,1.652,0,0,1-.236.225" transform="translate(-4.855 -9.797)"/>
    <path id="Path_5517" data-name="Path 5517" d="M406.134,813.73c.244-1.561.241-1.3,1.205-1.83,1.973-1.093,3.959-2.165,5.941-3.242a5.994,5.994,0,0,1,.613-.275c.024-.01.11.054.111.085a2.513,2.513,0,0,1-.294,1.046.475.475,0,0,1-.185.169c-.214.137-.43.271-.652.393q-3.028,1.691-6.061,3.375a1.543,1.543,0,0,1-.679.279" transform="translate(-6.005 -9.941)"/>
    <path id="Path_5518" data-name="Path 5518" d="M424.11,791.423a5.62,5.62,0,0,1,.708-1.321,1.015,1.015,0,0,1,.577-.329,1.809,1.809,0,0,1,.338-.026c.649,0,1.3.009,1.947.01a3.279,3.279,0,0,1,.994.2.379.379,0,0,1,.247.539,6.364,6.364,0,0,1-1.61,2.05,2.387,2.387,0,0,1-.74.395c-.588.2-1.189.358-1.787.522a.644.644,0,0,1-.234-.031c.081-.193.245-.252.39-.333.714-.4,1.429-.8,2.139-1.208a.883.883,0,0,0,.237-.228c.021-.027-.007-.137-.033-.144a2.05,2.05,0,0,0-.49-.11,14.648,14.648,0,0,0-2.368.015c-.083.009-.167,0-.315,0" transform="translate(-6.343 -8.909)"/>
    <path id="Path_5520" data-name="Path 5520" d="M408.1,829.3c-.008-.082-.048-.176-.019-.239.174-.385.35-.771.55-1.144a1.748,1.748,0,0,1,.959-.792.688.688,0,0,1,.877.3,1.891,1.891,0,0,1,.225,1.546,6.8,6.8,0,0,1-1.462,2.646c-.075.085-.154.166-.234.247a8.664,8.664,0,0,1-2.914,1.84c-.041.016-.1-.015-.155-.036s-.073-.168-.014-.222c.166-.151.328-.307.5-.446q1.13-.893,2.266-1.78a4.3,4.3,0,0,0,.92-.988,1.077,1.077,0,0,0,.081-1.052.666.666,0,0,0-1.049-.287c-.177.129-.259.376-.535.4" transform="translate(-5.97 -11.049)"/>
    <path id="Path_5525" data-name="Path 5525" d="M307.231,797.732a4.565,4.565,0,0,1-.1,1.8,2.844,2.844,0,0,1-.416.923,1.072,1.072,0,0,1-.447.38.6.6,0,0,1-.492.017,1.379,1.379,0,0,1-.59-.468,2.952,2.952,0,0,1-.6-1.647,7.258,7.258,0,0,1,.2-2.358c.295-1.12.62-2.232.938-3.347a.979.979,0,0,1,.157-.294.167.167,0,0,1,.148-.044.15.15,0,0,1,.084.121,2.9,2.9,0,0,1-.06.5c-.184.77-.386,1.536-.562,2.307-.121.523-.212,1.053-.318,1.58a2.594,2.594,0,0,0,.1,1.419,2.085,2.085,0,0,0,.144.307.742.742,0,0,0,.686.421.726.726,0,0,0,.668-.449,4,4,0,0,0,.187-.646c.034-.137.032-.283.075-.414.015-.047.117-.065.2-.109" transform="translate(-4.411 -8.95)"/>
    <path id="Path_5526" data-name="Path 5526" d="M395.767,797.213a4.139,4.139,0,0,1-.123,1.882,4.477,4.477,0,0,1-.388.841.927.927,0,0,1-.44.386.6.6,0,0,1-.49.025,1.342,1.342,0,0,1-.6-.461,2.953,2.953,0,0,1-.611-1.644,7.23,7.23,0,0,1,.2-2.359c.294-1.12.619-2.233.935-3.347a.476.476,0,0,1,.217-.345.151.151,0,0,1,.138.032.207.207,0,0,1,.047.156c-.032.194-.073.386-.116.579q-.413,1.861-.828,3.723a2.56,2.56,0,0,0,.127,1.5,1.313,1.313,0,0,0,.206.367.709.709,0,0,0,1.164-.01,1.881,1.881,0,0,0,.265-.614c.054-.189.05-.392.1-.584.011-.048.115-.075.2-.128" transform="translate(-5.766 -8.947)"/>
    <path id="Path_5527" data-name="Path 5527" d="M411.4,800.08a4.251,4.251,0,0,1-.291,2.363,1.663,1.663,0,0,1-.5.675.636.636,0,0,1-.79.051,2.182,2.182,0,0,1-.5-.45,2.935,2.935,0,0,1-.581-1.656,7.506,7.506,0,0,1,.216-2.356c.283-1.095.606-2.177.915-3.265a1.132,1.132,0,0,1,.1-.237c.039-.072.089-.142.192-.136a.152.152,0,0,1,.121.182c-.033.193-.064.389-.112.578-.32,1.231-.589,2.474-.832,3.723a2.707,2.707,0,0,0,.12,1.5,1.417,1.417,0,0,0,.2.371.718.718,0,0,0,1.215-.047,2.268,2.268,0,0,0,.234-.628c.044-.163.038-.339.081-.5.016-.058.113-.095.208-.168" transform="translate(-5.99 -8.969)"/>
    <path id="Path_5529" data-name="Path 5529" d="M314.67,825.046c-.033-.1-.1-.208-.071-.248.29-.414.574-.838.9-1.222a1.6,1.6,0,0,1,1.05-.494.741.741,0,0,1,.77.419,1.65,1.65,0,0,1,.08,1.393,4.225,4.225,0,0,1-1.267,1.871,6.325,6.325,0,0,1-2.4,1.2.623.623,0,0,1-.244-.024c-.057-.007-.119-.161-.08-.209a.9.9,0,0,1,.223-.24c.345-.2.7-.371,1.046-.555a5.891,5.891,0,0,0,1.258-.853,2.878,2.878,0,0,0,.342-.373.753.753,0,0,0-.96-1.115c-.217.128-.415.287-.646.449" transform="translate(-4.457 -11.044)"/>
    <path id="Path_5533" data-name="Path 5533" d="M338.007,807.4a5.52,5.52,0,0,1,.259-1.672c.188-.592.431-1.165.66-1.743.026-.068.112-.115.174-.167a.094.094,0,0,1,.08-.008.118.118,0,0,1,.053.064.563.563,0,0,1-.037.409c-.2.56-.4,1.119-.593,1.679a2.185,2.185,0,0,0-.009,1.495,1.051,1.051,0,0,0,.471.58.474.474,0,0,0,.7-.236c.086-.238.133-.489.208-.731a1.877,1.877,0,0,1,.144-.3c.011-.018.051-.037.066-.03a.341.341,0,0,1,.132.089.275.275,0,0,1,.043.158,8.023,8.023,0,0,1-.266,1.672,1.7,1.7,0,0,1-.421.724.581.581,0,0,1-.7.114,1.51,1.51,0,0,1-.785-.848,3.673,3.673,0,0,1-.179-1.25" transform="translate(-4.973 -9.698)"/>
    <path id="Path_5535" data-name="Path 5535" d="M394.466,809.482a6.357,6.357,0,0,1,.35-1.907c.159-.481.361-.948.545-1.421a.963.963,0,0,1,.087-.144c.042-.072.178-.12.216-.072s.072.1.064.144a3.673,3.673,0,0,1-.128.488c-.174.507-.357,1.011-.53,1.518a2.264,2.264,0,0,0-.006,1.5.953.953,0,0,0,.626.64.407.407,0,0,0,.448-.147,1.907,1.907,0,0,0,.181-.378c.06-.188.1-.384.148-.574.065-.237.154-.327.246-.268a.286.286,0,0,1,.114.291,7.621,7.621,0,0,1-.259,1.584,1.756,1.756,0,0,1-.342.673.665.665,0,0,1-.906.159,1.51,1.51,0,0,1-.682-.83,3.217,3.217,0,0,1-.172-1.25" transform="translate(-5.782 -9.816)"/>
    <path id="Path_5536" data-name="Path 5536" d="M350.266,794.742a8.6,8.6,0,0,1-.287,1.618,1.682,1.682,0,0,1-.371.656.645.645,0,0,1-.774.142,1.456,1.456,0,0,1-.732-.787,3.119,3.119,0,0,1-.2-.991,6.323,6.323,0,0,1,.225-1.842,11.128,11.128,0,0,1,.705-1.9.3.3,0,0,1,.111-.124.181.181,0,0,1,.149-.018.162.162,0,0,1,.073.134,3.718,3.718,0,0,1-.127.488c-.173.507-.355,1.012-.529,1.518a2.277,2.277,0,0,0-.012,1.495.953.953,0,0,0,.623.643.408.408,0,0,0,.452-.138,1.784,1.784,0,0,0,.181-.38c.078-.241.133-.489.2-.734.027-.1.138-.162.185-.11a.982.982,0,0,1,.119.2.559.559,0,0,1,.011.131" transform="translate(-5.115 -8.931)"/>
    <path id="Path_5537" data-name="Path 5537" d="M319.539,811.982a8.575,8.575,0,0,1,.284-1.692,8.936,8.936,0,0,1,.742-1.886c.038-.068.176-.095.211-.038a.293.293,0,0,1,.06.148,1.1,1.1,0,0,1-.065.243c-.12.347-.244.692-.364,1.04-.1.293-.21.584-.295.883a2.03,2.03,0,0,0,.118,1.485.885.885,0,0,0,.563.479.4.4,0,0,0,.446-.158,1.857,1.857,0,0,0,.171-.381c.075-.242.13-.491.2-.733.013-.041.084-.066.13-.09.064-.032.153.054.158.148a5.2,5.2,0,0,1-.307,1.909,1.927,1.927,0,0,1-.294.509.644.644,0,0,1-.839.164,1.5,1.5,0,0,1-.74-.889,3.928,3.928,0,0,1-.136-.576c-.03-.195-.034-.393-.048-.565" transform="translate(-4.487 -9.95)"/>
    <path id="Path_5538" data-name="Path 5538" d="M309.877,816.164c.154.046.24.12.231.246a8.066,8.066,0,0,1-.254,1.669,1.787,1.787,0,0,1-.4.735.628.628,0,0,1-.694.163,1.318,1.318,0,0,1-.738-.665,2.352,2.352,0,0,1-.244-.891,6,6,0,0,1,.2-2.094,8.729,8.729,0,0,1,.759-1.964c.027-.048.138-.057.209-.063.016,0,.052.1.052.148a.834.834,0,0,1-.04.247c-.039.135-.091.267-.138.4-.167.478-.335.958-.5,1.437a2.1,2.1,0,0,0,.027,1.41,1,1,0,0,0,.554.607.432.432,0,0,0,.573-.2c.091-.235.147-.484.225-.724.053-.156.118-.307.176-.459" transform="translate(-4.427 -10.315)"/>
    <path id="Path_5540" data-name="Path 5540" d="M376.9,795.411c-.08.414-.171.912-.27,1.409a1.555,1.555,0,0,1-.35.668.658.658,0,0,1-.837.17,1.466,1.466,0,0,1-.682-.724,2.561,2.561,0,0,1-.2-.818,6.1,6.1,0,0,1,.186-2.011,10.087,10.087,0,0,1,.738-1.974.331.331,0,0,1,.2-.125c.071-.02.13.149.1.272-.021.082-.043.164-.071.244-.083.24-.175.475-.255.716-.134.4-.261.8-.391,1.205a1.909,1.909,0,0,0,.085,1.243.928.928,0,0,0,.569.588.423.423,0,0,0,.516-.161,4.408,4.408,0,0,0,.209-.549c.062-.186.1-.379.163-.565.014-.042.1-.1.114-.093a.443.443,0,0,1,.16.168,1.307,1.307,0,0,1,.022.339" transform="translate(-5.497 -8.935)"/>
    <path id="Path_5543" data-name="Path 5543" d="M351.365,829.552c-.008-.039-.015-.08-.023-.119.01.01.031.024.029.032a.541.541,0,0,1-.03.071Z" transform="translate(-5.152 -11.052)"/>
  </g>
</svg>
