<svg xmlns="http://www.w3.org/2000/svg" width="25.153" height="26.13" viewBox="0 0 25.153 26.13"><path d="M41.8,23.345l-1.718-.992a10.282,10.282,0,0,0,0-2.576l1.718-.992a1.261,1.261,0,0,0,.582-1.449,13.043,13.043,0,0,0-3.031-5.247,1.265,1.265,0,0,0-1.551-.226l-1.715.99a10.227,10.227,0,0,0-2.231-1.29V9.583a1.265,1.265,0,0,0-.974-1.231,13.157,13.157,0,0,0-6.046,0,1.265,1.265,0,0,0-.974,1.231v1.982a10.226,10.226,0,0,0-2.231,1.29l-1.715-.99a1.265,1.265,0,0,0-1.551.226,13.043,13.043,0,0,0-3.031,5.247,1.261,1.261,0,0,0,.582,1.449l1.718.992a10.282,10.282,0,0,0,0,2.576l-1.718.992a1.261,1.261,0,0,0-.582,1.449,13.043,13.043,0,0,0,3.031,5.247,1.265,1.265,0,0,0,1.551.226l1.715-.99a10.225,10.225,0,0,0,2.231,1.29v1.982a1.265,1.265,0,0,0,.974,1.231,13.157,13.157,0,0,0,6.046,0,1.265,1.265,0,0,0,.974-1.231V30.565a10.228,10.228,0,0,0,2.231-1.29l1.715.99a1.265,1.265,0,0,0,1.551-.226,13.043,13.043,0,0,0,3.031-5.247,1.261,1.261,0,0,0-.582-1.449Zm-3.45,5.292-2.44-1.409a9.1,9.1,0,0,1-3.742,2.163v2.817a11.44,11.44,0,0,1-4.622,0V29.392A9.1,9.1,0,0,1,23.8,27.229l-2.44,1.409a11.38,11.38,0,0,1-2.314-4l2.441-1.409a9.179,9.179,0,0,1,0-4.324l-2.441-1.409a11.387,11.387,0,0,1,2.314-4L23.8,14.9a9.089,9.089,0,0,1,3.742-2.164V9.921a11.421,11.421,0,0,1,4.622,0v2.817A9.089,9.089,0,0,1,35.906,14.9l2.44-1.41a11.386,11.386,0,0,1,2.314,4L38.219,18.9a9.178,9.178,0,0,1,0,4.324l2.441,1.409A11.379,11.379,0,0,1,38.346,28.637Zm-8.493-12.63a5.057,5.057,0,1,0,5.057,5.057A5.063,5.063,0,0,0,29.852,16.008Zm0,8.429a3.372,3.372,0,1,1,3.372-3.372A3.375,3.375,0,0,1,29.852,24.437Z" transform="translate(-17.276 -8)" fill="#3a2b20" opacity="0"/><path d="M42.394,23.684l-2.158-1.246a9.759,9.759,0,0,0,0-3.557l2.158-1.246a.612.612,0,0,0,.279-.709A12.619,12.619,0,0,0,39.9,12.132a.61.61,0,0,0-.75-.117l-2.158,1.246a9.562,9.562,0,0,0-3.08-1.778V9a.607.607,0,0,0-.476-.593,12.737,12.737,0,0,0-5.533,0A.607.607,0,0,0,27.427,9v2.493a9.864,9.864,0,0,0-3.08,1.778l-2.153-1.246a.6.6,0,0,0-.75.117,12.543,12.543,0,0,0-2.771,4.793.606.606,0,0,0,.279.709l2.158,1.246a9.759,9.759,0,0,0,0,3.557l-2.158,1.246a.612.612,0,0,0-.279.709,12.619,12.619,0,0,0,2.771,4.793.61.61,0,0,0,.75.117l2.158-1.246a9.562,9.562,0,0,0,3.08,1.778v2.493a.607.607,0,0,0,.476.593,12.737,12.737,0,0,0,5.533,0,.607.607,0,0,0,.476-.593V29.84A9.863,9.863,0,0,0,37,28.061l2.158,1.246a.6.6,0,0,0,.75-.117A12.543,12.543,0,0,0,42.677,24.4.626.626,0,0,0,42.394,23.684ZM30.67,24.712a4.053,4.053,0,1,1,4.053-4.053A4.059,4.059,0,0,1,30.67,24.712Z" transform="translate(-18.644 -7.664)" fill="#3a2b20"/></svg>