<svg xmlns="http://www.w3.org/2000/svg" width="341.75" height="350.75" viewBox="0 0 341.75 350.75">
  <g id="Group_1659" data-name="Group 1659" transform="translate(-120.038 -238.688)">
    <g id="Group_1665" data-name="Group 1665">
      <g id="Group_1663" data-name="Group 1663">
        <path id="Path_20935" data-name="Path 20935" d="M195.33,564.682s.262,9.556-3.615,13.511a6.358,6.358,0,0,1-8.148.406c-1.234-1.235-3.7-4.871,2.76-11.467,11.988-12.239,31.352-5.184,37.312-11.269,3.372-3.446-.45-3.645-2.464-2.177,0,0-3.622-3.192-3.277-6.33,0,0,2.438-3.075,8.238,2.732,2.391,2.4,2.333,5.679-.179,8.244-7.395,7.549-24.962-.755-35.945,10.459-1.222,1.246-4.814,4.181-2.207,6.211,2.425,1.89,6.968-6.525,7.525-10.321" transform="translate(-7.311 -37.257)" fill="#ce9a18" stroke="#fff" stroke-width="0.75"/>
        <path id="Path_20936" data-name="Path 20936" d="M195.325,564.684s.262,9.556-3.616,13.511a6.358,6.358,0,0,1-8.147.407c-1.233-1.235-3.7-4.872,2.76-11.468,11.987-12.238,31.351-5.184,37.311-11.268,3.372-3.447-.45-3.646-2.464-2.178,0,0-3.622-3.192-3.277-6.33,0,0,2.438-3.075,8.237,2.732,2.392,2.4,2.334,5.679-.178,8.245-7.395,7.549-24.961-.756-35.944,10.459-1.222,1.246-4.814,4.181-2.207,6.211C190.225,576.9,194.767,568.48,195.325,564.684Z" transform="translate(-7.31 -37.257)" fill="none" stroke="#fff" stroke-linecap="round" stroke-linejoin="round" stroke-width="0.75"/>
        <path id="Path_20955" data-name="Path 20955" d="M138.472,430.031s-6.529-6.913-12.038-6.913c-3.775,0-6.019,3.818-6.019,5.571s.817,6.087,10,6.087c17.035,0,25.705-18.88,34.172-18.88,4.8,0,2.245,2.89-.2,3.3,0,0-.307,4.848,2.14,6.81,0,0,3.878.411,3.878-7.843,0-3.4-2.346-5.675-5.918-5.675-10.507,0-17.035,18.467-32.642,18.467-1.735,0-6.324.516-5.915-2.786.378-3.068,9.486-.411,12.546,1.859" transform="translate(0 -20.988)" fill="#ce9a18" stroke="#fff" stroke-width="0.75"/>
        <path id="Path_20956" data-name="Path 20956" d="M138.468,430.033s-6.528-6.913-12.038-6.913c-3.775,0-6.018,3.818-6.018,5.571s.817,6.087,10,6.087c17.035,0,25.705-18.88,34.171-18.88,4.8,0,2.246,2.889-.2,3.3,0,0-.306,4.849,2.141,6.81,0,0,3.878.412,3.878-7.842,0-3.4-2.347-5.675-5.918-5.675-10.506,0-17.034,18.467-32.641,18.467-1.735,0-6.324.516-5.915-2.786C126.3,425.106,135.409,427.764,138.468,430.033Z" transform="translate(0 -20.988)" fill="none" stroke="#fff" stroke-linecap="round" stroke-linejoin="round" stroke-width="0.75"/>
        <path id="Path_20959" data-name="Path 20959" d="M198.312,387.107c3.789-.852,5.962-2.454,6.428-6.551,1.334-11.747-11.707-14.081-38.025-5.1a94.811,94.811,0,0,0,7.828,13.254l3.112-1.753a87.644,87.644,0,0,1-5.968-9.594c22.187-6.809,29.684-3.919,29.684,2.732,0,2.884-1.707,3.532-5.508,3.922" transform="translate(-5.571 -15.843)" fill="#ce9a18" stroke="#fff" stroke-width="0.75"/>
        <path id="Path_20960" data-name="Path 20960" d="M198.306,387.11c3.789-.852,5.961-2.454,6.429-6.55,1.332-11.749-11.708-14.083-38.025-5.106a94.731,94.731,0,0,0,7.828,13.254l3.113-1.754a87.21,87.21,0,0,1-5.968-9.594c22.186-6.808,29.683-3.919,29.683,2.733,0,2.884-1.707,3.532-5.509,3.922Z" transform="translate(-5.57 -15.843)" fill="none" stroke="#fff" stroke-linecap="round" stroke-linejoin="round" stroke-width="0.75"/>
        <path id="Path_20961" data-name="Path 20961" d="M194.039,389.547c-8.6,1.078-19.486.309-22.443,9.387-1.675,5.145,1.049,7.377,1.049,7.377,2.6,3.482,3.27.064,2.235-1.94,0,0,5.649-4.956,6-2.137.559,4.539-3.467,7.067-3.467,7.067-5.507,2.631-9.639-1.393-9.639-8.51,0,0-3.979-.619-2.906-3.4s4.435.152,4.435.152-3.672-1.233-2.6-3.868,3.823.465,3.823.465,4.285-6.189,15-7.272c2.429-.247,3.9-.343,5.816-.464" transform="translate(-5.326 -17.831)" fill="#ce9a18" stroke="#fff" stroke-width="0.75"/>
        <path id="Path_20962" data-name="Path 20962" d="M194.035,389.549c-8.594,1.079-19.485.309-22.443,9.387-1.675,5.145,1.049,7.377,1.049,7.377,2.6,3.482,3.271.064,2.236-1.94,0,0,5.648-4.955,6-2.137.559,4.54-3.468,7.067-3.468,7.067-5.507,2.631-9.638-1.393-9.638-8.509,0,0-3.979-.619-2.906-3.4s4.435.152,4.435.152-3.673-1.233-2.6-3.868,3.824.465,3.824.465,4.285-6.189,15-7.272c2.429-.247,3.9-.343,5.815-.464Z" transform="translate(-5.326 -17.831)" fill="none" stroke="#fff" stroke-linecap="round" stroke-linejoin="round" stroke-width="0.75"/>
        <path id="Path_20963" data-name="Path 20963" d="M188.28,368.438a9.735,9.735,0,0,1,.724-7.866c2.431-4.825,5.878-4.493,5.878-4.493,4.271-.622,2.367,2.282.239,2.968,0,0,.565,7.544,2.774,5.786,3.557-2.824,2.453-7.487,2.453-7.487-2.082-5.791-7.817-5.871-12.769-.813,0,0-3.258-2.393-4.435.348s3.259,3.048,3.259,3.048-3.467-1.735-4.539.9,3.041,2.391,3.041,2.391a12.525,12.525,0,0,0,.315,5.684" transform="translate(-7.276 -13.77)" fill="#ce9a18" stroke="#fff" stroke-width="0.75"/>
        <path id="Path_20964" data-name="Path 20964" d="M188.275,368.442a9.731,9.731,0,0,1,.724-7.866c2.431-4.826,5.879-4.494,5.879-4.494,4.27-.622,2.365,2.283.238,2.969,0,0,.565,7.544,2.774,5.785,3.556-2.824,2.453-7.486,2.453-7.486-2.082-5.791-7.817-5.87-12.769-.813,0,0-3.258-2.393-4.435.348s3.258,3.048,3.258,3.048-3.466-1.736-4.538.9,3.041,2.391,3.041,2.391a12.546,12.546,0,0,0,.314,5.684Z" transform="translate(-7.275 -13.771)" fill="none" stroke="#fff" stroke-linecap="round" stroke-linejoin="round" stroke-width="0.75"/>
        <path id="Path_20965" data-name="Path 20965" d="M185.95,374.666A24.086,24.086,0,0,0,190,381.625c6.239,7.636,11.091,11.108,7.752,14.516-3.527,3.6-9.249,3.5-16.65-6a16.219,16.219,0,0,0-3.52,1.5c9.2,12.035,18.361,12.791,22.885,6.569,5.706-7.85-6.5-15.174-11.329-24.014" transform="translate(-6.879 -16.355)" fill="#ce9a18" stroke="#fff" stroke-width="0.75"/>
        <path id="Path_20966" data-name="Path 20966" d="M185.945,374.669A24.084,24.084,0,0,0,190,381.628c6.238,7.636,11.09,11.108,7.751,14.517-3.527,3.6-9.249,3.5-16.649-6a16.2,16.2,0,0,0-3.52,1.5c9.2,12.034,18.36,12.791,22.884,6.569,5.706-7.849-6.5-15.174-11.329-24.013Z" transform="translate(-6.878 -16.355)" fill="none" stroke="#fff" stroke-linecap="round" stroke-linejoin="round" stroke-width="0.75"/>
        <path id="Path_20967" data-name="Path 20967" d="M138.5,442.936s-6.529,6.913-12.037,6.913c-3.775,0-6.021-3.816-6.021-5.571s.818-6.088,10-6.088c17.036,0,25.705,18.88,34.172,18.88,4.8,0,2.245-2.889-.2-3.3,0,0-.308-4.847,2.142-6.809,0,0,3.877-.413,3.877,7.84,0,3.407-2.345,5.674-5.918,5.674-10.508,0-17.035-18.465-32.642-18.465-1.736,0-6.325-.516-5.917,2.784.377,3.073,9.486.412,12.547-1.857" transform="translate(-0.004 -24.098)" fill="#ce9a18" stroke="#fff" stroke-width="0.75"/>
        <path id="Path_20968" data-name="Path 20968" d="M138.5,442.939s-6.528,6.913-12.036,6.913c-3.774,0-6.021-3.816-6.021-5.572s.819-6.086,10-6.086c17.035,0,25.705,18.879,34.171,18.879,4.794,0,2.245-2.889-.2-3.3,0,0-.309-4.848,2.141-6.81,0,0,3.877-.413,3.877,7.84,0,3.407-2.345,5.675-5.918,5.675-10.507,0-17.034-18.465-32.641-18.465-1.737,0-6.325-.516-5.917,2.785C126.331,447.869,135.441,445.208,138.5,442.939Z" transform="translate(-0.004 -24.098)" fill="none" stroke="#fff" stroke-linecap="round" stroke-linejoin="round" stroke-width="0.75"/>
        <path id="Path_20969" data-name="Path 20969" d="M187.645,554.952s-9.45-.264-13.363,3.657c-2.681,2.686-1.62,7-.4,8.241s4.817,3.743,11.336-2.789c12.105-12.126,5.128-31.708,11.143-37.733,3.407-3.413,3.6.454,2.153,2.489,0,0,3.156,3.663,6.26,3.313,0,0,3.04-2.464-2.7-8.328-2.371-2.42-5.616-2.365-8.153.179-7.465,7.478.748,25.245-10.342,36.352-1.232,1.235-4.134,4.867-6.142,2.233-1.867-2.452,6.452-7.048,10.207-7.612" transform="translate(-6.28 -34.26)" fill="#ce9a18" stroke="#fff" stroke-width="0.75"/>
        <path id="Path_20970" data-name="Path 20970" d="M187.64,554.954s-9.45-.263-13.362,3.656c-2.681,2.687-1.62,7-.4,8.243s4.818,3.742,11.336-2.789c12.105-12.126,5.128-31.71,11.143-37.734,3.406-3.413,3.6.454,2.153,2.489,0,0,3.156,3.663,6.26,3.314,0,0,3.039-2.465-2.7-8.328-2.371-2.42-5.616-2.365-8.152.178-7.464,7.479.748,25.244-10.341,36.352-1.232,1.235-4.134,4.867-6.143,2.233C175.568,560.114,183.886,555.518,187.64,554.954Z" transform="translate(-6.28 -34.26)" fill="none" stroke="#fff" stroke-linecap="round" stroke-linejoin="round" stroke-width="0.75"/>
        <path id="Path_20971" data-name="Path 20971" d="M198.344,486.346c3.786.852,5.96,2.457,6.427,6.551,1.334,11.749-11.708,14.083-38.025,5.108a94.646,94.646,0,0,1,7.829-13.258l3.111,1.752a87.974,87.974,0,0,0-5.968,9.595c22.187,6.81,29.685,3.922,29.685-2.734,0-2.883-1.707-3.528-5.509-3.92" transform="translate(-5.575 -29.731)" fill="#ce9a18" stroke="#fff" stroke-width="0.75"/>
        <path id="Path_20972" data-name="Path 20972" d="M198.338,486.349c3.786.852,5.96,2.457,6.427,6.55,1.334,11.749-11.708,14.083-38.023,5.108a94.6,94.6,0,0,1,7.828-13.257l3.111,1.752a87.7,87.7,0,0,0-5.967,9.595c22.186,6.81,29.683,3.922,29.683-2.733,0-2.884-1.707-3.529-5.509-3.921Z" transform="translate(-5.574 -29.731)" fill="none" stroke="#fff" stroke-linecap="round" stroke-linejoin="round" stroke-width="0.75"/>
        <path id="Path_20973" data-name="Path 20973" d="M194.07,483.225c-8.594-1.078-19.481-.309-22.443-9.385-1.675-5.146,1.049-7.377,1.049-7.377,2.6-3.484,3.269-.064,2.234,1.938,0,0,5.651,4.957,6,2.137.559-4.536-3.467-7.067-3.467-7.067-5.506-2.631-9.639,1.393-9.639,8.512,0,0-3.979.618-2.906,3.4s4.436-.154,4.436-.154-3.672,1.238-2.6,3.868,3.825-.465,3.825-.465,4.285,6.189,15,7.273c2.429.248,3.9.345,5.816.465" transform="translate(-5.33 -27.06)" fill="#ce9a18" stroke="#fff" stroke-width="0.75"/>
        <path id="Path_20974" data-name="Path 20974" d="M194.064,483.226c-8.594-1.078-19.481-.309-22.443-9.385-1.673-5.145,1.049-7.377,1.049-7.377,2.6-3.484,3.27-.064,2.234,1.938,0,0,5.651,4.958,6,2.138.558-4.537-3.467-7.068-3.467-7.068-5.507-2.63-9.64,1.394-9.64,8.513,0,0-3.978.617-2.906,3.4s4.436-.154,4.436-.154-3.672,1.238-2.6,3.868,3.825-.464,3.825-.464,4.284,6.189,15,7.273c2.429.247,3.9.345,5.815.464Z" transform="translate(-5.329 -27.06)" fill="none" stroke="#fff" stroke-linecap="round" stroke-linejoin="round" stroke-width="0.75"/>
        <path id="Path_20975" data-name="Path 20975" d="M188.309,505.383a9.732,9.732,0,0,0,.727,7.864c2.431,4.826,5.877,4.494,5.877,4.494,4.27.622,2.365-2.279.238-2.968,0,0,.565-7.543,2.776-5.786,3.553,2.826,2.453,7.486,2.453,7.486-2.083,5.79-7.818,5.873-12.771.814,0,0-3.257,2.393-4.434-.347s3.261-3.049,3.261-3.049-3.469,1.735-4.541-.9,3.042-2.393,3.042-2.393a12.526,12.526,0,0,1,.313-5.681" transform="translate(-7.279 -32.17)" fill="#ce9a18" stroke="#fff" stroke-width="0.75"/>
        <path id="Path_20976" data-name="Path 20976" d="M188.3,505.385a9.732,9.732,0,0,0,.727,7.864c2.431,4.825,5.877,4.494,5.877,4.494,4.27.622,2.365-2.279.237-2.968,0,0,.565-7.543,2.777-5.786,3.552,2.826,2.453,7.486,2.453,7.486-2.083,5.789-7.817,5.872-12.77.815,0,0-3.257,2.393-4.434-.348s3.261-3.049,3.261-3.049-3.469,1.736-4.54-.9,3.04-2.393,3.04-2.393a12.545,12.545,0,0,1,.313-5.682Z" transform="translate(-7.279 -32.17)" fill="none" stroke="#fff" stroke-linecap="round" stroke-linejoin="round" stroke-width="0.75"/>
        <path id="Path_20977" data-name="Path 20977" d="M185.982,497.539a24.065,24.065,0,0,1,4.054-6.959c6.239-7.636,11.091-11.108,7.751-14.516-3.528-3.6-9.25-3.5-16.649,6a16.269,16.269,0,0,1-3.522-1.495c9.207-12.036,18.364-12.791,22.885-6.571,5.708,7.851-6.494,15.178-11.329,24.014" transform="translate(-6.882 -27.97)" fill="#ce9a18" stroke="#fff" stroke-width="0.75"/>
        <path id="Path_20978" data-name="Path 20978" d="M185.977,497.541a24.053,24.053,0,0,1,4.054-6.959c6.238-7.636,11.09-11.108,7.751-14.516-3.528-3.6-9.25-3.5-16.649,6a16.3,16.3,0,0,1-3.522-1.493c9.207-12.037,18.363-12.792,22.884-6.572,5.708,7.851-6.494,15.178-11.328,24.013Z" transform="translate(-6.882 -27.97)" fill="none" stroke="#fff" stroke-linecap="round" stroke-linejoin="round" stroke-width="0.75"/>
        <path id="Path_20982" data-name="Path 20982" d="M152.225,436.682a24.32,24.32,0,0,1-8.385-2.734,41.293,41.293,0,0,0,4.514-2.813s8.135,4.051,9.971-4.1c0,0,3.879,1.136,2.45,5.777,0,0,5.215-1.9,6.95,3.876-1.736,5.777-6.924,3.873-6.924,3.873,1.429,4.646-2.449,5.779-2.449,5.779-1.834-8.149-9.97-4.1-9.97-4.1a41.423,41.423,0,0,0-4.515-2.811,23.863,23.863,0,0,1,8.358-2.747" transform="translate(-2.819 -22.747)" fill="#f77e0b" stroke="#fff" stroke-width="0.75"/>
        <path id="Path_20986" data-name="Path 20986" d="M212.186,541.632c-5.253-2.872-7.47,2.445-7.47,2.445-2.216-4.317-5.758-2.365-5.758-2.365,4.366,7.1-4.232,10.01-4.232,10.01a41.947,41.947,0,0,1-1.25,5.211,25.716,25.716,0,0,0,5.783-2.327,19.1,19.1,0,0,0-2.282,6.028,40.948,40.948,0,0,1,5.151-1.267s2.882-8.693,9.9-4.278c0,0,1.932-3.584-2.334-5.824,0,0,5.333-2.321,2.5-7.633" transform="translate(-8.675 -36.512)" fill="#f77e0b" stroke="#fff" stroke-width="0.75"/>
      </g>
      <g id="Group_1662" data-name="Group 1662">
        <path id="Path_20897" data-name="Path 20897" d="M431.006,387.208c-3.788-.851-5.962-2.454-6.425-6.552-1.336-11.748,11.707-14.08,38.025-5.1a94.86,94.86,0,0,1-7.829,13.255l-3.111-1.752a87.568,87.568,0,0,0,5.966-9.595c-22.189-6.81-29.685-3.919-29.685,2.734,0,2.882,1.707,3.532,5.507,3.92" transform="translate(-36.008 -15.855)" fill="#ce9a18" stroke="#fff" stroke-width="0.75"/>
        <path id="Path_20898" data-name="Path 20898" d="M430.994,387.21c-3.788-.851-5.961-2.454-6.426-6.552-1.335-11.747,11.708-14.08,38.024-5.1a94.7,94.7,0,0,1-7.828,13.256l-3.111-1.752a87.732,87.732,0,0,0,5.966-9.595c-22.188-6.811-29.684-3.92-29.684,2.733,0,2.882,1.707,3.532,5.507,3.92Z" transform="translate(-36.006 -15.855)" fill="none" stroke="#fff" stroke-linecap="round" stroke-linejoin="round" stroke-width="0.75"/>
        <path id="Path_20899" data-name="Path 20899" d="M436.482,389.647c8.592,1.078,19.481.311,22.442,9.388,1.674,5.143-1.051,7.374-1.051,7.374-2.6,3.484-3.269.064-2.234-1.94,0,0-5.65-4.955-6-2.137-.557,4.54,3.467,7.071,3.467,7.071,5.509,2.629,9.639-1.394,9.639-8.513,0,0,3.979-.619,2.908-3.4s-4.438.154-4.438.154,3.673-1.238,2.6-3.868-3.827.464-3.827.464-4.284-6.19-14.992-7.271c-2.43-.247-3.9-.345-5.816-.465" transform="translate(-37.451 -17.843)" fill="#ce9a18" stroke="#fff" stroke-width="0.75"/>
        <path id="Path_20900" data-name="Path 20900" d="M436.47,389.65c8.591,1.078,19.48.311,22.441,9.388,1.675,5.143-1.05,7.375-1.05,7.375-2.6,3.483-3.269.063-2.235-1.941,0,0-5.65-4.955-6-2.137-.557,4.539,3.467,7.071,3.467,7.071,5.509,2.629,9.64-1.394,9.64-8.513,0,0,3.978-.62,2.907-3.4s-4.438.154-4.438.154,3.673-1.237,2.6-3.868-3.827.465-3.827.465-4.284-6.189-14.992-7.271c-2.43-.248-3.9-.345-5.816-.465Z" transform="translate(-37.449 -17.843)" fill="none" stroke="#fff" stroke-linecap="round" stroke-linejoin="round" stroke-width="0.75"/>
        <path id="Path_20901" data-name="Path 20901" d="M443.678,368.536a9.7,9.7,0,0,0-.726-7.863c-2.431-4.827-5.877-4.5-5.877-4.5-4.269-.623-2.365,2.282-.237,2.968,0,0-.567,7.544-2.776,5.786-3.552-2.824-2.454-7.488-2.454-7.488,2.084-5.789,7.82-5.872,12.77-.813,0,0,3.26-2.393,4.436.35s-3.26,3.048-3.26,3.048,3.469-1.736,4.54.9-3.044,2.394-3.044,2.394a12.515,12.515,0,0,1-.312,5.682" transform="translate(-36.845 -13.782)" fill="#ce9a18" stroke="#fff" stroke-width="0.75"/>
        <path id="Path_20902" data-name="Path 20902" d="M443.665,368.539a9.709,9.709,0,0,0-.726-7.863c-2.431-4.826-5.877-4.5-5.877-4.5-4.268-.623-2.365,2.282-.237,2.968,0,0-.567,7.545-2.776,5.787-3.552-2.825-2.454-7.489-2.454-7.489,2.084-5.789,7.82-5.872,12.769-.812,0,0,3.26-2.393,4.436.35s-3.26,3.047-3.26,3.047,3.469-1.735,4.54.9-3.044,2.394-3.044,2.394a12.525,12.525,0,0,1-.311,5.683Z" transform="translate(-36.843 -13.783)" fill="none" stroke="#fff" stroke-linecap="round" stroke-linejoin="round" stroke-width="0.75"/>
        <path id="Path_20903" data-name="Path 20903" d="M445.249,374.765a23.98,23.98,0,0,1-4.054,6.958c-6.238,7.637-11.088,11.109-7.753,14.517,3.532,3.6,9.252,3.5,16.652-6a16.2,16.2,0,0,1,3.519,1.5c-9.205,12.035-18.359,12.792-22.884,6.571-5.706-7.852,6.495-15.176,11.332-24.015" transform="translate(-36.579 -16.367)" fill="#ce9a18" stroke="#fff" stroke-width="0.75"/>
        <path id="Path_20904" data-name="Path 20904" d="M445.236,374.768a23.978,23.978,0,0,1-4.054,6.958c-6.237,7.637-11.088,11.109-7.752,14.517,3.531,3.6,9.252,3.5,16.651-6a16.154,16.154,0,0,1,3.519,1.5c-9.205,12.034-18.358,12.791-22.884,6.571-5.7-7.853,6.5-15.176,11.332-24.015Z" transform="translate(-36.578 -16.367)" fill="none" stroke="#fff" stroke-linecap="round" stroke-linejoin="round" stroke-width="0.75"/>
        <path id="Path_20905" data-name="Path 20905" d="M442.379,555.05s9.448-.262,13.363,3.658c2.68,2.688,1.62,7,.4,8.242s-4.816,3.742-11.338-2.791c-12.1-12.125-5.125-31.708-11.142-37.733-3.406-3.413-3.6.454-2.153,2.491,0,0-3.155,3.661-6.261,3.31,0,0-3.038-2.463,2.705-8.328,2.368-2.418,5.613-2.362,8.149.179,7.465,7.478-.745,25.245,10.342,36.352,1.232,1.235,4.135,4.868,6.143,2.233,1.865-2.453-6.452-7.044-10.207-7.612" transform="translate(-36.002 -34.272)" fill="#ce9a18" stroke="#fff" stroke-width="0.75"/>
        <path id="Path_20906" data-name="Path 20906" d="M442.367,555.052s9.448-.263,13.363,3.658c2.679,2.687,1.619,7,.4,8.241s-4.816,3.743-11.337-2.79c-12.1-12.125-5.125-31.709-11.142-37.734-3.406-3.412-3.6.455-2.152,2.492,0,0-3.155,3.661-6.262,3.31,0,0-3.037-2.463,2.705-8.327,2.368-2.419,5.613-2.363,8.149.178,7.465,7.478-.745,25.244,10.342,36.352,1.232,1.235,4.135,4.868,6.144,2.233C454.439,560.211,446.121,555.619,442.367,555.052Z" transform="translate(-36.001 -34.272)" fill="none" stroke="#fff" stroke-linecap="round" stroke-linejoin="round" stroke-width="0.75"/>
        <path id="Path_20907" data-name="Path 20907" d="M430.975,486.447c-3.788.852-5.96,2.456-6.427,6.551-1.334,11.75,11.706,14.083,38.024,5.106a94.467,94.467,0,0,0-7.829-13.254l-3.111,1.752a87.518,87.518,0,0,1,5.966,9.6c-22.185,6.807-29.682,3.917-29.682-2.734,0-2.884,1.708-3.531,5.509-3.922" transform="translate(-36.004 -29.743)" fill="#ce9a18" stroke="#fff" stroke-width="0.75"/>
        <path id="Path_20908" data-name="Path 20908" d="M430.963,486.448c-3.788.852-5.96,2.456-6.427,6.55-1.334,11.751,11.706,14.083,38.022,5.106a94.471,94.471,0,0,0-7.828-13.254L451.62,486.6a87.641,87.641,0,0,1,5.966,9.6C435.4,503,427.9,500.116,427.9,493.464c0-2.883,1.708-3.53,5.509-3.921Z" transform="translate(-36.002 -29.743)" fill="none" stroke="#fff" stroke-linecap="round" stroke-linejoin="round" stroke-width="0.75"/>
        <path id="Path_20909" data-name="Path 20909" d="M436.449,483.325c8.594-1.078,19.483-.309,22.442-9.39,1.674-5.143-1.049-7.373-1.049-7.373-2.6-3.484-3.268-.064-2.234,1.935,0,0-5.649,4.959-6,2.139-.559-4.539,3.464-7.067,3.464-7.067,5.508-2.629,9.64,1.392,9.64,8.51,0,0,3.978.62,2.906,3.405s-4.437-.156-4.437-.156,3.672,1.238,2.6,3.869-3.825-.464-3.825-.464-4.284,6.189-15,7.273c-2.427.245-3.9.344-5.814.464" transform="translate(-37.447 -27.072)" fill="#ce9a18" stroke="#fff" stroke-width="0.75"/>
        <path id="Path_20910" data-name="Path 20910" d="M436.436,483.328c8.594-1.078,19.482-.309,22.441-9.39,1.674-5.144-1.049-7.374-1.049-7.374-2.6-3.483-3.268-.063-2.234,1.937,0,0-5.649,4.958-6,2.139-.558-4.54,3.465-7.068,3.465-7.068,5.507-2.629,9.64,1.392,9.64,8.51,0,0,3.978.621,2.9,3.405s-4.437-.156-4.437-.156,3.672,1.239,2.6,3.869-3.825-.464-3.825-.464-4.284,6.188-15,7.273c-2.427.245-3.9.344-5.813.464Z" transform="translate(-37.445 -27.073)" fill="none" stroke="#fff" stroke-linecap="round" stroke-linejoin="round" stroke-width="0.75"/>
        <path id="Path_20911" data-name="Path 20911" d="M443.649,505.484a9.732,9.732,0,0,1-.727,7.864c-2.431,4.827-5.88,4.494-5.88,4.494-4.267.622-2.366-2.282-.238-2.968,0,0-.563-7.543-2.774-5.786-3.554,2.826-2.454,7.488-2.454,7.488,2.084,5.789,7.818,5.872,12.774.814,0,0,3.254,2.393,4.433-.351s-3.261-3.046-3.261-3.046,3.469,1.735,4.541-.9-3.043-2.394-3.043-2.394a12.508,12.508,0,0,0-.313-5.681" transform="translate(-36.841 -32.182)" fill="#ce9a18" stroke="#fff" stroke-width="0.75"/>
        <path id="Path_20912" data-name="Path 20912" d="M443.636,505.486a9.732,9.732,0,0,1-.727,7.864c-2.431,4.827-5.88,4.494-5.88,4.494-4.267.621-2.365-2.282-.237-2.968,0,0-.564-7.544-2.774-5.787-3.553,2.826-2.454,7.489-2.454,7.489,2.085,5.789,7.818,5.872,12.774.813,0,0,3.254,2.394,4.433-.351s-3.261-3.046-3.261-3.046,3.469,1.736,4.54-.9-3.042-2.394-3.042-2.394a12.511,12.511,0,0,0-.313-5.682Z" transform="translate(-36.84 -32.183)" fill="none" stroke="#fff" stroke-linecap="round" stroke-linejoin="round" stroke-width="0.75"/>
        <path id="Path_20913" data-name="Path 20913" d="M445.217,497.638a24.052,24.052,0,0,0-4.054-6.959c-6.238-7.636-11.091-11.109-7.753-14.514,3.53-3.6,9.253-3.5,16.652,6a16.17,16.17,0,0,0,3.52-1.5c-9.207-12.035-18.361-12.792-22.886-6.569-5.707,7.85,6.495,15.175,11.33,24.014" transform="translate(-36.576 -27.981)" fill="#ce9a18" stroke="#fff" stroke-width="0.75"/>
        <path id="Path_20914" data-name="Path 20914" d="M445.2,497.64a24.056,24.056,0,0,0-4.054-6.959c-6.237-7.635-11.09-11.108-7.752-14.514,3.53-3.6,9.252-3.5,16.651,6a16.126,16.126,0,0,0,3.52-1.5c-9.207-12.034-18.36-12.791-22.886-6.569-5.706,7.85,6.5,15.175,11.331,24.014Z" transform="translate(-36.574 -27.982)" fill="none" stroke="#fff" stroke-linecap="round" stroke-linejoin="round" stroke-width="0.75"/>
        <path id="Path_20945" data-name="Path 20945" d="M432.866,564.649s-.259,9.556,3.617,13.513a6.358,6.358,0,0,0,8.149.4c1.232-1.235,3.7-4.868-2.76-11.467-11.989-12.239-31.354-5.184-37.313-11.268-3.371-3.446.452-3.645,2.464-2.177,0,0,3.622-3.191,3.278-6.328,0,0-2.439-3.078-8.237,2.731-2.392,2.4-2.336,5.677.176,8.244,7.4,7.549,24.964-.756,35.948,10.458,1.219,1.246,4.811,4.181,2.2,6.212-2.425,1.889-6.965-6.525-7.527-10.323" transform="translate(-33.099 -37.253)" fill="#ce9a18" stroke="#fff" stroke-width="0.75"/>
        <path id="Path_20946" data-name="Path 20946" d="M432.854,564.65s-.259,9.556,3.616,13.513a6.358,6.358,0,0,0,8.15.4c1.232-1.234,3.7-4.868-2.759-11.467-11.989-12.238-31.354-5.183-37.313-11.267-3.372-3.446.451-3.645,2.463-2.177,0,0,3.622-3.191,3.277-6.329,0,0-2.439-3.078-8.236,2.732-2.391,2.4-2.336,5.677.175,8.244,7.4,7.549,24.964-.757,35.947,10.458,1.22,1.246,4.812,4.18,2.205,6.212C437.956,576.863,433.416,568.449,432.854,564.65Z" transform="translate(-33.098 -37.253)" fill="none" stroke="#fff" stroke-linecap="round" stroke-linejoin="round" stroke-width="0.75"/>
        <path id="Path_20980" data-name="Path 20980" d="M419.983,542.013c-2.837,5.312,2.159,7.265,2.159,7.265-4.266,2.24-2.335,5.825-2.335,5.825,7.02-4.417,9.9,4.278,9.9,4.278a40.983,40.983,0,0,1,5.152,1.265,24.107,24.107,0,0,0-2.133-5.7,18.937,18.937,0,0,0,5.693,2.112,41.908,41.908,0,0,1-1.249-5.21s-8.6-2.914-4.232-10.012c0,0-3.542-1.95-5.759,2.364,0,0-1.939-5.063-7.193-2.192" transform="translate(-35.466 -36.554)" fill="#f77e0b" stroke="#fff" stroke-width="0.75"/>
        <path id="Path_20983" data-name="Path 20983" d="M471.964,436.781a24.3,24.3,0,0,0,8.385-2.734,41.519,41.519,0,0,1-4.514-2.81s-8.135,4.048-9.971-4.1c0,0-3.876,1.137-2.448,5.779,0,0-5.217-1.9-6.95,3.875,1.733,5.776,6.923,3.872,6.923,3.872-1.429,4.644,2.446,5.78,2.446,5.78,1.838-8.15,9.969-4.1,9.969-4.1a41.684,41.684,0,0,1,4.517-2.812,23.807,23.807,0,0,0-8.358-2.746" transform="translate(-39.855 -22.759)" fill="#f77e0b" stroke="#fff" stroke-width="0.75"/>
        <path id="Path_20987" data-name="Path 20987" d="M482.5,430.129s6.527-6.912,12.038-6.912c3.773,0,6.02,3.82,6.02,5.572s-.817,6.086-10,6.086c-17.034,0-25.706-18.879-34.172-18.879-4.8,0-2.244,2.891.2,3.3,0,0,.307,4.849-2.141,6.81,0,0-3.876.412-3.876-7.84,0-3.407,2.343-5.677,5.917-5.677,10.505,0,17.035,18.469,32.641,18.469,1.736,0,6.326.515,5.919-2.787-.38-3.07-9.487-.413-12.548,1.856" transform="translate(-39.146 -21)" fill="#ce9a18" stroke="#fff" stroke-width="0.75"/>
        <path id="Path_20988" data-name="Path 20988" d="M482.488,430.132s6.526-6.912,12.037-6.912c3.773,0,6.02,3.82,6.02,5.572s-.816,6.087-10,6.087c-17.035,0-25.706-18.879-34.171-18.879-4.8,0-2.244,2.891.2,3.3,0,0,.307,4.849-2.142,6.81,0,0-3.875.412-3.875-7.841,0-3.406,2.343-5.677,5.917-5.677,10.505,0,17.033,18.47,32.64,18.47,1.736,0,6.325.515,5.918-2.787C494.655,425.206,485.549,427.864,482.488,430.132Z" transform="translate(-39.145 -21)" fill="none" stroke="#fff" stroke-linecap="round" stroke-linejoin="round" stroke-width="0.75"/>
        <path id="Path_20989" data-name="Path 20989" d="M482.471,443.037s6.527,6.913,12.035,6.913c3.776,0,6.022-3.818,6.022-5.573s-.82-6.086-10-6.086c-17.036,0-25.705,18.881-34.173,18.881-4.792,0-2.243-2.891.2-3.3,0,0,.3-4.847-2.141-6.808,0,0-3.876-.415-3.876,7.84,0,3.4,2.343,5.674,5.914,5.674,10.508,0,17.035-18.465,32.643-18.465,1.736,0,6.326-.519,5.916,2.783-.377,3.071-9.486.413-12.545-1.856" transform="translate(-39.142 -24.11)" fill="#ce9a18" stroke="#fff" stroke-width="0.75"/>
        <path id="Path_20990" data-name="Path 20990" d="M482.458,443.04s6.526,6.913,12.035,6.913c3.776,0,6.021-3.818,6.021-5.573s-.819-6.086-10-6.086c-17.036,0-25.705,18.88-34.172,18.88-4.792,0-2.244-2.892.205-3.3,0,0,.3-4.847-2.142-6.809,0,0-3.875-.415-3.875,7.841,0,3.4,2.343,5.673,5.914,5.673,10.508,0,17.034-18.464,32.642-18.464,1.735,0,6.326-.519,5.915,2.783C494.625,447.968,485.516,445.308,482.458,443.04Z" transform="translate(-39.141 -24.111)" fill="none" stroke="#fff" stroke-linecap="round" stroke-linejoin="round" stroke-width="0.75"/>
      </g>
      <g id="Group_1661" data-name="Group 1661">
        <path id="Path_20895" data-name="Path 20895" d="M440.865,313.752s9.448.264,13.363-3.657c2.678-2.686,1.618-7,.4-8.241s-4.815-3.743-11.336,2.791c-12.1,12.124-5.125,31.706-11.142,37.734-3.406,3.411-3.6-.455-2.153-2.49,0,0-3.155-3.664-6.258-3.314,0,0-3.043,2.466,2.7,8.328,2.368,2.421,5.616,2.363,8.152-.178,7.463-7.478-.748-25.244,10.342-36.353,1.232-1.234,4.135-4.866,6.14-2.231,1.867,2.451-6.452,7.044-10.2,7.61" transform="translate(-35.82 -7.418)" fill="#ce9a18" stroke="#fff" stroke-width="0.75"/>
        <path id="Path_20896" data-name="Path 20896" d="M440.852,313.755s9.448.264,13.363-3.656c2.678-2.686,1.618-7,.394-8.242s-4.814-3.743-11.335,2.792c-12.1,12.124-5.125,31.705-11.142,37.733-3.405,3.411-3.6-.455-2.152-2.49,0,0-3.155-3.664-6.258-3.315,0,0-3.043,2.466,2.7,8.328,2.368,2.422,5.616,2.365,8.152-.177,7.463-7.478-.748-25.244,10.342-36.353,1.231-1.234,4.134-4.866,6.14-2.23C452.924,308.6,444.6,313.189,440.852,313.755Z" transform="translate(-35.819 -7.418)" fill="none" stroke="#fff" stroke-linecap="round" stroke-linejoin="round" stroke-width="0.75"/>
        <path id="Path_20915" data-name="Path 20915" d="M195.254,307.02s.26-9.556-3.617-13.513a6.359,6.359,0,0,0-8.148-.4c-1.233,1.235-3.7,4.869,2.759,11.467,11.988,12.239,31.354,5.184,37.311,11.268,3.375,3.446-.448,3.646-2.463,2.176,0,0-3.619,3.195-3.275,6.332,0,0,2.438,3.076,8.236-2.733,2.393-2.4,2.334-5.677-.178-8.243-7.393-7.55-24.961.754-35.946-10.461-1.222-1.244-4.813-4.179-2.205-6.211,2.424-1.888,6.965,6.526,7.526,10.323" transform="translate(-7.302 -6.347)" fill="#ce9a18" stroke="#fff" stroke-width="0.75"/>
        <path id="Path_20916" data-name="Path 20916" d="M195.248,307.024s.26-9.556-3.616-13.513c-2.656-2.714-6.915-1.638-8.148-.4s-3.7,4.869,2.76,11.467c11.987,12.238,31.353,5.183,37.31,11.267,3.374,3.446-.449,3.647-2.463,2.176,0,0-3.619,3.2-3.276,6.332,0,0,2.438,3.076,8.236-2.734,2.393-2.4,2.334-5.677-.177-8.243-7.394-7.55-24.96.754-35.945-10.459-1.222-1.245-4.812-4.18-2.206-6.212C190.147,294.813,194.687,303.228,195.248,307.024Z" transform="translate(-7.301 -6.347)" fill="none" stroke="#fff" stroke-linecap="round" stroke-linejoin="round" stroke-width="0.75"/>
        <path id="Path_20917" data-name="Path 20917" d="M266.826,317.838c-.843,3.831-2.426,6.028-6.479,6.5-11.616,1.349-13.925-11.84-5.048-38.455A93.044,93.044,0,0,1,268.4,293.8l-1.734,3.148a85.928,85.928,0,0,0-9.486-6.036c-6.731,22.439-3.876,30.02,2.705,30.02,2.848,0,3.491-1.725,3.875-5.569" transform="translate(-15.374 -5.633)" fill="#ce9a18" stroke="#fff" stroke-width="0.75"/>
        <path id="Path_20918" data-name="Path 20918" d="M266.818,317.841c-.843,3.831-2.426,6.028-6.478,6.5-11.616,1.349-13.925-11.839-5.048-38.454A93.142,93.142,0,0,1,268.4,293.8l-1.734,3.148a85.878,85.878,0,0,0-9.487-6.036c-6.731,22.439-3.876,30.02,2.705,30.02,2.848,0,3.491-1.725,3.875-5.569Z" transform="translate(-15.373 -5.634)" fill="none" stroke="#fff" stroke-linecap="round" stroke-linejoin="round" stroke-width="0.75"/>
        <path id="Path_20919" data-name="Path 20919" d="M269.239,313.516c1.067-8.691.3-19.7,9.281-22.695,5.088-1.7,7.294,1.059,7.294,1.059,3.444,2.629.063,3.3-1.917,2.261,0,0-4.9,5.711-2.114,6.065,4.488.564,6.989-3.507,6.989-3.507,2.6-5.568-1.375-9.748-8.415-9.748,0,0-.613-4.024-3.366-2.94s.152,4.486.152,4.486-1.225-3.711-3.825-2.63.459,3.87.459,3.87-6.123,4.332-7.191,15.164c-.243,2.456-.34,3.945-.458,5.883" transform="translate(-17.298 -5.386)" fill="#ce9a18" stroke="#fff" stroke-width="0.75"/>
        <path id="Path_20920" data-name="Path 20920" d="M269.232,313.519c1.067-8.691.3-19.7,9.281-22.695,5.086-1.7,7.294,1.06,7.294,1.06,3.443,2.628.062,3.3-1.918,2.26,0,0-4.9,5.712-2.114,6.066,4.488.564,6.989-3.507,6.989-3.507,2.6-5.568-1.375-9.748-8.415-9.748,0,0-.613-4.025-3.366-2.941s.152,4.486.152,4.486-1.224-3.711-3.825-2.63.46,3.87.46,3.87-6.123,4.332-7.192,15.164c-.243,2.456-.34,3.945-.457,5.883Z" transform="translate(-17.297 -5.386)" fill="none" stroke="#fff" stroke-linecap="round" stroke-linejoin="round" stroke-width="0.75"/>
        <path id="Path_20921" data-name="Path 20921" d="M248.366,307.692a9.442,9.442,0,0,0-7.78.734c-4.768,2.46-4.441,5.944-4.441,5.944-.616,4.317,2.256,2.393,2.934.241,0,0,7.459.57,5.722,2.805-2.794,3.6-7.405,2.483-7.405,2.483-5.725-2.106-5.805-7.907-.8-12.915,0,0-2.365-3.294.344-4.486s3.015,3.3,3.015,3.3-1.715-3.51.887-4.594,2.365,3.077,2.365,3.077a12.151,12.151,0,0,1,5.62.318" transform="translate(-13.366 -7.498)" fill="#ce9a18" stroke="#fff" stroke-width="0.75"/>
        <path id="Path_20922" data-name="Path 20922" d="M248.36,307.7a9.436,9.436,0,0,0-7.779.735c-4.769,2.459-4.441,5.943-4.441,5.943-.616,4.317,2.255,2.393,2.933.241,0,0,7.46.57,5.723,2.805-2.794,3.594-7.4,2.483-7.4,2.483-5.726-2.106-5.806-7.907-.8-12.915,0,0-2.365-3.3.344-4.485s3.015,3.3,3.015,3.3-1.715-3.51.887-4.593,2.365,3.076,2.365,3.076a12.132,12.132,0,0,1,5.619.318Z" transform="translate(-13.365 -7.499)" fill="none" stroke="#fff" stroke-linecap="round" stroke-linejoin="round" stroke-width="0.75"/>
        <path id="Path_20923" data-name="Path 20923" d="M254.524,305.336a23.667,23.667,0,0,1,6.881,4.1c7.549,6.306,10.983,11.214,14.354,7.836,3.561-3.564,3.46-9.354-5.934-16.838a16.592,16.592,0,0,1,1.48-3.559c11.9,9.31,12.648,18.57,6.5,23.143-7.764,5.772-15.007-6.568-23.745-11.457" transform="translate(-15.862 -6.956)" fill="#ce9a18" stroke="#fff" stroke-width="0.75"/>
        <path id="Path_20924" data-name="Path 20924" d="M254.517,305.339a23.717,23.717,0,0,1,6.881,4.1c7.549,6.306,10.983,11.214,14.353,7.837,3.561-3.564,3.46-9.354-5.934-16.839a16.565,16.565,0,0,1,1.481-3.558c11.9,9.309,12.647,18.569,6.5,23.143-7.763,5.771-15.006-6.568-23.744-11.457Z" transform="translate(-15.862 -6.956)" fill="none" stroke="#fff" stroke-linecap="round" stroke-linejoin="round" stroke-width="0.75"/>
        <path id="Path_20925" data-name="Path 20925" d="M431.243,305.98s-.261-9.556,3.617-13.514a6.356,6.356,0,0,1,8.146-.4c1.235,1.234,3.7,4.868-2.758,11.466-11.99,12.239-31.354,5.184-37.313,11.266-3.372,3.446.451,3.647,2.463,2.177,0,0,3.622,3.194,3.278,6.332,0,0-2.438,3.076-8.236-2.733-2.392-2.4-2.336-5.678.176-8.243,7.4-7.55,24.964.755,35.946-10.459,1.222-1.246,4.814-4.181,2.21-6.212-2.428-1.889-6.971,6.526-7.527,10.323" transform="translate(-32.903 -6.222)" fill="#ce9a18" stroke="#fff" stroke-width="0.75"/>
        <path id="Path_20926" data-name="Path 20926" d="M431.23,305.983s-.261-9.555,3.616-13.514a6.355,6.355,0,0,1,8.146-.4c1.236,1.233,3.7,4.867-2.757,11.465-11.989,12.239-31.353,5.183-37.313,11.267-3.372,3.446.451,3.645,2.463,2.177,0,0,3.622,3.192,3.278,6.331,0,0-2.438,3.076-8.236-2.733-2.391-2.4-2.336-5.678.176-8.243,7.4-7.55,24.963.756,35.945-10.459,1.222-1.246,4.814-4.181,2.209-6.212C436.331,293.772,431.788,302.187,431.23,305.983Z" transform="translate(-32.902 -6.222)" fill="none" stroke="#fff" stroke-linecap="round" stroke-linejoin="round" stroke-width="0.75"/>
        <path id="Path_20927" data-name="Path 20927" d="M364.951,317.869c.839,3.831,2.424,6.028,6.476,6.5,11.618,1.351,13.925-11.836,5.049-38.453a93.325,93.325,0,0,0-13.109,7.918l1.736,3.147a85.977,85.977,0,0,1,9.486-6.035c6.732,22.439,3.876,30.02-2.7,30.02-2.848,0-3.491-1.725-3.876-5.571" transform="translate(-28.848 -5.637)" fill="#ce9a18" stroke="#fff" stroke-width="0.75"/>
        <path id="Path_20928" data-name="Path 20928" d="M364.941,317.872c.839,3.831,2.425,6.028,6.475,6.5,11.618,1.351,13.925-11.836,5.049-38.453a93.133,93.133,0,0,0-13.107,7.918l1.735,3.147a85.9,85.9,0,0,1,9.486-6.036c6.733,22.439,3.876,30.02-2.7,30.02-2.848,0-3.491-1.725-3.875-5.572Z" transform="translate(-28.847 -5.638)" fill="none" stroke="#fff" stroke-linecap="round" stroke-linejoin="round" stroke-width="0.75"/>
        <path id="Path_20929" data-name="Path 20929" d="M361.865,313.547c-1.068-8.692-.3-19.7-9.283-22.694-5.085-1.7-7.292,1.059-7.292,1.059-3.444,2.629-.065,3.306,1.917,2.262,0,0,4.9,5.713,2.113,6.063-4.487.565-6.987-3.5-6.987-3.5-2.6-5.572,1.375-9.75,8.411-9.75,0,0,.614-4.022,3.371-2.938s-.154,4.486-.154,4.486,1.221-3.715,3.824-2.629-.457,3.865-.457,3.865,6.116,4.334,7.189,15.167c.243,2.455.34,3.943.459,5.88" transform="translate(-26.25 -5.39)" fill="#ce9a18" stroke="#fff" stroke-width="0.75"/>
        <path id="Path_20930" data-name="Path 20930" d="M361.855,313.55c-1.068-8.692-.3-19.7-9.284-22.693-5.084-1.7-7.291,1.058-7.291,1.058-3.444,2.629-.064,3.306,1.917,2.262,0,0,4.9,5.713,2.113,6.062-4.487.566-6.987-3.5-6.987-3.5-2.6-5.571,1.375-9.75,8.411-9.75,0,0,.614-4.023,3.371-2.939s-.154,4.486-.154,4.486,1.221-3.714,3.823-2.629-.456,3.866-.456,3.866,6.116,4.333,7.188,15.167c.243,2.454.341,3.942.46,5.879Z" transform="translate(-26.249 -5.39)" fill="none" stroke="#fff" stroke-linecap="round" stroke-linejoin="round" stroke-width="0.75"/>
        <path id="Path_20931" data-name="Path 20931" d="M383.773,307.725a9.437,9.437,0,0,1,7.777.733c4.771,2.46,4.442,5.946,4.442,5.946.615,4.318-2.255,2.392-2.933.242,0,0-7.461.57-5.723,2.8,2.795,3.6,7.4,2.486,7.4,2.486,5.727-2.11,5.806-7.908.806-12.919,0,0,2.365-3.293-.347-4.485s-3.013,3.3-3.013,3.3,1.714-3.511-.889-4.592-2.365,3.076-2.365,3.076a12.133,12.133,0,0,0-5.618.318" transform="translate(-31.22 -7.502)" fill="#ce9a18" stroke="#fff" stroke-width="0.75"/>
        <path id="Path_20932" data-name="Path 20932" d="M383.762,307.728a9.435,9.435,0,0,1,7.776.733c4.771,2.46,4.442,5.946,4.442,5.946.615,4.318-2.255,2.392-2.932.242,0,0-7.461.569-5.723,2.8,2.795,3.594,7.4,2.486,7.4,2.486,5.726-2.11,5.8-7.908.806-12.919,0,0,2.364-3.294-.347-4.485s-3.013,3.3-3.013,3.3,1.713-3.511-.89-4.592-2.365,3.076-2.365,3.076a12.118,12.118,0,0,0-5.619.318Z" transform="translate(-31.218 -7.503)" fill="none" stroke="#fff" stroke-linecap="round" stroke-linejoin="round" stroke-width="0.75"/>
        <path id="Path_20933" data-name="Path 20933" d="M376.02,305.368a23.625,23.625,0,0,0-6.884,4.1c-7.549,6.306-10.982,11.214-14.353,7.838-3.559-3.567-3.457-9.355,5.934-16.84a16.766,16.766,0,0,0-1.479-3.559c-11.9,9.311-12.648,18.571-6.5,23.145,7.763,5.771,15.006-6.569,23.745-11.46" transform="translate(-27.125 -6.96)" fill="#ce9a18" stroke="#fff" stroke-width="0.75"/>
        <path id="Path_20934" data-name="Path 20934" d="M376.009,305.372a23.675,23.675,0,0,0-6.884,4.1c-7.548,6.306-10.981,11.215-14.352,7.838-3.559-3.567-3.457-9.354,5.934-16.84a16.749,16.749,0,0,0-1.479-3.558c-11.9,9.311-12.648,18.57-6.5,23.144,7.763,5.771,15.006-6.569,23.745-11.46Z" transform="translate(-27.124 -6.96)" fill="none" stroke="#fff" stroke-linecap="round" stroke-linejoin="round" stroke-width="0.75"/>
        <path id="Path_20957" data-name="Path 20957" d="M187.614,314.723s-9.448.264-13.361-3.657c-2.68-2.686-1.62-7-.4-8.241s4.815-3.743,11.337,2.791c12.1,12.124,5.128,31.706,11.143,37.734,3.4,3.412,3.6-.455,2.15-2.49,0,0,3.158-3.662,6.261-3.314,0,0,3.043,2.467-2.7,8.329-2.368,2.421-5.615,2.362-8.153-.179-7.463-7.478.748-25.243-10.34-36.352-1.233-1.235-4.136-4.867-6.143-2.232-1.866,2.45,6.453,7.044,10.206,7.61" transform="translate(-6.277 -7.536)" fill="#ce9a18" stroke="#fff" stroke-width="0.75"/>
        <path id="Path_20958" data-name="Path 20958" d="M187.609,314.727s-9.448.263-13.361-3.657c-2.68-2.686-1.621-7-.4-8.242s4.816-3.742,11.337,2.792c12.1,12.124,5.128,31.705,11.143,37.733,3.4,3.413,3.6-.455,2.15-2.49,0,0,3.157-3.662,6.261-3.314,0,0,3.042,2.468-2.7,8.33-2.368,2.421-5.614,2.362-8.152-.179-7.463-7.477.748-25.242-10.341-36.351-1.232-1.235-4.134-4.867-6.141-2.232C175.537,309.567,183.855,314.16,187.609,314.727Z" transform="translate(-6.276 -7.536)" fill="none" stroke="#fff" stroke-linecap="round" stroke-linejoin="round" stroke-width="0.75"/>
        <path id="Path_20979" data-name="Path 20979" d="M418.071,330.8c-2.837-5.313,2.417-7.552,2.417-7.552-4.268-2.242-2.337-5.825-2.337-5.825,7.019,4.415,9.9-4.28,9.9-4.28a41.168,41.168,0,0,0,5.151-1.265,26.492,26.492,0,0,1-2.3,5.849,18.569,18.569,0,0,1,5.958-2.308,42.2,42.2,0,0,0-1.251,5.209s-8.6,2.913-4.231,10.012c0,0-3.542,1.952-5.76-2.362,0,0-2.3,5.392-7.546,2.522" transform="translate(-35.242 -8.811)" fill="#f77e0b" stroke="#fff" stroke-width="0.75"/>
        <path id="Path_20981" data-name="Path 20981" d="M211.827,331.5c-5.252,2.87-7.141-2.245-7.141-2.245-2.217,4.315-5.76,2.365-5.76,2.365,4.368-7.1-4.23-10.012-4.23-10.012a42.279,42.279,0,0,0-1.25-5.21,24.873,24.873,0,0,1,5.629,2.249,20.818,20.818,0,0,1-2.172-5.731,41.19,41.19,0,0,0,5.151,1.267s2.882,8.693,9.9,4.278c0,0,1.93,3.584-2.338,5.824,0,0,5.05,1.9,2.211,7.214" transform="translate(-8.672 -8.937)" fill="#f77e0b" stroke="#fff" stroke-width="0.75"/>
        <path id="Path_20984" data-name="Path 20984" d="M315.841,271.232a24.9,24.9,0,0,0-2.7-8.48,42.033,42.033,0,0,1-2.779,4.564s4,8.229-4.056,10.086c0,0,1.124,3.92,5.713,2.474a4.553,4.553,0,1,0,7.659.03c4.591,1.444,5.716-2.475,5.716-2.475-8.063-1.857-4.056-10.086-4.056-10.086a41.955,41.955,0,0,1-2.782-4.564,24.465,24.465,0,0,0-2.716,8.452" transform="translate(-22.072 -2.85)" fill="#f67f46" stroke="#fff" stroke-width="0.75"/>
        <path id="Path_20985" data-name="Path 20985" d="M315.832,271.236a24.918,24.918,0,0,0-2.7-8.481,42.164,42.164,0,0,1-2.779,4.565s4,8.229-4.057,10.085c0,0,1.124,3.921,5.713,2.475a4.553,4.553,0,1,0,7.659.03c4.591,1.444,5.716-2.475,5.716-2.475-8.063-1.858-4.056-10.086-4.056-10.086a41.933,41.933,0,0,1-2.782-4.565A24.476,24.476,0,0,0,315.832,271.236Z" transform="translate(-22.071 -2.851)" fill="none" stroke="#fff" stroke-linecap="round" stroke-linejoin="round" stroke-width="0.75"/>
        <path id="Path_20991" data-name="Path 20991" d="M309.27,257.32s-6.834-6.6-6.834-12.171a6.453,6.453,0,0,1,5.508-6.086c1.732,0,6.016.825,6.016,10.109,0,17.229-18.666,26-18.666,34.561,0,4.846,2.856,2.27,3.265-.207,0,0,4.8-.311,6.731,2.166,0,0,.409,3.918-7.753,3.918-3.364,0-5.61-2.372-5.61-5.981,0-10.625,18.259-17.228,18.259-33.013,0-1.752.513-6.4-2.753-5.983-3.037.382-.408,9.594,1.837,12.686" transform="translate(-20.362 0)" fill="#ce9a18" stroke="#fff" stroke-width="0.75"/>
        <path id="Path_20992" data-name="Path 20992" d="M309.261,257.324s-6.833-6.6-6.833-12.171a6.452,6.452,0,0,1,5.507-6.085c1.733,0,6.017.824,6.017,10.108,0,17.23-18.665,26-18.665,34.562,0,4.846,2.855,2.27,3.264-.208,0,0,4.8-.311,6.73,2.167,0,0,.41,3.918-7.752,3.918-3.364,0-5.61-2.372-5.61-5.981,0-10.625,18.259-17.228,18.259-33.014,0-1.752.512-6.394-2.753-5.983C304.388,245.019,307.016,254.232,309.261,257.324Z" transform="translate(-20.361 -0.001)" fill="none" stroke="#fff" stroke-linecap="round" stroke-linejoin="round" stroke-width="0.75"/>
        <path id="Path_20993" data-name="Path 20993" d="M322.026,257.353s6.832-6.6,6.832-12.173a6.454,6.454,0,0,0-5.507-6.087c-1.733,0-6.017.825-6.017,10.11,0,17.229,18.665,26,18.665,34.561,0,4.847-2.855,2.267-3.262-.207,0,0-4.8-.31-6.732,2.165,0,0-.409,3.922,7.751,3.922,3.367,0,5.61-2.373,5.61-5.984,0-10.626-18.259-17.227-18.259-33.012,0-1.754-.511-6.4,2.754-5.982,3.038.384.408,9.593-1.836,12.688" transform="translate(-23.379 -0.004)" fill="#ce9a18" stroke="#fff" stroke-width="0.75"/>
        <path id="Path_20994" data-name="Path 20994" d="M322.017,257.357s6.832-6.6,6.832-12.173a6.454,6.454,0,0,0-5.507-6.087c-1.733,0-6.016.825-6.016,10.109,0,17.23,18.664,26,18.664,34.562,0,4.847-2.855,2.267-3.263-.208,0,0-4.794-.309-6.732,2.166,0,0-.408,3.922,7.751,3.922,3.367,0,5.61-2.374,5.61-5.984,0-10.627-18.258-17.227-18.258-33.012,0-1.754-.511-6.4,2.753-5.982C326.891,245.052,324.262,254.263,322.017,257.357Z" transform="translate(-23.378 -0.004)" fill="none" stroke="#fff" stroke-linecap="round" stroke-linejoin="round" stroke-width="0.75"/>
        <path id="Path_20995" data-name="Path 20995" d="M315.841,271.232a24.9,24.9,0,0,0-2.7-8.48,42.033,42.033,0,0,1-2.779,4.564s4,8.229-4.056,10.086c0,0,1.124,3.92,5.713,2.474a4.553,4.553,0,1,0,7.659.03c4.591,1.444,5.716-2.475,5.716-2.475-8.063-1.857-4.056-10.086-4.056-10.086a41.955,41.955,0,0,1-2.782-4.564,24.465,24.465,0,0,0-2.716,8.452" transform="translate(-22.072 -2.85)" fill="#f77e0b" stroke="#fff" stroke-width="0.75"/>
        <path id="Path_20996" data-name="Path 20996" d="M309.27,257.32s-6.834-6.6-6.834-12.171a6.453,6.453,0,0,1,5.508-6.086c1.732,0,6.016.825,6.016,10.109,0,17.229-18.666,26-18.666,34.561,0,4.846,2.856,2.27,3.265-.207,0,0,4.8-.311,6.731,2.166,0,0,.409,3.918-7.753,3.918-3.364,0-5.61-2.372-5.61-5.981,0-10.625,18.259-17.228,18.259-33.013,0-1.752.513-6.4-2.753-5.983-3.037.382-.408,9.594,1.837,12.686" transform="translate(-20.362 0)" fill="#ce9a18" stroke="#fff" stroke-width="0.75"/>
        <path id="Path_20997" data-name="Path 20997" d="M309.261,257.324s-6.833-6.6-6.833-12.171a6.452,6.452,0,0,1,5.507-6.085c1.733,0,6.017.824,6.017,10.108,0,17.23-18.665,26-18.665,34.562,0,4.846,2.855,2.27,3.264-.208,0,0,4.8-.311,6.73,2.167,0,0,.41,3.918-7.752,3.918-3.364,0-5.61-2.372-5.61-5.981,0-10.625,18.259-17.228,18.259-33.014,0-1.752.512-6.394-2.753-5.983C304.388,245.019,307.016,254.232,309.261,257.324Z" transform="translate(-20.361 -0.001)" fill="none" stroke="#fff" stroke-linecap="round" stroke-linejoin="round" stroke-width="0.75"/>
        <path id="Path_20998" data-name="Path 20998" d="M322.026,257.353s6.832-6.6,6.832-12.173a6.454,6.454,0,0,0-5.507-6.087c-1.733,0-6.017.825-6.017,10.11,0,17.229,18.665,26,18.665,34.561,0,4.847-2.855,2.267-3.262-.207,0,0-4.8-.31-6.732,2.165,0,0-.409,3.922,7.751,3.922,3.367,0,5.61-2.373,5.61-5.984,0-10.626-18.259-17.227-18.259-33.012,0-1.754-.511-6.4,2.754-5.982,3.038.384.408,9.593-1.836,12.688" transform="translate(-23.379 -0.004)" fill="#ce9a18" stroke="#fff" stroke-width="0.75"/>
        <path id="Path_20999" data-name="Path 20999" d="M322.017,257.357s6.832-6.6,6.832-12.173a6.454,6.454,0,0,0-5.507-6.087c-1.733,0-6.016.825-6.016,10.109,0,17.23,18.664,26,18.664,34.562,0,4.847-2.855,2.267-3.263-.208,0,0-4.794-.309-6.732,2.166,0,0-.408,3.922,7.751,3.922,3.367,0,5.61-2.374,5.61-5.984,0-10.627-18.258-17.227-18.258-33.012,0-1.754-.511-6.4,2.753-5.982C326.891,245.052,324.262,254.263,322.017,257.357Z" transform="translate(-23.378 -0.004)" fill="none" stroke="#fff" stroke-linecap="round" stroke-linejoin="round" stroke-width="0.75"/>
      </g>
      <g id="Group_1664" data-name="Group 1664">
        <path id="Path_20937" data-name="Path 20937" d="M266.9,553.152c-.84-3.834-2.426-6.028-6.477-6.5-11.617-1.349-13.924,11.841-5.05,38.457a93.359,93.359,0,0,0,13.109-7.918l-1.734-3.149a86.065,86.065,0,0,1-9.486,6.037c-6.734-22.437-3.879-30.019,2.7-30.019,2.849,0,3.493,1.723,3.879,5.569" transform="translate(-15.383 -37.258)" fill="#ce9a18" stroke="#fff" stroke-width="0.75"/>
        <path id="Path_20938" data-name="Path 20938" d="M266.9,553.154c-.841-3.834-2.426-6.028-6.478-6.5-11.616-1.35-13.923,11.84-5.049,38.456a93.333,93.333,0,0,0,13.109-7.918l-1.735-3.149a85.831,85.831,0,0,1-9.486,6.038c-6.734-22.437-3.879-30.019,2.7-30.019,2.849,0,3.493,1.723,3.879,5.568Z" transform="translate(-15.383 -37.258)" fill="none" stroke="#fff" stroke-linecap="round" stroke-linejoin="round" stroke-width="0.75"/>
        <path id="Path_20939" data-name="Path 20939" d="M269.316,558.685c1.067,8.691.307,19.7,9.282,22.695,5.087,1.7,7.293-1.057,7.293-1.057,3.444-2.632.063-3.308-1.916-2.263,0,0-4.9-5.714-2.114-6.064,4.487-.567,6.988,3.505,6.988,3.505,2.6,5.568-1.376,9.75-8.414,9.75,0,0-.614,4.024-3.367,2.939s.152-4.486.152-4.486-1.222,3.713-3.824,2.629.458-3.867.458-3.867-6.121-4.334-7.191-15.165c-.243-2.458-.34-3.945-.458-5.881" transform="translate(-17.307 -38.717)" fill="#ce9a18" stroke="#fff" stroke-width="0.75"/>
        <path id="Path_20940" data-name="Path 20940" d="M269.309,558.687c1.067,8.691.307,19.7,9.282,22.695,5.088,1.7,7.293-1.058,7.293-1.058,3.444-2.631.062-3.308-1.917-2.262,0,0-4.9-5.714-2.114-6.065,4.487-.567,6.988,3.5,6.988,3.5,2.6,5.569-1.376,9.75-8.414,9.75,0,0-.613,4.024-3.367,2.939s.152-4.486.152-4.486-1.221,3.712-3.824,2.628.459-3.867.459-3.867-6.122-4.333-7.192-15.164c-.242-2.458-.339-3.946-.457-5.881Z" transform="translate(-17.307 -38.718)" fill="none" stroke="#fff" stroke-linecap="round" stroke-linejoin="round" stroke-width="0.75"/>
        <path id="Path_20941" data-name="Path 20941" d="M248.444,565.966a9.429,9.429,0,0,1-7.775-.733c-4.772-2.458-4.445-5.943-4.445-5.943-.616-4.321,2.256-2.395,2.935-.243,0,0,7.458-.572,5.721-2.8-2.795-3.6-7.406-2.485-7.406-2.485-5.723,2.109-5.8,7.907-.8,12.915,0,0-2.365,3.3.344,4.486s3.015-3.3,3.015-3.3-1.715,3.51.887,4.59,2.365-3.074,2.365-3.074a12.131,12.131,0,0,0,5.621-.317" transform="translate(-13.375 -38.062)" fill="#ce9a18" stroke="#fff" stroke-width="0.75"/>
        <path id="Path_20942" data-name="Path 20942" d="M248.437,565.967a9.429,9.429,0,0,1-7.776-.733c-4.772-2.459-4.445-5.944-4.445-5.944-.615-4.319,2.256-2.394,2.936-.242,0,0,7.457-.571,5.721-2.8-2.795-3.594-7.405-2.485-7.405-2.485-5.723,2.109-5.8,7.908-.8,12.916,0,0-2.365,3.3.344,4.486s3.014-3.3,3.014-3.3-1.714,3.51.888,4.59,2.365-3.075,2.365-3.075a12.131,12.131,0,0,0,5.621-.318Z" transform="translate(-13.374 -38.062)" fill="none" stroke="#fff" stroke-linecap="round" stroke-linejoin="round" stroke-width="0.75"/>
        <path id="Path_20943" data-name="Path 20943" d="M254.6,567.553a23.626,23.626,0,0,0,6.881-4.1c7.55-6.307,10.983-11.215,14.354-7.838,3.56,3.565,3.457,9.355-5.934,16.838a16.61,16.61,0,0,0,1.48,3.559c11.9-9.31,12.649-18.569,6.5-23.144-7.764-5.771-15.007,6.569-23.746,11.457" transform="translate(-15.872 -37.837)" fill="#ce9a18" stroke="#fff" stroke-width="0.75"/>
        <path id="Path_20944" data-name="Path 20944" d="M254.6,567.555a23.609,23.609,0,0,0,6.881-4.1c7.55-6.307,10.983-11.215,14.353-7.838,3.56,3.565,3.457,9.354-5.933,16.838a16.607,16.607,0,0,0,1.479,3.558c11.9-9.309,12.649-18.568,6.5-23.143-7.763-5.771-15.006,6.569-23.745,11.457Z" transform="translate(-15.871 -37.837)" fill="none" stroke="#fff" stroke-linecap="round" stroke-linejoin="round" stroke-width="0.75"/>
        <path id="Path_20947" data-name="Path 20947" d="M365.031,553.12c.84-3.831,2.426-6.029,6.476-6.5,11.619-1.351,13.924,11.837,5.05,38.453a93,93,0,0,1-13.108-7.917l1.733-3.146a86.2,86.2,0,0,0,9.486,6.034c6.732-22.438,3.879-30.019-2.7-30.019-2.849,0-3.493,1.725-3.879,5.571" transform="translate(-28.858 -37.255)" fill="#ce9a18" stroke="#fff" stroke-width="0.75"/>
        <path id="Path_20948" data-name="Path 20948" d="M365.02,553.122c.841-3.831,2.426-6.028,6.476-6.5,11.619-1.351,13.924,11.836,5.05,38.452a92.967,92.967,0,0,1-13.108-7.917l1.733-3.146a85.937,85.937,0,0,0,9.486,6.034c6.732-22.437,3.879-30.018-2.7-30.018-2.849,0-3.493,1.725-3.879,5.572Z" transform="translate(-28.856 -37.255)" fill="none" stroke="#fff" stroke-linecap="round" stroke-linejoin="round" stroke-width="0.75"/>
        <path id="Path_20949" data-name="Path 20949" d="M361.942,558.654c-1.068,8.692-.3,19.7-9.281,22.695-5.088,1.7-7.294-1.06-7.294-1.06-3.444-2.628-.063-3.306,1.916-2.26,0,0,4.9-5.712,2.114-6.065-4.487-.564-6.988,3.505-6.988,3.505-2.6,5.57,1.376,9.749,8.414,9.749,0,0,.615,4.025,3.366,2.94s-.151-4.488-.151-4.488,1.224,3.715,3.824,2.632-.457-3.867-.457-3.867,6.119-4.335,7.189-15.167c.245-2.456.34-3.943.459-5.881" transform="translate(-26.259 -38.714)" fill="#ce9a18" stroke="#fff" stroke-width="0.75"/>
        <path id="Path_20950" data-name="Path 20950" d="M361.932,558.656c-1.068,8.692-.3,19.7-9.281,22.695-5.087,1.7-7.294-1.061-7.294-1.061-3.444-2.628-.062-3.3,1.916-2.259,0,0,4.9-5.712,2.114-6.065-4.486-.564-6.987,3.5-6.987,3.5-2.6,5.57,1.375,9.749,8.413,9.749,0,0,.615,4.025,3.366,2.941s-.15-4.488-.15-4.488,1.224,3.714,3.822,2.632-.456-3.868-.456-3.868,6.119-4.334,7.188-15.166c.245-2.456.34-3.944.46-5.882Z" transform="translate(-26.258 -38.714)" fill="none" stroke="#fff" stroke-linecap="round" stroke-linejoin="round" stroke-width="0.75"/>
        <path id="Path_20951" data-name="Path 20951" d="M383.853,565.933a9.433,9.433,0,0,0,7.778-.734c4.77-2.456,4.442-5.945,4.442-5.945.619-4.317-2.255-2.392-2.935-.24,0,0-7.459-.573-5.721-2.8,2.794-3.594,7.406-2.484,7.406-2.484,5.722,2.109,5.8,7.907.8,12.915,0,0,2.366,3.3-.343,4.485s-3.016-3.3-3.016-3.3,1.715,3.509-.884,4.593-2.369-3.078-2.369-3.078a12.113,12.113,0,0,1-5.617-.315" transform="translate(-31.23 -38.058)" fill="#ce9a18" stroke="#fff" stroke-width="0.75"/>
        <path id="Path_20952" data-name="Path 20952" d="M383.842,565.935a9.43,9.43,0,0,0,7.778-.735c4.769-2.455,4.442-5.944,4.442-5.944.618-4.317-2.256-2.392-2.936-.24,0,0-7.458-.573-5.721-2.8,2.794-3.594,7.406-2.484,7.406-2.484,5.721,2.109,5.8,7.907.8,12.915,0,0,2.367,3.3-.343,4.485s-3.016-3.3-3.016-3.3,1.715,3.509-.884,4.592-2.37-3.077-2.37-3.077a12.11,12.11,0,0,1-5.616-.315Z" transform="translate(-31.228 -38.059)" fill="none" stroke="#fff" stroke-linecap="round" stroke-linejoin="round" stroke-width="0.75"/>
        <path id="Path_20953" data-name="Path 20953" d="M376.1,567.523a23.637,23.637,0,0,1-6.882-4.1c-7.551-6.307-10.985-11.214-14.355-7.839-3.559,3.565-3.457,9.354,5.935,16.84a16.626,16.626,0,0,1-1.481,3.559c-11.9-9.311-12.649-18.571-6.5-23.145,7.767-5.771,15.006,6.569,23.748,11.46" transform="translate(-27.134 -37.833)" fill="#ce9a18" stroke="#fff" stroke-width="0.75"/>
        <path id="Path_20954" data-name="Path 20954" d="M376.087,567.523a23.688,23.688,0,0,1-6.883-4.1c-7.549-6.308-10.984-11.215-14.355-7.84-3.559,3.565-3.456,9.354,5.935,16.84a16.613,16.613,0,0,1-1.481,3.558c-11.9-9.311-12.648-18.57-6.5-23.144,7.768-5.771,15.006,6.57,23.748,11.46Z" transform="translate(-27.133 -37.833)" fill="none" stroke="#fff" stroke-linecap="round" stroke-linejoin="round" stroke-width="0.75"/>
        <path id="Path_21000" data-name="Path 21000" d="M315.853,601.76a24.943,24.943,0,0,0,2.7,8.478,41.937,41.937,0,0,1,2.779-4.562s-4-8.229,4.056-10.086c0,0-1.122-3.92-5.714-2.475a4.553,4.553,0,1,0-7.659-.03c-4.59-1.443-5.713,2.477-5.713,2.477,8.06,1.858,4.055,10.084,4.055,10.084a42.441,42.441,0,0,1,2.781,4.566,24.514,24.514,0,0,0,2.711-8.452" transform="translate(-22.072 -42.014)" fill="#f77e0b" stroke="#fff" stroke-width="0.75"/>
        <path id="Path_21001" data-name="Path 21001" d="M322.026,612.058s6.832,6.6,6.832,12.173a6.454,6.454,0,0,1-5.507,6.086c-1.733,0-6.02-.823-6.02-10.109,0-17.229,18.668-26,18.668-34.56,0-4.847-2.857-2.27-3.262.207,0,0-4.8.308-6.732-2.166,0,0-.409-3.919,7.751-3.919,3.367,0,5.612,2.371,5.612,5.982,0,10.624-18.261,17.227-18.261,33.013,0,1.752-.511,6.394,2.754,5.983,3.038-.383.408-9.594-1.836-12.689" transform="translate(-23.378 -41.254)" fill="#ce9a18" stroke="#fff" stroke-width="0.75"/>
        <path id="Path_21002" data-name="Path 21002" d="M322.017,612.059s6.832,6.6,6.832,12.173a6.453,6.453,0,0,1-5.507,6.086c-1.733,0-6.019-.823-6.019-10.109,0-17.229,18.667-26,18.667-34.56,0-4.847-2.857-2.27-3.263.208,0,0-4.8.308-6.732-2.167,0,0-.408-3.919,7.751-3.919,3.367,0,5.612,2.371,5.612,5.982,0,10.624-18.26,17.227-18.26,33.013,0,1.753-.511,6.393,2.753,5.983C326.891,624.365,324.261,615.153,322.017,612.059Z" transform="translate(-23.377 -41.254)" fill="none" stroke="#fff" stroke-linecap="round" stroke-linejoin="round" stroke-width="0.75"/>
        <path id="Path_21003" data-name="Path 21003" d="M309.268,612.026s-6.834,6.6-6.834,12.171a6.454,6.454,0,0,0,5.508,6.089c1.733,0,6.015-.827,6.015-10.11,0-17.228-18.663-26-18.663-34.562,0-4.848,2.855-2.268,3.263.208,0,0,4.8.31,6.732-2.168,0,0,.409-3.919-7.754-3.919-3.364,0-5.608,2.373-5.608,5.984,0,10.624,18.257,17.229,18.257,33.012,0,1.755.511,6.4-2.753,5.983-3.038-.382-.41-9.593,1.837-12.688" transform="translate(-20.362 -41.25)" fill="#ce9a18" stroke="#fff" stroke-width="0.75"/>
        <path id="Path_21004" data-name="Path 21004" d="M309.259,612.028s-6.833,6.6-6.833,12.171a6.453,6.453,0,0,0,5.507,6.088c1.733,0,6.016-.825,6.016-10.108,0-17.229-18.663-26-18.663-34.563,0-4.848,2.855-2.267,3.263.208,0,0,4.8.309,6.732-2.168,0,0,.408-3.92-7.754-3.92-3.364,0-5.609,2.374-5.609,5.984,0,10.624,18.258,17.229,18.258,33.012,0,1.755.51,6.4-2.753,5.983C304.386,624.334,307.013,615.123,309.259,612.028Z" transform="translate(-20.361 -41.251)" fill="none" stroke="#fff" stroke-linecap="round" stroke-linejoin="round" stroke-width="0.75"/>
      </g>
    </g>
    <g id="Group_1666" data-name="Group 1666">
      <path id="Path_21005" data-name="Path 21005" d="M381.689,453.337c-1.012-9.257-2.185-18.5-3.334-27.741-1.333-10.721-2.734-21.433-4.073-32.154-.793-6.356-1.523-12.716-2.265-19.075a9.4,9.4,0,0,1,.068-3.489c1.542,1.184,2.243,2.943,3.925,3.717,1-.962.589-1.954.241-2.9a112.308,112.308,0,0,0-7.154-15.716,13.98,13.98,0,0,0-1.148-1.5,13.761,13.761,0,0,0-.8,1.341c-.476,1.133-.876,2.3-1.37,3.422-.547,1.243-.871,2.409.075,3.651a3.569,3.569,0,0,1,.464,1.666c.188,1.54.308,3.09.472,4.636.868,8.172,1.706,16.347,2.621,24.515.681,6.108,1.471,12.2,2.191,18.31.676,5.717,1.29,11.439,2,17.152s1.55,11.408,2.262,17.12q1.346,10.783,2.561,21.586c.352,3.084.569,6.186.894,9.275a3.414,3.414,0,0,1-1.574,3.3,18.945,18.945,0,0,1-10.233,3.939c-4.447.334-8.375-.928-11.044-4.822-.919-1.342-.914-1.51.445-2.475a18.548,18.548,0,0,0,4.452-4.564c1.888-2.69,2.342-5.846,2.921-8.955a15.227,15.227,0,0,0-.3-7.3,19.423,19.423,0,0,0-4.04-7.675c-2.235-2.445-5.054-2.931-7.684-1.165a9.384,9.384,0,0,0-2.776,2.655c-2.826,4.549-4.2,9.455-3.023,14.833.579,2.654,1.242,5.29,1.856,7.937.34,1.462.264,1.625-1.019,2.327a11.369,11.369,0,0,1-1.058.5c-4.616,1.92-9.25,3.8-13.853,5.76a80.589,80.589,0,0,0-11.873,5.8c-5.825,3.7-10.488,8.652-14.966,13.8-3.19,3.671-6.364,7.359-9.676,10.919a14.577,14.577,0,0,1-7.9,4.723,8.225,8.225,0,0,1-8.334-3.045c-2.146-2.577-2.613-5.7-2.757-8.913a2.413,2.413,0,0,1,1.861-2.722c2.5-.893,4.964-1.937,7.376-3.06a91.731,91.731,0,0,0,13.676-7.8c2.922-2.033,5.71-4.273,8.433-6.568a15.764,15.764,0,0,0,3.136-3.666c2.13-3.419,2.555-7.279,2.415-11.2-.118-3.245-1.5-6.13-2.906-8.984-1.059-2.146-2.211-4.252-3.262-6.4-.28-.57-.837-1.218-.11-2,1.446.37,2.679,1.533,4.3,1.379.412-.969-.245-1.459-.683-1.952q-4.407-4.923-8.873-9.8c-.113-.123-.344-.136-.613-.237-.916,1.47-1.042,3.176-1.574,4.741a3.65,3.65,0,0,0,.6,3.975,4.47,4.47,0,0,1,.645,1.4,109.5,109.5,0,0,0,7.519,16.41c.785,1.32,1.146,2.882,1.813,4.281a2.737,2.737,0,0,1-.828,3.619c-1.973,1.681-3.871,3.462-5.949,5A112.9,112.9,0,0,1,281.4,493.57a35.243,35.243,0,0,1-3.39,1.064c1.024-3.229,1.6-6.143,3.125-8.731,1.448-2.451,2.906-4.9,4.409-7.319,1.171-1.884,1.2-1.977-.353-3.651-.69-.746-1.419-1.457-2.277-2.336,2.235-1.942,4.414-3.675,6.4-5.6s3.768-4.035,5.78-6.218l2.581,2.765c1.137-2.141,1.182-2.876-.139-4.536a3.98,3.98,0,0,1-.8-3.563,11.706,11.706,0,0,0,.026-4.6c-.522-2.3-2.487-2.755-4.324-1.276a7.639,7.639,0,0,0-2.241,3.993,3.843,3.843,0,0,0,1.656,4.882,16.185,16.185,0,0,1,1.444,1.244c-.735.879-1.335,1.709-2.044,2.433-2.539,2.592-5.109,5.157-7.681,7.719-1.642,1.634-1.652,1.622-3.72.7-.054-.024-.129,0-.428.022q-2.114,2.553-4.522,5.459c.623.653,1.072,1.191,1.588,1.656.966.867,1.972,1.686,2.954,2.535,1.168,1.007,1.18,1.4.489,2.612a42.752,42.752,0,0,0-4.354,11.4,2.294,2.294,0,0,1-2.021,1.986c-2.043.393-4.075.891-6.137,1.144-5.816.7-11.547.544-17-1.994a16.615,16.615,0,0,1-8.287-7.627,25.542,25.542,0,0,1-2.3-13.811,3.488,3.488,0,0,1,1.079-2.2,44.984,44.984,0,0,1,17.439-11.072c5.244-1.915,10.526-3.718,15.789-5.575a50.507,50.507,0,0,0,11.6-5.457,10.566,10.566,0,0,0,4.778-6.174,21.186,21.186,0,0,0-.785-13.348c-1.715-4.132-4.478-7.556-7.413-10.867-.472-.533-.9-1.106-1.354-1.66a1.422,1.422,0,0,1,1.061.271c5.473,3.667,10.3,8.113,15.145,12.523,4.078,3.716,7.985,7.608,11.947,11.451,3.254,3.159,6.828,5.8,11.317,6.951a1.763,1.763,0,0,1,1.422,1.8c.325,3.089.806,6.166,1.049,9.26.507,6.379,1.092,12.769-.135,19.143A6.3,6.3,0,0,0,323,480.5a9.561,9.561,0,0,0,1.235-1.629,28.9,28.9,0,0,0,1.44-4.011,44.433,44.433,0,0,0,1.487-11.11c-.042-3.166-.033-6.331-.042-9.5-.005-1.59,0-3.184,0-4.838.823-.2,1.569-.4,2.321-.557a18.542,18.542,0,0,0,9.671-5.515,12.746,12.746,0,0,0,2.558-4.055,26.135,26.135,0,0,0,1.684-8.534c.245-5.465-.714-10.845-1.325-16.239-.7-6.172-1.61-12.321-2.455-18.473-1.02-7.435-2.082-14.865-3.1-22.3q-1.438-10.583-2.8-21.177a27.685,27.685,0,0,1-.015-3.257c1.671,1.384,2.515,3.173,4.455,4.07a4.949,4.949,0,0,0,.231-1.507,13.02,13.02,0,0,0-.845-2.764c-2.266-4.8-4.585-9.574-6.9-14.35a14.3,14.3,0,0,0-.933-1.454,25.966,25.966,0,0,0-2.833,6.639,2.9,2.9,0,0,0,.169.929,25.159,25.159,0,0,1,1.159,3.851c.614,4.613,1.056,9.25,1.612,13.872.973,8.028,1.951,16.053,2.987,24.075.731,5.648,1.568,11.282,2.343,16.923q1.573,11.439,3.128,22.88c.5,3.715.936,7.437,1.478,11.146a3.82,3.82,0,0,1-1.876,3.916,21.473,21.473,0,0,1-10.718,3.774c-1.318.154-1.453-.039-1.633-1.5-.376-3.075-.742-6.152-1.159-9.223-.364-2.693-.823-5.373-1.19-8.065-1.108-8.144-2.223-16.287-3.272-24.437-.56-4.359-1-8.734-1.471-13.105a10.97,10.97,0,0,1,.118-1.82c1.919.952,2.566,3.106,4.521,3.8.576-1.72-.21-3.063-.657-4.442-1.239-3.82-6.594-14.345-7.948-15.544-.61,1.318-1.248,2.572-1.78,3.871-.581,1.413-1.3,2.839-.14,4.356a2.851,2.851,0,0,1,.269,1.319c.193,1.6.386,3.209.552,4.818.566,5.407,1.022,10.829,1.69,16.223,1.563,12.657,3.227,25.3,4.84,37.953.174,1.384.26,2.782.4,4.329-.484-.1-.728-.125-.961-.2a22.163,22.163,0,0,1-8.282-5.336c-2.525-2.329-4.961-4.752-7.4-7.167-5.548-5.492-11.89-10.042-17.956-14.914-2.265-1.82-4.662-3.479-7.206-5.364a14.562,14.562,0,0,1,6.925-1.627,57.83,57.83,0,0,1,6.792.385,14.188,14.188,0,0,1,6.547,2.354c1.89,1.319,3.63,2.848,5.454,4.3.18-.216.4-.352.41-.5.184-2.576.408-5.152.453-7.732a2.866,2.866,0,0,0-.986-1.774c-1.6-1.518-3.254-2.98-4.951-4.39a24.73,24.73,0,0,1-8.747-13.453c-.859-3.644-1.319-7.38-1.914-11.082a12,12,0,0,1,.018-2.046c1.594.12,2.144,1.863,3.621,1.642.207-1.926-.631-3.809-5.846-13.145-.3-.529-.477-1.256-1.578-1.132-.479,1.223-.925,2.563-1.523,3.835-.728,1.55-1.051,3.04-.068,4.6a2.45,2.45,0,0,1,.23.94c.5,3.519,1.024,7.035,1.474,10.561a58.551,58.551,0,0,0,4.467,17.223,8.328,8.328,0,0,1,.336,1.071c-.188.1-.3.2-.41.2a42.194,42.194,0,0,0-14.755,3.3c-3.906,1.575-3.077,1.684-6.693-.771q-9.584-6.514-19.187-13c-6.511-4.392-13.043-8.752-19.547-13.15-.94-.637-1.779-1.422-2.856-2.293a13.115,13.115,0,0,1,1.6-1.2c4.793-2.457,9.5-5.129,14.429-7.269,7.321-3.176,14.766-6.081,22.237-8.9a272.47,272.47,0,0,1,26.8-8.923c5.274-1.385,10.55-2.775,15.87-3.944a13.23,13.23,0,0,1,7.7.286,3.674,3.674,0,0,1,1.708,5.994,64,64,0,0,1-4.568,5.305c-3.6,3.651-7.071,7.41-10.3,11.4a25.055,25.055,0,0,0-3.931,7.315,6.506,6.506,0,0,0-.2,1.385c.122.062.248.127.371.187.34-.329.706-.633,1.015-.991,2.979-3.421,5.887-6.906,8.937-10.266a73.64,73.64,0,0,0,9.326-11.908,37.85,37.85,0,0,0,4.124-9.6c1.078-4.121-2.878-7.359-6.052-7.365a27.2,27.2,0,0,0-5.235.424,197.219,197.219,0,0,0-23.719,6.294c-9.377,3.091-18.652,6.495-27.951,9.82a213.76,213.76,0,0,0-22.2,9.5c-2.909,1.429-5.69,3.123-8.507,4.738a4.575,4.575,0,0,0-2.208,2.621c-.441,1.421-.976,2.824-1.293,4.273-.55,2.519-1.152,5.043-.325,7.655a2.333,2.333,0,0,1-.493,1.748c-1,1.347-2.153,2.575-3.195,3.889a36.112,36.112,0,0,0-6.964,12.9c-.945,3.486-1.3,7.025.841,10.364q-1.292,2.173-2.577,4.329a40.217,40.217,0,0,0-5.649,17.189,15.479,15.479,0,0,0,9.754,15.877c.833.313,1.64.7,2.489,1.066a60.076,60.076,0,0,0-4.544,11.9,27.551,27.551,0,0,0-.447,12.506,15.473,15.473,0,0,0,8.5,10.985c3.494,1.71,7.043,1.82,10.31-.675,1.39-1.064,2.691-2.24,4.039-3.358.45-.374.921-.727,1.584-1.251a12.52,12.52,0,0,1-.006,1.357,34.412,34.412,0,0,0,.406,11.007c1.736,9.3,7.161,14.883,16.629,17.018,6.141,1.387,12.153.551,18.152-.831.471-.108.952-.171,1.542-.273.091.82.127,1.459.239,2.082a37.949,37.949,0,0,0,1.132,5.69c1.591,4.585,4.366,8.3,9.135,9.964,3.528,1.233,7.2,1.538,10.5-.69a24.179,24.179,0,0,0,4.516-3.954c3.7-4.168,7.219-8.492,10.878-12.7a49.568,49.568,0,0,1,16.9-12.883c6.73-3.067,13.5-6.043,20.263-9.04,1-.443,2.041-.791,3.168-1.221.344.558.645,1.043.946,1.524.927,1.481,1.763,3.024,2.8,4.425a12.5,12.5,0,0,0,7.869,4.979c4.028.794,7.774-.185,11.341-1.873,3.348-1.583,5.966-4.026,6.978-7.695,1.237-4.492,2.353-9.046,2.08-13.759-.294-5.1-.614-10.2-1.171-15.272m-89.191,1.33a1.079,1.079,0,0,1-.128-1.815,1.4,1.4,0,0,1,2.207-.1c1,1,.769,2.236.745,3.43-.134.1-.27.2-.4.3-.81-.6-1.643-1.176-2.423-1.814m-82.876-19.151a12.94,12.94,0,0,1-1.353-8.264c.848-6.2,3.418-11.767,6.416-17.166a5.514,5.514,0,0,1,3.1-2.738,7.113,7.113,0,0,0,3.126-2.5,56.835,56.835,0,0,0,3.415-5.856c.154-.277.061-.686.1-1.345a6.831,6.831,0,0,0-1.3.8,12.864,12.864,0,0,0-.878,1.276c-.761,1.028-1.647,1.912-3.077,1.609a3.172,3.172,0,0,1-2.368-2.58,8.42,8.42,0,0,1,.375-4.95,36.431,36.431,0,0,1,4.8-9.274q1.279-1.835,2.613-3.63a7.97,7.97,0,0,1,.918-.869c11.661,9.089,23.263,18.132,35.364,27.566-.733.434-1.2.66-1.62.963-6.893,5.007-13.009,10.924-19.437,16.478-3.871,3.345-7.7,6.753-11.712,9.924a22.2,22.2,0,0,1-9.934,4.682,8.4,8.4,0,0,1-8.544-4.126m26.9,31.924c-1.765,1.8-3.564,3.592-5.492,5.218a20.448,20.448,0,0,1-4.377,2.865c-4.99,2.365-9.033,0-10.8-4.543-1.319-3.376-1.089-6.876-.641-10.349a35.562,35.562,0,0,1,5.251-14.079,2.636,2.636,0,0,1,1.418-1.164,25.089,25.089,0,0,0,10.415-5.5c3.562-2.909,6.942-6.036,10.415-9.055,4.46-3.87,8.888-7.771,13.414-11.561,2.482-2.078,5.123-3.972,7.723-5.905a22.351,22.351,0,0,1,2.334-1.32c1.819,1.612,3.478,3.056,5.107,4.537a122.766,122.766,0,0,1,11.718,11.921,30.611,30.611,0,0,1,5.665,9.22c.644,1.8.487,2.3-1.045,3.475a40.546,40.546,0,0,1-10.662,5.576c-7.176,2.672-14.432,5.129-21.59,7.842a52.42,52.42,0,0,0-18.848,12.818m116.181,5.147c-.809-2.516-1.624-4.809-2.275-7.15-.519-1.86-.864-3.768-1.246-5.662-.451-2.248.5-3.987,2.772-5.159a4.329,4.329,0,0,1,5.443,1.049,18.967,18.967,0,0,1,4.191,8.6,4.083,4.083,0,0,1-.508,2.152,3.417,3.417,0,0,1-.849,1.042,27.074,27.074,0,0,1-7.527,5.129" transform="translate(-9.988 -11.397)" fill="#1a1818"/>
      <path id="Path_21006" data-name="Path 21006" d="M366.434,351.521c.63,4.55,1.171,9.113,1.766,13.669.787,6.029,1.568,12.064,2.4,18.087.74,5.384,1.452,10.77,2.358,16.126a3.79,3.79,0,0,1-1.59,4c-2.409,1.965-4.741,4.028-7.107,6.047-.508.433-1.225.759-.823,1.775,3.841-1.371,6.421-4.558,10.125-6.6.311,2.287.58,4.248.839,6.209.259,1.991.545,3.976.755,5.97s.321,4,.51,5.995c.183,1.931-.311,3.9.108,5.929a1.809,1.809,0,0,0,1.347-1.748c.576-3.439,1.254-6.873,1.567-10.339a64.087,64.087,0,0,0-.449-13.165c-.353-2.977-.333-2.977,1.526-5.455.546-.722,1.064-1.466,1.618-2.183.1-.13.318-.173.513-.274.4.33.776.643,1.184.983a2.18,2.18,0,0,0,.816-2.657c-.8-1.7-.076-3.115.293-4.67a13.5,13.5,0,0,0,.341-4.013,2.517,2.517,0,0,0-2.13-2.26,2.323,2.323,0,0,0-2.405,1.334,9.4,9.4,0,0,0-1.656,4.708,3.075,3.075,0,0,0,.713,2.334c.612.727,1.138,1.528,1.764,2.387l-2.879,3.463-.473-.122c-2.109-13.276-4.133-26.56-5.631-40.322,1.952,1.413,2.66,3.611,5.044,4.464a16.493,16.493,0,0,0-.278-2.395,21.444,21.444,0,0,0-1.116-3.1c-2.247-4.875-4.535-9.734-6.812-14.6-.11-.237-.244-.459-.486-.917a17.726,17.726,0,0,0-2.914,6.659c-.078.333.18.74.275,1.115a32.835,32.835,0,0,1,.89,3.572m13.871,36.5a.8.8,0,0,1,.314-1.284,1.762,1.762,0,0,1,1.374.022c1.137.669,1.285,2.062.271,3.833-.76-.991-1.382-1.765-1.959-2.57" transform="translate(-28.839 -12.254)" fill="#1a1818"/>
      <path id="Path_21007" data-name="Path 21007" d="M417.485,426.026c-1.159-8.255-2.475-16.491-3.677-24.741-.264-1.81-.355-3.647-.554-5.779,1.9,1.173,2.666,3.229,5.015,3.87a9.771,9.771,0,0,0-.257-1.919,91.725,91.725,0,0,0-9.171-17.507,24.19,24.19,0,0,0-2.29,6.678,1.167,1.167,0,0,0,.168.919c.939,1.055.927,2.388,1.122,3.644.313,2.04.519,4.1.8,6.147.87,6.339,1.764,12.678,2.632,19.018,1.263,9.227,2.651,18.434,3.725,27.681,1.056,9.1,2.6,18.213,1.187,27.439-.055.354.216.759.457,1.532a8.346,8.346,0,0,0,1-1.573A69.7,69.7,0,0,0,419.8,463.8a57.847,57.847,0,0,0,.407-16.231c-.73-7.2-1.721-14.373-2.724-21.541" transform="translate(-33.978 -17.077)" fill="#1a1818"/>
      <path id="Path_21008" data-name="Path 21008" d="M382.343,440.431c-1.018-.877-1.429-.826-2.2.246-.975,1.357-1.869,2.772-2.964,4.409-2.326-1.958-4.482-3.775-6.694-5.64a14.013,14.013,0,0,0-3.725,5.589,1.752,1.752,0,0,0,.347,1.555c1.953,1.85,4,3.6,6.188,5.552,1.466-1.947,2.764-3.676,4.144-5.512,2.533,1.907,4.551,4.3,7.3,6.094,1.232-1.89,2.353-3.608,3.469-5.333a1.454,1.454,0,0,0-.339-2.069c-1.835-1.636-3.655-3.292-5.523-4.893" transform="translate(-29.239 -24.246)" fill="#1a1818"/>
      <path id="Path_21009" data-name="Path 21009" d="M262.475,343.093c4.98-2.037,9.939-4.133,14.954-6.083,4.84-1.879,9.726-3.643,14.624-5.37,1.647-.58,2.288-1.7,2.548-3.579a17.555,17.555,0,0,0-2.342.512c-8.945,3.328-17.889,6.655-26.808,10.048-2.789,1.06-5.506,2.3-8.24,3.5a2.639,2.639,0,0,0-1.373,3.719c2.212-.916,4.421-1.838,6.637-2.745" transform="translate(-16.028 -10.77)" fill="#1a1818"/>
      <path id="Path_21010" data-name="Path 21010" d="M285.351,477.279a13.638,13.638,0,0,0-1.421.487c-3.294,1.542-6.542,3.18-9.873,4.637-4.94,2.161-9.917,4.235-14.911,6.265a6.3,6.3,0,0,0-4.111,4.538c-.722,2.892.486,4.911,3.606,5.692,1.472-2.459-1-3.656-1.908-5.513.794-.431,1.495-.883,2.25-1.21,3.633-1.576,7.307-3.06,10.919-4.681,4.562-2.05,9.084-4.175,13.6-6.317,1.758-.832,2.192-1.817,1.848-3.9" transform="translate(-15.953 -28.828)" fill="#1a1818"/>
      <path id="Path_21011" data-name="Path 21011" d="M283.925,385.167a12.226,12.226,0,0,1,1.4,1.623,11.008,11.008,0,0,0,.852-1.575,2.963,2.963,0,0,0-1.858-4.067c-1.459-.624-2.884.059-3.688,1.885a11.619,11.619,0,0,0-1.022,3.116c-.233,1.846-.207,3.723-.326,5.587-.035.567.262,1.226-.123,1.614-1.7-2.073-3.3-4.1-5-6.035a9.289,9.289,0,0,0-2.276-1.779,1.191,1.191,0,0,0-1.715.344,4.311,4.311,0,0,0-.213,4.408,3.483,3.483,0,0,0,4.095,1.4c.685.856,1.47,1.718,2.117,2.673a22.859,22.859,0,0,1,1.6,2.871c.479.99.86,2.027,1.441,3.416a16.834,16.834,0,0,0,.736-1.593,27.708,27.708,0,0,0,.942-9.575,16.015,16.015,0,0,1,.1-3.276c.3-1.757,1.538-2.17,2.943-1.043" transform="translate(-17.696 -17.167)" fill="#1a1818"/>
      <path id="Path_21012" data-name="Path 21012" d="M358.281,523.093a9.952,9.952,0,0,0-1.059,4.871,43.473,43.473,0,0,1-.193,4.706l-.359.035a8.411,8.411,0,0,1-.485-.782,25.679,25.679,0,0,0-5.077-7.067,8.654,8.654,0,0,0-1.821-1.43,1.1,1.1,0,0,0-1.678.417c-.627,1.35-1.3,2.78-.587,4.265a3.731,3.731,0,0,0,3.487,2.109,2.189,2.189,0,0,1,1.956.954,18.393,18.393,0,0,1,3.3,6.328,10.359,10.359,0,0,0,.687,1.5,7.4,7.4,0,0,0,.776-1.441,50.494,50.494,0,0,0,1.125-5.285c.242-1.916.184-3.867.342-5.8.125-1.508.988-1.9,2.223-1.035.677.471,1.281,1.048,1.918,1.576,1.512-1.726,1.458-3.134-.075-4.669-1.7-1.7-3.479-1.423-4.476.744" transform="translate(-26.872 -34.147)" fill="#1a1818"/>
      <path id="Path_21013" data-name="Path 21013" d="M275.131,499.4c.69.508,1.3,1.12,1.985,1.721,1.314-2.372.662-4.812-1.463-5.785a2.188,2.188,0,0,0-1.8.144,3.662,3.662,0,0,0-1.225,1.666,11.044,11.044,0,0,0-.691,5.718c.18,1.313.228,2.643.335,3.968-.146.021-.293.042-.436.065-2.2-2.714-3.961-5.9-7.914-7.232a22.424,22.424,0,0,0-.535,3.4,2.616,2.616,0,0,0,2.824,2.549,1.828,1.828,0,0,1,1.157.339,13.669,13.669,0,0,1,3.746,5.135c.207.575.535,1.108,1.033,2.115a10.631,10.631,0,0,0,.8-1.957,47.065,47.065,0,0,0,.568-5.2c.063-1.934-.131-3.873-.142-5.812a4.9,4.9,0,0,1,.426-1.392,5.825,5.825,0,0,1,1.327.554" transform="translate(-16.98 -30.996)" fill="#1a1818"/>
      <path id="Path_21014" data-name="Path 21014" d="M321.6,385.331a1.891,1.891,0,0,0-2.511,1.229,7.551,7.551,0,0,0-.749,2.385c-.189,1.731-.213,3.479-.307,5.217-.024.473-.062.945-.116,1.744-.625-.794-1.009-1.3-1.414-1.787a17.259,17.259,0,0,0-5.485-4.561,2.721,2.721,0,0,0-2.544-.285,14.831,14.831,0,0,0-.224,1.636c-.068,2.236,1.652,3.576,3.921,3.2a1.933,1.933,0,0,1,1.493.5c1.217,1.325,2.367,2.719,3.447,4.157a27.97,27.97,0,0,1,1.653,2.77c.191-.027.378-.055.568-.08a10.98,10.98,0,0,0,.274-1.8c-.007-1.676-.115-3.351-.138-5.024a42.669,42.669,0,0,1,.062-4.452,2.52,2.52,0,0,1,.866-1.781c.766-.449,1.415.279,1.97.841.247.247.515.474.8.737a10.251,10.251,0,0,0,.781-1.87c.188-.957-1.107-2.407-2.351-2.78" transform="translate(-22.306 -17.684)" fill="#1a1818"/>
      <path id="Path_21015" data-name="Path 21015" d="M340.006,540.044c.271-.188.408-.348.572-.389.557-.132,1.007-.368.933-1.02-.026-.209-.271-.56-.411-.558a3.5,3.5,0,0,0-1.451.264,1.529,1.529,0,0,0-.687.9c-.242.906-.376,1.84-.61,3.079-.694.215-1.63.5-2.779.861.4-1.02.676-1.71,1.018-2.576-.8-.1-1.357-.166-1.934-.237.314-.952.959-.9,1.634-.909.254,0,.69-.28.712-.472.039-.325-.1-.894-.313-.978a1.838,1.838,0,0,0-1.378-.017,4.48,4.48,0,0,0-1.848,2.854c-.683,2.125-.982,2.3-3.338,2.168,1.158-2.584,1.005-3.454-.837-4.56-1.237,1.05.478,1.81.253,2.882a3.965,3.965,0,0,1-4.346,1.247c-.347-2.143,1.312-1.751,2.282-2,.4-1.02-.137-1.487-.827-1.783s-1.147.2-1.433.7a16.478,16.478,0,0,0-1.343,2.784,1.367,1.367,0,0,0,1,1.965c.915.188,1.956-.189,2.843.048s1.664.979,2.71.6c.121-.043.251-.072.374-.114.858-.274,1.715-.551,2.71-.872.989,1.478,2.469.963,3.776.489,1.826-.659,3.569-1.557,5.332-2.388a2.8,2.8,0,0,0,1.067-.808,3.057,3.057,0,0,0,.23-1.163c-1.435.167-2.631,1.526-3.908-.006" transform="translate(-24.143 -36.152)" fill="#1a1818"/>
      <path id="Path_21016" data-name="Path 21016" d="M306.221,486.723c-.605,2.3-1.195,4.6-1.494,5.747-.237,3.93,1.8,5.595,4.427,4.822a6.3,6.3,0,0,0,4.2-3.722,4.337,4.337,0,0,0-.149-4.261,7.923,7.923,0,0,0-5.56-3.519,1.108,1.108,0,0,0-1.42.933m5.688,4.836a.978.978,0,0,1-.2,1.526,7.8,7.8,0,0,1-1.983,1.172c-2.584.88-4.046-.346-3.618-2.994a23.747,23.747,0,0,1,.652-2.385,6.945,6.945,0,0,1,5.153,2.681" transform="translate(-21.891 -29.85)" fill="#1a1818"/>
      <path id="Path_21017" data-name="Path 21017" d="M350.4,487.378c.778-.494,1.415-.909,2.065-1.3,1.824-1.115,3.591-2.353,5.509-3.282,1.259-.607,1.526-1.406,1.382-3.006-1.312.421-2.413.745-3.5,1.128a3.791,3.791,0,0,1-3.843-.657c-.515-.406-1.083-.845-.5-1.6a1.606,1.606,0,0,1,2.067-.465,12.8,12.8,0,0,1,1.078.889c.243-.553.445-.951.6-1.37a1.61,1.61,0,0,0-.426-2.088,1.778,1.778,0,0,0-2.317.018,7.413,7.413,0,0,0-2.718,3.221c-.869,2.028-.7,2.736.979,4.243.225.2.423.434.611.628-.638,1.144-1.429,2.112-.984,3.642" transform="translate(-27.185 -28.573)" fill="#1a1818"/>
      <path id="Path_21018" data-name="Path 21018" d="M334.915,356.553a19.866,19.866,0,0,0-1.5,8.043,5.087,5.087,0,0,0,.188.945,3.014,3.014,0,0,0,3.324,2.081c2.915-.59,6.215-3.573,4.375-7.681-1.025-2.283-3.5-3.569-6.39-3.388m2.523,3.323c.12.043.244.083.362.135,1.43.626,2.6,1.956,2.4,2.726-.251.97-2.654,2.094-3.978,1.861-1.232-.217-1.653-.971-1.572-2.811.11-2.407.544-2.705,2.789-1.912" transform="translate(-25.297 -14.214)" fill="#1a1818"/>
      <path id="Path_21019" data-name="Path 21019" d="M343.764,403.158c-.389.087-.574.077-.613.145a5.8,5.8,0,0,0-.6,1.2c-1.165,4.058-1.563,8.133-.124,12.214a4.064,4.064,0,0,0,.732,1.355c.818.92,1.712,2.029,3.066,1.7,1.185-.293,1.388-1.6,1.711-2.65a2.977,2.977,0,0,0,.146-1.15c-.106-.962.371-2.055-.692-3.044a5.967,5.967,0,0,0-.487,1.31c-.151,1.44-1.134,1.632-2.168.742a4.867,4.867,0,0,1-1.711-3.776,47.441,47.441,0,0,1,.423-4.822c.1-1.05.208-2.1.318-3.227" transform="translate(-26.264 -19.857)" fill="#1a1818"/>
      <path id="Path_21020" data-name="Path 21020" d="M274.409,362.2a2.848,2.848,0,0,0-.15-1,2.531,2.531,0,0,0-1.1,1.376c-.656,2.09-1.353,4.175-1.858,6.306a10.522,10.522,0,0,0,.133,5.933,7.232,7.232,0,0,0,1.7,2.732,1.584,1.584,0,0,0,2.816-.552,19.915,19.915,0,0,0,1.018-3.31c.065-.264-.176-.605-.348-1.148-.487.789-.819,1.329-1.229,2a2.881,2.881,0,0,1-2.283-2.3,9.4,9.4,0,0,1,.091-5.157q.66-2.425,1.212-4.88" transform="translate(-17.882 -14.78)" fill="#1a1818"/>
      <path id="Path_21021" data-name="Path 21021" d="M393.819,477.924c.246-.538.7-1.126.073-1.879-.256.2-.6.331-.709.567-1.757,3.747-2.9,7.648-2.438,11.819a7.237,7.237,0,0,0,1.329,3.18c1,1.42,2.439,1.276,3.189-.232a22.352,22.352,0,0,0,1.33-3.424,4.834,4.834,0,0,0-.052-1.571c-.13-.018-.259-.033-.389-.053-.5.894-1.006,1.786-1.6,2.835a5.676,5.676,0,0,1-2.116-5.026,16.618,16.618,0,0,1,1.383-6.217" transform="translate(-32.103 -28.676)" fill="#1a1818"/>
      <path id="Path_21022" data-name="Path 21022" d="M378.114,524.77c-.385.473-.875,1.169-1.337,1.181a1.948,1.948,0,0,1-1.417-1.077,13.654,13.654,0,0,1-.9-3.523c-.208-1.79.592-3.407,1.166-5.057a2.462,2.462,0,0,0-.018-2.55c-.234.486-.339.727-.459.955a17.5,17.5,0,0,0-2.242,10.843,5.423,5.423,0,0,0,1.883,3.531,1.643,1.643,0,0,0,2.451.02,8.591,8.591,0,0,0,2.18-5.953c-1.043.251-.912,1.142-1.3,1.629" transform="translate(-29.976 -33.238)" fill="#1a1818"/>
      <path id="Path_21023" data-name="Path 21023" d="M387.824,416.822c-.223-.079-.443-.155-.665-.233a11.211,11.211,0,0,0-.947,1.809,31.567,31.567,0,0,0-1.182,4.493,17.618,17.618,0,0,0-.2,6.93,5.485,5.485,0,0,0,1.926,3.268,1.345,1.345,0,0,0,1.778.143c1.3-.962,2.039-3.631,1.389-5.594-.266.49-.474.837-.655,1.2-.611,1.23-1.339,1.337-2.109.2a5.392,5.392,0,0,1-.769-1.956,15.522,15.522,0,0,1,.779-7.8c.257-.809.441-1.638.659-2.457" transform="translate(-31.379 -21.482)" fill="#1a1818"/>
      <path id="Path_21024" data-name="Path 21024" d="M426.678,430.155c-.52.7-.882,1.191-1.276,1.717a3.5,3.5,0,0,1-1.731-2.708,16.021,16.021,0,0,1,.119-7.852c.253-.976.463-1.958.691-2.94-.208-.077-.418-.155-.625-.234a6.131,6.131,0,0,0-.854,1.548c-.471,2.2-.926,4.416-1.233,6.645a14.358,14.358,0,0,0,.794,6.476,3.98,3.98,0,0,0,1.936,2.551c.587.294,1.225.377,1.557-.214a5.615,5.615,0,0,0,.623-4.99" transform="translate(-35.789 -21.67)" fill="#1a1818"/>
      <path id="Path_21025" data-name="Path 21025" d="M323.813,422.448l-.381-.224c-.3.256-.733.456-.875.781a19.613,19.613,0,0,0-2.071,9.754,5.642,5.642,0,0,0,2.147,4.4c.936.662,1.51.662,2.2-.165a6.648,6.648,0,0,0,1.42-4.968c-1.243,1.511-1.243,1.511-2.033,1.941a3.065,3.065,0,0,1-1.715-2.2c-.753-2.347-.223-4.595.517-6.829.274-.825.526-1.657.787-2.485" transform="translate(-23.762 -22.163)" fill="#1a1818"/>
      <path id="Path_21026" data-name="Path 21026" d="M361.341,384.212a1.359,1.359,0,0,0,2.366-.576,19.327,19.327,0,0,0,.924-3.732c.054-.276-.213-.612-.452-1.229-.42.944-.7,1.568-1.043,2.347a2.531,2.531,0,0,1-2.3-2.253,23.428,23.428,0,0,1-.391-4.786,23.078,23.078,0,0,1,.664-3.418,7.978,7.978,0,0,0,.011-1.345c-.172-.031-.342-.064-.516-.1a8.218,8.218,0,0,0-.638,1.459c-.386,1.7-.712,3.414-1.043,5.123a10.346,10.346,0,0,0,.53,5.913,7.01,7.01,0,0,0,1.894,2.593" transform="translate(-28.309 -15.738)" fill="#1a1818"/>
      <path id="Path_21027" data-name="Path 21027" d="M342.236,444.985c.569-.272,1.152-.5,1.678-.807q4.595-2.706,9.173-5.438c1.284-.763,1.351-1.168.4-3.016-.552.292-1.114.56-1.649.874q-4.424,2.613-8.832,5.246c-1.525.908-1.557,1.028-.772,3.14" transform="translate(-26.285 -23.795)" fill="#1a1818"/>
      <path id="Path_21028" data-name="Path 21028" d="M253.037,368.909c.1-.517.115-1.052.168-1.579l-.612-.109a25.059,25.059,0,0,0-2.153,6.948,19.224,19.224,0,0,0,.006,3.864,4.646,4.646,0,0,0,1.59,3.233c1.1.935,2.277.757,2.859-.555a16.116,16.116,0,0,0,.869-3.162c.061-.269-.169-.6-.286-.971a4.3,4.3,0,0,0-.416.394c-.32.434-.559,1.156-.955,1.255-.8.2-1.364-.511-1.544-1.182a10.391,10.391,0,0,1-.472-3.4,44.419,44.419,0,0,1,.947-4.735" transform="translate(-15.436 -15.507)" fill="#1a1818"/>
      <path id="Path_21029" data-name="Path 21029" d="M308.678,350.913l-.532-.208a5.41,5.41,0,0,0-.784,1,14.973,14.973,0,0,0-1.625,8.05,12.516,12.516,0,0,0,1.2,3.848c.765,1.6,2.5,1.793,3.36.3a16.769,16.769,0,0,0,1.234-4.179c.058-.225-.107-.508-.23-1.009-.537.794-.693.989-.81,1.2s-.186.485-.315.706c-.511.894-1.162.946-1.769.092a5.075,5.075,0,0,1-.652-1.394,8.565,8.565,0,0,1,.153-5.692c.324-.881.518-1.806.771-2.71" transform="translate(-22.007 -13.509)" fill="#1a1818"/>
      <path id="Path_21030" data-name="Path 21030" d="M276.47,538.205a2.886,2.886,0,0,1-2.225-2.42,18.371,18.371,0,0,1-.038-3.628c.042-.812.253-1.61.454-2.819-.631.354-.871.4-.928.534a12.716,12.716,0,0,0-1.107,8.473,6.588,6.588,0,0,0,1.888,2.836,1.426,1.426,0,0,0,2.437-.428,19.931,19.931,0,0,0,1.257-3.626c.079-.274-.15-.638-.3-1.182-.578.905-1.006,1.576-1.441,2.259" transform="translate(-18.044 -35.123)" fill="#1a1818"/>
      <path id="Path_21031" data-name="Path 21031" d="M236.962,510.857c-1.9-1.034-2.529-2.841-1.813-5.047.318-.979.787-1.911,1.134-2.884a8.072,8.072,0,0,0,.194-1.491c-.545.305-.91.385-1.043.6-1.749,2.847-2.682,5.913-1.9,9.233a7.84,7.84,0,0,0,1.678,2.746,1.026,1.026,0,0,0,1.563.15,4.652,4.652,0,0,0,1.182-1.927c.2-.887.943-1.816.219-3.017-.465.625-.8,1.079-1.213,1.632" transform="translate(-13.406 -31.747)" fill="#1a1818"/>
      <path id="Path_21032" data-name="Path 21032" d="M335.005,533.5c.6.208,1.113.385,1.64.567a1.311,1.311,0,0,0-.263-2.181c-.633-.473-1.352-.224-1.961.586a4.132,4.132,0,0,0-.64,3.314c.458-.851.827-1.541,1.225-2.285" transform="translate(-25.34 -35.398)" fill="#1a1818"/>
      <path id="Path_21033" data-name="Path 21033" d="M267.237,455.215c1.532,1.191,2.213,1,3.244-.7.267-.438.452-.928.709-1.375.5-.868,1.031-1.726,1.623-2.708,2.5,1.952,4.784,3.734,7.306,5.7.562-.673,1-1.129,1.361-1.641.7-1.007,1.351-2.051,2.039-3.067.886-1.307.867-1.939-.395-2.993-1.488-1.243-3.065-2.383-4.612-3.558-.551-.416-1.128-.8-1.915-1.357l-4.333,5.519c-2.147-1.641-4.19-3.2-6.32-4.823a14.821,14.821,0,0,0-3.981,5.48c-.164.351.186,1.163.546,1.495,1.521,1.4,3.092,2.76,4.728,4.028" transform="translate(-16.8 -24.739)" fill="#1a1818"/>
      <path id="Path_21034" data-name="Path 21034" d="M252.259,453.245c-1.059-.327-1.972.2-2.556,1.533a14.6,14.6,0,0,0-1.029,6.06,13.274,13.274,0,0,1-.355,3.844c-.607-.975-1-1.632-1.414-2.275a17.866,17.866,0,0,0-4.965-5.123c-.995-.675-1.6-.547-2.138.3-1.473,2.337-.1,5.563,2.658,5.647a3.239,3.239,0,0,1,2.973,1.955c.785,1.327,1.43,2.74,2.148,4.107.219.422.48.821.864,1.47a5.692,5.692,0,0,0,.632-1.266c.266-1.785.53-3.569.7-5.363.179-1.927.208-3.864.391-5.791a1.651,1.651,0,0,1,.687-1.23c.337-.125.922.236,1.323.5.572.38,1.071.865,1.824,1.484a12.385,12.385,0,0,0,.69-1.812,4.192,4.192,0,0,0-2.43-4.039" transform="translate(-14.107 -25.906)" fill="#1a1818"/>
      <path id="Path_21035" data-name="Path 21035" d="M232.316,476.162c-.231.52-.435,1.054-.7,1.554-.523.977-1.3,1.122-1.977.28a5.246,5.246,0,0,1-.924-1.883,7.1,7.1,0,0,1,.327-4.547c.547-1.378,1.186-2.718,1.729-4.1a5.482,5.482,0,0,0,.017-1.488,7.445,7.445,0,0,0-1.019.943,18.513,18.513,0,0,0-2.934,9.1,13.5,13.5,0,0,0,.644,3.771,3.562,3.562,0,0,0,.895,1.466c1.273,1.345,2.38,1.261,3.19-.4a25.9,25.9,0,0,0,1.321-4.006c.055-.187-.116-.44-.182-.663l-.386-.038" transform="translate(-12.642 -27.459)" fill="#1a1818"/>
      <path id="Path_21036" data-name="Path 21036" d="M230.271,428.879a53.673,53.673,0,0,0,5.525-5.737c1.707-2.059,3.14-4.343,4.834-6.722,1.195,1.176,2.3,2.266,3.442,3.386,1.408-2.5.651-3.606-1.018-5.3a3.084,3.084,0,0,1-.9-3.307,7.967,7.967,0,0,0-.2-4.785,2.369,2.369,0,0,0-3.764-1.2c-1.836,1.214-2.492,3.064-2.809,5.108a3.237,3.237,0,0,0,1.1,3.132c.767.674,1.527,1.354,2.365,2.094a17.947,17.947,0,0,1-1.192,1.884,49.461,49.461,0,0,1-3.937,4.554c-4.278,4.06-8.667,8-12.992,12.005-1.269,1.174-2.48,2.407-3.715,3.611.145.219.289.439.437.659a34.486,34.486,0,0,0,6.4-4.342c2.131-1.691,4.4-3.227,6.424-5.036m7.754-18.44c-.617-.549-.463-1.115.143-1.608.7-.575,1.348-.6,1.83.065a3.742,3.742,0,0,1,.634,3.1c-1.208-.074-1.868-.905-2.606-1.561" transform="translate(-11.466 -20.05)" fill="#1a1818"/>
    </g>
  </g>
</svg>
