<svg xmlns="http://www.w3.org/2000/svg" width="25.087" height="25.087" viewBox="0 0 25.087 25.087"><path d="M22.535,9.409l-.1,0c-2.44.139-6.885.637-9.89,2.331-3.005-1.694-7.45-2.192-9.89-2.331-.033,0-.067,0-.1,0A2.489,2.489,0,0,0,0,11.868v8.724a2.478,2.478,0,0,0,2.369,2.456c1.686.089,5.907.445,8.673,1.836a1.853,1.853,0,0,0,.718.188v.013h1.568v-.013a1.862,1.862,0,0,0,.718-.188c2.765-1.391,6.987-1.747,8.673-1.836a2.479,2.479,0,0,0,2.369-2.456V11.868A2.489,2.489,0,0,0,22.535,9.409ZM11.759,23.487s-.009,0-.014,0c-2.92-1.468-7.077-1.884-9.295-2a.911.911,0,0,1-.883-.89V11.868a.733.733,0,0,1,.291-.647,1.257,1.257,0,0,1,.706-.245c1.813.1,6.334.518,9.2,2.125V23.487Zm11.759-2.895a.911.911,0,0,1-.883.89c-2.218.117-6.375.532-9.3,2,0,0-.007,0-.011,0V13.1c2.861-1.607,7.382-2.021,9.188-2.124h.019c.01,0,.984.024.984.892v8.724ZM12.543,9.407a4.7,4.7,0,1,0-4.7-4.7,4.7,4.7,0,0,0,4.7,4.7Zm0-7.839A3.136,3.136,0,1,1,9.408,4.7,3.139,3.139,0,0,1,12.543,1.568Z" fill="#8e7f72"/></svg>