<svg width="23" height="19" viewBox="0 0 23 19" fill="none" xmlns="http://www.w3.org/2000/svg">
<path d="M14.1868 18.5518C14.1653 18.565 14.1434 18.5774 14.1208 18.5888C13.5987 18.8616 13.0179 19.0027 12.4288 18.9998L14.1868 18.5518ZM14.1868 18.5518C14.2063 18.5399 14.2253 18.5272 14.2438 18.5138L14.1868 18.5518ZM5.46103 14.9412L5.38227 14.907L5.2966 14.901C4.89894 14.8733 4.55646 14.862 4.25768 14.855L4.23268 14.8544L4.20774 14.8563C3.28562 14.9267 2.36787 14.673 1.61289 14.1391C1.09173 13.745 0.800436 13.1176 0.64829 12.3235C0.495193 11.5245 0.496776 10.6345 0.499867 9.78606V9.78424L0.49987 9.21341L0.499863 9.21159C0.496776 8.36309 0.4952 7.47348 0.648384 6.67528C0.800659 5.88181 1.09215 5.25593 1.61345 4.86388C2.3694 4.32875 3.28911 4.07548 4.21253 4.14826L4.24062 4.15048L4.26879 4.14952L4.34416 4.14696L4.34429 4.14696L4.34856 4.14681C4.6217 4.13761 4.93689 4.12699 5.29836 4.10269L5.3857 4.09682L5.46585 4.06163C6.21612 3.73218 6.91779 3.30163 7.55127 2.782C8.49944 2.09696 9.56383 1.33442 10.676 0.883723C11.7804 0.436182 12.8628 0.323824 13.8885 0.852523C13.8942 0.855682 13.8999 0.858912 13.9054 0.862193L13.9062 0.862676C13.9229 0.872474 13.9391 0.88301 13.9551 0.894264C14.7501 1.46245 15.1959 2.28878 15.4381 3.65629C15.6845 5.04698 15.7068 6.91628 15.7068 9.49981C15.7068 12.0833 15.6842 13.9529 15.4376 15.3438C15.1951 16.712 14.7488 17.5387 13.9532 18.1069L13.9516 18.1081C13.9427 18.1145 13.9339 18.1204 13.9251 18.1258L13.9249 18.1259C13.9145 18.1323 13.9043 18.138 13.8943 18.1431L13.8943 18.143L13.8893 18.1457C13.4394 18.3807 12.9389 18.5023 12.4312 18.4998H12.4288C11.6074 18.4998 10.7587 18.2049 9.91383 17.758C9.07265 17.3131 8.27641 16.7404 7.55027 16.2168C6.91616 15.6971 6.21305 15.2679 5.46103 14.9412Z" fill="white" stroke="#8E7F72"/>
<path d="M19.8754 14.5309C19.9561 14.6245 20.0558 14.6999 20.1679 14.7521C20.3227 14.8335 20.4951 14.8757 20.6699 14.8751C20.8433 14.8778 21.0145 14.8369 21.1679 14.7562C21.3213 14.6755 21.452 14.5575 21.5479 14.4131C22.4958 12.9269 22.9993 11.2009 22.9993 9.43813C22.9993 7.67541 22.4958 5.94933 21.5479 4.46312C21.3991 4.24773 21.1766 4.09414 20.9225 4.03133C20.6683 3.96853 20.4 4.00081 20.1679 4.12215C20.1132 4.14769 20.0615 4.17873 20.0135 4.21471C19.963 4.25249 19.9167 4.29571 19.8753 4.34368C19.7945 4.43737 19.7344 4.54708 19.6991 4.66567C19.6638 4.78423 19.6539 4.90893 19.6703 5.03155C19.6866 5.1542 19.7288 5.27196 19.7939 5.37713C20.5673 6.59026 20.978 7.99898 20.978 9.43764C20.978 10.8763 20.5673 12.285 19.7939 13.4981C19.7288 13.6032 19.6866 13.7209 19.6703 13.8435C19.6636 13.8942 19.6613 13.9454 19.6634 13.9962C19.6665 14.0682 19.6785 14.1398 19.6992 14.2092C19.7345 14.3277 19.7945 14.4373 19.8754 14.5309Z" fill="#8E7F72"/>
</svg>
