<svg width="23" height="19" viewBox="0 0 23 19" fill="none" xmlns="http://www.w3.org/2000/svg">
<path d="M14.1878 18.5518C14.1663 18.565 14.1443 18.5774 14.1218 18.5888C13.5997 18.8616 13.0188 19.0027 12.4298 18.9998L14.1878 18.5518ZM14.1878 18.5518C14.2073 18.5399 14.2262 18.5272 14.2448 18.5138L14.1878 18.5518ZM5.46201 14.9412L5.38324 14.907L5.29758 14.901C4.89992 14.8733 4.55744 14.862 4.25866 14.855L4.23366 14.8544L4.20872 14.8563C3.2866 14.9267 2.36885 14.673 1.61387 14.1391C1.09271 13.745 0.801412 13.1176 0.649267 12.3235C0.49617 11.5245 0.497753 10.6345 0.500843 9.78606V9.78424L0.500847 9.21341L0.50084 9.21159C0.497753 8.36309 0.496177 7.47348 0.649361 6.67528C0.801636 5.88181 1.09312 5.25593 1.61442 4.86388C2.37037 4.32875 3.29008 4.07548 4.21351 4.14826L4.2416 4.15048L4.26976 4.14952L4.34513 4.14696L4.34526 4.14696L4.34954 4.14681C4.62268 4.13761 4.93787 4.12699 5.29934 4.10269L5.38667 4.09682L5.46682 4.06163C6.2171 3.73218 6.91877 3.30163 7.55225 2.782C8.50042 2.09696 9.56481 1.33442 10.677 0.883723C11.7814 0.436182 12.8638 0.323824 13.8895 0.852523C13.8952 0.855682 13.9009 0.858912 13.9064 0.862193L13.9072 0.862676C13.9238 0.872474 13.9401 0.88301 13.956 0.894264C14.7511 1.46245 15.1969 2.28878 15.4391 3.65629C15.6855 5.04698 15.7078 6.91628 15.7078 9.49981C15.7078 12.0833 15.6852 13.9529 15.4386 15.3438C15.196 16.712 14.7498 17.5387 13.9542 18.1069L13.9525 18.1081C13.9437 18.1145 13.9349 18.1204 13.926 18.1258L13.9258 18.1259C13.9154 18.1323 13.9053 18.138 13.8953 18.1431L13.8953 18.143L13.8903 18.1457C13.4404 18.3807 12.9398 18.5023 12.4322 18.4998H12.4298C11.6084 18.4998 10.7596 18.2049 9.91481 17.758C9.07362 17.3131 8.27739 16.7404 7.55125 16.2168C6.91714 15.6971 6.21403 15.2679 5.46201 14.9412Z" stroke="#8E7F72"/>
<path d="M19.4205 14.5309C19.5013 14.6245 19.601 14.6999 19.7131 14.7521C19.8679 14.8335 20.0402 14.8757 20.2151 14.8751C20.3884 14.8778 20.5596 14.8369 20.7131 14.7562C20.8664 14.6755 20.9971 14.5575 21.0931 14.4131C22.0409 12.9269 22.5445 11.2009 22.5445 9.43813C22.5445 7.67541 22.0409 5.94933 21.0931 4.46312C20.9443 4.24773 20.7218 4.09414 20.4676 4.03133C20.2135 3.96853 19.9451 4.00081 19.7131 4.12215C19.6584 4.14769 19.6067 4.17873 19.5586 4.21471C19.5082 4.25249 19.4618 4.29571 19.4205 4.34368C19.3397 4.43737 19.2796 4.54708 19.2443 4.66567C19.2089 4.78423 19.1991 4.90893 19.2154 5.03155C19.2318 5.1542 19.2739 5.27196 19.3391 5.37713C20.1124 6.59026 20.5232 7.99898 20.5232 9.43764C20.5232 10.8763 20.1124 12.285 19.3391 13.4981C19.2739 13.6032 19.2318 13.7209 19.2155 13.8435C19.2087 13.8942 19.2065 13.9454 19.2086 13.9962C19.2117 14.0682 19.2236 14.1398 19.2443 14.2092C19.2797 14.3277 19.3397 14.4373 19.4205 14.5309Z" fill="#8E7F72"/>
</svg>
