<svg width="23" height="19" viewBox="0 0 23 19" fill="none" xmlns="http://www.w3.org/2000/svg">
<path d="M7.24592 16.6141C6.6443 16.1191 5.97652 15.7104 5.26192 15.4001C4.87492 15.3731 4.54092 15.3621 4.24592 15.3551C3.20505 15.4346 2.16916 15.1473 1.31792 14.5431C-0.0190783 13.5391 -0.00607819 11.4451 -7.81894e-05 9.76407V9.23407C-0.00607819 7.55307 -0.0190783 5.46007 1.31892 4.46007C2.17141 3.8546 3.20953 3.56791 4.25192 3.65007C4.54492 3.64007 4.87792 3.63007 5.26492 3.60407C5.97804 3.29093 6.64463 2.88108 7.24592 2.38607C9.13092 1.02407 11.7149 -0.834931 14.1229 0.411069C14.1651 0.433929 14.2058 0.459308 14.2449 0.487069C16.1239 1.82907 16.2069 4.36007 16.2069 9.50007C16.2069 14.6401 16.1229 17.1721 14.2439 18.5141C14.2049 18.5422 14.1638 18.5673 14.1209 18.5891C13.5988 18.8618 13.018 19.0029 12.4289 19.0001C10.5529 19.0001 8.69392 17.6581 7.24592 16.6141ZM20.1679 14.8141C20.0559 14.7618 19.9561 14.6864 19.8753 14.5928C19.7945 14.4992 19.7345 14.3896 19.6992 14.2711C19.6638 14.1526 19.654 14.028 19.6703 13.9054C19.6867 13.7829 19.7288 13.6652 19.7939 13.5601C20.5672 12.3469 20.9781 10.9382 20.9781 9.49957C20.9781 8.06093 20.5672 6.6522 19.7939 5.43907C19.7288 5.3339 19.6866 5.21612 19.6703 5.09348C19.654 4.97085 19.6638 4.84615 19.6991 4.72759C19.7344 4.60902 19.7945 4.49929 19.8753 4.40561C19.9561 4.31193 20.0558 4.23642 20.1679 4.18407C20.3999 4.06275 20.6683 4.03046 20.9225 4.09327C21.1767 4.15608 21.3991 4.30965 21.5479 4.52507C22.4958 6.01127 22.9994 7.73733 22.9994 9.50007C22.9994 11.2628 22.4958 12.9889 21.5479 14.4751C21.452 14.6194 21.3213 14.7374 21.1679 14.8181C21.0145 14.8989 20.8433 14.9397 20.6699 14.9371C20.4951 14.9376 20.3227 14.8954 20.1679 14.8141V14.8141Z" fill="white"/>
</svg>
