<svg xmlns="http://www.w3.org/2000/svg" xmlns:xlink="http://www.w3.org/1999/xlink" width="106" height="89" viewBox="0 0 106 89"><defs><clipPath id="a"><rect width="106" height="89" transform="translate(-0.133 -0.004)" fill="none"/></clipPath></defs><g transform="translate(0.133 0.004)"><g clip-path="url(#a)"><path d="M72.454,301.724l33.891,22.743H93.7l-19.8-13.331-.009-.007L25.8,278.76a6.584,6.584,0,0,1-2.908-5.471v-4.824l49.554,33.252.011.007" transform="translate(-20.309 -238.107)" fill="#8e7f72"/><path d="M125.123,95.986,119.89,77.357l-5.3,3.524a1.3,1.3,0,0,1-.582.21l2.624,15.233a1.315,1.315,0,0,1-.563,1.317L76,124.546a1.325,1.325,0,0,1-.253.178,1.305,1.305,0,0,1-.617.154H75.1a1.306,1.306,0,0,1-.617-.154,1.334,1.334,0,0,1-.253-.178L34.162,97.641a1.317,1.317,0,0,1-.563-1.317l2.624-15.233a1.3,1.3,0,0,1-.582-.21l-5.3-3.524L25.108,95.986l50.024,33.568Z" transform="translate(-22.278 -68.609)" fill="#ccbca4"/><path d="M155.263,240.544,125,223.375l-.355,2.061,37.363,25.088a13.614,13.614,0,0,0-6.749-9.98" transform="translate(-110.6 -198.115)" fill="#d4cbbc"/><path d="M208.778,302.065,174.91,324.791h12.638l19.79-13.322.01-.007L255.4,279.116a6.58,6.58,0,0,0,2.906-5.467v-4.821l-49.519,33.229-.011.008" transform="translate(-155.196 -238.429)" fill="#8e7f72"/><path d="M486.089,65.68l31.075-17.632L513.847,28.8,480.526,44.925V70.918a16.17,16.17,0,0,1,5.563-5.239" transform="translate(-426.367 -25.54)" fill="#f7f5f2"/><path d="M481.449,250.524l37.363-25.088-.355-2.061L488.2,240.544a13.612,13.612,0,0,0-6.749,9.98" transform="translate(-427.186 -198.115)" fill="#d4cbbc"/><path d="M168.642,70.918V44.925l-2.677-1.3V57.5a1.31,1.31,0,1,1-2.621,0V42.36L135.321,28.8l-3.316,19.251L163.08,65.68a16.166,16.166,0,0,1,5.563,5.239" transform="translate(-117.127 -25.54)" fill="#f7f5f2"/><path d="M103.113,35.22a6.581,6.581,0,0,1-2.906,5.467L52.152,73.034l-.009.007L32.352,86.363H19.714L53.582,63.636l.012-.008L103.113,30.4ZM2.83,27.376,8.063,8.748l5.3,3.524a1.3,1.3,0,0,0,.582.21L11.321,27.714a1.317,1.317,0,0,0,.563,1.316L51.956,55.937a1.33,1.33,0,0,0,.253.178,1.306,1.306,0,0,0,.617.154h.023a1.305,1.305,0,0,0,.617-.154,1.324,1.324,0,0,0,.253-.178L93.791,29.031a1.315,1.315,0,0,0,.563-1.316L91.729,12.482a1.3,1.3,0,0,0,.582-.21l5.3-3.524,5.233,18.629L52.854,60.944ZM14.4,25.259,44.663,42.429a13.614,13.614,0,0,1,6.749,9.98L14.049,27.321Zm3.79-22L46.217,16.82V31.959a1.31,1.31,0,1,0,2.621,0V18.089l2.677,1.3V45.379a16.165,16.165,0,0,0-5.563-5.239L14.878,22.508ZM54.159,19.385,87.48,3.256,90.8,22.508,59.722,40.14a16.17,16.17,0,0,0-5.563,5.239Zm37.111,5.874.355,2.061L54.263,52.408a13.612,13.612,0,0,1,6.749-9.98ZM99.647,6.3a1.308,1.308,0,0,0-1.984-.739L91.269,9.81l-1.5-8.719a1.31,1.31,0,0,0-1.861-.96L52.837,17.105,17.768.131a1.31,1.31,0,0,0-1.861.96l-1.5,8.719L8.013,5.56A1.309,1.309,0,0,0,6.028,6.3L.049,27.582h0c-.011.038-.019.077-.026.116,0,.011,0,.021-.006.032-.005.032-.009.064-.012.1,0,.009,0,.018,0,.027,0,.028,0,.057,0,.085V35.22a9.207,9.207,0,0,0,4.067,7.651L36.78,64.892a1.308,1.308,0,0,0,1.818-.36,1.318,1.318,0,0,0-.358-1.824L5.527,40.688A6.579,6.579,0,0,1,2.621,35.22V30.4L50.5,62.526,14.727,86.545l-.059.039c-.034.023-.067.048-.1.073l-.031.027c-.02.017-.04.035-.059.053l-.034.035c-.017.017-.033.035-.048.054l-.031.036c-.017.022-.033.045-.049.068l-.027.039c-.017.028-.034.056-.049.084s-.014.027-.02.041-.021.044-.03.066l-.017.043c-.009.023-.017.047-.025.07l-.013.04c-.008.029-.015.057-.021.086,0,.009,0,.017-.006.026-.007.039-.013.077-.017.116,0,.008,0,.016,0,.024,0,.03,0,.062,0,.092,0,.014,0,.029,0,.043s0,.048,0,.073,0,.033,0,.05.006.044.009.065.006.036.009.053.01.043.015.064.008.034.013.052h0c.011.036.023.071.037.106,0,.012.011.025.016.037s.023.051.035.076l.019.035q.021.04.045.076l.011.019.011.016.022.031c.012.016.025.034.038.049l.02.025c.02.023.04.046.061.067h0c.024.025.049.049.074.071l0,0a.888.888,0,0,0,.073.059l.011.008c.024.018.048.034.073.05l.008.006a1.285,1.285,0,0,0,.172.09l.022.009.066.025.028.009.075.022.016,0c.03.007.06.013.091.018l.029,0,.071.008.026,0c.033,0,.065,0,.1,0H32.751a1.313,1.313,0,0,0,.73-.223L52.867,75.72l19.386,13.05a1.313,1.313,0,0,0,.73.223H90.336a1.316,1.316,0,0,0,.729-2.408L68.1,71.173a1.313,1.313,0,0,0-1.457,2.185l19.379,13H73.381L55.219,74.136l46.447-31.265a9.206,9.206,0,0,0,4.067-7.651V27.938a1.316,1.316,0,0,0-.206-.706Z" transform="translate(0 0)" fill="#3a2b20"/></g></g></svg>