<svg width="96" height="99" viewBox="0 0 96 99" fill="none" xmlns="http://www.w3.org/2000/svg">
<path d="M38.548 72.076C32.9821 72.0772 27.5033 70.6933 22.6056 68.0491C17.7079 65.4049 13.5451 61.5836 10.4925 56.9294C7.43996 52.2752 5.5935 46.9346 5.11961 41.3889C4.64572 35.8432 5.55928 30.2667 7.77796 25.1621C9.99664 20.0575 13.4507 15.5853 17.8288 12.1484C22.2069 8.71162 27.3714 6.41826 32.8568 5.47509C38.3422 4.53192 43.9761 4.96859 49.2507 6.74572C54.5253 8.52286 59.2748 11.5846 63.071 15.655C67.5276 20.4334 70.4915 26.4094 71.5987 32.849C72.7059 39.2886 71.9083 45.9113 69.3037 51.9039C66.6991 57.8964 62.4009 62.9977 56.9372 66.5813C51.4735 70.1648 45.0821 72.0746 38.548 72.076V72.076ZM38.535 7.76999C31.4637 7.77057 24.6084 10.2072 19.123 14.6698C13.6376 19.1323 9.85707 25.3484 8.41762 32.2717C6.97818 39.195 7.96774 46.4028 11.2198 52.682C14.4718 58.9612 19.7877 63.9283 26.2728 66.7475C32.7579 69.5666 40.0162 70.0656 46.826 68.1604C53.6359 66.2552 59.5815 62.0622 63.6622 56.2871C67.7429 50.512 69.7095 43.5074 69.231 36.4523C68.7525 29.3971 65.8581 22.7222 61.035 17.551C58.1602 14.4593 54.6779 11.9946 50.8061 10.3115C46.9344 8.62843 42.7567 7.76318 38.535 7.76999V7.76999Z" fill="#3A2B20"/>
<path fill-rule="evenodd" clip-rule="evenodd" d="M31.172 69.8319C24.9818 68.3741 19.3629 65.1133 15.026 60.4619L15.027 60.4609C9.21263 54.225 6.11312 45.9349 6.41017 37.4139C6.70721 28.893 10.3765 20.8389 16.611 15.0229C21.2615 10.6851 27.0939 7.82376 33.3706 6.8008C39.6474 5.77783 46.0865 6.63919 51.8736 9.27593C57.6608 11.9127 62.5361 16.2064 65.8829 21.614C69.2297 27.0216 70.8978 33.3003 70.6761 39.656C70.4544 46.0117 68.3529 52.1588 64.6374 57.3201C60.9219 62.4814 55.7593 66.425 49.8025 68.6521C43.8457 70.8791 37.3622 71.2897 31.172 69.8319ZM57.4519 20.8893C67.2002 31.338 66.6324 47.7109 56.1837 57.4592C45.735 67.2074 29.3621 66.6397 19.6139 56.191C9.86556 45.7423 10.4333 29.3694 20.882 19.6211C31.3307 9.87284 47.7036 10.4406 57.4519 20.8893Z" fill="#CCBCA4"/>
<path d="M19.9344 18.6058C23.877 14.9275 28.8219 12.5008 34.1437 11.6328C39.4654 10.7648 44.9251 11.4943 49.8323 13.7292C54.7394 15.9641 58.8736 19.6039 61.7122 24.1884C64.5507 28.7729 65.966 34.0962 65.7791 39.4851C65.5922 44.8739 63.8116 50.0864 60.6623 54.4632C57.513 58.8401 53.1366 62.1848 48.0864 64.0744C43.0362 65.9639 37.5391 66.3135 32.2903 65.0789C27.0414 63.8443 22.2765 61.081 18.5981 57.1383C13.6731 51.8478 11.0478 44.8196 11.2983 37.5958C11.5488 30.372 14.6546 23.5425 19.9344 18.6058V18.6058ZM55.2361 56.4439C58.7772 53.1403 61.2593 48.8609 62.3683 44.1467C63.4773 39.4326 63.1635 34.4954 61.4665 29.9596C59.7695 25.4238 56.7656 21.4931 52.8347 18.6645C48.9037 15.8359 44.2223 14.2365 39.3823 14.0686C34.5424 13.9006 29.7614 15.1717 25.6438 17.721C21.5262 20.2703 18.2571 23.9834 16.2499 28.3907C14.2426 32.7979 13.5873 37.7015 14.3669 42.4812C15.1465 47.2609 17.3259 51.702 20.6296 55.2431C25.0634 59.9846 31.1969 62.7738 37.6845 62.9989C44.1722 63.224 50.4843 60.8666 55.2361 56.4439V56.4439Z" fill="#3A2B20"/>
<path d="M64.422 73.5L71.472 66.924L93.312 89.5C93.7443 89.9626 94.0812 90.5059 94.3033 91.0989C94.5254 91.6919 94.6284 92.3228 94.6064 92.9556C94.5843 93.5884 94.4378 94.2107 94.175 94.7868C93.9122 95.3629 93.5384 95.8815 93.075 96.313V96.313C92.6123 96.7453 92.069 97.0821 91.476 97.3042C90.8831 97.5263 90.2522 97.6293 89.6194 97.6073C88.9865 97.5853 88.3643 97.4387 87.7882 97.1759C87.2121 96.9132 86.6935 96.5394 86.262 96.076L64.422 73.5Z" fill="#8E7F72"/>
<path d="M71.5219 64.9769L94.312 88.5339C95.142 89.417 95.6956 90.5236 95.9045 91.7174C96.1134 92.9112 95.9685 94.1401 95.4875 95.2525C95.0066 96.365 94.2108 97.3124 93.198 97.9781C92.1853 98.6438 90.9999 98.9986 89.788 98.9989H89.572C88.7562 98.9729 87.9537 98.785 87.2111 98.4463C86.4684 98.1076 85.8005 97.6248 85.246 97.0259L62.439 73.4519L71.5219 64.9769ZM89.6779 96.2189C90.5829 96.2418 91.4613 95.9115 92.127 95.2979C92.457 94.9911 92.7233 94.6221 92.9106 94.2121C93.0979 93.8022 93.2024 93.3593 93.2183 92.9089C93.2342 92.4585 93.1611 92.0094 93.0032 91.5872C92.8452 91.1651 92.6056 90.7783 92.2979 90.4489L71.422 68.8699L66.404 73.5499L87.261 95.1099C87.5682 95.4456 87.9394 95.7166 88.3527 95.907C88.766 96.0974 89.2132 96.2035 89.668 96.2189H89.6779Z" fill="#3A2B20"/>
<path d="M67.153 71.342L58.979 62.578L61.011 60.678L69.185 69.447L67.153 71.342Z" fill="#3A2B20"/>
<path d="M21.302 32.3749C21.0591 32.3746 20.8204 32.3106 20.6099 32.1893C20.3994 32.068 20.2244 31.8936 20.1023 31.6836C19.9802 31.4735 19.9152 31.2352 19.914 30.9922C19.9127 30.7493 19.9751 30.5102 20.095 30.2989C22.7858 25.5781 27.2386 22.1167 32.4772 20.6733C37.7159 19.2299 43.3131 19.9224 48.042 22.5989C48.2023 22.6881 48.3434 22.8081 48.4571 22.952C48.5708 23.0959 48.6548 23.261 48.7044 23.4376C48.7539 23.6142 48.768 23.7989 48.7458 23.9809C48.7237 24.163 48.6656 24.3389 48.5751 24.4984C48.4846 24.658 48.3633 24.798 48.2184 24.9104C48.0735 25.0228 47.9077 25.1054 47.7307 25.1535C47.5537 25.2015 47.3689 25.214 47.187 25.1902C47.0051 25.1664 46.8297 25.1068 46.671 25.0149C42.5832 22.7023 37.7454 22.1045 33.2175 23.3523C28.6897 24.6001 24.8411 27.5918 22.515 31.6719C22.3933 31.8861 22.2169 32.0642 22.0037 32.1877C21.7906 32.3112 21.5484 32.3758 21.302 32.3749V32.3749Z" fill="#3A2B20"/>
</svg>
