<svg width="58" height="59" viewBox="0 0 58 59" fill="none" xmlns="http://www.w3.org/2000/svg">
<g clip-path="url(#clip0_226_593)">
<path d="M20.4919 8.5033L19.5156 9.47956H20.9019L21.8782 8.5033H20.4919Z" fill="black"/>
<path d="M58 29.0049L49.5065 37.4984V49.5065H37.4984L28.9951 58.0098L20.4918 49.5065H8.49352V37.4984L0 29.0049L8.49352 20.5114V8.50328H20.4918L19.5156 9.47955H9.46979V20.9116L8.49352 21.8879L1.37654 29.0049L9.46979 37.0981V48.5302H20.9019L28.9951 56.6235L37.0884 48.5302H48.5302V37.0884L56.6137 29.0049L49.5065 21.8977L48.5302 20.9214V9.47955H37.0884L36.1121 8.50328L28.9951 1.3863L21.8781 8.50328H20.4918L28.9951 0L37.4984 8.50328H49.5065V20.5114L58 29.0049Z" fill="black"/>
</g>
<defs>
<clipPath id="clip0_226_593">
<rect width="58" height="58.0098" fill="white"/>
</clipPath>
</defs>
</svg>
