<svg width="70" height="70" viewBox="0 0 70 70" fill="none" xmlns="http://www.w3.org/2000/svg">
<path d="M53 7H17C11.4772 7 7 11.4772 7 17V53C7 58.5228 11.4772 63 17 63H53C58.5228 63 63 58.5228 63 53V17C63 11.4772 58.5228 7 53 7Z" fill="white"/>
<path d="M35.5201 37V35.144H37.2161V37H35.5201ZM27.0241 42.312C26.9281 41.736 26.8375 41.176 26.7521 40.632C26.6775 40.088 26.6401 39.608 26.6401 39.192C26.6401 38.36 26.8001 37.64 27.1201 37.032C27.4401 36.4346 27.8935 35.9706 28.4801 35.64C29.0668 35.3093 29.7601 35.144 30.5601 35.144C30.7201 35.144 30.9175 35.144 31.1521 35.144C31.3975 35.144 31.6801 35.144 32.0001 35.144C32.3201 35.144 32.6775 35.144 33.0721 35.144C33.4668 35.144 33.8988 35.144 34.3681 35.144L33.3921 36.072V33.048C33.3921 32.4933 33.3281 32.056 33.2001 31.736C33.0828 31.4053 32.8641 31.1706 32.5441 31.032C32.2348 30.8933 31.7815 30.824 31.1841 30.824C30.7788 30.824 30.3628 30.856 29.9361 30.92C29.5201 30.9733 29.1895 31.048 28.9441 31.144L30.2881 29.896C30.2135 30.152 30.1441 30.472 30.0801 30.856C30.0268 31.24 29.9841 31.64 29.9521 32.056C29.9201 32.4613 29.9041 32.8453 29.9041 33.208C29.9041 33.6026 29.9201 34.0026 29.9521 34.408C29.9841 34.8026 30.0215 35.1546 30.0641 35.464C30.1175 35.7733 30.1601 35.9866 30.1921 36.104L28.1601 36.664C28.1068 36.5146 28.0481 36.2693 27.9841 35.928C27.9308 35.5866 27.8775 35.1866 27.8241 34.728C27.7815 34.2586 27.7601 33.7626 27.7601 33.24C27.7601 32.7173 27.7815 32.2106 27.8241 31.72C27.8775 31.2186 27.9415 30.7706 28.0161 30.376C28.0908 29.9706 28.1601 29.6453 28.2241 29.4C28.5015 29.2933 28.9121 29.1973 29.4561 29.112C30.0001 29.016 30.5868 28.968 31.2161 28.968C31.9095 28.968 32.5015 29.0373 32.9921 29.176C33.4935 29.304 33.9041 29.4906 34.2241 29.736C34.5548 29.9813 34.8161 30.2746 35.0081 30.616C35.2001 30.9466 35.3335 31.32 35.4081 31.736C35.4828 32.152 35.5201 32.5946 35.5201 33.064V37C35.0508 37 34.5601 37 34.0481 37C33.5468 37 33.0561 37 32.5761 37C32.1068 37 31.6908 37 31.3281 37C30.9761 37 30.7201 37 30.5601 37C30.3895 37 30.2028 37.0213 30.0001 37.064C29.7975 37.1173 29.6001 37.2133 29.4081 37.352C29.2268 37.5013 29.0775 37.72 28.9601 38.008C28.8428 38.3066 28.7841 38.7013 28.7841 39.192C28.7841 39.576 28.8161 40.024 28.8801 40.536C28.9548 41.048 29.0401 41.64 29.1361 42.312H27.0241ZM37.2161 37V35.144C37.3335 35.144 37.4135 35.2293 37.4561 35.4C37.5095 35.56 37.5361 35.784 37.5361 36.072C37.5361 36.3493 37.5095 36.5733 37.4561 36.744C37.4135 36.9146 37.3335 37 37.2161 37Z" fill="#3A2B20"/>
<path d="M37.2189 37V35.144H41.0109L39.7629 36.184V28.968H41.8909V37H37.2189ZM37.2189 37C37.0909 37 37.0056 36.9146 36.9629 36.744C36.9202 36.5733 36.8989 36.3493 36.8989 36.072C36.8989 35.784 36.9202 35.56 36.9629 35.4C37.0056 35.2293 37.0909 35.144 37.2189 35.144V37ZM37.8589 28.008V26.184H40.0029V28.008H37.8589ZM40.0509 28.008V26.184H42.1949V28.008H40.0509Z" fill="#3A2B20"/>
<path d="M44 0H54.887H54.925H54.95H54.988H55.052L55.152 0.007H55.215C55.7514 0.0467499 56.2854 0.113501 56.815 0.207H56.839H56.851H56.875H56.888H56.9H56.913H56.937H56.949H56.972H56.995H57.007H57.03H57.043H57.055H57.067H57.08L57.1 0.3H57.113H57.125H57.137H57.15H57.161H57.174H57.186H57.198H57.211H57.222H57.235H57.247H57.258H57.271H57.282H57.295H57.308H57.318H57.332H57.343H57.356H57.369H57.379H57.392H57.402H57.415H57.429H57.439H57.453H57.462H57.476H57.489H57.498H57.512H57.533H57.547H57.569C57.699 0.329333 57.828 0.360333 57.956 0.393C58.3366 0.495565 58.6616 0.74384 58.8606 1.08413C59.0596 1.42441 59.1166 1.82936 59.0194 2.21137C58.9221 2.59339 58.6784 2.92178 58.3409 3.1255C58.0034 3.32922 57.5993 3.39191 57.216 3.3C56.1605 3.06729 55.0803 2.96652 54 3H44C43.6022 3 43.2206 2.84196 42.9393 2.56066C42.658 2.27936 42.5 1.89782 42.5 1.5C42.5 1.10218 42.658 0.720644 42.9393 0.43934C43.2206 0.158035 43.6022 0 44 0ZM67.085 8.245C67.3674 8.24488 67.6442 8.3245 67.8833 8.47469C68.1225 8.62489 68.3144 8.83956 68.437 9.094C69.2459 10.7823 69.7503 12.6002 69.927 14.464C69.9303 14.502 69.9337 14.54 69.937 14.578L69.942 14.641L69.948 14.717V14.755V14.767V14.805V14.817V14.829V14.867V14.879V14.9V14.925V14.937V14.949V14.986V15V15.012V15.05V15.062V15.074V15.1V15.112V15.124V15.136V15.161V15.186V15.2V15.224V15.249V15.261V15.273V15.285V15.3V15.312V15.324V15.336V15.361V15.373V15.397V15.409V15.434V15.446V15.458V15.5V15.512V15.524V15.536V15.561V15.585V15.6V15.625V15.637V15.649V15.687V15.7V15.738V15.75V15.762V15.813V15.864V15.875V15.926V15.937V15.964C69.948 15.964 69.948 15.972 69.948 15.975L70 16V22.864C70 23.2618 69.842 23.6434 69.5607 23.9247C69.2794 24.206 68.8978 24.364 68.5 24.364C68.1022 24.364 67.7206 24.206 67.4393 23.9247C67.158 23.6434 67 23.2618 67 22.864V16C67.0054 14.0597 66.5723 12.1433 65.733 10.394C65.6235 10.1654 65.5737 9.91279 65.5883 9.65975C65.6029 9.4067 65.6813 9.16148 65.8163 8.94697C65.9514 8.73246 66.1385 8.55566 66.3604 8.43308C66.5822 8.3105 66.8315 8.24614 67.085 8.246V8.245ZM68.5 35.364C68.8978 35.364 69.2794 35.522 69.5607 35.8033C69.842 36.0846 70 36.4662 70 36.864V50.864C70 51.2618 69.842 51.6434 69.5607 51.9247C69.2794 52.206 68.8978 52.364 68.5 52.364C68.1022 52.364 67.7206 52.206 67.4393 51.9247C67.158 51.6434 67 51.2618 67 50.864V36.864C67 36.4662 67.158 36.0846 67.4393 35.8033C67.7206 35.522 68.1022 35.364 68.5 35.364ZM65.286 61.6C65.5692 61.6001 65.8465 61.6803 66.086 61.8314C66.3254 61.9826 66.5172 62.1984 66.6392 62.4539C66.7612 62.7094 66.8083 62.9943 66.7752 63.2755C66.7421 63.5567 66.63 63.8228 66.452 64.043C65.1033 65.717 63.4307 67.1016 61.5342 68.1139C59.6377 69.1261 57.5564 69.7452 55.415 69.934H55.366H55.352H55.317H55.288H55.253H55.238H55.203H55.16H55.124H54.247C53.8492 69.9372 53.4664 69.7822 53.1828 69.5031C52.8993 69.2241 52.7382 68.8438 52.735 68.446C52.7318 68.0482 52.8868 67.6654 53.1659 67.3818C53.4449 67.0983 53.8252 66.9372 54.223 66.934C56.127 66.904 58.001 66.4551 59.712 65.6193C61.4229 64.7835 62.9289 63.5813 64.123 62.098C64.2689 61.9353 64.4485 61.8064 64.6494 61.7204C64.8503 61.6344 65.0676 61.5933 65.286 61.6ZM26.271 67H40.271C40.6688 67 41.0504 67.158 41.3317 67.4393C41.613 67.7206 41.771 68.1022 41.771 68.5C41.771 68.8978 41.613 69.2794 41.3317 69.5607C41.0504 69.842 40.6688 70 40.271 70H26.271C25.8732 70 25.4916 69.842 25.2103 69.5607C24.929 69.2794 24.771 68.8978 24.771 68.5C24.771 68.1022 24.929 67.7206 25.2103 67.4393C25.4916 67.158 25.8732 67 26.271 67ZM3.021 58.975C3.29988 58.9748 3.5733 59.0524 3.81053 59.199C4.04777 59.3456 4.23943 59.5555 4.364 59.805C5.21443 61.4975 6.42064 62.9861 7.9 64.169C9.39219 65.365 11.1325 66.213 12.994 66.651C13.3813 66.742 13.7167 66.9831 13.9263 67.3213C14.1358 67.6595 14.2025 68.0671 14.1115 68.4545C14.0205 68.8418 13.7794 69.1772 13.4412 69.3868C13.103 69.5963 12.6953 69.663 12.308 69.572C11.9033 69.4767 11.5033 69.366 11.108 69.24H11.097H11.086L11.005 69.214L11 69.2H10.989L10.921 69.177H10.911H10.899H10.889L10.833 69.158H10.823H10.811H10.799H10.789L10.745 69.143H10.735H10.726H10.717H10.708H10.699L10.665 69.131H10.655H10.646H10.637H10.628H10.619L10.577 69.116H10.569H10.557H10.549H10.537H10.525H10.517L10.433 69H10.421H10.409H10.401H10.389H10.381L10.352 68.989H10.344H10.333H10.321H10.309H10.297H10.289L10.261 68.978H10.254H10.242H10.23H10.218H10.206H10.198L10.181 68.971H10.17H10.158H10.146H10.134H10.122H10.11L10.084 68.961H10.072H10.06H10.048H10.036H10.024H10.017L10.002 68.955H9.991H9.979H9.967H9.955H9.943H9.931H9.919L9.906 68.95H9.894H9.882L9.87 68.945L9.858 68.94L9.8 68.753L9.788 68.748H9.776H9.765L9.753 68.743L9.741 68.738L9.729 68.733L9.717 68.728L9.7 68.712L9.688 68.707H9.682H9.677L9.664 68.7H9.657L9.645 68.695H9.64H9.633L9.621 68.69H9.616H9.609L9.597 68.685H9.59L9.571 68.677H9.564H9.557H9.55H9.543H9.536H9.529L9.502 68.665H9.495H9.488H9.481H9.474H9.467H9.46L9.431 68.652H9.423H9.416H9.409H9.402H9.394L9.365 68.639H9.357H9.35H9.343H9.336H9.328H9.32L9.29 68.625H9.282H9.274H9.266H9.258H9.25L9.21 68.606H9.202H9.194H9.186H9.178H9.17L9.13 68.586H9.122H9.114H9.106H9.098L9.058 68.566H9.049H9.04H9.032H9.023H9.014L8.973 68.545H8.964H8.955H8.946H8.937L8.7 68.239H8.691H8.682H8.673H8.664L8.6 68.189L8.59 68.184H8.58L8.57 68.179L8.517 68.151L8.507 68.146H8.498L8.488 68.141L8.478 68.136L8.426 68.108L8.416 68.103L8.406 68.098L8.396 68.093L8.386 68.088L8.32 68.04L8.31 68.034L8.3 68.029C6.87514 67.2449 5.57767 66.2488 4.452 65.075L4.377 65L4.369 64.991L4.304 64.921L4.296 64.912L4.239 64.851L4.232 64.843L4.224 64.835L4.176 64.783L4.168 64.775L4.161 64.767L4.154 64.759L4.1 64.7L4.093 64.692L4.086 64.684L4.038 64.631L4.031 64.623L4.024 64.615L4.012 64.6L3.965 64.547L3.958 64.539L3.951 64.531L3.944 64.523L3.9 64.471L3.893 64.463L3.886 64.455L3.879 64.447L3.872 64.439L3.833 64.394L3.826 64.386L3.819 64.378L3.812 64.37L3.774 64.325L3.767 64.317L3.754 64.3L3.747 64.292L3.74 64.284L3.7 64.234L3.693 64.226L3.687 64.218L3.681 64.21L3.669 64.2L3.639 64.164L3.632 64.156L3.626 64.148L3.62 64.14L3.614 64.132L3.577 64.087L3.57 64.079L3.564 64.071L3.558 64.063L3.552 64.055L3.5 63.992V63.983L3.494 63.976L3.488 63.969L3.482 63.962L3.455 63.927L3.449 63.919L3.429 63.9L3.423 63.893L3.417 63.886L3.411 63.879L3.383 63.843L3.377 63.836L3.371 63.829L3.354 63.8L3.349 63.793L3.343 63.785L3.322 63.758L3.316 63.751L3.3 63.738V63.728L3.295 63.721L3.29 63.714L3.264 63.68L3.259 63.673L3.254 63.666L3.249 63.659L3.244 63.652L3.239 63.645L3.22 63.62L3.215 63.613V63.607V63.601V63.595V63.588V63.581L3.197 63.557V63.551V63.545V63.539V63.533V63.527V63.52L3.184 63.502V63.495V63.489V63.483V63.477V63.471V63.465L3.168 63.442V63.436V63.43V63.424V63.418V63.412V63.406L3.161 63.396V63.39V63.385V63.379V63.373V63.367V63.361V63.355V63.349V63.344L3.154 63.335V63.329V63.324V63.319V63.314V63.309V63.304V63.299V63.294V63.289V63.284V63.279V63.274V63.268L3.147 63.258V63.252V63.246V63.24V63.234V63.229V63.223V63.218V63.212V63.205L3.141 63.196V63.189V63.182V63.176V63.17V63.163L3.136 63.156L3.129 63.145L3.123 63.136V63.129V63.122V63.116V63.109L3.118 63.101L3.112 63.093L3.105 63.082L3.099 63.074V63.067V63.06V63.053V63.046L3.094 63.038L3.087 63.028L2.6 62.744L2.595 62.736V62.729V62.722V62.715V62.707L2.589 62.698L2.582 62.687L2.575 62.677L2.57 62.669V62.661V62.653L2.565 62.645L2.5 62.6L2.486 62.578L2.48 62.568L2.475 62.56L2.47 62.552V62.544L2.465 62.536L2.445 62.5L2.43 62.48L2.424 62.471L2.419 62.462L2.414 62.454L2.4 62.435L2.394 62.426L2.373 62.392L2.367 62.382L2.361 62.373L2.356 62.364L2.35 62.355L2.344 62.345L2.323 62.311L2.317 62.301L2.3 62.272L2.294 62.263L2.288 62.253L2.259 62.2L2.253 62.19L2.247 62.18L2.241 62.17L2.235 62.159L2.2 62.107V62.1L2.194 62.09L2.188 62.079L2.161 62.032L2.154 62.021L2.141 62L2.135 61.99L2.128 61.979L2.1 61.93L2.094 61.919L2.088 61.908L2.082 61.897L2.042 61.826L1.989 61.726C1.883 61.5347 1.781 61.341 1.683 61.145C1.56867 60.9164 1.51465 60.6624 1.52604 60.4071C1.53744 60.1518 1.61388 59.9036 1.74811 59.6861C1.88235 59.4687 2.06992 59.2891 2.29304 59.1645C2.51616 59.0398 2.76743 58.9743 3.023 58.974L3.021 58.975ZM1.5 31.907C1.89782 31.907 2.27936 32.065 2.56066 32.3463C2.84196 32.6276 3 33.0092 3 33.407V47.407C3 47.8048 2.84196 48.1864 2.56066 48.4677C2.27936 48.749 1.89782 48.907 1.5 48.907C1.10218 48.907 0.720644 48.749 0.43934 48.4677C0.158035 48.1864 0 47.8048 0 47.407L0 33.407C0 33.0092 0.158035 32.6276 0.43934 32.3463C0.720644 32.065 1.10218 31.907 1.5 31.907ZM4.562 5.588C4.84282 5.58822 5.11794 5.66727 5.35605 5.81615C5.59416 5.96502 5.78569 6.17775 5.90885 6.43012C6.03202 6.68249 6.08186 6.96437 6.05272 7.24367C6.02358 7.52298 5.91661 7.78849 5.744 8.01C3.95622 10.2886 2.98943 13.1038 3 16V19.407C3 19.8048 2.84196 20.1864 2.56066 20.4677C2.27936 20.749 1.89782 20.907 1.5 20.907C1.10218 20.907 0.720644 20.749 0.43934 20.4677C0.158035 20.1864 0 19.8048 0 19.407L0 16C0 16 0 15.992 0 15.988C0 15.988 0 15.982 0 15.98C0 15.98 0 15.974 0 15.972V15.96C0 15.96 0 15.953 0 15.95V15.744V15.68V15.411V14.072V14.058V13.88V13.868V13.818V13.804V13.756V13.731V13.684V13.668V13.621V13.605V13.561V13.533V13.5V13.473V13.437V13.41V13.375V13.347V13.3V13.283V13.238V13.21V13.176L0.005 13.148V13.115L0.01 13.087V13.079V13.055L0.017 13.017L0.28 13V12.992L0.287 12.954V12.946V12.938V12.929L0.293 12.899V12.89V12.881V12.872L0.301 12.832V12.823V12.814L0.309 12.774V12.765V12.756L0.317 12.716V12.707V12.698L0.325 12.658V12.649V12.64L0.336 12.591V12.582V12.573L0.384 12.5V12.491V12.482L0.4 12.439V12.43V12.421L0.409 12.381V12.371V12.362L0.421 12.313V12.304L0.433 12.255V12.245L0.447 12.185L0.462 12.126V12.117L0.475 12.067V12.058L0.488 12.008V11.999V11.99L0.498 11.95V11.94L0.514 11.88L0.53 11.82V11.81L0.544 11.76V11.75L0.558 11.701V11.692L0.575 11.633L0.592 11.573L0.609 11.514L0.647 11.385C0.665667 11.3223 0.685 11.26 0.705 11.198L0.724 11.139L0.743 11.08L0.8 11L0.819 10.942C0.84 10.88 0.861 10.819 0.882 10.757V10.747L0.9 10.7V10.691L0.92 10.633L0.941 10.575L0.962 10.517L1.005 10.402V10.393L1.023 10.345V10.336L1.045 10.279L1.067 10.222V10.213L1.085 10.166V10.157L1.104 10.11V10.101L1.126 10.045L1.149 9.989V9.98L1.168 9.934V9.925L1.187 9.879V9.87L1.206 9.824V9.815V9.806L1.222 9.769V9.76V9.751L1.242 9.704V9.695L1.258 9.659V9.651V9.643L1.274 9.607V9.599V9.591V9.584L1.286 9.558V9.55V9.543V9.536V9.529L1.294 9.512V9.504V9.497V9.49V9.482L1.306 9.455V9.448V9.441V9.434L1.317 9.409V9.402V9.395V9.388L1.468 9.3V9.292V9.285V9.278L1.5 9.233V9.226V9.219V9.212L1.507 9.196V9.19V9.184V9.178V9.171L1.518 9.147V9.141V9.135V9.129L1.529 9.106V9.099V9.093V9.087V9.081L1.6 9.014V9.008V9.002V8.996V8.99L1.605 8.979V8.973V8.967V8.961V8.956V8.948V8.942V8.937V8.932V8.927V8.922V8.913V8.908V8.902V8.897V8.892V8.883V8.877V8.871V8.865V8.859V8.851V8.844V8.838V8.833V8.827V8.819V8.809V8.803V8.797V8.791V8.784L1.8 8.62V8.612V8.605V8.598V8.59L1.805 8.58V8.572V8.566V8.559V8.552L1.81 8.542V8.533V8.526V8.519V8.511L1.821 8.491V8.483V8.476V8.468L1.832 8.448V8.439V8.432V8.424L1.837 8.414L1.848 8.393V8.384V8.375L1.865 8.344V8.335V8.326H2V8.246L2.012 8.225L2.018 8.215L2.024 8.2L2.029 8.19L2.046 8.159L2.051 8.15L2.057 8.14L2.075 8.109L2.081 8.099L2.087 8.089L2.111 8.047L2.117 8.037L2.141 7.995C2.51162 7.35617 2.92594 6.74371 3.381 6.162C3.52144 5.98303 3.70075 5.83835 3.90535 5.7389C4.10996 5.63946 4.33451 5.58786 4.562 5.588ZM16 0H30C30.3978 0 30.7794 0.158035 31.0607 0.43934C31.342 0.720644 31.5 1.10218 31.5 1.5C31.5 1.89782 31.342 2.27936 31.0607 2.56066C30.7794 2.84196 30.3978 3 30 3H16C15.853 3 15.7 3 15.557 3.007C15.36 3.01357 15.1637 2.98127 14.9792 2.91195C14.7947 2.84264 14.6256 2.73766 14.4817 2.60302C14.191 2.33109 14.0203 1.95482 14.007 1.557C13.9937 1.15918 14.1391 0.772377 14.411 0.481695C14.6829 0.191014 15.0592 0.0202608 15.457 0.007C15.5977 0.00233333 15.74 0 15.884 0H16Z" fill="#3A2B20"/>
</svg>
