<svg width="70" height="70" viewBox="0 0 70 70" fill="none" xmlns="http://www.w3.org/2000/svg">
<path d="M53 7H17C11.4772 7 7 11.4772 7 17V53C7 58.5228 11.4772 63 17 63H53C58.5228 63 63 58.5228 63 53V17C63 11.4772 58.5228 7 53 7Z" fill="white"/>
<path d="M46 35H24" stroke="#3A2B20" stroke-width="3" stroke-linecap="round" stroke-linejoin="round"/>
<path d="M33 26L24 35" stroke="#3A2B20" stroke-width="3" stroke-linecap="round" stroke-linejoin="round"/>
<path d="M33 44L24 35" stroke="#3A2B20" stroke-width="3" stroke-linecap="round" stroke-linejoin="round"/>
<path d="M44 0H54.887H54.925H54.95H54.988H55.052L55.152 0.007H55.215C55.7514 0.0467499 56.2854 0.113501 56.815 0.207H56.839H56.851H56.875H56.888H56.9H56.913H56.937H56.949H56.972H56.995H57.007H57.03H57.043H57.055H57.067H57.08L57.1 0.3H57.113H57.125H57.137H57.15H57.161H57.174H57.186H57.198H57.211H57.222H57.235H57.247H57.258H57.271H57.282H57.295H57.308H57.318H57.332H57.343H57.356H57.369H57.379H57.392H57.402H57.415H57.429H57.439H57.453H57.462H57.476H57.489H57.498H57.512H57.533H57.547H57.569C57.699 0.329333 57.828 0.360333 57.956 0.393C58.3366 0.495565 58.6616 0.74384 58.8606 1.08413C59.0596 1.42441 59.1166 1.82936 59.0194 2.21137C58.9221 2.59339 58.6784 2.92178 58.3409 3.1255C58.0034 3.32922 57.5993 3.39191 57.216 3.3C56.1605 3.06729 55.0803 2.96652 54 3H44C43.6022 3 43.2206 2.84196 42.9393 2.56066C42.658 2.27936 42.5 1.89782 42.5 1.5C42.5 1.10218 42.658 0.720644 42.9393 0.43934C43.2206 0.158035 43.6022 0 44 0ZM67.085 8.245C67.3674 8.24488 67.6442 8.3245 67.8833 8.47469C68.1225 8.62489 68.3144 8.83956 68.437 9.094C69.2459 10.7823 69.7503 12.6002 69.927 14.464C69.9303 14.502 69.9337 14.54 69.937 14.578L69.942 14.641L69.948 14.717V14.755V14.767V14.805V14.817V14.829V14.867V14.879V14.9V14.925V14.937V14.949V14.986V15V15.012V15.05V15.062V15.074V15.1V15.112V15.124V15.136V15.161V15.186V15.2V15.224V15.249V15.261V15.273V15.285V15.3V15.312V15.324V15.336V15.361V15.373V15.397V15.409V15.434V15.446V15.458V15.5V15.512V15.524V15.536V15.561V15.585V15.6V15.625V15.637V15.649V15.687V15.7V15.738V15.75V15.762V15.813V15.864V15.875V15.926V15.937V15.964C69.948 15.964 69.948 15.972 69.948 15.975L70 16V22.864C70 23.2618 69.842 23.6434 69.5607 23.9247C69.2794 24.206 68.8978 24.364 68.5 24.364C68.1022 24.364 67.7206 24.206 67.4393 23.9247C67.158 23.6434 67 23.2618 67 22.864V16C67.0054 14.0597 66.5723 12.1433 65.733 10.394C65.6235 10.1654 65.5737 9.91279 65.5883 9.65975C65.6029 9.4067 65.6813 9.16148 65.8163 8.94697C65.9514 8.73246 66.1385 8.55566 66.3604 8.43308C66.5822 8.3105 66.8315 8.24614 67.085 8.246V8.245ZM68.5 35.364C68.8978 35.364 69.2794 35.522 69.5607 35.8033C69.842 36.0846 70 36.4662 70 36.864V50.864C70 51.2618 69.842 51.6434 69.5607 51.9247C69.2794 52.206 68.8978 52.364 68.5 52.364C68.1022 52.364 67.7206 52.206 67.4393 51.9247C67.158 51.6434 67 51.2618 67 50.864V36.864C67 36.4662 67.158 36.0846 67.4393 35.8033C67.7206 35.522 68.1022 35.364 68.5 35.364ZM65.286 61.6C65.5692 61.6001 65.8465 61.6803 66.086 61.8314C66.3254 61.9826 66.5172 62.1984 66.6392 62.4539C66.7612 62.7094 66.8083 62.9943 66.7752 63.2755C66.7421 63.5567 66.63 63.8228 66.452 64.043C65.1033 65.717 63.4307 67.1016 61.5342 68.1139C59.6377 69.1261 57.5564 69.7452 55.415 69.934H55.366H55.352H55.317H55.288H55.253H55.238H55.203H55.16H55.124H54.247C53.8492 69.9372 53.4664 69.7822 53.1828 69.5031C52.8993 69.2241 52.7382 68.8438 52.735 68.446C52.7318 68.0482 52.8868 67.6654 53.1659 67.3818C53.4449 67.0983 53.8252 66.9372 54.223 66.934C56.127 66.904 58.001 66.4551 59.712 65.6193C61.4229 64.7835 62.9289 63.5813 64.123 62.098C64.2689 61.9353 64.4485 61.8064 64.6494 61.7204C64.8503 61.6344 65.0676 61.5933 65.286 61.6ZM26.271 67H40.271C40.6688 67 41.0504 67.158 41.3317 67.4393C41.613 67.7206 41.771 68.1022 41.771 68.5C41.771 68.8978 41.613 69.2794 41.3317 69.5607C41.0504 69.842 40.6688 70 40.271 70H26.271C25.8732 70 25.4916 69.842 25.2103 69.5607C24.929 69.2794 24.771 68.8978 24.771 68.5C24.771 68.1022 24.929 67.7206 25.2103 67.4393C25.4916 67.158 25.8732 67 26.271 67ZM3.021 58.975C3.29988 58.9748 3.5733 59.0524 3.81053 59.199C4.04777 59.3456 4.23943 59.5555 4.364 59.805C5.21443 61.4975 6.42064 62.9861 7.9 64.169C9.39219 65.365 11.1325 66.213 12.994 66.651C13.3813 66.742 13.7167 66.9831 13.9263 67.3213C14.1358 67.6595 14.2025 68.0671 14.1115 68.4545C14.0205 68.8418 13.7794 69.1772 13.4412 69.3868C13.103 69.5963 12.6953 69.663 12.308 69.572C11.9033 69.4767 11.5033 69.366 11.108 69.24H11.097H11.086L11.005 69.214L11 69.2H10.989L10.921 69.177H10.911H10.899H10.889L10.833 69.158H10.823H10.811H10.799H10.789L10.745 69.143H10.735H10.726H10.717H10.708H10.699L10.665 69.131H10.655H10.646H10.637H10.628H10.619L10.577 69.116H10.569H10.557H10.549H10.537H10.525H10.517L10.433 69H10.421H10.409H10.401H10.389H10.381L10.352 68.989H10.344H10.333H10.321H10.309H10.297H10.289L10.261 68.978H10.254H10.242H10.23H10.218H10.206H10.198L10.181 68.971H10.17H10.158H10.146H10.134H10.122H10.11L10.084 68.961H10.072H10.06H10.048H10.036H10.024H10.017L10.002 68.955H9.991H9.979H9.967H9.955H9.943H9.931H9.919L9.906 68.95H9.894H9.882L9.87 68.945L9.858 68.94L9.8 68.753L9.788 68.748H9.776H9.765L9.753 68.743L9.741 68.738L9.729 68.733L9.717 68.728L9.7 68.712L9.688 68.707H9.682H9.677L9.664 68.7H9.657L9.645 68.695H9.64H9.633L9.621 68.69H9.616H9.609L9.597 68.685H9.59L9.571 68.677H9.564H9.557H9.55H9.543H9.536H9.529L9.502 68.665H9.495H9.488H9.481H9.474H9.467H9.46L9.431 68.652H9.423H9.416H9.409H9.402H9.394L9.365 68.639H9.357H9.35H9.343H9.336H9.328H9.32L9.29 68.625H9.282H9.274H9.266H9.258H9.25L9.21 68.606H9.202H9.194H9.186H9.178H9.17L9.13 68.586H9.122H9.114H9.106H9.098L9.058 68.566H9.049H9.04H9.032H9.023H9.014L8.973 68.545H8.964H8.955H8.946H8.937L8.7 68.239H8.691H8.682H8.673H8.664L8.6 68.189L8.59 68.184H8.58L8.57 68.179L8.517 68.151L8.507 68.146H8.498L8.488 68.141L8.478 68.136L8.426 68.108L8.416 68.103L8.406 68.098L8.396 68.093L8.386 68.088L8.32 68.04L8.31 68.034L8.3 68.029C6.87514 67.2449 5.57767 66.2488 4.452 65.075L4.377 65L4.369 64.991L4.304 64.921L4.296 64.912L4.239 64.851L4.232 64.843L4.224 64.835L4.176 64.783L4.168 64.775L4.161 64.767L4.154 64.759L4.1 64.7L4.093 64.692L4.086 64.684L4.038 64.631L4.031 64.623L4.024 64.615L4.012 64.6L3.965 64.547L3.958 64.539L3.951 64.531L3.944 64.523L3.9 64.471L3.893 64.463L3.886 64.455L3.879 64.447L3.872 64.439L3.833 64.394L3.826 64.386L3.819 64.378L3.812 64.37L3.774 64.325L3.767 64.317L3.754 64.3L3.747 64.292L3.74 64.284L3.7 64.234L3.693 64.226L3.687 64.218L3.681 64.21L3.669 64.2L3.639 64.164L3.632 64.156L3.626 64.148L3.62 64.14L3.614 64.132L3.577 64.087L3.57 64.079L3.564 64.071L3.558 64.063L3.552 64.055L3.5 63.992V63.983L3.494 63.976L3.488 63.969L3.482 63.962L3.455 63.927L3.449 63.919L3.429 63.9L3.423 63.893L3.417 63.886L3.411 63.879L3.383 63.843L3.377 63.836L3.371 63.829L3.354 63.8L3.349 63.793L3.343 63.785L3.322 63.758L3.316 63.751L3.3 63.738V63.728L3.295 63.721L3.29 63.714L3.264 63.68L3.259 63.673L3.254 63.666L3.249 63.659L3.244 63.652L3.239 63.645L3.22 63.62L3.215 63.613V63.607V63.601V63.595V63.588V63.581L3.197 63.557V63.551V63.545V63.539V63.533V63.527V63.52L3.184 63.502V63.495V63.489V63.483V63.477V63.471V63.465L3.168 63.442V63.436V63.43V63.424V63.418V63.412V63.406L3.161 63.396V63.39V63.385V63.379V63.373V63.367V63.361V63.355V63.349V63.344L3.154 63.335V63.329V63.324V63.319V63.314V63.309V63.304V63.299V63.294V63.289V63.284V63.279V63.274V63.268L3.147 63.258V63.252V63.246V63.24V63.234V63.229V63.223V63.218V63.212V63.205L3.141 63.196V63.189V63.182V63.176V63.17V63.163L3.136 63.156L3.129 63.145L3.123 63.136V63.129V63.122V63.116V63.109L3.118 63.101L3.112 63.093L3.105 63.082L3.099 63.074V63.067V63.06V63.053V63.046L3.094 63.038L3.087 63.028L2.6 62.744L2.595 62.736V62.729V62.722V62.715V62.707L2.589 62.698L2.582 62.687L2.575 62.677L2.57 62.669V62.661V62.653L2.565 62.645L2.5 62.6L2.486 62.578L2.48 62.568L2.475 62.56L2.47 62.552V62.544L2.465 62.536L2.445 62.5L2.43 62.48L2.424 62.471L2.419 62.462L2.414 62.454L2.4 62.435L2.394 62.426L2.373 62.392L2.367 62.382L2.361 62.373L2.356 62.364L2.35 62.355L2.344 62.345L2.323 62.311L2.317 62.301L2.3 62.272L2.294 62.263L2.288 62.253L2.259 62.2L2.253 62.19L2.247 62.18L2.241 62.17L2.235 62.159L2.2 62.107V62.1L2.194 62.09L2.188 62.079L2.161 62.032L2.154 62.021L2.141 62L2.135 61.99L2.128 61.979L2.1 61.93L2.094 61.919L2.088 61.908L2.082 61.897L2.042 61.826L1.989 61.726C1.883 61.5347 1.781 61.341 1.683 61.145C1.56867 60.9164 1.51465 60.6624 1.52604 60.4071C1.53744 60.1518 1.61388 59.9036 1.74811 59.6861C1.88235 59.4687 2.06992 59.2891 2.29304 59.1645C2.51616 59.0398 2.76743 58.9743 3.023 58.974L3.021 58.975ZM1.5 31.907C1.89782 31.907 2.27936 32.065 2.56066 32.3463C2.84196 32.6276 3 33.0092 3 33.407V47.407C3 47.8048 2.84196 48.1864 2.56066 48.4677C2.27936 48.749 1.89782 48.907 1.5 48.907C1.10218 48.907 0.720644 48.749 0.43934 48.4677C0.158035 48.1864 0 47.8048 0 47.407L0 33.407C0 33.0092 0.158035 32.6276 0.43934 32.3463C0.720644 32.065 1.10218 31.907 1.5 31.907ZM16 0H30C30.3978 0 30.7794 0.158035 31.0607 0.43934C31.342 0.720644 31.5 1.10218 31.5 1.5C31.5 1.89782 31.342 2.27936 31.0607 2.56066C30.7794 2.84196 30.3978 3 30 3H16C15.853 3 15.7 3 15.557 3.007C15.36 3.01357 15.1637 2.98127 14.9792 2.91195C14.7947 2.84264 14.6256 2.73766 14.4817 2.60302C14.191 2.33109 14.0203 1.95482 14.007 1.557C13.9937 1.15918 14.1391 0.772377 14.411 0.481695C14.6829 0.191014 15.0592 0.0202608 15.457 0.007C15.5977 0.00233333 15.74 0 15.884 0H16Z" fill="#DED7CD"/>
<path d="M5.35605 5.81616C5.11794 5.66728 4.84282 5.58823 4.562 5.58801C4.33451 5.58787 4.10996 5.63947 3.90535 5.73892C3.70075 5.83836 3.52144 5.98304 3.381 6.16201C2.92594 6.74373 2.51162 7.35618 2.141 7.99501L2.117 8.03701L2.111 8.04701L2.087 8.08901L2.081 8.09901L2.075 8.10901L2.057 8.14001L2.051 8.15001L2.046 8.15901L2.029 8.19001L2.024 8.20001L2.018 8.21501L2.012 8.22501L2 8.24601V8.32601H1.865V8.33501V8.34401L1.848 8.37501V8.38401V8.39301L1.837 8.41401L1.832 8.42401V8.43201V8.43901V8.44801L1.821 8.46801V8.47601V8.48301V8.49101L1.81 8.51101V8.51901V8.52601V8.53301V8.54201L1.805 8.55201V8.55901V8.56601V8.57201V8.58001L1.8 8.59001V8.59801V8.60501V8.61201V8.62001L1.605 8.78401V8.79101V8.79701V8.80301V8.80901V8.81901V8.82701V8.83301V8.83801V8.84401V8.85101V8.85901V8.86501V8.87101V8.87701V8.88301V8.89201V8.89701V8.90201V8.90801V8.91301V8.92201V8.92701V8.93201V8.93701V8.94201V8.94801V8.95601V8.96101V8.96701V8.97301V8.97901L1.6 8.99001V8.99601V9.00201V9.00801V9.01401L1.529 9.08101V9.08701V9.09301V9.09901V9.10601L1.518 9.12901V9.13501V9.14101V9.14701L1.507 9.17101V9.17801V9.18401V9.19001V9.19601L1.5 9.21201V9.21901V9.22601V9.23301L1.468 9.27801V9.28501V9.29201V9.30001L1.317 9.38801V9.39501V9.40201V9.40901L1.306 9.43401V9.44101V9.44801V9.45501L1.294 9.48201V9.49001V9.49701V9.50401V9.51201L1.286 9.52901V9.53601V9.54301V9.55001V9.55801L1.274 9.58401V9.59101V9.59901V9.60701L1.258 9.64301V9.65101V9.65901L1.242 9.69501V9.70401L1.222 9.75101V9.76001V9.76901L1.206 9.80601V9.81501V9.82401L1.187 9.87001V9.87901L1.168 9.92501V9.93401L1.149 9.98001V9.98901L1.126 10.045L1.104 10.101V10.11L1.085 10.157V10.166L1.067 10.213V10.222L1.045 10.279L1.023 10.336V10.345L1.005 10.393V10.402L0.962 10.517L0.941 10.575L0.92 10.633L0.9 10.691V10.7L0.882 10.747V10.757C0.861 10.819 0.84 10.88 0.819 10.942L0.8 11L0.743 11.08L0.724 11.139L0.705 11.198C0.685 11.26 0.665667 11.3223 0.647 11.385L0.609 11.514L0.592 11.573L0.575 11.633L0.558 11.692V11.701L0.544 11.75V11.76L0.53 11.81V11.82L0.514 11.88L0.498 11.94V11.95L0.488 11.99V11.999V12.008L0.475 12.058V12.067L0.462 12.117V12.126L0.447 12.185L0.433 12.245V12.255L0.421 12.304V12.313L0.409 12.362V12.371V12.381L0.4 12.421V12.43V12.439L0.384 12.482V12.491V12.5L0.336 12.573V12.582V12.591L0.325 12.64V12.649V12.658L0.317 12.698V12.707V12.716L0.309 12.756V12.765V12.774L0.301 12.814V12.823V12.832L0.293 12.872V12.881V12.89V12.899L0.287 12.929V12.938V12.946V12.954L0.28 12.992V13L0.017 13.017L0.01 13.055V13.079V13.087L0.005 13.115V13.148L0 13.176V13.21V13.238V13.283V13.3V13.347V13.375V13.41V13.437V13.473V13.5V13.533V13.561V13.605V13.621V13.668V13.684V13.731V13.756V13.804V13.818V13.868V13.88V14.058V14.072V15.411V15.68V15.744V15.95V15.96V15.972V15.98V15.988V16V19.407C0 19.8048 0.158035 20.1864 0.43934 20.4677C0.720644 20.749 1.10218 20.907 1.5 20.907C1.89782 20.907 2.27936 20.749 2.56066 20.4677C2.84196 20.1864 3 19.8048 3 19.407V16C2.98943 13.1038 3.95622 10.2887 5.744 8.01001C5.91661 7.78851 6.02358 7.52299 6.05272 7.24369C6.08186 6.96438 6.03202 6.68251 5.90885 6.43014C5.78569 6.17777 5.59416 5.96504 5.35605 5.81616Z" fill="#3A2B20"/>
<path d="M44 0H54.887H54.925H54.95H54.988H55.052L55.152 0.007H55.215C55.7514 0.0467499 56.2854 0.113501 56.815 0.207H56.839H56.851H56.875H56.888H56.9H56.913H56.937H56.949H56.972H56.995H57.007H57.03H57.043H57.055H57.067H57.08L57.1 0.3H57.113H57.125H57.137H57.15H57.161H57.174H57.186H57.198H57.211H57.222H57.235H57.247H57.258H57.271H57.282H57.295H57.308H57.318H57.332H57.343H57.356H57.369H57.379H57.392H57.402H57.415H57.429H57.439H57.453H57.462H57.476H57.489H57.498H57.512H57.533H57.547H57.569C57.699 0.329333 57.828 0.360333 57.956 0.393C58.3366 0.495565 58.6616 0.74384 58.8606 1.08413C59.0596 1.42441 59.1166 1.82936 59.0194 2.21137C58.9221 2.59339 58.6784 2.92178 58.3409 3.1255C58.0034 3.32922 57.5993 3.39191 57.216 3.3C56.1605 3.06729 55.0803 2.96652 54 3H44C43.6022 3 43.2206 2.84196 42.9393 2.56066C42.658 2.27936 42.5 1.89782 42.5 1.5C42.5 1.10218 42.658 0.720644 42.9393 0.43934C43.2206 0.158035 43.6022 0 44 0ZM67.085 8.245C67.3674 8.24488 67.6441 8.3245 67.8833 8.47469C68.1225 8.62489 68.3144 8.83956 68.437 9.094C69.2459 10.7823 69.7504 12.6002 69.927 14.464C69.9303 14.502 69.9337 14.54 69.937 14.578L69.942 14.641L69.948 14.717V14.755V14.767V14.805V14.817V14.829V14.867V14.879V14.9V14.925V14.937V14.949V14.986V15V15.012V15.05V15.062V15.074V15.1V15.112V15.124V15.136V15.161V15.186V15.2V15.224V15.249V15.261V15.273V15.285V15.3V15.312V15.324V15.336V15.361V15.373V15.397V15.409V15.434V15.446V15.458V15.5V15.512V15.524V15.536V15.561V15.585V15.6V15.625V15.637V15.649V15.687V15.7V15.738V15.75V15.762V15.813V15.864V15.875V15.926V15.937V15.964C69.948 15.964 69.948 15.972 69.948 15.975L70 16V22.864C70 23.2618 69.842 23.6434 69.5607 23.9247C69.2794 24.206 68.8978 24.364 68.5 24.364C68.1022 24.364 67.7206 24.206 67.4393 23.9247C67.158 23.6434 67 23.2618 67 22.864V16C67.0054 14.0597 66.5723 12.1433 65.733 10.394C65.6235 10.1654 65.5737 9.91279 65.5883 9.65975C65.6029 9.4067 65.6813 9.16148 65.8163 8.94697C65.9514 8.73246 66.1385 8.55566 66.3604 8.43308C66.5822 8.3105 66.8315 8.24614 67.085 8.246V8.245ZM68.5 35.364C68.8978 35.364 69.2794 35.522 69.5607 35.8033C69.842 36.0846 70 36.4662 70 36.864V50.864C70 51.2618 69.842 51.6434 69.5607 51.9247C69.2794 52.206 68.8978 52.364 68.5 52.364C68.1022 52.364 67.7206 52.206 67.4393 51.9247C67.158 51.6434 67 51.2618 67 50.864V36.864C67 36.4662 67.158 36.0846 67.4393 35.8033C67.7206 35.522 68.1022 35.364 68.5 35.364ZM65.286 61.6C65.5692 61.6001 65.8465 61.6803 66.086 61.8314C66.3254 61.9826 66.5172 62.1984 66.6392 62.4539C66.7612 62.7094 66.8083 62.9943 66.7752 63.2755C66.7421 63.5567 66.63 63.8228 66.452 64.043C65.1033 65.717 63.4307 67.1016 61.5342 68.1139C59.6377 69.1261 57.5564 69.7452 55.415 69.934H55.366H55.352H55.317H55.288H55.253H55.238H55.203H55.16H55.124H54.247C53.8492 69.9372 53.4664 69.7822 53.1828 69.5031C52.8993 69.2241 52.7382 68.8438 52.735 68.446C52.7318 68.0482 52.8868 67.6654 53.1659 67.3818C53.4449 67.0983 53.8252 66.9372 54.223 66.934C56.127 66.904 58.001 66.4551 59.712 65.6193C61.4229 64.7835 62.9289 63.5813 64.123 62.098C64.2689 61.9353 64.4485 61.8064 64.6494 61.7204C64.8503 61.6344 65.0676 61.5933 65.286 61.6ZM26.271 67H40.271C40.6688 67 41.0504 67.158 41.3317 67.4393C41.613 67.7206 41.771 68.1022 41.771 68.5C41.771 68.8978 41.613 69.2794 41.3317 69.5607C41.0504 69.842 40.6688 70 40.271 70H26.271C25.8732 70 25.4916 69.842 25.2103 69.5607C24.929 69.2794 24.771 68.8978 24.771 68.5C24.771 68.1022 24.929 67.7206 25.2103 67.4393C25.4916 67.158 25.8732 67 26.271 67ZM3.021 58.975C3.29988 58.9748 3.5733 59.0524 3.81053 59.199C4.04777 59.3456 4.23943 59.5555 4.364 59.805C5.21443 61.4975 6.42064 62.9861 7.9 64.169C9.39219 65.365 11.1325 66.213 12.994 66.651C13.3813 66.742 13.7167 66.9831 13.9263 67.3213C14.1358 67.6595 14.2025 68.0671 14.1115 68.4545C14.0205 68.8419 13.7794 69.1772 13.4412 69.3868C13.103 69.5963 12.6953 69.663 12.308 69.572C11.9033 69.4767 11.5033 69.366 11.108 69.24H11.097H11.086L11.005 69.214L11 69.2H10.989L10.921 69.177H10.911H10.899H10.889L10.833 69.158H10.823H10.811H10.799H10.789L10.745 69.143H10.735H10.726H10.717H10.708H10.699L10.665 69.131H10.655H10.646H10.637H10.628H10.619L10.577 69.116H10.569H10.557H10.549H10.537H10.525H10.517L10.433 69H10.421H10.409H10.401H10.389H10.381L10.352 68.989H10.344H10.333H10.321H10.309H10.297H10.289L10.261 68.978H10.254H10.242H10.23H10.218H10.206H10.198L10.181 68.971H10.17H10.158H10.146H10.134H10.122H10.11L10.084 68.961H10.072H10.06H10.048H10.036H10.024H10.017L10.002 68.955H9.991H9.979H9.967H9.955H9.943H9.931H9.919L9.906 68.95H9.894H9.882L9.87 68.945L9.858 68.94L9.8 68.753L9.788 68.748H9.776H9.765L9.753 68.743L9.741 68.738L9.729 68.733L9.717 68.728L9.7 68.712L9.688 68.707H9.682H9.677L9.664 68.7H9.657L9.645 68.695H9.64H9.633L9.621 68.69H9.616H9.609L9.597 68.685H9.59L9.571 68.677H9.564H9.557H9.55H9.543H9.536H9.529L9.502 68.665H9.495H9.488H9.481H9.474H9.467H9.46L9.431 68.652H9.423H9.416H9.409H9.402H9.394L9.365 68.639H9.357H9.35H9.343H9.336H9.328H9.32L9.29 68.625H9.282H9.274H9.266H9.258H9.25L9.21 68.606H9.202H9.194H9.186H9.178H9.17L9.13 68.586H9.122H9.114H9.106H9.098L9.058 68.566H9.049H9.04H9.032H9.023H9.014L8.973 68.545H8.964H8.955H8.946H8.937L8.7 68.239H8.691H8.682H8.673H8.664L8.6 68.189L8.59 68.184H8.58L8.57 68.179L8.517 68.151L8.507 68.146H8.498L8.488 68.141L8.478 68.136L8.426 68.108L8.416 68.103L8.406 68.098L8.396 68.093L8.386 68.088L8.32 68.04L8.31 68.034L8.3 68.029C6.87514 67.2449 5.57767 66.2488 4.452 65.075L4.377 65L4.369 64.991L4.304 64.921L4.296 64.912L4.239 64.851L4.232 64.843L4.224 64.835L4.176 64.783L4.168 64.775L4.161 64.767L4.154 64.759L4.1 64.7L4.093 64.692L4.086 64.684L4.038 64.631L4.031 64.623L4.024 64.615L4.012 64.6L3.965 64.547L3.958 64.539L3.951 64.531L3.944 64.523L3.9 64.471L3.893 64.463L3.886 64.455L3.879 64.447L3.872 64.439L3.833 64.394L3.826 64.386L3.819 64.378L3.812 64.37L3.774 64.325L3.767 64.317L3.754 64.3L3.747 64.292L3.74 64.284L3.7 64.234L3.693 64.226L3.687 64.218L3.681 64.21L3.669 64.2L3.639 64.164L3.632 64.156L3.626 64.148L3.62 64.14L3.614 64.132L3.577 64.087L3.57 64.079L3.564 64.071L3.558 64.063L3.552 64.055L3.5 63.992V63.983L3.494 63.976L3.488 63.969L3.482 63.962L3.455 63.927L3.449 63.919L3.429 63.9L3.423 63.893L3.417 63.886L3.411 63.879L3.383 63.843L3.377 63.836L3.371 63.829L3.354 63.8L3.349 63.793L3.343 63.785L3.322 63.758L3.316 63.751L3.3 63.738V63.728L3.295 63.721L3.29 63.714L3.264 63.68L3.259 63.673L3.254 63.666L3.249 63.659L3.244 63.652L3.239 63.645L3.22 63.62L3.215 63.613V63.607V63.601V63.595V63.588V63.581L3.197 63.557V63.551V63.545V63.539V63.533V63.527V63.52L3.184 63.502V63.495V63.489V63.483V63.477V63.471V63.465L3.168 63.442V63.436V63.43V63.424V63.418V63.412V63.406L3.161 63.396V63.39V63.385V63.379V63.373V63.367V63.361V63.355V63.349V63.344L3.154 63.335V63.329V63.324V63.319V63.314V63.309V63.304V63.299V63.294V63.289V63.284V63.279V63.274V63.268L3.147 63.258V63.252V63.246V63.24V63.234V63.229V63.223V63.218V63.212V63.205L3.141 63.196V63.189V63.182V63.176V63.17V63.163L3.136 63.156L3.129 63.145L3.123 63.136V63.129V63.122V63.116V63.109L3.118 63.101L3.112 63.093L3.105 63.082L3.099 63.074V63.067V63.06V63.053V63.046L3.094 63.038L3.087 63.028L2.6 62.744L2.595 62.736V62.729V62.722V62.715V62.707L2.589 62.698L2.582 62.687L2.575 62.677L2.57 62.669V62.661V62.653L2.565 62.645L2.5 62.6L2.486 62.578L2.48 62.568L2.475 62.56L2.47 62.552V62.544L2.465 62.536L2.445 62.5L2.43 62.48L2.424 62.471L2.419 62.462L2.414 62.454L2.4 62.435L2.394 62.426L2.373 62.392L2.367 62.382L2.361 62.373L2.356 62.364L2.35 62.355L2.344 62.345L2.323 62.311L2.317 62.301L2.3 62.272L2.294 62.263L2.288 62.253L2.259 62.2L2.253 62.19L2.247 62.18L2.241 62.17L2.235 62.159L2.2 62.107V62.1L2.194 62.09L2.188 62.079L2.161 62.032L2.154 62.021L2.141 62L2.135 61.99L2.128 61.979L2.1 61.93L2.094 61.919L2.088 61.908L2.082 61.897L2.042 61.826L1.989 61.726C1.883 61.5347 1.781 61.341 1.683 61.145C1.56867 60.9164 1.51465 60.6624 1.52604 60.4071C1.53744 60.1518 1.61388 59.9036 1.74811 59.6861C1.88235 59.4687 2.06992 59.2891 2.29304 59.1645C2.51616 59.0398 2.76743 58.9743 3.023 58.974L3.021 58.975ZM1.5 31.907C1.89782 31.907 2.27936 32.065 2.56066 32.3463C2.84196 32.6276 3 33.0092 3 33.407V47.407C3 47.8048 2.84196 48.1864 2.56066 48.4677C2.27936 48.749 1.89782 48.907 1.5 48.907C1.10218 48.907 0.720644 48.749 0.43934 48.4677C0.158035 48.1864 0 47.8048 0 47.407V33.407C0 33.0092 0.158035 32.6276 0.43934 32.3463C0.720644 32.065 1.10218 31.907 1.5 31.907Z" fill="#3A2B20"/>
</svg>