<svg xmlns="http://www.w3.org/2000/svg" width="70" height="70" viewBox="0 0 70 70">
  <g id="Group_3399" data-name="Group 3399" transform="translate(-153 -701)">
    <g id="Group_1830" data-name="Group 1830">
      <rect id="Rectangle_347" data-name="Rectangle 347" width="56" height="56" rx="10" transform="translate(160 708)" fill="#fff"/>
      <g id="Group_1667" data-name="Group 1667" transform="translate(206.244 754.244) rotate(180)">
        <path id="Path_21037" data-name="Path 21037" d="M0,0H36.488V36.488H0Z" fill="none"/>
        <line id="Line_6" data-name="Line 6" x2="22" transform="translate(7.244 18.244)" fill="none" stroke="#3a2b20" stroke-linecap="round" stroke-linejoin="round" stroke-width="3"/>
        <line id="Line_7" data-name="Line 7" y1="9" x2="9" transform="translate(20.244 18.244)" fill="none" stroke="#3a2b20" stroke-linecap="round" stroke-linejoin="round" stroke-width="3"/>
        <line id="Line_8" data-name="Line 8" x2="9" y2="9" transform="translate(20.244 9.244)" fill="none" stroke="#3a2b20" stroke-linecap="round" stroke-linejoin="round" stroke-width="3"/>
      </g>
    </g>
    <g id="Group_3398" data-name="Group 3398">
      <path id="Rectangle_913" data-name="Rectangle 913" d="M44,0H54.887l.038,0h.025l.038,0,.064,0h0l.1.007h0l.063,0h0a16.01,16.01,0,0,1,1.6.2h0l.024,0,.012,0h0l.024,0,.013,0,.012,0h0l.013,0,.024,0,.012,0h0l.023,0h0l.023,0,.012,0h0l.023,0,.013,0,.012,0,.012,0,.013,0L57.1.3l.013,0,.012,0,.012,0,.013,0,.011,0,.013,0,.012,0,.012,0,.013,0,.011,0,.013,0,.012,0,.011,0,.013,0,.011,0,.013,0,.013,0,.01,0,.014,0,.011,0,.013,0,.013,0,.01,0,.013,0,.01,0,.013,0,.014,0,.01,0,.014,0,.009,0,.014,0,.013,0,.009,0,.014,0,.021,0h0l.014,0h0l.022,0h0q.195.044.387.093a1.5,1.5,0,0,1-.74,2.907A13.058,13.058,0,0,0,54,3H44a1.5,1.5,0,0,1,0-3ZM67.085,8.245a1.5,1.5,0,0,1,1.352.849,15.9,15.9,0,0,1,1.49,5.37h0q.005.057.01.114h0l.005.063h0l.006.076h0l0,.038h0v.012h0l0,.038h0v.012h0v.012h0l0,.038h0v.012h0V14.9h0l0,.025s0,0,0,0v.012h0v.012h0l0,.037h0V15h0v.012h0l0,.038h0v.012h0v.012h0V15.1h0v.012h0v.012h0v.012h0v.025h0v.025h0V15.2h0v.024h0v.025h0v.012h0v.012h0v.012h0V15.3h0v.012h0v.012h0v.012h0v.025h0v.012h0v.024h0v.012h0v.025h0v.012h0v.012h0V15.5h0v.012h0v.012h0v.012h0v.025h0v.024h0V15.6h0v.025h0v.012h0v.012h0v.038h0V15.7h0v.038h0v.012h0v.012h0v.051h0v.051h0v.011h0v.051h0v.011h0v.027s0,.008,0,.011h0S70,16,70,16v6.864a1.5,1.5,0,0,1-3,0V16a12.877,12.877,0,0,0-1.267-5.606,1.5,1.5,0,0,1,1.352-2.148ZM68.5,35.364a1.5,1.5,0,0,1,1.5,1.5v14a1.5,1.5,0,0,1-3,0v-14A1.5,1.5,0,0,1,68.5,35.364ZM65.286,61.6a1.5,1.5,0,0,1,1.166,2.443,15.975,15.975,0,0,1-11.037,5.891h0l-.049,0h-.014l-.035,0h-.029l-.035,0h-.015l-.035,0h-.043l-.036,0h-.877a1.5,1.5,0,0,1-.024-3,12.972,12.972,0,0,0,9.9-4.836A1.5,1.5,0,0,1,65.286,61.6ZM26.271,67h14a1.5,1.5,0,0,1,0,3h-14a1.5,1.5,0,1,1,0-3ZM3.021,58.975a1.5,1.5,0,0,1,1.343.83A13.143,13.143,0,0,0,7.9,64.169a12.852,12.852,0,0,0,5.094,2.482,1.5,1.5,0,0,1-.686,2.921q-.607-.143-1.2-.332h0l-.011,0h0l-.011,0h0l-.081-.026h0L11,69.2h0l-.011,0h0l-.068-.023h0l-.01,0-.012,0h0l-.01,0h0l-.056-.019h0l-.01,0-.012,0-.012,0h0l-.01,0h0l-.044-.015h0l-.01,0h0l-.009,0h0l-.009,0h0l-.009,0h0l-.009,0h0l-.034-.012h0l-.01,0h0l-.009,0h0l-.009,0h0l-.009,0h0l-.009,0h0l-.042-.015h0l-.008,0-.012,0,0,0-.008,0-.012,0-.012,0h0l-.008,0h0L10.433,69l-.012,0-.012,0,0,0-.008,0-.012,0h0l-.008,0h0l-.029-.011h0l-.008,0-.011,0-.012,0-.012,0-.012,0,0,0-.008,0h0l-.028-.011,0,0-.007,0-.012,0-.012,0-.012,0-.012,0,0,0-.008,0h0l-.017-.007-.011,0-.012,0-.012,0-.012,0-.012,0-.012,0,0,0-.026-.01-.012,0-.012,0-.012,0-.012,0-.012,0,0,0-.007,0,0,0-.015-.006-.011,0-.012,0-.012,0-.012,0-.012,0-.012,0-.012,0,0,0-.013-.005-.012,0-.012,0-.012-.005-.012-.005L9.8,68.753l-.012-.005-.012,0-.011,0-.012-.005-.012-.005-.012-.005-.012-.005L9.7,68.712l-.012-.005-.006,0-.005,0L9.664,68.7l0,0-.007,0-.012-.005-.005,0-.007,0-.012-.005-.005,0-.007,0-.012-.005,0,0-.007,0h0l-.019-.008h0l-.007,0,0,0-.007,0,0,0-.007,0,0,0-.007,0,0,0-.007,0,0,0-.007,0,0,0-.027-.012,0,0-.007,0,0,0-.007,0,0,0-.007,0,0,0-.007,0,0,0-.007,0,0,0-.007,0h0l-.029-.013h0l-.008,0,0,0-.007,0,0,0-.007,0,0,0-.007,0,0,0-.008,0,0,0-.029-.013h0l-.008,0,0,0-.007,0,0,0-.007,0,0,0-.007,0,0,0-.008,0,0,0-.008,0h0l-.03-.014h0l-.008,0,0,0-.008,0,0,0-.008,0,0,0-.008,0,0,0-.008,0h0l-.04-.019h0l-.008,0,0,0-.008,0,0,0-.008,0,0,0-.008,0h0l-.008,0h0l-.04-.02h0l-.008,0h0l-.008,0,0,0-.008,0,0,0-.008,0h0l-.04-.02h0l-.009,0h0l-.009,0h0l-.008,0h0l-.009,0h0l-.009,0h0l-.041-.021h0l-.009,0h0l-.009,0h0l-.009,0h0l-.009,0h0L8.7,68.239h0l-.009,0h0l-.009,0h0l-.009,0h0l-.009,0h0L8.6,68.189h0l-.01-.005h0l-.01,0h0l-.01-.005h0l-.053-.028h0l-.01-.005h0l-.009,0h0l-.01-.005h0l-.01-.005h0l-.052-.028h0l-.01-.005h0l-.01-.005h0l-.01-.005h0l-.01-.005h0L8.32,68.04h0l-.01-.006h0l-.01-.005h0a16.058,16.058,0,0,1-3.848-2.954h0L4.377,65h0l-.008-.009h0l-.065-.07h0l-.008-.009h0l-.057-.061h0l-.007-.008h0l-.008-.008h0l-.048-.052h0l-.008-.008h0l-.007-.008h0l-.007-.008h0L4.1,64.7h0l-.007-.008h0l-.007-.008h0l-.048-.053h0l-.007-.008h0l-.007-.008h0L4.012,64.6h0l-.047-.053h0l-.007-.008h0l-.007-.008h0l-.007-.008h0L3.9,64.471h0l-.007-.008h0l-.007-.008h0l-.007-.008h0l-.007-.008h0l-.039-.045h0l-.007-.008h0l-.007-.008h0l-.007-.008h0l-.038-.045h0l-.007-.008h0L3.754,64.3v0l-.007-.008v0l-.007-.008h0L3.7,64.234h0l-.007-.008h0l-.006-.008,0,0-.006-.008v0L3.669,64.2h0l-.03-.036h0l-.007-.008h0l-.006-.008,0,0-.006-.008v0l-.006-.008h0l-.037-.045h0l-.007-.008v0l-.006-.008,0,0-.006-.008,0,0-.006-.008v0L3.5,63.992v0L3.5,63.983l0,0-.006-.007,0,0-.006-.007,0,0-.006-.007,0,0-.027-.035v0l-.006-.008,0,0L3.429,63.9l0,0-.006-.007,0,0-.006-.007,0,0-.006-.007h0l-.028-.036,0,0-.006-.007,0,0-.006-.007,0,0L3.354,63.8l0,0-.005-.007,0,0-.006-.008h0l-.021-.027h0l-.006-.007,0,0L3.3,63.738l0,0L3.3,63.728l0,0-.005-.007,0,0-.005-.007,0,0-.026-.034,0,0-.005-.007,0,0-.005-.007,0,0-.005-.007,0,0-.005-.007,0,0-.005-.007,0,0-.019-.025v0l-.005-.007,0,0,0-.006,0,0,0-.006,0,0,0-.006,0,0,0-.007,0,0,0-.007,0,0-.018-.024,0,0,0-.006,0,0,0-.006,0,0,0-.006,0,0,0-.006,0,0,0-.006,0,0,0-.007h0l-.013-.018h0l0-.007,0,0,0-.006,0,0,0-.006,0,0,0-.006,0,0,0-.006,0,0,0-.006,0,0-.016-.023,0,0,0-.006,0,0,0-.006,0,0,0-.006,0,0,0-.006,0,0,0-.006,0,0,0-.006,0,0-.007-.01,0-.006,0-.005,0,0,0-.006,0,0,0-.006,0,0,0-.006,0,0,0-.006,0,0,0-.006,0,0,0-.006,0-.005-.007-.009,0-.006,0-.005,0-.005,0-.005,0-.005,0-.005,0-.005,0-.005,0-.005,0-.005,0-.005,0-.005,0-.006,0,0-.007-.01,0,0,0-.006,0,0,0-.006,0,0,0-.006,0,0,0-.006,0-.005,0-.006,0-.005,0-.006,0,0,0-.007,0,0-.006-.009,0,0,0-.007,0,0,0-.007,0,0,0-.006,0,0,0-.006,0,0,0-.007,0,0-.005-.007,0,0-.007-.011h0l-.006-.009,0,0,0-.007,0,0,0-.007,0,0,0-.006,0,0,0-.007,0,0-.005-.008,0,0-.006-.008,0,0-.007-.011,0,0-.006-.008,0,0,0-.007,0,0,0-.007,0,0,0-.007,0,0,0-.007,0,0-.005-.008,0,0-.007-.01h0L2.6,62.744l0,0-.005-.008,0,0,0-.007,0,0,0-.007,0,0,0-.007,0,0,0-.008,0,0-.006-.009v0l-.007-.011h0l-.007-.01,0,0-.005-.008,0,0,0-.008,0,0,0-.008,0,0-.005-.008,0,0L2.5,62.6l0,0-.014-.022v0l-.006-.01,0,0-.005-.008,0,0-.005-.008,0,0,0-.008,0,0-.005-.008,0,0L2.445,62.5h0L2.43,62.48v0l-.006-.009,0,0-.005-.009,0,0-.005-.008,0,0L2.4,62.435l0,0-.006-.009v0l-.021-.034v0l-.006-.01v0l-.006-.009,0,0-.005-.009v0l-.006-.009v0l-.006-.01h0l-.021-.034h0l-.006-.01v0L2.3,62.272v0l-.006-.009v0l-.006-.01v0L2.259,62.2v0l-.006-.01v0l-.006-.01v0l-.006-.01h0l-.006-.011h0L2.2,62.107v0L2.2,62.1v0l-.006-.01v0l-.006-.011h0l-.027-.047h0l-.007-.011h0L2.141,62h0l-.006-.01h0l-.007-.011h0L2.1,61.93h0l-.006-.011h0l-.006-.011h0l-.006-.011h0l-.04-.071h0l-.053-.1h0q-.159-.287-.306-.581a1.5,1.5,0,0,1,1.34-2.171ZM1.5,31.907a1.5,1.5,0,0,1,1.5,1.5v14a1.5,1.5,0,0,1-3,0v-14A1.5,1.5,0,0,1,1.5,31.907ZM4.562,5.588A1.5,1.5,0,0,1,5.744,8.01,12.868,12.868,0,0,0,3,16v3.407a1.5,1.5,0,0,1-3,0V16s0-.008,0-.012v0s0-.006,0-.008,0,0,0,0,0-.006,0-.008v-.012s0,0,0,0,0-.007,0-.01H0v-.206H0v-.064H0v-.269h0V14.072l0-.014V13.88l0-.012v-.05l0-.014v-.048l0-.025v-.047l0-.016v-.047l0-.016v-.044h0l0-.028V13.5l0-.027v-.036l0-.027v-.035l0-.028h0V13.3l0-.017v-.045l0-.028v-.034l.005-.028h0v-.033l.005-.028h0l0-.008v-.024l.007-.038v0L.28,13v0l0-.008v0l.007-.038v0l0-.008v0l0-.008v0l0-.009h0l.006-.03h0l0-.009v0l0-.009v0l0-.009h0l.008-.04h0l0-.009v0l0-.009h0l.008-.04h0l0-.009h0l0-.009h0l.008-.04h0l0-.009h0l0-.009h0l.008-.04h0l0-.009v0l0-.009v0l.011-.049h0l0-.009h0l0-.009h0L.384,12.5v0l0-.009v0l0-.009h0L.4,12.439h0l0-.009v0l0-.009h0l.009-.04h0l0-.01h0l0-.009h0l.012-.049h0l0-.009v0l.012-.049h0l0-.01h0l.014-.06h0l.015-.059h0l0-.009h0l.013-.05h0l0-.009h0l.013-.05h0l0-.009h0l0-.009h0l.01-.04h0l0-.01h0l.016-.06h0l.016-.06h0l0-.01h0l.014-.05h0l0-.01h0l.014-.049h0l0-.009h0l.017-.059h0l.017-.06h0l.017-.059h0l.038-.129h0q.028-.094.058-.187h0l.019-.059h0l.019-.059h0L.8,11h0l.019-.058h0c.021-.062.042-.123.063-.185h0l0-.01h0L.9,10.7h0l0-.009h0l.02-.058h0l.021-.058h0l.021-.058h0l.043-.115h0l0-.009h0l.018-.048h0l0-.009h0l.022-.057h0l.022-.057h0l0-.009h0l.018-.047h0l0-.009h0l.019-.047h0l0-.009h0l.022-.056h0l.023-.056h0l0-.009h0l.019-.046h0l0-.009h0l.019-.046h0l0-.009h0l.019-.046h0l0-.009h0l0-.009h0l.016-.037h0l0-.009h0l0-.009h0l.02-.047h0l0-.009h0l.016-.036h0l0-.008v0l0-.008v0l.016-.036h0l0-.008v0l0-.008v0l0-.007v0l.012-.026h0l0-.008v0l0-.007v0l0-.007v0l0-.007h0l.008-.017h0l0-.008v0l0-.007v0l0-.007v0l0-.008h0l.012-.027v0l0-.007v0l0-.007v0l0-.007v0l.011-.025v0l0-.007v0l0-.007v0l0-.007v0L1.468,9.3h0l0-.008v0l0-.007v0l0-.007v0L1.5,9.233v0l0-.007v0l0-.007v0l0-.007v0l.007-.016h0l0-.006,0,0,0-.006,0,0,0-.006,0,0,0-.007h0l.011-.024,0,0,0-.006,0,0,0-.006,0,0,0-.006v0l.011-.023v0l0-.007,0,0,0-.006,0,0,0-.006,0,0,0-.006v0L1.6,9.014l0,0,0-.006,0,0,0-.006,0,0,0-.006,0,0,0-.006,0,0,.005-.011,0,0,0-.006,0,0,0-.006,0,0,0-.006,0,0,0-.005,0,0,0-.008,0-.006,0,0,0,0,0-.005,0,0,0-.005,0,0,0-.005,0-.005,0,0,0-.009,0,0,0-.005,0,0,0-.006,0,0,0-.005,0,0,0-.005,0,0,0-.009,0,0,0-.006,0,0,0-.006,0,0,0-.006,0,0,0-.006,0,0,0-.008,0,0,0-.007,0,0,0-.006,0,0,0-.005,0,0,0-.006,0,0,0-.008v0l0-.01,0,0,0-.006,0,0,0-.006,0,0,0-.006,0,0,0-.007v0L1.8,8.62v0l0-.008,0,0,0-.007,0,0,0-.007,0,0,0-.008v0l.005-.01v0l0-.008,0,0,0-.006,0,0,0-.007,0,0,0-.007v0l.005-.01h0l0-.009v0l0-.007,0,0,0-.007,0,0,0-.008v0l.011-.02v0l0-.008,0,0,0-.007v0l0-.008v0l.011-.02h0l0-.009v0l0-.007,0,0,0-.008v0l.005-.01h0l.011-.021v0l0-.009v0l0-.009h0l.017-.031h0l0-.009v0l0-.009H2L2,8.246H2l.012-.021h0l.006-.01h0L2.024,8.2h0l.005-.01h0l.017-.031h0l.005-.009h0l.006-.01h0l.018-.031h0l.006-.01h0l.006-.01h0l.024-.042h0l.006-.01h0l.024-.042h0A16.034,16.034,0,0,1,3.381,6.162,1.5,1.5,0,0,1,4.562,5.588ZM16,0H30a1.5,1.5,0,0,1,0,3H16c-.147,0-.3,0-.443.007a1.5,1.5,0,0,1-.1-3Q15.668,0,15.884,0H16Z" transform="translate(153 701)" fill="#ded7cd"/>
      <path id="Rectangle_913-2" data-name="Rectangle 913" d="M44,0H54.887l.038,0h.025l.038,0,.064,0h0l.1.007h0l.063,0h0a16.01,16.01,0,0,1,1.6.2h0l.024,0,.012,0h0l.024,0,.013,0,.012,0h0l.013,0,.024,0,.012,0h0l.023,0h0l.023,0,.012,0h0l.023,0,.013,0,.012,0,.012,0,.013,0L57.1.3l.013,0,.012,0,.012,0,.013,0,.011,0,.013,0,.012,0,.012,0,.013,0,.011,0,.013,0,.012,0,.011,0,.013,0,.011,0,.013,0,.013,0,.01,0,.014,0,.011,0,.013,0,.013,0,.01,0,.013,0,.01,0,.013,0,.014,0,.01,0,.014,0,.009,0,.014,0,.013,0,.009,0,.014,0,.021,0h0l.014,0h0l.022,0h0q.195.044.387.093a1.5,1.5,0,0,1-.74,2.907A13.058,13.058,0,0,0,54,3H44a1.5,1.5,0,0,1,0-3ZM67.085,8.245a1.5,1.5,0,0,1,1.352.849,15.9,15.9,0,0,1,1.49,5.37h0q.005.057.01.114h0l.005.063h0l.006.076h0l0,.038h0v.012h0l0,.038h0v.012h0v.012h0l0,.038h0v.012h0V14.9h0l0,.025s0,0,0,0v.012h0v.012h0l0,.037h0V15h0v.012h0l0,.038h0v.012h0v.012h0V15.1h0v.012h0v.012h0v.012h0v.025h0v.025h0V15.2h0v.024h0v.025h0v.012h0v.012h0v.012h0V15.3h0v.012h0v.012h0v.012h0v.025h0v.012h0v.024h0v.012h0v.025h0v.012h0v.012h0V15.5h0v.012h0v.012h0v.012h0v.025h0v.024h0V15.6h0v.025h0v.012h0v.012h0v.038h0V15.7h0v.038h0v.012h0v.012h0v.051h0v.051h0v.011h0v.051h0v.011h0v.027s0,.008,0,.011h0S70,16,70,16v6.864a1.5,1.5,0,0,1-3,0V16a12.877,12.877,0,0,0-1.267-5.606,1.5,1.5,0,0,1,1.352-2.148ZM68.5,35.364a1.5,1.5,0,0,1,1.5,1.5v14a1.5,1.5,0,0,1-3,0v-14A1.5,1.5,0,0,1,68.5,35.364Z" transform="translate(153 701)" fill="#3a2b20"/>
    </g>
  </g>
</svg>
