<svg width="22" height="26" viewBox="0 0 22 26" fill="none" xmlns="http://www.w3.org/2000/svg">
<g clip-path="url(#clip0_374_578)">
<path d="M17.087 13C17.0891 12.7422 17.0238 12.4884 16.8975 12.2637C16.7712 12.039 16.5883 11.8512 16.367 11.719L3.78 4.057C3.55258 3.91856 3.29242 3.84313 3.02622 3.83848C2.76002 3.83383 2.49738 3.90011 2.26526 4.03052C2.03315 4.16093 1.83992 4.35077 1.70544 4.58055C1.57095 4.81033 1.50004 5.07176 1.5 5.338V20.662C1.50004 20.9282 1.57095 21.1897 1.70544 21.4195C1.83992 21.6492 2.03315 21.8391 2.26526 21.9695C2.49738 22.0999 2.76002 22.1662 3.02622 22.1615C3.29242 22.1569 3.55258 22.0814 3.78 21.943L16.367 14.281C16.5883 14.1488 16.7712 13.961 16.8975 13.7363C17.0238 13.5116 17.0891 13.2578 17.087 13M18.587 13C18.5896 13.5154 18.4583 14.0226 18.2058 14.4719C17.9534 14.9212 17.5885 15.2972 17.147 15.563L4.557 23.224C4.1021 23.5009 3.58167 23.6518 3.04919 23.661C2.5167 23.6703 1.99135 23.5377 1.52709 23.2767C1.06283 23.0158 0.676398 22.636 0.407495 22.1763C0.138593 21.7166 -0.00309115 21.1936 -0.00300217 20.661V5.338C-0.00291364 4.80552 0.1389 4.28266 0.407875 3.8231C0.67685 3.36355 1.06329 2.98386 1.52752 2.72304C1.99175 2.46222 2.51704 2.32965 3.04944 2.33896C3.58184 2.34827 4.10217 2.49911 4.557 2.776L17.147 10.437C17.5885 10.7028 17.9534 11.0788 18.2058 11.5281C18.4583 11.9774 18.5896 12.4846 18.587 13V13Z" fill="#8E7F72"/>
</g>
<defs>
<clipPath id="clip0_374_578">
<rect width="21.357" height="26" fill="white"/>
</clipPath>
</defs>
</svg>
