<svg xmlns="http://www.w3.org/2000/svg" width="114.497" height="32.5" viewBox="0 0 114.497 32.5"><g transform="translate(-427.659 15.346)"><path d="M541.2,5.082a5.338,5.338,0,0,0-.608-6.1,1.7,1.7,0,0,1-.626-1.663c.575-1.506-.664-1.019-.664-1.019a4.071,4.071,0,0,1-3.726-2.992h-28.4V-6.6h-3.838c.2-.179.39-.356.579-.533l1.053-.017s.812-1.424-1.239-1.335a3.025,3.025,0,0,0,.515-1.254s-.132.619-2.155.425c0,0,.182-.42-.046-.628a1.057,1.057,0,0,1-1.019.374,5.115,5.115,0,0,0-1.009-.1,4.94,4.94,0,0,1-.678-.192s1.379-.683.144-2.367c0,0,.018.851-.262.858,0,0,.157,1.336-.651,1.292l-.566.01a.882.882,0,0,0-1.327-.525s-.752-.785-1.408.778a2.779,2.779,0,0,1-.976.242l.037-.651a1.4,1.4,0,0,0-.741.884s-1.39.406-1.535.715a4.4,4.4,0,0,0-1.878-4.132A2.64,2.64,0,0,0,487.359-13l-.085-.847-.6.108s-.42-.095-.436-.185a7.22,7.22,0,0,1,.971-.858s-.041-.36-.292-.3a2.126,2.126,0,0,0-1.269,1.061s-.558-1.231-1.306.033c0,0-.659-1.1-1.209-1.106,0,0-.988.11.541,1.044,0,0-.344.264-.3.373s-.126-.132-.6-.179c0,0-.2.173-.009.735,0,0-2.4-.592-3.436.866,0,0-1.525.856-1.337,3.6l-1.534-.691a1.955,1.955,0,0,0-.66-.874l-.077-.01-.185.653a4.007,4.007,0,0,0-.752-.231s-.643-1.623-1.432-.634c0,0-.312-.755-1.58.273l-.316.158a1.075,1.075,0,0,1-.478-1.243,2.992,2.992,0,0,1-.36-.924s-1.416,1.588.148,2.153l-.616.351a1.333,1.333,0,0,0-1.13.109A1.5,1.5,0,0,1,468-9.954s-.165.415-.228.58a1.836,1.836,0,0,1-1.9-.4s-.25.1.237,1.023a.915.915,0,0,0-.974.342h-.022v.026a1.6,1.6,0,0,0-.219.374s-.083.163.08.843c.005.021.05.038.119.056l-.006.46.029.049h-2.435v-.059l-28.39.026a4.789,4.789,0,0,1-3.7,3.051c-.988-.481-.811.752-.811.752a1.983,1.983,0,0,1-.549,2.242c-2.568,3.766-.616,5.721-.616,5.721a5.337,5.337,0,0,0,.608,6.1,1.7,1.7,0,0,1,.626,1.662c-.576,1.507.661,1.019.661,1.019a4.072,4.072,0,0,1,3.728,2.992h28.4v-.029h46.282l26.6-.024a4.783,4.783,0,0,1,3.7-3.05c.989.481.812-.753.812-.753a1.978,1.978,0,0,1,.549-2.242C543.148,7.038,541.2,5.082,541.2,5.082Z" transform="translate(0 0)" fill="#fff"/><path d="M462.641,16.9v-.029h46.282l26.6-.024a4.783,4.783,0,0,1,3.7-3.05c.989.481.812-.753.812-.753a1.978,1.978,0,0,1,.549-2.242c2.566-3.766.616-5.721.616-5.721a5.338,5.338,0,0,0-.608-6.1,1.7,1.7,0,0,1-.626-1.663c.575-1.505-.664-1.019-.664-1.019a4.071,4.071,0,0,1-3.726-2.992h-28.4V-6.6h-3.838c.2-.179.39-.356.579-.533l1.053-.017s.813-1.424-1.239-1.335a3.025,3.025,0,0,0,.515-1.254s-.132.619-2.155.425c0,0,.182-.42-.046-.628a1.057,1.057,0,0,1-1.019.374,5.11,5.11,0,0,0-1.009-.1,4.94,4.94,0,0,1-.678-.192s1.379-.683.144-2.367c0,0,.018.851-.262.859,0,0,.157,1.336-.651,1.292l-.566.01a.882.882,0,0,0-1.327-.525s-.752-.786-1.408.778a2.779,2.779,0,0,1-.976.242l.037-.651a1.4,1.4,0,0,0-.741.884s-1.39.406-1.535.715a4.4,4.4,0,0,0-1.878-4.132A2.64,2.64,0,0,0,487.359-13l-.085-.847-.6.108s-.42-.095-.436-.185a7.22,7.22,0,0,1,.971-.858s-.04-.36-.292-.3a2.126,2.126,0,0,0-1.269,1.061s-.558-1.231-1.306.033c0,0-.659-1.1-1.209-1.106,0,0-.988.11.541,1.044,0,0-.344.264-.3.373s-.126-.132-.6-.179c0,0-.2.173-.009.735,0,0-2.4-.592-3.436.866,0,0-1.525.856-1.337,3.6l-1.534-.691a1.955,1.955,0,0,0-.66-.874l-.077-.01-.185.653a4.007,4.007,0,0,0-.752-.231s-.643-1.624-1.432-.634c0,0-.312-.755-1.58.273l-.316.158a1.075,1.075,0,0,1-.478-1.243,2.992,2.992,0,0,1-.36-.924s-1.416,1.588.148,2.153l-.616.351a1.333,1.333,0,0,0-1.13.109A1.5,1.5,0,0,1,468-9.954s-.165.415-.228.58a1.836,1.836,0,0,1-1.9-.4s-.25.1.237,1.023a.915.915,0,0,0-.974.342h-.022v.026a1.6,1.6,0,0,0-.219.374s-.083.163.08.843c.005.021.05.038.119.056l-.006.46.029.049h-2.435v-.059l-28.39.026a4.789,4.789,0,0,1-3.7,3.051c-.988-.48-.811.752-.811.752a1.983,1.983,0,0,1-.549,2.242c-2.568,3.766-.616,5.721-.616,5.721a5.337,5.337,0,0,0,.608,6.1,1.7,1.7,0,0,1,.626,1.662c-.576,1.507.661,1.019.661,1.019a4.072,4.072,0,0,1,3.728,2.992h28.4m.25.25H434.04l-.043-.2a3.819,3.819,0,0,0-3.452-2.792,1.42,1.42,0,0,1-.42.072.634.634,0,0,1-.559-.261,1.263,1.263,0,0,1,.043-1.149,1.422,1.422,0,0,0-.52-1.387l-.025-.017-.021-.022a5.686,5.686,0,0,1-1.06-1.848,5.425,5.425,0,0,1,.336-4.387,3.308,3.308,0,0,1-.6-1.437,6.071,6.071,0,0,1,1.311-4.457l.024-.035.034-.025a1.732,1.732,0,0,0,.46-1.964l-.007-.021,0-.021a1.332,1.332,0,0,1,.192-.941.6.6,0,0,1,.47-.208,1.087,1.087,0,0,1,.432.1,4.8,4.8,0,0,0,1.35-.48,4.273,4.273,0,0,0,2.078-2.4l.059-.166,28.816-.026v.059h1.909v-.1a.273.273,0,0,1-.109-.158,1.786,1.786,0,0,1-.067-1,1.839,1.839,0,0,1,.2-.358v-.179l.154-.009a1.173,1.173,0,0,1,.688-.368,1.114,1.114,0,0,1-.114-.78.342.342,0,0,1,.192-.207l.143-.055.114.1a1.612,1.612,0,0,0,1.1.444,1.6,1.6,0,0,0,.432-.059c.073-.189.181-.46.187-.474l.135-.34.268.249a1.261,1.261,0,0,0,.785.321,1.637,1.637,0,0,1,.755-.186,1.546,1.546,0,0,1,.411.055l.119-.068a1.06,1.06,0,0,1-.429-.61,2.236,2.236,0,0,1,.618-1.72l.464-.52-.027.7a2.73,2.73,0,0,0,.328.791l.051.09-.027.1a.811.811,0,0,0,.257.887l.16-.08a2.155,2.155,0,0,1,1.249-.578.785.785,0,0,1,.476.149.8.8,0,0,1,.513-.2c.561,0,.941.676,1.084.979a3.865,3.865,0,0,1,.411.126l.169-.6.34.045.042.024a2.022,2.022,0,0,1,.729.9l1.076.484a3.8,3.8,0,0,1,1.43-3.393,2.968,2.968,0,0,1,2.5-1.048,5.622,5.622,0,0,1,.782.056.7.7,0,0,1,.167-.61l.082-.073.109.011a1.565,1.565,0,0,1,.452.112l.018-.021c-.542-.369-.75-.657-.687-.939a.574.574,0,0,1,.526-.389l.016,0h.016c.475.008.943.542,1.21.912a.9.9,0,0,1,.676-.378.847.847,0,0,1,.634.342,2.2,2.2,0,0,1,1.21-.861.486.486,0,0,1,.1-.011.542.542,0,0,1,.49.533l.016.139-.11.086c-.248.194-.527.421-.71.583l.03.008.817-.146.08.8a3.606,3.606,0,0,1,1.077-.174,2.553,2.553,0,0,1,1.685.572,4.813,4.813,0,0,1,2.007,3.8,6.986,6.986,0,0,1,1.043-.4,1.664,1.664,0,0,1,.843-.913l.371-.158-.042.754a2.622,2.622,0,0,0,.519-.145c.308-.688.691-1.036,1.139-1.036a.9.9,0,0,1,.505.163,1.5,1.5,0,0,1,.478-.085,1.07,1.07,0,0,1,.975.642l.4-.007h.009a.261.261,0,0,0,.229-.084,1.453,1.453,0,0,0,.16-.929l-.031-.271.216-.006a1.841,1.841,0,0,0,.076-.605l-.016-.79.467.637a2.168,2.168,0,0,1,.521,1.779,1.445,1.445,0,0,1-.343.634c.094.026.149.038.174.043a5.377,5.377,0,0,1,1.029.1,1.162,1.162,0,0,0,.138.008.784.784,0,0,0,.634-.275l.162-.24.214.2a.665.665,0,0,1,.191.587c.144.009.28.013.407.013.866,0,1.157-.21,1.2-.291A.129.129,0,0,0,504-9.79l.494.038a2.23,2.23,0,0,1-.327,1.025,1.28,1.28,0,0,1,1.091.533,1.3,1.3,0,0,1-.072,1.171l-.071.124-.143,0-.956.015-.037.035h2.946v-.088h28.85l.043.2a3.812,3.812,0,0,0,.659,1.316,3.812,3.812,0,0,0,2.792,1.476,1.424,1.424,0,0,1,.42-.071.636.636,0,0,1,.56.262,1.262,1.262,0,0,1-.042,1.148,1.422,1.422,0,0,0,.521,1.388l.025.017.021.022A5.68,5.68,0,0,1,541.832.664a5.429,5.429,0,0,1-.335,4.387,3.31,3.31,0,0,1,.6,1.437,6.077,6.077,0,0,1-1.31,4.456l-.024.035-.034.025a1.727,1.727,0,0,0-.46,1.963l.007.021,0,.022a1.334,1.334,0,0,1-.193.942.6.6,0,0,1-.47.208,1.089,1.089,0,0,1-.432-.1,4.792,4.792,0,0,0-1.35.48,4.267,4.267,0,0,0-2.076,2.4l-.059.166-26.777.026H462.891Z" transform="translate(0 0)"/></g></svg>