<svg xmlns="http://www.w3.org/2000/svg" width="63" height="63" viewBox="0 0 63 63"><g transform="translate(0 0)"><path d="M8,1A7.008,7.008,0,0,0,1,8V36.5a7.008,7.008,0,0,0,7,7H36.5a7.008,7.008,0,0,0,7-7V8a7.008,7.008,0,0,0-7-7H8M8,0H36.5a8,8,0,0,1,8,8V36.5a8,8,0,0,1-8,8H8a8,8,0,0,1-8-8V8A8,8,0,0,1,8,0Z" transform="translate(9.251 9.251)" fill="#3a2b20"/><path d="M8,1A7.008,7.008,0,0,0,1,8V36.548a7.008,7.008,0,0,0,7,7H36.548a7.008,7.008,0,0,0,7-7V8a7.008,7.008,0,0,0-7-7H8M8,0H36.548a8,8,0,0,1,8,8V36.548a8,8,0,0,1-8,8H8a8,8,0,0,1-8-8V8A8,8,0,0,1,8,0Z" transform="translate(31.5) rotate(45)" fill="#3a2b20"/><rect width="29.609" height="29.609" rx="8" transform="translate(31.5 10.563) rotate(45)" fill="#f2e3cd"/></g></svg>