<svg xmlns="http://www.w3.org/2000/svg" width="24" height="24" viewBox="0 0 24 24"><path d="M0,0H24V24H0Z" fill="none"/><path d="M2-.75A2.753,2.753,0,0,1,4.75,2V12a2.75,2.75,0,0,1-5.5,0V2A2.753,2.753,0,0,1,2-.75Zm0,14A1.251,1.251,0,0,0,3.25,12V2A1.25,1.25,0,0,0,.75,2V12A1.251,1.251,0,0,0,2,13.25Z" transform="translate(6 5)" fill="#3a2b20"/><path d="M2-.75A2.753,2.753,0,0,1,4.75,2V12a2.75,2.75,0,0,1-5.5,0V2A2.753,2.753,0,0,1,2-.75Zm0,14A1.251,1.251,0,0,0,3.25,12V2A1.25,1.25,0,0,0,.75,2V12A1.251,1.251,0,0,0,2,13.25Z" transform="translate(14 5)" fill="#3a2b20"/></svg>