<svg xmlns="http://www.w3.org/2000/svg" width="35" height="23" viewBox="0 0 35 23"><g transform="translate(0.467 -0.2)"><path d="M8.869,4.8a3,3,0,0,1,5.263,0l6.437,11.754A3,3,0,0,1,17.937,21H5.063a3,3,0,0,1-2.631-4.441Z" transform="translate(13.533 23.2) rotate(-90)" fill="#f4ebdc"/><path d="M11.5,4.746a1.47,1.47,0,0,0-1.316.78L3.748,17.28A1.5,1.5,0,0,0,5.063,19.5H17.937a1.5,1.5,0,0,0,1.316-2.22L12.816,5.525a1.47,1.47,0,0,0-1.316-.78m0-1.5A2.97,2.97,0,0,1,14.131,4.8l6.437,11.754A3,3,0,0,1,17.937,21H5.063a3,3,0,0,1-2.631-4.441L8.869,4.8A2.97,2.97,0,0,1,11.5,3.246Z" transform="translate(13.533 23.2) rotate(-90)" fill="#3a2b20"/><path d="M8.869,4.8a3,3,0,0,1,5.263,0l6.437,11.754A3,3,0,0,1,17.937,21H5.063a3,3,0,0,1-2.631-4.441Z" transform="translate(-0.467 23.2) rotate(-90)" fill="#f4ebdc"/><path d="M11.5,4.746a1.47,1.47,0,0,0-1.316.78L3.748,17.28A1.5,1.5,0,0,0,5.063,19.5H17.937a1.5,1.5,0,0,0,1.316-2.22L12.816,5.525a1.47,1.47,0,0,0-1.316-.78m0-1.5A2.97,2.97,0,0,1,14.131,4.8l6.437,11.754A3,3,0,0,1,17.937,21H5.063a3,3,0,0,1-2.631-4.441L8.869,4.8A2.97,2.97,0,0,1,11.5,3.246Z" transform="translate(-0.467 23.2) rotate(-90)" fill="#3a2b20"/></g></svg>