<svg xmlns="http://www.w3.org/2000/svg" xmlns:xlink="http://www.w3.org/1999/xlink" width="80" height="80" viewBox="0 0 80 80"><defs><filter id="a" x="0" y="0" width="80" height="80" filterUnits="userSpaceOnUse"><feOffset input="SourceAlpha"/><feGaussianBlur stdDeviation="7.5" result="b"/><feFlood flood-opacity="0.078"/><feComposite operator="in" in2="b"/><feComposite in="SourceGraphic"/></filter></defs><g transform="translate(22.5 21.5)"><path d="M8.5,27.917H.04a3.967,3.967,0,0,0,.366-1.674V24.549a3.988,3.988,0,0,0,3.829-4V16.669a3.99,3.99,0,0,0-3.829-4v-11A3.968,3.968,0,0,0,.04,0H8.5a4,4,0,0,1,4,4V23.917A4.005,4.005,0,0,1,8.5,27.917Z" transform="translate(19.031 4.466)" fill="#ded7cd"/><g transform="matrix(1, 0, 0, 1, -22.5, -21.5)" filter="url(#a)"><rect width="24.749" height="24.749" rx="4" transform="translate(40 22.5) rotate(45)" fill="#f2e3cd"/></g></g></svg>