<svg xmlns="http://www.w3.org/2000/svg" xmlns:xlink="http://www.w3.org/1999/xlink" width="80" height="80" viewBox="0 0 80 80"><defs><filter id="a" x="0" y="0" width="80" height="80" filterUnits="userSpaceOnUse"><feOffset input="SourceAlpha"/><feGaussianBlur stdDeviation="7.5" result="b"/><feFlood flood-opacity="0.078"/><feComposite operator="in" in2="b"/><feComposite in="SourceGraphic"/></filter></defs><g transform="translate(22.5 21.5)"><path d="M23.069,27.917H4a4,4,0,0,1-4-4V15.354H11.339a3.983,3.983,0,0,0,3.9-3.089h.591a3.226,3.226,0,0,0,0-6.452H15.34V1.673A3.968,3.968,0,0,0,14.974,0h8.095a4,4,0,0,1,4,4V23.917A4,4,0,0,1,23.069,27.917Z" transform="translate(4.466 4.466)" fill="#ded7cd"/><g transform="matrix(1, 0, 0, 1, -22.5, -21.5)" filter="url(#a)"><rect width="24.749" height="24.749" rx="4" transform="translate(40 22.5) rotate(45)" fill="#f2e3cd"/></g></g></svg>