<svg xmlns="http://www.w3.org/2000/svg" width="16" height="16.996" viewBox="0 0 16 16.996"><path d="M15.468,4.548H5.369l1.094-1.1a.858.858,0,0,0,0-1.206.84.84,0,0,0-1.2,0L2.743,4.794A.855.855,0,0,0,2.743,6L5.268,8.548a.836.836,0,0,0,1.2,0,.855.855,0,0,0,0-1.206l-1.094-1.1h10.1a1.318,1.318,0,0,1,1.338,1.3v2.1a.842.842,0,1,0,1.683,0v-2.1a3.009,3.009,0,0,0-3.021-3Zm.252,7.891a.84.84,0,0,0-1.2,0,.858.858,0,0,0,0,1.206l1.094,1.1H5.52a1.318,1.318,0,0,1-1.338-1.3v-2.1a.842.842,0,1,0-1.683,0v2.1a3.009,3.009,0,0,0,3.021,3h10.1l-1.094,1.1a.855.855,0,0,0,0,1.206.836.836,0,0,0,1.2,0l2.525-2.548a.855.855,0,0,0,0-1.206Z" transform="translate(-2.494 -1.996)" fill="#3a2b20"/></svg>