<svg xmlns="http://www.w3.org/2000/svg" width="17.5" height="17.5" viewBox="0 0 17.5 17.5"><g transform="translate(0.75 0.75)"><path d="M7.664-.75a8.334,8.334,0,0,1,8.414,8.232,8.334,8.334,0,0,1-8.414,8.232A8.334,8.334,0,0,1-.75,7.482,8.334,8.334,0,0,1,7.664-.75Zm0,14.964a6.833,6.833,0,0,0,6.914-6.732A6.833,6.833,0,0,0,7.664.75,6.833,6.833,0,0,0,.75,7.482,6.833,6.833,0,0,0,7.664,14.214Z" transform="translate(0)" fill="#3a2b20"/><path d="M0,0,3,2.926" transform="translate(12.995 13.074)" fill="#3a2b20"/><path d="M3,3.676a.748.748,0,0,1-.523-.213l-3-2.926A.75.75,0,0,1-.537-.523.75.75,0,0,1,.523-.537l3,2.926A.75.75,0,0,1,3,3.676Z" transform="translate(12.995 13.074)" fill="#3a2b20"/></g></svg>