<svg xmlns="http://www.w3.org/2000/svg" width="24" height="24" viewBox="0 0 24 24"><path d="M0,0H24V24H0Z" fill="none"/><path d="M12,21.75a.75.75,0,0,1-.188-.024A12.75,12.75,0,0,1,2.78,5.788a.75.75,0,0,1,.754-.538A11.193,11.193,0,0,0,11.5,2.444a.745.745,0,0,1,.176-.119h0a.752.752,0,0,1,.65,0h0a.745.745,0,0,1,.18.121,11.193,11.193,0,0,0,7.961,2.806.75.75,0,0,1,.754.538,12.75,12.75,0,0,1-9.031,15.938A.75.75,0,0,1,12,21.75ZM4.072,6.763A11.25,11.25,0,0,0,12,20.223,11.251,11.251,0,0,0,19.928,6.763a12.683,12.683,0,0,1-4.22-.727A12.684,12.684,0,0,1,12,3.98,12.684,12.684,0,0,1,8.292,6.036,12.685,12.685,0,0,1,4.072,6.763Z" fill="#3a2b20"/><path d="M1-.75A1.75,1.75,0,1,1-.75,1,1.752,1.752,0,0,1,1-.75Zm0,2A.25.25,0,1,0,.75,1,.25.25,0,0,0,1,1.25Z" transform="translate(11 10)" fill="#3a2b20"/><path d="M0,3.25A.75.75,0,0,1-.75,2.5V0A.75.75,0,0,1,0-.75.75.75,0,0,1,.75,0V2.5A.75.75,0,0,1,0,3.25Z" transform="translate(12 12)" fill="#3a2b20"/></svg>