<svg xmlns="http://www.w3.org/2000/svg" width="24" height="24" viewBox="0 0 24 24"><path d="M0,0H24V24H0Z" fill="none"/><path d="M2-.75H12A2.753,2.753,0,0,1,14.75,2V16A2.753,2.753,0,0,1,12,18.75H2A2.753,2.753,0,0,1-.75,16V2A2.753,2.753,0,0,1,2-.75Zm10,18A1.251,1.251,0,0,0,13.25,16V2A1.251,1.251,0,0,0,12,.75H2A1.251,1.251,0,0,0,.75,2V16A1.251,1.251,0,0,0,2,17.25Z" transform="translate(5 3)" fill="#3a2b20"/><path d="M6,.75H0A.75.75,0,0,1-.75,0,.75.75,0,0,1,0-.75H6A.75.75,0,0,1,6.75,0,.75.75,0,0,1,6,.75Z" transform="translate(9 7)" fill="#3a2b20"/><path d="M6,.75H0A.75.75,0,0,1-.75,0,.75.75,0,0,1,0-.75H6A.75.75,0,0,1,6.75,0,.75.75,0,0,1,6,.75Z" transform="translate(9 11)" fill="#3a2b20"/><path d="M4,.75H0A.75.75,0,0,1-.75,0,.75.75,0,0,1,0-.75H4A.75.75,0,0,1,4.75,0,.75.75,0,0,1,4,.75Z" transform="translate(9 15)" fill="#3a2b20"/></svg>