<svg xmlns="http://www.w3.org/2000/svg" width="24" height="24" viewBox="0 0 24 24"><path d="M0,0H24V24H0Z" fill="none"/><path d="M20,17.75H4a.75.75,0,0,1-.37-1.4,3.263,3.263,0,0,0,1.62-2.4V11q0-.018,0-.035A7.733,7.733,0,0,1,9.292,4.518a2.75,2.75,0,0,1,5.416,0,7.733,7.733,0,0,1,4.041,6.446q0,.018,0,.035v2.952a3.263,3.263,0,0,0,1.62,2.4.75.75,0,0,1-.37,1.4ZM5.913,16.25H18.087a4.754,4.754,0,0,1-.832-2.16A.75.75,0,0,1,17.25,14V11.018a6.238,6.238,0,0,0-3.571-5.34A.75.75,0,0,1,13.25,5a1.25,1.25,0,0,0-2.5-.013.751.751,0,0,1-.444.7A6.237,6.237,0,0,0,6.75,11.018V14a.75.75,0,0,1-.005.09A4.754,4.754,0,0,1,5.913,16.25Z" fill="#3a2b20"/><path d="M12,21.75A3.754,3.754,0,0,1,8.25,18V17a.75.75,0,0,1,1.5,0v1a2.25,2.25,0,0,0,4.5,0V17a.75.75,0,0,1,1.5,0v1A3.754,3.754,0,0,1,12,21.75Z" fill="#3a2b20"/></svg>