<svg xmlns="http://www.w3.org/2000/svg" width="24" height="24" viewBox="0 0 24 24"><path d="M0,0H24V24H0Z" fill="none"/><path d="M12.119,21.755q-.075,0-.151-.006A9.75,9.75,0,0,1,12,2.25a10.286,10.286,0,0,1,6.862,2.533A8.269,8.269,0,0,1,21.75,11a5.025,5.025,0,0,1-5.25,4.75H13.967a1.25,1.25,0,0,0-.6,2.344.75.75,0,0,1,.146.105,2.05,2.05,0,0,1-1.389,3.557Zm-.045-1.5a.55.55,0,0,0,.462-.906,2.75,2.75,0,0,1,1.469-5.1H16.5A3.531,3.531,0,0,0,20.25,11c0-4-3.7-7.25-8.25-7.25a8.25,8.25,0,0,0-.009,16.5h.042Z" fill="#3a2b20"/><circle cx="0.5" cy="0.5" r="0.5" transform="translate(7 10)" fill="#3a2b20"/><path d="M.5-.75A1.25,1.25,0,1,1-.75.5,1.251,1.251,0,0,1,.5-.75Z" transform="translate(7 10)" fill="#3a2b20"/><circle cx="0.5" cy="0.5" r="0.5" transform="translate(11.5 7)" fill="#3a2b20"/><path d="M.5-.75A1.25,1.25,0,1,1-.75.5,1.251,1.251,0,0,1,.5-.75Z" transform="translate(11.5 7)" fill="#3a2b20"/><circle cx="0.5" cy="0.5" r="0.5" transform="translate(16 10)" fill="#3a2b20"/><path d="M.5-.75A1.25,1.25,0,1,1-.75.5,1.251,1.251,0,0,1,.5-.75Z" transform="translate(16 10)" fill="#3a2b20"/></svg>