<svg xmlns="http://www.w3.org/2000/svg" width="24" height="24" viewBox="0 0 24 24"><path d="M0,0H24V24H0Z" fill="none"/><path d="M8-.75a17.453,17.453,0,0,1,5.92.926C16.259,1.054,16.75,2.2,16.75,3s-.491,1.946-2.83,2.824A17.453,17.453,0,0,1,8,6.75a17.453,17.453,0,0,1-5.92-.926C-.259,4.946-.75,3.8-.75,3S-.259,1.054,2.08.176A17.453,17.453,0,0,1,8-.75Zm0,6a15.941,15.941,0,0,0,5.394-.831C14.25,4.1,15.25,3.534,15.25,3c0-.333-.486-.905-1.856-1.419A15.941,15.941,0,0,0,8,.75a15.941,15.941,0,0,0-5.394.831C1.75,1.9.75,2.466.75,3c0,.333.486.905,1.856,1.419A15.941,15.941,0,0,0,8,5.25Z" transform="translate(4 3)" fill="#3a2b20"/><path d="M12,15.75a17.453,17.453,0,0,1-5.92-.926C3.741,13.946,3.25,12.8,3.25,12V6a.75.75,0,0,1,1.5,0v6c0,.333.486.905,1.856,1.419A15.941,15.941,0,0,0,12,14.25a15.941,15.941,0,0,0,5.394-.831C18.25,13.1,19.25,12.534,19.25,12V6a.75.75,0,0,1,1.5,0v6c0,.8-.491,1.946-2.83,2.824A17.453,17.453,0,0,1,12,15.75Z" fill="#3a2b20"/><path d="M12,21.75a17.453,17.453,0,0,1-5.92-.926C3.741,19.947,3.25,18.8,3.25,18V12a.75.75,0,0,1,1.5,0v6c0,.333.486.905,1.856,1.419A15.941,15.941,0,0,0,12,20.25a15.941,15.941,0,0,0,5.394-.831C18.25,19.1,19.25,18.534,19.25,18V12a.75.75,0,0,1,1.5,0v6c0,.8-.491,1.947-2.83,2.824A17.453,17.453,0,0,1,12,21.75Z" fill="#3a2b20"/></svg>