<svg xmlns="http://www.w3.org/2000/svg" width="24" height="24" viewBox="0 0 24 24"><path d="M0,0H24V24H0Z" fill="none"/><path d="M9-.75A9.75,9.75,0,1,1-.75,9,9.761,9.761,0,0,1,9-.75Zm0,18A8.25,8.25,0,1,0,.75,9,8.259,8.259,0,0,0,9,17.25Z" transform="translate(3 3)" fill="#3a2b20"/><path d="M.01.75H0A.75.75,0,0,1-.75,0,.75.75,0,0,1,0-.75H.01A.75.75,0,0,1,.76,0,.75.75,0,0,1,.01.75Z" transform="translate(12 8)" fill="#3a2b20"/><path d="M13,16.75H12a.75.75,0,0,1-.75-.75V12.75H11a.75.75,0,0,1,0-1.5h1a.75.75,0,0,1,.75.75v3.25H13a.75.75,0,0,1,0,1.5Z" fill="#3a2b20"/></svg>