<svg xmlns="http://www.w3.org/2000/svg" width="27.255" height="26.087" viewBox="0 0 27.255 26.087"><path d="M46.359,8.725,38.916,7.64,35.589.895a1.632,1.632,0,0,0-2.924,0L29.338,7.64,21.9,8.725a1.631,1.631,0,0,0-.9,2.782l5.385,5.247L25.1,24.166a1.629,1.629,0,0,0,2.364,1.717l6.658-3.5,6.658,3.5a1.631,1.631,0,0,0,2.364-1.717l-1.274-7.412,5.385-5.247a1.631,1.631,0,0,0-.9-2.782Zm-6.231,7.458,1.416,8.253-7.418-3.892-7.412,3.9,1.416-8.253-6-5.854,8.289-1.2,3.709-7.514,3.709,7.514,8.289,1.2Z" transform="translate(-20.5 0.013)" fill="#3a2b20" opacity="0"/><path d="M31.692.822,28.631,7.028l-6.848,1a1.5,1.5,0,0,0-.83,2.559l4.954,4.828-1.172,6.819a1.5,1.5,0,0,0,2.175,1.579l6.126-3.22,6.126,3.22a1.5,1.5,0,0,0,2.175-1.579l-1.172-6.819,4.954-4.828a1.5,1.5,0,0,0-.83-2.559l-6.848-1L34.382.822A1.5,1.5,0,0,0,31.692.822Z" transform="translate(-19.409 1.013)" fill="#3a2b20"/></svg>