<svg xmlns="http://www.w3.org/2000/svg" width="158" height="73" viewBox="0 0 158 73"><g transform="translate(-108 -112)"><path d="M-4972.122-112.29l-10.632,10.676h-56.91v14.229L-5050.007-77l10.343,10.385v14.65h56.91l10.632,10.676,10.632-10.676h57.14v-14.65L-4894.007-77l-10.343-10.385v-14.229h-57.14Z" transform="translate(5159.007 225.29)" fill="#f2e3cd"/><path d="M-4972.122-113.29a1,1,0,0,1,.708.294l10.339,10.381h56.725a1,1,0,0,1,1,1V-87.8l10.051,10.092a1,1,0,0,1,0,1.411L-4903.35-66.2v14.236a1,1,0,0,1-1,1h-56.725l-10.339,10.381a1,1,0,0,1-.708.294,1,1,0,0,1-.708-.294l-10.339-10.381h-56.494a1,1,0,0,1-1-1V-66.2l-10.051-10.092a1,1,0,0,1,0-1.411l10.051-10.092v-13.816a1,1,0,0,1,1-1h56.494L-4972.831-113A1,1,0,0,1-4972.122-113.29Zm66.772,12.676h-56.14a1,1,0,0,1-.708-.294l-9.924-9.964-9.924,9.964a1,1,0,0,1-.708.294h-55.91v13.229a1,1,0,0,1-.292.706L-5048.6-77l9.64,9.679a1,1,0,0,1,.292.706v13.65h55.91a1,1,0,0,1,.708.294l9.924,9.964,9.924-9.964a1,1,0,0,1,.708-.294h56.14v-13.65a1,1,0,0,1,.292-.706l9.64-9.679-9.64-9.679a1,1,0,0,1-.292-.706Z" transform="translate(5159.007 225.29)" fill="#3a2b20"/></g></svg>