<svg xmlns="http://www.w3.org/2000/svg" width="45.25" height="21.25" viewBox="0 0 45.25 21.25"><g transform="translate(-163.875 -751.875)"><path d="M-4685.322-863h-26.356s-.886-2.428-5.483-2.667c0,0-1.824.437-.977-.908,0,0,.316-.991-.923-1.482,0,0-3.65-2.37-.9-5.433,0,0-2.869-1.744.906-5.1,0,0,1.52-.68.811-2,0,0-.26-1.1,1.195-.669,0,0,4.017-.3,5.441-2.719l26.4-.022v.313c1.563,2.15,5.25,2.428,5.25,2.428,1.455-.429,1.2.669,1.2.669-.711,1.321.808,2,.808,2,3.776,3.353.909,5.1.909,5.1,2.754,3.063-.9,5.433-.9,5.433-1.239.491-.923,1.482-.923,1.482.846,1.345-.975.908-.975.908-3.978.207-5.176,2.052-5.428,2.546V-863Z" transform="translate(4885 1636)" fill="#fff"/><path d="M-4685.142-862.875h-26.624l-.03-.082a3.181,3.181,0,0,0-.994-1.2,7.5,7.5,0,0,0-4.361-1.383,2.923,2.923,0,0,1-.585.067c-.358,0-.592-.1-.7-.284-.114-.207-.056-.491.178-.868.031-.116.195-.9-.854-1.315l-.012,0-.01-.007a4.592,4.592,0,0,1-1.957-2.84,3.382,3.382,0,0,1,.942-2.675,2.435,2.435,0,0,1-.973-1.691c-.1-1.082.569-2.267,1.982-3.522l.014-.013.018-.008a1.786,1.786,0,0,0,.872-.885,1.161,1.161,0,0,0-.121-.943l-.007-.014,0-.016a.869.869,0,0,1,.123-.675c.21-.266.615-.319,1.206-.15.319-.029,4-.416,5.32-2.656l.037-.061,26.6-.023v.4c1.463,1.965,4.808,2.314,5.112,2.342.59-.169,1-.116,1.207.15a.869.869,0,0,1,.124.675l0,.016-.008.015a1.161,1.161,0,0,0-.121.944,1.782,1.782,0,0,0,.87.884l.018.008.014.013c1.414,1.256,2.082,2.441,1.984,3.523a2.436,2.436,0,0,1-.972,1.69,3.382,3.382,0,0,1,.942,2.675,4.592,4.592,0,0,1-1.958,2.84l-.01.007-.012,0c-1.047.415-.885,1.2-.854,1.315.234.377.292.661.178.868-.1.188-.338.284-.695.284a2.905,2.905,0,0,1-.584-.067c-3.8.2-5,1.892-5.292,2.451Zm-26.455-.25h26.2v-.026l.014-.027c.285-.56,1.528-2.405,5.533-2.614h.018l.018,0a2.69,2.69,0,0,0,.544.064c.252,0,.421-.055.476-.155.065-.118,0-.341-.18-.629l-.008-.013,0-.015a1.355,1.355,0,0,1,.984-1.631,4.4,4.4,0,0,0,1.837-2.659,3.211,3.211,0,0,0-.974-2.58l-.1-.112.129-.078a2.244,2.244,0,0,0,.975-1.586c.088-.995-.547-2.1-1.888-3.3a1.987,1.987,0,0,1-.986-1.022,1.391,1.391,0,0,1,.128-1.128.605.605,0,0,0-.08-.449c-.144-.18-.479-.2-.963-.058l-.022.006-.022,0c-.153-.012-3.763-.307-5.341-2.479l-.024-.033v-.229l-26.2.022a5.8,5.8,0,0,1-3.287,2.26,10.661,10.661,0,0,1-2.215.459l-.022,0-.022-.006c-.484-.143-.82-.122-.962.058a.609.609,0,0,0-.078.449,1.4,1.4,0,0,1,.127,1.127,1.992,1.992,0,0,1-.988,1.022c-1.34,1.194-1.975,2.3-1.886,3.3a2.247,2.247,0,0,0,.976,1.587l.128.078-.1.112a3.211,3.211,0,0,0-.974,2.582,4.385,4.385,0,0,0,1.836,2.657,1.354,1.354,0,0,1,.983,1.632l0,.015-.008.013c-.182.288-.246.511-.181.629.055.1.225.155.477.155a2.7,2.7,0,0,0,.545-.064l.018,0h.018a7.726,7.726,0,0,1,4.537,1.451A3.571,3.571,0,0,1-4711.6-863.125Z" transform="translate(4885 1636)"/></g></svg>