<svg xmlns="http://www.w3.org/2000/svg" width="156.5" height="71.5" viewBox="0 0 156.5 71.5"><g transform="translate(-34.75 -112.75)"><path d="M-4972.122-112.29l-10.632,10.676h-56.91v14.229L-5050.007-77l10.343,10.385v14.65h56.91l10.632,10.676,10.632-10.676h57.14v-14.65L-4894.007-77l-10.343-10.385v-14.229h-57.14Z" transform="translate(5085.007 225.29)" fill="#fcf8ed"/><path d="M-4972.122-112.54a.25.25,0,0,1,.177.074l10.559,10.6h57.036a.25.25,0,0,1,.25.25v14.126l10.27,10.312a.25.25,0,0,1,0,.353l-10.27,10.312v14.546a.25.25,0,0,1-.25.25h-57.036l-10.559,10.6a.25.25,0,0,1-.177.074.25.25,0,0,1-.177-.074l-10.559-10.6h-56.806a.25.25,0,0,1-.25-.25V-66.512l-10.27-10.312a.25.25,0,0,1,0-.353l10.27-10.312v-14.126a.25.25,0,0,1,.25-.25h56.806l10.559-10.6A.25.25,0,0,1-4972.122-112.54Zm67.522,11.176h-56.89a.25.25,0,0,1-.177-.074l-10.455-10.5-10.455,10.5a.25.25,0,0,1-.177.074h-56.66v13.979a.251.251,0,0,1-.073.176L-5049.654-77l10.167,10.209a.251.251,0,0,1,.073.176v14.4h56.66a.25.25,0,0,1,.177.074l10.455,10.5,10.455-10.5a.25.25,0,0,1,.177-.074h56.89v-14.4a.251.251,0,0,1,.073-.176L-4894.36-77l-10.167-10.209a.251.251,0,0,1-.073-.176Z" transform="translate(5085.007 225.29)" fill="#ccbca4"/></g></svg>