<svg width="16" height="20" viewBox="0 0 16 20" fill="none" xmlns="http://www.w3.org/2000/svg">
<path d="M2.75 19.5H12.75C13.4791 19.4992 14.1781 19.2092 14.6937 18.6937C15.2092 18.1781 15.4992 17.4791 15.5 16.75V2.75C15.4992 2.0209 15.2092 1.32189 14.6937 0.806334C14.1781 0.290781 13.4791 0.000794085 12.75 0H2.75C2.0209 0.000794085 1.32189 0.290781 0.806333 0.806334C0.29078 1.32189 0.000794085 2.0209 0 2.75V16.75C0.000794085 17.4791 0.29078 18.1781 0.806333 18.6937C1.32189 19.2092 2.0209 19.4992 2.75 19.5ZM12.75 1.5C13.0814 1.50026 13.3992 1.63205 13.6336 1.86641C13.868 2.10077 13.9997 2.41856 14 2.75V16.75C13.9997 17.0814 13.868 17.3992 13.6336 17.6336C13.3992 17.868 13.0814 17.9997 12.75 18H2.75C2.41856 17.9997 2.10077 17.868 1.86641 17.6336C1.63205 17.3992 1.50026 17.0814 1.5 16.75V2.75C1.50026 2.41856 1.63205 2.10077 1.86641 1.86641C2.10077 1.63205 2.41856 1.50026 2.75 1.5H12.75Z" fill="#8E7F72"/>
<path d="M10.75 14H4.75C4.55109 14 4.36032 14.079 4.21967 14.2197C4.07902 14.3603 4 14.5511 4 14.75C4 14.9489 4.07902 15.1397 4.21967 15.2803C4.36032 15.421 4.55109 15.5 4.75 15.5H10.75C10.9489 15.5 11.1397 15.421 11.2803 15.2803C11.421 15.1397 11.5 14.9489 11.5 14.75C11.5 14.5511 11.421 14.3603 11.2803 14.2197C11.1397 14.079 10.9489 14 10.75 14Z" fill="#8E7F72"/>
<path d="M10.75 10H4.75C4.55109 10 4.36032 10.079 4.21967 10.2197C4.07902 10.3603 4 10.5511 4 10.75C4 10.9489 4.07902 11.1397 4.21967 11.2803C4.36032 11.421 4.55109 11.5 4.75 11.5H10.75C10.9489 11.5 11.1397 11.421 11.2803 11.2803C11.421 11.1397 11.5 10.9489 11.5 10.75C11.5 10.5511 11.421 10.3603 11.2803 10.2197C11.1397 10.079 10.9489 10 10.75 10Z" fill="#8E7F72"/>
<path d="M8.75 6H4.75C4.55109 6 4.36032 6.07902 4.21967 6.21967C4.07902 6.36032 4 6.55109 4 6.75C4 6.94891 4.07902 7.13968 4.21967 7.28033C4.36032 7.42098 4.55109 7.5 4.75 7.5H8.75C8.94891 7.5 9.13968 7.42098 9.28033 7.28033C9.42098 7.13968 9.5 6.94891 9.5 6.75C9.5 6.55109 9.42098 6.36032 9.28033 6.21967C9.13968 6.07902 8.94891 6 8.75 6Z" fill="#8E7F72"/>
</svg>
