<svg width="16" height="20" viewBox="0 0 16 20" fill="none" xmlns="http://www.w3.org/2000/svg">
<path fill-rule="evenodd" clip-rule="evenodd" d="M14.1336 1.86639C13.8992 1.63205 13.5814 1.50027 13.25 1.5H3.25C2.91858 1.50027 2.60077 1.63205 2.36639 1.86639C2.13202 2.10077 2.00024 2.41855 2 2.75V16.75C2.00024 17.0815 2.13202 17.3992 2.36639 17.6336C2.60077 17.868 2.91858 17.9997 3.25 18H13.25C13.5814 17.9997 13.8992 17.868 14.1336 17.6336C14.368 17.3992 14.4998 17.0815 14.5 16.75V2.75C14.4998 2.41855 14.368 2.10077 14.1336 1.86639ZM5.25 14H11.25C11.4489 14 11.6396 14.079 11.7803 14.2197C11.921 14.3603 12 14.5511 12 14.75C12 14.9489 11.921 15.1397 11.7803 15.2803C11.6396 15.421 11.4489 15.5 11.25 15.5H5.25C5.05109 15.5 4.86035 15.421 4.71967 15.2803C4.57904 15.1397 4.5 14.9489 4.5 14.75C4.5 14.5511 4.57904 14.3603 4.71967 14.2197C4.86035 14.079 5.05109 14 5.25 14ZM11.25 10H5.25C5.05109 10 4.86035 10.079 4.71967 10.2197C4.57904 10.3603 4.5 10.5511 4.5 10.75C4.5 10.9489 4.57904 11.1397 4.71967 11.2803C4.86035 11.421 5.05109 11.5 5.25 11.5H11.25C11.4489 11.5 11.6396 11.421 11.7803 11.2803C11.921 11.1397 12 10.9489 12 10.75C12 10.5511 11.921 10.3603 11.7803 10.2197C11.6396 10.079 11.4489 10 11.25 10ZM5.25 6H9.25C9.44891 6 9.63965 6.07901 9.78033 6.21967C9.92096 6.36032 10 6.55109 10 6.75C10 6.94891 9.92096 7.13968 9.78033 7.28033C9.63965 7.42099 9.44891 7.5 9.25 7.5H5.25C5.05109 7.5 4.86035 7.42099 4.71967 7.28033C4.57904 7.13968 4.5 6.94891 4.5 6.75C4.5 6.55109 4.57904 6.36032 4.71967 6.21967C4.86035 6.07901 5.05109 6 5.25 6Z" fill="white"/>
<path d="M3.25 19.5H13.25C13.9791 19.4992 14.6781 19.2092 15.1937 18.6937C15.7092 18.1781 15.9992 17.4791 16 16.75V2.75C15.9992 2.0209 15.7092 1.32189 15.1937 0.806334C14.6781 0.290781 13.9791 0.000794085 13.25 0H3.25C2.5209 0.000794085 1.82189 0.290781 1.30633 0.806334C0.79078 1.32189 0.500794 2.0209 0.5 2.75V16.75C0.500794 17.4791 0.79078 18.1781 1.30633 18.6937C1.82189 19.2092 2.5209 19.4992 3.25 19.5ZM13.25 1.5C13.5814 1.50027 13.8992 1.63205 14.1336 1.86639C14.368 2.10077 14.4998 2.41855 14.5 2.75V16.75C14.4998 17.0815 14.368 17.3992 14.1336 17.6336C13.8992 17.868 13.5814 17.9997 13.25 18H3.25C2.91858 17.9997 2.60077 17.868 2.36639 17.6336C2.13202 17.3992 2.00024 17.0815 2 16.75V2.75C2.00024 2.41855 2.13202 2.10077 2.36639 1.86639C2.60077 1.63205 2.91858 1.50027 3.25 1.5H13.25Z" fill="white"/>
</svg>
