<svg id="quran" xmlns="http://www.w3.org/2000/svg" width="32.207" height="32.207" viewBox="0 0 32.207 32.207">
  <path id="Path_23942" data-name="Path 23942" d="M4.059,2.125a.376.376,0,0,0-.436-.613L1.607,2.941h0a.377.377,0,0,0-.158.342l.005,7.877a.376.376,0,0,0,.752,0l0-7.716L4.059,2.125Zm4.8,11.669a.376.376,0,0,0,.643.392.968.968,0,0,1,.462-.344,2.242,2.242,0,0,1,.853-.157,2.268,2.268,0,0,1,.819.143,1.059,1.059,0,0,1,.476.327.377.377,0,1,0,.61-.442,1.8,1.8,0,0,0-.812-.586,3.131,3.131,0,0,0-2.235.02,1.7,1.7,0,0,0-.816.647Z" transform="translate(5.381 5.361)" fill="#3a2b20"/>
  <path id="Path_23943" data-name="Path 23943" d="M9.129,12.152c1.288-2.323,5.277-2.792,6.508-2.882V2.23c-6.17.576-6.128,3.4-6.128,3.412h0a.377.377,0,0,1-.755-.006h0c0-.119-.084-2.844-6.128-3.408V9.27c1.231.088,5.222.549,6.5,2.883Zm.378,1.2a.386.386,0,0,1-.364.338.377.377,0,0,1-.4-.325h0C8.324,10.283,2.727,10.019,2.271,10a.377.377,0,0,1-.4-.377V1.82a.379.379,0,0,1,.405-.378h0C6.811,1.779,8.5,3.32,9.133,4.437c.63-1.115,2.316-2.652,6.83-2.991a.378.378,0,0,1,.429.374v7.8c0,.953-6.338.047-6.884,3.727Z" transform="translate(6.97 5.361)" fill="#3a2b20"/>
  <path id="Path_23944" data-name="Path 23944" d="M5.387,1.512a.376.376,0,0,0-.436.613L6.806,3.441l-.071,7.741a.376.376,0,1,0,.752.006l.073-7.9A.377.377,0,0,0,7.4,2.94h0L5.387,1.512Z" transform="translate(17.815 5.361)" fill="#3a2b20"/>
  <path id="Path_23945" data-name="Path 23945" d="M21.386,4.24,12.735,7.575l.874.337,6.51-2.589c.125-.042,1.194-.422,1.267-1.082ZM11.554,7.224,21.563,3.366a.378.378,0,0,1,.542.34v.144c.355,1.518-1.756,2.192-1.762,2.194h0l-6.561,2.61a.376.376,0,0,1-.306.015l-1.893-.731a.377.377,0,0,1-.029-.714h0Zm-1.788,1.5c-2.611,1.006-5.207,2.014-7.813,3.032a.584.584,0,0,0,.7.52L10.672,9.08l-.907-.361ZM9.6,7.975a.376.376,0,0,1,.3-.011h0l1.89.752a.377.377,0,0,1,.032.713h0l-8.92,3.548a.377.377,0,0,1-.132.039h0a1.33,1.33,0,0,1-1.582-1.552.428.428,0,0,1,.412-.386q4-1.562,8-3.1Z" transform="translate(4.414 12.373)" fill="#3a2b20"/>
  <path id="Path_23946" data-name="Path 23946" d="M5.375,4.088a.376.376,0,0,0-.616.43A6.882,6.882,0,0,0,5.94,5.83a4.218,4.218,0,0,0,1.946.964c.088.025.629.212.507,1.041h0a.379.379,0,0,0,0,.078L8.354,9.237a.376.376,0,1,0,.752.018l.036-1.326A1.546,1.546,0,0,0,8.078,6.065a.383.383,0,0,0-.051-.013h0a3.475,3.475,0,0,1-1.6-.8A6.108,6.108,0,0,1,5.375,4.088Z" transform="translate(17.439 14.602)" fill="#3a2b20"/>
  <path id="Path_23947" data-name="Path 23947" d="M1.779,3.366l20.128,7.758h0a.378.378,0,0,1,.242.341,1.33,1.33,0,0,1-1.582,1.552l.038-.374-.04.375a.377.377,0,0,1-.132-.039L3,6.042H3c-.006,0-2.117-.676-1.762-2.194V3.706a.378.378,0,0,1,.542-.34Zm19.613,8.366L1.956,4.24C2.029,4.9,3.1,5.28,3.223,5.322l.034.012h0l17.435,6.936a.586.586,0,0,0,.7-.539Z" transform="translate(4.45 12.373)" fill="#3a2b20"/>
  <path id="Path_23948" data-name="Path 23948" d="M6.829,10.749a.376.376,0,1,0-.616-.43,6.108,6.108,0,0,1-1.049,1.164,3.476,3.476,0,0,1-1.6.8h0a.383.383,0,0,0-.051.013,1.546,1.546,0,0,0-1.064,1.863l.036,1.326a.376.376,0,0,0,.752-.018L3.2,14.142a.379.379,0,0,0,0-.078h0c-.122-.829.419-1.016.507-1.041a4.218,4.218,0,0,0,1.946-.964,6.882,6.882,0,0,0,1.182-1.311Zm5.718-.45a.376.376,0,0,0,.752,0V2.628a.376.376,0,1,0-.752,0ZM1.232,16.275a.377.377,0,1,0,0,.755H24.616a.377.377,0,1,0,0-.755H1.232Z" transform="translate(3.179 8.372)" fill="#3a2b20"/>
  <rect id="Rectangle_718" data-name="Rectangle 718" width="32.207" height="32.207" fill="none"/>
</svg>
